<?xml version="1.0" encoding="UTF-8" standalone="no"?>
<!DOCTYPE svg PUBLIC "-//W3C//DTD SVG 1.1//EN"
 "http://www.w3.org/Graphics/SVG/1.1/DTD/svg11.dtd">
<!-- Generated by graphviz version 2.38.0 (20140413.2041)
 -->
<!-- Title: okw.core.OK.handleException Pages: 1 -->
<svg width="959pt" height="269pt"
 viewBox="0.00 0.00 959.00 269.00" xmlns="http://www.w3.org/2000/svg" xmlns:xlink="http://www.w3.org/1999/xlink">
<g id="graph0" class="graph" transform="scale(1 1) rotate(0) translate(4 265)">
<title>okw.core.OK.handleException</title>
<polygon fill="white" stroke="none" points="-4,4 -4,-265 955,-265 955,4 -4,4"/>
<!-- Node82 -->
<g id="node1" class="node"><title>Node82</title>
<g id="a_node1"><a xlink:title="Zentrale Exception&#45;Behandlung.">
<polygon fill="#bfbfbf" stroke="black" points="0,-121 0,-140 156,-140 156,-121 0,-121"/>
<text text-anchor="middle" x="78" y="-128" font-family="Helvetica,sans-Serif" font-size="10.00">okw.core.OK.handleException</text>
</a>
</g>
</g>
<!-- Node83 -->
<g id="node2" class="node"><title>Node83</title>
<g id="a_node2"><a xlink:href="classokw_1_1log_1_1_logger___sngltn.html#a8ebceaddd6cc6963ddb8e08c72ea808c" target="_top" xlink:title="LogPrint Function: Prints the values of expressions to the results file.">
<polygon fill="white" stroke="black" points="396,-230.5 396,-260.5 539,-260.5 539,-230.5 396,-230.5"/>
<text text-anchor="start" x="404" y="-248.5" font-family="Helvetica,sans-Serif" font-size="10.00">okw.log.Logger_Sngltn.Log</text>
<text text-anchor="middle" x="467.5" y="-237.5" font-family="Helvetica,sans-Serif" font-size="10.00">Print</text>
</a>
</g>
</g>
<!-- Node82&#45;&gt;Node83 -->
<g id="edge1" class="edge"><title>Node82&#45;&gt;Node83</title>
<path fill="none" stroke="midnightblue" d="M91.0292,-140.209C110.813,-155.634 152.022,-185.518 192,-200.5 254.58,-223.952 329.716,-235.199 385.546,-240.583"/>
<polygon fill="midnightblue" stroke="midnightblue" points="385.46,-244.09 395.739,-241.522 386.102,-237.119 385.46,-244.09"/>
</g>
<!-- Node84 -->
<g id="node3" class="node"><title>Node84</title>
<g id="a_node3"><a xlink:href="classokw_1_1log_1_1_logger___sngltn.html#aa29d396a2b9df1ac57079d777c548181" target="_top" xlink:title="LogException Function: Logs a Script Exception to the results file.">
<polygon fill="white" stroke="black" points="198,-49.5 198,-79.5 341,-79.5 341,-49.5 198,-49.5"/>
<text text-anchor="start" x="206" y="-67.5" font-family="Helvetica,sans-Serif" font-size="10.00">okw.log.Logger_Sngltn.Log</text>
<text text-anchor="middle" x="269.5" y="-56.5" font-family="Helvetica,sans-Serif" font-size="10.00">Exception</text>
</a>
</g>
</g>
<!-- Node82&#45;&gt;Node84 -->
<g id="edge2" class="edge"><title>Node82&#45;&gt;Node84</title>
<path fill="none" stroke="midnightblue" d="M106.555,-120.903C134.985,-111.001 180.045,-95.3075 215.424,-82.9855"/>
<polygon fill="midnightblue" stroke="midnightblue" points="216.832,-86.2015 225.124,-79.6071 214.529,-79.591 216.832,-86.2015"/>
</g>
<!-- Node85 -->
<g id="node4" class="node"><title>Node85</title>
<g id="a_node4"><a xlink:href="classokw_1_1log_1_1_logger___sngltn.html#ab4fc711bb4c754f251372ff3b14ab9c9" target="_top" xlink:title="Creates a new hierarchical level in the results file.">
<polygon fill="white" stroke="black" points="396,-181.5 396,-211.5 539,-211.5 539,-181.5 396,-181.5"/>
<text text-anchor="start" x="404" y="-199.5" font-family="Helvetica,sans-Serif" font-size="10.00">okw.log.Logger_Sngltn.Res</text>
<text text-anchor="middle" x="467.5" y="-188.5" font-family="Helvetica,sans-Serif" font-size="10.00">OpenList</text>
</a>
</g>
</g>
<!-- Node82&#45;&gt;Node85 -->
<g id="edge3" class="edge"><title>Node82&#45;&gt;Node85</title>
<path fill="none" stroke="midnightblue" d="M96.787,-140.041C118.549,-151.203 156.844,-169.208 192,-177.5 256.014,-192.599 330.57,-196.953 385.814,-197.752"/>
<polygon fill="midnightblue" stroke="midnightblue" points="385.86,-201.252 395.897,-197.861 385.936,-194.253 385.86,-201.252"/>
</g>
<!-- Node86 -->
<g id="node5" class="node"><title>Node86</title>
<g id="a_node5"><a xlink:href="classokw_1_1log_1_1_logger___sngltn.html#a9b54104f7e0b4c0a473877b19dfaed56" target="_top" xlink:title="Closes a hierarchical level in the results file that was opened with ResOpenList.">
<polygon fill="white" stroke="black" points="396,-93.5 396,-123.5 539,-123.5 539,-93.5 396,-93.5"/>
<text text-anchor="start" x="404" y="-111.5" font-family="Helvetica,sans-Serif" font-size="10.00">okw.log.Logger_Sngltn.Res</text>
<text text-anchor="middle" x="467.5" y="-100.5" font-family="Helvetica,sans-Serif" font-size="10.00">CloseList</text>
</a>
</g>
</g>
<!-- Node82&#45;&gt;Node86 -->
<g id="edge4" class="edge"><title>Node82&#45;&gt;Node86</title>
<path fill="none" stroke="midnightblue" d="M156.021,-126.127C222.467,-122.355 318.114,-116.925 385.651,-113.09"/>
<polygon fill="midnightblue" stroke="midnightblue" points="386.037,-116.574 395.822,-112.513 385.64,-109.585 386.037,-116.574"/>
</g>
<!-- Node87 -->
<g id="node6" class="node"><title>Node87</title>
<g id="a_node6"><a xlink:href="classokw_1_1core_1_1_o_k_w___current_object___sngltn.html#a01b48f2c86a2f91909143ee9063dfd86" target="_top" xlink:title="Methode gibt alle wichtigen Informationen zum aktuellen Objekt aus.">
<polygon fill="white" stroke="black" points="192,-137.5 192,-167.5 347,-167.5 347,-137.5 192,-137.5"/>
<text text-anchor="start" x="200" y="-155.5" font-family="Helvetica,sans-Serif" font-size="10.00">okw.core.OKW_CurrentObject</text>
<text text-anchor="middle" x="269.5" y="-144.5" font-family="Helvetica,sans-Serif" font-size="10.00">_Sngltn.LogObjectData</text>
</a>
</g>
</g>
<!-- Node82&#45;&gt;Node87 -->
<g id="edge5" class="edge"><title>Node82&#45;&gt;Node87</title>
<path fill="none" stroke="midnightblue" d="M156.077,-139.448C164.547,-140.432 173.212,-141.437 181.788,-142.433"/>
<polygon fill="midnightblue" stroke="midnightblue" points="181.462,-145.919 191.799,-143.595 182.269,-138.965 181.462,-145.919"/>
</g>
<!-- Node91 -->
<g id="node10" class="node"><title>Node91</title>
<g id="a_node10"><a xlink:href="classokw_1_1core_1_1_core.html#aafe6e3d88e810dabf350b37058d4af97" target="_top" xlink:title="Setter zum Setzen des aktuellen Zustandes.">
<polygon fill="white" stroke="black" points="200,-0.5 200,-30.5 339,-30.5 339,-0.5 200,-0.5"/>
<text text-anchor="start" x="208" y="-18.5" font-family="Helvetica,sans-Serif" font-size="10.00">okw.core.Core.SetCurrent</text>
<text text-anchor="middle" x="269.5" y="-7.5" font-family="Helvetica,sans-Serif" font-size="10.00">State</text>
</a>
</g>
</g>
<!-- Node82&#45;&gt;Node91 -->
<g id="edge12" class="edge"><title>Node82&#45;&gt;Node91</title>
<path fill="none" stroke="midnightblue" d="M88.3732,-120.844C106.673,-102.504 149.129,-62.4212 192,-39.5 195.326,-37.7218 198.805,-36.0512 202.367,-34.4853"/>
<polygon fill="midnightblue" stroke="midnightblue" points="204.002,-37.5982 211.942,-30.5829 201.361,-31.1158 204.002,-37.5982"/>
</g>
<!-- Node87&#45;&gt;Node83 -->
<g id="edge7" class="edge"><title>Node87&#45;&gt;Node83</title>
<path fill="none" stroke="midnightblue" d="M291.126,-167.524C313.005,-182.878 349.033,-206.534 383,-221.5 387.426,-223.45 392.052,-225.288 396.761,-227.011"/>
<polygon fill="midnightblue" stroke="midnightblue" points="395.906,-230.419 406.501,-230.387 398.199,-223.805 395.906,-230.419"/>
</g>
<!-- Node87&#45;&gt;Node85 -->
<g id="edge6" class="edge"><title>Node87&#45;&gt;Node85</title>
<path fill="none" stroke="midnightblue" d="M337.404,-167.519C354.183,-171.286 372.319,-175.357 389.545,-179.224"/>
<polygon fill="midnightblue" stroke="midnightblue" points="389.041,-182.698 399.565,-181.474 390.575,-175.868 389.041,-182.698"/>
</g>
<!-- Node87&#45;&gt;Node86 -->
<g id="edge11" class="edge"><title>Node87&#45;&gt;Node86</title>
<path fill="none" stroke="midnightblue" d="M337.404,-137.481C354.183,-133.714 372.319,-129.643 389.545,-125.776"/>
<polygon fill="midnightblue" stroke="midnightblue" points="390.575,-129.132 399.565,-123.526 389.041,-122.302 390.575,-129.132"/>
</g>
<!-- Node88 -->
<g id="node7" class="node"><title>Node88</title>
<g id="a_node7"><a xlink:href="classokw_1_1_log_messenger.html#af225d1f037d47b3b085175c09d78bdd2" target="_top" xlink:title="Holt die Log&#45;Meldung für MethodeNmae/Textkey ohne weitere Parameter.">
<polygon fill="white" stroke="black" points="383,-143 383,-162 552,-162 552,-143 383,-143"/>
<text text-anchor="middle" x="467.5" y="-150" font-family="Helvetica,sans-Serif" font-size="10.00">okw.LogMessenger.GetMessage</text>
</a>
</g>
</g>
<!-- Node87&#45;&gt;Node88 -->
<g id="edge8" class="edge"><title>Node87&#45;&gt;Node88</title>
<path fill="none" stroke="midnightblue" d="M347.121,-152.5C355.532,-152.5 364.165,-152.5 372.754,-152.5"/>
<polygon fill="midnightblue" stroke="midnightblue" points="372.8,-156 382.8,-152.5 372.8,-149 372.8,-156"/>
</g>
<!-- Node89 -->
<g id="node8" class="node"><title>Node89</title>
<g id="a_node8"><a xlink:href="classokw_1_1_log_messenger.html#a530cd6ab82ec82a04206a2e976ec06e3" target="_top" xlink:title="Interne Kernfunktion holt die Log&#45;Meldung mit Platzhaltern aus der XML&#45;Datei.">
<polygon fill="white" stroke="black" points="588,-143 588,-162 763,-162 763,-143 588,-143"/>
<text text-anchor="middle" x="675.5" y="-150" font-family="Helvetica,sans-Serif" font-size="10.00">okw.LogMessenger.ReadMessage</text>
</a>
</g>
</g>
<!-- Node88&#45;&gt;Node89 -->
<g id="edge9" class="edge"><title>Node88&#45;&gt;Node89</title>
<path fill="none" stroke="midnightblue" d="M552.288,-152.5C560.603,-152.5 569.092,-152.5 577.526,-152.5"/>
<polygon fill="midnightblue" stroke="midnightblue" points="577.772,-156 587.772,-152.5 577.772,-149 577.772,-156"/>
</g>
<!-- Node90 -->
<g id="node9" class="node"><title>Node90</title>
<g id="a_node9"><a xlink:href="classokw_1_1_o_k_w___xml_reader.html#ab920b5335a2e1429c14cc5f8e79f39eb" target="_top" xlink:title="Lies den TextContent eines Tag.">
<polygon fill="white" stroke="black" points="799,-137.5 799,-167.5 951,-167.5 951,-137.5 799,-137.5"/>
<text text-anchor="start" x="807" y="-155.5" font-family="Helvetica,sans-Serif" font-size="10.00">okw.OKW_XmlReader.getText</text>
<text text-anchor="middle" x="875" y="-144.5" font-family="Helvetica,sans-Serif" font-size="10.00">ContentSingleValue</text>
</a>
</g>
</g>
<!-- Node89&#45;&gt;Node90 -->
<g id="edge10" class="edge"><title>Node89&#45;&gt;Node90</title>
<path fill="none" stroke="midnightblue" d="M763.126,-152.5C771.6,-152.5 780.195,-152.5 788.656,-152.5"/>
<polygon fill="midnightblue" stroke="midnightblue" points="788.893,-156 798.893,-152.5 788.892,-149 788.893,-156"/>
</g>
</g>
</svg>
