<?xml version="1.0" encoding="UTF-8" standalone="no"?>
<!DOCTYPE svg PUBLIC "-//W3C//DTD SVG 1.1//EN"
 "http://www.w3.org/Graphics/SVG/1.1/DTD/svg11.dtd">
<!-- Generated by graphviz version 2.26.3 (20100126.1600)
 -->
<!-- Title: okw.core.EN.MemorizeValue Pages: 1 -->
<svg width="942pt" height="174pt"
 viewBox="0.00 0.00 942.00 174.00" xmlns="http://www.w3.org/2000/svg" xmlns:xlink="http://www.w3.org/1999/xlink">
<g id="graph1" class="graph" transform="scale(1 1) rotate(0) translate(4 170)">
<title>okw.core.EN.MemorizeValue</title>
<polygon fill="white" stroke="white" points="-4,5 -4,-170 939,-170 939,5 -4,5"/>
<!-- Node946 -->
<g id="node1" class="node"><title>Node946</title>
<polygon fill="#bfbfbf" stroke="black" points="0,-98.5 0,-119.5 144,-119.5 144,-98.5 0,-98.5"/>
<text text-anchor="middle" x="72" y="-106.5" font-family="Helvetica,sans-Serif" font-size="10.00">okw.core.EN.MemorizeValue</text>
</g>
<!-- Node947 -->
<g id="node3" class="node"><title>Node947</title>
<a xlink:href="classokw_1_1core_1_1_core.html#ab4e0f723d27cb11c944ec4c82c426100" target="_top" xlink:title="Setzt die Sprache auf den gegebenen wert Language. ">
<polygon fill="white" stroke="black" points="186.5,-131.5 186.5,-152.5 325.5,-152.5 325.5,-131.5 186.5,-131.5"/>
<text text-anchor="middle" x="256" y="-139.5" font-family="Helvetica,sans-Serif" font-size="10.00">okw.core.Core.setLanguage</text>
</a>
</g>
<!-- Node946&#45;&gt;Node947 -->
<g id="edge2" class="edge"><title>Node946&#45;&gt;Node947</title>
<path fill="none" stroke="midnightblue" d="M130.725,-119.532C148.733,-122.762 168.708,-126.344 187.319,-129.682"/>
<polygon fill="midnightblue" stroke="midnightblue" points="186.741,-133.134 197.202,-131.455 187.977,-126.244 186.741,-133.134"/>
</g>
<!-- Node949 -->
<g id="node7" class="node"><title>Node949</title>
<a xlink:href="classokw_1_1core_1_1_core.html#ac8440162926bfc169ee483bd7f860117" target="_top" xlink:title="Merkt sich den Standartwert eines Objekts. ">
<polygon fill="white" stroke="black" points="180.5,-65.5 180.5,-86.5 331.5,-86.5 331.5,-65.5 180.5,-65.5"/>
<text text-anchor="middle" x="256" y="-73.5" font-family="Helvetica,sans-Serif" font-size="10.00">okw.core.Core.MemorizeValue</text>
</a>
</g>
<!-- Node946&#45;&gt;Node949 -->
<g id="edge6" class="edge"><title>Node946&#45;&gt;Node949</title>
<path fill="none" stroke="midnightblue" d="M130.725,-98.4679C148.733,-95.2381 168.708,-91.6557 187.319,-88.3178"/>
<polygon fill="midnightblue" stroke="midnightblue" points="187.977,-91.7557 197.202,-86.5453 186.741,-84.8656 187.977,-91.7557"/>
</g>
<!-- Node948 -->
<g id="node5" class="node"><title>Node948</title>
<a xlink:href="interfaceokw_1_1core_1_1_i_o_k_w___state.html#a866baa0bde08a47418f54d63bdb56097" target="_top" xlink:title="Interne Methode zum setzen der Sprache f체r die sprachabh채ngigen Ausgaben der Dokumentation (Log)...">
<polygon fill="white" stroke="black" points="368.5,-144.5 368.5,-165.5 541.5,-165.5 541.5,-144.5 368.5,-144.5"/>
<text text-anchor="middle" x="455" y="-152.5" font-family="Helvetica,sans-Serif" font-size="10.00">okw.core.IOKW_State.setLanguage</text>
</a>
</g>
<!-- Node947&#45;&gt;Node948 -->
<g id="edge4" class="edge"><title>Node947&#45;&gt;Node948</title>
<path fill="none" stroke="midnightblue" d="M325.601,-146.547C336.155,-147.236 347.205,-147.958 358.211,-148.677"/>
<polygon fill="midnightblue" stroke="midnightblue" points="358.083,-152.176 368.29,-149.336 358.54,-145.191 358.083,-152.176"/>
</g>
<!-- Node950 -->
<g id="node9" class="node"><title>Node950</title>
<a xlink:href="classokw_1_1log_1_1_logger___sngltn.html#a70ec25e200e00ecefc544e8fd371d2ef" target="_top" xlink:title="Ausgabe eines Schl체sselwortes. ">
<polygon fill="white" stroke="black" points="388,-92 388,-126 522,-126 522,-92 388,-92"/>
<text text-anchor="start" x="396" y="-113" font-family="Helvetica,sans-Serif" font-size="10.00">okw.log.Logger_Sngltn.Log</text>
<text text-anchor="middle" x="455" y="-100" font-family="Helvetica,sans-Serif" font-size="10.00">KeyWordStart</text>
</a>
</g>
<!-- Node949&#45;&gt;Node950 -->
<g id="edge8" class="edge"><title>Node949&#45;&gt;Node950</title>
<path fill="none" stroke="midnightblue" d="M319.512,-86.5321C338.11,-89.6162 358.646,-93.0217 377.986,-96.2289"/>
<polygon fill="midnightblue" stroke="midnightblue" points="377.537,-99.702 387.974,-97.8852 378.682,-92.7963 377.537,-99.702"/>
</g>
<!-- Node951 -->
<g id="node11" class="node"><title>Node951</title>
<a xlink:href="classokw_1_1_log_messenger.html#af225d1f037d47b3b085175c09d78bdd2" target="_top" xlink:title="Holt die Log&#45;Meldung f체r MethodeNmae/Textkey ohne weitere Parameter. ">
<polygon fill="white" stroke="black" points="375,-52.5 375,-73.5 535,-73.5 535,-52.5 375,-52.5"/>
<text text-anchor="middle" x="455" y="-60.5" font-family="Helvetica,sans-Serif" font-size="10.00">okw.LogMessenger.GetMessage</text>
</a>
</g>
<!-- Node949&#45;&gt;Node951 -->
<g id="edge10" class="edge"><title>Node949&#45;&gt;Node951</title>
<path fill="none" stroke="midnightblue" d="M331.517,-71.0667C342.377,-70.3573 353.641,-69.6214 364.751,-68.8957"/>
<polygon fill="midnightblue" stroke="midnightblue" points="365.144,-72.3776 374.894,-68.233 364.687,-65.3925 365.144,-72.3776"/>
</g>
<!-- Node954 -->
<g id="node17" class="node"><title>Node954</title>
<a xlink:href="interfaceokw_1_1core_1_1_i_o_k_w___state.html#aa48a3de07623a93fc0b4d68629dd0887" target="_top" xlink:title="Merkt sich den Standartwert eines Objekts. ">
<polygon fill="white" stroke="black" points="374.5,-0 374.5,-34 535.5,-34 535.5,-0 374.5,-0"/>
<text text-anchor="start" x="382.5" y="-21" font-family="Helvetica,sans-Serif" font-size="10.00">okw.core.IOKW_State.Memorize</text>
<text text-anchor="middle" x="455" y="-8" font-family="Helvetica,sans-Serif" font-size="10.00">Value</text>
</a>
</g>
<!-- Node949&#45;&gt;Node954 -->
<g id="edge16" class="edge"><title>Node949&#45;&gt;Node954</title>
<path fill="none" stroke="midnightblue" d="M291.577,-65.452C318.223,-57.552 355.475,-46.5073 387.685,-36.9578"/>
<polygon fill="midnightblue" stroke="midnightblue" points="388.909,-40.2455 397.501,-34.0473 386.919,-33.5343 388.909,-40.2455"/>
</g>
<!-- Node952 -->
<g id="node13" class="node"><title>Node952</title>
<a xlink:href="classokw_1_1_log_messenger.html#a530cd6ab82ec82a04206a2e976ec06e3" target="_top" xlink:title="Interne Kernfunktion holt die Log&#45;Meldung mit Platzhaltern aus der XML&#45;Datei. ">
<polygon fill="white" stroke="black" points="578.5,-52.5 578.5,-73.5 745.5,-73.5 745.5,-52.5 578.5,-52.5"/>
<text text-anchor="middle" x="662" y="-60.5" font-family="Helvetica,sans-Serif" font-size="10.00">okw.LogMessenger.ReadMessage</text>
</a>
</g>
<!-- Node951&#45;&gt;Node952 -->
<g id="edge12" class="edge"><title>Node951&#45;&gt;Node952</title>
<path fill="none" stroke="midnightblue" d="M535.032,-63C545.92,-63 557.173,-63 568.276,-63"/>
<polygon fill="midnightblue" stroke="midnightblue" points="568.415,-66.5001 578.415,-63 568.415,-59.5001 568.415,-66.5001"/>
</g>
<!-- Node953 -->
<g id="node15" class="node"><title>Node953</title>
<a xlink:href="classokw_1_1_o_k_w___xml_reader.html#ab920b5335a2e1429c14cc5f8e79f39eb" target="_top" xlink:title="Lies den TextContent eines Tag. ">
<polygon fill="white" stroke="black" points="782,-46 782,-80 934,-80 934,-46 782,-46"/>
<text text-anchor="start" x="790" y="-67" font-family="Helvetica,sans-Serif" font-size="10.00">okw.OKW_XmlReader.getText</text>
<text text-anchor="middle" x="858" y="-54" font-family="Helvetica,sans-Serif" font-size="10.00">ContentSingleValue</text>
</a>
</g>
<!-- Node952&#45;&gt;Node953 -->
<g id="edge14" class="edge"><title>Node952&#45;&gt;Node953</title>
<path fill="none" stroke="midnightblue" d="M745.69,-63C754.29,-63 763.041,-63 771.669,-63"/>
<polygon fill="midnightblue" stroke="midnightblue" points="771.725,-66.5001 781.725,-63 771.725,-59.5001 771.725,-66.5001"/>
</g>
</g>
</svg>
