<?xml version="1.0" encoding="UTF-8" standalone="no"?>
<!DOCTYPE svg PUBLIC "-//W3C//DTD SVG 1.1//EN"
 "http://www.w3.org/Graphics/SVG/1.1/DTD/svg11.dtd">
<!-- Generated by graphviz version 2.36.0 (20140111.2315)
 -->
<!-- Title: okw.core.Core.VerifyExists Pages: 1 -->
<!--zoomable 1942 -->
<svg id="main" version="1.1" xmlns="http://www.w3.org/2000/svg" xmlns:xlink="http://www.w3.org/1999/xlink" xml:space="preserve" onload="init(evt)">
<style type="text/css"><![CDATA[
.edge:hover path { stroke: red; }
.edge:hover polygon { stroke: red; fill: red; }
]]></style>
<script type="text/javascript"><![CDATA[
var edges = document.getElementsByTagName('g');
if (edges && edges.length) {
  for (var i=0;i<edges.length;i++) {
    if (edges[i].id.substr(0,4)=='edge') {
      edges[i].setAttribute('class','edge');
    }
  }
}
]]></script>
        <defs>
                <circle id="rim" cx="0" cy="0" r="7"/>
                <circle id="rim2" cx="0" cy="0" r="3.5"/>
                <g id="zoomPlus">
                        <use xlink:href="#rim" fill="#404040">
                                <set attributeName="fill" to="#808080" begin="zoomplus.mouseover" end="zoomplus.mouseout"/>
                        </use>
                        <path d="M-4,0h8M0,-4v8" fill="none" stroke="white" stroke-width="1.5" pointer-events="none"/>
                </g>
                <g id="zoomMin">
                        <use xlink:href="#rim" fill="#404040">
                                <set attributeName="fill" to="#808080" begin="zoomminus.mouseover" end="zoomminus.mouseout"/>
                        </use>
                        <path d="M-4,0h8" fill="none" stroke="white" stroke-width="1.5" pointer-events="none"/>
                </g>
                <g id="dirArrow">
                        <path fill="none" stroke="white" stroke-width="1.5" d="M0,-3.0v7 M-2.5,-0.5L0,-3.0L2.5,-0.5"/>
                </g>
               <g id="resetDef">
                       <use xlink:href="#rim2" fill="#404040">
                               <set attributeName="fill" to="#808080" begin="reset.mouseover" end="reset.mouseout"/>
                       </use>
               </g>
        </defs>

<script type="text/javascript">
var viewWidth = 554;
var viewHeight = 1942;
var sectionId = 'dynsection-85';
</script>
<script xlink:href="svgpan.js"/>
<svg id="graph" class="graph">
<g id="viewport">
<title>okw.core.Core.VerifyExists</title>
<polygon fill="white" stroke="none" points="-4,4 -4,-1938 550,-1938 550,4 -4,4"/>
<!-- Node3220 -->
<g id="node1" class="node"><title>Node3220</title>
<polygon fill="#bfbfbf" stroke="black" points="0.5,-931.5 0.5,-950.5 137.5,-950.5 137.5,-931.5 0.5,-931.5"/>
<text text-anchor="middle" x="69" y="-938.5" font-family="Helvetica,sans-Serif" font-size="10.00">okw.core.Core.VerifyExists</text>
</g>
<!-- Node3221 -->
<g id="node2" class="node"><title>Node3221</title>
<g id="a_node2"><a xlink:href="classokw_1_1core_1_1_e_n.html#afbdb32a44d83abbf58222e5920004f28" target="_top" xlink:title="Prüft, ob das gegebene Objekt existiert. ">
<polygon fill="white" stroke="black" points="174,-931.5 174,-950.5 304,-950.5 304,-931.5 174,-931.5"/>
<text text-anchor="middle" x="239" y="-938.5" font-family="Helvetica,sans-Serif" font-size="10.00">okw.core.EN.VerifyExists</text>
</a>
</g>
</g>
<!-- Node3220&#45;&gt;Node3221 -->
<g id="edge1" class="edge"><title>Node3220&#45;&gt;Node3221</title>
<path fill="none" stroke="midnightblue" d="M147.998,-941C156.698,-941 165.484,-941 173.98,-941"/>
<polygon fill="midnightblue" stroke="midnightblue" points="147.848,-937.5 137.848,-941 147.848,-944.5 147.848,-937.5"/>
</g>
<!-- Node3222 -->
<g id="node3" class="node"><title>Node3222</title>
<g id="a_node3"><a xlink:href="classokw_1_1core_1_1_e_n___keywords___a_n_t_l_r___test.html#abdee71d00398ea1cae2d3a41e4b424d8" target="_top" xlink:title="okw.core.EN_Keywords\l_ANTLR_Test.tc_VerifyExists\l_MemorizedValue">
<polygon fill="white" stroke="black" points="368.5,-1892.5 368.5,-1933.5 517.5,-1933.5 517.5,-1892.5 368.5,-1892.5"/>
<text text-anchor="start" x="376.5" y="-1921.5" font-family="Helvetica,sans-Serif" font-size="10.00">okw.core.EN_Keywords</text>
<text text-anchor="start" x="376.5" y="-1910.5" font-family="Helvetica,sans-Serif" font-size="10.00">_ANTLR_Test.tc_VerifyExists</text>
<text text-anchor="middle" x="443" y="-1899.5" font-family="Helvetica,sans-Serif" font-size="10.00">_MemorizedValue</text>
</a>
</g>
</g>
<!-- Node3221&#45;&gt;Node3222 -->
<g id="edge2" class="edge"><title>Node3221&#45;&gt;Node3222</title>
<path fill="none" stroke="midnightblue" d="M240.802,-960.688C246.214,-1089.43 279.033,-1808.25 340,-1882 347.488,-1891.06 357.538,-1897.53 368.416,-1902.14"/>
<polygon fill="midnightblue" stroke="midnightblue" points="244.298,-960.524 240.387,-950.678 237.304,-960.814 244.298,-960.524"/>
</g>
<!-- Node3223 -->
<g id="node4" class="node"><title>Node3223</title>
<g id="a_node4"><a xlink:href="classokw_1_1core_1_1_e_n___keywords___d_e_l_e_t_e___test.html#a0e62a17933f21dc8c45b22def98ac192" target="_top" xlink:title="okw.core.EN_Keywords\l_DELETE_Test.tcSelectMenu\l_Value_MV_DELETE_EmptyString">
<polygon fill="white" stroke="black" points="358,-1832.5 358,-1873.5 528,-1873.5 528,-1832.5 358,-1832.5"/>
<text text-anchor="start" x="366" y="-1861.5" font-family="Helvetica,sans-Serif" font-size="10.00">okw.core.EN_Keywords</text>
<text text-anchor="start" x="366" y="-1850.5" font-family="Helvetica,sans-Serif" font-size="10.00">_DELETE_Test.tcSelectMenu</text>
<text text-anchor="middle" x="443" y="-1839.5" font-family="Helvetica,sans-Serif" font-size="10.00">_Value_MV_DELETE_EmptyString</text>
</a>
</g>
</g>
<!-- Node3221&#45;&gt;Node3223 -->
<g id="edge3" class="edge"><title>Node3221&#45;&gt;Node3223</title>
<path fill="none" stroke="midnightblue" d="M240.964,-960.943C247.154,-1085.49 282.864,-1753.39 340,-1822 344.974,-1827.97 351.062,-1832.82 357.764,-1836.75"/>
<polygon fill="midnightblue" stroke="midnightblue" points="244.444,-960.441 240.458,-950.625 237.452,-960.785 244.444,-960.441"/>
</g>
<!-- Node3224 -->
<g id="node5" class="node"><title>Node3224</title>
<g id="a_node5"><a xlink:href="classokw_1_1core_1_1_e_n___keywords___empty___test.html#a8449e6aa401aca7a8dc5701cfbe6588d" target="_top" xlink:title="Prüft &quot;${EMPTY}&quot; für das Schlüsselwort VerifyValue(string,string) ">
<polygon fill="white" stroke="black" points="365,-1772.5 365,-1813.5 521,-1813.5 521,-1772.5 365,-1772.5"/>
<text text-anchor="start" x="373" y="-1801.5" font-family="Helvetica,sans-Serif" font-size="10.00">okw.core.EN_Keywords</text>
<text text-anchor="start" x="373" y="-1790.5" font-family="Helvetica,sans-Serif" font-size="10.00">_Empty_Test.tc_VerifyTablecell</text>
<text text-anchor="middle" x="443" y="-1779.5" font-family="Helvetica,sans-Serif" font-size="10.00">ValueWCM_Empty</text>
</a>
</g>
</g>
<!-- Node3221&#45;&gt;Node3224 -->
<g id="edge4" class="edge"><title>Node3221&#45;&gt;Node3224</title>
<path fill="none" stroke="midnightblue" d="M241.113,-960.712C247.997,-1079.74 286.263,-1699.58 340,-1763 346.742,-1770.96 355.476,-1776.86 364.995,-1781.24"/>
<polygon fill="midnightblue" stroke="midnightblue" points="244.595,-960.31 240.53,-950.526 237.607,-960.71 244.595,-960.31"/>
</g>
<!-- Node3225 -->
<g id="node6" class="node"><title>Node3225</title>
<g id="a_node6"><a xlink:href="classokw_1_1core_1_1_e_n___keywords___test.html#a8a804aa475fe4e5b89887345adfdb312" target="_top" xlink:title="&quot;Normaler&quot; Testfall für das Schlüsselwort VerifyExists. ">
<polygon fill="white" stroke="black" points="382,-1724 382,-1754 504,-1754 504,-1724 382,-1724"/>
<text text-anchor="start" x="390" y="-1742" font-family="Helvetica,sans-Serif" font-size="10.00">okw.core.EN_Keywords</text>
<text text-anchor="middle" x="443" y="-1731" font-family="Helvetica,sans-Serif" font-size="10.00">_Test.tc_VerifyExists</text>
</a>
</g>
</g>
<!-- Node3221&#45;&gt;Node3225 -->
<g id="edge5" class="edge"><title>Node3221&#45;&gt;Node3225</title>
<path fill="none" stroke="midnightblue" d="M239.659,-960.911C238.199,-1070.4 236.659,-1598.42 340,-1714 350.755,-1726.03 366.264,-1732.73 381.955,-1736.35"/>
<polygon fill="midnightblue" stroke="midnightblue" points="243.162,-960.702 239.813,-950.65 236.163,-960.597 243.162,-960.702"/>
</g>
<!-- Node3226 -->
<g id="node7" class="node"><title>Node3226</title>
<g id="a_node7"><a xlink:href="classokw_1_1core_1_1_e_n___o_k_w_frame_object_child_not_found_exception___test.html#ad5171c21b85fa5f3c77af61d15900d48" target="_top" xlink:title="Prüft ob die Ausnahme OKWFrameObjectChildNotFoundException durch die LFC&#45;VerifyExists ausgelöst wird...">
<polygon fill="white" stroke="black" points="342,-1653 342,-1705 544,-1705 544,-1653 342,-1653"/>
<text text-anchor="start" x="350" y="-1693" font-family="Helvetica,sans-Serif" font-size="10.00">okw.core.EN_OKWFrameObject</text>
<text text-anchor="start" x="350" y="-1682" font-family="Helvetica,sans-Serif" font-size="10.00">ChildNotFoundException</text>
<text text-anchor="start" x="350" y="-1671" font-family="Helvetica,sans-Serif" font-size="10.00">_Test.TC_VerifyExists_OKWFrameObject</text>
<text text-anchor="middle" x="443" y="-1660" font-family="Helvetica,sans-Serif" font-size="10.00">ChildNotFoundException</text>
</a>
</g>
</g>
<!-- Node3221&#45;&gt;Node3226 -->
<g id="edge6" class="edge"><title>Node3221&#45;&gt;Node3226</title>
<path fill="none" stroke="midnightblue" d="M240.16,-960.791C241.373,-1063.31 251.74,-1533.36 340,-1642 343.326,-1646.09 347.144,-1649.73 351.308,-1652.97"/>
<polygon fill="midnightblue" stroke="midnightblue" points="243.658,-960.582 240.057,-950.618 236.659,-960.653 243.658,-960.582"/>
</g>
<!-- Node3227 -->
<g id="node8" class="node"><title>Node3227</title>
<g id="a_node8"><a xlink:href="classokw_1_1core_1_1_e_n___o_k_w_not_allowed_value_exception___keywords___i_g_n_o_r_e.html#ae916bd8b565e8a0dc3072aab808afff5" target="_top" xlink:title="Prüft ob &quot;${IGNORE} &quot; die Ausnahme okw.exceptions.OKWNotAllowedValueException auslöst. ">
<polygon fill="white" stroke="black" points="357.5,-1592.5 357.5,-1633.5 528.5,-1633.5 528.5,-1592.5 357.5,-1592.5"/>
<text text-anchor="start" x="365.5" y="-1621.5" font-family="Helvetica,sans-Serif" font-size="10.00">okw.core.EN_OKWNotAllowed</text>
<text text-anchor="start" x="365.5" y="-1610.5" font-family="Helvetica,sans-Serif" font-size="10.00">ValueException_Keywords</text>
<text text-anchor="middle" x="443" y="-1599.5" font-family="Helvetica,sans-Serif" font-size="10.00">_IGNORE.tcVerifyExistsIGNORE1</text>
</a>
</g>
</g>
<!-- Node3221&#45;&gt;Node3227 -->
<g id="edge7" class="edge"><title>Node3221&#45;&gt;Node3227</title>
<path fill="none" stroke="midnightblue" d="M240.351,-960.995C242.465,-1058.78 256.422,-1485.79 340,-1582 344.855,-1587.59 350.683,-1592.19 357.062,-1595.97"/>
<polygon fill="midnightblue" stroke="midnightblue" points="243.845,-960.676 240.148,-950.747 236.847,-960.814 243.845,-960.676"/>
</g>
<!-- Node3228 -->
<g id="node9" class="node"><title>Node3228</title>
<g id="a_node9"><a xlink:href="classokw_1_1core_1_1_e_n___o_k_w_not_allowed_value_exception___keywords___i_g_n_o_r_e.html#a28ed22208a9ecf63b3d82cf930b33d3d" target="_top" xlink:title="Prüft ob &quot;&quot;${IGNORE}${TCN}&quot; die Ausnahme okw.exceptions.OKWNotAllowedValueException auslöst...">
<polygon fill="white" stroke="black" points="357.5,-1532.5 357.5,-1573.5 528.5,-1573.5 528.5,-1532.5 357.5,-1532.5"/>
<text text-anchor="start" x="365.5" y="-1561.5" font-family="Helvetica,sans-Serif" font-size="10.00">okw.core.EN_OKWNotAllowed</text>
<text text-anchor="start" x="365.5" y="-1550.5" font-family="Helvetica,sans-Serif" font-size="10.00">ValueException_Keywords</text>
<text text-anchor="middle" x="443" y="-1539.5" font-family="Helvetica,sans-Serif" font-size="10.00">_IGNORE.tcVerifyExistsIGNORE2</text>
</a>
</g>
</g>
<!-- Node3221&#45;&gt;Node3228 -->
<g id="edge8" class="edge"><title>Node3221&#45;&gt;Node3228</title>
<path fill="none" stroke="midnightblue" d="M240.698,-960.842C244.32,-1052.69 263.847,-1435.71 340,-1522 344.899,-1527.55 350.757,-1532.12 357.155,-1535.89"/>
<polygon fill="midnightblue" stroke="midnightblue" points="244.19,-960.563 240.317,-950.702 237.195,-960.826 244.19,-960.563"/>
</g>
<!-- Node3229 -->
<g id="node10" class="node"><title>Node3229</title>
<g id="a_node10"><a xlink:href="classokw_1_1core_1_1_e_n___o_k_w_not_allowed_value_exception___test.html#abba150b0023b408609ae535427bf774b" target="_top" xlink:title="Prüft ob die Ausnahme OKWNotAllowedValueException durch die LFC&#45;VerifyExists ausgelöst wird...">
<polygon fill="white" stroke="black" points="346.5,-1461 346.5,-1513 539.5,-1513 539.5,-1461 346.5,-1461"/>
<text text-anchor="start" x="354.5" y="-1501" font-family="Helvetica,sans-Serif" font-size="10.00">okw.core.EN_OKWNotAllowed</text>
<text text-anchor="start" x="354.5" y="-1490" font-family="Helvetica,sans-Serif" font-size="10.00">ValueException_Test.TC</text>
<text text-anchor="start" x="354.5" y="-1479" font-family="Helvetica,sans-Serif" font-size="10.00">_VerifyExists_OKWFrameObjectMethod</text>
<text text-anchor="middle" x="443" y="-1468" font-family="Helvetica,sans-Serif" font-size="10.00">NotFoundException</text>
</a>
</g>
</g>
<!-- Node3221&#45;&gt;Node3229 -->
<g id="edge9" class="edge"><title>Node3221&#45;&gt;Node3229</title>
<path fill="none" stroke="midnightblue" d="M241.297,-960.715C247.221,-1045.09 274.298,-1374.96 340,-1451 343.192,-1454.69 346.788,-1458.01 350.672,-1460.99"/>
<polygon fill="midnightblue" stroke="midnightblue" points="244.785,-960.423 240.612,-950.684 237.801,-960.899 244.785,-960.423"/>
</g>
<!-- Node3230 -->
<g id="node11" class="node"><title>Node3230</title>
<g id="a_node11"><a xlink:href="classokw_1_1core_1_1_e_n___verify_exists___o_k_w_verifying_fails_exception___test.html#a2130383dc3dce6634d7a3b4367575e49" target="_top" xlink:title="Prüft, ob die Ausnahme OKWVerifyingFailsException bei einem Soll/Ist&#45;Vergleich ausgelöst wird...">
<polygon fill="white" stroke="black" points="340,-1390 340,-1442 546,-1442 546,-1390 340,-1390"/>
<text text-anchor="start" x="348" y="-1430" font-family="Helvetica,sans-Serif" font-size="10.00">okw.core.EN_VerifyExists</text>
<text text-anchor="start" x="348" y="-1419" font-family="Helvetica,sans-Serif" font-size="10.00">_OKWVerifyingFailsException</text>
<text text-anchor="start" x="348" y="-1408" font-family="Helvetica,sans-Serif" font-size="10.00">_Test.tc_VerifyExists_ExistsYESExpected</text>
<text text-anchor="middle" x="443" y="-1397" font-family="Helvetica,sans-Serif" font-size="10.00">NO_OKWVerifyingFailsException</text>
</a>
</g>
</g>
<!-- Node3221&#45;&gt;Node3230 -->
<g id="edge10" class="edge"><title>Node3221&#45;&gt;Node3230</title>
<path fill="none" stroke="midnightblue" d="M242.014,-961.088C250.144,-1038.44 282.877,-1315.88 340,-1380 343.248,-1383.65 346.888,-1386.92 350.807,-1389.87"/>
<polygon fill="midnightblue" stroke="midnightblue" points="245.462,-960.403 240.957,-950.813 238.499,-961.119 245.462,-960.403"/>
</g>
<!-- Node3231 -->
<g id="node12" class="node"><title>Node3231</title>
<g id="a_node12"><a xlink:href="classokw_1_1core_1_1_e_n___verify_exists___o_k_w_verifying_fails_exception___test.html#aa1d3eda12dec57423561de4e08b12d29" target="_top" xlink:title="Prüft, ob die Ausnahme OKWVerifyingFailsException bei einem Soll/Ist&#45;Vergleich ausgelöst wird...">
<polygon fill="white" stroke="black" points="348,-1319 348,-1371 538,-1371 538,-1319 348,-1319"/>
<text text-anchor="start" x="356" y="-1359" font-family="Helvetica,sans-Serif" font-size="10.00">okw.core.EN_VerifyExists</text>
<text text-anchor="start" x="356" y="-1348" font-family="Helvetica,sans-Serif" font-size="10.00">_OKWVerifyingFailsException</text>
<text text-anchor="start" x="356" y="-1337" font-family="Helvetica,sans-Serif" font-size="10.00">_Test.tcVerifyExist_ExistsNOExpexted</text>
<text text-anchor="middle" x="443" y="-1326" font-family="Helvetica,sans-Serif" font-size="10.00">YES_OKWVerifyingFailsException</text>
</a>
</g>
</g>
<!-- Node3221&#45;&gt;Node3231 -->
<g id="edge11" class="edge"><title>Node3221&#45;&gt;Node3231</title>
<path fill="none" stroke="midnightblue" d="M239.381,-960.893C238.598,-1021.54 244.559,-1206.23 340,-1309 343.322,-1312.58 347.022,-1315.8 350.988,-1318.7"/>
<polygon fill="midnightblue" stroke="midnightblue" points="242.883,-960.839 239.594,-950.768 235.884,-960.692 242.883,-960.839"/>
</g>
<!-- Node3232 -->
<g id="node13" class="node"><title>Node3232</title>
<g id="a_node13"><a xlink:href="classokw_1_1_se_b_a_c_k_1_1_se_b_a_c_k___e_n___test.html#a536ff38be47c762431a921468ce8f740" target="_top" xlink:title="Test des Schlüsselwortes &quot;VerifyExists( FN, ExpVal ) für SeBACK. ">
<polygon fill="white" stroke="black" points="349,-1248 349,-1300 537,-1300 537,-1248 349,-1248"/>
<text text-anchor="start" x="357" y="-1288" font-family="Helvetica,sans-Serif" font-size="10.00">okw.SeBACK.SeBACK_EN</text>
<text text-anchor="start" x="357" y="-1277" font-family="Helvetica,sans-Serif" font-size="10.00">_Test.tcVerifyExists</text>
<text text-anchor="start" x="357" y="-1266" font-family="Helvetica,sans-Serif" font-size="10.00">_ExistsYesExpectedNo_OKWVerifying</text>
<text text-anchor="middle" x="443" y="-1255" font-family="Helvetica,sans-Serif" font-size="10.00">FailsException</text>
</a>
</g>
</g>
<!-- Node3221&#45;&gt;Node3232 -->
<g id="edge12" class="edge"><title>Node3221&#45;&gt;Node3232</title>
<path fill="none" stroke="midnightblue" d="M240.992,-961.022C244.663,-1013.59 261.722,-1156.97 340,-1237 343.951,-1241.04 348.378,-1244.64 353.113,-1247.85"/>
<polygon fill="midnightblue" stroke="midnightblue" points="244.466,-960.491 240.368,-950.721 237.479,-960.915 244.466,-960.491"/>
</g>
<!-- Node3233 -->
<g id="node14" class="node"><title>Node3233</title>
<g id="a_node14"><a xlink:href="classokw_1_1_se_b_a_c_k_1_1_se_b_a_c_k___e_n___test.html#a054bc346b01a039723a8ed82d280c0db" target="_top" xlink:title="Prüft ob das BACK existiert. ">
<polygon fill="white" stroke="black" points="373,-1187.5 373,-1228.5 513,-1228.5 513,-1187.5 373,-1187.5"/>
<text text-anchor="start" x="381" y="-1216.5" font-family="Helvetica,sans-Serif" font-size="10.00">okw.SeBACK.SeBACK_EN</text>
<text text-anchor="start" x="381" y="-1205.5" font-family="Helvetica,sans-Serif" font-size="10.00">_Test.tcVerifyExists</text>
<text text-anchor="middle" x="443" y="-1194.5" font-family="Helvetica,sans-Serif" font-size="10.00">_ExistsYesExpectedYes</text>
</a>
</g>
</g>
<!-- Node3221&#45;&gt;Node3233 -->
<g id="edge13" class="edge"><title>Node3221&#45;&gt;Node3233</title>
<path fill="none" stroke="midnightblue" d="M242.659,-960.737C249.786,-1005.85 273.511,-1117.19 340,-1177 349.357,-1185.42 360.94,-1191.55 372.906,-1196.02"/>
<polygon fill="midnightblue" stroke="midnightblue" points="246.11,-960.15 241.189,-950.768 239.185,-961.172 246.11,-960.15"/>
</g>
<!-- Node3234 -->
<g id="node15" class="node"><title>Node3234</title>
<g id="a_node15"><a xlink:href="classokw_1_1_se_button_1_1_se_button___e_n___test.html#ab4b715fb0a574ee598f3aa2bc802d804" target="_top" xlink:title="Test des Schlüsselwortes VerifyExists für den GUI&#45;Adapter SeButton. ">
<polygon fill="white" stroke="black" points="380,-1127.5 380,-1168.5 506,-1168.5 506,-1127.5 380,-1127.5"/>
<text text-anchor="start" x="388" y="-1156.5" font-family="Helvetica,sans-Serif" font-size="10.00">okw.SeButton.SeButton</text>
<text text-anchor="start" x="388" y="-1145.5" font-family="Helvetica,sans-Serif" font-size="10.00">_EN_Test.tcVerifyExists</text>
<text text-anchor="middle" x="443" y="-1134.5" font-family="Helvetica,sans-Serif" font-size="10.00">_ExsistsNOExpectedNO</text>
</a>
</g>
</g>
<!-- Node3221&#45;&gt;Node3234 -->
<g id="edge14" class="edge"><title>Node3221&#45;&gt;Node3234</title>
<path fill="none" stroke="midnightblue" d="M245.722,-960.527C257.363,-996.827 287.27,-1074.83 340,-1117 351.491,-1126.19 365.682,-1132.66 379.788,-1137.22"/>
<polygon fill="midnightblue" stroke="midnightblue" points="248.979,-959.213 242.69,-950.687 242.289,-961.274 248.979,-959.213"/>
</g>
<!-- Node3235 -->
<g id="node16" class="node"><title>Node3235</title>
<g id="a_node16"><a xlink:href="classokw_1_1_se_button_1_1_se_button___e_n___test.html#aff3f951a968907f24ea774a785258c9b" target="_top" xlink:title="Test des Schlüsselwortes VerifyExists für den GUI&#45;Adapter SeButton. ">
<polygon fill="white" stroke="black" points="380,-1067.5 380,-1108.5 506,-1108.5 506,-1067.5 380,-1067.5"/>
<text text-anchor="start" x="388" y="-1096.5" font-family="Helvetica,sans-Serif" font-size="10.00">okw.SeButton.SeButton</text>
<text text-anchor="start" x="388" y="-1085.5" font-family="Helvetica,sans-Serif" font-size="10.00">_EN_Test.tcVerifyExists</text>
<text text-anchor="middle" x="443" y="-1074.5" font-family="Helvetica,sans-Serif" font-size="10.00">_ExistsNOExpectedYES</text>
</a>
</g>
</g>
<!-- Node3221&#45;&gt;Node3235 -->
<g id="edge15" class="edge"><title>Node3221&#45;&gt;Node3235</title>
<path fill="none" stroke="midnightblue" d="M251.084,-959.452C267.4,-985.062 300.287,-1031.14 340,-1057 352.02,-1064.83 366.11,-1070.76 379.916,-1075.22"/>
<polygon fill="midnightblue" stroke="midnightblue" points="253.912,-957.372 245.662,-950.724 247.966,-961.065 253.912,-957.372"/>
</g>
<!-- Node3236 -->
<g id="node17" class="node"><title>Node3236</title>
<g id="a_node17"><a xlink:href="classokw_1_1_se_button_1_1_se_button___e_n___test.html#ada3290f0884d987b3e7fd7d21a7d9f46" target="_top" xlink:title="Test des Schlüsselwortes VerifyExists für den GUI&#45;Adapter SeButton. ">
<polygon fill="white" stroke="black" points="380,-1007.5 380,-1048.5 506,-1048.5 506,-1007.5 380,-1007.5"/>
<text text-anchor="start" x="388" y="-1036.5" font-family="Helvetica,sans-Serif" font-size="10.00">okw.SeButton.SeButton</text>
<text text-anchor="start" x="388" y="-1025.5" font-family="Helvetica,sans-Serif" font-size="10.00">_EN_Test.tcVerifyExists</text>
<text text-anchor="middle" x="443" y="-1014.5" font-family="Helvetica,sans-Serif" font-size="10.00">_ExistsYESExpectedNO</text>
</a>
</g>
</g>
<!-- Node3221&#45;&gt;Node3236 -->
<g id="edge16" class="edge"><title>Node3221&#45;&gt;Node3236</title>
<path fill="none" stroke="midnightblue" d="M263.372,-955.995C283.186,-968.235 312.661,-985.352 340,-997 352.6,-1002.37 366.439,-1007.22 379.747,-1011.41"/>
<polygon fill="midnightblue" stroke="midnightblue" points="265.066,-952.926 254.732,-950.588 261.352,-958.86 265.066,-952.926"/>
</g>
<!-- Node3237 -->
<g id="node18" class="node"><title>Node3237</title>
<g id="a_node18"><a xlink:href="classokw_1_1_se_button_1_1_se_button___e_n___test.html#a813004a00101e845ab8208241891b843" target="_top" xlink:title="Test des Schlüsselwortes VerifyExists für den GUI&#45;Adapter SeButton. ">
<polygon fill="white" stroke="black" points="377.5,-947.5 377.5,-988.5 508.5,-988.5 508.5,-947.5 377.5,-947.5"/>
<text text-anchor="start" x="385.5" y="-976.5" font-family="Helvetica,sans-Serif" font-size="10.00">okw.SeButton.SeButton</text>
<text text-anchor="start" x="385.5" y="-965.5" font-family="Helvetica,sans-Serif" font-size="10.00">_EN_Test.tcVerifyExists</text>
<text text-anchor="middle" x="443" y="-954.5" font-family="Helvetica,sans-Serif" font-size="10.00">_ExistsYESExpectedYES</text>
</a>
</g>
</g>
<!-- Node3221&#45;&gt;Node3237 -->
<g id="edge17" class="edge"><title>Node3221&#45;&gt;Node3237</title>
<path fill="none" stroke="midnightblue" d="M314.2,-950.918C334.886,-953.683 357.189,-956.664 377.282,-959.35"/>
<polygon fill="midnightblue" stroke="midnightblue" points="314.567,-947.436 304.192,-949.58 313.64,-954.374 314.567,-947.436"/>
</g>
<!-- Node3238 -->
<g id="node19" class="node"><title>Node3238</title>
<g id="a_node19"><a xlink:href="classokw_1_1_se_input_checkbox_1_1_se_input_checkbox___e_n___test.html#ad572d5badb79741c496835cbb5c2d6df" target="_top" xlink:title="Prüft die SetFocusFunktion bei Textfelder mit dem Attribute &quot;ReadOnly&quot;. ">
<polygon fill="white" stroke="black" points="364,-899 364,-929 522,-929 522,-899 364,-899"/>
<text text-anchor="start" x="372" y="-917" font-family="Helvetica,sans-Serif" font-size="10.00">okw.SeInputCheckbox.SeInput</text>
<text text-anchor="middle" x="443" y="-906" font-family="Helvetica,sans-Serif" font-size="10.00">Checkbox_EN_Test.tcSetFocus</text>
</a>
</g>
</g>
<!-- Node3221&#45;&gt;Node3238 -->
<g id="edge18" class="edge"><title>Node3221&#45;&gt;Node3238</title>
<path fill="none" stroke="midnightblue" d="M314.122,-931.093C330.302,-928.93 347.475,-926.634 363.809,-924.451"/>
<polygon fill="midnightblue" stroke="midnightblue" points="313.64,-927.626 304.192,-932.42 314.567,-934.564 313.64,-927.626"/>
</g>
<!-- Node3239 -->
<g id="node20" class="node"><title>Node3239</title>
<g id="a_node20"><a xlink:href="classokw_1_1_se_input_field_1_1_se_input_field___e_n___test.html#a009c63f6089c85d3a4cdeeca992a729d" target="_top" xlink:title="Test des Schlüsselwortes &quot;VerifyValue( FN, ExpVal ) für SeInputText. ">
<polygon fill="white" stroke="black" points="367,-850 367,-880 519,-880 519,-850 367,-850"/>
<text text-anchor="start" x="375" y="-868" font-family="Helvetica,sans-Serif" font-size="10.00">okw.SeInputField.SeInput</text>
<text text-anchor="middle" x="443" y="-857" font-family="Helvetica,sans-Serif" font-size="10.00">Field_EN_Test.tcVerifyCaption</text>
</a>
</g>
</g>
<!-- Node3221&#45;&gt;Node3239 -->
<g id="edge19" class="edge"><title>Node3221&#45;&gt;Node3239</title>
<path fill="none" stroke="midnightblue" d="M264.794,-926.312C284.597,-915.088 313.35,-899.909 340,-890 349.997,-886.283 360.752,-882.959 371.396,-880.043"/>
<polygon fill="midnightblue" stroke="midnightblue" points="263.026,-923.291 256.102,-931.31 266.516,-929.359 263.026,-923.291"/>
</g>
<!-- Node3240 -->
<g id="node21" class="node"><title>Node3240</title>
<g id="a_node21"><a xlink:href="classokw_1_1_se_input_radio_1_1_se_input_radio___e_n___test.html#a864069c64cc340e4dc2a143d98067c71" target="_top" xlink:title="Test des Schlüsselwortes VerifyExists für den GUI&#45;Adapter SeInputRadio. ">
<polygon fill="white" stroke="black" points="365,-790.5 365,-831.5 521,-831.5 521,-790.5 365,-790.5"/>
<text text-anchor="start" x="373" y="-819.5" font-family="Helvetica,sans-Serif" font-size="10.00">okw.SeInputRadio.SeInput</text>
<text text-anchor="start" x="373" y="-808.5" font-family="Helvetica,sans-Serif" font-size="10.00">Radio_EN_Test.tc_VerifyExists</text>
<text text-anchor="middle" x="443" y="-797.5" font-family="Helvetica,sans-Serif" font-size="10.00">_ExsistsNOExpectedNO</text>
</a>
</g>
</g>
<!-- Node3221&#45;&gt;Node3240 -->
<g id="edge20" class="edge"><title>Node3221&#45;&gt;Node3240</title>
<path fill="none" stroke="midnightblue" d="M252.926,-923.472C270.301,-901.13 303.282,-862.797 340,-841 347.698,-836.43 356.14,-832.515 364.769,-829.171"/>
<polygon fill="midnightblue" stroke="midnightblue" points="250.127,-921.37 246.859,-931.448 255.699,-925.608 250.127,-921.37"/>
</g>
<!-- Node3241 -->
<g id="node22" class="node"><title>Node3241</title>
<g id="a_node22"><a xlink:href="classokw_1_1_se_input_radio_1_1_se_input_radio___e_n___test.html#a691960702300c79158a5be7e06026110" target="_top" xlink:title="Test des Schlüsselwortes VerifyExists für den GUI&#45;Adapter SeInputRadio. ">
<polygon fill="white" stroke="black" points="365,-730.5 365,-771.5 521,-771.5 521,-730.5 365,-730.5"/>
<text text-anchor="start" x="373" y="-759.5" font-family="Helvetica,sans-Serif" font-size="10.00">okw.SeInputRadio.SeInput</text>
<text text-anchor="start" x="373" y="-748.5" font-family="Helvetica,sans-Serif" font-size="10.00">Radio_EN_Test.tc_VerifyExists</text>
<text text-anchor="middle" x="443" y="-737.5" font-family="Helvetica,sans-Serif" font-size="10.00">_ExistsNOExpectedYES</text>
</a>
</g>
</g>
<!-- Node3221&#45;&gt;Node3241 -->
<g id="edge21" class="edge"><title>Node3221&#45;&gt;Node3241</title>
<path fill="none" stroke="midnightblue" d="M246.729,-921.811C259.517,-888.16 290.553,-818.522 340,-781 347.499,-775.309 356.059,-770.696 364.958,-766.955"/>
<polygon fill="midnightblue" stroke="midnightblue" points="243.375,-920.793 243.218,-931.386 249.947,-923.203 243.375,-920.793"/>
</g>
<!-- Node3242 -->
<g id="node23" class="node"><title>Node3242</title>
<g id="a_node23"><a xlink:href="classokw_1_1_se_input_radio_1_1_se_input_radio___e_n___test.html#a36dde073e7ea2aaa99cac15f1a72a237" target="_top" xlink:title="Test des Schlüsselwortes VerifyExists für den GUI&#45;Adapter SeInputRadio. ">
<polygon fill="white" stroke="black" points="365,-670.5 365,-711.5 521,-711.5 521,-670.5 365,-670.5"/>
<text text-anchor="start" x="373" y="-699.5" font-family="Helvetica,sans-Serif" font-size="10.00">okw.SeInputRadio.SeInput</text>
<text text-anchor="start" x="373" y="-688.5" font-family="Helvetica,sans-Serif" font-size="10.00">Radio_EN_Test.tc_VerifyExists</text>
<text text-anchor="middle" x="443" y="-677.5" font-family="Helvetica,sans-Serif" font-size="10.00">_ExistsYESExpectedNO</text>
</a>
</g>
</g>
<!-- Node3221&#45;&gt;Node3242 -->
<g id="edge22" class="edge"><title>Node3221&#45;&gt;Node3242</title>
<path fill="none" stroke="midnightblue" d="M243.265,-921.408C251.452,-878.522 276.9,-775.8 340,-721 347.317,-714.646 355.922,-709.636 364.98,-705.687"/>
<polygon fill="midnightblue" stroke="midnightblue" points="239.794,-920.933 241.469,-931.394 246.684,-922.172 239.794,-920.933"/>
</g>
<!-- Node3243 -->
<g id="node24" class="node"><title>Node3243</title>
<g id="a_node24"><a xlink:href="classokw_1_1_se_input_radio_1_1_se_input_radio___e_n___test.html#a5080b6f0c5fcac13a91b92561ac2bc08" target="_top" xlink:title="Test des Schlüsselwortes VerifyExists für den GUI&#45;Adapter SeInputRadio. ">
<polygon fill="white" stroke="black" points="365,-610.5 365,-651.5 521,-651.5 521,-610.5 365,-610.5"/>
<text text-anchor="start" x="373" y="-639.5" font-family="Helvetica,sans-Serif" font-size="10.00">okw.SeInputRadio.SeInput</text>
<text text-anchor="start" x="373" y="-628.5" font-family="Helvetica,sans-Serif" font-size="10.00">Radio_EN_Test.tc_VerifyExists</text>
<text text-anchor="middle" x="443" y="-617.5" font-family="Helvetica,sans-Serif" font-size="10.00">_ExistsYESExpectedYES</text>
</a>
</g>
</g>
<!-- Node3221&#45;&gt;Node3243 -->
<g id="edge23" class="edge"><title>Node3221&#45;&gt;Node3243</title>
<path fill="none" stroke="midnightblue" d="M241.137,-921.11C245.14,-870.156 262.89,-733.838 340,-661 347.179,-654.219 355.812,-648.962 364.978,-644.888"/>
<polygon fill="midnightblue" stroke="midnightblue" points="237.624,-921.176 240.43,-931.392 244.608,-921.656 237.624,-921.176"/>
</g>
<!-- Node3244 -->
<g id="node25" class="node"><title>Node3244</title>
<g id="a_node25"><a xlink:href="classokw_1_1_se_link_1_1_se_link___e_n___test.html#a1dad73224a73a01e6c896e96430a982f" target="_top" xlink:title="Prüft die Methode SeLink.MemorizeToolTip. ">
<polygon fill="white" stroke="black" points="374.5,-562 374.5,-592 511.5,-592 511.5,-562 374.5,-562"/>
<text text-anchor="start" x="382.5" y="-580" font-family="Helvetica,sans-Serif" font-size="10.00">okw.SeLink.SeLink_EN</text>
<text text-anchor="middle" x="443" y="-569" font-family="Helvetica,sans-Serif" font-size="10.00">_Test.TC_VerifyExists_NO</text>
</a>
</g>
</g>
<!-- Node3221&#45;&gt;Node3244 -->
<g id="edge24" class="edge"><title>Node3221&#45;&gt;Node3244</title>
<path fill="none" stroke="midnightblue" d="M239.443,-921.397C238.923,-863.246 245.741,-690.216 340,-601 349.513,-591.996 361.743,-586.159 374.41,-582.418"/>
<polygon fill="midnightblue" stroke="midnightblue" points="235.944,-921.501 239.621,-931.437 242.943,-921.376 235.944,-921.501"/>
</g>
<!-- Node3245 -->
<g id="node26" class="node"><title>Node3245</title>
<g id="a_node26"><a xlink:href="classokw_1_1_se_link_1_1_se_link___e_n___test.html#a6c80c87a06244c2f38eb3f95504c8622" target="_top" xlink:title="Prüft die Methode SeLink.VerifyExists. ">
<polygon fill="white" stroke="black" points="383,-502.5 383,-543.5 503,-543.5 503,-502.5 383,-502.5"/>
<text text-anchor="start" x="391" y="-531.5" font-family="Helvetica,sans-Serif" font-size="10.00">okw.SeLink.SeLink_EN</text>
<text text-anchor="start" x="391" y="-520.5" font-family="Helvetica,sans-Serif" font-size="10.00">_Test.TC_VerifyExists</text>
<text text-anchor="middle" x="443" y="-509.5" font-family="Helvetica,sans-Serif" font-size="10.00">_NO_YesObject</text>
</a>
</g>
</g>
<!-- Node3221&#45;&gt;Node3245 -->
<g id="edge25" class="edge"><title>Node3221&#45;&gt;Node3245</title>
<path fill="none" stroke="midnightblue" d="M242.551,-920.902C252.035,-849.203 287.445,-607.363 340,-553 351.418,-541.189 367.226,-533.964 382.99,-529.565"/>
<polygon fill="midnightblue" stroke="midnightblue" points="239.026,-920.865 241.209,-931.233 245.968,-921.767 239.026,-920.865"/>
</g>
<!-- Node3246 -->
<g id="node27" class="node"><title>Node3246</title>
<g id="a_node27"><a xlink:href="classokw_1_1_se_link_1_1_se_link___e_n___test.html#ac0895c8bd1e1aca4006c1072f68d6890" target="_top" xlink:title="Prüft die Methode SeLink.VerifyExists. ">
<polygon fill="white" stroke="black" points="372,-454 372,-484 514,-484 514,-454 372,-454"/>
<text text-anchor="start" x="380" y="-472" font-family="Helvetica,sans-Serif" font-size="10.00">okw.SeLink.SeLink_EN</text>
<text text-anchor="middle" x="443" y="-461" font-family="Helvetica,sans-Serif" font-size="10.00">_Test.TC_VerifyExists_YES</text>
</a>
</g>
</g>
<!-- Node3221&#45;&gt;Node3246 -->
<g id="edge26" class="edge"><title>Node3221&#45;&gt;Node3246</title>
<path fill="none" stroke="midnightblue" d="M241.658,-921.307C248.64,-843.081 278.189,-555.524 340,-493 348.697,-484.203 359.97,-478.386 371.838,-474.586"/>
<polygon fill="midnightblue" stroke="midnightblue" points="238.171,-921.012 240.791,-931.278 245.144,-921.619 238.171,-921.012"/>
</g>
<!-- Node3247 -->
<g id="node28" class="node"><title>Node3247</title>
<g id="a_node28"><a xlink:href="classokw_1_1_se_link_1_1_se_link___e_n___test.html#a1fad39475422a862685d82bc548203b8" target="_top" xlink:title="Prüft die Methode SeLink.VerifyExists. ">
<polygon fill="white" stroke="black" points="383,-394.5 383,-435.5 503,-435.5 503,-394.5 383,-394.5"/>
<text text-anchor="start" x="391" y="-423.5" font-family="Helvetica,sans-Serif" font-size="10.00">okw.SeLink.SeLink_EN</text>
<text text-anchor="start" x="391" y="-412.5" font-family="Helvetica,sans-Serif" font-size="10.00">_Test.TC_VerifyExists</text>
<text text-anchor="middle" x="443" y="-401.5" font-family="Helvetica,sans-Serif" font-size="10.00">_YES_NoObject</text>
</a>
</g>
</g>
<!-- Node3221&#45;&gt;Node3247 -->
<g id="edge27" class="edge"><title>Node3221&#45;&gt;Node3247</title>
<path fill="none" stroke="midnightblue" d="M241.333,-920.944C247.286,-837.254 274.103,-516.902 340,-445 351.162,-432.821 366.986,-425.491 382.849,-421.108"/>
<polygon fill="midnightblue" stroke="midnightblue" points="237.826,-920.914 240.629,-931.132 244.81,-921.397 237.826,-920.914"/>
</g>
<!-- Node3248 -->
<g id="node29" class="node"><title>Node3248</title>
<g id="a_node29"><a xlink:href="classokw_1_1_se_m_a_x_i_m_i_z_e_1_1_se_m_a_x_i_m_i_z_e___e_n___test.html#a42aa1e1f400c3e4eb6c5d0e6f2bbb1c7" target="_top" xlink:title="Test des Schlüsselwortes &quot;VerifyExists( FN, ExpVal ) für SeMAXIMIZE. ">
<polygon fill="white" stroke="black" points="349,-323 349,-375 537,-375 537,-323 349,-323"/>
<text text-anchor="start" x="357" y="-363" font-family="Helvetica,sans-Serif" font-size="10.00">okw.SeMAXIMIZE.SeMAXIMIZE</text>
<text text-anchor="start" x="357" y="-352" font-family="Helvetica,sans-Serif" font-size="10.00">_EN_Test.tcVerifyExists</text>
<text text-anchor="start" x="357" y="-341" font-family="Helvetica,sans-Serif" font-size="10.00">_ExistsYesExpectedNo_OKWVerifying</text>
<text text-anchor="middle" x="443" y="-330" font-family="Helvetica,sans-Serif" font-size="10.00">FailsException</text>
</a>
</g>
</g>
<!-- Node3221&#45;&gt;Node3248 -->
<g id="edge28" class="edge"><title>Node3221&#45;&gt;Node3248</title>
<path fill="none" stroke="midnightblue" d="M240.95,-921.24C245.611,-832.171 268.784,-468.744 340,-385 343.041,-381.424 346.461,-378.202 350.157,-375.301"/>
<polygon fill="midnightblue" stroke="midnightblue" points="237.45,-921.16 240.442,-931.324 244.441,-921.513 237.45,-921.16"/>
</g>
<!-- Node3249 -->
<g id="node30" class="node"><title>Node3249</title>
<g id="a_node30"><a xlink:href="classokw_1_1_se_m_a_x_i_m_i_z_e_1_1_se_m_a_x_i_m_i_z_e___e_n___test.html#a307e5f50f0c7dabbd0da823babc79a65" target="_top" xlink:title="Prüft ob das MAXIMIZE existiert. ">
<polygon fill="white" stroke="black" points="362,-262.5 362,-303.5 524,-303.5 524,-262.5 362,-262.5"/>
<text text-anchor="start" x="370" y="-291.5" font-family="Helvetica,sans-Serif" font-size="10.00">okw.SeMAXIMIZE.SeMAXIMIZE</text>
<text text-anchor="start" x="370" y="-280.5" font-family="Helvetica,sans-Serif" font-size="10.00">_EN_Test.tcVerifyExists</text>
<text text-anchor="middle" x="443" y="-269.5" font-family="Helvetica,sans-Serif" font-size="10.00">_ExistsYesExpectedYes</text>
</a>
</g>
</g>
<!-- Node3221&#45;&gt;Node3249 -->
<g id="edge29" class="edge"><title>Node3221&#45;&gt;Node3249</title>
<path fill="none" stroke="midnightblue" d="M240.416,-921.438C242.841,-825.774 258.044,-408.02 340,-314 346.081,-307.024 353.677,-301.591 361.965,-297.363"/>
<polygon fill="midnightblue" stroke="midnightblue" points="236.917,-921.385 240.18,-931.464 243.915,-921.549 236.917,-921.385"/>
</g>
<!-- Node3250 -->
<g id="node31" class="node"><title>Node3250</title>
<g id="a_node31"><a xlink:href="classokw_1_1_se_radio_list_1_1_se_radio_list___e_n___test.html#a5b5815df1ca3e8fb2c653c4d1c31b1cd" target="_top" xlink:title="Prüft die Methode SeRadioList.VerifyExists. ">
<polygon fill="white" stroke="black" points="369.5,-202.5 369.5,-243.5 516.5,-243.5 516.5,-202.5 369.5,-202.5"/>
<text text-anchor="start" x="377.5" y="-231.5" font-family="Helvetica,sans-Serif" font-size="10.00">okw.SeRadioList.SeRadioList</text>
<text text-anchor="start" x="377.5" y="-220.5" font-family="Helvetica,sans-Serif" font-size="10.00">_EN_Test.tcVerifyExists</text>
<text text-anchor="middle" x="443" y="-209.5" font-family="Helvetica,sans-Serif" font-size="10.00">_ExistsYesExpectedYes</text>
</a>
</g>
</g>
<!-- Node3221&#45;&gt;Node3250 -->
<g id="edge30" class="edge"><title>Node3221&#45;&gt;Node3250</title>
<path fill="none" stroke="midnightblue" d="M240.1,-920.826C241.015,-818.383 250.136,-356.595 340,-253 347.801,-244.007 358.147,-237.641 369.259,-233.149"/>
<polygon fill="midnightblue" stroke="midnightblue" points="236.599,-921.003 240.027,-931.028 243.599,-921.054 236.599,-921.003"/>
</g>
<!-- Node3251 -->
<g id="node32" class="node"><title>Node3251</title>
<g id="a_node32"><a xlink:href="classokw_1_1_se_radio_list_1_1_se_radio_list___e_n___test.html#a75ea555d32e9d7f44e3680079c203ad1" target="_top" xlink:title="Prüft die Methode SeRadioList.VerifyExists. ">
<polygon fill="white" stroke="black" points="369.5,-142.5 369.5,-183.5 516.5,-183.5 516.5,-142.5 369.5,-142.5"/>
<text text-anchor="start" x="377.5" y="-171.5" font-family="Helvetica,sans-Serif" font-size="10.00">okw.SeRadioList.SeRadioList</text>
<text text-anchor="start" x="377.5" y="-160.5" font-family="Helvetica,sans-Serif" font-size="10.00">_EN_Test.tcVerifyExists</text>
<text text-anchor="middle" x="443" y="-149.5" font-family="Helvetica,sans-Serif" font-size="10.00">_ExistsNoExpectedNo</text>
</a>
</g>
</g>
<!-- Node3221&#45;&gt;Node3251 -->
<g id="edge31" class="edge"><title>Node3221&#45;&gt;Node3251</title>
<path fill="none" stroke="midnightblue" d="M239.842,-921.13C239.392,-814.086 242.491,-306.715 340,-193 347.81,-183.892 358.23,-177.475 369.43,-172.97"/>
<polygon fill="midnightblue" stroke="midnightblue" points="236.342,-921.219 239.901,-931.198 243.342,-921.178 236.342,-921.219"/>
</g>
<!-- Node3252 -->
<g id="node33" class="node"><title>Node3252</title>
<g id="a_node33"><a xlink:href="classokw_1_1_se_radio_list_1_1_se_radio_list___e_n___test.html#a33e9bd8765498402d4c38f59a0bc1065" target="_top" xlink:title="Prüft die Methode SeRadioList.VerifyExists. ">
<polygon fill="white" stroke="black" points="349,-71 349,-123 537,-123 537,-71 349,-71"/>
<text text-anchor="start" x="357" y="-111" font-family="Helvetica,sans-Serif" font-size="10.00">okw.SeRadioList.SeRadioList</text>
<text text-anchor="start" x="357" y="-100" font-family="Helvetica,sans-Serif" font-size="10.00">_EN_Test.tcVerifyExists</text>
<text text-anchor="start" x="357" y="-89" font-family="Helvetica,sans-Serif" font-size="10.00">_ExistsYesExpectedNo_OKWVerifying</text>
<text text-anchor="middle" x="443" y="-78" font-family="Helvetica,sans-Serif" font-size="10.00">FailsException</text>
</a>
</g>
</g>
<!-- Node3221&#45;&gt;Node3252 -->
<g id="edge32" class="edge"><title>Node3221&#45;&gt;Node3252</title>
<path fill="none" stroke="midnightblue" d="M239.727,-921.063C238.587,-809.137 238.295,-259.461 340,-133 342.942,-129.342 346.283,-126.054 349.915,-123.101"/>
<polygon fill="midnightblue" stroke="midnightblue" points="236.229,-921.304 239.847,-931.263 243.229,-921.222 236.229,-921.304"/>
</g>
<!-- Node3253 -->
<g id="node34" class="node"><title>Node3253</title>
<g id="a_node34"><a xlink:href="classokw_1_1_se_radio_list_1_1_se_radio_list___e_n___test.html#ad99e281a6a6b207d5404f07842d08115" target="_top" xlink:title="Prüft die Methode SeRadioList.VerifyExists. ">
<polygon fill="white" stroke="black" points="349,-0 349,-52 537,-52 537,-0 349,-0"/>
<text text-anchor="start" x="357" y="-40" font-family="Helvetica,sans-Serif" font-size="10.00">okw.SeRadioList.SeRadioList</text>
<text text-anchor="start" x="357" y="-29" font-family="Helvetica,sans-Serif" font-size="10.00">_EN_Test.tcVerifyExists</text>
<text text-anchor="start" x="357" y="-18" font-family="Helvetica,sans-Serif" font-size="10.00">_ExistsNoExpectedYes_OKWVerifying</text>
<text text-anchor="middle" x="443" y="-7" font-family="Helvetica,sans-Serif" font-size="10.00">FailsException</text>
</a>
</g>
</g>
<!-- Node3221&#45;&gt;Node3253 -->
<g id="edge33" class="edge"><title>Node3221&#45;&gt;Node3253</title>
<path fill="none" stroke="midnightblue" d="M241.008,-921.134C247.463,-797.07 284.511,-131.696 340,-62 342.924,-58.3272 346.25,-55.0283 349.871,-52.0655"/>
<polygon fill="midnightblue" stroke="midnightblue" points="237.497,-921.246 240.479,-931.413 244.488,-921.606 237.497,-921.246"/>
</g>
</g>
</svg>
        <g id="navigator" transform="translate(0 0)" fill="#404254">
                <rect fill="#f2f5e9" fill-opacity="0.5" stroke="#606060" stroke-width=".5" x="0" y="0" width="60" height="60"/>
                <use id="zoomplus" xlink:href="#zoomPlus" x="17" y="9" onmousedown="handleZoom(evt,'in')"/>
                <use id="zoomminus" xlink:href="#zoomMin" x="42" y="9" onmousedown="handleZoom(evt,'out')"/>
                <use id="reset" xlink:href="#resetDef" x="30" y="36" onmousedown="handleReset()"/>
                <g id="arrowUp" xlink:href="#dirArrow" transform="translate(30 24)" onmousedown="handlePan(0,-1)">
                  <use xlink:href="#rim" fill="#404040">
                        <set attributeName="fill" to="#808080" begin="arrowUp.mouseover" end="arrowUp.mouseout"/>
                  </use>
                  <path fill="none" stroke="white" stroke-width="1.5" d="M0,-3.0v7 M-2.5,-0.5L0,-3.0L2.5,-0.5"/>
                </g>
                <g id="arrowRight" xlink:href="#dirArrow" transform="rotate(90) translate(36 -43)" onmousedown="handlePan(1,0)">
                  <use xlink:href="#rim" fill="#404040">
                        <set attributeName="fill" to="#808080" begin="arrowRight.mouseover" end="arrowRight.mouseout"/>
                  </use>
                  <path fill="none" stroke="white" stroke-width="1.5" d="M0,-3.0v7 M-2.5,-0.5L0,-3.0L2.5,-0.5"/>
                </g>
                <g id="arrowDown" xlink:href="#dirArrow" transform="rotate(180) translate(-30 -48)" onmousedown="handlePan(0,1)">
                  <use xlink:href="#rim" fill="#404040">
                        <set attributeName="fill" to="#808080" begin="arrowDown.mouseover" end="arrowDown.mouseout"/>
                  </use>
                  <path fill="none" stroke="white" stroke-width="1.5" d="M0,-3.0v7 M-2.5,-0.5L0,-3.0L2.5,-0.5"/>
                </g>
                <g id="arrowLeft" xlink:href="#dirArrow" transform="rotate(270) translate(-36 17)" onmousedown="handlePan(-1,0)">
                  <use xlink:href="#rim" fill="#404040">
                        <set attributeName="fill" to="#808080" begin="arrowLeft.mouseover" end="arrowLeft.mouseout"/>
                  </use>
                  <path fill="none" stroke="white" stroke-width="1.5" d="M0,-3.0v7 M-2.5,-0.5L0,-3.0L2.5,-0.5"/>
                </g>
        </g>
        <svg viewBox="0 0 15 15" width="100%" height="30px" preserveAspectRatio="xMaxYMin meet">
         <g id="arrow_out" transform="scale(0.3 0.3)">
          <a xlink:href="classokw_1_1core_1_1_core_a47af0e08b2bde199fc5d10dee040ac1b_icgraph_org.svg" target="_base">
           <rect id="button" ry="5" rx="5" y="6" x="6" height="38" width="38"
                fill="#f2f5e9" fill-opacity="0.5" stroke="#606060" stroke-width="1.0"/>
           <path id="arrow"
             d="M 11.500037,31.436501 C 11.940474,20.09759 22.043105,11.32322 32.158766,21.979434 L 37.068811,17.246167 C 37.068811,17.246167 37.088388,32 37.088388,32 L 22.160133,31.978069 C 22.160133,31.978069 26.997745,27.140456 26.997745,27.140456 C 18.528582,18.264221 13.291696,25.230495 11.500037,31.436501 z"
             style="fill:#404040;"/>
          </a>
         </g>
        </svg>
</svg>
