<?xml version="1.0" encoding="UTF-8" standalone="no"?>
<!DOCTYPE svg PUBLIC "-//W3C//DTD SVG 1.1//EN"
 "http://www.w3.org/Graphics/SVG/1.1/DTD/svg11.dtd">
<!-- Generated by graphviz version 2.38.0 (20140413.2041)
 -->
<!-- Title: okw.gui.adapter.selenium.SeAnyChildWindow.VerifyHasFocus Pages: 1 -->
<!--zoomable 351 -->
<svg id="main" version="1.1" xmlns="http://www.w3.org/2000/svg" xmlns:xlink="http://www.w3.org/1999/xlink" xml:space="preserve" onload="init(evt)">
<style type="text/css"><![CDATA[
.edge:hover path { stroke: red; }
.edge:hover polygon { stroke: red; fill: red; }
]]></style>
<script type="text/javascript"><![CDATA[
var edges = document.getElementsByTagName('g');
if (edges && edges.length) {
  for (var i=0;i<edges.length;i++) {
    if (edges[i].id.substr(0,4)=='edge') {
      edges[i].setAttribute('class','edge');
    }
  }
}
]]></script>
        <defs>
                <circle id="rim" cx="0" cy="0" r="7"/>
                <circle id="rim2" cx="0" cy="0" r="3.5"/>
                <g id="zoomPlus">
                        <use xlink:href="#rim" fill="#404040">
                                <set attributeName="fill" to="#808080" begin="zoomplus.mouseover" end="zoomplus.mouseout"/>
                        </use>
                        <path d="M-4,0h8M0,-4v8" fill="none" stroke="white" stroke-width="1.5" pointer-events="none"/>
                </g>
                <g id="zoomMin">
                        <use xlink:href="#rim" fill="#404040">
                                <set attributeName="fill" to="#808080" begin="zoomminus.mouseover" end="zoomminus.mouseout"/>
                        </use>
                        <path d="M-4,0h8" fill="none" stroke="white" stroke-width="1.5" pointer-events="none"/>
                </g>
                <g id="dirArrow">
                        <path fill="none" stroke="white" stroke-width="1.5" d="M0,-3.0v7 M-2.5,-0.5L0,-3.0L2.5,-0.5"/>
                </g>
               <g id="resetDef">
                       <use xlink:href="#rim2" fill="#404040">
                               <set attributeName="fill" to="#808080" begin="reset.mouseover" end="reset.mouseout"/>
                       </use>
               </g>
        </defs>

<script type="text/javascript">
var viewWidth = 1240;
var viewHeight = 351;
var sectionId = 'dynsection-45';
</script>
<script xlink:href="svgpan.js"/>
<svg id="graph" class="graph">
<g id="viewport">
<title>okw.gui.adapter.selenium.SeAnyChildWindow.VerifyHasFocus</title>
<polygon fill="white" stroke="none" points="-4,4 -4,-347 1236,-347 1236,4 -4,4"/>
<!-- Node645 -->
<g id="node1" class="node"><title>Node645</title>
<g id="a_node1"><a xlink:title="Ermittelt ob das GUI&#45;Objekt den Fokus hat.">
<polygon fill="#bfbfbf" stroke="black" points="0,-181.5 0,-211.5 181,-211.5 181,-181.5 0,-181.5"/>
<text text-anchor="start" x="8" y="-199.5" font-family="Helvetica,sans-Serif" font-size="10.00">okw.gui.adapter.selenium.</text>
<text text-anchor="middle" x="90.5" y="-188.5" font-family="Helvetica,sans-Serif" font-size="10.00">SeAnyChildWindow.VerifyHasFocus</text>
</a>
</g>
</g>
<!-- Node646 -->
<g id="node2" class="node"><title>Node646</title>
<g id="a_node2"><a xlink:href="classokw_1_1gui_1_1_any_win_base.html#abaab572bdbed7b471f659d5dd8c76853" target="_top" xlink:title="Diese Methode ruft die Methode Logger.Instance.LogFunctionStartDebug(fps_FunctionName),...">
<polygon fill="white" stroke="black" points="423,-269.5 423,-299.5 596,-299.5 596,-269.5 423,-269.5"/>
<text text-anchor="start" x="431" y="-287.5" font-family="Helvetica,sans-Serif" font-size="10.00">okw.gui.AnyWinBase.LogFunction</text>
<text text-anchor="middle" x="509.5" y="-276.5" font-family="Helvetica,sans-Serif" font-size="10.00">StartDebug</text>
</a>
</g>
</g>
<!-- Node645&#45;&gt;Node646 -->
<g id="edge1" class="edge"><title>Node645&#45;&gt;Node646</title>
<path fill="none" stroke="midnightblue" d="M162.711,-211.528C236.065,-227.008 350.231,-251.1 427.111,-267.324"/>
<polygon fill="midnightblue" stroke="midnightblue" points="426.727,-270.82 437.234,-269.461 428.172,-263.971 426.727,-270.82"/>
</g>
<!-- Node647 -->
<g id="node3" class="node"><title>Node647</title>
<g id="a_node3"><a xlink:href="classokw_1_1gui_1_1adapter_1_1selenium_1_1_se_any_child_window.html#a3dd9beab770c688211a9244ce308505c" target="_top" xlink:title="Methode liefert den aktuellen Zustand Wert des Focus.">
<polygon fill="white" stroke="black" points="217,-181.5 217,-211.5 387,-211.5 387,-181.5 217,-181.5"/>
<text text-anchor="start" x="225" y="-199.5" font-family="Helvetica,sans-Serif" font-size="10.00">okw.gui.adapter.selenium.</text>
<text text-anchor="middle" x="302" y="-188.5" font-family="Helvetica,sans-Serif" font-size="10.00">SeAnyChildWindow.getHasFocus</text>
</a>
</g>
</g>
<!-- Node645&#45;&gt;Node647 -->
<g id="edge2" class="edge"><title>Node645&#45;&gt;Node647</title>
<path fill="none" stroke="midnightblue" d="M181.259,-196.5C189.628,-196.5 198.127,-196.5 206.538,-196.5"/>
<polygon fill="midnightblue" stroke="midnightblue" points="206.738,-200 216.738,-196.5 206.737,-193 206.738,-200"/>
</g>
<!-- Node663 -->
<g id="node19" class="node"><title>Node663</title>
<g id="a_node19"><a xlink:href="classokw_1_1gui_1_1_any_win_base.html#a51cf50ace21902b3a5359316f53a7f3e" target="_top" xlink:title="Methode ruft die Methode Logger.Instance.LogFunctionEndDebug() auf.">
<polygon fill="white" stroke="black" points="423,-83.5 423,-113.5 596,-113.5 596,-83.5 423,-83.5"/>
<text text-anchor="start" x="431" y="-101.5" font-family="Helvetica,sans-Serif" font-size="10.00">okw.gui.AnyWinBase.LogFunction</text>
<text text-anchor="middle" x="509.5" y="-90.5" font-family="Helvetica,sans-Serif" font-size="10.00">EndDebug</text>
</a>
</g>
</g>
<!-- Node645&#45;&gt;Node663 -->
<g id="edge23" class="edge"><title>Node645&#45;&gt;Node663</title>
<path fill="none" stroke="midnightblue" d="M155.742,-181.402C231,-163.716 355.439,-134.471 434.623,-115.862"/>
<polygon fill="midnightblue" stroke="midnightblue" points="435.593,-119.229 444.527,-113.534 433.992,-112.415 435.593,-119.229"/>
</g>
<!-- Node647&#45;&gt;Node646 -->
<g id="edge3" class="edge"><title>Node647&#45;&gt;Node646</title>
<path fill="none" stroke="midnightblue" d="M332.167,-211.742C356.21,-224.027 391.376,-241.359 423,-254.5 432.577,-258.48 442.893,-262.4 452.93,-266.026"/>
<polygon fill="midnightblue" stroke="midnightblue" points="451.841,-269.354 462.436,-269.406 454.186,-262.758 451.841,-269.354"/>
</g>
<!-- Node648 -->
<g id="node4" class="node"><title>Node648</title>
<g id="a_node4"><a xlink:href="classokw_1_1gui_1_1adapter_1_1selenium_1_1_se_any_child_window.html#a72faf4aa1717b4178fae1b0570ca9b28" target="_top" xlink:title="Wartet auf das Objekt Wenn kein Fenster gefunden wird,.">
<polygon fill="white" stroke="black" points="431,-132.5 431,-162.5 588,-162.5 588,-132.5 431,-132.5"/>
<text text-anchor="start" x="439" y="-150.5" font-family="Helvetica,sans-Serif" font-size="10.00">okw.gui.adapter.selenium.</text>
<text text-anchor="middle" x="509.5" y="-139.5" font-family="Helvetica,sans-Serif" font-size="10.00">SeAnyChildWindow.WaitForMe</text>
</a>
</g>
</g>
<!-- Node647&#45;&gt;Node648 -->
<g id="edge4" class="edge"><title>Node647&#45;&gt;Node648</title>
<path fill="none" stroke="midnightblue" d="M366.053,-181.465C388.047,-176.221 412.908,-170.293 435.634,-164.874"/>
<polygon fill="midnightblue" stroke="midnightblue" points="436.65,-168.23 445.566,-162.506 435.027,-161.421 436.65,-168.23"/>
</g>
<!-- Node657 -->
<g id="node13" class="node"><title>Node657</title>
<g id="a_node13"><a xlink:href="classokw_1_1gui_1_1adapter_1_1selenium_1_1webdriver_1_1_se_driver.html#aee9e3f8a67f4ad1f8100a33ba71c926e" target="_top" xlink:title="Gibt die Instance für die einzige Instanz dieser Klasse zurück.">
<polygon fill="white" stroke="black" points="632,-263.5 632,-293.5 820,-293.5 820,-263.5 632,-263.5"/>
<text text-anchor="start" x="640" y="-281.5" font-family="Helvetica,sans-Serif" font-size="10.00">okw.gui.adapter.selenium.webdriver.</text>
<text text-anchor="middle" x="726" y="-270.5" font-family="Helvetica,sans-Serif" font-size="10.00">SeDriver.getInstance</text>
</a>
</g>
</g>
<!-- Node647&#45;&gt;Node657 -->
<g id="edge13" class="edge"><title>Node647&#45;&gt;Node657</title>
<path fill="none" stroke="midnightblue" d="M377.557,-211.504C392.598,-214.504 408.301,-217.619 423,-220.5 494.59,-234.533 575.796,-250.11 635.957,-261.584"/>
<polygon fill="midnightblue" stroke="midnightblue" points="635.325,-265.027 645.803,-263.462 636.636,-258.151 635.325,-265.027"/>
</g>
<!-- Node658 -->
<g id="node14" class="node"><title>Node658</title>
<g id="a_node14"><a xlink:href="classokw_1_1gui_1_1adapter_1_1selenium_1_1_se_any_child_window.html#a9a138af1fc6ff850d708d66f308a2525" target="_top" xlink:title="Ermittelt aus dem gegebenen Locator das DOM&#45;Elelement, welches das Objekt representiert.">
<polygon fill="white" stroke="black" points="439.5,-181.5 439.5,-211.5 579.5,-211.5 579.5,-181.5 439.5,-181.5"/>
<text text-anchor="start" x="447.5" y="-199.5" font-family="Helvetica,sans-Serif" font-size="10.00">okw.gui.adapter.selenium.</text>
<text text-anchor="middle" x="509.5" y="-188.5" font-family="Helvetica,sans-Serif" font-size="10.00">SeAnyChildWindow.Me</text>
</a>
</g>
</g>
<!-- Node647&#45;&gt;Node658 -->
<g id="edge14" class="edge"><title>Node647&#45;&gt;Node658</title>
<path fill="none" stroke="midnightblue" d="M387.178,-196.5C400.957,-196.5 415.197,-196.5 428.862,-196.5"/>
<polygon fill="midnightblue" stroke="midnightblue" points="429.182,-200 439.182,-196.5 429.182,-193 429.182,-200"/>
</g>
<!-- Node647&#45;&gt;Node663 -->
<g id="edge22" class="edge"><title>Node647&#45;&gt;Node663</title>
<path fill="none" stroke="midnightblue" d="M323.688,-181.242C346.853,-164.768 386.012,-138.714 423,-122.5 427.647,-120.463 432.511,-118.554 437.461,-116.772"/>
<polygon fill="midnightblue" stroke="midnightblue" points="438.714,-120.043 447.05,-113.504 436.456,-113.417 438.714,-120.043"/>
</g>
<!-- Node649 -->
<g id="node5" class="node"><title>Node649</title>
<g id="a_node5"><a xlink:href="classokw_1_1log_1_1_logger___sngltn.html#ab4fc711bb4c754f251372ff3b14ab9c9" target="_top" xlink:title="Creates a new hierarchical level in the results file.">
<polygon fill="white" stroke="black" points="654.5,-88.5 654.5,-118.5 797.5,-118.5 797.5,-88.5 654.5,-88.5"/>
<text text-anchor="start" x="662.5" y="-106.5" font-family="Helvetica,sans-Serif" font-size="10.00">okw.log.Logger_Sngltn.Res</text>
<text text-anchor="middle" x="726" y="-95.5" font-family="Helvetica,sans-Serif" font-size="10.00">OpenList</text>
</a>
</g>
</g>
<!-- Node648&#45;&gt;Node649 -->
<g id="edge5" class="edge"><title>Node648&#45;&gt;Node649</title>
<path fill="none" stroke="midnightblue" d="M583.719,-132.481C603.238,-128.477 624.434,-124.129 644.329,-120.048"/>
<polygon fill="midnightblue" stroke="midnightblue" points="645.194,-123.443 654.286,-118.005 643.787,-116.586 645.194,-123.443"/>
</g>
<!-- Node650 -->
<g id="node6" class="node"><title>Node650</title>
<g id="a_node6"><a xlink:href="classokw_1_1log_1_1_logger___sngltn.html#a8ebceaddd6cc6963ddb8e08c72ea808c" target="_top" xlink:title="LogPrint Function: Prints the values of expressions to the results file.">
<polygon fill="white" stroke="black" points="878.5,-126.5 878.5,-156.5 1021.5,-156.5 1021.5,-126.5 878.5,-126.5"/>
<text text-anchor="start" x="886.5" y="-144.5" font-family="Helvetica,sans-Serif" font-size="10.00">okw.log.Logger_Sngltn.Log</text>
<text text-anchor="middle" x="950" y="-133.5" font-family="Helvetica,sans-Serif" font-size="10.00">Print</text>
</a>
</g>
</g>
<!-- Node648&#45;&gt;Node650 -->
<g id="edge6" class="edge"><title>Node648&#45;&gt;Node650</title>
<path fill="none" stroke="midnightblue" d="M588.138,-146.438C666.928,-145.36 788.365,-143.698 868.255,-142.605"/>
<polygon fill="midnightblue" stroke="midnightblue" points="868.319,-146.104 878.271,-142.468 868.224,-139.105 868.319,-146.104"/>
</g>
<!-- Node651 -->
<g id="node7" class="node"><title>Node651</title>
<g id="a_node7"><a xlink:href="classokw_1_1gui_1_1_any_win_base.html#a9929f6fae1f4e2c20df79d32d5bc79db" target="_top" xlink:title="Holt den vollständig (rekursiv) aufgelösten (z.B.">
<polygon fill="white" stroke="black" points="642.5,-176 642.5,-195 809.5,-195 809.5,-176 642.5,-176"/>
<text text-anchor="middle" x="726" y="-183" font-family="Helvetica,sans-Serif" font-size="10.00">okw.gui.AnyWinBase.getLocator</text>
</a>
</g>
</g>
<!-- Node648&#45;&gt;Node651 -->
<g id="edge7" class="edge"><title>Node648&#45;&gt;Node651</title>
<path fill="none" stroke="midnightblue" d="M588.243,-161.273C612.264,-165.528 638.426,-170.163 661.376,-174.229"/>
<polygon fill="midnightblue" stroke="midnightblue" points="660.879,-177.695 671.336,-175.993 662.1,-170.802 660.879,-177.695"/>
</g>
<!-- Node653 -->
<g id="node9" class="node"><title>Node653</title>
<g id="a_node9"><a xlink:href="classokw_1_1log_1_1_logger___sngltn.html#a9b54104f7e0b4c0a473877b19dfaed56" target="_top" xlink:title="Closes a hierarchical level in the results file that was opened with ResOpenList.">
<polygon fill="white" stroke="black" points="654.5,-0.5 654.5,-30.5 797.5,-30.5 797.5,-0.5 654.5,-0.5"/>
<text text-anchor="start" x="662.5" y="-18.5" font-family="Helvetica,sans-Serif" font-size="10.00">okw.log.Logger_Sngltn.Res</text>
<text text-anchor="middle" x="726" y="-7.5" font-family="Helvetica,sans-Serif" font-size="10.00">CloseList</text>
</a>
</g>
</g>
<!-- Node648&#45;&gt;Node653 -->
<g id="edge9" class="edge"><title>Node648&#45;&gt;Node653</title>
<path fill="none" stroke="midnightblue" d="M581.303,-132.427C586.597,-129.657 591.585,-126.379 596,-122.5 625.903,-96.2316 601.812,-66.44 632,-40.5 635.941,-37.1137 640.296,-34.1811 644.905,-31.642"/>
<polygon fill="midnightblue" stroke="midnightblue" points="646.561,-34.7292 654.043,-27.2283 643.517,-28.426 646.561,-34.7292"/>
</g>
<!-- Node654 -->
<g id="node10" class="node"><title>Node654</title>
<g id="a_node10"><a xlink:href="classokw_1_1_log_messenger.html#af225d1f037d47b3b085175c09d78bdd2" target="_top" xlink:title="Holt die Log&#45;Meldung für MethodeNmae/Textkey ohne weitere Parameter.">
<polygon fill="white" stroke="black" points="641.5,-50 641.5,-69 810.5,-69 810.5,-50 641.5,-50"/>
<text text-anchor="middle" x="726" y="-57" font-family="Helvetica,sans-Serif" font-size="10.00">okw.LogMessenger.GetMessage</text>
</a>
</g>
</g>
<!-- Node648&#45;&gt;Node654 -->
<g id="edge10" class="edge"><title>Node648&#45;&gt;Node654</title>
<path fill="none" stroke="midnightblue" d="M577.177,-132.375C583.792,-129.605 590.197,-126.342 596,-122.5 617.069,-108.552 610.371,-91.562 632,-78.5 635.472,-76.4035 639.135,-74.5345 642.921,-72.8686"/>
<polygon fill="midnightblue" stroke="midnightblue" points="644.492,-76.0135 652.548,-69.1322 641.959,-69.4879 644.492,-76.0135"/>
</g>
<!-- Node652 -->
<g id="node8" class="node"><title>Node652</title>
<g id="a_node8"><a xlink:href="classokw_1_1gui_1_1_o_k_w_locator.html#adc74fc2125dd048dc1cb84e011f47ec8" target="_top" xlink:title="Holt den vollständig (rekursiv) aufgelösten (z.B.">
<polygon fill="white" stroke="black" points="867,-176 867,-195 1033,-195 1033,-176 867,-176"/>
<text text-anchor="middle" x="950" y="-183" font-family="Helvetica,sans-Serif" font-size="10.00">okw.gui.OKWLocator.getLocator</text>
</a>
</g>
</g>
<!-- Node651&#45;&gt;Node652 -->
<g id="edge8" class="edge"><title>Node651&#45;&gt;Node652</title>
<path fill="none" stroke="midnightblue" d="M809.665,-185.5C824.935,-185.5 840.971,-185.5 856.51,-185.5"/>
<polygon fill="midnightblue" stroke="midnightblue" points="856.636,-189 866.636,-185.5 856.636,-182 856.636,-189"/>
</g>
<!-- Node655 -->
<g id="node11" class="node"><title>Node655</title>
<g id="a_node11"><a xlink:href="classokw_1_1_log_messenger.html#a530cd6ab82ec82a04206a2e976ec06e3" target="_top" xlink:title="Interne Kernfunktion holt die Log&#45;Meldung mit Platzhaltern aus der XML&#45;Datei.">
<polygon fill="white" stroke="black" points="862.5,-50 862.5,-69 1037.5,-69 1037.5,-50 862.5,-50"/>
<text text-anchor="middle" x="950" y="-57" font-family="Helvetica,sans-Serif" font-size="10.00">okw.LogMessenger.ReadMessage</text>
</a>
</g>
</g>
<!-- Node654&#45;&gt;Node655 -->
<g id="edge11" class="edge"><title>Node654&#45;&gt;Node655</title>
<path fill="none" stroke="midnightblue" d="M810.612,-59.5C824.162,-59.5 838.293,-59.5 852.126,-59.5"/>
<polygon fill="midnightblue" stroke="midnightblue" points="852.134,-63.0001 862.134,-59.5 852.134,-56.0001 852.134,-63.0001"/>
</g>
<!-- Node656 -->
<g id="node12" class="node"><title>Node656</title>
<g id="a_node12"><a xlink:href="classokw_1_1_o_k_w___xml_reader.html#ab920b5335a2e1429c14cc5f8e79f39eb" target="_top" xlink:title="Lies den TextContent eines Tag.">
<polygon fill="white" stroke="black" points="1080,-44.5 1080,-74.5 1232,-74.5 1232,-44.5 1080,-44.5"/>
<text text-anchor="start" x="1088" y="-62.5" font-family="Helvetica,sans-Serif" font-size="10.00">okw.OKW_XmlReader.getText</text>
<text text-anchor="middle" x="1156" y="-51.5" font-family="Helvetica,sans-Serif" font-size="10.00">ContentSingleValue</text>
</a>
</g>
</g>
<!-- Node655&#45;&gt;Node656 -->
<g id="edge12" class="edge"><title>Node655&#45;&gt;Node656</title>
<path fill="none" stroke="midnightblue" d="M1037.51,-59.5C1048.21,-59.5 1059.14,-59.5 1069.82,-59.5"/>
<polygon fill="midnightblue" stroke="midnightblue" points="1069.97,-63.0001 1079.97,-59.5 1069.97,-56.0001 1069.97,-63.0001"/>
</g>
<!-- Node658&#45;&gt;Node651 -->
<g id="edge21" class="edge"><title>Node658&#45;&gt;Node651</title>
<path fill="none" stroke="midnightblue" d="M579.55,-192.959C596.237,-192.103 614.344,-191.175 631.933,-190.273"/>
<polygon fill="midnightblue" stroke="midnightblue" points="632.407,-193.753 642.215,-189.745 632.049,-186.762 632.407,-193.753"/>
</g>
<!-- Node658&#45;&gt;Node657 -->
<g id="edge15" class="edge"><title>Node658&#45;&gt;Node657</title>
<path fill="none" stroke="midnightblue" d="M561.776,-211.622C573.323,-215.807 585.315,-220.794 596,-226.5 613.642,-235.921 614.018,-244.746 632,-253.5 636.886,-255.878 642.029,-258.056 647.287,-260.045"/>
<polygon fill="midnightblue" stroke="midnightblue" points="646.249,-263.39 656.844,-263.425 648.583,-256.791 646.249,-263.39"/>
</g>
<!-- Node659 -->
<g id="node15" class="node"><title>Node659</title>
<g id="a_node15"><a xlink:href="classokw_1_1gui_1_1adapter_1_1selenium_1_1webdriver_1_1_se_driver.html#a65a8400867355574525aa356a53d3ccf" target="_top" xlink:title="Ermittelt das Webelement mit der gegebenen frameID und dem gegebenen Locator.">
<polygon fill="white" stroke="black" points="632,-214.5 632,-244.5 820,-244.5 820,-214.5 632,-214.5"/>
<text text-anchor="start" x="640" y="-232.5" font-family="Helvetica,sans-Serif" font-size="10.00">okw.gui.adapter.selenium.webdriver.</text>
<text text-anchor="middle" x="726" y="-221.5" font-family="Helvetica,sans-Serif" font-size="10.00">SeDriver.getElement</text>
</a>
</g>
</g>
<!-- Node658&#45;&gt;Node659 -->
<g id="edge16" class="edge"><title>Node658&#45;&gt;Node659</title>
<path fill="none" stroke="midnightblue" d="M579.55,-207.123C593.083,-209.205 607.549,-211.431 621.916,-213.641"/>
<polygon fill="midnightblue" stroke="midnightblue" points="621.418,-217.105 631.834,-215.167 622.482,-210.187 621.418,-217.105"/>
</g>
<!-- Node659&#45;&gt;Node650 -->
<g id="edge18" class="edge"><title>Node659&#45;&gt;Node650</title>
<path fill="none" stroke="midnightblue" d="M799.219,-214.396C806.473,-211.622 813.537,-208.352 820,-204.5 839.984,-192.589 836.016,-178.411 856,-166.5 860.093,-164.06 864.427,-161.854 868.898,-159.859"/>
<polygon fill="midnightblue" stroke="midnightblue" points="870.295,-163.07 878.235,-156.055 867.653,-156.587 870.295,-163.07"/>
</g>
<!-- Node660 -->
<g id="node16" class="node"><title>Node660</title>
<g id="a_node16"><a xlink:href="classokw_1_1gui_1_1adapter_1_1selenium_1_1webdriver_1_1_se_driver.html#a47eec72c911c05beb2127672daafb325" target="_top" xlink:title="Wechselt das aktuelle Frame auf das Frame mit der id=iframeID.">
<polygon fill="white" stroke="black" points="856,-312.5 856,-342.5 1044,-342.5 1044,-312.5 856,-312.5"/>
<text text-anchor="start" x="864" y="-330.5" font-family="Helvetica,sans-Serif" font-size="10.00">okw.gui.adapter.selenium.webdriver.</text>
<text text-anchor="middle" x="950" y="-319.5" font-family="Helvetica,sans-Serif" font-size="10.00">SeDriver.swichToFrame</text>
</a>
</g>
</g>
<!-- Node659&#45;&gt;Node660 -->
<g id="edge17" class="edge"><title>Node659&#45;&gt;Node660</title>
<path fill="none" stroke="midnightblue" d="M803.515,-244.55C809.315,-247.083 814.89,-250.043 820,-253.5 842.382,-268.644 833.695,-287.244 856,-302.5 858.917,-304.495 861.987,-306.332 865.164,-308.022"/>
<polygon fill="midnightblue" stroke="midnightblue" points="863.832,-311.264 874.365,-312.407 866.844,-304.945 863.832,-311.264"/>
</g>
<!-- Node661 -->
<g id="node17" class="node"><title>Node661</title>
<g id="a_node17"><a xlink:href="classokw_1_1log_1_1_logger___sngltn.html#a2c15e9b2cd0c6266f4c67b8cb00d92e5" target="_top" xlink:title="LogWarning Function: Logs a warning to the results file.">
<polygon fill="white" stroke="black" points="878.5,-263.5 878.5,-293.5 1021.5,-293.5 1021.5,-263.5 878.5,-263.5"/>
<text text-anchor="start" x="886.5" y="-281.5" font-family="Helvetica,sans-Serif" font-size="10.00">okw.log.Logger_Sngltn.Log</text>
<text text-anchor="middle" x="950" y="-270.5" font-family="Helvetica,sans-Serif" font-size="10.00">Warning</text>
</a>
</g>
</g>
<!-- Node659&#45;&gt;Node661 -->
<g id="edge19" class="edge"><title>Node659&#45;&gt;Node661</title>
<path fill="none" stroke="midnightblue" d="M795.116,-244.535C819.089,-249.826 846.215,-255.813 870.943,-261.271"/>
<polygon fill="midnightblue" stroke="midnightblue" points="870.493,-264.756 881.013,-263.494 872.002,-257.921 870.493,-264.756"/>
</g>
<!-- Node662 -->
<g id="node18" class="node"><title>Node662</title>
<g id="a_node18"><a xlink:href="classokw_1_1log_1_1_logger___sngltn.html#a313f97c79ba4662d9daaf7f537dd02f4" target="_top" xlink:title="Loggt eine Nachricht.">
<polygon fill="white" stroke="black" points="878.5,-214.5 878.5,-244.5 1021.5,-244.5 1021.5,-214.5 878.5,-214.5"/>
<text text-anchor="start" x="886.5" y="-232.5" font-family="Helvetica,sans-Serif" font-size="10.00">okw.log.Logger_Sngltn.Log</text>
<text text-anchor="middle" x="950" y="-221.5" font-family="Helvetica,sans-Serif" font-size="10.00">PrintDebug</text>
</a>
</g>
</g>
<!-- Node659&#45;&gt;Node662 -->
<g id="edge20" class="edge"><title>Node659&#45;&gt;Node662</title>
<path fill="none" stroke="midnightblue" d="M820.183,-229.5C836.146,-229.5 852.614,-229.5 868.22,-229.5"/>
<polygon fill="midnightblue" stroke="midnightblue" points="868.336,-233 878.336,-229.5 868.336,-226 868.336,-233"/>
</g>
</g>
</svg>
        <g id="navigator" transform="translate(0 0)" fill="#404254">
                <rect fill="#f2f5e9" fill-opacity="0.5" stroke="#606060" stroke-width=".5" x="0" y="0" width="60" height="60"/>
                <use id="zoomplus" xlink:href="#zoomPlus" x="17" y="9" onmousedown="handleZoom(evt,'in')"/>
                <use id="zoomminus" xlink:href="#zoomMin" x="42" y="9" onmousedown="handleZoom(evt,'out')"/>
                <use id="reset" xlink:href="#resetDef" x="30" y="36" onmousedown="handleReset()"/>
                <g id="arrowUp" xlink:href="#dirArrow" transform="translate(30 24)" onmousedown="handlePan(0,-1)">
                  <use xlink:href="#rim" fill="#404040">
                        <set attributeName="fill" to="#808080" begin="arrowUp.mouseover" end="arrowUp.mouseout"/>
                  </use>
                  <path fill="none" stroke="white" stroke-width="1.5" d="M0,-3.0v7 M-2.5,-0.5L0,-3.0L2.5,-0.5"/>
                </g>
                <g id="arrowRight" xlink:href="#dirArrow" transform="rotate(90) translate(36 -43)" onmousedown="handlePan(1,0)">
                  <use xlink:href="#rim" fill="#404040">
                        <set attributeName="fill" to="#808080" begin="arrowRight.mouseover" end="arrowRight.mouseout"/>
                  </use>
                  <path fill="none" stroke="white" stroke-width="1.5" d="M0,-3.0v7 M-2.5,-0.5L0,-3.0L2.5,-0.5"/>
                </g>
                <g id="arrowDown" xlink:href="#dirArrow" transform="rotate(180) translate(-30 -48)" onmousedown="handlePan(0,1)">
                  <use xlink:href="#rim" fill="#404040">
                        <set attributeName="fill" to="#808080" begin="arrowDown.mouseover" end="arrowDown.mouseout"/>
                  </use>
                  <path fill="none" stroke="white" stroke-width="1.5" d="M0,-3.0v7 M-2.5,-0.5L0,-3.0L2.5,-0.5"/>
                </g>
                <g id="arrowLeft" xlink:href="#dirArrow" transform="rotate(270) translate(-36 17)" onmousedown="handlePan(-1,0)">
                  <use xlink:href="#rim" fill="#404040">
                        <set attributeName="fill" to="#808080" begin="arrowLeft.mouseover" end="arrowLeft.mouseout"/>
                  </use>
                  <path fill="none" stroke="white" stroke-width="1.5" d="M0,-3.0v7 M-2.5,-0.5L0,-3.0L2.5,-0.5"/>
                </g>
        </g>
        <svg viewBox="0 0 15 15" width="100%" height="30px" preserveAspectRatio="xMaxYMin meet">
         <g id="arrow_out" transform="scale(0.3 0.3)">
          <a xlink:href="classokw_1_1gui_1_1adapter_1_1selenium_1_1_se_any_child_window_a6216158314b8256477ea97c2393d2015_cgraph_org.svg" target="_base">
           <rect id="button" ry="5" rx="5" y="6" x="6" height="38" width="38"
                fill="#f2f5e9" fill-opacity="0.5" stroke="#606060" stroke-width="1.0"/>
           <path id="arrow"
             d="M 11.500037,31.436501 C 11.940474,20.09759 22.043105,11.32322 32.158766,21.979434 L 37.068811,17.246167 C 37.068811,17.246167 37.088388,32 37.088388,32 L 22.160133,31.978069 C 22.160133,31.978069 26.997745,27.140456 26.997745,27.140456 C 18.528582,18.264221 13.291696,25.230495 11.500037,31.436501 z"
             style="fill:#404040;"/>
          </a>
         </g>
        </svg>
</svg>
