<?xml version="1.0" encoding="UTF-8" standalone="no"?>
<!DOCTYPE svg PUBLIC "-//W3C//DTD SVG 1.1//EN"
 "http://www.w3.org/Graphics/SVG/1.1/DTD/svg11.dtd">
<!-- Generated by graphviz version 2.36.0 (20140111.2315)
 -->
<!-- Title: okw.gui.adapter.selenium.SeAnyChildWindow.LogTooltip Pages: 1 -->
<svg width="1162pt" height="301pt"
 viewBox="0.00 0.00 1162.00 301.00" xmlns="http://www.w3.org/2000/svg" xmlns:xlink="http://www.w3.org/1999/xlink">
<g id="graph0" class="graph" transform="scale(1 1) rotate(0) translate(4 297)">
<title>okw.gui.adapter.selenium.SeAnyChildWindow.LogTooltip</title>
<polygon fill="white" stroke="none" points="-4,4 -4,-297 1158,-297 1158,4 -4,4"/>
<!-- Node275 -->
<g id="node1" class="node"><title>Node275</title>
<polygon fill="#bfbfbf" stroke="black" points="0,-100 0,-130 152,-130 152,-100 0,-100"/>
<text text-anchor="start" x="8" y="-118" font-family="Helvetica,sans-Serif" font-size="10.00">okw.gui.adapter.selenium.</text>
<text text-anchor="middle" x="76" y="-107" font-family="Helvetica,sans-Serif" font-size="10.00">SeAnyChildWindow.LogTooltip</text>
</g>
<!-- Node276 -->
<g id="node2" class="node"><title>Node276</title>
<g id="a_node2"><a xlink:href="classokw_1_1gui_1_1_any_win_base.html#abaab572bdbed7b471f659d5dd8c76853" target="_top" xlink:title="Diese Methode ruft die Methode Logger.Instance.LogFunctionStartDebug(fps_FunctionName), und erweitert den gegebenen Methodenname in fps_FunctionName mit this.GetType().FullName um den Klassenbezeichner. ">
<polygon fill="white" stroke="black" points="374.5,-185 374.5,-215 541.5,-215 541.5,-185 374.5,-185"/>
<text text-anchor="start" x="382.5" y="-203" font-family="Helvetica,sans-Serif" font-size="10.00">okw.gui.AnyWinBase.LogFunction</text>
<text text-anchor="middle" x="458" y="-192" font-family="Helvetica,sans-Serif" font-size="10.00">StartDebug</text>
</a>
</g>
</g>
<!-- Node275&#45;&gt;Node276 -->
<g id="edge1" class="edge"><title>Node275&#45;&gt;Node276</title>
<path fill="none" stroke="midnightblue" d="M144.062,-130.001C209.961,-144.741 310.439,-167.217 379.671,-182.703"/>
<polygon fill="midnightblue" stroke="midnightblue" points="379.128,-186.168 389.651,-184.935 380.656,-179.337 379.128,-186.168"/>
</g>
<!-- Node277 -->
<g id="node3" class="node"><title>Node277</title>
<g id="a_node3"><a xlink:href="classokw_1_1gui_1_1adapter_1_1selenium_1_1_se_any_child_window.html#a1c887727f8411c769a24c90d8bde67a5" target="_top" xlink:title="Ermittelt den textuellen Inhalt des ToolTips. ">
<polygon fill="white" stroke="black" points="188.5,-100 188.5,-130 337.5,-130 337.5,-100 188.5,-100"/>
<text text-anchor="start" x="196.5" y="-118" font-family="Helvetica,sans-Serif" font-size="10.00">okw.gui.adapter.selenium.</text>
<text text-anchor="middle" x="263" y="-107" font-family="Helvetica,sans-Serif" font-size="10.00">SeAnyChildWindow.getTooltip</text>
</a>
</g>
</g>
<!-- Node275&#45;&gt;Node277 -->
<g id="edge2" class="edge"><title>Node275&#45;&gt;Node277</title>
<path fill="none" stroke="midnightblue" d="M152.247,-115C160.803,-115 169.563,-115 178.221,-115"/>
<polygon fill="midnightblue" stroke="midnightblue" points="178.318,-118.5 188.318,-115 178.318,-111.5 178.318,-118.5"/>
</g>
<!-- Node292 -->
<g id="node18" class="node"><title>Node292</title>
<g id="a_node18"><a xlink:href="classokw_1_1gui_1_1_any_win_base.html#a51cf50ace21902b3a5359316f53a7f3e" target="_top" xlink:title="Methode ruft die Methode Logger.Instance.LogFunctionEndDebug() auf. ">
<polygon fill="white" stroke="black" points="374.5,-38 374.5,-68 541.5,-68 541.5,-38 374.5,-38"/>
<text text-anchor="start" x="382.5" y="-56" font-family="Helvetica,sans-Serif" font-size="10.00">okw.gui.AnyWinBase.LogFunction</text>
<text text-anchor="middle" x="458" y="-45" font-family="Helvetica,sans-Serif" font-size="10.00">EndDebug</text>
</a>
</g>
</g>
<!-- Node275&#45;&gt;Node292 -->
<g id="edge21" class="edge"><title>Node275&#45;&gt;Node292</title>
<path fill="none" stroke="midnightblue" d="M139.331,-99.986C155.153,-96.4439 172.158,-92.8681 188,-90 246.274,-79.4496 312.132,-70.3439 364.099,-63.8057"/>
<polygon fill="midnightblue" stroke="midnightblue" points="364.811,-67.2441 374.301,-62.5326 363.944,-60.2979 364.811,-67.2441"/>
</g>
<!-- Node277&#45;&gt;Node276 -->
<g id="edge3" class="edge"><title>Node277&#45;&gt;Node276</title>
<path fill="none" stroke="midnightblue" d="M288.179,-130.089C309.999,-143.239 343.292,-162.163 374,-175 379.515,-177.305 385.316,-179.497 391.183,-181.555"/>
<polygon fill="midnightblue" stroke="midnightblue" points="390.484,-185.013 401.078,-184.889 392.719,-178.379 390.484,-185.013"/>
</g>
<!-- Node278 -->
<g id="node4" class="node"><title>Node278</title>
<g id="a_node4"><a xlink:href="classokw_1_1gui_1_1adapter_1_1selenium_1_1_se_any_child_window.html#a72faf4aa1717b4178fae1b0570ca9b28" target="_top" xlink:title="Wartet auf das Objekt Wenn kein Fenster gefunden wird,. ">
<polygon fill="white" stroke="black" points="380.5,-136 380.5,-166 535.5,-166 535.5,-136 380.5,-136"/>
<text text-anchor="start" x="388.5" y="-154" font-family="Helvetica,sans-Serif" font-size="10.00">okw.gui.adapter.selenium.</text>
<text text-anchor="middle" x="458" y="-143" font-family="Helvetica,sans-Serif" font-size="10.00">SeAnyChildWindow.WaitForMe</text>
</a>
</g>
</g>
<!-- Node277&#45;&gt;Node278 -->
<g id="edge4" class="edge"><title>Node277&#45;&gt;Node278</title>
<path fill="none" stroke="midnightblue" d="M337.516,-128.713C348.281,-130.721 359.453,-132.805 370.449,-134.856"/>
<polygon fill="midnightblue" stroke="midnightblue" points="370.011,-138.334 380.483,-136.727 371.294,-131.453 370.011,-138.334"/>
</g>
<!-- Node287 -->
<g id="node13" class="node"><title>Node287</title>
<g id="a_node13"><a xlink:href="classokw_1_1gui_1_1adapter_1_1selenium_1_1_se_any_child_window.html#a9a138af1fc6ff850d708d66f308a2525" target="_top" xlink:title="Ermittelt aus dem gegebenen Locator das DOM&#45;Elelement, welches das Objekt representiert. ">
<polygon fill="white" stroke="black" points="392.5,-87 392.5,-117 523.5,-117 523.5,-87 392.5,-87"/>
<text text-anchor="start" x="400.5" y="-105" font-family="Helvetica,sans-Serif" font-size="10.00">okw.gui.adapter.selenium.</text>
<text text-anchor="middle" x="458" y="-94" font-family="Helvetica,sans-Serif" font-size="10.00">SeAnyChildWindow.Me</text>
</a>
</g>
</g>
<!-- Node277&#45;&gt;Node287 -->
<g id="edge13" class="edge"><title>Node277&#45;&gt;Node287</title>
<path fill="none" stroke="midnightblue" d="M337.516,-110.048C352.143,-109.063 367.519,-108.027 382.189,-107.039"/>
<polygon fill="midnightblue" stroke="midnightblue" points="382.473,-110.528 392.215,-106.364 382.002,-103.544 382.473,-110.528"/>
</g>
<!-- Node277&#45;&gt;Node292 -->
<g id="edge20" class="edge"><title>Node277&#45;&gt;Node292</title>
<path fill="none" stroke="midnightblue" d="M305.881,-99.9681C326.34,-92.7694 351.37,-84.1755 374,-77 380.34,-74.9896 386.975,-72.9555 393.611,-70.9664"/>
<polygon fill="midnightblue" stroke="midnightblue" points="394.709,-74.2915 403.301,-68.0921 392.718,-67.5805 394.709,-74.2915"/>
</g>
<!-- Node279 -->
<g id="node5" class="node"><title>Node279</title>
<g id="a_node5"><a xlink:href="classokw_1_1log_1_1_logger___sngltn.html#ab4fc711bb4c754f251372ff3b14ab9c9" target="_top" xlink:title="Creates a new hierarchical level in the results file. ">
<polygon fill="white" stroke="black" points="597.5,-263 597.5,-293 734.5,-293 734.5,-263 597.5,-263"/>
<text text-anchor="start" x="605.5" y="-281" font-family="Helvetica,sans-Serif" font-size="10.00">okw.log.Logger_Sngltn.Res</text>
<text text-anchor="middle" x="666" y="-270" font-family="Helvetica,sans-Serif" font-size="10.00">OpenList</text>
</a>
</g>
</g>
<!-- Node278&#45;&gt;Node279 -->
<g id="edge5" class="edge"><title>Node278&#45;&gt;Node279</title>
<path fill="none" stroke="midnightblue" d="M528.868,-166.126C533.574,-168.643 538.018,-171.578 542,-175 570.957,-199.886 549.023,-228.138 578,-253 581.22,-255.763 584.729,-258.221 588.43,-260.408"/>
<polygon fill="midnightblue" stroke="midnightblue" points="586.877,-263.546 597.367,-265.035 590.096,-257.329 586.877,-263.546"/>
</g>
<!-- Node280 -->
<g id="node6" class="node"><title>Node280</title>
<g id="a_node6"><a xlink:href="classokw_1_1log_1_1_logger___sngltn.html#a8ebceaddd6cc6963ddb8e08c72ea808c" target="_top" xlink:title="LogPrint Function: Prints the values of expressions to the results file. ">
<polygon fill="white" stroke="black" points="811,-134 811,-164 945,-164 945,-134 811,-134"/>
<text text-anchor="start" x="819" y="-152" font-family="Helvetica,sans-Serif" font-size="10.00">okw.log.Logger_Sngltn.Log</text>
<text text-anchor="middle" x="878" y="-141" font-family="Helvetica,sans-Serif" font-size="10.00">Print</text>
</a>
</g>
</g>
<!-- Node278&#45;&gt;Node280 -->
<g id="edge6" class="edge"><title>Node278&#45;&gt;Node280</title>
<path fill="none" stroke="midnightblue" d="M535.668,-150.633C610.964,-150.273 725.19,-149.726 800.447,-149.366"/>
<polygon fill="midnightblue" stroke="midnightblue" points="800.816,-152.865 810.799,-149.317 800.782,-145.865 800.816,-152.865"/>
</g>
<!-- Node281 -->
<g id="node7" class="node"><title>Node281</title>
<g id="a_node7"><a xlink:href="classokw_1_1gui_1_1_any_win_base.html#a9929f6fae1f4e2c20df79d32d5bc79db" target="_top" xlink:title="Holt den vollständig (rekursiv) aufgelösten (z.B. ">
<polygon fill="white" stroke="black" points="586.5,-98.5 586.5,-117.5 745.5,-117.5 745.5,-98.5 586.5,-98.5"/>
<text text-anchor="middle" x="666" y="-105.5" font-family="Helvetica,sans-Serif" font-size="10.00">okw.gui.AnyWinBase.getLocator</text>
</a>
</g>
</g>
<!-- Node278&#45;&gt;Node281 -->
<g id="edge7" class="edge"><title>Node278&#45;&gt;Node281</title>
<path fill="none" stroke="midnightblue" d="M531.049,-135.961C556.734,-130.599 585.249,-124.647 609.346,-119.617"/>
<polygon fill="midnightblue" stroke="midnightblue" points="610.308,-122.992 619.382,-117.522 608.878,-116.14 610.308,-122.992"/>
</g>
<!-- Node283 -->
<g id="node9" class="node"><title>Node283</title>
<g id="a_node9"><a xlink:href="classokw_1_1log_1_1_logger___sngltn.html#a9b54104f7e0b4c0a473877b19dfaed56" target="_top" xlink:title="Closes a hierarchical level in the results file that was opened with ResOpenList. ...">
<polygon fill="white" stroke="black" points="597.5,-175 597.5,-205 734.5,-205 734.5,-175 597.5,-175"/>
<text text-anchor="start" x="605.5" y="-193" font-family="Helvetica,sans-Serif" font-size="10.00">okw.log.Logger_Sngltn.Res</text>
<text text-anchor="middle" x="666" y="-182" font-family="Helvetica,sans-Serif" font-size="10.00">CloseList</text>
</a>
</g>
</g>
<!-- Node278&#45;&gt;Node283 -->
<g id="edge9" class="edge"><title>Node278&#45;&gt;Node283</title>
<path fill="none" stroke="midnightblue" d="M535.707,-165.522C552.632,-168.727 570.573,-172.123 587.529,-175.333"/>
<polygon fill="midnightblue" stroke="midnightblue" points="586.906,-178.777 597.383,-177.199 588.209,-171.9 586.906,-178.777"/>
</g>
<!-- Node284 -->
<g id="node10" class="node"><title>Node284</title>
<g id="a_node10"><a xlink:href="classokw_1_1_log_messenger.html#af225d1f037d47b3b085175c09d78bdd2" target="_top" xlink:title="Holt die Log&#45;Meldung für MethodeNmae/Textkey ohne weitere Parameter. ">
<polygon fill="white" stroke="black" points="586,-224.5 586,-243.5 746,-243.5 746,-224.5 586,-224.5"/>
<text text-anchor="middle" x="666" y="-231.5" font-family="Helvetica,sans-Serif" font-size="10.00">okw.LogMessenger.GetMessage</text>
</a>
</g>
</g>
<!-- Node278&#45;&gt;Node284 -->
<g id="edge10" class="edge"><title>Node278&#45;&gt;Node284</title>
<path fill="none" stroke="midnightblue" d="M524.366,-166.155C530.527,-168.681 536.513,-171.61 542,-175 562.068,-187.399 557.596,-202.163 578,-214 582.692,-216.722 587.727,-219.073 592.924,-221.105"/>
<polygon fill="midnightblue" stroke="midnightblue" points="591.819,-224.426 602.414,-224.427 594.132,-217.819 591.819,-224.426"/>
</g>
<!-- Node282 -->
<g id="node8" class="node"><title>Node282</title>
<g id="a_node8"><a xlink:href="classokw_1_1gui_1_1_o_k_w_locator.html#adc74fc2125dd048dc1cb84e011f47ec8" target="_top" xlink:title="Holt den vollständig (rekursiv) aufgelösten (z.B. ">
<polygon fill="white" stroke="black" points="799,-95.5 799,-114.5 957,-114.5 957,-95.5 799,-95.5"/>
<text text-anchor="middle" x="878" y="-102.5" font-family="Helvetica,sans-Serif" font-size="10.00">okw.gui.OKWLocator.getLocator</text>
</a>
</g>
</g>
<!-- Node281&#45;&gt;Node282 -->
<g id="edge8" class="edge"><title>Node281&#45;&gt;Node282</title>
<path fill="none" stroke="midnightblue" d="M745.794,-106.874C759.748,-106.675 774.362,-106.466 788.561,-106.263"/>
<polygon fill="midnightblue" stroke="midnightblue" points="788.863,-109.76 798.812,-106.117 788.763,-102.76 788.863,-109.76"/>
</g>
<!-- Node285 -->
<g id="node11" class="node"><title>Node285</title>
<g id="a_node11"><a xlink:href="classokw_1_1_log_messenger.html#a530cd6ab82ec82a04206a2e976ec06e3" target="_top" xlink:title="Interne Kernfunktion holt die Log&#45;Meldung mit Platzhaltern aus der XML&#45;Datei. ">
<polygon fill="white" stroke="black" points="794.5,-224.5 794.5,-243.5 961.5,-243.5 961.5,-224.5 794.5,-224.5"/>
<text text-anchor="middle" x="878" y="-231.5" font-family="Helvetica,sans-Serif" font-size="10.00">okw.LogMessenger.ReadMessage</text>
</a>
</g>
</g>
<!-- Node284&#45;&gt;Node285 -->
<g id="edge11" class="edge"><title>Node284&#45;&gt;Node285</title>
<path fill="none" stroke="midnightblue" d="M746.093,-234C758.57,-234 771.567,-234 784.319,-234"/>
<polygon fill="midnightblue" stroke="midnightblue" points="784.478,-237.5 794.478,-234 784.478,-230.5 784.478,-237.5"/>
</g>
<!-- Node286 -->
<g id="node12" class="node"><title>Node286</title>
<g id="a_node12"><a xlink:href="classokw_1_1_o_k_w___xml_reader.html#ab920b5335a2e1429c14cc5f8e79f39eb" target="_top" xlink:title="Lies den TextContent eines Tag. ">
<polygon fill="white" stroke="black" points="1002,-219 1002,-249 1154,-249 1154,-219 1002,-219"/>
<text text-anchor="start" x="1010" y="-237" font-family="Helvetica,sans-Serif" font-size="10.00">okw.OKW_XmlReader.getText</text>
<text text-anchor="middle" x="1078" y="-226" font-family="Helvetica,sans-Serif" font-size="10.00">ContentSingleValue</text>
</a>
</g>
</g>
<!-- Node285&#45;&gt;Node286 -->
<g id="edge12" class="edge"><title>Node285&#45;&gt;Node286</title>
<path fill="none" stroke="midnightblue" d="M961.536,-234C971.459,-234 981.609,-234 991.572,-234"/>
<polygon fill="midnightblue" stroke="midnightblue" points="991.87,-237.5 1001.87,-234 991.87,-230.5 991.87,-237.5"/>
</g>
<!-- Node287&#45;&gt;Node281 -->
<g id="edge19" class="edge"><title>Node287&#45;&gt;Node281</title>
<path fill="none" stroke="midnightblue" d="M523.614,-103.882C540.185,-104.365 558.303,-104.892 575.872,-105.404"/>
<polygon fill="midnightblue" stroke="midnightblue" points="576.04,-108.91 586.137,-105.703 576.243,-101.913 576.04,-108.91"/>
</g>
<!-- Node288 -->
<g id="node14" class="node"><title>Node288</title>
<g id="a_node14"><a xlink:href="classokw_1_1gui_1_1adapter_1_1selenium_1_1webdriver_1_1_se_driver.html#aee9e3f8a67f4ad1f8100a33ba71c926e" target="_top" xlink:title="Gibt die Instance für die einzige Instanz dieser Klasse zurück. ">
<polygon fill="white" stroke="black" points="578,-0 578,-30 754,-30 754,-0 578,-0"/>
<text text-anchor="start" x="586" y="-18" font-family="Helvetica,sans-Serif" font-size="10.00">okw.gui.adapter.selenium.webdriver.</text>
<text text-anchor="middle" x="666" y="-7" font-family="Helvetica,sans-Serif" font-size="10.00">SeDriver.getInstance</text>
</a>
</g>
</g>
<!-- Node287&#45;&gt;Node288 -->
<g id="edge14" class="edge"><title>Node287&#45;&gt;Node288</title>
<path fill="none" stroke="midnightblue" d="M521.729,-86.988C528.808,-84.1744 535.723,-80.87 542,-77 561.803,-64.7906 558.055,-50.9769 578,-39 580.821,-37.3061 583.764,-35.7286 586.791,-34.2598"/>
<polygon fill="midnightblue" stroke="midnightblue" points="588.34,-37.4023 596.084,-30.1718 585.521,-30.9949 588.34,-37.4023"/>
</g>
<!-- Node289 -->
<g id="node15" class="node"><title>Node289</title>
<g id="a_node15"><a xlink:href="classokw_1_1gui_1_1adapter_1_1selenium_1_1webdriver_1_1_se_driver.html#a6d879107786a94ebbdbd42b4ac6c6acf" target="_top" xlink:title="Ermittelt das Webelement mit der gegebenen frameID und dem gegebenen Locator. ">
<polygon fill="white" stroke="black" points="578,-49 578,-79 754,-79 754,-49 578,-49"/>
<text text-anchor="start" x="586" y="-67" font-family="Helvetica,sans-Serif" font-size="10.00">okw.gui.adapter.selenium.webdriver.</text>
<text text-anchor="middle" x="666" y="-56" font-family="Helvetica,sans-Serif" font-size="10.00">SeDriver.getElement</text>
</a>
</g>
</g>
<!-- Node287&#45;&gt;Node289 -->
<g id="edge15" class="edge"><title>Node287&#45;&gt;Node289</title>
<path fill="none" stroke="midnightblue" d="M523.614,-90.0808C539.495,-87.1514 556.796,-83.96 573.673,-80.8467"/>
<polygon fill="midnightblue" stroke="midnightblue" points="574.348,-84.2813 583.548,-79.0252 573.078,-77.3974 574.348,-84.2813"/>
</g>
<!-- Node289&#45;&gt;Node280 -->
<g id="edge18" class="edge"><title>Node289&#45;&gt;Node280</title>
<path fill="none" stroke="midnightblue" d="M732.592,-79.025C740.04,-81.8363 747.339,-85.1366 754,-89 773.304,-100.196 770.696,-112.804 790,-124 793.851,-126.234 797.915,-128.279 802.098,-130.15"/>
<polygon fill="midnightblue" stroke="midnightblue" points="800.828,-133.412 811.408,-133.975 803.488,-126.937 800.828,-133.412"/>
</g>
<!-- Node290 -->
<g id="node16" class="node"><title>Node290</title>
<g id="a_node16"><a xlink:href="classokw_1_1gui_1_1adapter_1_1selenium_1_1webdriver_1_1_se_driver.html#a47eec72c911c05beb2127672daafb325" target="_top" xlink:title="Wechselt das aktuelle Frame auf das Frame mit der id=iframeID. ">
<polygon fill="white" stroke="black" points="790,-46 790,-76 966,-76 966,-46 790,-46"/>
<text text-anchor="start" x="798" y="-64" font-family="Helvetica,sans-Serif" font-size="10.00">okw.gui.adapter.selenium.webdriver.</text>
<text text-anchor="middle" x="878" y="-53" font-family="Helvetica,sans-Serif" font-size="10.00">SeDriver.swichToFrame</text>
</a>
</g>
</g>
<!-- Node289&#45;&gt;Node290 -->
<g id="edge16" class="edge"><title>Node289&#45;&gt;Node290</title>
<path fill="none" stroke="midnightblue" d="M754.235,-62.7538C762.567,-62.6348 771.052,-62.5135 779.474,-62.3932"/>
<polygon fill="midnightblue" stroke="midnightblue" points="779.75,-65.8897 789.699,-62.2472 779.65,-58.8905 779.75,-65.8897"/>
</g>
<!-- Node291 -->
<g id="node17" class="node"><title>Node291</title>
<g id="a_node17"><a xlink:href="classokw_1_1_o_k_w___helper.html#a3a7ba0f42b29adf70574830688e72e4a" target="_top" xlink:title="Prüft ob der gegeben String fpsStrin null oder leer (&quot;&quot;) ist. ">
<polygon fill="white" stroke="black" points="1003.5,-46 1003.5,-76 1152.5,-76 1152.5,-46 1003.5,-46"/>
<text text-anchor="start" x="1011.5" y="-64" font-family="Helvetica,sans-Serif" font-size="10.00">okw.OKW_Helper.isStringNull</text>
<text text-anchor="middle" x="1078" y="-53" font-family="Helvetica,sans-Serif" font-size="10.00">OrEmpty</text>
</a>
</g>
</g>
<!-- Node290&#45;&gt;Node291 -->
<g id="edge17" class="edge"><title>Node290&#45;&gt;Node291</title>
<path fill="none" stroke="midnightblue" d="M966.134,-61C975.18,-61 984.36,-61 993.366,-61"/>
<polygon fill="midnightblue" stroke="midnightblue" points="993.444,-64.5001 1003.44,-61 993.444,-57.5001 993.444,-64.5001"/>
</g>
</g>
</svg>
