<?xml version="1.0" encoding="UTF-8" standalone="no"?>
<!DOCTYPE svg PUBLIC "-//W3C//DTD SVG 1.1//EN"
 "http://www.w3.org/Graphics/SVG/1.1/DTD/svg11.dtd">
<!-- Generated by graphviz version 2.26.3 (20100126.1600)
 -->
<!-- Title: okw.core.EN.LogValue Pages: 1 -->
<svg width="340pt" height="316pt"
 viewBox="0.00 0.00 340.00 316.00" xmlns="http://www.w3.org/2000/svg" xmlns:xlink="http://www.w3.org/1999/xlink">
<g id="graph1" class="graph" transform="scale(1 1) rotate(0) translate(4 312)">
<title>okw.core.EN.LogValue</title>
<polygon fill="white" stroke="white" points="-4,5 -4,-312 337,-312 337,5 -4,5"/>
<!-- Node717 -->
<g id="node1" class="node"><title>Node717</title>
<polygon fill="#bfbfbf" stroke="black" points="0.5,-146.5 0.5,-167.5 117.5,-167.5 117.5,-146.5 0.5,-146.5"/>
<text text-anchor="middle" x="59" y="-154.5" font-family="Helvetica,sans-Serif" font-size="10.00">okw.core.EN.LogValue</text>
</g>
<!-- Node718 -->
<g id="node3" class="node"><title>Node718</title>
<a xlink:href="classokw_1_1_se_input_checkbox_1_1_se_input_checkbox___test.html#a542f6ac40fc3ea24ebc7ac74f506f5bd" target="_top" xlink:title="Speichert ob ein vorhandenes objekt existiert. ">
<polygon fill="white" stroke="black" points="167,-274 167,-308 319,-308 319,-274 167,-274"/>
<text text-anchor="start" x="175" y="-295" font-family="Helvetica,sans-Serif" font-size="10.00">okw.SeInputCheckbox.SeInput</text>
<text text-anchor="middle" x="243" y="-282" font-family="Helvetica,sans-Serif" font-size="10.00">Checkbox_Test.tcLogValue</text>
</a>
</g>
<!-- Node717&#45;&gt;Node718 -->
<g id="edge2" class="edge"><title>Node717&#45;&gt;Node718</title>
<path fill="none" stroke="midnightblue" d="M70.9812,-176.369C86.9716,-200.623 117.548,-241.8 154,-265 159.296,-268.371 165.044,-271.318 170.984,-273.892"/>
<polygon fill="midnightblue" stroke="midnightblue" points="73.7538,-174.209 65.4048,-167.686 67.864,-177.992 73.7538,-174.209"/>
</g>
<!-- Node719 -->
<g id="node5" class="node"><title>Node719</title>
<a xlink:href="classokw_1_1_se_input_checkbox_1_1_se_input_checkbox___test.html#a702ffb63f0af2c995bd71ca884b0f408" target="_top" xlink:title="Prüft die SetFocusFunktion bei Textfelder mit dem Attribute &quot;ReadOnly&quot;. ">
<polygon fill="white" stroke="black" points="167,-222 167,-256 319,-256 319,-222 167,-222"/>
<text text-anchor="start" x="175" y="-243" font-family="Helvetica,sans-Serif" font-size="10.00">okw.SeInputCheckbox.SeInput</text>
<text text-anchor="middle" x="243" y="-230" font-family="Helvetica,sans-Serif" font-size="10.00">Checkbox_Test.tcSetFocus</text>
</a>
</g>
<!-- Node717&#45;&gt;Node719 -->
<g id="edge4" class="edge"><title>Node717&#45;&gt;Node719</title>
<path fill="none" stroke="midnightblue" d="M82.6327,-173.177C101.341,-185.42 128.482,-201.956 154,-213 161.534,-216.261 169.599,-219.254 177.683,-221.957"/>
<polygon fill="midnightblue" stroke="midnightblue" points="84.436,-170.173 74.1698,-167.554 80.5625,-176.003 84.436,-170.173"/>
</g>
<!-- Node720 -->
<g id="node7" class="node"><title>Node720</title>
<a xlink:href="classokw_1_1_se_input_field_1_1_se_input_field___test.html#a42e4059b89141e92e2865652940ba9c2" target="_top" xlink:title="Teste das Schlüsselwort LogValue( FN ) eines SeInputText Prüfen. ">
<polygon fill="white" stroke="black" points="178.5,-170 178.5,-204 307.5,-204 307.5,-170 178.5,-170"/>
<text text-anchor="start" x="186.5" y="-191" font-family="Helvetica,sans-Serif" font-size="10.00">okw.SeInputField.SeInput</text>
<text text-anchor="middle" x="243" y="-178" font-family="Helvetica,sans-Serif" font-size="10.00">Field_Test.tcLogValue</text>
</a>
</g>
<!-- Node717&#45;&gt;Node720 -->
<g id="edge6" class="edge"><title>Node717&#45;&gt;Node720</title>
<path fill="none" stroke="midnightblue" d="M127.883,-168.231C144.454,-170.933 162.095,-173.809 178.46,-176.477"/>
<polygon fill="midnightblue" stroke="midnightblue" points="128.158,-164.73 117.725,-166.575 127.031,-171.638 128.158,-164.73"/>
</g>
<!-- Node721 -->
<g id="node9" class="node"><title>Node721</title>
<a xlink:href="classokw_1_1_se_input_field_1_1_se_input_field___test.html#aa7612889d0a642c440c6a085e205ac8f" target="_top" xlink:title="okw.SeInputField.SeInput\lField_Test.tcSelect_OKWGUIObject\lNotFoundException">
<polygon fill="white" stroke="black" points="154.5,-104.5 154.5,-151.5 331.5,-151.5 331.5,-104.5 154.5,-104.5"/>
<text text-anchor="start" x="162.5" y="-138.5" font-family="Helvetica,sans-Serif" font-size="10.00">okw.SeInputField.SeInput</text>
<text text-anchor="start" x="162.5" y="-125.5" font-family="Helvetica,sans-Serif" font-size="10.00">Field_Test.tcSelect_OKWGUIObject</text>
<text text-anchor="middle" x="243" y="-112.5" font-family="Helvetica,sans-Serif" font-size="10.00">NotFoundException</text>
</a>
</g>
<!-- Node717&#45;&gt;Node721 -->
<g id="edge8" class="edge"><title>Node717&#45;&gt;Node721</title>
<path fill="none" stroke="midnightblue" d="M127.751,-146.164C136.424,-144.797 145.392,-143.384 154.319,-141.977"/>
<polygon fill="midnightblue" stroke="midnightblue" points="127.058,-142.73 117.725,-147.744 128.148,-149.645 127.058,-142.73"/>
</g>
<!-- Node722 -->
<g id="node11" class="node"><title>Node722</title>
<a xlink:href="classokw_1_1_se_input_radio_1_1_se_input_radio___e_n___test.html#a218a93e4888e4acbaf2b10f2b3302834" target="_top" xlink:title="Test des Schlüsselwortes LogTooltip für den GUI&#45;Adapter SeInputRadio. ">
<polygon fill="white" stroke="black" points="171.5,-52 171.5,-86 314.5,-86 314.5,-52 171.5,-52"/>
<text text-anchor="start" x="179.5" y="-73" font-family="Helvetica,sans-Serif" font-size="10.00">okw.SeInputRadio.SeInput</text>
<text text-anchor="middle" x="243" y="-60" font-family="Helvetica,sans-Serif" font-size="10.00">Radio_EN_Test.tc_LogValue</text>
</a>
</g>
<!-- Node717&#45;&gt;Node722 -->
<g id="edge10" class="edge"><title>Node717&#45;&gt;Node722</title>
<path fill="none" stroke="midnightblue" d="M80.4924,-140.323C99.0807,-126.566 127.125,-107.365 154,-95 161.166,-91.7031 168.849,-88.7157 176.589,-86.0402"/>
<polygon fill="midnightblue" stroke="midnightblue" points="78.301,-137.591 72.4145,-146.4 82.5096,-143.185 78.301,-137.591"/>
</g>
<!-- Node723 -->
<g id="node13" class="node"><title>Node723</title>
<a xlink:href="classokw_1_1_se_radio_list_1_1_se_radio_list___test.html#aea77598d5bb5139318c0a400174cc018" target="_top" xlink:title="Prüft die Methode SeRadioList.LogValue. ">
<polygon fill="white" stroke="black" points="169.5,-0 169.5,-34 316.5,-34 316.5,-0 169.5,-0"/>
<text text-anchor="start" x="177.5" y="-21" font-family="Helvetica,sans-Serif" font-size="10.00">okw.SeRadioList.SeRadioList</text>
<text text-anchor="middle" x="243" y="-8" font-family="Helvetica,sans-Serif" font-size="10.00">_Test.tcLogValue</text>
</a>
</g>
<!-- Node717&#45;&gt;Node723 -->
<g id="edge12" class="edge"><title>Node717&#45;&gt;Node723</title>
<path fill="none" stroke="midnightblue" d="M70.0367,-137.655C85.545,-112.199 116.169,-67.7937 154,-43 159.116,-39.647 164.674,-36.7166 170.431,-34.1572"/>
<polygon fill="midnightblue" stroke="midnightblue" points="66.9395,-136.016 64.8496,-146.402 72.9606,-139.586 66.9395,-136.016"/>
</g>
</g>
</svg>
