<?xml version="1.0" encoding="UTF-8" standalone="no"?>
<!DOCTYPE svg PUBLIC "-//W3C//DTD SVG 1.1//EN"
 "http://www.w3.org/Graphics/SVG/1.1/DTD/svg11.dtd">
<!-- Generated by graphviz version 2.36.0 (20140111.2315)
 -->
<!-- Title: okw.gui.adapter.selenium.SeAnyWindow.getExists Pages: 1 -->
<svg width="750pt" height="224pt"
 viewBox="0.00 0.00 750.00 224.00" xmlns="http://www.w3.org/2000/svg" xmlns:xlink="http://www.w3.org/1999/xlink">
<g id="graph0" class="graph" transform="scale(1 1) rotate(0) translate(4 220)">
<title>okw.gui.adapter.selenium.SeAnyWindow.getExists</title>
<polygon fill="white" stroke="none" points="-4,4 -4,-220 746,-220 746,4 -4,4"/>
<!-- Node39 -->
<g id="node1" class="node"><title>Node39</title>
<polygon fill="#bfbfbf" stroke="black" points="0.5,-98 0.5,-128 131.5,-128 131.5,-98 0.5,-98"/>
<text text-anchor="start" x="8.5" y="-116" font-family="Helvetica,sans-Serif" font-size="10.00">okw.gui.adapter.selenium.</text>
<text text-anchor="middle" x="66" y="-105" font-family="Helvetica,sans-Serif" font-size="10.00">SeAnyWindow.getExists</text>
</g>
<!-- Node40 -->
<g id="node2" class="node"><title>Node40</title>
<g id="a_node2"><a xlink:href="classokw_1_1gui_1_1_any_win_base.html#a9929f6fae1f4e2c20df79d32d5bc79db" target="_top" xlink:title="Holt den vollständig (rekursiv) aufgelösten (z.B. ">
<polygon fill="white" stroke="black" points="176.5,-196.5 176.5,-215.5 335.5,-215.5 335.5,-196.5 176.5,-196.5"/>
<text text-anchor="middle" x="256" y="-203.5" font-family="Helvetica,sans-Serif" font-size="10.00">okw.gui.AnyWinBase.getLocator</text>
</a>
</g>
</g>
<!-- Node39&#45;&gt;Node40 -->
<g id="edge1" class="edge"><title>Node39&#45;&gt;Node40</title>
<path fill="none" stroke="midnightblue" d="M83.5453,-128.222C102.536,-144.873 135.294,-171.162 168,-186 174.501,-188.949 181.479,-191.485 188.553,-193.66"/>
<polygon fill="midnightblue" stroke="midnightblue" points="187.645,-197.041 198.221,-196.408 189.559,-190.307 187.645,-197.041"/>
</g>
<!-- Node42 -->
<g id="node4" class="node"><title>Node42</title>
<g id="a_node4"><a xlink:href="classokw_1_1gui_1_1adapter_1_1selenium_1_1webdriver_1_1_se_driver.html#aee9e3f8a67f4ad1f8100a33ba71c926e" target="_top" xlink:title="Gibt die Instance für die einzige Instanz dieser Klasse zurück. ">
<polygon fill="white" stroke="black" points="168,-147 168,-177 344,-177 344,-147 168,-147"/>
<text text-anchor="start" x="176" y="-165" font-family="Helvetica,sans-Serif" font-size="10.00">okw.gui.adapter.selenium.webdriver.</text>
<text text-anchor="middle" x="256" y="-154" font-family="Helvetica,sans-Serif" font-size="10.00">SeDriver.getInstance</text>
</a>
</g>
</g>
<!-- Node39&#45;&gt;Node42 -->
<g id="edge3" class="edge"><title>Node39&#45;&gt;Node42</title>
<path fill="none" stroke="midnightblue" d="M124.684,-128.035C144.534,-133.208 166.937,-139.048 187.499,-144.407"/>
<polygon fill="midnightblue" stroke="midnightblue" points="186.866,-147.858 197.425,-146.994 188.631,-141.085 186.866,-147.858"/>
</g>
<!-- Node43 -->
<g id="node5" class="node"><title>Node43</title>
<g id="a_node5"><a xlink:href="classokw_1_1gui_1_1adapter_1_1selenium_1_1webdriver_1_1_se_driver.html#a3505c2c7aba67399be71f26d15489839" target="_top" xlink:title="Ermittelt das Webelement mit der gegebenen frameID und dem gegebenen Locator. ">
<polygon fill="white" stroke="black" points="168,-98 168,-128 344,-128 344,-98 168,-98"/>
<text text-anchor="start" x="176" y="-116" font-family="Helvetica,sans-Serif" font-size="10.00">okw.gui.adapter.selenium.webdriver.</text>
<text text-anchor="middle" x="256" y="-105" font-family="Helvetica,sans-Serif" font-size="10.00">SeDriver.getElements</text>
</a>
</g>
</g>
<!-- Node39&#45;&gt;Node43 -->
<g id="edge4" class="edge"><title>Node39&#45;&gt;Node43</title>
<path fill="none" stroke="midnightblue" d="M131.699,-113C140.188,-113 149.031,-113 157.911,-113"/>
<polygon fill="midnightblue" stroke="midnightblue" points="157.935,-116.5 167.935,-113 157.935,-109.5 157.935,-116.5"/>
</g>
<!-- Node46 -->
<g id="node8" class="node"><title>Node46</title>
<g id="a_node8"><a xlink:href="classokw_1_1log_1_1_logger___sngltn.html#a2c15e9b2cd0c6266f4c67b8cb00d92e5" target="_top" xlink:title="LogWarning Function: Logs a warning to the results file. ">
<polygon fill="white" stroke="black" points="189,-49 189,-79 323,-79 323,-49 189,-49"/>
<text text-anchor="start" x="197" y="-67" font-family="Helvetica,sans-Serif" font-size="10.00">okw.log.Logger_Sngltn.Log</text>
<text text-anchor="middle" x="256" y="-56" font-family="Helvetica,sans-Serif" font-size="10.00">Warning</text>
</a>
</g>
</g>
<!-- Node39&#45;&gt;Node46 -->
<g id="edge7" class="edge"><title>Node39&#45;&gt;Node46</title>
<path fill="none" stroke="midnightblue" d="M124.684,-97.9654C144.534,-92.7917 166.937,-86.9525 187.499,-81.5934"/>
<polygon fill="midnightblue" stroke="midnightblue" points="188.631,-84.9152 197.425,-79.0062 186.866,-78.1415 188.631,-84.9152"/>
</g>
<!-- Node47 -->
<g id="node9" class="node"><title>Node47</title>
<g id="a_node9"><a xlink:href="classokw_1_1log_1_1_logger___sngltn.html#a313f97c79ba4662d9daaf7f537dd02f4" target="_top" xlink:title="Loggt eine Nachricht. ">
<polygon fill="white" stroke="black" points="189,-0 189,-30 323,-30 323,-0 189,-0"/>
<text text-anchor="start" x="197" y="-18" font-family="Helvetica,sans-Serif" font-size="10.00">okw.log.Logger_Sngltn.Log</text>
<text text-anchor="middle" x="256" y="-7" font-family="Helvetica,sans-Serif" font-size="10.00">PrintDebug</text>
</a>
</g>
</g>
<!-- Node39&#45;&gt;Node47 -->
<g id="edge8" class="edge"><title>Node39&#45;&gt;Node47</title>
<path fill="none" stroke="midnightblue" d="M84.045,-97.8059C103.221,-81.4295 135.9,-55.6185 168,-40 172.858,-37.6365 177.979,-35.4569 183.207,-33.4546"/>
<polygon fill="midnightblue" stroke="midnightblue" points="184.471,-36.7193 192.696,-30.0402 182.101,-30.1327 184.471,-36.7193"/>
</g>
<!-- Node41 -->
<g id="node3" class="node"><title>Node41</title>
<g id="a_node3"><a xlink:href="classokw_1_1gui_1_1_o_k_w_locator.html#adc74fc2125dd048dc1cb84e011f47ec8" target="_top" xlink:title="Holt den vollständig (rekursiv) aufgelösten (z.B. ">
<polygon fill="white" stroke="black" points="389,-196.5 389,-215.5 547,-215.5 547,-196.5 389,-196.5"/>
<text text-anchor="middle" x="468" y="-203.5" font-family="Helvetica,sans-Serif" font-size="10.00">okw.gui.OKWLocator.getLocator</text>
</a>
</g>
</g>
<!-- Node40&#45;&gt;Node41 -->
<g id="edge2" class="edge"><title>Node40&#45;&gt;Node41</title>
<path fill="none" stroke="midnightblue" d="M335.794,-206C349.748,-206 364.362,-206 378.561,-206"/>
<polygon fill="midnightblue" stroke="midnightblue" points="378.812,-209.5 388.812,-206 378.812,-202.5 378.812,-209.5"/>
</g>
<!-- Node44 -->
<g id="node6" class="node"><title>Node44</title>
<g id="a_node6"><a xlink:href="classokw_1_1gui_1_1adapter_1_1selenium_1_1webdriver_1_1_se_driver.html#a47eec72c911c05beb2127672daafb325" target="_top" xlink:title="Wechselt das aktuelle Frame auf das Frame mit der id=iframeID. ">
<polygon fill="white" stroke="black" points="380,-98 380,-128 556,-128 556,-98 380,-98"/>
<text text-anchor="start" x="388" y="-116" font-family="Helvetica,sans-Serif" font-size="10.00">okw.gui.adapter.selenium.webdriver.</text>
<text text-anchor="middle" x="468" y="-105" font-family="Helvetica,sans-Serif" font-size="10.00">SeDriver.swichToFrame</text>
</a>
</g>
</g>
<!-- Node43&#45;&gt;Node44 -->
<g id="edge5" class="edge"><title>Node43&#45;&gt;Node44</title>
<path fill="none" stroke="midnightblue" d="M344.235,-113C352.567,-113 361.052,-113 369.474,-113"/>
<polygon fill="midnightblue" stroke="midnightblue" points="369.699,-116.5 379.699,-113 369.699,-109.5 369.699,-116.5"/>
</g>
<!-- Node45 -->
<g id="node7" class="node"><title>Node45</title>
<g id="a_node7"><a xlink:href="classokw_1_1_o_k_w___helper.html#a3a7ba0f42b29adf70574830688e72e4a" target="_top" xlink:title="Prüft ob der gegeben String fpsStrin null oder leer (&quot;&quot;) ist. ">
<polygon fill="white" stroke="black" points="592.5,-98 592.5,-128 741.5,-128 741.5,-98 592.5,-98"/>
<text text-anchor="start" x="600.5" y="-116" font-family="Helvetica,sans-Serif" font-size="10.00">okw.OKW_Helper.isStringNull</text>
<text text-anchor="middle" x="667" y="-105" font-family="Helvetica,sans-Serif" font-size="10.00">OrEmpty</text>
</a>
</g>
</g>
<!-- Node44&#45;&gt;Node45 -->
<g id="edge6" class="edge"><title>Node44&#45;&gt;Node45</title>
<path fill="none" stroke="midnightblue" d="M556.267,-113C564.922,-113 573.694,-113 582.311,-113"/>
<polygon fill="midnightblue" stroke="midnightblue" points="582.34,-116.5 592.34,-113 582.34,-109.5 582.34,-116.5"/>
</g>
</g>
</svg>
