<?xml version="1.0" encoding="UTF-8" standalone="no"?>
<!DOCTYPE svg PUBLIC "-//W3C//DTD SVG 1.1//EN"
 "http://www.w3.org/Graphics/SVG/1.1/DTD/svg11.dtd">
<!-- Generated by graphviz version 2.26.3 (20100126.1600)
 -->
<!-- Title: okw.gui.adapter.selenium.SeAnyWindow.Me Pages: 1 -->
<!--zoomable 134 -->
<svg id="main" version="1.1" xmlns="http://www.w3.org/2000/svg" xmlns:xlink="http://www.w3.org/1999/xlink" xml:space="preserve" onload="init(evt)">
<style type="text/css"><![CDATA[
.edge:hover path { stroke: red; }
.edge:hover polygon { stroke: red; fill: red; }
]]></style>
<script type="text/javascript"><![CDATA[
var edges = document.getElementsByTagName('g');
if (edges && edges.length) {
  for (var i=0;i<edges.length;i++) {
    if (edges[i].id.substr(0,4)=='edge') {
      edges[i].setAttribute('class','edge');
    }
  }
}
]]></script>
        <defs>
                <circle id="rim" cx="0" cy="0" r="7"/>
                <circle id="rim2" cx="0" cy="0" r="3.5"/>
                <g id="zoomPlus">
                        <use xlink:href="#rim" fill="#404040">
                                <set attributeName="fill" to="#808080" begin="zoomplus.mouseover" end="zoomplus.mouseout"/>
                        </use>
                        <path d="M-4,0h8M0,-4v8" fill="none" stroke="white" stroke-width="1.5" pointer-events="none"/>
                </g>
                <g id="zoomMin">
                        <use xlink:href="#rim" fill="#404040">
                                <set attributeName="fill" to="#808080" begin="zoomminus.mouseover" end="zoomminus.mouseout"/>
                        </use>
                        <path d="M-4,0h8" fill="none" stroke="white" stroke-width="1.5" pointer-events="none"/>
                </g>
                <g id="dirArrow">
                        <path fill="none" stroke="white" stroke-width="1.5" d="M0,-3.0v7 M-2.5,-0.5L0,-3.0L2.5,-0.5"/>
                </g>
               <g id="resetDef">
                       <use xlink:href="#rim2" fill="#404040">
                               <set attributeName="fill" to="#808080" begin="reset.mouseover" end="reset.mouseout"/>
                       </use>
               </g>
        </defs>

<script type="text/javascript">
var viewWidth = 716;
var viewHeight = 134;
var sectionId = 'dynsection-24';
</script>
<script xlink:href="svgpan.js"/>
<svg id="graph" class="graph">
<g id="viewport">
<title>okw.gui.adapter.selenium.SeAnyWindow.Me</title>
<polygon fill="white" stroke="white" points="-4,5 -4,-130 713,-130 713,5 -4,5"/>
<!-- Node309 -->
<g id="node1" class="node"><title>Node309</title>
<polygon fill="#bfbfbf" stroke="black" points="0.5,-40 0.5,-74 131.5,-74 131.5,-40 0.5,-40"/>
<text text-anchor="start" x="8.5" y="-61" font-family="Helvetica,sans-Serif" font-size="10.00">okw.gui.adapter.selenium.</text>
<text text-anchor="middle" x="66" y="-48" font-family="Helvetica,sans-Serif" font-size="10.00">SeAnyWindow.Me</text>
</g>
<!-- Node310 -->
<g id="node3" class="node"><title>Node310</title>
<a xlink:href="classokw_1_1gui_1_1adapter_1_1selenium_1_1_se_driver.html#acb82765e99981ecc210e7599bbc2c639" target="_top" xlink:title="Gibt die Instance für die einzige Instanz dieser Klasse zurück. ">
<polygon fill="white" stroke="black" points="182.5,-92 182.5,-126 313.5,-126 313.5,-92 182.5,-92"/>
<text text-anchor="start" x="190.5" y="-113" font-family="Helvetica,sans-Serif" font-size="10.00">okw.gui.adapter.selenium.</text>
<text text-anchor="middle" x="248" y="-100" font-family="Helvetica,sans-Serif" font-size="10.00">SeDriver.getInstance</text>
</a>
</g>
<!-- Node309&#45;&gt;Node310 -->
<g id="edge2" class="edge"><title>Node309&#45;&gt;Node310</title>
<path fill="none" stroke="midnightblue" d="M125.594,-74.0267C142.406,-78.8303 160.848,-84.0995 178.202,-89.0576"/>
<polygon fill="midnightblue" stroke="midnightblue" points="177.696,-92.5531 188.273,-91.935 179.619,-85.8224 177.696,-92.5531"/>
</g>
<!-- Node311 -->
<g id="node5" class="node"><title>Node311</title>
<a xlink:href="classokw_1_1gui_1_1adapter_1_1selenium_1_1_se_driver.html#ae08fe1cf4c694bb3a4dfb1f1837b26bc" target="_top" xlink:title="Ermittelt das Webelement mit der gegebenen frameID und dem gegebenen Locator. ">
<polygon fill="white" stroke="black" points="182.5,-40 182.5,-74 313.5,-74 313.5,-40 182.5,-40"/>
<text text-anchor="start" x="190.5" y="-61" font-family="Helvetica,sans-Serif" font-size="10.00">okw.gui.adapter.selenium.</text>
<text text-anchor="middle" x="248" y="-48" font-family="Helvetica,sans-Serif" font-size="10.00">SeDriver.getElement</text>
</a>
</g>
<!-- Node309&#45;&gt;Node311 -->
<g id="edge4" class="edge"><title>Node309&#45;&gt;Node311</title>
<path fill="none" stroke="midnightblue" d="M131.706,-57C144.85,-57 158.76,-57 172.212,-57"/>
<polygon fill="midnightblue" stroke="midnightblue" points="172.39,-60.5001 182.39,-57 172.39,-53.5001 172.39,-60.5001"/>
</g>
<!-- Node315 -->
<g id="node13" class="node"><title>Node315</title>
<a xlink:href="classokw_1_1gui_1_1_any_win_base.html#a9929f6fae1f4e2c20df79d32d5bc79db" target="_top" xlink:title="Holt den vollständig (rekursiv) aufgelösten (z.B. ">
<polygon fill="white" stroke="black" points="168.5,-0.5 168.5,-21.5 327.5,-21.5 327.5,-0.5 168.5,-0.5"/>
<text text-anchor="middle" x="248" y="-8.5" font-family="Helvetica,sans-Serif" font-size="10.00">okw.gui.AnyWinBase.getLocator</text>
</a>
</g>
<!-- Node309&#45;&gt;Node315 -->
<g id="edge12" class="edge"><title>Node309&#45;&gt;Node315</title>
<path fill="none" stroke="midnightblue" d="M131.558,-40.2416C143.673,-37.1582 156.217,-33.9746 168,-31 176.971,-28.7354 186.51,-26.3396 195.76,-24.0232"/>
<polygon fill="midnightblue" stroke="midnightblue" points="196.791,-27.3732 205.642,-21.5508 195.092,-20.5825 196.791,-27.3732"/>
</g>
<!-- Node312 -->
<g id="node7" class="node"><title>Node312</title>
<a xlink:href="classokw_1_1gui_1_1adapter_1_1selenium_1_1_se_driver.html#a502a7d54c1a8b80424cd42a4e168a191" target="_top" xlink:title="Wechselt das aktuelle Frame auf das Frame mit der id=iframeID. ">
<polygon fill="white" stroke="black" points="377.5,-92 377.5,-126 508.5,-126 508.5,-92 377.5,-92"/>
<text text-anchor="start" x="385.5" y="-113" font-family="Helvetica,sans-Serif" font-size="10.00">okw.gui.adapter.selenium.</text>
<text text-anchor="middle" x="443" y="-100" font-family="Helvetica,sans-Serif" font-size="10.00">SeDriver.swichToFrame</text>
</a>
</g>
<!-- Node311&#45;&gt;Node312 -->
<g id="edge6" class="edge"><title>Node311&#45;&gt;Node312</title>
<path fill="none" stroke="midnightblue" d="M311.85,-74.0267C330.2,-78.92 350.363,-84.2967 369.257,-89.3353"/>
<polygon fill="midnightblue" stroke="midnightblue" points="368.442,-92.7401 379.006,-91.935 370.246,-85.9765 368.442,-92.7401"/>
</g>
<!-- Node314 -->
<g id="node11" class="node"><title>Node314</title>
<a xlink:href="classokw_1_1log_1_1_logger___sngltn.html#a8ebceaddd6cc6963ddb8e08c72ea808c" target="_top" xlink:title="LogPrint Function: Prints the values of expressions to the results file. ">
<polygon fill="white" stroke="black" points="376,-40 376,-74 510,-74 510,-40 376,-40"/>
<text text-anchor="start" x="384" y="-61" font-family="Helvetica,sans-Serif" font-size="10.00">okw.log.Logger_Sngltn.Log</text>
<text text-anchor="middle" x="443" y="-48" font-family="Helvetica,sans-Serif" font-size="10.00">Print</text>
</a>
</g>
<!-- Node311&#45;&gt;Node314 -->
<g id="edge10" class="edge"><title>Node311&#45;&gt;Node314</title>
<path fill="none" stroke="midnightblue" d="M313.746,-57C330.476,-57 348.605,-57 365.846,-57"/>
<polygon fill="midnightblue" stroke="midnightblue" points="365.878,-60.5001 375.878,-57 365.878,-53.5001 365.878,-60.5001"/>
</g>
<!-- Node313 -->
<g id="node9" class="node"><title>Node313</title>
<a xlink:href="classokw_1_1_o_k_w___helper.html#a3a7ba0f42b29adf70574830688e72e4a" target="_top" xlink:title="Prüft ob der gegeben String fpsStrin null oder leer (&quot;&quot;) ist. ">
<polygon fill="white" stroke="black" points="558.5,-92 558.5,-126 707.5,-126 707.5,-92 558.5,-92"/>
<text text-anchor="start" x="566.5" y="-113" font-family="Helvetica,sans-Serif" font-size="10.00">okw.OKW_Helper.isStringNull</text>
<text text-anchor="middle" x="633" y="-100" font-family="Helvetica,sans-Serif" font-size="10.00">OrEmpty</text>
</a>
</g>
<!-- Node312&#45;&gt;Node313 -->
<g id="edge8" class="edge"><title>Node312&#45;&gt;Node313</title>
<path fill="none" stroke="midnightblue" d="M508.653,-109C521.389,-109 534.905,-109 548.155,-109"/>
<polygon fill="midnightblue" stroke="midnightblue" points="548.218,-112.5 558.218,-109 548.217,-105.5 548.218,-112.5"/>
</g>
<!-- Node316 -->
<g id="node15" class="node"><title>Node316</title>
<a xlink:href="classokw_1_1gui_1_1_o_k_w_locator.html#adc74fc2125dd048dc1cb84e011f47ec8" target="_top" xlink:title="Holt den vollständig (rekursiv) aufgelösten (z.B. ">
<polygon fill="white" stroke="black" points="364,-0.5 364,-21.5 522,-21.5 522,-0.5 364,-0.5"/>
<text text-anchor="middle" x="443" y="-8.5" font-family="Helvetica,sans-Serif" font-size="10.00">okw.gui.OKWLocator.getLocator</text>
</a>
</g>
<!-- Node315&#45;&gt;Node316 -->
<g id="edge14" class="edge"><title>Node315&#45;&gt;Node316</title>
<path fill="none" stroke="midnightblue" d="M327.595,-11C336.224,-11 345.047,-11 353.78,-11"/>
<polygon fill="midnightblue" stroke="midnightblue" points="353.975,-14.5001 363.975,-11 353.975,-7.5001 353.975,-14.5001"/>
</g>
</g>
</svg>
        <g id="navigator" transform="translate(0 0)" fill="#404254">
                <rect fill="#f2f5e9" fill-opacity="0.5" stroke="#606060" stroke-width=".5" x="0" y="0" width="60" height="60"/>
                <use id="zoomplus" xlink:href="#zoomPlus" x="17" y="9" onmousedown="handleZoom(evt,'in')"/>
                <use id="zoomminus" xlink:href="#zoomMin" x="42" y="9" onmousedown="handleZoom(evt,'out')"/>
                <use id="reset" xlink:href="#resetDef" x="30" y="36" onmousedown="handleReset()"/>
                <g id="arrowUp" xlink:href="#dirArrow" transform="translate(30 24)" onmousedown="handlePan(0,-1)">
                  <use xlink:href="#rim" fill="#404040">
                        <set attributeName="fill" to="#808080" begin="arrowUp.mouseover" end="arrowUp.mouseout"/>
                  </use>
                  <path fill="none" stroke="white" stroke-width="1.5" d="M0,-3.0v7 M-2.5,-0.5L0,-3.0L2.5,-0.5"/>
                </g>
                <g id="arrowRight" xlink:href="#dirArrow" transform="rotate(90) translate(36 -43)" onmousedown="handlePan(1,0)">
                  <use xlink:href="#rim" fill="#404040">
                        <set attributeName="fill" to="#808080" begin="arrowRight.mouseover" end="arrowRight.mouseout"/>
                  </use>
                  <path fill="none" stroke="white" stroke-width="1.5" d="M0,-3.0v7 M-2.5,-0.5L0,-3.0L2.5,-0.5"/>
                </g>
                <g id="arrowDown" xlink:href="#dirArrow" transform="rotate(180) translate(-30 -48)" onmousedown="handlePan(0,1)">
                  <use xlink:href="#rim" fill="#404040">
                        <set attributeName="fill" to="#808080" begin="arrowDown.mouseover" end="arrowDown.mouseout"/>
                  </use>
                  <path fill="none" stroke="white" stroke-width="1.5" d="M0,-3.0v7 M-2.5,-0.5L0,-3.0L2.5,-0.5"/>
                </g>
                <g id="arrowLeft" xlink:href="#dirArrow" transform="rotate(270) translate(-36 17)" onmousedown="handlePan(-1,0)">
                  <use xlink:href="#rim" fill="#404040">
                        <set attributeName="fill" to="#808080" begin="arrowLeft.mouseover" end="arrowLeft.mouseout"/>
                  </use>
                  <path fill="none" stroke="white" stroke-width="1.5" d="M0,-3.0v7 M-2.5,-0.5L0,-3.0L2.5,-0.5"/>
                </g>
        </g>
        <svg viewBox="0 0 15 15" width="100%" height="30px" preserveAspectRatio="xMaxYMin meet">
         <g id="arrow_out" transform="scale(0.3 0.3)">
          <a xlink:href="classokw_1_1gui_1_1adapter_1_1selenium_1_1_se_any_window_a8b42bf27f4660b4807375a57fa9de815_cgraph_org.svg" target="_base">
           <rect id="button" ry="5" rx="5" y="6" x="6" height="38" width="38"
                fill="#f2f5e9" fill-opacity="0.5" stroke="#606060" stroke-width="1.0"/>
           <path id="arrow"
             d="M 11.500037,31.436501 C 11.940474,20.09759 22.043105,11.32322 32.158766,21.979434 L 37.068811,17.246167 C 37.068811,17.246167 37.088388,32 37.088388,32 L 22.160133,31.978069 C 22.160133,31.978069 26.997745,27.140456 26.997745,27.140456 C 18.528582,18.264221 13.291696,25.230495 11.500037,31.436501 z"
             style="fill:#404040;"/>
          </a>
         </g>
        </svg>
</svg>
