<?xml version="1.0" encoding="UTF-8" standalone="no"?>
<!DOCTYPE svg PUBLIC "-//W3C//DTD SVG 1.1//EN"
 "http://www.w3.org/Graphics/SVG/1.1/DTD/svg11.dtd">
<!-- Generated by graphviz version 2.26.3 (20100126.1600)
 -->
<!-- Title: okw.core.EN.VerifyTooltipREGX Pages: 1 -->
<svg width="428pt" height="1426pt"
 viewBox="0.00 0.00 428.00 1426.00" xmlns="http://www.w3.org/2000/svg" xmlns:xlink="http://www.w3.org/1999/xlink">
<g id="graph1" class="graph" transform="scale(1 1) rotate(0) translate(4 1422)">
<title>okw.core.EN.VerifyTooltipREGX</title>
<polygon fill="white" stroke="white" points="-4,5 -4,-1422 425,-1422 425,5 -4,5"/>
<!-- Node2407 -->
<g id="node1" class="node"><title>Node2407</title>
<polygon fill="#bfbfbf" stroke="black" points="0,-683.5 0,-704.5 160,-704.5 160,-683.5 0,-683.5"/>
<text text-anchor="middle" x="80" y="-691.5" font-family="Helvetica,sans-Serif" font-size="10.00">okw.core.EN.VerifyTooltipREGX</text>
</g>
<!-- Node2408 -->
<g id="node3" class="node"><title>Node2408</title>
<a xlink:href="classokw_1_1core_1_1_e_n___keywords___a_n_t_l_r___test.html#a3c08398cfde67e880e73bddc6e70f93f" target="_top" xlink:title="okw.core.EN_Keywords\l_ANTLR_Test.tc__VerifyTooltip\lREGX_EnviromentVar">
<polygon fill="white" stroke="black" points="230,-1370.5 230,-1417.5 386,-1417.5 386,-1370.5 230,-1370.5"/>
<text text-anchor="start" x="238" y="-1404.5" font-family="Helvetica,sans-Serif" font-size="10.00">okw.core.EN_Keywords</text>
<text text-anchor="start" x="238" y="-1391.5" font-family="Helvetica,sans-Serif" font-size="10.00">_ANTLR_Test.tc__VerifyTooltip</text>
<text text-anchor="middle" x="308" y="-1378.5" font-family="Helvetica,sans-Serif" font-size="10.00">REGX_EnviromentVar</text>
</a>
</g>
<!-- Node2407&#45;&gt;Node2408 -->
<g id="edge2" class="edge"><title>Node2407&#45;&gt;Node2408</title>
<path fill="none" stroke="midnightblue" d="M80.7487,-714.87C84.8207,-816.837 107.495,-1261.75 196,-1361 205.039,-1371.14 217.018,-1378.23 229.78,-1383.17"/>
<polygon fill="midnightblue" stroke="midnightblue" points="84.2375,-714.507 80.3581,-704.648 77.2426,-714.774 84.2375,-714.507"/>
</g>
<!-- Node2409 -->
<g id="node5" class="node"><title>Node2409</title>
<a xlink:href="classokw_1_1core_1_1_e_n___keywords___a_n_t_l_r___test.html#a8163acc71309a9fd84fe13b35f4b56c2" target="_top" xlink:title="okw.core.EN_Keywords\l_ANTLR_Test.tc__VerifyTooltip\lWCM_EnviromentVar">
<polygon fill="white" stroke="black" points="230,-1304.5 230,-1351.5 386,-1351.5 386,-1304.5 230,-1304.5"/>
<text text-anchor="start" x="238" y="-1338.5" font-family="Helvetica,sans-Serif" font-size="10.00">okw.core.EN_Keywords</text>
<text text-anchor="start" x="238" y="-1325.5" font-family="Helvetica,sans-Serif" font-size="10.00">_ANTLR_Test.tc__VerifyTooltip</text>
<text text-anchor="middle" x="308" y="-1312.5" font-family="Helvetica,sans-Serif" font-size="10.00">WCM_EnviromentVar</text>
</a>
</g>
<!-- Node2407&#45;&gt;Node2409 -->
<g id="edge4" class="edge"><title>Node2407&#45;&gt;Node2409</title>
<path fill="none" stroke="midnightblue" d="M81.1656,-714.59C86.96,-809.808 115.664,-1206.57 196,-1295 205.132,-1305.05 217.156,-1312.1 229.932,-1317.04"/>
<polygon fill="midnightblue" stroke="midnightblue" points="84.654,-714.29 80.5706,-704.514 77.6662,-714.703 84.654,-714.29"/>
</g>
<!-- Node2410 -->
<g id="node7" class="node"><title>Node2410</title>
<a xlink:href="classokw_1_1core_1_1_e_n___keywords___a_n_t_l_r___test.html#a506e1580da5910a4b1694699db081588" target="_top" xlink:title="okw.core.EN_Keywords\l_ANTLR_Test.tc_VerifyTooltip\lREGX_MemorizedValue">
<polygon fill="white" stroke="black" points="232.5,-1238.5 232.5,-1285.5 383.5,-1285.5 383.5,-1238.5 232.5,-1238.5"/>
<text text-anchor="start" x="240.5" y="-1272.5" font-family="Helvetica,sans-Serif" font-size="10.00">okw.core.EN_Keywords</text>
<text text-anchor="start" x="240.5" y="-1259.5" font-family="Helvetica,sans-Serif" font-size="10.00">_ANTLR_Test.tc_VerifyTooltip</text>
<text text-anchor="middle" x="308" y="-1246.5" font-family="Helvetica,sans-Serif" font-size="10.00">REGX_MemorizedValue</text>
</a>
</g>
<!-- Node2407&#45;&gt;Node2410 -->
<g id="edge6" class="edge"><title>Node2407&#45;&gt;Node2410</title>
<path fill="none" stroke="midnightblue" d="M81.7165,-714.823C89.4597,-803.851 123.938,-1151.47 196,-1229 205.799,-1239.54 218.777,-1246.77 232.418,-1251.72"/>
<polygon fill="midnightblue" stroke="midnightblue" points="85.1863,-714.319 80.8514,-704.651 78.2115,-714.912 85.1863,-714.319"/>
</g>
<!-- Node2411 -->
<g id="node9" class="node"><title>Node2411</title>
<a xlink:href="classokw_1_1core_1_1_e_n___keywords___d_e_l_e_t_e___test.html#aef1aa280938a881904e91fbb8db09a8b" target="_top" xlink:title="okw.core.EN_Keywords\l_DELETE_Test.tcVerifyTablecell\lValueWCM_DELETE_OKWNotAllowedValue\lException">
<polygon fill="white" stroke="black" points="200.5,-1160 200.5,-1220 415.5,-1220 415.5,-1160 200.5,-1160"/>
<text text-anchor="start" x="208.5" y="-1207" font-family="Helvetica,sans-Serif" font-size="10.00">okw.core.EN_Keywords</text>
<text text-anchor="start" x="208.5" y="-1194" font-family="Helvetica,sans-Serif" font-size="10.00">_DELETE_Test.tcVerifyTablecell</text>
<text text-anchor="start" x="208.5" y="-1181" font-family="Helvetica,sans-Serif" font-size="10.00">ValueWCM_DELETE_OKWNotAllowedValue</text>
<text text-anchor="middle" x="308" y="-1168" font-family="Helvetica,sans-Serif" font-size="10.00">Exception</text>
</a>
</g>
<!-- Node2407&#45;&gt;Node2411 -->
<g id="edge8" class="edge"><title>Node2407&#45;&gt;Node2411</title>
<path fill="none" stroke="midnightblue" d="M82.6704,-714.968C93.3313,-795.632 135.228,-1084.73 196,-1151 198.922,-1154.19 202.119,-1157.11 205.525,-1159.8"/>
<polygon fill="midnightblue" stroke="midnightblue" points="86.0865,-714.095 81.3256,-704.63 79.145,-714.998 86.0865,-714.095"/>
</g>
<!-- Node2412 -->
<g id="node11" class="node"><title>Node2412</title>
<a xlink:href="classokw_1_1core_1_1_e_n___keywords___empty___test.html#a9a5d099321b3771660606104fcdca687" target="_top" xlink:title="Prüft &quot;${EMPTY}&quot; für das Schlüsselwort VerifyValue(string,string) ">
<polygon fill="white" stroke="black" points="235,-1094.5 235,-1141.5 381,-1141.5 381,-1094.5 235,-1094.5"/>
<text text-anchor="start" x="243" y="-1128.5" font-family="Helvetica,sans-Serif" font-size="10.00">okw.core.EN_Keywords</text>
<text text-anchor="start" x="243" y="-1115.5" font-family="Helvetica,sans-Serif" font-size="10.00">_Empty_Test.tc_VerifyTooltip</text>
<text text-anchor="middle" x="308" y="-1102.5" font-family="Helvetica,sans-Serif" font-size="10.00">REGX_Empty</text>
</a>
</g>
<!-- Node2407&#45;&gt;Node2412 -->
<g id="edge10" class="edge"><title>Node2407&#45;&gt;Node2412</title>
<path fill="none" stroke="midnightblue" d="M83.4885,-714.784C96.1279,-787.754 141.652,-1030.75 196,-1085 206.617,-1095.6 220.454,-1102.83 234.763,-1107.75"/>
<polygon fill="midnightblue" stroke="midnightblue" points="86.8806,-713.856 81.746,-704.588 79.9807,-715.035 86.8806,-713.856"/>
</g>
<!-- Node2413 -->
<g id="node13" class="node"><title>Node2413</title>
<a xlink:href="classokw_1_1core_1_1_e_n___keywords___test.html#a4d7892135a93d12285182124b2f2b068" target="_top" xlink:title="&quot;Normaler&quot; Testfall für das Schlüsselwort VerifyTooltipREGX. ">
<polygon fill="white" stroke="black" points="237.5,-1042 237.5,-1076 378.5,-1076 378.5,-1042 237.5,-1042"/>
<text text-anchor="start" x="245.5" y="-1063" font-family="Helvetica,sans-Serif" font-size="10.00">okw.core.EN_Keywords</text>
<text text-anchor="middle" x="308" y="-1050" font-family="Helvetica,sans-Serif" font-size="10.00">_Test.tc_VerifyTooltipREGX</text>
</a>
</g>
<!-- Node2407&#45;&gt;Node2413 -->
<g id="edge12" class="edge"><title>Node2407&#45;&gt;Node2413</title>
<path fill="none" stroke="midnightblue" d="M84.3312,-714.672C98.6824,-781.252 146.581,-988.363 196,-1033 207.48,-1043.37 222.274,-1049.84 237.323,-1053.83"/>
<polygon fill="midnightblue" stroke="midnightblue" points="87.6896,-713.638 82.1835,-704.586 80.8431,-715.096 87.6896,-713.638"/>
</g>
<!-- Node2414 -->
<g id="node15" class="node"><title>Node2414</title>
<a xlink:href="classokw_1_1core_1_1_e_n___o_k_w_frame_object_child_not_found_exception___test.html#a67ef75467aa8833b654650e5e04334ad" target="_top" xlink:title="Prüft ob die Ausnahme OKWFrameObjectChildNotFoundException durch die LFC&#45;VerifyValue ausgelöst wird...">
<polygon fill="white" stroke="black" points="202.5,-964 202.5,-1024 413.5,-1024 413.5,-964 202.5,-964"/>
<text text-anchor="start" x="210.5" y="-1011" font-family="Helvetica,sans-Serif" font-size="10.00">okw.core.EN_OKWFrameObject</text>
<text text-anchor="start" x="210.5" y="-998" font-family="Helvetica,sans-Serif" font-size="10.00">ChildNotFoundException</text>
<text text-anchor="start" x="210.5" y="-985" font-family="Helvetica,sans-Serif" font-size="10.00">_Test.TC_VerifyTooltipREGX</text>
<text text-anchor="middle" x="308" y="-972" font-family="Helvetica,sans-Serif" font-size="10.00">_OKWFrameObjectChildNotFoundException</text>
</a>
</g>
<!-- Node2407&#45;&gt;Node2414 -->
<g id="edge14" class="edge"><title>Node2407&#45;&gt;Node2414</title>
<path fill="none" stroke="midnightblue" d="M83.4341,-714.708C92.608,-763.583 122.201,-887.095 196,-955 199.485,-958.207 203.248,-961.152 207.21,-963.857"/>
<polygon fill="midnightblue" stroke="midnightblue" points="86.8519,-713.937 81.6508,-704.707 79.9606,-715.166 86.8519,-713.937"/>
</g>
<!-- Node2415 -->
<g id="node17" class="node"><title>Node2415</title>
<a xlink:href="classokw_1_1core_1_1_e_n___o_k_w_frame_object_method_not_implemented___test.html#a49e5ae8942fd79351ba9c34a591c9138" target="_top" xlink:title="Prüft ob die Ausnahme OKWFrameObjectMethodNotImplemented von VerifyTooltipREGX( FN, ExpVal ) ausgelöst wird. ">
<polygon fill="white" stroke="black" points="196.5,-886 196.5,-946 419.5,-946 419.5,-886 196.5,-886"/>
<text text-anchor="start" x="204.5" y="-933" font-family="Helvetica,sans-Serif" font-size="10.00">okw.core.EN_OKWFrameObject</text>
<text text-anchor="start" x="204.5" y="-920" font-family="Helvetica,sans-Serif" font-size="10.00">MethodNotImplemented_Test.TC</text>
<text text-anchor="start" x="204.5" y="-907" font-family="Helvetica,sans-Serif" font-size="10.00">_VerifyTooltipREGX_OKWFrameObjectMethod</text>
<text text-anchor="middle" x="308" y="-894" font-family="Helvetica,sans-Serif" font-size="10.00">NotImplemented</text>
</a>
</g>
<!-- Node2407&#45;&gt;Node2415 -->
<g id="edge16" class="edge"><title>Node2407&#45;&gt;Node2415</title>
<path fill="none" stroke="midnightblue" d="M87.5255,-714.207C102.474,-751.664 139.425,-832.136 196,-877 200.033,-880.198 204.347,-883.144 208.847,-885.856"/>
<polygon fill="midnightblue" stroke="midnightblue" points="90.7747,-712.905 83.8948,-704.848 84.2486,-715.437 90.7747,-712.905"/>
</g>
<!-- Node2416 -->
<g id="node19" class="node"><title>Node2416</title>
<a xlink:href="classokw_1_1core_1_1_e_n___o_k_w_not_allowed_value_exception___keywords___i_g_n_o_r_e.html#af13d5214a6e6b66e5d02bbb83902ac90" target="_top" xlink:title="Prüft ob &quot;${IGNORE} &quot; die Ausnahme okw.exceptions.OKWNotAllowedValueException auslöst. ">
<polygon fill="white" stroke="black" points="207.5,-820.5 207.5,-867.5 408.5,-867.5 408.5,-820.5 207.5,-820.5"/>
<text text-anchor="start" x="215.5" y="-854.5" font-family="Helvetica,sans-Serif" font-size="10.00">okw.core.EN_OKWNotAllowed</text>
<text text-anchor="start" x="215.5" y="-841.5" font-family="Helvetica,sans-Serif" font-size="10.00">ValueException_Keywords</text>
<text text-anchor="middle" x="308" y="-828.5" font-family="Helvetica,sans-Serif" font-size="10.00">_IGNORE.tcVerifyTooltipREGXIGNORE1</text>
</a>
</g>
<!-- Node2407&#45;&gt;Node2416 -->
<g id="edge18" class="edge"><title>Node2407&#45;&gt;Node2416</title>
<path fill="none" stroke="midnightblue" d="M93.8629,-713.085C113.664,-738.993 152.498,-785.035 196,-811 201.831,-814.48 208.054,-817.615 214.466,-820.435"/>
<polygon fill="midnightblue" stroke="midnightblue" points="96.4728,-710.731 87.6761,-704.826 90.8704,-714.928 96.4728,-710.731"/>
</g>
<!-- Node2417 -->
<g id="node21" class="node"><title>Node2417</title>
<a xlink:href="classokw_1_1core_1_1_e_n___verify_tooltip___o_k_w_verifying_fails_exception___test.html#a8ccb583551050c262693fffd9a2ee910" target="_top" xlink:title="Prüft, ob die Ausnahme OKWVerifyingFailsException bei einem Soll/Ist&#45;Vergleich ausgelöst wird...">
<polygon fill="white" stroke="black" points="219,-742 219,-802 397,-802 397,-742 219,-742"/>
<text text-anchor="start" x="227" y="-789" font-family="Helvetica,sans-Serif" font-size="10.00">okw.core.EN_VerifyTooltip</text>
<text text-anchor="start" x="227" y="-776" font-family="Helvetica,sans-Serif" font-size="10.00">_OKWVerifyingFailsException</text>
<text text-anchor="start" x="227" y="-763" font-family="Helvetica,sans-Serif" font-size="10.00">_Test.tc_VerifyTooltipREGX</text>
<text text-anchor="middle" x="308" y="-750" font-family="Helvetica,sans-Serif" font-size="10.00">_OKWVerifyingFailsException_SV01</text>
</a>
</g>
<!-- Node2407&#45;&gt;Node2417 -->
<g id="edge20" class="edge"><title>Node2407&#45;&gt;Node2417</title>
<path fill="none" stroke="midnightblue" d="M120.447,-707.837C148.072,-717.288 185.753,-730.179 220.095,-741.927"/>
<polygon fill="midnightblue" stroke="midnightblue" points="121.344,-704.445 110.749,-704.519 119.078,-711.068 121.344,-704.445"/>
</g>
<!-- Node2418 -->
<g id="node23" class="node"><title>Node2418</title>
<a xlink:href="classokw_1_1core_1_1_e_n___verify_tooltip___o_k_w_verifying_fails_exception___test.html#afcc7ba99a1d101171e6a7bc321cb21b2" target="_top" xlink:title="Prüft, ob die Ausnahme OKWVerifyingFailsException bei einem Soll/Ist&#45;Vergleich ausgelöst wird...">
<polygon fill="white" stroke="black" points="219,-664 219,-724 397,-724 397,-664 219,-664"/>
<text text-anchor="start" x="227" y="-711" font-family="Helvetica,sans-Serif" font-size="10.00">okw.core.EN_VerifyTooltip</text>
<text text-anchor="start" x="227" y="-698" font-family="Helvetica,sans-Serif" font-size="10.00">_OKWVerifyingFailsException</text>
<text text-anchor="start" x="227" y="-685" font-family="Helvetica,sans-Serif" font-size="10.00">_Test.tc_VerifyTooltipREGX</text>
<text text-anchor="middle" x="308" y="-672" font-family="Helvetica,sans-Serif" font-size="10.00">_OKWVerifyingFailsException_SV02</text>
</a>
</g>
<!-- Node2407&#45;&gt;Node2418 -->
<g id="edge22" class="edge"><title>Node2407&#45;&gt;Node2418</title>
<path fill="none" stroke="midnightblue" d="M170.421,-694C186.343,-694 202.907,-694 218.796,-694"/>
<polygon fill="midnightblue" stroke="midnightblue" points="170.064,-690.5 160.064,-694 170.064,-697.5 170.064,-690.5"/>
</g>
<!-- Node2419 -->
<g id="node25" class="node"><title>Node2419</title>
<a xlink:href="classokw_1_1core_1_1_e_n___verify_tooltip___o_k_w_verifying_fails_exception___test.html#ad05a50cec878061c929927d5fbb1faa5" target="_top" xlink:title="Prüft, ob die Ausnahme OKWVerifyingFailsException bei einem Soll/Ist&#45;Vergleich ausgelöst wird...">
<polygon fill="white" stroke="black" points="219,-586 219,-646 397,-646 397,-586 219,-586"/>
<text text-anchor="start" x="227" y="-633" font-family="Helvetica,sans-Serif" font-size="10.00">okw.core.EN_VerifyTooltip</text>
<text text-anchor="start" x="227" y="-620" font-family="Helvetica,sans-Serif" font-size="10.00">_OKWVerifyingFailsException</text>
<text text-anchor="start" x="227" y="-607" font-family="Helvetica,sans-Serif" font-size="10.00">_Test.tc_VerifyTooltipREGX</text>
<text text-anchor="middle" x="308" y="-594" font-family="Helvetica,sans-Serif" font-size="10.00">_OKWVerifyingFailsException_SV03</text>
</a>
</g>
<!-- Node2407&#45;&gt;Node2419 -->
<g id="edge24" class="edge"><title>Node2407&#45;&gt;Node2419</title>
<path fill="none" stroke="midnightblue" d="M120.447,-680.163C148.072,-670.712 185.753,-657.821 220.095,-646.073"/>
<polygon fill="midnightblue" stroke="midnightblue" points="119.078,-676.932 110.749,-683.481 121.344,-683.555 119.078,-676.932"/>
</g>
<!-- Node2420 -->
<g id="node27" class="node"><title>Node2420</title>
<a xlink:href="classokw_1_1core_1_1_e_n___verify_tooltip___o_k_w_verifying_fails_exception___test.html#a622d9041c01e568cd522598e5547d6c8" target="_top" xlink:title="Prüft, ob die Ausnahme OKWVerifyingFailsException bei einem Soll/Ist&#45;Vergleich ausgelöst wird...">
<polygon fill="white" stroke="black" points="218.5,-508 218.5,-568 397.5,-568 397.5,-508 218.5,-508"/>
<text text-anchor="start" x="226.5" y="-555" font-family="Helvetica,sans-Serif" font-size="10.00">okw.core.EN_VerifyTooltip</text>
<text text-anchor="start" x="226.5" y="-542" font-family="Helvetica,sans-Serif" font-size="10.00">_OKWVerifyingFailsException</text>
<text text-anchor="start" x="226.5" y="-529" font-family="Helvetica,sans-Serif" font-size="10.00">_Test.tc_VerifyTooltipREGX</text>
<text text-anchor="middle" x="308" y="-516" font-family="Helvetica,sans-Serif" font-size="10.00">_OKWVerifyingFailsException_MV01</text>
</a>
</g>
<!-- Node2407&#45;&gt;Node2420 -->
<g id="edge26" class="edge"><title>Node2407&#45;&gt;Node2420</title>
<path fill="none" stroke="midnightblue" d="M94.046,-675.214C114.061,-649.653 153.141,-604.013 196,-577 202.967,-572.609 210.492,-568.637 218.229,-565.062"/>
<polygon fill="midnightblue" stroke="midnightblue" points="91.1076,-673.294 87.7868,-683.355 96.6569,-677.56 91.1076,-673.294"/>
</g>
<!-- Node2421 -->
<g id="node29" class="node"><title>Node2421</title>
<a xlink:href="classokw_1_1core_1_1_e_n___verify_tooltip___o_k_w_verifying_fails_exception___test.html#a63f1162487835d82d6a7308badb692b0" target="_top" xlink:title="Prüft, ob die Ausnahme OKWVerifyingFailsException bei einem Soll/Ist&#45;Vergleich ausgelöst wird...">
<polygon fill="white" stroke="black" points="218.5,-430 218.5,-490 397.5,-490 397.5,-430 218.5,-430"/>
<text text-anchor="start" x="226.5" y="-477" font-family="Helvetica,sans-Serif" font-size="10.00">okw.core.EN_VerifyTooltip</text>
<text text-anchor="start" x="226.5" y="-464" font-family="Helvetica,sans-Serif" font-size="10.00">_OKWVerifyingFailsException</text>
<text text-anchor="start" x="226.5" y="-451" font-family="Helvetica,sans-Serif" font-size="10.00">_Test.tc_VerifyTooltipREGX</text>
<text text-anchor="middle" x="308" y="-438" font-family="Helvetica,sans-Serif" font-size="10.00">_OKWVerifyingFailsException_MV02</text>
</a>
</g>
<!-- Node2407&#45;&gt;Node2421 -->
<g id="edge28" class="edge"><title>Node2407&#45;&gt;Node2421</title>
<path fill="none" stroke="midnightblue" d="M86.6571,-673.849C100.636,-634.568 136.741,-547.375 196,-499 202.779,-493.466 210.394,-488.695 218.38,-484.586"/>
<polygon fill="midnightblue" stroke="midnightblue" points="83.3222,-672.784 83.3692,-683.379 89.9394,-675.067 83.3222,-672.784"/>
</g>
<!-- Node2422 -->
<g id="node31" class="node"><title>Node2422</title>
<a xlink:href="classokw_1_1core_1_1_e_n___verify_tooltip___o_k_w_verifying_fails_exception___test.html#a01d6227fa82539ae2d360217d9b97c16" target="_top" xlink:title="Prüft, ob die Ausnahme OKWVerifyingFailsException bei einem Soll/Ist&#45;Vergleich ausgelöst wird...">
<polygon fill="white" stroke="black" points="218.5,-352 218.5,-412 397.5,-412 397.5,-352 218.5,-352"/>
<text text-anchor="start" x="226.5" y="-399" font-family="Helvetica,sans-Serif" font-size="10.00">okw.core.EN_VerifyTooltip</text>
<text text-anchor="start" x="226.5" y="-386" font-family="Helvetica,sans-Serif" font-size="10.00">_OKWVerifyingFailsException</text>
<text text-anchor="start" x="226.5" y="-373" font-family="Helvetica,sans-Serif" font-size="10.00">_Test.tc_VerifyTooltipREGX</text>
<text text-anchor="middle" x="308" y="-360" font-family="Helvetica,sans-Serif" font-size="10.00">_OKWVerifyingFailsException_MV03</text>
</a>
</g>
<!-- Node2407&#45;&gt;Node2422 -->
<g id="edge30" class="edge"><title>Node2407&#45;&gt;Node2422</title>
<path fill="none" stroke="midnightblue" d="M82.9662,-673.373C91.2812,-623.002 119.43,-492.626 196,-421 202.616,-414.811 210.266,-409.598 218.4,-405.207"/>
<polygon fill="midnightblue" stroke="midnightblue" points="79.4902,-672.948 81.4076,-683.368 86.4066,-674.027 79.4902,-672.948"/>
</g>
<!-- Node2423 -->
<g id="node33" class="node"><title>Node2423</title>
<a xlink:href="classokw_1_1core_1_1_e_n___verify_tooltip___o_k_w_verifying_fails_exception___test.html#a367215d5ebe740d537634f2417cc18a4" target="_top" xlink:title="Prüft, ob die Ausnahme OKWVerifyingFailsException bei einem Soll/Ist&#45;Vergleich ausgelöst wird...">
<polygon fill="white" stroke="black" points="218.5,-274 218.5,-334 397.5,-334 397.5,-274 218.5,-274"/>
<text text-anchor="start" x="226.5" y="-321" font-family="Helvetica,sans-Serif" font-size="10.00">okw.core.EN_VerifyTooltip</text>
<text text-anchor="start" x="226.5" y="-308" font-family="Helvetica,sans-Serif" font-size="10.00">_OKWVerifyingFailsException</text>
<text text-anchor="start" x="226.5" y="-295" font-family="Helvetica,sans-Serif" font-size="10.00">_Test.tc_VerifyTooltipREGX</text>
<text text-anchor="middle" x="308" y="-282" font-family="Helvetica,sans-Serif" font-size="10.00">_OKWVerifyingFailsException_MV04</text>
</a>
</g>
<!-- Node2407&#45;&gt;Node2423 -->
<g id="edge32" class="edge"><title>Node2407&#45;&gt;Node2423</title>
<path fill="none" stroke="midnightblue" d="M80.7341,-673.351C83.972,-613.659 101.474,-439.041 196,-343 202.499,-336.397 210.174,-330.91 218.411,-326.351"/>
<polygon fill="midnightblue" stroke="midnightblue" points="77.2348,-673.257 80.269,-683.408 84.2273,-673.58 77.2348,-673.257"/>
</g>
<!-- Node2424 -->
<g id="node35" class="node"><title>Node2424</title>
<a xlink:href="classokw_1_1_se_input_checkbox_1_1_se_input_checkbox___test.html#a702ffb63f0af2c995bd71ca884b0f408" target="_top" xlink:title="Prüft die SetFocusFunktion bei Textfelder mit dem Attribute &quot;ReadOnly&quot;. ">
<polygon fill="white" stroke="black" points="232,-222 232,-256 384,-256 384,-222 232,-222"/>
<text text-anchor="start" x="240" y="-243" font-family="Helvetica,sans-Serif" font-size="10.00">okw.SeInputCheckbox.SeInput</text>
<text text-anchor="middle" x="308" y="-230" font-family="Helvetica,sans-Serif" font-size="10.00">Checkbox_Test.tcSetFocus</text>
</a>
</g>
<!-- Node2407&#45;&gt;Node2424 -->
<g id="edge34" class="edge"><title>Node2407&#45;&gt;Node2424</title>
<path fill="none" stroke="midnightblue" d="M82.7968,-673.107C93.6301,-595.268 135.268,-323.586 196,-265 205.913,-255.437 218.619,-249.141 231.891,-245.044"/>
<polygon fill="midnightblue" stroke="midnightblue" points="79.3125,-672.754 81.4233,-683.137 86.2478,-673.704 79.3125,-672.754"/>
</g>
<!-- Node2425 -->
<g id="node37" class="node"><title>Node2425</title>
<a xlink:href="classokw_1_1_se_input_field_1_1_se_input_field___test.html#ab2da25dabf85279d19799e9fbcaea718" target="_top" xlink:title="Test des Schlüsselwortes &quot;VerifyValue( FN, ExpVal ) für SeInputText. ">
<polygon fill="white" stroke="black" points="241.5,-170 241.5,-204 374.5,-204 374.5,-170 241.5,-170"/>
<text text-anchor="start" x="249.5" y="-191" font-family="Helvetica,sans-Serif" font-size="10.00">okw.SeInputField.SeInput</text>
<text text-anchor="middle" x="308" y="-178" font-family="Helvetica,sans-Serif" font-size="10.00">Field_Test.tcVerifyCaption</text>
</a>
</g>
<!-- Node2407&#45;&gt;Node2425 -->
<g id="edge36" class="edge"><title>Node2407&#45;&gt;Node2425</title>
<path fill="none" stroke="midnightblue" d="M82.1506,-673.062C91.1707,-589.317 128.641,-279.786 196,-213 208.12,-200.983 224.637,-194.093 241.262,-190.246"/>
<polygon fill="midnightblue" stroke="midnightblue" points="78.6567,-672.821 81.087,-683.133 85.618,-673.556 78.6567,-672.821"/>
</g>
<!-- Node2426 -->
<g id="node39" class="node"><title>Node2426</title>
<a xlink:href="classokw_1_1_se_input_radio_1_1_se_input_radio___e_n___test.html#ada3de30a068faa7cd81830fa5a0746b6" target="_top" xlink:title="Test des Schlüsselwortes VerifyToolTip für den GUI&#45;Adapter SeInputRadio. ">
<polygon fill="white" stroke="black" points="213.5,-118 213.5,-152 402.5,-152 402.5,-118 213.5,-118"/>
<text text-anchor="start" x="221.5" y="-139" font-family="Helvetica,sans-Serif" font-size="10.00">okw.SeInputRadio.SeInput</text>
<text text-anchor="middle" x="308" y="-126" font-family="Helvetica,sans-Serif" font-size="10.00">Radio_EN_Test.tc_VerifyToolTipREGX</text>
</a>
</g>
<!-- Node2407&#45;&gt;Node2426 -->
<g id="edge38" class="edge"><title>Node2407&#45;&gt;Node2426</title>
<path fill="none" stroke="midnightblue" d="M81.6153,-673.146C88.9406,-584.002 121.94,-236.089 196,-161 201.116,-155.813 207.05,-151.576 213.465,-148.124"/>
<polygon fill="midnightblue" stroke="midnightblue" points="78.1091,-673.084 80.7987,-683.332 85.0867,-673.644 78.1091,-673.084"/>
</g>
<!-- Node2427 -->
<g id="node41" class="node"><title>Node2427</title>
<a xlink:href="classokw_1_1_se_link_1_1_se_link___e_n___test.html#a1fad39475422a862685d82bc548203b8" target="_top" xlink:title="Prüft die Methode SeLink.VerifyExists. ">
<polygon fill="white" stroke="black" points="248,-52.5 248,-99.5 368,-99.5 368,-52.5 248,-52.5"/>
<text text-anchor="start" x="256" y="-86.5" font-family="Helvetica,sans-Serif" font-size="10.00">okw.SeLink.SeLink_EN</text>
<text text-anchor="start" x="256" y="-73.5" font-family="Helvetica,sans-Serif" font-size="10.00">_Test.TC_VerifyExists</text>
<text text-anchor="middle" x="308" y="-60.5" font-family="Helvetica,sans-Serif" font-size="10.00">_YES_NoObject</text>
</a>
</g>
<!-- Node2407&#45;&gt;Node2427 -->
<g id="edge40" class="edge"><title>Node2407&#45;&gt;Node2427</title>
<path fill="none" stroke="midnightblue" d="M81.3063,-673.068C87.5983,-578.817 117.753,-194.693 196,-109 209.395,-94.33 228.948,-86.0558 247.98,-81.4303"/>
<polygon fill="midnightblue" stroke="midnightblue" points="77.7969,-673.1 80.6418,-683.306 84.7822,-673.554 77.7969,-673.1"/>
</g>
<!-- Node2428 -->
<g id="node43" class="node"><title>Node2428</title>
<a xlink:href="classokw_1_1_se_radio_list_1_1_se_radio_list___test.html#ab83d307b3b1165aa9d82a7b0c667f6b8" target="_top" xlink:title="okw.SeRadioList.SeRadioList\l_Test.tcLogIsActive">
<polygon fill="white" stroke="black" points="234.5,-0 234.5,-34 381.5,-34 381.5,-0 234.5,-0"/>
<text text-anchor="start" x="242.5" y="-21" font-family="Helvetica,sans-Serif" font-size="10.00">okw.SeRadioList.SeRadioList</text>
<text text-anchor="middle" x="308" y="-8" font-family="Helvetica,sans-Serif" font-size="10.00">_Test.tcLogIsActive</text>
</a>
</g>
<!-- Node2407&#45;&gt;Node2428 -->
<g id="edge42" class="edge"><title>Node2407&#45;&gt;Node2428</title>
<path fill="none" stroke="midnightblue" d="M80.7362,-672.88C84.6984,-571.632 106.755,-136.989 196,-43 206.24,-32.2158 220.005,-25.5064 234.377,-21.4134"/>
<polygon fill="midnightblue" stroke="midnightblue" points="77.2317,-672.938 80.3559,-683.061 84.2268,-673.199 77.2317,-672.938"/>
</g>
</g>
</svg>
