<?xml version="1.0" encoding="UTF-8" standalone="no"?>
<!DOCTYPE svg PUBLIC "-//W3C//DTD SVG 1.1//EN"
 "http://www.w3.org/Graphics/SVG/1.1/DTD/svg11.dtd">
<!-- Generated by graphviz version 2.38.0 (20140413.2041)
 -->
<!-- Title: okw.gui.adapter.selenium.SeInputRadio.getCaption Pages: 1 -->
<svg width="357pt" height="88pt"
 viewBox="0.00 0.00 357.00 88.00" xmlns="http://www.w3.org/2000/svg" xmlns:xlink="http://www.w3.org/1999/xlink">
<g id="graph0" class="graph" transform="scale(1 1) rotate(0) translate(4 84)">
<title>okw.gui.adapter.selenium.SeInputRadio.getCaption</title>
<polygon fill="white" stroke="none" points="-4,4 -4,-84 353,-84 353,4 -4,4"/>
<!-- Node2 -->
<g id="node1" class="node"><title>Node2</title>
<g id="a_node1"><a xlink:title="Ermittelt den textuellen Inhalt der Überschrift eines HTML&#45;Tags anhand des Attributee &quot;textContent&quot;.">
<polygon fill="#bfbfbf" stroke="black" points="0,-24.5 0,-54.5 140,-54.5 140,-24.5 0,-24.5"/>
<text text-anchor="start" x="8" y="-42.5" font-family="Helvetica,sans-Serif" font-size="10.00">okw.gui.adapter.selenium.</text>
<text text-anchor="middle" x="70" y="-31.5" font-family="Helvetica,sans-Serif" font-size="10.00">SeInputRadio.getCaption</text>
</a>
</g>
</g>
<!-- Node3 -->
<g id="node2" class="node"><title>Node3</title>
<g id="a_node2"><a xlink:href="classokw_1_1gui_1_1_any_win_base.html#abaab572bdbed7b471f659d5dd8c76853" target="_top" xlink:title="Methode ruft die Methode Logger.Instance.LogFunctionStartDebug(fps_FunctionName), und erweitert den g...">
<polygon fill="white" stroke="black" points="176,-49.5 176,-79.5 349,-79.5 349,-49.5 176,-49.5"/>
<text text-anchor="start" x="184" y="-67.5" font-family="Helvetica,sans-Serif" font-size="10.00">okw.gui.AnyWinBase.LogFunction</text>
<text text-anchor="middle" x="262.5" y="-56.5" font-family="Helvetica,sans-Serif" font-size="10.00">StartDebug</text>
</a>
</g>
</g>
<!-- Node2&#45;&gt;Node3 -->
<g id="edge1" class="edge"><title>Node2&#45;&gt;Node3</title>
<path fill="none" stroke="midnightblue" d="M140.044,-48.5609C148.386,-49.6557 157.019,-50.7886 165.658,-51.9224"/>
<polygon fill="midnightblue" stroke="midnightblue" points="165.416,-55.4205 175.786,-53.2515 166.327,-48.48 165.416,-55.4205"/>
</g>
<!-- Node4 -->
<g id="node3" class="node"><title>Node4</title>
<g id="a_node3"><a xlink:href="classokw_1_1gui_1_1_any_win_base.html#a51cf50ace21902b3a5359316f53a7f3e" target="_top" xlink:title="Methode ruft die Methode Logger.Instance.LogFunctionEndDebug() auf.">
<polygon fill="white" stroke="black" points="176,-0.5 176,-30.5 349,-30.5 349,-0.5 176,-0.5"/>
<text text-anchor="start" x="184" y="-18.5" font-family="Helvetica,sans-Serif" font-size="10.00">okw.gui.AnyWinBase.LogFunction</text>
<text text-anchor="middle" x="262.5" y="-7.5" font-family="Helvetica,sans-Serif" font-size="10.00">EndDebug</text>
</a>
</g>
</g>
<!-- Node2&#45;&gt;Node4 -->
<g id="edge2" class="edge"><title>Node2&#45;&gt;Node4</title>
<path fill="none" stroke="midnightblue" d="M140.044,-30.8015C148.386,-29.7505 157.019,-28.6629 165.658,-27.5745"/>
<polygon fill="midnightblue" stroke="midnightblue" points="166.302,-31.0212 175.786,-26.2986 165.427,-24.0761 166.302,-31.0212"/>
</g>
</g>
</svg>
