<?xml version="1.0" encoding="UTF-8" standalone="no"?>
<!DOCTYPE svg PUBLIC "-//W3C//DTD SVG 1.1//EN"
 "http://www.w3.org/Graphics/SVG/1.1/DTD/svg11.dtd">
<!-- Generated by graphviz version 2.26.3 (20100126.1600)
 -->
<!-- Title: okw.OKW_Const_Sngltn Pages: 1 -->
<!--zoomable 1026 -->
<svg id="main" version="1.1" xmlns="http://www.w3.org/2000/svg" xmlns:xlink="http://www.w3.org/1999/xlink" xml:space="preserve" onload="init(evt)">
<style type="text/css"><![CDATA[
.edge:hover path { stroke: red; }
.edge:hover polygon { stroke: red; fill: red; }
]]></style>
<script type="text/javascript"><![CDATA[
var edges = document.getElementsByTagName('g');
if (edges && edges.length) {
  for (var i=0;i<edges.length;i++) {
    if (edges[i].id.substr(0,4)=='edge') {
      edges[i].setAttribute('class','edge');
    }
  }
}
]]></script>
        <defs>
                <circle id="rim" cx="0" cy="0" r="7"/>
                <circle id="rim2" cx="0" cy="0" r="3.5"/>
                <g id="zoomPlus">
                        <use xlink:href="#rim" fill="#404040">
                                <set attributeName="fill" to="#808080" begin="zoomplus.mouseover" end="zoomplus.mouseout"/>
                        </use>
                        <path d="M-4,0h8M0,-4v8" fill="none" stroke="white" stroke-width="1.5" pointer-events="none"/>
                </g>
                <g id="zoomMin">
                        <use xlink:href="#rim" fill="#404040">
                                <set attributeName="fill" to="#808080" begin="zoomminus.mouseover" end="zoomminus.mouseout"/>
                        </use>
                        <path d="M-4,0h8" fill="none" stroke="white" stroke-width="1.5" pointer-events="none"/>
                </g>
                <g id="dirArrow">
                        <path fill="none" stroke="white" stroke-width="1.5" d="M0,-3.0v7 M-2.5,-0.5L0,-3.0L2.5,-0.5"/>
                </g>
               <g id="resetDef">
                       <use xlink:href="#rim2" fill="#404040">
                               <set attributeName="fill" to="#808080" begin="reset.mouseover" end="reset.mouseout"/>
                       </use>
               </g>
        </defs>

<script type="text/javascript">
var viewWidth = 805;
var viewHeight = 1026;
var sectionId = 'dynsection-0';
</script>
<script xlink:href="svgpan.js"/>
<svg id="graph" class="graph">
<g id="viewport">
<title>okw.OKW_Const_Sngltn</title>
<polygon fill="white" stroke="white" points="-4,5 -4,-1022 802,-1022 802,5 -4,5"/>
<!-- Node1 -->
<g id="node1" class="node"><title>Node1</title>
<polygon fill="#bfbfbf" stroke="black" points="328.5,-1 328.5,-207 487.5,-207 487.5,-1 328.5,-1"/>
<text text-anchor="middle" x="408" y="-194" font-family="Helvetica,sans-Serif" font-size="10.00">okw.OKW_Const_Sngltn</text>
<polyline fill="none" stroke="black" points="328.5,-186 487.5,-186 "/>
<text text-anchor="middle" x="408" y="-173" font-family="Helvetica,sans-Serif" font-size="10.00"> </text>
<polyline fill="none" stroke="black" points="328.5,-165 487.5,-165 "/>
<text text-anchor="start" x="336.5" y="-152" font-family="Helvetica,sans-Serif" font-size="10.00">+ Boolean2YesNo()</text>
<text text-anchor="start" x="336.5" y="-139" font-family="Helvetica,sans-Serif" font-size="10.00">+ ConcatHSEP()</text>
<text text-anchor="start" x="336.5" y="-126" font-family="Helvetica,sans-Serif" font-size="10.00">+ ConcatSEP()</text>
<text text-anchor="start" x="336.5" y="-113" font-family="Helvetica,sans-Serif" font-size="10.00">+ ConcatVSEP()</text>
<text text-anchor="start" x="336.5" y="-100" font-family="Helvetica,sans-Serif" font-size="10.00">+ GetConst4Internalname()</text>
<text text-anchor="start" x="336.5" y="-87" font-family="Helvetica,sans-Serif" font-size="10.00">+ GetOKWConst4Internalname()</text>
<text text-anchor="start" x="336.5" y="-74" font-family="Helvetica,sans-Serif" font-size="10.00">+ SplitHSEP()</text>
<text text-anchor="start" x="336.5" y="-61" font-family="Helvetica,sans-Serif" font-size="10.00">+ SplitSEP()</text>
<text text-anchor="start" x="336.5" y="-48" font-family="Helvetica,sans-Serif" font-size="10.00">+ SplitVSEP()</text>
<text text-anchor="start" x="336.5" y="-35" font-family="Helvetica,sans-Serif" font-size="10.00">+ YesNo2Boolean()</text>
<text text-anchor="start" x="336.5" y="-22" font-family="Helvetica,sans-Serif" font-size="10.00">+ getInstance()</text>
<text text-anchor="start" x="336.5" y="-9" font-family="Helvetica,sans-Serif" font-size="10.00"># OKW_Const_Sngltn()</text>
</g>
<!-- Node1&#45;&gt;Node1 -->
<g id="edge16" class="edge"><title>Node1&#45;&gt;Node1</title>
<path fill="none" stroke="#404040" d="M487.54,-125.164C498.038,-121.555 505,-114.5 505,-104 505,-97.7656 502.545,-92.7459 498.354,-88.9407"/>
<polygon fill="none" stroke="#404040" points="497.99,-88.7351 490.798,-89.2688 487.54,-82.8359 494.731,-82.3022 497.99,-88.7351"/>
<text text-anchor="middle" x="527" y="-101.5" font-family="Helvetica,sans-Serif" font-size="10.00"> &#45;Instance</text>
</g>
<!-- Node2 -->
<g id="node2" class="node"><title>Node2</title>
<a xlink:href="classokw_1_1_o_k_w___xml_reader.html" target="_top" xlink:title="{okw.OKW_XmlReader\n||+ getXMLFile()\l+ OKW_XmlReader()\l+ getTextContentSingleValue()\l+ getTextContentAsList()\l&#45; Init()\l}">
<polygon fill="white" stroke="black" points="205.5,-788.5 205.5,-903.5 356.5,-903.5 356.5,-788.5 205.5,-788.5"/>
<text text-anchor="middle" x="281" y="-890.5" font-family="Helvetica,sans-Serif" font-size="10.00">okw.OKW_XmlReader</text>
<polyline fill="none" stroke="black" points="205.5,-882.5 356.5,-882.5 "/>
<text text-anchor="middle" x="281" y="-869.5" font-family="Helvetica,sans-Serif" font-size="10.00"> </text>
<polyline fill="none" stroke="black" points="205.5,-861.5 356.5,-861.5 "/>
<text text-anchor="start" x="213.5" y="-848.5" font-family="Helvetica,sans-Serif" font-size="10.00">+ getXMLFile()</text>
<text text-anchor="start" x="213.5" y="-835.5" font-family="Helvetica,sans-Serif" font-size="10.00">+ OKW_XmlReader()</text>
<text text-anchor="start" x="213.5" y="-822.5" font-family="Helvetica,sans-Serif" font-size="10.00">+ getTextContentSingleValue()</text>
<text text-anchor="start" x="213.5" y="-809.5" font-family="Helvetica,sans-Serif" font-size="10.00">+ getTextContentAsList()</text>
<text text-anchor="start" x="213.5" y="-796.5" font-family="Helvetica,sans-Serif" font-size="10.00">&#45; Init()</text>
</a>
</g>
<!-- Node2&#45;&gt;Node1 -->
<g id="edge2" class="edge"><title>Node2&#45;&gt;Node1</title>
<path fill="none" stroke="#404040" d="M241.95,-788.307C233.343,-772.645 225.466,-755.234 221,-738 167.487,-531.487 129.952,-450.929 221,-258 241.514,-214.531 280.981,-179.182 318.391,-153.365"/>
<polygon fill="none" stroke="#404040" points="318.393,-153.364 321.144,-146.698 328.355,-146.674 325.604,-153.34 318.393,-153.364"/>
<text text-anchor="middle" x="255.5" y="-495.5" font-family="Helvetica,sans-Serif" font-size="10.00"> &#45;myXmlReader</text>
</g>
<!-- Node11 -->
<g id="node22" class="node"><title>Node11</title>
<a xlink:href="classokw_1_1_log_messenger.html" target="_top" xlink:title="LogMessenger liest Log&#45;Meldungen sprachspezifisch für die im Konstruktor gegeben Klasse aus der Zugeh...">
<polygon fill="white" stroke="black" points="298.5,-434 298.5,-562 399.5,-562 399.5,-434 298.5,-434"/>
<text text-anchor="middle" x="349" y="-549" font-family="Helvetica,sans-Serif" font-size="10.00">okw.LogMessenger</text>
<polyline fill="none" stroke="black" points="298.5,-541 399.5,-541 "/>
<text text-anchor="start" x="306.5" y="-528" font-family="Helvetica,sans-Serif" font-size="10.00">&#45; cvsClassName</text>
<polyline fill="none" stroke="black" points="298.5,-520 399.5,-520 "/>
<text text-anchor="start" x="306.5" y="-507" font-family="Helvetica,sans-Serif" font-size="10.00">+ LogMessenger()</text>
<text text-anchor="start" x="306.5" y="-494" font-family="Helvetica,sans-Serif" font-size="10.00">+ GetMessage()</text>
<text text-anchor="start" x="306.5" y="-481" font-family="Helvetica,sans-Serif" font-size="10.00">+ GetMessage()</text>
<text text-anchor="start" x="306.5" y="-468" font-family="Helvetica,sans-Serif" font-size="10.00">+ GetMessage()</text>
<text text-anchor="start" x="306.5" y="-455" font-family="Helvetica,sans-Serif" font-size="10.00">+ GetMessage()</text>
<text text-anchor="start" x="306.5" y="-442" font-family="Helvetica,sans-Serif" font-size="10.00">&#45; ReadMessage()</text>
</a>
</g>
<!-- Node2&#45;&gt;Node11 -->
<g id="edge26" class="edge"><title>Node2&#45;&gt;Node11</title>
<path fill="none" stroke="#404040" d="M292.305,-788.144C303.747,-729.588 321.5,-638.735 334.088,-574.312"/>
<polygon fill="none" stroke="#404040" points="334.154,-573.978 331.378,-567.323 336.455,-562.201 339.23,-568.857 334.154,-573.978"/>
<text text-anchor="middle" x="332.5" y="-760.5" font-family="Helvetica,sans-Serif" font-size="10.00"> &#45;myXmlReader</text>
</g>
<!-- Node3 -->
<g id="node4" class="node"><title>Node3</title>
<polygon fill="white" stroke="#bfbfbf" points="-0.5,-954.5 -0.5,-1017.5 70.5,-1017.5 70.5,-954.5 -0.5,-954.5"/>
<text text-anchor="middle" x="35" y="-1004.5" font-family="Helvetica,sans-Serif" font-size="10.00">ClassLoader</text>
<polyline fill="none" stroke="#bfbfbf" points="-0.5,-996.5 70.5,-996.5 "/>
<text text-anchor="middle" x="35" y="-983.5" font-family="Helvetica,sans-Serif" font-size="10.00"> </text>
<polyline fill="none" stroke="#bfbfbf" points="-0.5,-975.5 70.5,-975.5 "/>
<text text-anchor="middle" x="35" y="-962.5" font-family="Helvetica,sans-Serif" font-size="10.00"> </text>
</g>
<!-- Node3&#45;&gt;Node2 -->
<g id="edge4" class="edge"><title>Node3&#45;&gt;Node2</title>
<path fill="none" stroke="midnightblue" d="M79.309,-954.026C125.097,-925.591 168.994,-901.972 205.258,-883.351"/>
<polygon fill="none" stroke="midnightblue" points="77.3576,-951.118 70.7388,-959.391 81.0721,-957.051 77.3576,-951.118"/>
</g>
<!-- Node4 -->
<g id="node6" class="node"><title>Node4</title>
<polygon fill="white" stroke="#bfbfbf" points="87.5,-954.5 87.5,-1017.5 212.5,-1017.5 212.5,-954.5 87.5,-954.5"/>
<text text-anchor="middle" x="150" y="-1004.5" font-family="Helvetica,sans-Serif" font-size="10.00">DocumentBuilderFactory</text>
<polyline fill="none" stroke="#bfbfbf" points="87.5,-996.5 212.5,-996.5 "/>
<text text-anchor="middle" x="150" y="-983.5" font-family="Helvetica,sans-Serif" font-size="10.00"> </text>
<polyline fill="none" stroke="#bfbfbf" points="87.5,-975.5 212.5,-975.5 "/>
<text text-anchor="middle" x="150" y="-962.5" font-family="Helvetica,sans-Serif" font-size="10.00"> </text>
</g>
<!-- Node4&#45;&gt;Node2 -->
<g id="edge6" class="edge"><title>Node4&#45;&gt;Node2</title>
<path fill="none" stroke="#404040" d="M160.091,-954.226C164.505,-943.317 170.433,-931.478 178,-922 183.434,-915.194 189.617,-908.691 196.194,-902.558"/>
<polygon fill="none" stroke="#404040" points="196.389,-902.386 198.228,-895.413 205.372,-894.43 203.532,-901.402 196.389,-902.386"/>
<text text-anchor="middle" x="210" y="-926.5" font-family="Helvetica,sans-Serif" font-size="10.00"> &#45;mydbFactory</text>
</g>
<!-- Node5 -->
<g id="node8" class="node"><title>Node5</title>
<polygon fill="white" stroke="#bfbfbf" points="230,-954.5 230,-1017.5 274,-1017.5 274,-954.5 230,-954.5"/>
<text text-anchor="middle" x="252" y="-1004.5" font-family="Helvetica,sans-Serif" font-size="10.00">XPath</text>
<polyline fill="none" stroke="#bfbfbf" points="230,-996.5 274,-996.5 "/>
<text text-anchor="middle" x="252" y="-983.5" font-family="Helvetica,sans-Serif" font-size="10.00"> </text>
<polyline fill="none" stroke="#bfbfbf" points="230,-975.5 274,-975.5 "/>
<text text-anchor="middle" x="252" y="-962.5" font-family="Helvetica,sans-Serif" font-size="10.00"> </text>
</g>
<!-- Node5&#45;&gt;Node2 -->
<g id="edge8" class="edge"><title>Node5&#45;&gt;Node2</title>
<path fill="none" stroke="#404040" d="M245.932,-954.185C244.908,-943.837 244.789,-932.354 247,-922 247.487,-919.721 248.047,-917.427 248.669,-915.129"/>
<polygon fill="none" stroke="#404040" points="248.673,-915.118 246.644,-908.198 252.251,-903.664 254.28,-910.583 248.673,-915.118"/>
<text text-anchor="middle" x="270.5" y="-926.5" font-family="Helvetica,sans-Serif" font-size="10.00"> &#45;myXPath</text>
</g>
<!-- Node6 -->
<g id="node10" class="node"><title>Node6</title>
<polygon fill="white" stroke="#bfbfbf" points="296.5,-954.5 296.5,-1017.5 333.5,-1017.5 333.5,-954.5 296.5,-954.5"/>
<text text-anchor="middle" x="315" y="-1004.5" font-family="Helvetica,sans-Serif" font-size="10.00">Path</text>
<polyline fill="none" stroke="#bfbfbf" points="296.5,-996.5 333.5,-996.5 "/>
<text text-anchor="middle" x="315" y="-983.5" font-family="Helvetica,sans-Serif" font-size="10.00"> </text>
<polyline fill="none" stroke="#bfbfbf" points="296.5,-975.5 333.5,-975.5 "/>
<text text-anchor="middle" x="315" y="-962.5" font-family="Helvetica,sans-Serif" font-size="10.00"> </text>
</g>
<!-- Node6&#45;&gt;Node2 -->
<g id="edge10" class="edge"><title>Node6&#45;&gt;Node2</title>
<path fill="none" stroke="#404040" d="M307.285,-954.232C304.466,-942.626 301.156,-928.997 297.854,-915.399"/>
<polygon fill="none" stroke="#404040" points="297.798,-915.169 292.495,-910.283 294.966,-903.508 300.269,-908.395 297.798,-915.169"/>
<text text-anchor="middle" x="331" y="-926.5" font-family="Helvetica,sans-Serif" font-size="10.00"> &#45;myXMLFile</text>
</g>
<!-- Node7 -->
<g id="node12" class="node"><title>Node7</title>
<polygon fill="white" stroke="#bfbfbf" points="351,-954.5 351,-1017.5 443,-1017.5 443,-954.5 351,-954.5"/>
<text text-anchor="middle" x="397" y="-1004.5" font-family="Helvetica,sans-Serif" font-size="10.00">DocumentBuilder</text>
<polyline fill="none" stroke="#bfbfbf" points="351,-996.5 443,-996.5 "/>
<text text-anchor="middle" x="397" y="-983.5" font-family="Helvetica,sans-Serif" font-size="10.00"> </text>
<polyline fill="none" stroke="#bfbfbf" points="351,-975.5 443,-975.5 "/>
<text text-anchor="middle" x="397" y="-962.5" font-family="Helvetica,sans-Serif" font-size="10.00"> </text>
</g>
<!-- Node7&#45;&gt;Node2 -->
<g id="edge12" class="edge"><title>Node7&#45;&gt;Node2</title>
<path fill="none" stroke="#404040" d="M382.892,-954.45C377.402,-943.68 370.596,-931.872 363,-922 360.633,-918.923 358.135,-915.864 355.541,-912.837"/>
<polygon fill="none" stroke="#404040" points="355.516,-912.809 348.533,-911.009 347.507,-903.872 354.491,-905.671 355.516,-912.809"/>
<text text-anchor="middle" x="399.5" y="-926.5" font-family="Helvetica,sans-Serif" font-size="10.00"> &#45;mydBuilder</text>
</g>
<!-- Node8 -->
<g id="node14" class="node"><title>Node8</title>
<polygon fill="white" stroke="#bfbfbf" points="461,-954.5 461,-1017.5 523,-1017.5 523,-954.5 461,-954.5"/>
<text text-anchor="middle" x="492" y="-1004.5" font-family="Helvetica,sans-Serif" font-size="10.00">Document</text>
<polyline fill="none" stroke="#bfbfbf" points="461,-996.5 523,-996.5 "/>
<text text-anchor="middle" x="492" y="-983.5" font-family="Helvetica,sans-Serif" font-size="10.00"> </text>
<polyline fill="none" stroke="#bfbfbf" points="461,-975.5 523,-975.5 "/>
<text text-anchor="middle" x="492" y="-962.5" font-family="Helvetica,sans-Serif" font-size="10.00"> </text>
</g>
<!-- Node8&#45;&gt;Node2 -->
<g id="edge14" class="edge"><title>Node8&#45;&gt;Node2</title>
<path fill="none" stroke="#404040" d="M465.677,-954.196C455.562,-943.161 443.443,-931.248 431,-922 411.658,-907.623 389.192,-894.616 367.628,-883.589"/>
<polygon fill="none" stroke="#404040" points="367.529,-883.54 360.373,-884.434 356.796,-878.173 363.951,-877.279 367.529,-883.54"/>
<text text-anchor="middle" x="489.5" y="-926.5" font-family="Helvetica,sans-Serif" font-size="10.00"> &#45;myXMLDocument</text>
</g>
<!-- Node9 -->
<g id="node17" class="node"><title>Node9</title>
<a xlink:href="classokw_1_1_o_k_w_language.html" target="_top" xlink:title="http://de.wikipedia.org/wiki/ISO&#45;3166&#45;1&#45;Kodierliste ">
<polygon fill="white" stroke="black" points="417,-447 417,-549 521,-549 521,-447 417,-447"/>
<text text-anchor="middle" x="469" y="-536" font-family="Helvetica,sans-Serif" font-size="10.00">okw.OKWLanguage</text>
<polyline fill="none" stroke="black" points="417,-528 521,-528 "/>
<text text-anchor="start" x="425" y="-515" font-family="Helvetica,sans-Serif" font-size="10.00">&#45; Language</text>
<polyline fill="none" stroke="black" points="417,-507 521,-507 "/>
<text text-anchor="start" x="425" y="-494" font-family="Helvetica,sans-Serif" font-size="10.00">+ getLanguage()</text>
<text text-anchor="start" x="425" y="-481" font-family="Helvetica,sans-Serif" font-size="10.00">+ setLanguage()</text>
<text text-anchor="start" x="425" y="-468" font-family="Helvetica,sans-Serif" font-size="10.00">+ getInstance()</text>
<text text-anchor="start" x="425" y="-455" font-family="Helvetica,sans-Serif" font-size="10.00">&#45; OKWLanguage()</text>
</a>
</g>
<!-- Node9&#45;&gt;Node1 -->
<g id="edge18" class="edge"><title>Node9&#45;&gt;Node1</title>
<path fill="none" stroke="#404040" d="M461.088,-446.895C452.199,-389.48 437.486,-294.45 425.801,-218.974"/>
<polygon fill="none" stroke="#404040" points="425.789,-218.897 420.918,-213.579 423.953,-207.038 428.824,-212.355 425.789,-218.897"/>
<text text-anchor="middle" x="436.5" y="-230.5" font-family="Helvetica,sans-Serif" font-size="10.00"> &#45;CL</text>
</g>
<!-- Node9&#45;&gt;Node9 -->
<g id="edge22" class="edge"><title>Node9&#45;&gt;Node9</title>
<path fill="none" stroke="#404040" d="M521.202,-545.458C531.592,-540.116 539,-524.297 539,-498 539,-480.126 535.577,-467.093 530.123,-458.9"/>
<polygon fill="none" stroke="#404040" points="529.959,-458.747 522.846,-457.564 521.202,-450.542 528.316,-451.726 529.959,-458.747"/>
<text text-anchor="middle" x="561" y="-495.5" font-family="Helvetica,sans-Serif" font-size="10.00"> &#45;Instance</text>
</g>
<!-- Node10 -->
<g id="node19" class="node"><title>Node10</title>
<polygon fill="white" stroke="#bfbfbf" points="419.5,-814.5 419.5,-877.5 518.5,-877.5 518.5,-814.5 419.5,-814.5"/>
<text text-anchor="middle" x="469" y="-864.5" font-family="Helvetica,sans-Serif" font-size="10.00">ArrayList&lt; String &gt;</text>
<polyline fill="none" stroke="#bfbfbf" points="419.5,-856.5 518.5,-856.5 "/>
<text text-anchor="middle" x="469" y="-843.5" font-family="Helvetica,sans-Serif" font-size="10.00"> </text>
<polyline fill="none" stroke="#bfbfbf" points="419.5,-835.5 518.5,-835.5 "/>
<text text-anchor="middle" x="469" y="-822.5" font-family="Helvetica,sans-Serif" font-size="10.00"> </text>
</g>
<!-- Node10&#45;&gt;Node9 -->
<g id="edge20" class="edge"><title>Node10&#45;&gt;Node9</title>
<path fill="none" stroke="#404040" d="M469,-814.195C469,-756.976 469,-635.709 469,-561.094"/>
<polygon fill="none" stroke="#404040" points="469,-561.086 465,-555.086 469,-549.086 473,-555.086 469,-561.086"/>
<text text-anchor="middle" x="534.5" y="-760.5" font-family="Helvetica,sans-Serif" font-size="10.00"> &#45;cvLsLanguagesImplemented</text>
</g>
<!-- Node11&#45;&gt;Node1 -->
<g id="edge24" class="edge"><title>Node11&#45;&gt;Node1</title>
<path fill="none" stroke="#404040" d="M358.611,-433.82C367.3,-375.794 380.298,-288.992 390.779,-218.999"/>
<polygon fill="none" stroke="#404040" points="390.795,-218.897 387.727,-212.371 392.572,-207.029 395.639,-213.556 390.795,-218.897"/>
<text text-anchor="middle" x="399" y="-230.5" font-family="Helvetica,sans-Serif" font-size="10.00"> &#45;LM</text>
</g>
<!-- Node12 -->
<g id="node25" class="node"><title>Node12</title>
<a xlink:href="classokw_1_1log_1_1_logger___sngltn.html" target="_top" xlink:title="{okw.log.Logger_Sngltn\n|&#45; cvbDebugMode\l|+ getDebugMode()\l+ setDebugMode()\l+ addLogger()\l+ reset()\l+ LogError()\l+ LogException()\l+ LogFunctionEnd()\l+ LogFunctionEnd()\l+ LogFunctionEnd()\l+ LogFunctionEnd()\l+ LogFunctionEndDebug()\l+ LogFunctionEndDebug()\l+ LogFunctionEndDebug()\l+ LogFunctionEndDebug()\l+ LogFunctionStart()\l+ LogFunctionStartDebug()\l+ LogKeyWordEnd()\l+ LogSequenceEnd()\l+ LogTestcaseEnd()\l+ LogKeyWordStart()\l+ LogSequenceStart()\l+ LogTestcaseStart()\l+ LogPass()\l+ LogPrint()\l+ LogPrintDebug()\l+ LogWarning()\l+ ResCloseList()\l+ ResCloseListDebug()\l+ ResOpenList()\l+ ResOpenListDebug()\l+ getInstance()\l+ init()\l&#45; Logger_Sngltn()\l}">
<polygon fill="white" stroke="black" points="601,-258.5 601,-737.5 735,-737.5 735,-258.5 601,-258.5"/>
<text text-anchor="middle" x="668" y="-724.5" font-family="Helvetica,sans-Serif" font-size="10.00">okw.log.Logger_Sngltn</text>
<polyline fill="none" stroke="black" points="601,-716.5 735,-716.5 "/>
<text text-anchor="start" x="609" y="-703.5" font-family="Helvetica,sans-Serif" font-size="10.00">&#45; cvbDebugMode</text>
<polyline fill="none" stroke="black" points="601,-695.5 735,-695.5 "/>
<text text-anchor="start" x="609" y="-682.5" font-family="Helvetica,sans-Serif" font-size="10.00">+ getDebugMode()</text>
<text text-anchor="start" x="609" y="-669.5" font-family="Helvetica,sans-Serif" font-size="10.00">+ setDebugMode()</text>
<text text-anchor="start" x="609" y="-656.5" font-family="Helvetica,sans-Serif" font-size="10.00">+ addLogger()</text>
<text text-anchor="start" x="609" y="-643.5" font-family="Helvetica,sans-Serif" font-size="10.00">+ reset()</text>
<text text-anchor="start" x="609" y="-630.5" font-family="Helvetica,sans-Serif" font-size="10.00">+ LogError()</text>
<text text-anchor="start" x="609" y="-617.5" font-family="Helvetica,sans-Serif" font-size="10.00">+ LogException()</text>
<text text-anchor="start" x="609" y="-604.5" font-family="Helvetica,sans-Serif" font-size="10.00">+ LogFunctionEnd()</text>
<text text-anchor="start" x="609" y="-591.5" font-family="Helvetica,sans-Serif" font-size="10.00">+ LogFunctionEnd()</text>
<text text-anchor="start" x="609" y="-578.5" font-family="Helvetica,sans-Serif" font-size="10.00">+ LogFunctionEnd()</text>
<text text-anchor="start" x="609" y="-565.5" font-family="Helvetica,sans-Serif" font-size="10.00">+ LogFunctionEnd()</text>
<text text-anchor="start" x="609" y="-552.5" font-family="Helvetica,sans-Serif" font-size="10.00">+ LogFunctionEndDebug()</text>
<text text-anchor="start" x="609" y="-539.5" font-family="Helvetica,sans-Serif" font-size="10.00">+ LogFunctionEndDebug()</text>
<text text-anchor="start" x="609" y="-526.5" font-family="Helvetica,sans-Serif" font-size="10.00">+ LogFunctionEndDebug()</text>
<text text-anchor="start" x="609" y="-513.5" font-family="Helvetica,sans-Serif" font-size="10.00">+ LogFunctionEndDebug()</text>
<text text-anchor="start" x="609" y="-500.5" font-family="Helvetica,sans-Serif" font-size="10.00">+ LogFunctionStart()</text>
<text text-anchor="start" x="609" y="-487.5" font-family="Helvetica,sans-Serif" font-size="10.00">+ LogFunctionStartDebug()</text>
<text text-anchor="start" x="609" y="-474.5" font-family="Helvetica,sans-Serif" font-size="10.00">+ LogKeyWordEnd()</text>
<text text-anchor="start" x="609" y="-461.5" font-family="Helvetica,sans-Serif" font-size="10.00">+ LogSequenceEnd()</text>
<text text-anchor="start" x="609" y="-448.5" font-family="Helvetica,sans-Serif" font-size="10.00">+ LogTestcaseEnd()</text>
<text text-anchor="start" x="609" y="-435.5" font-family="Helvetica,sans-Serif" font-size="10.00">+ LogKeyWordStart()</text>
<text text-anchor="start" x="609" y="-422.5" font-family="Helvetica,sans-Serif" font-size="10.00">+ LogSequenceStart()</text>
<text text-anchor="start" x="609" y="-409.5" font-family="Helvetica,sans-Serif" font-size="10.00">+ LogTestcaseStart()</text>
<text text-anchor="start" x="609" y="-396.5" font-family="Helvetica,sans-Serif" font-size="10.00">+ LogPass()</text>
<text text-anchor="start" x="609" y="-383.5" font-family="Helvetica,sans-Serif" font-size="10.00">+ LogPrint()</text>
<text text-anchor="start" x="609" y="-370.5" font-family="Helvetica,sans-Serif" font-size="10.00">+ LogPrintDebug()</text>
<text text-anchor="start" x="609" y="-357.5" font-family="Helvetica,sans-Serif" font-size="10.00">+ LogWarning()</text>
<text text-anchor="start" x="609" y="-344.5" font-family="Helvetica,sans-Serif" font-size="10.00">+ ResCloseList()</text>
<text text-anchor="start" x="609" y="-331.5" font-family="Helvetica,sans-Serif" font-size="10.00">+ ResCloseListDebug()</text>
<text text-anchor="start" x="609" y="-318.5" font-family="Helvetica,sans-Serif" font-size="10.00">+ ResOpenList()</text>
<text text-anchor="start" x="609" y="-305.5" font-family="Helvetica,sans-Serif" font-size="10.00">+ ResOpenListDebug()</text>
<text text-anchor="start" x="609" y="-292.5" font-family="Helvetica,sans-Serif" font-size="10.00">+ getInstance()</text>
<text text-anchor="start" x="609" y="-279.5" font-family="Helvetica,sans-Serif" font-size="10.00">+ init()</text>
<text text-anchor="start" x="609" y="-266.5" font-family="Helvetica,sans-Serif" font-size="10.00">&#45; Logger_Sngltn()</text>
</a>
</g>
<!-- Node12&#45;&gt;Node1 -->
<g id="edge28" class="edge"><title>Node12&#45;&gt;Node1</title>
<path fill="none" stroke="#404040" d="M600.948,-272.266C598.083,-267.393 595.102,-262.629 592,-258 567.309,-221.147 531.322,-188.307 497.708,-162.518"/>
<polygon fill="none" stroke="#404040" points="497.425,-162.305 490.226,-161.894 487.837,-155.09 495.036,-155.501 497.425,-162.305"/>
<text text-anchor="middle" x="587" y="-230.5" font-family="Helvetica,sans-Serif" font-size="10.00"> &#45;Log</text>
</g>
<!-- Node12&#45;&gt;Node12 -->
<g id="edge32" class="edge"><title>Node12&#45;&gt;Node12</title>
<path fill="none" stroke="#404040" d="M735.337,-543.364C745.84,-536.582 753,-521.461 753,-498 753,-481.687 749.538,-469.407 743.898,-461.158"/>
<polygon fill="none" stroke="#404040" points="743.842,-461.102 736.768,-459.704 735.337,-452.636 742.411,-454.034 743.842,-461.102"/>
<text text-anchor="middle" x="775" y="-495.5" font-family="Helvetica,sans-Serif" font-size="10.00"> &#45;Instance</text>
</g>
<!-- Node13 -->
<g id="node27" class="node"><title>Node13</title>
<polygon fill="white" stroke="#bfbfbf" points="596.5,-814.5 596.5,-877.5 739.5,-877.5 739.5,-814.5 596.5,-814.5"/>
<text text-anchor="middle" x="668" y="-864.5" font-family="Helvetica,sans-Serif" font-size="10.00">ArrayList&lt; okw.log.ILogger &gt;</text>
<polyline fill="none" stroke="#bfbfbf" points="596.5,-856.5 739.5,-856.5 "/>
<text text-anchor="middle" x="668" y="-843.5" font-family="Helvetica,sans-Serif" font-size="10.00"> </text>
<polyline fill="none" stroke="#bfbfbf" points="596.5,-835.5 739.5,-835.5 "/>
<text text-anchor="middle" x="668" y="-822.5" font-family="Helvetica,sans-Serif" font-size="10.00"> </text>
</g>
<!-- Node13&#45;&gt;Node12 -->
<g id="edge30" class="edge"><title>Node13&#45;&gt;Node12</title>
<path fill="none" stroke="#404040" d="M668,-814.195C668,-797.32 668,-774.874 668,-749.697"/>
<polygon fill="none" stroke="#404040" points="668,-749.541 664,-743.541 668,-737.541 672,-743.541 668,-749.541"/>
<text text-anchor="middle" x="694" y="-760.5" font-family="Helvetica,sans-Serif" font-size="10.00"> &#45;LoggerList</text>
</g>
</g>
</svg>
        <g id="navigator" transform="translate(0 0)" fill="#404254">
                <rect fill="#f2f5e9" fill-opacity="0.5" stroke="#606060" stroke-width=".5" x="0" y="0" width="60" height="60"/>
                <use id="zoomplus" xlink:href="#zoomPlus" x="17" y="9" onmousedown="handleZoom(evt,'in')"/>
                <use id="zoomminus" xlink:href="#zoomMin" x="42" y="9" onmousedown="handleZoom(evt,'out')"/>
                <use id="reset" xlink:href="#resetDef" x="30" y="36" onmousedown="handleReset()"/>
                <g id="arrowUp" xlink:href="#dirArrow" transform="translate(30 24)" onmousedown="handlePan(0,-1)">
                  <use xlink:href="#rim" fill="#404040">
                        <set attributeName="fill" to="#808080" begin="arrowUp.mouseover" end="arrowUp.mouseout"/>
                  </use>
                  <path fill="none" stroke="white" stroke-width="1.5" d="M0,-3.0v7 M-2.5,-0.5L0,-3.0L2.5,-0.5"/>
                </g>
                <g id="arrowRight" xlink:href="#dirArrow" transform="rotate(90) translate(36 -43)" onmousedown="handlePan(1,0)">
                  <use xlink:href="#rim" fill="#404040">
                        <set attributeName="fill" to="#808080" begin="arrowRight.mouseover" end="arrowRight.mouseout"/>
                  </use>
                  <path fill="none" stroke="white" stroke-width="1.5" d="M0,-3.0v7 M-2.5,-0.5L0,-3.0L2.5,-0.5"/>
                </g>
                <g id="arrowDown" xlink:href="#dirArrow" transform="rotate(180) translate(-30 -48)" onmousedown="handlePan(0,1)">
                  <use xlink:href="#rim" fill="#404040">
                        <set attributeName="fill" to="#808080" begin="arrowDown.mouseover" end="arrowDown.mouseout"/>
                  </use>
                  <path fill="none" stroke="white" stroke-width="1.5" d="M0,-3.0v7 M-2.5,-0.5L0,-3.0L2.5,-0.5"/>
                </g>
                <g id="arrowLeft" xlink:href="#dirArrow" transform="rotate(270) translate(-36 17)" onmousedown="handlePan(-1,0)">
                  <use xlink:href="#rim" fill="#404040">
                        <set attributeName="fill" to="#808080" begin="arrowLeft.mouseover" end="arrowLeft.mouseout"/>
                  </use>
                  <path fill="none" stroke="white" stroke-width="1.5" d="M0,-3.0v7 M-2.5,-0.5L0,-3.0L2.5,-0.5"/>
                </g>
        </g>
        <svg viewBox="0 0 15 15" width="100%" height="30px" preserveAspectRatio="xMaxYMin meet">
         <g id="arrow_out" transform="scale(0.3 0.3)">
          <a xlink:href="classokw_1_1_o_k_w___const___sngltn__coll__graph_org.svg" target="_base">
           <rect id="button" ry="5" rx="5" y="6" x="6" height="38" width="38"
                fill="#f2f5e9" fill-opacity="0.5" stroke="#606060" stroke-width="1.0"/>
           <path id="arrow"
             d="M 11.500037,31.436501 C 11.940474,20.09759 22.043105,11.32322 32.158766,21.979434 L 37.068811,17.246167 C 37.068811,17.246167 37.088388,32 37.088388,32 L 22.160133,31.978069 C 22.160133,31.978069 26.997745,27.140456 26.997745,27.140456 C 18.528582,18.264221 13.291696,25.230495 11.500037,31.436501 z"
             style="fill:#404040;"/>
          </a>
         </g>
        </svg>
</svg>
