<?xml version="1.0" encoding="UTF-8" standalone="no"?>
<!DOCTYPE svg PUBLIC "-//W3C//DTD SVG 1.1//EN"
 "http://www.w3.org/Graphics/SVG/1.1/DTD/svg11.dtd">
<!-- Generated by graphviz version 2.38.0 (20140413.2041)
 -->
<!-- Title: okw.core.OK.LogPlaceholder Pages: 1 -->
<!--zoomable 519 -->
<svg id="main" version="1.1" xmlns="http://www.w3.org/2000/svg" xmlns:xlink="http://www.w3.org/1999/xlink" xml:space="preserve" onload="init(evt)">
<style type="text/css"><![CDATA[
.edge:hover path { stroke: red; }
.edge:hover polygon { stroke: red; fill: red; }
]]></style>
<script type="text/javascript"><![CDATA[
var edges = document.getElementsByTagName('g');
if (edges && edges.length) {
  for (var i=0;i<edges.length;i++) {
    if (edges[i].id.substr(0,4)=='edge') {
      edges[i].setAttribute('class','edge');
    }
  }
}
]]></script>
        <defs>
                <circle id="rim" cx="0" cy="0" r="7"/>
                <circle id="rim2" cx="0" cy="0" r="3.5"/>
                <g id="zoomPlus">
                        <use xlink:href="#rim" fill="#404040">
                                <set attributeName="fill" to="#808080" begin="zoomplus.mouseover" end="zoomplus.mouseout"/>
                        </use>
                        <path d="M-4,0h8M0,-4v8" fill="none" stroke="white" stroke-width="1.5" pointer-events="none"/>
                </g>
                <g id="zoomMin">
                        <use xlink:href="#rim" fill="#404040">
                                <set attributeName="fill" to="#808080" begin="zoomminus.mouseover" end="zoomminus.mouseout"/>
                        </use>
                        <path d="M-4,0h8" fill="none" stroke="white" stroke-width="1.5" pointer-events="none"/>
                </g>
                <g id="dirArrow">
                        <path fill="none" stroke="white" stroke-width="1.5" d="M0,-3.0v7 M-2.5,-0.5L0,-3.0L2.5,-0.5"/>
                </g>
               <g id="resetDef">
                       <use xlink:href="#rim2" fill="#404040">
                               <set attributeName="fill" to="#808080" begin="reset.mouseover" end="reset.mouseout"/>
                       </use>
               </g>
        </defs>

<script type="text/javascript">
var viewWidth = 1355;
var viewHeight = 519;
var sectionId = 'dynsection-13';
</script>
<script xlink:href="svgpan.js"/>
<svg id="graph" class="graph">
<g id="viewport">
<title>okw.core.OK.LogPlaceholder</title>
<polygon fill="white" stroke="none" points="-4,4 -4,-514.803 1351,-514.803 1351,4 -4,4"/>
<!-- Node262 -->
<g id="node1" class="node"><title>Node262</title>
<g id="a_node1"><a xlink:title="Gibt den Wert des Platzhalters in der Logdatei aus.">
<polygon fill="#bfbfbf" stroke="black" points="0,-126.627 0,-145.627 150,-145.627 150,-126.627 0,-126.627"/>
<text text-anchor="middle" x="75" y="-133.627" font-family="Helvetica,sans-Serif" font-size="10.00">okw.core.OK.LogPlaceholder</text>
</a>
</g>
</g>
<!-- Node263 -->
<g id="node2" class="node"><title>Node263</title>
<g id="a_node2"><a xlink:href="classokw_1_1core_1_1_o_k_w___current_object___sngltn.html#a461fa1ff29f4bc4a9798707ea7b71849" target="_top" xlink:title="Setzt das Kindobjekt.">
<polygon fill="white" stroke="black" points="186.5,-372.127 186.5,-402.127 341.5,-402.127 341.5,-372.127 186.5,-372.127"/>
<text text-anchor="start" x="194.5" y="-390.127" font-family="Helvetica,sans-Serif" font-size="10.00">okw.core.OKW_CurrentObject</text>
<text text-anchor="middle" x="264" y="-379.127" font-family="Helvetica,sans-Serif" font-size="10.00">_Sngltn.setChildName</text>
</a>
</g>
</g>
<!-- Node262&#45;&gt;Node263 -->
<g id="edge1" class="edge"><title>Node262&#45;&gt;Node263</title>
<path fill="none" stroke="midnightblue" d="M81.6908,-145.911C97.1642,-172.243 141.813,-246.452 186,-303.127 203.039,-324.982 224.485,-348.07 240.414,-364.498"/>
<polygon fill="midnightblue" stroke="midnightblue" points="238.252,-367.293 247.747,-371.993 243.256,-362.398 238.252,-367.293"/>
</g>
<!-- Node269 -->
<g id="node8" class="node"><title>Node269</title>
<g id="a_node8"><a xlink:href="classokw_1_1log_1_1_logger___sngltn.html#a8ebceaddd6cc6963ddb8e08c72ea808c" target="_top" xlink:title="LogPrint Function: Prints the values of expressions to the results file.">
<polygon fill="white" stroke="black" points="584.5,-265.127 584.5,-295.127 727.5,-295.127 727.5,-265.127 584.5,-265.127"/>
<text text-anchor="start" x="592.5" y="-283.127" font-family="Helvetica,sans-Serif" font-size="10.00">okw.log.Logger_Sngltn.Log</text>
<text text-anchor="middle" x="656" y="-272.127" font-family="Helvetica,sans-Serif" font-size="10.00">Print</text>
</a>
</g>
</g>
<!-- Node262&#45;&gt;Node269 -->
<g id="edge16" class="edge"><title>Node262&#45;&gt;Node269</title>
<path fill="none" stroke="midnightblue" d="M92.3078,-145.651C136.488,-170.884 262.912,-239.363 378,-266.127 442.793,-281.195 518.324,-284.077 574.134,-283.538"/>
<polygon fill="midnightblue" stroke="midnightblue" points="574.367,-287.035 584.319,-283.399 574.272,-280.036 574.367,-287.035"/>
</g>
<!-- Node273 -->
<g id="node12" class="node"><title>Node273</title>
<g id="a_node12"><a xlink:href="classokw_1_1log_1_1_logger___sngltn.html#ab4fc711bb4c754f251372ff3b14ab9c9" target="_top" xlink:title="Creates a new hierarchical level in the results file.">
<polygon fill="white" stroke="black" points="584.5,-99.1273 584.5,-129.127 727.5,-129.127 727.5,-99.1273 584.5,-99.1273"/>
<text text-anchor="start" x="592.5" y="-117.127" font-family="Helvetica,sans-Serif" font-size="10.00">okw.log.Logger_Sngltn.Res</text>
<text text-anchor="middle" x="656" y="-106.127" font-family="Helvetica,sans-Serif" font-size="10.00">OpenList</text>
</a>
</g>
</g>
<!-- Node262&#45;&gt;Node273 -->
<g id="edge15" class="edge"><title>Node262&#45;&gt;Node273</title>
<path fill="none" stroke="midnightblue" d="M94.4683,-126.466C156.783,-95.1327 364.798,-0.856921 533,-45.1273 568.21,-54.3944 603.937,-76.3998 627.55,-93.0873"/>
<polygon fill="midnightblue" stroke="midnightblue" points="625.522,-95.9405 635.677,-98.9613 629.623,-90.267 625.522,-95.9405"/>
</g>
<!-- Node274 -->
<g id="node13" class="node"><title>Node274</title>
<g id="a_node13"><a xlink:href="classokw_1_1log_1_1_logger___sngltn.html#a9b54104f7e0b4c0a473877b19dfaed56" target="_top" xlink:title="Closes a hierarchical level in the results file that was opened with ResOpenList.">
<polygon fill="white" stroke="black" points="584.5,-11.1273 584.5,-41.1273 727.5,-41.1273 727.5,-11.1273 584.5,-11.1273"/>
<text text-anchor="start" x="592.5" y="-29.1273" font-family="Helvetica,sans-Serif" font-size="10.00">okw.log.Logger_Sngltn.Res</text>
<text text-anchor="middle" x="656" y="-18.1273" font-family="Helvetica,sans-Serif" font-size="10.00">CloseList</text>
</a>
</g>
</g>
<!-- Node262&#45;&gt;Node274 -->
<g id="edge17" class="edge"><title>Node262&#45;&gt;Node274</title>
<path fill="none" stroke="midnightblue" d="M83.1848,-126.36C99.0236,-105.727 139.272,-58.0496 186,-39.1273 313.973,12.6944 478.088,1.59136 574.382,-11.828"/>
<polygon fill="midnightblue" stroke="midnightblue" points="573.95,-15.3018 584.346,-13.2587 574.945,-8.37283 573.95,-15.3018"/>
</g>
<!-- Node275 -->
<g id="node14" class="node"><title>Node275</title>
<g id="a_node14"><a xlink:href="classokw_1_1core_1_1_o_k.html#a5a6db6a457bcb71c893f5d4eb615b2b7" target="_top" xlink:title="Zentrale Exception&#45;Behandlung.">
<polygon fill="white" stroke="black" points="186,-126.627 186,-145.627 342,-145.627 342,-126.627 186,-126.627"/>
<text text-anchor="middle" x="264" y="-133.627" font-family="Helvetica,sans-Serif" font-size="10.00">okw.core.OK.handleException</text>
</a>
</g>
</g>
<!-- Node262&#45;&gt;Node275 -->
<g id="edge18" class="edge"><title>Node262&#45;&gt;Node275</title>
<path fill="none" stroke="midnightblue" d="M150.176,-136.127C158.604,-136.127 167.252,-136.127 175.828,-136.127"/>
<polygon fill="midnightblue" stroke="midnightblue" points="175.846,-139.627 185.846,-136.127 175.846,-132.627 175.846,-139.627"/>
</g>
<!-- Node264 -->
<g id="node3" class="node"><title>Node264</title>
<g id="a_node3"><a xlink:href="classokw_1_1log_1_1_logger___sngltn.html#a313f97c79ba4662d9daaf7f537dd02f4" target="_top" xlink:title="Loggt eine Nachricht.">
<polygon fill="white" stroke="black" points="792,-443.127 792,-473.127 935,-473.127 935,-443.127 792,-443.127"/>
<text text-anchor="start" x="800" y="-461.127" font-family="Helvetica,sans-Serif" font-size="10.00">okw.log.Logger_Sngltn.Log</text>
<text text-anchor="middle" x="863.5" y="-450.127" font-family="Helvetica,sans-Serif" font-size="10.00">PrintDebug</text>
</a>
</g>
</g>
<!-- Node263&#45;&gt;Node264 -->
<g id="edge2" class="edge"><title>Node263&#45;&gt;Node264</title>
<path fill="none" stroke="midnightblue" d="M276.539,-402.131C295.039,-424.805 333.783,-466.88 378,-483.127 523.121,-536.449 709.23,-500.45 802.934,-475.808"/>
<polygon fill="midnightblue" stroke="midnightblue" points="804.049,-479.133 812.802,-473.164 802.237,-472.371 804.049,-479.133"/>
</g>
<!-- Node265 -->
<g id="node4" class="node"><title>Node265</title>
<g id="a_node4"><a xlink:href="classokw_1_1_log_messenger.html#af225d1f037d47b3b085175c09d78bdd2" target="_top" xlink:title="Holt die Log&#45;Meldung f端r MethodeNmae/Textkey ohne weitere Parameter.">
<polygon fill="white" stroke="black" points="779,-377.627 779,-396.627 948,-396.627 948,-377.627 779,-377.627"/>
<text text-anchor="middle" x="863.5" y="-384.627" font-family="Helvetica,sans-Serif" font-size="10.00">okw.LogMessenger.GetMessage</text>
</a>
</g>
</g>
<!-- Node263&#45;&gt;Node265 -->
<g id="edge3" class="edge"><title>Node263&#45;&gt;Node265</title>
<path fill="none" stroke="midnightblue" d="M341.586,-385.589C353.767,-385.397 366.228,-385.231 378,-385.127 540.216,-383.692 580.783,-383.77 743,-385.127 751.351,-385.197 760.031,-385.295 768.728,-385.409"/>
<polygon fill="midnightblue" stroke="midnightblue" points="768.881,-388.911 778.929,-385.551 768.978,-381.912 768.881,-388.911"/>
</g>
<!-- Node268 -->
<g id="node7" class="node"><title>Node268</title>
<g id="a_node7"><a xlink:href="classokw_1_1_o_k_w___helper.html#a3a7ba0f42b29adf70574830688e72e4a" target="_top" xlink:title="Pr端ft ob der gegeben String fpsStrin null oder leer (&quot;&quot;) ist.">
<polygon fill="white" stroke="black" points="379.5,-443.127 379.5,-473.127 531.5,-473.127 531.5,-443.127 379.5,-443.127"/>
<text text-anchor="start" x="387.5" y="-461.127" font-family="Helvetica,sans-Serif" font-size="10.00">okw.OKW_Helper.isStringNull</text>
<text text-anchor="middle" x="455.5" y="-450.127" font-family="Helvetica,sans-Serif" font-size="10.00">OrEmpty</text>
</a>
</g>
</g>
<!-- Node263&#45;&gt;Node268 -->
<g id="edge6" class="edge"><title>Node263&#45;&gt;Node268</title>
<path fill="none" stroke="midnightblue" d="M299.302,-402.341C321.539,-411.968 351.246,-424.389 378,-434.127 383.232,-436.032 388.697,-437.927 394.194,-439.769"/>
<polygon fill="midnightblue" stroke="midnightblue" points="393.487,-443.221 404.08,-443.019 395.673,-436.571 393.487,-443.221"/>
</g>
<!-- Node263&#45;&gt;Node269 -->
<g id="edge7" class="edge"><title>Node263&#45;&gt;Node269</title>
<path fill="none" stroke="midnightblue" d="M310.181,-372.078C330.782,-365.385 355.539,-357.578 378,-351.127 446.87,-331.348 526.134,-311.303 582.178,-297.579"/>
<polygon fill="midnightblue" stroke="midnightblue" points="583.131,-300.949 592.015,-295.177 581.47,-294.149 583.131,-300.949"/>
</g>
<!-- Node270 -->
<g id="node9" class="node"><title>Node270</title>
<g id="a_node9"><a xlink:href="classokw_1_1core_1_1_o_k_w___current_object___sngltn.html#a51204f2563ba8defb737da6653705819" target="_top" xlink:title="Methode aktualisert zwei Werte:">
<polygon fill="white" stroke="black" points="378,-394.127 378,-424.127 533,-424.127 533,-394.127 378,-394.127"/>
<text text-anchor="start" x="386" y="-412.127" font-family="Helvetica,sans-Serif" font-size="10.00">okw.core.OKW_CurrentObject</text>
<text text-anchor="middle" x="455.5" y="-401.127" font-family="Helvetica,sans-Serif" font-size="10.00">_Sngltn.updateObject</text>
</a>
</g>
</g>
<!-- Node263&#45;&gt;Node270 -->
<g id="edge8" class="edge"><title>Node263&#45;&gt;Node270</title>
<path fill="none" stroke="midnightblue" d="M341.531,-396.012C350.169,-397.015 359.017,-398.042 367.773,-399.059"/>
<polygon fill="midnightblue" stroke="midnightblue" points="367.655,-402.568 377.992,-400.245 368.462,-395.615 367.655,-402.568"/>
</g>
<!-- Node266 -->
<g id="node5" class="node"><title>Node266</title>
<g id="a_node5"><a xlink:href="classokw_1_1_log_messenger.html#a530cd6ab82ec82a04206a2e976ec06e3" target="_top" xlink:title="Interne Kernfunktion holt die Log&#45;Meldung mit Platzhaltern aus der XML&#45;Datei.">
<polygon fill="white" stroke="black" points="984,-377.627 984,-396.627 1159,-396.627 1159,-377.627 984,-377.627"/>
<text text-anchor="middle" x="1071.5" y="-384.627" font-family="Helvetica,sans-Serif" font-size="10.00">okw.LogMessenger.ReadMessage</text>
</a>
</g>
</g>
<!-- Node265&#45;&gt;Node266 -->
<g id="edge4" class="edge"><title>Node265&#45;&gt;Node266</title>
<path fill="none" stroke="midnightblue" d="M948.288,-387.127C956.603,-387.127 965.092,-387.127 973.526,-387.127"/>
<polygon fill="midnightblue" stroke="midnightblue" points="973.772,-390.627 983.772,-387.127 973.772,-383.627 973.772,-390.627"/>
</g>
<!-- Node267 -->
<g id="node6" class="node"><title>Node267</title>
<g id="a_node6"><a xlink:href="classokw_1_1_o_k_w___xml_reader.html#ab920b5335a2e1429c14cc5f8e79f39eb" target="_top" xlink:title="Lies den TextContent eines Tag.">
<polygon fill="white" stroke="black" points="1195,-372.127 1195,-402.127 1347,-402.127 1347,-372.127 1195,-372.127"/>
<text text-anchor="start" x="1203" y="-390.127" font-family="Helvetica,sans-Serif" font-size="10.00">okw.OKW_XmlReader.getText</text>
<text text-anchor="middle" x="1271" y="-379.127" font-family="Helvetica,sans-Serif" font-size="10.00">ContentSingleValue</text>
</a>
</g>
</g>
<!-- Node266&#45;&gt;Node267 -->
<g id="edge5" class="edge"><title>Node266&#45;&gt;Node267</title>
<path fill="none" stroke="midnightblue" d="M1159.13,-387.127C1167.6,-387.127 1176.19,-387.127 1184.66,-387.127"/>
<polygon fill="midnightblue" stroke="midnightblue" points="1184.89,-390.627 1194.89,-387.127 1184.89,-383.627 1184.89,-390.627"/>
</g>
<!-- Node271 -->
<g id="node10" class="node"><title>Node271</title>
<g id="a_node10"><a xlink:href="classokw_1_1_frame_object_dictionary___sngltn.html#aeec07d71cbebe71ec3ec4d27e86d6c5c" target="_top" xlink:title="Die Methode liefert das Frame&#45;Object des gegebenen FN eines Fensterobjektes zur端ck.">
<polygon fill="white" stroke="black" points="569,-443.127 569,-473.127 743,-473.127 743,-443.127 569,-443.127"/>
<text text-anchor="start" x="577" y="-461.127" font-family="Helvetica,sans-Serif" font-size="10.00">okw.FrameObjectDictionary</text>
<text text-anchor="middle" x="656" y="-450.127" font-family="Helvetica,sans-Serif" font-size="10.00">_Sngltn.getParentObjectByName</text>
</a>
</g>
</g>
<!-- Node270&#45;&gt;Node271 -->
<g id="edge9" class="edge"><title>Node270&#45;&gt;Node271</title>
<path fill="none" stroke="midnightblue" d="M517.406,-424.162C538.555,-429.383 562.449,-435.281 584.32,-440.68"/>
<polygon fill="midnightblue" stroke="midnightblue" points="583.662,-444.122 594.21,-443.121 585.34,-437.326 583.662,-444.122"/>
</g>
<!-- Node272 -->
<g id="node11" class="node"><title>Node272</title>
<g id="a_node11"><a xlink:href="classokw_1_1_frame_object_dictionary___sngltn.html#a0a71734828093357dfc88b5fa242e361" target="_top" xlink:title="Die Methode liefert das Objekt des gegebenen Kindobjekttests zur端ck.">
<polygon fill="white" stroke="black" points="572.5,-394.127 572.5,-424.127 739.5,-424.127 739.5,-394.127 572.5,-394.127"/>
<text text-anchor="start" x="580.5" y="-412.127" font-family="Helvetica,sans-Serif" font-size="10.00">okw.FrameObjectDictionary</text>
<text text-anchor="middle" x="656" y="-401.127" font-family="Helvetica,sans-Serif" font-size="10.00">_Sngltn.getChildObjectByName</text>
</a>
</g>
</g>
<!-- Node270&#45;&gt;Node272 -->
<g id="edge12" class="edge"><title>Node270&#45;&gt;Node272</title>
<path fill="none" stroke="midnightblue" d="M533.245,-409.127C542.719,-409.127 552.481,-409.127 562.162,-409.127"/>
<polygon fill="midnightblue" stroke="midnightblue" points="562.205,-412.627 572.205,-409.127 562.205,-405.627 562.205,-412.627"/>
</g>
<!-- Node271&#45;&gt;Node264 -->
<g id="edge10" class="edge"><title>Node271&#45;&gt;Node264</title>
<path fill="none" stroke="midnightblue" d="M743.257,-458.127C755.998,-458.127 769.085,-458.127 781.709,-458.127"/>
<polygon fill="midnightblue" stroke="midnightblue" points="781.718,-461.627 791.718,-458.127 781.718,-454.627 781.718,-461.627"/>
</g>
<!-- Node271&#45;&gt;Node265 -->
<g id="edge11" class="edge"><title>Node271&#45;&gt;Node265</title>
<path fill="none" stroke="midnightblue" d="M714.15,-443.065C723.83,-440.261 733.741,-437.231 743,-434.127 773.282,-423.977 807.095,-410.468 831.004,-400.538"/>
<polygon fill="midnightblue" stroke="midnightblue" points="832.412,-403.744 840.287,-396.656 829.711,-397.286 832.412,-403.744"/>
</g>
<!-- Node272&#45;&gt;Node264 -->
<g id="edge13" class="edge"><title>Node272&#45;&gt;Node264</title>
<path fill="none" stroke="midnightblue" d="M720.053,-424.162C742.047,-429.406 766.908,-435.334 789.634,-440.753"/>
<polygon fill="midnightblue" stroke="midnightblue" points="789.027,-444.206 799.566,-443.121 790.65,-437.397 789.027,-444.206"/>
</g>
<!-- Node272&#45;&gt;Node265 -->
<g id="edge14" class="edge"><title>Node272&#45;&gt;Node265</title>
<path fill="none" stroke="midnightblue" d="M739.696,-400.274C749.298,-399.246 759.143,-398.192 768.878,-397.15"/>
<polygon fill="midnightblue" stroke="midnightblue" points="769.398,-400.615 778.969,-396.07 768.653,-393.654 769.398,-400.615"/>
</g>
<!-- Node275&#45;&gt;Node269 -->
<g id="edge19" class="edge"><title>Node275&#45;&gt;Node269</title>
<path fill="none" stroke="midnightblue" d="M273.212,-145.832C290.428,-165.473 332.488,-209.863 378,-231.127 439.983,-260.087 517.078,-272.025 574.184,-276.899"/>
<polygon fill="midnightblue" stroke="midnightblue" points="573.999,-280.395 584.246,-277.702 574.557,-273.417 573.999,-280.395"/>
</g>
<!-- Node275&#45;&gt;Node273 -->
<g id="edge21" class="edge"><title>Node275&#45;&gt;Node273</title>
<path fill="none" stroke="midnightblue" d="M342.051,-131.781C409.091,-127.999 505.923,-122.537 574.079,-118.692"/>
<polygon fill="midnightblue" stroke="midnightblue" points="574.553,-122.171 584.34,-118.113 574.159,-115.182 574.553,-122.171"/>
</g>
<!-- Node275&#45;&gt;Node274 -->
<g id="edge22" class="edge"><title>Node275&#45;&gt;Node274</title>
<path fill="none" stroke="midnightblue" d="M273.136,-126.441C290.213,-106.908 332.029,-63.1286 378,-45.1273 440.773,-20.5467 517.629,-17.1525 574.447,-19.1323"/>
<polygon fill="midnightblue" stroke="midnightblue" points="574.322,-22.63 584.457,-19.5436 574.609,-15.6359 574.322,-22.63"/>
</g>
<!-- Node276 -->
<g id="node15" class="node"><title>Node276</title>
<g id="a_node15"><a xlink:href="classokw_1_1log_1_1_logger___sngltn.html#aa29d396a2b9df1ac57079d777c548181" target="_top" xlink:title="LogException Function: Logs a Script Exception to the results file.">
<polygon fill="white" stroke="black" points="384,-55.1273 384,-85.1273 527,-85.1273 527,-55.1273 384,-55.1273"/>
<text text-anchor="start" x="392" y="-73.1273" font-family="Helvetica,sans-Serif" font-size="10.00">okw.log.Logger_Sngltn.Log</text>
<text text-anchor="middle" x="455.5" y="-62.1273" font-family="Helvetica,sans-Serif" font-size="10.00">Exception</text>
</a>
</g>
</g>
<!-- Node275&#45;&gt;Node276 -->
<g id="edge20" class="edge"><title>Node275&#45;&gt;Node276</title>
<path fill="none" stroke="midnightblue" d="M292.555,-126.53C320.985,-116.628 366.045,-100.935 401.424,-88.6128"/>
<polygon fill="midnightblue" stroke="midnightblue" points="402.832,-91.8288 411.124,-85.2344 400.529,-85.2183 402.832,-91.8288"/>
</g>
<!-- Node277 -->
<g id="node16" class="node"><title>Node277</title>
<g id="a_node16"><a xlink:href="classokw_1_1core_1_1_o_k_w___current_object___sngltn.html#a01b48f2c86a2f91909143ee9063dfd86" target="_top" xlink:title="Methode gibt alle wichtigen Informationen zum aktuellen Objekt aus.">
<polygon fill="white" stroke="black" points="378,-192.127 378,-222.127 533,-222.127 533,-192.127 378,-192.127"/>
<text text-anchor="start" x="386" y="-210.127" font-family="Helvetica,sans-Serif" font-size="10.00">okw.core.OKW_CurrentObject</text>
<text text-anchor="middle" x="455.5" y="-199.127" font-family="Helvetica,sans-Serif" font-size="10.00">_Sngltn.LogObjectData</text>
</a>
</g>
</g>
<!-- Node275&#45;&gt;Node277 -->
<g id="edge23" class="edge"><title>Node275&#45;&gt;Node277</title>
<path fill="none" stroke="midnightblue" d="M287.329,-145.763C309.994,-155.414 346.179,-170.467 378,-182.127 384.027,-184.336 390.354,-186.556 396.68,-188.714"/>
<polygon fill="midnightblue" stroke="midnightblue" points="395.981,-192.172 406.575,-192.042 398.212,-185.537 395.981,-192.172"/>
</g>
<!-- Node278 -->
<g id="node17" class="node"><title>Node278</title>
<g id="a_node17"><a xlink:href="classokw_1_1core_1_1_core.html#aafe6e3d88e810dabf350b37058d4af97" target="_top" xlink:title="Setter zum Setzen des aktuellen Zustandes.">
<polygon fill="white" stroke="black" points="386,-143.127 386,-173.127 525,-173.127 525,-143.127 386,-143.127"/>
<text text-anchor="start" x="394" y="-161.127" font-family="Helvetica,sans-Serif" font-size="10.00">okw.core.Core.SetCurrent</text>
<text text-anchor="middle" x="455.5" y="-150.127" font-family="Helvetica,sans-Serif" font-size="10.00">State</text>
</a>
</g>
</g>
<!-- Node275&#45;&gt;Node278 -->
<g id="edge28" class="edge"><title>Node275&#45;&gt;Node278</title>
<path fill="none" stroke="midnightblue" d="M342.077,-145.076C353.139,-146.36 364.534,-147.683 375.63,-148.971"/>
<polygon fill="midnightblue" stroke="midnightblue" points="375.381,-152.465 385.718,-150.142 376.188,-145.512 375.381,-152.465"/>
</g>
<!-- Node277&#45;&gt;Node265 -->
<g id="edge26" class="edge"><title>Node277&#45;&gt;Node265</title>
<path fill="none" stroke="midnightblue" d="M533.308,-206.888C593.685,-209.742 678.135,-220.663 743,-256.127 792.991,-283.459 833.158,-339.741 851.577,-368.828"/>
<polygon fill="midnightblue" stroke="midnightblue" points="848.742,-370.898 856.973,-377.569 854.698,-367.221 848.742,-370.898"/>
</g>
<!-- Node277&#45;&gt;Node269 -->
<g id="edge25" class="edge"><title>Node277&#45;&gt;Node269</title>
<path fill="none" stroke="midnightblue" d="M497.629,-222.253C528.636,-233.656 571.328,-249.356 604.424,-261.527"/>
<polygon fill="midnightblue" stroke="midnightblue" points="603.33,-264.854 613.923,-265.021 605.746,-258.284 603.33,-264.854"/>
</g>
<!-- Node277&#45;&gt;Node273 -->
<g id="edge24" class="edge"><title>Node277&#45;&gt;Node273</title>
<path fill="none" stroke="midnightblue" d="M507.22,-192.079C515.929,-189.063 524.807,-185.71 533,-182.127 564.324,-168.432 598.15,-149.196 622.22,-134.677"/>
<polygon fill="midnightblue" stroke="midnightblue" points="624.222,-137.556 630.942,-129.365 620.581,-131.577 624.222,-137.556"/>
</g>
<!-- Node277&#45;&gt;Node274 -->
<g id="edge27" class="edge"><title>Node277&#45;&gt;Node274</title>
<path fill="none" stroke="midnightblue" d="M519.318,-191.979C524.287,-189.226 528.944,-185.972 533,-182.127 565.167,-151.636 542.038,-124.305 569,-89.1273 582.135,-71.9897 601.159,-57.3881 617.976,-46.5703"/>
<polygon fill="midnightblue" stroke="midnightblue" points="619.875,-49.5112 626.527,-41.2647 616.184,-43.5632 619.875,-49.5112"/>
</g>
</g>
</svg>
        <g id="navigator" transform="translate(0 0)" fill="#404254">
                <rect fill="#f2f5e9" fill-opacity="0.5" stroke="#606060" stroke-width=".5" x="0" y="0" width="60" height="60"/>
                <use id="zoomplus" xlink:href="#zoomPlus" x="17" y="9" onmousedown="handleZoom(evt,'in')"/>
                <use id="zoomminus" xlink:href="#zoomMin" x="42" y="9" onmousedown="handleZoom(evt,'out')"/>
                <use id="reset" xlink:href="#resetDef" x="30" y="36" onmousedown="handleReset()"/>
                <g id="arrowUp" xlink:href="#dirArrow" transform="translate(30 24)" onmousedown="handlePan(0,-1)">
                  <use xlink:href="#rim" fill="#404040">
                        <set attributeName="fill" to="#808080" begin="arrowUp.mouseover" end="arrowUp.mouseout"/>
                  </use>
                  <path fill="none" stroke="white" stroke-width="1.5" d="M0,-3.0v7 M-2.5,-0.5L0,-3.0L2.5,-0.5"/>
                </g>
                <g id="arrowRight" xlink:href="#dirArrow" transform="rotate(90) translate(36 -43)" onmousedown="handlePan(1,0)">
                  <use xlink:href="#rim" fill="#404040">
                        <set attributeName="fill" to="#808080" begin="arrowRight.mouseover" end="arrowRight.mouseout"/>
                  </use>
                  <path fill="none" stroke="white" stroke-width="1.5" d="M0,-3.0v7 M-2.5,-0.5L0,-3.0L2.5,-0.5"/>
                </g>
                <g id="arrowDown" xlink:href="#dirArrow" transform="rotate(180) translate(-30 -48)" onmousedown="handlePan(0,1)">
                  <use xlink:href="#rim" fill="#404040">
                        <set attributeName="fill" to="#808080" begin="arrowDown.mouseover" end="arrowDown.mouseout"/>
                  </use>
                  <path fill="none" stroke="white" stroke-width="1.5" d="M0,-3.0v7 M-2.5,-0.5L0,-3.0L2.5,-0.5"/>
                </g>
                <g id="arrowLeft" xlink:href="#dirArrow" transform="rotate(270) translate(-36 17)" onmousedown="handlePan(-1,0)">
                  <use xlink:href="#rim" fill="#404040">
                        <set attributeName="fill" to="#808080" begin="arrowLeft.mouseover" end="arrowLeft.mouseout"/>
                  </use>
                  <path fill="none" stroke="white" stroke-width="1.5" d="M0,-3.0v7 M-2.5,-0.5L0,-3.0L2.5,-0.5"/>
                </g>
        </g>
        <svg viewBox="0 0 15 15" width="100%" height="30px" preserveAspectRatio="xMaxYMin meet">
         <g id="arrow_out" transform="scale(0.3 0.3)">
          <a xlink:href="classokw_1_1core_1_1_o_k_a260d21c87a1d0df97bb442888fc87fcb_cgraph_org.svg" target="_base">
           <rect id="button" ry="5" rx="5" y="6" x="6" height="38" width="38"
                fill="#f2f5e9" fill-opacity="0.5" stroke="#606060" stroke-width="1.0"/>
           <path id="arrow"
             d="M 11.500037,31.436501 C 11.940474,20.09759 22.043105,11.32322 32.158766,21.979434 L 37.068811,17.246167 C 37.068811,17.246167 37.088388,32 37.088388,32 L 22.160133,31.978069 C 22.160133,31.978069 26.997745,27.140456 26.997745,27.140456 C 18.528582,18.264221 13.291696,25.230495 11.500037,31.436501 z"
             style="fill:#404040;"/>
          </a>
         </g>
        </svg>
</svg>
