<?xml version="1.0" encoding="UTF-8" standalone="no"?>
<!DOCTYPE svg PUBLIC "-//W3C//DTD SVG 1.1//EN"
 "http://www.w3.org/Graphics/SVG/1.1/DTD/svg11.dtd">
<!-- Generated by graphviz version 2.36.0 (20140111.2315)
 -->
<!-- Title: okw.core.OK.SelectMenu Pages: 1 -->
<svg width="1504pt" height="595pt"
 viewBox="0.00 0.00 1504.00 595.44" xmlns="http://www.w3.org/2000/svg" xmlns:xlink="http://www.w3.org/1999/xlink">
<g id="graph0" class="graph" transform="scale(1 1) rotate(0) translate(4 591.445)">
<title>okw.core.OK.SelectMenu</title>
<polygon fill="white" stroke="none" points="-4,4 -4,-591.445 1500,-591.445 1500,4 -4,4"/>
<!-- Node625 -->
<g id="node1" class="node"><title>Node625</title>
<polygon fill="#bfbfbf" stroke="black" points="0,-411.945 0,-430.945 128,-430.945 128,-411.945 0,-411.945"/>
<text text-anchor="middle" x="64" y="-418.945" font-family="Helvetica,sans-Serif" font-size="10.00">okw.core.OK.SelectMenu</text>
</g>
<!-- Node626 -->
<g id="node2" class="node"><title>Node626</title>
<g id="a_node2"><a xlink:href="classokw_1_1_o_k_w___const___sngltn.html#afdb8f095b58cbd870dbb8eb353e3b0bf" target="_top" xlink:title="Holt die einzige Instanz dieser Klasse. ">
<polygon fill="white" stroke="black" points="177.5,-552.445 177.5,-582.445 320.5,-582.445 320.5,-552.445 177.5,-552.445"/>
<text text-anchor="start" x="185.5" y="-570.445" font-family="Helvetica,sans-Serif" font-size="10.00">okw.OKW_Const_Sngltn.get</text>
<text text-anchor="middle" x="249" y="-559.445" font-family="Helvetica,sans-Serif" font-size="10.00">Instance</text>
</a>
</g>
</g>
<!-- Node625&#45;&gt;Node626 -->
<g id="edge1" class="edge"><title>Node625&#45;&gt;Node626</title>
<path fill="none" stroke="midnightblue" d="M71.2683,-431.193C85.4042,-452.484 121.841,-503.616 164,-533.445 172.091,-539.169 181.287,-544.136 190.554,-548.37"/>
<polygon fill="midnightblue" stroke="midnightblue" points="189.238,-551.614 199.807,-552.361 192.011,-545.187 189.238,-551.614"/>
</g>
<!-- Node628 -->
<g id="node4" class="node"><title>Node628</title>
<g id="a_node4"><a xlink:href="classokw_1_1_o_k_w___const___sngltn.html#a02c05c79f7ea6e862a81a64ce23941fd" target="_top" xlink:title="Methode ermittelt für Internalname und der aktuell eingestellten Sprache den Wert für OKWConst...">
<polygon fill="white" stroke="black" points="374.5,-507.445 374.5,-537.445 519.5,-537.445 519.5,-507.445 374.5,-507.445"/>
<text text-anchor="start" x="382.5" y="-525.445" font-family="Helvetica,sans-Serif" font-size="10.00">okw.OKW_Const_Sngltn.Get</text>
<text text-anchor="middle" x="447" y="-514.445" font-family="Helvetica,sans-Serif" font-size="10.00">OKWConst4Internalname</text>
</a>
</g>
</g>
<!-- Node625&#45;&gt;Node628 -->
<g id="edge3" class="edge"><title>Node625&#45;&gt;Node628</title>
<path fill="none" stroke="midnightblue" d="M73.6988,-431.014C89.6873,-447.873 125.64,-482.497 164,-497.445 228.047,-522.402 306.278,-527.552 364.08,-527.088"/>
<polygon fill="midnightblue" stroke="midnightblue" points="364.313,-530.585 374.264,-526.947 364.216,-523.586 364.313,-530.585"/>
</g>
<!-- Node630 -->
<g id="node6" class="node"><title>Node630</title>
<g id="a_node6"><a xlink:href="classokw_1_1log_1_1_logger___sngltn.html#a313f97c79ba4662d9daaf7f537dd02f4" target="_top" xlink:title="Loggt eine Nachricht. ">
<polygon fill="white" stroke="black" points="957,-405.445 957,-435.445 1091,-435.445 1091,-405.445 957,-405.445"/>
<text text-anchor="start" x="965" y="-423.445" font-family="Helvetica,sans-Serif" font-size="10.00">okw.log.Logger_Sngltn.Log</text>
<text text-anchor="middle" x="1024" y="-412.445" font-family="Helvetica,sans-Serif" font-size="10.00">PrintDebug</text>
</a>
</g>
</g>
<!-- Node625&#45;&gt;Node630 -->
<g id="edge7" class="edge"><title>Node625&#45;&gt;Node630</title>
<path fill="none" stroke="midnightblue" d="M128.316,-426.532C248.582,-435.913 518.396,-455.599 746,-462.445 817.967,-464.609 837.101,-474.986 908,-462.445 933.229,-457.982 960.196,-448.41 981.67,-439.53"/>
<polygon fill="midnightblue" stroke="midnightblue" points="983.285,-442.647 991.124,-435.519 980.552,-436.203 983.285,-442.647"/>
</g>
<!-- Node632 -->
<g id="node8" class="node"><title>Node632</title>
<g id="a_node8"><a xlink:href="classokw_1_1_log_messenger.html#af225d1f037d47b3b085175c09d78bdd2" target="_top" xlink:title="Holt die Log&#45;Meldung für MethodeNmae/Textkey ohne weitere Parameter. ">
<polygon fill="white" stroke="black" points="944,-276.945 944,-295.945 1104,-295.945 1104,-276.945 944,-276.945"/>
<text text-anchor="middle" x="1024" y="-283.945" font-family="Helvetica,sans-Serif" font-size="10.00">okw.LogMessenger.GetMessage</text>
</a>
</g>
</g>
<!-- Node625&#45;&gt;Node632 -->
<g id="edge8" class="edge"><title>Node625&#45;&gt;Node632</title>
<path fill="none" stroke="midnightblue" d="M68.1261,-411.906C89.2217,-349.538 216.914,-2.44471 446,-2.44471 446,-2.44471 446,-2.44471 636,-2.44471 759.424,-2.44471 809.994,16.5784 908,-58.4447 978.747,-112.602 1009.29,-222.24 1019.15,-266.874"/>
<polygon fill="midnightblue" stroke="midnightblue" points="1015.74,-267.681 1021.22,-276.748 1022.59,-266.242 1015.74,-267.681"/>
</g>
<!-- Node634 -->
<g id="node10" class="node"><title>Node634</title>
<g id="a_node10"><a xlink:href="classokw_1_1_o_k_w___const___sngltn.html#a3851ae4f27e2ae512749767b86b3fc13" target="_top" xlink:title="Methode trennt einen String und wandelt diesen in einen ListString um. ">
<polygon fill="white" stroke="black" points="164.5,-468.945 164.5,-487.945 333.5,-487.945 333.5,-468.945 164.5,-468.945"/>
<text text-anchor="middle" x="249" y="-475.945" font-family="Helvetica,sans-Serif" font-size="10.00">okw.OKW_Const_Sngltn.SplitSEP</text>
</a>
</g>
</g>
<!-- Node625&#45;&gt;Node634 -->
<g id="edge11" class="edge"><title>Node625&#45;&gt;Node634</title>
<path fill="none" stroke="midnightblue" d="M92.6339,-431.014C112.432,-437.782 139.769,-446.948 164,-454.445 176.691,-458.371 190.53,-462.42 203.247,-466.048"/>
<polygon fill="midnightblue" stroke="midnightblue" points="202.586,-469.498 213.161,-468.857 204.494,-462.763 202.586,-469.498"/>
</g>
<!-- Node636 -->
<g id="node12" class="node"><title>Node636</title>
<g id="a_node12"><a xlink:href="classokw_1_1core_1_1_o_k_w___current_object___sngltn.html#a461fa1ff29f4bc4a9798707ea7b71849" target="_top" xlink:title="Setzt das Kindobjekt. ">
<polygon fill="white" stroke="black" points="372.5,-307.445 372.5,-337.445 521.5,-337.445 521.5,-307.445 372.5,-307.445"/>
<text text-anchor="start" x="380.5" y="-325.445" font-family="Helvetica,sans-Serif" font-size="10.00">okw.core.OKW_CurrentObject</text>
<text text-anchor="middle" x="447" y="-314.445" font-family="Helvetica,sans-Serif" font-size="10.00">_Sngltn.setChildName</text>
</a>
</g>
</g>
<!-- Node625&#45;&gt;Node636 -->
<g id="edge14" class="edge"><title>Node625&#45;&gt;Node636</title>
<path fill="none" stroke="midnightblue" d="M101.878,-411.862C165.634,-395.296 297.368,-361.066 378.077,-340.094"/>
<polygon fill="midnightblue" stroke="midnightblue" points="379.346,-343.381 388.144,-337.478 377.585,-336.606 379.346,-343.381"/>
</g>
<!-- Node642 -->
<g id="node18" class="node"><title>Node642</title>
<g id="a_node18"><a xlink:href="classokw_1_1core_1_1_o_k.html#ae30b70ea446f3a58022a617177d0bcb6" target="_top" xlink:title="Wählt den gegebenen Menü&#45;Eintrag aus. ">
<polygon fill="white" stroke="black" points="185,-312.945 185,-331.945 313,-331.945 313,-312.945 185,-312.945"/>
<text text-anchor="middle" x="249" y="-319.945" font-family="Helvetica,sans-Serif" font-size="10.00">okw.core.OK.SelectMenu</text>
</a>
</g>
</g>
<!-- Node625&#45;&gt;Node642 -->
<g id="edge26" class="edge"><title>Node625&#45;&gt;Node642</title>
<path fill="none" stroke="midnightblue" d="M82.88,-411.772C115.215,-394.279 183.558,-357.307 221.395,-336.838"/>
<polygon fill="midnightblue" stroke="midnightblue" points="223.187,-339.848 230.317,-332.011 219.856,-333.691 223.187,-339.848"/>
</g>
<!-- Node643 -->
<g id="node19" class="node"><title>Node643</title>
<g id="a_node19"><a xlink:href="classokw_1_1core_1_1_o_k.html#a5a6db6a457bcb71c893f5d4eb615b2b7" target="_top" xlink:title="Zentrale Exception&#45;Behandlung. ">
<polygon fill="white" stroke="black" points="372.5,-178.945 372.5,-197.945 521.5,-197.945 521.5,-178.945 372.5,-178.945"/>
<text text-anchor="middle" x="447" y="-185.945" font-family="Helvetica,sans-Serif" font-size="10.00">okw.core.OK.handleException</text>
</a>
</g>
</g>
<!-- Node625&#45;&gt;Node643 -->
<g id="edge38" class="edge"><title>Node625&#45;&gt;Node643</title>
<path fill="none" stroke="midnightblue" d="M70.7312,-411.83C84.3072,-389.794 120.568,-335.11 164,-303.445 236.697,-250.443 337.339,-217.093 396.661,-200.687"/>
<polygon fill="midnightblue" stroke="midnightblue" points="397.794,-204.006 406.528,-198.009 395.961,-197.25 397.794,-204.006"/>
</g>
<!-- Node627 -->
<g id="node3" class="node"><title>Node627</title>
<g id="a_node3"><a xlink:href="classokw_1_1_o_k_w___const___sngltn.html#a8404c43fc549df30d37c369c7d6e89ae" target="_top" xlink:title="Privater Konstruktor ohne Parameter im Entwurfsmuster Singelton initialisiert die Klasse OKW_Const...">
<polygon fill="white" stroke="black" points="370.5,-556.445 370.5,-586.445 523.5,-586.445 523.5,-556.445 370.5,-556.445"/>
<text text-anchor="start" x="378.5" y="-574.445" font-family="Helvetica,sans-Serif" font-size="10.00">okw.OKW_Const_Sngltn.OKW</text>
<text text-anchor="middle" x="447" y="-563.445" font-family="Helvetica,sans-Serif" font-size="10.00">_Const_Sngltn</text>
</a>
</g>
</g>
<!-- Node626&#45;&gt;Node627 -->
<g id="edge2" class="edge"><title>Node626&#45;&gt;Node627</title>
<path fill="none" stroke="midnightblue" d="M320.76,-568.889C333.605,-569.151 347.128,-569.427 360.346,-569.697"/>
<polygon fill="midnightblue" stroke="midnightblue" points="360.31,-573.197 370.379,-569.901 360.453,-566.198 360.31,-573.197"/>
</g>
<!-- Node629 -->
<g id="node5" class="node"><title>Node629</title>
<g id="a_node5"><a xlink:href="classokw_1_1_o_k_w___const___sngltn.html#a51cde06bf07e855ba4d69ff36b9a27f7" target="_top" xlink:title="Methode ermittelt für Internalname und der aktuell eingestellten Sprache den Wert für Const...">
<polygon fill="white" stroke="black" points="754.5,-507.445 754.5,-537.445 899.5,-537.445 899.5,-507.445 754.5,-507.445"/>
<text text-anchor="start" x="762.5" y="-525.445" font-family="Helvetica,sans-Serif" font-size="10.00">okw.OKW_Const_Sngltn.Get</text>
<text text-anchor="middle" x="827" y="-514.445" font-family="Helvetica,sans-Serif" font-size="10.00">Const4Internalname</text>
</a>
</g>
</g>
<!-- Node628&#45;&gt;Node629 -->
<g id="edge4" class="edge"><title>Node628&#45;&gt;Node629</title>
<path fill="none" stroke="midnightblue" d="M519.543,-522.445C583.571,-522.445 677.394,-522.445 744.339,-522.445"/>
<polygon fill="midnightblue" stroke="midnightblue" points="744.428,-525.945 754.428,-522.445 744.428,-518.945 744.428,-525.945"/>
</g>
<!-- Node629&#45;&gt;Node630 -->
<g id="edge5" class="edge"><title>Node629&#45;&gt;Node630</title>
<path fill="none" stroke="midnightblue" d="M873.104,-507.335C884.673,-502.972 896.963,-497.9 908,-492.445 938.2,-477.517 970.548,-456.797 993.219,-441.416"/>
<polygon fill="midnightblue" stroke="midnightblue" points="995.438,-444.139 1001.71,-435.599 991.481,-438.364 995.438,-444.139"/>
</g>
<!-- Node631 -->
<g id="node7" class="node"><title>Node631</title>
<g id="a_node7"><a xlink:href="classokw_1_1_o_k_w___xml_reader.html#ab920b5335a2e1429c14cc5f8e79f39eb" target="_top" xlink:title="Lies den TextContent eines Tag. ">
<polygon fill="white" stroke="black" points="1344,-423.445 1344,-453.445 1496,-453.445 1496,-423.445 1344,-423.445"/>
<text text-anchor="start" x="1352" y="-441.445" font-family="Helvetica,sans-Serif" font-size="10.00">okw.OKW_XmlReader.getText</text>
<text text-anchor="middle" x="1420" y="-430.445" font-family="Helvetica,sans-Serif" font-size="10.00">ContentSingleValue</text>
</a>
</g>
</g>
<!-- Node629&#45;&gt;Node631 -->
<g id="edge6" class="edge"><title>Node629&#45;&gt;Node631</title>
<path fill="none" stroke="midnightblue" d="M899.583,-512.271C1008.87,-496.737 1216.94,-467.164 1333.83,-450.55"/>
<polygon fill="midnightblue" stroke="midnightblue" points="1334.41,-454.003 1343.82,-449.13 1333.42,-447.073 1334.41,-454.003"/>
</g>
<!-- Node633 -->
<g id="node9" class="node"><title>Node633</title>
<g id="a_node9"><a xlink:href="classokw_1_1_log_messenger.html#a530cd6ab82ec82a04206a2e976ec06e3" target="_top" xlink:title="Interne Kernfunktion holt die Log&#45;Meldung mit Platzhaltern aus der XML&#45;Datei. ">
<polygon fill="white" stroke="black" points="1140.5,-365.945 1140.5,-384.945 1307.5,-384.945 1307.5,-365.945 1140.5,-365.945"/>
<text text-anchor="middle" x="1224" y="-372.945" font-family="Helvetica,sans-Serif" font-size="10.00">okw.LogMessenger.ReadMessage</text>
</a>
</g>
</g>
<!-- Node632&#45;&gt;Node633 -->
<g id="edge9" class="edge"><title>Node632&#45;&gt;Node633</title>
<path fill="none" stroke="midnightblue" d="M1046.19,-295.969C1081.38,-311.786 1152,-343.529 1192.53,-361.748"/>
<polygon fill="midnightblue" stroke="midnightblue" points="1191.11,-364.947 1201.66,-365.854 1193.98,-358.562 1191.11,-364.947"/>
</g>
<!-- Node633&#45;&gt;Node631 -->
<g id="edge10" class="edge"><title>Node633&#45;&gt;Node631</title>
<path fill="none" stroke="midnightblue" d="M1254.46,-385.013C1283.14,-394.326 1327.46,-408.717 1362.88,-420.219"/>
<polygon fill="midnightblue" stroke="midnightblue" points="1362.02,-423.62 1372.61,-423.38 1364.18,-416.962 1362.02,-423.62"/>
</g>
<!-- Node634&#45;&gt;Node628 -->
<g id="edge13" class="edge"><title>Node634&#45;&gt;Node628</title>
<path fill="none" stroke="midnightblue" d="M292.529,-487.992C314.892,-493.012 343.001,-499.322 369.032,-505.166"/>
<polygon fill="midnightblue" stroke="midnightblue" points="368.367,-508.604 378.891,-507.379 369.9,-501.774 368.367,-508.604"/>
</g>
<!-- Node635 -->
<g id="node11" class="node"><title>Node635</title>
<g id="a_node11"><a xlink:href="classokw_1_1_o_k_w___helper.html#a268ba5b6db697acd241f3ebea12c4194" target="_top" xlink:title="Splittet einen String am angegebenen Separator auf. ">
<polygon fill="white" stroke="black" points="376,-468.945 376,-487.945 518,-487.945 518,-468.945 376,-468.945"/>
<text text-anchor="middle" x="447" y="-475.945" font-family="Helvetica,sans-Serif" font-size="10.00">okw.OKW_Helper.splitString</text>
</a>
</g>
</g>
<!-- Node634&#45;&gt;Node635 -->
<g id="edge12" class="edge"><title>Node634&#45;&gt;Node635</title>
<path fill="none" stroke="midnightblue" d="M333.69,-478.445C344.335,-478.445 355.209,-478.445 365.797,-478.445"/>
<polygon fill="midnightblue" stroke="midnightblue" points="365.844,-481.945 375.844,-478.445 365.844,-474.945 365.844,-481.945"/>
</g>
<!-- Node636&#45;&gt;Node630 -->
<g id="edge15" class="edge"><title>Node636&#45;&gt;Node630</title>
<path fill="none" stroke="midnightblue" d="M459.331,-337.75C477.525,-360.882 515.739,-403.814 560,-420.445 688.866,-468.864 852.524,-452.5 946.751,-436.361"/>
<polygon fill="midnightblue" stroke="midnightblue" points="947.526,-439.778 956.769,-434.601 946.315,-432.884 947.526,-439.778"/>
</g>
<!-- Node636&#45;&gt;Node632 -->
<g id="edge16" class="edge"><title>Node636&#45;&gt;Node632</title>
<path fill="none" stroke="midnightblue" d="M482.021,-307.249C503.824,-298.359 532.999,-288.011 560,-283.445 688.472,-261.717 839.877,-268.707 933.666,-276.759"/>
<polygon fill="midnightblue" stroke="midnightblue" points="933.416,-280.25 943.685,-277.642 934.031,-273.277 933.416,-280.25"/>
</g>
<!-- Node637 -->
<g id="node13" class="node"><title>Node637</title>
<g id="a_node13"><a xlink:href="classokw_1_1_o_k_w___helper.html#a3a7ba0f42b29adf70574830688e72e4a" target="_top" xlink:title="Prüft ob der gegeben String fpsStrin null oder leer (&quot;&quot;) ist. ">
<polygon fill="white" stroke="black" points="560.5,-381.445 560.5,-411.445 709.5,-411.445 709.5,-381.445 560.5,-381.445"/>
<text text-anchor="start" x="568.5" y="-399.445" font-family="Helvetica,sans-Serif" font-size="10.00">okw.OKW_Helper.isStringNull</text>
<text text-anchor="middle" x="635" y="-388.445" font-family="Helvetica,sans-Serif" font-size="10.00">OrEmpty</text>
</a>
</g>
</g>
<!-- Node636&#45;&gt;Node637 -->
<g id="edge17" class="edge"><title>Node636&#45;&gt;Node637</title>
<path fill="none" stroke="midnightblue" d="M486.089,-337.598C515.273,-349.209 555.698,-365.292 586.912,-377.711"/>
<polygon fill="midnightblue" stroke="midnightblue" points="585.695,-380.993 596.28,-381.438 588.283,-374.489 585.695,-380.993"/>
</g>
<!-- Node638 -->
<g id="node14" class="node"><title>Node638</title>
<g id="a_node14"><a xlink:href="classokw_1_1log_1_1_logger___sngltn.html#a8ebceaddd6cc6963ddb8e08c72ea808c" target="_top" xlink:title="LogPrint Function: Prints the values of expressions to the results file. ">
<polygon fill="white" stroke="black" points="760,-205.445 760,-235.445 894,-235.445 894,-205.445 760,-205.445"/>
<text text-anchor="start" x="768" y="-223.445" font-family="Helvetica,sans-Serif" font-size="10.00">okw.log.Logger_Sngltn.Log</text>
<text text-anchor="middle" x="827" y="-212.445" font-family="Helvetica,sans-Serif" font-size="10.00">Print</text>
</a>
</g>
</g>
<!-- Node636&#45;&gt;Node638 -->
<g id="edge18" class="edge"><title>Node636&#45;&gt;Node638</title>
<path fill="none" stroke="midnightblue" d="M465.634,-307.385C486.612,-290.402 523.412,-263.462 560,-250.445 621.392,-228.602 695.33,-221.687 749.654,-219.9"/>
<polygon fill="midnightblue" stroke="midnightblue" points="750.006,-223.391 759.905,-219.615 749.812,-216.394 750.006,-223.391"/>
</g>
<!-- Node639 -->
<g id="node15" class="node"><title>Node639</title>
<g id="a_node15"><a xlink:href="classokw_1_1core_1_1_o_k_w___current_object___sngltn.html#a51204f2563ba8defb737da6653705819" target="_top" xlink:title="Methode aktualisert zwei Werte: ">
<polygon fill="white" stroke="black" points="560.5,-293.445 560.5,-323.445 709.5,-323.445 709.5,-293.445 560.5,-293.445"/>
<text text-anchor="start" x="568.5" y="-311.445" font-family="Helvetica,sans-Serif" font-size="10.00">okw.core.OKW_CurrentObject</text>
<text text-anchor="middle" x="635" y="-300.445" font-family="Helvetica,sans-Serif" font-size="10.00">_Sngltn.updateObject</text>
</a>
</g>
</g>
<!-- Node636&#45;&gt;Node639 -->
<g id="edge19" class="edge"><title>Node636&#45;&gt;Node639</title>
<path fill="none" stroke="midnightblue" d="M521.512,-316.912C531.008,-316.197 540.788,-315.461 550.431,-314.735"/>
<polygon fill="midnightblue" stroke="midnightblue" points="550.704,-318.224 560.413,-313.984 550.178,-311.244 550.704,-318.224"/>
</g>
<!-- Node640 -->
<g id="node16" class="node"><title>Node640</title>
<g id="a_node16"><a xlink:href="classokw_1_1_frame_object_dictionary___sngltn.html#aeec07d71cbebe71ec3ec4d27e86d6c5c" target="_top" xlink:title="Die Methode liefert das Frame&#45;Object des gegebenen FN eines Fensterobjektes zurück. ">
<polygon fill="white" stroke="black" points="746.5,-293.445 746.5,-323.445 907.5,-323.445 907.5,-293.445 746.5,-293.445"/>
<text text-anchor="start" x="754.5" y="-311.445" font-family="Helvetica,sans-Serif" font-size="10.00">okw.FrameObjectDictionary</text>
<text text-anchor="middle" x="827" y="-300.445" font-family="Helvetica,sans-Serif" font-size="10.00">_Sngltn.getParentObjectByName</text>
</a>
</g>
</g>
<!-- Node639&#45;&gt;Node640 -->
<g id="edge20" class="edge"><title>Node639&#45;&gt;Node640</title>
<path fill="none" stroke="midnightblue" d="M709.731,-308.445C718.447,-308.445 727.414,-308.445 736.319,-308.445"/>
<polygon fill="midnightblue" stroke="midnightblue" points="736.33,-311.945 746.33,-308.445 736.33,-304.945 736.33,-311.945"/>
</g>
<!-- Node641 -->
<g id="node17" class="node"><title>Node641</title>
<g id="a_node17"><a xlink:href="classokw_1_1_frame_object_dictionary___sngltn.html#a0a71734828093357dfc88b5fa242e361" target="_top" xlink:title="Die Methode liefert das Objekt des gegebenen Kindobjekttests zurück. ">
<polygon fill="white" stroke="black" points="749.5,-342.445 749.5,-372.445 904.5,-372.445 904.5,-342.445 749.5,-342.445"/>
<text text-anchor="start" x="757.5" y="-360.445" font-family="Helvetica,sans-Serif" font-size="10.00">okw.FrameObjectDictionary</text>
<text text-anchor="middle" x="827" y="-349.445" font-family="Helvetica,sans-Serif" font-size="10.00">_Sngltn.getChildObjectByName</text>
</a>
</g>
</g>
<!-- Node639&#45;&gt;Node641 -->
<g id="edge23" class="edge"><title>Node639&#45;&gt;Node641</title>
<path fill="none" stroke="midnightblue" d="M694.297,-323.479C714.45,-328.677 737.206,-334.545 758.064,-339.924"/>
<polygon fill="midnightblue" stroke="midnightblue" points="757.256,-343.33 767.813,-342.439 759.004,-336.552 757.256,-343.33"/>
</g>
<!-- Node640&#45;&gt;Node630 -->
<g id="edge21" class="edge"><title>Node640&#45;&gt;Node630</title>
<path fill="none" stroke="midnightblue" d="M887.071,-323.494C894.278,-326.104 901.414,-329.08 908,-332.445 942.694,-350.169 977.525,-378.682 999.614,-398.426"/>
<polygon fill="midnightblue" stroke="midnightblue" points="997.395,-401.139 1007.15,-405.268 1002.1,-395.955 997.395,-401.139"/>
</g>
<!-- Node640&#45;&gt;Node632 -->
<g id="edge22" class="edge"><title>Node640&#45;&gt;Node632</title>
<path fill="none" stroke="midnightblue" d="M907.595,-299.465C916.224,-298.491 925.047,-297.496 933.78,-296.511"/>
<polygon fill="midnightblue" stroke="midnightblue" points="934.43,-299.959 943.975,-295.36 933.645,-293.004 934.43,-299.959"/>
</g>
<!-- Node641&#45;&gt;Node630 -->
<g id="edge24" class="edge"><title>Node641&#45;&gt;Node630</title>
<path fill="none" stroke="midnightblue" d="M874.707,-372.535C902.343,-381.463 937.533,-392.832 966.697,-402.254"/>
<polygon fill="midnightblue" stroke="midnightblue" points="965.744,-405.625 976.336,-405.369 967.897,-398.964 965.744,-405.625"/>
</g>
<!-- Node641&#45;&gt;Node632 -->
<g id="edge25" class="edge"><title>Node641&#45;&gt;Node632</title>
<path fill="none" stroke="midnightblue" d="M878.128,-342.435C888.073,-339.274 898.403,-335.858 908,-332.445 936.541,-322.294 968.495,-309.385 991.463,-299.828"/>
<polygon fill="midnightblue" stroke="midnightblue" points="992.845,-303.043 1000.72,-295.955 990.143,-296.586 992.845,-303.043"/>
</g>
<!-- Node642&#45;&gt;Node636 -->
<g id="edge27" class="edge"><title>Node642&#45;&gt;Node636</title>
<path fill="none" stroke="midnightblue" d="M313.095,-322.445C328.756,-322.445 345.787,-322.445 362.267,-322.445"/>
<polygon fill="midnightblue" stroke="midnightblue" points="362.44,-325.945 372.44,-322.445 362.44,-318.945 362.44,-325.945"/>
</g>
<!-- Node642&#45;&gt;Node643 -->
<g id="edge28" class="edge"><title>Node642&#45;&gt;Node643</title>
<path fill="none" stroke="midnightblue" d="M264.096,-312.808C297.717,-289.822 382.839,-231.626 423.589,-203.767"/>
<polygon fill="midnightblue" stroke="midnightblue" points="425.752,-206.528 432.032,-197.994 421.801,-200.749 425.752,-206.528"/>
</g>
<!-- Node643&#45;&gt;Node630 -->
<g id="edge31" class="edge"><title>Node643&#45;&gt;Node630</title>
<path fill="none" stroke="midnightblue" d="M454.303,-198.109C473.551,-227.347 531.956,-313.989 560,-332.445 617.54,-370.313 643.479,-353.559 710,-371.445 726.036,-375.756 729.743,-378.058 746,-381.445 813.249,-395.456 890.748,-405.89 946.64,-412.423"/>
<polygon fill="midnightblue" stroke="midnightblue" points="946.482,-415.928 956.818,-413.597 947.285,-408.974 946.482,-415.928"/>
</g>
<!-- Node643&#45;&gt;Node638 -->
<g id="edge29" class="edge"><title>Node643&#45;&gt;Node638</title>
<path fill="none" stroke="midnightblue" d="M521.78,-194.691C587.584,-200.261 683.523,-208.383 749.996,-214.01"/>
<polygon fill="midnightblue" stroke="midnightblue" points="749.732,-217.501 759.992,-214.857 750.323,-210.526 749.732,-217.501"/>
</g>
<!-- Node644 -->
<g id="node20" class="node"><title>Node644</title>
<g id="a_node20"><a xlink:href="classokw_1_1log_1_1_logger___sngltn.html#aa29d396a2b9df1ac57079d777c548181" target="_top" xlink:title="LogException Function: Logs a Script Exception to the results file. ">
<polygon fill="white" stroke="black" points="568,-80.4447 568,-110.445 702,-110.445 702,-80.4447 568,-80.4447"/>
<text text-anchor="start" x="576" y="-98.4447" font-family="Helvetica,sans-Serif" font-size="10.00">okw.log.Logger_Sngltn.Log</text>
<text text-anchor="middle" x="635" y="-87.4447" font-family="Helvetica,sans-Serif" font-size="10.00">Exception</text>
</a>
</g>
</g>
<!-- Node643&#45;&gt;Node644 -->
<g id="edge30" class="edge"><title>Node643&#45;&gt;Node644</title>
<path fill="none" stroke="midnightblue" d="M461.207,-178.852C481.578,-164.4 522.268,-136.881 560,-119.445 564.04,-117.578 568.266,-115.794 572.564,-114.102"/>
<polygon fill="midnightblue" stroke="midnightblue" points="573.905,-117.337 582.04,-110.551 571.448,-110.783 573.905,-117.337"/>
</g>
<!-- Node645 -->
<g id="node21" class="node"><title>Node645</title>
<g id="a_node21"><a xlink:href="classokw_1_1core_1_1_o_k_w___current_object___sngltn.html#a01b48f2c86a2f91909143ee9063dfd86" target="_top" xlink:title="Methode gibt alle wichtigen Informationen zum aktuellen Objekt aus. ">
<polygon fill="white" stroke="black" points="560.5,-129.445 560.5,-159.445 709.5,-159.445 709.5,-129.445 560.5,-129.445"/>
<text text-anchor="start" x="568.5" y="-147.445" font-family="Helvetica,sans-Serif" font-size="10.00">okw.core.OKW_CurrentObject</text>
<text text-anchor="middle" x="635" y="-136.445" font-family="Helvetica,sans-Serif" font-size="10.00">_Sngltn.LogObjectData</text>
</a>
</g>
</g>
<!-- Node643&#45;&gt;Node645 -->
<g id="edge32" class="edge"><title>Node643&#45;&gt;Node645</title>
<path fill="none" stroke="midnightblue" d="M488.359,-178.897C509.394,-173.921 535.786,-167.678 560.306,-161.878"/>
<polygon fill="midnightblue" stroke="midnightblue" points="561.389,-165.218 570.315,-159.51 559.777,-158.406 561.389,-165.218"/>
</g>
<!-- Node648 -->
<g id="node24" class="node"><title>Node648</title>
<g id="a_node24"><a xlink:href="classokw_1_1core_1_1_core.html#aafe6e3d88e810dabf350b37058d4af97" target="_top" xlink:title="Setter zum Setzen des aktuellen Zustandes. ">
<polygon fill="white" stroke="black" points="569.5,-31.4447 569.5,-61.4447 700.5,-61.4447 700.5,-31.4447 569.5,-31.4447"/>
<text text-anchor="start" x="577.5" y="-49.4447" font-family="Helvetica,sans-Serif" font-size="10.00">okw.core.Core.SetCurrent</text>
<text text-anchor="middle" x="635" y="-38.4447" font-family="Helvetica,sans-Serif" font-size="10.00">State</text>
</a>
</g>
</g>
<!-- Node643&#45;&gt;Node648 -->
<g id="edge37" class="edge"><title>Node643&#45;&gt;Node648</title>
<path fill="none" stroke="midnightblue" d="M454.638,-178.638C470.32,-156.199 511.977,-100.724 560,-70.4447 562.601,-68.8048 565.324,-67.2668 568.128,-65.8255"/>
<polygon fill="midnightblue" stroke="midnightblue" points="569.721,-68.9446 577.304,-61.5452 566.762,-62.6009 569.721,-68.9446"/>
</g>
<!-- Node645&#45;&gt;Node632 -->
<g id="edge35" class="edge"><title>Node645&#45;&gt;Node632</title>
<path fill="none" stroke="midnightblue" d="M709.554,-154.181C777.641,-163.923 873.404,-179.688 908,-195.445 948.063,-213.692 986.47,-248.804 1007.18,-269.675"/>
<polygon fill="midnightblue" stroke="midnightblue" points="1004.74,-272.183 1014.22,-276.912 1009.76,-267.303 1004.74,-272.183"/>
</g>
<!-- Node645&#45;&gt;Node638 -->
<g id="edge34" class="edge"><title>Node645&#45;&gt;Node638</title>
<path fill="none" stroke="midnightblue" d="M673.745,-159.467C685.403,-164.181 698.261,-169.458 710,-174.445 726.115,-181.29 729.796,-183.812 746,-190.445 755.266,-194.237 765.208,-198.116 774.825,-201.771"/>
<polygon fill="midnightblue" stroke="midnightblue" points="773.704,-205.089 784.296,-205.34 776.172,-198.538 773.704,-205.089"/>
</g>
<!-- Node646 -->
<g id="node22" class="node"><title>Node646</title>
<g id="a_node22"><a xlink:href="classokw_1_1log_1_1_logger___sngltn.html#ab4fc711bb4c754f251372ff3b14ab9c9" target="_top" xlink:title="Creates a new hierarchical level in the results file. ">
<polygon fill="white" stroke="black" points="758.5,-117.445 758.5,-147.445 895.5,-147.445 895.5,-117.445 758.5,-117.445"/>
<text text-anchor="start" x="766.5" y="-135.445" font-family="Helvetica,sans-Serif" font-size="10.00">okw.log.Logger_Sngltn.Res</text>
<text text-anchor="middle" x="827" y="-124.445" font-family="Helvetica,sans-Serif" font-size="10.00">OpenList</text>
</a>
</g>
</g>
<!-- Node645&#45;&gt;Node646 -->
<g id="edge33" class="edge"><title>Node645&#45;&gt;Node646</title>
<path fill="none" stroke="midnightblue" d="M709.731,-139.788C722.324,-138.993 735.443,-138.164 748.139,-137.362"/>
<polygon fill="midnightblue" stroke="midnightblue" points="748.453,-140.849 758.213,-136.726 748.012,-133.863 748.453,-140.849"/>
</g>
<!-- Node647 -->
<g id="node23" class="node"><title>Node647</title>
<g id="a_node23"><a xlink:href="classokw_1_1log_1_1_logger___sngltn.html#a9b54104f7e0b4c0a473877b19dfaed56" target="_top" xlink:title="Closes a hierarchical level in the results file that was opened with ResOpenList. ...">
<polygon fill="white" stroke="black" points="758.5,-68.4447 758.5,-98.4447 895.5,-98.4447 895.5,-68.4447 758.5,-68.4447"/>
<text text-anchor="start" x="766.5" y="-86.4447" font-family="Helvetica,sans-Serif" font-size="10.00">okw.log.Logger_Sngltn.Res</text>
<text text-anchor="middle" x="827" y="-75.4447" font-family="Helvetica,sans-Serif" font-size="10.00">CloseList</text>
</a>
</g>
</g>
<!-- Node645&#45;&gt;Node647 -->
<g id="edge36" class="edge"><title>Node645&#45;&gt;Node647</title>
<path fill="none" stroke="midnightblue" d="M680.646,-129.35C708.156,-120.062 739.4,-109.544 746,-107.445 752.076,-105.512 758.424,-103.535 764.773,-101.587"/>
<polygon fill="midnightblue" stroke="midnightblue" points="766.165,-104.822 774.71,-98.558 764.124,-98.1257 766.165,-104.822"/>
</g>
</g>
</svg>
