<?xml version="1.0" encoding="UTF-8" standalone="no"?>
<!DOCTYPE svg PUBLIC "-//W3C//DTD SVG 1.1//EN"
 "http://www.w3.org/Graphics/SVG/1.1/DTD/svg11.dtd">
<!-- Generated by graphviz version 2.26.3 (20100126.1600)
 -->
<!-- Title: okw.gui.AnyWinBase.getFN Pages: 1 -->
<svg width="316pt" height="146pt"
 viewBox="0.00 0.00 316.00 146.00" xmlns="http://www.w3.org/2000/svg" xmlns:xlink="http://www.w3.org/1999/xlink">
<g id="graph1" class="graph" transform="scale(1 1) rotate(0) translate(4 142)">
<title>okw.gui.AnyWinBase.getFN</title>
<polygon fill="white" stroke="white" points="-4,5 -4,-142 313,-142 313,5 -4,5"/>
<!-- Node3 -->
<g id="node1" class="node"><title>Node3</title>
<polygon fill="#bfbfbf" stroke="black" points="0,-58.5 0,-79.5 140,-79.5 140,-58.5 0,-58.5"/>
<text text-anchor="middle" x="70" y="-66.5" font-family="Helvetica,sans-Serif" font-size="10.00">okw.gui.AnyWinBase.getFN</text>
</g>
<!-- Node4 -->
<g id="node3" class="node"><title>Node4</title>
<a xlink:href="classokw_1_1gui_1_1adapter_1_1selenium_1_1_se_input_radio.html#a7dce83be09a4af05f50b0e74aa9d27f7" target="_top" xlink:title="Ein SeInputButton IstkeinMenüobject! &#45;&gt; OKWFrameObjectMethodNotImplemented Auslösen! ...">
<polygon fill="white" stroke="black" points="176.5,-104 176.5,-138 307.5,-138 307.5,-104 176.5,-104"/>
<text text-anchor="start" x="184.5" y="-125" font-family="Helvetica,sans-Serif" font-size="10.00">okw.gui.adapter.selenium.</text>
<text text-anchor="middle" x="242" y="-112" font-family="Helvetica,sans-Serif" font-size="10.00">SeInputRadio.SetValue</text>
</a>
</g>
<!-- Node3&#45;&gt;Node4 -->
<g id="edge2" class="edge"><title>Node3&#45;&gt;Node4</title>
<path fill="none" stroke="midnightblue" d="M114.421,-82.4296C136.12,-88.9898 162.47,-96.9561 185.577,-103.942"/>
<polygon fill="midnightblue" stroke="midnightblue" points="115.392,-79.0667 104.807,-79.523 113.366,-85.7672 115.392,-79.0667"/>
</g>
<!-- Node5 -->
<g id="node5" class="node"><title>Node5</title>
<a xlink:href="classokw_1_1gui_1_1adapter_1_1selenium_1_1_se_radio_list.html#a793c9fd7670b1d77ee48996f7b287807" target="_top" xlink:title="okw.gui.adapter.selenium.\lSeRadioList.SeRadioList">
<polygon fill="white" stroke="black" points="176.5,-52 176.5,-86 307.5,-86 307.5,-52 176.5,-52"/>
<text text-anchor="start" x="184.5" y="-73" font-family="Helvetica,sans-Serif" font-size="10.00">okw.gui.adapter.selenium.</text>
<text text-anchor="middle" x="242" y="-60" font-family="Helvetica,sans-Serif" font-size="10.00">SeRadioList.SeRadioList</text>
</a>
</g>
<!-- Node3&#45;&gt;Node5 -->
<g id="edge4" class="edge"><title>Node3&#45;&gt;Node5</title>
<path fill="none" stroke="midnightblue" d="M150.551,-69C159.198,-69 167.918,-69 176.361,-69"/>
<polygon fill="midnightblue" stroke="midnightblue" points="150.455,-65.5001 140.455,-69 150.455,-72.5001 150.455,-65.5001"/>
</g>
<!-- Node6 -->
<g id="node7" class="node"><title>Node6</title>
<a xlink:href="classokw_1_1gui_1_1adapter_1_1selenium_1_1_se_radio_list.html#a2de5dcb9d606e72dbe9e5a9cbef481ad" target="_top" xlink:title="Ermittelt den textuellen Inhalt des markierten Textes für Prüfewert. ">
<polygon fill="white" stroke="black" points="176.5,-0 176.5,-34 307.5,-34 307.5,-0 176.5,-0"/>
<text text-anchor="start" x="184.5" y="-21" font-family="Helvetica,sans-Serif" font-size="10.00">okw.gui.adapter.selenium.</text>
<text text-anchor="middle" x="242" y="-8" font-family="Helvetica,sans-Serif" font-size="10.00">SeRadioList.getValue</text>
</a>
</g>
<!-- Node3&#45;&gt;Node6 -->
<g id="edge6" class="edge"><title>Node3&#45;&gt;Node6</title>
<path fill="none" stroke="midnightblue" d="M114.421,-55.5704C136.12,-49.0102 162.47,-41.0439 185.577,-34.0582"/>
<polygon fill="midnightblue" stroke="midnightblue" points="113.366,-52.2328 104.807,-58.477 115.392,-58.9333 113.366,-52.2328"/>
</g>
</g>
</svg>
