<?xml version="1.0" encoding="UTF-8" standalone="no"?>
<!DOCTYPE svg PUBLIC "-//W3C//DTD SVG 1.1//EN"
 "http://www.w3.org/Graphics/SVG/1.1/DTD/svg11.dtd">
<!-- Generated by graphviz version 2.26.3 (20100126.1600)
 -->
<!-- Title: okw.core.Core.VerifyLabel Pages: 1 -->
<!--zoomable 134 -->
<svg id="main" version="1.1" xmlns="http://www.w3.org/2000/svg" xmlns:xlink="http://www.w3.org/1999/xlink" xml:space="preserve" onload="init(evt)">
<style type="text/css"><![CDATA[
.edge:hover path { stroke: red; }
.edge:hover polygon { stroke: red; fill: red; }
]]></style>
<script type="text/javascript"><![CDATA[
var edges = document.getElementsByTagName('g');
if (edges && edges.length) {
  for (var i=0;i<edges.length;i++) {
    if (edges[i].id.substr(0,4)=='edge') {
      edges[i].setAttribute('class','edge');
    }
  }
}
]]></script>
        <defs>
                <circle id="rim" cx="0" cy="0" r="7"/>
                <circle id="rim2" cx="0" cy="0" r="3.5"/>
                <g id="zoomPlus">
                        <use xlink:href="#rim" fill="#404040">
                                <set attributeName="fill" to="#808080" begin="zoomplus.mouseover" end="zoomplus.mouseout"/>
                        </use>
                        <path d="M-4,0h8M0,-4v8" fill="none" stroke="white" stroke-width="1.5" pointer-events="none"/>
                </g>
                <g id="zoomMin">
                        <use xlink:href="#rim" fill="#404040">
                                <set attributeName="fill" to="#808080" begin="zoomminus.mouseover" end="zoomminus.mouseout"/>
                        </use>
                        <path d="M-4,0h8" fill="none" stroke="white" stroke-width="1.5" pointer-events="none"/>
                </g>
                <g id="dirArrow">
                        <path fill="none" stroke="white" stroke-width="1.5" d="M0,-3.0v7 M-2.5,-0.5L0,-3.0L2.5,-0.5"/>
                </g>
               <g id="resetDef">
                       <use xlink:href="#rim2" fill="#404040">
                               <set attributeName="fill" to="#808080" begin="reset.mouseover" end="reset.mouseout"/>
                       </use>
               </g>
        </defs>

<script type="text/javascript">
var viewWidth = 728;
var viewHeight = 134;
var sectionId = 'dynsection-92';
</script>
<script xlink:href="svgpan.js"/>
<svg id="graph" class="graph">
<g id="viewport">
<title>okw.core.Core.VerifyLabel</title>
<polygon fill="white" stroke="white" points="-4,5 -4,-130 725,-130 725,5 -4,5"/>
<!-- Node2995 -->
<g id="node1" class="node"><title>Node2995</title>
<polygon fill="#bfbfbf" stroke="black" points="0,-52.5 0,-73.5 132,-73.5 132,-52.5 0,-52.5"/>
<text text-anchor="middle" x="66" y="-60.5" font-family="Helvetica,sans-Serif" font-size="10.00">okw.core.Core.VerifyLabel</text>
</g>
<!-- Node2996 -->
<g id="node3" class="node"><title>Node2996</title>
<a xlink:href="classokw_1_1log_1_1_logger___sngltn.html#a70ec25e200e00ecefc544e8fd371d2ef" target="_top" xlink:title="Ausgabe eines Schlüsselwortes. ">
<polygon fill="white" stroke="black" points="181,-92 181,-126 315,-126 315,-92 181,-92"/>
<text text-anchor="start" x="189" y="-113" font-family="Helvetica,sans-Serif" font-size="10.00">okw.log.Logger_Sngltn.Log</text>
<text text-anchor="middle" x="248" y="-100" font-family="Helvetica,sans-Serif" font-size="10.00">KeyWordStart</text>
</a>
</g>
<!-- Node2995&#45;&gt;Node2996 -->
<g id="edge2" class="edge"><title>Node2995&#45;&gt;Node2996</title>
<path fill="none" stroke="midnightblue" d="M107.754,-73.5533C126.502,-78.2918 149.24,-84.0388 170.902,-89.5138"/>
<polygon fill="midnightblue" stroke="midnightblue" points="170.208,-92.9484 180.761,-92.0056 171.924,-86.1618 170.208,-92.9484"/>
</g>
<!-- Node2997 -->
<g id="node5" class="node"><title>Node2997</title>
<a xlink:href="classokw_1_1_log_messenger.html#af225d1f037d47b3b085175c09d78bdd2" target="_top" xlink:title="Holt die Log&#45;Meldung für MethodeNmae/Textkey ohne weitere Parameter. ">
<polygon fill="white" stroke="black" points="168,-52.5 168,-73.5 328,-73.5 328,-52.5 168,-52.5"/>
<text text-anchor="middle" x="248" y="-60.5" font-family="Helvetica,sans-Serif" font-size="10.00">okw.LogMessenger.GetMessage</text>
</a>
</g>
<!-- Node2995&#45;&gt;Node2997 -->
<g id="edge4" class="edge"><title>Node2995&#45;&gt;Node2997</title>
<path fill="none" stroke="midnightblue" d="M132.221,-63C140.549,-63 149.177,-63 157.795,-63"/>
<polygon fill="midnightblue" stroke="midnightblue" points="157.889,-66.5001 167.889,-63 157.889,-59.5001 157.889,-66.5001"/>
</g>
<!-- Node3000 -->
<g id="node11" class="node"><title>Node3000</title>
<a xlink:href="interfaceokw_1_1core_1_1_i_o_k_w___state.html#a39449615efcf006fddf5389238470efc" target="_top" xlink:title="Überprüft die Beschreibung des Objektes. ">
<polygon fill="white" stroke="black" points="176.5,-0 176.5,-34 319.5,-34 319.5,-0 176.5,-0"/>
<text text-anchor="start" x="184.5" y="-21" font-family="Helvetica,sans-Serif" font-size="10.00">okw.core.IOKW_State.Verify</text>
<text text-anchor="middle" x="248" y="-8" font-family="Helvetica,sans-Serif" font-size="10.00">Label</text>
</a>
</g>
<!-- Node2995&#45;&gt;Node3000 -->
<g id="edge10" class="edge"><title>Node2995&#45;&gt;Node3000</title>
<path fill="none" stroke="midnightblue" d="M107.754,-52.4467C126.411,-47.7312 149.02,-42.017 170.587,-36.566"/>
<polygon fill="midnightblue" stroke="midnightblue" points="171.567,-39.9283 180.405,-34.0845 169.852,-33.1417 171.567,-39.9283"/>
</g>
<!-- Node2998 -->
<g id="node7" class="node"><title>Node2998</title>
<a xlink:href="classokw_1_1_log_messenger.html#a530cd6ab82ec82a04206a2e976ec06e3" target="_top" xlink:title="Interne Kernfunktion holt die Log&#45;Meldung mit Platzhaltern aus der XML&#45;Datei. ">
<polygon fill="white" stroke="black" points="364.5,-52.5 364.5,-73.5 531.5,-73.5 531.5,-52.5 364.5,-52.5"/>
<text text-anchor="middle" x="448" y="-60.5" font-family="Helvetica,sans-Serif" font-size="10.00">okw.LogMessenger.ReadMessage</text>
</a>
</g>
<!-- Node2997&#45;&gt;Node2998 -->
<g id="edge6" class="edge"><title>Node2997&#45;&gt;Node2998</title>
<path fill="none" stroke="midnightblue" d="M328.195,-63C336.709,-63 345.423,-63 354.075,-63"/>
<polygon fill="midnightblue" stroke="midnightblue" points="354.189,-66.5001 364.189,-63 354.189,-59.5001 354.189,-66.5001"/>
</g>
<!-- Node2999 -->
<g id="node9" class="node"><title>Node2999</title>
<a xlink:href="classokw_1_1_o_k_w___xml_reader.html#ab920b5335a2e1429c14cc5f8e79f39eb" target="_top" xlink:title="Lies den TextContent eines Tag. ">
<polygon fill="white" stroke="black" points="568,-46 568,-80 720,-80 720,-46 568,-46"/>
<text text-anchor="start" x="576" y="-67" font-family="Helvetica,sans-Serif" font-size="10.00">okw.OKW_XmlReader.getText</text>
<text text-anchor="middle" x="644" y="-54" font-family="Helvetica,sans-Serif" font-size="10.00">ContentSingleValue</text>
</a>
</g>
<!-- Node2998&#45;&gt;Node2999 -->
<g id="edge8" class="edge"><title>Node2998&#45;&gt;Node2999</title>
<path fill="none" stroke="midnightblue" d="M531.69,-63C540.29,-63 549.041,-63 557.669,-63"/>
<polygon fill="midnightblue" stroke="midnightblue" points="557.725,-66.5001 567.725,-63 557.725,-59.5001 557.725,-66.5001"/>
</g>
</g>
</svg>
        <g id="navigator" transform="translate(0 0)" fill="#404254">
                <rect fill="#f2f5e9" fill-opacity="0.5" stroke="#606060" stroke-width=".5" x="0" y="0" width="60" height="60"/>
                <use id="zoomplus" xlink:href="#zoomPlus" x="17" y="9" onmousedown="handleZoom(evt,'in')"/>
                <use id="zoomminus" xlink:href="#zoomMin" x="42" y="9" onmousedown="handleZoom(evt,'out')"/>
                <use id="reset" xlink:href="#resetDef" x="30" y="36" onmousedown="handleReset()"/>
                <g id="arrowUp" xlink:href="#dirArrow" transform="translate(30 24)" onmousedown="handlePan(0,-1)">
                  <use xlink:href="#rim" fill="#404040">
                        <set attributeName="fill" to="#808080" begin="arrowUp.mouseover" end="arrowUp.mouseout"/>
                  </use>
                  <path fill="none" stroke="white" stroke-width="1.5" d="M0,-3.0v7 M-2.5,-0.5L0,-3.0L2.5,-0.5"/>
                </g>
                <g id="arrowRight" xlink:href="#dirArrow" transform="rotate(90) translate(36 -43)" onmousedown="handlePan(1,0)">
                  <use xlink:href="#rim" fill="#404040">
                        <set attributeName="fill" to="#808080" begin="arrowRight.mouseover" end="arrowRight.mouseout"/>
                  </use>
                  <path fill="none" stroke="white" stroke-width="1.5" d="M0,-3.0v7 M-2.5,-0.5L0,-3.0L2.5,-0.5"/>
                </g>
                <g id="arrowDown" xlink:href="#dirArrow" transform="rotate(180) translate(-30 -48)" onmousedown="handlePan(0,1)">
                  <use xlink:href="#rim" fill="#404040">
                        <set attributeName="fill" to="#808080" begin="arrowDown.mouseover" end="arrowDown.mouseout"/>
                  </use>
                  <path fill="none" stroke="white" stroke-width="1.5" d="M0,-3.0v7 M-2.5,-0.5L0,-3.0L2.5,-0.5"/>
                </g>
                <g id="arrowLeft" xlink:href="#dirArrow" transform="rotate(270) translate(-36 17)" onmousedown="handlePan(-1,0)">
                  <use xlink:href="#rim" fill="#404040">
                        <set attributeName="fill" to="#808080" begin="arrowLeft.mouseover" end="arrowLeft.mouseout"/>
                  </use>
                  <path fill="none" stroke="white" stroke-width="1.5" d="M0,-3.0v7 M-2.5,-0.5L0,-3.0L2.5,-0.5"/>
                </g>
        </g>
        <svg viewBox="0 0 15 15" width="100%" height="30px" preserveAspectRatio="xMaxYMin meet">
         <g id="arrow_out" transform="scale(0.3 0.3)">
          <a xlink:href="classokw_1_1core_1_1_core_a278a288682afcbfad17e90df17e3c53d_cgraph_org.svg" target="_base">
           <rect id="button" ry="5" rx="5" y="6" x="6" height="38" width="38"
                fill="#f2f5e9" fill-opacity="0.5" stroke="#606060" stroke-width="1.0"/>
           <path id="arrow"
             d="M 11.500037,31.436501 C 11.940474,20.09759 22.043105,11.32322 32.158766,21.979434 L 37.068811,17.246167 C 37.068811,17.246167 37.088388,32 37.088388,32 L 22.160133,31.978069 C 22.160133,31.978069 26.997745,27.140456 26.997745,27.140456 C 18.528582,18.264221 13.291696,25.230495 11.500037,31.436501 z"
             style="fill:#404040;"/>
          </a>
         </g>
        </svg>
</svg>
