<?xml version="1.0" encoding="UTF-8" standalone="no"?>
<!DOCTYPE svg PUBLIC "-//W3C//DTD SVG 1.1//EN"
 "http://www.w3.org/Graphics/SVG/1.1/DTD/svg11.dtd">
<!-- Generated by graphviz version 2.36.0 (20140111.2315)
 -->
<!-- Title: okw.core.Core.MemorizeCaption Pages: 1 -->
<svg width="588pt" height="364pt"
 viewBox="0.00 0.00 588.00 364.00" xmlns="http://www.w3.org/2000/svg" xmlns:xlink="http://www.w3.org/1999/xlink">
<g id="graph0" class="graph" transform="scale(1 1) rotate(0) translate(4 360)">
<title>okw.core.Core.MemorizeCaption</title>
<polygon fill="white" stroke="none" points="-4,4 -4,-360 584,-360 584,4 -4,4"/>
<!-- Node926 -->
<g id="node1" class="node"><title>Node926</title>
<polygon fill="#bfbfbf" stroke="black" points="0,-137.5 0,-156.5 160,-156.5 160,-137.5 0,-137.5"/>
<text text-anchor="middle" x="80" y="-144.5" font-family="Helvetica,sans-Serif" font-size="10.00">okw.core.Core.MemorizeCaption</text>
</g>
<!-- Node927 -->
<g id="node2" class="node"><title>Node927</title>
<g id="a_node2"><a xlink:href="classokw_1_1core_1_1_e_n.html#ab10f0a1c40f0093a14c4be313d59a94a" target="_top" xlink:title="Keine Beschreibung zu &quot;MemorizeCaption&quot; verfügbar. ">
<polygon fill="white" stroke="black" points="196.5,-162.5 196.5,-181.5 349.5,-181.5 349.5,-162.5 196.5,-162.5"/>
<text text-anchor="middle" x="273" y="-169.5" font-family="Helvetica,sans-Serif" font-size="10.00">okw.core.EN.MemorizeCaption</text>
</a>
</g>
</g>
<!-- Node926&#45;&gt;Node927 -->
<g id="edge1" class="edge"><title>Node926&#45;&gt;Node927</title>
<path fill="none" stroke="midnightblue" d="M163.959,-157.859C175.668,-159.391 187.632,-160.957 199.132,-162.462"/>
<polygon fill="midnightblue" stroke="midnightblue" points="164.123,-154.35 153.754,-156.523 163.215,-161.291 164.123,-154.35"/>
</g>
<!-- Node935 -->
<g id="node10" class="node"><title>Node935</title>
<g id="a_node10"><a xlink:href="classokw_1_1core_1_1_current_object___test.html#aa1febf6b516ce833a6faee16d1fede7d" target="_top" xlink:title="Testziel: Prüft den Aufruf der Methode MemorizeCaption( FN, MemKey ) im ChildObject. ">
<polygon fill="white" stroke="black" points="206,-102.5 206,-143.5 340,-143.5 340,-102.5 206,-102.5"/>
<text text-anchor="start" x="214" y="-131.5" font-family="Helvetica,sans-Serif" font-size="10.00">okw.core.CurrentObject</text>
<text text-anchor="start" x="214" y="-120.5" font-family="Helvetica,sans-Serif" font-size="10.00">_Test.tc_MemorizeCaption</text>
<text text-anchor="middle" x="273" y="-109.5" font-family="Helvetica,sans-Serif" font-size="10.00">_ChildObject</text>
</a>
</g>
</g>
<!-- Node926&#45;&gt;Node935 -->
<g id="edge9" class="edge"><title>Node926&#45;&gt;Node935</title>
<path fill="none" stroke="midnightblue" d="M166.746,-136.226C179.885,-134.575 193.274,-132.892 205.903,-131.305"/>
<polygon fill="midnightblue" stroke="midnightblue" points="166.248,-132.761 156.763,-137.48 167.121,-139.706 166.248,-132.761"/>
</g>
<!-- Node928 -->
<g id="node3" class="node"><title>Node928</title>
<g id="a_node3"><a xlink:href="classokw_1_1core_1_1_e_n___o_k_w_not_allowed_value_exception___keywords___i_g_n_o_r_e.html#a44061b4b16fc67763dccaa6423cd7d91" target="_top" xlink:title="Prüft ob &quot;${IGNORE} &quot; die Ausnahme okw.exceptions.OKWNotAllowedValueException auslöst. ">
<polygon fill="white" stroke="black" points="386,-314.5 386,-355.5 580,-355.5 580,-314.5 386,-314.5"/>
<text text-anchor="start" x="394" y="-343.5" font-family="Helvetica,sans-Serif" font-size="10.00">okw.core.EN_OKWNotAllowed</text>
<text text-anchor="start" x="394" y="-332.5" font-family="Helvetica,sans-Serif" font-size="10.00">ValueException_Keywords</text>
<text text-anchor="middle" x="483" y="-321.5" font-family="Helvetica,sans-Serif" font-size="10.00">_IGNORE.tcMemorizeCaptionIGNORE1</text>
</a>
</g>
</g>
<!-- Node927&#45;&gt;Node928 -->
<g id="edge2" class="edge"><title>Node927&#45;&gt;Node928</title>
<path fill="none" stroke="midnightblue" d="M284.868,-190.44C302.544,-218.878 340.197,-273.348 386,-304 391.822,-307.896 398.169,-311.332 404.734,-314.355"/>
<polygon fill="midnightblue" stroke="midnightblue" points="287.65,-188.28 279.468,-181.549 281.667,-191.913 287.65,-188.28"/>
</g>
<!-- Node929 -->
<g id="node4" class="node"><title>Node929</title>
<g id="a_node4"><a xlink:href="classokw_1_1core_1_1_e_n___o_k_w_not_allowed_value_exception___keywords___i_g_n_o_r_e.html#af4c82cc048fb7ee517f87292034e252a" target="_top" xlink:title="Prüft ob &quot;&quot;${IGNORE}${TCN}&quot; die Ausnahme okw.exceptions.OKWNotAllowedValueException auslöst...">
<polygon fill="white" stroke="black" points="386,-254.5 386,-295.5 580,-295.5 580,-254.5 386,-254.5"/>
<text text-anchor="start" x="394" y="-283.5" font-family="Helvetica,sans-Serif" font-size="10.00">okw.core.EN_OKWNotAllowed</text>
<text text-anchor="start" x="394" y="-272.5" font-family="Helvetica,sans-Serif" font-size="10.00">ValueException_Keywords</text>
<text text-anchor="middle" x="483" y="-261.5" font-family="Helvetica,sans-Serif" font-size="10.00">_IGNORE.tcMemorizeCaptionIGNORE2</text>
</a>
</g>
</g>
<!-- Node927&#45;&gt;Node929 -->
<g id="edge3" class="edge"><title>Node927&#45;&gt;Node929</title>
<path fill="none" stroke="midnightblue" d="M294.214,-187.639C315.906,-203.815 351.86,-228.917 386,-245 393.266,-248.423 401.021,-251.585 408.854,-254.468"/>
<polygon fill="midnightblue" stroke="midnightblue" points="296.191,-184.746 286.103,-181.508 291.97,-190.33 296.191,-184.746"/>
</g>
<!-- Node930 -->
<g id="node5" class="node"><title>Node930</title>
<g id="a_node5"><a xlink:href="classokw_1_1_se_button_1_1_se_button___e_n___test.html#a9945d7e2b928f3055a48cfdd63c5c7f7" target="_top" xlink:title="Test des Schlüsselwortes MemorizeCaption für den GUI&#45;Adapter SeButton. ">
<polygon fill="white" stroke="black" points="408.5,-206 408.5,-236 557.5,-236 557.5,-206 408.5,-206"/>
<text text-anchor="start" x="416.5" y="-224" font-family="Helvetica,sans-Serif" font-size="10.00">okw.SeButton.SeButton</text>
<text text-anchor="middle" x="483" y="-213" font-family="Helvetica,sans-Serif" font-size="10.00">_EN_Test.tcMemorizeCaption</text>
</a>
</g>
</g>
<!-- Node927&#45;&gt;Node930 -->
<g id="edge4" class="edge"><title>Node927&#45;&gt;Node930</title>
<path fill="none" stroke="midnightblue" d="M324.628,-183.927C352.794,-190.562 388.124,-198.885 418.17,-205.963"/>
<polygon fill="midnightblue" stroke="midnightblue" points="325.134,-180.45 314.598,-181.564 323.529,-187.264 325.134,-180.45"/>
</g>
<!-- Node931 -->
<g id="node6" class="node"><title>Node931</title>
<g id="a_node6"><a xlink:href="classokw_1_1_se_input_checkbox_1_1_se_input_checkbox___e_n___test.html#ad572d5badb79741c496835cbb5c2d6df" target="_top" xlink:title="Prüft die SetFocusFunktion bei Textfelder mit dem Attribute &quot;ReadOnly&quot;. ">
<polygon fill="white" stroke="black" points="404,-157 404,-187 562,-187 562,-157 404,-157"/>
<text text-anchor="start" x="412" y="-175" font-family="Helvetica,sans-Serif" font-size="10.00">okw.SeInputCheckbox.SeInput</text>
<text text-anchor="middle" x="483" y="-164" font-family="Helvetica,sans-Serif" font-size="10.00">Checkbox_EN_Test.tcSetFocus</text>
</a>
</g>
</g>
<!-- Node927&#45;&gt;Node931 -->
<g id="edge5" class="edge"><title>Node927&#45;&gt;Node931</title>
<path fill="none" stroke="midnightblue" d="M359.722,-172C374.362,-172 389.501,-172 403.929,-172"/>
<polygon fill="midnightblue" stroke="midnightblue" points="359.681,-168.5 349.681,-172 359.681,-175.5 359.681,-168.5"/>
</g>
<!-- Node932 -->
<g id="node7" class="node"><title>Node932</title>
<g id="a_node7"><a xlink:href="classokw_1_1_se_input_field_1_1_se_input_field___e_n___test.html#a27d58cefa1bfc6754c9183baf8d6a41b" target="_top" xlink:title="okw.SeInputField.SeInput\lField_EN_Test.tcSelect\l_OKWGUIObjectNotFoundException">
<polygon fill="white" stroke="black" points="393.5,-97.5 393.5,-138.5 572.5,-138.5 572.5,-97.5 393.5,-97.5"/>
<text text-anchor="start" x="401.5" y="-126.5" font-family="Helvetica,sans-Serif" font-size="10.00">okw.SeInputField.SeInput</text>
<text text-anchor="start" x="401.5" y="-115.5" font-family="Helvetica,sans-Serif" font-size="10.00">Field_EN_Test.tcSelect</text>
<text text-anchor="middle" x="483" y="-104.5" font-family="Helvetica,sans-Serif" font-size="10.00">_OKWGUIObjectNotFoundException</text>
</a>
</g>
</g>
<!-- Node927&#45;&gt;Node932 -->
<g id="edge6" class="edge"><title>Node927&#45;&gt;Node932</title>
<path fill="none" stroke="midnightblue" d="M320.705,-159.875C344.955,-153.579 375.245,-145.715 403.008,-138.507"/>
<polygon fill="midnightblue" stroke="midnightblue" points="319.507,-156.57 310.707,-162.47 321.266,-163.345 319.507,-156.57"/>
</g>
<!-- Node933 -->
<g id="node8" class="node"><title>Node933</title>
<g id="a_node8"><a xlink:href="classokw_1_1_se_input_radio_1_1_se_input_radio___e_n___test.html#a93400968b75eee4f5489d382006d91e3" target="_top" xlink:title="Test des Schlüsselwortes MemorizeCaption für den GUI&#45;Adapter SeInputRadio. ">
<polygon fill="white" stroke="black" points="393.5,-49 393.5,-79 572.5,-79 572.5,-49 393.5,-49"/>
<text text-anchor="start" x="401.5" y="-67" font-family="Helvetica,sans-Serif" font-size="10.00">okw.SeInputRadio.SeInput</text>
<text text-anchor="middle" x="483" y="-56" font-family="Helvetica,sans-Serif" font-size="10.00">Radio_EN_Test.tc_MemorizeCaption</text>
</a>
</g>
</g>
<!-- Node927&#45;&gt;Node933 -->
<g id="edge7" class="edge"><title>Node927&#45;&gt;Node933</title>
<path fill="none" stroke="midnightblue" d="M340.415,-158.15C343.794,-156.345 347.018,-154.305 350,-152 375.825,-132.046 360.053,-107.795 386,-88 390.507,-84.5614 395.448,-81.6105 400.635,-79.0787"/>
<polygon fill="midnightblue" stroke="midnightblue" points="338.793,-155.044 331.172,-162.404 341.719,-161.403 338.793,-155.044"/>
</g>
<!-- Node934 -->
<g id="node9" class="node"><title>Node934</title>
<g id="a_node9"><a xlink:href="classokw_1_1_se_link_1_1_se_link___e_n___test.html#ade5477cb18a1aaf96deb62f11f8a69c0" target="_top" xlink:title="Tooltip eines Textfeldes Prüfen. ">
<polygon fill="white" stroke="black" points="419.5,-0 419.5,-30 546.5,-30 546.5,-0 419.5,-0"/>
<text text-anchor="start" x="427.5" y="-18" font-family="Helvetica,sans-Serif" font-size="10.00">okw.SeLink.SeLink_EN</text>
<text text-anchor="middle" x="483" y="-7" font-family="Helvetica,sans-Serif" font-size="10.00">_Test.TC_LogToolTip_en</text>
</a>
</g>
</g>
<!-- Node927&#45;&gt;Node934 -->
<g id="edge8" class="edge"><title>Node927&#45;&gt;Node934</title>
<path fill="none" stroke="midnightblue" d="M343.101,-157.493C345.55,-155.848 347.865,-154.024 350,-152 387.951,-116.034 348.003,-75.9177 386,-40 395.262,-31.2451 407.19,-25.4627 419.47,-21.6658"/>
<polygon fill="midnightblue" stroke="midnightblue" points="341.331,-154.473 334.324,-162.42 344.757,-160.577 341.331,-154.473"/>
</g>
</g>
</svg>
