<?xml version="1.0" encoding="UTF-8" standalone="no"?>
<!DOCTYPE svg PUBLIC "-//W3C//DTD SVG 1.1//EN"
 "http://www.w3.org/Graphics/SVG/1.1/DTD/svg11.dtd">
<!-- Generated by graphviz version 2.36.0 (20140111.2315)
 -->
<!-- Title: okw.gui.adapter.selenium.webdriver.SeFirefoxApp Pages: 1 -->
<svg width="945pt" height="1564pt"
 viewBox="0.00 0.00 945.00 1564.00" xmlns="http://www.w3.org/2000/svg" xmlns:xlink="http://www.w3.org/1999/xlink">
<g id="graph0" class="graph" transform="scale(1 1) rotate(0) translate(4 1560)">
<title>okw.gui.adapter.selenium.webdriver.SeFirefoxApp</title>
<polygon fill="white" stroke="none" points="-4,4 -4,-1560 941,-1560 941,4 -4,4"/>
<!-- Node5 -->
<g id="node1" class="node"><title>Node5</title>
<polygon fill="#bfbfbf" stroke="black" points="400,-0.5 400,-123.5 576,-123.5 576,-0.5 400,-0.5"/>
<text text-anchor="start" x="408" y="-111.5" font-family="Helvetica,sans-Serif" font-size="10.00">okw.gui.adapter.selenium.webdriver.</text>
<text text-anchor="middle" x="488" y="-100.5" font-family="Helvetica,sans-Serif" font-size="10.00">SeFirefoxApp</text>
<polyline fill="none" stroke="black" points="400,-93.5 576,-93.5 "/>
<text text-anchor="middle" x="488" y="-81.5" font-family="Helvetica,sans-Serif" font-size="10.00"> </text>
<polyline fill="none" stroke="black" points="400,-74.5 576,-74.5 "/>
<text text-anchor="start" x="408" y="-62.5" font-family="Helvetica,sans-Serif" font-size="10.00">+ SeFirefoxApp()</text>
<text text-anchor="start" x="408" y="-51.5" font-family="Helvetica,sans-Serif" font-size="10.00">+ Init()</text>
<text text-anchor="start" x="408" y="-40.5" font-family="Helvetica,sans-Serif" font-size="10.00">+ SelectWindow()</text>
<text text-anchor="start" x="408" y="-29.5" font-family="Helvetica,sans-Serif" font-size="10.00">+ StartApp()</text>
<text text-anchor="start" x="408" y="-18.5" font-family="Helvetica,sans-Serif" font-size="10.00">+ StopApp()</text>
<text text-anchor="start" x="408" y="-7.5" font-family="Helvetica,sans-Serif" font-size="10.00">+ TypeKey()</text>
</g>
<!-- Node6 -->
<g id="node2" class="node"><title>Node6</title>
<g id="a_node2"><a xlink:href="classokw_1_1gui_1_1_any_window.html" target="_top" xlink:title="Description of AnyWin. ">
<polygon fill="white" stroke="black" points="642,-163 642,-341 770,-341 770,-163 642,-163"/>
<text text-anchor="middle" x="706" y="-329" font-family="Helvetica,sans-Serif" font-size="10.00">okw.gui.AnyWindow</text>
<polyline fill="none" stroke="black" points="642,-322 770,-322 "/>
<text text-anchor="middle" x="706" y="-310" font-family="Helvetica,sans-Serif" font-size="10.00"> </text>
<polyline fill="none" stroke="black" points="642,-303 770,-303 "/>
<text text-anchor="start" x="650" y="-291" font-family="Helvetica,sans-Serif" font-size="10.00">+ AnyWindow()</text>
<text text-anchor="start" x="650" y="-280" font-family="Helvetica,sans-Serif" font-size="10.00">+ getExists()</text>
<text text-anchor="start" x="650" y="-269" font-family="Helvetica,sans-Serif" font-size="10.00">+ getCaption()</text>
<text text-anchor="start" x="650" y="-258" font-family="Helvetica,sans-Serif" font-size="10.00">+ getIsActive()</text>
<text text-anchor="start" x="650" y="-247" font-family="Helvetica,sans-Serif" font-size="10.00">+ TypeKeyWindow()</text>
<text text-anchor="start" x="650" y="-236" font-family="Helvetica,sans-Serif" font-size="10.00">+ SelectWindow()</text>
<text text-anchor="start" x="650" y="-225" font-family="Helvetica,sans-Serif" font-size="10.00">+ StartApp()</text>
<text text-anchor="start" x="650" y="-214" font-family="Helvetica,sans-Serif" font-size="10.00">+ StopApp()</text>
<text text-anchor="start" x="650" y="-203" font-family="Helvetica,sans-Serif" font-size="10.00">+ VerifyWindowExists()</text>
<text text-anchor="start" x="650" y="-192" font-family="Helvetica,sans-Serif" font-size="10.00">+ VerifyIsWindowActive()</text>
<text text-anchor="start" x="650" y="-181" font-family="Helvetica,sans-Serif" font-size="10.00">+ VerifyWindowCaption()</text>
<text text-anchor="start" x="650" y="-170" font-family="Helvetica,sans-Serif" font-size="10.00">+ WaitForMe()</text>
</a>
</g>
</g>
<!-- Node6&#45;&gt;Node5 -->
<g id="edge1" class="edge"><title>Node6&#45;&gt;Node5</title>
<path fill="none" stroke="midnightblue" d="M633.969,-188.881C609.611,-167.876 582.459,-144.46 558.242,-123.576"/>
<polygon fill="none" stroke="midnightblue" points="631.913,-191.73 641.772,-195.611 636.485,-186.429 631.913,-191.73"/>
</g>
<!-- Node7 -->
<g id="node3" class="node"><title>Node7</title>
<g id="a_node3"><a xlink:href="classokw_1_1gui_1_1_any_win_base.html" target="_top" xlink:title="Description of AnyWin. ">
<polygon fill="white" stroke="black" points="533,-391 533,-657 667,-657 667,-391 533,-391"/>
<text text-anchor="middle" x="600" y="-645" font-family="Helvetica,sans-Serif" font-size="10.00">okw.gui.AnyWinBase</text>
<polyline fill="none" stroke="black" points="533,-638 667,-638 "/>
<text text-anchor="start" x="541" y="-626" font-family="Helvetica,sans-Serif" font-size="10.00">&#45; myFN</text>
<text text-anchor="start" x="541" y="-615" font-family="Helvetica,sans-Serif" font-size="10.00">&#45; myKN</text>
<text text-anchor="start" x="541" y="-604" font-family="Helvetica,sans-Serif" font-size="10.00">&#45; myParentFN</text>
<polyline fill="none" stroke="black" points="533,-597 667,-597 "/>
<text text-anchor="start" x="541" y="-585" font-family="Helvetica,sans-Serif" font-size="10.00">+ getLocator()</text>
<text text-anchor="start" x="541" y="-574" font-family="Helvetica,sans-Serif" font-size="10.00">+ getLOCATOR()</text>
<text text-anchor="start" x="541" y="-563" font-family="Helvetica,sans-Serif" font-size="10.00">+ setLocator()</text>
<text text-anchor="start" x="541" y="-552" font-family="Helvetica,sans-Serif" font-size="10.00">+ getExists()</text>
<text text-anchor="start" x="541" y="-541" font-family="Helvetica,sans-Serif" font-size="10.00">+ AnyWinBase()</text>
<text text-anchor="start" x="541" y="-530" font-family="Helvetica,sans-Serif" font-size="10.00">+ AnyWinBase()</text>
<text text-anchor="start" x="541" y="-519" font-family="Helvetica,sans-Serif" font-size="10.00">+ getFN()</text>
<text text-anchor="start" x="541" y="-508" font-family="Helvetica,sans-Serif" font-size="10.00">+ getKN()</text>
<text text-anchor="start" x="541" y="-497" font-family="Helvetica,sans-Serif" font-size="10.00">+ getParentFN()</text>
<text text-anchor="start" x="541" y="-486" font-family="Helvetica,sans-Serif" font-size="10.00">+ setFN()</text>
<text text-anchor="start" x="541" y="-475" font-family="Helvetica,sans-Serif" font-size="10.00">+ setKN()</text>
<text text-anchor="start" x="541" y="-464" font-family="Helvetica,sans-Serif" font-size="10.00">+ setParentFN()</text>
<text text-anchor="start" x="541" y="-453" font-family="Helvetica,sans-Serif" font-size="10.00"># LogFunctionStartDebug()</text>
<text text-anchor="start" x="541" y="-442" font-family="Helvetica,sans-Serif" font-size="10.00"># LogFunctionStartDebug()</text>
<text text-anchor="start" x="541" y="-431" font-family="Helvetica,sans-Serif" font-size="10.00"># LogFunctionEndDebug()</text>
<text text-anchor="start" x="541" y="-420" font-family="Helvetica,sans-Serif" font-size="10.00"># LogFunctionEndDebug()</text>
<text text-anchor="start" x="541" y="-409" font-family="Helvetica,sans-Serif" font-size="10.00"># LogFunctionEndDebug()</text>
<text text-anchor="start" x="541" y="-398" font-family="Helvetica,sans-Serif" font-size="10.00"># LogFunctionEndDebug()</text>
</a>
</g>
</g>
<!-- Node7&#45;&gt;Node6 -->
<g id="edge2" class="edge"><title>Node7&#45;&gt;Node6</title>
<path fill="none" stroke="midnightblue" d="M655.631,-381.299C660.996,-367.633 666.325,-354.059 671.398,-341.138"/>
<polygon fill="none" stroke="midnightblue" points="652.31,-380.181 651.913,-390.768 658.826,-382.739 652.31,-380.181"/>
</g>
<!-- Node8 -->
<g id="node4" class="node"><title>Node8</title>
<g id="a_node4"><a xlink:href="classokw_1_1gui_1_1_o_k_w_locator.html" target="_top" xlink:title="Description of OKWLocator. ">
<polygon fill="white" stroke="black" points="604,-734.5 604,-813.5 714,-813.5 714,-734.5 604,-734.5"/>
<text text-anchor="middle" x="659" y="-801.5" font-family="Helvetica,sans-Serif" font-size="10.00">okw.gui.OKWLocator</text>
<polyline fill="none" stroke="black" points="604,-794.5 714,-794.5 "/>
<text text-anchor="start" x="612" y="-782.5" font-family="Helvetica,sans-Serif" font-size="10.00">&#45; _locator</text>
<polyline fill="none" stroke="black" points="604,-775.5 714,-775.5 "/>
<text text-anchor="start" x="612" y="-763.5" font-family="Helvetica,sans-Serif" font-size="10.00">+ OKWLocator()</text>
<text text-anchor="start" x="612" y="-752.5" font-family="Helvetica,sans-Serif" font-size="10.00">+ getLocator()</text>
<text text-anchor="start" x="612" y="-741.5" font-family="Helvetica,sans-Serif" font-size="10.00">+ setLocator()</text>
</a>
</g>
</g>
<!-- Node8&#45;&gt;Node7 -->
<g id="edge3" class="edge"><title>Node8&#45;&gt;Node7</title>
<path fill="none" stroke="#404040" d="M649.781,-734.25C645.45,-716.045 639.989,-693.089 634.282,-669.101"/>
<polygon fill="none" stroke="#404040" points="634.242,-668.933 628.962,-664.022 631.465,-657.259 636.745,-662.171 634.242,-668.933"/>
<text text-anchor="middle" x="660.5" y="-679.5" font-family="Helvetica,sans-Serif" font-size="10.00"> #_locator</text>
</g>
<!-- Node8&#45;&gt;Node8 -->
<g id="edge4" class="edge"><title>Node8&#45;&gt;Node8</title>
<path fill="none" stroke="#404040" d="M714.073,-790.425C724.574,-788.459 732,-782.984 732,-774 732,-768.806 729.518,-764.785 725.395,-761.937"/>
<polygon fill="none" stroke="#404040" points="725.271,-761.889 718.234,-763.465 714.073,-757.575 721.11,-756 725.271,-761.889"/>
<text text-anchor="middle" x="759.5" y="-771.5" font-family="Helvetica,sans-Serif" font-size="10.00"> &#45;_Locatoren</text>
</g>
<!-- Node9 -->
<g id="node5" class="node"><title>Node9</title>
<g id="a_node5"><a xlink:href="classokw_1_1log_1_1_logger___sngltn.html" target="_top" xlink:title="{okw.log.Logger_Sngltn\n|&#45; cvbDebugMode\l|+ getDebugMode()\l+ setDebugMode()\l+ addLogger()\l+ reset()\l+ LogError()\l+ LogException()\l+ LogFunctionEnd()\l+ LogFunctionEnd()\l+ LogFunctionEnd()\l+ LogFunctionEnd()\l+ LogFunctionEndDebug()\l+ LogFunctionEndDebug()\l+ LogFunctionEndDebug()\l+ LogFunctionEndDebug()\l+ LogFunctionStart()\l+ LogFunctionStartDebug()\l+ LogKeyWordEnd()\l+ LogSequenceEnd()\l+ LogTestcaseEnd()\l+ LogKeyWordStart()\l+ LogSequenceStart()\l+ LogTestcaseStart()\l+ LogPass()\l+ LogPrint()\l+ LogPrintDebug()\l+ LogWarning()\l+ ResCloseList()\l+ ResCloseListDebug()\l+ ResOpenList()\l+ ResOpenListDebug()\l+ getInstance()\l+ init()\l&#45; Logger_Sngltn()\l}">
<polygon fill="white" stroke="black" points="449,-890.5 449,-1299.5 583,-1299.5 583,-890.5 449,-890.5"/>
<text text-anchor="middle" x="516" y="-1287.5" font-family="Helvetica,sans-Serif" font-size="10.00">okw.log.Logger_Sngltn</text>
<polyline fill="none" stroke="black" points="449,-1280.5 583,-1280.5 "/>
<text text-anchor="start" x="457" y="-1268.5" font-family="Helvetica,sans-Serif" font-size="10.00">&#45; cvbDebugMode</text>
<polyline fill="none" stroke="black" points="449,-1261.5 583,-1261.5 "/>
<text text-anchor="start" x="457" y="-1249.5" font-family="Helvetica,sans-Serif" font-size="10.00">+ getDebugMode()</text>
<text text-anchor="start" x="457" y="-1238.5" font-family="Helvetica,sans-Serif" font-size="10.00">+ setDebugMode()</text>
<text text-anchor="start" x="457" y="-1227.5" font-family="Helvetica,sans-Serif" font-size="10.00">+ addLogger()</text>
<text text-anchor="start" x="457" y="-1216.5" font-family="Helvetica,sans-Serif" font-size="10.00">+ reset()</text>
<text text-anchor="start" x="457" y="-1205.5" font-family="Helvetica,sans-Serif" font-size="10.00">+ LogError()</text>
<text text-anchor="start" x="457" y="-1194.5" font-family="Helvetica,sans-Serif" font-size="10.00">+ LogException()</text>
<text text-anchor="start" x="457" y="-1183.5" font-family="Helvetica,sans-Serif" font-size="10.00">+ LogFunctionEnd()</text>
<text text-anchor="start" x="457" y="-1172.5" font-family="Helvetica,sans-Serif" font-size="10.00">+ LogFunctionEnd()</text>
<text text-anchor="start" x="457" y="-1161.5" font-family="Helvetica,sans-Serif" font-size="10.00">+ LogFunctionEnd()</text>
<text text-anchor="start" x="457" y="-1150.5" font-family="Helvetica,sans-Serif" font-size="10.00">+ LogFunctionEnd()</text>
<text text-anchor="start" x="457" y="-1139.5" font-family="Helvetica,sans-Serif" font-size="10.00">+ LogFunctionEndDebug()</text>
<text text-anchor="start" x="457" y="-1128.5" font-family="Helvetica,sans-Serif" font-size="10.00">+ LogFunctionEndDebug()</text>
<text text-anchor="start" x="457" y="-1117.5" font-family="Helvetica,sans-Serif" font-size="10.00">+ LogFunctionEndDebug()</text>
<text text-anchor="start" x="457" y="-1106.5" font-family="Helvetica,sans-Serif" font-size="10.00">+ LogFunctionEndDebug()</text>
<text text-anchor="start" x="457" y="-1095.5" font-family="Helvetica,sans-Serif" font-size="10.00">+ LogFunctionStart()</text>
<text text-anchor="start" x="457" y="-1084.5" font-family="Helvetica,sans-Serif" font-size="10.00">+ LogFunctionStartDebug()</text>
<text text-anchor="start" x="457" y="-1073.5" font-family="Helvetica,sans-Serif" font-size="10.00">+ LogKeyWordEnd()</text>
<text text-anchor="start" x="457" y="-1062.5" font-family="Helvetica,sans-Serif" font-size="10.00">+ LogSequenceEnd()</text>
<text text-anchor="start" x="457" y="-1051.5" font-family="Helvetica,sans-Serif" font-size="10.00">+ LogTestcaseEnd()</text>
<text text-anchor="start" x="457" y="-1040.5" font-family="Helvetica,sans-Serif" font-size="10.00">+ LogKeyWordStart()</text>
<text text-anchor="start" x="457" y="-1029.5" font-family="Helvetica,sans-Serif" font-size="10.00">+ LogSequenceStart()</text>
<text text-anchor="start" x="457" y="-1018.5" font-family="Helvetica,sans-Serif" font-size="10.00">+ LogTestcaseStart()</text>
<text text-anchor="start" x="457" y="-1007.5" font-family="Helvetica,sans-Serif" font-size="10.00">+ LogPass()</text>
<text text-anchor="start" x="457" y="-996.5" font-family="Helvetica,sans-Serif" font-size="10.00">+ LogPrint()</text>
<text text-anchor="start" x="457" y="-985.5" font-family="Helvetica,sans-Serif" font-size="10.00">+ LogPrintDebug()</text>
<text text-anchor="start" x="457" y="-974.5" font-family="Helvetica,sans-Serif" font-size="10.00">+ LogWarning()</text>
<text text-anchor="start" x="457" y="-963.5" font-family="Helvetica,sans-Serif" font-size="10.00">+ ResCloseList()</text>
<text text-anchor="start" x="457" y="-952.5" font-family="Helvetica,sans-Serif" font-size="10.00">+ ResCloseListDebug()</text>
<text text-anchor="start" x="457" y="-941.5" font-family="Helvetica,sans-Serif" font-size="10.00">+ ResOpenList()</text>
<text text-anchor="start" x="457" y="-930.5" font-family="Helvetica,sans-Serif" font-size="10.00">+ ResOpenListDebug()</text>
<text text-anchor="start" x="457" y="-919.5" font-family="Helvetica,sans-Serif" font-size="10.00">+ getInstance()</text>
<text text-anchor="start" x="457" y="-908.5" font-family="Helvetica,sans-Serif" font-size="10.00">+ init()</text>
<text text-anchor="start" x="457" y="-897.5" font-family="Helvetica,sans-Serif" font-size="10.00">&#45; Logger_Sngltn()</text>
</a>
</g>
</g>
<!-- Node9&#45;&gt;Node5 -->
<g id="edge22" class="edge"><title>Node9&#45;&gt;Node5</title>
<path fill="none" stroke="#404040" d="M492.782,-890.449C489.932,-852.146 488,-812.388 488,-775 488,-775 488,-775 488,-251 488,-212.899 488,-170.454 488,-135.549"/>
<polygon fill="none" stroke="#404040" points="488,-135.537 484,-129.537 488,-123.537 492,-129.537 488,-135.537"/>
<text text-anchor="middle" x="501.5" y="-521.5" font-family="Helvetica,sans-Serif" font-size="10.00"> &#45;LOG</text>
</g>
<!-- Node9&#45;&gt;Node7 -->
<g id="edge8" class="edge"><title>Node9&#45;&gt;Node7</title>
<path fill="none" stroke="#404040" d="M521.128,-890.463C525.063,-830.661 531.748,-765.377 543,-706 545.301,-693.858 548.151,-681.388 551.341,-668.947"/>
<polygon fill="none" stroke="#404040" points="551.422,-668.639 549.093,-661.815 554.496,-657.039 556.826,-663.864 551.422,-668.639"/>
<text text-anchor="middle" x="569" y="-771.5" font-family="Helvetica,sans-Serif" font-size="10.00"> ~myLogger</text>
</g>
<!-- Node9&#45;&gt;Node8 -->
<g id="edge5" class="edge"><title>Node9&#45;&gt;Node8</title>
<path fill="none" stroke="#404040" d="M583.104,-944.307C602.363,-901.344 622.049,-857.428 636.545,-825.092"/>
<polygon fill="none" stroke="#404040" points="636.731,-824.676 635.536,-817.565 641.64,-813.726 642.836,-820.837 636.731,-824.676"/>
<text text-anchor="middle" x="645.5" y="-863.5" font-family="Helvetica,sans-Serif" font-size="10.00"> &#45;myLogger</text>
</g>
<!-- Node9&#45;&gt;Node9 -->
<g id="edge7" class="edge"><title>Node9&#45;&gt;Node9</title>
<path fill="none" stroke="#404040" d="M583.337,-1134.18C593.84,-1128.32 601,-1115.26 601,-1095 601,-1081.39 597.768,-1071.02 592.461,-1063.91"/>
<polygon fill="none" stroke="#404040" points="592.315,-1063.78 585.172,-1062.8 583.337,-1055.82 590.48,-1056.81 592.315,-1063.78"/>
<text text-anchor="middle" x="623" y="-1092.5" font-family="Helvetica,sans-Serif" font-size="10.00"> &#45;Instance</text>
</g>
<!-- Node13 -->
<g id="node9" class="node"><title>Node13</title>
<g id="a_node9"><a xlink:href="classokw_1_1_o_k_w___memorize___sngltn.html" target="_top" xlink:title="OKW_Memorize ist die Speicher&#45;Klasse hinter den Merke*&#45;Schlüsselwörter. ">
<polygon fill="white" stroke="black" points="254.5,-707 254.5,-841 397.5,-841 397.5,-707 254.5,-707"/>
<text text-anchor="middle" x="326" y="-829" font-family="Helvetica,sans-Serif" font-size="10.00">okw.OKW_Memorize_Sngltn</text>
<polyline fill="none" stroke="black" points="254.5,-822 397.5,-822 "/>
<text text-anchor="start" x="262.5" y="-810" font-family="Helvetica,sans-Serif" font-size="10.00">+ OKW_Memorize_xml</text>
<polyline fill="none" stroke="black" points="254.5,-803 397.5,-803 "/>
<text text-anchor="start" x="262.5" y="-791" font-family="Helvetica,sans-Serif" font-size="10.00">+ exists()</text>
<text text-anchor="start" x="262.5" y="-780" font-family="Helvetica,sans-Serif" font-size="10.00">+ get()</text>
<text text-anchor="start" x="262.5" y="-769" font-family="Helvetica,sans-Serif" font-size="10.00">+ init()</text>
<text text-anchor="start" x="262.5" y="-758" font-family="Helvetica,sans-Serif" font-size="10.00">+ save()</text>
<text text-anchor="start" x="262.5" y="-747" font-family="Helvetica,sans-Serif" font-size="10.00">+ set()</text>
<text text-anchor="start" x="262.5" y="-736" font-family="Helvetica,sans-Serif" font-size="10.00">+ getInstance()</text>
<text text-anchor="start" x="262.5" y="-725" font-family="Helvetica,sans-Serif" font-size="10.00">+ reset()</text>
<text text-anchor="start" x="262.5" y="-714" font-family="Helvetica,sans-Serif" font-size="10.00">&#45; OKW_Memorize_Sngltn()</text>
</a>
</g>
</g>
<!-- Node9&#45;&gt;Node13 -->
<g id="edge21" class="edge"><title>Node9&#45;&gt;Node13</title>
<path fill="none" stroke="#404040" d="M448.942,-937.194C440.46,-920.932 431.428,-904.916 422,-890 413.64,-876.774 403.907,-863.412 393.908,-850.71"/>
<polygon fill="none" stroke="#404040" points="393.738,-850.498 386.863,-848.321 386.228,-841.138 393.103,-843.315 393.738,-850.498"/>
<text text-anchor="middle" x="420" y="-863.5" font-family="Helvetica,sans-Serif" font-size="10.00"> &#45;Log</text>
</g>
<!-- Node10 -->
<g id="node6" class="node"><title>Node10</title>
<polygon fill="white" stroke="#bfbfbf" points="444.5,-1370.5 444.5,-1427.5 587.5,-1427.5 587.5,-1370.5 444.5,-1370.5"/>
<text text-anchor="middle" x="516" y="-1415.5" font-family="Helvetica,sans-Serif" font-size="10.00">ArrayList&lt; okw.log.ILogger &gt;</text>
<polyline fill="none" stroke="#bfbfbf" points="444.5,-1408.5 587.5,-1408.5 "/>
<text text-anchor="middle" x="516" y="-1396.5" font-family="Helvetica,sans-Serif" font-size="10.00"> </text>
<polyline fill="none" stroke="#bfbfbf" points="444.5,-1389.5 587.5,-1389.5 "/>
<text text-anchor="middle" x="516" y="-1377.5" font-family="Helvetica,sans-Serif" font-size="10.00"> </text>
</g>
<!-- Node10&#45;&gt;Node9 -->
<g id="edge6" class="edge"><title>Node10&#45;&gt;Node9</title>
<path fill="none" stroke="#404040" d="M516,-1370.4C516,-1355.21 516,-1334.82 516,-1311.98"/>
<polygon fill="none" stroke="#404040" points="516,-1311.82 512,-1305.82 516,-1299.82 520,-1305.82 516,-1311.82"/>
<text text-anchor="middle" x="542" y="-1321.5" font-family="Helvetica,sans-Serif" font-size="10.00"> &#45;LoggerList</text>
</g>
<!-- Node11 -->
<g id="node7" class="node"><title>Node11</title>
<g id="a_node7"><a xlink:href="interfaceokw_1_1gui_1_1_i_g_u_i_window.html" target="_top" xlink:title="{okw.gui.IGUIWindow\n||+ getCaption()\l+ getExists()\l+ getIsActive()\l+ TypeKeyWindow()\l+ SelectWindow()\l+ StartApp()\l+ StopApp()\l+ VerifyWindowExists()\l+ VerifyIsWindowActive()\l+ VerifyWindowCaption()\l}">
<polygon fill="white" stroke="black" points="685,-446 685,-602 813,-602 813,-446 685,-446"/>
<text text-anchor="middle" x="749" y="-590" font-family="Helvetica,sans-Serif" font-size="10.00">okw.gui.IGUIWindow</text>
<polyline fill="none" stroke="black" points="685,-583 813,-583 "/>
<text text-anchor="middle" x="749" y="-571" font-family="Helvetica,sans-Serif" font-size="10.00"> </text>
<polyline fill="none" stroke="black" points="685,-564 813,-564 "/>
<text text-anchor="start" x="693" y="-552" font-family="Helvetica,sans-Serif" font-size="10.00">+ getCaption()</text>
<text text-anchor="start" x="693" y="-541" font-family="Helvetica,sans-Serif" font-size="10.00">+ getExists()</text>
<text text-anchor="start" x="693" y="-530" font-family="Helvetica,sans-Serif" font-size="10.00">+ getIsActive()</text>
<text text-anchor="start" x="693" y="-519" font-family="Helvetica,sans-Serif" font-size="10.00">+ TypeKeyWindow()</text>
<text text-anchor="start" x="693" y="-508" font-family="Helvetica,sans-Serif" font-size="10.00">+ SelectWindow()</text>
<text text-anchor="start" x="693" y="-497" font-family="Helvetica,sans-Serif" font-size="10.00">+ StartApp()</text>
<text text-anchor="start" x="693" y="-486" font-family="Helvetica,sans-Serif" font-size="10.00">+ StopApp()</text>
<text text-anchor="start" x="693" y="-475" font-family="Helvetica,sans-Serif" font-size="10.00">+ VerifyWindowExists()</text>
<text text-anchor="start" x="693" y="-464" font-family="Helvetica,sans-Serif" font-size="10.00">+ VerifyIsWindowActive()</text>
<text text-anchor="start" x="693" y="-453" font-family="Helvetica,sans-Serif" font-size="10.00">+ VerifyWindowCaption()</text>
</a>
</g>
</g>
<!-- Node11&#45;&gt;Node6 -->
<g id="edge9" class="edge"><title>Node11&#45;&gt;Node6</title>
<path fill="none" stroke="midnightblue" d="M735.121,-435.854C730.289,-405.515 724.868,-371.472 720.024,-341.059"/>
<polygon fill="none" stroke="midnightblue" points="731.706,-436.665 736.735,-445.99 738.619,-435.564 731.706,-436.665"/>
</g>
<!-- Node12 -->
<g id="node8" class="node"><title>Node12</title>
<g id="a_node8"><a xlink:href="interfaceokw_1_1core_1_1_i_o_k_w___f_n.html" target="_top" xlink:title="{okw.core.IOKW_FN\n||+ setKN()\l+ setFN()\l+ setParentFN()\l+ getKN()\l+ getFN()\l+ getParentFN()\l}">
<polygon fill="white" stroke="black" points="831.5,-468 831.5,-580 936.5,-580 936.5,-468 831.5,-468"/>
<text text-anchor="middle" x="884" y="-568" font-family="Helvetica,sans-Serif" font-size="10.00">okw.core.IOKW_FN</text>
<polyline fill="none" stroke="black" points="831.5,-561 936.5,-561 "/>
<text text-anchor="middle" x="884" y="-549" font-family="Helvetica,sans-Serif" font-size="10.00"> </text>
<polyline fill="none" stroke="black" points="831.5,-542 936.5,-542 "/>
<text text-anchor="start" x="839.5" y="-530" font-family="Helvetica,sans-Serif" font-size="10.00">+ setKN()</text>
<text text-anchor="start" x="839.5" y="-519" font-family="Helvetica,sans-Serif" font-size="10.00">+ setFN()</text>
<text text-anchor="start" x="839.5" y="-508" font-family="Helvetica,sans-Serif" font-size="10.00">+ setParentFN()</text>
<text text-anchor="start" x="839.5" y="-497" font-family="Helvetica,sans-Serif" font-size="10.00">+ getKN()</text>
<text text-anchor="start" x="839.5" y="-486" font-family="Helvetica,sans-Serif" font-size="10.00">+ getFN()</text>
<text text-anchor="start" x="839.5" y="-475" font-family="Helvetica,sans-Serif" font-size="10.00">+ getParentFN()</text>
</a>
</g>
</g>
<!-- Node12&#45;&gt;Node6 -->
<g id="edge10" class="edge"><title>Node12&#45;&gt;Node6</title>
<path fill="none" stroke="midnightblue" d="M858.083,-458.466C848.028,-436.101 835.64,-411.309 822,-390 806.962,-366.508 788.261,-342.697 770.295,-321.661"/>
<polygon fill="none" stroke="midnightblue" points="855.002,-460.154 862.246,-467.886 861.404,-457.324 855.002,-460.154"/>
</g>
<!-- Node13&#45;&gt;Node5 -->
<g id="edge11" class="edge"><title>Node13&#45;&gt;Node5</title>
<path fill="none" stroke="#404040" d="M341.095,-706.842C371.479,-573.677 439.806,-274.219 471.4,-135.755"/>
<polygon fill="none" stroke="#404040" points="471.488,-135.366 468.923,-128.626 474.158,-123.667 476.723,-130.406 471.488,-135.366"/>
<text text-anchor="middle" x="436" y="-363.5" font-family="Helvetica,sans-Serif" font-size="10.00"> &#45;MEM</text>
</g>
<!-- Node13&#45;&gt;Node13 -->
<g id="edge20" class="edge"><title>Node13&#45;&gt;Node13</title>
<path fill="none" stroke="#404040" d="M397.582,-789.565C407.989,-787.095 415,-781.906 415,-774 415,-769.553 412.782,-765.965 408.988,-763.238"/>
<polygon fill="none" stroke="#404040" points="408.641,-763.092 401.559,-764.45 397.582,-758.435 404.664,-757.077 408.641,-763.092"/>
<text text-anchor="middle" x="437" y="-771.5" font-family="Helvetica,sans-Serif" font-size="10.00"> &#45;Instance</text>
</g>
<!-- Node14 -->
<g id="node10" class="node"><title>Node14</title>
<g id="a_node10"><a xlink:href="classokw_1_1_log_messenger.html" target="_top" xlink:title="LogMessenger liest Log&#45;Meldungen sprachspezifisch für die im Konstruktor gegeben Klasse aus der Zugeh...">
<polygon fill="white" stroke="black" points="183.5,-1039 183.5,-1151 284.5,-1151 284.5,-1039 183.5,-1039"/>
<text text-anchor="middle" x="234" y="-1139" font-family="Helvetica,sans-Serif" font-size="10.00">okw.LogMessenger</text>
<polyline fill="none" stroke="black" points="183.5,-1132 284.5,-1132 "/>
<text text-anchor="start" x="191.5" y="-1120" font-family="Helvetica,sans-Serif" font-size="10.00">&#45; cvsClassName</text>
<polyline fill="none" stroke="black" points="183.5,-1113 284.5,-1113 "/>
<text text-anchor="start" x="191.5" y="-1101" font-family="Helvetica,sans-Serif" font-size="10.00">+ LogMessenger()</text>
<text text-anchor="start" x="191.5" y="-1090" font-family="Helvetica,sans-Serif" font-size="10.00">+ GetMessage()</text>
<text text-anchor="start" x="191.5" y="-1079" font-family="Helvetica,sans-Serif" font-size="10.00">+ GetMessage()</text>
<text text-anchor="start" x="191.5" y="-1068" font-family="Helvetica,sans-Serif" font-size="10.00">+ GetMessage()</text>
<text text-anchor="start" x="191.5" y="-1057" font-family="Helvetica,sans-Serif" font-size="10.00">+ GetMessage()</text>
<text text-anchor="start" x="191.5" y="-1046" font-family="Helvetica,sans-Serif" font-size="10.00">&#45; ReadMessage()</text>
</a>
</g>
</g>
<!-- Node14&#45;&gt;Node13 -->
<g id="edge12" class="edge"><title>Node14&#45;&gt;Node13</title>
<path fill="none" stroke="#404040" d="M249.92,-1038.8C264.739,-987.415 286.975,-910.314 303.586,-852.718"/>
<polygon fill="none" stroke="#404040" points="303.61,-852.636 301.429,-845.763 306.935,-841.106 309.116,-847.98 303.61,-852.636"/>
<text text-anchor="middle" x="312" y="-863.5" font-family="Helvetica,sans-Serif" font-size="10.00"> &#45;LM</text>
</g>
<!-- Node15 -->
<g id="node11" class="node"><title>Node15</title>
<g id="a_node11"><a xlink:href="classokw_1_1_o_k_w___xml_reader.html" target="_top" xlink:title="{okw.OKW_XmlReader\n||+ getXMLFile()\l+ OKW_XmlReader()\l+ getTextContentSingleValue()\l+ getTextContentAsList()\l&#45; Init()\l}">
<polygon fill="white" stroke="black" points="158.5,-1348.5 158.5,-1449.5 309.5,-1449.5 309.5,-1348.5 158.5,-1348.5"/>
<text text-anchor="middle" x="234" y="-1437.5" font-family="Helvetica,sans-Serif" font-size="10.00">okw.OKW_XmlReader</text>
<polyline fill="none" stroke="black" points="158.5,-1430.5 309.5,-1430.5 "/>
<text text-anchor="middle" x="234" y="-1418.5" font-family="Helvetica,sans-Serif" font-size="10.00"> </text>
<polyline fill="none" stroke="black" points="158.5,-1411.5 309.5,-1411.5 "/>
<text text-anchor="start" x="166.5" y="-1399.5" font-family="Helvetica,sans-Serif" font-size="10.00">+ getXMLFile()</text>
<text text-anchor="start" x="166.5" y="-1388.5" font-family="Helvetica,sans-Serif" font-size="10.00">+ OKW_XmlReader()</text>
<text text-anchor="start" x="166.5" y="-1377.5" font-family="Helvetica,sans-Serif" font-size="10.00">+ getTextContentSingleValue()</text>
<text text-anchor="start" x="166.5" y="-1366.5" font-family="Helvetica,sans-Serif" font-size="10.00">+ getTextContentAsList()</text>
<text text-anchor="start" x="166.5" y="-1355.5" font-family="Helvetica,sans-Serif" font-size="10.00">&#45; Init()</text>
</a>
</g>
</g>
<!-- Node15&#45;&gt;Node14 -->
<g id="edge13" class="edge"><title>Node15&#45;&gt;Node14</title>
<path fill="none" stroke="#404040" d="M234,-1348.47C234,-1298.06 234,-1219.58 234,-1163.51"/>
<polygon fill="none" stroke="#404040" points="234,-1163.19 230,-1157.19 234,-1151.19 238,-1157.19 234,-1163.19"/>
<text text-anchor="middle" x="268.5" y="-1321.5" font-family="Helvetica,sans-Serif" font-size="10.00"> &#45;myXmlReader</text>
</g>
<!-- Node16 -->
<g id="node12" class="node"><title>Node16</title>
<polygon fill="white" stroke="#bfbfbf" points="-0.5,-1498.5 -0.5,-1555.5 124.5,-1555.5 124.5,-1498.5 -0.5,-1498.5"/>
<text text-anchor="middle" x="62" y="-1543.5" font-family="Helvetica,sans-Serif" font-size="10.00">DocumentBuilderFactory</text>
<polyline fill="none" stroke="#bfbfbf" points="-0.5,-1536.5 124.5,-1536.5 "/>
<text text-anchor="middle" x="62" y="-1524.5" font-family="Helvetica,sans-Serif" font-size="10.00"> </text>
<polyline fill="none" stroke="#bfbfbf" points="-0.5,-1517.5 124.5,-1517.5 "/>
<text text-anchor="middle" x="62" y="-1505.5" font-family="Helvetica,sans-Serif" font-size="10.00"> </text>
</g>
<!-- Node16&#45;&gt;Node15 -->
<g id="edge14" class="edge"><title>Node16&#45;&gt;Node15</title>
<path fill="none" stroke="#404040" d="M81.3563,-1498.39C89.444,-1488.07 99.42,-1476.74 110,-1468 121.5,-1458.5 134.526,-1449.68 147.706,-1441.75"/>
<polygon fill="none" stroke="#404040" points="147.915,-1441.63 151.084,-1435.15 158.282,-1435.58 155.113,-1442.06 147.915,-1441.63"/>
<text text-anchor="middle" x="142" y="-1471.5" font-family="Helvetica,sans-Serif" font-size="10.00"> &#45;mydbFactory</text>
</g>
<!-- Node17 -->
<g id="node13" class="node"><title>Node17</title>
<polygon fill="white" stroke="#bfbfbf" points="142,-1498.5 142,-1555.5 186,-1555.5 186,-1498.5 142,-1498.5"/>
<text text-anchor="middle" x="164" y="-1543.5" font-family="Helvetica,sans-Serif" font-size="10.00">XPath</text>
<polyline fill="none" stroke="#bfbfbf" points="142,-1536.5 186,-1536.5 "/>
<text text-anchor="middle" x="164" y="-1524.5" font-family="Helvetica,sans-Serif" font-size="10.00"> </text>
<polyline fill="none" stroke="#bfbfbf" points="142,-1517.5 186,-1517.5 "/>
<text text-anchor="middle" x="164" y="-1505.5" font-family="Helvetica,sans-Serif" font-size="10.00"> </text>
</g>
<!-- Node17&#45;&gt;Node15 -->
<g id="edge15" class="edge"><title>Node17&#45;&gt;Node15</title>
<path fill="none" stroke="#404040" d="M170.43,-1498.36C173.279,-1488.48 177.112,-1477.46 182,-1468 183.403,-1465.29 184.916,-1462.57 186.512,-1459.87"/>
<polygon fill="none" stroke="#404040" points="186.615,-1459.7 186.439,-1452.49 193.026,-1449.56 193.202,-1456.77 186.615,-1459.7"/>
<text text-anchor="middle" x="205.5" y="-1471.5" font-family="Helvetica,sans-Serif" font-size="10.00"> &#45;myXPath</text>
</g>
<!-- Node18 -->
<g id="node14" class="node"><title>Node18</title>
<polygon fill="white" stroke="#bfbfbf" points="213.5,-1498.5 213.5,-1555.5 250.5,-1555.5 250.5,-1498.5 213.5,-1498.5"/>
<text text-anchor="middle" x="232" y="-1543.5" font-family="Helvetica,sans-Serif" font-size="10.00">Path</text>
<polyline fill="none" stroke="#bfbfbf" points="213.5,-1536.5 250.5,-1536.5 "/>
<text text-anchor="middle" x="232" y="-1524.5" font-family="Helvetica,sans-Serif" font-size="10.00"> </text>
<polyline fill="none" stroke="#bfbfbf" points="213.5,-1517.5 250.5,-1517.5 "/>
<text text-anchor="middle" x="232" y="-1505.5" font-family="Helvetica,sans-Serif" font-size="10.00"> </text>
</g>
<!-- Node18&#45;&gt;Node15 -->
<g id="edge16" class="edge"><title>Node18&#45;&gt;Node15</title>
<path fill="none" stroke="#404040" d="M232.439,-1498.35C232.611,-1487.53 232.815,-1474.66 233.018,-1461.86"/>
<polygon fill="none" stroke="#404040" points="233.021,-1461.67 229.117,-1455.6 233.212,-1449.67 237.116,-1455.73 233.021,-1461.67"/>
<text text-anchor="middle" x="261" y="-1471.5" font-family="Helvetica,sans-Serif" font-size="10.00"> &#45;myXMLFile</text>
</g>
<!-- Node19 -->
<g id="node15" class="node"><title>Node19</title>
<polygon fill="white" stroke="#bfbfbf" points="269,-1498.5 269,-1555.5 361,-1555.5 361,-1498.5 269,-1498.5"/>
<text text-anchor="middle" x="315" y="-1543.5" font-family="Helvetica,sans-Serif" font-size="10.00">DocumentBuilder</text>
<polyline fill="none" stroke="#bfbfbf" points="269,-1536.5 361,-1536.5 "/>
<text text-anchor="middle" x="315" y="-1524.5" font-family="Helvetica,sans-Serif" font-size="10.00"> </text>
<polyline fill="none" stroke="#bfbfbf" points="269,-1517.5 361,-1517.5 "/>
<text text-anchor="middle" x="315" y="-1505.5" font-family="Helvetica,sans-Serif" font-size="10.00"> </text>
</g>
<!-- Node19&#45;&gt;Node15 -->
<g id="edge17" class="edge"><title>Node19&#45;&gt;Node15</title>
<path fill="none" stroke="#404040" d="M306.707,-1498.23C303.181,-1488.33 298.579,-1477.34 293,-1468 291.329,-1465.2 289.539,-1462.41 287.66,-1459.64"/>
<polygon fill="none" stroke="#404040" points="287.542,-1459.48 280.789,-1456.95 280.525,-1449.74 287.278,-1452.27 287.542,-1459.48"/>
<text text-anchor="middle" x="327.5" y="-1471.5" font-family="Helvetica,sans-Serif" font-size="10.00"> &#45;mydBuilder</text>
</g>
<!-- Node20 -->
<g id="node16" class="node"><title>Node20</title>
<polygon fill="white" stroke="#bfbfbf" points="379,-1498.5 379,-1555.5 441,-1555.5 441,-1498.5 379,-1498.5"/>
<text text-anchor="middle" x="410" y="-1543.5" font-family="Helvetica,sans-Serif" font-size="10.00">Document</text>
<polyline fill="none" stroke="#bfbfbf" points="379,-1536.5 441,-1536.5 "/>
<text text-anchor="middle" x="410" y="-1524.5" font-family="Helvetica,sans-Serif" font-size="10.00"> </text>
<polyline fill="none" stroke="#bfbfbf" points="379,-1517.5 441,-1517.5 "/>
<text text-anchor="middle" x="410" y="-1505.5" font-family="Helvetica,sans-Serif" font-size="10.00"> </text>
</g>
<!-- Node20&#45;&gt;Node15 -->
<g id="edge18" class="edge"><title>Node20&#45;&gt;Node15</title>
<path fill="none" stroke="#404040" d="M389.184,-1498.44C380.558,-1488.12 370.001,-1476.79 359,-1468 347.195,-1458.57 333.897,-1449.77 320.493,-1441.83"/>
<polygon fill="none" stroke="#404040" points="320.15,-1441.63 312.955,-1442.11 309.747,-1435.65 316.942,-1435.17 320.15,-1441.63"/>
<text text-anchor="middle" x="414.5" y="-1471.5" font-family="Helvetica,sans-Serif" font-size="10.00"> &#45;myXMLDocument</text>
</g>
<!-- Node21 -->
<g id="node17" class="node"><title>Node21</title>
<polygon fill="white" stroke="#bfbfbf" points="303,-1066.5 303,-1123.5 413,-1123.5 413,-1066.5 303,-1066.5"/>
<text text-anchor="middle" x="358" y="-1111.5" font-family="Helvetica,sans-Serif" font-size="10.00">Map&lt; String, String &gt;</text>
<polyline fill="none" stroke="#bfbfbf" points="303,-1104.5 413,-1104.5 "/>
<text text-anchor="middle" x="358" y="-1092.5" font-family="Helvetica,sans-Serif" font-size="10.00"> </text>
<polyline fill="none" stroke="#bfbfbf" points="303,-1085.5 413,-1085.5 "/>
<text text-anchor="middle" x="358" y="-1073.5" font-family="Helvetica,sans-Serif" font-size="10.00"> </text>
</g>
<!-- Node21&#45;&gt;Node13 -->
<g id="edge19" class="edge"><title>Node21&#45;&gt;Node13</title>
<path fill="none" stroke="#404040" d="M355.216,-1066.25C350.504,-1019.27 340.793,-922.467 333.861,-853.359"/>
<polygon fill="none" stroke="#404040" points="333.841,-853.168 329.262,-847.597 332.644,-841.228 337.222,-846.799 333.841,-853.168"/>
<text text-anchor="middle" x="356" y="-863.5" font-family="Helvetica,sans-Serif" font-size="10.00"> +_Value</text>
</g>
</g>
</svg>
