<?xml version="1.0" encoding="UTF-8" standalone="no"?>
<!DOCTYPE svg PUBLIC "-//W3C//DTD SVG 1.1//EN"
 "http://www.w3.org/Graphics/SVG/1.1/DTD/svg11.dtd">
<!-- Generated by graphviz version 2.38.0 (20140413.2041)
 -->
<!-- Title: okw.core.EN.MemorizeValue Pages: 1 -->
<svg width="972pt" height="166pt"
 viewBox="0.00 0.00 972.00 165.50" xmlns="http://www.w3.org/2000/svg" xmlns:xlink="http://www.w3.org/1999/xlink">
<g id="graph0" class="graph" transform="scale(1 1) rotate(0) translate(4 161.5)">
<title>okw.core.EN.MemorizeValue</title>
<polygon fill="white" stroke="none" points="-4,4 -4,-161.5 968,-161.5 968,4 -4,4"/>
<!-- Node1239 -->
<g id="node1" class="node"><title>Node1239</title>
<g id="a_node1"><a xlink:title="Merkt sich den Standartwert eines Objekts.">
<polygon fill="#bfbfbf" stroke="black" points="0,-93 0,-112 151,-112 151,-93 0,-93"/>
<text text-anchor="middle" x="75.5" y="-100" font-family="Helvetica,sans-Serif" font-size="10.00">okw.core.EN.MemorizeValue</text>
</a>
</g>
</g>
<!-- Node1240 -->
<g id="node2" class="node"><title>Node1240</title>
<g id="a_node2"><a xlink:href="classokw_1_1core_1_1_core.html#ab4e0f723d27cb11c944ec4c82c426100" target="_top" xlink:title="Setzt die Sprache auf den gegebenen wert Language.">
<polygon fill="white" stroke="black" points="192.5,-125 192.5,-144 341.5,-144 341.5,-125 192.5,-125"/>
<text text-anchor="middle" x="267" y="-132" font-family="Helvetica,sans-Serif" font-size="10.00">okw.core.Core.setLanguage</text>
</a>
</g>
</g>
<!-- Node1239&#45;&gt;Node1240 -->
<g id="edge1" class="edge"><title>Node1239&#45;&gt;Node1240</title>
<path fill="none" stroke="midnightblue" d="M132.843,-112.014C153.752,-115.545 177.665,-119.583 199.403,-123.254"/>
<polygon fill="midnightblue" stroke="midnightblue" points="199.103,-126.753 209.547,-124.967 200.269,-119.851 199.103,-126.753"/>
</g>
<!-- Node1242 -->
<g id="node4" class="node"><title>Node1242</title>
<g id="a_node4"><a xlink:href="classokw_1_1core_1_1_core.html#ac8440162926bfc169ee483bd7f860117" target="_top" xlink:title="Merkt sich den Standartwert eines Objekts.">
<polygon fill="white" stroke="black" points="187,-62 187,-81 347,-81 347,-62 187,-62"/>
<text text-anchor="middle" x="267" y="-69" font-family="Helvetica,sans-Serif" font-size="10.00">okw.core.Core.MemorizeValue</text>
</a>
</g>
</g>
<!-- Node1239&#45;&gt;Node1242 -->
<g id="edge3" class="edge"><title>Node1239&#45;&gt;Node1242</title>
<path fill="none" stroke="midnightblue" d="M134.644,-92.9883C154.559,-89.7304 177.024,-86.0555 197.669,-82.6781"/>
<polygon fill="midnightblue" stroke="midnightblue" points="198.336,-86.1157 207.639,-81.0471 197.206,-79.2075 198.336,-86.1157"/>
</g>
<!-- Node1241 -->
<g id="node3" class="node"><title>Node1241</title>
<g id="a_node3"><a xlink:href="interfaceokw_1_1core_1_1_i_o_k_w___state.html#a866baa0bde08a47418f54d63bdb56097" target="_top" xlink:title="Interne Methode zum setzen der Sprache f체r die sprachabh채ngigen Ausgaben der Dokumentation (Log).">
<polygon fill="white" stroke="black" points="383,-138 383,-157 565,-157 565,-138 383,-138"/>
<text text-anchor="middle" x="474" y="-145" font-family="Helvetica,sans-Serif" font-size="10.00">okw.core.IOKW_State.setLanguage</text>
</a>
</g>
</g>
<!-- Node1240&#45;&gt;Node1241 -->
<g id="edge2" class="edge"><title>Node1240&#45;&gt;Node1241</title>
<path fill="none" stroke="midnightblue" d="M341.72,-139.175C351.811,-139.815 362.306,-140.48 372.77,-141.144"/>
<polygon fill="midnightblue" stroke="midnightblue" points="372.577,-144.639 382.779,-141.779 373.02,-137.653 372.577,-144.639"/>
</g>
<!-- Node1243 -->
<g id="node5" class="node"><title>Node1243</title>
<g id="a_node5"><a xlink:href="classokw_1_1log_1_1_logger___sngltn.html#a70ec25e200e00ecefc544e8fd371d2ef" target="_top" xlink:title="Ausgabe eines Schl체sselwortes.">
<polygon fill="white" stroke="black" points="402.5,-88.5 402.5,-118.5 545.5,-118.5 545.5,-88.5 402.5,-88.5"/>
<text text-anchor="start" x="410.5" y="-106.5" font-family="Helvetica,sans-Serif" font-size="10.00">okw.log.Logger_Sngltn.Log</text>
<text text-anchor="middle" x="474" y="-95.5" font-family="Helvetica,sans-Serif" font-size="10.00">KeyWordStart</text>
</a>
</g>
</g>
<!-- Node1242&#45;&gt;Node1243 -->
<g id="edge4" class="edge"><title>Node1242&#45;&gt;Node1243</title>
<path fill="none" stroke="midnightblue" d="M328.952,-81.0144C348.82,-84.1158 371.195,-87.6085 392.281,-90.9"/>
<polygon fill="midnightblue" stroke="midnightblue" points="391.767,-94.362 402.187,-92.4463 392.847,-87.4458 391.767,-94.362"/>
</g>
<!-- Node1244 -->
<g id="node6" class="node"><title>Node1244</title>
<g id="a_node6"><a xlink:href="classokw_1_1_log_messenger.html#af225d1f037d47b3b085175c09d78bdd2" target="_top" xlink:title="Holt die Log&#45;Meldung f체r MethodeNmae/Textkey ohne weitere Parameter.">
<polygon fill="white" stroke="black" points="389.5,-50 389.5,-69 558.5,-69 558.5,-50 389.5,-50"/>
<text text-anchor="middle" x="474" y="-57" font-family="Helvetica,sans-Serif" font-size="10.00">okw.LogMessenger.GetMessage</text>
</a>
</g>
</g>
<!-- Node1242&#45;&gt;Node1244 -->
<g id="edge5" class="edge"><title>Node1242&#45;&gt;Node1244</title>
<path fill="none" stroke="midnightblue" d="M347.258,-66.8605C357.675,-66.2507 368.43,-65.6212 379.061,-64.9989"/>
<polygon fill="midnightblue" stroke="midnightblue" points="379.422,-68.4838 389.201,-64.4053 379.013,-61.4958 379.422,-68.4838"/>
</g>
<!-- Node1247 -->
<g id="node9" class="node"><title>Node1247</title>
<g id="a_node9"><a xlink:href="interfaceokw_1_1core_1_1_i_o_k_w___state.html#aa48a3de07623a93fc0b4d68629dd0887" target="_top" xlink:title="Merkt sich den Standartwert eines Objekts.">
<polygon fill="white" stroke="black" points="390.5,-0.5 390.5,-30.5 557.5,-30.5 557.5,-0.5 390.5,-0.5"/>
<text text-anchor="start" x="398.5" y="-18.5" font-family="Helvetica,sans-Serif" font-size="10.00">okw.core.IOKW_State.Memorize</text>
<text text-anchor="middle" x="474" y="-7.5" font-family="Helvetica,sans-Serif" font-size="10.00">Value</text>
</a>
</g>
</g>
<!-- Node1242&#45;&gt;Node1247 -->
<g id="edge8" class="edge"><title>Node1242&#45;&gt;Node1247</title>
<path fill="none" stroke="midnightblue" d="M303.241,-61.8733C331.894,-54.0461 373.101,-42.7894 407.741,-33.3268"/>
<polygon fill="midnightblue" stroke="midnightblue" points="409.065,-36.5936 417.789,-30.5821 407.22,-29.841 409.065,-36.5936"/>
</g>
<!-- Node1245 -->
<g id="node7" class="node"><title>Node1245</title>
<g id="a_node7"><a xlink:href="classokw_1_1_log_messenger.html#a530cd6ab82ec82a04206a2e976ec06e3" target="_top" xlink:title="Interne Kernfunktion holt die Log&#45;Meldung mit Platzhaltern aus der XML&#45;Datei.">
<polygon fill="white" stroke="black" points="601,-50 601,-69 776,-69 776,-50 601,-50"/>
<text text-anchor="middle" x="688.5" y="-57" font-family="Helvetica,sans-Serif" font-size="10.00">okw.LogMessenger.ReadMessage</text>
</a>
</g>
</g>
<!-- Node1244&#45;&gt;Node1245 -->
<g id="edge6" class="edge"><title>Node1244&#45;&gt;Node1245</title>
<path fill="none" stroke="midnightblue" d="M558.681,-59.5C569.154,-59.5 579.935,-59.5 590.589,-59.5"/>
<polygon fill="midnightblue" stroke="midnightblue" points="590.751,-63.0001 600.751,-59.5 590.751,-56.0001 590.751,-63.0001"/>
</g>
<!-- Node1246 -->
<g id="node8" class="node"><title>Node1246</title>
<g id="a_node8"><a xlink:href="classokw_1_1_o_k_w___xml_reader.html#ab920b5335a2e1429c14cc5f8e79f39eb" target="_top" xlink:title="Lies den TextContent eines Tag.">
<polygon fill="white" stroke="black" points="812,-44.5 812,-74.5 964,-74.5 964,-44.5 812,-44.5"/>
<text text-anchor="start" x="820" y="-62.5" font-family="Helvetica,sans-Serif" font-size="10.00">okw.OKW_XmlReader.getText</text>
<text text-anchor="middle" x="888" y="-51.5" font-family="Helvetica,sans-Serif" font-size="10.00">ContentSingleValue</text>
</a>
</g>
</g>
<!-- Node1245&#45;&gt;Node1246 -->
<g id="edge7" class="edge"><title>Node1245&#45;&gt;Node1246</title>
<path fill="none" stroke="midnightblue" d="M776.126,-59.5C784.6,-59.5 793.195,-59.5 801.656,-59.5"/>
<polygon fill="midnightblue" stroke="midnightblue" points="801.893,-63.0001 811.893,-59.5 801.892,-56.0001 801.893,-63.0001"/>
</g>
</g>
</svg>
