<?xml version="1.0" encoding="UTF-8" standalone="no"?>
<!DOCTYPE svg PUBLIC "-//W3C//DTD SVG 1.1//EN"
 "http://www.w3.org/Graphics/SVG/1.1/DTD/svg11.dtd">
<!-- Generated by graphviz version 2.38.0 (20140413.2041)
 -->
<!-- Title: okw.core.OKW_CurrentObject_Sngltn Pages: 1 -->
<!--zoomable 1300 -->
<svg id="main" version="1.1" xmlns="http://www.w3.org/2000/svg" xmlns:xlink="http://www.w3.org/1999/xlink" xml:space="preserve" onload="init(evt)">
<style type="text/css"><![CDATA[
.edge:hover path { stroke: red; }
.edge:hover polygon { stroke: red; fill: red; }
]]></style>
<script type="text/javascript"><![CDATA[
var edges = document.getElementsByTagName('g');
if (edges && edges.length) {
  for (var i=0;i<edges.length;i++) {
    if (edges[i].id.substr(0,4)=='edge') {
      edges[i].setAttribute('class','edge');
    }
  }
}
]]></script>
        <defs>
                <circle id="rim" cx="0" cy="0" r="7"/>
                <circle id="rim2" cx="0" cy="0" r="3.5"/>
                <g id="zoomPlus">
                        <use xlink:href="#rim" fill="#404040">
                                <set attributeName="fill" to="#808080" begin="zoomplus.mouseover" end="zoomplus.mouseout"/>
                        </use>
                        <path d="M-4,0h8M0,-4v8" fill="none" stroke="white" stroke-width="1.5" pointer-events="none"/>
                </g>
                <g id="zoomMin">
                        <use xlink:href="#rim" fill="#404040">
                                <set attributeName="fill" to="#808080" begin="zoomminus.mouseover" end="zoomminus.mouseout"/>
                        </use>
                        <path d="M-4,0h8" fill="none" stroke="white" stroke-width="1.5" pointer-events="none"/>
                </g>
                <g id="dirArrow">
                        <path fill="none" stroke="white" stroke-width="1.5" d="M0,-3.0v7 M-2.5,-0.5L0,-3.0L2.5,-0.5"/>
                </g>
               <g id="resetDef">
                       <use xlink:href="#rim2" fill="#404040">
                               <set attributeName="fill" to="#808080" begin="reset.mouseover" end="reset.mouseout"/>
                       </use>
               </g>
        </defs>

<script type="text/javascript">
var viewWidth = 835;
var viewHeight = 1300;
var sectionId = 'dynsection-0';
</script>
<script xlink:href="svgpan.js"/>
<svg id="graph" class="graph">
<g id="viewport">
<title>okw.core.OKW_CurrentObject_Sngltn</title>
<polygon fill="white" stroke="none" points="-4,4 -4,-1296 831,-1296 831,4 -4,4"/>
<!-- Node1 -->
<g id="node1" class="node"><title>Node1</title>
<g id="a_node1"><a xlink:title="Diese Klasse verwaltet das aktuelle GUI&#45;Objekt.">
<polygon fill="#bfbfbf" stroke="black" points="358.5,-0.5 358.5,-310.5 519.5,-310.5 519.5,-0.5 358.5,-0.5"/>
<text text-anchor="start" x="366.5" y="-298.5" font-family="Helvetica,sans-Serif" font-size="10.00">okw.core.OKW_CurrentObject</text>
<text text-anchor="middle" x="439" y="-287.5" font-family="Helvetica,sans-Serif" font-size="10.00">_Sngltn</text>
<polyline fill="none" stroke="black" points="358.5,-280.5 519.5,-280.5 "/>
<text text-anchor="start" x="366.5" y="-268.5" font-family="Helvetica,sans-Serif" font-size="10.00"># cvsChildFN</text>
<text text-anchor="start" x="366.5" y="-257.5" font-family="Helvetica,sans-Serif" font-size="10.00"># cvsWindowFN</text>
<text text-anchor="start" x="366.5" y="-246.5" font-family="Helvetica,sans-Serif" font-size="10.00">&#45; cvoObject</text>
<text text-anchor="start" x="366.5" y="-235.5" font-family="Helvetica,sans-Serif" font-size="10.00">&#45; cvsFullObjectFN</text>
<text text-anchor="start" x="366.5" y="-224.5" font-family="Helvetica,sans-Serif" font-size="10.00">&#45; cvsObjectName</text>
<polyline fill="none" stroke="black" points="358.5,-217.5 519.5,-217.5 "/>
<text text-anchor="start" x="366.5" y="-205.5" font-family="Helvetica,sans-Serif" font-size="10.00">+ getAllChildFNsOfParent()</text>
<text text-anchor="start" x="366.5" y="-194.5" font-family="Helvetica,sans-Serif" font-size="10.00">+ VerifyTablecellValue()</text>
<text text-anchor="start" x="366.5" y="-183.5" font-family="Helvetica,sans-Serif" font-size="10.00">+ DoubleClickOn()</text>
<text text-anchor="start" x="366.5" y="-172.5" font-family="Helvetica,sans-Serif" font-size="10.00">+ getCurrentObject()</text>
<text text-anchor="start" x="366.5" y="-161.5" font-family="Helvetica,sans-Serif" font-size="10.00">+ getObjectFN()</text>
<text text-anchor="start" x="366.5" y="-150.5" font-family="Helvetica,sans-Serif" font-size="10.00">+ getWindowFN()</text>
<text text-anchor="start" x="366.5" y="-139.5" font-family="Helvetica,sans-Serif" font-size="10.00">+ getChildFN()</text>
<text text-anchor="start" x="366.5" y="-128.5" font-family="Helvetica,sans-Serif" font-size="10.00">+ LogObjectData()</text>
<text text-anchor="start" x="366.5" y="-117.5" font-family="Helvetica,sans-Serif" font-size="10.00">+ SelectTablecell()</text>
<text text-anchor="start" x="366.5" y="-106.5" font-family="Helvetica,sans-Serif" font-size="10.00">+ setChildName()</text>
<text text-anchor="start" x="366.5" y="-95.5" font-family="Helvetica,sans-Serif" font-size="10.00">+ setWindowName()</text>
<text text-anchor="start" x="366.5" y="-84.5" font-family="Helvetica,sans-Serif" font-size="10.00">+ TypeKeyTablecell()</text>
<text text-anchor="start" x="366.5" y="-73.5" font-family="Helvetica,sans-Serif" font-size="10.00">+ TypeKeyWindow()</text>
<text text-anchor="start" x="366.5" y="-62.5" font-family="Helvetica,sans-Serif" font-size="10.00">+ Sequence()</text>
<text text-anchor="start" x="366.5" y="-51.5" font-family="Helvetica,sans-Serif" font-size="10.00">+ getInstance()</text>
<text text-anchor="start" x="366.5" y="-40.5" font-family="Helvetica,sans-Serif" font-size="10.00">+ init()</text>
<text text-anchor="start" x="366.5" y="-29.5" font-family="Helvetica,sans-Serif" font-size="10.00">&#45; OKW_CurrentObject_Sngltn()</text>
<text text-anchor="start" x="366.5" y="-18.5" font-family="Helvetica,sans-Serif" font-size="10.00">&#45; resetToWindow()</text>
<text text-anchor="start" x="366.5" y="-7.5" font-family="Helvetica,sans-Serif" font-size="10.00">&#45; updateObject()</text>
</a>
</g>
</g>
<!-- Node1&#45;&gt;Node1 -->
<g id="edge1" class="edge"><title>Node1&#45;&gt;Node1</title>
<path fill="none" stroke="#404040" d="M519.77,-184.931C530.43,-179.912 537.5,-170.102 537.5,-155.5 537.5,-146.146 534.598,-138.758 529.71,-133.336"/>
<polygon fill="none" stroke="#404040" points="529.457,-133.151 522.252,-132.839 519.77,-126.069 526.974,-126.381 529.457,-133.151"/>
<text text-anchor="middle" x="561.5" y="-153" font-family="Helvetica,sans-Serif" font-size="10.00"> &#45;Instance</text>
</g>
<!-- Node2 -->
<g id="node2" class="node"><title>Node2</title>
<g id="a_node2"><a xlink:href="classokw_1_1_frame_object_dictionary___sngltn.html" target="_top" xlink:title="Verwaltet zentral die Frame&#45;Klassen: Instanziert Frame&#45;Klassen zu Frame&#45;Objekten und liefert die Refe...">
<polygon fill="white" stroke="black" points="352,-358.5 352,-580.5 526,-580.5 526,-358.5 352,-358.5"/>
<text text-anchor="start" x="360" y="-568.5" font-family="Helvetica,sans-Serif" font-size="10.00">okw.FrameObjectDictionary</text>
<text text-anchor="middle" x="439" y="-557.5" font-family="Helvetica,sans-Serif" font-size="10.00">_Sngltn</text>
<polyline fill="none" stroke="black" points="352,-550.5 526,-550.5 "/>
<text text-anchor="middle" x="439" y="-538.5" font-family="Helvetica,sans-Serif" font-size="10.00"> </text>
<polyline fill="none" stroke="black" points="352,-531.5 526,-531.5 "/>
<text text-anchor="start" x="360" y="-519.5" font-family="Helvetica,sans-Serif" font-size="10.00">+ getParentObjectByName()</text>
<text text-anchor="start" x="360" y="-508.5" font-family="Helvetica,sans-Serif" font-size="10.00">+ getAllChildKeysOfParent()</text>
<text text-anchor="start" x="360" y="-497.5" font-family="Helvetica,sans-Serif" font-size="10.00">+ getChildObjectByName()</text>
<text text-anchor="start" x="360" y="-486.5" font-family="Helvetica,sans-Serif" font-size="10.00">+ printObjectDictionary()</text>
<text text-anchor="start" x="360" y="-475.5" font-family="Helvetica,sans-Serif" font-size="10.00">+ getOKW()</text>
<text text-anchor="start" x="360" y="-464.5" font-family="Helvetica,sans-Serif" font-size="10.00">+ getInstance()</text>
<text text-anchor="start" x="360" y="-453.5" font-family="Helvetica,sans-Serif" font-size="10.00">+ init()</text>
<text text-anchor="start" x="360" y="-442.5" font-family="Helvetica,sans-Serif" font-size="10.00">+ getListOfOKWGuiClasses()</text>
<text text-anchor="start" x="360" y="-431.5" font-family="Helvetica,sans-Serif" font-size="10.00">&#45; FrameObjectDictionary</text>
<text text-anchor="start" x="360" y="-420.5" font-family="Helvetica,sans-Serif" font-size="10.00">_Sngltn()</text>
<text text-anchor="start" x="360" y="-409.5" font-family="Helvetica,sans-Serif" font-size="10.00">&#45; createInstanceByObjectName()</text>
<text text-anchor="start" x="360" y="-398.5" font-family="Helvetica,sans-Serif" font-size="10.00">&#45; getChildObjectByName()</text>
<text text-anchor="start" x="360" y="-387.5" font-family="Helvetica,sans-Serif" font-size="10.00">&#45; frameScan()</text>
<text text-anchor="start" x="360" y="-376.5" font-family="Helvetica,sans-Serif" font-size="10.00">&#45; frameScanFieldsRecursively()</text>
<text text-anchor="start" x="360" y="-365.5" font-family="Helvetica,sans-Serif" font-size="10.00">&#45; getOKWFromObjekt()</text>
</a>
</g>
</g>
<!-- Node2&#45;&gt;Node1 -->
<g id="edge2" class="edge"><title>Node2&#45;&gt;Node1</title>
<path fill="none" stroke="#404040" d="M439,-358.061C439,-346.492 439,-334.556 439,-322.54"/>
<polygon fill="none" stroke="#404040" points="439,-322.508 435,-316.508 439,-310.508 443,-316.508 439,-322.508"/>
<text text-anchor="middle" x="504.5" y="-332" font-family="Helvetica,sans-Serif" font-size="10.00"> &#45;myFrameObjectDictionary</text>
</g>
<!-- Node2&#45;&gt;Node2 -->
<g id="edge4" class="edge"><title>Node2&#45;&gt;Node2</title>
<path fill="none" stroke="#404040" d="M526.302,-491.237C536.992,-487.345 544,-480.1 544,-469.5 544,-463.041 541.398,-457.827 536.946,-453.859"/>
<polygon fill="none" stroke="#404040" points="536.715,-453.727 529.521,-454.216 526.302,-447.763 533.497,-447.274 536.715,-453.727"/>
<text text-anchor="middle" x="568" y="-467" font-family="Helvetica,sans-Serif" font-size="10.00"> &#45;Instance</text>
</g>
<!-- Node3 -->
<g id="node3" class="node"><title>Node3</title>
<g id="a_node3"><a xlink:title=" ">
<polygon fill="white" stroke="#bfbfbf" points="291,-804.5 291,-861.5 427,-861.5 427,-804.5 291,-804.5"/>
<text text-anchor="middle" x="359" y="-849.5" font-family="Helvetica,sans-Serif" font-size="10.00">Map&lt; String, okw.OKW &gt;</text>
<polyline fill="none" stroke="#bfbfbf" points="291,-842.5 427,-842.5 "/>
<text text-anchor="middle" x="359" y="-830.5" font-family="Helvetica,sans-Serif" font-size="10.00"> </text>
<polyline fill="none" stroke="#bfbfbf" points="291,-823.5 427,-823.5 "/>
<text text-anchor="middle" x="359" y="-811.5" font-family="Helvetica,sans-Serif" font-size="10.00"> </text>
</a>
</g>
</g>
<!-- Node3&#45;&gt;Node2 -->
<g id="edge3" class="edge"><title>Node3&#45;&gt;Node2</title>
<path fill="none" stroke="#404040" d="M353.252,-804.367C345.175,-759.984 333.692,-670.538 355,-599 355.685,-596.701 356.425,-594.405 357.216,-592.114"/>
<polygon fill="none" stroke="#404040" points="357.288,-591.927 355.696,-584.894 361.575,-580.719 363.168,-587.752 357.288,-591.927"/>
<text text-anchor="middle" x="418.5" y="-602" font-family="Helvetica,sans-Serif" font-size="10.00"> +myAnnotationDictionary</text>
</g>
<!-- Node4 -->
<g id="node4" class="node"><title>Node4</title>
<g id="a_node4"><a xlink:title=" ">
<polygon fill="white" stroke="#bfbfbf" points="445.5,-804.5 445.5,-861.5 570.5,-861.5 570.5,-804.5 445.5,-804.5"/>
<text text-anchor="middle" x="508" y="-849.5" font-family="Helvetica,sans-Serif" font-size="10.00">Map&lt; String, Object &gt;</text>
<polyline fill="none" stroke="#bfbfbf" points="445.5,-842.5 570.5,-842.5 "/>
<text text-anchor="middle" x="508" y="-830.5" font-family="Helvetica,sans-Serif" font-size="10.00"> </text>
<polyline fill="none" stroke="#bfbfbf" points="445.5,-823.5 570.5,-823.5 "/>
<text text-anchor="middle" x="508" y="-811.5" font-family="Helvetica,sans-Serif" font-size="10.00"> </text>
</a>
</g>
</g>
<!-- Node4&#45;&gt;Node2 -->
<g id="edge5" class="edge"><title>Node4&#45;&gt;Node2</title>
<path fill="none" stroke="#404040" d="M507.671,-804.38C506.641,-760.386 502.49,-671.92 486,-599 485.51,-596.835 484.994,-594.657 484.453,-592.47"/>
<polygon fill="none" stroke="#404040" points="484.41,-592.307 479.011,-587.528 481.345,-580.705 486.745,-585.484 484.41,-592.307"/>
<text text-anchor="middle" x="556" y="-602" font-family="Helvetica,sans-Serif" font-size="10.00"> +myFrameObjectDictionary</text>
</g>
<!-- Node5 -->
<g id="node5" class="node"><title>Node5</title>
<g id="a_node5"><a xlink:href="classokw_1_1_log_messenger.html" target="_top" xlink:title="LogMessenger liest Log&#45;Meldungen sprachspezifisch für die im Konstruktor gegeben Klasse aus der Zugeh...">
<polygon fill="white" stroke="black" points="165.5,-777 165.5,-889 272.5,-889 272.5,-777 165.5,-777"/>
<text text-anchor="middle" x="219" y="-877" font-family="Helvetica,sans-Serif" font-size="10.00">okw.LogMessenger</text>
<polyline fill="none" stroke="black" points="165.5,-870 272.5,-870 "/>
<text text-anchor="start" x="173.5" y="-858" font-family="Helvetica,sans-Serif" font-size="10.00">&#45; cvsClassName</text>
<polyline fill="none" stroke="black" points="165.5,-851 272.5,-851 "/>
<text text-anchor="start" x="173.5" y="-839" font-family="Helvetica,sans-Serif" font-size="10.00">+ LogMessenger()</text>
<text text-anchor="start" x="173.5" y="-828" font-family="Helvetica,sans-Serif" font-size="10.00">+ GetMessage()</text>
<text text-anchor="start" x="173.5" y="-817" font-family="Helvetica,sans-Serif" font-size="10.00">+ GetMessage()</text>
<text text-anchor="start" x="173.5" y="-806" font-family="Helvetica,sans-Serif" font-size="10.00">+ GetMessage()</text>
<text text-anchor="start" x="173.5" y="-795" font-family="Helvetica,sans-Serif" font-size="10.00">+ GetMessage()</text>
<text text-anchor="start" x="173.5" y="-784" font-family="Helvetica,sans-Serif" font-size="10.00">&#45; ReadMessage()</text>
</a>
</g>
</g>
<!-- Node5&#45;&gt;Node1 -->
<g id="edge15" class="edge"><title>Node5&#45;&gt;Node1</title>
<path fill="none" stroke="#404040" d="M225.326,-776.727C236.882,-686.6 265.584,-503.445 322,-358 330.51,-336.061 341.194,-313.688 352.624,-292.211"/>
<polygon fill="none" stroke="#404040" points="352.76,-291.96 352.1,-284.78 358.474,-281.409 359.134,-288.589 352.76,-291.96"/>
<text text-anchor="middle" x="332.5" y="-467" font-family="Helvetica,sans-Serif" font-size="10.00"> &#45;LM</text>
</g>
<!-- Node5&#45;&gt;Node2 -->
<g id="edge6" class="edge"><title>Node5&#45;&gt;Node2</title>
<path fill="none" stroke="#404040" d="M228.538,-776.617C237.645,-733.793 254.194,-674.212 282,-628 298.415,-600.719 320.546,-574.671 343.007,-551.892"/>
<polygon fill="none" stroke="#404040" points="343.111,-551.788 344.545,-544.721 351.62,-543.326 350.186,-550.393 343.111,-551.788"/>
<text text-anchor="middle" x="309.5" y="-602" font-family="Helvetica,sans-Serif" font-size="10.00"> &#45;LM</text>
</g>
<!-- Node6 -->
<g id="node6" class="node"><title>Node6</title>
<g id="a_node6"><a xlink:href="classokw_1_1_o_k_w___xml_reader.html" target="_top" xlink:title=" ">
<polygon fill="white" stroke="black" points="137,-1085.5 137,-1186.5 301,-1186.5 301,-1085.5 137,-1085.5"/>
<text text-anchor="middle" x="219" y="-1174.5" font-family="Helvetica,sans-Serif" font-size="10.00">okw.OKW_XmlReader</text>
<polyline fill="none" stroke="black" points="137,-1167.5 301,-1167.5 "/>
<text text-anchor="start" x="145" y="-1155.5" font-family="Helvetica,sans-Serif" font-size="10.00">&#45; myXMLFile</text>
<polyline fill="none" stroke="black" points="137,-1148.5 301,-1148.5 "/>
<text text-anchor="start" x="145" y="-1136.5" font-family="Helvetica,sans-Serif" font-size="10.00">+ getXMLFile()</text>
<text text-anchor="start" x="145" y="-1125.5" font-family="Helvetica,sans-Serif" font-size="10.00">+ OKW_XmlReader()</text>
<text text-anchor="start" x="145" y="-1114.5" font-family="Helvetica,sans-Serif" font-size="10.00">+ getTextContentSingleValue()</text>
<text text-anchor="start" x="145" y="-1103.5" font-family="Helvetica,sans-Serif" font-size="10.00">+ getTextContentAsList()</text>
<text text-anchor="start" x="145" y="-1092.5" font-family="Helvetica,sans-Serif" font-size="10.00">&#45; Init()</text>
</a>
</g>
</g>
<!-- Node6&#45;&gt;Node5 -->
<g id="edge7" class="edge"><title>Node6&#45;&gt;Node5</title>
<path fill="none" stroke="#404040" d="M219,-1085.3C219,-1035.08 219,-957.146 219,-901.389"/>
<polygon fill="none" stroke="#404040" points="219,-901.14 215,-895.14 219,-889.14 223,-895.14 219,-901.14"/>
<text text-anchor="middle" x="255.5" y="-1059" font-family="Helvetica,sans-Serif" font-size="10.00"> &#45;myXmlReader</text>
</g>
<!-- Node7 -->
<g id="node7" class="node"><title>Node7</title>
<g id="a_node7"><a xlink:title=" ">
<polygon fill="white" stroke="#bfbfbf" points="0,-1234.5 0,-1291.5 134,-1291.5 134,-1234.5 0,-1234.5"/>
<text text-anchor="middle" x="67" y="-1279.5" font-family="Helvetica,sans-Serif" font-size="10.00">DocumentBuilderFactory</text>
<polyline fill="none" stroke="#bfbfbf" points="0,-1272.5 134,-1272.5 "/>
<text text-anchor="middle" x="67" y="-1260.5" font-family="Helvetica,sans-Serif" font-size="10.00"> </text>
<polyline fill="none" stroke="#bfbfbf" points="0,-1253.5 134,-1253.5 "/>
<text text-anchor="middle" x="67" y="-1241.5" font-family="Helvetica,sans-Serif" font-size="10.00"> </text>
</a>
</g>
</g>
<!-- Node7&#45;&gt;Node6 -->
<g id="edge8" class="edge"><title>Node7&#45;&gt;Node6</title>
<path fill="none" stroke="#404040" d="M88.794,-1234.25C97.1067,-1224.48 106.999,-1213.76 117,-1205 121.278,-1201.25 125.773,-1197.55 130.395,-1193.92"/>
<polygon fill="none" stroke="#404040" points="130.485,-1193.85 132.833,-1187.03 140.029,-1186.57 137.681,-1193.39 130.485,-1193.85"/>
<text text-anchor="middle" x="151.5" y="-1208" font-family="Helvetica,sans-Serif" font-size="10.00"> &#45;mydbFactory</text>
</g>
<!-- Node8 -->
<g id="node8" class="node"><title>Node8</title>
<g id="a_node8"><a xlink:title=" ">
<polygon fill="white" stroke="#bfbfbf" points="152,-1234.5 152,-1291.5 196,-1291.5 196,-1234.5 152,-1234.5"/>
<text text-anchor="middle" x="174" y="-1279.5" font-family="Helvetica,sans-Serif" font-size="10.00">XPath</text>
<polyline fill="none" stroke="#bfbfbf" points="152,-1272.5 196,-1272.5 "/>
<text text-anchor="middle" x="174" y="-1260.5" font-family="Helvetica,sans-Serif" font-size="10.00"> </text>
<polyline fill="none" stroke="#bfbfbf" points="152,-1253.5 196,-1253.5 "/>
<text text-anchor="middle" x="174" y="-1241.5" font-family="Helvetica,sans-Serif" font-size="10.00"> </text>
</a>
</g>
</g>
<!-- Node8&#45;&gt;Node6 -->
<g id="edge9" class="edge"><title>Node8&#45;&gt;Node6</title>
<path fill="none" stroke="#404040" d="M182.94,-1234.37C186.04,-1225.02 189.593,-1214.53 193,-1205 193.798,-1202.77 194.619,-1200.5 195.454,-1198.21"/>
<polygon fill="none" stroke="#404040" points="195.559,-1197.93 193.889,-1190.91 199.722,-1186.67 201.392,-1193.69 195.559,-1197.93"/>
<text text-anchor="middle" x="217.5" y="-1208" font-family="Helvetica,sans-Serif" font-size="10.00"> &#45;myXPath</text>
</g>
<!-- Node9 -->
<g id="node9" class="node"><title>Node9</title>
<g id="a_node9"><a xlink:title=" ">
<polygon fill="white" stroke="#bfbfbf" points="214,-1234.5 214,-1291.5 314,-1291.5 314,-1234.5 214,-1234.5"/>
<text text-anchor="middle" x="264" y="-1279.5" font-family="Helvetica,sans-Serif" font-size="10.00">DocumentBuilder</text>
<polyline fill="none" stroke="#bfbfbf" points="214,-1272.5 314,-1272.5 "/>
<text text-anchor="middle" x="264" y="-1260.5" font-family="Helvetica,sans-Serif" font-size="10.00"> </text>
<polyline fill="none" stroke="#bfbfbf" points="214,-1253.5 314,-1253.5 "/>
<text text-anchor="middle" x="264" y="-1241.5" font-family="Helvetica,sans-Serif" font-size="10.00"> </text>
</a>
</g>
</g>
<!-- Node9&#45;&gt;Node6 -->
<g id="edge10" class="edge"><title>Node9&#45;&gt;Node6</title>
<path fill="none" stroke="#404040" d="M254.013,-1234.26C250.167,-1223.58 245.606,-1210.91 241.068,-1198.3"/>
<polygon fill="none" stroke="#404040" points="240.993,-1198.09 235.197,-1193.8 236.929,-1186.8 242.725,-1191.09 240.993,-1198.09"/>
<text text-anchor="middle" x="277.5" y="-1208" font-family="Helvetica,sans-Serif" font-size="10.00"> &#45;mydBuilder</text>
</g>
<!-- Node10 -->
<g id="node10" class="node"><title>Node10</title>
<g id="a_node10"><a xlink:title=" ">
<polygon fill="white" stroke="#bfbfbf" points="332.5,-1234.5 332.5,-1291.5 399.5,-1291.5 399.5,-1234.5 332.5,-1234.5"/>
<text text-anchor="middle" x="366" y="-1279.5" font-family="Helvetica,sans-Serif" font-size="10.00">Document</text>
<polyline fill="none" stroke="#bfbfbf" points="332.5,-1272.5 399.5,-1272.5 "/>
<text text-anchor="middle" x="366" y="-1260.5" font-family="Helvetica,sans-Serif" font-size="10.00"> </text>
<polyline fill="none" stroke="#bfbfbf" points="332.5,-1253.5 399.5,-1253.5 "/>
<text text-anchor="middle" x="366" y="-1241.5" font-family="Helvetica,sans-Serif" font-size="10.00"> </text>
</a>
</g>
</g>
<!-- Node10&#45;&gt;Node6 -->
<g id="edge11" class="edge"><title>Node10&#45;&gt;Node6</title>
<path fill="none" stroke="#404040" d="M341.68,-1234.33C332.709,-1224.68 322.231,-1214.01 312,-1205 307.921,-1201.41 303.66,-1197.81 299.302,-1194.26"/>
<polygon fill="none" stroke="#404040" points="299.018,-1194.03 291.833,-1193.41 289.638,-1186.54 296.823,-1187.16 299.018,-1194.03"/>
<text text-anchor="middle" x="370" y="-1208" font-family="Helvetica,sans-Serif" font-size="10.00"> &#45;myXMLDocument</text>
</g>
<!-- Node11 -->
<g id="node11" class="node"><title>Node11</title>
<g id="a_node11"><a xlink:href="classokw_1_1log_1_1_logger___sngltn.html" target="_top" xlink:title=" ">
<polygon fill="white" stroke="black" points="613,-628.5 613,-1037.5 761,-1037.5 761,-628.5 613,-628.5"/>
<text text-anchor="middle" x="687" y="-1025.5" font-family="Helvetica,sans-Serif" font-size="10.00">okw.log.Logger_Sngltn</text>
<polyline fill="none" stroke="black" points="613,-1018.5 761,-1018.5 "/>
<text text-anchor="start" x="621" y="-1006.5" font-family="Helvetica,sans-Serif" font-size="10.00">&#45; cvbDebugMode</text>
<polyline fill="none" stroke="black" points="613,-999.5 761,-999.5 "/>
<text text-anchor="start" x="621" y="-987.5" font-family="Helvetica,sans-Serif" font-size="10.00">+ getDebugMode()</text>
<text text-anchor="start" x="621" y="-976.5" font-family="Helvetica,sans-Serif" font-size="10.00">+ setDebugMode()</text>
<text text-anchor="start" x="621" y="-965.5" font-family="Helvetica,sans-Serif" font-size="10.00">+ addLogger()</text>
<text text-anchor="start" x="621" y="-954.5" font-family="Helvetica,sans-Serif" font-size="10.00">+ reset()</text>
<text text-anchor="start" x="621" y="-943.5" font-family="Helvetica,sans-Serif" font-size="10.00">+ LogError()</text>
<text text-anchor="start" x="621" y="-932.5" font-family="Helvetica,sans-Serif" font-size="10.00">+ LogException()</text>
<text text-anchor="start" x="621" y="-921.5" font-family="Helvetica,sans-Serif" font-size="10.00">+ LogFunctionEnd()</text>
<text text-anchor="start" x="621" y="-910.5" font-family="Helvetica,sans-Serif" font-size="10.00">+ LogFunctionEnd()</text>
<text text-anchor="start" x="621" y="-899.5" font-family="Helvetica,sans-Serif" font-size="10.00">+ LogFunctionEnd()</text>
<text text-anchor="start" x="621" y="-888.5" font-family="Helvetica,sans-Serif" font-size="10.00">+ LogFunctionEnd()</text>
<text text-anchor="start" x="621" y="-877.5" font-family="Helvetica,sans-Serif" font-size="10.00">+ LogFunctionEndDebug()</text>
<text text-anchor="start" x="621" y="-866.5" font-family="Helvetica,sans-Serif" font-size="10.00">+ LogFunctionEndDebug()</text>
<text text-anchor="start" x="621" y="-855.5" font-family="Helvetica,sans-Serif" font-size="10.00">+ LogFunctionEndDebug()</text>
<text text-anchor="start" x="621" y="-844.5" font-family="Helvetica,sans-Serif" font-size="10.00">+ LogFunctionEndDebug()</text>
<text text-anchor="start" x="621" y="-833.5" font-family="Helvetica,sans-Serif" font-size="10.00">+ LogFunctionStart()</text>
<text text-anchor="start" x="621" y="-822.5" font-family="Helvetica,sans-Serif" font-size="10.00">+ LogFunctionStartDebug()</text>
<text text-anchor="start" x="621" y="-811.5" font-family="Helvetica,sans-Serif" font-size="10.00">+ LogKeyWordEnd()</text>
<text text-anchor="start" x="621" y="-800.5" font-family="Helvetica,sans-Serif" font-size="10.00">+ LogSequenceEnd()</text>
<text text-anchor="start" x="621" y="-789.5" font-family="Helvetica,sans-Serif" font-size="10.00">+ LogTestcaseEnd()</text>
<text text-anchor="start" x="621" y="-778.5" font-family="Helvetica,sans-Serif" font-size="10.00">+ LogKeyWordStart()</text>
<text text-anchor="start" x="621" y="-767.5" font-family="Helvetica,sans-Serif" font-size="10.00">+ LogSequenceStart()</text>
<text text-anchor="start" x="621" y="-756.5" font-family="Helvetica,sans-Serif" font-size="10.00">+ LogTestcaseStart()</text>
<text text-anchor="start" x="621" y="-745.5" font-family="Helvetica,sans-Serif" font-size="10.00">+ LogPass()</text>
<text text-anchor="start" x="621" y="-734.5" font-family="Helvetica,sans-Serif" font-size="10.00">+ LogPrint()</text>
<text text-anchor="start" x="621" y="-723.5" font-family="Helvetica,sans-Serif" font-size="10.00">+ LogPrintDebug()</text>
<text text-anchor="start" x="621" y="-712.5" font-family="Helvetica,sans-Serif" font-size="10.00">+ LogWarning()</text>
<text text-anchor="start" x="621" y="-701.5" font-family="Helvetica,sans-Serif" font-size="10.00">+ ResCloseList()</text>
<text text-anchor="start" x="621" y="-690.5" font-family="Helvetica,sans-Serif" font-size="10.00">+ ResCloseListDebug()</text>
<text text-anchor="start" x="621" y="-679.5" font-family="Helvetica,sans-Serif" font-size="10.00">+ ResOpenList()</text>
<text text-anchor="start" x="621" y="-668.5" font-family="Helvetica,sans-Serif" font-size="10.00">+ ResOpenListDebug()</text>
<text text-anchor="start" x="621" y="-657.5" font-family="Helvetica,sans-Serif" font-size="10.00">+ getInstance()</text>
<text text-anchor="start" x="621" y="-646.5" font-family="Helvetica,sans-Serif" font-size="10.00">+ init()</text>
<text text-anchor="start" x="621" y="-635.5" font-family="Helvetica,sans-Serif" font-size="10.00">&#45; Logger_Sngltn()</text>
</a>
</g>
</g>
<!-- Node11&#45;&gt;Node1 -->
<g id="edge16" class="edge"><title>Node11&#45;&gt;Node1</title>
<path fill="none" stroke="#404040" d="M675.894,-628.376C664.74,-541.404 643.003,-441.024 601,-358 581.728,-319.905 554.414,-282.304 527.695,-250.087"/>
<polygon fill="none" stroke="#404040" points="527.532,-249.892 520.609,-247.875 519.808,-240.708 526.731,-242.726 527.532,-249.892"/>
<text text-anchor="middle" x="681.5" y="-467" font-family="Helvetica,sans-Serif" font-size="10.00"> &#45;Log</text>
</g>
<!-- Node11&#45;&gt;Node2 -->
<g id="edge12" class="edge"><title>Node11&#45;&gt;Node2</title>
<path fill="none" stroke="#404040" d="M645.343,-628.384C640.217,-618.103 634.462,-608.229 628,-599 604.798,-565.862 570.099,-538.738 536.742,-518.094"/>
<polygon fill="none" stroke="#404040" points="536.728,-518.085 529.524,-518.417 526.447,-511.895 533.651,-511.563 536.728,-518.085"/>
<text text-anchor="middle" x="648.5" y="-602" font-family="Helvetica,sans-Serif" font-size="10.00"> &#45;Log</text>
</g>
<!-- Node11&#45;&gt;Node11 -->
<g id="edge14" class="edge"><title>Node11&#45;&gt;Node11</title>
<path fill="none" stroke="#404040" d="M761.36,-871.364C771.916,-865.159 779,-852.371 779,-833 779,-819.985 775.802,-809.942 770.502,-802.87"/>
<polygon fill="none" stroke="#404040" points="770.277,-802.667 763.141,-801.624 761.36,-794.636 768.495,-795.679 770.277,-802.667"/>
<text text-anchor="middle" x="803" y="-830.5" font-family="Helvetica,sans-Serif" font-size="10.00"> &#45;Instance</text>
</g>
<!-- Node12 -->
<g id="node12" class="node"><title>Node12</title>
<g id="a_node12"><a xlink:title=" ">
<polygon fill="white" stroke="#bfbfbf" points="610,-1107.5 610,-1164.5 764,-1164.5 764,-1107.5 610,-1107.5"/>
<text text-anchor="middle" x="687" y="-1152.5" font-family="Helvetica,sans-Serif" font-size="10.00">ArrayList&lt; okw.log.ILogger &gt;</text>
<polyline fill="none" stroke="#bfbfbf" points="610,-1145.5 764,-1145.5 "/>
<text text-anchor="middle" x="687" y="-1133.5" font-family="Helvetica,sans-Serif" font-size="10.00"> </text>
<polyline fill="none" stroke="#bfbfbf" points="610,-1126.5 764,-1126.5 "/>
<text text-anchor="middle" x="687" y="-1114.5" font-family="Helvetica,sans-Serif" font-size="10.00"> </text>
</a>
</g>
</g>
<!-- Node12&#45;&gt;Node11 -->
<g id="edge13" class="edge"><title>Node12&#45;&gt;Node11</title>
<path fill="none" stroke="#404040" d="M687,-1107.49C687,-1092.54 687,-1072.54 687,-1050.13"/>
<polygon fill="none" stroke="#404040" points="687,-1049.82 683,-1043.82 687,-1037.82 691,-1043.82 687,-1049.82"/>
<text text-anchor="middle" x="715.5" y="-1059" font-family="Helvetica,sans-Serif" font-size="10.00"> &#45;LoggerList</text>
</g>
</g>
</svg>
        <g id="navigator" transform="translate(0 0)" fill="#404254">
                <rect fill="#f2f5e9" fill-opacity="0.5" stroke="#606060" stroke-width=".5" x="0" y="0" width="60" height="60"/>
                <use id="zoomplus" xlink:href="#zoomPlus" x="17" y="9" onmousedown="handleZoom(evt,'in')"/>
                <use id="zoomminus" xlink:href="#zoomMin" x="42" y="9" onmousedown="handleZoom(evt,'out')"/>
                <use id="reset" xlink:href="#resetDef" x="30" y="36" onmousedown="handleReset()"/>
                <g id="arrowUp" xlink:href="#dirArrow" transform="translate(30 24)" onmousedown="handlePan(0,-1)">
                  <use xlink:href="#rim" fill="#404040">
                        <set attributeName="fill" to="#808080" begin="arrowUp.mouseover" end="arrowUp.mouseout"/>
                  </use>
                  <path fill="none" stroke="white" stroke-width="1.5" d="M0,-3.0v7 M-2.5,-0.5L0,-3.0L2.5,-0.5"/>
                </g>
                <g id="arrowRight" xlink:href="#dirArrow" transform="rotate(90) translate(36 -43)" onmousedown="handlePan(1,0)">
                  <use xlink:href="#rim" fill="#404040">
                        <set attributeName="fill" to="#808080" begin="arrowRight.mouseover" end="arrowRight.mouseout"/>
                  </use>
                  <path fill="none" stroke="white" stroke-width="1.5" d="M0,-3.0v7 M-2.5,-0.5L0,-3.0L2.5,-0.5"/>
                </g>
                <g id="arrowDown" xlink:href="#dirArrow" transform="rotate(180) translate(-30 -48)" onmousedown="handlePan(0,1)">
                  <use xlink:href="#rim" fill="#404040">
                        <set attributeName="fill" to="#808080" begin="arrowDown.mouseover" end="arrowDown.mouseout"/>
                  </use>
                  <path fill="none" stroke="white" stroke-width="1.5" d="M0,-3.0v7 M-2.5,-0.5L0,-3.0L2.5,-0.5"/>
                </g>
                <g id="arrowLeft" xlink:href="#dirArrow" transform="rotate(270) translate(-36 17)" onmousedown="handlePan(-1,0)">
                  <use xlink:href="#rim" fill="#404040">
                        <set attributeName="fill" to="#808080" begin="arrowLeft.mouseover" end="arrowLeft.mouseout"/>
                  </use>
                  <path fill="none" stroke="white" stroke-width="1.5" d="M0,-3.0v7 M-2.5,-0.5L0,-3.0L2.5,-0.5"/>
                </g>
        </g>
        <svg viewBox="0 0 15 15" width="100%" height="30px" preserveAspectRatio="xMaxYMin meet">
         <g id="arrow_out" transform="scale(0.3 0.3)">
          <a xlink:href="classokw_1_1core_1_1_o_k_w___current_object___sngltn__coll__graph_org.svg" target="_base">
           <rect id="button" ry="5" rx="5" y="6" x="6" height="38" width="38"
                fill="#f2f5e9" fill-opacity="0.5" stroke="#606060" stroke-width="1.0"/>
           <path id="arrow"
             d="M 11.500037,31.436501 C 11.940474,20.09759 22.043105,11.32322 32.158766,21.979434 L 37.068811,17.246167 C 37.068811,17.246167 37.088388,32 37.088388,32 L 22.160133,31.978069 C 22.160133,31.978069 26.997745,27.140456 26.997745,27.140456 C 18.528582,18.264221 13.291696,25.230495 11.500037,31.436501 z"
             style="fill:#404040;"/>
          </a>
         </g>
        </svg>
</svg>
