<?xml version="1.0" encoding="UTF-8" standalone="no"?>
<!DOCTYPE svg PUBLIC "-//W3C//DTD SVG 1.1//EN"
 "http://www.w3.org/Graphics/SVG/1.1/DTD/svg11.dtd">
<!-- Generated by graphviz version 2.36.0 (20140111.2315)
 -->
<!-- Title: okw.core.Core.TypeKeyTablecell Pages: 1 -->
<!--zoomable 217 -->
<svg id="main" version="1.1" xmlns="http://www.w3.org/2000/svg" xmlns:xlink="http://www.w3.org/1999/xlink" xml:space="preserve" onload="init(evt)">
<style type="text/css"><![CDATA[
.edge:hover path { stroke: red; }
.edge:hover polygon { stroke: red; fill: red; }
]]></style>
<script type="text/javascript"><![CDATA[
var edges = document.getElementsByTagName('g');
if (edges && edges.length) {
  for (var i=0;i<edges.length;i++) {
    if (edges[i].id.substr(0,4)=='edge') {
      edges[i].setAttribute('class','edge');
    }
  }
}
]]></script>
        <defs>
                <circle id="rim" cx="0" cy="0" r="7"/>
                <circle id="rim2" cx="0" cy="0" r="3.5"/>
                <g id="zoomPlus">
                        <use xlink:href="#rim" fill="#404040">
                                <set attributeName="fill" to="#808080" begin="zoomplus.mouseover" end="zoomplus.mouseout"/>
                        </use>
                        <path d="M-4,0h8M0,-4v8" fill="none" stroke="white" stroke-width="1.5" pointer-events="none"/>
                </g>
                <g id="zoomMin">
                        <use xlink:href="#rim" fill="#404040">
                                <set attributeName="fill" to="#808080" begin="zoomminus.mouseover" end="zoomminus.mouseout"/>
                        </use>
                        <path d="M-4,0h8" fill="none" stroke="white" stroke-width="1.5" pointer-events="none"/>
                </g>
                <g id="dirArrow">
                        <path fill="none" stroke="white" stroke-width="1.5" d="M0,-3.0v7 M-2.5,-0.5L0,-3.0L2.5,-0.5"/>
                </g>
               <g id="resetDef">
                       <use xlink:href="#rim2" fill="#404040">
                               <set attributeName="fill" to="#808080" begin="reset.mouseover" end="reset.mouseout"/>
                       </use>
               </g>
        </defs>

<script type="text/javascript">
var viewWidth = 594;
var viewHeight = 217;
var sectionId = 'dynsection-75';
</script>
<script xlink:href="svgpan.js"/>
<svg id="graph" class="graph">
<g id="viewport">
<title>okw.core.Core.TypeKeyTablecell</title>
<polygon fill="white" stroke="none" points="-4,4 -4,-213 590,-213 590,4 -4,4"/>
<!-- Node3113 -->
<g id="node1" class="node"><title>Node3113</title>
<polygon fill="#bfbfbf" stroke="black" points="0.5,-97.5 0.5,-116.5 161.5,-116.5 161.5,-97.5 0.5,-97.5"/>
<text text-anchor="middle" x="81" y="-104.5" font-family="Helvetica,sans-Serif" font-size="10.00">okw.core.Core.TypeKeyTablecell</text>
</g>
<!-- Node3114 -->
<g id="node2" class="node"><title>Node3114</title>
<g id="a_node2"><a xlink:href="classokw_1_1core_1_1_e_n.html#a926f4e3a2113f58c84aea75a36ff1c6b" target="_top" xlink:title="Eingabe von Daten in eine gegebene Tabellenzelle über die Tastatur. ">
<polygon fill="white" stroke="black" points="198.5,-97.5 198.5,-116.5 353.5,-116.5 353.5,-97.5 198.5,-97.5"/>
<text text-anchor="middle" x="276" y="-104.5" font-family="Helvetica,sans-Serif" font-size="10.00">okw.core.EN.TypeKeyTablecell</text>
</a>
</g>
</g>
<!-- Node3113&#45;&gt;Node3114 -->
<g id="edge1" class="edge"><title>Node3113&#45;&gt;Node3114</title>
<path fill="none" stroke="midnightblue" d="M171.647,-107C180.577,-107 189.585,-107 198.364,-107"/>
<polygon fill="midnightblue" stroke="midnightblue" points="171.615,-103.5 161.615,-107 171.615,-110.5 171.615,-103.5"/>
</g>
<!-- Node3115 -->
<g id="node3" class="node"><title>Node3115</title>
<g id="a_node3"><a xlink:href="classokw_1_1core_1_1_e_n___keywords___d_e_l_e_t_e___test.html#a0e62a17933f21dc8c45b22def98ac192" target="_top" xlink:title="okw.core.EN_Keywords\l_DELETE_Test.tcSelectMenu\l_Value_MV_DELETE_EmptyString">
<polygon fill="white" stroke="black" points="403,-167.5 403,-208.5 573,-208.5 573,-167.5 403,-167.5"/>
<text text-anchor="start" x="411" y="-196.5" font-family="Helvetica,sans-Serif" font-size="10.00">okw.core.EN_Keywords</text>
<text text-anchor="start" x="411" y="-185.5" font-family="Helvetica,sans-Serif" font-size="10.00">_DELETE_Test.tcSelectMenu</text>
<text text-anchor="middle" x="488" y="-174.5" font-family="Helvetica,sans-Serif" font-size="10.00">_Value_MV_DELETE_EmptyString</text>
</a>
</g>
</g>
<!-- Node3114&#45;&gt;Node3115 -->
<g id="edge2" class="edge"><title>Node3114&#45;&gt;Node3115</title>
<path fill="none" stroke="midnightblue" d="M305.325,-120.965C327.935,-131.824 360.586,-146.863 390,-158 398.655,-161.277 407.839,-164.472 416.972,-167.48"/>
<polygon fill="midnightblue" stroke="midnightblue" points="306.814,-117.798 296.288,-116.591 303.764,-124.099 306.814,-117.798"/>
</g>
<!-- Node3116 -->
<g id="node4" class="node"><title>Node3116</title>
<g id="a_node4"><a xlink:href="classokw_1_1core_1_1_e_n___keywords___test.html#aa18345af1dd86689b4a74a48a64aac9b" target="_top" xlink:title="okw.core.EN_Keywords\l_Test.tc_SetValue_SV">
<polygon fill="white" stroke="black" points="427,-119 427,-149 549,-149 549,-119 427,-119"/>
<text text-anchor="start" x="435" y="-137" font-family="Helvetica,sans-Serif" font-size="10.00">okw.core.EN_Keywords</text>
<text text-anchor="middle" x="488" y="-126" font-family="Helvetica,sans-Serif" font-size="10.00">_Test.tc_SetValue_SV</text>
</a>
</g>
</g>
<!-- Node3114&#45;&gt;Node3116 -->
<g id="edge3" class="edge"><title>Node3114&#45;&gt;Node3116</title>
<path fill="none" stroke="midnightblue" d="M361.038,-117.805C383.03,-120.632 406.301,-123.624 426.776,-126.257"/>
<polygon fill="midnightblue" stroke="midnightblue" points="361.403,-114.323 351.038,-116.519 360.51,-121.266 361.403,-114.323"/>
</g>
<!-- Node3117 -->
<g id="node5" class="node"><title>Node3117</title>
<g id="a_node5"><a xlink:href="classokw_1_1core_1_1_e_n___o_k_w_not_allowed_value_exception___keywords___i_g_n_o_r_e.html#a929cfa83f7d891858fe5f4a2da81e63d" target="_top" xlink:title="Prüft ob &quot;${IGNORE} &quot; die Ausnahme okw.exceptions.OKWNotAllowedValueException auslöst. ">
<polygon fill="white" stroke="black" points="390,-59.5 390,-100.5 586,-100.5 586,-59.5 390,-59.5"/>
<text text-anchor="start" x="398" y="-88.5" font-family="Helvetica,sans-Serif" font-size="10.00">okw.core.EN_OKWNotAllowed</text>
<text text-anchor="start" x="398" y="-77.5" font-family="Helvetica,sans-Serif" font-size="10.00">ValueException_Keywords</text>
<text text-anchor="middle" x="488" y="-66.5" font-family="Helvetica,sans-Serif" font-size="10.00">_IGNORE.tcTypeKeyTablecellIGNORE1</text>
</a>
</g>
</g>
<!-- Node3114&#45;&gt;Node3117 -->
<g id="edge4" class="edge"><title>Node3114&#45;&gt;Node3117</title>
<path fill="none" stroke="midnightblue" d="M361.134,-96.1828C370.536,-94.9739 380.171,-93.7351 389.72,-92.5074"/>
<polygon fill="midnightblue" stroke="midnightblue" points="360.51,-92.7341 351.038,-97.4808 361.403,-99.6769 360.51,-92.7341"/>
</g>
<!-- Node3118 -->
<g id="node6" class="node"><title>Node3118</title>
<g id="a_node6"><a xlink:href="classokw_1_1core_1_1_e_n___o_k_w_not_allowed_value_exception___keywords___i_g_n_o_r_e.html#ae6df00a6e2d2624a973edde57d0bef6a" target="_top" xlink:title="Prüft ob &quot;&quot;${IGNORE}${TCN}&quot; die Ausnahme okw.exceptions.OKWNotAllowedValueException auslöst...">
<polygon fill="white" stroke="black" points="390,0.5 390,-40.5 586,-40.5 586,0.5 390,0.5"/>
<text text-anchor="start" x="398" y="-28.5" font-family="Helvetica,sans-Serif" font-size="10.00">okw.core.EN_OKWNotAllowed</text>
<text text-anchor="start" x="398" y="-17.5" font-family="Helvetica,sans-Serif" font-size="10.00">ValueException_Keywords</text>
<text text-anchor="middle" x="488" y="-6.5" font-family="Helvetica,sans-Serif" font-size="10.00">_IGNORE.tcTypeKeyTablecellIGNORE2</text>
</a>
</g>
</g>
<!-- Node3114&#45;&gt;Node3118 -->
<g id="edge5" class="edge"><title>Node3114&#45;&gt;Node3118</title>
<path fill="none" stroke="midnightblue" d="M302.74,-92.4572C325.279,-80.104 359.156,-62.4472 390,-50 398.255,-46.6687 407.028,-43.4843 415.793,-40.5185"/>
<polygon fill="midnightblue" stroke="midnightblue" points="300.871,-89.4913 293.816,-97.3961 304.26,-95.6158 300.871,-89.4913"/>
</g>
</g>
</svg>
        <g id="navigator" transform="translate(0 0)" fill="#404254">
                <rect fill="#f2f5e9" fill-opacity="0.5" stroke="#606060" stroke-width=".5" x="0" y="0" width="60" height="60"/>
                <use id="zoomplus" xlink:href="#zoomPlus" x="17" y="9" onmousedown="handleZoom(evt,'in')"/>
                <use id="zoomminus" xlink:href="#zoomMin" x="42" y="9" onmousedown="handleZoom(evt,'out')"/>
                <use id="reset" xlink:href="#resetDef" x="30" y="36" onmousedown="handleReset()"/>
                <g id="arrowUp" xlink:href="#dirArrow" transform="translate(30 24)" onmousedown="handlePan(0,-1)">
                  <use xlink:href="#rim" fill="#404040">
                        <set attributeName="fill" to="#808080" begin="arrowUp.mouseover" end="arrowUp.mouseout"/>
                  </use>
                  <path fill="none" stroke="white" stroke-width="1.5" d="M0,-3.0v7 M-2.5,-0.5L0,-3.0L2.5,-0.5"/>
                </g>
                <g id="arrowRight" xlink:href="#dirArrow" transform="rotate(90) translate(36 -43)" onmousedown="handlePan(1,0)">
                  <use xlink:href="#rim" fill="#404040">
                        <set attributeName="fill" to="#808080" begin="arrowRight.mouseover" end="arrowRight.mouseout"/>
                  </use>
                  <path fill="none" stroke="white" stroke-width="1.5" d="M0,-3.0v7 M-2.5,-0.5L0,-3.0L2.5,-0.5"/>
                </g>
                <g id="arrowDown" xlink:href="#dirArrow" transform="rotate(180) translate(-30 -48)" onmousedown="handlePan(0,1)">
                  <use xlink:href="#rim" fill="#404040">
                        <set attributeName="fill" to="#808080" begin="arrowDown.mouseover" end="arrowDown.mouseout"/>
                  </use>
                  <path fill="none" stroke="white" stroke-width="1.5" d="M0,-3.0v7 M-2.5,-0.5L0,-3.0L2.5,-0.5"/>
                </g>
                <g id="arrowLeft" xlink:href="#dirArrow" transform="rotate(270) translate(-36 17)" onmousedown="handlePan(-1,0)">
                  <use xlink:href="#rim" fill="#404040">
                        <set attributeName="fill" to="#808080" begin="arrowLeft.mouseover" end="arrowLeft.mouseout"/>
                  </use>
                  <path fill="none" stroke="white" stroke-width="1.5" d="M0,-3.0v7 M-2.5,-0.5L0,-3.0L2.5,-0.5"/>
                </g>
        </g>
        <svg viewBox="0 0 15 15" width="100%" height="30px" preserveAspectRatio="xMaxYMin meet">
         <g id="arrow_out" transform="scale(0.3 0.3)">
          <a xlink:href="classokw_1_1core_1_1_core_a86cffd624c6b0a94074479b6fe3260de_icgraph_org.svg" target="_base">
           <rect id="button" ry="5" rx="5" y="6" x="6" height="38" width="38"
                fill="#f2f5e9" fill-opacity="0.5" stroke="#606060" stroke-width="1.0"/>
           <path id="arrow"
             d="M 11.500037,31.436501 C 11.940474,20.09759 22.043105,11.32322 32.158766,21.979434 L 37.068811,17.246167 C 37.068811,17.246167 37.088388,32 37.088388,32 L 22.160133,31.978069 C 22.160133,31.978069 26.997745,27.140456 26.997745,27.140456 C 18.528582,18.264221 13.291696,25.230495 11.500037,31.436501 z"
             style="fill:#404040;"/>
          </a>
         </g>
        </svg>
</svg>
