<?xml version="1.0" encoding="UTF-8" standalone="no"?>
<!DOCTYPE svg PUBLIC "-//W3C//DTD SVG 1.1//EN"
 "http://www.w3.org/Graphics/SVG/1.1/DTD/svg11.dtd">
<!-- Generated by graphviz version 2.26.3 (20100126.1600)
 -->
<!-- Title: okw.core.EN.VerifyCaptionREGX Pages: 1 -->
<!--zoomable 1310 -->
<svg id="main" version="1.1" xmlns="http://www.w3.org/2000/svg" xmlns:xlink="http://www.w3.org/1999/xlink" xml:space="preserve" onload="init(evt)">
<style type="text/css"><![CDATA[
.edge:hover path { stroke: red; }
.edge:hover polygon { stroke: red; fill: red; }
]]></style>
<script type="text/javascript"><![CDATA[
var edges = document.getElementsByTagName('g');
if (edges && edges.length) {
  for (var i=0;i<edges.length;i++) {
    if (edges[i].id.substr(0,4)=='edge') {
      edges[i].setAttribute('class','edge');
    }
  }
}
]]></script>
        <defs>
                <circle id="rim" cx="0" cy="0" r="7"/>
                <circle id="rim2" cx="0" cy="0" r="3.5"/>
                <g id="zoomPlus">
                        <use xlink:href="#rim" fill="#404040">
                                <set attributeName="fill" to="#808080" begin="zoomplus.mouseover" end="zoomplus.mouseout"/>
                        </use>
                        <path d="M-4,0h8M0,-4v8" fill="none" stroke="white" stroke-width="1.5" pointer-events="none"/>
                </g>
                <g id="zoomMin">
                        <use xlink:href="#rim" fill="#404040">
                                <set attributeName="fill" to="#808080" begin="zoomminus.mouseover" end="zoomminus.mouseout"/>
                        </use>
                        <path d="M-4,0h8" fill="none" stroke="white" stroke-width="1.5" pointer-events="none"/>
                </g>
                <g id="dirArrow">
                        <path fill="none" stroke="white" stroke-width="1.5" d="M0,-3.0v7 M-2.5,-0.5L0,-3.0L2.5,-0.5"/>
                </g>
               <g id="resetDef">
                       <use xlink:href="#rim2" fill="#404040">
                               <set attributeName="fill" to="#808080" begin="reset.mouseover" end="reset.mouseout"/>
                       </use>
               </g>
        </defs>

<script type="text/javascript">
var viewWidth = 436;
var viewHeight = 1310;
var sectionId = 'dynsection-63';
</script>
<script xlink:href="svgpan.js"/>
<svg id="graph" class="graph">
<g id="viewport">
<title>okw.core.EN.VerifyCaptionREGX</title>
<polygon fill="white" stroke="white" points="-4,5 -4,-1306 433,-1306 433,5 -4,5"/>
<!-- Node2153 -->
<g id="node1" class="node"><title>Node2153</title>
<polygon fill="#bfbfbf" stroke="black" points="0,-663.5 0,-684.5 164,-684.5 164,-663.5 0,-663.5"/>
<text text-anchor="middle" x="82" y="-671.5" font-family="Helvetica,sans-Serif" font-size="10.00">okw.core.EN.VerifyCaptionREGX</text>
</g>
<!-- Node2154 -->
<g id="node3" class="node"><title>Node2154</title>
<a xlink:href="classokw_1_1core_1_1_e_n___keywords___a_n_t_l_r___test.html#a1b63acea80fde6a7d214854cb2d00241" target="_top" xlink:title="okw.core.EN_Keywords\l_ANTLR_Test.tc_VerifyCaption\lREGX_MemorizedValue">
<polygon fill="white" stroke="black" points="236.5,-1254.5 236.5,-1301.5 391.5,-1301.5 391.5,-1254.5 236.5,-1254.5"/>
<text text-anchor="start" x="244.5" y="-1288.5" font-family="Helvetica,sans-Serif" font-size="10.00">okw.core.EN_Keywords</text>
<text text-anchor="start" x="244.5" y="-1275.5" font-family="Helvetica,sans-Serif" font-size="10.00">_ANTLR_Test.tc_VerifyCaption</text>
<text text-anchor="middle" x="314" y="-1262.5" font-family="Helvetica,sans-Serif" font-size="10.00">REGX_MemorizedValue</text>
</a>
</g>
<!-- Node2153&#45;&gt;Node2154 -->
<g id="edge2" class="edge"><title>Node2153&#45;&gt;Node2154</title>
<path fill="none" stroke="midnightblue" d="M83.4926,-695.043C90.5068,-788.121 123.132,-1161.89 200,-1245 209.793,-1255.59 222.754,-1262.85 236.419,-1267.82"/>
<polygon fill="midnightblue" stroke="midnightblue" points="86.971,-694.619 82.7472,-684.902 79.9898,-695.132 86.971,-694.619"/>
</g>
<!-- Node2155 -->
<g id="node5" class="node"><title>Node2155</title>
<a xlink:href="classokw_1_1core_1_1_e_n___keywords___d_e_l_e_t_e___test.html#a0e62a17933f21dc8c45b22def98ac192" target="_top" xlink:title="okw.core.EN_Keywords\l_DELETE_Test.tcSelectMenu\l_Value_MV_DELETE_EmptyString">
<polygon fill="white" stroke="black" points="229,-1188.5 229,-1235.5 399,-1235.5 399,-1188.5 229,-1188.5"/>
<text text-anchor="start" x="237" y="-1222.5" font-family="Helvetica,sans-Serif" font-size="10.00">okw.core.EN_Keywords</text>
<text text-anchor="start" x="237" y="-1209.5" font-family="Helvetica,sans-Serif" font-size="10.00">_DELETE_Test.tcSelectMenu</text>
<text text-anchor="middle" x="314" y="-1196.5" font-family="Helvetica,sans-Serif" font-size="10.00">_Value_MV_DELETE_EmptyString</text>
</a>
</g>
<!-- Node2153&#45;&gt;Node2155 -->
<g id="edge4" class="edge"><title>Node2153&#45;&gt;Node2155</title>
<path fill="none" stroke="midnightblue" d="M84.1051,-695.041C93.1419,-781.293 131.34,-1106.66 200,-1179 208.014,-1187.44 218.043,-1193.77 228.808,-1198.5"/>
<polygon fill="midnightblue" stroke="midnightblue" points="87.5684,-694.503 83.0642,-684.914 80.6051,-695.219 87.5684,-694.503"/>
</g>
<!-- Node2156 -->
<g id="node7" class="node"><title>Node2156</title>
<a xlink:href="classokw_1_1core_1_1_e_n___keywords___empty___test.html#a34785fa02a502a0dc07809466029c0d4" target="_top" xlink:title="Prüft &quot;${EMPTY}&quot; für das Schlüsslewort VerifyCaptionREGX(strng,string) ">
<polygon fill="white" stroke="black" points="238.5,-1122.5 238.5,-1169.5 389.5,-1169.5 389.5,-1122.5 238.5,-1122.5"/>
<text text-anchor="start" x="246.5" y="-1156.5" font-family="Helvetica,sans-Serif" font-size="10.00">okw.core.EN_Keywords</text>
<text text-anchor="start" x="246.5" y="-1143.5" font-family="Helvetica,sans-Serif" font-size="10.00">_Empty_Test.tc_VerifyCaption</text>
<text text-anchor="middle" x="314" y="-1130.5" font-family="Helvetica,sans-Serif" font-size="10.00">REGX_Empty</text>
</a>
</g>
<!-- Node2153&#45;&gt;Node2156 -->
<g id="edge6" class="edge"><title>Node2153&#45;&gt;Node2156</title>
<path fill="none" stroke="midnightblue" d="M84.8561,-694.759C96.0645,-773.341 139.422,-1051.25 200,-1113 210.461,-1123.66 224.14,-1130.93 238.375,-1135.88"/>
<polygon fill="midnightblue" stroke="midnightblue" points="88.2947,-694.076 83.4375,-684.66 81.3627,-695.05 88.2947,-694.076"/>
</g>
<!-- Node2157 -->
<g id="node9" class="node"><title>Node2157</title>
<a xlink:href="classokw_1_1core_1_1_e_n___keywords___i_g_n_o_r_e___test.html#a9a5af4fb8e839fcd75656c96946f0594" target="_top" xlink:title="okw.core.EN_Keywords\l_IGNORE_Test.TC_VerifyCaption\lREGX_IGNORE">
<polygon fill="white" stroke="black" points="230.5,-1056.5 230.5,-1103.5 397.5,-1103.5 397.5,-1056.5 230.5,-1056.5"/>
<text text-anchor="start" x="238.5" y="-1090.5" font-family="Helvetica,sans-Serif" font-size="10.00">okw.core.EN_Keywords</text>
<text text-anchor="start" x="238.5" y="-1077.5" font-family="Helvetica,sans-Serif" font-size="10.00">_IGNORE_Test.TC_VerifyCaption</text>
<text text-anchor="middle" x="314" y="-1064.5" font-family="Helvetica,sans-Serif" font-size="10.00">REGX_IGNORE</text>
</a>
</g>
<!-- Node2153&#45;&gt;Node2157 -->
<g id="edge8" class="edge"><title>Node2153&#45;&gt;Node2157</title>
<path fill="none" stroke="midnightblue" d="M85.9069,-694.773C99.6102,-765.56 147.509,-995.786 200,-1047 208.554,-1055.35 219.083,-1061.6 230.254,-1066.29"/>
<polygon fill="midnightblue" stroke="midnightblue" points="89.3221,-693.998 84.0057,-684.833 82.4467,-695.313 89.3221,-693.998"/>
</g>
<!-- Node2158 -->
<g id="node11" class="node"><title>Node2158</title>
<a xlink:href="classokw_1_1core_1_1_e_n___keywords___i_g_n_o_r_e___test.html#a601d120db135d0c83901165ce01c6510" target="_top" xlink:title="okw.core.EN_Keywords\l_IGNORE_Test.TC_VerifyCaption\lREGX_IGNORE_EmptyString">
<polygon fill="white" stroke="black" points="230.5,-990.5 230.5,-1037.5 397.5,-1037.5 397.5,-990.5 230.5,-990.5"/>
<text text-anchor="start" x="238.5" y="-1024.5" font-family="Helvetica,sans-Serif" font-size="10.00">okw.core.EN_Keywords</text>
<text text-anchor="start" x="238.5" y="-1011.5" font-family="Helvetica,sans-Serif" font-size="10.00">_IGNORE_Test.TC_VerifyCaption</text>
<text text-anchor="middle" x="314" y="-998.5" font-family="Helvetica,sans-Serif" font-size="10.00">REGX_IGNORE_EmptyString</text>
</a>
</g>
<!-- Node2153&#45;&gt;Node2158 -->
<g id="edge10" class="edge"><title>Node2153&#45;&gt;Node2158</title>
<path fill="none" stroke="midnightblue" d="M83.7631,-694.817C89.5681,-749.978 113.027,-901.137 200,-981 208.726,-989.013 219.284,-995.091 230.41,-999.7"/>
<polygon fill="midnightblue" stroke="midnightblue" points="87.2182,-694.182 82.7758,-684.563 80.2504,-694.853 87.2182,-694.182"/>
</g>
<!-- Node2159 -->
<g id="node13" class="node"><title>Node2159</title>
<a xlink:href="classokw_1_1core_1_1_e_n___keywords___test.html#a5c9999e0dcecd1c288a8f1ddfdcdf6b5" target="_top" xlink:title="&quot;Normaler&quot; Testfall für das Schlüsselwort VerifyCaptionREGX. ">
<polygon fill="white" stroke="black" points="241,-938 241,-972 387,-972 387,-938 241,-938"/>
<text text-anchor="start" x="249" y="-959" font-family="Helvetica,sans-Serif" font-size="10.00">okw.core.EN_Keywords</text>
<text text-anchor="middle" x="314" y="-946" font-family="Helvetica,sans-Serif" font-size="10.00">_Test.tc_VerifyCaptionREGX</text>
</a>
</g>
<!-- Node2153&#45;&gt;Node2159 -->
<g id="edge12" class="edge"><title>Node2153&#45;&gt;Node2159</title>
<path fill="none" stroke="midnightblue" d="M85.2828,-694.794C94.157,-743.767 123.337,-866.902 200,-929 211.673,-938.455 226.123,-944.617 240.769,-948.598"/>
<polygon fill="midnightblue" stroke="midnightblue" points="88.703,-694.029 83.5658,-684.763 81.8033,-695.21 88.703,-694.029"/>
</g>
<!-- Node2160 -->
<g id="node15" class="node"><title>Node2160</title>
<a xlink:href="classokw_1_1core_1_1_e_n___o_k_w_frame_object_child_not_found_exception___test.html#a9ccdac8fb1def4a694c9cd975c4a031f" target="_top" xlink:title="Prüft ob die Ausnahme OKWFrameObjectChildNotFoundException durch die LFC&#45;VerifyCaption ausgelöst wird...">
<polygon fill="white" stroke="black" points="208.5,-860 208.5,-920 419.5,-920 419.5,-860 208.5,-860"/>
<text text-anchor="start" x="216.5" y="-907" font-family="Helvetica,sans-Serif" font-size="10.00">okw.core.EN_OKWFrameObject</text>
<text text-anchor="start" x="216.5" y="-894" font-family="Helvetica,sans-Serif" font-size="10.00">ChildNotFoundException</text>
<text text-anchor="start" x="216.5" y="-881" font-family="Helvetica,sans-Serif" font-size="10.00">_Test.TC_VerifyCaptionREGX</text>
<text text-anchor="middle" x="314" y="-868" font-family="Helvetica,sans-Serif" font-size="10.00">_OKWFrameObjectChildNotFoundException</text>
</a>
</g>
<!-- Node2153&#45;&gt;Node2160 -->
<g id="edge14" class="edge"><title>Node2153&#45;&gt;Node2160</title>
<path fill="none" stroke="midnightblue" d="M90.1165,-694.038C105.88,-730.509 144.072,-807.932 200,-851 204.226,-854.254 208.742,-857.247 213.447,-859.999"/>
<polygon fill="midnightblue" stroke="midnightblue" points="93.2114,-692.369 86.1085,-684.507 86.7587,-695.082 93.2114,-692.369"/>
</g>
<!-- Node2161 -->
<g id="node17" class="node"><title>Node2161</title>
<a xlink:href="classokw_1_1core_1_1_e_n___o_k_w_frame_object_method_not_implemented___test.html#ac6cd1438926ef15a886f147595b253f1" target="_top" xlink:title="Prüft ob die Ausnahme OKWFrameObjectMethodNotImplemented von VerifyCaptionREGX( FN, ExpVal ) ausgelöst wird. ">
<polygon fill="white" stroke="black" points="200.5,-782 200.5,-842 427.5,-842 427.5,-782 200.5,-782"/>
<text text-anchor="start" x="208.5" y="-829" font-family="Helvetica,sans-Serif" font-size="10.00">okw.core.EN_OKWFrameObject</text>
<text text-anchor="start" x="208.5" y="-816" font-family="Helvetica,sans-Serif" font-size="10.00">MethodNotImplemented_Test.TC</text>
<text text-anchor="start" x="208.5" y="-803" font-family="Helvetica,sans-Serif" font-size="10.00">_VerifyCaptionREGX_OKWFrameObjectMethod</text>
<text text-anchor="middle" x="314" y="-790" font-family="Helvetica,sans-Serif" font-size="10.00">NotImplemented</text>
</a>
</g>
<!-- Node2153&#45;&gt;Node2161 -->
<g id="edge16" class="edge"><title>Node2153&#45;&gt;Node2161</title>
<path fill="none" stroke="midnightblue" d="M99.2173,-692.061C120.906,-713.902 160.178,-750.524 200,-773 205.647,-776.187 211.598,-779.175 217.697,-781.964"/>
<polygon fill="midnightblue" stroke="midnightblue" points="101.548,-689.439 92.0539,-684.737 96.5438,-694.333 101.548,-689.439"/>
</g>
<!-- Node2162 -->
<g id="node19" class="node"><title>Node2162</title>
<a xlink:href="classokw_1_1core_1_1_e_n___o_k_w_not_allowed_value_exception___keywords___i_g_n_o_r_e.html#a1f91137449af660632852f7d382ea4c3" target="_top" xlink:title="Prüft ob &quot;${IGNORE} &quot; die Ausnahme okw.exceptions.OKWNotAllowedValueException auslöst. ">
<polygon fill="white" stroke="black" points="211,-716.5 211,-763.5 417,-763.5 417,-716.5 211,-716.5"/>
<text text-anchor="start" x="219" y="-750.5" font-family="Helvetica,sans-Serif" font-size="10.00">okw.core.EN_OKWNotAllowed</text>
<text text-anchor="start" x="219" y="-737.5" font-family="Helvetica,sans-Serif" font-size="10.00">ValueException_Keywords</text>
<text text-anchor="middle" x="314" y="-724.5" font-family="Helvetica,sans-Serif" font-size="10.00">_IGNORE.tcVerifyCaptionREGXIGNORE1</text>
</a>
</g>
<!-- Node2153&#45;&gt;Node2162 -->
<g id="edge18" class="edge"><title>Node2153&#45;&gt;Node2162</title>
<path fill="none" stroke="midnightblue" d="M128.958,-687.359C158.208,-695.68 196.664,-706.62 230.938,-716.37"/>
<polygon fill="midnightblue" stroke="midnightblue" points="129.594,-683.901 119.018,-684.531 127.678,-690.634 129.594,-683.901"/>
</g>
<!-- Node2163 -->
<g id="node21" class="node"><title>Node2163</title>
<a xlink:href="classokw_1_1core_1_1_e_n___o_k_w_not_allowed_value_exception___keywords___i_g_n_o_r_e.html#a447e9bdbfe9c4be6d2d1ad4997ca1bd3" target="_top" xlink:title="Prüft ob &quot;&quot;${IGNORE}${TCN}&quot; die Ausnahme okw.exceptions.OKWNotAllowedValueException auslöst...">
<polygon fill="white" stroke="black" points="211,-650.5 211,-697.5 417,-697.5 417,-650.5 211,-650.5"/>
<text text-anchor="start" x="219" y="-684.5" font-family="Helvetica,sans-Serif" font-size="10.00">okw.core.EN_OKWNotAllowed</text>
<text text-anchor="start" x="219" y="-671.5" font-family="Helvetica,sans-Serif" font-size="10.00">ValueException_Keywords</text>
<text text-anchor="middle" x="314" y="-658.5" font-family="Helvetica,sans-Serif" font-size="10.00">_IGNORE.tcVerifyCaptionREGXIGNORE2</text>
</a>
</g>
<!-- Node2153&#45;&gt;Node2163 -->
<g id="edge20" class="edge"><title>Node2153&#45;&gt;Node2163</title>
<path fill="none" stroke="midnightblue" d="M174.153,-674C186.21,-674 198.627,-674 210.851,-674"/>
<polygon fill="midnightblue" stroke="midnightblue" points="174.121,-670.5 164.121,-674 174.121,-677.5 174.121,-670.5"/>
</g>
<!-- Node2164 -->
<g id="node23" class="node"><title>Node2164</title>
<a xlink:href="classokw_1_1core_1_1_e_n___verify_caption___o_k_w_verifying_fails_exception___test.html#ac866dde8c7cd7c86f60f82d61a4fb6f9" target="_top" xlink:title="Prüft, ob die Ausnahme OKWVerifyingFailsException bei einem Soll/Ist&#45;Vergleich ausgelöst wird...">
<polygon fill="white" stroke="black" points="209.5,-572 209.5,-632 418.5,-632 418.5,-572 209.5,-572"/>
<text text-anchor="start" x="217.5" y="-619" font-family="Helvetica,sans-Serif" font-size="10.00">okw.core.EN_VerifyCaption</text>
<text text-anchor="start" x="217.5" y="-606" font-family="Helvetica,sans-Serif" font-size="10.00">_OKWVerifyingFailsException</text>
<text text-anchor="start" x="217.5" y="-593" font-family="Helvetica,sans-Serif" font-size="10.00">_Test.TC_VerifyValueREGX_OKWVerifying</text>
<text text-anchor="middle" x="314" y="-580" font-family="Helvetica,sans-Serif" font-size="10.00">FailsException_SV01</text>
</a>
</g>
<!-- Node2153&#45;&gt;Node2164 -->
<g id="edge22" class="edge"><title>Node2153&#45;&gt;Node2164</title>
<path fill="none" stroke="midnightblue" d="M126.065,-660.325C151.852,-652.322 185.475,-641.887 217.142,-632.06"/>
<polygon fill="midnightblue" stroke="midnightblue" points="124.746,-657.069 116.232,-663.376 126.82,-663.755 124.746,-657.069"/>
</g>
<!-- Node2165 -->
<g id="node25" class="node"><title>Node2165</title>
<a xlink:href="classokw_1_1core_1_1_e_n___verify_caption___o_k_w_verifying_fails_exception___test.html#a49646839ed7d8132be4d61a56cefd7c3" target="_top" xlink:title="Prüft, ob die Ausnahme OKWVerifyingFailsException bei einem Soll/Ist&#45;Vergleich ausgelöst wird...">
<polygon fill="white" stroke="black" points="209.5,-494 209.5,-554 418.5,-554 418.5,-494 209.5,-494"/>
<text text-anchor="start" x="217.5" y="-541" font-family="Helvetica,sans-Serif" font-size="10.00">okw.core.EN_VerifyCaption</text>
<text text-anchor="start" x="217.5" y="-528" font-family="Helvetica,sans-Serif" font-size="10.00">_OKWVerifyingFailsException</text>
<text text-anchor="start" x="217.5" y="-515" font-family="Helvetica,sans-Serif" font-size="10.00">_Test.TC_VerifyValueREGX_OKWVerifying</text>
<text text-anchor="middle" x="314" y="-502" font-family="Helvetica,sans-Serif" font-size="10.00">FailsException_SV02</text>
</a>
</g>
<!-- Node2153&#45;&gt;Node2165 -->
<g id="edge24" class="edge"><title>Node2153&#45;&gt;Node2165</title>
<path fill="none" stroke="midnightblue" d="M97.185,-655.46C118.031,-631.103 157.761,-588.447 200,-563 205.286,-559.816 210.867,-556.847 216.605,-554.087"/>
<polygon fill="midnightblue" stroke="midnightblue" points="94.387,-653.349 90.626,-663.254 99.7428,-657.856 94.387,-653.349"/>
</g>
<!-- Node2166 -->
<g id="node27" class="node"><title>Node2166</title>
<a xlink:href="classokw_1_1core_1_1_e_n___verify_caption___o_k_w_verifying_fails_exception___test.html#a21b76b768b6aaea3244e1e65b1048364" target="_top" xlink:title="Prüft, ob die Ausnahme OKWVerifyingFailsException bei einem Soll/Ist&#45;Vergleich ausgelöst wird...">
<polygon fill="white" stroke="black" points="209.5,-416 209.5,-476 418.5,-476 418.5,-416 209.5,-416"/>
<text text-anchor="start" x="217.5" y="-463" font-family="Helvetica,sans-Serif" font-size="10.00">okw.core.EN_VerifyCaption</text>
<text text-anchor="start" x="217.5" y="-450" font-family="Helvetica,sans-Serif" font-size="10.00">_OKWVerifyingFailsException</text>
<text text-anchor="start" x="217.5" y="-437" font-family="Helvetica,sans-Serif" font-size="10.00">_Test.TC_VerifyValueREGX_OKWVerifying</text>
<text text-anchor="middle" x="314" y="-424" font-family="Helvetica,sans-Serif" font-size="10.00">FailsException_SV03</text>
</a>
</g>
<!-- Node2153&#45;&gt;Node2166 -->
<g id="edge26" class="edge"><title>Node2153&#45;&gt;Node2166</title>
<path fill="none" stroke="midnightblue" d="M89.3301,-653.651C104.208,-615.159 141.575,-531.396 200,-485 204.095,-481.748 208.478,-478.759 213.053,-476.013"/>
<polygon fill="midnightblue" stroke="midnightblue" points="85.9688,-652.646 85.7315,-663.239 92.5224,-655.106 85.9688,-652.646"/>
</g>
<!-- Node2167 -->
<g id="node29" class="node"><title>Node2167</title>
<a xlink:href="classokw_1_1core_1_1_e_n___verify_caption___o_k_w_verifying_fails_exception___test.html#a658fa62215659ca6393e4ce148a5d5b7" target="_top" xlink:title="Prüft, ob die Ausnahme OKWVerifyingFailsException bei einem Soll/Ist&#45;Vergleich ausgelöst wird...">
<polygon fill="white" stroke="black" points="209.5,-338 209.5,-398 418.5,-398 418.5,-338 209.5,-338"/>
<text text-anchor="start" x="217.5" y="-385" font-family="Helvetica,sans-Serif" font-size="10.00">okw.core.EN_VerifyCaption</text>
<text text-anchor="start" x="217.5" y="-372" font-family="Helvetica,sans-Serif" font-size="10.00">_OKWVerifyingFailsException</text>
<text text-anchor="start" x="217.5" y="-359" font-family="Helvetica,sans-Serif" font-size="10.00">_Test.TC_VerifyValueREGX_OKWVerifying</text>
<text text-anchor="middle" x="314" y="-346" font-family="Helvetica,sans-Serif" font-size="10.00">FailsException_MV01</text>
</a>
</g>
<!-- Node2153&#45;&gt;Node2167 -->
<g id="edge28" class="edge"><title>Node2153&#45;&gt;Node2167</title>
<path fill="none" stroke="midnightblue" d="M85.3107,-653.447C94.3657,-603.852 124.125,-476.579 200,-407 203.546,-403.748 207.375,-400.766 211.407,-398.031"/>
<polygon fill="midnightblue" stroke="midnightblue" points="81.8608,-652.858 83.6005,-663.309 88.7579,-654.054 81.8608,-652.858"/>
</g>
<!-- Node2168 -->
<g id="node31" class="node"><title>Node2168</title>
<a xlink:href="classokw_1_1core_1_1_e_n___verify_caption___o_k_w_verifying_fails_exception___test.html#ae98f94e8ec42a8af9d9efd5849acebef" target="_top" xlink:title="Prüft, ob die Ausnahme OKWVerifyingFailsException bei einem Soll/Ist&#45;Vergleich ausgelöst wird...">
<polygon fill="white" stroke="black" points="209.5,-260 209.5,-320 418.5,-320 418.5,-260 209.5,-260"/>
<text text-anchor="start" x="217.5" y="-307" font-family="Helvetica,sans-Serif" font-size="10.00">okw.core.EN_VerifyCaption</text>
<text text-anchor="start" x="217.5" y="-294" font-family="Helvetica,sans-Serif" font-size="10.00">_OKWVerifyingFailsException</text>
<text text-anchor="start" x="217.5" y="-281" font-family="Helvetica,sans-Serif" font-size="10.00">_Test.TC_VerifyValueREGX_OKWVerifying</text>
<text text-anchor="middle" x="314" y="-268" font-family="Helvetica,sans-Serif" font-size="10.00">FailsException_MV02</text>
</a>
</g>
<!-- Node2153&#45;&gt;Node2168 -->
<g id="edge30" class="edge"><title>Node2153&#45;&gt;Node2168</title>
<path fill="none" stroke="midnightblue" d="M82.9838,-653.268C86.9086,-594.115 106.229,-422.778 200,-329 203.254,-325.746 206.791,-322.763 210.537,-320.029"/>
<polygon fill="midnightblue" stroke="midnightblue" points="79.4896,-653.069 82.401,-663.256 86.4777,-653.477 79.4896,-653.069"/>
</g>
<!-- Node2169 -->
<g id="node33" class="node"><title>Node2169</title>
<a xlink:href="classokw_1_1core_1_1_e_n___verify_caption___o_k_w_verifying_fails_exception___test.html#ae13e50b328a134def06c17d1368bc685" target="_top" xlink:title="Prüft, ob die Ausnahme OKWVerifyingFailsException bei einem Soll/Ist&#45;Vergleich ausgelöst wird...">
<polygon fill="white" stroke="black" points="209.5,-182 209.5,-242 418.5,-242 418.5,-182 209.5,-182"/>
<text text-anchor="start" x="217.5" y="-229" font-family="Helvetica,sans-Serif" font-size="10.00">okw.core.EN_VerifyCaption</text>
<text text-anchor="start" x="217.5" y="-216" font-family="Helvetica,sans-Serif" font-size="10.00">_OKWVerifyingFailsException</text>
<text text-anchor="start" x="217.5" y="-203" font-family="Helvetica,sans-Serif" font-size="10.00">_Test.TC_VerifyValueREGX_OKWVerifying</text>
<text text-anchor="middle" x="314" y="-190" font-family="Helvetica,sans-Serif" font-size="10.00">FailsException_MV03</text>
</a>
</g>
<!-- Node2153&#45;&gt;Node2169 -->
<g id="edge32" class="edge"><title>Node2153&#45;&gt;Node2169</title>
<path fill="none" stroke="midnightblue" d="M85.2079,-653.112C97.3729,-576.395 142.876,-311.511 200,-251 203.015,-247.806 206.303,-244.873 209.799,-242.181"/>
<polygon fill="midnightblue" stroke="midnightblue" points="81.6884,-652.965 83.6009,-663.386 88.6043,-654.047 81.6884,-652.965"/>
</g>
<!-- Node2170 -->
<g id="node35" class="node"><title>Node2170</title>
<a xlink:href="classokw_1_1core_1_1_e_n___verify_caption___o_k_w_verifying_fails_exception___test.html#a412af3577521e60d092ca0b9ad173e8a" target="_top" xlink:title="Prüft, ob die Ausnahme OKWVerifyingFailsException bei einem Soll/Ist&#45;Vergleich ausgelöst wird...">
<polygon fill="white" stroke="black" points="209.5,-104 209.5,-164 418.5,-164 418.5,-104 209.5,-104"/>
<text text-anchor="start" x="217.5" y="-151" font-family="Helvetica,sans-Serif" font-size="10.00">okw.core.EN_VerifyCaption</text>
<text text-anchor="start" x="217.5" y="-138" font-family="Helvetica,sans-Serif" font-size="10.00">_OKWVerifyingFailsException</text>
<text text-anchor="start" x="217.5" y="-125" font-family="Helvetica,sans-Serif" font-size="10.00">_Test.TC_VerifyValueREGX_OKWVerifying</text>
<text text-anchor="middle" x="314" y="-112" font-family="Helvetica,sans-Serif" font-size="10.00">FailsException_MV04</text>
</a>
</g>
<!-- Node2153&#45;&gt;Node2170 -->
<g id="edge34" class="edge"><title>Node2153&#45;&gt;Node2170</title>
<path fill="none" stroke="midnightblue" d="M84.224,-653.212C93.7307,-567.983 133.528,-246.35 200,-173 202.95,-169.745 206.183,-166.762 209.632,-164.027"/>
<polygon fill="midnightblue" stroke="midnightblue" points="80.7377,-652.896 83.127,-663.218 87.696,-653.659 80.7377,-652.896"/>
</g>
<!-- Node2171 -->
<g id="node37" class="node"><title>Node2171</title>
<a xlink:href="classokw_1_1_se_input_radio_1_1_se_input_radio___e_n___test.html#a1a1d509d084388231674b57896ee0c25" target="_top" xlink:title="Test des Schlüsselwortes VerifyCaptionREGX für den GUI&#45;Adapter SeInputRadio. ">
<polygon fill="white" stroke="black" points="218.5,-52 218.5,-86 409.5,-86 409.5,-52 218.5,-52"/>
<text text-anchor="start" x="226.5" y="-73" font-family="Helvetica,sans-Serif" font-size="10.00">okw.SeInputRadio.SeInput</text>
<text text-anchor="middle" x="314" y="-60" font-family="Helvetica,sans-Serif" font-size="10.00">Radio_EN_Test.tc_VerifyCaptionREGX</text>
</a>
</g>
<!-- Node2153&#45;&gt;Node2171 -->
<g id="edge36" class="edge"><title>Node2153&#45;&gt;Node2171</title>
<path fill="none" stroke="midnightblue" d="M83.2937,-653.163C89.5413,-559.356 119.648,-177.237 200,-95 205.32,-89.5551 211.528,-85.1475 218.249,-81.5902"/>
<polygon fill="midnightblue" stroke="midnightblue" points="79.7874,-653.148 82.6346,-663.354 86.7728,-653.6 79.7874,-653.148"/>
</g>
<!-- Node2172 -->
<g id="node39" class="node"><title>Node2172</title>
<a xlink:href="classokw_1_1_se_link_1_1_se_link___e_n___test.html#ad88f4d017f1a55ad12f9ffc5ed0ab336" target="_top" xlink:title="Prüft die Methode SeLink.MemorizeToolTip. ">
<polygon fill="white" stroke="black" points="237,-0 237,-34 391,-34 391,-0 237,-0"/>
<text text-anchor="start" x="245" y="-21" font-family="Helvetica,sans-Serif" font-size="10.00">okw.SeLink.SeLink_EN</text>
<text text-anchor="middle" x="314" y="-8" font-family="Helvetica,sans-Serif" font-size="10.00">_Test.TC_MemorizeToolTip_en</text>
</a>
</g>
<!-- Node2153&#45;&gt;Node2172 -->
<g id="edge38" class="edge"><title>Node2153&#45;&gt;Node2172</title>
<path fill="none" stroke="midnightblue" d="M82.9129,-653.212C87.6756,-554.443 112.886,-133.612 200,-43 209.919,-32.6831 223.02,-26.0767 236.799,-21.9196"/>
<polygon fill="midnightblue" stroke="midnightblue" points="79.4081,-653.237 82.4408,-663.389 86.4005,-653.562 79.4081,-653.237"/>
</g>
</g>
</svg>
        <g id="navigator" transform="translate(0 0)" fill="#404254">
                <rect fill="#f2f5e9" fill-opacity="0.5" stroke="#606060" stroke-width=".5" x="0" y="0" width="60" height="60"/>
                <use id="zoomplus" xlink:href="#zoomPlus" x="17" y="9" onmousedown="handleZoom(evt,'in')"/>
                <use id="zoomminus" xlink:href="#zoomMin" x="42" y="9" onmousedown="handleZoom(evt,'out')"/>
                <use id="reset" xlink:href="#resetDef" x="30" y="36" onmousedown="handleReset()"/>
                <g id="arrowUp" xlink:href="#dirArrow" transform="translate(30 24)" onmousedown="handlePan(0,-1)">
                  <use xlink:href="#rim" fill="#404040">
                        <set attributeName="fill" to="#808080" begin="arrowUp.mouseover" end="arrowUp.mouseout"/>
                  </use>
                  <path fill="none" stroke="white" stroke-width="1.5" d="M0,-3.0v7 M-2.5,-0.5L0,-3.0L2.5,-0.5"/>
                </g>
                <g id="arrowRight" xlink:href="#dirArrow" transform="rotate(90) translate(36 -43)" onmousedown="handlePan(1,0)">
                  <use xlink:href="#rim" fill="#404040">
                        <set attributeName="fill" to="#808080" begin="arrowRight.mouseover" end="arrowRight.mouseout"/>
                  </use>
                  <path fill="none" stroke="white" stroke-width="1.5" d="M0,-3.0v7 M-2.5,-0.5L0,-3.0L2.5,-0.5"/>
                </g>
                <g id="arrowDown" xlink:href="#dirArrow" transform="rotate(180) translate(-30 -48)" onmousedown="handlePan(0,1)">
                  <use xlink:href="#rim" fill="#404040">
                        <set attributeName="fill" to="#808080" begin="arrowDown.mouseover" end="arrowDown.mouseout"/>
                  </use>
                  <path fill="none" stroke="white" stroke-width="1.5" d="M0,-3.0v7 M-2.5,-0.5L0,-3.0L2.5,-0.5"/>
                </g>
                <g id="arrowLeft" xlink:href="#dirArrow" transform="rotate(270) translate(-36 17)" onmousedown="handlePan(-1,0)">
                  <use xlink:href="#rim" fill="#404040">
                        <set attributeName="fill" to="#808080" begin="arrowLeft.mouseover" end="arrowLeft.mouseout"/>
                  </use>
                  <path fill="none" stroke="white" stroke-width="1.5" d="M0,-3.0v7 M-2.5,-0.5L0,-3.0L2.5,-0.5"/>
                </g>
        </g>
        <svg viewBox="0 0 15 15" width="100%" height="30px" preserveAspectRatio="xMaxYMin meet">
         <g id="arrow_out" transform="scale(0.3 0.3)">
          <a xlink:href="classokw_1_1core_1_1_e_n_ab155161cbaa50ebad79b1695f1f504fa_icgraph_org.svg" target="_base">
           <rect id="button" ry="5" rx="5" y="6" x="6" height="38" width="38"
                fill="#f2f5e9" fill-opacity="0.5" stroke="#606060" stroke-width="1.0"/>
           <path id="arrow"
             d="M 11.500037,31.436501 C 11.940474,20.09759 22.043105,11.32322 32.158766,21.979434 L 37.068811,17.246167 C 37.068811,17.246167 37.088388,32 37.088388,32 L 22.160133,31.978069 C 22.160133,31.978069 26.997745,27.140456 26.997745,27.140456 C 18.528582,18.264221 13.291696,25.230495 11.500037,31.436501 z"
             style="fill:#404040;"/>
          </a>
         </g>
        </svg>
</svg>
