<?xml version="1.0" encoding="UTF-8" standalone="no"?>
<!DOCTYPE svg PUBLIC "-//W3C//DTD SVG 1.1//EN"
 "http://www.w3.org/Graphics/SVG/1.1/DTD/svg11.dtd">
<!-- Generated by graphviz version 2.38.0 (20140413.2041)
 -->
<!-- Title: okw.log.Log2Console.LogKeyWordEnd Pages: 1 -->
<svg width="754pt" height="39pt"
 viewBox="0.00 0.00 754.00 39.00" xmlns="http://www.w3.org/2000/svg" xmlns:xlink="http://www.w3.org/1999/xlink">
<g id="graph0" class="graph" transform="scale(1 1) rotate(0) translate(4 35)">
<title>okw.log.Log2Console.LogKeyWordEnd</title>
<polygon fill="white" stroke="none" points="-4,4 -4,-35 750,-35 750,4 -4,4"/>
<!-- Node96 -->
<g id="node1" class="node"><title>Node96</title>
<g id="a_node1"><a xlink:title="LogKeyWordEnd:">
<polygon fill="#bfbfbf" stroke="black" points="0,-0.5 0,-30.5 152,-30.5 152,-0.5 0,-0.5"/>
<text text-anchor="start" x="8" y="-18.5" font-family="Helvetica,sans-Serif" font-size="10.00">okw.log.Log2Console.LogKey</text>
<text text-anchor="middle" x="76" y="-7.5" font-family="Helvetica,sans-Serif" font-size="10.00">WordEnd</text>
</a>
</g>
</g>
<!-- Node97 -->
<g id="node2" class="node"><title>Node97</title>
<g id="a_node2"><a xlink:href="classokw_1_1log_1_1_log2_console.html#ab2120d2a3c68dc03a6a62d02570bfbd6" target="_top" xlink:title="ResCloseList: Closes the outline level.">
<polygon fill="white" stroke="black" points="188,-6 188,-25 366,-25 366,-6 188,-6"/>
<text text-anchor="middle" x="277" y="-13" font-family="Helvetica,sans-Serif" font-size="10.00">okw.log.Log2Console.ResCloseList</text>
</a>
</g>
</g>
<!-- Node96&#45;&gt;Node97 -->
<g id="edge1" class="edge"><title>Node96&#45;&gt;Node97</title>
<path fill="none" stroke="midnightblue" d="M152.233,-15.5C160.619,-15.5 169.249,-15.5 177.866,-15.5"/>
<polygon fill="midnightblue" stroke="midnightblue" points="177.96,-19.0001 187.96,-15.5 177.96,-12.0001 177.96,-19.0001"/>
</g>
<!-- Node98 -->
<g id="node3" class="node"><title>Node98</title>
<g id="a_node3"><a xlink:href="classokw_1_1log_1_1_log2_console.html#a418e8bba5b89f56ddaf2fea089dd24b2" target="_top" xlink:title="Erzeugt die Einrücktiefe für die Console&#45;Ausgabe.">
<polygon fill="white" stroke="black" points="402,-0.5 402,-30.5 552,-30.5 552,-0.5 402,-0.5"/>
<text text-anchor="start" x="410" y="-18.5" font-family="Helvetica,sans-Serif" font-size="10.00">okw.log.Log2Console.Blanks</text>
<text text-anchor="middle" x="477" y="-7.5" font-family="Helvetica,sans-Serif" font-size="10.00">Before</text>
</a>
</g>
</g>
<!-- Node97&#45;&gt;Node98 -->
<g id="edge2" class="edge"><title>Node97&#45;&gt;Node98</title>
<path fill="none" stroke="midnightblue" d="M366.287,-15.5C374.719,-15.5 383.255,-15.5 391.647,-15.5"/>
<polygon fill="midnightblue" stroke="midnightblue" points="391.796,-19.0001 401.796,-15.5 391.796,-12.0001 391.796,-19.0001"/>
</g>
<!-- Node99 -->
<g id="node4" class="node"><title>Node99</title>
<g id="a_node4"><a xlink:href="classokw_1_1_o_k_w___helper.html#ab5e676787808ed174e603c1e3bfcd176" target="_top" xlink:title=" ">
<polygon fill="white" stroke="black" points="588,-6 588,-25 746,-25 746,-6 588,-6"/>
<text text-anchor="middle" x="667" y="-13" font-family="Helvetica,sans-Serif" font-size="10.00">okw.OKW_Helper.repeatString</text>
</a>
</g>
</g>
<!-- Node98&#45;&gt;Node99 -->
<g id="edge3" class="edge"><title>Node98&#45;&gt;Node99</title>
<path fill="none" stroke="midnightblue" d="M552.033,-15.5C560.452,-15.5 569.095,-15.5 577.675,-15.5"/>
<polygon fill="midnightblue" stroke="midnightblue" points="577.702,-19.0001 587.701,-15.5 577.701,-12.0001 577.702,-19.0001"/>
</g>
</g>
</svg>
