<?xml version="1.0" encoding="UTF-8" standalone="no"?>
<!DOCTYPE svg PUBLIC "-//W3C//DTD SVG 1.1//EN"
 "http://www.w3.org/Graphics/SVG/1.1/DTD/svg11.dtd">
<!-- Generated by graphviz version 2.38.0 (20140413.2041)
 -->
<!-- Title: okw.core.EN.VerifyTablecellValueWCM Pages: 1 -->
<!--zoomable 1231 -->
<svg id="main" version="1.1" xmlns="http://www.w3.org/2000/svg" xmlns:xlink="http://www.w3.org/1999/xlink" xml:space="preserve" onload="init(evt)">
<style type="text/css"><![CDATA[
.edge:hover path { stroke: red; }
.edge:hover polygon { stroke: red; fill: red; }
]]></style>
<script type="text/javascript"><![CDATA[
var edges = document.getElementsByTagName('g');
if (edges && edges.length) {
  for (var i=0;i<edges.length;i++) {
    if (edges[i].id.substr(0,4)=='edge') {
      edges[i].setAttribute('class','edge');
    }
  }
}
]]></script>
        <defs>
                <circle id="rim" cx="0" cy="0" r="7"/>
                <circle id="rim2" cx="0" cy="0" r="3.5"/>
                <g id="zoomPlus">
                        <use xlink:href="#rim" fill="#404040">
                                <set attributeName="fill" to="#808080" begin="zoomplus.mouseover" end="zoomplus.mouseout"/>
                        </use>
                        <path d="M-4,0h8M0,-4v8" fill="none" stroke="white" stroke-width="1.5" pointer-events="none"/>
                </g>
                <g id="zoomMin">
                        <use xlink:href="#rim" fill="#404040">
                                <set attributeName="fill" to="#808080" begin="zoomminus.mouseover" end="zoomminus.mouseout"/>
                        </use>
                        <path d="M-4,0h8" fill="none" stroke="white" stroke-width="1.5" pointer-events="none"/>
                </g>
                <g id="dirArrow">
                        <path fill="none" stroke="white" stroke-width="1.5" d="M0,-3.0v7 M-2.5,-0.5L0,-3.0L2.5,-0.5"/>
                </g>
               <g id="resetDef">
                       <use xlink:href="#rim2" fill="#404040">
                               <set attributeName="fill" to="#808080" begin="reset.mouseover" end="reset.mouseout"/>
                       </use>
               </g>
        </defs>

<script type="text/javascript">
var viewWidth = 416;
var viewHeight = 1231;
var sectionId = 'dynsection-103';
</script>
<script xlink:href="svgpan.js"/>
<svg id="graph" class="graph">
<g id="viewport">
<title>okw.core.EN.VerifyTablecellValueWCM</title>
<polygon fill="white" stroke="none" points="-4,4 -4,-1226.5 412,-1226.5 412,4 -4,4"/>
<!-- Node3413 -->
<g id="node1" class="node"><title>Node3413</title>
<g id="a_node1"><a xlink:title="Vergleicht den Inhalt der gegebenen Tabellenzelle mit dem erwarteten Wert.">
<polygon fill="#bfbfbf" stroke="black" points="265,-634.5 265,-664.5 408,-664.5 408,-634.5 265,-634.5"/>
<text text-anchor="start" x="273" y="-652.5" font-family="Helvetica,sans-Serif" font-size="10.00">okw.core.EN.VerifyTablecell</text>
<text text-anchor="middle" x="336.5" y="-641.5" font-family="Helvetica,sans-Serif" font-size="10.00">ValueWCM</text>
</a>
</g>
</g>
<!-- Node3414 -->
<g id="node2" class="node"><title>Node3414</title>
<g id="a_node2"><a xlink:href="classokw_1_1core_1_1_e_n___keywords___a_n_t_l_r___test.html#a001e269537cc59c4573e8dd2275550b0" target="_top" xlink:title=" ">
<polygon fill="white" stroke="black" points="34.5,-1181 34.5,-1222 194.5,-1222 194.5,-1181 34.5,-1181"/>
<text text-anchor="start" x="42.5" y="-1210" font-family="Helvetica,sans-Serif" font-size="10.00">okw.core.EN_Keywords</text>
<text text-anchor="start" x="42.5" y="-1199" font-family="Helvetica,sans-Serif" font-size="10.00">_ANTLR_Test.tc_VerifyTablecell</text>
<text text-anchor="middle" x="114.5" y="-1188" font-family="Helvetica,sans-Serif" font-size="10.00">ValueWCM_MemorizedValue</text>
</a>
</g>
</g>
<!-- Node3413&#45;&gt;Node3414 -->
<g id="edge1" class="edge"><title>Node3413&#45;&gt;Node3414</title>
<path fill="none" stroke="midnightblue" d="M333.812,-674.658C326.998,-768.698 298.487,-1097.92 229,-1171.5 219.694,-1181.35 207.564,-1188.11 194.705,-1192.72"/>
<polygon fill="midnightblue" stroke="midnightblue" points="337.307,-674.846 334.52,-664.624 330.324,-674.353 337.307,-674.846"/>
</g>
<!-- Node3415 -->
<g id="node3" class="node"><title>Node3415</title>
<g id="a_node3"><a xlink:href="classokw_1_1core_1_1_e_n___keywords___d_e_l_e_t_e___test.html#aef1aa280938a881904e91fbb8db09a8b" target="_top" xlink:title=" ">
<polygon fill="white" stroke="black" points="7.5,-1109.5 7.5,-1161.5 221.5,-1161.5 221.5,-1109.5 7.5,-1109.5"/>
<text text-anchor="start" x="15.5" y="-1149.5" font-family="Helvetica,sans-Serif" font-size="10.00">okw.core.EN_Keywords</text>
<text text-anchor="start" x="15.5" y="-1138.5" font-family="Helvetica,sans-Serif" font-size="10.00">_DELETE_Test.tcVerifyTablecell</text>
<text text-anchor="start" x="15.5" y="-1127.5" font-family="Helvetica,sans-Serif" font-size="10.00">ValueWCM_DELETE_OKWNotAllowedValue</text>
<text text-anchor="middle" x="114.5" y="-1116.5" font-family="Helvetica,sans-Serif" font-size="10.00">Exception</text>
</a>
</g>
</g>
<!-- Node3413&#45;&gt;Node3415 -->
<g id="edge2" class="edge"><title>Node3413&#45;&gt;Node3415</title>
<path fill="none" stroke="midnightblue" d="M332.772,-674.902C323.102,-760.424 287.854,-1036.07 229,-1099.5 225.625,-1103.14 221.886,-1106.41 217.88,-1109.35"/>
<polygon fill="midnightblue" stroke="midnightblue" points="336.27,-675.111 333.896,-664.785 329.313,-674.338 336.27,-675.111"/>
</g>
<!-- Node3416 -->
<g id="node4" class="node"><title>Node3416</title>
<g id="a_node4"><a xlink:href="classokw_1_1core_1_1_e_n___keywords___empty___test.html#a8449e6aa401aca7a8dc5701cfbe6588d" target="_top" xlink:title="Prüft &quot;${EMPTY}&quot; für das Schlüsselwort VerifyValue(string,string)">
<polygon fill="white" stroke="black" points="34.5,-1049 34.5,-1090 194.5,-1090 194.5,-1049 34.5,-1049"/>
<text text-anchor="start" x="42.5" y="-1078" font-family="Helvetica,sans-Serif" font-size="10.00">okw.core.EN_Keywords</text>
<text text-anchor="start" x="42.5" y="-1067" font-family="Helvetica,sans-Serif" font-size="10.00">_Empty_Test.tc_VerifyTablecell</text>
<text text-anchor="middle" x="114.5" y="-1056" font-family="Helvetica,sans-Serif" font-size="10.00">ValueWCM_Empty</text>
</a>
</g>
</g>
<!-- Node3413&#45;&gt;Node3416 -->
<g id="edge3" class="edge"><title>Node3413&#45;&gt;Node3416</title>
<path fill="none" stroke="midnightblue" d="M331.914,-674.854C320.392,-752.828 281.959,-986.972 229,-1039.5 219.522,-1048.9 207.463,-1055.46 194.766,-1060"/>
<polygon fill="midnightblue" stroke="midnightblue" points="335.441,-674.923 333.417,-664.524 328.514,-673.915 335.441,-674.923"/>
</g>
<!-- Node3417 -->
<g id="node5" class="node"><title>Node3417</title>
<g id="a_node5"><a xlink:href="classokw_1_1core_1_1_e_n___keywords___i_g_n_o_r_e___test.html#a27b68153a134989ed0bd3924a8ad6ef9" target="_top" xlink:title=" ">
<polygon fill="white" stroke="black" points="34,-989 34,-1030 195,-1030 195,-989 34,-989"/>
<text text-anchor="start" x="42" y="-1018" font-family="Helvetica,sans-Serif" font-size="10.00">okw.core.EN_Keywords</text>
<text text-anchor="start" x="42" y="-1007" font-family="Helvetica,sans-Serif" font-size="10.00">_IGNORE_Test.tcVerifyTablecell</text>
<text text-anchor="middle" x="114.5" y="-996" font-family="Helvetica,sans-Serif" font-size="10.00">ValueWCM_IGNORE</text>
</a>
</g>
</g>
<!-- Node3413&#45;&gt;Node3417 -->
<g id="edge4" class="edge"><title>Node3413&#45;&gt;Node3417</title>
<path fill="none" stroke="midnightblue" d="M335.114,-674.954C332.748,-736.654 317.856,-895.297 229,-979.5 219.532,-988.472 207.704,-994.834 195.288,-999.328"/>
<polygon fill="midnightblue" stroke="midnightblue" points="338.623,-674.702 335.425,-664.601 331.626,-674.491 338.623,-674.702"/>
</g>
<!-- Node3418 -->
<g id="node6" class="node"><title>Node3418</title>
<g id="a_node6"><a xlink:href="classokw_1_1core_1_1_e_n___keywords___i_g_n_o_r_e___test.html#a3b24ad3bc9ba3d0b1c1ba045b6a02f74" target="_top" xlink:title=" ">
<polygon fill="white" stroke="black" points="28,-929 28,-970 201,-970 201,-929 28,-929"/>
<text text-anchor="start" x="36" y="-958" font-family="Helvetica,sans-Serif" font-size="10.00">okw.core.EN_Keywords</text>
<text text-anchor="start" x="36" y="-947" font-family="Helvetica,sans-Serif" font-size="10.00">_IGNORE_Test.tcVerifyTablecell</text>
<text text-anchor="middle" x="114.5" y="-936" font-family="Helvetica,sans-Serif" font-size="10.00">ValueWCM_IGNORE_EmptyString</text>
</a>
</g>
</g>
<!-- Node3413&#45;&gt;Node3418 -->
<g id="edge5" class="edge"><title>Node3413&#45;&gt;Node3418</title>
<path fill="none" stroke="midnightblue" d="M333.119,-674.835C326.679,-728.537 303.984,-854.301 229,-920.5 220.919,-927.634 211.32,-933.057 201.177,-937.172"/>
<polygon fill="midnightblue" stroke="midnightblue" points="336.608,-675.129 334.23,-664.805 329.65,-674.358 336.608,-675.129"/>
</g>
<!-- Node3419 -->
<g id="node7" class="node"><title>Node3419</title>
<g id="a_node7"><a xlink:href="classokw_1_1core_1_1_e_n___keywords___test.html#af71fe83cdc64d3d4276d23e0d8476275" target="_top" xlink:title=" ">
<polygon fill="white" stroke="black" points="39.5,-880.5 39.5,-910.5 189.5,-910.5 189.5,-880.5 39.5,-880.5"/>
<text text-anchor="start" x="47.5" y="-898.5" font-family="Helvetica,sans-Serif" font-size="10.00">okw.core.EN_Keywords</text>
<text text-anchor="middle" x="114.5" y="-887.5" font-family="Helvetica,sans-Serif" font-size="10.00">_Test.tc_VerifyTablecellValue</text>
</a>
</g>
</g>
<!-- Node3413&#45;&gt;Node3419 -->
<g id="edge6" class="edge"><title>Node3413&#45;&gt;Node3419</title>
<path fill="none" stroke="midnightblue" d="M330.967,-674.65C321.187,-721.23 293.552,-820.784 229,-871.5 217.676,-880.397 203.824,-886.196 189.739,-889.934"/>
<polygon fill="midnightblue" stroke="midnightblue" points="334.412,-675.269 332.936,-664.778 327.547,-673.9 334.412,-675.269"/>
</g>
<!-- Node3420 -->
<g id="node8" class="node"><title>Node3420</title>
<g id="a_node8"><a xlink:href="classokw_1_1core_1_1_e_n___keywords___test.html#a03b56f17307561f962e20a860e203b01" target="_top" xlink:title=" ">
<polygon fill="white" stroke="black" points="28,-831.5 28,-861.5 201,-861.5 201,-831.5 28,-831.5"/>
<text text-anchor="start" x="36" y="-849.5" font-family="Helvetica,sans-Serif" font-size="10.00">okw.core.EN_Keywords</text>
<text text-anchor="middle" x="114.5" y="-838.5" font-family="Helvetica,sans-Serif" font-size="10.00">_Test.tc_VerifyTablecellValueWCM</text>
</a>
</g>
</g>
<!-- Node3413&#45;&gt;Node3420 -->
<g id="edge7" class="edge"><title>Node3413&#45;&gt;Node3420</title>
<path fill="none" stroke="midnightblue" d="M327.392,-674.443C313.609,-712.685 281.844,-785.276 229,-822.5 220.603,-828.415 211.046,-832.926 201.126,-836.358"/>
<polygon fill="midnightblue" stroke="midnightblue" points="330.827,-675.22 330.805,-664.626 324.215,-672.922 330.827,-675.22"/>
</g>
<!-- Node3421 -->
<g id="node9" class="node"><title>Node3421</title>
<g id="a_node9"><a xlink:href="classokw_1_1core_1_1_e_n___o_k_w_frame_object_child_not_found_exception___test.html#a02104956724e32ee77dd99ec6318fbf3" target="_top" xlink:title="Prüft ob die Ausnahme OKWFrameObjectChildNotFoundException durch die VerifyTablecellValueWCM ausgelös...">
<polygon fill="white" stroke="black" points="4,-760.5 4,-812.5 225,-812.5 225,-760.5 4,-760.5"/>
<text text-anchor="start" x="12" y="-800.5" font-family="Helvetica,sans-Serif" font-size="10.00">okw.core.EN_OKWFrameObject</text>
<text text-anchor="start" x="12" y="-789.5" font-family="Helvetica,sans-Serif" font-size="10.00">ChildNotFoundException</text>
<text text-anchor="start" x="12" y="-778.5" font-family="Helvetica,sans-Serif" font-size="10.00">_Test.TC_VerifyTablecellValueWCM</text>
<text text-anchor="middle" x="114.5" y="-767.5" font-family="Helvetica,sans-Serif" font-size="10.00">_OKWFrameObjectChildNotFoundException</text>
</a>
</g>
</g>
<!-- Node3413&#45;&gt;Node3421 -->
<g id="edge8" class="edge"><title>Node3413&#45;&gt;Node3421</title>
<path fill="none" stroke="midnightblue" d="M317.14,-672.497C297.579,-695.564 264.578,-730.584 229,-751.5 223.489,-754.74 217.649,-757.708 211.64,-760.423"/>
<polygon fill="midnightblue" stroke="midnightblue" points="320.015,-674.514 323.719,-664.587 314.634,-670.037 320.015,-674.514"/>
</g>
<!-- Node3422 -->
<g id="node10" class="node"><title>Node3422</title>
<g id="a_node10"><a xlink:href="classokw_1_1core_1_1_e_n___o_k_w_frame_object_method_not_implemented___test.html#ab57f6a3cb0f1844cbb7308c07cdc911e" target="_top" xlink:title="Prüft ob die Ausnahme OKWFrameObjectMethodNotImplemented von VerifyTablecellValueWCM( FN,...">
<polygon fill="white" stroke="black" points="2,-689.5 2,-741.5 227,-741.5 227,-689.5 2,-689.5"/>
<text text-anchor="start" x="10" y="-729.5" font-family="Helvetica,sans-Serif" font-size="10.00">okw.core.EN_OKWFrameObject</text>
<text text-anchor="start" x="10" y="-718.5" font-family="Helvetica,sans-Serif" font-size="10.00">MethodNotImplemented_Test.TC</text>
<text text-anchor="start" x="10" y="-707.5" font-family="Helvetica,sans-Serif" font-size="10.00">_VerifyTablecellValueWCM_OKWFrameObject</text>
<text text-anchor="middle" x="114.5" y="-696.5" font-family="Helvetica,sans-Serif" font-size="10.00">MethodNotImplemented</text>
</a>
</g>
</g>
<!-- Node3413&#45;&gt;Node3422 -->
<g id="edge9" class="edge"><title>Node3413&#45;&gt;Node3422</title>
<path fill="none" stroke="midnightblue" d="M275.52,-667.494C252.915,-674.276 226.729,-682.131 202.17,-689.499"/>
<polygon fill="midnightblue" stroke="midnightblue" points="276.731,-670.785 285.303,-664.559 274.719,-664.08 276.731,-670.785"/>
</g>
<!-- Node3423 -->
<g id="node11" class="node"><title>Node3423</title>
<g id="a_node11"><a xlink:href="classokw_1_1core_1_1_e_n___o_k_w_not_allowed_value_exception___keywords___i_g_n_o_r_e.html#a01cc43e85801af91d6022e1efaf5f554" target="_top" xlink:title="Prüft ob &quot;${IGNORE} &quot; die Ausnahme okw.exceptions.OKWNotAllowedValueException auslöst.">
<polygon fill="white" stroke="black" points="0,-629 0,-670 229,-670 229,-629 0,-629"/>
<text text-anchor="start" x="8" y="-658" font-family="Helvetica,sans-Serif" font-size="10.00">okw.core.EN_OKWNotAllowed</text>
<text text-anchor="start" x="8" y="-647" font-family="Helvetica,sans-Serif" font-size="10.00">ValueException_Keywords</text>
<text text-anchor="middle" x="114.5" y="-636" font-family="Helvetica,sans-Serif" font-size="10.00">_IGNORE.tcVerifyTablecellValueWCMIGNORE1</text>
</a>
</g>
</g>
<!-- Node3413&#45;&gt;Node3423 -->
<g id="edge10" class="edge"><title>Node3413&#45;&gt;Node3423</title>
<path fill="none" stroke="midnightblue" d="M254.915,-649.5C246.549,-649.5 237.938,-649.5 229.297,-649.5"/>
<polygon fill="midnightblue" stroke="midnightblue" points="254.983,-653 264.983,-649.5 254.983,-646 254.983,-653"/>
</g>
<!-- Node3424 -->
<g id="node12" class="node"><title>Node3424</title>
<g id="a_node12"><a xlink:href="classokw_1_1core_1_1_e_n___o_k_w_not_allowed_value_exception___keywords___i_g_n_o_r_e.html#a36bfbbdbc00d2c67b25f08bc0953fa7e" target="_top" xlink:title="Prüft ob &quot;&quot;${IGNORE}${TCN}&quot; die Ausnahme okw.exceptions.OKWNotAllowedValueException auslöst.">
<polygon fill="white" stroke="black" points="0,-569 0,-610 229,-610 229,-569 0,-569"/>
<text text-anchor="start" x="8" y="-598" font-family="Helvetica,sans-Serif" font-size="10.00">okw.core.EN_OKWNotAllowed</text>
<text text-anchor="start" x="8" y="-587" font-family="Helvetica,sans-Serif" font-size="10.00">ValueException_Keywords</text>
<text text-anchor="middle" x="114.5" y="-576" font-family="Helvetica,sans-Serif" font-size="10.00">_IGNORE.tcVerifyTablecellValueWCMIGNORE2</text>
</a>
</g>
</g>
<!-- Node3413&#45;&gt;Node3424 -->
<g id="edge11" class="edge"><title>Node3413&#45;&gt;Node3424</title>
<path fill="none" stroke="midnightblue" d="M272.914,-631.688C258.502,-627.637 243.228,-623.384 229,-619.5 217.694,-616.414 205.741,-613.2 194.002,-610.073"/>
<polygon fill="midnightblue" stroke="midnightblue" points="272.156,-635.111 282.731,-634.453 274.054,-628.373 272.156,-635.111"/>
</g>
<!-- Node3425 -->
<g id="node13" class="node"><title>Node3425</title>
<g id="a_node13"><a xlink:href="classokw_1_1core_1_1_e_n___verify_tablecell_value___o_k_w_verifying_fails_exception___test.html#a7d1689bc5748216a7b92c117af26e15b" target="_top" xlink:title="Prüft, ob die Ausnahme OKWVerifyingFailsException bei einem Soll/Ist&#45;Vergleich ausgelöst wird.">
<polygon fill="white" stroke="black" points="26,-497.5 26,-549.5 203,-549.5 203,-497.5 26,-497.5"/>
<text text-anchor="start" x="34" y="-537.5" font-family="Helvetica,sans-Serif" font-size="10.00">okw.core.EN_VerifyTablecell</text>
<text text-anchor="start" x="34" y="-526.5" font-family="Helvetica,sans-Serif" font-size="10.00">Value_OKWVerifyingFailsException</text>
<text text-anchor="start" x="34" y="-515.5" font-family="Helvetica,sans-Serif" font-size="10.00">_Test.TC_VerifyTablecellValueWCM</text>
<text text-anchor="middle" x="114.5" y="-504.5" font-family="Helvetica,sans-Serif" font-size="10.00">_OKWVerifyingFailsException_M01</text>
</a>
</g>
</g>
<!-- Node3413&#45;&gt;Node3425 -->
<g id="edge12" class="edge"><title>Node3413&#45;&gt;Node3425</title>
<path fill="none" stroke="midnightblue" d="M314.257,-627.063C294.035,-606.868 261.886,-577.654 229,-559.5 220.856,-555.004 212.068,-550.977 203.114,-547.392"/>
<polygon fill="midnightblue" stroke="midnightblue" points="311.891,-629.649 321.4,-634.32 316.879,-624.738 311.891,-629.649"/>
</g>
<!-- Node3426 -->
<g id="node14" class="node"><title>Node3426</title>
<g id="a_node14"><a xlink:href="classokw_1_1core_1_1_e_n___verify_tablecell_value___o_k_w_verifying_fails_exception___test.html#af54dfd1b5b177bf51f4d7898f3dc61dd" target="_top" xlink:title="Prüft, ob die Ausnahme OKWVerifyingFailsException bei einem Soll/Ist&#45;Vergleich ausgelöst wird.">
<polygon fill="white" stroke="black" points="23.5,-426.5 23.5,-478.5 205.5,-478.5 205.5,-426.5 23.5,-426.5"/>
<text text-anchor="start" x="31.5" y="-466.5" font-family="Helvetica,sans-Serif" font-size="10.00">okw.core.EN_VerifyTablecell</text>
<text text-anchor="start" x="31.5" y="-455.5" font-family="Helvetica,sans-Serif" font-size="10.00">Value_OKWVerifyingFailsException</text>
<text text-anchor="start" x="31.5" y="-444.5" font-family="Helvetica,sans-Serif" font-size="10.00">_Test.TC_VerifyTablecellValueWCM</text>
<text text-anchor="middle" x="114.5" y="-433.5" font-family="Helvetica,sans-Serif" font-size="10.00">_OKWVerifyingFailsException_SV01</text>
</a>
</g>
</g>
<!-- Node3413&#45;&gt;Node3426 -->
<g id="edge13" class="edge"><title>Node3413&#45;&gt;Node3426</title>
<path fill="none" stroke="midnightblue" d="M325.462,-624.555C309.978,-589.177 276.954,-524.711 229,-488.5 221.906,-483.143 213.993,-478.571 205.736,-474.669"/>
<polygon fill="midnightblue" stroke="midnightblue" points="322.398,-626.294 329.533,-634.126 328.84,-623.554 322.398,-626.294"/>
</g>
<!-- Node3427 -->
<g id="node15" class="node"><title>Node3427</title>
<g id="a_node15"><a xlink:href="classokw_1_1core_1_1_e_n___verify_tablecell_value___o_k_w_verifying_fails_exception___test.html#abc22401d4e522fd99228d329aa03252f" target="_top" xlink:title="Prüft, ob die Ausnahme OKWVerifyingFailsException bei einem Soll/Ist&#45;Vergleich ausgelöst wird.">
<polygon fill="white" stroke="black" points="23.5,-355.5 23.5,-407.5 205.5,-407.5 205.5,-355.5 23.5,-355.5"/>
<text text-anchor="start" x="31.5" y="-395.5" font-family="Helvetica,sans-Serif" font-size="10.00">okw.core.EN_VerifyTablecell</text>
<text text-anchor="start" x="31.5" y="-384.5" font-family="Helvetica,sans-Serif" font-size="10.00">Value_OKWVerifyingFailsException</text>
<text text-anchor="start" x="31.5" y="-373.5" font-family="Helvetica,sans-Serif" font-size="10.00">_Test.TC_VerifyTablecellValueWCM</text>
<text text-anchor="middle" x="114.5" y="-362.5" font-family="Helvetica,sans-Serif" font-size="10.00">_OKWVerifyingFailsException_SV02</text>
</a>
</g>
</g>
<!-- Node3413&#45;&gt;Node3427 -->
<g id="edge14" class="edge"><title>Node3413&#45;&gt;Node3427</title>
<path fill="none" stroke="midnightblue" d="M330.893,-624.19C320.933,-576.714 292.927,-473.999 229,-417.5 222.03,-411.34 214.003,-406.233 205.506,-401.999"/>
<polygon fill="midnightblue" stroke="midnightblue" points="327.508,-625.112 332.9,-634.232 334.372,-623.739 327.508,-625.112"/>
</g>
<!-- Node3428 -->
<g id="node16" class="node"><title>Node3428</title>
<g id="a_node16"><a xlink:href="classokw_1_1core_1_1_e_n___verify_tablecell_value___o_k_w_verifying_fails_exception___test.html#af68d0df2919f388b020991884c9c277c" target="_top" xlink:title="Prüft, ob die Ausnahme OKWVerifyingFailsException bei einem Soll/Ist&#45;Vergleich ausgelöst wird.">
<polygon fill="white" stroke="black" points="23.5,-284.5 23.5,-336.5 205.5,-336.5 205.5,-284.5 23.5,-284.5"/>
<text text-anchor="start" x="31.5" y="-324.5" font-family="Helvetica,sans-Serif" font-size="10.00">okw.core.EN_VerifyTablecell</text>
<text text-anchor="start" x="31.5" y="-313.5" font-family="Helvetica,sans-Serif" font-size="10.00">Value_OKWVerifyingFailsException</text>
<text text-anchor="start" x="31.5" y="-302.5" font-family="Helvetica,sans-Serif" font-size="10.00">_Test.TC_VerifyTablecellValueWCM</text>
<text text-anchor="middle" x="114.5" y="-291.5" font-family="Helvetica,sans-Serif" font-size="10.00">_OKWVerifyingFailsException_SV03</text>
</a>
</g>
</g>
<!-- Node3413&#45;&gt;Node3428 -->
<g id="edge15" class="edge"><title>Node3413&#45;&gt;Node3428</title>
<path fill="none" stroke="midnightblue" d="M334.01,-624.392C329.236,-566.874 309.48,-424.534 229,-346.5 222.173,-339.88 214.135,-334.477 205.541,-330.068"/>
<polygon fill="midnightblue" stroke="midnightblue" points="330.523,-624.705 334.758,-634.416 337.504,-624.183 330.523,-624.705"/>
</g>
<!-- Node3429 -->
<g id="node17" class="node"><title>Node3429</title>
<g id="a_node17"><a xlink:href="classokw_1_1core_1_1_e_n___verify_tablecell_value___o_k_w_verifying_fails_exception___test.html#abb87915a2ba983fa43a2b1c8b9be6fcd" target="_top" xlink:title="Prüft, ob die Ausnahme OKWVerifyingFailsException bei einem Soll/Ist&#45;Vergleich ausgelöst wird.">
<polygon fill="white" stroke="black" points="23,-213.5 23,-265.5 206,-265.5 206,-213.5 23,-213.5"/>
<text text-anchor="start" x="31" y="-253.5" font-family="Helvetica,sans-Serif" font-size="10.00">okw.core.EN_VerifyTablecell</text>
<text text-anchor="start" x="31" y="-242.5" font-family="Helvetica,sans-Serif" font-size="10.00">Value_OKWVerifyingFailsException</text>
<text text-anchor="start" x="31" y="-231.5" font-family="Helvetica,sans-Serif" font-size="10.00">_Test.TC_VerifyTablecellValueWCM</text>
<text text-anchor="middle" x="114.5" y="-220.5" font-family="Helvetica,sans-Serif" font-size="10.00">_OKWVerifyingFailsException_MV01</text>
</a>
</g>
</g>
<!-- Node3413&#45;&gt;Node3429 -->
<g id="edge16" class="edge"><title>Node3413&#45;&gt;Node3429</title>
<path fill="none" stroke="midnightblue" d="M335.986,-624.182C335.848,-557.542 326.105,-375.535 229,-275.5 222.449,-268.751 214.641,-263.264 206.23,-258.803"/>
<polygon fill="midnightblue" stroke="midnightblue" points="332.486,-624.187 335.933,-634.205 339.486,-624.224 332.486,-624.187"/>
</g>
<!-- Node3430 -->
<g id="node18" class="node"><title>Node3430</title>
<g id="a_node18"><a xlink:href="classokw_1_1core_1_1_e_n___verify_tablecell_value___o_k_w_verifying_fails_exception___test.html#a541ac6fcca8d1da6fa7e2eaefb226c3d" target="_top" xlink:title="Prüft, ob die Ausnahme OKWVerifyingFailsException bei einem Soll/Ist&#45;Vergleich ausgelöst wird.">
<polygon fill="white" stroke="black" points="23,-142.5 23,-194.5 206,-194.5 206,-142.5 23,-142.5"/>
<text text-anchor="start" x="31" y="-182.5" font-family="Helvetica,sans-Serif" font-size="10.00">okw.core.EN_VerifyTablecell</text>
<text text-anchor="start" x="31" y="-171.5" font-family="Helvetica,sans-Serif" font-size="10.00">Value_OKWVerifyingFailsException</text>
<text text-anchor="start" x="31" y="-160.5" font-family="Helvetica,sans-Serif" font-size="10.00">_Test.TC_VerifyTablecellValueWCM</text>
<text text-anchor="middle" x="114.5" y="-149.5" font-family="Helvetica,sans-Serif" font-size="10.00">_OKWVerifyingFailsException_MV02</text>
</a>
</g>
</g>
<!-- Node3413&#45;&gt;Node3430 -->
<g id="edge17" class="edge"><title>Node3413&#45;&gt;Node3430</title>
<path fill="none" stroke="midnightblue" d="M332.731,-624.378C322.932,-539.797 287.314,-267.186 229,-204.5 222.523,-197.538 214.709,-191.915 206.248,-187.375"/>
<polygon fill="midnightblue" stroke="midnightblue" points="329.262,-624.843 333.871,-634.383 336.217,-624.051 329.262,-624.843"/>
</g>
<!-- Node3431 -->
<g id="node19" class="node"><title>Node3431</title>
<g id="a_node19"><a xlink:href="classokw_1_1core_1_1_e_n___verify_tablecell_value___o_k_w_verifying_fails_exception___test.html#a0557d509a1ea0ba6aecd8387d5c09b6d" target="_top" xlink:title="Prüft, ob die Ausnahme OKWVerifyingFailsException bei einem Soll/Ist&#45;Vergleich ausgelöst wird.">
<polygon fill="white" stroke="black" points="23,-71.5 23,-123.5 206,-123.5 206,-71.5 23,-71.5"/>
<text text-anchor="start" x="31" y="-111.5" font-family="Helvetica,sans-Serif" font-size="10.00">okw.core.EN_VerifyTablecell</text>
<text text-anchor="start" x="31" y="-100.5" font-family="Helvetica,sans-Serif" font-size="10.00">Value_OKWVerifyingFailsException</text>
<text text-anchor="start" x="31" y="-89.5" font-family="Helvetica,sans-Serif" font-size="10.00">_Test.TC_VerifyTablecellValueWCM</text>
<text text-anchor="middle" x="114.5" y="-78.5" font-family="Helvetica,sans-Serif" font-size="10.00">_OKWVerifyingFailsException_MV03</text>
</a>
</g>
</g>
<!-- Node3413&#45;&gt;Node3431 -->
<g id="edge18" class="edge"><title>Node3413&#45;&gt;Node3431</title>
<path fill="none" stroke="midnightblue" d="M333.608,-624.143C326.151,-530.771 295.87,-207.684 229,-133.5 222.564,-126.36 214.721,-120.626 206.195,-116.023"/>
<polygon fill="midnightblue" stroke="midnightblue" points="330.138,-624.661 334.405,-634.359 337.116,-624.117 330.138,-624.661"/>
</g>
<!-- Node3432 -->
<g id="node20" class="node"><title>Node3432</title>
<g id="a_node20"><a xlink:href="classokw_1_1core_1_1_e_n___verify_tablecell_value___o_k_w_verifying_fails_exception___test.html#a7930de8c19b5fbbd7ddaa75bd106726b" target="_top" xlink:title="Prüft, ob die Ausnahme OKWVerifyingFailsException bei einem Soll/Ist&#45;Vergleich ausgelöst wird.">
<polygon fill="white" stroke="black" points="23,-0.5 23,-52.5 206,-52.5 206,-0.5 23,-0.5"/>
<text text-anchor="start" x="31" y="-40.5" font-family="Helvetica,sans-Serif" font-size="10.00">okw.core.EN_VerifyTablecell</text>
<text text-anchor="start" x="31" y="-29.5" font-family="Helvetica,sans-Serif" font-size="10.00">Value_OKWVerifyingFailsException</text>
<text text-anchor="start" x="31" y="-18.5" font-family="Helvetica,sans-Serif" font-size="10.00">_Test.TC_VerifyTablecellValueWCM</text>
<text text-anchor="middle" x="114.5" y="-7.5" font-family="Helvetica,sans-Serif" font-size="10.00">_OKWVerifyingFailsException_MV04</text>
</a>
</g>
</g>
<!-- Node3413&#45;&gt;Node3432 -->
<g id="edge19" class="edge"><title>Node3413&#45;&gt;Node3432</title>
<path fill="none" stroke="midnightblue" d="M334.292,-624.025C328.981,-522.529 304.506,-148.318 229,-62.5 222.582,-55.2055 214.695,-49.376 206.094,-44.7195"/>
<polygon fill="midnightblue" stroke="midnightblue" points="330.809,-624.45 334.81,-634.26 337.8,-624.096 330.809,-624.45"/>
</g>
</g>
</svg>
        <g id="navigator" transform="translate(0 0)" fill="#404254">
                <rect fill="#f2f5e9" fill-opacity="0.5" stroke="#606060" stroke-width=".5" x="0" y="0" width="60" height="60"/>
                <use id="zoomplus" xlink:href="#zoomPlus" x="17" y="9" onmousedown="handleZoom(evt,'in')"/>
                <use id="zoomminus" xlink:href="#zoomMin" x="42" y="9" onmousedown="handleZoom(evt,'out')"/>
                <use id="reset" xlink:href="#resetDef" x="30" y="36" onmousedown="handleReset()"/>
                <g id="arrowUp" xlink:href="#dirArrow" transform="translate(30 24)" onmousedown="handlePan(0,-1)">
                  <use xlink:href="#rim" fill="#404040">
                        <set attributeName="fill" to="#808080" begin="arrowUp.mouseover" end="arrowUp.mouseout"/>
                  </use>
                  <path fill="none" stroke="white" stroke-width="1.5" d="M0,-3.0v7 M-2.5,-0.5L0,-3.0L2.5,-0.5"/>
                </g>
                <g id="arrowRight" xlink:href="#dirArrow" transform="rotate(90) translate(36 -43)" onmousedown="handlePan(1,0)">
                  <use xlink:href="#rim" fill="#404040">
                        <set attributeName="fill" to="#808080" begin="arrowRight.mouseover" end="arrowRight.mouseout"/>
                  </use>
                  <path fill="none" stroke="white" stroke-width="1.5" d="M0,-3.0v7 M-2.5,-0.5L0,-3.0L2.5,-0.5"/>
                </g>
                <g id="arrowDown" xlink:href="#dirArrow" transform="rotate(180) translate(-30 -48)" onmousedown="handlePan(0,1)">
                  <use xlink:href="#rim" fill="#404040">
                        <set attributeName="fill" to="#808080" begin="arrowDown.mouseover" end="arrowDown.mouseout"/>
                  </use>
                  <path fill="none" stroke="white" stroke-width="1.5" d="M0,-3.0v7 M-2.5,-0.5L0,-3.0L2.5,-0.5"/>
                </g>
                <g id="arrowLeft" xlink:href="#dirArrow" transform="rotate(270) translate(-36 17)" onmousedown="handlePan(-1,0)">
                  <use xlink:href="#rim" fill="#404040">
                        <set attributeName="fill" to="#808080" begin="arrowLeft.mouseover" end="arrowLeft.mouseout"/>
                  </use>
                  <path fill="none" stroke="white" stroke-width="1.5" d="M0,-3.0v7 M-2.5,-0.5L0,-3.0L2.5,-0.5"/>
                </g>
        </g>
        <svg viewBox="0 0 15 15" width="100%" height="30px" preserveAspectRatio="xMaxYMin meet">
         <g id="arrow_out" transform="scale(0.3 0.3)">
          <a xlink:href="classokw_1_1core_1_1_e_n_aae92a9bb1e550b16be588fbd38c39038_icgraph_org.svg" target="_base">
           <rect id="button" ry="5" rx="5" y="6" x="6" height="38" width="38"
                fill="#f2f5e9" fill-opacity="0.5" stroke="#606060" stroke-width="1.0"/>
           <path id="arrow"
             d="M 11.500037,31.436501 C 11.940474,20.09759 22.043105,11.32322 32.158766,21.979434 L 37.068811,17.246167 C 37.068811,17.246167 37.088388,32 37.088388,32 L 22.160133,31.978069 C 22.160133,31.978069 26.997745,27.140456 26.997745,27.140456 C 18.528582,18.264221 13.291696,25.230495 11.500037,31.436501 z"
             style="fill:#404040;"/>
          </a>
         </g>
        </svg>
</svg>
