<?xml version="1.0" encoding="UTF-8" standalone="no"?>
<!DOCTYPE svg PUBLIC "-//W3C//DTD SVG 1.1//EN"
 "http://www.w3.org/Graphics/SVG/1.1/DTD/svg11.dtd">
<!-- Generated by graphviz version 2.26.3 (20100126.1600)
 -->
<!-- Title: okw.core.EN.MemorizeTablecellValue Pages: 1 -->
<!--zoomable 174 -->
<svg id="main" version="1.1" xmlns="http://www.w3.org/2000/svg" xmlns:xlink="http://www.w3.org/1999/xlink" xml:space="preserve" onload="init(evt)">
<style type="text/css"><![CDATA[
.edge:hover path { stroke: red; }
.edge:hover polygon { stroke: red; fill: red; }
]]></style>
<script type="text/javascript"><![CDATA[
var edges = document.getElementsByTagName('g');
if (edges && edges.length) {
  for (var i=0;i<edges.length;i++) {
    if (edges[i].id.substr(0,4)=='edge') {
      edges[i].setAttribute('class','edge');
    }
  }
}
]]></script>
        <defs>
                <circle id="rim" cx="0" cy="0" r="7"/>
                <circle id="rim2" cx="0" cy="0" r="3.5"/>
                <g id="zoomPlus">
                        <use xlink:href="#rim" fill="#404040">
                                <set attributeName="fill" to="#808080" begin="zoomplus.mouseover" end="zoomplus.mouseout"/>
                        </use>
                        <path d="M-4,0h8M0,-4v8" fill="none" stroke="white" stroke-width="1.5" pointer-events="none"/>
                </g>
                <g id="zoomMin">
                        <use xlink:href="#rim" fill="#404040">
                                <set attributeName="fill" to="#808080" begin="zoomminus.mouseover" end="zoomminus.mouseout"/>
                        </use>
                        <path d="M-4,0h8" fill="none" stroke="white" stroke-width="1.5" pointer-events="none"/>
                </g>
                <g id="dirArrow">
                        <path fill="none" stroke="white" stroke-width="1.5" d="M0,-3.0v7 M-2.5,-0.5L0,-3.0L2.5,-0.5"/>
                </g>
               <g id="resetDef">
                       <use xlink:href="#rim2" fill="#404040">
                               <set attributeName="fill" to="#808080" begin="reset.mouseover" end="reset.mouseout"/>
                       </use>
               </g>
        </defs>

<script type="text/javascript">
var viewWidth = 970;
var viewHeight = 174;
var sectionId = 'dynsection-35';
</script>
<script xlink:href="svgpan.js"/>
<svg id="graph" class="graph">
<g id="viewport">
<title>okw.core.EN.MemorizeTablecellValue</title>
<polygon fill="white" stroke="white" points="-4,5 -4,-170 967,-170 967,5 -4,5"/>
<!-- Node911 -->
<g id="node1" class="node"><title>Node911</title>
<polygon fill="#bfbfbf" stroke="black" points="0,-91 0,-125 158,-125 158,-91 0,-91"/>
<text text-anchor="start" x="8" y="-112" font-family="Helvetica,sans-Serif" font-size="10.00">okw.core.EN.MemorizeTablecell</text>
<text text-anchor="middle" x="79" y="-99" font-family="Helvetica,sans-Serif" font-size="10.00">Value</text>
</g>
<!-- Node912 -->
<g id="node3" class="node"><title>Node912</title>
<a xlink:href="classokw_1_1core_1_1_core.html#ab4e0f723d27cb11c944ec4c82c426100" target="_top" xlink:title="Setzt die Sprache auf den gegebenen wert Language. ">
<polygon fill="white" stroke="black" points="207.5,-132.5 207.5,-153.5 346.5,-153.5 346.5,-132.5 207.5,-132.5"/>
<text text-anchor="middle" x="277" y="-140.5" font-family="Helvetica,sans-Serif" font-size="10.00">okw.core.Core.setLanguage</text>
</a>
</g>
<!-- Node911&#45;&gt;Node912 -->
<g id="edge2" class="edge"><title>Node911&#45;&gt;Node912</title>
<path fill="none" stroke="midnightblue" d="M158.108,-121.984C174.367,-124.858 191.372,-127.864 207.27,-130.674"/>
<polygon fill="midnightblue" stroke="midnightblue" points="207.082,-134.195 217.539,-132.489 208.301,-127.302 207.082,-134.195"/>
</g>
<!-- Node914 -->
<g id="node7" class="node"><title>Node914</title>
<a xlink:href="classokw_1_1core_1_1_core.html#a67a1a2afd49b3f0e696f86e78a599c4b" target="_top" xlink:title="Merkt sich den Wert der gegebenen Zelle in der Tabelle. ">
<polygon fill="white" stroke="black" points="194.5,-57 194.5,-91 359.5,-91 359.5,-57 194.5,-57"/>
<text text-anchor="start" x="202.5" y="-78" font-family="Helvetica,sans-Serif" font-size="10.00">okw.core.Core.MemorizeTablecell</text>
<text text-anchor="middle" x="277" y="-65" font-family="Helvetica,sans-Serif" font-size="10.00">Value</text>
</a>
</g>
<!-- Node911&#45;&gt;Node914 -->
<g id="edge6" class="edge"><title>Node911&#45;&gt;Node914</title>
<path fill="none" stroke="midnightblue" d="M158.108,-94.4157C166.796,-92.924 175.696,-91.3957 184.527,-89.8793"/>
<polygon fill="midnightblue" stroke="midnightblue" points="185.189,-93.3169 194.452,-88.1749 184.004,-86.4178 185.189,-93.3169"/>
</g>
<!-- Node913 -->
<g id="node5" class="node"><title>Node913</title>
<a xlink:href="interfaceokw_1_1core_1_1_i_o_k_w___state.html#a866baa0bde08a47418f54d63bdb56097" target="_top" xlink:title="Interne Methode zum setzen der Sprache f체r die sprachabh채ngigen Ausgaben der Dokumentation (Log)...">
<polygon fill="white" stroke="black" points="396.5,-144.5 396.5,-165.5 569.5,-165.5 569.5,-144.5 396.5,-144.5"/>
<text text-anchor="middle" x="483" y="-152.5" font-family="Helvetica,sans-Serif" font-size="10.00">okw.core.IOKW_State.setLanguage</text>
</a>
</g>
<!-- Node912&#45;&gt;Node913 -->
<g id="edge4" class="edge"><title>Node912&#45;&gt;Node913</title>
<path fill="none" stroke="midnightblue" d="M346.742,-147.063C359.392,-147.8 372.792,-148.58 386.057,-149.353"/>
<polygon fill="midnightblue" stroke="midnightblue" points="385.973,-152.854 396.16,-149.941 386.38,-145.866 385.973,-152.854"/>
</g>
<!-- Node915 -->
<g id="node9" class="node"><title>Node915</title>
<a xlink:href="classokw_1_1log_1_1_logger___sngltn.html#a70ec25e200e00ecefc544e8fd371d2ef" target="_top" xlink:title="Ausgabe eines Schl체sselwortes. ">
<polygon fill="white" stroke="black" points="416,-92 416,-126 550,-126 550,-92 416,-92"/>
<text text-anchor="start" x="424" y="-113" font-family="Helvetica,sans-Serif" font-size="10.00">okw.log.Logger_Sngltn.Log</text>
<text text-anchor="middle" x="483" y="-100" font-family="Helvetica,sans-Serif" font-size="10.00">KeyWordStart</text>
</a>
</g>
<!-- Node914&#45;&gt;Node915 -->
<g id="edge8" class="edge"><title>Node914&#45;&gt;Node915</title>
<path fill="none" stroke="midnightblue" d="M359.601,-88.0342C374.789,-90.6147 390.594,-93.2999 405.622,-95.8532"/>
<polygon fill="midnightblue" stroke="midnightblue" points="405.439,-99.3723 415.884,-97.5968 406.612,-92.4712 405.439,-99.3723"/>
</g>
<!-- Node916 -->
<g id="node11" class="node"><title>Node916</title>
<a xlink:href="classokw_1_1_log_messenger.html#af225d1f037d47b3b085175c09d78bdd2" target="_top" xlink:title="Holt die Log&#45;Meldung f체r MethodeNmae/Textkey ohne weitere Parameter. ">
<polygon fill="white" stroke="black" points="403,-52.5 403,-73.5 563,-73.5 563,-52.5 403,-52.5"/>
<text text-anchor="middle" x="483" y="-60.5" font-family="Helvetica,sans-Serif" font-size="10.00">okw.LogMessenger.GetMessage</text>
</a>
</g>
<!-- Node914&#45;&gt;Node916 -->
<g id="edge10" class="edge"><title>Node914&#45;&gt;Node916</title>
<path fill="none" stroke="midnightblue" d="M359.601,-69.5893C370.485,-69.0081 381.686,-68.41 392.69,-67.8224"/>
<polygon fill="midnightblue" stroke="midnightblue" points="392.927,-71.3148 402.726,-67.2865 392.554,-64.3248 392.927,-71.3148"/>
</g>
<!-- Node919 -->
<g id="node17" class="node"><title>Node919</title>
<a xlink:href="interfaceokw_1_1core_1_1_i_o_k_w___state.html#a663c898d044034490098c92870bce082" target="_top" xlink:title="Merkt sich den Wert der gegebenen Zelle in der Tabelle. ">
<polygon fill="white" stroke="black" points="402.5,-0 402.5,-34 563.5,-34 563.5,-0 402.5,-0"/>
<text text-anchor="start" x="410.5" y="-21" font-family="Helvetica,sans-Serif" font-size="10.00">okw.core.IOKW_State.Memorize</text>
<text text-anchor="middle" x="483" y="-8" font-family="Helvetica,sans-Serif" font-size="10.00">TablecellValue</text>
</a>
</g>
<!-- Node914&#45;&gt;Node919 -->
<g id="edge16" class="edge"><title>Node914&#45;&gt;Node919</title>
<path fill="none" stroke="midnightblue" d="M338.528,-56.9753C361.556,-50.6034 387.905,-43.3128 411.74,-36.7176"/>
<polygon fill="midnightblue" stroke="midnightblue" points="412.729,-40.0755 421.434,-34.0354 410.862,-33.329 412.729,-40.0755"/>
</g>
<!-- Node917 -->
<g id="node13" class="node"><title>Node917</title>
<a xlink:href="classokw_1_1_log_messenger.html#a530cd6ab82ec82a04206a2e976ec06e3" target="_top" xlink:title="Interne Kernfunktion holt die Log&#45;Meldung mit Platzhaltern aus der XML&#45;Datei. ">
<polygon fill="white" stroke="black" points="606.5,-52.5 606.5,-73.5 773.5,-73.5 773.5,-52.5 606.5,-52.5"/>
<text text-anchor="middle" x="690" y="-60.5" font-family="Helvetica,sans-Serif" font-size="10.00">okw.LogMessenger.ReadMessage</text>
</a>
</g>
<!-- Node916&#45;&gt;Node917 -->
<g id="edge12" class="edge"><title>Node916&#45;&gt;Node917</title>
<path fill="none" stroke="midnightblue" d="M563.032,-63C573.92,-63 585.173,-63 596.276,-63"/>
<polygon fill="midnightblue" stroke="midnightblue" points="596.415,-66.5001 606.415,-63 596.415,-59.5001 596.415,-66.5001"/>
</g>
<!-- Node918 -->
<g id="node15" class="node"><title>Node918</title>
<a xlink:href="classokw_1_1_o_k_w___xml_reader.html#ab920b5335a2e1429c14cc5f8e79f39eb" target="_top" xlink:title="Lies den TextContent eines Tag. ">
<polygon fill="white" stroke="black" points="810,-46 810,-80 962,-80 962,-46 810,-46"/>
<text text-anchor="start" x="818" y="-67" font-family="Helvetica,sans-Serif" font-size="10.00">okw.OKW_XmlReader.getText</text>
<text text-anchor="middle" x="886" y="-54" font-family="Helvetica,sans-Serif" font-size="10.00">ContentSingleValue</text>
</a>
</g>
<!-- Node917&#45;&gt;Node918 -->
<g id="edge14" class="edge"><title>Node917&#45;&gt;Node918</title>
<path fill="none" stroke="midnightblue" d="M773.69,-63C782.29,-63 791.041,-63 799.669,-63"/>
<polygon fill="midnightblue" stroke="midnightblue" points="799.725,-66.5001 809.725,-63 799.725,-59.5001 799.725,-66.5001"/>
</g>
</g>
</svg>
        <g id="navigator" transform="translate(0 0)" fill="#404254">
                <rect fill="#f2f5e9" fill-opacity="0.5" stroke="#606060" stroke-width=".5" x="0" y="0" width="60" height="60"/>
                <use id="zoomplus" xlink:href="#zoomPlus" x="17" y="9" onmousedown="handleZoom(evt,'in')"/>
                <use id="zoomminus" xlink:href="#zoomMin" x="42" y="9" onmousedown="handleZoom(evt,'out')"/>
                <use id="reset" xlink:href="#resetDef" x="30" y="36" onmousedown="handleReset()"/>
                <g id="arrowUp" xlink:href="#dirArrow" transform="translate(30 24)" onmousedown="handlePan(0,-1)">
                  <use xlink:href="#rim" fill="#404040">
                        <set attributeName="fill" to="#808080" begin="arrowUp.mouseover" end="arrowUp.mouseout"/>
                  </use>
                  <path fill="none" stroke="white" stroke-width="1.5" d="M0,-3.0v7 M-2.5,-0.5L0,-3.0L2.5,-0.5"/>
                </g>
                <g id="arrowRight" xlink:href="#dirArrow" transform="rotate(90) translate(36 -43)" onmousedown="handlePan(1,0)">
                  <use xlink:href="#rim" fill="#404040">
                        <set attributeName="fill" to="#808080" begin="arrowRight.mouseover" end="arrowRight.mouseout"/>
                  </use>
                  <path fill="none" stroke="white" stroke-width="1.5" d="M0,-3.0v7 M-2.5,-0.5L0,-3.0L2.5,-0.5"/>
                </g>
                <g id="arrowDown" xlink:href="#dirArrow" transform="rotate(180) translate(-30 -48)" onmousedown="handlePan(0,1)">
                  <use xlink:href="#rim" fill="#404040">
                        <set attributeName="fill" to="#808080" begin="arrowDown.mouseover" end="arrowDown.mouseout"/>
                  </use>
                  <path fill="none" stroke="white" stroke-width="1.5" d="M0,-3.0v7 M-2.5,-0.5L0,-3.0L2.5,-0.5"/>
                </g>
                <g id="arrowLeft" xlink:href="#dirArrow" transform="rotate(270) translate(-36 17)" onmousedown="handlePan(-1,0)">
                  <use xlink:href="#rim" fill="#404040">
                        <set attributeName="fill" to="#808080" begin="arrowLeft.mouseover" end="arrowLeft.mouseout"/>
                  </use>
                  <path fill="none" stroke="white" stroke-width="1.5" d="M0,-3.0v7 M-2.5,-0.5L0,-3.0L2.5,-0.5"/>
                </g>
        </g>
        <svg viewBox="0 0 15 15" width="100%" height="30px" preserveAspectRatio="xMaxYMin meet">
         <g id="arrow_out" transform="scale(0.3 0.3)">
          <a xlink:href="classokw_1_1core_1_1_e_n_a69ca65f068665ec7e458d9701bb826ff_cgraph_org.svg" target="_base">
           <rect id="button" ry="5" rx="5" y="6" x="6" height="38" width="38"
                fill="#f2f5e9" fill-opacity="0.5" stroke="#606060" stroke-width="1.0"/>
           <path id="arrow"
             d="M 11.500037,31.436501 C 11.940474,20.09759 22.043105,11.32322 32.158766,21.979434 L 37.068811,17.246167 C 37.068811,17.246167 37.088388,32 37.088388,32 L 22.160133,31.978069 C 22.160133,31.978069 26.997745,27.140456 26.997745,27.140456 C 18.528582,18.264221 13.291696,25.230495 11.500037,31.436501 z"
             style="fill:#404040;"/>
          </a>
         </g>
        </svg>
</svg>
