<?xml version="1.0" encoding="UTF-8" standalone="no"?>
<!DOCTYPE svg PUBLIC "-//W3C//DTD SVG 1.1//EN"
 "http://www.w3.org/Graphics/SVG/1.1/DTD/svg11.dtd">
<!-- Generated by graphviz version 2.36.0 (20140111.2315)
 -->
<!-- Title: okw.gui.adapter.selenium.SeAnyWindow.MemorizeCaption Pages: 1 -->
<!--zoomable 317 -->
<svg id="main" version="1.1" xmlns="http://www.w3.org/2000/svg" xmlns:xlink="http://www.w3.org/1999/xlink" xml:space="preserve" onload="init(evt)">
<style type="text/css"><![CDATA[
.edge:hover path { stroke: red; }
.edge:hover polygon { stroke: red; fill: red; }
]]></style>
<script type="text/javascript"><![CDATA[
var edges = document.getElementsByTagName('g');
if (edges && edges.length) {
  for (var i=0;i<edges.length;i++) {
    if (edges[i].id.substr(0,4)=='edge') {
      edges[i].setAttribute('class','edge');
    }
  }
}
]]></script>
        <defs>
                <circle id="rim" cx="0" cy="0" r="7"/>
                <circle id="rim2" cx="0" cy="0" r="3.5"/>
                <g id="zoomPlus">
                        <use xlink:href="#rim" fill="#404040">
                                <set attributeName="fill" to="#808080" begin="zoomplus.mouseover" end="zoomplus.mouseout"/>
                        </use>
                        <path d="M-4,0h8M0,-4v8" fill="none" stroke="white" stroke-width="1.5" pointer-events="none"/>
                </g>
                <g id="zoomMin">
                        <use xlink:href="#rim" fill="#404040">
                                <set attributeName="fill" to="#808080" begin="zoomminus.mouseover" end="zoomminus.mouseout"/>
                        </use>
                        <path d="M-4,0h8" fill="none" stroke="white" stroke-width="1.5" pointer-events="none"/>
                </g>
                <g id="dirArrow">
                        <path fill="none" stroke="white" stroke-width="1.5" d="M0,-3.0v7 M-2.5,-0.5L0,-3.0L2.5,-0.5"/>
                </g>
               <g id="resetDef">
                       <use xlink:href="#rim2" fill="#404040">
                               <set attributeName="fill" to="#808080" begin="reset.mouseover" end="reset.mouseout"/>
                       </use>
               </g>
        </defs>

<script type="text/javascript">
var viewWidth = 1180;
var viewHeight = 317;
var sectionId = 'dynsection-26';
</script>
<script xlink:href="svgpan.js"/>
<svg id="graph" class="graph">
<g id="viewport">
<title>okw.gui.adapter.selenium.SeAnyWindow.MemorizeCaption</title>
<polygon fill="white" stroke="none" points="-4,4 -4,-313 1176,-313 1176,4 -4,4"/>
<!-- Node343 -->
<g id="node1" class="node"><title>Node343</title>
<polygon fill="#bfbfbf" stroke="black" points="0.5,-142 0.5,-172 161.5,-172 161.5,-142 0.5,-142"/>
<text text-anchor="start" x="8.5" y="-160" font-family="Helvetica,sans-Serif" font-size="10.00">okw.gui.adapter.selenium.</text>
<text text-anchor="middle" x="81" y="-149" font-family="Helvetica,sans-Serif" font-size="10.00">SeAnyWindow.MemorizeCaption</text>
</g>
<!-- Node344 -->
<g id="node2" class="node"><title>Node344</title>
<g id="a_node2"><a xlink:href="classokw_1_1gui_1_1_any_win_base.html#abaab572bdbed7b471f659d5dd8c76853" target="_top" xlink:title="Diese Methode ruft die Methode Logger.Instance.LogFunctionStartDebug(fps_FunctionName), und erweitert den gegebenen Methodenname in fps_FunctionName mit this.GetType().FullName um den Klassenbezeichner. ">
<polygon fill="white" stroke="black" points="198.5,-191 198.5,-221 365.5,-221 365.5,-191 198.5,-191"/>
<text text-anchor="start" x="206.5" y="-209" font-family="Helvetica,sans-Serif" font-size="10.00">okw.gui.AnyWinBase.LogFunction</text>
<text text-anchor="middle" x="282" y="-198" font-family="Helvetica,sans-Serif" font-size="10.00">StartDebug</text>
</a>
</g>
</g>
<!-- Node343&#45;&gt;Node344 -->
<g id="edge1" class="edge"><title>Node343&#45;&gt;Node344</title>
<path fill="none" stroke="midnightblue" d="M143.059,-172.035C164.262,-177.255 188.216,-183.154 210.142,-188.553"/>
<polygon fill="midnightblue" stroke="midnightblue" points="209.51,-192.001 220.057,-190.994 211.183,-185.204 209.51,-192.001"/>
</g>
<!-- Node345 -->
<g id="node3" class="node"><title>Node345</title>
<g id="a_node3"><a xlink:href="classokw_1_1gui_1_1adapter_1_1selenium_1_1_se_any_window.html#ac628cf2651ecb5ac8104a8379a3fa06e" target="_top" xlink:title="Ermittelt den textuellen Inhalt der Überschrift eines HTML&#45;Tags anhand des Attributee &quot;textContent&quot;...">
<polygon fill="white" stroke="black" points="216.5,-142 216.5,-172 347.5,-172 347.5,-142 216.5,-142"/>
<text text-anchor="start" x="224.5" y="-160" font-family="Helvetica,sans-Serif" font-size="10.00">okw.gui.adapter.selenium.</text>
<text text-anchor="middle" x="282" y="-149" font-family="Helvetica,sans-Serif" font-size="10.00">SeAnyWindow.getCaption</text>
</a>
</g>
</g>
<!-- Node343&#45;&gt;Node345 -->
<g id="edge2" class="edge"><title>Node343&#45;&gt;Node345</title>
<path fill="none" stroke="midnightblue" d="M161.508,-157C176.143,-157 191.381,-157 205.882,-157"/>
<polygon fill="midnightblue" stroke="midnightblue" points="206.292,-160.5 216.292,-157 206.292,-153.5 206.292,-160.5"/>
</g>
<!-- Node361 -->
<g id="node19" class="node"><title>Node361</title>
<g id="a_node19"><a xlink:href="classokw_1_1gui_1_1_any_win_base.html#a51cf50ace21902b3a5359316f53a7f3e" target="_top" xlink:title="Methode ruft die Methode Logger.Instance.LogFunctionEndDebug() auf. ">
<polygon fill="white" stroke="black" points="198.5,-93 198.5,-123 365.5,-123 365.5,-93 198.5,-93"/>
<text text-anchor="start" x="206.5" y="-111" font-family="Helvetica,sans-Serif" font-size="10.00">okw.gui.AnyWinBase.LogFunction</text>
<text text-anchor="middle" x="282" y="-100" font-family="Helvetica,sans-Serif" font-size="10.00">EndDebug</text>
</a>
</g>
</g>
<!-- Node343&#45;&gt;Node361 -->
<g id="edge21" class="edge"><title>Node343&#45;&gt;Node361</title>
<path fill="none" stroke="midnightblue" d="M143.059,-141.965C164.262,-136.745 188.216,-130.846 210.142,-125.447"/>
<polygon fill="midnightblue" stroke="midnightblue" points="211.183,-128.796 220.057,-123.006 209.51,-121.999 211.183,-128.796"/>
</g>
<!-- Node346 -->
<g id="node4" class="node"><title>Node346</title>
<g id="a_node4"><a xlink:href="classokw_1_1gui_1_1adapter_1_1selenium_1_1_se_any_window.html#ad806d20bf0e42d47e0aa5282532d3230" target="_top" xlink:title="Prüft die Existenz des aktuellen Objektes. ">
<polygon fill="white" stroke="black" points="416.5,-142 416.5,-172 547.5,-172 547.5,-142 416.5,-142"/>
<text text-anchor="start" x="424.5" y="-160" font-family="Helvetica,sans-Serif" font-size="10.00">okw.gui.adapter.selenium.</text>
<text text-anchor="middle" x="482" y="-149" font-family="Helvetica,sans-Serif" font-size="10.00">SeAnyWindow.getExists</text>
</a>
</g>
</g>
<!-- Node345&#45;&gt;Node346 -->
<g id="edge3" class="edge"><title>Node345&#45;&gt;Node346</title>
<path fill="none" stroke="midnightblue" d="M347.559,-157C366.212,-157 386.73,-157 405.963,-157"/>
<polygon fill="midnightblue" stroke="midnightblue" points="406.19,-160.5 416.19,-157 406.19,-153.5 406.19,-160.5"/>
</g>
<!-- Node355 -->
<g id="node13" class="node"><title>Node355</title>
<g id="a_node13"><a xlink:href="classokw_1_1_log_messenger.html#af225d1f037d47b3b085175c09d78bdd2" target="_top" xlink:title="Holt die Log&#45;Meldung für MethodeNmae/Textkey ohne weitere Parameter. ">
<polygon fill="white" stroke="black" points="402,-54.5 402,-73.5 562,-73.5 562,-54.5 402,-54.5"/>
<text text-anchor="middle" x="482" y="-61.5" font-family="Helvetica,sans-Serif" font-size="10.00">okw.LogMessenger.GetMessage</text>
</a>
</g>
</g>
<!-- Node345&#45;&gt;Node355 -->
<g id="edge12" class="edge"><title>Node345&#45;&gt;Node355</title>
<path fill="none" stroke="midnightblue" d="M339.474,-141.999C348.48,-139.036 357.593,-135.687 366,-132 399.978,-117.099 436.394,-94.2703 458.935,-79.2388"/>
<polygon fill="midnightblue" stroke="midnightblue" points="461.089,-82.0073 467.419,-73.511 457.173,-76.2057 461.089,-82.0073"/>
</g>
<!-- Node358 -->
<g id="node16" class="node"><title>Node358</title>
<g id="a_node16"><a xlink:href="classokw_1_1gui_1_1adapter_1_1selenium_1_1_se_any_window.html#a8b42bf27f4660b4807375a57fa9de815" target="_top" xlink:title="Ermittelt aus dem gegebenen Locator das DOM&#45;Elelement, welches das Objekt representiert. ">
<polygon fill="white" stroke="black" points="416.5,-210 416.5,-240 547.5,-240 547.5,-210 416.5,-210"/>
<text text-anchor="start" x="424.5" y="-228" font-family="Helvetica,sans-Serif" font-size="10.00">okw.gui.adapter.selenium.</text>
<text text-anchor="middle" x="482" y="-217" font-family="Helvetica,sans-Serif" font-size="10.00">SeAnyWindow.Me</text>
</a>
</g>
</g>
<!-- Node345&#45;&gt;Node358 -->
<g id="edge15" class="edge"><title>Node345&#45;&gt;Node358</title>
<path fill="none" stroke="midnightblue" d="M334.968,-172.085C345.289,-175.24 356.018,-178.634 366,-182 388.232,-189.496 412.605,-198.495 433.169,-206.319"/>
<polygon fill="midnightblue" stroke="midnightblue" points="432.038,-209.634 442.629,-209.937 434.539,-203.095 432.038,-209.634"/>
</g>
<!-- Node347 -->
<g id="node5" class="node"><title>Node347</title>
<g id="a_node5"><a xlink:href="classokw_1_1gui_1_1_any_win_base.html#a9929f6fae1f4e2c20df79d32d5bc79db" target="_top" xlink:title="Holt den vollständig (rekursiv) aufgelösten (z.B. ">
<polygon fill="white" stroke="black" points="606.5,-191.5 606.5,-210.5 765.5,-210.5 765.5,-191.5 606.5,-191.5"/>
<text text-anchor="middle" x="686" y="-198.5" font-family="Helvetica,sans-Serif" font-size="10.00">okw.gui.AnyWinBase.getLocator</text>
</a>
</g>
</g>
<!-- Node346&#45;&gt;Node347 -->
<g id="edge4" class="edge"><title>Node346&#45;&gt;Node347</title>
<path fill="none" stroke="midnightblue" d="M547.748,-171.103C574.745,-176.984 605.726,-183.732 631.414,-189.328"/>
<polygon fill="midnightblue" stroke="midnightblue" points="630.827,-192.782 641.342,-191.49 632.317,-185.942 630.827,-192.782"/>
</g>
<!-- Node349 -->
<g id="node7" class="node"><title>Node349</title>
<g id="a_node7"><a xlink:href="classokw_1_1gui_1_1adapter_1_1selenium_1_1webdriver_1_1_se_driver.html#aee9e3f8a67f4ad1f8100a33ba71c926e" target="_top" xlink:title="Gibt die Instance für die einzige Instanz dieser Klasse zurück. ">
<polygon fill="white" stroke="black" points="598,-230 598,-260 774,-260 774,-230 598,-230"/>
<text text-anchor="start" x="606" y="-248" font-family="Helvetica,sans-Serif" font-size="10.00">okw.gui.adapter.selenium.webdriver.</text>
<text text-anchor="middle" x="686" y="-237" font-family="Helvetica,sans-Serif" font-size="10.00">SeDriver.getInstance</text>
</a>
</g>
</g>
<!-- Node346&#45;&gt;Node349 -->
<g id="edge6" class="edge"><title>Node346&#45;&gt;Node349</title>
<path fill="none" stroke="midnightblue" d="M510.274,-172.139C542.824,-190.176 593.461,-218.132 598,-220 603.817,-222.395 609.943,-224.652 616.138,-226.756"/>
<polygon fill="midnightblue" stroke="midnightblue" points="615.303,-230.165 625.895,-229.934 617.471,-223.509 615.303,-230.165"/>
</g>
<!-- Node350 -->
<g id="node8" class="node"><title>Node350</title>
<g id="a_node8"><a xlink:href="classokw_1_1gui_1_1adapter_1_1selenium_1_1webdriver_1_1_se_driver.html#a3505c2c7aba67399be71f26d15489839" target="_top" xlink:title="Ermittelt das Webelement mit der gegebenen frameID und dem gegebenen Locator. ">
<polygon fill="white" stroke="black" points="598,-142 598,-172 774,-172 774,-142 598,-142"/>
<text text-anchor="start" x="606" y="-160" font-family="Helvetica,sans-Serif" font-size="10.00">okw.gui.adapter.selenium.webdriver.</text>
<text text-anchor="middle" x="686" y="-149" font-family="Helvetica,sans-Serif" font-size="10.00">SeDriver.getElements</text>
</a>
</g>
</g>
<!-- Node346&#45;&gt;Node350 -->
<g id="edge7" class="edge"><title>Node346&#45;&gt;Node350</title>
<path fill="none" stroke="midnightblue" d="M547.748,-157C560.438,-157 574.008,-157 587.496,-157"/>
<polygon fill="midnightblue" stroke="midnightblue" points="587.778,-160.5 597.778,-157 587.778,-153.5 587.778,-160.5"/>
</g>
<!-- Node353 -->
<g id="node11" class="node"><title>Node353</title>
<g id="a_node11"><a xlink:href="classokw_1_1log_1_1_logger___sngltn.html#a2c15e9b2cd0c6266f4c67b8cb00d92e5" target="_top" xlink:title="LogWarning Function: Logs a warning to the results file. ">
<polygon fill="white" stroke="black" points="619,-44 619,-74 753,-74 753,-44 619,-44"/>
<text text-anchor="start" x="627" y="-62" font-family="Helvetica,sans-Serif" font-size="10.00">okw.log.Logger_Sngltn.Log</text>
<text text-anchor="middle" x="686" y="-51" font-family="Helvetica,sans-Serif" font-size="10.00">Warning</text>
</a>
</g>
</g>
<!-- Node346&#45;&gt;Node353 -->
<g id="edge10" class="edge"><title>Node346&#45;&gt;Node353</title>
<path fill="none" stroke="midnightblue" d="M502.773,-141.953C524.928,-125.706 562.415,-100.007 598,-84 603.325,-81.6045 608.937,-79.3778 614.641,-77.3212"/>
<polygon fill="midnightblue" stroke="midnightblue" points="615.962,-80.5686 624.292,-74.0212 613.697,-73.9451 615.962,-80.5686"/>
</g>
<!-- Node354 -->
<g id="node12" class="node"><title>Node354</title>
<g id="a_node12"><a xlink:href="classokw_1_1log_1_1_logger___sngltn.html#a313f97c79ba4662d9daaf7f537dd02f4" target="_top" xlink:title="Loggt eine Nachricht. ">
<polygon fill="white" stroke="black" points="619,-93 619,-123 753,-123 753,-93 619,-93"/>
<text text-anchor="start" x="627" y="-111" font-family="Helvetica,sans-Serif" font-size="10.00">okw.log.Logger_Sngltn.Log</text>
<text text-anchor="middle" x="686" y="-100" font-family="Helvetica,sans-Serif" font-size="10.00">PrintDebug</text>
</a>
</g>
</g>
<!-- Node346&#45;&gt;Node354 -->
<g id="edge11" class="edge"><title>Node346&#45;&gt;Node354</title>
<path fill="none" stroke="midnightblue" d="M544.979,-141.965C566.599,-136.721 591.037,-130.793 613.375,-125.374"/>
<polygon fill="midnightblue" stroke="midnightblue" points="614.245,-128.765 623.138,-123.006 612.594,-121.962 614.245,-128.765"/>
</g>
<!-- Node348 -->
<g id="node6" class="node"><title>Node348</title>
<g id="a_node6"><a xlink:href="classokw_1_1gui_1_1_o_k_w_locator.html#adc74fc2125dd048dc1cb84e011f47ec8" target="_top" xlink:title="Holt den vollständig (rekursiv) aufgelösten (z.B. ">
<polygon fill="white" stroke="black" points="819,-191.5 819,-210.5 977,-210.5 977,-191.5 819,-191.5"/>
<text text-anchor="middle" x="898" y="-198.5" font-family="Helvetica,sans-Serif" font-size="10.00">okw.gui.OKWLocator.getLocator</text>
</a>
</g>
</g>
<!-- Node347&#45;&gt;Node348 -->
<g id="edge5" class="edge"><title>Node347&#45;&gt;Node348</title>
<path fill="none" stroke="midnightblue" d="M765.794,-201C779.748,-201 794.362,-201 808.561,-201"/>
<polygon fill="midnightblue" stroke="midnightblue" points="808.812,-204.5 818.812,-201 808.812,-197.5 808.812,-204.5"/>
</g>
<!-- Node351 -->
<g id="node9" class="node"><title>Node351</title>
<g id="a_node9"><a xlink:href="classokw_1_1gui_1_1adapter_1_1selenium_1_1webdriver_1_1_se_driver.html#a47eec72c911c05beb2127672daafb325" target="_top" xlink:title="Wechselt das aktuelle Frame auf das Frame mit der id=iframeID. ">
<polygon fill="white" stroke="black" points="810,-230 810,-260 986,-260 986,-230 810,-230"/>
<text text-anchor="start" x="818" y="-248" font-family="Helvetica,sans-Serif" font-size="10.00">okw.gui.adapter.selenium.webdriver.</text>
<text text-anchor="middle" x="898" y="-237" font-family="Helvetica,sans-Serif" font-size="10.00">SeDriver.swichToFrame</text>
</a>
</g>
</g>
<!-- Node350&#45;&gt;Node351 -->
<g id="edge8" class="edge"><title>Node350&#45;&gt;Node351</title>
<path fill="none" stroke="midnightblue" d="M753.658,-172.111C760.761,-174.894 767.688,-178.164 774,-182 793.881,-194.083 790.119,-207.917 810,-220 813.452,-222.098 817.088,-224.027 820.835,-225.799"/>
<polygon fill="midnightblue" stroke="midnightblue" points="819.773,-229.152 830.342,-229.889 822.539,-222.722 819.773,-229.152"/>
</g>
<!-- Node352 -->
<g id="node10" class="node"><title>Node352</title>
<g id="a_node10"><a xlink:href="classokw_1_1_o_k_w___helper.html#a3a7ba0f42b29adf70574830688e72e4a" target="_top" xlink:title="Prüft ob der gegeben String fpsStrin null oder leer (&quot;&quot;) ist. ">
<polygon fill="white" stroke="black" points="1022.5,-230 1022.5,-260 1171.5,-260 1171.5,-230 1022.5,-230"/>
<text text-anchor="start" x="1030.5" y="-248" font-family="Helvetica,sans-Serif" font-size="10.00">okw.OKW_Helper.isStringNull</text>
<text text-anchor="middle" x="1097" y="-237" font-family="Helvetica,sans-Serif" font-size="10.00">OrEmpty</text>
</a>
</g>
</g>
<!-- Node351&#45;&gt;Node352 -->
<g id="edge9" class="edge"><title>Node351&#45;&gt;Node352</title>
<path fill="none" stroke="midnightblue" d="M986.267,-245C994.922,-245 1003.69,-245 1012.31,-245"/>
<polygon fill="midnightblue" stroke="midnightblue" points="1012.34,-248.5 1022.34,-245 1012.34,-241.5 1012.34,-248.5"/>
</g>
<!-- Node356 -->
<g id="node14" class="node"><title>Node356</title>
<g id="a_node14"><a xlink:href="classokw_1_1_log_messenger.html#a530cd6ab82ec82a04206a2e976ec06e3" target="_top" xlink:title="Interne Kernfunktion holt die Log&#45;Meldung mit Platzhaltern aus der XML&#45;Datei. ">
<polygon fill="white" stroke="black" points="602.5,-5.5 602.5,-24.5 769.5,-24.5 769.5,-5.5 602.5,-5.5"/>
<text text-anchor="middle" x="686" y="-12.5" font-family="Helvetica,sans-Serif" font-size="10.00">okw.LogMessenger.ReadMessage</text>
</a>
</g>
</g>
<!-- Node355&#45;&gt;Node356 -->
<g id="edge13" class="edge"><title>Node355&#45;&gt;Node356</title>
<path fill="none" stroke="midnightblue" d="M518.14,-54.442C540.864,-48.3582 571.112,-40.4405 598,-34 608.254,-31.5438 619.22,-29.0478 629.79,-26.7075"/>
<polygon fill="midnightblue" stroke="midnightblue" points="630.75,-30.0802 639.767,-24.5178 629.249,-23.243 630.75,-30.0802"/>
</g>
<!-- Node357 -->
<g id="node15" class="node"><title>Node357</title>
<g id="a_node15"><a xlink:href="classokw_1_1_o_k_w___xml_reader.html#ab920b5335a2e1429c14cc5f8e79f39eb" target="_top" xlink:title="Lies den TextContent eines Tag. ">
<polygon fill="white" stroke="black" points="822,-0 822,-30 974,-30 974,-0 822,-0"/>
<text text-anchor="start" x="830" y="-18" font-family="Helvetica,sans-Serif" font-size="10.00">okw.OKW_XmlReader.getText</text>
<text text-anchor="middle" x="898" y="-7" font-family="Helvetica,sans-Serif" font-size="10.00">ContentSingleValue</text>
</a>
</g>
</g>
<!-- Node356&#45;&gt;Node357 -->
<g id="edge14" class="edge"><title>Node356&#45;&gt;Node357</title>
<path fill="none" stroke="midnightblue" d="M769.696,-15C783.55,-15 797.947,-15 811.861,-15"/>
<polygon fill="midnightblue" stroke="midnightblue" points="811.893,-18.5001 821.893,-15 811.893,-11.5001 811.893,-18.5001"/>
</g>
<!-- Node358&#45;&gt;Node347 -->
<g id="edge20" class="edge"><title>Node358&#45;&gt;Node347</title>
<path fill="none" stroke="midnightblue" d="M547.748,-217.307C563.229,-215.468 580.021,-213.473 596.373,-211.53"/>
<polygon fill="midnightblue" stroke="midnightblue" points="596.965,-214.984 606.482,-210.329 596.139,-208.033 596.965,-214.984"/>
</g>
<!-- Node358&#45;&gt;Node349 -->
<g id="edge16" class="edge"><title>Node358&#45;&gt;Node349</title>
<path fill="none" stroke="midnightblue" d="M547.748,-231.411C560.438,-232.667 574.008,-234.011 587.496,-235.346"/>
<polygon fill="midnightblue" stroke="midnightblue" points="587.481,-238.862 597.778,-236.364 588.171,-231.896 587.481,-238.862"/>
</g>
<!-- Node359 -->
<g id="node17" class="node"><title>Node359</title>
<g id="a_node17"><a xlink:href="classokw_1_1gui_1_1adapter_1_1selenium_1_1webdriver_1_1_se_driver.html#a6d879107786a94ebbdbd42b4ac6c6acf" target="_top" xlink:title="Ermittelt das Webelement mit der gegebenen frameID und dem gegebenen Locator. ">
<polygon fill="white" stroke="black" points="598,-279 598,-309 774,-309 774,-279 598,-279"/>
<text text-anchor="start" x="606" y="-297" font-family="Helvetica,sans-Serif" font-size="10.00">okw.gui.adapter.selenium.webdriver.</text>
<text text-anchor="middle" x="686" y="-286" font-family="Helvetica,sans-Serif" font-size="10.00">SeDriver.getElement</text>
</a>
</g>
</g>
<!-- Node358&#45;&gt;Node359 -->
<g id="edge17" class="edge"><title>Node358&#45;&gt;Node359</title>
<path fill="none" stroke="midnightblue" d="M519.998,-240.081C542.4,-248.98 571.644,-260.189 598,-269 605.151,-271.39 612.677,-273.763 620.186,-276.04"/>
<polygon fill="midnightblue" stroke="midnightblue" points="619.433,-279.468 630.016,-278.973 621.434,-272.76 619.433,-279.468"/>
</g>
<!-- Node359&#45;&gt;Node351 -->
<g id="edge18" class="edge"><title>Node359&#45;&gt;Node351</title>
<path fill="none" stroke="midnightblue" d="M751.434,-278.965C774.01,-273.698 799.543,-267.74 822.85,-262.302"/>
<polygon fill="midnightblue" stroke="midnightblue" points="823.745,-265.687 832.688,-260.006 822.154,-258.87 823.745,-265.687"/>
</g>
<!-- Node360 -->
<g id="node18" class="node"><title>Node360</title>
<g id="a_node18"><a xlink:href="classokw_1_1log_1_1_logger___sngltn.html#a8ebceaddd6cc6963ddb8e08c72ea808c" target="_top" xlink:title="LogPrint Function: Prints the values of expressions to the results file. ">
<polygon fill="white" stroke="black" points="831,-279 831,-309 965,-309 965,-279 831,-279"/>
<text text-anchor="start" x="839" y="-297" font-family="Helvetica,sans-Serif" font-size="10.00">okw.log.Logger_Sngltn.Log</text>
<text text-anchor="middle" x="898" y="-286" font-family="Helvetica,sans-Serif" font-size="10.00">Print</text>
</a>
</g>
</g>
<!-- Node359&#45;&gt;Node360 -->
<g id="edge19" class="edge"><title>Node359&#45;&gt;Node360</title>
<path fill="none" stroke="midnightblue" d="M774.235,-294C789.617,-294 805.523,-294 820.58,-294"/>
<polygon fill="midnightblue" stroke="midnightblue" points="820.852,-297.5 830.852,-294 820.852,-290.5 820.852,-297.5"/>
</g>
</g>
</svg>
        <g id="navigator" transform="translate(0 0)" fill="#404254">
                <rect fill="#f2f5e9" fill-opacity="0.5" stroke="#606060" stroke-width=".5" x="0" y="0" width="60" height="60"/>
                <use id="zoomplus" xlink:href="#zoomPlus" x="17" y="9" onmousedown="handleZoom(evt,'in')"/>
                <use id="zoomminus" xlink:href="#zoomMin" x="42" y="9" onmousedown="handleZoom(evt,'out')"/>
                <use id="reset" xlink:href="#resetDef" x="30" y="36" onmousedown="handleReset()"/>
                <g id="arrowUp" xlink:href="#dirArrow" transform="translate(30 24)" onmousedown="handlePan(0,-1)">
                  <use xlink:href="#rim" fill="#404040">
                        <set attributeName="fill" to="#808080" begin="arrowUp.mouseover" end="arrowUp.mouseout"/>
                  </use>
                  <path fill="none" stroke="white" stroke-width="1.5" d="M0,-3.0v7 M-2.5,-0.5L0,-3.0L2.5,-0.5"/>
                </g>
                <g id="arrowRight" xlink:href="#dirArrow" transform="rotate(90) translate(36 -43)" onmousedown="handlePan(1,0)">
                  <use xlink:href="#rim" fill="#404040">
                        <set attributeName="fill" to="#808080" begin="arrowRight.mouseover" end="arrowRight.mouseout"/>
                  </use>
                  <path fill="none" stroke="white" stroke-width="1.5" d="M0,-3.0v7 M-2.5,-0.5L0,-3.0L2.5,-0.5"/>
                </g>
                <g id="arrowDown" xlink:href="#dirArrow" transform="rotate(180) translate(-30 -48)" onmousedown="handlePan(0,1)">
                  <use xlink:href="#rim" fill="#404040">
                        <set attributeName="fill" to="#808080" begin="arrowDown.mouseover" end="arrowDown.mouseout"/>
                  </use>
                  <path fill="none" stroke="white" stroke-width="1.5" d="M0,-3.0v7 M-2.5,-0.5L0,-3.0L2.5,-0.5"/>
                </g>
                <g id="arrowLeft" xlink:href="#dirArrow" transform="rotate(270) translate(-36 17)" onmousedown="handlePan(-1,0)">
                  <use xlink:href="#rim" fill="#404040">
                        <set attributeName="fill" to="#808080" begin="arrowLeft.mouseover" end="arrowLeft.mouseout"/>
                  </use>
                  <path fill="none" stroke="white" stroke-width="1.5" d="M0,-3.0v7 M-2.5,-0.5L0,-3.0L2.5,-0.5"/>
                </g>
        </g>
        <svg viewBox="0 0 15 15" width="100%" height="30px" preserveAspectRatio="xMaxYMin meet">
         <g id="arrow_out" transform="scale(0.3 0.3)">
          <a xlink:href="classokw_1_1gui_1_1adapter_1_1selenium_1_1_se_any_window_a79fed120f45d576a1e34bba8c3936f0a_cgraph_org.svg" target="_base">
           <rect id="button" ry="5" rx="5" y="6" x="6" height="38" width="38"
                fill="#f2f5e9" fill-opacity="0.5" stroke="#606060" stroke-width="1.0"/>
           <path id="arrow"
             d="M 11.500037,31.436501 C 11.940474,20.09759 22.043105,11.32322 32.158766,21.979434 L 37.068811,17.246167 C 37.068811,17.246167 37.088388,32 37.088388,32 L 22.160133,31.978069 C 22.160133,31.978069 26.997745,27.140456 26.997745,27.140456 C 18.528582,18.264221 13.291696,25.230495 11.500037,31.436501 z"
             style="fill:#404040;"/>
          </a>
         </g>
        </svg>
</svg>
