<?xml version="1.0" encoding="UTF-8" standalone="no"?>
<!DOCTYPE svg PUBLIC "-//W3C//DTD SVG 1.1//EN"
 "http://www.w3.org/Graphics/SVG/1.1/DTD/svg11.dtd">
<!-- Generated by graphviz version 2.36.0 (20140111.2315)
 -->
<!-- Title: okw.core.EN_OKWNotAllowedValueException_Keywords_IGNORE.tcMemorizeSelectedValueIGNORE2 Pages: 1 -->
<!--zoomable 301 -->
<svg id="main" version="1.1" xmlns="http://www.w3.org/2000/svg" xmlns:xlink="http://www.w3.org/1999/xlink" xml:space="preserve" onload="init(evt)">
<style type="text/css"><![CDATA[
.edge:hover path { stroke: red; }
.edge:hover polygon { stroke: red; fill: red; }
]]></style>
<script type="text/javascript"><![CDATA[
var edges = document.getElementsByTagName('g');
if (edges && edges.length) {
  for (var i=0;i<edges.length;i++) {
    if (edges[i].id.substr(0,4)=='edge') {
      edges[i].setAttribute('class','edge');
    }
  }
}
]]></script>
        <defs>
                <circle id="rim" cx="0" cy="0" r="7"/>
                <circle id="rim2" cx="0" cy="0" r="3.5"/>
                <g id="zoomPlus">
                        <use xlink:href="#rim" fill="#404040">
                                <set attributeName="fill" to="#808080" begin="zoomplus.mouseover" end="zoomplus.mouseout"/>
                        </use>
                        <path d="M-4,0h8M0,-4v8" fill="none" stroke="white" stroke-width="1.5" pointer-events="none"/>
                </g>
                <g id="zoomMin">
                        <use xlink:href="#rim" fill="#404040">
                                <set attributeName="fill" to="#808080" begin="zoomminus.mouseover" end="zoomminus.mouseout"/>
                        </use>
                        <path d="M-4,0h8" fill="none" stroke="white" stroke-width="1.5" pointer-events="none"/>
                </g>
                <g id="dirArrow">
                        <path fill="none" stroke="white" stroke-width="1.5" d="M0,-3.0v7 M-2.5,-0.5L0,-3.0L2.5,-0.5"/>
                </g>
               <g id="resetDef">
                       <use xlink:href="#rim2" fill="#404040">
                               <set attributeName="fill" to="#808080" begin="reset.mouseover" end="reset.mouseout"/>
                       </use>
               </g>
        </defs>

<script type="text/javascript">
var viewWidth = 1184;
var viewHeight = 301;
var sectionId = 'dynsection-12';
</script>
<script xlink:href="svgpan.js"/>
<svg id="graph" class="graph">
<g id="viewport">
<title>okw.core.EN_OKWNotAllowedValueException_Keywords_IGNORE.tcMemorizeSelectedValueIGNORE2</title>
<polygon fill="white" stroke="none" points="-4,4 -4,-297 1180,-297 1180,4 -4,4"/>
<!-- Node198 -->
<g id="node1" class="node"><title>Node198</title>
<polygon fill="#bfbfbf" stroke="black" points="0.5,-97 0.5,-149 179.5,-149 179.5,-97 0.5,-97"/>
<text text-anchor="start" x="8.5" y="-137" font-family="Helvetica,sans-Serif" font-size="10.00">okw.core.EN_OKWNotAllowed</text>
<text text-anchor="start" x="8.5" y="-126" font-family="Helvetica,sans-Serif" font-size="10.00">ValueException_Keywords</text>
<text text-anchor="start" x="8.5" y="-115" font-family="Helvetica,sans-Serif" font-size="10.00">_IGNORE.tcMemorizeSelectedValue</text>
<text text-anchor="middle" x="90" y="-104" font-family="Helvetica,sans-Serif" font-size="10.00">IGNORE2</text>
</g>
<!-- Node199 -->
<g id="node2" class="node"><title>Node199</title>
<g id="a_node2"><a xlink:href="classokw_1_1core_1_1_e_n.html#aef613b0a3e6bb8a9623984db145cae69" target="_top" xlink:title="Markiert den Anfang eines neuen Testfalls. ">
<polygon fill="white" stroke="black" points="234.5,-69.5 234.5,-88.5 355.5,-88.5 355.5,-69.5 234.5,-69.5"/>
<text text-anchor="middle" x="295" y="-76.5" font-family="Helvetica,sans-Serif" font-size="10.00">okw.core.EN.BeginTest</text>
</a>
</g>
</g>
<!-- Node198&#45;&gt;Node199 -->
<g id="edge1" class="edge"><title>Node198&#45;&gt;Node199</title>
<path fill="none" stroke="midnightblue" d="M179.743,-103.765C200.268,-99.3164 221.499,-94.7146 240.008,-90.7027"/>
<polygon fill="midnightblue" stroke="midnightblue" points="240.958,-94.0782 249.989,-88.5393 239.475,-87.2371 240.958,-94.0782"/>
</g>
<!-- Node205 -->
<g id="node8" class="node"><title>Node205</title>
<g id="a_node8"><a xlink:href="classokw_1_1core_1_1_e_n.html#a2b61c2b39a9cfdbdfd25fe0e3d43785b" target="_top" xlink:title="Setzt den Kontext auf das gegebene Fenster. ">
<polygon fill="white" stroke="black" points="225,-157.5 225,-176.5 365,-176.5 365,-157.5 225,-157.5"/>
<text text-anchor="middle" x="295" y="-164.5" font-family="Helvetica,sans-Serif" font-size="10.00">okw.core.EN.SelectWindow</text>
</a>
</g>
</g>
<!-- Node198&#45;&gt;Node205 -->
<g id="edge7" class="edge"><title>Node198&#45;&gt;Node205</title>
<path fill="none" stroke="midnightblue" d="M179.743,-142.235C200.268,-146.684 221.499,-151.285 240.008,-155.297"/>
<polygon fill="midnightblue" stroke="midnightblue" points="239.475,-158.763 249.989,-157.461 240.958,-151.922 239.475,-158.763"/>
</g>
<!-- Node212 -->
<g id="node15" class="node"><title>Node212</title>
<g id="a_node15"><a xlink:href="classokw_1_1core_1_1_e_n.html#a1f6ef2b7affb30444c6ecee001778615" target="_top" xlink:title="Keine Beschreibung zu &quot;MemorizeSelectedValue&quot; verfügbar. ">
<polygon fill="white" stroke="black" points="216,-108 216,-138 374,-138 374,-108 216,-108"/>
<text text-anchor="start" x="224" y="-126" font-family="Helvetica,sans-Serif" font-size="10.00">okw.core.EN.MemorizeSelected</text>
<text text-anchor="middle" x="295" y="-115" font-family="Helvetica,sans-Serif" font-size="10.00">Value</text>
</a>
</g>
</g>
<!-- Node198&#45;&gt;Node212 -->
<g id="edge15" class="edge"><title>Node198&#45;&gt;Node212</title>
<path fill="none" stroke="midnightblue" d="M179.743,-123C188.408,-123 197.2,-123 205.859,-123"/>
<polygon fill="midnightblue" stroke="midnightblue" points="205.948,-126.5 215.948,-123 205.948,-119.5 205.948,-126.5"/>
</g>
<!-- Node200 -->
<g id="node3" class="node"><title>Node200</title>
<g id="a_node3"><a xlink:href="classokw_1_1core_1_1_core.html#ab4e0f723d27cb11c944ec4c82c426100" target="_top" xlink:title="Setzt die Sprache auf den gegebenen wert Language. ">
<polygon fill="white" stroke="black" points="422.5,-90.5 422.5,-109.5 561.5,-109.5 561.5,-90.5 422.5,-90.5"/>
<text text-anchor="middle" x="492" y="-97.5" font-family="Helvetica,sans-Serif" font-size="10.00">okw.core.Core.setLanguage</text>
</a>
</g>
</g>
<!-- Node199&#45;&gt;Node200 -->
<g id="edge2" class="edge"><title>Node199&#45;&gt;Node200</title>
<path fill="none" stroke="midnightblue" d="M355.566,-85.4148C373.415,-87.337 393.273,-89.4756 412.161,-91.5096"/>
<polygon fill="midnightblue" stroke="midnightblue" points="411.916,-95.0034 422.233,-92.5943 412.665,-88.0436 411.916,-95.0034"/>
</g>
<!-- Node202 -->
<g id="node5" class="node"><title>Node202</title>
<g id="a_node5"><a xlink:href="classokw_1_1core_1_1_core.html#acfefe92468c9eb9e951846372726c4d8" target="_top" xlink:title="Markiert den Anfang eines neuen Testfalls. ">
<polygon fill="white" stroke="black" points="428,-49.5 428,-68.5 556,-68.5 556,-49.5 428,-49.5"/>
<text text-anchor="middle" x="492" y="-56.5" font-family="Helvetica,sans-Serif" font-size="10.00">okw.core.Core.BeginTest</text>
</a>
</g>
</g>
<!-- Node199&#45;&gt;Node202 -->
<g id="edge4" class="edge"><title>Node199&#45;&gt;Node202</title>
<path fill="none" stroke="midnightblue" d="M355.566,-72.8907C375.112,-70.8859 397.069,-68.634 417.521,-66.5363"/>
<polygon fill="midnightblue" stroke="midnightblue" points="418.149,-69.9904 427.74,-65.4882 417.435,-63.0269 418.149,-69.9904"/>
</g>
<!-- Node201 -->
<g id="node4" class="node"><title>Node201</title>
<g id="a_node4"><a xlink:href="interfaceokw_1_1core_1_1_i_o_k_w___state.html#a866baa0bde08a47418f54d63bdb56097" target="_top" xlink:title="Interne Methode zum setzen der Sprache für die sprachabhängigen Ausgaben der Dokumentation (Log)...">
<polygon fill="white" stroke="black" points="610.5,-87.5 610.5,-106.5 783.5,-106.5 783.5,-87.5 610.5,-87.5"/>
<text text-anchor="middle" x="697" y="-94.5" font-family="Helvetica,sans-Serif" font-size="10.00">okw.core.IOKW_State.setLanguage</text>
</a>
</g>
</g>
<!-- Node200&#45;&gt;Node201 -->
<g id="edge3" class="edge"><title>Node200&#45;&gt;Node201</title>
<path fill="none" stroke="midnightblue" d="M561.727,-98.9843C574.07,-98.8019 587.138,-98.6088 600.084,-98.4175"/>
<polygon fill="midnightblue" stroke="midnightblue" points="600.477,-101.912 610.425,-98.2647 600.374,-94.9129 600.477,-101.912"/>
</g>
<!-- Node203 -->
<g id="node6" class="node"><title>Node203</title>
<g id="a_node6"><a xlink:href="classokw_1_1log_1_1_logger___sngltn.html#a60f4ad59db847ae61df928f9920f3deb" target="_top" xlink:title="Ausgabe des Testfalls. ">
<polygon fill="white" stroke="black" points="630,-0 630,-30 764,-30 764,-0 630,-0"/>
<text text-anchor="start" x="638" y="-18" font-family="Helvetica,sans-Serif" font-size="10.00">okw.log.Logger_Sngltn.Log</text>
<text text-anchor="middle" x="697" y="-7" font-family="Helvetica,sans-Serif" font-size="10.00">TestcaseStart</text>
</a>
</g>
</g>
<!-- Node202&#45;&gt;Node203 -->
<g id="edge5" class="edge"><title>Node202&#45;&gt;Node203</title>
<path fill="none" stroke="midnightblue" d="M537.048,-49.4527C561.142,-44.2302 591.677,-37.6119 619.53,-31.5748"/>
<polygon fill="midnightblue" stroke="midnightblue" points="620.621,-34.9196 629.653,-29.3806 619.139,-28.0784 620.621,-34.9196"/>
</g>
<!-- Node204 -->
<g id="node7" class="node"><title>Node204</title>
<g id="a_node7"><a xlink:href="interfaceokw_1_1core_1_1_i_o_k_w___state.html#ae5480ddb1fc37eade5d899d335bc4b13" target="_top" xlink:title="Markiert den Anfang eines neuen Testfalls. ">
<polygon fill="white" stroke="black" points="616,-49.5 616,-68.5 778,-68.5 778,-49.5 616,-49.5"/>
<text text-anchor="middle" x="697" y="-56.5" font-family="Helvetica,sans-Serif" font-size="10.00">okw.core.IOKW_State.BeginTest</text>
</a>
</g>
</g>
<!-- Node202&#45;&gt;Node204 -->
<g id="edge6" class="edge"><title>Node202&#45;&gt;Node204</title>
<path fill="none" stroke="midnightblue" d="M556.118,-59C571.732,-59 588.767,-59 605.407,-59"/>
<polygon fill="midnightblue" stroke="midnightblue" points="605.701,-62.5001 615.701,-59 605.701,-55.5001 605.701,-62.5001"/>
</g>
<!-- Node205&#45;&gt;Node200 -->
<g id="edge8" class="edge"><title>Node205&#45;&gt;Node200</title>
<path fill="none" stroke="midnightblue" d="M337.581,-157.412C349.439,-154.389 362.309,-150.829 374,-147 403.852,-137.223 437,-123.639 460.369,-113.588"/>
<polygon fill="midnightblue" stroke="midnightblue" points="461.967,-116.71 469.748,-109.518 459.181,-110.289 461.967,-116.71"/>
</g>
<!-- Node206 -->
<g id="node9" class="node"><title>Node206</title>
<g id="a_node9"><a xlink:href="classokw_1_1core_1_1_core.html#a6a68660eb5e34965522896e2a5c48314" target="_top" xlink:title="Setzt den Kontext auf das gegebene Fenster. ">
<polygon fill="white" stroke="black" points="419,-202.5 419,-221.5 565,-221.5 565,-202.5 419,-202.5"/>
<text text-anchor="middle" x="492" y="-209.5" font-family="Helvetica,sans-Serif" font-size="10.00">okw.core.Core.SelectWindow</text>
</a>
</g>
</g>
<!-- Node205&#45;&gt;Node206 -->
<g id="edge9" class="edge"><title>Node205&#45;&gt;Node206</title>
<path fill="none" stroke="midnightblue" d="M337.354,-176.543C367.215,-183.434 407.734,-192.785 439.664,-200.153"/>
<polygon fill="midnightblue" stroke="midnightblue" points="439.174,-203.632 449.705,-202.47 440.748,-196.811 439.174,-203.632"/>
</g>
<!-- Node207 -->
<g id="node10" class="node"><title>Node207</title>
<g id="a_node10"><a xlink:href="classokw_1_1log_1_1_logger___sngltn.html#a70ec25e200e00ecefc544e8fd371d2ef" target="_top" xlink:title="Ausgabe eines Schlüsselwortes. ">
<polygon fill="white" stroke="black" points="630,-175 630,-205 764,-205 764,-175 630,-175"/>
<text text-anchor="start" x="638" y="-193" font-family="Helvetica,sans-Serif" font-size="10.00">okw.log.Logger_Sngltn.Log</text>
<text text-anchor="middle" x="697" y="-182" font-family="Helvetica,sans-Serif" font-size="10.00">KeyWordStart</text>
</a>
</g>
</g>
<!-- Node206&#45;&gt;Node207 -->
<g id="edge10" class="edge"><title>Node206&#45;&gt;Node207</title>
<path fill="none" stroke="midnightblue" d="M565.142,-204.182C582.766,-202.272 601.682,-200.222 619.501,-198.291"/>
<polygon fill="midnightblue" stroke="midnightblue" points="620.284,-201.726 629.848,-197.169 619.529,-194.767 620.284,-201.726"/>
</g>
<!-- Node208 -->
<g id="node11" class="node"><title>Node208</title>
<g id="a_node11"><a xlink:href="classokw_1_1_log_messenger.html#af225d1f037d47b3b085175c09d78bdd2" target="_top" xlink:title="Holt die Log&#45;Meldung für MethodeNmae/Textkey ohne weitere Parameter. ">
<polygon fill="white" stroke="black" points="617,-224.5 617,-243.5 777,-243.5 777,-224.5 617,-224.5"/>
<text text-anchor="middle" x="697" y="-231.5" font-family="Helvetica,sans-Serif" font-size="10.00">okw.LogMessenger.GetMessage</text>
</a>
</g>
</g>
<!-- Node206&#45;&gt;Node208 -->
<g id="edge11" class="edge"><title>Node206&#45;&gt;Node208</title>
<path fill="none" stroke="midnightblue" d="M565.142,-219.818C578.622,-221.279 592.858,-222.822 606.782,-224.331"/>
<polygon fill="midnightblue" stroke="midnightblue" points="606.531,-227.824 616.85,-225.422 607.285,-220.865 606.531,-227.824"/>
</g>
<!-- Node211 -->
<g id="node14" class="node"><title>Node211</title>
<g id="a_node14"><a xlink:href="interfaceokw_1_1core_1_1_i_o_k_w___state.html#ad4fc9610ed5b1176590a45b55e6ac7f0" target="_top" xlink:title="Setzt den Kontext auf das gegebene Fenster. ">
<polygon fill="white" stroke="black" points="624,-263 624,-293 770,-293 770,-263 624,-263"/>
<text text-anchor="start" x="632" y="-281" font-family="Helvetica,sans-Serif" font-size="10.00">okw.core.IOKW_State.Select</text>
<text text-anchor="middle" x="697" y="-270" font-family="Helvetica,sans-Serif" font-size="10.00">Window</text>
</a>
</g>
</g>
<!-- Node206&#45;&gt;Node211 -->
<g id="edge14" class="edge"><title>Node206&#45;&gt;Node211</title>
<path fill="none" stroke="midnightblue" d="M518.887,-221.524C542.506,-230.106 578.433,-242.889 610,-253 617.392,-255.368 625.172,-257.763 632.906,-260.084"/>
<polygon fill="midnightblue" stroke="midnightblue" points="632.065,-263.485 642.647,-262.978 634.058,-256.775 632.065,-263.485"/>
</g>
<!-- Node209 -->
<g id="node12" class="node"><title>Node209</title>
<g id="a_node12"><a xlink:href="classokw_1_1_log_messenger.html#a530cd6ab82ec82a04206a2e976ec06e3" target="_top" xlink:title="Interne Kernfunktion holt die Log&#45;Meldung mit Platzhaltern aus der XML&#45;Datei. ">
<polygon fill="white" stroke="black" points="820.5,-224.5 820.5,-243.5 987.5,-243.5 987.5,-224.5 820.5,-224.5"/>
<text text-anchor="middle" x="904" y="-231.5" font-family="Helvetica,sans-Serif" font-size="10.00">okw.LogMessenger.ReadMessage</text>
</a>
</g>
</g>
<!-- Node208&#45;&gt;Node209 -->
<g id="edge12" class="edge"><title>Node208&#45;&gt;Node209</title>
<path fill="none" stroke="midnightblue" d="M777.258,-234C788.041,-234 799.186,-234 810.181,-234"/>
<polygon fill="midnightblue" stroke="midnightblue" points="810.222,-237.5 820.222,-234 810.222,-230.5 810.222,-237.5"/>
</g>
<!-- Node210 -->
<g id="node13" class="node"><title>Node210</title>
<g id="a_node13"><a xlink:href="classokw_1_1_o_k_w___xml_reader.html#ab920b5335a2e1429c14cc5f8e79f39eb" target="_top" xlink:title="Lies den TextContent eines Tag. ">
<polygon fill="white" stroke="black" points="1024,-219 1024,-249 1176,-249 1176,-219 1024,-219"/>
<text text-anchor="start" x="1032" y="-237" font-family="Helvetica,sans-Serif" font-size="10.00">okw.OKW_XmlReader.getText</text>
<text text-anchor="middle" x="1100" y="-226" font-family="Helvetica,sans-Serif" font-size="10.00">ContentSingleValue</text>
</a>
</g>
</g>
<!-- Node209&#45;&gt;Node210 -->
<g id="edge13" class="edge"><title>Node209&#45;&gt;Node210</title>
<path fill="none" stroke="midnightblue" d="M987.555,-234C996.227,-234 1005.06,-234 1013.76,-234"/>
<polygon fill="midnightblue" stroke="midnightblue" points="1013.9,-237.5 1023.9,-234 1013.9,-230.5 1013.9,-237.5"/>
</g>
<!-- Node212&#45;&gt;Node200 -->
<g id="edge16" class="edge"><title>Node212&#45;&gt;Node200</title>
<path fill="none" stroke="midnightblue" d="M374.19,-113.778C386.732,-112.298 399.717,-110.767 412.27,-109.286"/>
<polygon fill="midnightblue" stroke="midnightblue" points="412.708,-112.759 422.229,-108.111 411.888,-105.807 412.708,-112.759"/>
</g>
<!-- Node213 -->
<g id="node16" class="node"><title>Node213</title>
<g id="a_node16"><a xlink:href="classokw_1_1core_1_1_core.html#ae13536308d66e68f25d673af7fec2d2b" target="_top" xlink:title="Keine Beschreibung zu &quot;MemorizeSelectedValue&quot; verfügbar. ">
<polygon fill="white" stroke="black" points="410,-151 410,-181 574,-181 574,-151 410,-151"/>
<text text-anchor="start" x="418" y="-169" font-family="Helvetica,sans-Serif" font-size="10.00">okw.core.Core.MemorizeSelected</text>
<text text-anchor="middle" x="492" y="-158" font-family="Helvetica,sans-Serif" font-size="10.00">Value</text>
</a>
</g>
</g>
<!-- Node212&#45;&gt;Node213 -->
<g id="edge17" class="edge"><title>Node212&#45;&gt;Node213</title>
<path fill="none" stroke="midnightblue" d="M364.202,-138.039C379.936,-141.509 396.793,-145.226 412.912,-148.781"/>
<polygon fill="midnightblue" stroke="midnightblue" points="412.318,-152.234 422.837,-150.969 413.825,-145.398 412.318,-152.234"/>
</g>
<!-- Node213&#45;&gt;Node207 -->
<g id="edge18" class="edge"><title>Node213&#45;&gt;Node207</title>
<path fill="none" stroke="midnightblue" d="M574.106,-175.589C589.181,-177.371 604.881,-179.227 619.803,-180.991"/>
<polygon fill="midnightblue" stroke="midnightblue" points="619.649,-184.498 629.991,-182.196 620.471,-177.546 619.649,-184.498"/>
</g>
<!-- Node213&#45;&gt;Node208 -->
<g id="edge19" class="edge"><title>Node213&#45;&gt;Node208</title>
<path fill="none" stroke="midnightblue" d="M543.742,-181.124C553.911,-184.653 564.411,-188.661 574,-193 590.876,-200.636 592.786,-207.159 610,-214 617.494,-216.978 625.54,-219.577 633.595,-221.827"/>
<polygon fill="midnightblue" stroke="midnightblue" points="632.826,-225.244 643.387,-224.4 634.605,-218.473 632.826,-225.244"/>
</g>
<!-- Node214 -->
<g id="node17" class="node"><title>Node214</title>
<g id="a_node17"><a xlink:href="interfaceokw_1_1core_1_1_i_o_k_w___state.html#a2e9dcf9b0e3ebe2645ed830e5c077e04" target="_top" xlink:title="Keine Beschreibung zu &quot;MemorizeSelectedValue&quot; verfügbar. ">
<polygon fill="white" stroke="black" points="616.5,-126 616.5,-156 777.5,-156 777.5,-126 616.5,-126"/>
<text text-anchor="start" x="624.5" y="-144" font-family="Helvetica,sans-Serif" font-size="10.00">okw.core.IOKW_State.Memorize</text>
<text text-anchor="middle" x="697" y="-133" font-family="Helvetica,sans-Serif" font-size="10.00">SelectedValue</text>
</a>
</g>
</g>
<!-- Node213&#45;&gt;Node214 -->
<g id="edge20" class="edge"><title>Node213&#45;&gt;Node214</title>
<path fill="none" stroke="midnightblue" d="M574.106,-156.012C584.651,-154.713 595.502,-153.377 606.179,-152.062"/>
<polygon fill="midnightblue" stroke="midnightblue" points="606.849,-155.506 616.346,-150.81 605.993,-148.558 606.849,-155.506"/>
</g>
</g>
</svg>
        <g id="navigator" transform="translate(0 0)" fill="#404254">
                <rect fill="#f2f5e9" fill-opacity="0.5" stroke="#606060" stroke-width=".5" x="0" y="0" width="60" height="60"/>
                <use id="zoomplus" xlink:href="#zoomPlus" x="17" y="9" onmousedown="handleZoom(evt,'in')"/>
                <use id="zoomminus" xlink:href="#zoomMin" x="42" y="9" onmousedown="handleZoom(evt,'out')"/>
                <use id="reset" xlink:href="#resetDef" x="30" y="36" onmousedown="handleReset()"/>
                <g id="arrowUp" xlink:href="#dirArrow" transform="translate(30 24)" onmousedown="handlePan(0,-1)">
                  <use xlink:href="#rim" fill="#404040">
                        <set attributeName="fill" to="#808080" begin="arrowUp.mouseover" end="arrowUp.mouseout"/>
                  </use>
                  <path fill="none" stroke="white" stroke-width="1.5" d="M0,-3.0v7 M-2.5,-0.5L0,-3.0L2.5,-0.5"/>
                </g>
                <g id="arrowRight" xlink:href="#dirArrow" transform="rotate(90) translate(36 -43)" onmousedown="handlePan(1,0)">
                  <use xlink:href="#rim" fill="#404040">
                        <set attributeName="fill" to="#808080" begin="arrowRight.mouseover" end="arrowRight.mouseout"/>
                  </use>
                  <path fill="none" stroke="white" stroke-width="1.5" d="M0,-3.0v7 M-2.5,-0.5L0,-3.0L2.5,-0.5"/>
                </g>
                <g id="arrowDown" xlink:href="#dirArrow" transform="rotate(180) translate(-30 -48)" onmousedown="handlePan(0,1)">
                  <use xlink:href="#rim" fill="#404040">
                        <set attributeName="fill" to="#808080" begin="arrowDown.mouseover" end="arrowDown.mouseout"/>
                  </use>
                  <path fill="none" stroke="white" stroke-width="1.5" d="M0,-3.0v7 M-2.5,-0.5L0,-3.0L2.5,-0.5"/>
                </g>
                <g id="arrowLeft" xlink:href="#dirArrow" transform="rotate(270) translate(-36 17)" onmousedown="handlePan(-1,0)">
                  <use xlink:href="#rim" fill="#404040">
                        <set attributeName="fill" to="#808080" begin="arrowLeft.mouseover" end="arrowLeft.mouseout"/>
                  </use>
                  <path fill="none" stroke="white" stroke-width="1.5" d="M0,-3.0v7 M-2.5,-0.5L0,-3.0L2.5,-0.5"/>
                </g>
        </g>
        <svg viewBox="0 0 15 15" width="100%" height="30px" preserveAspectRatio="xMaxYMin meet">
         <g id="arrow_out" transform="scale(0.3 0.3)">
          <a xlink:href="classokw_1_1core_1_1_e_n___o_k_w_not_allowed_value_exception___keywords___i_g_n_o_r_e_a17027c80a2f52ef3ad7305a91c331e08_cgraph_org.svg" target="_base">
           <rect id="button" ry="5" rx="5" y="6" x="6" height="38" width="38"
                fill="#f2f5e9" fill-opacity="0.5" stroke="#606060" stroke-width="1.0"/>
           <path id="arrow"
             d="M 11.500037,31.436501 C 11.940474,20.09759 22.043105,11.32322 32.158766,21.979434 L 37.068811,17.246167 C 37.068811,17.246167 37.088388,32 37.088388,32 L 22.160133,31.978069 C 22.160133,31.978069 26.997745,27.140456 26.997745,27.140456 C 18.528582,18.264221 13.291696,25.230495 11.500037,31.436501 z"
             style="fill:#404040;"/>
          </a>
         </g>
        </svg>
</svg>
