<?xml version="1.0" encoding="UTF-8" standalone="no"?>
<!DOCTYPE svg PUBLIC "-//W3C//DTD SVG 1.1//EN"
 "http://www.w3.org/Graphics/SVG/1.1/DTD/svg11.dtd">
<!-- Generated by graphviz version 2.26.3 (20100126.1600)
 -->
<!-- Title: okw.core.OK.VerifyTablecellValueREGX Pages: 1 -->
<svg width="1348pt" height="679pt"
 viewBox="0.00 0.00 1348.00 679.00" xmlns="http://www.w3.org/2000/svg" xmlns:xlink="http://www.w3.org/1999/xlink">
<g id="graph1" class="graph" transform="scale(1 1) rotate(0) translate(4 675)">
<title>okw.core.OK.VerifyTablecellValueREGX</title>
<polygon fill="white" stroke="white" points="-4,5 -4,-675 1345,-675 1345,5 -4,5"/>
<!-- Node1292 -->
<g id="node1" class="node"><title>Node1292</title>
<polygon fill="#bfbfbf" stroke="black" points="0.5,-244 0.5,-278 141.5,-278 141.5,-244 0.5,-244"/>
<text text-anchor="start" x="8.5" y="-265" font-family="Helvetica,sans-Serif" font-size="10.00">okw.core.OK.VerifyTablecell</text>
<text text-anchor="middle" x="71" y="-252" font-family="Helvetica,sans-Serif" font-size="10.00">ValueREGX</text>
</g>
<!-- Node1293 -->
<g id="node3" class="node"><title>Node1293</title>
<a xlink:href="classokw_1_1_o_k_w___const___sngltn.html#afdb8f095b58cbd870dbb8eb353e3b0bf" target="_top" xlink:title="Holt die einzige Instanz dieser Klasse. ">
<polygon fill="white" stroke="black" points="193.5,-631 193.5,-665 336.5,-665 336.5,-631 193.5,-631"/>
<text text-anchor="start" x="201.5" y="-652" font-family="Helvetica,sans-Serif" font-size="10.00">okw.OKW_Const_Sngltn.get</text>
<text text-anchor="middle" x="265" y="-639" font-family="Helvetica,sans-Serif" font-size="10.00">Instance</text>
</a>
</g>
<!-- Node1292&#45;&gt;Node1293 -->
<g id="edge2" class="edge"><title>Node1292&#45;&gt;Node1293</title>
<path fill="none" stroke="midnightblue" d="M74.2036,-278.071C86.3453,-341.204 131.216,-560.471 178,-612 182.91,-617.408 188.757,-622.025 195.064,-625.963"/>
<polygon fill="midnightblue" stroke="midnightblue" points="193.471,-629.082 203.905,-630.921 196.895,-622.977 193.471,-629.082"/>
</g>
<!-- Node1295 -->
<g id="node7" class="node"><title>Node1295</title>
<a xlink:href="classokw_1_1_o_k_w___const___sngltn.html#a02c05c79f7ea6e862a81a64ce23941fd" target="_top" xlink:title="Methode ermittelt für Internalname und der aktuell eingestellten Sprache den Wert für OKWConst...">
<polygon fill="white" stroke="black" points="398.5,-585 398.5,-619 543.5,-619 543.5,-585 398.5,-585"/>
<text text-anchor="start" x="406.5" y="-606" font-family="Helvetica,sans-Serif" font-size="10.00">okw.OKW_Const_Sngltn.Get</text>
<text text-anchor="middle" x="471" y="-593" font-family="Helvetica,sans-Serif" font-size="10.00">OKWConst4Internalname</text>
</a>
</g>
<!-- Node1292&#45;&gt;Node1295 -->
<g id="edge6" class="edge"><title>Node1292&#45;&gt;Node1295</title>
<path fill="none" stroke="midnightblue" d="M74.2624,-278.009C86.1042,-337.87 128.723,-537.286 178,-576 236.797,-622.193 324.182,-624.052 388.221,-617.179"/>
<polygon fill="midnightblue" stroke="midnightblue" points="388.762,-620.64 398.29,-616.006 387.952,-613.687 388.762,-620.64"/>
</g>
<!-- Node1297 -->
<g id="node11" class="node"><title>Node1297</title>
<a xlink:href="classokw_1_1log_1_1_logger___sngltn.html#a313f97c79ba4662d9daaf7f537dd02f4" target="_top" xlink:title="Loggt eine Nachricht. ">
<polygon fill="white" stroke="black" points="801,-443 801,-477 935,-477 935,-443 801,-443"/>
<text text-anchor="start" x="809" y="-464" font-family="Helvetica,sans-Serif" font-size="10.00">okw.log.Logger_Sngltn.Log</text>
<text text-anchor="middle" x="868" y="-451" font-family="Helvetica,sans-Serif" font-size="10.00">PrintDebug</text>
</a>
</g>
<!-- Node1292&#45;&gt;Node1297 -->
<g id="edge14" class="edge"><title>Node1292&#45;&gt;Node1297</title>
<path fill="none" stroke="midnightblue" d="M84.1349,-278.278C102.772,-301.785 138.989,-343.901 178,-370 261.687,-425.989 290.538,-429.712 388,-455 544.961,-495.727 590.432,-493.826 752,-480 764.532,-478.928 777.743,-477.215 790.582,-475.232"/>
<polygon fill="midnightblue" stroke="midnightblue" points="791.463,-478.635 800.779,-473.59 790.35,-471.724 791.463,-478.635"/>
</g>
<!-- Node1299 -->
<g id="node16" class="node"><title>Node1299</title>
<a xlink:href="classokw_1_1_log_messenger.html#af225d1f037d47b3b085175c09d78bdd2" target="_top" xlink:title="Holt die Log&#45;Meldung für MethodeNmae/Textkey ohne weitere Parameter. ">
<polygon fill="white" stroke="black" points="788,-311.5 788,-332.5 948,-332.5 948,-311.5 788,-311.5"/>
<text text-anchor="middle" x="868" y="-319.5" font-family="Helvetica,sans-Serif" font-size="10.00">okw.LogMessenger.GetMessage</text>
</a>
</g>
<!-- Node1292&#45;&gt;Node1299 -->
<g id="edge16" class="edge"><title>Node1292&#45;&gt;Node1299</title>
<path fill="none" stroke="midnightblue" d="M141.746,-263.681C265.655,-268.799 529.904,-281.59 752,-305 765.146,-306.386 779.088,-308.162 792.575,-310.043"/>
<polygon fill="midnightblue" stroke="midnightblue" points="792.387,-313.551 802.78,-311.496 793.374,-306.621 792.387,-313.551"/>
</g>
<!-- Node1301 -->
<g id="node21" class="node"><title>Node1301</title>
<a xlink:href="classokw_1_1_o_k_w___const___sngltn.html#a3851ae4f27e2ae512749767b86b3fc13" target="_top" xlink:title="Methode trennt einen String und wandelt diesen in einen ListString um. ">
<polygon fill="white" stroke="black" points="180.5,-545.5 180.5,-566.5 349.5,-566.5 349.5,-545.5 180.5,-545.5"/>
<text text-anchor="middle" x="265" y="-553.5" font-family="Helvetica,sans-Serif" font-size="10.00">okw.OKW_Const_Sngltn.SplitSEP</text>
</a>
</g>
<!-- Node1292&#45;&gt;Node1301 -->
<g id="edge22" class="edge"><title>Node1292&#45;&gt;Node1301</title>
<path fill="none" stroke="midnightblue" d="M72.6415,-278.142C78.1256,-325.691 100.128,-460.373 178,-531 182.4,-534.991 187.397,-538.348 192.719,-541.171"/>
<polygon fill="midnightblue" stroke="midnightblue" points="191.389,-544.413 201.935,-545.438 194.33,-538.06 191.389,-544.413"/>
</g>
<!-- Node1303 -->
<g id="node26" class="node"><title>Node1303</title>
<a xlink:href="classokw_1_1parser_1_1_parser.html#a46afb901847316c744413ce473ecada3" target="_top" xlink:title="Parst einen _List&amp;lt string&amp;gt, ersetzt die Parser&#45;Schlüsslewörter durch Werte. ">
<polygon fill="white" stroke="black" points="196,-192.5 196,-213.5 334,-213.5 334,-192.5 196,-192.5"/>
<text text-anchor="middle" x="265" y="-200.5" font-family="Helvetica,sans-Serif" font-size="10.00">okw.parser.Parser.ParseMe</text>
</a>
</g>
<!-- Node1292&#45;&gt;Node1303 -->
<g id="edge28" class="edge"><title>Node1292&#45;&gt;Node1303</title>
<path fill="none" stroke="midnightblue" d="M125.647,-243.923C142.422,-238.741 160.953,-233.078 178,-228 190.962,-224.139 205.042,-220.049 218.022,-216.319"/>
<polygon fill="midnightblue" stroke="midnightblue" points="219.048,-219.666 227.698,-213.548 217.121,-212.937 219.048,-219.666"/>
</g>
<!-- Node1304 -->
<g id="node28" class="node"><title>Node1304</title>
<a xlink:href="classokw_1_1core_1_1_o_k_w___current_object___sngltn.html#a461fa1ff29f4bc4a9798707ea7b71849" target="_top" xlink:title="Setzt das Kindobjekt. ">
<polygon fill="white" stroke="black" points="190.5,-327 190.5,-361 339.5,-361 339.5,-327 190.5,-327"/>
<text text-anchor="start" x="198.5" y="-348" font-family="Helvetica,sans-Serif" font-size="10.00">okw.core.OKW_CurrentObject</text>
<text text-anchor="middle" x="265" y="-335" font-family="Helvetica,sans-Serif" font-size="10.00">_Sngltn.setChildName</text>
</a>
</g>
<!-- Node1292&#45;&gt;Node1304 -->
<g id="edge30" class="edge"><title>Node1292&#45;&gt;Node1304</title>
<path fill="none" stroke="midnightblue" d="M111.197,-278.198C141.602,-291.206 183.503,-309.133 215.893,-322.99"/>
<polygon fill="midnightblue" stroke="midnightblue" points="214.616,-326.251 225.187,-326.967 217.37,-319.815 214.616,-326.251"/>
</g>
<!-- Node1309 -->
<g id="node44" class="node"><title>Node1309</title>
<a xlink:href="classokw_1_1core_1_1_o_k_w___current_object___sngltn.html#a8a957bc040b9487a21adb41a52c56fd4" target="_top" xlink:title="Ermittelt den ObjektNamen des aktuellen Objektes. ">
<polygon fill="white" stroke="black" points="190.5,-140 190.5,-174 339.5,-174 339.5,-140 190.5,-140"/>
<text text-anchor="start" x="198.5" y="-161" font-family="Helvetica,sans-Serif" font-size="10.00">okw.core.OKW_CurrentObject</text>
<text text-anchor="middle" x="265" y="-148" font-family="Helvetica,sans-Serif" font-size="10.00">_Sngltn.getObjectFN</text>
</a>
</g>
<!-- Node1292&#45;&gt;Node1309 -->
<g id="edge52" class="edge"><title>Node1292&#45;&gt;Node1309</title>
<path fill="none" stroke="midnightblue" d="M90.1885,-243.863C110.648,-226.38 144.633,-199.538 178,-183 181.734,-181.149 185.625,-179.403 189.6,-177.761"/>
<polygon fill="midnightblue" stroke="midnightblue" points="190.939,-180.995 198.995,-174.113 188.406,-174.47 190.939,-180.995"/>
</g>
<!-- Node1310 -->
<g id="node46" class="node"><title>Node1310</title>
<a xlink:href="interfaceokw_1_1_o_k_w.html#a899fc2a092c4a03f53ce85ca1af61b28" target="_top" xlink:title="TimeOut in [s] für das Schlüsselwort VerifyTablecellValue. ">
<polygon fill="white" stroke="black" points="178.5,-100.5 178.5,-121.5 351.5,-121.5 351.5,-100.5 178.5,-100.5"/>
<text text-anchor="middle" x="265" y="-108.5" font-family="Helvetica,sans-Serif" font-size="10.00">okw.OKW.VerifyTablecellValue_TO</text>
</a>
</g>
<!-- Node1292&#45;&gt;Node1310 -->
<g id="edge54" class="edge"><title>Node1292&#45;&gt;Node1310</title>
<path fill="none" stroke="midnightblue" d="M80.2545,-243.572C96.23,-215.27 131.764,-159.606 178,-131 181.388,-128.904 184.972,-127.028 188.679,-125.347"/>
<polygon fill="midnightblue" stroke="midnightblue" points="190.131,-128.536 198.107,-121.562 187.523,-122.04 190.131,-128.536"/>
</g>
<!-- Node1311 -->
<g id="node48" class="node"><title>Node1311</title>
<a xlink:href="interfaceokw_1_1_o_k_w.html#acefee0b26413ff55e79c06d39f968943" target="_top" xlink:title="Polling Time in [ms] für das Schlüsselwort VerifyTablecellValue. ">
<polygon fill="white" stroke="black" points="179,-60.5 179,-81.5 351,-81.5 351,-60.5 179,-60.5"/>
<text text-anchor="middle" x="265" y="-68.5" font-family="Helvetica,sans-Serif" font-size="10.00">okw.OKW.VerifyTablecellValue_PT</text>
</a>
</g>
<!-- Node1292&#45;&gt;Node1311 -->
<g id="edge56" class="edge"><title>Node1292&#45;&gt;Node1311</title>
<path fill="none" stroke="midnightblue" d="M76.694,-243.884C89.1554,-209.202 122.271,-130.575 178,-91 180.571,-89.1745 183.282,-87.5128 186.096,-86.0005"/>
<polygon fill="midnightblue" stroke="midnightblue" points="187.805,-89.0653 195.383,-81.6608 184.841,-82.7235 187.805,-89.0653"/>
</g>
<!-- Node1312 -->
<g id="node50" class="node"><title>Node1312</title>
<a xlink:href="classokw_1_1core_1_1_o_k.html#a3ba74585cf304afd0962a5ed1680e576" target="_top" xlink:title="okw.core.OK.verifyREGX">
<polygon fill="white" stroke="black" points="200.5,-20.5 200.5,-41.5 329.5,-41.5 329.5,-20.5 200.5,-20.5"/>
<text text-anchor="middle" x="265" y="-28.5" font-family="Helvetica,sans-Serif" font-size="10.00">okw.core.OK.verifyREGX</text>
</a>
</g>
<!-- Node1292&#45;&gt;Node1312 -->
<g id="edge58" class="edge"><title>Node1292&#45;&gt;Node1312</title>
<path fill="none" stroke="midnightblue" d="M74.5081,-243.998C83.7487,-203.707 112.682,-101.983 178,-51 181.917,-47.9425 186.218,-45.3372 190.744,-43.1188"/>
<polygon fill="midnightblue" stroke="midnightblue" points="192.449,-46.1985 200.303,-39.0874 189.729,-39.7487 192.449,-46.1985"/>
</g>
<!-- Node1315 -->
<g id="node56" class="node"><title>Node1315</title>
<a xlink:href="classokw_1_1core_1_1_o_k.html#a5a6db6a457bcb71c893f5d4eb615b2b7" target="_top" xlink:title="Zentrale Exception&#45;Behandlung. ">
<polygon fill="white" stroke="black" points="396.5,-179.5 396.5,-200.5 545.5,-200.5 545.5,-179.5 396.5,-179.5"/>
<text text-anchor="middle" x="471" y="-187.5" font-family="Helvetica,sans-Serif" font-size="10.00">okw.core.OK.handleException</text>
</a>
</g>
<!-- Node1292&#45;&gt;Node1315 -->
<g id="edge64" class="edge"><title>Node1292&#45;&gt;Node1315</title>
<path fill="none" stroke="midnightblue" d="M141.602,-254.145C198.702,-247.957 280.991,-237.576 352,-223 377.52,-217.761 405.626,-210.06 428.112,-203.415"/>
<polygon fill="midnightblue" stroke="midnightblue" points="429.122,-206.766 437.699,-200.546 427.115,-200.06 429.122,-206.766"/>
</g>
<!-- Node1294 -->
<g id="node5" class="node"><title>Node1294</title>
<a xlink:href="classokw_1_1_o_k_w___const___sngltn.html#a8404c43fc549df30d37c369c7d6e89ae" target="_top" xlink:title="Privater Konstruktor ohne Parameter im Entwurfsmuster Singelton initialisiert die Klasse OKW_Const...">
<polygon fill="white" stroke="black" points="394.5,-637 394.5,-671 547.5,-671 547.5,-637 394.5,-637"/>
<text text-anchor="start" x="402.5" y="-658" font-family="Helvetica,sans-Serif" font-size="10.00">okw.OKW_Const_Sngltn.OKW</text>
<text text-anchor="middle" x="471" y="-645" font-family="Helvetica,sans-Serif" font-size="10.00">_Const_Sngltn</text>
</a>
</g>
<!-- Node1293&#45;&gt;Node1294 -->
<g id="edge4" class="edge"><title>Node1293&#45;&gt;Node1294</title>
<path fill="none" stroke="midnightblue" d="M336.76,-650.09C352,-650.534 368.248,-651.007 383.986,-651.466"/>
<polygon fill="midnightblue" stroke="midnightblue" points="384.141,-654.972 394.238,-651.764 384.344,-647.974 384.141,-654.972"/>
</g>
<!-- Node1296 -->
<g id="node9" class="node"><title>Node1296</title>
<a xlink:href="classokw_1_1_o_k_w___const___sngltn.html#a51cde06bf07e855ba4d69ff36b9a27f7" target="_top" xlink:title="Methode ermittelt für Internalname und der aktuell eingestellten Sprache den Wert für Const...">
<polygon fill="white" stroke="black" points="598.5,-545 598.5,-579 743.5,-579 743.5,-545 598.5,-545"/>
<text text-anchor="start" x="606.5" y="-566" font-family="Helvetica,sans-Serif" font-size="10.00">okw.OKW_Const_Sngltn.Get</text>
<text text-anchor="middle" x="671" y="-553" font-family="Helvetica,sans-Serif" font-size="10.00">Const4Internalname</text>
</a>
</g>
<!-- Node1295&#45;&gt;Node1296 -->
<g id="edge8" class="edge"><title>Node1295&#45;&gt;Node1296</title>
<path fill="none" stroke="midnightblue" d="M543.77,-587.446C558.199,-584.56 573.447,-581.511 588.181,-578.564"/>
<polygon fill="midnightblue" stroke="midnightblue" points="589.164,-581.937 598.284,-576.543 587.792,-575.072 589.164,-581.937"/>
</g>
<!-- Node1296&#45;&gt;Node1297 -->
<g id="edge10" class="edge"><title>Node1296&#45;&gt;Node1297</title>
<path fill="none" stroke="midnightblue" d="M720.022,-544.902C730.72,-540.713 741.868,-535.987 752,-531 780.801,-516.824 811.727,-497.681 834.399,-482.844"/>
<polygon fill="midnightblue" stroke="midnightblue" points="836.551,-485.617 842.966,-477.185 832.693,-479.776 836.551,-485.617"/>
</g>
<!-- Node1298 -->
<g id="node13" class="node"><title>Node1298</title>
<a xlink:href="classokw_1_1_o_k_w___xml_reader.html#ab920b5335a2e1429c14cc5f8e79f39eb" target="_top" xlink:title="Lies den TextContent eines Tag. ">
<polygon fill="white" stroke="black" points="1188,-461 1188,-495 1340,-495 1340,-461 1188,-461"/>
<text text-anchor="start" x="1196" y="-482" font-family="Helvetica,sans-Serif" font-size="10.00">okw.OKW_XmlReader.getText</text>
<text text-anchor="middle" x="1264" y="-469" font-family="Helvetica,sans-Serif" font-size="10.00">ContentSingleValue</text>
</a>
</g>
<!-- Node1296&#45;&gt;Node1298 -->
<g id="edge12" class="edge"><title>Node1296&#45;&gt;Node1298</title>
<path fill="none" stroke="midnightblue" d="M743.713,-551.7C853.401,-536.162 1060.78,-506.787 1177.87,-490.2"/>
<polygon fill="midnightblue" stroke="midnightblue" points="1178.47,-493.651 1187.88,-488.783 1177.49,-486.72 1178.47,-493.651"/>
</g>
<!-- Node1300 -->
<g id="node18" class="node"><title>Node1300</title>
<a xlink:href="classokw_1_1_log_messenger.html#a530cd6ab82ec82a04206a2e976ec06e3" target="_top" xlink:title="Interne Kernfunktion holt die Log&#45;Meldung mit Platzhaltern aus der XML&#45;Datei. ">
<polygon fill="white" stroke="black" points="984.5,-402.5 984.5,-423.5 1151.5,-423.5 1151.5,-402.5 984.5,-402.5"/>
<text text-anchor="middle" x="1068" y="-410.5" font-family="Helvetica,sans-Serif" font-size="10.00">okw.LogMessenger.ReadMessage</text>
</a>
</g>
<!-- Node1299&#45;&gt;Node1300 -->
<g id="edge18" class="edge"><title>Node1299&#45;&gt;Node1300</title>
<path fill="none" stroke="midnightblue" d="M891.334,-332.617C927.012,-348.85 995.228,-379.889 1035.66,-398.284"/>
<polygon fill="midnightblue" stroke="midnightblue" points="1034.26,-401.495 1044.81,-402.451 1037.16,-395.123 1034.26,-401.495"/>
</g>
<!-- Node1300&#45;&gt;Node1298 -->
<g id="edge20" class="edge"><title>Node1300&#45;&gt;Node1298</title>
<path fill="none" stroke="midnightblue" d="M1099.93,-423.588C1127.67,-432.788 1168.64,-446.374 1202.69,-457.668"/>
<polygon fill="midnightblue" stroke="midnightblue" points="1201.96,-461.114 1212.56,-460.94 1204.17,-454.47 1201.96,-461.114"/>
</g>
<!-- Node1301&#45;&gt;Node1295 -->
<g id="edge26" class="edge"><title>Node1301&#45;&gt;Node1295</title>
<path fill="none" stroke="midnightblue" d="M312.261,-566.553C334.801,-571.587 362.438,-577.758 388.298,-583.532"/>
<polygon fill="midnightblue" stroke="midnightblue" points="387.585,-586.959 398.107,-585.723 389.11,-580.128 387.585,-586.959"/>
</g>
<!-- Node1302 -->
<g id="node23" class="node"><title>Node1302</title>
<a xlink:href="classokw_1_1_o_k_w___helper.html#a268ba5b6db697acd241f3ebea12c4194" target="_top" xlink:title="Splittet einen String am angegebenen Separator auf. ">
<polygon fill="white" stroke="black" points="400,-545.5 400,-566.5 542,-566.5 542,-545.5 400,-545.5"/>
<text text-anchor="middle" x="471" y="-553.5" font-family="Helvetica,sans-Serif" font-size="10.00">okw.OKW_Helper.splitString</text>
</a>
</g>
<!-- Node1301&#45;&gt;Node1302 -->
<g id="edge24" class="edge"><title>Node1301&#45;&gt;Node1302</title>
<path fill="none" stroke="midnightblue" d="M349.68,-556C362.814,-556 376.36,-556 389.424,-556"/>
<polygon fill="midnightblue" stroke="midnightblue" points="389.781,-559.5 399.781,-556 389.781,-552.5 389.781,-559.5"/>
</g>
<!-- Node1304&#45;&gt;Node1297 -->
<g id="edge32" class="edge"><title>Node1304&#45;&gt;Node1297</title>
<path fill="none" stroke="midnightblue" d="M285.754,-361.044C309.105,-379.251 348.899,-407.447 388,-422 522.875,-472.197 693.422,-472.066 790.667,-466.595"/>
<polygon fill="midnightblue" stroke="midnightblue" points="790.937,-470.085 800.711,-465.996 790.521,-463.097 790.937,-470.085"/>
</g>
<!-- Node1304&#45;&gt;Node1299 -->
<g id="edge34" class="edge"><title>Node1304&#45;&gt;Node1299</title>
<path fill="none" stroke="midnightblue" d="M333.233,-326.94C350.951,-323.238 370.091,-319.872 388,-318 523.287,-303.858 681.19,-309.375 777.871,-315.232"/>
<polygon fill="midnightblue" stroke="midnightblue" points="777.705,-318.729 787.902,-315.855 778.138,-311.742 777.705,-318.729"/>
</g>
<!-- Node1305 -->
<g id="node32" class="node"><title>Node1305</title>
<a xlink:href="classokw_1_1_o_k_w___helper.html#a3a7ba0f42b29adf70574830688e72e4a" target="_top" xlink:title="Prüft ob der gegeben String fpsStrin null oder leer (&quot;&quot;) ist. ">
<polygon fill="white" stroke="black" points="396.5,-327 396.5,-361 545.5,-361 545.5,-327 396.5,-327"/>
<text text-anchor="start" x="404.5" y="-348" font-family="Helvetica,sans-Serif" font-size="10.00">okw.OKW_Helper.isStringNull</text>
<text text-anchor="middle" x="471" y="-335" font-family="Helvetica,sans-Serif" font-size="10.00">OrEmpty</text>
</a>
</g>
<!-- Node1304&#45;&gt;Node1305 -->
<g id="edge36" class="edge"><title>Node1304&#45;&gt;Node1305</title>
<path fill="none" stroke="midnightblue" d="M339.662,-344C354.775,-344 370.77,-344 386.202,-344"/>
<polygon fill="midnightblue" stroke="midnightblue" points="386.247,-347.5 396.247,-344 386.247,-340.5 386.247,-347.5"/>
</g>
<!-- Node1306 -->
<g id="node34" class="node"><title>Node1306</title>
<a xlink:href="classokw_1_1core_1_1_o_k_w___current_object___sngltn.html#a51204f2563ba8defb737da6653705819" target="_top" xlink:title="Methode aktualisert zwei Werte: ">
<polygon fill="white" stroke="black" points="396.5,-379 396.5,-413 545.5,-413 545.5,-379 396.5,-379"/>
<text text-anchor="start" x="404.5" y="-400" font-family="Helvetica,sans-Serif" font-size="10.00">okw.core.OKW_CurrentObject</text>
<text text-anchor="middle" x="471" y="-387" font-family="Helvetica,sans-Serif" font-size="10.00">_Sngltn.updateObject</text>
</a>
</g>
<!-- Node1304&#45;&gt;Node1306 -->
<g id="edge38" class="edge"><title>Node1304&#45;&gt;Node1306</title>
<path fill="none" stroke="midnightblue" d="M332.452,-361.027C352.015,-365.965 373.528,-371.395 393.647,-376.474"/>
<polygon fill="midnightblue" stroke="midnightblue" points="392.844,-379.881 403.396,-378.935 394.557,-373.094 392.844,-379.881"/>
</g>
<!-- Node1307 -->
<g id="node36" class="node"><title>Node1307</title>
<a xlink:href="classokw_1_1_frame_object_dictionary___sngltn.html#aeec07d71cbebe71ec3ec4d27e86d6c5c" target="_top" xlink:title="Die Methode liefert das Frame&#45;Object des gegebenen FN eines Fensterobjektes zurück. ">
<polygon fill="white" stroke="black" points="590.5,-327 590.5,-361 751.5,-361 751.5,-327 590.5,-327"/>
<text text-anchor="start" x="598.5" y="-348" font-family="Helvetica,sans-Serif" font-size="10.00">okw.FrameObjectDictionary</text>
<text text-anchor="middle" x="671" y="-335" font-family="Helvetica,sans-Serif" font-size="10.00">_Sngltn.getParentObjectByName</text>
</a>
</g>
<!-- Node1306&#45;&gt;Node1307 -->
<g id="edge40" class="edge"><title>Node1306&#45;&gt;Node1307</title>
<path fill="none" stroke="midnightblue" d="M536.487,-378.973C555.394,-374.058 576.177,-368.654 595.633,-363.595"/>
<polygon fill="midnightblue" stroke="midnightblue" points="596.568,-366.969 605.365,-361.065 594.806,-360.194 596.568,-366.969"/>
</g>
<!-- Node1308 -->
<g id="node40" class="node"><title>Node1308</title>
<a xlink:href="classokw_1_1_frame_object_dictionary___sngltn.html#a0a71734828093357dfc88b5fa242e361" target="_top" xlink:title="Die Methode liefert das Objekt des gegebenen Kindobjekttests zurück. ">
<polygon fill="white" stroke="black" points="593.5,-379 593.5,-413 748.5,-413 748.5,-379 593.5,-379"/>
<text text-anchor="start" x="601.5" y="-400" font-family="Helvetica,sans-Serif" font-size="10.00">okw.FrameObjectDictionary</text>
<text text-anchor="middle" x="671" y="-387" font-family="Helvetica,sans-Serif" font-size="10.00">_Sngltn.getChildObjectByName</text>
</a>
</g>
<!-- Node1306&#45;&gt;Node1308 -->
<g id="edge46" class="edge"><title>Node1306&#45;&gt;Node1308</title>
<path fill="none" stroke="midnightblue" d="M545.757,-396C557.892,-396 570.558,-396 582.974,-396"/>
<polygon fill="midnightblue" stroke="midnightblue" points="583.328,-399.5 593.328,-396 583.328,-392.5 583.328,-399.5"/>
</g>
<!-- Node1307&#45;&gt;Node1297 -->
<g id="edge42" class="edge"><title>Node1307&#45;&gt;Node1297</title>
<path fill="none" stroke="midnightblue" d="M732.106,-361.052C738.962,-363.713 745.729,-366.694 752,-370 785.937,-387.894 820.067,-415.858 842.432,-435.865"/>
<polygon fill="midnightblue" stroke="midnightblue" points="840.36,-438.712 850.117,-442.843 845.066,-433.53 840.36,-438.712"/>
</g>
<!-- Node1307&#45;&gt;Node1299 -->
<g id="edge44" class="edge"><title>Node1307&#45;&gt;Node1299</title>
<path fill="none" stroke="midnightblue" d="M751.696,-334.988C760.25,-334.033 768.989,-333.057 777.643,-332.091"/>
<polygon fill="midnightblue" stroke="midnightblue" points="778.199,-335.55 787.748,-330.962 777.422,-328.594 778.199,-335.55"/>
</g>
<!-- Node1308&#45;&gt;Node1297 -->
<g id="edge48" class="edge"><title>Node1308&#45;&gt;Node1297</title>
<path fill="none" stroke="midnightblue" d="M723.534,-413.067C748.912,-421.312 779.539,-431.261 806.049,-439.874"/>
<polygon fill="midnightblue" stroke="midnightblue" points="805.021,-443.22 815.613,-442.981 807.184,-436.562 805.021,-443.22"/>
</g>
<!-- Node1308&#45;&gt;Node1299 -->
<g id="edge50" class="edge"><title>Node1308&#45;&gt;Node1299</title>
<path fill="none" stroke="midnightblue" d="M726.107,-378.98C734.811,-376.1 743.68,-373.051 752,-370 780.289,-359.626 811.855,-346.458 834.907,-336.539"/>
<polygon fill="midnightblue" stroke="midnightblue" points="836.443,-339.688 844.231,-332.505 833.663,-333.264 836.443,-339.688"/>
</g>
<!-- Node1313 -->
<g id="node52" class="node"><title>Node1313</title>
<a xlink:href="classokw_1_1_o_k_w___time_out.html#adf7b9cc33db065c1f284bb5db2227b51" target="_top" xlink:title="Anzahl der berechnetten Zyklen. ">
<polygon fill="white" stroke="black" points="388,-40.5 388,-61.5 554,-61.5 554,-40.5 388,-40.5"/>
<text text-anchor="middle" x="471" y="-48.5" font-family="Helvetica,sans-Serif" font-size="10.00">okw.OKW_TimeOut.getMaxCount</text>
</a>
</g>
<!-- Node1312&#45;&gt;Node1313 -->
<g id="edge60" class="edge"><title>Node1312&#45;&gt;Node1313</title>
<path fill="none" stroke="midnightblue" d="M329.614,-37.2733C344.858,-38.7532 361.41,-40.3602 377.64,-41.936"/>
<polygon fill="midnightblue" stroke="midnightblue" points="377.398,-45.4288 387.69,-42.9116 378.075,-38.4616 377.398,-45.4288"/>
</g>
<!-- Node1314 -->
<g id="node54" class="node"><title>Node1314</title>
<a xlink:href="classokw_1_1_o_k_w___time_out.html#ab7142e5e6adc82f308a70177c71ced2c" target="_top" xlink:title="Wartezeit zwischen zwei Pollings in [ms]. ">
<polygon fill="white" stroke="black" points="404,-0.5 404,-21.5 538,-21.5 538,-0.5 404,-0.5"/>
<text text-anchor="middle" x="471" y="-8.5" font-family="Helvetica,sans-Serif" font-size="10.00">okw.OKW_TimeOut.getPT</text>
</a>
</g>
<!-- Node1312&#45;&gt;Node1314 -->
<g id="edge62" class="edge"><title>Node1312&#45;&gt;Node1314</title>
<path fill="none" stroke="midnightblue" d="M329.614,-24.7267C349.895,-22.7578 372.492,-20.5639 393.565,-18.518"/>
<polygon fill="midnightblue" stroke="midnightblue" points="394.156,-21.9772 403.771,-17.5271 393.479,-15.0099 394.156,-21.9772"/>
</g>
<!-- Node1315&#45;&gt;Node1297 -->
<g id="edge70" class="edge"><title>Node1315&#45;&gt;Node1297</title>
<path fill="none" stroke="midnightblue" d="M479.28,-200.762C495.414,-222.128 531.454,-271.829 554,-318 575.463,-361.953 552.173,-390.99 590,-422 619.847,-446.468 719.254,-455.205 790.675,-458.311"/>
<polygon fill="midnightblue" stroke="midnightblue" points="790.864,-461.821 800.998,-458.729 791.148,-454.827 790.864,-461.821"/>
</g>
<!-- Node1316 -->
<g id="node58" class="node"><title>Node1316</title>
<a xlink:href="classokw_1_1log_1_1_logger___sngltn.html#a8ebceaddd6cc6963ddb8e08c72ea808c" target="_top" xlink:title="LogPrint Function: Prints the values of expressions to the results file. ">
<polygon fill="white" stroke="black" points="801,-62 801,-96 935,-96 935,-62 801,-62"/>
<text text-anchor="start" x="809" y="-83" font-family="Helvetica,sans-Serif" font-size="10.00">okw.log.Logger_Sngltn.Log</text>
<text text-anchor="middle" x="868" y="-70" font-family="Helvetica,sans-Serif" font-size="10.00">Print</text>
</a>
</g>
<!-- Node1315&#45;&gt;Node1316 -->
<g id="edge66" class="edge"><title>Node1315&#45;&gt;Node1316</title>
<path fill="none" stroke="midnightblue" d="M478.763,-179.442C495.878,-157.154 539.383,-105.732 590,-86 654.288,-60.9389 733.44,-61.6781 790.823,-67.2211"/>
<polygon fill="midnightblue" stroke="midnightblue" points="790.608,-70.7175 800.916,-68.267 791.33,-63.7548 790.608,-70.7175"/>
</g>
<!-- Node1317 -->
<g id="node60" class="node"><title>Node1317</title>
<a xlink:href="classokw_1_1log_1_1_logger___sngltn.html#aa29d396a2b9df1ac57079d777c548181" target="_top" xlink:title="LogException Function: Logs a Script Exception to the results file. ">
<polygon fill="white" stroke="black" points="604,-199 604,-233 738,-233 738,-199 604,-199"/>
<text text-anchor="start" x="612" y="-220" font-family="Helvetica,sans-Serif" font-size="10.00">okw.log.Logger_Sngltn.Log</text>
<text text-anchor="middle" x="671" y="-207" font-family="Helvetica,sans-Serif" font-size="10.00">Exception</text>
</a>
</g>
<!-- Node1315&#45;&gt;Node1317 -->
<g id="edge68" class="edge"><title>Node1315&#45;&gt;Node1317</title>
<path fill="none" stroke="midnightblue" d="M545.757,-199.718C561.412,-201.754 577.949,-203.903 593.694,-205.95"/>
<polygon fill="midnightblue" stroke="midnightblue" points="593.542,-209.46 603.91,-207.278 594.444,-202.518 593.542,-209.46"/>
</g>
<!-- Node1318 -->
<g id="node63" class="node"><title>Node1318</title>
<a xlink:href="classokw_1_1core_1_1_o_k_w___current_object___sngltn.html#a01b48f2c86a2f91909143ee9063dfd86" target="_top" xlink:title="Methode gibt alle wichtigen Informationen zum aktuellen Objekt aus. ">
<polygon fill="white" stroke="black" points="596.5,-147 596.5,-181 745.5,-181 745.5,-147 596.5,-147"/>
<text text-anchor="start" x="604.5" y="-168" font-family="Helvetica,sans-Serif" font-size="10.00">okw.core.OKW_CurrentObject</text>
<text text-anchor="middle" x="671" y="-155" font-family="Helvetica,sans-Serif" font-size="10.00">_Sngltn.LogObjectData</text>
</a>
</g>
<!-- Node1315&#45;&gt;Node1318 -->
<g id="edge72" class="edge"><title>Node1315&#45;&gt;Node1318</title>
<path fill="none" stroke="midnightblue" d="M545.757,-180.282C558.931,-178.569 572.73,-176.775 586.156,-175.03"/>
<polygon fill="midnightblue" stroke="midnightblue" points="586.868,-178.467 596.334,-173.707 585.966,-171.525 586.868,-178.467"/>
</g>
<!-- Node1321 -->
<g id="node71" class="node"><title>Node1321</title>
<a xlink:href="classokw_1_1core_1_1_core.html#aafe6e3d88e810dabf350b37058d4af97" target="_top" xlink:title="Setter zum Setzen des aktuellen Zustandes. ">
<polygon fill="white" stroke="black" points="605.5,-95 605.5,-129 736.5,-129 736.5,-95 605.5,-95"/>
<text text-anchor="start" x="613.5" y="-116" font-family="Helvetica,sans-Serif" font-size="10.00">okw.core.Core.SetCurrent</text>
<text text-anchor="middle" x="671" y="-103" font-family="Helvetica,sans-Serif" font-size="10.00">State</text>
</a>
</g>
<!-- Node1315&#45;&gt;Node1321 -->
<g id="edge82" class="edge"><title>Node1315&#45;&gt;Node1321</title>
<path fill="none" stroke="midnightblue" d="M493.531,-179.338C517.255,-168.305 555.833,-150.911 590,-138 595.095,-136.075 600.402,-134.165 605.755,-132.306"/>
<polygon fill="midnightblue" stroke="midnightblue" points="607.066,-135.557 615.405,-129.022 604.811,-128.93 607.066,-135.557"/>
</g>
<!-- Node1318&#45;&gt;Node1299 -->
<g id="edge78" class="edge"><title>Node1318&#45;&gt;Node1299</title>
<path fill="none" stroke="midnightblue" d="M735.718,-181.186C741.417,-183.756 746.936,-186.679 752,-190 772.278,-203.298 771.994,-212.783 788,-231 810.154,-256.215 835.77,-285.35 851.927,-303.723"/>
<polygon fill="midnightblue" stroke="midnightblue" points="849.406,-306.156 858.638,-311.354 854.662,-301.534 849.406,-306.156"/>
</g>
<!-- Node1318&#45;&gt;Node1316 -->
<g id="edge76" class="edge"><title>Node1318&#45;&gt;Node1316</title>
<path fill="none" stroke="midnightblue" d="M728.064,-146.954C736.174,-144.164 744.352,-141.149 752,-138 778.142,-127.237 806.441,-112.901 828.543,-101.055"/>
<polygon fill="midnightblue" stroke="midnightblue" points="830.482,-103.985 837.612,-96.1483 827.151,-97.8286 830.482,-103.985"/>
</g>
<!-- Node1319 -->
<g id="node65" class="node"><title>Node1319</title>
<a xlink:href="classokw_1_1log_1_1_logger___sngltn.html#ab4fc711bb4c754f251372ff3b14ab9c9" target="_top" xlink:title="Creates a new hierarchical level in the results file. ">
<polygon fill="white" stroke="black" points="799.5,-188 799.5,-222 936.5,-222 936.5,-188 799.5,-188"/>
<text text-anchor="start" x="807.5" y="-209" font-family="Helvetica,sans-Serif" font-size="10.00">okw.log.Logger_Sngltn.Res</text>
<text text-anchor="middle" x="868" y="-196" font-family="Helvetica,sans-Serif" font-size="10.00">OpenList</text>
</a>
</g>
<!-- Node1318&#45;&gt;Node1319 -->
<g id="edge74" class="edge"><title>Node1318&#45;&gt;Node1319</title>
<path fill="none" stroke="midnightblue" d="M745.758,-179.559C760.085,-182.541 775.125,-185.671 789.564,-188.676"/>
<polygon fill="midnightblue" stroke="midnightblue" points="788.944,-192.122 799.448,-190.733 790.371,-185.269 788.944,-192.122"/>
</g>
<!-- Node1320 -->
<g id="node69" class="node"><title>Node1320</title>
<a xlink:href="classokw_1_1log_1_1_logger___sngltn.html#a9b54104f7e0b4c0a473877b19dfaed56" target="_top" xlink:title="Closes a hierarchical level in the results file that was opened with ResOpenList. ...">
<polygon fill="white" stroke="black" points="799.5,-136 799.5,-170 936.5,-170 936.5,-136 799.5,-136"/>
<text text-anchor="start" x="807.5" y="-157" font-family="Helvetica,sans-Serif" font-size="10.00">okw.log.Logger_Sngltn.Res</text>
<text text-anchor="middle" x="868" y="-144" font-family="Helvetica,sans-Serif" font-size="10.00">CloseList</text>
</a>
</g>
<!-- Node1318&#45;&gt;Node1320 -->
<g id="edge80" class="edge"><title>Node1318&#45;&gt;Node1320</title>
<path fill="none" stroke="midnightblue" d="M745.758,-159.826C759.947,-159.033 774.836,-158.202 789.147,-157.403"/>
<polygon fill="midnightblue" stroke="midnightblue" points="789.659,-160.88 799.448,-156.828 789.268,-153.891 789.659,-160.88"/>
</g>
</g>
</svg>
