<?xml version="1.0" encoding="UTF-8" standalone="no"?>
<!DOCTYPE svg PUBLIC "-//W3C//DTD SVG 1.1//EN"
 "http://www.w3.org/Graphics/SVG/1.1/DTD/svg11.dtd">
<!-- Generated by graphviz version 2.38.0 (20140413.2041)
 -->
<!-- Title: okw.core.EN_OKWNotAllowedValueException_Keywords_IGNORE.tcVerifyTablecellValueREGXIGNORE2 Pages: 1 -->
<svg width="1223pt" height="302pt"
 viewBox="0.00 0.00 1223.00 302.00" xmlns="http://www.w3.org/2000/svg" xmlns:xlink="http://www.w3.org/1999/xlink">
<g id="graph0" class="graph" transform="scale(1 1) rotate(0) translate(4 298)">
<title>okw.core.EN_OKWNotAllowedValueException_Keywords_IGNORE.tcVerifyTablecellValueREGXIGNORE2</title>
<polygon fill="white" stroke="none" points="-4,4 -4,-298 1219,-298 1219,4 -4,4"/>
<!-- Node1170 -->
<g id="node1" class="node"><title>Node1170</title>
<g id="a_node1"><a xlink:title="Prüft ob &quot;&quot;${IGNORE}${TCN}&quot; die Ausnahme okw.exceptions.OKWNotAllowedValueException auslöst.">
<polygon fill="#bfbfbf" stroke="black" points="0,-103 0,-144 231,-144 231,-103 0,-103"/>
<text text-anchor="start" x="8" y="-132" font-family="Helvetica,sans-Serif" font-size="10.00">okw.core.EN_OKWNotAllowed</text>
<text text-anchor="start" x="8" y="-121" font-family="Helvetica,sans-Serif" font-size="10.00">ValueException_Keywords</text>
<text text-anchor="middle" x="115.5" y="-110" font-family="Helvetica,sans-Serif" font-size="10.00">_IGNORE.tcVerifyTablecellValueREGXIGNORE2</text>
</a>
</g>
</g>
<!-- Node1171 -->
<g id="node2" class="node"><title>Node1171</title>
<g id="a_node2"><a xlink:href="classokw_1_1core_1_1_e_n.html#aef613b0a3e6bb8a9623984db145cae69" target="_top" xlink:title="Markiert den Anfang eines neuen Testfalls.">
<polygon fill="white" stroke="black" points="277,-70 277,-89 400,-89 400,-70 277,-70"/>
<text text-anchor="middle" x="338.5" y="-77" font-family="Helvetica,sans-Serif" font-size="10.00">okw.core.EN.BeginTest</text>
</a>
</g>
</g>
<!-- Node1170&#45;&gt;Node1171 -->
<g id="edge1" class="edge"><title>Node1170&#45;&gt;Node1171</title>
<path fill="none" stroke="midnightblue" d="M219.559,-102.981C240.258,-98.8605 261.306,-94.6698 279.781,-90.9915"/>
<polygon fill="midnightblue" stroke="midnightblue" points="280.638,-94.3897 289.762,-89.0044 279.271,-87.5245 280.638,-94.3897"/>
</g>
<!-- Node1177 -->
<g id="node8" class="node"><title>Node1177</title>
<g id="a_node8"><a xlink:href="classokw_1_1core_1_1_e_n.html#a2b61c2b39a9cfdbdfd25fe0e3d43785b" target="_top" xlink:title="Setzt den Kontext auf das gegebene Fenster.">
<polygon fill="white" stroke="black" points="267,-158 267,-177 410,-177 410,-158 267,-158"/>
<text text-anchor="middle" x="338.5" y="-165" font-family="Helvetica,sans-Serif" font-size="10.00">okw.core.EN.SelectWindow</text>
</a>
</g>
</g>
<!-- Node1170&#45;&gt;Node1177 -->
<g id="edge7" class="edge"><title>Node1170&#45;&gt;Node1177</title>
<path fill="none" stroke="midnightblue" d="M219.559,-144.019C240.258,-148.14 261.306,-152.33 279.781,-156.008"/>
<polygon fill="midnightblue" stroke="midnightblue" points="279.271,-159.476 289.762,-157.996 280.638,-152.61 279.271,-159.476"/>
</g>
<!-- Node1184 -->
<g id="node15" class="node"><title>Node1184</title>
<g id="a_node15"><a xlink:href="classokw_1_1core_1_1_e_n.html#aa7f564b9473f69377d40c80e0508752a" target="_top" xlink:title="Vergleicht den Inhalt der gegebenen Tabellenzelle mit dem erwarteten Wert.">
<polygon fill="white" stroke="black" points="267,-108.5 267,-138.5 410,-138.5 410,-108.5 267,-108.5"/>
<text text-anchor="start" x="275" y="-126.5" font-family="Helvetica,sans-Serif" font-size="10.00">okw.core.EN.VerifyTablecell</text>
<text text-anchor="middle" x="338.5" y="-115.5" font-family="Helvetica,sans-Serif" font-size="10.00">ValueREGX</text>
</a>
</g>
</g>
<!-- Node1170&#45;&gt;Node1184 -->
<g id="edge15" class="edge"><title>Node1170&#45;&gt;Node1184</title>
<path fill="none" stroke="midnightblue" d="M231.208,-123.5C239.875,-123.5 248.508,-123.5 256.893,-123.5"/>
<polygon fill="midnightblue" stroke="midnightblue" points="256.983,-127 266.983,-123.5 256.983,-120 256.983,-127"/>
</g>
<!-- Node1172 -->
<g id="node3" class="node"><title>Node1172</title>
<g id="a_node3"><a xlink:href="classokw_1_1core_1_1_core.html#ab4e0f723d27cb11c944ec4c82c426100" target="_top" xlink:title="Setzt die Sprache auf den gegebenen wert Language.">
<polygon fill="white" stroke="black" points="447.5,-91 447.5,-110 596.5,-110 596.5,-91 447.5,-91"/>
<text text-anchor="middle" x="522" y="-98" font-family="Helvetica,sans-Serif" font-size="10.00">okw.core.Core.setLanguage</text>
</a>
</g>
</g>
<!-- Node1171&#45;&gt;Node1172 -->
<g id="edge2" class="edge"><title>Node1171&#45;&gt;Node1172</title>
<path fill="none" stroke="midnightblue" d="M400.189,-86.5219C412.143,-87.9049 424.88,-89.3787 437.434,-90.8312"/>
<polygon fill="midnightblue" stroke="midnightblue" points="437.107,-94.3167 447.443,-91.9893 437.912,-87.3631 437.107,-94.3167"/>
</g>
<!-- Node1174 -->
<g id="node5" class="node"><title>Node1174</title>
<g id="a_node5"><a xlink:href="classokw_1_1core_1_1_core.html#acfefe92468c9eb9e951846372726c4d8" target="_top" xlink:title="Markiert den Anfang eines neuen Testfalls.">
<polygon fill="white" stroke="black" points="456,-50 456,-69 588,-69 588,-50 456,-50"/>
<text text-anchor="middle" x="522" y="-57" font-family="Helvetica,sans-Serif" font-size="10.00">okw.core.Core.BeginTest</text>
</a>
</g>
</g>
<!-- Node1171&#45;&gt;Node1174 -->
<g id="edge4" class="edge"><title>Node1171&#45;&gt;Node1174</title>
<path fill="none" stroke="midnightblue" d="M400.189,-72.8125C414.675,-71.2163 430.312,-69.4932 445.377,-67.8331"/>
<polygon fill="midnightblue" stroke="midnightblue" points="446.138,-71.2706 455.694,-66.6962 445.371,-64.3127 446.138,-71.2706"/>
</g>
<!-- Node1173 -->
<g id="node4" class="node"><title>Node1173</title>
<g id="a_node4"><a xlink:href="interfaceokw_1_1core_1_1_i_o_k_w___state.html#a866baa0bde08a47418f54d63bdb56097" target="_top" xlink:title="Interne Methode zum setzen der Sprache für die sprachabhängigen Ausgaben der Dokumentation (Log).">
<polygon fill="white" stroke="black" points="634,-88 634,-107 816,-107 816,-88 634,-88"/>
<text text-anchor="middle" x="725" y="-95" font-family="Helvetica,sans-Serif" font-size="10.00">okw.core.IOKW_State.setLanguage</text>
</a>
</g>
</g>
<!-- Node1172&#45;&gt;Node1173 -->
<g id="edge3" class="edge"><title>Node1172&#45;&gt;Node1173</title>
<path fill="none" stroke="midnightblue" d="M596.704,-99.3999C605.495,-99.2687 614.582,-99.1331 623.667,-98.9975"/>
<polygon fill="midnightblue" stroke="midnightblue" points="623.962,-102.494 633.908,-98.8447 623.857,-95.4944 623.962,-102.494"/>
</g>
<!-- Node1175 -->
<g id="node6" class="node"><title>Node1175</title>
<g id="a_node6"><a xlink:href="classokw_1_1log_1_1_logger___sngltn.html#a60f4ad59db847ae61df928f9920f3deb" target="_top" xlink:title="Ausgabe des Testfalls.">
<polygon fill="white" stroke="black" points="653.5,-0.5 653.5,-30.5 796.5,-30.5 796.5,-0.5 653.5,-0.5"/>
<text text-anchor="start" x="661.5" y="-18.5" font-family="Helvetica,sans-Serif" font-size="10.00">okw.log.Logger_Sngltn.Log</text>
<text text-anchor="middle" x="725" y="-7.5" font-family="Helvetica,sans-Serif" font-size="10.00">TestcaseStart</text>
</a>
</g>
</g>
<!-- Node1174&#45;&gt;Node1175 -->
<g id="edge5" class="edge"><title>Node1174&#45;&gt;Node1175</title>
<path fill="none" stroke="midnightblue" d="M566.614,-49.9527C589.547,-44.9324 618.373,-38.6223 645.069,-32.7785"/>
<polygon fill="midnightblue" stroke="midnightblue" points="646.158,-36.1229 655.179,-30.5654 644.662,-29.2848 646.158,-36.1229"/>
</g>
<!-- Node1176 -->
<g id="node7" class="node"><title>Node1176</title>
<g id="a_node7"><a xlink:href="interfaceokw_1_1core_1_1_i_o_k_w___state.html#ae5480ddb1fc37eade5d899d335bc4b13" target="_top" xlink:title="Markiert den Anfang eines neuen Testfalls.">
<polygon fill="white" stroke="black" points="642.5,-50 642.5,-69 807.5,-69 807.5,-50 642.5,-50"/>
<text text-anchor="middle" x="725" y="-57" font-family="Helvetica,sans-Serif" font-size="10.00">okw.core.IOKW_State.BeginTest</text>
</a>
</g>
</g>
<!-- Node1174&#45;&gt;Node1176 -->
<g id="edge6" class="edge"><title>Node1174&#45;&gt;Node1176</title>
<path fill="none" stroke="midnightblue" d="M588.259,-59.5C602.23,-59.5 617.24,-59.5 632.005,-59.5"/>
<polygon fill="midnightblue" stroke="midnightblue" points="632.171,-63.0001 642.171,-59.5 632.171,-56.0001 632.171,-63.0001"/>
</g>
<!-- Node1177&#45;&gt;Node1172 -->
<g id="edge8" class="edge"><title>Node1177&#45;&gt;Node1172</title>
<path fill="none" stroke="midnightblue" d="M376.362,-157.974C387.279,-154.903 399.199,-151.302 410,-147.5 438.028,-137.633 469.112,-124.253 491.239,-114.292"/>
<polygon fill="midnightblue" stroke="midnightblue" points="492.777,-117.438 500.435,-110.117 489.883,-111.064 492.777,-117.438"/>
</g>
<!-- Node1178 -->
<g id="node9" class="node"><title>Node1178</title>
<g id="a_node9"><a xlink:href="classokw_1_1core_1_1_core.html#a6a68660eb5e34965522896e2a5c48314" target="_top" xlink:title="Setzt den Kontext auf das gegebene Fenster.">
<polygon fill="white" stroke="black" points="446,-203 446,-222 598,-222 598,-203 446,-203"/>
<text text-anchor="middle" x="522" y="-210" font-family="Helvetica,sans-Serif" font-size="10.00">okw.core.Core.SelectWindow</text>
</a>
</g>
</g>
<!-- Node1177&#45;&gt;Node1178 -->
<g id="edge9" class="edge"><title>Node1177&#45;&gt;Node1178</title>
<path fill="none" stroke="midnightblue" d="M377.991,-177.043C405.664,-183.904 443.172,-193.204 472.832,-200.557"/>
<polygon fill="midnightblue" stroke="midnightblue" points="472.016,-203.961 482.564,-202.97 473.7,-197.167 472.016,-203.961"/>
</g>
<!-- Node1179 -->
<g id="node10" class="node"><title>Node1179</title>
<g id="a_node10"><a xlink:href="classokw_1_1log_1_1_logger___sngltn.html#a70ec25e200e00ecefc544e8fd371d2ef" target="_top" xlink:title="Ausgabe eines Schlüsselwortes.">
<polygon fill="white" stroke="black" points="653.5,-175.5 653.5,-205.5 796.5,-205.5 796.5,-175.5 653.5,-175.5"/>
<text text-anchor="start" x="661.5" y="-193.5" font-family="Helvetica,sans-Serif" font-size="10.00">okw.log.Logger_Sngltn.Log</text>
<text text-anchor="middle" x="725" y="-182.5" font-family="Helvetica,sans-Serif" font-size="10.00">KeyWordStart</text>
</a>
</g>
</g>
<!-- Node1178&#45;&gt;Node1179 -->
<g id="edge10" class="edge"><title>Node1178&#45;&gt;Node1179</title>
<path fill="none" stroke="midnightblue" d="M598.131,-204.277C612.808,-202.67 628.257,-200.979 643.112,-199.353"/>
<polygon fill="midnightblue" stroke="midnightblue" points="643.724,-202.807 653.284,-198.24 642.963,-195.849 643.724,-202.807"/>
</g>
<!-- Node1180 -->
<g id="node11" class="node"><title>Node1180</title>
<g id="a_node11"><a xlink:href="classokw_1_1_log_messenger.html#af225d1f037d47b3b085175c09d78bdd2" target="_top" xlink:title="Holt die Log&#45;Meldung für MethodeNmae/Textkey ohne weitere Parameter.">
<polygon fill="white" stroke="black" points="640.5,-225 640.5,-244 809.5,-244 809.5,-225 640.5,-225"/>
<text text-anchor="middle" x="725" y="-232" font-family="Helvetica,sans-Serif" font-size="10.00">okw.LogMessenger.GetMessage</text>
</a>
</g>
</g>
<!-- Node1178&#45;&gt;Node1180 -->
<g id="edge11" class="edge"><title>Node1178&#45;&gt;Node1180</title>
<path fill="none" stroke="midnightblue" d="M598.131,-220.723C608.524,-221.861 619.305,-223.041 629.988,-224.21"/>
<polygon fill="midnightblue" stroke="midnightblue" points="629.863,-227.717 640.184,-225.326 630.625,-220.759 629.863,-227.717"/>
</g>
<!-- Node1183 -->
<g id="node14" class="node"><title>Node1183</title>
<g id="a_node14"><a xlink:href="interfaceokw_1_1core_1_1_i_o_k_w___state.html#ad4fc9610ed5b1176590a45b55e6ac7f0" target="_top" xlink:title="Setzt den Kontext auf das gegebene Fenster.">
<polygon fill="white" stroke="black" points="650.5,-263.5 650.5,-293.5 799.5,-293.5 799.5,-263.5 650.5,-263.5"/>
<text text-anchor="start" x="658.5" y="-281.5" font-family="Helvetica,sans-Serif" font-size="10.00">okw.core.IOKW_State.Select</text>
<text text-anchor="middle" x="725" y="-270.5" font-family="Helvetica,sans-Serif" font-size="10.00">Window</text>
</a>
</g>
</g>
<!-- Node1178&#45;&gt;Node1183 -->
<g id="edge14" class="edge"><title>Node1178&#45;&gt;Node1183</title>
<path fill="none" stroke="midnightblue" d="M547.05,-222.04C569.399,-230.748 603.699,-243.714 634,-253.5 641.57,-255.945 649.544,-258.371 657.488,-260.695"/>
<polygon fill="midnightblue" stroke="midnightblue" points="656.557,-264.069 667.135,-263.474 658.495,-257.343 656.557,-264.069"/>
</g>
<!-- Node1181 -->
<g id="node12" class="node"><title>Node1181</title>
<g id="a_node12"><a xlink:href="classokw_1_1_log_messenger.html#a530cd6ab82ec82a04206a2e976ec06e3" target="_top" xlink:title="Interne Kernfunktion holt die Log&#45;Meldung mit Platzhaltern aus der XML&#45;Datei.">
<polygon fill="white" stroke="black" points="852,-225 852,-244 1027,-244 1027,-225 852,-225"/>
<text text-anchor="middle" x="939.5" y="-232" font-family="Helvetica,sans-Serif" font-size="10.00">okw.LogMessenger.ReadMessage</text>
</a>
</g>
</g>
<!-- Node1180&#45;&gt;Node1181 -->
<g id="edge12" class="edge"><title>Node1180&#45;&gt;Node1181</title>
<path fill="none" stroke="midnightblue" d="M809.681,-234.5C820.154,-234.5 830.935,-234.5 841.589,-234.5"/>
<polygon fill="midnightblue" stroke="midnightblue" points="841.751,-238 851.751,-234.5 841.751,-231 841.751,-238"/>
</g>
<!-- Node1182 -->
<g id="node13" class="node"><title>Node1182</title>
<g id="a_node13"><a xlink:href="classokw_1_1_o_k_w___xml_reader.html#ab920b5335a2e1429c14cc5f8e79f39eb" target="_top" xlink:title="Lies den TextContent eines Tag.">
<polygon fill="white" stroke="black" points="1063,-219.5 1063,-249.5 1215,-249.5 1215,-219.5 1063,-219.5"/>
<text text-anchor="start" x="1071" y="-237.5" font-family="Helvetica,sans-Serif" font-size="10.00">okw.OKW_XmlReader.getText</text>
<text text-anchor="middle" x="1139" y="-226.5" font-family="Helvetica,sans-Serif" font-size="10.00">ContentSingleValue</text>
</a>
</g>
</g>
<!-- Node1181&#45;&gt;Node1182 -->
<g id="edge13" class="edge"><title>Node1181&#45;&gt;Node1182</title>
<path fill="none" stroke="midnightblue" d="M1027.13,-234.5C1035.6,-234.5 1044.19,-234.5 1052.66,-234.5"/>
<polygon fill="midnightblue" stroke="midnightblue" points="1052.89,-238 1062.89,-234.5 1052.89,-231 1052.89,-238"/>
</g>
<!-- Node1184&#45;&gt;Node1172 -->
<g id="edge16" class="edge"><title>Node1184&#45;&gt;Node1172</title>
<path fill="none" stroke="midnightblue" d="M410.192,-114.542C419.015,-113.424 428.104,-112.272 437.103,-111.132"/>
<polygon fill="midnightblue" stroke="midnightblue" points="437.725,-114.581 447.206,-109.851 436.845,-107.636 437.725,-114.581"/>
</g>
<!-- Node1185 -->
<g id="node16" class="node"><title>Node1185</title>
<g id="a_node16"><a xlink:href="classokw_1_1core_1_1_core.html#a3c0af68470649d10f4143ac58398ef03" target="_top" xlink:title="Vergleicht den Inhalt der gegebenen Tabellenzelle mit dem erwarteten Wert.">
<polygon fill="white" stroke="black" points="446,-151.5 446,-181.5 598,-181.5 598,-151.5 446,-151.5"/>
<text text-anchor="start" x="454" y="-169.5" font-family="Helvetica,sans-Serif" font-size="10.00">okw.core.Core.VerifyTablecell</text>
<text text-anchor="middle" x="522" y="-158.5" font-family="Helvetica,sans-Serif" font-size="10.00">ValueREGX</text>
</a>
</g>
</g>
<!-- Node1184&#45;&gt;Node1185 -->
<g id="edge17" class="edge"><title>Node1184&#45;&gt;Node1185</title>
<path fill="none" stroke="midnightblue" d="M402.98,-138.539C417.349,-141.944 432.724,-145.586 447.469,-149.079"/>
<polygon fill="midnightblue" stroke="midnightblue" points="447.018,-152.569 457.556,-151.469 448.632,-145.758 447.018,-152.569"/>
</g>
<!-- Node1185&#45;&gt;Node1179 -->
<g id="edge18" class="edge"><title>Node1185&#45;&gt;Node1179</title>
<path fill="none" stroke="midnightblue" d="M598.131,-175.471C612.808,-177.223 628.257,-179.068 643.112,-180.842"/>
<polygon fill="midnightblue" stroke="midnightblue" points="642.94,-184.346 653.284,-182.056 643.77,-177.395 642.94,-184.346"/>
</g>
<!-- Node1185&#45;&gt;Node1180 -->
<g id="edge19" class="edge"><title>Node1185&#45;&gt;Node1180</title>
<path fill="none" stroke="midnightblue" d="M569.15,-181.614C578.814,-185.194 588.846,-189.226 598,-193.5 614.784,-201.336 616.753,-207.744 634,-214.5 641.82,-217.563 650.215,-220.211 658.62,-222.485"/>
<polygon fill="midnightblue" stroke="midnightblue" points="657.905,-225.914 668.459,-224.985 659.629,-219.13 657.905,-225.914"/>
</g>
<!-- Node1186 -->
<g id="node17" class="node"><title>Node1186</title>
<g id="a_node17"><a xlink:href="interfaceokw_1_1core_1_1_i_o_k_w___state.html#a4e452e946ec073b880a8e3d952b9340e" target="_top" xlink:title="Vergleicht den Inhalt der gegebenen Tabellenzelle mit dem erwarteten Wert.">
<polygon fill="white" stroke="black" points="652,-126.5 652,-156.5 798,-156.5 798,-126.5 652,-126.5"/>
<text text-anchor="start" x="660" y="-144.5" font-family="Helvetica,sans-Serif" font-size="10.00">okw.core.IOKW_State.Verify</text>
<text text-anchor="middle" x="725" y="-133.5" font-family="Helvetica,sans-Serif" font-size="10.00">TablecellValueREGX</text>
</a>
</g>
</g>
<!-- Node1185&#45;&gt;Node1186 -->
<g id="edge20" class="edge"><title>Node1185&#45;&gt;Node1186</title>
<path fill="none" stroke="midnightblue" d="M598.131,-157.155C612.445,-155.375 627.495,-153.503 642.01,-151.698"/>
<polygon fill="midnightblue" stroke="midnightblue" points="642.467,-155.168 651.959,-150.46 641.603,-148.221 642.467,-155.168"/>
</g>
</g>
</svg>
