<?xml version="1.0" encoding="UTF-8" standalone="no"?>
<!DOCTYPE svg PUBLIC "-//W3C//DTD SVG 1.1//EN"
 "http://www.w3.org/Graphics/SVG/1.1/DTD/svg11.dtd">
<!-- Generated by graphviz version 2.36.0 (20140111.2315)
 -->
<!-- Title: okw.core.EN.SelectMenu Pages: 1 -->
<svg width="380pt" height="890pt"
 viewBox="0.00 0.00 380.00 890.00" xmlns="http://www.w3.org/2000/svg" xmlns:xlink="http://www.w3.org/1999/xlink">
<g id="graph0" class="graph" transform="scale(1 1) rotate(0) translate(4 886)">
<title>okw.core.EN.SelectMenu</title>
<polygon fill="white" stroke="none" points="-4,4 -4,-886 376,-886 376,4 -4,4"/>
<!-- Node1304 -->
<g id="node1" class="node"><title>Node1304</title>
<polygon fill="#bfbfbf" stroke="black" points="0,-408.5 0,-427.5 128,-427.5 128,-408.5 0,-408.5"/>
<text text-anchor="middle" x="64" y="-415.5" font-family="Helvetica,sans-Serif" font-size="10.00">okw.core.EN.SelectMenu</text>
</g>
<!-- Node1305 -->
<g id="node2" class="node"><title>Node1305</title>
<g id="a_node2"><a xlink:href="classokw_1_1core_1_1_e_n___keywords___d_e_l_e_t_e___test.html#a0e62a17933f21dc8c45b22def98ac192" target="_top" xlink:title="okw.core.EN_Keywords\l_DELETE_Test.tcSelectMenu\l_Value_MV_DELETE_EmptyString">
<polygon fill="white" stroke="black" points="183,-840.5 183,-881.5 353,-881.5 353,-840.5 183,-840.5"/>
<text text-anchor="start" x="191" y="-869.5" font-family="Helvetica,sans-Serif" font-size="10.00">okw.core.EN_Keywords</text>
<text text-anchor="start" x="191" y="-858.5" font-family="Helvetica,sans-Serif" font-size="10.00">_DELETE_Test.tcSelectMenu</text>
<text text-anchor="middle" x="268" y="-847.5" font-family="Helvetica,sans-Serif" font-size="10.00">_Value_MV_DELETE_EmptyString</text>
</a>
</g>
</g>
<!-- Node1304&#45;&gt;Node1305 -->
<g id="edge1" class="edge"><title>Node1304&#45;&gt;Node1305</title>
<path fill="none" stroke="midnightblue" d="M67.1628,-437.871C75.6183,-512.05 108.725,-771.509 164,-830 169.387,-835.7 175.779,-840.365 182.701,-844.18"/>
<polygon fill="midnightblue" stroke="midnightblue" points="70.6059,-437.165 66.0178,-427.615 63.6491,-437.942 70.6059,-437.165"/>
</g>
<!-- Node1306 -->
<g id="node3" class="node"><title>Node1306</title>
<g id="a_node3"><a xlink:href="classokw_1_1core_1_1_e_n___keywords___i_g_n_o_r_e___test.html#ad6c84737f41d962461447d82b4d42d14" target="_top" xlink:title="okw.core.EN_Keywords\l_IGNORE_Test.tcSelectMenu\l_Value_MV_IGNORE">
<polygon fill="white" stroke="black" points="193.5,-780.5 193.5,-821.5 342.5,-821.5 342.5,-780.5 193.5,-780.5"/>
<text text-anchor="start" x="201.5" y="-809.5" font-family="Helvetica,sans-Serif" font-size="10.00">okw.core.EN_Keywords</text>
<text text-anchor="start" x="201.5" y="-798.5" font-family="Helvetica,sans-Serif" font-size="10.00">_IGNORE_Test.tcSelectMenu</text>
<text text-anchor="middle" x="268" y="-787.5" font-family="Helvetica,sans-Serif" font-size="10.00">_Value_MV_IGNORE</text>
</a>
</g>
</g>
<!-- Node1304&#45;&gt;Node1306 -->
<g id="edge2" class="edge"><title>Node1304&#45;&gt;Node1306</title>
<path fill="none" stroke="midnightblue" d="M64.4014,-437.999C63.7553,-497.379 70.1776,-674.456 164,-770 172.178,-778.328 182.501,-784.437 193.436,-788.914"/>
<polygon fill="midnightblue" stroke="midnightblue" points="67.9055,-437.818 64.601,-427.752 60.9068,-437.681 67.9055,-437.818"/>
</g>
<!-- Node1307 -->
<g id="node4" class="node"><title>Node1307</title>
<g id="a_node4"><a xlink:href="classokw_1_1core_1_1_e_n___keywords___i_g_n_o_r_e___test.html#a74f27fe89955b19f4b2649ca1404f64e" target="_top" xlink:title="okw.core.EN_Keywords\l_IGNORE_Test.tcSelectMenu\l_Value_MV_IGNORE_EmptyString">
<polygon fill="white" stroke="black" points="182.5,-720.5 182.5,-761.5 353.5,-761.5 353.5,-720.5 182.5,-720.5"/>
<text text-anchor="start" x="190.5" y="-749.5" font-family="Helvetica,sans-Serif" font-size="10.00">okw.core.EN_Keywords</text>
<text text-anchor="start" x="190.5" y="-738.5" font-family="Helvetica,sans-Serif" font-size="10.00">_IGNORE_Test.tcSelectMenu</text>
<text text-anchor="middle" x="268" y="-727.5" font-family="Helvetica,sans-Serif" font-size="10.00">_Value_MV_IGNORE_EmptyString</text>
</a>
</g>
</g>
<!-- Node1304&#45;&gt;Node1307 -->
<g id="edge3" class="edge"><title>Node1304&#45;&gt;Node1307</title>
<path fill="none" stroke="midnightblue" d="M65.7608,-437.999C68.8565,-490.456 84.5428,-633.24 164,-710 169.439,-715.255 175.736,-719.623 182.482,-723.253"/>
<polygon fill="midnightblue" stroke="midnightblue" points="69.2419,-437.53 65.2523,-427.715 62.2505,-437.875 69.2419,-437.53"/>
</g>
<!-- Node1308 -->
<g id="node5" class="node"><title>Node1308</title>
<g id="a_node5"><a xlink:href="classokw_1_1core_1_1_e_n___keywords___i_g_n_o_r_e___test.html#ade34e763ac5f41c8e1ca265711309568" target="_top" xlink:title="okw.core.EN_Keywords\l_IGNORE_Test.tcSelectMenu\l_Value_SV_IGNORE">
<polygon fill="white" stroke="black" points="193.5,-660.5 193.5,-701.5 342.5,-701.5 342.5,-660.5 193.5,-660.5"/>
<text text-anchor="start" x="201.5" y="-689.5" font-family="Helvetica,sans-Serif" font-size="10.00">okw.core.EN_Keywords</text>
<text text-anchor="start" x="201.5" y="-678.5" font-family="Helvetica,sans-Serif" font-size="10.00">_IGNORE_Test.tcSelectMenu</text>
<text text-anchor="middle" x="268" y="-667.5" font-family="Helvetica,sans-Serif" font-size="10.00">_Value_SV_IGNORE</text>
</a>
</g>
</g>
<!-- Node1304&#45;&gt;Node1308 -->
<g id="edge4" class="edge"><title>Node1304&#45;&gt;Node1308</title>
<path fill="none" stroke="midnightblue" d="M67.7108,-437.701C74.891,-482.257 98.5525,-591.441 164,-650 172.42,-657.533 182.612,-663.238 193.27,-667.556"/>
<polygon fill="midnightblue" stroke="midnightblue" points="71.1416,-436.979 66.1937,-427.61 64.2194,-438.019 71.1416,-436.979"/>
</g>
<!-- Node1309 -->
<g id="node6" class="node"><title>Node1309</title>
<g id="a_node6"><a xlink:href="classokw_1_1core_1_1_e_n___keywords___i_g_n_o_r_e___test.html#a506c974c872e07a670f36789ed7bd872" target="_top" xlink:title="okw.core.EN_Keywords\l_IGNORE_Test.tcSelectMenu\l_Value_SV_IGNORE_EmptyString">
<polygon fill="white" stroke="black" points="183,-600.5 183,-641.5 353,-641.5 353,-600.5 183,-600.5"/>
<text text-anchor="start" x="191" y="-629.5" font-family="Helvetica,sans-Serif" font-size="10.00">okw.core.EN_Keywords</text>
<text text-anchor="start" x="191" y="-618.5" font-family="Helvetica,sans-Serif" font-size="10.00">_IGNORE_Test.tcSelectMenu</text>
<text text-anchor="middle" x="268" y="-607.5" font-family="Helvetica,sans-Serif" font-size="10.00">_Value_SV_IGNORE_EmptyString</text>
</a>
</g>
</g>
<!-- Node1304&#45;&gt;Node1309 -->
<g id="edge5" class="edge"><title>Node1304&#45;&gt;Node1309</title>
<path fill="none" stroke="midnightblue" d="M70.893,-437.604C82.6383,-473.318 112.377,-549.065 164,-590 169.707,-594.525 176.065,-598.391 182.744,-601.693"/>
<polygon fill="midnightblue" stroke="midnightblue" points="74.1731,-436.368 67.8213,-427.888 67.4987,-438.478 74.1731,-436.368"/>
</g>
<!-- Node1310 -->
<g id="node7" class="node"><title>Node1310</title>
<g id="a_node7"><a xlink:href="classokw_1_1core_1_1_e_n___o_k_w_frame_object_child_not_found_exception___test.html#ae337e2d44f1956aa94754d5a31a056d4" target="_top" xlink:title="Prüft ob die Ausnahme OKWFrameObjectChildNotFoundException durch SelectMenu ausgelöst wird...">
<polygon fill="white" stroke="black" points="168,-529 168,-581 368,-581 368,-529 168,-529"/>
<text text-anchor="start" x="176" y="-569" font-family="Helvetica,sans-Serif" font-size="10.00">okw.core.EN_OKWFrameObject</text>
<text text-anchor="start" x="176" y="-558" font-family="Helvetica,sans-Serif" font-size="10.00">ChildNotFoundException</text>
<text text-anchor="start" x="176" y="-547" font-family="Helvetica,sans-Serif" font-size="10.00">_Test.TC_SelectMenu_OKWFrameObject</text>
<text text-anchor="middle" x="268" y="-536" font-family="Helvetica,sans-Serif" font-size="10.00">ChildNotFoundException</text>
</a>
</g>
</g>
<!-- Node1304&#45;&gt;Node1310 -->
<g id="edge6" class="edge"><title>Node1304&#45;&gt;Node1310</title>
<path fill="none" stroke="midnightblue" d="M78.1547,-435.773C95.5255,-458.095 128.136,-496.223 164,-519 169.677,-522.605 175.76,-525.903 182.027,-528.909"/>
<polygon fill="midnightblue" stroke="midnightblue" points="80.9168,-433.623 72.0708,-427.792 75.3498,-437.867 80.9168,-433.623"/>
</g>
<!-- Node1311 -->
<g id="node8" class="node"><title>Node1311</title>
<g id="a_node8"><a xlink:href="classokw_1_1core_1_1_e_n___o_k_w_frame_object_method_not_implemented___test.html#a08132355de66e70e5ce86687eff16e37" target="_top" xlink:title="Prüft ob die Ausnahme OKWFrameObjectMethodNotImplemented von SelectMenu() ausgelöst wird...">
<polygon fill="white" stroke="black" points="164.5,-458 164.5,-510 371.5,-510 371.5,-458 164.5,-458"/>
<text text-anchor="start" x="172.5" y="-498" font-family="Helvetica,sans-Serif" font-size="10.00">okw.core.EN_OKWFrameObject</text>
<text text-anchor="start" x="172.5" y="-487" font-family="Helvetica,sans-Serif" font-size="10.00">MethodNotImplemented_Test.tc</text>
<text text-anchor="start" x="172.5" y="-476" font-family="Helvetica,sans-Serif" font-size="10.00">_SelectMenu_OKWFrameObjectMethodNot</text>
<text text-anchor="middle" x="268" y="-465" font-family="Helvetica,sans-Serif" font-size="10.00">Implemented</text>
</a>
</g>
</g>
<!-- Node1304&#45;&gt;Node1311 -->
<g id="edge7" class="edge"><title>Node1304&#45;&gt;Node1311</title>
<path fill="none" stroke="midnightblue" d="M104.033,-430.753C127.698,-438.485 158.76,-448.634 187.412,-457.996"/>
<polygon fill="midnightblue" stroke="midnightblue" points="104.965,-427.376 94.3725,-427.597 102.791,-434.03 104.965,-427.376"/>
</g>
<!-- Node1312 -->
<g id="node9" class="node"><title>Node1312</title>
<g id="a_node9"><a xlink:href="classokw_1_1core_1_1_e_n___o_k_w_not_allowed_value_exception___keywords___i_g_n_o_r_e.html#a7e021c63798b29c745416058859dcaf7" target="_top" xlink:title="Prüft ob &quot;${IGNORE} &quot; die Ausnahme okw.exceptions.OKWNotAllowedValueException auslöst. ">
<polygon fill="white" stroke="black" points="183,-397.5 183,-438.5 353,-438.5 353,-397.5 183,-397.5"/>
<text text-anchor="start" x="191" y="-426.5" font-family="Helvetica,sans-Serif" font-size="10.00">okw.core.EN_OKWNotAllowed</text>
<text text-anchor="start" x="191" y="-415.5" font-family="Helvetica,sans-Serif" font-size="10.00">ValueException_Keywords</text>
<text text-anchor="middle" x="268" y="-404.5" font-family="Helvetica,sans-Serif" font-size="10.00">_IGNORE.tcSelectMenuIGNORE1</text>
</a>
</g>
</g>
<!-- Node1304&#45;&gt;Node1312 -->
<g id="edge8" class="edge"><title>Node1304&#45;&gt;Node1312</title>
<path fill="none" stroke="midnightblue" d="M138.439,-418C152.884,-418 168.144,-418 182.907,-418"/>
<polygon fill="midnightblue" stroke="midnightblue" points="138.083,-414.5 128.083,-418 138.083,-421.5 138.083,-414.5"/>
</g>
<!-- Node1313 -->
<g id="node10" class="node"><title>Node1313</title>
<g id="a_node10"><a xlink:href="classokw_1_1core_1_1_e_n___o_k_w_not_allowed_value_exception___keywords___i_g_n_o_r_e.html#aa0cda1123844ea1eee902cd9cb81c97c" target="_top" xlink:title="Prüft ob &quot;&quot;${IGNORE}${TCN}&quot; die Ausnahme okw.exceptions.OKWNotAllowedValueException auslöst...">
<polygon fill="white" stroke="black" points="183,-337.5 183,-378.5 353,-378.5 353,-337.5 183,-337.5"/>
<text text-anchor="start" x="191" y="-366.5" font-family="Helvetica,sans-Serif" font-size="10.00">okw.core.EN_OKWNotAllowed</text>
<text text-anchor="start" x="191" y="-355.5" font-family="Helvetica,sans-Serif" font-size="10.00">ValueException_Keywords</text>
<text text-anchor="middle" x="268" y="-344.5" font-family="Helvetica,sans-Serif" font-size="10.00">_IGNORE.tcSelectMenuIGNORE2</text>
</a>
</g>
</g>
<!-- Node1304&#45;&gt;Node1313 -->
<g id="edge9" class="edge"><title>Node1304&#45;&gt;Node1313</title>
<path fill="none" stroke="midnightblue" d="M106.228,-405.398C123.991,-399.997 145.004,-393.644 164,-388 174.355,-384.923 185.305,-381.701 196.049,-378.556"/>
<polygon fill="midnightblue" stroke="midnightblue" points="104.733,-402.195 96.1857,-408.456 106.772,-408.891 104.733,-402.195"/>
</g>
<!-- Node1314 -->
<g id="node11" class="node"><title>Node1314</title>
<g id="a_node11"><a xlink:href="classokw_1_1_se_button_1_1_se_button___e_n___test.html#ab1af03c3f8c8a60a122e80196137e310" target="_top" xlink:title="Test des Schlüsselwortes SelectMenu( FN ) für den GUI&#45;Adapter SeButton. ">
<polygon fill="white" stroke="black" points="165,-277.5 165,-318.5 371,-318.5 371,-277.5 165,-277.5"/>
<text text-anchor="start" x="173" y="-306.5" font-family="Helvetica,sans-Serif" font-size="10.00">okw.SeButton.SeButton</text>
<text text-anchor="start" x="173" y="-295.5" font-family="Helvetica,sans-Serif" font-size="10.00">_EN_Test.tcSelectMenu</text>
<text text-anchor="middle" x="268" y="-284.5" font-family="Helvetica,sans-Serif" font-size="10.00">_OKWFrameObjectMethodNotImplemented</text>
</a>
</g>
</g>
<!-- Node1304&#45;&gt;Node1314 -->
<g id="edge10" class="edge"><title>Node1304&#45;&gt;Node1314</title>
<path fill="none" stroke="midnightblue" d="M79.7035,-400.484C97.6246,-380.213 129.777,-347.171 164,-328 170.256,-324.496 176.96,-321.367 183.835,-318.58"/>
<polygon fill="midnightblue" stroke="midnightblue" points="76.8268,-398.459 72.9298,-408.312 82.1201,-403.04 76.8268,-398.459"/>
</g>
<!-- Node1315 -->
<g id="node12" class="node"><title>Node1315</title>
<g id="a_node12"><a xlink:href="classokw_1_1_se_button_1_1_se_button___e_n___test.html#af81903ac5af9b1a3786f833efda23b6c" target="_top" xlink:title="Test des Schlüsselwortes SelectMenu( FN, Val ) für den GUI&#45;Adapter SeButton. ">
<polygon fill="white" stroke="black" points="165,-217.5 165,-258.5 371,-258.5 371,-217.5 165,-217.5"/>
<text text-anchor="start" x="173" y="-246.5" font-family="Helvetica,sans-Serif" font-size="10.00">okw.SeButton.SeButton</text>
<text text-anchor="start" x="173" y="-235.5" font-family="Helvetica,sans-Serif" font-size="10.00">_EN_Test.tcSelectMenu2</text>
<text text-anchor="middle" x="268" y="-224.5" font-family="Helvetica,sans-Serif" font-size="10.00">_OKWFrameObjectMethodNotImplemented</text>
</a>
</g>
</g>
<!-- Node1304&#45;&gt;Node1315 -->
<g id="edge11" class="edge"><title>Node1304&#45;&gt;Node1315</title>
<path fill="none" stroke="midnightblue" d="M72.4916,-398.666C85.9025,-366.62 117.072,-302.607 164,-268 168.797,-264.463 174.004,-261.341 179.443,-258.586"/>
<polygon fill="midnightblue" stroke="midnightblue" points="69.1325,-397.637 68.6272,-408.22 75.6217,-400.262 69.1325,-397.637"/>
</g>
<!-- Node1316 -->
<g id="node13" class="node"><title>Node1316</title>
<g id="a_node13"><a xlink:href="classokw_1_1_se_input_radio_1_1_se_input_radio___e_n___test.html#a732d76cbe7ff8d0391dba8ad2c813159" target="_top" xlink:title="Test des Schlüsselwortes SelectMenu( FN ) für den GUI&#45;Adapter SeInputRadio. ">
<polygon fill="white" stroke="black" points="165,-157.5 165,-198.5 371,-198.5 371,-157.5 165,-157.5"/>
<text text-anchor="start" x="173" y="-186.5" font-family="Helvetica,sans-Serif" font-size="10.00">okw.SeInputRadio.SeInput</text>
<text text-anchor="start" x="173" y="-175.5" font-family="Helvetica,sans-Serif" font-size="10.00">Radio_EN_Test.tc_SelectMenu</text>
<text text-anchor="middle" x="268" y="-164.5" font-family="Helvetica,sans-Serif" font-size="10.00">_OKWFrameObjectMethodNotImplemented</text>
</a>
</g>
</g>
<!-- Node1304&#45;&gt;Node1316 -->
<g id="edge12" class="edge"><title>Node1304&#45;&gt;Node1316</title>
<path fill="none" stroke="midnightblue" d="M68.6158,-398.439C77.3161,-356.97 103.357,-259.793 164,-208 168.107,-204.492 172.606,-201.394 177.354,-198.658"/>
<polygon fill="midnightblue" stroke="midnightblue" points="65.1601,-397.873 66.6468,-408.363 72.0262,-399.235 65.1601,-397.873"/>
</g>
<!-- Node1317 -->
<g id="node14" class="node"><title>Node1317</title>
<g id="a_node14"><a xlink:href="classokw_1_1_se_input_radio_1_1_se_input_radio___e_n___test.html#a3feeae8f9c7354413af1018025e6a8de" target="_top" xlink:title="Test des Schlüsselwortes SelectMenu( FN, Val ) für den GUI&#45;Adapter SeInputRadio. ">
<polygon fill="white" stroke="black" points="165,-97.5 165,-138.5 371,-138.5 371,-97.5 165,-97.5"/>
<text text-anchor="start" x="173" y="-126.5" font-family="Helvetica,sans-Serif" font-size="10.00">okw.SeInputRadio.SeInput</text>
<text text-anchor="start" x="173" y="-115.5" font-family="Helvetica,sans-Serif" font-size="10.00">Radio_EN_Test.tc_SelectMenu2</text>
<text text-anchor="middle" x="268" y="-104.5" font-family="Helvetica,sans-Serif" font-size="10.00">_OKWFrameObjectMethodNotImplemented</text>
</a>
</g>
</g>
<!-- Node1304&#45;&gt;Node1317 -->
<g id="edge13" class="edge"><title>Node1304&#45;&gt;Node1317</title>
<path fill="none" stroke="midnightblue" d="M66.315,-398.462C70.7112,-349.014 89.1979,-217.879 164,-148 167.811,-144.44 172.02,-141.3 176.495,-138.53"/>
<polygon fill="midnightblue" stroke="midnightblue" points="62.8234,-398.218 65.5242,-408.463 69.8017,-398.77 62.8234,-398.218"/>
</g>
<!-- Node1318 -->
<g id="node15" class="node"><title>Node1318</title>
<g id="a_node15"><a xlink:href="classokw_1_1_se_link_1_1_se_link___e_n___test.html#a7dd40d8897c10c7a505f3036a691ffb8" target="_top" xlink:title="Prüft ob die SelectMenu( FN die Ausnahme OKWFrameObjectMethodNotImplemented auslöst. ">
<polygon fill="white" stroke="black" points="205.5,-49 205.5,-79 330.5,-79 330.5,-49 205.5,-49"/>
<text text-anchor="start" x="213.5" y="-67" font-family="Helvetica,sans-Serif" font-size="10.00">okw.SeLink.SeLink_EN</text>
<text text-anchor="middle" x="268" y="-56" font-family="Helvetica,sans-Serif" font-size="10.00">_Test.tcSelectMenu2_en</text>
</a>
</g>
</g>
<!-- Node1304&#45;&gt;Node1318 -->
<g id="edge14" class="edge"><title>Node1304&#45;&gt;Node1318</title>
<path fill="none" stroke="midnightblue" d="M64.5727,-398.219C64.4776,-341.015 72.434,-174.012 164,-88 175.308,-77.3775 190.373,-71.1527 205.483,-67.5798"/>
<polygon fill="midnightblue" stroke="midnightblue" points="61.0749,-398.455 64.6823,-408.416 68.0745,-398.379 61.0749,-398.455"/>
</g>
<!-- Node1319 -->
<g id="node16" class="node"><title>Node1319</title>
<g id="a_node16"><a xlink:href="classokw_1_1_se_link_1_1_se_link___e_n___test.html#a449fca9d76152071c249d73708a467d0" target="_top" xlink:title="Prüft ob die SelectMenu( FN, Val ) die Ausnahme OKWFrameObjectMethodNotImplemented auslöst...">
<polygon fill="white" stroke="black" points="208,-0 208,-30 328,-30 328,-0 208,-0"/>
<text text-anchor="start" x="216" y="-18" font-family="Helvetica,sans-Serif" font-size="10.00">okw.SeLink.SeLink_EN</text>
<text text-anchor="middle" x="268" y="-7" font-family="Helvetica,sans-Serif" font-size="10.00">_Test.tcSelectMenu_en</text>
</a>
</g>
</g>
<!-- Node1304&#45;&gt;Node1319 -->
<g id="edge15" class="edge"><title>Node1304&#45;&gt;Node1319</title>
<path fill="none" stroke="midnightblue" d="M67.4856,-398.332C76.7394,-328.179 111.39,-91.6693 164,-40 175.75,-28.4601 191.873,-21.9335 207.876,-18.3252"/>
<polygon fill="midnightblue" stroke="midnightblue" points="63.9898,-398.074 66.1775,-408.441 70.9319,-398.973 63.9898,-398.074"/>
</g>
</g>
</svg>
