<?xml version="1.0" encoding="UTF-8" standalone="no"?>
<!DOCTYPE svg PUBLIC "-//W3C//DTD SVG 1.1//EN"
 "http://www.w3.org/Graphics/SVG/1.1/DTD/svg11.dtd">
<!-- Generated by graphviz version 2.36.0 (20140111.2315)
 -->
<!-- Title: okw.core.EN.MemorizeTablecellValue Pages: 1 -->
<svg width="382pt" height="131pt"
 viewBox="0.00 0.00 382.00 131.00" xmlns="http://www.w3.org/2000/svg" xmlns:xlink="http://www.w3.org/1999/xlink">
<g id="graph0" class="graph" transform="scale(1 1) rotate(0) translate(4 127)">
<title>okw.core.EN.MemorizeTablecellValue</title>
<polygon fill="white" stroke="none" points="-4,4 -4,-127 378,-127 378,4 -4,4"/>
<!-- Node1032 -->
<g id="node1" class="node"><title>Node1032</title>
<polygon fill="#bfbfbf" stroke="black" points="0,-46 0,-76 158,-76 158,-46 0,-46"/>
<text text-anchor="start" x="8" y="-64" font-family="Helvetica,sans-Serif" font-size="10.00">okw.core.EN.MemorizeTablecell</text>
<text text-anchor="middle" x="79" y="-53" font-family="Helvetica,sans-Serif" font-size="10.00">Value</text>
</g>
<!-- Node1033 -->
<g id="node2" class="node"><title>Node1033</title>
<g id="a_node2"><a xlink:href="classokw_1_1core_1_1_e_n___o_k_w_not_allowed_value_exception___keywords___i_g_n_o_r_e.html#a8c28a77c8241c9b46584fccb2fc480b1" target="_top" xlink:title="Prüft ob &quot;${IGNORE} &quot; die Ausnahme okw.exceptions.OKWNotAllowedValueException auslöst. ">
<polygon fill="white" stroke="black" points="194.5,-71 194.5,-123 373.5,-123 373.5,-71 194.5,-71"/>
<text text-anchor="start" x="202.5" y="-111" font-family="Helvetica,sans-Serif" font-size="10.00">okw.core.EN_OKWNotAllowed</text>
<text text-anchor="start" x="202.5" y="-100" font-family="Helvetica,sans-Serif" font-size="10.00">ValueException_Keywords</text>
<text text-anchor="start" x="202.5" y="-89" font-family="Helvetica,sans-Serif" font-size="10.00">_IGNORE.tcMemorizeTablecellValue</text>
<text text-anchor="middle" x="284" y="-78" font-family="Helvetica,sans-Serif" font-size="10.00">IGNORE1</text>
</a>
</g>
</g>
<!-- Node1032&#45;&gt;Node1033 -->
<g id="edge1" class="edge"><title>Node1032&#45;&gt;Node1033</title>
<path fill="none" stroke="midnightblue" d="M168.275,-76.6546C176.926,-78.1888 185.707,-79.7461 194.362,-81.2809"/>
<polygon fill="midnightblue" stroke="midnightblue" points="168.652,-73.1671 158.195,-74.867 167.43,-80.0595 168.652,-73.1671"/>
</g>
<!-- Node1034 -->
<g id="node3" class="node"><title>Node1034</title>
<g id="a_node3"><a xlink:href="classokw_1_1core_1_1_e_n___o_k_w_not_allowed_value_exception___keywords___i_g_n_o_r_e.html#a5661983ff87090109557ad06f0ad2301" target="_top" xlink:title="Prüft ob &quot;&quot;${IGNORE}${TCN}&quot; die Ausnahme okw.exceptions.OKWNotAllowedValueException auslöst...">
<polygon fill="white" stroke="black" points="194.5,-0 194.5,-52 373.5,-52 373.5,-0 194.5,-0"/>
<text text-anchor="start" x="202.5" y="-40" font-family="Helvetica,sans-Serif" font-size="10.00">okw.core.EN_OKWNotAllowed</text>
<text text-anchor="start" x="202.5" y="-29" font-family="Helvetica,sans-Serif" font-size="10.00">ValueException_Keywords</text>
<text text-anchor="start" x="202.5" y="-18" font-family="Helvetica,sans-Serif" font-size="10.00">_IGNORE.tcMemorizeTablecellValue</text>
<text text-anchor="middle" x="284" y="-7" font-family="Helvetica,sans-Serif" font-size="10.00">IGNORE2</text>
</a>
</g>
</g>
<!-- Node1032&#45;&gt;Node1034 -->
<g id="edge2" class="edge"><title>Node1032&#45;&gt;Node1034</title>
<path fill="none" stroke="midnightblue" d="M168.275,-45.7802C176.926,-44.2887 185.707,-42.7747 194.362,-41.2825"/>
<polygon fill="midnightblue" stroke="midnightblue" points="167.455,-42.3699 158.195,-47.5182 168.644,-49.2681 167.455,-42.3699"/>
</g>
</g>
</svg>
