<?xml version="1.0" encoding="UTF-8" standalone="no"?>
<!DOCTYPE svg PUBLIC "-//W3C//DTD SVG 1.1//EN"
 "http://www.w3.org/Graphics/SVG/1.1/DTD/svg11.dtd">
<!-- Generated by graphviz version 2.26.3 (20100126.1600)
 -->
<!-- Title: okw.core.Core.VerifyTablecellValueWCM Pages: 1 -->
<svg width="744pt" height="134pt"
 viewBox="0.00 0.00 744.00 134.00" xmlns="http://www.w3.org/2000/svg" xmlns:xlink="http://www.w3.org/1999/xlink">
<g id="graph1" class="graph" transform="scale(1 1) rotate(0) translate(4 130)">
<title>okw.core.Core.VerifyTablecellValueWCM</title>
<polygon fill="white" stroke="white" points="-4,5 -4,-130 741,-130 741,5 -4,5"/>
<!-- Node3228 -->
<g id="node1" class="node"><title>Node3228</title>
<polygon fill="#bfbfbf" stroke="black" points="0,-46 0,-80 148,-80 148,-46 0,-46"/>
<text text-anchor="start" x="8" y="-67" font-family="Helvetica,sans-Serif" font-size="10.00">okw.core.Core.VerifyTablecell</text>
<text text-anchor="middle" x="74" y="-54" font-family="Helvetica,sans-Serif" font-size="10.00">ValueWCM</text>
</g>
<!-- Node3229 -->
<g id="node3" class="node"><title>Node3229</title>
<a xlink:href="classokw_1_1log_1_1_logger___sngltn.html#a70ec25e200e00ecefc544e8fd371d2ef" target="_top" xlink:title="Ausgabe eines Schlüsselwortes. ">
<polygon fill="white" stroke="black" points="197,-92 197,-126 331,-126 331,-92 197,-92"/>
<text text-anchor="start" x="205" y="-113" font-family="Helvetica,sans-Serif" font-size="10.00">okw.log.Logger_Sngltn.Log</text>
<text text-anchor="middle" x="264" y="-100" font-family="Helvetica,sans-Serif" font-size="10.00">KeyWordStart</text>
</a>
</g>
<!-- Node3228&#45;&gt;Node3229 -->
<g id="edge2" class="edge"><title>Node3228&#45;&gt;Node3229</title>
<path fill="none" stroke="midnightblue" d="M144.479,-80.0633C158.246,-83.3964 172.751,-86.9081 186.725,-90.2913"/>
<polygon fill="midnightblue" stroke="midnightblue" points="186.246,-93.7763 196.789,-92.7278 187.893,-86.9729 186.246,-93.7763"/>
</g>
<!-- Node3230 -->
<g id="node5" class="node"><title>Node3230</title>
<a xlink:href="classokw_1_1_log_messenger.html#af225d1f037d47b3b085175c09d78bdd2" target="_top" xlink:title="Holt die Log&#45;Meldung für MethodeNmae/Textkey ohne weitere Parameter. ">
<polygon fill="white" stroke="black" points="184,-52.5 184,-73.5 344,-73.5 344,-52.5 184,-52.5"/>
<text text-anchor="middle" x="264" y="-60.5" font-family="Helvetica,sans-Serif" font-size="10.00">okw.LogMessenger.GetMessage</text>
</a>
</g>
<!-- Node3228&#45;&gt;Node3230 -->
<g id="edge4" class="edge"><title>Node3228&#45;&gt;Node3230</title>
<path fill="none" stroke="midnightblue" d="M148.003,-63C156.466,-63 165.163,-63 173.806,-63"/>
<polygon fill="midnightblue" stroke="midnightblue" points="173.911,-66.5001 183.911,-63 173.911,-59.5001 173.911,-66.5001"/>
</g>
<!-- Node3233 -->
<g id="node11" class="node"><title>Node3233</title>
<a xlink:href="interfaceokw_1_1core_1_1_i_o_k_w___state.html#a3f9d14b5445fc5a5432483c302baf2c4" target="_top" xlink:title="Vergleicht den Inhalt der gegebenen Tabellenzelle mit dem erwarteten Wert. ">
<polygon fill="white" stroke="black" points="192.5,-0 192.5,-34 335.5,-34 335.5,-0 192.5,-0"/>
<text text-anchor="start" x="200.5" y="-21" font-family="Helvetica,sans-Serif" font-size="10.00">okw.core.IOKW_State.Verify</text>
<text text-anchor="middle" x="264" y="-8" font-family="Helvetica,sans-Serif" font-size="10.00">TablecellValueWCM</text>
</a>
</g>
<!-- Node3228&#45;&gt;Node3233 -->
<g id="edge10" class="edge"><title>Node3228&#45;&gt;Node3233</title>
<path fill="none" stroke="midnightblue" d="M144.479,-45.9367C157.271,-42.8397 170.7,-39.5885 183.748,-36.4295"/>
<polygon fill="midnightblue" stroke="midnightblue" points="184.739,-39.7906 193.635,-34.0358 183.092,-32.9872 184.739,-39.7906"/>
</g>
<!-- Node3231 -->
<g id="node7" class="node"><title>Node3231</title>
<a xlink:href="classokw_1_1_log_messenger.html#a530cd6ab82ec82a04206a2e976ec06e3" target="_top" xlink:title="Interne Kernfunktion holt die Log&#45;Meldung mit Platzhaltern aus der XML&#45;Datei. ">
<polygon fill="white" stroke="black" points="380.5,-52.5 380.5,-73.5 547.5,-73.5 547.5,-52.5 380.5,-52.5"/>
<text text-anchor="middle" x="464" y="-60.5" font-family="Helvetica,sans-Serif" font-size="10.00">okw.LogMessenger.ReadMessage</text>
</a>
</g>
<!-- Node3230&#45;&gt;Node3231 -->
<g id="edge6" class="edge"><title>Node3230&#45;&gt;Node3231</title>
<path fill="none" stroke="midnightblue" d="M344.195,-63C352.709,-63 361.423,-63 370.075,-63"/>
<polygon fill="midnightblue" stroke="midnightblue" points="370.189,-66.5001 380.189,-63 370.189,-59.5001 370.189,-66.5001"/>
</g>
<!-- Node3232 -->
<g id="node9" class="node"><title>Node3232</title>
<a xlink:href="classokw_1_1_o_k_w___xml_reader.html#ab920b5335a2e1429c14cc5f8e79f39eb" target="_top" xlink:title="Lies den TextContent eines Tag. ">
<polygon fill="white" stroke="black" points="584,-46 584,-80 736,-80 736,-46 584,-46"/>
<text text-anchor="start" x="592" y="-67" font-family="Helvetica,sans-Serif" font-size="10.00">okw.OKW_XmlReader.getText</text>
<text text-anchor="middle" x="660" y="-54" font-family="Helvetica,sans-Serif" font-size="10.00">ContentSingleValue</text>
</a>
</g>
<!-- Node3231&#45;&gt;Node3232 -->
<g id="edge8" class="edge"><title>Node3231&#45;&gt;Node3232</title>
<path fill="none" stroke="midnightblue" d="M547.69,-63C556.29,-63 565.041,-63 573.669,-63"/>
<polygon fill="midnightblue" stroke="midnightblue" points="573.725,-66.5001 583.725,-63 573.725,-59.5001 573.725,-66.5001"/>
</g>
</g>
</svg>
