<?xml version="1.0" encoding="UTF-8" standalone="no"?>
<!DOCTYPE svg PUBLIC "-//W3C//DTD SVG 1.1//EN"
 "http://www.w3.org/Graphics/SVG/1.1/DTD/svg11.dtd">
<!-- Generated by graphviz version 2.38.0 (20140413.2041)
 -->
<!-- Title: okw.core.Core.VerifyLabel Pages: 1 -->
<svg width="750pt" height="127pt"
 viewBox="0.00 0.00 750.00 127.00" xmlns="http://www.w3.org/2000/svg" xmlns:xlink="http://www.w3.org/1999/xlink">
<g id="graph0" class="graph" transform="scale(1 1) rotate(0) translate(4 123)">
<title>okw.core.Core.VerifyLabel</title>
<polygon fill="white" stroke="none" points="-4,4 -4,-123 746,-123 746,4 -4,4"/>
<!-- Node3938 -->
<g id="node1" class="node"><title>Node3938</title>
<g id="a_node1"><a xlink:title="Überprüft die Beschreibung des Objektes.">
<polygon fill="#bfbfbf" stroke="black" points="0,-50 0,-69 138,-69 138,-50 0,-50"/>
<text text-anchor="middle" x="69" y="-57" font-family="Helvetica,sans-Serif" font-size="10.00">okw.core.Core.VerifyLabel</text>
</a>
</g>
</g>
<!-- Node3939 -->
<g id="node2" class="node"><title>Node3939</title>
<g id="a_node2"><a xlink:href="classokw_1_1log_1_1_logger___sngltn.html#a70ec25e200e00ecefc544e8fd371d2ef" target="_top" xlink:title="Ausgabe eines Schlüsselwortes.">
<polygon fill="white" stroke="black" points="187,-88.5 187,-118.5 330,-118.5 330,-88.5 187,-88.5"/>
<text text-anchor="start" x="195" y="-106.5" font-family="Helvetica,sans-Serif" font-size="10.00">okw.log.Logger_Sngltn.Log</text>
<text text-anchor="middle" x="258.5" y="-95.5" font-family="Helvetica,sans-Serif" font-size="10.00">KeyWordStart</text>
</a>
</g>
</g>
<!-- Node3938&#45;&gt;Node3939 -->
<g id="edge1" class="edge"><title>Node3938&#45;&gt;Node3939</title>
<path fill="none" stroke="midnightblue" d="M110.685,-69.0473C131.983,-74.0455 158.731,-80.3222 183.541,-86.1442"/>
<polygon fill="midnightblue" stroke="midnightblue" points="182.766,-89.5574 193.301,-88.4346 184.365,-82.7425 182.766,-89.5574"/>
</g>
<!-- Node3940 -->
<g id="node3" class="node"><title>Node3940</title>
<g id="a_node3"><a xlink:href="classokw_1_1_log_messenger.html#af225d1f037d47b3b085175c09d78bdd2" target="_top" xlink:title="Holt die Log&#45;Meldung für MethodeNmae/Textkey ohne weitere Parameter.">
<polygon fill="white" stroke="black" points="174,-50 174,-69 343,-69 343,-50 174,-50"/>
<text text-anchor="middle" x="258.5" y="-57" font-family="Helvetica,sans-Serif" font-size="10.00">okw.LogMessenger.GetMessage</text>
</a>
</g>
</g>
<!-- Node3938&#45;&gt;Node3940 -->
<g id="edge2" class="edge"><title>Node3938&#45;&gt;Node3940</title>
<path fill="none" stroke="midnightblue" d="M138.222,-59.5C146.576,-59.5 155.223,-59.5 163.868,-59.5"/>
<polygon fill="midnightblue" stroke="midnightblue" points="163.998,-63.0001 173.998,-59.5 163.998,-56.0001 163.998,-63.0001"/>
</g>
<!-- Node3943 -->
<g id="node6" class="node"><title>Node3943</title>
<g id="a_node6"><a xlink:href="interfaceokw_1_1core_1_1_i_o_k_w___state.html#a39449615efcf006fddf5389238470efc" target="_top" xlink:title="Überprüft die Beschreibung des Objektes.">
<polygon fill="white" stroke="black" points="185.5,-0.5 185.5,-30.5 331.5,-30.5 331.5,-0.5 185.5,-0.5"/>
<text text-anchor="start" x="193.5" y="-18.5" font-family="Helvetica,sans-Serif" font-size="10.00">okw.core.IOKW_State.Verify</text>
<text text-anchor="middle" x="258.5" y="-7.5" font-family="Helvetica,sans-Serif" font-size="10.00">Label</text>
</a>
</g>
</g>
<!-- Node3938&#45;&gt;Node3943 -->
<g id="edge5" class="edge"><title>Node3938&#45;&gt;Node3943</title>
<path fill="none" stroke="midnightblue" d="M110.685,-49.9527C131.983,-44.9545 158.731,-38.6778 183.541,-32.8558"/>
<polygon fill="midnightblue" stroke="midnightblue" points="184.365,-36.2575 193.301,-30.5654 182.766,-29.4426 184.365,-36.2575"/>
</g>
<!-- Node3941 -->
<g id="node4" class="node"><title>Node3941</title>
<g id="a_node4"><a xlink:href="classokw_1_1_log_messenger.html#a530cd6ab82ec82a04206a2e976ec06e3" target="_top" xlink:title="Interne Kernfunktion holt die Log&#45;Meldung mit Platzhaltern aus der XML&#45;Datei.">
<polygon fill="white" stroke="black" points="379,-50 379,-69 554,-69 554,-50 379,-50"/>
<text text-anchor="middle" x="466.5" y="-57" font-family="Helvetica,sans-Serif" font-size="10.00">okw.LogMessenger.ReadMessage</text>
</a>
</g>
</g>
<!-- Node3940&#45;&gt;Node3941 -->
<g id="edge3" class="edge"><title>Node3940&#45;&gt;Node3941</title>
<path fill="none" stroke="midnightblue" d="M343.288,-59.5C351.603,-59.5 360.092,-59.5 368.526,-59.5"/>
<polygon fill="midnightblue" stroke="midnightblue" points="368.772,-63.0001 378.772,-59.5 368.772,-56.0001 368.772,-63.0001"/>
</g>
<!-- Node3942 -->
<g id="node5" class="node"><title>Node3942</title>
<g id="a_node5"><a xlink:href="classokw_1_1_o_k_w___xml_reader.html#ab920b5335a2e1429c14cc5f8e79f39eb" target="_top" xlink:title="Lies den TextContent eines Tag.">
<polygon fill="white" stroke="black" points="590,-44.5 590,-74.5 742,-74.5 742,-44.5 590,-44.5"/>
<text text-anchor="start" x="598" y="-62.5" font-family="Helvetica,sans-Serif" font-size="10.00">okw.OKW_XmlReader.getText</text>
<text text-anchor="middle" x="666" y="-51.5" font-family="Helvetica,sans-Serif" font-size="10.00">ContentSingleValue</text>
</a>
</g>
</g>
<!-- Node3941&#45;&gt;Node3942 -->
<g id="edge4" class="edge"><title>Node3941&#45;&gt;Node3942</title>
<path fill="none" stroke="midnightblue" d="M554.126,-59.5C562.6,-59.5 571.195,-59.5 579.656,-59.5"/>
<polygon fill="midnightblue" stroke="midnightblue" points="579.893,-63.0001 589.893,-59.5 579.892,-56.0001 579.893,-63.0001"/>
</g>
</g>
</svg>
