<?xml version="1.0" encoding="UTF-8" standalone="no"?>
<!DOCTYPE svg PUBLIC "-//W3C//DTD SVG 1.1//EN"
 "http://www.w3.org/Graphics/SVG/1.1/DTD/svg11.dtd">
<!-- Generated by graphviz version 2.36.0 (20140111.2315)
 -->
<!-- Title: okw.log.Log2Console.ResOpenList Pages: 1 -->
<!--zoomable 175 -->
<svg id="main" version="1.1" xmlns="http://www.w3.org/2000/svg" xmlns:xlink="http://www.w3.org/1999/xlink" xml:space="preserve" onload="init(evt)">
<style type="text/css"><![CDATA[
.edge:hover path { stroke: red; }
.edge:hover polygon { stroke: red; fill: red; }
]]></style>
<script type="text/javascript"><![CDATA[
var edges = document.getElementsByTagName('g');
if (edges && edges.length) {
  for (var i=0;i<edges.length;i++) {
    if (edges[i].id.substr(0,4)=='edge') {
      edges[i].setAttribute('class','edge');
    }
  }
}
]]></script>
        <defs>
                <circle id="rim" cx="0" cy="0" r="7"/>
                <circle id="rim2" cx="0" cy="0" r="3.5"/>
                <g id="zoomPlus">
                        <use xlink:href="#rim" fill="#404040">
                                <set attributeName="fill" to="#808080" begin="zoomplus.mouseover" end="zoomplus.mouseout"/>
                        </use>
                        <path d="M-4,0h8M0,-4v8" fill="none" stroke="white" stroke-width="1.5" pointer-events="none"/>
                </g>
                <g id="zoomMin">
                        <use xlink:href="#rim" fill="#404040">
                                <set attributeName="fill" to="#808080" begin="zoomminus.mouseover" end="zoomminus.mouseout"/>
                        </use>
                        <path d="M-4,0h8" fill="none" stroke="white" stroke-width="1.5" pointer-events="none"/>
                </g>
                <g id="dirArrow">
                        <path fill="none" stroke="white" stroke-width="1.5" d="M0,-3.0v7 M-2.5,-0.5L0,-3.0L2.5,-0.5"/>
                </g>
               <g id="resetDef">
                       <use xlink:href="#rim2" fill="#404040">
                               <set attributeName="fill" to="#808080" begin="reset.mouseover" end="reset.mouseout"/>
                       </use>
               </g>
        </defs>

<script type="text/javascript">
var viewWidth = 608;
var viewHeight = 175;
var sectionId = 'dynsection-34';
</script>
<script xlink:href="svgpan.js"/>
<svg id="graph" class="graph">
<g id="viewport">
<title>okw.log.Log2Console.ResOpenList</title>
<polygon fill="white" stroke="none" points="-4,4 -4,-171 604,-171 604,4 -4,4"/>
<!-- Node184 -->
<g id="node1" class="node"><title>Node184</title>
<polygon fill="#bfbfbf" stroke="black" points="0,-78.5 0,-97.5 170,-97.5 170,-78.5 0,-78.5"/>
<text text-anchor="middle" x="85" y="-85.5" font-family="Helvetica,sans-Serif" font-size="10.00">okw.log.Log2Console.ResOpenList</text>
</g>
<!-- Node185 -->
<g id="node2" class="node"><title>Node185</title>
<g id="a_node2"><a xlink:href="classokw_1_1log_1_1_log2_console.html#a2d42361222359da106d531084f9d283e" target="_top" xlink:title="LogFunctionEnd(String): ">
<polygon fill="white" stroke="black" points="206,-147.5 206,-166.5 390,-166.5 390,-147.5 206,-147.5"/>
<text text-anchor="middle" x="298" y="-154.5" font-family="Helvetica,sans-Serif" font-size="10.00">okw.log.Log2Console.LogFunctionEnd</text>
</a>
</g>
</g>
<!-- Node184&#45;&gt;Node185 -->
<g id="edge1" class="edge"><title>Node184&#45;&gt;Node185</title>
<path fill="none" stroke="midnightblue" d="M115.671,-101.783C139.644,-112.509 174.465,-127.176 206,-137 218.818,-140.993 232.89,-144.5 246.056,-147.415"/>
<polygon fill="midnightblue" stroke="midnightblue" points="116.971,-98.5291 106.417,-97.5962 114.085,-104.907 116.971,-98.5291"/>
</g>
<!-- Node186 -->
<g id="node3" class="node"><title>Node186</title>
<g id="a_node3"><a xlink:href="classokw_1_1log_1_1_log2_console.html#a06fc14df2dcb5b2b28b65b2a5ca07e25" target="_top" xlink:title="LogFunctionStart: ">
<polygon fill="white" stroke="black" points="214.5,-98 214.5,-128 381.5,-128 381.5,-98 214.5,-98"/>
<text text-anchor="start" x="222.5" y="-116" font-family="Helvetica,sans-Serif" font-size="10.00">okw.log.Log2Console.LogFunction</text>
<text text-anchor="middle" x="298" y="-105" font-family="Helvetica,sans-Serif" font-size="10.00">Start</text>
</a>
</g>
</g>
<!-- Node184&#45;&gt;Node186 -->
<g id="edge2" class="edge"><title>Node184&#45;&gt;Node186</title>
<path fill="none" stroke="midnightblue" d="M176.413,-98.7124C189.029,-100.207 201.939,-101.737 214.401,-103.213"/>
<polygon fill="midnightblue" stroke="midnightblue" points="176.714,-95.2237 166.372,-97.5227 175.891,-102.175 176.714,-95.2237"/>
</g>
<!-- Node188 -->
<g id="node5" class="node"><title>Node188</title>
<g id="a_node5"><a xlink:href="classokw_1_1log_1_1_log2_console.html#a6c848745fc8facac542f043f4bfce4bc" target="_top" xlink:title="LogKeyWordStart: ">
<polygon fill="white" stroke="black" points="225,-49 225,-79 371,-79 371,-49 225,-49"/>
<text text-anchor="start" x="233" y="-67" font-family="Helvetica,sans-Serif" font-size="10.00">okw.log.Log2Console.LogKey</text>
<text text-anchor="middle" x="298" y="-56" font-family="Helvetica,sans-Serif" font-size="10.00">WordStart</text>
</a>
</g>
</g>
<!-- Node184&#45;&gt;Node188 -->
<g id="edge4" class="edge"><title>Node184&#45;&gt;Node188</title>
<path fill="none" stroke="midnightblue" d="M179.633,-77.3498C194.848,-75.6192 210.396,-73.8507 224.99,-72.1907"/>
<polygon fill="midnightblue" stroke="midnightblue" points="179.236,-73.8723 169.696,-78.4801 180.027,-80.8274 179.236,-73.8723"/>
</g>
<!-- Node191 -->
<g id="node8" class="node"><title>Node191</title>
<g id="a_node8"><a xlink:href="classokw_1_1log_1_1_log2_console.html#adea657f55b624397c13bfbf94f2a6d6a" target="_top" xlink:title="Öffnet eine neue debug Ergenis&#45;Ebene mit der gegebenen Überschrift. ">
<polygon fill="white" stroke="black" points="220.5,-0 220.5,-30 375.5,-30 375.5,-0 220.5,-0"/>
<text text-anchor="start" x="228.5" y="-18" font-family="Helvetica,sans-Serif" font-size="10.00">okw.log.Log2Console.ResOpen</text>
<text text-anchor="middle" x="298" y="-7" font-family="Helvetica,sans-Serif" font-size="10.00">ListDebug</text>
</a>
</g>
</g>
<!-- Node184&#45;&gt;Node191 -->
<g id="edge7" class="edge"><title>Node184&#45;&gt;Node191</title>
<path fill="none" stroke="midnightblue" d="M116.219,-74.3842C140.241,-63.8732 174.864,-49.414 206,-39 215.452,-35.8386 225.566,-32.8212 235.491,-30.0586"/>
<polygon fill="midnightblue" stroke="midnightblue" points="114.666,-71.2437 106.93,-78.483 117.492,-77.6479 114.666,-71.2437"/>
</g>
<!-- Node187 -->
<g id="node4" class="node"><title>Node187</title>
<g id="a_node4"><a xlink:href="classokw_1_1log_1_1_log2_console.html#ae12be755a9da04599d329cfece22b1ef" target="_top" xlink:title="LogFunctionStartDebug: ">
<polygon fill="white" stroke="black" points="429.5,-98 429.5,-128 596.5,-128 596.5,-98 429.5,-98"/>
<text text-anchor="start" x="437.5" y="-116" font-family="Helvetica,sans-Serif" font-size="10.00">okw.log.Log2Console.LogFunction</text>
<text text-anchor="middle" x="513" y="-105" font-family="Helvetica,sans-Serif" font-size="10.00">StartDebug</text>
</a>
</g>
</g>
<!-- Node186&#45;&gt;Node187 -->
<g id="edge3" class="edge"><title>Node186&#45;&gt;Node187</title>
<path fill="none" stroke="midnightblue" d="M392.029,-113C404.464,-113 417.149,-113 429.39,-113"/>
<polygon fill="midnightblue" stroke="midnightblue" points="391.656,-109.5 381.656,-113 391.656,-116.5 391.656,-109.5"/>
</g>
<!-- Node189 -->
<g id="node6" class="node"><title>Node189</title>
<g id="a_node6"><a xlink:href="classokw_1_1log_1_1_log2_console.html#ab54c67895506d0e6786be1b7c4f1ac78" target="_top" xlink:title="LogTestcaseStart: ">
<polygon fill="white" stroke="black" points="428,-49 428,-79 598,-79 598,-49 428,-49"/>
<text text-anchor="start" x="436" y="-67" font-family="Helvetica,sans-Serif" font-size="10.00">okw.log.Log2Console.LogTestcase</text>
<text text-anchor="middle" x="513" y="-56" font-family="Helvetica,sans-Serif" font-size="10.00">Start</text>
</a>
</g>
</g>
<!-- Node188&#45;&gt;Node189 -->
<g id="edge5" class="edge"><title>Node188&#45;&gt;Node189</title>
<path fill="none" stroke="midnightblue" d="M381.506,-64C396.701,-64 412.583,-64 427.826,-64"/>
<polygon fill="midnightblue" stroke="midnightblue" points="381.112,-60.5001 371.112,-64 381.112,-67.5001 381.112,-60.5001"/>
</g>
<!-- Node190 -->
<g id="node7" class="node"><title>Node190</title>
<g id="a_node7"><a xlink:href="classokw_1_1log_1_1_log2_console.html#a9ec829b2c64f226a7de1d6a8c0ec468f" target="_top" xlink:title="LogSequenceStart: Begin of a Sequence. ">
<polygon fill="white" stroke="black" points="426.5,-0 426.5,-30 599.5,-30 599.5,-0 426.5,-0"/>
<text text-anchor="start" x="434.5" y="-18" font-family="Helvetica,sans-Serif" font-size="10.00">okw.log.Log2Console.LogSequence</text>
<text text-anchor="middle" x="513" y="-7" font-family="Helvetica,sans-Serif" font-size="10.00">Start</text>
</a>
</g>
</g>
<!-- Node188&#45;&gt;Node190 -->
<g id="edge6" class="edge"><title>Node188&#45;&gt;Node190</title>
<path fill="none" stroke="midnightblue" d="M374.337,-46.6691C397.985,-41.2288 423.881,-35.2715 446.769,-30.0062"/>
<polygon fill="midnightblue" stroke="midnightblue" points="373.315,-43.3125 364.355,-48.9654 374.885,-50.1343 373.315,-43.3125"/>
</g>
</g>
</svg>
        <g id="navigator" transform="translate(0 0)" fill="#404254">
                <rect fill="#f2f5e9" fill-opacity="0.5" stroke="#606060" stroke-width=".5" x="0" y="0" width="60" height="60"/>
                <use id="zoomplus" xlink:href="#zoomPlus" x="17" y="9" onmousedown="handleZoom(evt,'in')"/>
                <use id="zoomminus" xlink:href="#zoomMin" x="42" y="9" onmousedown="handleZoom(evt,'out')"/>
                <use id="reset" xlink:href="#resetDef" x="30" y="36" onmousedown="handleReset()"/>
                <g id="arrowUp" xlink:href="#dirArrow" transform="translate(30 24)" onmousedown="handlePan(0,-1)">
                  <use xlink:href="#rim" fill="#404040">
                        <set attributeName="fill" to="#808080" begin="arrowUp.mouseover" end="arrowUp.mouseout"/>
                  </use>
                  <path fill="none" stroke="white" stroke-width="1.5" d="M0,-3.0v7 M-2.5,-0.5L0,-3.0L2.5,-0.5"/>
                </g>
                <g id="arrowRight" xlink:href="#dirArrow" transform="rotate(90) translate(36 -43)" onmousedown="handlePan(1,0)">
                  <use xlink:href="#rim" fill="#404040">
                        <set attributeName="fill" to="#808080" begin="arrowRight.mouseover" end="arrowRight.mouseout"/>
                  </use>
                  <path fill="none" stroke="white" stroke-width="1.5" d="M0,-3.0v7 M-2.5,-0.5L0,-3.0L2.5,-0.5"/>
                </g>
                <g id="arrowDown" xlink:href="#dirArrow" transform="rotate(180) translate(-30 -48)" onmousedown="handlePan(0,1)">
                  <use xlink:href="#rim" fill="#404040">
                        <set attributeName="fill" to="#808080" begin="arrowDown.mouseover" end="arrowDown.mouseout"/>
                  </use>
                  <path fill="none" stroke="white" stroke-width="1.5" d="M0,-3.0v7 M-2.5,-0.5L0,-3.0L2.5,-0.5"/>
                </g>
                <g id="arrowLeft" xlink:href="#dirArrow" transform="rotate(270) translate(-36 17)" onmousedown="handlePan(-1,0)">
                  <use xlink:href="#rim" fill="#404040">
                        <set attributeName="fill" to="#808080" begin="arrowLeft.mouseover" end="arrowLeft.mouseout"/>
                  </use>
                  <path fill="none" stroke="white" stroke-width="1.5" d="M0,-3.0v7 M-2.5,-0.5L0,-3.0L2.5,-0.5"/>
                </g>
        </g>
        <svg viewBox="0 0 15 15" width="100%" height="30px" preserveAspectRatio="xMaxYMin meet">
         <g id="arrow_out" transform="scale(0.3 0.3)">
          <a xlink:href="classokw_1_1log_1_1_log2_console_af99ba81cf4d8e14d5fe19070f12ae5cb_icgraph_org.svg" target="_base">
           <rect id="button" ry="5" rx="5" y="6" x="6" height="38" width="38"
                fill="#f2f5e9" fill-opacity="0.5" stroke="#606060" stroke-width="1.0"/>
           <path id="arrow"
             d="M 11.500037,31.436501 C 11.940474,20.09759 22.043105,11.32322 32.158766,21.979434 L 37.068811,17.246167 C 37.068811,17.246167 37.088388,32 37.088388,32 L 22.160133,31.978069 C 22.160133,31.978069 26.997745,27.140456 26.997745,27.140456 C 18.528582,18.264221 13.291696,25.230495 11.500037,31.436501 z"
             style="fill:#404040;"/>
          </a>
         </g>
        </svg>
</svg>
