<?xml version="1.0" encoding="UTF-8" standalone="no"?>
<!DOCTYPE svg PUBLIC "-//W3C//DTD SVG 1.1//EN"
 "http://www.w3.org/Graphics/SVG/1.1/DTD/svg11.dtd">
<!-- Generated by graphviz version 2.38.0 (20140413.2041)
 -->
<!-- Title: okw.core.EN.EndTest Pages: 1 -->
<!--zoomable 66 -->
<svg id="main" version="1.1" xmlns="http://www.w3.org/2000/svg" xmlns:xlink="http://www.w3.org/1999/xlink" xml:space="preserve" onload="init(evt)">
<style type="text/css"><![CDATA[
.edge:hover path { stroke: red; }
.edge:hover polygon { stroke: red; fill: red; }
]]></style>
<script type="text/javascript"><![CDATA[
var edges = document.getElementsByTagName('g');
if (edges && edges.length) {
  for (var i=0;i<edges.length;i++) {
    if (edges[i].id.substr(0,4)=='edge') {
      edges[i].setAttribute('class','edge');
    }
  }
}
]]></script>
        <defs>
                <circle id="rim" cx="0" cy="0" r="7"/>
                <circle id="rim2" cx="0" cy="0" r="3.5"/>
                <g id="zoomPlus">
                        <use xlink:href="#rim" fill="#404040">
                                <set attributeName="fill" to="#808080" begin="zoomplus.mouseover" end="zoomplus.mouseout"/>
                        </use>
                        <path d="M-4,0h8M0,-4v8" fill="none" stroke="white" stroke-width="1.5" pointer-events="none"/>
                </g>
                <g id="zoomMin">
                        <use xlink:href="#rim" fill="#404040">
                                <set attributeName="fill" to="#808080" begin="zoomminus.mouseover" end="zoomminus.mouseout"/>
                        </use>
                        <path d="M-4,0h8" fill="none" stroke="white" stroke-width="1.5" pointer-events="none"/>
                </g>
                <g id="dirArrow">
                        <path fill="none" stroke="white" stroke-width="1.5" d="M0,-3.0v7 M-2.5,-0.5L0,-3.0L2.5,-0.5"/>
                </g>
               <g id="resetDef">
                       <use xlink:href="#rim2" fill="#404040">
                               <set attributeName="fill" to="#808080" begin="reset.mouseover" end="reset.mouseout"/>
                       </use>
               </g>
        </defs>

<script type="text/javascript">
var viewWidth = 525;
var viewHeight = 66;
var sectionId = 'dynsection-6';
</script>
<script xlink:href="svgpan.js"/>
<svg id="graph" class="graph">
<g id="viewport">
<title>okw.core.EN.EndTest</title>
<polygon fill="white" stroke="none" points="-4,4 -4,-62 521,-62 521,4 -4,4"/>
<!-- Node777 -->
<g id="node1" class="node"><title>Node777</title>
<g id="a_node1"><a xlink:title="Signalisiert das Ende eines Testfalls.">
<polygon fill="#bfbfbf" stroke="black" points="0,-19.5 0,-38.5 114,-38.5 114,-19.5 0,-19.5"/>
<text text-anchor="middle" x="57" y="-26.5" font-family="Helvetica,sans-Serif" font-size="10.00">okw.core.EN.EndTest</text>
</a>
</g>
</g>
<!-- Node778 -->
<g id="node2" class="node"><title>Node778</title>
<g id="a_node2"><a xlink:href="classokw_1_1core_1_1_core.html#ab4e0f723d27cb11c944ec4c82c426100" target="_top" xlink:title="Setzt die Sprache auf den gegebenen wert Language.">
<polygon fill="white" stroke="black" points="150,-38.5 150,-57.5 299,-57.5 299,-38.5 150,-38.5"/>
<text text-anchor="middle" x="224.5" y="-45.5" font-family="Helvetica,sans-Serif" font-size="10.00">okw.core.Core.setLanguage</text>
</a>
</g>
</g>
<!-- Node777&#45;&gt;Node778 -->
<g id="edge1" class="edge"><title>Node777&#45;&gt;Node778</title>
<path fill="none" stroke="midnightblue" d="M114.031,-35.4325C122.321,-36.3843 131.012,-37.3821 139.719,-38.3816"/>
<polygon fill="midnightblue" stroke="midnightblue" points="139.589,-41.8896 149.923,-39.5531 140.387,-34.9353 139.589,-41.8896"/>
</g>
<!-- Node780 -->
<g id="node4" class="node"><title>Node780</title>
<g id="a_node4"><a xlink:href="classokw_1_1core_1_1_core.html#abf0b4a4074d5292675319eb0045fcb9c" target="_top" xlink:title="Signalisiert das Ende eines Testfalls.">
<polygon fill="white" stroke="black" points="163,-0.5 163,-19.5 286,-19.5 286,-0.5 163,-0.5"/>
<text text-anchor="middle" x="224.5" y="-7.5" font-family="Helvetica,sans-Serif" font-size="10.00">okw.core.Core.EndTest</text>
</a>
</g>
</g>
<!-- Node777&#45;&gt;Node780 -->
<g id="edge3" class="edge"><title>Node777&#45;&gt;Node780</title>
<path fill="none" stroke="midnightblue" d="M114.031,-22.5675C126.462,-21.1403 139.794,-19.6097 152.728,-18.1249"/>
<polygon fill="midnightblue" stroke="midnightblue" points="153.454,-21.5646 162.99,-16.9468 152.656,-14.6103 153.454,-21.5646"/>
</g>
<!-- Node779 -->
<g id="node3" class="node"><title>Node779</title>
<g id="a_node3"><a xlink:href="interfaceokw_1_1core_1_1_i_o_k_w___state.html#a866baa0bde08a47418f54d63bdb56097" target="_top" xlink:title="Interne Methode zum setzen der Sprache für die sprachabhängigen Ausgaben der Dokumentation (Log).">
<polygon fill="white" stroke="black" points="335,-38.5 335,-57.5 517,-57.5 517,-38.5 335,-38.5"/>
<text text-anchor="middle" x="426" y="-45.5" font-family="Helvetica,sans-Serif" font-size="10.00">okw.core.IOKW_State.setLanguage</text>
</a>
</g>
</g>
<!-- Node778&#45;&gt;Node779 -->
<g id="edge2" class="edge"><title>Node778&#45;&gt;Node779</title>
<path fill="none" stroke="midnightblue" d="M299.22,-48C307.517,-48 316.072,-48 324.633,-48"/>
<polygon fill="midnightblue" stroke="midnightblue" points="324.671,-51.5001 334.671,-48 324.671,-44.5001 324.671,-51.5001"/>
</g>
<!-- Node781 -->
<g id="node5" class="node"><title>Node781</title>
<g id="a_node5"><a xlink:href="interfaceokw_1_1core_1_1_i_o_k_w___state.html#ac0b681eddd02ac39ff0c4970a634a186" target="_top" xlink:title="Signalisiert das Ende eines Testfalls.">
<polygon fill="white" stroke="black" points="348,-0.5 348,-19.5 504,-19.5 504,-0.5 348,-0.5"/>
<text text-anchor="middle" x="426" y="-7.5" font-family="Helvetica,sans-Serif" font-size="10.00">okw.core.IOKW_State.EndTest</text>
</a>
</g>
</g>
<!-- Node780&#45;&gt;Node781 -->
<g id="edge4" class="edge"><title>Node780&#45;&gt;Node781</title>
<path fill="none" stroke="midnightblue" d="M286.169,-10C302.364,-10 320.192,-10 337.518,-10"/>
<polygon fill="midnightblue" stroke="midnightblue" points="337.646,-13.5001 347.646,-10 337.646,-6.5001 337.646,-13.5001"/>
</g>
</g>
</svg>
        <g id="navigator" transform="translate(0 0)" fill="#404254">
                <rect fill="#f2f5e9" fill-opacity="0.5" stroke="#606060" stroke-width=".5" x="0" y="0" width="60" height="60"/>
                <use id="zoomplus" xlink:href="#zoomPlus" x="17" y="9" onmousedown="handleZoom(evt,'in')"/>
                <use id="zoomminus" xlink:href="#zoomMin" x="42" y="9" onmousedown="handleZoom(evt,'out')"/>
                <use id="reset" xlink:href="#resetDef" x="30" y="36" onmousedown="handleReset()"/>
                <g id="arrowUp" xlink:href="#dirArrow" transform="translate(30 24)" onmousedown="handlePan(0,-1)">
                  <use xlink:href="#rim" fill="#404040">
                        <set attributeName="fill" to="#808080" begin="arrowUp.mouseover" end="arrowUp.mouseout"/>
                  </use>
                  <path fill="none" stroke="white" stroke-width="1.5" d="M0,-3.0v7 M-2.5,-0.5L0,-3.0L2.5,-0.5"/>
                </g>
                <g id="arrowRight" xlink:href="#dirArrow" transform="rotate(90) translate(36 -43)" onmousedown="handlePan(1,0)">
                  <use xlink:href="#rim" fill="#404040">
                        <set attributeName="fill" to="#808080" begin="arrowRight.mouseover" end="arrowRight.mouseout"/>
                  </use>
                  <path fill="none" stroke="white" stroke-width="1.5" d="M0,-3.0v7 M-2.5,-0.5L0,-3.0L2.5,-0.5"/>
                </g>
                <g id="arrowDown" xlink:href="#dirArrow" transform="rotate(180) translate(-30 -48)" onmousedown="handlePan(0,1)">
                  <use xlink:href="#rim" fill="#404040">
                        <set attributeName="fill" to="#808080" begin="arrowDown.mouseover" end="arrowDown.mouseout"/>
                  </use>
                  <path fill="none" stroke="white" stroke-width="1.5" d="M0,-3.0v7 M-2.5,-0.5L0,-3.0L2.5,-0.5"/>
                </g>
                <g id="arrowLeft" xlink:href="#dirArrow" transform="rotate(270) translate(-36 17)" onmousedown="handlePan(-1,0)">
                  <use xlink:href="#rim" fill="#404040">
                        <set attributeName="fill" to="#808080" begin="arrowLeft.mouseover" end="arrowLeft.mouseout"/>
                  </use>
                  <path fill="none" stroke="white" stroke-width="1.5" d="M0,-3.0v7 M-2.5,-0.5L0,-3.0L2.5,-0.5"/>
                </g>
        </g>
        <svg viewBox="0 0 15 15" width="100%" height="30px" preserveAspectRatio="xMaxYMin meet">
         <g id="arrow_out" transform="scale(0.3 0.3)">
          <a xlink:href="classokw_1_1core_1_1_e_n_aa51cc1227f749efca4fd2801f5cb664f_cgraph_org.svg" target="_base">
           <rect id="button" ry="5" rx="5" y="6" x="6" height="38" width="38"
                fill="#f2f5e9" fill-opacity="0.5" stroke="#606060" stroke-width="1.0"/>
           <path id="arrow"
             d="M 11.500037,31.436501 C 11.940474,20.09759 22.043105,11.32322 32.158766,21.979434 L 37.068811,17.246167 C 37.068811,17.246167 37.088388,32 37.088388,32 L 22.160133,31.978069 C 22.160133,31.978069 26.997745,27.140456 26.997745,27.140456 C 18.528582,18.264221 13.291696,25.230495 11.500037,31.436501 z"
             style="fill:#404040;"/>
          </a>
         </g>
        </svg>
</svg>
