<?xml version="1.0" encoding="UTF-8" standalone="no"?>
<!DOCTYPE svg PUBLIC "-//W3C//DTD SVG 1.1//EN"
 "http://www.w3.org/Graphics/SVG/1.1/DTD/svg11.dtd">
<!-- Generated by graphviz version 2.36.0 (20140111.2315)
 -->
<!-- Title: okw.core.EN.LogTablecellValue Pages: 1 -->
<!--zoomable 165 -->
<svg id="main" version="1.1" xmlns="http://www.w3.org/2000/svg" xmlns:xlink="http://www.w3.org/1999/xlink" xml:space="preserve" onload="init(evt)">
<style type="text/css"><![CDATA[
.edge:hover path { stroke: red; }
.edge:hover polygon { stroke: red; fill: red; }
]]></style>
<script type="text/javascript"><![CDATA[
var edges = document.getElementsByTagName('g');
if (edges && edges.length) {
  for (var i=0;i<edges.length;i++) {
    if (edges[i].id.substr(0,4)=='edge') {
      edges[i].setAttribute('class','edge');
    }
  }
}
]]></script>
        <defs>
                <circle id="rim" cx="0" cy="0" r="7"/>
                <circle id="rim2" cx="0" cy="0" r="3.5"/>
                <g id="zoomPlus">
                        <use xlink:href="#rim" fill="#404040">
                                <set attributeName="fill" to="#808080" begin="zoomplus.mouseover" end="zoomplus.mouseout"/>
                        </use>
                        <path d="M-4,0h8M0,-4v8" fill="none" stroke="white" stroke-width="1.5" pointer-events="none"/>
                </g>
                <g id="zoomMin">
                        <use xlink:href="#rim" fill="#404040">
                                <set attributeName="fill" to="#808080" begin="zoomminus.mouseover" end="zoomminus.mouseout"/>
                        </use>
                        <path d="M-4,0h8" fill="none" stroke="white" stroke-width="1.5" pointer-events="none"/>
                </g>
                <g id="dirArrow">
                        <path fill="none" stroke="white" stroke-width="1.5" d="M0,-3.0v7 M-2.5,-0.5L0,-3.0L2.5,-0.5"/>
                </g>
               <g id="resetDef">
                       <use xlink:href="#rim2" fill="#404040">
                               <set attributeName="fill" to="#808080" begin="reset.mouseover" end="reset.mouseout"/>
                       </use>
               </g>
        </defs>

<script type="text/javascript">
var viewWidth = 918;
var viewHeight = 165;
var sectionId = 'dynsection-20';
</script>
<script xlink:href="svgpan.js"/>
<svg id="graph" class="graph">
<g id="viewport">
<title>okw.core.EN.LogTablecellValue</title>
<polygon fill="white" stroke="none" points="-4,4 -4,-161 914,-161 914,4 -4,4"/>
<!-- Node1001 -->
<g id="node1" class="node"><title>Node1001</title>
<polygon fill="#bfbfbf" stroke="black" points="0.5,-88 0.5,-118 131.5,-118 131.5,-88 0.5,-88"/>
<text text-anchor="start" x="8.5" y="-106" font-family="Helvetica,sans-Serif" font-size="10.00">okw.core.EN.LogTablecell</text>
<text text-anchor="middle" x="66" y="-95" font-family="Helvetica,sans-Serif" font-size="10.00">Value</text>
</g>
<!-- Node1002 -->
<g id="node2" class="node"><title>Node1002</title>
<g id="a_node2"><a xlink:href="classokw_1_1core_1_1_core.html#ab4e0f723d27cb11c944ec4c82c426100" target="_top" xlink:title="Setzt die Sprache auf den gegebenen wert Language. ">
<polygon fill="white" stroke="black" points="168.5,-126.5 168.5,-145.5 307.5,-145.5 307.5,-126.5 168.5,-126.5"/>
<text text-anchor="middle" x="238" y="-133.5" font-family="Helvetica,sans-Serif" font-size="10.00">okw.core.Core.setLanguage</text>
</a>
</g>
</g>
<!-- Node1001&#45;&gt;Node1002 -->
<g id="edge1" class="edge"><title>Node1001&#45;&gt;Node1002</title>
<path fill="none" stroke="midnightblue" d="M131.755,-115.57C146.926,-118.515 163.011,-121.637 177.92,-124.532"/>
<polygon fill="midnightblue" stroke="midnightblue" points="177.544,-128.024 188.028,-126.494 178.878,-121.152 177.544,-128.024"/>
</g>
<!-- Node1004 -->
<g id="node4" class="node"><title>Node1004</title>
<g id="a_node4"><a xlink:href="classokw_1_1core_1_1_core.html#ad33d08973ab4bfdc740acd14aa20364f" target="_top" xlink:title="Dokumentiert den Wert der ausgewählten Zelle. ">
<polygon fill="white" stroke="black" points="169,-55 169,-85 307,-85 307,-55 169,-55"/>
<text text-anchor="start" x="177" y="-73" font-family="Helvetica,sans-Serif" font-size="10.00">okw.core.Core.LogTablecell</text>
<text text-anchor="middle" x="238" y="-62" font-family="Helvetica,sans-Serif" font-size="10.00">Value</text>
</a>
</g>
</g>
<!-- Node1001&#45;&gt;Node1004 -->
<g id="edge3" class="edge"><title>Node1001&#45;&gt;Node1004</title>
<path fill="none" stroke="midnightblue" d="M131.755,-90.43C140.549,-88.7228 149.651,-86.956 158.652,-85.2087"/>
<polygon fill="midnightblue" stroke="midnightblue" points="159.601,-88.5899 168.751,-83.2484 158.267,-81.7182 159.601,-88.5899"/>
</g>
<!-- Node1003 -->
<g id="node3" class="node"><title>Node1003</title>
<g id="a_node3"><a xlink:href="interfaceokw_1_1core_1_1_i_o_k_w___state.html#a866baa0bde08a47418f54d63bdb56097" target="_top" xlink:title="Interne Methode zum setzen der Sprache für die sprachabhängigen Ausgaben der Dokumentation (Log)...">
<polygon fill="white" stroke="black" points="344.5,-137.5 344.5,-156.5 517.5,-156.5 517.5,-137.5 344.5,-137.5"/>
<text text-anchor="middle" x="431" y="-144.5" font-family="Helvetica,sans-Serif" font-size="10.00">okw.core.IOKW_State.setLanguage</text>
</a>
</g>
</g>
<!-- Node1002&#45;&gt;Node1003 -->
<g id="edge2" class="edge"><title>Node1002&#45;&gt;Node1003</title>
<path fill="none" stroke="midnightblue" d="M307.686,-139.956C316.311,-140.452 325.254,-140.967 334.2,-141.483"/>
<polygon fill="midnightblue" stroke="midnightblue" points="334.101,-144.983 344.285,-142.064 334.503,-137.994 334.101,-144.983"/>
</g>
<!-- Node1005 -->
<g id="node5" class="node"><title>Node1005</title>
<g id="a_node5"><a xlink:href="classokw_1_1log_1_1_logger___sngltn.html#a70ec25e200e00ecefc544e8fd371d2ef" target="_top" xlink:title="Ausgabe eines Schlüsselwortes. ">
<polygon fill="white" stroke="black" points="364,-88 364,-118 498,-118 498,-88 364,-88"/>
<text text-anchor="start" x="372" y="-106" font-family="Helvetica,sans-Serif" font-size="10.00">okw.log.Logger_Sngltn.Log</text>
<text text-anchor="middle" x="431" y="-95" font-family="Helvetica,sans-Serif" font-size="10.00">KeyWordStart</text>
</a>
</g>
</g>
<!-- Node1004&#45;&gt;Node1005 -->
<g id="edge4" class="edge"><title>Node1004&#45;&gt;Node1005</title>
<path fill="none" stroke="midnightblue" d="M307.146,-81.774C322.262,-84.3856 338.377,-87.1698 353.791,-89.8331"/>
<polygon fill="midnightblue" stroke="midnightblue" points="353.353,-93.309 363.803,-91.5627 354.544,-86.4112 353.353,-93.309"/>
</g>
<!-- Node1006 -->
<g id="node6" class="node"><title>Node1006</title>
<g id="a_node6"><a xlink:href="classokw_1_1_log_messenger.html#af225d1f037d47b3b085175c09d78bdd2" target="_top" xlink:title="Holt die Log&#45;Meldung für MethodeNmae/Textkey ohne weitere Parameter. ">
<polygon fill="white" stroke="black" points="351,-49.5 351,-68.5 511,-68.5 511,-49.5 351,-49.5"/>
<text text-anchor="middle" x="431" y="-56.5" font-family="Helvetica,sans-Serif" font-size="10.00">okw.LogMessenger.GetMessage</text>
</a>
</g>
</g>
<!-- Node1004&#45;&gt;Node1006 -->
<g id="edge5" class="edge"><title>Node1004&#45;&gt;Node1006</title>
<path fill="none" stroke="midnightblue" d="M307.146,-66.0753C317.974,-65.4518 329.313,-64.7987 340.541,-64.1521"/>
<polygon fill="midnightblue" stroke="midnightblue" points="341.02,-67.6304 350.803,-63.5611 340.618,-60.6419 341.02,-67.6304"/>
</g>
<!-- Node1009 -->
<g id="node9" class="node"><title>Node1009</title>
<g id="a_node9"><a xlink:href="interfaceokw_1_1core_1_1_i_o_k_w___state.html#aed4fb79a0e38cdb3ec43e8bb9d2e3425" target="_top" xlink:title="Dokumentiert den Wert der ausgewählten Zelle. ">
<polygon fill="white" stroke="black" points="344.5,-0 344.5,-30 517.5,-30 517.5,-0 344.5,-0"/>
<text text-anchor="start" x="352.5" y="-18" font-family="Helvetica,sans-Serif" font-size="10.00">okw.core.IOKW_State.LogTablecell</text>
<text text-anchor="middle" x="431" y="-7" font-family="Helvetica,sans-Serif" font-size="10.00">Value</text>
</a>
</g>
</g>
<!-- Node1004&#45;&gt;Node1009 -->
<g id="edge8" class="edge"><title>Node1004&#45;&gt;Node1009</title>
<path fill="none" stroke="midnightblue" d="M291.192,-54.971C314.984,-48.1199 343.326,-39.9586 368.178,-32.8022"/>
<polygon fill="midnightblue" stroke="midnightblue" points="369.231,-36.1414 377.872,-30.0108 367.293,-29.4147 369.231,-36.1414"/>
</g>
<!-- Node1007 -->
<g id="node7" class="node"><title>Node1007</title>
<g id="a_node7"><a xlink:href="classokw_1_1_log_messenger.html#a530cd6ab82ec82a04206a2e976ec06e3" target="_top" xlink:title="Interne Kernfunktion holt die Log&#45;Meldung mit Platzhaltern aus der XML&#45;Datei. ">
<polygon fill="white" stroke="black" points="554.5,-49.5 554.5,-68.5 721.5,-68.5 721.5,-49.5 554.5,-49.5"/>
<text text-anchor="middle" x="638" y="-56.5" font-family="Helvetica,sans-Serif" font-size="10.00">okw.LogMessenger.ReadMessage</text>
</a>
</g>
</g>
<!-- Node1006&#45;&gt;Node1007 -->
<g id="edge6" class="edge"><title>Node1006&#45;&gt;Node1007</title>
<path fill="none" stroke="midnightblue" d="M511.258,-59C522.041,-59 533.186,-59 544.181,-59"/>
<polygon fill="midnightblue" stroke="midnightblue" points="544.222,-62.5001 554.222,-59 544.222,-55.5001 544.222,-62.5001"/>
</g>
<!-- Node1008 -->
<g id="node8" class="node"><title>Node1008</title>
<g id="a_node8"><a xlink:href="classokw_1_1_o_k_w___xml_reader.html#ab920b5335a2e1429c14cc5f8e79f39eb" target="_top" xlink:title="Lies den TextContent eines Tag. ">
<polygon fill="white" stroke="black" points="758,-44 758,-74 910,-74 910,-44 758,-44"/>
<text text-anchor="start" x="766" y="-62" font-family="Helvetica,sans-Serif" font-size="10.00">okw.OKW_XmlReader.getText</text>
<text text-anchor="middle" x="834" y="-51" font-family="Helvetica,sans-Serif" font-size="10.00">ContentSingleValue</text>
</a>
</g>
</g>
<!-- Node1007&#45;&gt;Node1008 -->
<g id="edge7" class="edge"><title>Node1007&#45;&gt;Node1008</title>
<path fill="none" stroke="midnightblue" d="M721.555,-59C730.227,-59 739.057,-59 747.759,-59"/>
<polygon fill="midnightblue" stroke="midnightblue" points="747.899,-62.5001 757.899,-59 747.899,-55.5001 747.899,-62.5001"/>
</g>
</g>
</svg>
        <g id="navigator" transform="translate(0 0)" fill="#404254">
                <rect fill="#f2f5e9" fill-opacity="0.5" stroke="#606060" stroke-width=".5" x="0" y="0" width="60" height="60"/>
                <use id="zoomplus" xlink:href="#zoomPlus" x="17" y="9" onmousedown="handleZoom(evt,'in')"/>
                <use id="zoomminus" xlink:href="#zoomMin" x="42" y="9" onmousedown="handleZoom(evt,'out')"/>
                <use id="reset" xlink:href="#resetDef" x="30" y="36" onmousedown="handleReset()"/>
                <g id="arrowUp" xlink:href="#dirArrow" transform="translate(30 24)" onmousedown="handlePan(0,-1)">
                  <use xlink:href="#rim" fill="#404040">
                        <set attributeName="fill" to="#808080" begin="arrowUp.mouseover" end="arrowUp.mouseout"/>
                  </use>
                  <path fill="none" stroke="white" stroke-width="1.5" d="M0,-3.0v7 M-2.5,-0.5L0,-3.0L2.5,-0.5"/>
                </g>
                <g id="arrowRight" xlink:href="#dirArrow" transform="rotate(90) translate(36 -43)" onmousedown="handlePan(1,0)">
                  <use xlink:href="#rim" fill="#404040">
                        <set attributeName="fill" to="#808080" begin="arrowRight.mouseover" end="arrowRight.mouseout"/>
                  </use>
                  <path fill="none" stroke="white" stroke-width="1.5" d="M0,-3.0v7 M-2.5,-0.5L0,-3.0L2.5,-0.5"/>
                </g>
                <g id="arrowDown" xlink:href="#dirArrow" transform="rotate(180) translate(-30 -48)" onmousedown="handlePan(0,1)">
                  <use xlink:href="#rim" fill="#404040">
                        <set attributeName="fill" to="#808080" begin="arrowDown.mouseover" end="arrowDown.mouseout"/>
                  </use>
                  <path fill="none" stroke="white" stroke-width="1.5" d="M0,-3.0v7 M-2.5,-0.5L0,-3.0L2.5,-0.5"/>
                </g>
                <g id="arrowLeft" xlink:href="#dirArrow" transform="rotate(270) translate(-36 17)" onmousedown="handlePan(-1,0)">
                  <use xlink:href="#rim" fill="#404040">
                        <set attributeName="fill" to="#808080" begin="arrowLeft.mouseover" end="arrowLeft.mouseout"/>
                  </use>
                  <path fill="none" stroke="white" stroke-width="1.5" d="M0,-3.0v7 M-2.5,-0.5L0,-3.0L2.5,-0.5"/>
                </g>
        </g>
        <svg viewBox="0 0 15 15" width="100%" height="30px" preserveAspectRatio="xMaxYMin meet">
         <g id="arrow_out" transform="scale(0.3 0.3)">
          <a xlink:href="classokw_1_1core_1_1_e_n_ab1718e25041c06f775c33c6a41605966_cgraph_org.svg" target="_base">
           <rect id="button" ry="5" rx="5" y="6" x="6" height="38" width="38"
                fill="#f2f5e9" fill-opacity="0.5" stroke="#606060" stroke-width="1.0"/>
           <path id="arrow"
             d="M 11.500037,31.436501 C 11.940474,20.09759 22.043105,11.32322 32.158766,21.979434 L 37.068811,17.246167 C 37.068811,17.246167 37.088388,32 37.088388,32 L 22.160133,31.978069 C 22.160133,31.978069 26.997745,27.140456 26.997745,27.140456 C 18.528582,18.264221 13.291696,25.230495 11.500037,31.436501 z"
             style="fill:#404040;"/>
          </a>
         </g>
        </svg>
</svg>
