<?xml version="1.0" encoding="UTF-8" standalone="no"?>
<!DOCTYPE svg PUBLIC "-//W3C//DTD SVG 1.1//EN"
 "http://www.w3.org/Graphics/SVG/1.1/DTD/svg11.dtd">
<!-- Generated by graphviz version 2.38.0 (20140413.2041)
 -->
<!-- Title: okw.OKW_Memorize_Sngltn.getInstance Pages: 1 -->
<svg width="431pt" height="2109pt"
 viewBox="0.00 0.00 431.00 2109.00" xmlns="http://www.w3.org/2000/svg" xmlns:xlink="http://www.w3.org/1999/xlink">
<g id="graph0" class="graph" transform="scale(1 1) rotate(0) translate(4 2105)">
<title>okw.OKW_Memorize_Sngltn.getInstance</title>
<polygon fill="white" stroke="none" points="-4,4 -4,-2105 427,-2105 427,4 -4,4"/>
<!-- Node79 -->
<g id="node1" class="node"><title>Node79</title>
<g id="a_node1"><a xlink:title="Diese Methode gibt die einzige Instanz dieser Klasse zurück.">
<polygon fill="#bfbfbf" stroke="black" points="257,-1051 257,-1081 423,-1081 423,-1051 257,-1051"/>
<text text-anchor="start" x="265" y="-1069" font-family="Helvetica,sans-Serif" font-size="10.00">okw.OKW_Memorize_Sngltn.get</text>
<text text-anchor="middle" x="340" y="-1058" font-family="Helvetica,sans-Serif" font-size="10.00">Instance</text>
</a>
</g>
</g>
<!-- Node80 -->
<g id="node2" class="node"><title>Node80</title>
<g id="a_node2"><a xlink:href="classokw_1_1core_1_1_n_o_k.html#a62d1765ea311e440d678cb57ca9dd2c2" target="_top" xlink:title="Markiert den Anfang eines neuen Testfalls.">
<polygon fill="white" stroke="black" points="45,-2081.5 45,-2100.5 176,-2100.5 176,-2081.5 45,-2081.5"/>
<text text-anchor="middle" x="110.5" y="-2088.5" font-family="Helvetica,sans-Serif" font-size="10.00">okw.core.NOK.BeginTest</text>
</a>
</g>
</g>
<!-- Node79&#45;&gt;Node80 -->
<g id="edge1" class="edge"><title>Node79&#45;&gt;Node80</title>
<path fill="none" stroke="midnightblue" d="M337.815,-1091.33C330.618,-1240.29 290.723,-1998.33 221,-2072 209.395,-2084.26 192.931,-2090.36 176.285,-2093.08"/>
<polygon fill="midnightblue" stroke="midnightblue" points="341.313,-1091.46 338.294,-1081.31 334.321,-1091.13 341.313,-1091.46"/>
</g>
<!-- Node81 -->
<g id="node3" class="node"><title>Node81</title>
<g id="a_node3"><a xlink:href="classokw_1_1core_1_1_o_k.html#a489e2b7840bff76a76cc77a616affc69" target="_top" xlink:title="Klasse representiert den Zustand &quot;OK&quot; des OKW&#45;Kerns im Ausführungsmodus.">
<polygon fill="white" stroke="black" points="65,-2043.5 65,-2062.5 156,-2062.5 156,-2043.5 65,-2043.5"/>
<text text-anchor="middle" x="110.5" y="-2050.5" font-family="Helvetica,sans-Serif" font-size="10.00">okw.core.OK.OK</text>
</a>
</g>
</g>
<!-- Node79&#45;&gt;Node81 -->
<g id="edge2" class="edge"><title>Node79&#45;&gt;Node81</title>
<path fill="none" stroke="midnightblue" d="M337.697,-1091.26C329.964,-1236.72 288.148,-1963.37 221,-2034 204.648,-2051.2 178.731,-2056.26 156.215,-2056.87"/>
<polygon fill="midnightblue" stroke="midnightblue" points="341.201,-1091.27 338.232,-1081.1 334.211,-1090.9 341.201,-1091.27"/>
</g>
<!-- Node82 -->
<g id="node4" class="node"><title>Node82</title>
<g id="a_node4"><a xlink:href="classokw_1_1core_1_1_o_k.html#a594d5a3518a401240bc1868f5883a393" target="_top" xlink:title="Markiert den Anfang eines neuen Testfalls.">
<polygon fill="white" stroke="black" points="49,-2005.5 49,-2024.5 172,-2024.5 172,-2005.5 49,-2005.5"/>
<text text-anchor="middle" x="110.5" y="-2012.5" font-family="Helvetica,sans-Serif" font-size="10.00">okw.core.OK.BeginTest</text>
</a>
</g>
</g>
<!-- Node79&#45;&gt;Node82 -->
<g id="edge3" class="edge"><title>Node79&#45;&gt;Node82</title>
<path fill="none" stroke="midnightblue" d="M337.546,-1091.6C329.203,-1234.39 285.516,-1928.47 221,-1996 208.404,-2009.18 190.187,-2015.22 172.214,-2017.6"/>
<polygon fill="midnightblue" stroke="midnightblue" points="341.062,-1091.42 338.146,-1081.23 334.074,-1091.02 341.062,-1091.42"/>
</g>
<!-- Node83 -->
<g id="node5" class="node"><title>Node83</title>
<g id="a_node5"><a xlink:href="classokw_1_1core_1_1_e_n___keywords___a_n_t_l_r___test.html#a014ad937ba05658b9530788f42340ca4" target="_top" xlink:title="Prüft das Schlüsselwort &quot;BeginTest&quot; mit dem Testziel, dass der aktuelle Testfallname unter dem MemKey...">
<polygon fill="white" stroke="black" points="40.5,-1945.5 40.5,-1986.5 180.5,-1986.5 180.5,-1945.5 40.5,-1945.5"/>
<text text-anchor="start" x="48.5" y="-1974.5" font-family="Helvetica,sans-Serif" font-size="10.00">okw.core.EN_Keywords</text>
<text text-anchor="start" x="48.5" y="-1963.5" font-family="Helvetica,sans-Serif" font-size="10.00">_ANTLR_Test.tc_BeginTest</text>
<text text-anchor="middle" x="110.5" y="-1952.5" font-family="Helvetica,sans-Serif" font-size="10.00">_TestCaseName</text>
</a>
</g>
</g>
<!-- Node79&#45;&gt;Node83 -->
<g id="edge4" class="edge"><title>Node79&#45;&gt;Node83</title>
<path fill="none" stroke="midnightblue" d="M339.185,-1091.31C339.613,-1220.54 335.145,-1805.62 221,-1936 210.548,-1947.94 195.842,-1955.34 180.591,-1959.87"/>
<polygon fill="midnightblue" stroke="midnightblue" points="342.685,-1091.18 339.138,-1081.2 335.685,-1091.21 342.685,-1091.18"/>
</g>
<!-- Node84 -->
<g id="node6" class="node"><title>Node84</title>
<g id="a_node6"><a xlink:href="classokw_1_1core_1_1_e_n___keywords___a_n_t_l_r___test.html#ac0a6a39b3b4d075d2b76ebf53135917c" target="_top" xlink:title="Prüft das Keyword Select() mit dem Testziel ob gemerkte Werte richtig eingesetzt werden.">
<polygon fill="white" stroke="black" points="48.5,-1885.5 48.5,-1926.5 172.5,-1926.5 172.5,-1885.5 48.5,-1885.5"/>
<text text-anchor="start" x="56.5" y="-1914.5" font-family="Helvetica,sans-Serif" font-size="10.00">okw.core.EN_Keywords</text>
<text text-anchor="start" x="56.5" y="-1903.5" font-family="Helvetica,sans-Serif" font-size="10.00">_ANTLR_Test.tc_Select</text>
<text text-anchor="middle" x="110.5" y="-1892.5" font-family="Helvetica,sans-Serif" font-size="10.00">_MemorizedValue</text>
</a>
</g>
</g>
<!-- Node79&#45;&gt;Node84 -->
<g id="edge5" class="edge"><title>Node79&#45;&gt;Node84</title>
<path fill="none" stroke="midnightblue" d="M338.906,-1091.12C337.933,-1214.54 327.567,-1755.48 221,-1876 208.661,-1889.95 190.511,-1897.69 172.521,-1901.91"/>
<polygon fill="midnightblue" stroke="midnightblue" points="342.406,-1091.13 338.971,-1081.11 335.406,-1091.09 342.406,-1091.13"/>
</g>
<!-- Node85 -->
<g id="node7" class="node"><title>Node85</title>
<g id="a_node7"><a xlink:href="classokw_1_1core_1_1_e_n___keywords___a_n_t_l_r___test.html#ad94a67c11ac92a924216a98e684cfd83" target="_top" xlink:title="Prüft das Schlüsselwort Select mit dem Ziel ob gemerkte Werte richtig eingesetzt werden.">
<polygon fill="white" stroke="black" points="45,-1825.5 45,-1866.5 176,-1866.5 176,-1825.5 45,-1825.5"/>
<text text-anchor="start" x="53" y="-1854.5" font-family="Helvetica,sans-Serif" font-size="10.00">okw.core.EN_Keywords</text>
<text text-anchor="start" x="53" y="-1843.5" font-family="Helvetica,sans-Serif" font-size="10.00">_ANTLR_Test.tc_Typekey</text>
<text text-anchor="middle" x="110.5" y="-1832.5" font-family="Helvetica,sans-Serif" font-size="10.00">_MemorizedValue</text>
</a>
</g>
</g>
<!-- Node79&#45;&gt;Node85 -->
<g id="edge6" class="edge"><title>Node79&#45;&gt;Node85</title>
<path fill="none" stroke="midnightblue" d="M338.577,-1091.48C336.093,-1209.91 319.853,-1705.48 221,-1816 209.436,-1828.93 192.884,-1836.51 176.138,-1840.9"/>
<polygon fill="midnightblue" stroke="midnightblue" points="342.081,-1091.29 338.776,-1081.22 335.082,-1091.15 342.081,-1091.29"/>
</g>
<!-- Node86 -->
<g id="node8" class="node"><title>Node86</title>
<g id="a_node8"><a xlink:href="classokw_1_1core_1_1_e_n___keywords___a_n_t_l_r___test.html#abdee71d00398ea1cae2d3a41e4b424d8" target="_top" xlink:title=" ">
<polygon fill="white" stroke="black" points="36.5,-1765.5 36.5,-1806.5 184.5,-1806.5 184.5,-1765.5 36.5,-1765.5"/>
<text text-anchor="start" x="44.5" y="-1794.5" font-family="Helvetica,sans-Serif" font-size="10.00">okw.core.EN_Keywords</text>
<text text-anchor="start" x="44.5" y="-1783.5" font-family="Helvetica,sans-Serif" font-size="10.00">_ANTLR_Test.tc_VerifyExists</text>
<text text-anchor="middle" x="110.5" y="-1772.5" font-family="Helvetica,sans-Serif" font-size="10.00">_MemorizedValue</text>
</a>
</g>
</g>
<!-- Node79&#45;&gt;Node86 -->
<g id="edge7" class="edge"><title>Node79&#45;&gt;Node86</title>
<path fill="none" stroke="midnightblue" d="M338.204,-1091.22C334.158,-1203.32 312.333,-1655.24 221,-1756 211.336,-1766.66 198.28,-1773.68 184.552,-1778.27"/>
<polygon fill="midnightblue" stroke="midnightblue" points="341.703,-1091.3 338.551,-1081.18 334.708,-1091.05 341.703,-1091.3"/>
</g>
<!-- Node87 -->
<g id="node9" class="node"><title>Node87</title>
<g id="a_node9"><a xlink:href="classokw_1_1core_1_1_e_n___keywords___a_n_t_l_r___test.html#a1e9e874c23e82fb5e08b5be8ac3b277b" target="_top" xlink:title=" ">
<polygon fill="white" stroke="black" points="27,-1705.5 27,-1746.5 194,-1746.5 194,-1705.5 27,-1705.5"/>
<text text-anchor="start" x="35" y="-1734.5" font-family="Helvetica,sans-Serif" font-size="10.00">okw.core.EN_Keywords</text>
<text text-anchor="start" x="35" y="-1723.5" font-family="Helvetica,sans-Serif" font-size="10.00">_ANTLR_Test.tc_VerifyHasFocus</text>
<text text-anchor="middle" x="110.5" y="-1712.5" font-family="Helvetica,sans-Serif" font-size="10.00">_MemorizedValue</text>
</a>
</g>
</g>
<!-- Node79&#45;&gt;Node87 -->
<g id="edge8" class="edge"><title>Node79&#45;&gt;Node87</title>
<path fill="none" stroke="midnightblue" d="M337.747,-1091.38C331.998,-1197.59 304.727,-1605.09 221,-1696 213.589,-1704.05 204.245,-1710.01 194.154,-1714.43"/>
<polygon fill="midnightblue" stroke="midnightblue" points="341.249,-1091.43 338.278,-1081.26 334.259,-1091.07 341.249,-1091.43"/>
</g>
<!-- Node88 -->
<g id="node10" class="node"><title>Node88</title>
<g id="a_node10"><a xlink:href="classokw_1_1core_1_1_e_n___keywords___a_n_t_l_r___test.html#a48924242e07099955b1134ab59fefe98" target="_top" xlink:title=" ">
<polygon fill="white" stroke="black" points="32,-1645.5 32,-1686.5 189,-1686.5 189,-1645.5 32,-1645.5"/>
<text text-anchor="start" x="40" y="-1674.5" font-family="Helvetica,sans-Serif" font-size="10.00">okw.core.EN_Keywords</text>
<text text-anchor="start" x="40" y="-1663.5" font-family="Helvetica,sans-Serif" font-size="10.00">_ANTLR_Test.tc_VerifyIsActive</text>
<text text-anchor="middle" x="110.5" y="-1652.5" font-family="Helvetica,sans-Serif" font-size="10.00">_MemorizedValue</text>
</a>
</g>
</g>
<!-- Node79&#45;&gt;Node88 -->
<g id="edge9" class="edge"><title>Node79&#45;&gt;Node88</title>
<path fill="none" stroke="midnightblue" d="M337.219,-1091.18C329.686,-1190.65 297.245,-1554.77 221,-1636 212.299,-1645.27 201.031,-1651.77 189.043,-1656.31"/>
<polygon fill="midnightblue" stroke="midnightblue" points="340.715,-1091.37 337.962,-1081.14 333.734,-1090.85 340.715,-1091.37"/>
</g>
<!-- Node89 -->
<g id="node11" class="node"><title>Node89</title>
<g id="a_node11"><a xlink:href="classokw_1_1core_1_1_e_n___keywords___a_n_t_l_r___test.html#af31f438ffbce92f023f86a4ce815cc66" target="_top" xlink:title=" ">
<polygon fill="white" stroke="black" points="32,-1585.5 32,-1626.5 189,-1626.5 189,-1585.5 32,-1585.5"/>
<text text-anchor="start" x="40" y="-1614.5" font-family="Helvetica,sans-Serif" font-size="10.00">okw.core.EN_Keywords</text>
<text text-anchor="start" x="40" y="-1603.5" font-family="Helvetica,sans-Serif" font-size="10.00">_ANTLR_Test.tc_VerifyCaption</text>
<text text-anchor="middle" x="110.5" y="-1592.5" font-family="Helvetica,sans-Serif" font-size="10.00">_MemorizedValue</text>
</a>
</g>
</g>
<!-- Node79&#45;&gt;Node89 -->
<g id="edge10" class="edge"><title>Node79&#45;&gt;Node89</title>
<path fill="none" stroke="midnightblue" d="M336.557,-1091.18C327.071,-1183.87 289.747,-1504.44 221,-1576 212.26,-1585.1 201.047,-1591.52 189.142,-1596.04"/>
<polygon fill="midnightblue" stroke="midnightblue" points="340.059,-1091.33 337.576,-1081.03 333.094,-1090.63 340.059,-1091.33"/>
</g>
<!-- Node90 -->
<g id="node12" class="node"><title>Node90</title>
<g id="a_node12"><a xlink:href="classokw_1_1core_1_1_e_n___keywords___a_n_t_l_r___test.html#a1b63acea80fde6a7d214854cb2d00241" target="_top" xlink:title=" ">
<polygon fill="white" stroke="black" points="32,-1525.5 32,-1566.5 189,-1566.5 189,-1525.5 32,-1525.5"/>
<text text-anchor="start" x="40" y="-1554.5" font-family="Helvetica,sans-Serif" font-size="10.00">okw.core.EN_Keywords</text>
<text text-anchor="start" x="40" y="-1543.5" font-family="Helvetica,sans-Serif" font-size="10.00">_ANTLR_Test.tc_VerifyCaption</text>
<text text-anchor="middle" x="110.5" y="-1532.5" font-family="Helvetica,sans-Serif" font-size="10.00">REGX_MemorizedValue</text>
</a>
</g>
</g>
<!-- Node79&#45;&gt;Node90 -->
<g id="edge11" class="edge"><title>Node79&#45;&gt;Node90</title>
<path fill="none" stroke="midnightblue" d="M335.678,-1091.52C324.001,-1177.41 282.213,-1454.11 221,-1516 212.198,-1524.9 201.026,-1531.23 189.2,-1535.72"/>
<polygon fill="midnightblue" stroke="midnightblue" points="339.18,-1091.73 337.039,-1081.36 332.242,-1090.8 339.18,-1091.73"/>
</g>
<!-- Node91 -->
<g id="node13" class="node"><title>Node91</title>
<g id="a_node13"><a xlink:href="classokw_1_1core_1_1_e_n___keywords___a_n_t_l_r___test.html#a3f7653664be8e4b3d0394146907c0f53" target="_top" xlink:title=" ">
<polygon fill="white" stroke="black" points="32,-1465.5 32,-1506.5 189,-1506.5 189,-1465.5 32,-1465.5"/>
<text text-anchor="start" x="40" y="-1494.5" font-family="Helvetica,sans-Serif" font-size="10.00">okw.core.EN_Keywords</text>
<text text-anchor="start" x="40" y="-1483.5" font-family="Helvetica,sans-Serif" font-size="10.00">_ANTLR_Test.tc_VerifyCaption</text>
<text text-anchor="middle" x="110.5" y="-1472.5" font-family="Helvetica,sans-Serif" font-size="10.00">WCM_MemorizedValue</text>
</a>
</g>
</g>
<!-- Node79&#45;&gt;Node91 -->
<g id="edge12" class="edge"><title>Node79&#45;&gt;Node91</title>
<path fill="none" stroke="midnightblue" d="M339.221,-1091.71C338.362,-1161.06 326.129,-1353.61 221,-1456 212.104,-1464.66 200.955,-1470.88 189.201,-1475.33"/>
<polygon fill="midnightblue" stroke="midnightblue" points="342.723,-1091.33 339.273,-1081.31 335.723,-1091.29 342.723,-1091.33"/>
</g>
<!-- Node92 -->
<g id="node14" class="node"><title>Node92</title>
<g id="a_node14"><a xlink:href="classokw_1_1core_1_1_e_n___keywords___a_n_t_l_r___test.html#aa3552e4c8cbb84244d0a93a3db442d80" target="_top" xlink:title=" ">
<polygon fill="white" stroke="black" points="37.5,-1405.5 37.5,-1446.5 183.5,-1446.5 183.5,-1405.5 37.5,-1405.5"/>
<text text-anchor="start" x="45.5" y="-1434.5" font-family="Helvetica,sans-Serif" font-size="10.00">okw.core.EN_Keywords</text>
<text text-anchor="start" x="45.5" y="-1423.5" font-family="Helvetica,sans-Serif" font-size="10.00">_ANTLR_Test.tc_VerifyLabel</text>
<text text-anchor="middle" x="110.5" y="-1412.5" font-family="Helvetica,sans-Serif" font-size="10.00">_MemorizedValue</text>
</a>
</g>
</g>
<!-- Node79&#45;&gt;Node92 -->
<g id="edge13" class="edge"><title>Node79&#45;&gt;Node92</title>
<path fill="none" stroke="midnightblue" d="M337.595,-1091.47C332.78,-1153.2 311.746,-1311.9 221,-1396 210.591,-1405.65 197.375,-1412.24 183.755,-1416.73"/>
<polygon fill="midnightblue" stroke="midnightblue" points="341.113,-1091.33 338.318,-1081.11 334.13,-1090.84 341.113,-1091.33"/>
</g>
<!-- Node93 -->
<g id="node15" class="node"><title>Node93</title>
<g id="a_node15"><a xlink:href="classokw_1_1core_1_1_e_n___keywords___a_n_t_l_r___test.html#a389abd728853cdcf69faae5b1763878e" target="_top" xlink:title=" ">
<polygon fill="white" stroke="black" points="26,-1345.5 26,-1386.5 195,-1386.5 195,-1345.5 26,-1345.5"/>
<text text-anchor="start" x="34" y="-1374.5" font-family="Helvetica,sans-Serif" font-size="10.00">okw.core.EN_Keywords</text>
<text text-anchor="start" x="34" y="-1363.5" font-family="Helvetica,sans-Serif" font-size="10.00">_ANTLR_Test.tc_VerifyLabelWCM</text>
<text text-anchor="middle" x="110.5" y="-1352.5" font-family="Helvetica,sans-Serif" font-size="10.00">_MemorizedValue</text>
</a>
</g>
</g>
<!-- Node79&#45;&gt;Node93 -->
<g id="edge14" class="edge"><title>Node79&#45;&gt;Node93</title>
<path fill="none" stroke="midnightblue" d="M335.353,-1091.2C326.264,-1144.63 297.558,-1269.78 221,-1336 213.397,-1342.58 204.477,-1347.72 195.067,-1351.75"/>
<polygon fill="midnightblue" stroke="midnightblue" points="338.825,-1091.65 336.961,-1081.22 331.914,-1090.54 338.825,-1091.65"/>
</g>
<!-- Node94 -->
<g id="node16" class="node"><title>Node94</title>
<g id="a_node16"><a xlink:href="classokw_1_1core_1_1_e_n___keywords___a_n_t_l_r___test.html#a7d3f82b882bb3d57869322402caf8edd" target="_top" xlink:title=" ">
<polygon fill="white" stroke="black" points="25,-1285.5 25,-1326.5 196,-1326.5 196,-1285.5 25,-1285.5"/>
<text text-anchor="start" x="33" y="-1314.5" font-family="Helvetica,sans-Serif" font-size="10.00">okw.core.EN_Keywords</text>
<text text-anchor="start" x="33" y="-1303.5" font-family="Helvetica,sans-Serif" font-size="10.00">_ANTLR_Test.tc_VerifyLabelREGX</text>
<text text-anchor="middle" x="110.5" y="-1292.5" font-family="Helvetica,sans-Serif" font-size="10.00">_MemorizedValue</text>
</a>
</g>
</g>
<!-- Node79&#45;&gt;Node94 -->
<g id="edge15" class="edge"><title>Node79&#45;&gt;Node94</title>
<path fill="none" stroke="midnightblue" d="M332.054,-1090.75C318.377,-1134.86 283.7,-1227.02 221,-1276 213.544,-1281.82 205.034,-1286.52 196.128,-1290.3"/>
<polygon fill="midnightblue" stroke="midnightblue" points="335.424,-1091.7 334.943,-1081.12 328.719,-1089.69 335.424,-1091.7"/>
</g>
<!-- Node95 -->
<g id="node17" class="node"><title>Node95</title>
<g id="a_node17"><a xlink:href="classokw_1_1core_1_1_e_n___keywords___a_n_t_l_r___test.html#a38469c3be9d34d940c079d57dd294c84" target="_top" xlink:title=" ">
<polygon fill="white" stroke="black" points="24,-1225.5 24,-1266.5 197,-1266.5 197,-1225.5 24,-1225.5"/>
<text text-anchor="start" x="32" y="-1254.5" font-family="Helvetica,sans-Serif" font-size="10.00">okw.core.EN_Keywords</text>
<text text-anchor="start" x="32" y="-1243.5" font-family="Helvetica,sans-Serif" font-size="10.00">_ANTLR_Test.tc_VerifyMaxLength</text>
<text text-anchor="middle" x="110.5" y="-1232.5" font-family="Helvetica,sans-Serif" font-size="10.00">MemorizedValue</text>
</a>
</g>
</g>
<!-- Node79&#45;&gt;Node95 -->
<g id="edge16" class="edge"><title>Node79&#45;&gt;Node95</title>
<path fill="none" stroke="midnightblue" d="M326.336,-1090.5C307.774,-1123.96 270.001,-1183.49 221,-1216 213.691,-1220.85 205.615,-1224.92 197.258,-1228.33"/>
<polygon fill="midnightblue" stroke="midnightblue" points="329.577,-1091.87 331.264,-1081.41 323.423,-1088.53 329.577,-1091.87"/>
</g>
<!-- Node96 -->
<g id="node18" class="node"><title>Node96</title>
<g id="a_node18"><a xlink:href="classokw_1_1core_1_1_e_n___keywords___a_n_t_l_r___test.html#a3f722728dc3541a08f029eb1be36059d" target="_top" xlink:title=" ">
<polygon fill="white" stroke="black" points="22.5,-1165.5 22.5,-1206.5 198.5,-1206.5 198.5,-1165.5 22.5,-1165.5"/>
<text text-anchor="start" x="30.5" y="-1194.5" font-family="Helvetica,sans-Serif" font-size="10.00">okw.core.EN_Keywords</text>
<text text-anchor="start" x="30.5" y="-1183.5" font-family="Helvetica,sans-Serif" font-size="10.00">_ANTLR_Test.tc_VerifyPlaceholder</text>
<text text-anchor="middle" x="110.5" y="-1172.5" font-family="Helvetica,sans-Serif" font-size="10.00">_MemorizedValue</text>
</a>
</g>
</g>
<!-- Node79&#45;&gt;Node96 -->
<g id="edge17" class="edge"><title>Node79&#45;&gt;Node96</title>
<path fill="none" stroke="midnightblue" d="M315.776,-1088.1C293.212,-1108.45 257.149,-1138.11 221,-1156 213.933,-1159.5 206.402,-1162.63 198.723,-1165.44"/>
<polygon fill="midnightblue" stroke="midnightblue" points="318.163,-1090.66 323.173,-1081.32 313.435,-1085.5 318.163,-1090.66"/>
</g>
<!-- Node97 -->
<g id="node19" class="node"><title>Node97</title>
<g id="a_node19"><a xlink:href="classokw_1_1core_1_1_e_n___keywords___a_n_t_l_r___test.html#ac49fd3b2a0531ce9803aa75dbfec90a1" target="_top" xlink:title=" ">
<polygon fill="white" stroke="black" points="22.5,-1105.5 22.5,-1146.5 198.5,-1146.5 198.5,-1105.5 22.5,-1105.5"/>
<text text-anchor="start" x="30.5" y="-1134.5" font-family="Helvetica,sans-Serif" font-size="10.00">okw.core.EN_Keywords</text>
<text text-anchor="start" x="30.5" y="-1123.5" font-family="Helvetica,sans-Serif" font-size="10.00">_ANTLR_Test.tc_VerifyPlaceholder</text>
<text text-anchor="middle" x="110.5" y="-1112.5" font-family="Helvetica,sans-Serif" font-size="10.00">WCM_MemorizedValue</text>
</a>
</g>
</g>
<!-- Node79&#45;&gt;Node97 -->
<g id="edge18" class="edge"><title>Node79&#45;&gt;Node97</title>
<path fill="none" stroke="midnightblue" d="M272.135,-1083.63C246.152,-1090.49 216.211,-1098.38 189.272,-1105.49"/>
<polygon fill="midnightblue" stroke="midnightblue" points="273.109,-1087 281.886,-1081.06 271.324,-1080.23 273.109,-1087"/>
</g>
<!-- Node98 -->
<g id="node20" class="node"><title>Node98</title>
<g id="a_node20"><a xlink:href="classokw_1_1core_1_1_e_n___keywords___a_n_t_l_r___test.html#aecda43fced030eae7a15d375e7204b8c" target="_top" xlink:title=" ">
<polygon fill="white" stroke="black" points="22.5,-1045.5 22.5,-1086.5 198.5,-1086.5 198.5,-1045.5 22.5,-1045.5"/>
<text text-anchor="start" x="30.5" y="-1074.5" font-family="Helvetica,sans-Serif" font-size="10.00">okw.core.EN_Keywords</text>
<text text-anchor="start" x="30.5" y="-1063.5" font-family="Helvetica,sans-Serif" font-size="10.00">_ANTLR_Test.tc_VerifyPlaceholder</text>
<text text-anchor="middle" x="110.5" y="-1052.5" font-family="Helvetica,sans-Serif" font-size="10.00">REGX_MemorizedValue</text>
</a>
</g>
</g>
<!-- Node79&#45;&gt;Node98 -->
<g id="edge19" class="edge"><title>Node79&#45;&gt;Node98</title>
<path fill="none" stroke="midnightblue" d="M246.535,-1066C230.665,-1066 214.222,-1066 198.502,-1066"/>
<polygon fill="midnightblue" stroke="midnightblue" points="246.867,-1069.5 256.867,-1066 246.867,-1062.5 246.867,-1069.5"/>
</g>
<!-- Node99 -->
<g id="node21" class="node"><title>Node99</title>
<g id="a_node21"><a xlink:href="classokw_1_1core_1_1_e_n___keywords___a_n_t_l_r___test.html#a2e571d88e1e787c667895a18569f0ca7" target="_top" xlink:title=" ">
<polygon fill="white" stroke="black" points="29.5,-985.5 29.5,-1026.5 191.5,-1026.5 191.5,-985.5 29.5,-985.5"/>
<text text-anchor="start" x="37.5" y="-1014.5" font-family="Helvetica,sans-Serif" font-size="10.00">okw.core.EN_Keywords</text>
<text text-anchor="start" x="37.5" y="-1003.5" font-family="Helvetica,sans-Serif" font-size="10.00">_ANTLR_Test.tc_VerifySelected</text>
<text text-anchor="middle" x="110.5" y="-992.5" font-family="Helvetica,sans-Serif" font-size="10.00">Value_MemorizedValue</text>
</a>
</g>
</g>
<!-- Node79&#45;&gt;Node99 -->
<g id="edge20" class="edge"><title>Node79&#45;&gt;Node99</title>
<path fill="none" stroke="midnightblue" d="M272.135,-1048.37C246.152,-1041.51 216.211,-1033.62 189.272,-1026.51"/>
<polygon fill="midnightblue" stroke="midnightblue" points="271.324,-1051.77 281.886,-1050.94 273.109,-1045 271.324,-1051.77"/>
</g>
<!-- Node100 -->
<g id="node22" class="node"><title>Node100</title>
<g id="a_node22"><a xlink:href="classokw_1_1core_1_1_e_n___keywords___a_n_t_l_r___test.html#ac65694140f96753ef21de8aeedd96f20" target="_top" xlink:title=" ">
<polygon fill="white" stroke="black" points="29.5,-925.5 29.5,-966.5 191.5,-966.5 191.5,-925.5 29.5,-925.5"/>
<text text-anchor="start" x="37.5" y="-954.5" font-family="Helvetica,sans-Serif" font-size="10.00">okw.core.EN_Keywords</text>
<text text-anchor="start" x="37.5" y="-943.5" font-family="Helvetica,sans-Serif" font-size="10.00">_ANTLR_Test.tc_VerifySelected</text>
<text text-anchor="middle" x="110.5" y="-932.5" font-family="Helvetica,sans-Serif" font-size="10.00">ValueWCM_MemorizedValue</text>
</a>
</g>
</g>
<!-- Node79&#45;&gt;Node100 -->
<g id="edge21" class="edge"><title>Node79&#45;&gt;Node100</title>
<path fill="none" stroke="midnightblue" d="M315.776,-1043.9C293.212,-1023.55 257.149,-993.888 221,-976 211.813,-971.454 201.841,-967.517 191.781,-964.13"/>
<polygon fill="midnightblue" stroke="midnightblue" points="313.435,-1046.5 323.173,-1050.68 318.163,-1041.34 313.435,-1046.5"/>
</g>
<!-- Node101 -->
<g id="node23" class="node"><title>Node101</title>
<g id="a_node23"><a xlink:href="classokw_1_1core_1_1_e_n___keywords___a_n_t_l_r___test.html#a505217891e0dfdbf994620b9a7502456" target="_top" xlink:title=" ">
<polygon fill="white" stroke="black" points="29.5,-865.5 29.5,-906.5 191.5,-906.5 191.5,-865.5 29.5,-865.5"/>
<text text-anchor="start" x="37.5" y="-894.5" font-family="Helvetica,sans-Serif" font-size="10.00">okw.core.EN_Keywords</text>
<text text-anchor="start" x="37.5" y="-883.5" font-family="Helvetica,sans-Serif" font-size="10.00">_ANTLR_Test.tc_VerifySelected</text>
<text text-anchor="middle" x="110.5" y="-872.5" font-family="Helvetica,sans-Serif" font-size="10.00">ValueREGX_MemorizedValue</text>
</a>
</g>
</g>
<!-- Node79&#45;&gt;Node101 -->
<g id="edge22" class="edge"><title>Node79&#45;&gt;Node101</title>
<path fill="none" stroke="midnightblue" d="M326.336,-1041.5C307.774,-1008.04 270.001,-948.513 221,-916 212.049,-910.061 201.946,-905.29 191.588,-901.461"/>
<polygon fill="midnightblue" stroke="midnightblue" points="323.423,-1043.47 331.264,-1050.59 329.577,-1040.13 323.423,-1043.47"/>
</g>
<!-- Node102 -->
<g id="node24" class="node"><title>Node102</title>
<g id="a_node24"><a xlink:href="classokw_1_1core_1_1_e_n___keywords___a_n_t_l_r___test.html#ad488b27ee66727f62b2ca7ad77d13603" target="_top" xlink:title=" ">
<polygon fill="white" stroke="black" points="30.5,-805.5 30.5,-846.5 190.5,-846.5 190.5,-805.5 30.5,-805.5"/>
<text text-anchor="start" x="38.5" y="-834.5" font-family="Helvetica,sans-Serif" font-size="10.00">okw.core.EN_Keywords</text>
<text text-anchor="start" x="38.5" y="-823.5" font-family="Helvetica,sans-Serif" font-size="10.00">_ANTLR_Test.tc_VerifyTablecell</text>
<text text-anchor="middle" x="110.5" y="-812.5" font-family="Helvetica,sans-Serif" font-size="10.00">Value_MemorizedValue</text>
</a>
</g>
</g>
<!-- Node79&#45;&gt;Node102 -->
<g id="edge23" class="edge"><title>Node79&#45;&gt;Node102</title>
<path fill="none" stroke="midnightblue" d="M332.054,-1041.25C318.377,-997.138 283.7,-904.977 221,-856 211.991,-848.962 201.443,-843.574 190.516,-839.448"/>
<polygon fill="midnightblue" stroke="midnightblue" points="328.719,-1042.31 334.943,-1050.88 335.424,-1040.3 328.719,-1042.31"/>
</g>
<!-- Node103 -->
<g id="node25" class="node"><title>Node103</title>
<g id="a_node25"><a xlink:href="classokw_1_1core_1_1_e_n___keywords___a_n_t_l_r___test.html#a001e269537cc59c4573e8dd2275550b0" target="_top" xlink:title=" ">
<polygon fill="white" stroke="black" points="30.5,-745.5 30.5,-786.5 190.5,-786.5 190.5,-745.5 30.5,-745.5"/>
<text text-anchor="start" x="38.5" y="-774.5" font-family="Helvetica,sans-Serif" font-size="10.00">okw.core.EN_Keywords</text>
<text text-anchor="start" x="38.5" y="-763.5" font-family="Helvetica,sans-Serif" font-size="10.00">_ANTLR_Test.tc_VerifyTablecell</text>
<text text-anchor="middle" x="110.5" y="-752.5" font-family="Helvetica,sans-Serif" font-size="10.00">ValueWCM_MemorizedValue</text>
</a>
</g>
</g>
<!-- Node79&#45;&gt;Node103 -->
<g id="edge24" class="edge"><title>Node79&#45;&gt;Node103</title>
<path fill="none" stroke="midnightblue" d="M335.353,-1040.8C326.264,-987.373 297.558,-862.217 221,-796 212.204,-788.392 201.646,-782.698 190.606,-778.439"/>
<polygon fill="midnightblue" stroke="midnightblue" points="331.914,-1041.46 336.961,-1050.78 338.825,-1040.35 331.914,-1041.46"/>
</g>
<!-- Node104 -->
<g id="node26" class="node"><title>Node104</title>
<g id="a_node26"><a xlink:href="classokw_1_1core_1_1_e_n___keywords___a_n_t_l_r___test.html#aafdbe96a6c5be9db76e7f18c36f0a463" target="_top" xlink:title=" ">
<polygon fill="white" stroke="black" points="30.5,-685.5 30.5,-726.5 190.5,-726.5 190.5,-685.5 30.5,-685.5"/>
<text text-anchor="start" x="38.5" y="-714.5" font-family="Helvetica,sans-Serif" font-size="10.00">okw.core.EN_Keywords</text>
<text text-anchor="start" x="38.5" y="-703.5" font-family="Helvetica,sans-Serif" font-size="10.00">_ANTLR_Test.tc_VerifyTablecell</text>
<text text-anchor="middle" x="110.5" y="-692.5" font-family="Helvetica,sans-Serif" font-size="10.00">ValueREGX_MemorizedValue</text>
</a>
</g>
</g>
<!-- Node79&#45;&gt;Node104 -->
<g id="edge25" class="edge"><title>Node79&#45;&gt;Node104</title>
<path fill="none" stroke="midnightblue" d="M337.595,-1040.53C332.78,-978.803 311.746,-820.099 221,-736 212.326,-727.961 201.702,-722.042 190.52,-717.692"/>
<polygon fill="midnightblue" stroke="midnightblue" points="334.13,-1041.16 338.318,-1050.89 341.113,-1040.67 334.13,-1041.16"/>
</g>
<!-- Node105 -->
<g id="node27" class="node"><title>Node105</title>
<g id="a_node27"><a xlink:href="classokw_1_1core_1_1_e_n___keywords___a_n_t_l_r___test.html#af6fc2eaf63a00647e7cf20878a2b7536" target="_top" xlink:title=" ">
<polygon fill="white" stroke="black" points="35.5,-625.5 35.5,-666.5 185.5,-666.5 185.5,-625.5 35.5,-625.5"/>
<text text-anchor="start" x="43.5" y="-654.5" font-family="Helvetica,sans-Serif" font-size="10.00">okw.core.EN_Keywords</text>
<text text-anchor="start" x="43.5" y="-643.5" font-family="Helvetica,sans-Serif" font-size="10.00">_ANTLR_Test.tc_VerifyTooltip</text>
<text text-anchor="middle" x="110.5" y="-632.5" font-family="Helvetica,sans-Serif" font-size="10.00">_MemorizedValue</text>
</a>
</g>
</g>
<!-- Node79&#45;&gt;Node105 -->
<g id="edge26" class="edge"><title>Node79&#45;&gt;Node105</title>
<path fill="none" stroke="midnightblue" d="M339.221,-1040.29C338.362,-970.939 326.129,-778.39 221,-676 211.186,-666.442 198.63,-659.862 185.545,-655.349"/>
<polygon fill="midnightblue" stroke="midnightblue" points="335.723,-1040.71 339.273,-1050.69 342.723,-1040.67 335.723,-1040.71"/>
</g>
<!-- Node106 -->
<g id="node28" class="node"><title>Node106</title>
<g id="a_node28"><a xlink:href="classokw_1_1core_1_1_e_n___keywords___a_n_t_l_r___test.html#a85eb5526ef91648ff781aba3346cae6b" target="_top" xlink:title=" ">
<polygon fill="white" stroke="black" points="35.5,-565.5 35.5,-606.5 185.5,-606.5 185.5,-565.5 35.5,-565.5"/>
<text text-anchor="start" x="43.5" y="-594.5" font-family="Helvetica,sans-Serif" font-size="10.00">okw.core.EN_Keywords</text>
<text text-anchor="start" x="43.5" y="-583.5" font-family="Helvetica,sans-Serif" font-size="10.00">_ANTLR_Test.tc_VerifyTooltip</text>
<text text-anchor="middle" x="110.5" y="-572.5" font-family="Helvetica,sans-Serif" font-size="10.00">WCM_MemorizedValue</text>
</a>
</g>
</g>
<!-- Node79&#45;&gt;Node106 -->
<g id="edge27" class="edge"><title>Node79&#45;&gt;Node106</title>
<path fill="none" stroke="midnightblue" d="M335.678,-1040.48C324.001,-954.59 282.213,-677.888 221,-616 211.297,-606.19 198.713,-599.502 185.55,-594.962"/>
<polygon fill="midnightblue" stroke="midnightblue" points="332.242,-1041.2 337.039,-1050.64 339.18,-1040.27 332.242,-1041.2"/>
</g>
<!-- Node107 -->
<g id="node29" class="node"><title>Node107</title>
<g id="a_node29"><a xlink:href="classokw_1_1core_1_1_e_n___keywords___a_n_t_l_r___test.html#a506e1580da5910a4b1694699db081588" target="_top" xlink:title=" ">
<polygon fill="white" stroke="black" points="35.5,-505.5 35.5,-546.5 185.5,-546.5 185.5,-505.5 35.5,-505.5"/>
<text text-anchor="start" x="43.5" y="-534.5" font-family="Helvetica,sans-Serif" font-size="10.00">okw.core.EN_Keywords</text>
<text text-anchor="start" x="43.5" y="-523.5" font-family="Helvetica,sans-Serif" font-size="10.00">_ANTLR_Test.tc_VerifyTooltip</text>
<text text-anchor="middle" x="110.5" y="-512.5" font-family="Helvetica,sans-Serif" font-size="10.00">REGX_MemorizedValue</text>
</a>
</g>
</g>
<!-- Node79&#45;&gt;Node107 -->
<g id="edge28" class="edge"><title>Node79&#45;&gt;Node107</title>
<path fill="none" stroke="midnightblue" d="M336.557,-1040.82C327.071,-948.133 289.747,-627.556 221,-556 211.441,-546.05 198.922,-539.299 185.777,-534.74"/>
<polygon fill="midnightblue" stroke="midnightblue" points="333.094,-1041.37 337.576,-1050.97 340.059,-1040.67 333.094,-1041.37"/>
</g>
<!-- Node108 -->
<g id="node30" class="node"><title>Node108</title>
<g id="a_node30"><a xlink:href="classokw_1_1core_1_1_e_n___keywords___a_n_t_l_r___test.html#aec41defef22482ea9a32bd654540ae50" target="_top" xlink:title=" ">
<polygon fill="white" stroke="black" points="37.5,-445.5 37.5,-486.5 183.5,-486.5 183.5,-445.5 37.5,-445.5"/>
<text text-anchor="start" x="45.5" y="-474.5" font-family="Helvetica,sans-Serif" font-size="10.00">okw.core.EN_Keywords</text>
<text text-anchor="start" x="45.5" y="-463.5" font-family="Helvetica,sans-Serif" font-size="10.00">_ANTLR_Test.tc_VerifyValue</text>
<text text-anchor="middle" x="110.5" y="-452.5" font-family="Helvetica,sans-Serif" font-size="10.00">_MemorizedValue</text>
</a>
</g>
</g>
<!-- Node79&#45;&gt;Node108 -->
<g id="edge29" class="edge"><title>Node79&#45;&gt;Node108</title>
<path fill="none" stroke="midnightblue" d="M337.219,-1040.82C329.686,-941.354 297.245,-577.229 221,-496 211.017,-485.365 197.657,-478.372 183.705,-473.803"/>
<polygon fill="midnightblue" stroke="midnightblue" points="333.734,-1041.15 337.962,-1050.86 340.715,-1040.63 333.734,-1041.15"/>
</g>
<!-- Node109 -->
<g id="node31" class="node"><title>Node109</title>
<g id="a_node31"><a xlink:href="classokw_1_1core_1_1_e_n___keywords___a_n_t_l_r___test.html#af439c47a1f9b1e2547e659db69fec77a" target="_top" xlink:title=" ">
<polygon fill="white" stroke="black" points="25.5,-385.5 25.5,-426.5 195.5,-426.5 195.5,-385.5 25.5,-385.5"/>
<text text-anchor="start" x="33.5" y="-414.5" font-family="Helvetica,sans-Serif" font-size="10.00">okw.core.EN_Keywords</text>
<text text-anchor="start" x="33.5" y="-403.5" font-family="Helvetica,sans-Serif" font-size="10.00">_ANTLR_Test.tc_VerifyValueWCM</text>
<text text-anchor="middle" x="110.5" y="-392.5" font-family="Helvetica,sans-Serif" font-size="10.00">_MemorizedValue</text>
</a>
</g>
</g>
<!-- Node79&#45;&gt;Node109 -->
<g id="edge30" class="edge"><title>Node79&#45;&gt;Node109</title>
<path fill="none" stroke="midnightblue" d="M337.747,-1040.62C331.998,-934.412 304.727,-526.914 221,-436 213.923,-428.316 205.083,-422.527 195.513,-418.179"/>
<polygon fill="midnightblue" stroke="midnightblue" points="334.259,-1040.93 338.278,-1050.74 341.249,-1040.57 334.259,-1040.93"/>
</g>
<!-- Node110 -->
<g id="node32" class="node"><title>Node110</title>
<g id="a_node32"><a xlink:href="classokw_1_1core_1_1_e_n___keywords___a_n_t_l_r___test.html#a4606d2338ceb754feed01d1fa66ab48c" target="_top" xlink:title=" ">
<polygon fill="white" stroke="black" points="24.5,-325.5 24.5,-366.5 196.5,-366.5 196.5,-325.5 24.5,-325.5"/>
<text text-anchor="start" x="32.5" y="-354.5" font-family="Helvetica,sans-Serif" font-size="10.00">okw.core.EN_Keywords</text>
<text text-anchor="start" x="32.5" y="-343.5" font-family="Helvetica,sans-Serif" font-size="10.00">_ANTLR_Test.tc_VerifyValueREGX</text>
<text text-anchor="middle" x="110.5" y="-332.5" font-family="Helvetica,sans-Serif" font-size="10.00">_MemorizedValue</text>
</a>
</g>
</g>
<!-- Node79&#45;&gt;Node110 -->
<g id="edge31" class="edge"><title>Node79&#45;&gt;Node110</title>
<path fill="none" stroke="midnightblue" d="M338.204,-1040.78C334.158,-928.676 312.333,-476.757 221,-376 214.249,-368.552 205.841,-362.881 196.706,-358.574"/>
<polygon fill="midnightblue" stroke="midnightblue" points="334.708,-1040.95 338.551,-1050.82 341.703,-1040.7 334.708,-1040.95"/>
</g>
<!-- Node111 -->
<g id="node33" class="node"><title>Node111</title>
<g id="a_node33"><a xlink:href="classokw_1_1core_1_1_e_n___keywords___a_n_t_l_r___test.html#ac84a83a02538a7ac9fadeb9d1ddcbed5" target="_top" xlink:title="Prüft das Keyword SetValue mit dem Ziel ob gemerkte Werte richtig verarbeitet werden.">
<polygon fill="white" stroke="black" points="42,-265.5 42,-306.5 179,-306.5 179,-265.5 42,-265.5"/>
<text text-anchor="start" x="50" y="-294.5" font-family="Helvetica,sans-Serif" font-size="10.00">okw.core.EN_Keywords</text>
<text text-anchor="start" x="50" y="-283.5" font-family="Helvetica,sans-Serif" font-size="10.00">_ANTLR_Test.tc_SetValue</text>
<text text-anchor="middle" x="110.5" y="-272.5" font-family="Helvetica,sans-Serif" font-size="10.00">_MemorizedValue</text>
</a>
</g>
</g>
<!-- Node79&#45;&gt;Node111 -->
<g id="edge32" class="edge"><title>Node79&#45;&gt;Node111</title>
<path fill="none" stroke="midnightblue" d="M338.577,-1040.52C336.093,-922.091 319.853,-426.523 221,-316 210.159,-303.879 194.933,-296.455 179.275,-291.959"/>
<polygon fill="midnightblue" stroke="midnightblue" points="335.082,-1040.85 338.776,-1050.78 342.081,-1040.71 335.082,-1040.85"/>
</g>
<!-- Node112 -->
<g id="node34" class="node"><title>Node112</title>
<g id="a_node34"><a xlink:href="classokw_1_1parser_1_1_o_k_w___visitor_test.html#a0859a9809c4c66da88c95311e732fa7a" target="_top" xlink:title="Prüft das lesen eines gemerkten Wertes.">
<polygon fill="white" stroke="black" points="31.5,-217 31.5,-247 189.5,-247 189.5,-217 31.5,-217"/>
<text text-anchor="start" x="39.5" y="-235" font-family="Helvetica,sans-Serif" font-size="10.00">okw.parser.OKW_VisitorTest.</text>
<text text-anchor="middle" x="110.5" y="-224" font-family="Helvetica,sans-Serif" font-size="10.00">TC_ParseMe_MemorizedValue</text>
</a>
</g>
</g>
<!-- Node79&#45;&gt;Node112 -->
<g id="edge33" class="edge"><title>Node79&#45;&gt;Node112</title>
<path fill="none" stroke="midnightblue" d="M339.029,-1040.77C338.644,-916.819 330.644,-373.731 221,-256 212.511,-246.885 201.423,-240.828 189.566,-236.869"/>
<polygon fill="midnightblue" stroke="midnightblue" points="335.529,-1040.83 339.046,-1050.82 342.529,-1040.81 335.529,-1040.83"/>
</g>
<!-- Node113 -->
<g id="node35" class="node"><title>Node113</title>
<g id="a_node35"><a xlink:href="classokw_1_1parser_1_1_o_k_w___visitor_test.html#a7480c7ffa9758fe572d0187c84a1ef86" target="_top" xlink:title="Testziel: OKW&#45;Variable File_OKWConst_xml auslesen.">
<polygon fill="white" stroke="black" points="36,-168 36,-198 185,-198 185,-168 36,-168"/>
<text text-anchor="start" x="44" y="-186" font-family="Helvetica,sans-Serif" font-size="10.00">okw.parser.OKW_VisitorTest.</text>
<text text-anchor="middle" x="110.5" y="-175" font-family="Helvetica,sans-Serif" font-size="10.00">TC_ParseMe_ArrayListString</text>
</a>
</g>
</g>
<!-- Node79&#45;&gt;Node113 -->
<g id="edge34" class="edge"><title>Node79&#45;&gt;Node113</title>
<path fill="none" stroke="midnightblue" d="M339.234,-1040.94C339.906,-913.032 336.452,-334.06 221,-208 211.518,-197.646 198.707,-191.139 185.191,-187.134"/>
<polygon fill="midnightblue" stroke="midnightblue" points="335.735,-1040.93 339.168,-1050.95 342.734,-1040.98 335.735,-1040.93"/>
</g>
<!-- Node114 -->
<g id="node36" class="node"><title>Node114</title>
<g id="a_node36"><a xlink:href="classokw_1_1_se_b_a_c_k_1_1_se_b_a_c_k___e_n___test.html#a216f20ac0d64b78675a285836ee8449a" target="_top" xlink:title="Testet das Schlüsselwort MemorizeExists( FN, Val ) eines SeBACK Prüfen.">
<polygon fill="white" stroke="black" points="-1.42109e-14,-108.5 -1.42109e-14,-149.5 221,-149.5 221,-108.5 -1.42109e-14,-108.5"/>
<text text-anchor="start" x="8" y="-137.5" font-family="Helvetica,sans-Serif" font-size="10.00">okw.SeBACK.SeBACK_EN</text>
<text text-anchor="start" x="8" y="-126.5" font-family="Helvetica,sans-Serif" font-size="10.00">_Test.tcMemorizeExists</text>
<text text-anchor="middle" x="110.5" y="-115.5" font-family="Helvetica,sans-Serif" font-size="10.00">_OKWFrameObjectMethodNotImplemented</text>
</a>
</g>
</g>
<!-- Node79&#45;&gt;Node114 -->
<g id="edge35" class="edge"><title>Node79&#45;&gt;Node114</title>
<path fill="none" stroke="midnightblue" d="M339.342,-1040.48C340.601,-907.551 339.797,-295.441 221,-159 218.023,-155.581 214.697,-152.534 211.109,-149.82"/>
<polygon fill="midnightblue" stroke="midnightblue" points="335.839,-1040.82 339.23,-1050.85 342.838,-1040.89 335.839,-1040.82"/>
</g>
<!-- Node115 -->
<g id="node37" class="node"><title>Node115</title>
<g id="a_node37"><a xlink:href="classokw_1_1_se_input_field_1_1_se_input_field___e_n___test.html#a2a649957e3eb7b2a00fae75dd386ff6b" target="_top" xlink:title="Teste das Schlüsselwort MemorizeExists( FN, MemKey ) eines SeInputText Prüfen.">
<polygon fill="white" stroke="black" points="14.5,-60 14.5,-90 206.5,-90 206.5,-60 14.5,-60"/>
<text text-anchor="start" x="22.5" y="-78" font-family="Helvetica,sans-Serif" font-size="10.00">okw.SeInputField.SeInput</text>
<text text-anchor="middle" x="110.5" y="-67" font-family="Helvetica,sans-Serif" font-size="10.00">Field_EN_Test.TC_MemorizeExists_en</text>
</a>
</g>
</g>
<!-- Node79&#45;&gt;Node115 -->
<g id="edge36" class="edge"><title>Node79&#45;&gt;Node115</title>
<path fill="none" stroke="midnightblue" d="M337.647,-1040.81C329.636,-895.746 286.517,-171.009 221,-99 216.809,-94.3936 211.955,-90.5638 206.668,-87.3884"/>
<polygon fill="midnightblue" stroke="midnightblue" points="334.161,-1041.15 338.202,-1050.94 341.15,-1040.76 334.161,-1041.15"/>
</g>
<!-- Node116 -->
<g id="node38" class="node"><title>Node116</title>
<g id="a_node38"><a xlink:href="classokw_1_1_se_m_a_x_i_m_i_z_e_1_1_se_m_a_x_i_m_i_z_e___e_n___test.html#a8f628d8a0b5dc48364458121ed12d463" target="_top" xlink:title="Testet das Schlüsselwort MemorizeExists( FN, Val ) eines SeMAXIMIZE Prüfen.">
<polygon fill="white" stroke="black" points="-1.42109e-14,-0.5 -1.42109e-14,-41.5 221,-41.5 221,-0.5 -1.42109e-14,-0.5"/>
<text text-anchor="start" x="8" y="-29.5" font-family="Helvetica,sans-Serif" font-size="10.00">okw.SeMAXIMIZE.SeMAXIMIZE</text>
<text text-anchor="start" x="8" y="-18.5" font-family="Helvetica,sans-Serif" font-size="10.00">_EN_Test.tcMemorizeExists</text>
<text text-anchor="middle" x="110.5" y="-7.5" font-family="Helvetica,sans-Serif" font-size="10.00">_OKWFrameObjectMethodNotImplemented</text>
</a>
</g>
</g>
<!-- Node79&#45;&gt;Node116 -->
<g id="edge37" class="edge"><title>Node79&#45;&gt;Node116</title>
<path fill="none" stroke="midnightblue" d="M337.727,-1040.57C330.019,-890.891 287.671,-128.635 221,-51 218.046,-47.5607 214.74,-44.4972 211.167,-41.7697"/>
<polygon fill="midnightblue" stroke="midnightblue" points="334.254,-1041.19 338.259,-1051 341.245,-1040.83 334.254,-1041.19"/>
</g>
</g>
</svg>
