<?xml version="1.0" encoding="UTF-8" standalone="no"?>
<!DOCTYPE svg PUBLIC "-//W3C//DTD SVG 1.1//EN"
 "http://www.w3.org/Graphics/SVG/1.1/DTD/svg11.dtd">
<!-- Generated by graphviz version 2.26.3 (20100126.1600)
 -->
<!-- Title: okw.core.Core.VerifyHasFocus Pages: 1 -->
<svg width="594pt" height="1064pt"
 viewBox="0.00 0.00 594.00 1064.00" xmlns="http://www.w3.org/2000/svg" xmlns:xlink="http://www.w3.org/1999/xlink">
<g id="graph1" class="graph" transform="scale(1 1) rotate(0) translate(4 1060)">
<title>okw.core.Core.VerifyHasFocus</title>
<polygon fill="white" stroke="white" points="-4,5 -4,-1060 591,-1060 591,5 -4,5"/>
<!-- Node2945 -->
<g id="node1" class="node"><title>Node2945</title>
<polygon fill="#bfbfbf" stroke="black" points="0,-483.5 0,-504.5 154,-504.5 154,-483.5 0,-483.5"/>
<text text-anchor="middle" x="77" y="-491.5" font-family="Helvetica,sans-Serif" font-size="10.00">okw.core.Core.VerifyHasFocus</text>
</g>
<!-- Node2946 -->
<g id="node3" class="node"><title>Node2946</title>
<a xlink:href="classokw_1_1core_1_1_e_n.html#a4f454838a66107f968f9d50241180804" target="_top" xlink:title="Vergleicht den Fokus&#45;Zustand des gegebenen Objekts mit dem erwarteten Wert. ">
<polygon fill="white" stroke="black" points="190.5,-483.5 190.5,-504.5 337.5,-504.5 337.5,-483.5 190.5,-483.5"/>
<text text-anchor="middle" x="264" y="-491.5" font-family="Helvetica,sans-Serif" font-size="10.00">okw.core.EN.VerifyHasFocus</text>
</a>
</g>
<!-- Node2945&#45;&gt;Node2946 -->
<g id="edge2" class="edge"><title>Node2945&#45;&gt;Node2946</title>
<path fill="none" stroke="midnightblue" d="M164.311,-494C173.019,-494 181.799,-494 190.346,-494"/>
<polygon fill="midnightblue" stroke="midnightblue" points="164.14,-490.5 154.14,-494 164.14,-497.5 164.14,-490.5"/>
</g>
<!-- Node2947 -->
<g id="node5" class="node"><title>Node2947</title>
<a xlink:href="classokw_1_1core_1_1_e_n___keywords___a_n_t_l_r___test.html#a1e9e874c23e82fb5e08b5be8ac3b277b" target="_top" xlink:title="okw.core.EN_Keywords\l_ANTLR_Test.tc_VerifyHasFocus\l_MemorizedValue">
<polygon fill="white" stroke="black" points="396.5,-1008.5 396.5,-1055.5 563.5,-1055.5 563.5,-1008.5 396.5,-1008.5"/>
<text text-anchor="start" x="404.5" y="-1042.5" font-family="Helvetica,sans-Serif" font-size="10.00">okw.core.EN_Keywords</text>
<text text-anchor="start" x="404.5" y="-1029.5" font-family="Helvetica,sans-Serif" font-size="10.00">_ANTLR_Test.tc_VerifyHasFocus</text>
<text text-anchor="middle" x="480" y="-1016.5" font-family="Helvetica,sans-Serif" font-size="10.00">_MemorizedValue</text>
</a>
</g>
<!-- Node2946&#45;&gt;Node2947 -->
<g id="edge4" class="edge"><title>Node2946&#45;&gt;Node2947</title>
<path fill="none" stroke="midnightblue" d="M265.792,-514.989C273.54,-601.039 306.85,-925.713 374,-999 380.315,-1005.89 388.042,-1011.36 396.419,-1015.69"/>
<polygon fill="midnightblue" stroke="midnightblue" points="269.266,-514.541 264.902,-504.887 262.293,-515.155 269.266,-514.541"/>
</g>
<!-- Node2948 -->
<g id="node7" class="node"><title>Node2948</title>
<a xlink:href="classokw_1_1core_1_1_e_n___keywords___d_e_l_e_t_e___test.html#a0e62a17933f21dc8c45b22def98ac192" target="_top" xlink:title="okw.core.EN_Keywords\l_DELETE_Test.tcSelectMenu\l_Value_MV_DELETE_EmptyString">
<polygon fill="white" stroke="black" points="395,-942.5 395,-989.5 565,-989.5 565,-942.5 395,-942.5"/>
<text text-anchor="start" x="403" y="-976.5" font-family="Helvetica,sans-Serif" font-size="10.00">okw.core.EN_Keywords</text>
<text text-anchor="start" x="403" y="-963.5" font-family="Helvetica,sans-Serif" font-size="10.00">_DELETE_Test.tcSelectMenu</text>
<text text-anchor="middle" x="480" y="-950.5" font-family="Helvetica,sans-Serif" font-size="10.00">_Value_MV_DELETE_EmptyString</text>
</a>
</g>
<!-- Node2946&#45;&gt;Node2948 -->
<g id="edge6" class="edge"><title>Node2946&#45;&gt;Node2948</title>
<path fill="none" stroke="midnightblue" d="M266.496,-514.707C276.339,-593.101 314.841,-870.413 374,-933 379.958,-939.303 387.097,-944.41 394.817,-948.546"/>
<polygon fill="midnightblue" stroke="midnightblue" points="269.951,-514.129 265.253,-504.633 263.004,-514.986 269.951,-514.129"/>
</g>
<!-- Node2949 -->
<g id="node9" class="node"><title>Node2949</title>
<a xlink:href="classokw_1_1core_1_1_e_n___keywords___i_g_n_o_r_e___test.html#adb3771e8a5a42dd3053f762d314c5d5f" target="_top" xlink:title="okw.core.EN_Keywords\l_IGNORE_Test.TC_VerifyHasFocus\l_IGNORE">
<polygon fill="white" stroke="black" points="390.5,-876.5 390.5,-923.5 569.5,-923.5 569.5,-876.5 390.5,-876.5"/>
<text text-anchor="start" x="398.5" y="-910.5" font-family="Helvetica,sans-Serif" font-size="10.00">okw.core.EN_Keywords</text>
<text text-anchor="start" x="398.5" y="-897.5" font-family="Helvetica,sans-Serif" font-size="10.00">_IGNORE_Test.TC_VerifyHasFocus</text>
<text text-anchor="middle" x="480" y="-884.5" font-family="Helvetica,sans-Serif" font-size="10.00">_IGNORE</text>
</a>
</g>
<!-- Node2946&#45;&gt;Node2949 -->
<g id="edge8" class="edge"><title>Node2946&#45;&gt;Node2949</title>
<path fill="none" stroke="midnightblue" d="M267.479,-514.721C279.72,-585.335 322.843,-815.068 374,-867 378.869,-871.943 384.465,-876.149 390.487,-879.726"/>
<polygon fill="midnightblue" stroke="midnightblue" points="270.919,-514.072 265.783,-504.805 264.019,-515.252 270.919,-514.072"/>
</g>
<!-- Node2950 -->
<g id="node11" class="node"><title>Node2950</title>
<a xlink:href="classokw_1_1core_1_1_e_n___keywords___i_g_n_o_r_e___test.html#a39c63af4a79335b69dcdb6e940a577a8" target="_top" xlink:title="okw.core.EN_Keywords\l_IGNORE_Test.TC_VerifyHasFocus\l_IGNORE_EmptyString">
<polygon fill="white" stroke="black" points="390.5,-810.5 390.5,-857.5 569.5,-857.5 569.5,-810.5 390.5,-810.5"/>
<text text-anchor="start" x="398.5" y="-844.5" font-family="Helvetica,sans-Serif" font-size="10.00">okw.core.EN_Keywords</text>
<text text-anchor="start" x="398.5" y="-831.5" font-family="Helvetica,sans-Serif" font-size="10.00">_IGNORE_Test.TC_VerifyHasFocus</text>
<text text-anchor="middle" x="480" y="-818.5" font-family="Helvetica,sans-Serif" font-size="10.00">_IGNORE_EmptyString</text>
</a>
</g>
<!-- Node2946&#45;&gt;Node2950 -->
<g id="edge10" class="edge"><title>Node2946&#45;&gt;Node2950</title>
<path fill="none" stroke="midnightblue" d="M265.293,-515.062C269.822,-570.212 289.674,-720.163 374,-801 378.87,-805.668 384.389,-809.677 390.29,-813.119"/>
<polygon fill="midnightblue" stroke="midnightblue" points="268.762,-514.509 264.541,-504.791 261.78,-515.02 268.762,-514.509"/>
</g>
<!-- Node2951 -->
<g id="node13" class="node"><title>Node2951</title>
<a xlink:href="classokw_1_1core_1_1_e_n___keywords___test.html#a8a804aa475fe4e5b89887345adfdb312" target="_top" xlink:title="&quot;Normaler&quot; Testfall für das Schlüsselwort VerifyExists. ">
<polygon fill="white" stroke="black" points="419,-758 419,-792 541,-792 541,-758 419,-758"/>
<text text-anchor="start" x="427" y="-779" font-family="Helvetica,sans-Serif" font-size="10.00">okw.core.EN_Keywords</text>
<text text-anchor="middle" x="480" y="-766" font-family="Helvetica,sans-Serif" font-size="10.00">_Test.tc_VerifyExists</text>
</a>
</g>
<!-- Node2946&#45;&gt;Node2951 -->
<g id="edge12" class="edge"><title>Node2946&#45;&gt;Node2951</title>
<path fill="none" stroke="midnightblue" d="M266.665,-514.678C274.078,-563.4 299.547,-686.03 374,-749 386.587,-759.646 402.861,-766.058 418.862,-769.886"/>
<polygon fill="midnightblue" stroke="midnightblue" points="270.119,-514.109 265.247,-504.701 263.189,-515.094 270.119,-514.109"/>
</g>
<!-- Node2952 -->
<g id="node15" class="node"><title>Node2952</title>
<a xlink:href="classokw_1_1core_1_1_e_n___o_k_w_frame_object_child_not_found_exception___test.html#accde9e37f35a723ff58d1a5aab600067" target="_top" xlink:title="Prüft ob die Ausnahme OKWFrameObjectChildNotFoundException durch die LFC&#45;VerifyHasFocus ausgelöst wir...">
<polygon fill="white" stroke="black" points="374.5,-680 374.5,-740 585.5,-740 585.5,-680 374.5,-680"/>
<text text-anchor="start" x="382.5" y="-727" font-family="Helvetica,sans-Serif" font-size="10.00">okw.core.EN_OKWFrameObject</text>
<text text-anchor="start" x="382.5" y="-714" font-family="Helvetica,sans-Serif" font-size="10.00">ChildNotFoundException</text>
<text text-anchor="start" x="382.5" y="-701" font-family="Helvetica,sans-Serif" font-size="10.00">_Test.TC_VerifyHasFocus</text>
<text text-anchor="middle" x="480" y="-688" font-family="Helvetica,sans-Serif" font-size="10.00">_OKWFrameObjectChildNotFoundException</text>
</a>
</g>
<!-- Node2946&#45;&gt;Node2952 -->
<g id="edge14" class="edge"><title>Node2946&#45;&gt;Node2952</title>
<path fill="none" stroke="midnightblue" d="M271.487,-514.442C285.846,-550.934 320.644,-627.53 374,-671 377.953,-674.22 382.196,-677.189 386.63,-679.923"/>
<polygon fill="midnightblue" stroke="midnightblue" points="274.672,-512.971 267.834,-504.878 268.132,-515.469 274.672,-512.971"/>
</g>
<!-- Node2953 -->
<g id="node17" class="node"><title>Node2953</title>
<a xlink:href="classokw_1_1core_1_1_e_n___o_k_w_frame_object_method_not_implemented___test.html#a954cf6fe8bb3a8345e98b805e8e0d605" target="_top" xlink:title="Prüft ob die Ausnahme OKWFrameObjectMethodNotImplemented von VerifyHasFocus( FN, ExpVal ) ausgelöst w...">
<polygon fill="white" stroke="black" points="375,-602 375,-662 585,-662 585,-602 375,-602"/>
<text text-anchor="start" x="383" y="-649" font-family="Helvetica,sans-Serif" font-size="10.00">okw.core.EN_OKWFrameObject</text>
<text text-anchor="start" x="383" y="-636" font-family="Helvetica,sans-Serif" font-size="10.00">MethodNotImplemented_Test.TC</text>
<text text-anchor="start" x="383" y="-623" font-family="Helvetica,sans-Serif" font-size="10.00">_VerifyHasFocus_OKWFrameObjectMethod</text>
<text text-anchor="middle" x="480" y="-610" font-family="Helvetica,sans-Serif" font-size="10.00">NotImplemented</text>
</a>
</g>
<!-- Node2946&#45;&gt;Node2953 -->
<g id="edge16" class="edge"><title>Node2946&#45;&gt;Node2953</title>
<path fill="none" stroke="midnightblue" d="M280.15,-512.278C300.256,-534.081 336.543,-570.41 374,-593 379.289,-596.19 384.882,-599.185 390.623,-601.986"/>
<polygon fill="midnightblue" stroke="midnightblue" points="282.579,-509.746 273.267,-504.692 277.394,-514.45 282.579,-509.746"/>
</g>
<!-- Node2954 -->
<g id="node19" class="node"><title>Node2954</title>
<a xlink:href="classokw_1_1core_1_1_e_n___o_k_w_not_allowed_value_exception___keywords___i_g_n_o_r_e.html#aa0551025a8e4ae75bc8daa6b786c98fe" target="_top" xlink:title="Prüft ob &quot;${IGNORE} &quot; die Ausnahme okw.exceptions.OKWNotAllowedValueException auslöst. ">
<polygon fill="white" stroke="black" points="386,-536.5 386,-583.5 574,-583.5 574,-536.5 386,-536.5"/>
<text text-anchor="start" x="394" y="-570.5" font-family="Helvetica,sans-Serif" font-size="10.00">okw.core.EN_OKWNotAllowed</text>
<text text-anchor="start" x="394" y="-557.5" font-family="Helvetica,sans-Serif" font-size="10.00">ValueException_Keywords</text>
<text text-anchor="middle" x="480" y="-544.5" font-family="Helvetica,sans-Serif" font-size="10.00">_IGNORE.tcVerifyHasFocusIGNORE1</text>
</a>
</g>
<!-- Node2946&#45;&gt;Node2954 -->
<g id="edge18" class="edge"><title>Node2946&#45;&gt;Node2954</title>
<path fill="none" stroke="midnightblue" d="M308.324,-507.544C335.528,-515.856 371.116,-526.73 402.832,-536.421"/>
<polygon fill="midnightblue" stroke="midnightblue" points="309.29,-504.179 298.704,-504.604 307.245,-510.874 309.29,-504.179"/>
</g>
<!-- Node2955 -->
<g id="node21" class="node"><title>Node2955</title>
<a xlink:href="classokw_1_1core_1_1_e_n___o_k_w_not_allowed_value_exception___keywords___i_g_n_o_r_e.html#a4ec48b2ca00929af8a035f5c2cb7f460" target="_top" xlink:title="Prüft ob &quot;&quot;${IGNORE}${TCN}&quot; die Ausnahme okw.exceptions.OKWNotAllowedValueException auslöst...">
<polygon fill="white" stroke="black" points="386,-470.5 386,-517.5 574,-517.5 574,-470.5 386,-470.5"/>
<text text-anchor="start" x="394" y="-504.5" font-family="Helvetica,sans-Serif" font-size="10.00">okw.core.EN_OKWNotAllowed</text>
<text text-anchor="start" x="394" y="-491.5" font-family="Helvetica,sans-Serif" font-size="10.00">ValueException_Keywords</text>
<text text-anchor="middle" x="480" y="-478.5" font-family="Helvetica,sans-Serif" font-size="10.00">_IGNORE.tcVerifyHasFocusIGNORE2</text>
</a>
</g>
<!-- Node2946&#45;&gt;Node2955 -->
<g id="edge20" class="edge"><title>Node2946&#45;&gt;Node2955</title>
<path fill="none" stroke="midnightblue" d="M348.052,-494C360.483,-494 373.36,-494 385.977,-494"/>
<polygon fill="midnightblue" stroke="midnightblue" points="347.731,-490.5 337.731,-494 347.731,-497.5 347.731,-490.5"/>
</g>
<!-- Node2956 -->
<g id="node23" class="node"><title>Node2956</title>
<a xlink:href="classokw_1_1core_1_1_e_n___o_k_w_not_allowed_value_exception___test.html#a2701b8e5ecc2b4ef3f052d7869b228c0" target="_top" xlink:title="Prüft ob die Ausnahme OKWNotAllowedValueException durch die LFC&#45;VerifyIsActive ausgelöst wird...">
<polygon fill="white" stroke="black" points="375,-392 375,-452 585,-452 585,-392 375,-392"/>
<text text-anchor="start" x="383" y="-439" font-family="Helvetica,sans-Serif" font-size="10.00">okw.core.EN_OKWNotAllowed</text>
<text text-anchor="start" x="383" y="-426" font-family="Helvetica,sans-Serif" font-size="10.00">ValueException_Test.TC</text>
<text text-anchor="start" x="383" y="-413" font-family="Helvetica,sans-Serif" font-size="10.00">_VerifyHasFocus_OKWFrameObjectMethod</text>
<text text-anchor="middle" x="480" y="-400" font-family="Helvetica,sans-Serif" font-size="10.00">NotFoundException</text>
</a>
</g>
<!-- Node2946&#45;&gt;Node2956 -->
<g id="edge22" class="edge"><title>Node2946&#45;&gt;Node2956</title>
<path fill="none" stroke="midnightblue" d="M305.64,-480.12C329.503,-472.166 360.423,-461.859 389.585,-452.138"/>
<polygon fill="midnightblue" stroke="midnightblue" points="304.252,-476.893 295.872,-483.376 306.465,-483.534 304.252,-476.893"/>
</g>
<!-- Node2957 -->
<g id="node25" class="node"><title>Node2957</title>
<a xlink:href="classokw_1_1_se_input_checkbox_1_1_se_input_checkbox___test.html#a702ffb63f0af2c995bd71ca884b0f408" target="_top" xlink:title="Prüft die SetFocusFunktion bei Textfelder mit dem Attribute &quot;ReadOnly&quot;. ">
<polygon fill="white" stroke="black" points="404,-340 404,-374 556,-374 556,-340 404,-340"/>
<text text-anchor="start" x="412" y="-361" font-family="Helvetica,sans-Serif" font-size="10.00">okw.SeInputCheckbox.SeInput</text>
<text text-anchor="middle" x="480" y="-348" font-family="Helvetica,sans-Serif" font-size="10.00">Checkbox_Test.tcSetFocus</text>
</a>
</g>
<!-- Node2946&#45;&gt;Node2957 -->
<g id="edge24" class="edge"><title>Node2946&#45;&gt;Node2957</title>
<path fill="none" stroke="midnightblue" d="M277.514,-474.915C296.265,-449.899 332.578,-406.455 374,-383 383.234,-377.772 393.5,-373.586 403.905,-370.238"/>
<polygon fill="midnightblue" stroke="midnightblue" points="274.511,-473.091 271.424,-483.227 280.158,-477.229 274.511,-473.091"/>
</g>
<!-- Node2958 -->
<g id="node27" class="node"><title>Node2958</title>
<a xlink:href="classokw_1_1_se_input_field_1_1_se_input_field___test.html#a3fa911d8f6711fdbd540984a1257fe65" target="_top" xlink:title="Testet das Schlüsselwort ClickOn( FN ) eines SeInputField Prüfen. ">
<polygon fill="white" stroke="black" points="415.5,-288 415.5,-322 544.5,-322 544.5,-288 415.5,-288"/>
<text text-anchor="start" x="423.5" y="-309" font-family="Helvetica,sans-Serif" font-size="10.00">okw.SeInputField.SeInput</text>
<text text-anchor="middle" x="480" y="-296" font-family="Helvetica,sans-Serif" font-size="10.00">Field_Test.tcClickOn</text>
</a>
</g>
<!-- Node2946&#45;&gt;Node2958 -->
<g id="edge26" class="edge"><title>Node2946&#45;&gt;Node2958</title>
<path fill="none" stroke="midnightblue" d="M271.899,-473.656C286.522,-438.784 321.21,-367.805 374,-331 386.202,-322.493 400.887,-316.759 415.386,-312.896"/>
<polygon fill="midnightblue" stroke="midnightblue" points="268.527,-472.659 268.008,-483.241 275.013,-475.292 268.527,-472.659"/>
</g>
<!-- Node2959 -->
<g id="node29" class="node"><title>Node2959</title>
<a xlink:href="classokw_1_1_se_input_field_1_1_se_input_field___test.html#a21372f7438d3d0b6604bfc77a7ef1b0c" target="_top" xlink:title="Teste das Schlüsselwort MemorizeValue( FN, MemKey ) eines SeInputText Prüfen. ">
<polygon fill="white" stroke="black" points="409.5,-236 409.5,-270 550.5,-270 550.5,-236 409.5,-236"/>
<text text-anchor="start" x="417.5" y="-257" font-family="Helvetica,sans-Serif" font-size="10.00">okw.SeInputField.SeInput</text>
<text text-anchor="middle" x="480" y="-244" font-family="Helvetica,sans-Serif" font-size="10.00">Field_Test.tcMemorizeValue</text>
</a>
</g>
<!-- Node2946&#45;&gt;Node2959 -->
<g id="edge28" class="edge"><title>Node2946&#45;&gt;Node2959</title>
<path fill="none" stroke="midnightblue" d="M268.534,-473.079C279.042,-429.799 309.262,-330.206 374,-279 384.254,-270.889 396.682,-265.262 409.365,-261.368"/>
<polygon fill="midnightblue" stroke="midnightblue" points="265.075,-472.501 266.228,-483.033 271.895,-474.08 265.075,-472.501"/>
</g>
<!-- Node2960 -->
<g id="node31" class="node"><title>Node2960</title>
<a xlink:href="classokw_1_1_se_input_field_1_1_se_input_field___test.html#ab2da25dabf85279d19799e9fbcaea718" target="_top" xlink:title="Test des Schlüsselwortes &quot;VerifyValue( FN, ExpVal ) für SeInputText. ">
<polygon fill="white" stroke="black" points="413.5,-184 413.5,-218 546.5,-218 546.5,-184 413.5,-184"/>
<text text-anchor="start" x="421.5" y="-205" font-family="Helvetica,sans-Serif" font-size="10.00">okw.SeInputField.SeInput</text>
<text text-anchor="middle" x="480" y="-192" font-family="Helvetica,sans-Serif" font-size="10.00">Field_Test.tcVerifyCaption</text>
</a>
</g>
<!-- Node2946&#45;&gt;Node2960 -->
<g id="edge30" class="edge"><title>Node2946&#45;&gt;Node2960</title>
<path fill="none" stroke="midnightblue" d="M266.212,-473.387C272.741,-423.131 296.609,-293.556 374,-227 385.062,-217.487 399.059,-211.344 413.225,-207.405"/>
<polygon fill="midnightblue" stroke="midnightblue" points="262.731,-473.02 265.013,-483.366 269.681,-473.855 262.731,-473.02"/>
</g>
<!-- Node2961 -->
<g id="node33" class="node"><title>Node2961</title>
<a xlink:href="classokw_1_1_se_input_field_1_1_se_input_field___test.html#aa7612889d0a642c440c6a085e205ac8f" target="_top" xlink:title="okw.SeInputField.SeInput\lField_Test.tcSelect_OKWGUIObject\lNotFoundException">
<polygon fill="white" stroke="black" points="391.5,-118.5 391.5,-165.5 568.5,-165.5 568.5,-118.5 391.5,-118.5"/>
<text text-anchor="start" x="399.5" y="-152.5" font-family="Helvetica,sans-Serif" font-size="10.00">okw.SeInputField.SeInput</text>
<text text-anchor="start" x="399.5" y="-139.5" font-family="Helvetica,sans-Serif" font-size="10.00">Field_Test.tcSelect_OKWGUIObject</text>
<text text-anchor="middle" x="480" y="-126.5" font-family="Helvetica,sans-Serif" font-size="10.00">NotFoundException</text>
</a>
</g>
<!-- Node2946&#45;&gt;Node2961 -->
<g id="edge32" class="edge"><title>Node2946&#45;&gt;Node2961</title>
<path fill="none" stroke="midnightblue" d="M264.944,-473.26C268.641,-416.941 286.675,-259.723 374,-175 379.187,-169.967 385.13,-165.701 391.494,-162.084"/>
<polygon fill="midnightblue" stroke="midnightblue" points="261.44,-473.223 264.366,-483.406 268.429,-473.621 261.44,-473.223"/>
</g>
<!-- Node2962 -->
<g id="node35" class="node"><title>Node2962</title>
<a xlink:href="classokw_1_1_se_input_radio_1_1_se_input_radio___e_n___test.html#a5a2f61f430cbec8b8c1aa6b1cd96d9e0" target="_top" xlink:title="Test des Schlüsselwortes SetFocus und VerifyHasFocus für den GUI&#45;Adapter SeInputRadio. ">
<polygon fill="white" stroke="black" points="393.5,-52.5 393.5,-99.5 566.5,-99.5 566.5,-52.5 393.5,-52.5"/>
<text text-anchor="start" x="401.5" y="-86.5" font-family="Helvetica,sans-Serif" font-size="10.00">okw.SeInputRadio.SeInput</text>
<text text-anchor="start" x="401.5" y="-73.5" font-family="Helvetica,sans-Serif" font-size="10.00">Radio_EN_Test.tc_VerifyHasFocus</text>
<text text-anchor="middle" x="480" y="-60.5" font-family="Helvetica,sans-Serif" font-size="10.00">_UnsupportedOperationException</text>
</a>
</g>
<!-- Node2946&#45;&gt;Node2962 -->
<g id="edge34" class="edge"><title>Node2946&#45;&gt;Node2962</title>
<path fill="none" stroke="midnightblue" d="M267.306,-473.097C279.131,-400.798 321.438,-162.812 374,-109 379.656,-103.209 386.31,-98.43 393.481,-94.4867"/>
<polygon fill="midnightblue" stroke="midnightblue" points="263.809,-472.795 265.673,-483.225 270.72,-473.91 263.809,-472.795"/>
</g>
<!-- Node2963 -->
<g id="node37" class="node"><title>Node2963</title>
<a xlink:href="classokw_1_1_se_link_1_1_se_link___e_n___test.html#ad88f4d017f1a55ad12f9ffc5ed0ab336" target="_top" xlink:title="Prüft die Methode SeLink.MemorizeToolTip. ">
<polygon fill="white" stroke="black" points="403,-0 403,-34 557,-34 557,-0 403,-0"/>
<text text-anchor="start" x="411" y="-21" font-family="Helvetica,sans-Serif" font-size="10.00">okw.SeLink.SeLink_EN</text>
<text text-anchor="middle" x="480" y="-8" font-family="Helvetica,sans-Serif" font-size="10.00">_Test.TC_MemorizeToolTip_en</text>
</a>
</g>
<!-- Node2946&#45;&gt;Node2963 -->
<g id="edge36" class="edge"><title>Node2946&#45;&gt;Node2963</title>
<path fill="none" stroke="midnightblue" d="M266.235,-473.141C275.243,-392.92 311.44,-105.641 374,-43 382.034,-34.9557 392.125,-29.2539 402.867,-25.2385"/>
<polygon fill="midnightblue" stroke="midnightblue" points="262.718,-473.1 265.103,-483.423 269.676,-473.866 262.718,-473.1"/>
</g>
</g>
</svg>
