<?xml version="1.0" encoding="UTF-8" standalone="no"?>
<!DOCTYPE svg PUBLIC "-//W3C//DTD SVG 1.1//EN"
 "http://www.w3.org/Graphics/SVG/1.1/DTD/svg11.dtd">
<!-- Generated by graphviz version 2.26.3 (20100126.1600)
 -->
<!-- Title: okw.core.Core.VerifySelectedValueREGX Pages: 1 -->
<svg width="604pt" height="1140pt"
 viewBox="0.00 0.00 604.00 1140.00" xmlns="http://www.w3.org/2000/svg" xmlns:xlink="http://www.w3.org/1999/xlink">
<g id="graph1" class="graph" transform="scale(1 1) rotate(0) translate(4 1136)">
<title>okw.core.Core.VerifySelectedValueREGX</title>
<polygon fill="white" stroke="white" points="-4,5 -4,-1136 601,-1136 601,5 -4,5"/>
<!-- Node3143 -->
<g id="node1" class="node"><title>Node3143</title>
<polygon fill="#bfbfbf" stroke="black" points="0.5,-586 0.5,-620 147.5,-620 147.5,-586 0.5,-586"/>
<text text-anchor="start" x="8.5" y="-607" font-family="Helvetica,sans-Serif" font-size="10.00">okw.core.Core.VerifySelected</text>
<text text-anchor="middle" x="74" y="-594" font-family="Helvetica,sans-Serif" font-size="10.00">ValueREGX</text>
</g>
<!-- Node3144 -->
<g id="node3" class="node"><title>Node3144</title>
<a xlink:href="classokw_1_1core_1_1_e_n.html#ad190826f8408d93b5f4769ef1306ce31" target="_top" xlink:title="Vergleicht den ausgewählten Wert des gegebenen Listenobjekts mit dem erwarteten Wert. ">
<polygon fill="white" stroke="black" points="184,-586 184,-620 324,-620 324,-586 184,-586"/>
<text text-anchor="start" x="192" y="-607" font-family="Helvetica,sans-Serif" font-size="10.00">okw.core.EN.VerifySelected</text>
<text text-anchor="middle" x="254" y="-594" font-family="Helvetica,sans-Serif" font-size="10.00">ValueREGX</text>
</a>
</g>
<!-- Node3143&#45;&gt;Node3144 -->
<g id="edge2" class="edge"><title>Node3143&#45;&gt;Node3144</title>
<path fill="none" stroke="midnightblue" d="M157.882,-603C166.576,-603 175.345,-603 183.865,-603"/>
<polygon fill="midnightblue" stroke="midnightblue" points="157.732,-599.5 147.732,-603 157.732,-606.5 157.732,-599.5"/>
</g>
<!-- Node3145 -->
<g id="node5" class="node"><title>Node3145</title>
<a xlink:href="classokw_1_1core_1_1_e_n___keywords___a_n_t_l_r___test.html#afabf60afd1ddf1d4b3546c9530500dc1" target="_top" xlink:title="okw.core.EN_Keywords\l_ANTLR_Test.tc__VerifySelected\lValueREGX_EnviromentVar">
<polygon fill="white" stroke="black" points="395.5,-1084.5 395.5,-1131.5 560.5,-1131.5 560.5,-1084.5 395.5,-1084.5"/>
<text text-anchor="start" x="403.5" y="-1118.5" font-family="Helvetica,sans-Serif" font-size="10.00">okw.core.EN_Keywords</text>
<text text-anchor="start" x="403.5" y="-1105.5" font-family="Helvetica,sans-Serif" font-size="10.00">_ANTLR_Test.tc__VerifySelected</text>
<text text-anchor="middle" x="478" y="-1092.5" font-family="Helvetica,sans-Serif" font-size="10.00">ValueREGX_EnviromentVar</text>
</a>
</g>
<!-- Node3144&#45;&gt;Node3145 -->
<g id="edge4" class="edge"><title>Node3144&#45;&gt;Node3145</title>
<path fill="none" stroke="midnightblue" d="M256.471,-630.089C265.246,-720.438 297.761,-1009.45 360,-1075 369.667,-1085.18 382.193,-1092.31 395.461,-1097.27"/>
<polygon fill="midnightblue" stroke="midnightblue" points="259.951,-629.707 255.519,-620.084 252.983,-630.371 259.951,-629.707"/>
</g>
<!-- Node3146 -->
<g id="node7" class="node"><title>Node3146</title>
<a xlink:href="classokw_1_1core_1_1_e_n___keywords___a_n_t_l_r___test.html#ac3f010481750c1255097fe515af00dc2" target="_top" xlink:title="okw.core.EN_Keywords\l_ANTLR_Test.tc__VerifySelected\lValueWCM_EnviromentVar">
<polygon fill="white" stroke="black" points="395.5,-1018.5 395.5,-1065.5 560.5,-1065.5 560.5,-1018.5 395.5,-1018.5"/>
<text text-anchor="start" x="403.5" y="-1052.5" font-family="Helvetica,sans-Serif" font-size="10.00">okw.core.EN_Keywords</text>
<text text-anchor="start" x="403.5" y="-1039.5" font-family="Helvetica,sans-Serif" font-size="10.00">_ANTLR_Test.tc__VerifySelected</text>
<text text-anchor="middle" x="478" y="-1026.5" font-family="Helvetica,sans-Serif" font-size="10.00">ValueWCM_EnviromentVar</text>
</a>
</g>
<!-- Node3144&#45;&gt;Node3146 -->
<g id="edge6" class="edge"><title>Node3144&#45;&gt;Node3146</title>
<path fill="none" stroke="midnightblue" d="M257.6,-630.553C268.874,-712.77 305.999,-954.056 360,-1009 369.767,-1018.94 382.26,-1025.95 395.446,-1030.88"/>
<polygon fill="midnightblue" stroke="midnightblue" points="261.045,-629.914 256.238,-620.472 254.108,-630.851 261.045,-629.914"/>
</g>
<!-- Node3147 -->
<g id="node9" class="node"><title>Node3147</title>
<a xlink:href="classokw_1_1core_1_1_e_n___keywords___a_n_t_l_r___test.html#a505217891e0dfdbf994620b9a7502456" target="_top" xlink:title="okw.core.EN_Keywords\l_ANTLR_Test.tc_VerifySelected\lValueREGX_MemorizedValue">
<polygon fill="white" stroke="black" points="398,-952.5 398,-999.5 558,-999.5 558,-952.5 398,-952.5"/>
<text text-anchor="start" x="406" y="-986.5" font-family="Helvetica,sans-Serif" font-size="10.00">okw.core.EN_Keywords</text>
<text text-anchor="start" x="406" y="-973.5" font-family="Helvetica,sans-Serif" font-size="10.00">_ANTLR_Test.tc_VerifySelected</text>
<text text-anchor="middle" x="478" y="-960.5" font-family="Helvetica,sans-Serif" font-size="10.00">ValueREGX_MemorizedValue</text>
</a>
</g>
<!-- Node3144&#45;&gt;Node3147 -->
<g id="edge8" class="edge"><title>Node3144&#45;&gt;Node3147</title>
<path fill="none" stroke="midnightblue" d="M259.046,-630.326C272.978,-702.966 314.008,-898.346 360,-943 370.531,-953.224 383.957,-960.335 397.953,-965.267"/>
<polygon fill="midnightblue" stroke="midnightblue" points="262.417,-629.321 257.117,-620.147 255.54,-630.624 262.417,-629.321"/>
</g>
<!-- Node3148 -->
<g id="node11" class="node"><title>Node3148</title>
<a xlink:href="classokw_1_1core_1_1_e_n___keywords___d_e_l_e_t_e___test.html#a32b19f3b35e962caa5fc212f152bff7f" target="_top" xlink:title="okw.core.EN_Keywords\l_DELETE_Test.tcVerifySelected\lValueREGX_DELETE_OKWNotAllowedValue\lException">
<polygon fill="white" stroke="black" points="369,-874 369,-934 587,-934 587,-874 369,-874"/>
<text text-anchor="start" x="377" y="-921" font-family="Helvetica,sans-Serif" font-size="10.00">okw.core.EN_Keywords</text>
<text text-anchor="start" x="377" y="-908" font-family="Helvetica,sans-Serif" font-size="10.00">_DELETE_Test.tcVerifySelected</text>
<text text-anchor="start" x="377" y="-895" font-family="Helvetica,sans-Serif" font-size="10.00">ValueREGX_DELETE_OKWNotAllowedValue</text>
<text text-anchor="middle" x="478" y="-882" font-family="Helvetica,sans-Serif" font-size="10.00">Exception</text>
</a>
</g>
<!-- Node3144&#45;&gt;Node3148 -->
<g id="edge10" class="edge"><title>Node3144&#45;&gt;Node3148</title>
<path fill="none" stroke="midnightblue" d="M257.401,-630.105C265.444,-682.864 290.485,-799.878 360,-865 363.464,-868.245 367.204,-871.221 371.148,-873.949"/>
<polygon fill="midnightblue" stroke="midnightblue" points="260.858,-629.554 255.971,-620.153 253.929,-630.549 260.858,-629.554"/>
</g>
<!-- Node3149 -->
<g id="node13" class="node"><title>Node3149</title>
<a xlink:href="classokw_1_1core_1_1_e_n___keywords___empty___test.html#aae531f898742bac040b9625d0b5c4368" target="_top" xlink:title="Prüft &quot;${EMPTY}&quot; für das Schlüsslewort VerifySelectedValueREGX(strng,string) ">
<polygon fill="white" stroke="black" points="400.5,-808.5 400.5,-855.5 555.5,-855.5 555.5,-808.5 400.5,-808.5"/>
<text text-anchor="start" x="408.5" y="-842.5" font-family="Helvetica,sans-Serif" font-size="10.00">okw.core.EN_Keywords</text>
<text text-anchor="start" x="408.5" y="-829.5" font-family="Helvetica,sans-Serif" font-size="10.00">_Empty_Test.tc_VerifySelected</text>
<text text-anchor="middle" x="478" y="-816.5" font-family="Helvetica,sans-Serif" font-size="10.00">ValueREGX_Empty</text>
</a>
</g>
<!-- Node3144&#45;&gt;Node3149 -->
<g id="edge12" class="edge"><title>Node3144&#45;&gt;Node3149</title>
<path fill="none" stroke="midnightblue" d="M261.081,-629.722C273.7,-672.08 304.147,-754.398 360,-799 371.719,-808.358 385.932,-815.065 400.378,-819.87"/>
<polygon fill="midnightblue" stroke="midnightblue" points="264.443,-628.748 258.319,-620.103 257.715,-630.68 264.443,-628.748"/>
</g>
<!-- Node3150 -->
<g id="node15" class="node"><title>Node3150</title>
<a xlink:href="classokw_1_1core_1_1_e_n___keywords___test.html#a885a8dbe9b55a6d4acc38cb4ba6311d8" target="_top" xlink:title="okw.core.EN_Keywords\l_Test.tc_VerifySelectedValueREGX">
<polygon fill="white" stroke="black" points="390.5,-756 390.5,-790 565.5,-790 565.5,-756 390.5,-756"/>
<text text-anchor="start" x="398.5" y="-777" font-family="Helvetica,sans-Serif" font-size="10.00">okw.core.EN_Keywords</text>
<text text-anchor="middle" x="478" y="-764" font-family="Helvetica,sans-Serif" font-size="10.00">_Test.tc_VerifySelectedValueREGX</text>
</a>
</g>
<!-- Node3144&#45;&gt;Node3150 -->
<g id="edge14" class="edge"><title>Node3144&#45;&gt;Node3150</title>
<path fill="none" stroke="midnightblue" d="M266.024,-629.403C282.424,-662.299 314.996,-717.735 360,-747 369.233,-753.004 379.642,-757.639 390.355,-761.213"/>
<polygon fill="midnightblue" stroke="midnightblue" points="269.156,-627.839 261.644,-620.367 262.857,-630.892 269.156,-627.839"/>
</g>
<!-- Node3151 -->
<g id="node17" class="node"><title>Node3151</title>
<a xlink:href="classokw_1_1core_1_1_e_n___o_k_w_frame_object_child_not_found_exception___test.html#ac4d21b9a371e040b0eb983856d1058d7" target="_top" xlink:title="Prüft ob die Ausnahme OKWFrameObjectChildNotFoundException durch die VerifySelectedValue ausgelöst wi...">
<polygon fill="white" stroke="black" points="372.5,-678 372.5,-738 583.5,-738 583.5,-678 372.5,-678"/>
<text text-anchor="start" x="380.5" y="-725" font-family="Helvetica,sans-Serif" font-size="10.00">okw.core.EN_OKWFrameObject</text>
<text text-anchor="start" x="380.5" y="-712" font-family="Helvetica,sans-Serif" font-size="10.00">ChildNotFoundException</text>
<text text-anchor="start" x="380.5" y="-699" font-family="Helvetica,sans-Serif" font-size="10.00">_Test.TC_VerifySelectedValueREGX</text>
<text text-anchor="middle" x="478" y="-686" font-family="Helvetica,sans-Serif" font-size="10.00">_OKWFrameObjectChildNotFoundException</text>
</a>
</g>
<!-- Node3144&#45;&gt;Node3151 -->
<g id="edge16" class="edge"><title>Node3144&#45;&gt;Node3151</title>
<path fill="none" stroke="midnightblue" d="M286.219,-625.871C306.662,-639.661 334.062,-656.85 360,-669 366.643,-672.112 373.603,-675.085 380.679,-677.901"/>
<polygon fill="midnightblue" stroke="midnightblue" points="288.139,-622.944 277.908,-620.194 284.191,-628.724 288.139,-622.944"/>
</g>
<!-- Node3152 -->
<g id="node19" class="node"><title>Node3152</title>
<a xlink:href="classokw_1_1core_1_1_e_n___o_k_w_not_allowed_value_exception___keywords___i_g_n_o_r_e.html#a64d56f3da6e81f2c6012a5e53c18e1a7" target="_top" xlink:title="Prüft ob &quot;${IGNORE} &quot; die Ausnahme okw.exceptions.OKWNotAllowedValueException auslöst. ">
<polygon fill="white" stroke="black" points="360.5,-612.5 360.5,-659.5 595.5,-659.5 595.5,-612.5 360.5,-612.5"/>
<text text-anchor="start" x="368.5" y="-646.5" font-family="Helvetica,sans-Serif" font-size="10.00">okw.core.EN_OKWNotAllowed</text>
<text text-anchor="start" x="368.5" y="-633.5" font-family="Helvetica,sans-Serif" font-size="10.00">ValueException_Keywords</text>
<text text-anchor="middle" x="478" y="-620.5" font-family="Helvetica,sans-Serif" font-size="10.00">_IGNORE.tcVerifySelectedValueREGXIGNORE1</text>
</a>
</g>
<!-- Node3144&#45;&gt;Node3152 -->
<g id="edge18" class="edge"><title>Node3144&#45;&gt;Node3152</title>
<path fill="none" stroke="midnightblue" d="M334.154,-614.808C342.699,-616.067 351.514,-617.366 360.375,-618.671"/>
<polygon fill="midnightblue" stroke="midnightblue" points="334.664,-611.346 324.26,-613.351 333.643,-618.271 334.664,-611.346"/>
</g>
<!-- Node3153 -->
<g id="node21" class="node"><title>Node3153</title>
<a xlink:href="classokw_1_1core_1_1_e_n___o_k_w_not_allowed_value_exception___keywords___i_g_n_o_r_e.html#afca99c6d0aa4a628367da671dd10551f" target="_top" xlink:title="Prüft ob &quot;&quot;${IGNORE}${TCN}&quot; die Ausnahme okw.exceptions.OKWNotAllowedValueException auslöst...">
<polygon fill="white" stroke="black" points="360.5,-546.5 360.5,-593.5 595.5,-593.5 595.5,-546.5 360.5,-546.5"/>
<text text-anchor="start" x="368.5" y="-580.5" font-family="Helvetica,sans-Serif" font-size="10.00">okw.core.EN_OKWNotAllowed</text>
<text text-anchor="start" x="368.5" y="-567.5" font-family="Helvetica,sans-Serif" font-size="10.00">ValueException_Keywords</text>
<text text-anchor="middle" x="478" y="-554.5" font-family="Helvetica,sans-Serif" font-size="10.00">_IGNORE.tcVerifySelectedValueREGXIGNORE2</text>
</a>
</g>
<!-- Node3144&#45;&gt;Node3153 -->
<g id="edge20" class="edge"><title>Node3144&#45;&gt;Node3153</title>
<path fill="none" stroke="midnightblue" d="M334.154,-591.192C342.699,-589.933 351.514,-588.634 360.375,-587.329"/>
<polygon fill="midnightblue" stroke="midnightblue" points="333.643,-587.729 324.26,-592.649 334.664,-594.654 333.643,-587.729"/>
</g>
<!-- Node3154 -->
<g id="node23" class="node"><title>Node3154</title>
<a xlink:href="classokw_1_1core_1_1_e_n___verify_selected_value___o_k_w_verifying_fails_exception___test.html#adc64b9125209471a949a3e6a098e02df" target="_top" xlink:title="Prüft, ob die Ausnahme OKWVerifyingFailsException bei einem Soll/Ist&#45;Vergleich ausgelöst wird...">
<polygon fill="white" stroke="black" points="388,-468 388,-528 568,-528 568,-468 388,-468"/>
<text text-anchor="start" x="396" y="-515" font-family="Helvetica,sans-Serif" font-size="10.00">okw.core.EN_VerifySelected</text>
<text text-anchor="start" x="396" y="-502" font-family="Helvetica,sans-Serif" font-size="10.00">Value_OKWVerifyingFailsException</text>
<text text-anchor="start" x="396" y="-489" font-family="Helvetica,sans-Serif" font-size="10.00">_Test.TC_VerifySelectedValueREGX</text>
<text text-anchor="middle" x="478" y="-476" font-family="Helvetica,sans-Serif" font-size="10.00">_OKWVerifyingFailsException_SV01</text>
</a>
</g>
<!-- Node3144&#45;&gt;Node3154 -->
<g id="edge22" class="edge"><title>Node3144&#45;&gt;Node3154</title>
<path fill="none" stroke="midnightblue" d="M286.219,-580.129C306.662,-566.339 334.062,-549.15 360,-537 368.89,-532.836 378.348,-528.92 387.89,-525.295"/>
<polygon fill="midnightblue" stroke="midnightblue" points="284.191,-577.276 277.908,-585.806 288.139,-583.056 284.191,-577.276"/>
</g>
<!-- Node3155 -->
<g id="node25" class="node"><title>Node3155</title>
<a xlink:href="classokw_1_1core_1_1_e_n___verify_selected_value___o_k_w_verifying_fails_exception___test.html#a8e76aee51cc17836cc55302e802d8254" target="_top" xlink:title="Prüft, ob die Ausnahme OKWVerifyingFailsException bei einem Soll/Ist&#45;Vergleich ausgelöst wird...">
<polygon fill="white" stroke="black" points="388,-390 388,-450 568,-450 568,-390 388,-390"/>
<text text-anchor="start" x="396" y="-437" font-family="Helvetica,sans-Serif" font-size="10.00">okw.core.EN_VerifySelected</text>
<text text-anchor="start" x="396" y="-424" font-family="Helvetica,sans-Serif" font-size="10.00">Value_OKWVerifyingFailsException</text>
<text text-anchor="start" x="396" y="-411" font-family="Helvetica,sans-Serif" font-size="10.00">_Test.TC_VerifySelectedValueREGX</text>
<text text-anchor="middle" x="478" y="-398" font-family="Helvetica,sans-Serif" font-size="10.00">_OKWVerifyingFailsException_SV02</text>
</a>
</g>
<!-- Node3144&#45;&gt;Node3155 -->
<g id="edge24" class="edge"><title>Node3144&#45;&gt;Node3155</title>
<path fill="none" stroke="midnightblue" d="M267.004,-576.387C284.066,-544.13 316.965,-490.227 360,-459 368.47,-452.854 377.965,-447.637 387.794,-443.218"/>
<polygon fill="midnightblue" stroke="midnightblue" points="263.698,-575.161 262.223,-585.653 269.919,-578.371 263.698,-575.161"/>
</g>
<!-- Node3156 -->
<g id="node27" class="node"><title>Node3156</title>
<a xlink:href="classokw_1_1core_1_1_e_n___verify_selected_value___o_k_w_verifying_fails_exception___test.html#ab8aff4d205eaf6cd86fed40020bee04b" target="_top" xlink:title="Prüft, ob die Ausnahme OKWVerifyingFailsException bei einem Soll/Ist&#45;Vergleich ausgelöst wird...">
<polygon fill="white" stroke="black" points="388,-312 388,-372 568,-372 568,-312 388,-312"/>
<text text-anchor="start" x="396" y="-359" font-family="Helvetica,sans-Serif" font-size="10.00">okw.core.EN_VerifySelected</text>
<text text-anchor="start" x="396" y="-346" font-family="Helvetica,sans-Serif" font-size="10.00">Value_OKWVerifyingFailsException</text>
<text text-anchor="start" x="396" y="-333" font-family="Helvetica,sans-Serif" font-size="10.00">_Test.TC_VerifySelectedValueREGX</text>
<text text-anchor="middle" x="478" y="-320" font-family="Helvetica,sans-Serif" font-size="10.00">_OKWVerifyingFailsException_SV03</text>
</a>
</g>
<!-- Node3144&#45;&gt;Node3156 -->
<g id="edge26" class="edge"><title>Node3144&#45;&gt;Node3156</title>
<path fill="none" stroke="midnightblue" d="M259.653,-575.812C270.727,-529.259 299.649,-434.175 360,-381 368.175,-373.797 377.717,-367.918 387.768,-363.121"/>
<polygon fill="midnightblue" stroke="midnightblue" points="256.195,-575.236 257.384,-585.764 263.02,-576.792 256.195,-575.236"/>
</g>
<!-- Node3157 -->
<g id="node29" class="node"><title>Node3157</title>
<a xlink:href="classokw_1_1core_1_1_e_n___verify_selected_value___o_k_w_verifying_fails_exception___test.html#a767ec7bf939dc2a8aef1b9caf2959b98" target="_top" xlink:title="Prüft, ob die Ausnahme OKWVerifyingFailsException bei einem Soll/Ist&#45;Vergleich ausgelöst wird...">
<polygon fill="white" stroke="black" points="388,-234 388,-294 568,-294 568,-234 388,-234"/>
<text text-anchor="start" x="396" y="-281" font-family="Helvetica,sans-Serif" font-size="10.00">okw.core.EN_VerifySelected</text>
<text text-anchor="start" x="396" y="-268" font-family="Helvetica,sans-Serif" font-size="10.00">Value_OKWVerifyingFailsException</text>
<text text-anchor="start" x="396" y="-255" font-family="Helvetica,sans-Serif" font-size="10.00">_Test.TC_VerifySelectedValueREGX</text>
<text text-anchor="middle" x="478" y="-242" font-family="Helvetica,sans-Serif" font-size="10.00">_OKWVerifyingFailsException_MV01</text>
</a>
</g>
<!-- Node3144&#45;&gt;Node3157 -->
<g id="edge28" class="edge"><title>Node3144&#45;&gt;Node3157</title>
<path fill="none" stroke="midnightblue" d="M255.847,-575.35C261.241,-516.805 281.972,-379.449 360,-303 368.014,-295.148 377.641,-288.877 387.895,-283.868"/>
<polygon fill="midnightblue" stroke="midnightblue" points="252.331,-575.393 254.984,-585.65 259.307,-575.977 252.331,-575.393"/>
</g>
<!-- Node3158 -->
<g id="node31" class="node"><title>Node3158</title>
<a xlink:href="classokw_1_1core_1_1_e_n___verify_selected_value___o_k_w_verifying_fails_exception___test.html#af62c29f79036e9ef50cb31c3eb744c1a" target="_top" xlink:title="Prüft, ob die Ausnahme OKWVerifyingFailsException bei einem Soll/Ist&#45;Vergleich ausgelöst wird...">
<polygon fill="white" stroke="black" points="388,-156 388,-216 568,-216 568,-156 388,-156"/>
<text text-anchor="start" x="396" y="-203" font-family="Helvetica,sans-Serif" font-size="10.00">okw.core.EN_VerifySelected</text>
<text text-anchor="start" x="396" y="-190" font-family="Helvetica,sans-Serif" font-size="10.00">Value_OKWVerifyingFailsException</text>
<text text-anchor="start" x="396" y="-177" font-family="Helvetica,sans-Serif" font-size="10.00">_Test.TC_VerifySelectedValueREGX</text>
<text text-anchor="middle" x="478" y="-164" font-family="Helvetica,sans-Serif" font-size="10.00">_OKWVerifyingFailsException_MV02</text>
</a>
</g>
<!-- Node3144&#45;&gt;Node3158 -->
<g id="edge30" class="edge"><title>Node3144&#45;&gt;Node3158</title>
<path fill="none" stroke="midnightblue" d="M258.228,-575.915C270.863,-498.205 310.541,-276.778 360,-225 367.899,-216.731 377.585,-210.214 387.979,-205.079"/>
<polygon fill="midnightblue" stroke="midnightblue" points="254.756,-575.465 256.627,-585.893 261.667,-576.574 254.756,-575.465"/>
</g>
<!-- Node3159 -->
<g id="node33" class="node"><title>Node3159</title>
<a xlink:href="classokw_1_1core_1_1_e_n___verify_selected_value___o_k_w_verifying_fails_exception___test.html#a64052c4694bd20b84b9614428952cd07" target="_top" xlink:title="Prüft, ob die Ausnahme OKWVerifyingFailsException bei einem Soll/Ist&#45;Vergleich ausgelöst wird...">
<polygon fill="white" stroke="black" points="388,-78 388,-138 568,-138 568,-78 388,-78"/>
<text text-anchor="start" x="396" y="-125" font-family="Helvetica,sans-Serif" font-size="10.00">okw.core.EN_VerifySelected</text>
<text text-anchor="start" x="396" y="-112" font-family="Helvetica,sans-Serif" font-size="10.00">Value_OKWVerifyingFailsException</text>
<text text-anchor="start" x="396" y="-99" font-family="Helvetica,sans-Serif" font-size="10.00">_Test.TC_VerifySelectedValueREGX</text>
<text text-anchor="middle" x="478" y="-86" font-family="Helvetica,sans-Serif" font-size="10.00">_OKWVerifyingFailsException_MV03</text>
</a>
</g>
<!-- Node3144&#45;&gt;Node3159 -->
<g id="edge32" class="edge"><title>Node3144&#45;&gt;Node3159</title>
<path fill="none" stroke="midnightblue" d="M256.845,-575.777C266.586,-487.524 301.274,-211.316 360,-147 367.783,-138.476 377.467,-131.811 387.917,-126.601"/>
<polygon fill="midnightblue" stroke="midnightblue" points="253.356,-575.491 255.757,-585.81 260.315,-576.246 253.356,-575.491"/>
</g>
<!-- Node3160 -->
<g id="node35" class="node"><title>Node3160</title>
<a xlink:href="classokw_1_1core_1_1_e_n___verify_selected_value___o_k_w_verifying_fails_exception___test.html#a517a4f7bb6f3f3dd34468b61edffe75b" target="_top" xlink:title="Prüft, ob die Ausnahme OKWVerifyingFailsException bei einem Soll/Ist&#45;Vergleich ausgelöst wird...">
<polygon fill="white" stroke="black" points="388,-0 388,-60 568,-60 568,-0 388,-0"/>
<text text-anchor="start" x="396" y="-47" font-family="Helvetica,sans-Serif" font-size="10.00">okw.core.EN_VerifySelected</text>
<text text-anchor="start" x="396" y="-34" font-family="Helvetica,sans-Serif" font-size="10.00">Value_OKWVerifyingFailsException</text>
<text text-anchor="start" x="396" y="-21" font-family="Helvetica,sans-Serif" font-size="10.00">_Test.TC_VerifySelectedValueREGX</text>
<text text-anchor="middle" x="478" y="-8" font-family="Helvetica,sans-Serif" font-size="10.00">_OKWVerifyingFailsException_MV04</text>
</a>
</g>
<!-- Node3144&#45;&gt;Node3160 -->
<g id="edge34" class="edge"><title>Node3144&#45;&gt;Node3160</title>
<path fill="none" stroke="midnightblue" d="M255.844,-575.751C262.987,-477.91 291.903,-146.053 360,-69 367.716,-60.2697 377.426,-53.4872 387.948,-48.2193"/>
<polygon fill="midnightblue" stroke="midnightblue" points="252.351,-575.519 255.131,-585.742 259.334,-576.017 252.351,-575.519"/>
</g>
</g>
</svg>
