<?xml version="1.0" encoding="UTF-8" standalone="no"?>
<!DOCTYPE svg PUBLIC "-//W3C//DTD SVG 1.1//EN"
 "http://www.w3.org/Graphics/SVG/1.1/DTD/svg11.dtd">
<!-- Generated by graphviz version 2.36.0 (20140111.2315)
 -->
<!-- Title: okw.core.EN.VerifyTablecellValueREGX Pages: 1 -->
<!--zoomable 1110 -->
<svg id="main" version="1.1" xmlns="http://www.w3.org/2000/svg" xmlns:xlink="http://www.w3.org/1999/xlink" xml:space="preserve" onload="init(evt)">
<style type="text/css"><![CDATA[
.edge:hover path { stroke: red; }
.edge:hover polygon { stroke: red; fill: red; }
]]></style>
<script type="text/javascript"><![CDATA[
var edges = document.getElementsByTagName('g');
if (edges && edges.length) {
  for (var i=0;i<edges.length;i++) {
    if (edges[i].id.substr(0,4)=='edge') {
      edges[i].setAttribute('class','edge');
    }
  }
}
]]></script>
        <defs>
                <circle id="rim" cx="0" cy="0" r="7"/>
                <circle id="rim2" cx="0" cy="0" r="3.5"/>
                <g id="zoomPlus">
                        <use xlink:href="#rim" fill="#404040">
                                <set attributeName="fill" to="#808080" begin="zoomplus.mouseover" end="zoomplus.mouseout"/>
                        </use>
                        <path d="M-4,0h8M0,-4v8" fill="none" stroke="white" stroke-width="1.5" pointer-events="none"/>
                </g>
                <g id="zoomMin">
                        <use xlink:href="#rim" fill="#404040">
                                <set attributeName="fill" to="#808080" begin="zoomminus.mouseover" end="zoomminus.mouseout"/>
                        </use>
                        <path d="M-4,0h8" fill="none" stroke="white" stroke-width="1.5" pointer-events="none"/>
                </g>
                <g id="dirArrow">
                        <path fill="none" stroke="white" stroke-width="1.5" d="M0,-3.0v7 M-2.5,-0.5L0,-3.0L2.5,-0.5"/>
                </g>
               <g id="resetDef">
                       <use xlink:href="#rim2" fill="#404040">
                               <set attributeName="fill" to="#808080" begin="reset.mouseover" end="reset.mouseout"/>
                       </use>
               </g>
        </defs>

<script type="text/javascript">
var viewWidth = 422;
var viewHeight = 1110;
var sectionId = 'dynsection-89';
</script>
<script xlink:href="svgpan.js"/>
<svg id="graph" class="graph">
<g id="viewport">
<title>okw.core.EN.VerifyTablecellValueREGX</title>
<polygon fill="white" stroke="none" points="-4,4 -4,-1106 418,-1106 418,4 -4,4"/>
<!-- Node2822 -->
<g id="node1" class="node"><title>Node2822</title>
<polygon fill="#bfbfbf" stroke="black" points="0.5,-563 0.5,-593 141.5,-593 141.5,-563 0.5,-563"/>
<text text-anchor="start" x="8.5" y="-581" font-family="Helvetica,sans-Serif" font-size="10.00">okw.core.EN.VerifyTablecell</text>
<text text-anchor="middle" x="71" y="-570" font-family="Helvetica,sans-Serif" font-size="10.00">ValueREGX</text>
</g>
<!-- Node2823 -->
<g id="node2" class="node"><title>Node2823</title>
<g id="a_node2"><a xlink:href="classokw_1_1core_1_1_e_n___keywords___a_n_t_l_r___test.html#a658bef6cf5ddb1f36aae666c2df0e2b4" target="_top" xlink:title="okw.core.EN_Keywords\l_ANTLR_Test.tc__VerifyTablecell\lValueREGX_EnviromentVar">
<polygon fill="white" stroke="black" points="213,-1060.5 213,-1101.5 379,-1101.5 379,-1060.5 213,-1060.5"/>
<text text-anchor="start" x="221" y="-1089.5" font-family="Helvetica,sans-Serif" font-size="10.00">okw.core.EN_Keywords</text>
<text text-anchor="start" x="221" y="-1078.5" font-family="Helvetica,sans-Serif" font-size="10.00">_ANTLR_Test.tc__VerifyTablecell</text>
<text text-anchor="middle" x="296" y="-1067.5" font-family="Helvetica,sans-Serif" font-size="10.00">ValueREGX_EnviromentVar</text>
</a>
</g>
</g>
<!-- Node2822&#45;&gt;Node2823 -->
<g id="edge1" class="edge"><title>Node2822&#45;&gt;Node2823</title>
<path fill="none" stroke="midnightblue" d="M74.262,-603.283C82.6619,-691.584 114.883,-984.431 178,-1050 187.545,-1059.92 199.865,-1066.79 212.916,-1071.52"/>
<polygon fill="midnightblue" stroke="midnightblue" points="77.7268,-602.742 73.3143,-593.11 70.7569,-603.391 77.7268,-602.742"/>
</g>
<!-- Node2824 -->
<g id="node3" class="node"><title>Node2824</title>
<g id="a_node3"><a xlink:href="classokw_1_1core_1_1_e_n___keywords___a_n_t_l_r___test.html#a279312baae8a9002d12c8612a683b686" target="_top" xlink:title="okw.core.EN_Keywords\l_ANTLR_Test.tc__VerifyTablecell\lValueWCM_EnviromentVar">
<polygon fill="white" stroke="black" points="213,-1000.5 213,-1041.5 379,-1041.5 379,-1000.5 213,-1000.5"/>
<text text-anchor="start" x="221" y="-1029.5" font-family="Helvetica,sans-Serif" font-size="10.00">okw.core.EN_Keywords</text>
<text text-anchor="start" x="221" y="-1018.5" font-family="Helvetica,sans-Serif" font-size="10.00">_ANTLR_Test.tc__VerifyTablecell</text>
<text text-anchor="middle" x="296" y="-1007.5" font-family="Helvetica,sans-Serif" font-size="10.00">ValueWCM_EnviromentVar</text>
</a>
</g>
</g>
<!-- Node2822&#45;&gt;Node2824 -->
<g id="edge2" class="edge"><title>Node2822&#45;&gt;Node2824</title>
<path fill="none" stroke="midnightblue" d="M75.2074,-603.715C85.8434,-684.958 122.461,-934.06 178,-990 187.623,-999.693 199.903,-1006.46 212.869,-1011.17"/>
<polygon fill="midnightblue" stroke="midnightblue" points="78.6281,-602.874 73.8798,-593.403 71.6854,-603.768 78.6281,-602.874"/>
</g>
<!-- Node2825 -->
<g id="node4" class="node"><title>Node2825</title>
<g id="a_node4"><a xlink:href="classokw_1_1core_1_1_e_n___keywords___a_n_t_l_r___test.html#aafdbe96a6c5be9db76e7f18c36f0a463" target="_top" xlink:title="okw.core.EN_Keywords\l_ANTLR_Test.tc_VerifyTablecell\lValueREGX_MemorizedValue">
<polygon fill="white" stroke="black" points="215.5,-940.5 215.5,-981.5 376.5,-981.5 376.5,-940.5 215.5,-940.5"/>
<text text-anchor="start" x="223.5" y="-969.5" font-family="Helvetica,sans-Serif" font-size="10.00">okw.core.EN_Keywords</text>
<text text-anchor="start" x="223.5" y="-958.5" font-family="Helvetica,sans-Serif" font-size="10.00">_ANTLR_Test.tc_VerifyTablecell</text>
<text text-anchor="middle" x="296" y="-947.5" font-family="Helvetica,sans-Serif" font-size="10.00">ValueREGX_MemorizedValue</text>
</a>
</g>
</g>
<!-- Node2822&#45;&gt;Node2825 -->
<g id="edge3" class="edge"><title>Node2822&#45;&gt;Node2825</title>
<path fill="none" stroke="midnightblue" d="M71.745,-603.39C72.5395,-667.819 83.8886,-838.989 178,-930 188.347,-940.006 201.534,-946.877 215.3,-951.574"/>
<polygon fill="midnightblue" stroke="midnightblue" points="75.2447,-603.3 71.6991,-593.316 68.2448,-603.332 75.2447,-603.3"/>
</g>
<!-- Node2826 -->
<g id="node5" class="node"><title>Node2826</title>
<g id="a_node5"><a xlink:href="classokw_1_1core_1_1_e_n___keywords___d_e_l_e_t_e___test.html#a9374ff5f331267b2f283da1bbd316048" target="_top" xlink:title="okw.core.EN_Keywords\l_DELETE_Test.tcVerifyTablecell\lValueREGX_DELETE_OKWNotAllowedValue\lException">
<polygon fill="white" stroke="black" points="187,-869 187,-921 405,-921 405,-869 187,-869"/>
<text text-anchor="start" x="195" y="-909" font-family="Helvetica,sans-Serif" font-size="10.00">okw.core.EN_Keywords</text>
<text text-anchor="start" x="195" y="-898" font-family="Helvetica,sans-Serif" font-size="10.00">_DELETE_Test.tcVerifyTablecell</text>
<text text-anchor="start" x="195" y="-887" font-family="Helvetica,sans-Serif" font-size="10.00">ValueREGX_DELETE_OKWNotAllowedValue</text>
<text text-anchor="middle" x="296" y="-876" font-family="Helvetica,sans-Serif" font-size="10.00">Exception</text>
</a>
</g>
</g>
<!-- Node2822&#45;&gt;Node2826 -->
<g id="edge4" class="edge"><title>Node2822&#45;&gt;Node2826</title>
<path fill="none" stroke="midnightblue" d="M74.3118,-603.437C80.6348,-658.019 103.105,-787.159 178,-858 182.334,-862.099 187.119,-865.744 192.205,-868.985"/>
<polygon fill="midnightblue" stroke="midnightblue" points="77.7671,-602.831 73.223,-593.26 70.8068,-603.576 77.7671,-602.831"/>
</g>
<!-- Node2827 -->
<g id="node6" class="node"><title>Node2827</title>
<g id="a_node6"><a xlink:href="classokw_1_1core_1_1_e_n___keywords___empty___test.html#a247da2bfd97a34baabe9bc589a135883" target="_top" xlink:title="Prüft &quot;${EMPTY}&quot; für das Schlüsselwort VerifyValue(string,string) ">
<polygon fill="white" stroke="black" points="218,-808.5 218,-849.5 374,-849.5 374,-808.5 218,-808.5"/>
<text text-anchor="start" x="226" y="-837.5" font-family="Helvetica,sans-Serif" font-size="10.00">okw.core.EN_Keywords</text>
<text text-anchor="start" x="226" y="-826.5" font-family="Helvetica,sans-Serif" font-size="10.00">_Empty_Test.tc_VerifyTablecell</text>
<text text-anchor="middle" x="296" y="-815.5" font-family="Helvetica,sans-Serif" font-size="10.00">ValueREGX_Empty</text>
</a>
</g>
</g>
<!-- Node2822&#45;&gt;Node2827 -->
<g id="edge5" class="edge"><title>Node2822&#45;&gt;Node2827</title>
<path fill="none" stroke="midnightblue" d="M76.7787,-603.074C86.9046,-649.142 114.966,-747.263 178,-799 189.427,-808.379 203.434,-814.868 217.733,-819.347"/>
<polygon fill="midnightblue" stroke="midnightblue" points="80.1548,-602.119 74.6803,-593.048 73.3033,-603.553 80.1548,-602.119"/>
</g>
<!-- Node2828 -->
<g id="node7" class="node"><title>Node2828</title>
<g id="a_node7"><a xlink:href="classokw_1_1core_1_1_e_n___keywords___test.html#adc98741747b95e515699e397d5ba035b" target="_top" xlink:title="okw.core.EN_Keywords\l_Test.tc_VerifyTablecellValueREGX">
<polygon fill="white" stroke="black" points="208,-760 208,-790 384,-790 384,-760 208,-760"/>
<text text-anchor="start" x="216" y="-778" font-family="Helvetica,sans-Serif" font-size="10.00">okw.core.EN_Keywords</text>
<text text-anchor="middle" x="296" y="-767" font-family="Helvetica,sans-Serif" font-size="10.00">_Test.tc_VerifyTablecellValueREGX</text>
</a>
</g>
</g>
<!-- Node2822&#45;&gt;Node2828 -->
<g id="edge6" class="edge"><title>Node2822&#45;&gt;Node2828</title>
<path fill="none" stroke="midnightblue" d="M80.1906,-603.071C93.9876,-641.149 125.607,-713.029 178,-750 186.995,-756.347 197.28,-761.138 207.936,-764.744"/>
<polygon fill="midnightblue" stroke="midnightblue" points="83.3734,-601.569 76.7693,-593.284 76.7655,-603.879 83.3734,-601.569"/>
</g>
<!-- Node2829 -->
<g id="node8" class="node"><title>Node2829</title>
<g id="a_node8"><a xlink:href="classokw_1_1core_1_1_e_n___o_k_w_frame_object_child_not_found_exception___test.html#a511a8f03251336a3d77065ce6ca35c4f" target="_top" xlink:title="Prüft ob die Ausnahme OKWFrameObjectChildNotFoundException durch die VerifyTablecellValue ausgelöst w...">
<polygon fill="white" stroke="black" points="190.5,-689 190.5,-741 401.5,-741 401.5,-689 190.5,-689"/>
<text text-anchor="start" x="198.5" y="-729" font-family="Helvetica,sans-Serif" font-size="10.00">okw.core.EN_OKWFrameObject</text>
<text text-anchor="start" x="198.5" y="-718" font-family="Helvetica,sans-Serif" font-size="10.00">ChildNotFoundException</text>
<text text-anchor="start" x="198.5" y="-707" font-family="Helvetica,sans-Serif" font-size="10.00">_Test.TCVerifyTablecellValueREGX</text>
<text text-anchor="middle" x="296" y="-696" font-family="Helvetica,sans-Serif" font-size="10.00">_OKWFrameObjectChildNotFoundException</text>
</a>
</g>
</g>
<!-- Node2822&#45;&gt;Node2829 -->
<g id="edge7" class="edge"><title>Node2822&#45;&gt;Node2829</title>
<path fill="none" stroke="midnightblue" d="M90.6197,-601.151C110.146,-623.996 142.838,-658.404 178,-679 184.235,-682.652 190.877,-685.969 197.709,-688.976"/>
<polygon fill="midnightblue" stroke="midnightblue" points="93.1481,-598.719 84.0412,-593.305 87.784,-603.217 93.1481,-598.719"/>
</g>
<!-- Node2830 -->
<g id="node9" class="node"><title>Node2830</title>
<g id="a_node9"><a xlink:href="classokw_1_1core_1_1_e_n___o_k_w_frame_object_method_not_implemented___test.html#a10d0d2475db796a3b30c2c2bd22b3aa0" target="_top" xlink:title="Prüft ob die Ausnahme OKWFrameObjectMethodNotImplemented von VerifyTablecellValueREGX( FN...">
<polygon fill="white" stroke="black" points="183.5,-618 183.5,-670 408.5,-670 408.5,-618 183.5,-618"/>
<text text-anchor="start" x="191.5" y="-658" font-family="Helvetica,sans-Serif" font-size="10.00">okw.core.EN_OKWFrameObject</text>
<text text-anchor="start" x="191.5" y="-647" font-family="Helvetica,sans-Serif" font-size="10.00">MethodNotImplemented_Test.TC</text>
<text text-anchor="start" x="191.5" y="-636" font-family="Helvetica,sans-Serif" font-size="10.00">_VerifyTablecellValueREGX_OKWFrameObject</text>
<text text-anchor="middle" x="296" y="-625" font-family="Helvetica,sans-Serif" font-size="10.00">MethodNotImplemented</text>
</a>
</g>
</g>
<!-- Node2822&#45;&gt;Node2830 -->
<g id="edge8" class="edge"><title>Node2822&#45;&gt;Node2830</title>
<path fill="none" stroke="midnightblue" d="M132.49,-595.903C155.473,-602.705 182.142,-610.598 207.148,-617.999"/>
<polygon fill="midnightblue" stroke="midnightblue" points="133.463,-592.541 122.881,-593.059 131.477,-599.253 133.463,-592.541"/>
</g>
<!-- Node2831 -->
<g id="node10" class="node"><title>Node2831</title>
<g id="a_node10"><a xlink:href="classokw_1_1core_1_1_e_n___o_k_w_not_allowed_value_exception___keywords___i_g_n_o_r_e.html#ae733dc621c79d0d9cc57d5dd6e1b455b" target="_top" xlink:title="Prüft ob &quot;${IGNORE} &quot; die Ausnahme okw.exceptions.OKWNotAllowedValueException auslöst. ">
<polygon fill="white" stroke="black" points="178,-557.5 178,-598.5 414,-598.5 414,-557.5 178,-557.5"/>
<text text-anchor="start" x="186" y="-586.5" font-family="Helvetica,sans-Serif" font-size="10.00">okw.core.EN_OKWNotAllowed</text>
<text text-anchor="start" x="186" y="-575.5" font-family="Helvetica,sans-Serif" font-size="10.00">ValueException_Keywords</text>
<text text-anchor="middle" x="296" y="-564.5" font-family="Helvetica,sans-Serif" font-size="10.00">_IGNORE.tcVerifyTablecellValueREGXIGNORE1</text>
</a>
</g>
</g>
<!-- Node2822&#45;&gt;Node2831 -->
<g id="edge9" class="edge"><title>Node2822&#45;&gt;Node2831</title>
<path fill="none" stroke="midnightblue" d="M151.775,-578C160.202,-578 168.893,-578 177.631,-578"/>
<polygon fill="midnightblue" stroke="midnightblue" points="151.641,-574.5 141.641,-578 151.641,-581.5 151.641,-574.5"/>
</g>
<!-- Node2832 -->
<g id="node11" class="node"><title>Node2832</title>
<g id="a_node11"><a xlink:href="classokw_1_1core_1_1_e_n___o_k_w_not_allowed_value_exception___keywords___i_g_n_o_r_e.html#a5f909ca3182a179b117d21f8be675f04" target="_top" xlink:title="Prüft ob &quot;&quot;${IGNORE}${TCN}&quot; die Ausnahme okw.exceptions.OKWNotAllowedValueException auslöst...">
<polygon fill="white" stroke="black" points="178,-497.5 178,-538.5 414,-538.5 414,-497.5 178,-497.5"/>
<text text-anchor="start" x="186" y="-526.5" font-family="Helvetica,sans-Serif" font-size="10.00">okw.core.EN_OKWNotAllowed</text>
<text text-anchor="start" x="186" y="-515.5" font-family="Helvetica,sans-Serif" font-size="10.00">ValueException_Keywords</text>
<text text-anchor="middle" x="296" y="-504.5" font-family="Helvetica,sans-Serif" font-size="10.00">_IGNORE.tcVerifyTablecellValueREGXIGNORE2</text>
</a>
</g>
</g>
<!-- Node2822&#45;&gt;Node2832 -->
<g id="edge10" class="edge"><title>Node2822&#45;&gt;Node2832</title>
<path fill="none" stroke="midnightblue" d="M134.04,-560.163C148.452,-556.097 163.747,-551.844 178,-548 189.54,-544.888 201.742,-541.674 213.738,-538.559"/>
<polygon fill="midnightblue" stroke="midnightblue" points="132.895,-556.85 124.226,-562.941 134.802,-563.585 132.895,-556.85"/>
</g>
<!-- Node2833 -->
<g id="node12" class="node"><title>Node2833</title>
<g id="a_node12"><a xlink:href="classokw_1_1core_1_1_e_n___verify_tablecell_value___o_k_w_verifying_fails_exception___test.html#a02ac4fde653672bf8bfdb7339125820a" target="_top" xlink:title="Prüft, ob die Ausnahme OKWVerifyingFailsException bei einem Soll/Ist&#45;Vergleich ausgelöst wird...">
<polygon fill="white" stroke="black" points="205.5,-426 205.5,-478 386.5,-478 386.5,-426 205.5,-426"/>
<text text-anchor="start" x="213.5" y="-466" font-family="Helvetica,sans-Serif" font-size="10.00">okw.core.EN_VerifyTablecell</text>
<text text-anchor="start" x="213.5" y="-455" font-family="Helvetica,sans-Serif" font-size="10.00">Value_OKWVerifyingFailsException</text>
<text text-anchor="start" x="213.5" y="-444" font-family="Helvetica,sans-Serif" font-size="10.00">_Test.TC_VerifyTablecellValueREGX</text>
<text text-anchor="middle" x="296" y="-433" font-family="Helvetica,sans-Serif" font-size="10.00">_OKWVerifyingFailsException_SV01</text>
</a>
</g>
</g>
<!-- Node2822&#45;&gt;Node2833 -->
<g id="edge11" class="edge"><title>Node2822&#45;&gt;Node2833</title>
<path fill="none" stroke="midnightblue" d="M93.0868,-555.492C113.175,-535.247 145.146,-506 178,-488 186.574,-483.303 195.844,-479.131 205.283,-475.448"/>
<polygon fill="midnightblue" stroke="midnightblue" points="90.4676,-553.165 85.9928,-562.768 95.4797,-558.051 90.4676,-553.165"/>
</g>
<!-- Node2834 -->
<g id="node13" class="node"><title>Node2834</title>
<g id="a_node13"><a xlink:href="classokw_1_1core_1_1_e_n___verify_tablecell_value___o_k_w_verifying_fails_exception___test.html#a88624209bc487cb2e28886da39d74690" target="_top" xlink:title="Prüft, ob die Ausnahme OKWVerifyingFailsException bei einem Soll/Ist&#45;Vergleich ausgelöst wird...">
<polygon fill="white" stroke="black" points="205.5,-355 205.5,-407 386.5,-407 386.5,-355 205.5,-355"/>
<text text-anchor="start" x="213.5" y="-395" font-family="Helvetica,sans-Serif" font-size="10.00">okw.core.EN_VerifyTablecell</text>
<text text-anchor="start" x="213.5" y="-384" font-family="Helvetica,sans-Serif" font-size="10.00">Value_OKWVerifyingFailsException</text>
<text text-anchor="start" x="213.5" y="-373" font-family="Helvetica,sans-Serif" font-size="10.00">_Test.TC_VerifyTablecellValueREGX</text>
<text text-anchor="middle" x="296" y="-362" font-family="Helvetica,sans-Serif" font-size="10.00">_OKWVerifyingFailsException_SV02</text>
</a>
</g>
</g>
<!-- Node2822&#45;&gt;Node2834 -->
<g id="edge12" class="edge"><title>Node2822&#45;&gt;Node2834</title>
<path fill="none" stroke="midnightblue" d="M81.9168,-552.999C97.2379,-517.553 129.998,-453.003 178,-417 186.246,-410.815 195.567,-405.682 205.259,-401.424"/>
<polygon fill="midnightblue" stroke="midnightblue" points="78.5342,-552.015 77.8915,-562.59 84.9888,-554.724 78.5342,-552.015"/>
</g>
<!-- Node2835 -->
<g id="node14" class="node"><title>Node2835</title>
<g id="a_node14"><a xlink:href="classokw_1_1core_1_1_e_n___verify_tablecell_value___o_k_w_verifying_fails_exception___test.html#a2553bb0e2602e2cb36522240b0141310" target="_top" xlink:title="Prüft, ob die Ausnahme OKWVerifyingFailsException bei einem Soll/Ist&#45;Vergleich ausgelöst wird...">
<polygon fill="white" stroke="black" points="205.5,-284 205.5,-336 386.5,-336 386.5,-284 205.5,-284"/>
<text text-anchor="start" x="213.5" y="-324" font-family="Helvetica,sans-Serif" font-size="10.00">okw.core.EN_VerifyTablecell</text>
<text text-anchor="start" x="213.5" y="-313" font-family="Helvetica,sans-Serif" font-size="10.00">Value_OKWVerifyingFailsException</text>
<text text-anchor="start" x="213.5" y="-302" font-family="Helvetica,sans-Serif" font-size="10.00">_Test.TC_VerifyTablecellValueREGX</text>
<text text-anchor="middle" x="296" y="-291" font-family="Helvetica,sans-Serif" font-size="10.00">_OKWVerifyingFailsException_SV03</text>
</a>
</g>
</g>
<!-- Node2822&#45;&gt;Node2835 -->
<g id="edge13" class="edge"><title>Node2822&#45;&gt;Node2835</title>
<path fill="none" stroke="midnightblue" d="M76.4335,-552.984C86.1464,-505.578 113.777,-402.369 178,-346 186.066,-338.92 195.503,-333.233 205.455,-328.664"/>
<polygon fill="midnightblue" stroke="midnightblue" points="72.9596,-552.513 74.4811,-562.998 79.8302,-553.853 72.9596,-552.513"/>
</g>
<!-- Node2836 -->
<g id="node15" class="node"><title>Node2836</title>
<g id="a_node15"><a xlink:href="classokw_1_1core_1_1_e_n___verify_tablecell_value___o_k_w_verifying_fails_exception___test.html#a359a0bb60beff412c850944fe27b43f4" target="_top" xlink:title="Prüft, ob die Ausnahme OKWVerifyingFailsException bei einem Soll/Ist&#45;Vergleich ausgelöst wird...">
<polygon fill="white" stroke="black" points="205.5,-213 205.5,-265 386.5,-265 386.5,-213 205.5,-213"/>
<text text-anchor="start" x="213.5" y="-253" font-family="Helvetica,sans-Serif" font-size="10.00">okw.core.EN_VerifyTablecell</text>
<text text-anchor="start" x="213.5" y="-242" font-family="Helvetica,sans-Serif" font-size="10.00">Value_OKWVerifyingFailsException</text>
<text text-anchor="start" x="213.5" y="-231" font-family="Helvetica,sans-Serif" font-size="10.00">_Test.TC_VerifyTablecellValueREGX</text>
<text text-anchor="middle" x="296" y="-220" font-family="Helvetica,sans-Serif" font-size="10.00">_OKWVerifyingFailsException_MV01</text>
</a>
</g>
</g>
<!-- Node2822&#45;&gt;Node2836 -->
<g id="edge14" class="edge"><title>Node2822&#45;&gt;Node2836</title>
<path fill="none" stroke="midnightblue" d="M73.3981,-552.847C77.97,-495.233 97.2825,-352.705 178,-275 185.885,-267.409 195.333,-261.416 205.395,-256.684"/>
<polygon fill="midnightblue" stroke="midnightblue" points="69.9022,-552.665 72.6853,-562.888 76.8847,-553.161 69.9022,-552.665"/>
</g>
<!-- Node2837 -->
<g id="node16" class="node"><title>Node2837</title>
<g id="a_node16"><a xlink:href="classokw_1_1core_1_1_e_n___verify_tablecell_value___o_k_w_verifying_fails_exception___test.html#a909f15cd224ba65ae57247d2b079c6f8" target="_top" xlink:title="Prüft, ob die Ausnahme OKWVerifyingFailsException bei einem Soll/Ist&#45;Vergleich ausgelöst wird...">
<polygon fill="white" stroke="black" points="205.5,-142 205.5,-194 386.5,-194 386.5,-142 205.5,-142"/>
<text text-anchor="start" x="213.5" y="-182" font-family="Helvetica,sans-Serif" font-size="10.00">okw.core.EN_VerifyTablecell</text>
<text text-anchor="start" x="213.5" y="-171" font-family="Helvetica,sans-Serif" font-size="10.00">Value_OKWVerifyingFailsException</text>
<text text-anchor="start" x="213.5" y="-160" font-family="Helvetica,sans-Serif" font-size="10.00">_Test.TC_VerifyTablecellValueREGX</text>
<text text-anchor="middle" x="296" y="-149" font-family="Helvetica,sans-Serif" font-size="10.00">_OKWVerifyingFailsException_MV02</text>
</a>
</g>
</g>
<!-- Node2822&#45;&gt;Node2837 -->
<g id="edge15" class="edge"><title>Node2822&#45;&gt;Node2837</title>
<path fill="none" stroke="midnightblue" d="M71.4277,-552.638C71.3474,-485.889 80.5596,-303.64 178,-204 185.727,-196.099 195.142,-189.922 205.241,-185.096"/>
<polygon fill="midnightblue" stroke="midnightblue" points="67.928,-552.708 71.5139,-562.678 74.9278,-552.648 67.928,-552.708"/>
</g>
<!-- Node2838 -->
<g id="node17" class="node"><title>Node2838</title>
<g id="a_node17"><a xlink:href="classokw_1_1core_1_1_e_n___verify_tablecell_value___o_k_w_verifying_fails_exception___test.html#a049652d58c51a7a6d538c990dcb0f382" target="_top" xlink:title="Prüft, ob die Ausnahme OKWVerifyingFailsException bei einem Soll/Ist&#45;Vergleich ausgelöst wird...">
<polygon fill="white" stroke="black" points="205.5,-71 205.5,-123 386.5,-123 386.5,-71 205.5,-71"/>
<text text-anchor="start" x="213.5" y="-111" font-family="Helvetica,sans-Serif" font-size="10.00">okw.core.EN_VerifyTablecell</text>
<text text-anchor="start" x="213.5" y="-100" font-family="Helvetica,sans-Serif" font-size="10.00">Value_OKWVerifyingFailsException</text>
<text text-anchor="start" x="213.5" y="-89" font-family="Helvetica,sans-Serif" font-size="10.00">_Test.TC_VerifyTablecellValueREGX</text>
<text text-anchor="middle" x="296" y="-78" font-family="Helvetica,sans-Serif" font-size="10.00">_OKWVerifyingFailsException_MV03</text>
</a>
</g>
</g>
<!-- Node2822&#45;&gt;Node2838 -->
<g id="edge16" class="edge"><title>Node2822&#45;&gt;Node2838</title>
<path fill="none" stroke="midnightblue" d="M74.7185,-552.86C84.3524,-468.222 119.464,-195.449 178,-133 185.703,-124.782 195.231,-118.424 205.499,-113.508"/>
<polygon fill="midnightblue" stroke="midnightblue" points="71.232,-552.545 73.5987,-562.872 78.1886,-553.323 71.232,-552.545"/>
</g>
<!-- Node2839 -->
<g id="node18" class="node"><title>Node2839</title>
<g id="a_node18"><a xlink:href="classokw_1_1core_1_1_e_n___verify_tablecell_value___o_k_w_verifying_fails_exception___test.html#ae38ba2da3ba56970050e04f57c2ca87e" target="_top" xlink:title="Prüft, ob die Ausnahme OKWVerifyingFailsException bei einem Soll/Ist&#45;Vergleich ausgelöst wird...">
<polygon fill="white" stroke="black" points="205.5,-0 205.5,-52 386.5,-52 386.5,-0 205.5,-0"/>
<text text-anchor="start" x="213.5" y="-40" font-family="Helvetica,sans-Serif" font-size="10.00">okw.core.EN_VerifyTablecell</text>
<text text-anchor="start" x="213.5" y="-29" font-family="Helvetica,sans-Serif" font-size="10.00">Value_OKWVerifyingFailsException</text>
<text text-anchor="start" x="213.5" y="-18" font-family="Helvetica,sans-Serif" font-size="10.00">_Test.TC_VerifyTablecellValueREGX</text>
<text text-anchor="middle" x="296" y="-7" font-family="Helvetica,sans-Serif" font-size="10.00">_OKWVerifyingFailsException_MV04</text>
</a>
</g>
</g>
<!-- Node2822&#45;&gt;Node2839 -->
<g id="edge17" class="edge"><title>Node2822&#45;&gt;Node2839</title>
<path fill="none" stroke="midnightblue" d="M73.8451,-552.625C81.1324,-459.191 110.857,-135.911 178,-62 185.574,-53.6628 195.026,-47.2347 205.255,-42.2825"/>
<polygon fill="midnightblue" stroke="midnightblue" points="70.3362,-552.611 73.0667,-562.848 77.316,-553.143 70.3362,-552.611"/>
</g>
</g>
</svg>
        <g id="navigator" transform="translate(0 0)" fill="#404254">
                <rect fill="#f2f5e9" fill-opacity="0.5" stroke="#606060" stroke-width=".5" x="0" y="0" width="60" height="60"/>
                <use id="zoomplus" xlink:href="#zoomPlus" x="17" y="9" onmousedown="handleZoom(evt,'in')"/>
                <use id="zoomminus" xlink:href="#zoomMin" x="42" y="9" onmousedown="handleZoom(evt,'out')"/>
                <use id="reset" xlink:href="#resetDef" x="30" y="36" onmousedown="handleReset()"/>
                <g id="arrowUp" xlink:href="#dirArrow" transform="translate(30 24)" onmousedown="handlePan(0,-1)">
                  <use xlink:href="#rim" fill="#404040">
                        <set attributeName="fill" to="#808080" begin="arrowUp.mouseover" end="arrowUp.mouseout"/>
                  </use>
                  <path fill="none" stroke="white" stroke-width="1.5" d="M0,-3.0v7 M-2.5,-0.5L0,-3.0L2.5,-0.5"/>
                </g>
                <g id="arrowRight" xlink:href="#dirArrow" transform="rotate(90) translate(36 -43)" onmousedown="handlePan(1,0)">
                  <use xlink:href="#rim" fill="#404040">
                        <set attributeName="fill" to="#808080" begin="arrowRight.mouseover" end="arrowRight.mouseout"/>
                  </use>
                  <path fill="none" stroke="white" stroke-width="1.5" d="M0,-3.0v7 M-2.5,-0.5L0,-3.0L2.5,-0.5"/>
                </g>
                <g id="arrowDown" xlink:href="#dirArrow" transform="rotate(180) translate(-30 -48)" onmousedown="handlePan(0,1)">
                  <use xlink:href="#rim" fill="#404040">
                        <set attributeName="fill" to="#808080" begin="arrowDown.mouseover" end="arrowDown.mouseout"/>
                  </use>
                  <path fill="none" stroke="white" stroke-width="1.5" d="M0,-3.0v7 M-2.5,-0.5L0,-3.0L2.5,-0.5"/>
                </g>
                <g id="arrowLeft" xlink:href="#dirArrow" transform="rotate(270) translate(-36 17)" onmousedown="handlePan(-1,0)">
                  <use xlink:href="#rim" fill="#404040">
                        <set attributeName="fill" to="#808080" begin="arrowLeft.mouseover" end="arrowLeft.mouseout"/>
                  </use>
                  <path fill="none" stroke="white" stroke-width="1.5" d="M0,-3.0v7 M-2.5,-0.5L0,-3.0L2.5,-0.5"/>
                </g>
        </g>
        <svg viewBox="0 0 15 15" width="100%" height="30px" preserveAspectRatio="xMaxYMin meet">
         <g id="arrow_out" transform="scale(0.3 0.3)">
          <a xlink:href="classokw_1_1core_1_1_e_n_aa7f564b9473f69377d40c80e0508752a_icgraph_org.svg" target="_base">
           <rect id="button" ry="5" rx="5" y="6" x="6" height="38" width="38"
                fill="#f2f5e9" fill-opacity="0.5" stroke="#606060" stroke-width="1.0"/>
           <path id="arrow"
             d="M 11.500037,31.436501 C 11.940474,20.09759 22.043105,11.32322 32.158766,21.979434 L 37.068811,17.246167 C 37.068811,17.246167 37.088388,32 37.088388,32 L 22.160133,31.978069 C 22.160133,31.978069 26.997745,27.140456 26.997745,27.140456 C 18.528582,18.264221 13.291696,25.230495 11.500037,31.436501 z"
             style="fill:#404040;"/>
          </a>
         </g>
        </svg>
</svg>
