<?xml version="1.0" encoding="UTF-8" standalone="no"?>
<!DOCTYPE svg PUBLIC "-//W3C//DTD SVG 1.1//EN"
 "http://www.w3.org/Graphics/SVG/1.1/DTD/svg11.dtd">
<!-- Generated by graphviz version 2.36.0 (20140111.2315)
 -->
<!-- Title: okw.gui.adapter.selenium.webdriver.SeChromeApp Pages: 1 -->
<svg width="945pt" height="1554pt"
 viewBox="0.00 0.00 945.00 1554.00" xmlns="http://www.w3.org/2000/svg" xmlns:xlink="http://www.w3.org/1999/xlink">
<g id="graph0" class="graph" transform="scale(1 1) rotate(0) translate(4 1550)">
<title>okw.gui.adapter.selenium.webdriver.SeChromeApp</title>
<polygon fill="white" stroke="none" points="-4,4 -4,-1550 941,-1550 941,4 -4,4"/>
<!-- Node5 -->
<g id="node1" class="node"><title>Node5</title>
<polygon fill="#bfbfbf" stroke="black" points="400,-1 400,-113 576,-113 576,-1 400,-1"/>
<text text-anchor="start" x="408" y="-101" font-family="Helvetica,sans-Serif" font-size="10.00">okw.gui.adapter.selenium.webdriver.</text>
<text text-anchor="middle" x="488" y="-90" font-family="Helvetica,sans-Serif" font-size="10.00">SeChromeApp</text>
<polyline fill="none" stroke="black" points="400,-83 576,-83 "/>
<text text-anchor="middle" x="488" y="-71" font-family="Helvetica,sans-Serif" font-size="10.00"> </text>
<polyline fill="none" stroke="black" points="400,-64 576,-64 "/>
<text text-anchor="start" x="408" y="-52" font-family="Helvetica,sans-Serif" font-size="10.00">+ SeChromeApp()</text>
<text text-anchor="start" x="408" y="-41" font-family="Helvetica,sans-Serif" font-size="10.00">+ Init()</text>
<text text-anchor="start" x="408" y="-30" font-family="Helvetica,sans-Serif" font-size="10.00">+ SelectWindow()</text>
<text text-anchor="start" x="408" y="-19" font-family="Helvetica,sans-Serif" font-size="10.00">+ StartApp()</text>
<text text-anchor="start" x="408" y="-8" font-family="Helvetica,sans-Serif" font-size="10.00">+ StopApp()</text>
</g>
<!-- Node6 -->
<g id="node2" class="node"><title>Node6</title>
<g id="a_node2"><a xlink:href="classokw_1_1gui_1_1_any_window.html" target="_top" xlink:title="Description of AnyWin. ">
<polygon fill="white" stroke="black" points="642,-153 642,-331 770,-331 770,-153 642,-153"/>
<text text-anchor="middle" x="706" y="-319" font-family="Helvetica,sans-Serif" font-size="10.00">okw.gui.AnyWindow</text>
<polyline fill="none" stroke="black" points="642,-312 770,-312 "/>
<text text-anchor="middle" x="706" y="-300" font-family="Helvetica,sans-Serif" font-size="10.00"> </text>
<polyline fill="none" stroke="black" points="642,-293 770,-293 "/>
<text text-anchor="start" x="650" y="-281" font-family="Helvetica,sans-Serif" font-size="10.00">+ AnyWindow()</text>
<text text-anchor="start" x="650" y="-270" font-family="Helvetica,sans-Serif" font-size="10.00">+ getExists()</text>
<text text-anchor="start" x="650" y="-259" font-family="Helvetica,sans-Serif" font-size="10.00">+ getCaption()</text>
<text text-anchor="start" x="650" y="-248" font-family="Helvetica,sans-Serif" font-size="10.00">+ getIsActive()</text>
<text text-anchor="start" x="650" y="-237" font-family="Helvetica,sans-Serif" font-size="10.00">+ TypeKeyWindow()</text>
<text text-anchor="start" x="650" y="-226" font-family="Helvetica,sans-Serif" font-size="10.00">+ SelectWindow()</text>
<text text-anchor="start" x="650" y="-215" font-family="Helvetica,sans-Serif" font-size="10.00">+ StartApp()</text>
<text text-anchor="start" x="650" y="-204" font-family="Helvetica,sans-Serif" font-size="10.00">+ StopApp()</text>
<text text-anchor="start" x="650" y="-193" font-family="Helvetica,sans-Serif" font-size="10.00">+ VerifyWindowExists()</text>
<text text-anchor="start" x="650" y="-182" font-family="Helvetica,sans-Serif" font-size="10.00">+ VerifyIsWindowActive()</text>
<text text-anchor="start" x="650" y="-171" font-family="Helvetica,sans-Serif" font-size="10.00">+ VerifyWindowCaption()</text>
<text text-anchor="start" x="650" y="-160" font-family="Helvetica,sans-Serif" font-size="10.00">+ WaitForMe()</text>
</a>
</g>
</g>
<!-- Node6&#45;&gt;Node5 -->
<g id="edge1" class="edge"><title>Node6&#45;&gt;Node5</title>
<path fill="none" stroke="midnightblue" d="M633.849,-180.433C607.972,-158.71 578.954,-134.351 553.657,-113.115"/>
<polygon fill="none" stroke="midnightblue" points="631.862,-183.335 641.772,-187.084 636.363,-177.974 631.862,-183.335"/>
</g>
<!-- Node7 -->
<g id="node3" class="node"><title>Node7</title>
<g id="a_node3"><a xlink:href="classokw_1_1gui_1_1_any_win_base.html" target="_top" xlink:title="Description of AnyWin. ">
<polygon fill="white" stroke="black" points="533,-381 533,-647 667,-647 667,-381 533,-381"/>
<text text-anchor="middle" x="600" y="-635" font-family="Helvetica,sans-Serif" font-size="10.00">okw.gui.AnyWinBase</text>
<polyline fill="none" stroke="black" points="533,-628 667,-628 "/>
<text text-anchor="start" x="541" y="-616" font-family="Helvetica,sans-Serif" font-size="10.00">&#45; myFN</text>
<text text-anchor="start" x="541" y="-605" font-family="Helvetica,sans-Serif" font-size="10.00">&#45; myKN</text>
<text text-anchor="start" x="541" y="-594" font-family="Helvetica,sans-Serif" font-size="10.00">&#45; myParentFN</text>
<polyline fill="none" stroke="black" points="533,-587 667,-587 "/>
<text text-anchor="start" x="541" y="-575" font-family="Helvetica,sans-Serif" font-size="10.00">+ getLocator()</text>
<text text-anchor="start" x="541" y="-564" font-family="Helvetica,sans-Serif" font-size="10.00">+ getLOCATOR()</text>
<text text-anchor="start" x="541" y="-553" font-family="Helvetica,sans-Serif" font-size="10.00">+ setLocator()</text>
<text text-anchor="start" x="541" y="-542" font-family="Helvetica,sans-Serif" font-size="10.00">+ getExists()</text>
<text text-anchor="start" x="541" y="-531" font-family="Helvetica,sans-Serif" font-size="10.00">+ AnyWinBase()</text>
<text text-anchor="start" x="541" y="-520" font-family="Helvetica,sans-Serif" font-size="10.00">+ AnyWinBase()</text>
<text text-anchor="start" x="541" y="-509" font-family="Helvetica,sans-Serif" font-size="10.00">+ getFN()</text>
<text text-anchor="start" x="541" y="-498" font-family="Helvetica,sans-Serif" font-size="10.00">+ getKN()</text>
<text text-anchor="start" x="541" y="-487" font-family="Helvetica,sans-Serif" font-size="10.00">+ getParentFN()</text>
<text text-anchor="start" x="541" y="-476" font-family="Helvetica,sans-Serif" font-size="10.00">+ setFN()</text>
<text text-anchor="start" x="541" y="-465" font-family="Helvetica,sans-Serif" font-size="10.00">+ setKN()</text>
<text text-anchor="start" x="541" y="-454" font-family="Helvetica,sans-Serif" font-size="10.00">+ setParentFN()</text>
<text text-anchor="start" x="541" y="-443" font-family="Helvetica,sans-Serif" font-size="10.00"># LogFunctionStartDebug()</text>
<text text-anchor="start" x="541" y="-432" font-family="Helvetica,sans-Serif" font-size="10.00"># LogFunctionStartDebug()</text>
<text text-anchor="start" x="541" y="-421" font-family="Helvetica,sans-Serif" font-size="10.00"># LogFunctionEndDebug()</text>
<text text-anchor="start" x="541" y="-410" font-family="Helvetica,sans-Serif" font-size="10.00"># LogFunctionEndDebug()</text>
<text text-anchor="start" x="541" y="-399" font-family="Helvetica,sans-Serif" font-size="10.00"># LogFunctionEndDebug()</text>
<text text-anchor="start" x="541" y="-388" font-family="Helvetica,sans-Serif" font-size="10.00"># LogFunctionEndDebug()</text>
</a>
</g>
</g>
<!-- Node7&#45;&gt;Node6 -->
<g id="edge2" class="edge"><title>Node7&#45;&gt;Node6</title>
<path fill="none" stroke="midnightblue" d="M655.631,-371.299C660.996,-357.633 666.325,-344.059 671.398,-331.138"/>
<polygon fill="none" stroke="midnightblue" points="652.31,-370.181 651.913,-380.768 658.826,-372.739 652.31,-370.181"/>
</g>
<!-- Node8 -->
<g id="node4" class="node"><title>Node8</title>
<g id="a_node4"><a xlink:href="classokw_1_1gui_1_1_o_k_w_locator.html" target="_top" xlink:title="Description of OKWLocator. ">
<polygon fill="white" stroke="black" points="604,-724.5 604,-803.5 714,-803.5 714,-724.5 604,-724.5"/>
<text text-anchor="middle" x="659" y="-791.5" font-family="Helvetica,sans-Serif" font-size="10.00">okw.gui.OKWLocator</text>
<polyline fill="none" stroke="black" points="604,-784.5 714,-784.5 "/>
<text text-anchor="start" x="612" y="-772.5" font-family="Helvetica,sans-Serif" font-size="10.00">&#45; _locator</text>
<polyline fill="none" stroke="black" points="604,-765.5 714,-765.5 "/>
<text text-anchor="start" x="612" y="-753.5" font-family="Helvetica,sans-Serif" font-size="10.00">+ OKWLocator()</text>
<text text-anchor="start" x="612" y="-742.5" font-family="Helvetica,sans-Serif" font-size="10.00">+ getLocator()</text>
<text text-anchor="start" x="612" y="-731.5" font-family="Helvetica,sans-Serif" font-size="10.00">+ setLocator()</text>
</a>
</g>
</g>
<!-- Node8&#45;&gt;Node7 -->
<g id="edge3" class="edge"><title>Node8&#45;&gt;Node7</title>
<path fill="none" stroke="#404040" d="M649.781,-724.25C645.45,-706.045 639.989,-683.089 634.282,-659.101"/>
<polygon fill="none" stroke="#404040" points="634.242,-658.933 628.962,-654.022 631.465,-647.259 636.745,-652.171 634.242,-658.933"/>
<text text-anchor="middle" x="660.5" y="-669.5" font-family="Helvetica,sans-Serif" font-size="10.00"> #_locator</text>
</g>
<!-- Node8&#45;&gt;Node8 -->
<g id="edge4" class="edge"><title>Node8&#45;&gt;Node8</title>
<path fill="none" stroke="#404040" d="M714.073,-780.425C724.574,-778.459 732,-772.984 732,-764 732,-758.806 729.518,-754.785 725.395,-751.937"/>
<polygon fill="none" stroke="#404040" points="725.271,-751.889 718.234,-753.465 714.073,-747.575 721.11,-746 725.271,-751.889"/>
<text text-anchor="middle" x="759.5" y="-761.5" font-family="Helvetica,sans-Serif" font-size="10.00"> &#45;_Locatoren</text>
</g>
<!-- Node9 -->
<g id="node5" class="node"><title>Node9</title>
<g id="a_node5"><a xlink:href="classokw_1_1log_1_1_logger___sngltn.html" target="_top" xlink:title="{okw.log.Logger_Sngltn\n|&#45; cvbDebugMode\l|+ getDebugMode()\l+ setDebugMode()\l+ addLogger()\l+ reset()\l+ LogError()\l+ LogException()\l+ LogFunctionEnd()\l+ LogFunctionEnd()\l+ LogFunctionEnd()\l+ LogFunctionEnd()\l+ LogFunctionEndDebug()\l+ LogFunctionEndDebug()\l+ LogFunctionEndDebug()\l+ LogFunctionEndDebug()\l+ LogFunctionStart()\l+ LogFunctionStartDebug()\l+ LogKeyWordEnd()\l+ LogSequenceEnd()\l+ LogTestcaseEnd()\l+ LogKeyWordStart()\l+ LogSequenceStart()\l+ LogTestcaseStart()\l+ LogPass()\l+ LogPrint()\l+ LogPrintDebug()\l+ LogWarning()\l+ ResCloseList()\l+ ResCloseListDebug()\l+ ResOpenList()\l+ ResOpenListDebug()\l+ getInstance()\l+ init()\l&#45; Logger_Sngltn()\l}">
<polygon fill="white" stroke="black" points="449,-880.5 449,-1289.5 583,-1289.5 583,-880.5 449,-880.5"/>
<text text-anchor="middle" x="516" y="-1277.5" font-family="Helvetica,sans-Serif" font-size="10.00">okw.log.Logger_Sngltn</text>
<polyline fill="none" stroke="black" points="449,-1270.5 583,-1270.5 "/>
<text text-anchor="start" x="457" y="-1258.5" font-family="Helvetica,sans-Serif" font-size="10.00">&#45; cvbDebugMode</text>
<polyline fill="none" stroke="black" points="449,-1251.5 583,-1251.5 "/>
<text text-anchor="start" x="457" y="-1239.5" font-family="Helvetica,sans-Serif" font-size="10.00">+ getDebugMode()</text>
<text text-anchor="start" x="457" y="-1228.5" font-family="Helvetica,sans-Serif" font-size="10.00">+ setDebugMode()</text>
<text text-anchor="start" x="457" y="-1217.5" font-family="Helvetica,sans-Serif" font-size="10.00">+ addLogger()</text>
<text text-anchor="start" x="457" y="-1206.5" font-family="Helvetica,sans-Serif" font-size="10.00">+ reset()</text>
<text text-anchor="start" x="457" y="-1195.5" font-family="Helvetica,sans-Serif" font-size="10.00">+ LogError()</text>
<text text-anchor="start" x="457" y="-1184.5" font-family="Helvetica,sans-Serif" font-size="10.00">+ LogException()</text>
<text text-anchor="start" x="457" y="-1173.5" font-family="Helvetica,sans-Serif" font-size="10.00">+ LogFunctionEnd()</text>
<text text-anchor="start" x="457" y="-1162.5" font-family="Helvetica,sans-Serif" font-size="10.00">+ LogFunctionEnd()</text>
<text text-anchor="start" x="457" y="-1151.5" font-family="Helvetica,sans-Serif" font-size="10.00">+ LogFunctionEnd()</text>
<text text-anchor="start" x="457" y="-1140.5" font-family="Helvetica,sans-Serif" font-size="10.00">+ LogFunctionEnd()</text>
<text text-anchor="start" x="457" y="-1129.5" font-family="Helvetica,sans-Serif" font-size="10.00">+ LogFunctionEndDebug()</text>
<text text-anchor="start" x="457" y="-1118.5" font-family="Helvetica,sans-Serif" font-size="10.00">+ LogFunctionEndDebug()</text>
<text text-anchor="start" x="457" y="-1107.5" font-family="Helvetica,sans-Serif" font-size="10.00">+ LogFunctionEndDebug()</text>
<text text-anchor="start" x="457" y="-1096.5" font-family="Helvetica,sans-Serif" font-size="10.00">+ LogFunctionEndDebug()</text>
<text text-anchor="start" x="457" y="-1085.5" font-family="Helvetica,sans-Serif" font-size="10.00">+ LogFunctionStart()</text>
<text text-anchor="start" x="457" y="-1074.5" font-family="Helvetica,sans-Serif" font-size="10.00">+ LogFunctionStartDebug()</text>
<text text-anchor="start" x="457" y="-1063.5" font-family="Helvetica,sans-Serif" font-size="10.00">+ LogKeyWordEnd()</text>
<text text-anchor="start" x="457" y="-1052.5" font-family="Helvetica,sans-Serif" font-size="10.00">+ LogSequenceEnd()</text>
<text text-anchor="start" x="457" y="-1041.5" font-family="Helvetica,sans-Serif" font-size="10.00">+ LogTestcaseEnd()</text>
<text text-anchor="start" x="457" y="-1030.5" font-family="Helvetica,sans-Serif" font-size="10.00">+ LogKeyWordStart()</text>
<text text-anchor="start" x="457" y="-1019.5" font-family="Helvetica,sans-Serif" font-size="10.00">+ LogSequenceStart()</text>
<text text-anchor="start" x="457" y="-1008.5" font-family="Helvetica,sans-Serif" font-size="10.00">+ LogTestcaseStart()</text>
<text text-anchor="start" x="457" y="-997.5" font-family="Helvetica,sans-Serif" font-size="10.00">+ LogPass()</text>
<text text-anchor="start" x="457" y="-986.5" font-family="Helvetica,sans-Serif" font-size="10.00">+ LogPrint()</text>
<text text-anchor="start" x="457" y="-975.5" font-family="Helvetica,sans-Serif" font-size="10.00">+ LogPrintDebug()</text>
<text text-anchor="start" x="457" y="-964.5" font-family="Helvetica,sans-Serif" font-size="10.00">+ LogWarning()</text>
<text text-anchor="start" x="457" y="-953.5" font-family="Helvetica,sans-Serif" font-size="10.00">+ ResCloseList()</text>
<text text-anchor="start" x="457" y="-942.5" font-family="Helvetica,sans-Serif" font-size="10.00">+ ResCloseListDebug()</text>
<text text-anchor="start" x="457" y="-931.5" font-family="Helvetica,sans-Serif" font-size="10.00">+ ResOpenList()</text>
<text text-anchor="start" x="457" y="-920.5" font-family="Helvetica,sans-Serif" font-size="10.00">+ ResOpenListDebug()</text>
<text text-anchor="start" x="457" y="-909.5" font-family="Helvetica,sans-Serif" font-size="10.00">+ getInstance()</text>
<text text-anchor="start" x="457" y="-898.5" font-family="Helvetica,sans-Serif" font-size="10.00">+ init()</text>
<text text-anchor="start" x="457" y="-887.5" font-family="Helvetica,sans-Serif" font-size="10.00">&#45; Logger_Sngltn()</text>
</a>
</g>
</g>
<!-- Node9&#45;&gt;Node5 -->
<g id="edge22" class="edge"><title>Node9&#45;&gt;Node5</title>
<path fill="none" stroke="#404040" d="M492.782,-880.449C489.932,-842.146 488,-802.388 488,-765 488,-765 488,-765 488,-241 488,-202.801 488,-160.116 488,-125.585"/>
<polygon fill="none" stroke="#404040" points="488,-125.256 484,-119.256 488,-113.256 492,-119.256 488,-125.256"/>
<text text-anchor="middle" x="501.5" y="-511.5" font-family="Helvetica,sans-Serif" font-size="10.00"> &#45;LOG</text>
</g>
<!-- Node9&#45;&gt;Node7 -->
<g id="edge8" class="edge"><title>Node9&#45;&gt;Node7</title>
<path fill="none" stroke="#404040" d="M521.128,-880.463C525.063,-820.661 531.748,-755.377 543,-696 545.301,-683.858 548.151,-671.388 551.341,-658.947"/>
<polygon fill="none" stroke="#404040" points="551.422,-658.639 549.093,-651.815 554.496,-647.039 556.826,-653.864 551.422,-658.639"/>
<text text-anchor="middle" x="569" y="-761.5" font-family="Helvetica,sans-Serif" font-size="10.00"> ~myLogger</text>
</g>
<!-- Node9&#45;&gt;Node8 -->
<g id="edge5" class="edge"><title>Node9&#45;&gt;Node8</title>
<path fill="none" stroke="#404040" d="M583.104,-934.307C602.363,-891.344 622.049,-847.428 636.545,-815.092"/>
<polygon fill="none" stroke="#404040" points="636.731,-814.676 635.536,-807.565 641.64,-803.726 642.836,-810.837 636.731,-814.676"/>
<text text-anchor="middle" x="645.5" y="-853.5" font-family="Helvetica,sans-Serif" font-size="10.00"> &#45;myLogger</text>
</g>
<!-- Node9&#45;&gt;Node9 -->
<g id="edge7" class="edge"><title>Node9&#45;&gt;Node9</title>
<path fill="none" stroke="#404040" d="M583.337,-1124.18C593.84,-1118.32 601,-1105.26 601,-1085 601,-1071.39 597.768,-1061.02 592.461,-1053.91"/>
<polygon fill="none" stroke="#404040" points="592.315,-1053.78 585.172,-1052.8 583.337,-1045.82 590.48,-1046.81 592.315,-1053.78"/>
<text text-anchor="middle" x="623" y="-1082.5" font-family="Helvetica,sans-Serif" font-size="10.00"> &#45;Instance</text>
</g>
<!-- Node13 -->
<g id="node9" class="node"><title>Node13</title>
<g id="a_node9"><a xlink:href="classokw_1_1_o_k_w___memorize___sngltn.html" target="_top" xlink:title="OKW_Memorize ist die Speicher&#45;Klasse hinter den Merke*&#45;Schlüsselwörter. ">
<polygon fill="white" stroke="black" points="254.5,-697 254.5,-831 397.5,-831 397.5,-697 254.5,-697"/>
<text text-anchor="middle" x="326" y="-819" font-family="Helvetica,sans-Serif" font-size="10.00">okw.OKW_Memorize_Sngltn</text>
<polyline fill="none" stroke="black" points="254.5,-812 397.5,-812 "/>
<text text-anchor="start" x="262.5" y="-800" font-family="Helvetica,sans-Serif" font-size="10.00">+ OKW_Memorize_xml</text>
<polyline fill="none" stroke="black" points="254.5,-793 397.5,-793 "/>
<text text-anchor="start" x="262.5" y="-781" font-family="Helvetica,sans-Serif" font-size="10.00">+ exists()</text>
<text text-anchor="start" x="262.5" y="-770" font-family="Helvetica,sans-Serif" font-size="10.00">+ get()</text>
<text text-anchor="start" x="262.5" y="-759" font-family="Helvetica,sans-Serif" font-size="10.00">+ init()</text>
<text text-anchor="start" x="262.5" y="-748" font-family="Helvetica,sans-Serif" font-size="10.00">+ save()</text>
<text text-anchor="start" x="262.5" y="-737" font-family="Helvetica,sans-Serif" font-size="10.00">+ set()</text>
<text text-anchor="start" x="262.5" y="-726" font-family="Helvetica,sans-Serif" font-size="10.00">+ getInstance()</text>
<text text-anchor="start" x="262.5" y="-715" font-family="Helvetica,sans-Serif" font-size="10.00">+ reset()</text>
<text text-anchor="start" x="262.5" y="-704" font-family="Helvetica,sans-Serif" font-size="10.00">&#45; OKW_Memorize_Sngltn()</text>
</a>
</g>
</g>
<!-- Node9&#45;&gt;Node13 -->
<g id="edge21" class="edge"><title>Node9&#45;&gt;Node13</title>
<path fill="none" stroke="#404040" d="M448.942,-927.194C440.46,-910.932 431.428,-894.916 422,-880 413.64,-866.774 403.907,-853.412 393.908,-840.71"/>
<polygon fill="none" stroke="#404040" points="393.738,-840.498 386.863,-838.321 386.228,-831.138 393.103,-833.315 393.738,-840.498"/>
<text text-anchor="middle" x="420" y="-853.5" font-family="Helvetica,sans-Serif" font-size="10.00"> &#45;Log</text>
</g>
<!-- Node10 -->
<g id="node6" class="node"><title>Node10</title>
<polygon fill="white" stroke="#bfbfbf" points="444.5,-1360.5 444.5,-1417.5 587.5,-1417.5 587.5,-1360.5 444.5,-1360.5"/>
<text text-anchor="middle" x="516" y="-1405.5" font-family="Helvetica,sans-Serif" font-size="10.00">ArrayList&lt; okw.log.ILogger &gt;</text>
<polyline fill="none" stroke="#bfbfbf" points="444.5,-1398.5 587.5,-1398.5 "/>
<text text-anchor="middle" x="516" y="-1386.5" font-family="Helvetica,sans-Serif" font-size="10.00"> </text>
<polyline fill="none" stroke="#bfbfbf" points="444.5,-1379.5 587.5,-1379.5 "/>
<text text-anchor="middle" x="516" y="-1367.5" font-family="Helvetica,sans-Serif" font-size="10.00"> </text>
</g>
<!-- Node10&#45;&gt;Node9 -->
<g id="edge6" class="edge"><title>Node10&#45;&gt;Node9</title>
<path fill="none" stroke="#404040" d="M516,-1360.4C516,-1345.21 516,-1324.82 516,-1301.98"/>
<polygon fill="none" stroke="#404040" points="516,-1301.82 512,-1295.82 516,-1289.82 520,-1295.82 516,-1301.82"/>
<text text-anchor="middle" x="542" y="-1311.5" font-family="Helvetica,sans-Serif" font-size="10.00"> &#45;LoggerList</text>
</g>
<!-- Node11 -->
<g id="node7" class="node"><title>Node11</title>
<g id="a_node7"><a xlink:href="interfaceokw_1_1gui_1_1_i_g_u_i_window.html" target="_top" xlink:title="{okw.gui.IGUIWindow\n||+ getCaption()\l+ getExists()\l+ getIsActive()\l+ TypeKeyWindow()\l+ SelectWindow()\l+ StartApp()\l+ StopApp()\l+ VerifyWindowExists()\l+ VerifyIsWindowActive()\l+ VerifyWindowCaption()\l}">
<polygon fill="white" stroke="black" points="685,-436 685,-592 813,-592 813,-436 685,-436"/>
<text text-anchor="middle" x="749" y="-580" font-family="Helvetica,sans-Serif" font-size="10.00">okw.gui.IGUIWindow</text>
<polyline fill="none" stroke="black" points="685,-573 813,-573 "/>
<text text-anchor="middle" x="749" y="-561" font-family="Helvetica,sans-Serif" font-size="10.00"> </text>
<polyline fill="none" stroke="black" points="685,-554 813,-554 "/>
<text text-anchor="start" x="693" y="-542" font-family="Helvetica,sans-Serif" font-size="10.00">+ getCaption()</text>
<text text-anchor="start" x="693" y="-531" font-family="Helvetica,sans-Serif" font-size="10.00">+ getExists()</text>
<text text-anchor="start" x="693" y="-520" font-family="Helvetica,sans-Serif" font-size="10.00">+ getIsActive()</text>
<text text-anchor="start" x="693" y="-509" font-family="Helvetica,sans-Serif" font-size="10.00">+ TypeKeyWindow()</text>
<text text-anchor="start" x="693" y="-498" font-family="Helvetica,sans-Serif" font-size="10.00">+ SelectWindow()</text>
<text text-anchor="start" x="693" y="-487" font-family="Helvetica,sans-Serif" font-size="10.00">+ StartApp()</text>
<text text-anchor="start" x="693" y="-476" font-family="Helvetica,sans-Serif" font-size="10.00">+ StopApp()</text>
<text text-anchor="start" x="693" y="-465" font-family="Helvetica,sans-Serif" font-size="10.00">+ VerifyWindowExists()</text>
<text text-anchor="start" x="693" y="-454" font-family="Helvetica,sans-Serif" font-size="10.00">+ VerifyIsWindowActive()</text>
<text text-anchor="start" x="693" y="-443" font-family="Helvetica,sans-Serif" font-size="10.00">+ VerifyWindowCaption()</text>
</a>
</g>
</g>
<!-- Node11&#45;&gt;Node6 -->
<g id="edge9" class="edge"><title>Node11&#45;&gt;Node6</title>
<path fill="none" stroke="midnightblue" d="M735.121,-425.854C730.289,-395.515 724.868,-361.472 720.024,-331.059"/>
<polygon fill="none" stroke="midnightblue" points="731.706,-426.665 736.735,-435.99 738.619,-425.564 731.706,-426.665"/>
</g>
<!-- Node12 -->
<g id="node8" class="node"><title>Node12</title>
<g id="a_node8"><a xlink:href="interfaceokw_1_1core_1_1_i_o_k_w___f_n.html" target="_top" xlink:title="{okw.core.IOKW_FN\n||+ setKN()\l+ setFN()\l+ setParentFN()\l+ getKN()\l+ getFN()\l+ getParentFN()\l}">
<polygon fill="white" stroke="black" points="831.5,-458 831.5,-570 936.5,-570 936.5,-458 831.5,-458"/>
<text text-anchor="middle" x="884" y="-558" font-family="Helvetica,sans-Serif" font-size="10.00">okw.core.IOKW_FN</text>
<polyline fill="none" stroke="black" points="831.5,-551 936.5,-551 "/>
<text text-anchor="middle" x="884" y="-539" font-family="Helvetica,sans-Serif" font-size="10.00"> </text>
<polyline fill="none" stroke="black" points="831.5,-532 936.5,-532 "/>
<text text-anchor="start" x="839.5" y="-520" font-family="Helvetica,sans-Serif" font-size="10.00">+ setKN()</text>
<text text-anchor="start" x="839.5" y="-509" font-family="Helvetica,sans-Serif" font-size="10.00">+ setFN()</text>
<text text-anchor="start" x="839.5" y="-498" font-family="Helvetica,sans-Serif" font-size="10.00">+ setParentFN()</text>
<text text-anchor="start" x="839.5" y="-487" font-family="Helvetica,sans-Serif" font-size="10.00">+ getKN()</text>
<text text-anchor="start" x="839.5" y="-476" font-family="Helvetica,sans-Serif" font-size="10.00">+ getFN()</text>
<text text-anchor="start" x="839.5" y="-465" font-family="Helvetica,sans-Serif" font-size="10.00">+ getParentFN()</text>
</a>
</g>
</g>
<!-- Node12&#45;&gt;Node6 -->
<g id="edge10" class="edge"><title>Node12&#45;&gt;Node6</title>
<path fill="none" stroke="midnightblue" d="M858.083,-448.466C848.028,-426.101 835.64,-401.309 822,-380 806.962,-356.508 788.261,-332.697 770.295,-311.661"/>
<polygon fill="none" stroke="midnightblue" points="855.002,-450.154 862.246,-457.886 861.404,-447.324 855.002,-450.154"/>
</g>
<!-- Node13&#45;&gt;Node5 -->
<g id="edge11" class="edge"><title>Node13&#45;&gt;Node5</title>
<path fill="none" stroke="#404040" d="M341.168,-696.992C371.976,-562.92 441.577,-260.026 472.589,-125.068"/>
<polygon fill="none" stroke="#404040" points="472.601,-125.012 470.047,-118.269 475.289,-113.317 477.844,-120.06 472.601,-125.012"/>
<text text-anchor="middle" x="436" y="-353.5" font-family="Helvetica,sans-Serif" font-size="10.00"> &#45;MEM</text>
</g>
<!-- Node13&#45;&gt;Node13 -->
<g id="edge20" class="edge"><title>Node13&#45;&gt;Node13</title>
<path fill="none" stroke="#404040" d="M397.582,-779.565C407.989,-777.095 415,-771.906 415,-764 415,-759.553 412.782,-755.965 408.988,-753.238"/>
<polygon fill="none" stroke="#404040" points="408.641,-753.092 401.559,-754.45 397.582,-748.435 404.664,-747.077 408.641,-753.092"/>
<text text-anchor="middle" x="437" y="-761.5" font-family="Helvetica,sans-Serif" font-size="10.00"> &#45;Instance</text>
</g>
<!-- Node14 -->
<g id="node10" class="node"><title>Node14</title>
<g id="a_node10"><a xlink:href="classokw_1_1_log_messenger.html" target="_top" xlink:title="LogMessenger liest Log&#45;Meldungen sprachspezifisch für die im Konstruktor gegeben Klasse aus der Zugeh...">
<polygon fill="white" stroke="black" points="183.5,-1029 183.5,-1141 284.5,-1141 284.5,-1029 183.5,-1029"/>
<text text-anchor="middle" x="234" y="-1129" font-family="Helvetica,sans-Serif" font-size="10.00">okw.LogMessenger</text>
<polyline fill="none" stroke="black" points="183.5,-1122 284.5,-1122 "/>
<text text-anchor="start" x="191.5" y="-1110" font-family="Helvetica,sans-Serif" font-size="10.00">&#45; cvsClassName</text>
<polyline fill="none" stroke="black" points="183.5,-1103 284.5,-1103 "/>
<text text-anchor="start" x="191.5" y="-1091" font-family="Helvetica,sans-Serif" font-size="10.00">+ LogMessenger()</text>
<text text-anchor="start" x="191.5" y="-1080" font-family="Helvetica,sans-Serif" font-size="10.00">+ GetMessage()</text>
<text text-anchor="start" x="191.5" y="-1069" font-family="Helvetica,sans-Serif" font-size="10.00">+ GetMessage()</text>
<text text-anchor="start" x="191.5" y="-1058" font-family="Helvetica,sans-Serif" font-size="10.00">+ GetMessage()</text>
<text text-anchor="start" x="191.5" y="-1047" font-family="Helvetica,sans-Serif" font-size="10.00">+ GetMessage()</text>
<text text-anchor="start" x="191.5" y="-1036" font-family="Helvetica,sans-Serif" font-size="10.00">&#45; ReadMessage()</text>
</a>
</g>
</g>
<!-- Node14&#45;&gt;Node13 -->
<g id="edge12" class="edge"><title>Node14&#45;&gt;Node13</title>
<path fill="none" stroke="#404040" d="M249.92,-1028.8C264.739,-977.415 286.975,-900.314 303.586,-842.718"/>
<polygon fill="none" stroke="#404040" points="303.61,-842.636 301.429,-835.763 306.935,-831.106 309.116,-837.98 303.61,-842.636"/>
<text text-anchor="middle" x="312" y="-853.5" font-family="Helvetica,sans-Serif" font-size="10.00"> &#45;LM</text>
</g>
<!-- Node15 -->
<g id="node11" class="node"><title>Node15</title>
<g id="a_node11"><a xlink:href="classokw_1_1_o_k_w___xml_reader.html" target="_top" xlink:title="{okw.OKW_XmlReader\n||+ getXMLFile()\l+ OKW_XmlReader()\l+ getTextContentSingleValue()\l+ getTextContentAsList()\l&#45; Init()\l}">
<polygon fill="white" stroke="black" points="158.5,-1338.5 158.5,-1439.5 309.5,-1439.5 309.5,-1338.5 158.5,-1338.5"/>
<text text-anchor="middle" x="234" y="-1427.5" font-family="Helvetica,sans-Serif" font-size="10.00">okw.OKW_XmlReader</text>
<polyline fill="none" stroke="black" points="158.5,-1420.5 309.5,-1420.5 "/>
<text text-anchor="middle" x="234" y="-1408.5" font-family="Helvetica,sans-Serif" font-size="10.00"> </text>
<polyline fill="none" stroke="black" points="158.5,-1401.5 309.5,-1401.5 "/>
<text text-anchor="start" x="166.5" y="-1389.5" font-family="Helvetica,sans-Serif" font-size="10.00">+ getXMLFile()</text>
<text text-anchor="start" x="166.5" y="-1378.5" font-family="Helvetica,sans-Serif" font-size="10.00">+ OKW_XmlReader()</text>
<text text-anchor="start" x="166.5" y="-1367.5" font-family="Helvetica,sans-Serif" font-size="10.00">+ getTextContentSingleValue()</text>
<text text-anchor="start" x="166.5" y="-1356.5" font-family="Helvetica,sans-Serif" font-size="10.00">+ getTextContentAsList()</text>
<text text-anchor="start" x="166.5" y="-1345.5" font-family="Helvetica,sans-Serif" font-size="10.00">&#45; Init()</text>
</a>
</g>
</g>
<!-- Node15&#45;&gt;Node14 -->
<g id="edge13" class="edge"><title>Node15&#45;&gt;Node14</title>
<path fill="none" stroke="#404040" d="M234,-1338.47C234,-1288.06 234,-1209.58 234,-1153.51"/>
<polygon fill="none" stroke="#404040" points="234,-1153.19 230,-1147.19 234,-1141.19 238,-1147.19 234,-1153.19"/>
<text text-anchor="middle" x="268.5" y="-1311.5" font-family="Helvetica,sans-Serif" font-size="10.00"> &#45;myXmlReader</text>
</g>
<!-- Node16 -->
<g id="node12" class="node"><title>Node16</title>
<polygon fill="white" stroke="#bfbfbf" points="-0.5,-1488.5 -0.5,-1545.5 124.5,-1545.5 124.5,-1488.5 -0.5,-1488.5"/>
<text text-anchor="middle" x="62" y="-1533.5" font-family="Helvetica,sans-Serif" font-size="10.00">DocumentBuilderFactory</text>
<polyline fill="none" stroke="#bfbfbf" points="-0.5,-1526.5 124.5,-1526.5 "/>
<text text-anchor="middle" x="62" y="-1514.5" font-family="Helvetica,sans-Serif" font-size="10.00"> </text>
<polyline fill="none" stroke="#bfbfbf" points="-0.5,-1507.5 124.5,-1507.5 "/>
<text text-anchor="middle" x="62" y="-1495.5" font-family="Helvetica,sans-Serif" font-size="10.00"> </text>
</g>
<!-- Node16&#45;&gt;Node15 -->
<g id="edge14" class="edge"><title>Node16&#45;&gt;Node15</title>
<path fill="none" stroke="#404040" d="M81.3563,-1488.39C89.444,-1478.07 99.42,-1466.74 110,-1458 121.5,-1448.5 134.526,-1439.68 147.706,-1431.75"/>
<polygon fill="none" stroke="#404040" points="147.915,-1431.63 151.084,-1425.15 158.282,-1425.58 155.113,-1432.06 147.915,-1431.63"/>
<text text-anchor="middle" x="142" y="-1461.5" font-family="Helvetica,sans-Serif" font-size="10.00"> &#45;mydbFactory</text>
</g>
<!-- Node17 -->
<g id="node13" class="node"><title>Node17</title>
<polygon fill="white" stroke="#bfbfbf" points="142,-1488.5 142,-1545.5 186,-1545.5 186,-1488.5 142,-1488.5"/>
<text text-anchor="middle" x="164" y="-1533.5" font-family="Helvetica,sans-Serif" font-size="10.00">XPath</text>
<polyline fill="none" stroke="#bfbfbf" points="142,-1526.5 186,-1526.5 "/>
<text text-anchor="middle" x="164" y="-1514.5" font-family="Helvetica,sans-Serif" font-size="10.00"> </text>
<polyline fill="none" stroke="#bfbfbf" points="142,-1507.5 186,-1507.5 "/>
<text text-anchor="middle" x="164" y="-1495.5" font-family="Helvetica,sans-Serif" font-size="10.00"> </text>
</g>
<!-- Node17&#45;&gt;Node15 -->
<g id="edge15" class="edge"><title>Node17&#45;&gt;Node15</title>
<path fill="none" stroke="#404040" d="M170.43,-1488.36C173.279,-1478.48 177.112,-1467.46 182,-1458 183.403,-1455.29 184.916,-1452.57 186.512,-1449.87"/>
<polygon fill="none" stroke="#404040" points="186.615,-1449.7 186.439,-1442.49 193.026,-1439.56 193.202,-1446.77 186.615,-1449.7"/>
<text text-anchor="middle" x="205.5" y="-1461.5" font-family="Helvetica,sans-Serif" font-size="10.00"> &#45;myXPath</text>
</g>
<!-- Node18 -->
<g id="node14" class="node"><title>Node18</title>
<polygon fill="white" stroke="#bfbfbf" points="213.5,-1488.5 213.5,-1545.5 250.5,-1545.5 250.5,-1488.5 213.5,-1488.5"/>
<text text-anchor="middle" x="232" y="-1533.5" font-family="Helvetica,sans-Serif" font-size="10.00">Path</text>
<polyline fill="none" stroke="#bfbfbf" points="213.5,-1526.5 250.5,-1526.5 "/>
<text text-anchor="middle" x="232" y="-1514.5" font-family="Helvetica,sans-Serif" font-size="10.00"> </text>
<polyline fill="none" stroke="#bfbfbf" points="213.5,-1507.5 250.5,-1507.5 "/>
<text text-anchor="middle" x="232" y="-1495.5" font-family="Helvetica,sans-Serif" font-size="10.00"> </text>
</g>
<!-- Node18&#45;&gt;Node15 -->
<g id="edge16" class="edge"><title>Node18&#45;&gt;Node15</title>
<path fill="none" stroke="#404040" d="M232.439,-1488.35C232.611,-1477.53 232.815,-1464.66 233.018,-1451.86"/>
<polygon fill="none" stroke="#404040" points="233.021,-1451.67 229.117,-1445.6 233.212,-1439.67 237.116,-1445.73 233.021,-1451.67"/>
<text text-anchor="middle" x="261" y="-1461.5" font-family="Helvetica,sans-Serif" font-size="10.00"> &#45;myXMLFile</text>
</g>
<!-- Node19 -->
<g id="node15" class="node"><title>Node19</title>
<polygon fill="white" stroke="#bfbfbf" points="269,-1488.5 269,-1545.5 361,-1545.5 361,-1488.5 269,-1488.5"/>
<text text-anchor="middle" x="315" y="-1533.5" font-family="Helvetica,sans-Serif" font-size="10.00">DocumentBuilder</text>
<polyline fill="none" stroke="#bfbfbf" points="269,-1526.5 361,-1526.5 "/>
<text text-anchor="middle" x="315" y="-1514.5" font-family="Helvetica,sans-Serif" font-size="10.00"> </text>
<polyline fill="none" stroke="#bfbfbf" points="269,-1507.5 361,-1507.5 "/>
<text text-anchor="middle" x="315" y="-1495.5" font-family="Helvetica,sans-Serif" font-size="10.00"> </text>
</g>
<!-- Node19&#45;&gt;Node15 -->
<g id="edge17" class="edge"><title>Node19&#45;&gt;Node15</title>
<path fill="none" stroke="#404040" d="M306.707,-1488.23C303.181,-1478.33 298.579,-1467.34 293,-1458 291.329,-1455.2 289.539,-1452.41 287.66,-1449.64"/>
<polygon fill="none" stroke="#404040" points="287.542,-1449.48 280.789,-1446.95 280.525,-1439.74 287.278,-1442.27 287.542,-1449.48"/>
<text text-anchor="middle" x="327.5" y="-1461.5" font-family="Helvetica,sans-Serif" font-size="10.00"> &#45;mydBuilder</text>
</g>
<!-- Node20 -->
<g id="node16" class="node"><title>Node20</title>
<polygon fill="white" stroke="#bfbfbf" points="379,-1488.5 379,-1545.5 441,-1545.5 441,-1488.5 379,-1488.5"/>
<text text-anchor="middle" x="410" y="-1533.5" font-family="Helvetica,sans-Serif" font-size="10.00">Document</text>
<polyline fill="none" stroke="#bfbfbf" points="379,-1526.5 441,-1526.5 "/>
<text text-anchor="middle" x="410" y="-1514.5" font-family="Helvetica,sans-Serif" font-size="10.00"> </text>
<polyline fill="none" stroke="#bfbfbf" points="379,-1507.5 441,-1507.5 "/>
<text text-anchor="middle" x="410" y="-1495.5" font-family="Helvetica,sans-Serif" font-size="10.00"> </text>
</g>
<!-- Node20&#45;&gt;Node15 -->
<g id="edge18" class="edge"><title>Node20&#45;&gt;Node15</title>
<path fill="none" stroke="#404040" d="M389.184,-1488.44C380.558,-1478.12 370.001,-1466.79 359,-1458 347.195,-1448.57 333.897,-1439.77 320.493,-1431.83"/>
<polygon fill="none" stroke="#404040" points="320.15,-1431.63 312.955,-1432.11 309.747,-1425.65 316.942,-1425.17 320.15,-1431.63"/>
<text text-anchor="middle" x="414.5" y="-1461.5" font-family="Helvetica,sans-Serif" font-size="10.00"> &#45;myXMLDocument</text>
</g>
<!-- Node21 -->
<g id="node17" class="node"><title>Node21</title>
<polygon fill="white" stroke="#bfbfbf" points="303,-1056.5 303,-1113.5 413,-1113.5 413,-1056.5 303,-1056.5"/>
<text text-anchor="middle" x="358" y="-1101.5" font-family="Helvetica,sans-Serif" font-size="10.00">Map&lt; String, String &gt;</text>
<polyline fill="none" stroke="#bfbfbf" points="303,-1094.5 413,-1094.5 "/>
<text text-anchor="middle" x="358" y="-1082.5" font-family="Helvetica,sans-Serif" font-size="10.00"> </text>
<polyline fill="none" stroke="#bfbfbf" points="303,-1075.5 413,-1075.5 "/>
<text text-anchor="middle" x="358" y="-1063.5" font-family="Helvetica,sans-Serif" font-size="10.00"> </text>
</g>
<!-- Node21&#45;&gt;Node13 -->
<g id="edge19" class="edge"><title>Node21&#45;&gt;Node13</title>
<path fill="none" stroke="#404040" d="M355.216,-1056.25C350.504,-1009.27 340.793,-912.467 333.861,-843.359"/>
<polygon fill="none" stroke="#404040" points="333.841,-843.168 329.262,-837.597 332.644,-831.228 337.222,-836.799 333.841,-843.168"/>
<text text-anchor="middle" x="356" y="-853.5" font-family="Helvetica,sans-Serif" font-size="10.00"> +_Value</text>
</g>
</g>
</svg>
