<?xml version="1.0" encoding="UTF-8" standalone="no"?>
<!DOCTYPE svg PUBLIC "-//W3C//DTD SVG 1.1//EN"
 "http://www.w3.org/Graphics/SVG/1.1/DTD/svg11.dtd">
<!-- Generated by graphviz version 2.38.0 (20140413.2041)
 -->
<!-- Title: okw.core.EN_OKWNotAllowedValueException_Keywords_IGNORE.tcTypeKeyIGNORE1 Pages: 1 -->
<!--zoomable 291 -->
<svg id="main" version="1.1" xmlns="http://www.w3.org/2000/svg" xmlns:xlink="http://www.w3.org/1999/xlink" xml:space="preserve" onload="init(evt)">
<style type="text/css"><![CDATA[
.edge:hover path { stroke: red; }
.edge:hover polygon { stroke: red; fill: red; }
]]></style>
<script type="text/javascript"><![CDATA[
var edges = document.getElementsByTagName('g');
if (edges && edges.length) {
  for (var i=0;i<edges.length;i++) {
    if (edges[i].id.substr(0,4)=='edge') {
      edges[i].setAttribute('class','edge');
    }
  }
}
]]></script>
        <defs>
                <circle id="rim" cx="0" cy="0" r="7"/>
                <circle id="rim2" cx="0" cy="0" r="3.5"/>
                <g id="zoomPlus">
                        <use xlink:href="#rim" fill="#404040">
                                <set attributeName="fill" to="#808080" begin="zoomplus.mouseover" end="zoomplus.mouseout"/>
                        </use>
                        <path d="M-4,0h8M0,-4v8" fill="none" stroke="white" stroke-width="1.5" pointer-events="none"/>
                </g>
                <g id="zoomMin">
                        <use xlink:href="#rim" fill="#404040">
                                <set attributeName="fill" to="#808080" begin="zoomminus.mouseover" end="zoomminus.mouseout"/>
                        </use>
                        <path d="M-4,0h8" fill="none" stroke="white" stroke-width="1.5" pointer-events="none"/>
                </g>
                <g id="dirArrow">
                        <path fill="none" stroke="white" stroke-width="1.5" d="M0,-3.0v7 M-2.5,-0.5L0,-3.0L2.5,-0.5"/>
                </g>
               <g id="resetDef">
                       <use xlink:href="#rim2" fill="#404040">
                               <set attributeName="fill" to="#808080" begin="reset.mouseover" end="reset.mouseout"/>
                       </use>
               </g>
        </defs>

<script type="text/javascript">
var viewWidth = 1147;
var viewHeight = 291;
var sectionId = 'dynsection-29';
</script>
<script xlink:href="svgpan.js"/>
<svg id="graph" class="graph">
<g id="viewport">
<title>okw.core.EN_OKWNotAllowedValueException_Keywords_IGNORE.tcTypeKeyIGNORE1</title>
<polygon fill="white" stroke="none" points="-4,4 -4,-287 1143,-287 1143,4 -4,4"/>
<!-- Node504 -->
<g id="node1" class="node"><title>Node504</title>
<g id="a_node1"><a xlink:title="Prüft ob &quot;${IGNORE} &quot; die Ausnahme okw.exceptions.OKWNotAllowedValueException auslöst.">
<polygon fill="#bfbfbf" stroke="black" points="0,-107 0,-148 155,-148 155,-107 0,-107"/>
<text text-anchor="start" x="8" y="-136" font-family="Helvetica,sans-Serif" font-size="10.00">okw.core.EN_OKWNotAllowed</text>
<text text-anchor="start" x="8" y="-125" font-family="Helvetica,sans-Serif" font-size="10.00">ValueException_Keywords</text>
<text text-anchor="middle" x="77.5" y="-114" font-family="Helvetica,sans-Serif" font-size="10.00">_IGNORE.tcTypeKeyIGNORE1</text>
</a>
</g>
</g>
<!-- Node505 -->
<g id="node2" class="node"><title>Node505</title>
<g id="a_node2"><a xlink:href="classokw_1_1core_1_1_e_n.html#aef613b0a3e6bb8a9623984db145cae69" target="_top" xlink:title="Markiert den Anfang eines neuen Testfalls.">
<polygon fill="white" stroke="black" points="201,-80 201,-99 324,-99 324,-80 201,-80"/>
<text text-anchor="middle" x="262.5" y="-87" font-family="Helvetica,sans-Serif" font-size="10.00">okw.core.EN.BeginTest</text>
</a>
</g>
</g>
<!-- Node504&#45;&gt;Node505 -->
<g id="edge1" class="edge"><title>Node504&#45;&gt;Node505</title>
<path fill="none" stroke="midnightblue" d="M155.048,-111.605C171.92,-108.101 189.49,-104.453 205.377,-101.154"/>
<polygon fill="midnightblue" stroke="midnightblue" points="206.471,-104.502 215.55,-99.0415 205.047,-97.6478 206.471,-104.502"/>
</g>
<!-- Node511 -->
<g id="node8" class="node"><title>Node511</title>
<g id="a_node8"><a xlink:href="classokw_1_1core_1_1_e_n.html#a2b61c2b39a9cfdbdfd25fe0e3d43785b" target="_top" xlink:title="Setzt den Kontext auf das gegebene Fenster.">
<polygon fill="white" stroke="black" points="191,-156 191,-175 334,-175 334,-156 191,-156"/>
<text text-anchor="middle" x="262.5" y="-163" font-family="Helvetica,sans-Serif" font-size="10.00">okw.core.EN.SelectWindow</text>
</a>
</g>
</g>
<!-- Node504&#45;&gt;Node511 -->
<g id="edge7" class="edge"><title>Node504&#45;&gt;Node511</title>
<path fill="none" stroke="midnightblue" d="M155.048,-143.395C171.92,-146.899 189.49,-150.547 205.377,-153.846"/>
<polygon fill="midnightblue" stroke="midnightblue" points="205.047,-157.352 215.55,-155.959 206.471,-150.498 205.047,-157.352"/>
</g>
<!-- Node518 -->
<g id="node15" class="node"><title>Node518</title>
<g id="a_node15"><a xlink:href="classokw_1_1core_1_1_e_n.html#ae24d951e607b9b82af4f3b80e71285b9" target="_top" xlink:title="Tastatureingaben von Daten in das aktive Fensterobjekt.">
<polygon fill="white" stroke="black" points="205,-118 205,-137 320,-137 320,-118 205,-118"/>
<text text-anchor="middle" x="262.5" y="-125" font-family="Helvetica,sans-Serif" font-size="10.00">okw.core.EN.TypeKey</text>
</a>
</g>
</g>
<!-- Node504&#45;&gt;Node518 -->
<g id="edge15" class="edge"><title>Node504&#45;&gt;Node518</title>
<path fill="none" stroke="midnightblue" d="M155.048,-127.5C168.186,-127.5 181.747,-127.5 194.607,-127.5"/>
<polygon fill="midnightblue" stroke="midnightblue" points="194.749,-131 204.749,-127.5 194.749,-124 194.749,-131"/>
</g>
<!-- Node506 -->
<g id="node3" class="node"><title>Node506</title>
<g id="a_node3"><a xlink:href="classokw_1_1core_1_1_core.html#ab4e0f723d27cb11c944ec4c82c426100" target="_top" xlink:title="Setzt die Sprache auf den gegebenen wert Language.">
<polygon fill="white" stroke="black" points="371.5,-99 371.5,-118 520.5,-118 520.5,-99 371.5,-99"/>
<text text-anchor="middle" x="446" y="-106" font-family="Helvetica,sans-Serif" font-size="10.00">okw.core.Core.setLanguage</text>
</a>
</g>
</g>
<!-- Node505&#45;&gt;Node506 -->
<g id="edge2" class="edge"><title>Node505&#45;&gt;Node506</title>
<path fill="none" stroke="midnightblue" d="M324.189,-95.8531C336.143,-97.1045 348.88,-98.4379 361.434,-99.752"/>
<polygon fill="midnightblue" stroke="midnightblue" points="361.133,-103.24 371.443,-100.8 361.862,-96.2776 361.133,-103.24"/>
</g>
<!-- Node508 -->
<g id="node5" class="node"><title>Node508</title>
<g id="a_node5"><a xlink:href="classokw_1_1core_1_1_core.html#acfefe92468c9eb9e951846372726c4d8" target="_top" xlink:title="Markiert den Anfang eines neuen Testfalls.">
<polygon fill="white" stroke="black" points="380,-50 380,-69 512,-69 512,-50 380,-50"/>
<text text-anchor="middle" x="446" y="-57" font-family="Helvetica,sans-Serif" font-size="10.00">okw.core.Core.BeginTest</text>
</a>
</g>
</g>
<!-- Node505&#45;&gt;Node508 -->
<g id="edge4" class="edge"><title>Node505&#45;&gt;Node508</title>
<path fill="none" stroke="midnightblue" d="M321.177,-79.9666C339.044,-77.0134 358.892,-73.7328 377.37,-70.6786"/>
<polygon fill="midnightblue" stroke="midnightblue" points="378.178,-74.0926 387.473,-69.0086 377.036,-67.1863 378.178,-74.0926"/>
</g>
<!-- Node507 -->
<g id="node4" class="node"><title>Node507</title>
<g id="a_node4"><a xlink:href="interfaceokw_1_1core_1_1_i_o_k_w___state.html#a866baa0bde08a47418f54d63bdb56097" target="_top" xlink:title="Interne Methode zum setzen der Sprache für die sprachabhängigen Ausgaben der Dokumentation (Log).">
<polygon fill="white" stroke="black" points="558,-88 558,-107 740,-107 740,-88 558,-88"/>
<text text-anchor="middle" x="649" y="-95" font-family="Helvetica,sans-Serif" font-size="10.00">okw.core.IOKW_State.setLanguage</text>
</a>
</g>
</g>
<!-- Node506&#45;&gt;Node507 -->
<g id="edge3" class="edge"><title>Node506&#45;&gt;Node507</title>
<path fill="none" stroke="midnightblue" d="M520.704,-104.466C529.495,-103.985 538.582,-103.488 547.667,-102.991"/>
<polygon fill="midnightblue" stroke="midnightblue" points="548.114,-106.472 557.908,-102.43 547.732,-99.4822 548.114,-106.472"/>
</g>
<!-- Node509 -->
<g id="node6" class="node"><title>Node509</title>
<g id="a_node6"><a xlink:href="classokw_1_1log_1_1_logger___sngltn.html#a60f4ad59db847ae61df928f9920f3deb" target="_top" xlink:title="Ausgabe des Testfalls.">
<polygon fill="white" stroke="black" points="577.5,-0.5 577.5,-30.5 720.5,-30.5 720.5,-0.5 577.5,-0.5"/>
<text text-anchor="start" x="585.5" y="-18.5" font-family="Helvetica,sans-Serif" font-size="10.00">okw.log.Logger_Sngltn.Log</text>
<text text-anchor="middle" x="649" y="-7.5" font-family="Helvetica,sans-Serif" font-size="10.00">TestcaseStart</text>
</a>
</g>
</g>
<!-- Node508&#45;&gt;Node509 -->
<g id="edge5" class="edge"><title>Node508&#45;&gt;Node509</title>
<path fill="none" stroke="midnightblue" d="M490.614,-49.9527C513.547,-44.9324 542.373,-38.6223 569.069,-32.7785"/>
<polygon fill="midnightblue" stroke="midnightblue" points="570.158,-36.1229 579.179,-30.5654 568.662,-29.2848 570.158,-36.1229"/>
</g>
<!-- Node510 -->
<g id="node7" class="node"><title>Node510</title>
<g id="a_node7"><a xlink:href="interfaceokw_1_1core_1_1_i_o_k_w___state.html#ae5480ddb1fc37eade5d899d335bc4b13" target="_top" xlink:title="Markiert den Anfang eines neuen Testfalls.">
<polygon fill="white" stroke="black" points="566.5,-50 566.5,-69 731.5,-69 731.5,-50 566.5,-50"/>
<text text-anchor="middle" x="649" y="-57" font-family="Helvetica,sans-Serif" font-size="10.00">okw.core.IOKW_State.BeginTest</text>
</a>
</g>
</g>
<!-- Node508&#45;&gt;Node510 -->
<g id="edge6" class="edge"><title>Node508&#45;&gt;Node510</title>
<path fill="none" stroke="midnightblue" d="M512.259,-59.5C526.23,-59.5 541.24,-59.5 556.005,-59.5"/>
<polygon fill="midnightblue" stroke="midnightblue" points="556.171,-63.0001 566.171,-59.5 556.171,-56.0001 556.171,-63.0001"/>
</g>
<!-- Node511&#45;&gt;Node506 -->
<g id="edge8" class="edge"><title>Node511&#45;&gt;Node506</title>
<path fill="none" stroke="midnightblue" d="M300.952,-155.903C311.667,-153.023 323.332,-149.76 334,-146.5 359.339,-138.758 387.586,-129.072 409.244,-121.418"/>
<polygon fill="midnightblue" stroke="midnightblue" points="410.446,-124.705 418.697,-118.058 408.102,-118.109 410.446,-124.705"/>
</g>
<!-- Node512 -->
<g id="node9" class="node"><title>Node512</title>
<g id="a_node9"><a xlink:href="classokw_1_1core_1_1_core.html#a6a68660eb5e34965522896e2a5c48314" target="_top" xlink:title="Setzt den Kontext auf das gegebene Fenster.">
<polygon fill="white" stroke="black" points="370,-190 370,-209 522,-209 522,-190 370,-190"/>
<text text-anchor="middle" x="446" y="-197" font-family="Helvetica,sans-Serif" font-size="10.00">okw.core.Core.SelectWindow</text>
</a>
</g>
</g>
<!-- Node511&#45;&gt;Node512 -->
<g id="edge9" class="edge"><title>Node511&#45;&gt;Node512</title>
<path fill="none" stroke="midnightblue" d="M314.541,-175.061C336.187,-179.116 361.588,-183.875 384.196,-188.11"/>
<polygon fill="midnightblue" stroke="midnightblue" points="383.555,-191.55 394.028,-189.952 384.844,-184.67 383.555,-191.55"/>
</g>
<!-- Node513 -->
<g id="node10" class="node"><title>Node513</title>
<g id="a_node10"><a xlink:href="classokw_1_1log_1_1_logger___sngltn.html#a70ec25e200e00ecefc544e8fd371d2ef" target="_top" xlink:title="Ausgabe eines Schlüsselwortes.">
<polygon fill="white" stroke="black" points="577.5,-164.5 577.5,-194.5 720.5,-194.5 720.5,-164.5 577.5,-164.5"/>
<text text-anchor="start" x="585.5" y="-182.5" font-family="Helvetica,sans-Serif" font-size="10.00">okw.log.Logger_Sngltn.Log</text>
<text text-anchor="middle" x="649" y="-171.5" font-family="Helvetica,sans-Serif" font-size="10.00">KeyWordStart</text>
</a>
</g>
</g>
<!-- Node512&#45;&gt;Node513 -->
<g id="edge10" class="edge"><title>Node512&#45;&gt;Node513</title>
<path fill="none" stroke="midnightblue" d="M522.131,-192.024C536.808,-190.564 552.257,-189.027 567.112,-187.549"/>
<polygon fill="midnightblue" stroke="midnightblue" points="567.68,-191.009 577.284,-186.536 566.987,-184.044 567.68,-191.009"/>
</g>
<!-- Node514 -->
<g id="node11" class="node"><title>Node514</title>
<g id="a_node11"><a xlink:href="classokw_1_1_log_messenger.html#af225d1f037d47b3b085175c09d78bdd2" target="_top" xlink:title="Holt die Log&#45;Meldung für MethodeNmae/Textkey ohne weitere Parameter.">
<polygon fill="white" stroke="black" points="564.5,-214 564.5,-233 733.5,-233 733.5,-214 564.5,-214"/>
<text text-anchor="middle" x="649" y="-221" font-family="Helvetica,sans-Serif" font-size="10.00">okw.LogMessenger.GetMessage</text>
</a>
</g>
</g>
<!-- Node512&#45;&gt;Node514 -->
<g id="edge11" class="edge"><title>Node512&#45;&gt;Node514</title>
<path fill="none" stroke="midnightblue" d="M522.131,-208.471C533.891,-209.875 546.148,-211.339 558.196,-212.777"/>
<polygon fill="midnightblue" stroke="midnightblue" points="557.909,-216.268 568.253,-213.978 558.739,-209.317 557.909,-216.268"/>
</g>
<!-- Node517 -->
<g id="node14" class="node"><title>Node517</title>
<g id="a_node14"><a xlink:href="interfaceokw_1_1core_1_1_i_o_k_w___state.html#ad4fc9610ed5b1176590a45b55e6ac7f0" target="_top" xlink:title="Setzt den Kontext auf das gegebene Fenster.">
<polygon fill="white" stroke="black" points="574.5,-252.5 574.5,-282.5 723.5,-282.5 723.5,-252.5 574.5,-252.5"/>
<text text-anchor="start" x="582.5" y="-270.5" font-family="Helvetica,sans-Serif" font-size="10.00">okw.core.IOKW_State.Select</text>
<text text-anchor="middle" x="649" y="-259.5" font-family="Helvetica,sans-Serif" font-size="10.00">Window</text>
</a>
</g>
</g>
<!-- Node512&#45;&gt;Node517 -->
<g id="edge14" class="edge"><title>Node512&#45;&gt;Node517</title>
<path fill="none" stroke="midnightblue" d="M469.72,-209.06C491.989,-218.25 527.008,-232.22 558,-242.5 565.359,-244.941 573.109,-247.342 580.847,-249.633"/>
<polygon fill="midnightblue" stroke="midnightblue" points="580.031,-253.041 590.611,-252.471 581.985,-246.319 580.031,-253.041"/>
</g>
<!-- Node515 -->
<g id="node12" class="node"><title>Node515</title>
<g id="a_node12"><a xlink:href="classokw_1_1_log_messenger.html#a530cd6ab82ec82a04206a2e976ec06e3" target="_top" xlink:title="Interne Kernfunktion holt die Log&#45;Meldung mit Platzhaltern aus der XML&#45;Datei.">
<polygon fill="white" stroke="black" points="776,-214 776,-233 951,-233 951,-214 776,-214"/>
<text text-anchor="middle" x="863.5" y="-221" font-family="Helvetica,sans-Serif" font-size="10.00">okw.LogMessenger.ReadMessage</text>
</a>
</g>
</g>
<!-- Node514&#45;&gt;Node515 -->
<g id="edge12" class="edge"><title>Node514&#45;&gt;Node515</title>
<path fill="none" stroke="midnightblue" d="M733.681,-223.5C744.154,-223.5 754.935,-223.5 765.589,-223.5"/>
<polygon fill="midnightblue" stroke="midnightblue" points="765.751,-227 775.751,-223.5 765.751,-220 765.751,-227"/>
</g>
<!-- Node516 -->
<g id="node13" class="node"><title>Node516</title>
<g id="a_node13"><a xlink:href="classokw_1_1_o_k_w___xml_reader.html#ab920b5335a2e1429c14cc5f8e79f39eb" target="_top" xlink:title="Lies den TextContent eines Tag.">
<polygon fill="white" stroke="black" points="987,-208.5 987,-238.5 1139,-238.5 1139,-208.5 987,-208.5"/>
<text text-anchor="start" x="995" y="-226.5" font-family="Helvetica,sans-Serif" font-size="10.00">okw.OKW_XmlReader.getText</text>
<text text-anchor="middle" x="1063" y="-215.5" font-family="Helvetica,sans-Serif" font-size="10.00">ContentSingleValue</text>
</a>
</g>
</g>
<!-- Node515&#45;&gt;Node516 -->
<g id="edge13" class="edge"><title>Node515&#45;&gt;Node516</title>
<path fill="none" stroke="midnightblue" d="M951.126,-223.5C959.6,-223.5 968.195,-223.5 976.656,-223.5"/>
<polygon fill="midnightblue" stroke="midnightblue" points="976.893,-227 986.893,-223.5 976.892,-220 976.893,-227"/>
</g>
<!-- Node518&#45;&gt;Node506 -->
<g id="edge16" class="edge"><title>Node518&#45;&gt;Node506</title>
<path fill="none" stroke="midnightblue" d="M320.43,-121.54C333.396,-120.183 347.438,-118.713 361.262,-117.266"/>
<polygon fill="midnightblue" stroke="midnightblue" points="361.689,-120.741 371.27,-116.218 360.96,-113.779 361.689,-120.741"/>
</g>
<!-- Node519 -->
<g id="node16" class="node"><title>Node519</title>
<g id="a_node16"><a xlink:href="classokw_1_1core_1_1_core.html#ad09bf3a237b88913dbe9ebc228db1cf3" target="_top" xlink:title="Tastatureingaben von Daten in das aktive Fensterobjekt.">
<polygon fill="white" stroke="black" points="384,-149 384,-168 508,-168 508,-149 384,-149"/>
<text text-anchor="middle" x="446" y="-156" font-family="Helvetica,sans-Serif" font-size="10.00">okw.core.Core.TypeKey</text>
</a>
</g>
</g>
<!-- Node518&#45;&gt;Node519 -->
<g id="edge17" class="edge"><title>Node518&#45;&gt;Node519</title>
<path fill="none" stroke="midnightblue" d="M319.437,-137.054C338.329,-140.281 359.595,-143.913 379.18,-147.258"/>
<polygon fill="midnightblue" stroke="midnightblue" points="378.801,-150.744 389.248,-148.978 379.98,-143.844 378.801,-150.744"/>
</g>
<!-- Node519&#45;&gt;Node513 -->
<g id="edge18" class="edge"><title>Node519&#45;&gt;Node513</title>
<path fill="none" stroke="midnightblue" d="M508.125,-164.886C526.714,-166.828 547.438,-168.994 567.118,-171.05"/>
<polygon fill="midnightblue" stroke="midnightblue" points="566.987,-174.555 577.297,-172.113 567.715,-167.593 566.987,-174.555"/>
</g>
<!-- Node519&#45;&gt;Node514 -->
<g id="edge19" class="edge"><title>Node519&#45;&gt;Node514</title>
<path fill="none" stroke="midnightblue" d="M487.463,-168.1C498.872,-171.411 511.131,-175.555 522,-180.5 539.282,-188.362 540.465,-196.218 558,-203.5 565.356,-206.555 573.254,-209.178 581.204,-211.421"/>
<polygon fill="midnightblue" stroke="midnightblue" points="580.333,-214.811 590.895,-213.973 582.116,-208.042 580.333,-214.811"/>
</g>
<!-- Node520 -->
<g id="node17" class="node"><title>Node520</title>
<g id="a_node17"><a xlink:href="interfaceokw_1_1core_1_1_i_o_k_w___state.html#a0466b45ed636074a1b6cd52de6b5fdd6" target="_top" xlink:title="Tastatureingaben von Daten in das aktive Fensterobjekt.">
<polygon fill="white" stroke="black" points="570.5,-126 570.5,-145 727.5,-145 727.5,-126 570.5,-126"/>
<text text-anchor="middle" x="649" y="-133" font-family="Helvetica,sans-Serif" font-size="10.00">okw.core.IOKW_State.TypeKey</text>
</a>
</g>
</g>
<!-- Node519&#45;&gt;Node520 -->
<g id="edge20" class="edge"><title>Node519&#45;&gt;Node520</title>
<path fill="none" stroke="midnightblue" d="M508.125,-151.506C524.539,-149.627 542.617,-147.559 560.17,-145.55"/>
<polygon fill="midnightblue" stroke="midnightblue" points="560.891,-148.991 570.429,-144.376 560.095,-142.036 560.891,-148.991"/>
</g>
</g>
</svg>
        <g id="navigator" transform="translate(0 0)" fill="#404254">
                <rect fill="#f2f5e9" fill-opacity="0.5" stroke="#606060" stroke-width=".5" x="0" y="0" width="60" height="60"/>
                <use id="zoomplus" xlink:href="#zoomPlus" x="17" y="9" onmousedown="handleZoom(evt,'in')"/>
                <use id="zoomminus" xlink:href="#zoomMin" x="42" y="9" onmousedown="handleZoom(evt,'out')"/>
                <use id="reset" xlink:href="#resetDef" x="30" y="36" onmousedown="handleReset()"/>
                <g id="arrowUp" xlink:href="#dirArrow" transform="translate(30 24)" onmousedown="handlePan(0,-1)">
                  <use xlink:href="#rim" fill="#404040">
                        <set attributeName="fill" to="#808080" begin="arrowUp.mouseover" end="arrowUp.mouseout"/>
                  </use>
                  <path fill="none" stroke="white" stroke-width="1.5" d="M0,-3.0v7 M-2.5,-0.5L0,-3.0L2.5,-0.5"/>
                </g>
                <g id="arrowRight" xlink:href="#dirArrow" transform="rotate(90) translate(36 -43)" onmousedown="handlePan(1,0)">
                  <use xlink:href="#rim" fill="#404040">
                        <set attributeName="fill" to="#808080" begin="arrowRight.mouseover" end="arrowRight.mouseout"/>
                  </use>
                  <path fill="none" stroke="white" stroke-width="1.5" d="M0,-3.0v7 M-2.5,-0.5L0,-3.0L2.5,-0.5"/>
                </g>
                <g id="arrowDown" xlink:href="#dirArrow" transform="rotate(180) translate(-30 -48)" onmousedown="handlePan(0,1)">
                  <use xlink:href="#rim" fill="#404040">
                        <set attributeName="fill" to="#808080" begin="arrowDown.mouseover" end="arrowDown.mouseout"/>
                  </use>
                  <path fill="none" stroke="white" stroke-width="1.5" d="M0,-3.0v7 M-2.5,-0.5L0,-3.0L2.5,-0.5"/>
                </g>
                <g id="arrowLeft" xlink:href="#dirArrow" transform="rotate(270) translate(-36 17)" onmousedown="handlePan(-1,0)">
                  <use xlink:href="#rim" fill="#404040">
                        <set attributeName="fill" to="#808080" begin="arrowLeft.mouseover" end="arrowLeft.mouseout"/>
                  </use>
                  <path fill="none" stroke="white" stroke-width="1.5" d="M0,-3.0v7 M-2.5,-0.5L0,-3.0L2.5,-0.5"/>
                </g>
        </g>
        <svg viewBox="0 0 15 15" width="100%" height="30px" preserveAspectRatio="xMaxYMin meet">
         <g id="arrow_out" transform="scale(0.3 0.3)">
          <a xlink:href="classokw_1_1core_1_1_e_n___o_k_w_not_allowed_value_exception___keywords___i_g_n_o_r_e_a63acdbe561182f154ea370f9416f6bee_cgraph_org.svg" target="_base">
           <rect id="button" ry="5" rx="5" y="6" x="6" height="38" width="38"
                fill="#f2f5e9" fill-opacity="0.5" stroke="#606060" stroke-width="1.0"/>
           <path id="arrow"
             d="M 11.500037,31.436501 C 11.940474,20.09759 22.043105,11.32322 32.158766,21.979434 L 37.068811,17.246167 C 37.068811,17.246167 37.088388,32 37.088388,32 L 22.160133,31.978069 C 22.160133,31.978069 26.997745,27.140456 26.997745,27.140456 C 18.528582,18.264221 13.291696,25.230495 11.500037,31.436501 z"
             style="fill:#404040;"/>
          </a>
         </g>
        </svg>
</svg>
