<?xml version="1.0" encoding="UTF-8" standalone="no"?>
<!DOCTYPE svg PUBLIC "-//W3C//DTD SVG 1.1//EN"
 "http://www.w3.org/Graphics/SVG/1.1/DTD/svg11.dtd">
<!-- Generated by graphviz version 2.36.0 (20140111.2315)
 -->
<!-- Title: okw.gui.adapter.selenium.SeBrowserWindow Pages: 1 -->
<!--zoomable 1148 -->
<svg id="main" version="1.1" xmlns="http://www.w3.org/2000/svg" xmlns:xlink="http://www.w3.org/1999/xlink" xml:space="preserve" onload="init(evt)">
<style type="text/css"><![CDATA[
.edge:hover path { stroke: red; }
.edge:hover polygon { stroke: red; fill: red; }
]]></style>
<script type="text/javascript"><![CDATA[
var edges = document.getElementsByTagName('g');
if (edges && edges.length) {
  for (var i=0;i<edges.length;i++) {
    if (edges[i].id.substr(0,4)=='edge') {
      edges[i].setAttribute('class','edge');
    }
  }
}
]]></script>
        <defs>
                <circle id="rim" cx="0" cy="0" r="7"/>
                <circle id="rim2" cx="0" cy="0" r="3.5"/>
                <g id="zoomPlus">
                        <use xlink:href="#rim" fill="#404040">
                                <set attributeName="fill" to="#808080" begin="zoomplus.mouseover" end="zoomplus.mouseout"/>
                        </use>
                        <path d="M-4,0h8M0,-4v8" fill="none" stroke="white" stroke-width="1.5" pointer-events="none"/>
                </g>
                <g id="zoomMin">
                        <use xlink:href="#rim" fill="#404040">
                                <set attributeName="fill" to="#808080" begin="zoomminus.mouseover" end="zoomminus.mouseout"/>
                        </use>
                        <path d="M-4,0h8" fill="none" stroke="white" stroke-width="1.5" pointer-events="none"/>
                </g>
                <g id="dirArrow">
                        <path fill="none" stroke="white" stroke-width="1.5" d="M0,-3.0v7 M-2.5,-0.5L0,-3.0L2.5,-0.5"/>
                </g>
               <g id="resetDef">
                       <use xlink:href="#rim2" fill="#404040">
                               <set attributeName="fill" to="#808080" begin="reset.mouseover" end="reset.mouseout"/>
                       </use>
               </g>
        </defs>

<script type="text/javascript">
var viewWidth = 653;
var viewHeight = 1148;
var sectionId = 'dynsection-0';
</script>
<script xlink:href="svgpan.js"/>
<svg id="graph" class="graph">
<g id="viewport">
<title>okw.gui.adapter.selenium.SeBrowserWindow</title>
<polygon fill="white" stroke="none" points="-4,4 -4,-1144 649,-1144 649,4 -4,4"/>
<!-- Node0 -->
<g id="node1" class="node"><title>Node0</title>
<polygon fill="#bfbfbf" stroke="black" points="244.5,-139 244.5,-251 375.5,-251 375.5,-139 244.5,-139"/>
<text text-anchor="start" x="252.5" y="-239" font-family="Helvetica,sans-Serif" font-size="10.00">okw.gui.adapter.selenium.</text>
<text text-anchor="middle" x="310" y="-228" font-family="Helvetica,sans-Serif" font-size="10.00">SeBrowserWindow</text>
<polyline fill="none" stroke="black" points="244.5,-221 375.5,-221 "/>
<text text-anchor="start" x="252.5" y="-209" font-family="Helvetica,sans-Serif" font-size="10.00">+ URL</text>
<text text-anchor="start" x="252.5" y="-198" font-family="Helvetica,sans-Serif" font-size="10.00">+ BACK</text>
<text text-anchor="start" x="252.5" y="-187" font-family="Helvetica,sans-Serif" font-size="10.00">+ MAXIMIZE</text>
<text text-anchor="start" x="252.5" y="-176" font-family="Helvetica,sans-Serif" font-size="10.00">+ SIZE</text>
<text text-anchor="start" x="252.5" y="-165" font-family="Helvetica,sans-Serif" font-size="10.00">+ POSITION</text>
<polyline fill="none" stroke="black" points="244.5,-158 375.5,-158 "/>
<text text-anchor="start" x="252.5" y="-146" font-family="Helvetica,sans-Serif" font-size="10.00">+ SelectWindow()</text>
</g>
<!-- Node6 -->
<g id="node7" class="node"><title>Node6</title>
<g id="a_node7"><a xlink:href="classokw_1_1gui_1_1frames_1_1frm_internet_explorer.html" target="_top" xlink:title="Diese Klasse representiert den HTMLUnit&#45;Driver, der mit Selenium angsteuert wird. ...">
<polygon fill="white" stroke="black" points="0,-0.5 0,-101.5 134,-101.5 134,-0.5 0,-0.5"/>
<text text-anchor="start" x="8" y="-89.5" font-family="Helvetica,sans-Serif" font-size="10.00">okw.gui.frames.frmInternet</text>
<text text-anchor="middle" x="67" y="-78.5" font-family="Helvetica,sans-Serif" font-size="10.00">Explorer</text>
<polyline fill="none" stroke="black" points="0,-71.5 134,-71.5 "/>
<text text-anchor="start" x="8" y="-59.5" font-family="Helvetica,sans-Serif" font-size="10.00"># MyLogger</text>
<polyline fill="none" stroke="black" points="0,-52.5 134,-52.5 "/>
<text text-anchor="start" x="8" y="-40.5" font-family="Helvetica,sans-Serif" font-size="10.00">+ SelectWindow()</text>
<text text-anchor="start" x="8" y="-29.5" font-family="Helvetica,sans-Serif" font-size="10.00">+ StartApp()</text>
<text text-anchor="start" x="8" y="-18.5" font-family="Helvetica,sans-Serif" font-size="10.00">+ StopApp()</text>
<text text-anchor="start" x="8" y="-7.5" font-family="Helvetica,sans-Serif" font-size="10.00">+ TypeKey()</text>
</a>
</g>
</g>
<!-- Node0&#45;&gt;Node6 -->
<g id="edge6" class="edge"><title>Node0&#45;&gt;Node6</title>
<path fill="none" stroke="midnightblue" d="M235.405,-154.527C206.284,-138.698 172.798,-119.972 143,-102 140.16,-100.287 137.274,-98.5186 134.37,-96.7155"/>
<polygon fill="none" stroke="midnightblue" points="233.833,-157.657 244.293,-159.343 237.168,-151.502 233.833,-157.657"/>
</g>
<!-- Node7 -->
<g id="node8" class="node"><title>Node7</title>
<g id="a_node8"><a xlink:href="classokw_1_1gui_1_1frames_1_1_frm_se_chrome.html" target="_top" xlink:title="{okw.gui.frames.FrmSeChrome\n|&#45; LOG\l&#45; MEM\l|+ SelectWindow()\l+ StartApp()\l+ StopApp()\l}">
<polygon fill="white" stroke="black" points="152,-6 152,-96 302,-96 302,-6 152,-6"/>
<text text-anchor="middle" x="227" y="-84" font-family="Helvetica,sans-Serif" font-size="10.00">okw.gui.frames.FrmSeChrome</text>
<polyline fill="none" stroke="black" points="152,-77 302,-77 "/>
<text text-anchor="start" x="160" y="-65" font-family="Helvetica,sans-Serif" font-size="10.00">&#45; LOG</text>
<text text-anchor="start" x="160" y="-54" font-family="Helvetica,sans-Serif" font-size="10.00">&#45; MEM</text>
<polyline fill="none" stroke="black" points="152,-47 302,-47 "/>
<text text-anchor="start" x="160" y="-35" font-family="Helvetica,sans-Serif" font-size="10.00">+ SelectWindow()</text>
<text text-anchor="start" x="160" y="-24" font-family="Helvetica,sans-Serif" font-size="10.00">+ StartApp()</text>
<text text-anchor="start" x="160" y="-13" font-family="Helvetica,sans-Serif" font-size="10.00">+ StopApp()</text>
</a>
</g>
</g>
<!-- Node0&#45;&gt;Node7 -->
<g id="edge7" class="edge"><title>Node0&#45;&gt;Node7</title>
<path fill="none" stroke="midnightblue" d="M272.433,-129.729C265.849,-118.465 259.132,-106.973 252.952,-96.4003"/>
<polygon fill="none" stroke="midnightblue" points="269.604,-131.825 277.672,-138.692 275.648,-128.293 269.604,-131.825"/>
</g>
<!-- Node8 -->
<g id="node9" class="node"><title>Node8</title>
<g id="a_node9"><a xlink:href="classokw_1_1gui_1_1frames_1_1_frm_se_firefox.html" target="_top" xlink:title="{okw.gui.frames.FrmSeFirefox\n|&#45; LOG\l&#45; MEM\l|+ SelectWindow()\l+ StartApp()\l+ StopApp()\l+ TypeKey()\l}">
<polygon fill="white" stroke="black" points="320,-0.5 320,-101.5 466,-101.5 466,-0.5 320,-0.5"/>
<text text-anchor="middle" x="393" y="-89.5" font-family="Helvetica,sans-Serif" font-size="10.00">okw.gui.frames.FrmSeFirefox</text>
<polyline fill="none" stroke="black" points="320,-82.5 466,-82.5 "/>
<text text-anchor="start" x="328" y="-70.5" font-family="Helvetica,sans-Serif" font-size="10.00">&#45; LOG</text>
<text text-anchor="start" x="328" y="-59.5" font-family="Helvetica,sans-Serif" font-size="10.00">&#45; MEM</text>
<polyline fill="none" stroke="black" points="320,-52.5 466,-52.5 "/>
<text text-anchor="start" x="328" y="-40.5" font-family="Helvetica,sans-Serif" font-size="10.00">+ SelectWindow()</text>
<text text-anchor="start" x="328" y="-29.5" font-family="Helvetica,sans-Serif" font-size="10.00">+ StartApp()</text>
<text text-anchor="start" x="328" y="-18.5" font-family="Helvetica,sans-Serif" font-size="10.00">+ StopApp()</text>
<text text-anchor="start" x="328" y="-7.5" font-family="Helvetica,sans-Serif" font-size="10.00">+ TypeKey()</text>
</a>
</g>
</g>
<!-- Node0&#45;&gt;Node8 -->
<g id="edge8" class="edge"><title>Node0&#45;&gt;Node8</title>
<path fill="none" stroke="midnightblue" d="M347.54,-129.774C353.02,-120.399 358.593,-110.864 363.872,-101.833"/>
<polygon fill="none" stroke="midnightblue" points="344.352,-128.293 342.328,-138.692 350.396,-131.825 344.352,-128.293"/>
</g>
<!-- Node9 -->
<g id="node10" class="node"><title>Node9</title>
<g id="a_node10"><a xlink:href="classokw_1_1gui_1_1frames_1_1_frm_se_h_t_m_l_unit.html" target="_top" xlink:title="Diese Klasse representiert den HTMLUnit&#45;Driver, der mit Selenium angsteuert wird. ...">
<polygon fill="white" stroke="black" points="484.5,-6 484.5,-96 645.5,-96 645.5,-6 484.5,-6"/>
<text text-anchor="middle" x="565" y="-84" font-family="Helvetica,sans-Serif" font-size="10.00">okw.gui.frames.FrmSeHTMLUnit</text>
<polyline fill="none" stroke="black" points="484.5,-77 645.5,-77 "/>
<text text-anchor="start" x="492.5" y="-65" font-family="Helvetica,sans-Serif" font-size="10.00"># MyLogger</text>
<polyline fill="none" stroke="black" points="484.5,-58 645.5,-58 "/>
<text text-anchor="start" x="492.5" y="-46" font-family="Helvetica,sans-Serif" font-size="10.00">+ SelectWindow()</text>
<text text-anchor="start" x="492.5" y="-35" font-family="Helvetica,sans-Serif" font-size="10.00">+ StartApp()</text>
<text text-anchor="start" x="492.5" y="-24" font-family="Helvetica,sans-Serif" font-size="10.00">+ StopApp()</text>
<text text-anchor="start" x="492.5" y="-13" font-family="Helvetica,sans-Serif" font-size="10.00">+ TypeKey()</text>
</a>
</g>
</g>
<!-- Node0&#45;&gt;Node9 -->
<g id="edge9" class="edge"><title>Node0&#45;&gt;Node9</title>
<path fill="none" stroke="midnightblue" d="M384.502,-152.512C416.357,-134.774 453.58,-114.046 485.921,-96.036"/>
<polygon fill="none" stroke="midnightblue" points="382.703,-149.508 375.669,-157.431 386.108,-155.624 382.703,-149.508"/>
</g>
<!-- Node1 -->
<g id="node2" class="node"><title>Node1</title>
<g id="a_node2"><a xlink:href="classokw_1_1gui_1_1adapter_1_1selenium_1_1_se_any_window.html" target="_top" xlink:title="SeAnyWindow ist eine Fenster GUI&#45;Adapterklasse. ">
<polygon fill="white" stroke="black" points="244.5,-289 244.5,-599 375.5,-599 375.5,-289 244.5,-289"/>
<text text-anchor="start" x="252.5" y="-587" font-family="Helvetica,sans-Serif" font-size="10.00">okw.gui.adapter.selenium.</text>
<text text-anchor="middle" x="310" y="-576" font-family="Helvetica,sans-Serif" font-size="10.00">SeAnyWindow</text>
<polyline fill="none" stroke="black" points="244.5,-569 375.5,-569 "/>
<text text-anchor="start" x="252.5" y="-557" font-family="Helvetica,sans-Serif" font-size="10.00"># MyLogger</text>
<text text-anchor="start" x="252.5" y="-546" font-family="Helvetica,sans-Serif" font-size="10.00"># LM</text>
<text text-anchor="start" x="252.5" y="-535" font-family="Helvetica,sans-Serif" font-size="10.00"># iframeID</text>
<polyline fill="none" stroke="black" points="244.5,-528 375.5,-528 "/>
<text text-anchor="start" x="252.5" y="-516" font-family="Helvetica,sans-Serif" font-size="10.00">+ getIframeID()</text>
<text text-anchor="start" x="252.5" y="-505" font-family="Helvetica,sans-Serif" font-size="10.00">+ setiFrameID()</text>
<text text-anchor="start" x="252.5" y="-494" font-family="Helvetica,sans-Serif" font-size="10.00">+ setLocator()</text>
<text text-anchor="start" x="252.5" y="-483" font-family="Helvetica,sans-Serif" font-size="10.00">+ setLocator()</text>
<text text-anchor="start" x="252.5" y="-472" font-family="Helvetica,sans-Serif" font-size="10.00">+ ClickOn()</text>
<text text-anchor="start" x="252.5" y="-461" font-family="Helvetica,sans-Serif" font-size="10.00">+ getCaption()</text>
<text text-anchor="start" x="252.5" y="-450" font-family="Helvetica,sans-Serif" font-size="10.00">+ getExists()</text>
<text text-anchor="start" x="252.5" y="-439" font-family="Helvetica,sans-Serif" font-size="10.00">+ getHasFocus()</text>
<text text-anchor="start" x="252.5" y="-428" font-family="Helvetica,sans-Serif" font-size="10.00">+ getIsActive()</text>
<text text-anchor="start" x="252.5" y="-417" font-family="Helvetica,sans-Serif" font-size="10.00">+ getLabel()</text>
<text text-anchor="start" x="252.5" y="-406" font-family="Helvetica,sans-Serif" font-size="10.00">+ getTooltip()</text>
<text text-anchor="start" x="252.5" y="-395" font-family="Helvetica,sans-Serif" font-size="10.00">+ getValue()</text>
<text text-anchor="start" x="252.5" y="-384" font-family="Helvetica,sans-Serif" font-size="10.00">+ LogCaption()</text>
<text text-anchor="start" x="252.5" y="-373" font-family="Helvetica,sans-Serif" font-size="10.00">+ LogExists()</text>
<text text-anchor="start" x="252.5" y="-362" font-family="Helvetica,sans-Serif" font-size="10.00">+ LogHasFocus()</text>
<text text-anchor="start" x="252.5" y="-351" font-family="Helvetica,sans-Serif" font-size="10.00">+ LogIsActive()</text>
<text text-anchor="start" x="252.5" y="-340" font-family="Helvetica,sans-Serif" font-size="10.00">+ LogLabel()</text>
<text text-anchor="start" x="252.5" y="-329" font-family="Helvetica,sans-Serif" font-size="10.00">+ LogTooltip()</text>
<text text-anchor="start" x="252.5" y="-318" font-family="Helvetica,sans-Serif" font-size="10.00">+ LogValue()</text>
<text text-anchor="start" x="252.5" y="-307" font-family="Helvetica,sans-Serif" font-size="10.00">+ Me()</text>
<text text-anchor="start" x="252.5" y="-296" font-family="Helvetica,sans-Serif" font-size="10.00">und 21 mehr ...</text>
</a>
</g>
</g>
<!-- Node1&#45;&gt;Node0 -->
<g id="edge1" class="edge"><title>Node1&#45;&gt;Node0</title>
<path fill="none" stroke="midnightblue" d="M310,-278.531C310,-268.915 310,-259.673 310,-251.076"/>
<polygon fill="none" stroke="midnightblue" points="306.5,-278.676 310,-288.676 313.5,-278.676 306.5,-278.676"/>
</g>
<!-- Node2 -->
<g id="node3" class="node"><title>Node2</title>
<g id="a_node3"><a xlink:href="classokw_1_1gui_1_1_any_window.html" target="_top" xlink:title="Description of AnyWin. ">
<polygon fill="white" stroke="black" points="246,-636.5 246,-825.5 374,-825.5 374,-636.5 246,-636.5"/>
<text text-anchor="middle" x="310" y="-813.5" font-family="Helvetica,sans-Serif" font-size="10.00">okw.gui.AnyWindow</text>
<polyline fill="none" stroke="black" points="246,-806.5 374,-806.5 "/>
<text text-anchor="middle" x="310" y="-794.5" font-family="Helvetica,sans-Serif" font-size="10.00"> </text>
<polyline fill="none" stroke="black" points="246,-787.5 374,-787.5 "/>
<text text-anchor="start" x="254" y="-775.5" font-family="Helvetica,sans-Serif" font-size="10.00">+ AnyWindow()</text>
<text text-anchor="start" x="254" y="-764.5" font-family="Helvetica,sans-Serif" font-size="10.00">+ setLocator()</text>
<text text-anchor="start" x="254" y="-753.5" font-family="Helvetica,sans-Serif" font-size="10.00">+ getExists()</text>
<text text-anchor="start" x="254" y="-742.5" font-family="Helvetica,sans-Serif" font-size="10.00">+ getCaption()</text>
<text text-anchor="start" x="254" y="-731.5" font-family="Helvetica,sans-Serif" font-size="10.00">+ getIsActive()</text>
<text text-anchor="start" x="254" y="-720.5" font-family="Helvetica,sans-Serif" font-size="10.00">+ TypeKeyWindow()</text>
<text text-anchor="start" x="254" y="-709.5" font-family="Helvetica,sans-Serif" font-size="10.00">+ SelectWindow()</text>
<text text-anchor="start" x="254" y="-698.5" font-family="Helvetica,sans-Serif" font-size="10.00">+ StartApp()</text>
<text text-anchor="start" x="254" y="-687.5" font-family="Helvetica,sans-Serif" font-size="10.00">+ StopApp()</text>
<text text-anchor="start" x="254" y="-676.5" font-family="Helvetica,sans-Serif" font-size="10.00">+ VerifyWindowExists()</text>
<text text-anchor="start" x="254" y="-665.5" font-family="Helvetica,sans-Serif" font-size="10.00">+ VerifyIsWindowActive()</text>
<text text-anchor="start" x="254" y="-654.5" font-family="Helvetica,sans-Serif" font-size="10.00">+ VerifyWindowCaption()</text>
<text text-anchor="start" x="254" y="-643.5" font-family="Helvetica,sans-Serif" font-size="10.00">+ WaitForMe()</text>
</a>
</g>
</g>
<!-- Node2&#45;&gt;Node1 -->
<g id="edge2" class="edge"><title>Node2&#45;&gt;Node1</title>
<path fill="none" stroke="midnightblue" d="M310,-626.04C310,-617.221 310,-608.19 310,-599.095"/>
<polygon fill="none" stroke="midnightblue" points="306.5,-626.286 310,-636.286 313.5,-626.286 306.5,-626.286"/>
</g>
<!-- Node3 -->
<g id="node4" class="node"><title>Node3</title>
<g id="a_node4"><a xlink:href="classokw_1_1gui_1_1_any_win_base.html" target="_top" xlink:title="Description of AnyWin. ">
<polygon fill="white" stroke="black" points="94,-862.5 94,-1139.5 228,-1139.5 228,-862.5 94,-862.5"/>
<text text-anchor="middle" x="161" y="-1127.5" font-family="Helvetica,sans-Serif" font-size="10.00">okw.gui.AnyWinBase</text>
<polyline fill="none" stroke="black" points="94,-1120.5 228,-1120.5 "/>
<text text-anchor="start" x="102" y="-1108.5" font-family="Helvetica,sans-Serif" font-size="10.00">~ myLogger</text>
<text text-anchor="start" x="102" y="-1097.5" font-family="Helvetica,sans-Serif" font-size="10.00"># _locator</text>
<text text-anchor="start" x="102" y="-1086.5" font-family="Helvetica,sans-Serif" font-size="10.00">&#45; myFN</text>
<text text-anchor="start" x="102" y="-1075.5" font-family="Helvetica,sans-Serif" font-size="10.00">&#45; myKN</text>
<text text-anchor="start" x="102" y="-1064.5" font-family="Helvetica,sans-Serif" font-size="10.00">&#45; myParentFN</text>
<polyline fill="none" stroke="black" points="94,-1057.5 228,-1057.5 "/>
<text text-anchor="start" x="102" y="-1045.5" font-family="Helvetica,sans-Serif" font-size="10.00">+ getLocator()</text>
<text text-anchor="start" x="102" y="-1034.5" font-family="Helvetica,sans-Serif" font-size="10.00">+ getLOCATOR()</text>
<text text-anchor="start" x="102" y="-1023.5" font-family="Helvetica,sans-Serif" font-size="10.00">+ getExists()</text>
<text text-anchor="start" x="102" y="-1012.5" font-family="Helvetica,sans-Serif" font-size="10.00">+ AnyWinBase()</text>
<text text-anchor="start" x="102" y="-1001.5" font-family="Helvetica,sans-Serif" font-size="10.00">+ AnyWinBase()</text>
<text text-anchor="start" x="102" y="-990.5" font-family="Helvetica,sans-Serif" font-size="10.00">+ getFN()</text>
<text text-anchor="start" x="102" y="-979.5" font-family="Helvetica,sans-Serif" font-size="10.00">+ getKN()</text>
<text text-anchor="start" x="102" y="-968.5" font-family="Helvetica,sans-Serif" font-size="10.00">+ getParentFN()</text>
<text text-anchor="start" x="102" y="-957.5" font-family="Helvetica,sans-Serif" font-size="10.00">+ setFN()</text>
<text text-anchor="start" x="102" y="-946.5" font-family="Helvetica,sans-Serif" font-size="10.00">+ setKN()</text>
<text text-anchor="start" x="102" y="-935.5" font-family="Helvetica,sans-Serif" font-size="10.00">+ setParentFN()</text>
<text text-anchor="start" x="102" y="-924.5" font-family="Helvetica,sans-Serif" font-size="10.00"># LogFunctionStartDebug()</text>
<text text-anchor="start" x="102" y="-913.5" font-family="Helvetica,sans-Serif" font-size="10.00"># LogFunctionStartDebug()</text>
<text text-anchor="start" x="102" y="-902.5" font-family="Helvetica,sans-Serif" font-size="10.00"># LogFunctionEndDebug()</text>
<text text-anchor="start" x="102" y="-891.5" font-family="Helvetica,sans-Serif" font-size="10.00"># LogFunctionEndDebug()</text>
<text text-anchor="start" x="102" y="-880.5" font-family="Helvetica,sans-Serif" font-size="10.00"># LogFunctionEndDebug()</text>
<text text-anchor="start" x="102" y="-869.5" font-family="Helvetica,sans-Serif" font-size="10.00"># LogFunctionEndDebug()</text>
</a>
</g>
</g>
<!-- Node3&#45;&gt;Node2 -->
<g id="edge3" class="edge"><title>Node3&#45;&gt;Node2</title>
<path fill="none" stroke="midnightblue" d="M232.991,-869.214C234.338,-866.789 235.675,-864.383 237,-862 243.542,-850.237 250.438,-837.889 257.275,-825.678"/>
<polygon fill="none" stroke="midnightblue" points="229.873,-867.621 228.082,-878.064 235.994,-871.017 229.873,-867.621"/>
</g>
<!-- Node4 -->
<g id="node5" class="node"><title>Node4</title>
<g id="a_node5"><a xlink:href="interfaceokw_1_1gui_1_1_i_g_u_i_window.html" target="_top" xlink:title="{okw.gui.IGUIWindow\n||+ getCaption()\l+ getExists()\l+ getIsActive()\l+ TypeKeyWindow()\l+ SelectWindow()\l+ StartApp()\l+ StopApp()\l+ VerifyWindowExists()\l+ VerifyIsWindowActive()\l+ VerifyWindowCaption()\l}">
<polygon fill="white" stroke="black" points="246,-923 246,-1079 374,-1079 374,-923 246,-923"/>
<text text-anchor="middle" x="310" y="-1067" font-family="Helvetica,sans-Serif" font-size="10.00">okw.gui.IGUIWindow</text>
<polyline fill="none" stroke="black" points="246,-1060 374,-1060 "/>
<text text-anchor="middle" x="310" y="-1048" font-family="Helvetica,sans-Serif" font-size="10.00"> </text>
<polyline fill="none" stroke="black" points="246,-1041 374,-1041 "/>
<text text-anchor="start" x="254" y="-1029" font-family="Helvetica,sans-Serif" font-size="10.00">+ getCaption()</text>
<text text-anchor="start" x="254" y="-1018" font-family="Helvetica,sans-Serif" font-size="10.00">+ getExists()</text>
<text text-anchor="start" x="254" y="-1007" font-family="Helvetica,sans-Serif" font-size="10.00">+ getIsActive()</text>
<text text-anchor="start" x="254" y="-996" font-family="Helvetica,sans-Serif" font-size="10.00">+ TypeKeyWindow()</text>
<text text-anchor="start" x="254" y="-985" font-family="Helvetica,sans-Serif" font-size="10.00">+ SelectWindow()</text>
<text text-anchor="start" x="254" y="-974" font-family="Helvetica,sans-Serif" font-size="10.00">+ StartApp()</text>
<text text-anchor="start" x="254" y="-963" font-family="Helvetica,sans-Serif" font-size="10.00">+ StopApp()</text>
<text text-anchor="start" x="254" y="-952" font-family="Helvetica,sans-Serif" font-size="10.00">+ VerifyWindowExists()</text>
<text text-anchor="start" x="254" y="-941" font-family="Helvetica,sans-Serif" font-size="10.00">+ VerifyIsWindowActive()</text>
<text text-anchor="start" x="254" y="-930" font-family="Helvetica,sans-Serif" font-size="10.00">+ VerifyWindowCaption()</text>
</a>
</g>
</g>
<!-- Node4&#45;&gt;Node2 -->
<g id="edge4" class="edge"><title>Node4&#45;&gt;Node2</title>
<path fill="none" stroke="midnightblue" d="M310,-912.738C310,-884.903 310,-853.992 310,-825.719"/>
<polygon fill="none" stroke="midnightblue" points="306.5,-912.843 310,-922.843 313.5,-912.843 306.5,-912.843"/>
</g>
<!-- Node5 -->
<g id="node6" class="node"><title>Node5</title>
<g id="a_node6"><a xlink:href="interfaceokw_1_1core_1_1_i_o_k_w___f_n.html" target="_top" xlink:title="{okw.core.IOKW_FN\n||+ setKN()\l+ setFN()\l+ setParentFN()\l+ getKN()\l+ getFN()\l+ getParentFN()\l}">
<polygon fill="white" stroke="black" points="392.5,-945 392.5,-1057 497.5,-1057 497.5,-945 392.5,-945"/>
<text text-anchor="middle" x="445" y="-1045" font-family="Helvetica,sans-Serif" font-size="10.00">okw.core.IOKW_FN</text>
<polyline fill="none" stroke="black" points="392.5,-1038 497.5,-1038 "/>
<text text-anchor="middle" x="445" y="-1026" font-family="Helvetica,sans-Serif" font-size="10.00"> </text>
<polyline fill="none" stroke="black" points="392.5,-1019 497.5,-1019 "/>
<text text-anchor="start" x="400.5" y="-1007" font-family="Helvetica,sans-Serif" font-size="10.00">+ setKN()</text>
<text text-anchor="start" x="400.5" y="-996" font-family="Helvetica,sans-Serif" font-size="10.00">+ setFN()</text>
<text text-anchor="start" x="400.5" y="-985" font-family="Helvetica,sans-Serif" font-size="10.00">+ setParentFN()</text>
<text text-anchor="start" x="400.5" y="-974" font-family="Helvetica,sans-Serif" font-size="10.00">+ getKN()</text>
<text text-anchor="start" x="400.5" y="-963" font-family="Helvetica,sans-Serif" font-size="10.00">+ getFN()</text>
<text text-anchor="start" x="400.5" y="-952" font-family="Helvetica,sans-Serif" font-size="10.00">+ getParentFN()</text>
</a>
</g>
</g>
<!-- Node5&#45;&gt;Node2 -->
<g id="edge5" class="edge"><title>Node5&#45;&gt;Node2</title>
<path fill="none" stroke="midnightblue" d="M417.358,-935.289C407.024,-911.973 394.899,-885.602 383,-862 376.999,-850.097 370.458,-837.721 363.838,-825.546"/>
<polygon fill="none" stroke="midnightblue" points="414.286,-936.999 421.522,-944.737 420.692,-934.175 414.286,-936.999"/>
</g>
</g>
</svg>
        <g id="navigator" transform="translate(0 0)" fill="#404254">
                <rect fill="#f2f5e9" fill-opacity="0.5" stroke="#606060" stroke-width=".5" x="0" y="0" width="60" height="60"/>
                <use id="zoomplus" xlink:href="#zoomPlus" x="17" y="9" onmousedown="handleZoom(evt,'in')"/>
                <use id="zoomminus" xlink:href="#zoomMin" x="42" y="9" onmousedown="handleZoom(evt,'out')"/>
                <use id="reset" xlink:href="#resetDef" x="30" y="36" onmousedown="handleReset()"/>
                <g id="arrowUp" xlink:href="#dirArrow" transform="translate(30 24)" onmousedown="handlePan(0,-1)">
                  <use xlink:href="#rim" fill="#404040">
                        <set attributeName="fill" to="#808080" begin="arrowUp.mouseover" end="arrowUp.mouseout"/>
                  </use>
                  <path fill="none" stroke="white" stroke-width="1.5" d="M0,-3.0v7 M-2.5,-0.5L0,-3.0L2.5,-0.5"/>
                </g>
                <g id="arrowRight" xlink:href="#dirArrow" transform="rotate(90) translate(36 -43)" onmousedown="handlePan(1,0)">
                  <use xlink:href="#rim" fill="#404040">
                        <set attributeName="fill" to="#808080" begin="arrowRight.mouseover" end="arrowRight.mouseout"/>
                  </use>
                  <path fill="none" stroke="white" stroke-width="1.5" d="M0,-3.0v7 M-2.5,-0.5L0,-3.0L2.5,-0.5"/>
                </g>
                <g id="arrowDown" xlink:href="#dirArrow" transform="rotate(180) translate(-30 -48)" onmousedown="handlePan(0,1)">
                  <use xlink:href="#rim" fill="#404040">
                        <set attributeName="fill" to="#808080" begin="arrowDown.mouseover" end="arrowDown.mouseout"/>
                  </use>
                  <path fill="none" stroke="white" stroke-width="1.5" d="M0,-3.0v7 M-2.5,-0.5L0,-3.0L2.5,-0.5"/>
                </g>
                <g id="arrowLeft" xlink:href="#dirArrow" transform="rotate(270) translate(-36 17)" onmousedown="handlePan(-1,0)">
                  <use xlink:href="#rim" fill="#404040">
                        <set attributeName="fill" to="#808080" begin="arrowLeft.mouseover" end="arrowLeft.mouseout"/>
                  </use>
                  <path fill="none" stroke="white" stroke-width="1.5" d="M0,-3.0v7 M-2.5,-0.5L0,-3.0L2.5,-0.5"/>
                </g>
        </g>
        <svg viewBox="0 0 15 15" width="100%" height="30px" preserveAspectRatio="xMaxYMin meet">
         <g id="arrow_out" transform="scale(0.3 0.3)">
          <a xlink:href="classokw_1_1gui_1_1adapter_1_1selenium_1_1_se_browser_window__inherit__graph_org.svg" target="_base">
           <rect id="button" ry="5" rx="5" y="6" x="6" height="38" width="38"
                fill="#f2f5e9" fill-opacity="0.5" stroke="#606060" stroke-width="1.0"/>
           <path id="arrow"
             d="M 11.500037,31.436501 C 11.940474,20.09759 22.043105,11.32322 32.158766,21.979434 L 37.068811,17.246167 C 37.068811,17.246167 37.088388,32 37.088388,32 L 22.160133,31.978069 C 22.160133,31.978069 26.997745,27.140456 26.997745,27.140456 C 18.528582,18.264221 13.291696,25.230495 11.500037,31.436501 z"
             style="fill:#404040;"/>
          </a>
         </g>
        </svg>
</svg>
