<?xml version="1.0" encoding="UTF-8" standalone="no"?>
<!DOCTYPE svg PUBLIC "-//W3C//DTD SVG 1.1//EN"
 "http://www.w3.org/Graphics/SVG/1.1/DTD/svg11.dtd">
<!-- Generated by graphviz version 2.36.0 (20140111.2315)
 -->
<!-- Title: okw.core.OK.FileDelete Pages: 1 -->
<svg width="1094pt" height="525pt"
 viewBox="0.00 0.00 1094.00 525.00" xmlns="http://www.w3.org/2000/svg" xmlns:xlink="http://www.w3.org/1999/xlink">
<g id="graph0" class="graph" transform="scale(1 1) rotate(0) translate(4 521)">
<title>okw.core.OK.FileDelete</title>
<polygon fill="white" stroke="none" points="-4,4 -4,-521 1090,-521 1090,4 -4,4"/>
<!-- Node62 -->
<g id="node1" class="node"><title>Node62</title>
<polygon fill="#bfbfbf" stroke="black" points="0.5,-282.5 0.5,-301.5 121.5,-301.5 121.5,-282.5 0.5,-282.5"/>
<text text-anchor="middle" x="61" y="-289.5" font-family="Helvetica,sans-Serif" font-size="10.00">okw.core.OK.FileDelete</text>
</g>
<!-- Node63 -->
<g id="node2" class="node"><title>Node63</title>
<g id="a_node2"><a xlink:href="classokw_1_1_o_k_w___const___sngltn.html#afdb8f095b58cbd870dbb8eb353e3b0bf" target="_top" xlink:title="Holt die einzige Instanz dieser Klasse. ">
<polygon fill="white" stroke="black" points="161.5,-487 161.5,-517 304.5,-517 304.5,-487 161.5,-487"/>
<text text-anchor="start" x="169.5" y="-505" font-family="Helvetica,sans-Serif" font-size="10.00">okw.OKW_Const_Sngltn.get</text>
<text text-anchor="middle" x="233" y="-494" font-family="Helvetica,sans-Serif" font-size="10.00">Instance</text>
</a>
</g>
</g>
<!-- Node62&#45;&gt;Node63 -->
<g id="edge1" class="edge"><title>Node62&#45;&gt;Node63</title>
<path fill="none" stroke="midnightblue" d="M64.264,-301.658C71.8885,-332.072 99.4981,-426.821 158,-477 159.981,-478.7 162.083,-480.285 164.276,-481.763"/>
<polygon fill="midnightblue" stroke="midnightblue" points="162.728,-484.913 173.124,-486.954 166.27,-478.875 162.728,-484.913"/>
</g>
<!-- Node65 -->
<g id="node4" class="node"><title>Node65</title>
<g id="a_node4"><a xlink:href="classokw_1_1_o_k_w___const___sngltn.html#a02c05c79f7ea6e862a81a64ce23941fd" target="_top" xlink:title="Methode ermittelt für Internalname und der aktuell eingestellten Sprache den Wert für OKWConst...">
<polygon fill="white" stroke="black" points="160.5,-438 160.5,-468 305.5,-468 305.5,-438 160.5,-438"/>
<text text-anchor="start" x="168.5" y="-456" font-family="Helvetica,sans-Serif" font-size="10.00">okw.OKW_Const_Sngltn.Get</text>
<text text-anchor="middle" x="233" y="-445" font-family="Helvetica,sans-Serif" font-size="10.00">OKWConst4Internalname</text>
</a>
</g>
</g>
<!-- Node62&#45;&gt;Node65 -->
<g id="edge3" class="edge"><title>Node62&#45;&gt;Node65</title>
<path fill="none" stroke="midnightblue" d="M66.6568,-301.644C78.6042,-325.454 112.622,-387.653 158,-423 163.024,-426.913 168.628,-430.388 174.441,-433.456"/>
<polygon fill="midnightblue" stroke="midnightblue" points="173.172,-436.73 183.697,-437.946 176.227,-430.432 173.172,-436.73"/>
</g>
<!-- Node67 -->
<g id="node6" class="node"><title>Node67</title>
<g id="a_node6"><a xlink:href="classokw_1_1log_1_1_logger___sngltn.html#a313f97c79ba4662d9daaf7f537dd02f4" target="_top" xlink:title="Loggt eine Nachricht. ">
<polygon fill="white" stroke="black" points="547,-361 547,-391 681,-391 681,-361 547,-361"/>
<text text-anchor="start" x="555" y="-379" font-family="Helvetica,sans-Serif" font-size="10.00">okw.log.Logger_Sngltn.Log</text>
<text text-anchor="middle" x="614" y="-368" font-family="Helvetica,sans-Serif" font-size="10.00">PrintDebug</text>
</a>
</g>
</g>
<!-- Node62&#45;&gt;Node67 -->
<g id="edge7" class="edge"><title>Node62&#45;&gt;Node67</title>
<path fill="none" stroke="midnightblue" d="M75.3049,-301.58C93.2369,-314.054 126.55,-335.71 158,-348 299.767,-403.397 346.035,-397.562 498,-389 510.505,-388.295 523.739,-387.163 536.605,-385.853"/>
<polygon fill="midnightblue" stroke="midnightblue" points="537.248,-389.305 546.823,-384.77 536.51,-382.344 537.248,-389.305"/>
</g>
<!-- Node69 -->
<g id="node8" class="node"><title>Node69</title>
<g id="a_node8"><a xlink:href="classokw_1_1_log_messenger.html#af225d1f037d47b3b085175c09d78bdd2" target="_top" xlink:title="Holt die Log&#45;Meldung für MethodeNmae/Textkey ohne weitere Parameter. ">
<polygon fill="white" stroke="black" points="534,-136.5 534,-155.5 694,-155.5 694,-136.5 534,-136.5"/>
<text text-anchor="middle" x="614" y="-143.5" font-family="Helvetica,sans-Serif" font-size="10.00">okw.LogMessenger.GetMessage</text>
</a>
</g>
</g>
<!-- Node62&#45;&gt;Node69 -->
<g id="edge8" class="edge"><title>Node62&#45;&gt;Node69</title>
<path fill="none" stroke="midnightblue" d="M72.6936,-282.089C107.984,-250.147 225.273,-150.009 344,-116 424.89,-92.829 524.229,-116.75 576.632,-133.221"/>
<polygon fill="midnightblue" stroke="midnightblue" points="575.876,-136.655 586.468,-136.4 578.029,-129.994 575.876,-136.655"/>
</g>
<!-- Node71 -->
<g id="node10" class="node"><title>Node71</title>
<g id="a_node10"><a xlink:href="classokw_1_1parser_1_1_parser.html#a46afb901847316c744413ce473ecada3" target="_top" xlink:title="Parst einen _List&amp;lt string&amp;gt, ersetzt die Parser&#45;Schlüsslewörter durch Werte. ">
<polygon fill="white" stroke="black" points="164,-49.5 164,-68.5 302,-68.5 302,-49.5 164,-49.5"/>
<text text-anchor="middle" x="233" y="-56.5" font-family="Helvetica,sans-Serif" font-size="10.00">okw.parser.Parser.ParseMe</text>
</a>
</g>
</g>
<!-- Node62&#45;&gt;Node71 -->
<g id="edge11" class="edge"><title>Node62&#45;&gt;Node71</title>
<path fill="none" stroke="midnightblue" d="M63.5786,-282.485C69.5167,-249.702 93.5534,-140.317 158,-83 162.702,-78.8179 168.144,-75.3631 173.901,-72.5094"/>
<polygon fill="midnightblue" stroke="midnightblue" points="175.362,-75.6907 183.145,-68.5017 172.578,-69.2683 175.362,-75.6907"/>
</g>
<!-- Node72 -->
<g id="node11" class="node"><title>Node72</title>
<g id="a_node11"><a xlink:href="classokw_1_1_o_k_w___file_helper.html#aac0c21a231235d82167c736ae0150065" target="_top" xlink:title="Konvertiert selbständig. ">
<polygon fill="white" stroke="black" points="160,-0 160,-30 306,-30 306,-0 160,-0"/>
<text text-anchor="start" x="168" y="-18" font-family="Helvetica,sans-Serif" font-size="10.00">okw.OKW_FileHelper.convert</text>
<text text-anchor="middle" x="233" y="-7" font-family="Helvetica,sans-Serif" font-size="10.00">DirectorySeperator</text>
</a>
</g>
</g>
<!-- Node62&#45;&gt;Node72 -->
<g id="edge12" class="edge"><title>Node62&#45;&gt;Node72</title>
<path fill="none" stroke="midnightblue" d="M62.7828,-282.439C66.3109,-245.585 83.9614,-111.264 158,-40 159.627,-38.4336 161.356,-36.9653 163.166,-35.5888"/>
<polygon fill="midnightblue" stroke="midnightblue" points="165.091,-38.512 171.562,-30.1231 161.272,-32.6456 165.091,-38.512"/>
</g>
<!-- Node73 -->
<g id="node12" class="node"><title>Node73</title>
<g id="a_node12"><a xlink:href="classokw_1_1_o_k_w___file_helper.html#a0366b16ffbda3758499996c037fee1f7" target="_top" xlink:title="Löscht alle Dateien im gegebenen Verzeichniss Rekursive. ">
<polygon fill="white" stroke="black" points="163,-309 163,-339 303,-339 303,-309 163,-309"/>
<text text-anchor="start" x="171" y="-327" font-family="Helvetica,sans-Serif" font-size="10.00">okw.OKW_FileHelper.delete</text>
<text text-anchor="middle" x="233" y="-316" font-family="Helvetica,sans-Serif" font-size="10.00">Files</text>
</a>
</g>
</g>
<!-- Node62&#45;&gt;Node73 -->
<g id="edge13" class="edge"><title>Node62&#45;&gt;Node73</title>
<path fill="none" stroke="midnightblue" d="M112.545,-301.514C125.225,-303.901 139.137,-306.52 152.844,-309.1"/>
<polygon fill="midnightblue" stroke="midnightblue" points="152.294,-312.558 162.769,-310.968 153.589,-305.679 152.294,-312.558"/>
</g>
<!-- Node75 -->
<g id="node14" class="node"><title>Node75</title>
<g id="a_node14"><a xlink:href="classokw_1_1core_1_1_o_k.html#a5a6db6a457bcb71c893f5d4eb615b2b7" target="_top" xlink:title="Zentrale Exception&#45;Behandlung. ">
<polygon fill="white" stroke="black" points="158.5,-251.5 158.5,-270.5 307.5,-270.5 307.5,-251.5 158.5,-251.5"/>
<text text-anchor="middle" x="233" y="-258.5" font-family="Helvetica,sans-Serif" font-size="10.00">okw.core.OK.handleException</text>
</a>
</g>
</g>
<!-- Node62&#45;&gt;Node75 -->
<g id="edge16" class="edge"><title>Node62&#45;&gt;Node75</title>
<path fill="none" stroke="midnightblue" d="M114.393,-282.446C131.926,-279.249 151.641,-275.654 169.845,-272.334"/>
<polygon fill="midnightblue" stroke="midnightblue" points="170.57,-275.76 179.78,-270.522 169.315,-268.873 170.57,-275.76"/>
</g>
<!-- Node64 -->
<g id="node3" class="node"><title>Node64</title>
<g id="a_node3"><a xlink:href="classokw_1_1_o_k_w___const___sngltn.html#a8404c43fc549df30d37c369c7d6e89ae" target="_top" xlink:title="Privater Konstruktor ohne Parameter im Entwurfsmuster Singelton initialisiert die Klasse OKW_Const...">
<polygon fill="white" stroke="black" points="344.5,-487 344.5,-517 497.5,-517 497.5,-487 344.5,-487"/>
<text text-anchor="start" x="352.5" y="-505" font-family="Helvetica,sans-Serif" font-size="10.00">okw.OKW_Const_Sngltn.OKW</text>
<text text-anchor="middle" x="421" y="-494" font-family="Helvetica,sans-Serif" font-size="10.00">_Const_Sngltn</text>
</a>
</g>
</g>
<!-- Node63&#45;&gt;Node64 -->
<g id="edge2" class="edge"><title>Node63&#45;&gt;Node64</title>
<path fill="none" stroke="midnightblue" d="M304.584,-502C314.194,-502 324.145,-502 333.99,-502"/>
<polygon fill="midnightblue" stroke="midnightblue" points="334.193,-505.5 344.193,-502 334.193,-498.5 334.193,-505.5"/>
</g>
<!-- Node66 -->
<g id="node5" class="node"><title>Node66</title>
<g id="a_node5"><a xlink:href="classokw_1_1_o_k_w___const___sngltn.html#a51cde06bf07e855ba4d69ff36b9a27f7" target="_top" xlink:title="Methode ermittelt für Internalname und der aktuell eingestellten Sprache den Wert für Const...">
<polygon fill="white" stroke="black" points="348.5,-438 348.5,-468 493.5,-468 493.5,-438 348.5,-438"/>
<text text-anchor="start" x="356.5" y="-456" font-family="Helvetica,sans-Serif" font-size="10.00">okw.OKW_Const_Sngltn.Get</text>
<text text-anchor="middle" x="421" y="-445" font-family="Helvetica,sans-Serif" font-size="10.00">Const4Internalname</text>
</a>
</g>
</g>
<!-- Node65&#45;&gt;Node66 -->
<g id="edge4" class="edge"><title>Node65&#45;&gt;Node66</title>
<path fill="none" stroke="midnightblue" d="M305.646,-453C316.271,-453 327.289,-453 338.104,-453"/>
<polygon fill="midnightblue" stroke="midnightblue" points="338.391,-456.5 348.39,-453 338.39,-449.5 338.391,-456.5"/>
</g>
<!-- Node66&#45;&gt;Node67 -->
<g id="edge5" class="edge"><title>Node66&#45;&gt;Node67</title>
<path fill="none" stroke="midnightblue" d="M460.309,-437.982C472.381,-433.221 485.758,-427.917 498,-423 520.823,-413.832 546.132,-403.506 567.183,-394.872"/>
<polygon fill="midnightblue" stroke="midnightblue" points="568.61,-398.07 576.532,-391.035 565.952,-391.595 568.61,-398.07"/>
</g>
<!-- Node68 -->
<g id="node7" class="node"><title>Node68</title>
<g id="a_node7"><a xlink:href="classokw_1_1_o_k_w___xml_reader.html#ab920b5335a2e1429c14cc5f8e79f39eb" target="_top" xlink:title="Lies den TextContent eines Tag. ">
<polygon fill="white" stroke="black" points="934,-343 934,-373 1086,-373 1086,-343 934,-343"/>
<text text-anchor="start" x="942" y="-361" font-family="Helvetica,sans-Serif" font-size="10.00">okw.OKW_XmlReader.getText</text>
<text text-anchor="middle" x="1010" y="-350" font-family="Helvetica,sans-Serif" font-size="10.00">ContentSingleValue</text>
</a>
</g>
</g>
<!-- Node66&#45;&gt;Node68 -->
<g id="edge6" class="edge"><title>Node66&#45;&gt;Node68</title>
<path fill="none" stroke="midnightblue" d="M493.684,-441.399C602.155,-423.844 807.617,-390.592 923.65,-371.813"/>
<polygon fill="midnightblue" stroke="midnightblue" points="924.251,-375.261 933.563,-370.209 923.132,-368.351 924.251,-375.261"/>
</g>
<!-- Node70 -->
<g id="node9" class="node"><title>Node70</title>
<g id="a_node9"><a xlink:href="classokw_1_1_log_messenger.html#a530cd6ab82ec82a04206a2e976ec06e3" target="_top" xlink:title="Interne Kernfunktion holt die Log&#45;Meldung mit Platzhaltern aus der XML&#45;Datei. ">
<polygon fill="white" stroke="black" points="730.5,-265.5 730.5,-284.5 897.5,-284.5 897.5,-265.5 730.5,-265.5"/>
<text text-anchor="middle" x="814" y="-272.5" font-family="Helvetica,sans-Serif" font-size="10.00">okw.LogMessenger.ReadMessage</text>
</a>
</g>
</g>
<!-- Node69&#45;&gt;Node70 -->
<g id="edge9" class="edge"><title>Node69&#45;&gt;Node70</title>
<path fill="none" stroke="midnightblue" d="M670.724,-155.592C678.784,-158.057 686.785,-161.142 694,-165 738.386,-188.736 778.852,-233.019 799.2,-257.539"/>
<polygon fill="midnightblue" stroke="midnightblue" points="796.505,-259.773 805.531,-265.321 801.935,-255.355 796.505,-259.773"/>
</g>
<!-- Node70&#45;&gt;Node68 -->
<g id="edge10" class="edge"><title>Node70&#45;&gt;Node68</title>
<path fill="none" stroke="midnightblue" d="M837.254,-284.521C868.213,-297.766 924.947,-322.039 964.71,-339.051"/>
<polygon fill="midnightblue" stroke="midnightblue" points="963.354,-342.278 973.924,-342.993 966.107,-335.842 963.354,-342.278"/>
</g>
<!-- Node74 -->
<g id="node13" class="node"><title>Node74</title>
<g id="a_node13"><a xlink:href="classokw_1_1_o_k_w___file_helper.html#a4feaa905b7b878f286058a06a81f3ce2" target="_top" xlink:title="Prüft, ob die gegebene fpsPaFiNa Datei existiert. ">
<polygon fill="white" stroke="black" points="345,-350 345,-380 497,-380 497,-350 345,-350"/>
<text text-anchor="start" x="353" y="-368" font-family="Helvetica,sans-Serif" font-size="10.00">okw.OKW_FileHelper.directory</text>
<text text-anchor="middle" x="421" y="-357" font-family="Helvetica,sans-Serif" font-size="10.00">Exists</text>
</a>
</g>
</g>
<!-- Node73&#45;&gt;Node74 -->
<g id="edge14" class="edge"><title>Node73&#45;&gt;Node74</title>
<path fill="none" stroke="midnightblue" d="M302.203,-339.034C315.092,-341.875 328.666,-344.867 341.833,-347.77"/>
<polygon fill="midnightblue" stroke="midnightblue" points="341.286,-351.233 351.805,-349.968 342.793,-344.397 341.286,-351.233"/>
</g>
<!-- Node74&#45;&gt;Node67 -->
<g id="edge15" class="edge"><title>Node74&#45;&gt;Node67</title>
<path fill="none" stroke="midnightblue" d="M497.214,-369.332C510.147,-370.077 523.599,-370.851 536.564,-371.598"/>
<polygon fill="midnightblue" stroke="midnightblue" points="536.652,-375.109 546.837,-372.19 537.054,-368.12 536.652,-375.109"/>
</g>
<!-- Node75&#45;&gt;Node67 -->
<g id="edge19" class="edge"><title>Node75&#45;&gt;Node67</title>
<path fill="none" stroke="midnightblue" d="M265.701,-270.593C315.269,-285.596 414.14,-315.533 498,-341 516.197,-346.526 536.01,-352.553 553.983,-358.024"/>
<polygon fill="midnightblue" stroke="midnightblue" points="553.172,-361.435 563.757,-360.999 555.21,-354.738 553.172,-361.435"/>
</g>
<!-- Node76 -->
<g id="node15" class="node"><title>Node76</title>
<g id="a_node15"><a xlink:href="classokw_1_1log_1_1_logger___sngltn.html#a8ebceaddd6cc6963ddb8e08c72ea808c" target="_top" xlink:title="LogPrint Function: Prints the values of expressions to the results file. ">
<polygon fill="white" stroke="black" points="547,-273 547,-303 681,-303 681,-273 547,-273"/>
<text text-anchor="start" x="555" y="-291" font-family="Helvetica,sans-Serif" font-size="10.00">okw.log.Logger_Sngltn.Log</text>
<text text-anchor="middle" x="614" y="-280" font-family="Helvetica,sans-Serif" font-size="10.00">Print</text>
</a>
</g>
</g>
<!-- Node75&#45;&gt;Node76 -->
<g id="edge17" class="edge"><title>Node75&#45;&gt;Node76</title>
<path fill="none" stroke="midnightblue" d="M307.524,-266.238C373.557,-270.942 470.117,-277.821 536.923,-282.58"/>
<polygon fill="midnightblue" stroke="midnightblue" points="536.744,-286.076 546.968,-283.296 537.242,-279.094 536.744,-286.076"/>
</g>
<!-- Node77 -->
<g id="node16" class="node"><title>Node77</title>
<g id="a_node16"><a xlink:href="classokw_1_1log_1_1_logger___sngltn.html#aa29d396a2b9df1ac57079d777c548181" target="_top" xlink:title="LogException Function: Logs a Script Exception to the results file. ">
<polygon fill="white" stroke="black" points="354,-175 354,-205 488,-205 488,-175 354,-175"/>
<text text-anchor="start" x="362" y="-193" font-family="Helvetica,sans-Serif" font-size="10.00">okw.log.Logger_Sngltn.Log</text>
<text text-anchor="middle" x="421" y="-182" font-family="Helvetica,sans-Serif" font-size="10.00">Exception</text>
</a>
</g>
</g>
<!-- Node75&#45;&gt;Node77 -->
<g id="edge18" class="edge"><title>Node75&#45;&gt;Node77</title>
<path fill="none" stroke="midnightblue" d="M255.713,-251.327C277.757,-241.648 312.968,-226.572 344,-215 349.979,-212.771 356.259,-210.536 362.54,-208.371"/>
<polygon fill="midnightblue" stroke="midnightblue" points="364.023,-211.563 372.367,-205.034 361.773,-204.935 364.023,-211.563"/>
</g>
<!-- Node78 -->
<g id="node17" class="node"><title>Node78</title>
<g id="a_node17"><a xlink:href="classokw_1_1core_1_1_o_k_w___current_object___sngltn.html#a01b48f2c86a2f91909143ee9063dfd86" target="_top" xlink:title="Methode gibt alle wichtigen Informationen zum aktuellen Objekt aus. ">
<polygon fill="white" stroke="black" points="346.5,-224 346.5,-254 495.5,-254 495.5,-224 346.5,-224"/>
<text text-anchor="start" x="354.5" y="-242" font-family="Helvetica,sans-Serif" font-size="10.00">okw.core.OKW_CurrentObject</text>
<text text-anchor="middle" x="421" y="-231" font-family="Helvetica,sans-Serif" font-size="10.00">_Sngltn.LogObjectData</text>
</a>
</g>
</g>
<!-- Node75&#45;&gt;Node78 -->
<g id="edge20" class="edge"><title>Node75&#45;&gt;Node78</title>
<path fill="none" stroke="midnightblue" d="M307.512,-252.305C317.008,-251.182 326.788,-250.025 336.431,-248.885"/>
<polygon fill="midnightblue" stroke="midnightblue" points="336.893,-252.354 346.413,-247.704 336.071,-245.403 336.893,-252.354"/>
</g>
<!-- Node81 -->
<g id="node20" class="node"><title>Node81</title>
<g id="a_node20"><a xlink:href="classokw_1_1core_1_1_core.html#aafe6e3d88e810dabf350b37058d4af97" target="_top" xlink:title="Setter zum Setzen des aktuellen Zustandes. ">
<polygon fill="white" stroke="black" points="355.5,-126 355.5,-156 486.5,-156 486.5,-126 355.5,-126"/>
<text text-anchor="start" x="363.5" y="-144" font-family="Helvetica,sans-Serif" font-size="10.00">okw.core.Core.SetCurrent</text>
<text text-anchor="middle" x="421" y="-133" font-family="Helvetica,sans-Serif" font-size="10.00">State</text>
</a>
</g>
</g>
<!-- Node75&#45;&gt;Node81 -->
<g id="edge25" class="edge"><title>Node75&#45;&gt;Node81</title>
<path fill="none" stroke="midnightblue" d="M242.42,-251.368C259.638,-232.235 300.904,-189.203 344,-165 347.205,-163.2 350.562,-161.516 354.007,-159.942"/>
<polygon fill="midnightblue" stroke="midnightblue" points="355.429,-163.141 363.283,-156.03 352.709,-156.691 355.429,-163.141"/>
</g>
<!-- Node78&#45;&gt;Node69 -->
<g id="edge23" class="edge"><title>Node78&#45;&gt;Node69</title>
<path fill="none" stroke="midnightblue" d="M480.688,-223.882C486.809,-221.101 492.715,-217.833 498,-214 519.876,-198.134 511.494,-179.958 534,-165 537.121,-162.926 540.444,-161.078 543.895,-159.431"/>
<polygon fill="midnightblue" stroke="midnightblue" points="545.389,-162.6 553.274,-155.525 542.697,-156.138 545.389,-162.6"/>
</g>
<!-- Node78&#45;&gt;Node76 -->
<g id="edge22" class="edge"><title>Node78&#45;&gt;Node76</title>
<path fill="none" stroke="midnightblue" d="M480.604,-254.035C500.863,-259.232 523.739,-265.101 544.706,-270.48"/>
<polygon fill="midnightblue" stroke="midnightblue" points="543.95,-273.899 554.506,-272.994 545.69,-267.119 543.95,-273.899"/>
</g>
<!-- Node79 -->
<g id="node18" class="node"><title>Node79</title>
<g id="a_node18"><a xlink:href="classokw_1_1log_1_1_logger___sngltn.html#ab4fc711bb4c754f251372ff3b14ab9c9" target="_top" xlink:title="Creates a new hierarchical level in the results file. ">
<polygon fill="white" stroke="black" points="545.5,-224 545.5,-254 682.5,-254 682.5,-224 545.5,-224"/>
<text text-anchor="start" x="553.5" y="-242" font-family="Helvetica,sans-Serif" font-size="10.00">okw.log.Logger_Sngltn.Res</text>
<text text-anchor="middle" x="614" y="-231" font-family="Helvetica,sans-Serif" font-size="10.00">OpenList</text>
</a>
</g>
</g>
<!-- Node78&#45;&gt;Node79 -->
<g id="edge21" class="edge"><title>Node78&#45;&gt;Node79</title>
<path fill="none" stroke="midnightblue" d="M495.572,-239C508.508,-239 522.011,-239 535.061,-239"/>
<polygon fill="midnightblue" stroke="midnightblue" points="535.411,-242.5 545.411,-239 535.411,-235.5 535.411,-242.5"/>
</g>
<!-- Node80 -->
<g id="node19" class="node"><title>Node80</title>
<g id="a_node19"><a xlink:href="classokw_1_1log_1_1_logger___sngltn.html#a9b54104f7e0b4c0a473877b19dfaed56" target="_top" xlink:title="Closes a hierarchical level in the results file that was opened with ResOpenList. ...">
<polygon fill="white" stroke="black" points="545.5,-175 545.5,-205 682.5,-205 682.5,-175 545.5,-175"/>
<text text-anchor="start" x="553.5" y="-193" font-family="Helvetica,sans-Serif" font-size="10.00">okw.log.Logger_Sngltn.Res</text>
<text text-anchor="middle" x="614" y="-182" font-family="Helvetica,sans-Serif" font-size="10.00">CloseList</text>
</a>
</g>
</g>
<!-- Node78&#45;&gt;Node80 -->
<g id="edge24" class="edge"><title>Node78&#45;&gt;Node80</title>
<path fill="none" stroke="midnightblue" d="M480.604,-223.965C500.863,-218.768 523.739,-212.899 544.706,-207.52"/>
<polygon fill="midnightblue" stroke="midnightblue" points="545.69,-210.881 554.506,-205.006 543.95,-204.101 545.69,-210.881"/>
</g>
</g>
</svg>
