<?xml version="1.0" encoding="UTF-8" standalone="no"?>
<!DOCTYPE svg PUBLIC "-//W3C//DTD SVG 1.1//EN"
 "http://www.w3.org/Graphics/SVG/1.1/DTD/svg11.dtd">
<!-- Generated by graphviz version 2.26.3 (20100126.1600)
 -->
<!-- Title: okw.log.Log2Console.LogPrint Pages: 1 -->
<svg width="812pt" height="368pt"
 viewBox="0.00 0.00 812.00 368.00" xmlns="http://www.w3.org/2000/svg" xmlns:xlink="http://www.w3.org/1999/xlink">
<g id="graph1" class="graph" transform="scale(1 1) rotate(0) translate(4 364)">
<title>okw.log.Log2Console.LogPrint</title>
<polygon fill="white" stroke="white" points="-4,5 -4,-364 809,-364 809,5 -4,5"/>
<!-- Node113 -->
<g id="node1" class="node"><title>Node113</title>
<polygon fill="#bfbfbf" stroke="black" points="0.5,-139.5 0.5,-160.5 149.5,-160.5 149.5,-139.5 0.5,-139.5"/>
<text text-anchor="middle" x="75" y="-147.5" font-family="Helvetica,sans-Serif" font-size="10.00">okw.log.Log2Console.LogPrint</text>
</g>
<!-- Node114 -->
<g id="node3" class="node"><title>Node114</title>
<a xlink:href="classokw_1_1log_1_1_log2_console.html#ae5d97f0d2c5d086474b811f700e97eb1" target="_top" xlink:title="LogFunctionEnd: ">
<polygon fill="white" stroke="black" points="188,-312.5 188,-333.5 372,-333.5 372,-312.5 188,-312.5"/>
<text text-anchor="middle" x="280" y="-320.5" font-family="Helvetica,sans-Serif" font-size="10.00">okw.log.Log2Console.LogFunctionEnd</text>
</a>
</g>
<!-- Node113&#45;&gt;Node114 -->
<g id="edge2" class="edge"><title>Node113&#45;&gt;Node114</title>
<path fill="none" stroke="midnightblue" d="M87.7514,-169.152C106.584,-196.268 144.153,-246.092 186,-278 205.567,-292.92 230.874,-304.688 250.299,-312.441"/>
<polygon fill="midnightblue" stroke="midnightblue" points="90.4244,-166.86 81.8952,-160.575 84.6433,-170.807 90.4244,-166.86"/>
</g>
<!-- Node116 -->
<g id="node7" class="node"><title>Node116</title>
<a xlink:href="classokw_1_1log_1_1_log2_console.html#a06fc14df2dcb5b2b28b65b2a5ca07e25" target="_top" xlink:title="okw.log.Log2Console.LogFunction\lStart">
<polygon fill="white" stroke="black" points="418.5,-274 418.5,-308 585.5,-308 585.5,-274 418.5,-274"/>
<text text-anchor="start" x="426.5" y="-295" font-family="Helvetica,sans-Serif" font-size="10.00">okw.log.Log2Console.LogFunction</text>
<text text-anchor="middle" x="502" y="-282" font-family="Helvetica,sans-Serif" font-size="10.00">Start</text>
</a>
</g>
<!-- Node113&#45;&gt;Node116 -->
<g id="edge6" class="edge"><title>Node113&#45;&gt;Node116</title>
<path fill="none" stroke="midnightblue" d="M96.6851,-166.539C118.243,-182.219 152.8,-205.349 186,-219 261.588,-250.079 353.129,-269.069 418.187,-279.683"/>
<polygon fill="midnightblue" stroke="midnightblue" points="98.6742,-163.657 88.5524,-160.526 94.5128,-169.286 98.6742,-163.657"/>
</g>
<!-- Node118 -->
<g id="node11" class="node"><title>Node118</title>
<a xlink:href="classokw_1_1log_1_1_log2_console.html#af99ba81cf4d8e14d5fe19070f12ae5cb" target="_top" xlink:title="LogFunctionStartDebug: Opens a debug outline level with the . ">
<polygon fill="white" stroke="black" points="195,-188.5 195,-209.5 365,-209.5 365,-188.5 195,-188.5"/>
<text text-anchor="middle" x="280" y="-196.5" font-family="Helvetica,sans-Serif" font-size="10.00">okw.log.Log2Console.ResOpenList</text>
</a>
</g>
<!-- Node113&#45;&gt;Node118 -->
<g id="edge10" class="edge"><title>Node113&#45;&gt;Node118</title>
<path fill="none" stroke="midnightblue" d="M129.001,-162.908C162.286,-170.863 204.438,-180.939 235.742,-188.421"/>
<polygon fill="midnightblue" stroke="midnightblue" points="129.517,-159.432 118.978,-160.512 127.89,-166.241 129.517,-159.432"/>
</g>
<!-- Node121 -->
<g id="node18" class="node"><title>Node121</title>
<a xlink:href="classokw_1_1log_1_1_log2_console.html#ab54c67895506d0e6786be1b7c4f1ac78" target="_top" xlink:title="LogTestcaseStart: ">
<polygon fill="white" stroke="black" points="632,-108 632,-142 802,-142 802,-108 632,-108"/>
<text text-anchor="start" x="640" y="-129" font-family="Helvetica,sans-Serif" font-size="10.00">okw.log.Log2Console.LogTestcase</text>
<text text-anchor="middle" x="717" y="-116" font-family="Helvetica,sans-Serif" font-size="10.00">Start</text>
</a>
</g>
<!-- Node113&#45;&gt;Node121 -->
<g id="edge24" class="edge"><title>Node113&#45;&gt;Node121</title>
<path fill="none" stroke="midnightblue" d="M159.899,-140.611C227.54,-133.624 324.707,-124.685 410,-121 491.702,-117.47 512.233,-119.671 594,-121 606.284,-121.2 619.254,-121.511 631.984,-121.875"/>
<polygon fill="midnightblue" stroke="midnightblue" points="159.305,-137.154 149.721,-141.671 160.03,-144.116 159.305,-137.154"/>
</g>
<!-- Node124 -->
<g id="node25" class="node"><title>Node124</title>
<a xlink:href="classokw_1_1log_1_1_log2_console.html#a3d7f0164c5d9db37f32b9678b96bd2af" target="_top" xlink:title="LogTestcaseEnd: ">
<polygon fill="white" stroke="black" points="186.5,-52.5 186.5,-73.5 373.5,-73.5 373.5,-52.5 186.5,-52.5"/>
<text text-anchor="middle" x="280" y="-60.5" font-family="Helvetica,sans-Serif" font-size="10.00">okw.log.Log2Console.LogTestcaseEnd</text>
</a>
</g>
<!-- Node113&#45;&gt;Node124 -->
<g id="edge26" class="edge"><title>Node113&#45;&gt;Node124</title>
<path fill="none" stroke="midnightblue" d="M99.5676,-133.918C121.49,-120.151 154.849,-100.611 186,-88 200.244,-82.2336 216.239,-77.4078 230.94,-73.5825"/>
<polygon fill="midnightblue" stroke="midnightblue" points="97.4685,-131.105 90.9121,-139.428 101.227,-137.01 97.4685,-131.105"/>
</g>
<!-- Node125 -->
<g id="node27" class="node"><title>Node125</title>
<a xlink:href="classokw_1_1log_1_1_log2_console.html#ac77e0616d07bf584b91f53c8a17636c6" target="_top" xlink:title="LogPrintDebug: ">
<polygon fill="white" stroke="black" points="205.5,-0 205.5,-34 354.5,-34 354.5,-0 205.5,-0"/>
<text text-anchor="start" x="213.5" y="-21" font-family="Helvetica,sans-Serif" font-size="10.00">okw.log.Log2Console.LogPrint</text>
<text text-anchor="middle" x="280" y="-8" font-family="Helvetica,sans-Serif" font-size="10.00">Debug</text>
</a>
</g>
<!-- Node113&#45;&gt;Node125 -->
<g id="edge28" class="edge"><title>Node113&#45;&gt;Node125</title>
<path fill="none" stroke="midnightblue" d="M89.231,-131.434C108.568,-107.482 145.416,-66.1535 186,-43 192.03,-39.5599 198.539,-36.5548 205.22,-33.9336"/>
<polygon fill="midnightblue" stroke="midnightblue" points="86.3837,-129.392 82.9247,-139.406 91.8737,-133.735 86.3837,-129.392"/>
</g>
<!-- Node115 -->
<g id="node5" class="node"><title>Node115</title>
<a xlink:href="classokw_1_1log_1_1_log2_console.html#a02a98178389196a6ac48021d5b116d7d" target="_top" xlink:title="LogFunctionEndDebug: ">
<polygon fill="white" stroke="black" points="418.5,-326 418.5,-360 585.5,-360 585.5,-326 418.5,-326"/>
<text text-anchor="start" x="426.5" y="-347" font-family="Helvetica,sans-Serif" font-size="10.00">okw.log.Log2Console.LogFunction</text>
<text text-anchor="middle" x="502" y="-334" font-family="Helvetica,sans-Serif" font-size="10.00">EndDebug</text>
</a>
</g>
<!-- Node114&#45;&gt;Node115 -->
<g id="edge4" class="edge"><title>Node114&#45;&gt;Node115</title>
<path fill="none" stroke="midnightblue" d="M382.284,-332.215C394.318,-333.299 406.49,-334.396 418.23,-335.453"/>
<polygon fill="midnightblue" stroke="midnightblue" points="382.493,-328.72 372.219,-331.308 381.865,-335.691 382.493,-328.72"/>
</g>
<!-- Node117 -->
<g id="node9" class="node"><title>Node117</title>
<a xlink:href="classokw_1_1log_1_1_log2_console.html#ae12be755a9da04599d329cfece22b1ef" target="_top" xlink:title="okw.log.Log2Console.LogFunction\lStartDebug">
<polygon fill="white" stroke="black" points="633.5,-274 633.5,-308 800.5,-308 800.5,-274 633.5,-274"/>
<text text-anchor="start" x="641.5" y="-295" font-family="Helvetica,sans-Serif" font-size="10.00">okw.log.Log2Console.LogFunction</text>
<text text-anchor="middle" x="717" y="-282" font-family="Helvetica,sans-Serif" font-size="10.00">StartDebug</text>
</a>
</g>
<!-- Node116&#45;&gt;Node117 -->
<g id="edge8" class="edge"><title>Node116&#45;&gt;Node117</title>
<path fill="none" stroke="midnightblue" d="M595.745,-291C608.305,-291 621.12,-291 633.488,-291"/>
<polygon fill="midnightblue" stroke="midnightblue" points="595.74,-287.5 585.74,-291 595.74,-294.5 595.74,-287.5"/>
</g>
<!-- Node118&#45;&gt;Node116 -->
<g id="edge14" class="edge"><title>Node118&#45;&gt;Node116</title>
<path fill="none" stroke="midnightblue" d="M306.806,-214.556C332.608,-229.056 373.047,-250.556 410,-265 418.193,-268.202 426.937,-271.193 435.653,-273.923"/>
<polygon fill="midnightblue" stroke="midnightblue" points="308.42,-211.448 297.996,-209.556 304.966,-217.536 308.42,-211.448"/>
</g>
<!-- Node119 -->
<g id="node13" class="node"><title>Node119</title>
<a xlink:href="classokw_1_1log_1_1_log2_console.html#a2d42361222359da106d531084f9d283e" target="_top" xlink:title="LogFunctionEnd(String): ">
<polygon fill="white" stroke="black" points="410,-234.5 410,-255.5 594,-255.5 594,-234.5 410,-234.5"/>
<text text-anchor="middle" x="502" y="-242.5" font-family="Helvetica,sans-Serif" font-size="10.00">okw.log.Log2Console.LogFunctionEnd</text>
</a>
</g>
<!-- Node118&#45;&gt;Node119 -->
<g id="edge12" class="edge"><title>Node118&#45;&gt;Node119</title>
<path fill="none" stroke="midnightblue" d="M340.937,-211.627C375.598,-218.809 418.498,-227.698 451.306,-234.496"/>
<polygon fill="midnightblue" stroke="midnightblue" points="341.433,-208.155 330.931,-209.553 340.013,-215.01 341.433,-208.155"/>
</g>
<!-- Node120 -->
<g id="node16" class="node"><title>Node120</title>
<a xlink:href="classokw_1_1log_1_1_log2_console.html#a6c848745fc8facac542f043f4bfce4bc" target="_top" xlink:title="okw.log.Log2Console.LogKey\lWordStart">
<polygon fill="white" stroke="black" points="429,-182 429,-216 575,-216 575,-182 429,-182"/>
<text text-anchor="start" x="437" y="-203" font-family="Helvetica,sans-Serif" font-size="10.00">okw.log.Log2Console.LogKey</text>
<text text-anchor="middle" x="502" y="-190" font-family="Helvetica,sans-Serif" font-size="10.00">WordStart</text>
</a>
</g>
<!-- Node118&#45;&gt;Node120 -->
<g id="edge16" class="edge"><title>Node118&#45;&gt;Node120</title>
<path fill="none" stroke="midnightblue" d="M375.388,-199C393.333,-199 411.834,-199 428.963,-199"/>
<polygon fill="midnightblue" stroke="midnightblue" points="375.196,-195.5 365.196,-199 375.196,-202.5 375.196,-195.5"/>
</g>
<!-- Node123 -->
<g id="node22" class="node"><title>Node123</title>
<a xlink:href="classokw_1_1log_1_1_log2_console.html#adea657f55b624397c13bfbf94f2a6d6a" target="_top" xlink:title="LogFunctionStartDebug: Opens a debug outline level with the . ">
<polygon fill="white" stroke="black" points="424.5,-130 424.5,-164 579.5,-164 579.5,-130 424.5,-130"/>
<text text-anchor="start" x="432.5" y="-151" font-family="Helvetica,sans-Serif" font-size="10.00">okw.log.Log2Console.ResOpen</text>
<text text-anchor="middle" x="502" y="-138" font-family="Helvetica,sans-Serif" font-size="10.00">ListDebug</text>
</a>
</g>
<!-- Node118&#45;&gt;Node123 -->
<g id="edge22" class="edge"><title>Node118&#45;&gt;Node123</title>
<path fill="none" stroke="midnightblue" d="M334.703,-186.187C363.192,-179.514 398.411,-171.264 429.174,-164.058"/>
<polygon fill="midnightblue" stroke="midnightblue" points="333.863,-182.789 324.925,-188.477 335.46,-189.604 333.863,-182.789"/>
</g>
<!-- Node120&#45;&gt;Node121 -->
<g id="edge18" class="edge"><title>Node120&#45;&gt;Node121</title>
<path fill="none" stroke="midnightblue" d="M575.481,-178.923C581.769,-176.997 588.011,-175.01 594,-173 621.708,-163.702 652.326,-151.76 676.083,-142.113"/>
<polygon fill="midnightblue" stroke="midnightblue" points="574.163,-175.664 565.594,-181.895 576.178,-182.368 574.163,-175.664"/>
</g>
<!-- Node122 -->
<g id="node20" class="node"><title>Node122</title>
<a xlink:href="classokw_1_1log_1_1_log2_console.html#a9ec829b2c64f226a7de1d6a8c0ec468f" target="_top" xlink:title="okw.log.Log2Console.LogSequence\lStart">
<polygon fill="white" stroke="black" points="630.5,-182 630.5,-216 803.5,-216 803.5,-182 630.5,-182"/>
<text text-anchor="start" x="638.5" y="-203" font-family="Helvetica,sans-Serif" font-size="10.00">okw.log.Log2Console.LogSequence</text>
<text text-anchor="middle" x="717" y="-190" font-family="Helvetica,sans-Serif" font-size="10.00">Start</text>
</a>
</g>
<!-- Node120&#45;&gt;Node122 -->
<g id="edge20" class="edge"><title>Node120&#45;&gt;Node122</title>
<path fill="none" stroke="midnightblue" d="M585.22,-199C600.024,-199 615.477,-199 630.373,-199"/>
<polygon fill="midnightblue" stroke="midnightblue" points="585.089,-195.5 575.089,-199 585.089,-202.5 585.089,-195.5"/>
</g>
</g>
</svg>
