<?xml version="1.0" encoding="UTF-8" standalone="no"?>
<!DOCTYPE svg PUBLIC "-//W3C//DTD SVG 1.1//EN"
 "http://www.w3.org/Graphics/SVG/1.1/DTD/svg11.dtd">
<!-- Generated by graphviz version 2.36.0 (20140111.2315)
 -->
<!-- Title: okw.core.EN_OKWNotAllowedValueException_Keywords_IGNORE.tcVerifyTooltipIGNORE1 Pages: 1 -->
<!--zoomable 301 -->
<svg id="main" version="1.1" xmlns="http://www.w3.org/2000/svg" xmlns:xlink="http://www.w3.org/1999/xlink" xml:space="preserve" onload="init(evt)">
<style type="text/css"><![CDATA[
.edge:hover path { stroke: red; }
.edge:hover polygon { stroke: red; fill: red; }
]]></style>
<script type="text/javascript"><![CDATA[
var edges = document.getElementsByTagName('g');
if (edges && edges.length) {
  for (var i=0;i<edges.length;i++) {
    if (edges[i].id.substr(0,4)=='edge') {
      edges[i].setAttribute('class','edge');
    }
  }
}
]]></script>
        <defs>
                <circle id="rim" cx="0" cy="0" r="7"/>
                <circle id="rim2" cx="0" cy="0" r="3.5"/>
                <g id="zoomPlus">
                        <use xlink:href="#rim" fill="#404040">
                                <set attributeName="fill" to="#808080" begin="zoomplus.mouseover" end="zoomplus.mouseout"/>
                        </use>
                        <path d="M-4,0h8M0,-4v8" fill="none" stroke="white" stroke-width="1.5" pointer-events="none"/>
                </g>
                <g id="zoomMin">
                        <use xlink:href="#rim" fill="#404040">
                                <set attributeName="fill" to="#808080" begin="zoomminus.mouseover" end="zoomminus.mouseout"/>
                        </use>
                        <path d="M-4,0h8" fill="none" stroke="white" stroke-width="1.5" pointer-events="none"/>
                </g>
                <g id="dirArrow">
                        <path fill="none" stroke="white" stroke-width="1.5" d="M0,-3.0v7 M-2.5,-0.5L0,-3.0L2.5,-0.5"/>
                </g>
               <g id="resetDef">
                       <use xlink:href="#rim2" fill="#404040">
                               <set attributeName="fill" to="#808080" begin="reset.mouseover" end="reset.mouseout"/>
                       </use>
               </g>
        </defs>

<script type="text/javascript">
var viewWidth = 1142;
var viewHeight = 301;
var sectionId = 'dynsection-61';
</script>
<script xlink:href="svgpan.js"/>
<svg id="graph" class="graph">
<g id="viewport">
<title>okw.core.EN_OKWNotAllowedValueException_Keywords_IGNORE.tcVerifyTooltipIGNORE1</title>
<polygon fill="white" stroke="none" points="-4,4 -4,-297 1138,-297 1138,4 -4,4"/>
<!-- Node1080 -->
<g id="node1" class="node"><title>Node1080</title>
<polygon fill="#bfbfbf" stroke="black" points="0.5,-106.5 0.5,-147.5 173.5,-147.5 173.5,-106.5 0.5,-106.5"/>
<text text-anchor="start" x="8.5" y="-135.5" font-family="Helvetica,sans-Serif" font-size="10.00">okw.core.EN_OKWNotAllowed</text>
<text text-anchor="start" x="8.5" y="-124.5" font-family="Helvetica,sans-Serif" font-size="10.00">ValueException_Keywords</text>
<text text-anchor="middle" x="87" y="-113.5" font-family="Helvetica,sans-Serif" font-size="10.00">_IGNORE.tcVerifyTooltipIGNORE1</text>
</g>
<!-- Node1081 -->
<g id="node2" class="node"><title>Node1081</title>
<g id="a_node2"><a xlink:href="classokw_1_1core_1_1_e_n.html#aef613b0a3e6bb8a9623984db145cae69" target="_top" xlink:title="Markiert den Anfang eines neuen Testfalls. ">
<polygon fill="white" stroke="black" points="219.5,-79.5 219.5,-98.5 340.5,-98.5 340.5,-79.5 219.5,-79.5"/>
<text text-anchor="middle" x="280" y="-86.5" font-family="Helvetica,sans-Serif" font-size="10.00">okw.core.EN.BeginTest</text>
</a>
</g>
</g>
<!-- Node1080&#45;&gt;Node1081 -->
<g id="edge1" class="edge"><title>Node1080&#45;&gt;Node1081</title>
<path fill="none" stroke="midnightblue" d="M173.723,-109.945C189.758,-106.755 206.164,-103.491 221.108,-100.518"/>
<polygon fill="midnightblue" stroke="midnightblue" points="222.073,-103.894 231.198,-98.5104 220.707,-97.029 222.073,-103.894"/>
</g>
<!-- Node1087 -->
<g id="node8" class="node"><title>Node1087</title>
<g id="a_node8"><a xlink:href="classokw_1_1core_1_1_e_n.html#a2b61c2b39a9cfdbdfd25fe0e3d43785b" target="_top" xlink:title="Setzt den Kontext auf das gegebene Fenster. ">
<polygon fill="white" stroke="black" points="210,-155.5 210,-174.5 350,-174.5 350,-155.5 210,-155.5"/>
<text text-anchor="middle" x="280" y="-162.5" font-family="Helvetica,sans-Serif" font-size="10.00">okw.core.EN.SelectWindow</text>
</a>
</g>
</g>
<!-- Node1080&#45;&gt;Node1087 -->
<g id="edge7" class="edge"><title>Node1080&#45;&gt;Node1087</title>
<path fill="none" stroke="midnightblue" d="M173.723,-144.055C189.758,-147.245 206.164,-150.509 221.108,-153.482"/>
<polygon fill="midnightblue" stroke="midnightblue" points="220.707,-156.971 231.198,-155.49 222.073,-150.106 220.707,-156.971"/>
</g>
<!-- Node1094 -->
<g id="node15" class="node"><title>Node1094</title>
<g id="a_node15"><a xlink:href="classokw_1_1core_1_1_e_n.html#a7a19b4149e808ffc7fbaca9d0e6412b3" target="_top" xlink:title="Prüft den Tooltip&#45;Text eines Objektes. ">
<polygon fill="white" stroke="black" points="214.5,-117.5 214.5,-136.5 345.5,-136.5 345.5,-117.5 214.5,-117.5"/>
<text text-anchor="middle" x="280" y="-124.5" font-family="Helvetica,sans-Serif" font-size="10.00">okw.core.EN.VerifyTooltip</text>
</a>
</g>
</g>
<!-- Node1080&#45;&gt;Node1094 -->
<g id="edge15" class="edge"><title>Node1080&#45;&gt;Node1094</title>
<path fill="none" stroke="midnightblue" d="M173.723,-127C183.88,-127 194.187,-127 204.176,-127"/>
<polygon fill="midnightblue" stroke="midnightblue" points="204.452,-130.5 214.452,-127 204.452,-123.5 204.452,-130.5"/>
</g>
<!-- Node1082 -->
<g id="node3" class="node"><title>Node1082</title>
<g id="a_node3"><a xlink:href="classokw_1_1core_1_1_core.html#ab4e0f723d27cb11c944ec4c82c426100" target="_top" xlink:title="Setzt die Sprache auf den gegebenen wert Language. ">
<polygon fill="white" stroke="black" points="389.5,-98.5 389.5,-117.5 528.5,-117.5 528.5,-98.5 389.5,-98.5"/>
<text text-anchor="middle" x="459" y="-105.5" font-family="Helvetica,sans-Serif" font-size="10.00">okw.core.Core.setLanguage</text>
</a>
</g>
</g>
<!-- Node1081&#45;&gt;Node1082 -->
<g id="edge2" class="edge"><title>Node1081&#45;&gt;Node1082</title>
<path fill="none" stroke="midnightblue" d="M340.924,-95.4325C353.19,-96.7492 366.277,-98.154 379.092,-99.5296"/>
<polygon fill="midnightblue" stroke="midnightblue" points="378.974,-103.037 389.29,-100.624 379.721,-96.0769 378.974,-103.037"/>
</g>
<!-- Node1084 -->
<g id="node5" class="node"><title>Node1084</title>
<g id="a_node5"><a xlink:href="classokw_1_1core_1_1_core.html#acfefe92468c9eb9e951846372726c4d8" target="_top" xlink:title="Markiert den Anfang eines neuen Testfalls. ">
<polygon fill="white" stroke="black" points="395,-49.5 395,-68.5 523,-68.5 523,-49.5 395,-49.5"/>
<text text-anchor="middle" x="459" y="-56.5" font-family="Helvetica,sans-Serif" font-size="10.00">okw.core.Core.BeginTest</text>
</a>
</g>
</g>
<!-- Node1081&#45;&gt;Node1084 -->
<g id="edge4" class="edge"><title>Node1081&#45;&gt;Node1084</title>
<path fill="none" stroke="midnightblue" d="M337.491,-79.4253C354.659,-76.5154 373.685,-73.2907 391.451,-70.2795"/>
<polygon fill="midnightblue" stroke="midnightblue" points="392.468,-73.6571 401.742,-68.5352 391.298,-66.7556 392.468,-73.6571"/>
</g>
<!-- Node1083 -->
<g id="node4" class="node"><title>Node1083</title>
<g id="a_node4"><a xlink:href="interfaceokw_1_1core_1_1_i_o_k_w___state.html#a866baa0bde08a47418f54d63bdb56097" target="_top" xlink:title="Interne Methode zum setzen der Sprache für die sprachabhängigen Ausgaben der Dokumentation (Log)...">
<polygon fill="white" stroke="black" points="568.5,-87.5 568.5,-106.5 741.5,-106.5 741.5,-87.5 568.5,-87.5"/>
<text text-anchor="middle" x="655" y="-94.5" font-family="Helvetica,sans-Serif" font-size="10.00">okw.core.IOKW_State.setLanguage</text>
</a>
</g>
</g>
<!-- Node1082&#45;&gt;Node1083 -->
<g id="edge3" class="edge"><title>Node1082&#45;&gt;Node1083</title>
<path fill="none" stroke="midnightblue" d="M528.67,-104.106C538.317,-103.559 548.373,-102.989 558.409,-102.42"/>
<polygon fill="midnightblue" stroke="midnightblue" points="558.637,-105.913 568.422,-101.852 558.24,-98.9241 558.637,-105.913"/>
</g>
<!-- Node1085 -->
<g id="node6" class="node"><title>Node1085</title>
<g id="a_node6"><a xlink:href="classokw_1_1log_1_1_logger___sngltn.html#a60f4ad59db847ae61df928f9920f3deb" target="_top" xlink:title="Ausgabe des Testfalls. ">
<polygon fill="white" stroke="black" points="588,-0 588,-30 722,-30 722,-0 588,-0"/>
<text text-anchor="start" x="596" y="-18" font-family="Helvetica,sans-Serif" font-size="10.00">okw.log.Logger_Sngltn.Log</text>
<text text-anchor="middle" x="655" y="-7" font-family="Helvetica,sans-Serif" font-size="10.00">TestcaseStart</text>
</a>
</g>
</g>
<!-- Node1084&#45;&gt;Node1085 -->
<g id="edge5" class="edge"><title>Node1084&#45;&gt;Node1085</title>
<path fill="none" stroke="midnightblue" d="M502.095,-49.4527C524.329,-44.41 552.3,-38.0659 578.162,-32.2003"/>
<polygon fill="midnightblue" stroke="midnightblue" points="578.976,-35.6046 587.955,-29.9794 577.428,-28.778 578.976,-35.6046"/>
</g>
<!-- Node1086 -->
<g id="node7" class="node"><title>Node1086</title>
<g id="a_node7"><a xlink:href="interfaceokw_1_1core_1_1_i_o_k_w___state.html#ae5480ddb1fc37eade5d899d335bc4b13" target="_top" xlink:title="Markiert den Anfang eines neuen Testfalls. ">
<polygon fill="white" stroke="black" points="574,-49.5 574,-68.5 736,-68.5 736,-49.5 574,-49.5"/>
<text text-anchor="middle" x="655" y="-56.5" font-family="Helvetica,sans-Serif" font-size="10.00">okw.core.IOKW_State.BeginTest</text>
</a>
</g>
</g>
<!-- Node1084&#45;&gt;Node1086 -->
<g id="edge6" class="edge"><title>Node1084&#45;&gt;Node1086</title>
<path fill="none" stroke="midnightblue" d="M523.254,-59C536.119,-59 549.888,-59 563.486,-59"/>
<polygon fill="midnightblue" stroke="midnightblue" points="563.834,-62.5001 573.834,-59 563.834,-55.5001 563.834,-62.5001"/>
</g>
<!-- Node1087&#45;&gt;Node1082 -->
<g id="edge8" class="edge"><title>Node1087&#45;&gt;Node1082</title>
<path fill="none" stroke="midnightblue" d="M317.664,-155.414C328.152,-152.534 339.566,-149.268 350,-146 374.562,-138.307 401.909,-128.674 422.939,-121.032"/>
<polygon fill="midnightblue" stroke="midnightblue" points="424.229,-124.287 432.419,-117.566 421.825,-117.713 424.229,-124.287"/>
</g>
<!-- Node1088 -->
<g id="node9" class="node"><title>Node1088</title>
<g id="a_node9"><a xlink:href="classokw_1_1core_1_1_core.html#a6a68660eb5e34965522896e2a5c48314" target="_top" xlink:title="Setzt den Kontext auf das gegebene Fenster. ">
<polygon fill="white" stroke="black" points="386,-202.5 386,-221.5 532,-221.5 532,-202.5 386,-202.5"/>
<text text-anchor="middle" x="459" y="-209.5" font-family="Helvetica,sans-Serif" font-size="10.00">okw.core.Core.SelectWindow</text>
</a>
</g>
</g>
<!-- Node1087&#45;&gt;Node1088 -->
<g id="edge9" class="edge"><title>Node1087&#45;&gt;Node1088</title>
<path fill="none" stroke="midnightblue" d="M316.819,-174.511C344.318,-181.813 382.486,-191.948 412.205,-199.84"/>
<polygon fill="midnightblue" stroke="midnightblue" points="411.368,-203.239 421.931,-202.422 413.165,-196.473 411.368,-203.239"/>
</g>
<!-- Node1089 -->
<g id="node10" class="node"><title>Node1089</title>
<g id="a_node10"><a xlink:href="classokw_1_1log_1_1_logger___sngltn.html#a70ec25e200e00ecefc544e8fd371d2ef" target="_top" xlink:title="Ausgabe eines Schlüsselwortes. ">
<polygon fill="white" stroke="black" points="588,-175 588,-205 722,-205 722,-175 588,-175"/>
<text text-anchor="start" x="596" y="-193" font-family="Helvetica,sans-Serif" font-size="10.00">okw.log.Logger_Sngltn.Log</text>
<text text-anchor="middle" x="655" y="-182" font-family="Helvetica,sans-Serif" font-size="10.00">KeyWordStart</text>
</a>
</g>
</g>
<!-- Node1088&#45;&gt;Node1089 -->
<g id="edge10" class="edge"><title>Node1088&#45;&gt;Node1089</title>
<path fill="none" stroke="midnightblue" d="M532.238,-203.808C547.031,-202.131 562.647,-200.36 577.58,-198.666"/>
<polygon fill="midnightblue" stroke="midnightblue" points="578.25,-202.113 587.792,-197.508 577.461,-195.157 578.25,-202.113"/>
</g>
<!-- Node1090 -->
<g id="node11" class="node"><title>Node1090</title>
<g id="a_node11"><a xlink:href="classokw_1_1_log_messenger.html#af225d1f037d47b3b085175c09d78bdd2" target="_top" xlink:title="Holt die Log&#45;Meldung für MethodeNmae/Textkey ohne weitere Parameter. ">
<polygon fill="white" stroke="black" points="575,-224.5 575,-243.5 735,-243.5 735,-224.5 575,-224.5"/>
<text text-anchor="middle" x="655" y="-231.5" font-family="Helvetica,sans-Serif" font-size="10.00">okw.LogMessenger.GetMessage</text>
</a>
</g>
</g>
<!-- Node1088&#45;&gt;Node1090 -->
<g id="edge11" class="edge"><title>Node1088&#45;&gt;Node1090</title>
<path fill="none" stroke="midnightblue" d="M532.238,-220.192C542.878,-221.399 553.944,-222.653 564.876,-223.893"/>
<polygon fill="midnightblue" stroke="midnightblue" points="564.53,-227.376 574.861,-225.025 565.319,-220.421 564.53,-227.376"/>
</g>
<!-- Node1093 -->
<g id="node14" class="node"><title>Node1093</title>
<g id="a_node14"><a xlink:href="interfaceokw_1_1core_1_1_i_o_k_w___state.html#ad4fc9610ed5b1176590a45b55e6ac7f0" target="_top" xlink:title="Setzt den Kontext auf das gegebene Fenster. ">
<polygon fill="white" stroke="black" points="582,-263 582,-293 728,-293 728,-263 582,-263"/>
<text text-anchor="start" x="590" y="-281" font-family="Helvetica,sans-Serif" font-size="10.00">okw.core.IOKW_State.Select</text>
<text text-anchor="middle" x="655" y="-270" font-family="Helvetica,sans-Serif" font-size="10.00">Window</text>
</a>
</g>
</g>
<!-- Node1088&#45;&gt;Node1093 -->
<g id="edge14" class="edge"><title>Node1088&#45;&gt;Node1093</title>
<path fill="none" stroke="midnightblue" d="M483.401,-221.504C505.146,-230.187 538.52,-243.137 568,-253 575.074,-255.367 582.517,-257.725 589.943,-259.994"/>
<polygon fill="midnightblue" stroke="midnightblue" points="589.077,-263.388 599.661,-262.918 591.094,-256.685 589.077,-263.388"/>
</g>
<!-- Node1091 -->
<g id="node12" class="node"><title>Node1091</title>
<g id="a_node12"><a xlink:href="classokw_1_1_log_messenger.html#a530cd6ab82ec82a04206a2e976ec06e3" target="_top" xlink:title="Interne Kernfunktion holt die Log&#45;Meldung mit Platzhaltern aus der XML&#45;Datei. ">
<polygon fill="white" stroke="black" points="778.5,-224.5 778.5,-243.5 945.5,-243.5 945.5,-224.5 778.5,-224.5"/>
<text text-anchor="middle" x="862" y="-231.5" font-family="Helvetica,sans-Serif" font-size="10.00">okw.LogMessenger.ReadMessage</text>
</a>
</g>
</g>
<!-- Node1090&#45;&gt;Node1091 -->
<g id="edge12" class="edge"><title>Node1090&#45;&gt;Node1091</title>
<path fill="none" stroke="midnightblue" d="M735.258,-234C746.041,-234 757.186,-234 768.181,-234"/>
<polygon fill="midnightblue" stroke="midnightblue" points="768.222,-237.5 778.222,-234 768.222,-230.5 768.222,-237.5"/>
</g>
<!-- Node1092 -->
<g id="node13" class="node"><title>Node1092</title>
<g id="a_node13"><a xlink:href="classokw_1_1_o_k_w___xml_reader.html#ab920b5335a2e1429c14cc5f8e79f39eb" target="_top" xlink:title="Lies den TextContent eines Tag. ">
<polygon fill="white" stroke="black" points="982,-219 982,-249 1134,-249 1134,-219 982,-219"/>
<text text-anchor="start" x="990" y="-237" font-family="Helvetica,sans-Serif" font-size="10.00">okw.OKW_XmlReader.getText</text>
<text text-anchor="middle" x="1058" y="-226" font-family="Helvetica,sans-Serif" font-size="10.00">ContentSingleValue</text>
</a>
</g>
</g>
<!-- Node1091&#45;&gt;Node1092 -->
<g id="edge13" class="edge"><title>Node1091&#45;&gt;Node1092</title>
<path fill="none" stroke="midnightblue" d="M945.555,-234C954.227,-234 963.057,-234 971.759,-234"/>
<polygon fill="midnightblue" stroke="midnightblue" points="971.899,-237.5 981.899,-234 971.899,-230.5 971.899,-237.5"/>
</g>
<!-- Node1094&#45;&gt;Node1082 -->
<g id="edge16" class="edge"><title>Node1094&#45;&gt;Node1082</title>
<path fill="none" stroke="midnightblue" d="M345.652,-120.06C356.54,-118.891 367.948,-117.667 379.148,-116.464"/>
<polygon fill="midnightblue" stroke="midnightblue" points="379.784,-119.916 389.353,-115.369 379.037,-112.956 379.784,-119.916"/>
</g>
<!-- Node1095 -->
<g id="node16" class="node"><title>Node1095</title>
<g id="a_node16"><a xlink:href="classokw_1_1core_1_1_core.html#aa53c4a10dcd4eb1a6ae2c41eb9f23ee2" target="_top" xlink:title="Prüft den Tooltip&#45;Text eines Objektes. ">
<polygon fill="white" stroke="black" points="390,-147.5 390,-166.5 528,-166.5 528,-147.5 390,-147.5"/>
<text text-anchor="middle" x="459" y="-154.5" font-family="Helvetica,sans-Serif" font-size="10.00">okw.core.Core.VerifyTooltip</text>
</a>
</g>
</g>
<!-- Node1094&#45;&gt;Node1095 -->
<g id="edge17" class="edge"><title>Node1094&#45;&gt;Node1095</title>
<path fill="none" stroke="midnightblue" d="M337.491,-136.575C354.659,-139.485 373.685,-142.709 391.451,-145.721"/>
<polygon fill="midnightblue" stroke="midnightblue" points="391.298,-149.244 401.742,-147.465 392.468,-142.343 391.298,-149.244"/>
</g>
<!-- Node1095&#45;&gt;Node1089 -->
<g id="edge18" class="edge"><title>Node1095&#45;&gt;Node1089</title>
<path fill="none" stroke="midnightblue" d="M515.853,-166.501C535.188,-169.79 557.201,-173.534 577.884,-177.052"/>
<polygon fill="midnightblue" stroke="midnightblue" points="577.467,-180.532 587.913,-178.758 578.641,-173.631 577.467,-180.532"/>
</g>
<!-- Node1095&#45;&gt;Node1090 -->
<g id="edge19" class="edge"><title>Node1095&#45;&gt;Node1090</title>
<path fill="none" stroke="midnightblue" d="M480.042,-166.591C494.586,-173.656 514.668,-183.624 532,-193 548.292,-201.813 550.786,-207.159 568,-214 575.494,-216.978 583.54,-219.577 591.595,-221.827"/>
<polygon fill="midnightblue" stroke="midnightblue" points="590.826,-225.244 601.387,-224.4 592.605,-218.473 590.826,-225.244"/>
</g>
<!-- Node1096 -->
<g id="node17" class="node"><title>Node1096</title>
<g id="a_node17"><a xlink:href="interfaceokw_1_1core_1_1_i_o_k_w___state.html#a1490b97398a9c1f4da2a45ea683135d6" target="_top" xlink:title="Prüft den Tooltip&#45;Text eines Objektes. ">
<polygon fill="white" stroke="black" points="583.5,-126 583.5,-156 726.5,-156 726.5,-126 583.5,-126"/>
<text text-anchor="start" x="591.5" y="-144" font-family="Helvetica,sans-Serif" font-size="10.00">okw.core.IOKW_State.Verify</text>
<text text-anchor="middle" x="655" y="-133" font-family="Helvetica,sans-Serif" font-size="10.00">Tooltip</text>
</a>
</g>
</g>
<!-- Node1095&#45;&gt;Node1096 -->
<g id="edge20" class="edge"><title>Node1095&#45;&gt;Node1096</title>
<path fill="none" stroke="midnightblue" d="M528.124,-151.381C542.672,-150.182 558.174,-148.903 573.147,-147.668"/>
<polygon fill="midnightblue" stroke="midnightblue" points="573.732,-151.132 583.411,-146.822 573.157,-144.156 573.732,-151.132"/>
</g>
</g>
</svg>
        <g id="navigator" transform="translate(0 0)" fill="#404254">
                <rect fill="#f2f5e9" fill-opacity="0.5" stroke="#606060" stroke-width=".5" x="0" y="0" width="60" height="60"/>
                <use id="zoomplus" xlink:href="#zoomPlus" x="17" y="9" onmousedown="handleZoom(evt,'in')"/>
                <use id="zoomminus" xlink:href="#zoomMin" x="42" y="9" onmousedown="handleZoom(evt,'out')"/>
                <use id="reset" xlink:href="#resetDef" x="30" y="36" onmousedown="handleReset()"/>
                <g id="arrowUp" xlink:href="#dirArrow" transform="translate(30 24)" onmousedown="handlePan(0,-1)">
                  <use xlink:href="#rim" fill="#404040">
                        <set attributeName="fill" to="#808080" begin="arrowUp.mouseover" end="arrowUp.mouseout"/>
                  </use>
                  <path fill="none" stroke="white" stroke-width="1.5" d="M0,-3.0v7 M-2.5,-0.5L0,-3.0L2.5,-0.5"/>
                </g>
                <g id="arrowRight" xlink:href="#dirArrow" transform="rotate(90) translate(36 -43)" onmousedown="handlePan(1,0)">
                  <use xlink:href="#rim" fill="#404040">
                        <set attributeName="fill" to="#808080" begin="arrowRight.mouseover" end="arrowRight.mouseout"/>
                  </use>
                  <path fill="none" stroke="white" stroke-width="1.5" d="M0,-3.0v7 M-2.5,-0.5L0,-3.0L2.5,-0.5"/>
                </g>
                <g id="arrowDown" xlink:href="#dirArrow" transform="rotate(180) translate(-30 -48)" onmousedown="handlePan(0,1)">
                  <use xlink:href="#rim" fill="#404040">
                        <set attributeName="fill" to="#808080" begin="arrowDown.mouseover" end="arrowDown.mouseout"/>
                  </use>
                  <path fill="none" stroke="white" stroke-width="1.5" d="M0,-3.0v7 M-2.5,-0.5L0,-3.0L2.5,-0.5"/>
                </g>
                <g id="arrowLeft" xlink:href="#dirArrow" transform="rotate(270) translate(-36 17)" onmousedown="handlePan(-1,0)">
                  <use xlink:href="#rim" fill="#404040">
                        <set attributeName="fill" to="#808080" begin="arrowLeft.mouseover" end="arrowLeft.mouseout"/>
                  </use>
                  <path fill="none" stroke="white" stroke-width="1.5" d="M0,-3.0v7 M-2.5,-0.5L0,-3.0L2.5,-0.5"/>
                </g>
        </g>
        <svg viewBox="0 0 15 15" width="100%" height="30px" preserveAspectRatio="xMaxYMin meet">
         <g id="arrow_out" transform="scale(0.3 0.3)">
          <a xlink:href="classokw_1_1core_1_1_e_n___o_k_w_not_allowed_value_exception___keywords___i_g_n_o_r_e_a4631339fd8d3fa1a2b5975e33bcf3f1d_cgraph_org.svg" target="_base">
           <rect id="button" ry="5" rx="5" y="6" x="6" height="38" width="38"
                fill="#f2f5e9" fill-opacity="0.5" stroke="#606060" stroke-width="1.0"/>
           <path id="arrow"
             d="M 11.500037,31.436501 C 11.940474,20.09759 22.043105,11.32322 32.158766,21.979434 L 37.068811,17.246167 C 37.068811,17.246167 37.088388,32 37.088388,32 L 22.160133,31.978069 C 22.160133,31.978069 26.997745,27.140456 26.997745,27.140456 C 18.528582,18.264221 13.291696,25.230495 11.500037,31.436501 z"
             style="fill:#404040;"/>
          </a>
         </g>
        </svg>
</svg>
