<?xml version="1.0" encoding="UTF-8" standalone="no"?>
<!DOCTYPE svg PUBLIC "-//W3C//DTD SVG 1.1//EN"
 "http://www.w3.org/Graphics/SVG/1.1/DTD/svg11.dtd">
<!-- Generated by graphviz version 2.26.3 (20100126.1600)
 -->
<!-- Title: okw.core.Core.VerifyTablecellValueWCM Pages: 1 -->
<svg width="744pt" height="88pt"
 viewBox="0.00 0.00 744.00 88.00" xmlns="http://www.w3.org/2000/svg" xmlns:xlink="http://www.w3.org/1999/xlink">
<g id="graph1" class="graph" transform="scale(1 1) rotate(0) translate(4 84)">
<title>okw.core.Core.VerifyTablecellValueWCM</title>
<polygon fill="white" stroke="white" points="-4,5 -4,-84 741,-84 741,5 -4,5"/>
<!-- Node2926 -->
<g id="node1" class="node"><title>Node2926</title>
<polygon fill="#bfbfbf" stroke="black" points="0,-23 0,-57 148,-57 148,-23 0,-23"/>
<text text-anchor="start" x="8" y="-44" font-family="Helvetica,sans-Serif" font-size="10.00">okw.core.Core.VerifyTablecell</text>
<text text-anchor="middle" x="74" y="-31" font-family="Helvetica,sans-Serif" font-size="10.00">ValueWCM</text>
</g>
<!-- Node2927 -->
<g id="node3" class="node"><title>Node2927</title>
<a xlink:href="classokw_1_1log_1_1_logger___sngltn.html#a70ec25e200e00ecefc544e8fd371d2ef" target="_top" xlink:title="Ausgabe eines Schlüsselwortes. ">
<polygon fill="white" stroke="black" points="197,-46 197,-80 331,-80 331,-46 197,-46"/>
<text text-anchor="start" x="205" y="-67" font-family="Helvetica,sans-Serif" font-size="10.00">okw.log.Logger_Sngltn.Log</text>
<text text-anchor="middle" x="264" y="-54" font-family="Helvetica,sans-Serif" font-size="10.00">KeyWordStart</text>
</a>
</g>
<!-- Node2926&#45;&gt;Node2927 -->
<g id="edge2" class="edge"><title>Node2926&#45;&gt;Node2927</title>
<path fill="none" stroke="midnightblue" d="M148.003,-48.9583C160.665,-50.491 173.85,-52.0871 186.597,-53.6302"/>
<polygon fill="midnightblue" stroke="midnightblue" points="186.36,-57.1269 196.708,-54.8541 187.201,-50.1777 186.36,-57.1269"/>
</g>
<!-- Node2928 -->
<g id="node5" class="node"><title>Node2928</title>
<a xlink:href="classokw_1_1_log_messenger.html#af225d1f037d47b3b085175c09d78bdd2" target="_top" xlink:title="Holt die Log&#45;Meldung für MethodeNmae/Textkey ohne weitere Parameter. ">
<polygon fill="white" stroke="black" points="184,-6.5 184,-27.5 344,-27.5 344,-6.5 184,-6.5"/>
<text text-anchor="middle" x="264" y="-14.5" font-family="Helvetica,sans-Serif" font-size="10.00">okw.LogMessenger.GetMessage</text>
</a>
</g>
<!-- Node2926&#45;&gt;Node2928 -->
<g id="edge4" class="edge"><title>Node2926&#45;&gt;Node2928</title>
<path fill="none" stroke="midnightblue" d="M148.003,-31.0417C156.466,-30.0173 165.163,-28.9645 173.806,-27.9182"/>
<polygon fill="midnightblue" stroke="midnightblue" points="174.404,-31.3714 183.911,-26.695 173.563,-24.4222 174.404,-31.3714"/>
</g>
<!-- Node2929 -->
<g id="node7" class="node"><title>Node2929</title>
<a xlink:href="classokw_1_1_log_messenger.html#a530cd6ab82ec82a04206a2e976ec06e3" target="_top" xlink:title="Interne Kernfunktion holt die Log&#45;Meldung mit Platzhaltern aus der XML&#45;Datei. ">
<polygon fill="white" stroke="black" points="380.5,-6.5 380.5,-27.5 547.5,-27.5 547.5,-6.5 380.5,-6.5"/>
<text text-anchor="middle" x="464" y="-14.5" font-family="Helvetica,sans-Serif" font-size="10.00">okw.LogMessenger.ReadMessage</text>
</a>
</g>
<!-- Node2928&#45;&gt;Node2929 -->
<g id="edge6" class="edge"><title>Node2928&#45;&gt;Node2929</title>
<path fill="none" stroke="midnightblue" d="M344.195,-17C352.709,-17 361.423,-17 370.075,-17"/>
<polygon fill="midnightblue" stroke="midnightblue" points="370.189,-20.5001 380.189,-17 370.189,-13.5001 370.189,-20.5001"/>
</g>
<!-- Node2930 -->
<g id="node9" class="node"><title>Node2930</title>
<a xlink:href="classokw_1_1_o_k_w___xml_reader.html#ab920b5335a2e1429c14cc5f8e79f39eb" target="_top" xlink:title="Lies den TextContent eines Tag. ">
<polygon fill="white" stroke="black" points="584,-0 584,-34 736,-34 736,-0 584,-0"/>
<text text-anchor="start" x="592" y="-21" font-family="Helvetica,sans-Serif" font-size="10.00">okw.OKW_XmlReader.getText</text>
<text text-anchor="middle" x="660" y="-8" font-family="Helvetica,sans-Serif" font-size="10.00">ContentSingleValue</text>
</a>
</g>
<!-- Node2929&#45;&gt;Node2930 -->
<g id="edge8" class="edge"><title>Node2929&#45;&gt;Node2930</title>
<path fill="none" stroke="midnightblue" d="M547.69,-17C556.29,-17 565.041,-17 573.669,-17"/>
<polygon fill="midnightblue" stroke="midnightblue" points="573.725,-20.5001 583.725,-17 573.725,-13.5001 573.725,-20.5001"/>
</g>
</g>
</svg>
