<?xml version="1.0" encoding="UTF-8" standalone="no"?>
<!DOCTYPE svg PUBLIC "-//W3C//DTD SVG 1.1//EN"
 "http://www.w3.org/Graphics/SVG/1.1/DTD/svg11.dtd">
<!-- Generated by graphviz version 2.26.3 (20100126.1600)
 -->
<!-- Title: okw.core.Core.VerifySelectedValueREGX Pages: 1 -->
<svg width="332pt" height="42pt"
 viewBox="0.00 0.00 332.00 42.00" xmlns="http://www.w3.org/2000/svg" xmlns:xlink="http://www.w3.org/1999/xlink">
<g id="graph1" class="graph" transform="scale(1 1) rotate(0) translate(4 38)">
<title>okw.core.Core.VerifySelectedValueREGX</title>
<polygon fill="white" stroke="white" points="-4,5 -4,-38 329,-38 329,5 -4,5"/>
<!-- Node518 -->
<g id="node1" class="node"><title>Node518</title>
<polygon fill="#bfbfbf" stroke="black" points="0.5,-0 0.5,-34 147.5,-34 147.5,-0 0.5,-0"/>
<text text-anchor="start" x="8.5" y="-21" font-family="Helvetica,sans-Serif" font-size="10.00">okw.core.Core.VerifySelected</text>
<text text-anchor="middle" x="74" y="-8" font-family="Helvetica,sans-Serif" font-size="10.00">ValueREGX</text>
</g>
<!-- Node519 -->
<g id="node3" class="node"><title>Node519</title>
<a xlink:href="classokw_1_1core_1_1_e_n.html#ad190826f8408d93b5f4769ef1306ce31" target="_top" xlink:title="okw.core.EN.VerifySelected\lValueREGX">
<polygon fill="white" stroke="black" points="184,-0 184,-34 324,-34 324,-0 184,-0"/>
<text text-anchor="start" x="192" y="-21" font-family="Helvetica,sans-Serif" font-size="10.00">okw.core.EN.VerifySelected</text>
<text text-anchor="middle" x="254" y="-8" font-family="Helvetica,sans-Serif" font-size="10.00">ValueREGX</text>
</a>
</g>
<!-- Node518&#45;&gt;Node519 -->
<g id="edge2" class="edge"><title>Node518&#45;&gt;Node519</title>
<path fill="none" stroke="midnightblue" d="M157.882,-17C166.576,-17 175.345,-17 183.865,-17"/>
<polygon fill="midnightblue" stroke="midnightblue" points="157.732,-13.5001 147.732,-17 157.732,-20.5001 157.732,-13.5001"/>
</g>
</g>
</svg>
