<?xml version="1.0" encoding="UTF-8" standalone="no"?>
<!DOCTYPE svg PUBLIC "-//W3C//DTD SVG 1.1//EN"
 "http://www.w3.org/Graphics/SVG/1.1/DTD/svg11.dtd">
<!-- Generated by graphviz version 2.26.3 (20100126.1600)
 -->
<!-- Title: okw.core.Core.LogTooltip Pages: 1 -->
<!--zoomable 122 -->
<svg id="main" version="1.1" xmlns="http://www.w3.org/2000/svg" xmlns:xlink="http://www.w3.org/1999/xlink" xml:space="preserve" onload="init(evt)">
<style type="text/css"><![CDATA[
.edge:hover path { stroke: red; }
.edge:hover polygon { stroke: red; fill: red; }
]]></style>
<script type="text/javascript"><![CDATA[
var edges = document.getElementsByTagName('g');
if (edges && edges.length) {
  for (var i=0;i<edges.length;i++) {
    if (edges[i].id.substr(0,4)=='edge') {
      edges[i].setAttribute('class','edge');
    }
  }
}
]]></script>
        <defs>
                <circle id="rim" cx="0" cy="0" r="7"/>
                <circle id="rim2" cx="0" cy="0" r="3.5"/>
                <g id="zoomPlus">
                        <use xlink:href="#rim" fill="#404040">
                                <set attributeName="fill" to="#808080" begin="zoomplus.mouseover" end="zoomplus.mouseout"/>
                        </use>
                        <path d="M-4,0h8M0,-4v8" fill="none" stroke="white" stroke-width="1.5" pointer-events="none"/>
                </g>
                <g id="zoomMin">
                        <use xlink:href="#rim" fill="#404040">
                                <set attributeName="fill" to="#808080" begin="zoomminus.mouseover" end="zoomminus.mouseout"/>
                        </use>
                        <path d="M-4,0h8" fill="none" stroke="white" stroke-width="1.5" pointer-events="none"/>
                </g>
                <g id="dirArrow">
                        <path fill="none" stroke="white" stroke-width="1.5" d="M0,-3.0v7 M-2.5,-0.5L0,-3.0L2.5,-0.5"/>
                </g>
               <g id="resetDef">
                       <use xlink:href="#rim2" fill="#404040">
                               <set attributeName="fill" to="#808080" begin="reset.mouseover" end="reset.mouseout"/>
                       </use>
               </g>
        </defs>

<script type="text/javascript">
var viewWidth = 728;
var viewHeight = 122;
var sectionId = 'dynsection-27';
</script>
<script xlink:href="svgpan.js"/>
<svg id="graph" class="graph">
<g id="viewport">
<title>okw.core.Core.LogTooltip</title>
<polygon fill="white" stroke="white" points="-4,5 -4,-118 725,-118 725,5 -4,5"/>
<!-- Node702 -->
<g id="node1" class="node"><title>Node702</title>
<polygon fill="#bfbfbf" stroke="black" points="0,-40.5 0,-61.5 128,-61.5 128,-40.5 0,-40.5"/>
<text text-anchor="middle" x="64" y="-48.5" font-family="Helvetica,sans-Serif" font-size="10.00">okw.core.Core.LogTooltip</text>
</g>
<!-- Node703 -->
<g id="node3" class="node"><title>Node703</title>
<a xlink:href="classokw_1_1log_1_1_logger___sngltn.html#a70ec25e200e00ecefc544e8fd371d2ef" target="_top" xlink:title="Ausgabe eines Schlüsselwortes. ">
<polygon fill="white" stroke="black" points="179,-80 179,-114 313,-114 313,-80 179,-80"/>
<text text-anchor="start" x="187" y="-101" font-family="Helvetica,sans-Serif" font-size="10.00">okw.log.Logger_Sngltn.Log</text>
<text text-anchor="middle" x="246" y="-88" font-family="Helvetica,sans-Serif" font-size="10.00">KeyWordStart</text>
</a>
</g>
<!-- Node702&#45;&gt;Node703 -->
<g id="edge2" class="edge"><title>Node702&#45;&gt;Node703</title>
<path fill="none" stroke="midnightblue" d="M105.754,-61.5533C124.502,-66.2918 147.24,-72.0388 168.902,-77.5138"/>
<polygon fill="midnightblue" stroke="midnightblue" points="168.208,-80.9484 178.761,-80.0056 169.924,-74.1618 168.208,-80.9484"/>
</g>
<!-- Node704 -->
<g id="node5" class="node"><title>Node704</title>
<a xlink:href="classokw_1_1_log_messenger.html#af225d1f037d47b3b085175c09d78bdd2" target="_top" xlink:title="Holt die Log&#45;Meldung für MethodeNmae/Textkey ohne weitere Parameter. ">
<polygon fill="white" stroke="black" points="166,-40.5 166,-61.5 326,-61.5 326,-40.5 166,-40.5"/>
<text text-anchor="middle" x="246" y="-48.5" font-family="Helvetica,sans-Serif" font-size="10.00">okw.LogMessenger.GetMessage</text>
</a>
</g>
<!-- Node702&#45;&gt;Node704 -->
<g id="edge4" class="edge"><title>Node702&#45;&gt;Node704</title>
<path fill="none" stroke="midnightblue" d="M128.166,-51C137.11,-51 146.434,-51 155.747,-51"/>
<polygon fill="midnightblue" stroke="midnightblue" points="155.83,-54.5001 165.83,-51 155.83,-47.5001 155.83,-54.5001"/>
</g>
<!-- Node707 -->
<g id="node11" class="node"><title>Node707</title>
<a xlink:href="interfaceokw_1_1core_1_1_i_o_k_w___state.html#a337d18daedd0cb42e8743f6f6a7d4a25" target="_top" xlink:title="Dokumentiert die Kurzinfo zu einem Werkzeug des gegebenen Objekts. ">
<polygon fill="white" stroke="black" points="164.5,-0.5 164.5,-21.5 327.5,-21.5 327.5,-0.5 164.5,-0.5"/>
<text text-anchor="middle" x="246" y="-8.5" font-family="Helvetica,sans-Serif" font-size="10.00">okw.core.IOKW_State.LogTooltip</text>
</a>
</g>
<!-- Node702&#45;&gt;Node707 -->
<g id="edge10" class="edge"><title>Node702&#45;&gt;Node707</title>
<path fill="none" stroke="midnightblue" d="M111.818,-40.4905C135.237,-35.3434 163.624,-29.1046 188.246,-23.6933"/>
<polygon fill="midnightblue" stroke="midnightblue" points="189.17,-27.0738 198.185,-21.5087 187.667,-20.2369 189.17,-27.0738"/>
</g>
<!-- Node705 -->
<g id="node7" class="node"><title>Node705</title>
<a xlink:href="classokw_1_1_log_messenger.html#a530cd6ab82ec82a04206a2e976ec06e3" target="_top" xlink:title="Interne Kernfunktion holt die Log&#45;Meldung mit Platzhaltern aus der XML&#45;Datei. ">
<polygon fill="white" stroke="black" points="364.5,-40.5 364.5,-61.5 531.5,-61.5 531.5,-40.5 364.5,-40.5"/>
<text text-anchor="middle" x="448" y="-48.5" font-family="Helvetica,sans-Serif" font-size="10.00">okw.LogMessenger.ReadMessage</text>
</a>
</g>
<!-- Node704&#45;&gt;Node705 -->
<g id="edge6" class="edge"><title>Node704&#45;&gt;Node705</title>
<path fill="none" stroke="midnightblue" d="M326.126,-51C335.348,-51 344.812,-51 354.193,-51"/>
<polygon fill="midnightblue" stroke="midnightblue" points="354.325,-54.5001 364.325,-51 354.325,-47.5001 354.325,-54.5001"/>
</g>
<!-- Node706 -->
<g id="node9" class="node"><title>Node706</title>
<a xlink:href="classokw_1_1_o_k_w___xml_reader.html#ab920b5335a2e1429c14cc5f8e79f39eb" target="_top" xlink:title="Lies den TextContent eines Tag. ">
<polygon fill="white" stroke="black" points="568,-34 568,-68 720,-68 720,-34 568,-34"/>
<text text-anchor="start" x="576" y="-55" font-family="Helvetica,sans-Serif" font-size="10.00">okw.OKW_XmlReader.getText</text>
<text text-anchor="middle" x="644" y="-42" font-family="Helvetica,sans-Serif" font-size="10.00">ContentSingleValue</text>
</a>
</g>
<!-- Node705&#45;&gt;Node706 -->
<g id="edge8" class="edge"><title>Node705&#45;&gt;Node706</title>
<path fill="none" stroke="midnightblue" d="M531.69,-51C540.29,-51 549.041,-51 557.669,-51"/>
<polygon fill="midnightblue" stroke="midnightblue" points="557.725,-54.5001 567.725,-51 557.725,-47.5001 557.725,-54.5001"/>
</g>
</g>
</svg>
        <g id="navigator" transform="translate(0 0)" fill="#404254">
                <rect fill="#f2f5e9" fill-opacity="0.5" stroke="#606060" stroke-width=".5" x="0" y="0" width="60" height="60"/>
                <use id="zoomplus" xlink:href="#zoomPlus" x="17" y="9" onmousedown="handleZoom(evt,'in')"/>
                <use id="zoomminus" xlink:href="#zoomMin" x="42" y="9" onmousedown="handleZoom(evt,'out')"/>
                <use id="reset" xlink:href="#resetDef" x="30" y="36" onmousedown="handleReset()"/>
                <g id="arrowUp" xlink:href="#dirArrow" transform="translate(30 24)" onmousedown="handlePan(0,-1)">
                  <use xlink:href="#rim" fill="#404040">
                        <set attributeName="fill" to="#808080" begin="arrowUp.mouseover" end="arrowUp.mouseout"/>
                  </use>
                  <path fill="none" stroke="white" stroke-width="1.5" d="M0,-3.0v7 M-2.5,-0.5L0,-3.0L2.5,-0.5"/>
                </g>
                <g id="arrowRight" xlink:href="#dirArrow" transform="rotate(90) translate(36 -43)" onmousedown="handlePan(1,0)">
                  <use xlink:href="#rim" fill="#404040">
                        <set attributeName="fill" to="#808080" begin="arrowRight.mouseover" end="arrowRight.mouseout"/>
                  </use>
                  <path fill="none" stroke="white" stroke-width="1.5" d="M0,-3.0v7 M-2.5,-0.5L0,-3.0L2.5,-0.5"/>
                </g>
                <g id="arrowDown" xlink:href="#dirArrow" transform="rotate(180) translate(-30 -48)" onmousedown="handlePan(0,1)">
                  <use xlink:href="#rim" fill="#404040">
                        <set attributeName="fill" to="#808080" begin="arrowDown.mouseover" end="arrowDown.mouseout"/>
                  </use>
                  <path fill="none" stroke="white" stroke-width="1.5" d="M0,-3.0v7 M-2.5,-0.5L0,-3.0L2.5,-0.5"/>
                </g>
                <g id="arrowLeft" xlink:href="#dirArrow" transform="rotate(270) translate(-36 17)" onmousedown="handlePan(-1,0)">
                  <use xlink:href="#rim" fill="#404040">
                        <set attributeName="fill" to="#808080" begin="arrowLeft.mouseover" end="arrowLeft.mouseout"/>
                  </use>
                  <path fill="none" stroke="white" stroke-width="1.5" d="M0,-3.0v7 M-2.5,-0.5L0,-3.0L2.5,-0.5"/>
                </g>
        </g>
        <svg viewBox="0 0 15 15" width="100%" height="30px" preserveAspectRatio="xMaxYMin meet">
         <g id="arrow_out" transform="scale(0.3 0.3)">
          <a xlink:href="classokw_1_1core_1_1_core_a865a6eab7d2b9fe768ac92e0b6272af8_cgraph_org.svg" target="_base">
           <rect id="button" ry="5" rx="5" y="6" x="6" height="38" width="38"
                fill="#f2f5e9" fill-opacity="0.5" stroke="#606060" stroke-width="1.0"/>
           <path id="arrow"
             d="M 11.500037,31.436501 C 11.940474,20.09759 22.043105,11.32322 32.158766,21.979434 L 37.068811,17.246167 C 37.068811,17.246167 37.088388,32 37.088388,32 L 22.160133,31.978069 C 22.160133,31.978069 26.997745,27.140456 26.997745,27.140456 C 18.528582,18.264221 13.291696,25.230495 11.500037,31.436501 z"
             style="fill:#404040;"/>
          </a>
         </g>
        </svg>
</svg>
