<?xml version="1.0" encoding="UTF-8" standalone="no"?>
<!DOCTYPE svg PUBLIC "-//W3C//DTD SVG 1.1//EN"
 "http://www.w3.org/Graphics/SVG/1.1/DTD/svg11.dtd">
<!-- Generated by graphviz version 2.26.3 (20100126.1600)
 -->
<!-- Title: okw.core.EN.VerifyLabelWCM Pages: 1 -->
<!--zoomable 1412 -->
<svg id="main" version="1.1" xmlns="http://www.w3.org/2000/svg" xmlns:xlink="http://www.w3.org/1999/xlink" xml:space="preserve" onload="init(evt)">
<style type="text/css"><![CDATA[
.edge:hover path { stroke: red; }
.edge:hover polygon { stroke: red; fill: red; }
]]></style>
<script type="text/javascript"><![CDATA[
var edges = document.getElementsByTagName('g');
if (edges && edges.length) {
  for (var i=0;i<edges.length;i++) {
    if (edges[i].id.substr(0,4)=='edge') {
      edges[i].setAttribute('class','edge');
    }
  }
}
]]></script>
        <defs>
                <circle id="rim" cx="0" cy="0" r="7"/>
                <circle id="rim2" cx="0" cy="0" r="3.5"/>
                <g id="zoomPlus">
                        <use xlink:href="#rim" fill="#404040">
                                <set attributeName="fill" to="#808080" begin="zoomplus.mouseover" end="zoomplus.mouseout"/>
                        </use>
                        <path d="M-4,0h8M0,-4v8" fill="none" stroke="white" stroke-width="1.5" pointer-events="none"/>
                </g>
                <g id="zoomMin">
                        <use xlink:href="#rim" fill="#404040">
                                <set attributeName="fill" to="#808080" begin="zoomminus.mouseover" end="zoomminus.mouseout"/>
                        </use>
                        <path d="M-4,0h8" fill="none" stroke="white" stroke-width="1.5" pointer-events="none"/>
                </g>
                <g id="dirArrow">
                        <path fill="none" stroke="white" stroke-width="1.5" d="M0,-3.0v7 M-2.5,-0.5L0,-3.0L2.5,-0.5"/>
                </g>
               <g id="resetDef">
                       <use xlink:href="#rim2" fill="#404040">
                               <set attributeName="fill" to="#808080" begin="reset.mouseover" end="reset.mouseout"/>
                       </use>
               </g>
        </defs>

<script type="text/javascript">
var viewWidth = 410;
var viewHeight = 1412;
var sectionId = 'dynsection-79';
</script>
<script xlink:href="svgpan.js"/>
<svg id="graph" class="graph">
<g id="viewport">
<title>okw.core.EN.VerifyLabelWCM</title>
<polygon fill="white" stroke="white" points="-4,5 -4,-1408 407,-1408 407,5 -4,5"/>
<!-- Node2194 -->
<g id="node1" class="node"><title>Node2194</title>
<polygon fill="#bfbfbf" stroke="black" points="0.5,-669.5 0.5,-690.5 151.5,-690.5 151.5,-669.5 0.5,-669.5"/>
<text text-anchor="middle" x="76" y="-677.5" font-family="Helvetica,sans-Serif" font-size="10.00">okw.core.EN.VerifyLabelWCM</text>
</g>
<!-- Node2195 -->
<g id="node3" class="node"><title>Node2195</title>
<a xlink:href="classokw_1_1core_1_1_e_n___keywords___a_n_t_l_r___test.html#a389abd728853cdcf69faae5b1763878e" target="_top" xlink:title="okw.core.EN_Keywords\l_ANTLR_Test.tc_VerifyLabelWCM\l_MemorizedValue">
<polygon fill="white" stroke="black" points="210,-1356.5 210,-1403.5 380,-1403.5 380,-1356.5 210,-1356.5"/>
<text text-anchor="start" x="218" y="-1390.5" font-family="Helvetica,sans-Serif" font-size="10.00">okw.core.EN_Keywords</text>
<text text-anchor="start" x="218" y="-1377.5" font-family="Helvetica,sans-Serif" font-size="10.00">_ANTLR_Test.tc_VerifyLabelWCM</text>
<text text-anchor="middle" x="295" y="-1364.5" font-family="Helvetica,sans-Serif" font-size="10.00">_MemorizedValue</text>
</a>
</g>
<!-- Node2194&#45;&gt;Node2195 -->
<g id="edge2" class="edge"><title>Node2194&#45;&gt;Node2195</title>
<path fill="none" stroke="midnightblue" d="M76.6402,-700.841C80.1795,-802.672 100.502,-1247.04 188,-1347 194.082,-1353.95 201.59,-1359.45 209.787,-1363.81"/>
<polygon fill="midnightblue" stroke="midnightblue" points="80.1313,-700.512 76.3029,-690.633 73.1352,-700.743 80.1313,-700.512"/>
</g>
<!-- Node2196 -->
<g id="node5" class="node"><title>Node2196</title>
<a xlink:href="classokw_1_1core_1_1_e_n___keywords___d_e_l_e_t_e___test.html#a0e62a17933f21dc8c45b22def98ac192" target="_top" xlink:title="okw.core.EN_Keywords\l_DELETE_Test.tcSelectMenu\l_Value_MV_DELETE_EmptyString">
<polygon fill="white" stroke="black" points="210,-1290.5 210,-1337.5 380,-1337.5 380,-1290.5 210,-1290.5"/>
<text text-anchor="start" x="218" y="-1324.5" font-family="Helvetica,sans-Serif" font-size="10.00">okw.core.EN_Keywords</text>
<text text-anchor="start" x="218" y="-1311.5" font-family="Helvetica,sans-Serif" font-size="10.00">_DELETE_Test.tcSelectMenu</text>
<text text-anchor="middle" x="295" y="-1298.5" font-family="Helvetica,sans-Serif" font-size="10.00">_Value_MV_DELETE_EmptyString</text>
</a>
</g>
<!-- Node2194&#45;&gt;Node2196 -->
<g id="edge4" class="edge"><title>Node2194&#45;&gt;Node2196</title>
<path fill="none" stroke="midnightblue" d="M77.0781,-701.175C82.3882,-797.341 108.776,-1192.11 188,-1281 194.144,-1287.89 201.691,-1293.37 209.91,-1297.7"/>
<polygon fill="midnightblue" stroke="midnightblue" points="80.5614,-700.767 76.5328,-690.968 73.5713,-701.14 80.5614,-700.767"/>
</g>
<!-- Node2197 -->
<g id="node7" class="node"><title>Node2197</title>
<a xlink:href="classokw_1_1core_1_1_e_n___keywords___empty___test.html#aafb0e984b138a14f5944cc74e6481bec" target="_top" xlink:title="Prüft &quot;${EMPTY}&quot; für das Schlüsslewort VerifyCaption(strng,string) ">
<polygon fill="white" stroke="black" points="209.5,-1224.5 209.5,-1271.5 380.5,-1271.5 380.5,-1224.5 209.5,-1224.5"/>
<text text-anchor="start" x="217.5" y="-1258.5" font-family="Helvetica,sans-Serif" font-size="10.00">okw.core.EN_Keywords</text>
<text text-anchor="start" x="217.5" y="-1245.5" font-family="Helvetica,sans-Serif" font-size="10.00">_Empty_Test.tc_VerifyLabelWCM_</text>
<text text-anchor="middle" x="295" y="-1232.5" font-family="Helvetica,sans-Serif" font-size="10.00">Empty</text>
</a>
</g>
<!-- Node2194&#45;&gt;Node2197 -->
<g id="edge6" class="edge"><title>Node2194&#45;&gt;Node2197</title>
<path fill="none" stroke="midnightblue" d="M77.5759,-700.793C84.7161,-789.698 116.817,-1136.89 188,-1215 194.023,-1221.61 201.336,-1226.91 209.282,-1231.16"/>
<polygon fill="midnightblue" stroke="midnightblue" points="81.0506,-700.332 76.7797,-690.636 74.072,-700.879 81.0506,-700.332"/>
</g>
<!-- Node2198 -->
<g id="node9" class="node"><title>Node2198</title>
<a xlink:href="classokw_1_1core_1_1_e_n___keywords___test.html#af0480b6de0340fe3c17398da7aaa3839" target="_top" xlink:title="&quot;Normaler&quot; Testfall für das Schlüsselwort EN.VerifyLabelWCM(String,String). ">
<polygon fill="white" stroke="black" points="229,-1172 229,-1206 361,-1206 361,-1172 229,-1172"/>
<text text-anchor="start" x="237" y="-1193" font-family="Helvetica,sans-Serif" font-size="10.00">okw.core.EN_Keywords</text>
<text text-anchor="middle" x="295" y="-1180" font-family="Helvetica,sans-Serif" font-size="10.00">_Test.tc_VerifyLabelWCM</text>
</a>
</g>
<!-- Node2194&#45;&gt;Node2198 -->
<g id="edge8" class="edge"><title>Node2194&#45;&gt;Node2198</title>
<path fill="none" stroke="midnightblue" d="M77.9734,-700.997C86.2853,-784.98 121.142,-1095.44 188,-1163 198.959,-1174.07 213.785,-1180.73 228.905,-1184.66"/>
<polygon fill="midnightblue" stroke="midnightblue" points="81.443,-700.513 76.995,-690.897 74.4756,-701.188 81.443,-700.513"/>
</g>
<!-- Node2199 -->
<g id="node11" class="node"><title>Node2199</title>
<a xlink:href="classokw_1_1core_1_1_e_n___o_k_w_frame_object_child_not_found_exception___test.html#a1f17a9b2071e2c989d6f13a17261d4c1" target="_top" xlink:title="Prüft ob die Ausnahme OKWFrameObjectChildNotFoundException durch die LFC&#45;VerifyCaption ausgelöst wird...">
<polygon fill="white" stroke="black" points="189.5,-1094 189.5,-1154 400.5,-1154 400.5,-1094 189.5,-1094"/>
<text text-anchor="start" x="197.5" y="-1141" font-family="Helvetica,sans-Serif" font-size="10.00">okw.core.EN_OKWFrameObject</text>
<text text-anchor="start" x="197.5" y="-1128" font-family="Helvetica,sans-Serif" font-size="10.00">ChildNotFoundException</text>
<text text-anchor="start" x="197.5" y="-1115" font-family="Helvetica,sans-Serif" font-size="10.00">_Test.TC_VerifyLabelWCM</text>
<text text-anchor="middle" x="295" y="-1102" font-family="Helvetica,sans-Serif" font-size="10.00">_OKWFrameObjectChildNotFoundException</text>
</a>
</g>
<!-- Node2194&#45;&gt;Node2199 -->
<g id="edge10" class="edge"><title>Node2194&#45;&gt;Node2199</title>
<path fill="none" stroke="midnightblue" d="M79.1343,-700.445C90.8404,-774.387 134.103,-1026.63 188,-1085 190.951,-1088.2 194.185,-1091.13 197.631,-1093.83"/>
<polygon fill="midnightblue" stroke="midnightblue" points="82.5851,-699.857 77.5838,-690.517 75.6689,-700.937 82.5851,-699.857"/>
</g>
<!-- Node2200 -->
<g id="node13" class="node"><title>Node2200</title>
<a xlink:href="classokw_1_1core_1_1_e_n___o_k_w_frame_object_method_not_implemented___test.html#a62484fa5ac110f76c7871dff8cdc2395" target="_top" xlink:title="Prüft ob die Ausnahme OKWFrameObjectMethodNotImplemented von VerifyCaptionWCM( FN, ExpVal ) ausgelöst wird. ">
<polygon fill="white" stroke="black" points="188,-1016 188,-1076 402,-1076 402,-1016 188,-1016"/>
<text text-anchor="start" x="196" y="-1063" font-family="Helvetica,sans-Serif" font-size="10.00">okw.core.EN_OKWFrameObject</text>
<text text-anchor="start" x="196" y="-1050" font-family="Helvetica,sans-Serif" font-size="10.00">MethodNotImplemented_Test.TC</text>
<text text-anchor="start" x="196" y="-1037" font-family="Helvetica,sans-Serif" font-size="10.00">_VerifyLabelWCM_OKWFrameObjectMethod</text>
<text text-anchor="middle" x="295" y="-1024" font-family="Helvetica,sans-Serif" font-size="10.00">NotImplemented</text>
</a>
</g>
<!-- Node2194&#45;&gt;Node2200 -->
<g id="edge12" class="edge"><title>Node2194&#45;&gt;Node2200</title>
<path fill="none" stroke="midnightblue" d="M77.1374,-701.032C81.3476,-758.185 100.737,-918.015 188,-1007 191.184,-1010.25 194.66,-1013.23 198.349,-1015.96"/>
<polygon fill="midnightblue" stroke="midnightblue" points="80.6095,-700.49 76.4661,-690.739 73.6244,-700.945 80.6095,-700.49"/>
</g>
<!-- Node2201 -->
<g id="node15" class="node"><title>Node2201</title>
<a xlink:href="classokw_1_1core_1_1_e_n___o_k_w_not_allowed_value_exception___keywords___i_g_n_o_r_e.html#ab5b67589389cb02e0547185fbf862097" target="_top" xlink:title="Prüft ob &quot;${IGNORE} &quot; die Ausnahme okw.exceptions.OKWNotAllowedValueException auslöst. ">
<polygon fill="white" stroke="black" points="199,-950.5 199,-997.5 391,-997.5 391,-950.5 199,-950.5"/>
<text text-anchor="start" x="207" y="-984.5" font-family="Helvetica,sans-Serif" font-size="10.00">okw.core.EN_OKWNotAllowed</text>
<text text-anchor="start" x="207" y="-971.5" font-family="Helvetica,sans-Serif" font-size="10.00">ValueException_Keywords</text>
<text text-anchor="middle" x="295" y="-958.5" font-family="Helvetica,sans-Serif" font-size="10.00">_IGNORE.tcVerifyLabelWCMIGNORE1</text>
</a>
</g>
<!-- Node2194&#45;&gt;Node2201 -->
<g id="edge14" class="edge"><title>Node2194&#45;&gt;Node2201</title>
<path fill="none" stroke="midnightblue" d="M78.8766,-700.533C86.8303,-749.53 113.671,-874.173 188,-941 191.903,-944.509 196.173,-947.645 200.689,-950.448"/>
<polygon fill="midnightblue" stroke="midnightblue" points="82.3176,-699.881 77.3482,-690.524 75.3978,-700.937 82.3176,-699.881"/>
</g>
<!-- Node2202 -->
<g id="node17" class="node"><title>Node2202</title>
<a xlink:href="classokw_1_1core_1_1_e_n___o_k_w_not_allowed_value_exception___keywords___i_g_n_o_r_e.html#a59950fbfd35a688eb5f7b348023b627c" target="_top" xlink:title="Prüft ob &quot;&quot;${IGNORE}${TCN}&quot; die Ausnahme okw.exceptions.OKWNotAllowedValueException auslöst...">
<polygon fill="white" stroke="black" points="199,-884.5 199,-931.5 391,-931.5 391,-884.5 199,-884.5"/>
<text text-anchor="start" x="207" y="-918.5" font-family="Helvetica,sans-Serif" font-size="10.00">okw.core.EN_OKWNotAllowed</text>
<text text-anchor="start" x="207" y="-905.5" font-family="Helvetica,sans-Serif" font-size="10.00">ValueException_Keywords</text>
<text text-anchor="middle" x="295" y="-892.5" font-family="Helvetica,sans-Serif" font-size="10.00">_IGNORE.tcVerifyLabelWCMIGNORE2</text>
</a>
</g>
<!-- Node2194&#45;&gt;Node2202 -->
<g id="edge16" class="edge"><title>Node2194&#45;&gt;Node2202</title>
<path fill="none" stroke="midnightblue" d="M82.0764,-700.332C94.9554,-739.934 128.777,-827.665 188,-875 192.404,-878.52 197.183,-881.666 202.196,-884.477"/>
<polygon fill="midnightblue" stroke="midnightblue" points="85.3938,-699.214 79.0587,-690.722 78.7153,-701.311 85.3938,-699.214"/>
</g>
<!-- Node2203 -->
<g id="node19" class="node"><title>Node2203</title>
<a xlink:href="classokw_1_1core_1_1_e_n___verify_label___o_k_w_verifying_fails_exception___test.html#a0974c488be0f21ab10eaf71a9ebef816" target="_top" xlink:title="Prüft, ob die Ausnahme OKWVerifyingFailsException bei einem Soll/Ist&#45;Vergleich ausgelöst wird...">
<polygon fill="white" stroke="black" points="192,-806 192,-866 398,-866 398,-806 192,-806"/>
<text text-anchor="start" x="200" y="-853" font-family="Helvetica,sans-Serif" font-size="10.00">okw.core.EN_VerifyLabel</text>
<text text-anchor="start" x="200" y="-840" font-family="Helvetica,sans-Serif" font-size="10.00">_OKWVerifyingFailsException</text>
<text text-anchor="start" x="200" y="-827" font-family="Helvetica,sans-Serif" font-size="10.00">_Test.TC_VerifyValueWCM_OKWVerifying</text>
<text text-anchor="middle" x="295" y="-814" font-family="Helvetica,sans-Serif" font-size="10.00">FailsException_M01</text>
</a>
</g>
<!-- Node2194&#45;&gt;Node2203 -->
<g id="edge18" class="edge"><title>Node2194&#45;&gt;Node2203</title>
<path fill="none" stroke="midnightblue" d="M89.47,-698.725C108.688,-724.216 146.297,-769.774 188,-797 192.884,-800.189 198.063,-803.16 203.405,-805.922"/>
<polygon fill="midnightblue" stroke="midnightblue" points="92.2252,-696.565 83.4629,-690.609 86.5986,-700.729 92.2252,-696.565"/>
</g>
<!-- Node2204 -->
<g id="node21" class="node"><title>Node2204</title>
<a xlink:href="classokw_1_1core_1_1_e_n___verify_label___o_k_w_verifying_fails_exception___test.html#a93d224972382734b284836609439a2ae" target="_top" xlink:title="Prüft, ob die Ausnahme OKWVerifyingFailsException bei einem Soll/Ist&#45;Vergleich ausgelöst wird...">
<polygon fill="white" stroke="black" points="192,-728 192,-788 398,-788 398,-728 192,-728"/>
<text text-anchor="start" x="200" y="-775" font-family="Helvetica,sans-Serif" font-size="10.00">okw.core.EN_VerifyLabel</text>
<text text-anchor="start" x="200" y="-762" font-family="Helvetica,sans-Serif" font-size="10.00">_OKWVerifyingFailsException</text>
<text text-anchor="start" x="200" y="-749" font-family="Helvetica,sans-Serif" font-size="10.00">_Test.TC_VerifyValueWCM_OKWVerifying</text>
<text text-anchor="middle" x="295" y="-736" font-family="Helvetica,sans-Serif" font-size="10.00">FailsException_SV01</text>
</a>
</g>
<!-- Node2194&#45;&gt;Node2204 -->
<g id="edge20" class="edge"><title>Node2194&#45;&gt;Node2204</title>
<path fill="none" stroke="midnightblue" d="M115.178,-693.954C141.618,-703.371 177.538,-716.164 210.324,-727.841"/>
<polygon fill="midnightblue" stroke="midnightblue" points="116.13,-690.578 105.535,-690.519 113.781,-697.172 116.13,-690.578"/>
</g>
<!-- Node2205 -->
<g id="node23" class="node"><title>Node2205</title>
<a xlink:href="classokw_1_1core_1_1_e_n___verify_label___o_k_w_verifying_fails_exception___test.html#abffc99b8a2842285f30d2db702c86524" target="_top" xlink:title="Prüft, ob die Ausnahme OKWVerifyingFailsException bei einem Soll/Ist&#45;Vergleich ausgelöst wird...">
<polygon fill="white" stroke="black" points="192,-650 192,-710 398,-710 398,-650 192,-650"/>
<text text-anchor="start" x="200" y="-697" font-family="Helvetica,sans-Serif" font-size="10.00">okw.core.EN_VerifyLabel</text>
<text text-anchor="start" x="200" y="-684" font-family="Helvetica,sans-Serif" font-size="10.00">_OKWVerifyingFailsException</text>
<text text-anchor="start" x="200" y="-671" font-family="Helvetica,sans-Serif" font-size="10.00">_Test.TC_VerifyValueWCM_OKWVerifying</text>
<text text-anchor="middle" x="295" y="-658" font-family="Helvetica,sans-Serif" font-size="10.00">FailsException_SV02</text>
</a>
</g>
<!-- Node2194&#45;&gt;Node2205 -->
<g id="edge22" class="edge"><title>Node2194&#45;&gt;Node2205</title>
<path fill="none" stroke="midnightblue" d="M161.84,-680C171.703,-680 181.835,-680 191.895,-680"/>
<polygon fill="midnightblue" stroke="midnightblue" points="161.674,-676.5 151.674,-680 161.674,-683.5 161.674,-676.5"/>
</g>
<!-- Node2206 -->
<g id="node25" class="node"><title>Node2206</title>
<a xlink:href="classokw_1_1core_1_1_e_n___verify_label___o_k_w_verifying_fails_exception___test.html#aa20093c6115ddea928b60e9652e8deb8" target="_top" xlink:title="Prüft, ob die Ausnahme OKWVerifyingFailsException bei einem Soll/Ist&#45;Vergleich ausgelöst wird...">
<polygon fill="white" stroke="black" points="192,-572 192,-632 398,-632 398,-572 192,-572"/>
<text text-anchor="start" x="200" y="-619" font-family="Helvetica,sans-Serif" font-size="10.00">okw.core.EN_VerifyLabel</text>
<text text-anchor="start" x="200" y="-606" font-family="Helvetica,sans-Serif" font-size="10.00">_OKWVerifyingFailsException</text>
<text text-anchor="start" x="200" y="-593" font-family="Helvetica,sans-Serif" font-size="10.00">_Test.TC_VerifyValueWCM_OKWVerifying</text>
<text text-anchor="middle" x="295" y="-580" font-family="Helvetica,sans-Serif" font-size="10.00">FailsException_SV03</text>
</a>
</g>
<!-- Node2194&#45;&gt;Node2206 -->
<g id="edge24" class="edge"><title>Node2194&#45;&gt;Node2206</title>
<path fill="none" stroke="midnightblue" d="M115.178,-666.046C141.618,-656.629 177.538,-643.836 210.324,-632.159"/>
<polygon fill="midnightblue" stroke="midnightblue" points="113.781,-662.828 105.535,-669.481 116.13,-669.422 113.781,-662.828"/>
</g>
<!-- Node2207 -->
<g id="node27" class="node"><title>Node2207</title>
<a xlink:href="classokw_1_1core_1_1_e_n___verify_label___o_k_w_verifying_fails_exception___test.html#a23831e87358070dc9710df36bc6ee043" target="_top" xlink:title="Prüft, ob die Ausnahme OKWVerifyingFailsException bei einem Soll/Ist&#45;Vergleich ausgelöst wird...">
<polygon fill="white" stroke="black" points="192,-494 192,-554 398,-554 398,-494 192,-494"/>
<text text-anchor="start" x="200" y="-541" font-family="Helvetica,sans-Serif" font-size="10.00">okw.core.EN_VerifyLabel</text>
<text text-anchor="start" x="200" y="-528" font-family="Helvetica,sans-Serif" font-size="10.00">_OKWVerifyingFailsException</text>
<text text-anchor="start" x="200" y="-515" font-family="Helvetica,sans-Serif" font-size="10.00">_Test.TC_VerifyValueWCM_OKWVerifying</text>
<text text-anchor="middle" x="295" y="-502" font-family="Helvetica,sans-Serif" font-size="10.00">FailsException_MV01</text>
</a>
</g>
<!-- Node2194&#45;&gt;Node2207 -->
<g id="edge26" class="edge"><title>Node2194&#45;&gt;Node2207</title>
<path fill="none" stroke="midnightblue" d="M89.47,-661.275C108.688,-635.784 146.297,-590.226 188,-563 192.884,-559.811 198.063,-556.84 203.405,-554.078"/>
<polygon fill="midnightblue" stroke="midnightblue" points="86.5986,-659.271 83.4629,-669.391 92.2252,-663.435 86.5986,-659.271"/>
</g>
<!-- Node2208 -->
<g id="node29" class="node"><title>Node2208</title>
<a xlink:href="classokw_1_1core_1_1_e_n___verify_label___o_k_w_verifying_fails_exception___test.html#adb9ccc320f2ea03f6ad33bb8fa353700" target="_top" xlink:title="Prüft, ob die Ausnahme OKWVerifyingFailsException bei einem Soll/Ist&#45;Vergleich ausgelöst wird...">
<polygon fill="white" stroke="black" points="192,-416 192,-476 398,-476 398,-416 192,-416"/>
<text text-anchor="start" x="200" y="-463" font-family="Helvetica,sans-Serif" font-size="10.00">okw.core.EN_VerifyLabel</text>
<text text-anchor="start" x="200" y="-450" font-family="Helvetica,sans-Serif" font-size="10.00">_OKWVerifyingFailsException</text>
<text text-anchor="start" x="200" y="-437" font-family="Helvetica,sans-Serif" font-size="10.00">_Test.TC_VerifyValueWCM_OKWVerifying</text>
<text text-anchor="middle" x="295" y="-424" font-family="Helvetica,sans-Serif" font-size="10.00">FailsException_MV02</text>
</a>
</g>
<!-- Node2194&#45;&gt;Node2208 -->
<g id="edge28" class="edge"><title>Node2194&#45;&gt;Node2208</title>
<path fill="none" stroke="midnightblue" d="M82.3732,-659.675C95.6869,-620.408 130.111,-533.708 188,-485 191.858,-481.754 196.009,-478.768 200.356,-476.021"/>
<polygon fill="midnightblue" stroke="midnightblue" points="78.9674,-658.828 79.1759,-669.421 85.6186,-661.01 78.9674,-658.828"/>
</g>
<!-- Node2209 -->
<g id="node31" class="node"><title>Node2209</title>
<a xlink:href="classokw_1_1core_1_1_e_n___verify_label___o_k_w_verifying_fails_exception___test.html#a98b72cd0182d0891f7a0cb1e2699b8b4" target="_top" xlink:title="Prüft, ob die Ausnahme OKWVerifyingFailsException bei einem Soll/Ist&#45;Vergleich ausgelöst wird...">
<polygon fill="white" stroke="black" points="192,-338 192,-398 398,-398 398,-338 192,-338"/>
<text text-anchor="start" x="200" y="-385" font-family="Helvetica,sans-Serif" font-size="10.00">okw.core.EN_VerifyLabel</text>
<text text-anchor="start" x="200" y="-372" font-family="Helvetica,sans-Serif" font-size="10.00">_OKWVerifyingFailsException</text>
<text text-anchor="start" x="200" y="-359" font-family="Helvetica,sans-Serif" font-size="10.00">_Test.TC_VerifyValueWCM_OKWVerifying</text>
<text text-anchor="middle" x="295" y="-346" font-family="Helvetica,sans-Serif" font-size="10.00">FailsException_MV03</text>
</a>
</g>
<!-- Node2194&#45;&gt;Node2209 -->
<g id="edge30" class="edge"><title>Node2194&#45;&gt;Node2209</title>
<path fill="none" stroke="midnightblue" d="M78.7035,-659.454C86.3696,-609.267 112.793,-479.272 188,-407 191.279,-403.849 194.832,-400.949 198.585,-398.282"/>
<polygon fill="midnightblue" stroke="midnightblue" points="75.2306,-659.016 77.273,-669.412 82.1594,-660.011 75.2306,-659.016"/>
</g>
<!-- Node2210 -->
<g id="node33" class="node"><title>Node2210</title>
<a xlink:href="classokw_1_1core_1_1_e_n___verify_label___o_k_w_verifying_fails_exception___test.html#af415935e67ca3bd4a5bc04990bd5477c" target="_top" xlink:title="Prüft, ob die Ausnahme OKWVerifyingFailsException bei einem Soll/Ist&#45;Vergleich ausgelöst wird...">
<polygon fill="white" stroke="black" points="192,-260 192,-320 398,-320 398,-260 192,-260"/>
<text text-anchor="start" x="200" y="-307" font-family="Helvetica,sans-Serif" font-size="10.00">okw.core.EN_VerifyLabel</text>
<text text-anchor="start" x="200" y="-294" font-family="Helvetica,sans-Serif" font-size="10.00">_OKWVerifyingFailsException</text>
<text text-anchor="start" x="200" y="-281" font-family="Helvetica,sans-Serif" font-size="10.00">_Test.TC_VerifyValueWCM_OKWVerifying</text>
<text text-anchor="middle" x="295" y="-268" font-family="Helvetica,sans-Serif" font-size="10.00">FailsException_MV04</text>
</a>
</g>
<!-- Node2194&#45;&gt;Node2210 -->
<g id="edge32" class="edge"><title>Node2194&#45;&gt;Node2210</title>
<path fill="none" stroke="midnightblue" d="M80.119,-659.272C93.9404,-591.578 140.475,-378.498 188,-329 191.013,-325.862 194.298,-322.976 197.786,-320.321"/>
<polygon fill="midnightblue" stroke="midnightblue" points="76.6684,-658.678 78.1203,-669.173 83.53,-660.063 76.6684,-658.678"/>
</g>
<!-- Node2211 -->
<g id="node35" class="node"><title>Node2211</title>
<a xlink:href="classokw_1_1_se_input_checkbox_1_1_se_input_checkbox___test.html#a702ffb63f0af2c995bd71ca884b0f408" target="_top" xlink:title="Prüft die SetFocusFunktion bei Textfelder mit dem Attribute &quot;ReadOnly&quot;. ">
<polygon fill="white" stroke="black" points="219,-208 219,-242 371,-242 371,-208 219,-208"/>
<text text-anchor="start" x="227" y="-229" font-family="Helvetica,sans-Serif" font-size="10.00">okw.SeInputCheckbox.SeInput</text>
<text text-anchor="middle" x="295" y="-216" font-family="Helvetica,sans-Serif" font-size="10.00">Checkbox_Test.tcSetFocus</text>
</a>
</g>
<!-- Node2194&#45;&gt;Node2211 -->
<g id="edge34" class="edge"><title>Node2194&#45;&gt;Node2211</title>
<path fill="none" stroke="midnightblue" d="M78.6116,-659.135C88.7536,-581.395 127.966,-310.022 188,-251 196.588,-242.557 207.43,-236.694 218.895,-232.654"/>
<polygon fill="midnightblue" stroke="midnightblue" points="75.1276,-658.788 77.3271,-669.152 82.0707,-659.678 75.1276,-658.788"/>
</g>
<!-- Node2212 -->
<g id="node37" class="node"><title>Node2212</title>
<a xlink:href="classokw_1_1_se_input_field_1_1_se_input_field___test.html#ab2da25dabf85279d19799e9fbcaea718" target="_top" xlink:title="Test des Schlüsselwortes &quot;VerifyValue( FN, ExpVal ) für SeInputText. ">
<polygon fill="white" stroke="black" points="228.5,-156 228.5,-190 361.5,-190 361.5,-156 228.5,-156"/>
<text text-anchor="start" x="236.5" y="-177" font-family="Helvetica,sans-Serif" font-size="10.00">okw.SeInputField.SeInput</text>
<text text-anchor="middle" x="295" y="-164" font-family="Helvetica,sans-Serif" font-size="10.00">Field_Test.tcVerifyCaption</text>
</a>
</g>
<!-- Node2194&#45;&gt;Node2212 -->
<g id="edge36" class="edge"><title>Node2194&#45;&gt;Node2212</title>
<path fill="none" stroke="midnightblue" d="M77.9866,-659.089C86.349,-575.45 121.374,-266.269 188,-199 198.829,-188.066 213.428,-181.438 228.355,-177.488"/>
<polygon fill="midnightblue" stroke="midnightblue" points="74.4929,-658.854 77.0019,-669.147 81.4596,-659.536 74.4929,-658.854"/>
</g>
<!-- Node2213 -->
<g id="node39" class="node"><title>Node2213</title>
<a xlink:href="classokw_1_1_se_input_radio_1_1_se_input_radio___e_n___test.html#a6a86224f9d84da7d414a93ac0ab0925e" target="_top" xlink:title="Test des Schlüsselwortes VerifyLabel für den GUI&#45;Adapter SeInputRadio. ">
<polygon fill="white" stroke="black" points="206.5,-104 206.5,-138 383.5,-138 383.5,-104 206.5,-104"/>
<text text-anchor="start" x="214.5" y="-125" font-family="Helvetica,sans-Serif" font-size="10.00">okw.SeInputRadio.SeInput</text>
<text text-anchor="middle" x="295" y="-112" font-family="Helvetica,sans-Serif" font-size="10.00">Radio_EN_Test.tc_VerifyLabelWCM</text>
</a>
</g>
<!-- Node2194&#45;&gt;Node2213 -->
<g id="edge38" class="edge"><title>Node2194&#45;&gt;Node2213</title>
<path fill="none" stroke="midnightblue" d="M77.4693,-659.173C84.1688,-570.139 114.711,-222.616 188,-147 193.322,-141.509 199.593,-137.099 206.387,-133.567"/>
<polygon fill="midnightblue" stroke="midnightblue" points="73.9641,-659.117 76.7241,-669.346 80.9454,-659.628 73.9641,-659.117"/>
</g>
<!-- Node2214 -->
<g id="node41" class="node"><title>Node2214</title>
<a xlink:href="classokw_1_1_se_link_1_1_se_link___e_n___test.html#ad88f4d017f1a55ad12f9ffc5ed0ab336" target="_top" xlink:title="Prüft die Methode SeLink.MemorizeToolTip. ">
<polygon fill="white" stroke="black" points="218,-52 218,-86 372,-86 372,-52 218,-52"/>
<text text-anchor="start" x="226" y="-73" font-family="Helvetica,sans-Serif" font-size="10.00">okw.SeLink.SeLink_EN</text>
<text text-anchor="middle" x="295" y="-60" font-family="Helvetica,sans-Serif" font-size="10.00">_Test.TC_MemorizeToolTip_en</text>
</a>
</g>
<!-- Node2194&#45;&gt;Node2214 -->
<g id="edge40" class="edge"><title>Node2194&#45;&gt;Node2214</title>
<path fill="none" stroke="midnightblue" d="M77.043,-659.275C82.199,-565.165 108.01,-179.026 188,-95 196.172,-86.4154 206.662,-80.4639 217.868,-76.3737"/>
<polygon fill="midnightblue" stroke="midnightblue" points="73.5478,-659.093 76.5144,-669.264 80.538,-659.463 73.5478,-659.093"/>
</g>
<!-- Node2215 -->
<g id="node43" class="node"><title>Node2215</title>
<a xlink:href="classokw_1_1_se_radio_list_1_1_se_radio_list___test.html#ab83d307b3b1165aa9d82a7b0c667f6b8" target="_top" xlink:title="okw.SeRadioList.SeRadioList\l_Test.tcLogIsActive">
<polygon fill="white" stroke="black" points="221.5,-0 221.5,-34 368.5,-34 368.5,-0 221.5,-0"/>
<text text-anchor="start" x="229.5" y="-21" font-family="Helvetica,sans-Serif" font-size="10.00">okw.SeRadioList.SeRadioList</text>
<text text-anchor="middle" x="295" y="-8" font-family="Helvetica,sans-Serif" font-size="10.00">_Test.tcLogIsActive</text>
</a>
</g>
<!-- Node2194&#45;&gt;Node2215 -->
<g id="edge42" class="edge"><title>Node2194&#45;&gt;Node2215</title>
<path fill="none" stroke="midnightblue" d="M76.6995,-659.053C80.4505,-559.522 101.377,-135.383 188,-43 196.957,-33.4474 208.782,-27.1454 221.298,-23.0383"/>
<polygon fill="midnightblue" stroke="midnightblue" points="73.1925,-659.189 76.3317,-669.308 80.188,-659.44 73.1925,-659.189"/>
</g>
</g>
</svg>
        <g id="navigator" transform="translate(0 0)" fill="#404254">
                <rect fill="#f2f5e9" fill-opacity="0.5" stroke="#606060" stroke-width=".5" x="0" y="0" width="60" height="60"/>
                <use id="zoomplus" xlink:href="#zoomPlus" x="17" y="9" onmousedown="handleZoom(evt,'in')"/>
                <use id="zoomminus" xlink:href="#zoomMin" x="42" y="9" onmousedown="handleZoom(evt,'out')"/>
                <use id="reset" xlink:href="#resetDef" x="30" y="36" onmousedown="handleReset()"/>
                <g id="arrowUp" xlink:href="#dirArrow" transform="translate(30 24)" onmousedown="handlePan(0,-1)">
                  <use xlink:href="#rim" fill="#404040">
                        <set attributeName="fill" to="#808080" begin="arrowUp.mouseover" end="arrowUp.mouseout"/>
                  </use>
                  <path fill="none" stroke="white" stroke-width="1.5" d="M0,-3.0v7 M-2.5,-0.5L0,-3.0L2.5,-0.5"/>
                </g>
                <g id="arrowRight" xlink:href="#dirArrow" transform="rotate(90) translate(36 -43)" onmousedown="handlePan(1,0)">
                  <use xlink:href="#rim" fill="#404040">
                        <set attributeName="fill" to="#808080" begin="arrowRight.mouseover" end="arrowRight.mouseout"/>
                  </use>
                  <path fill="none" stroke="white" stroke-width="1.5" d="M0,-3.0v7 M-2.5,-0.5L0,-3.0L2.5,-0.5"/>
                </g>
                <g id="arrowDown" xlink:href="#dirArrow" transform="rotate(180) translate(-30 -48)" onmousedown="handlePan(0,1)">
                  <use xlink:href="#rim" fill="#404040">
                        <set attributeName="fill" to="#808080" begin="arrowDown.mouseover" end="arrowDown.mouseout"/>
                  </use>
                  <path fill="none" stroke="white" stroke-width="1.5" d="M0,-3.0v7 M-2.5,-0.5L0,-3.0L2.5,-0.5"/>
                </g>
                <g id="arrowLeft" xlink:href="#dirArrow" transform="rotate(270) translate(-36 17)" onmousedown="handlePan(-1,0)">
                  <use xlink:href="#rim" fill="#404040">
                        <set attributeName="fill" to="#808080" begin="arrowLeft.mouseover" end="arrowLeft.mouseout"/>
                  </use>
                  <path fill="none" stroke="white" stroke-width="1.5" d="M0,-3.0v7 M-2.5,-0.5L0,-3.0L2.5,-0.5"/>
                </g>
        </g>
        <svg viewBox="0 0 15 15" width="100%" height="30px" preserveAspectRatio="xMaxYMin meet">
         <g id="arrow_out" transform="scale(0.3 0.3)">
          <a xlink:href="classokw_1_1core_1_1_e_n_a70ba07cc0050e6bd89dc133c36972d2a_icgraph_org.svg" target="_base">
           <rect id="button" ry="5" rx="5" y="6" x="6" height="38" width="38"
                fill="#f2f5e9" fill-opacity="0.5" stroke="#606060" stroke-width="1.0"/>
           <path id="arrow"
             d="M 11.500037,31.436501 C 11.940474,20.09759 22.043105,11.32322 32.158766,21.979434 L 37.068811,17.246167 C 37.068811,17.246167 37.088388,32 37.088388,32 L 22.160133,31.978069 C 22.160133,31.978069 26.997745,27.140456 26.997745,27.140456 C 18.528582,18.264221 13.291696,25.230495 11.500037,31.436501 z"
             style="fill:#404040;"/>
          </a>
         </g>
        </svg>
</svg>
