<?xml version="1.0" encoding="UTF-8" standalone="no"?>
<!DOCTYPE svg PUBLIC "-//W3C//DTD SVG 1.1//EN"
 "http://www.w3.org/Graphics/SVG/1.1/DTD/svg11.dtd">
<!-- Generated by graphviz version 2.26.3 (20100126.1600)
 -->
<!-- Title: okw.core.Core.VerifyTablecellValueWCM Pages: 1 -->
<svg width="334pt" height="42pt"
 viewBox="0.00 0.00 334.00 42.00" xmlns="http://www.w3.org/2000/svg" xmlns:xlink="http://www.w3.org/1999/xlink">
<g id="graph1" class="graph" transform="scale(1 1) rotate(0) translate(4 38)">
<title>okw.core.Core.VerifyTablecellValueWCM</title>
<polygon fill="white" stroke="white" points="-4,5 -4,-38 331,-38 331,5 -4,5"/>
<!-- Node547 -->
<g id="node1" class="node"><title>Node547</title>
<polygon fill="#bfbfbf" stroke="black" points="0,-0 0,-34 148,-34 148,-0 0,-0"/>
<text text-anchor="start" x="8" y="-21" font-family="Helvetica,sans-Serif" font-size="10.00">okw.core.Core.VerifyTablecell</text>
<text text-anchor="middle" x="74" y="-8" font-family="Helvetica,sans-Serif" font-size="10.00">ValueWCM</text>
</g>
<!-- Node548 -->
<g id="node3" class="node"><title>Node548</title>
<a xlink:href="classokw_1_1core_1_1_e_n.html#aae92a9bb1e550b16be588fbd38c39038" target="_top" xlink:title="okw.core.EN.VerifyTablecell\lValueWCM">
<polygon fill="white" stroke="black" points="184.5,-0 184.5,-34 325.5,-34 325.5,-0 184.5,-0"/>
<text text-anchor="start" x="192.5" y="-21" font-family="Helvetica,sans-Serif" font-size="10.00">okw.core.EN.VerifyTablecell</text>
<text text-anchor="middle" x="255" y="-8" font-family="Helvetica,sans-Serif" font-size="10.00">ValueWCM</text>
</a>
</g>
<!-- Node547&#45;&gt;Node548 -->
<g id="edge2" class="edge"><title>Node547&#45;&gt;Node548</title>
<path fill="none" stroke="midnightblue" d="M158.348,-17C167.09,-17 175.908,-17 184.475,-17"/>
<polygon fill="midnightblue" stroke="midnightblue" points="158.142,-13.5001 148.142,-17 158.142,-20.5001 158.142,-13.5001"/>
</g>
</g>
</svg>
