<?xml version="1.0" encoding="UTF-8" standalone="no"?>
<!DOCTYPE svg PUBLIC "-//W3C//DTD SVG 1.1//EN"
 "http://www.w3.org/Graphics/SVG/1.1/DTD/svg11.dtd">
<!-- Generated by graphviz version 2.36.0 (20140111.2315)
 -->
<!-- Title: okw.gui.adapter.selenium.SeAnyWindow.LogIsActive Pages: 1 -->
<!--zoomable 317 -->
<svg id="main" version="1.1" xmlns="http://www.w3.org/2000/svg" xmlns:xlink="http://www.w3.org/1999/xlink" xml:space="preserve" onload="init(evt)">
<style type="text/css"><![CDATA[
.edge:hover path { stroke: red; }
.edge:hover polygon { stroke: red; fill: red; }
]]></style>
<script type="text/javascript"><![CDATA[
var edges = document.getElementsByTagName('g');
if (edges && edges.length) {
  for (var i=0;i<edges.length;i++) {
    if (edges[i].id.substr(0,4)=='edge') {
      edges[i].setAttribute('class','edge');
    }
  }
}
]]></script>
        <defs>
                <circle id="rim" cx="0" cy="0" r="7"/>
                <circle id="rim2" cx="0" cy="0" r="3.5"/>
                <g id="zoomPlus">
                        <use xlink:href="#rim" fill="#404040">
                                <set attributeName="fill" to="#808080" begin="zoomplus.mouseover" end="zoomplus.mouseout"/>
                        </use>
                        <path d="M-4,0h8M0,-4v8" fill="none" stroke="white" stroke-width="1.5" pointer-events="none"/>
                </g>
                <g id="zoomMin">
                        <use xlink:href="#rim" fill="#404040">
                                <set attributeName="fill" to="#808080" begin="zoomminus.mouseover" end="zoomminus.mouseout"/>
                        </use>
                        <path d="M-4,0h8" fill="none" stroke="white" stroke-width="1.5" pointer-events="none"/>
                </g>
                <g id="dirArrow">
                        <path fill="none" stroke="white" stroke-width="1.5" d="M0,-3.0v7 M-2.5,-0.5L0,-3.0L2.5,-0.5"/>
                </g>
               <g id="resetDef">
                       <use xlink:href="#rim2" fill="#404040">
                               <set attributeName="fill" to="#808080" begin="reset.mouseover" end="reset.mouseout"/>
                       </use>
               </g>
        </defs>

<script type="text/javascript">
var viewWidth = 1154;
var viewHeight = 317;
var sectionId = 'dynsection-20';
</script>
<script xlink:href="svgpan.js"/>
<svg id="graph" class="graph">
<g id="viewport">
<title>okw.gui.adapter.selenium.SeAnyWindow.LogIsActive</title>
<polygon fill="white" stroke="none" points="-4,4 -4,-313 1150,-313 1150,4 -4,4"/>
<!-- Node229 -->
<g id="node1" class="node"><title>Node229</title>
<polygon fill="#bfbfbf" stroke="black" points="0,-142 0,-172 136,-172 136,-142 0,-142"/>
<text text-anchor="start" x="8" y="-160" font-family="Helvetica,sans-Serif" font-size="10.00">okw.gui.adapter.selenium.</text>
<text text-anchor="middle" x="68" y="-149" font-family="Helvetica,sans-Serif" font-size="10.00">SeAnyWindow.LogIsActive</text>
</g>
<!-- Node230 -->
<g id="node2" class="node"><title>Node230</title>
<g id="a_node2"><a xlink:href="classokw_1_1gui_1_1_any_win_base.html#abaab572bdbed7b471f659d5dd8c76853" target="_top" xlink:title="Diese Methode ruft die Methode Logger.Instance.LogFunctionStartDebug(fps_FunctionName), und erweitert den gegebenen Methodenname in fps_FunctionName mit this.GetType().FullName um den Klassenbezeichner. ">
<polygon fill="white" stroke="black" points="172.5,-191 172.5,-221 339.5,-221 339.5,-191 172.5,-191"/>
<text text-anchor="start" x="180.5" y="-209" font-family="Helvetica,sans-Serif" font-size="10.00">okw.gui.AnyWinBase.LogFunction</text>
<text text-anchor="middle" x="256" y="-198" font-family="Helvetica,sans-Serif" font-size="10.00">StartDebug</text>
</a>
</g>
</g>
<!-- Node229&#45;&gt;Node230 -->
<g id="edge1" class="edge"><title>Node229&#45;&gt;Node230</title>
<path fill="none" stroke="midnightblue" d="M126.07,-172.035C145.709,-177.208 167.874,-183.048 188.217,-188.407"/>
<polygon fill="midnightblue" stroke="midnightblue" points="187.476,-191.831 198.038,-190.994 189.259,-185.062 187.476,-191.831"/>
</g>
<!-- Node231 -->
<g id="node3" class="node"><title>Node231</title>
<g id="a_node3"><a xlink:href="classokw_1_1gui_1_1adapter_1_1selenium_1_1_se_any_window.html#a471a1346a97ca3365eb4274adcde296b" target="_top" xlink:title="Ermittelt, ob das aktuellen Objekt aktiv ist. ">
<polygon fill="white" stroke="black" points="189,-142 189,-172 323,-172 323,-142 189,-142"/>
<text text-anchor="start" x="197" y="-160" font-family="Helvetica,sans-Serif" font-size="10.00">okw.gui.adapter.selenium.</text>
<text text-anchor="middle" x="256" y="-149" font-family="Helvetica,sans-Serif" font-size="10.00">SeAnyWindow.getIsActive</text>
</a>
</g>
</g>
<!-- Node229&#45;&gt;Node231 -->
<g id="edge2" class="edge"><title>Node229&#45;&gt;Node231</title>
<path fill="none" stroke="midnightblue" d="M136.15,-157C149.966,-157 164.609,-157 178.721,-157"/>
<polygon fill="midnightblue" stroke="midnightblue" points="178.883,-160.5 188.883,-157 178.883,-153.5 178.883,-160.5"/>
</g>
<!-- Node247 -->
<g id="node19" class="node"><title>Node247</title>
<g id="a_node19"><a xlink:href="classokw_1_1gui_1_1_any_win_base.html#a51cf50ace21902b3a5359316f53a7f3e" target="_top" xlink:title="Methode ruft die Methode Logger.Instance.LogFunctionEndDebug() auf. ">
<polygon fill="white" stroke="black" points="172.5,-93 172.5,-123 339.5,-123 339.5,-93 172.5,-93"/>
<text text-anchor="start" x="180.5" y="-111" font-family="Helvetica,sans-Serif" font-size="10.00">okw.gui.AnyWinBase.LogFunction</text>
<text text-anchor="middle" x="256" y="-100" font-family="Helvetica,sans-Serif" font-size="10.00">EndDebug</text>
</a>
</g>
</g>
<!-- Node229&#45;&gt;Node247 -->
<g id="edge21" class="edge"><title>Node229&#45;&gt;Node247</title>
<path fill="none" stroke="midnightblue" d="M126.07,-141.965C145.709,-136.792 167.874,-130.952 188.217,-125.593"/>
<polygon fill="midnightblue" stroke="midnightblue" points="189.259,-128.938 198.038,-123.006 187.476,-122.169 189.259,-128.938"/>
</g>
<!-- Node232 -->
<g id="node4" class="node"><title>Node232</title>
<g id="a_node4"><a xlink:href="classokw_1_1gui_1_1adapter_1_1selenium_1_1_se_any_window.html#ad806d20bf0e42d47e0aa5282532d3230" target="_top" xlink:title="Prüft die Existenz des aktuellen Objektes. ">
<polygon fill="white" stroke="black" points="390.5,-142 390.5,-172 521.5,-172 521.5,-142 390.5,-142"/>
<text text-anchor="start" x="398.5" y="-160" font-family="Helvetica,sans-Serif" font-size="10.00">okw.gui.adapter.selenium.</text>
<text text-anchor="middle" x="456" y="-149" font-family="Helvetica,sans-Serif" font-size="10.00">SeAnyWindow.getExists</text>
</a>
</g>
</g>
<!-- Node231&#45;&gt;Node232 -->
<g id="edge3" class="edge"><title>Node231&#45;&gt;Node232</title>
<path fill="none" stroke="midnightblue" d="M323.206,-157C341.419,-157 361.3,-157 379.972,-157"/>
<polygon fill="midnightblue" stroke="midnightblue" points="380.202,-160.5 390.202,-157 380.202,-153.5 380.202,-160.5"/>
</g>
<!-- Node241 -->
<g id="node13" class="node"><title>Node241</title>
<g id="a_node13"><a xlink:href="classokw_1_1_log_messenger.html#af225d1f037d47b3b085175c09d78bdd2" target="_top" xlink:title="Holt die Log&#45;Meldung für MethodeNmae/Textkey ohne weitere Parameter. ">
<polygon fill="white" stroke="black" points="376,-54.5 376,-73.5 536,-73.5 536,-54.5 376,-54.5"/>
<text text-anchor="middle" x="456" y="-61.5" font-family="Helvetica,sans-Serif" font-size="10.00">okw.LogMessenger.GetMessage</text>
</a>
</g>
</g>
<!-- Node231&#45;&gt;Node241 -->
<g id="edge12" class="edge"><title>Node231&#45;&gt;Node241</title>
<path fill="none" stroke="midnightblue" d="M313.474,-141.999C322.48,-139.036 331.593,-135.687 340,-132 373.978,-117.099 410.394,-94.2703 432.935,-79.2388"/>
<polygon fill="midnightblue" stroke="midnightblue" points="435.089,-82.0073 441.419,-73.511 431.173,-76.2057 435.089,-82.0073"/>
</g>
<!-- Node244 -->
<g id="node16" class="node"><title>Node244</title>
<g id="a_node16"><a xlink:href="classokw_1_1gui_1_1adapter_1_1selenium_1_1_se_any_window.html#a8b42bf27f4660b4807375a57fa9de815" target="_top" xlink:title="Ermittelt aus dem gegebenen Locator das DOM&#45;Elelement, welches das Objekt representiert. ">
<polygon fill="white" stroke="black" points="390.5,-210 390.5,-240 521.5,-240 521.5,-210 390.5,-210"/>
<text text-anchor="start" x="398.5" y="-228" font-family="Helvetica,sans-Serif" font-size="10.00">okw.gui.adapter.selenium.</text>
<text text-anchor="middle" x="456" y="-217" font-family="Helvetica,sans-Serif" font-size="10.00">SeAnyWindow.Me</text>
</a>
</g>
</g>
<!-- Node231&#45;&gt;Node244 -->
<g id="edge15" class="edge"><title>Node231&#45;&gt;Node244</title>
<path fill="none" stroke="midnightblue" d="M308.968,-172.085C319.289,-175.24 330.018,-178.634 340,-182 362.232,-189.496 386.605,-198.495 407.169,-206.319"/>
<polygon fill="midnightblue" stroke="midnightblue" points="406.038,-209.634 416.629,-209.937 408.539,-203.095 406.038,-209.634"/>
</g>
<!-- Node233 -->
<g id="node5" class="node"><title>Node233</title>
<g id="a_node5"><a xlink:href="classokw_1_1gui_1_1_any_win_base.html#a9929f6fae1f4e2c20df79d32d5bc79db" target="_top" xlink:title="Holt den vollständig (rekursiv) aufgelösten (z.B. ">
<polygon fill="white" stroke="black" points="580.5,-191.5 580.5,-210.5 739.5,-210.5 739.5,-191.5 580.5,-191.5"/>
<text text-anchor="middle" x="660" y="-198.5" font-family="Helvetica,sans-Serif" font-size="10.00">okw.gui.AnyWinBase.getLocator</text>
</a>
</g>
</g>
<!-- Node232&#45;&gt;Node233 -->
<g id="edge4" class="edge"><title>Node232&#45;&gt;Node233</title>
<path fill="none" stroke="midnightblue" d="M521.748,-171.103C548.745,-176.984 579.726,-183.732 605.414,-189.328"/>
<polygon fill="midnightblue" stroke="midnightblue" points="604.827,-192.782 615.342,-191.49 606.317,-185.942 604.827,-192.782"/>
</g>
<!-- Node235 -->
<g id="node7" class="node"><title>Node235</title>
<g id="a_node7"><a xlink:href="classokw_1_1gui_1_1adapter_1_1selenium_1_1webdriver_1_1_se_driver.html#aee9e3f8a67f4ad1f8100a33ba71c926e" target="_top" xlink:title="Gibt die Instance für die einzige Instanz dieser Klasse zurück. ">
<polygon fill="white" stroke="black" points="572,-230 572,-260 748,-260 748,-230 572,-230"/>
<text text-anchor="start" x="580" y="-248" font-family="Helvetica,sans-Serif" font-size="10.00">okw.gui.adapter.selenium.webdriver.</text>
<text text-anchor="middle" x="660" y="-237" font-family="Helvetica,sans-Serif" font-size="10.00">SeDriver.getInstance</text>
</a>
</g>
</g>
<!-- Node232&#45;&gt;Node235 -->
<g id="edge6" class="edge"><title>Node232&#45;&gt;Node235</title>
<path fill="none" stroke="midnightblue" d="M484.274,-172.139C516.824,-190.176 567.461,-218.132 572,-220 577.817,-222.395 583.943,-224.652 590.138,-226.756"/>
<polygon fill="midnightblue" stroke="midnightblue" points="589.303,-230.165 599.895,-229.934 591.471,-223.509 589.303,-230.165"/>
</g>
<!-- Node236 -->
<g id="node8" class="node"><title>Node236</title>
<g id="a_node8"><a xlink:href="classokw_1_1gui_1_1adapter_1_1selenium_1_1webdriver_1_1_se_driver.html#a3505c2c7aba67399be71f26d15489839" target="_top" xlink:title="Ermittelt das Webelement mit der gegebenen frameID und dem gegebenen Locator. ">
<polygon fill="white" stroke="black" points="572,-142 572,-172 748,-172 748,-142 572,-142"/>
<text text-anchor="start" x="580" y="-160" font-family="Helvetica,sans-Serif" font-size="10.00">okw.gui.adapter.selenium.webdriver.</text>
<text text-anchor="middle" x="660" y="-149" font-family="Helvetica,sans-Serif" font-size="10.00">SeDriver.getElements</text>
</a>
</g>
</g>
<!-- Node232&#45;&gt;Node236 -->
<g id="edge7" class="edge"><title>Node232&#45;&gt;Node236</title>
<path fill="none" stroke="midnightblue" d="M521.748,-157C534.438,-157 548.008,-157 561.496,-157"/>
<polygon fill="midnightblue" stroke="midnightblue" points="561.778,-160.5 571.778,-157 561.778,-153.5 561.778,-160.5"/>
</g>
<!-- Node239 -->
<g id="node11" class="node"><title>Node239</title>
<g id="a_node11"><a xlink:href="classokw_1_1log_1_1_logger___sngltn.html#a2c15e9b2cd0c6266f4c67b8cb00d92e5" target="_top" xlink:title="LogWarning Function: Logs a warning to the results file. ">
<polygon fill="white" stroke="black" points="593,-44 593,-74 727,-74 727,-44 593,-44"/>
<text text-anchor="start" x="601" y="-62" font-family="Helvetica,sans-Serif" font-size="10.00">okw.log.Logger_Sngltn.Log</text>
<text text-anchor="middle" x="660" y="-51" font-family="Helvetica,sans-Serif" font-size="10.00">Warning</text>
</a>
</g>
</g>
<!-- Node232&#45;&gt;Node239 -->
<g id="edge10" class="edge"><title>Node232&#45;&gt;Node239</title>
<path fill="none" stroke="midnightblue" d="M476.773,-141.953C498.928,-125.706 536.415,-100.007 572,-84 577.325,-81.6045 582.937,-79.3778 588.641,-77.3212"/>
<polygon fill="midnightblue" stroke="midnightblue" points="589.962,-80.5686 598.292,-74.0212 587.697,-73.9451 589.962,-80.5686"/>
</g>
<!-- Node240 -->
<g id="node12" class="node"><title>Node240</title>
<g id="a_node12"><a xlink:href="classokw_1_1log_1_1_logger___sngltn.html#a313f97c79ba4662d9daaf7f537dd02f4" target="_top" xlink:title="Loggt eine Nachricht. ">
<polygon fill="white" stroke="black" points="593,-93 593,-123 727,-123 727,-93 593,-93"/>
<text text-anchor="start" x="601" y="-111" font-family="Helvetica,sans-Serif" font-size="10.00">okw.log.Logger_Sngltn.Log</text>
<text text-anchor="middle" x="660" y="-100" font-family="Helvetica,sans-Serif" font-size="10.00">PrintDebug</text>
</a>
</g>
</g>
<!-- Node232&#45;&gt;Node240 -->
<g id="edge11" class="edge"><title>Node232&#45;&gt;Node240</title>
<path fill="none" stroke="midnightblue" d="M518.979,-141.965C540.599,-136.721 565.037,-130.793 587.375,-125.374"/>
<polygon fill="midnightblue" stroke="midnightblue" points="588.245,-128.765 597.138,-123.006 586.594,-121.962 588.245,-128.765"/>
</g>
<!-- Node234 -->
<g id="node6" class="node"><title>Node234</title>
<g id="a_node6"><a xlink:href="classokw_1_1gui_1_1_o_k_w_locator.html#adc74fc2125dd048dc1cb84e011f47ec8" target="_top" xlink:title="Holt den vollständig (rekursiv) aufgelösten (z.B. ">
<polygon fill="white" stroke="black" points="793,-191.5 793,-210.5 951,-210.5 951,-191.5 793,-191.5"/>
<text text-anchor="middle" x="872" y="-198.5" font-family="Helvetica,sans-Serif" font-size="10.00">okw.gui.OKWLocator.getLocator</text>
</a>
</g>
</g>
<!-- Node233&#45;&gt;Node234 -->
<g id="edge5" class="edge"><title>Node233&#45;&gt;Node234</title>
<path fill="none" stroke="midnightblue" d="M739.794,-201C753.748,-201 768.362,-201 782.561,-201"/>
<polygon fill="midnightblue" stroke="midnightblue" points="782.812,-204.5 792.812,-201 782.812,-197.5 782.812,-204.5"/>
</g>
<!-- Node237 -->
<g id="node9" class="node"><title>Node237</title>
<g id="a_node9"><a xlink:href="classokw_1_1gui_1_1adapter_1_1selenium_1_1webdriver_1_1_se_driver.html#a47eec72c911c05beb2127672daafb325" target="_top" xlink:title="Wechselt das aktuelle Frame auf das Frame mit der id=iframeID. ">
<polygon fill="white" stroke="black" points="784,-230 784,-260 960,-260 960,-230 784,-230"/>
<text text-anchor="start" x="792" y="-248" font-family="Helvetica,sans-Serif" font-size="10.00">okw.gui.adapter.selenium.webdriver.</text>
<text text-anchor="middle" x="872" y="-237" font-family="Helvetica,sans-Serif" font-size="10.00">SeDriver.swichToFrame</text>
</a>
</g>
</g>
<!-- Node236&#45;&gt;Node237 -->
<g id="edge8" class="edge"><title>Node236&#45;&gt;Node237</title>
<path fill="none" stroke="midnightblue" d="M727.658,-172.111C734.761,-174.894 741.688,-178.164 748,-182 767.881,-194.083 764.119,-207.917 784,-220 787.452,-222.098 791.088,-224.027 794.835,-225.799"/>
<polygon fill="midnightblue" stroke="midnightblue" points="793.773,-229.152 804.342,-229.889 796.539,-222.722 793.773,-229.152"/>
</g>
<!-- Node238 -->
<g id="node10" class="node"><title>Node238</title>
<g id="a_node10"><a xlink:href="classokw_1_1_o_k_w___helper.html#a3a7ba0f42b29adf70574830688e72e4a" target="_top" xlink:title="Prüft ob der gegeben String fpsStrin null oder leer (&quot;&quot;) ist. ">
<polygon fill="white" stroke="black" points="996.5,-230 996.5,-260 1145.5,-260 1145.5,-230 996.5,-230"/>
<text text-anchor="start" x="1004.5" y="-248" font-family="Helvetica,sans-Serif" font-size="10.00">okw.OKW_Helper.isStringNull</text>
<text text-anchor="middle" x="1071" y="-237" font-family="Helvetica,sans-Serif" font-size="10.00">OrEmpty</text>
</a>
</g>
</g>
<!-- Node237&#45;&gt;Node238 -->
<g id="edge9" class="edge"><title>Node237&#45;&gt;Node238</title>
<path fill="none" stroke="midnightblue" d="M960.267,-245C968.922,-245 977.694,-245 986.311,-245"/>
<polygon fill="midnightblue" stroke="midnightblue" points="986.34,-248.5 996.34,-245 986.34,-241.5 986.34,-248.5"/>
</g>
<!-- Node242 -->
<g id="node14" class="node"><title>Node242</title>
<g id="a_node14"><a xlink:href="classokw_1_1_log_messenger.html#a530cd6ab82ec82a04206a2e976ec06e3" target="_top" xlink:title="Interne Kernfunktion holt die Log&#45;Meldung mit Platzhaltern aus der XML&#45;Datei. ">
<polygon fill="white" stroke="black" points="576.5,-5.5 576.5,-24.5 743.5,-24.5 743.5,-5.5 576.5,-5.5"/>
<text text-anchor="middle" x="660" y="-12.5" font-family="Helvetica,sans-Serif" font-size="10.00">okw.LogMessenger.ReadMessage</text>
</a>
</g>
</g>
<!-- Node241&#45;&gt;Node242 -->
<g id="edge13" class="edge"><title>Node241&#45;&gt;Node242</title>
<path fill="none" stroke="midnightblue" d="M492.14,-54.442C514.864,-48.3582 545.112,-40.4405 572,-34 582.254,-31.5438 593.22,-29.0478 603.79,-26.7075"/>
<polygon fill="midnightblue" stroke="midnightblue" points="604.75,-30.0802 613.767,-24.5178 603.249,-23.243 604.75,-30.0802"/>
</g>
<!-- Node243 -->
<g id="node15" class="node"><title>Node243</title>
<g id="a_node15"><a xlink:href="classokw_1_1_o_k_w___xml_reader.html#ab920b5335a2e1429c14cc5f8e79f39eb" target="_top" xlink:title="Lies den TextContent eines Tag. ">
<polygon fill="white" stroke="black" points="796,-0 796,-30 948,-30 948,-0 796,-0"/>
<text text-anchor="start" x="804" y="-18" font-family="Helvetica,sans-Serif" font-size="10.00">okw.OKW_XmlReader.getText</text>
<text text-anchor="middle" x="872" y="-7" font-family="Helvetica,sans-Serif" font-size="10.00">ContentSingleValue</text>
</a>
</g>
</g>
<!-- Node242&#45;&gt;Node243 -->
<g id="edge14" class="edge"><title>Node242&#45;&gt;Node243</title>
<path fill="none" stroke="midnightblue" d="M743.696,-15C757.55,-15 771.947,-15 785.861,-15"/>
<polygon fill="midnightblue" stroke="midnightblue" points="785.893,-18.5001 795.893,-15 785.893,-11.5001 785.893,-18.5001"/>
</g>
<!-- Node244&#45;&gt;Node233 -->
<g id="edge20" class="edge"><title>Node244&#45;&gt;Node233</title>
<path fill="none" stroke="midnightblue" d="M521.748,-217.307C537.229,-215.468 554.021,-213.473 570.373,-211.53"/>
<polygon fill="midnightblue" stroke="midnightblue" points="570.965,-214.984 580.482,-210.329 570.139,-208.033 570.965,-214.984"/>
</g>
<!-- Node244&#45;&gt;Node235 -->
<g id="edge16" class="edge"><title>Node244&#45;&gt;Node235</title>
<path fill="none" stroke="midnightblue" d="M521.748,-231.411C534.438,-232.667 548.008,-234.011 561.496,-235.346"/>
<polygon fill="midnightblue" stroke="midnightblue" points="561.481,-238.862 571.778,-236.364 562.171,-231.896 561.481,-238.862"/>
</g>
<!-- Node245 -->
<g id="node17" class="node"><title>Node245</title>
<g id="a_node17"><a xlink:href="classokw_1_1gui_1_1adapter_1_1selenium_1_1webdriver_1_1_se_driver.html#a6d879107786a94ebbdbd42b4ac6c6acf" target="_top" xlink:title="Ermittelt das Webelement mit der gegebenen frameID und dem gegebenen Locator. ">
<polygon fill="white" stroke="black" points="572,-279 572,-309 748,-309 748,-279 572,-279"/>
<text text-anchor="start" x="580" y="-297" font-family="Helvetica,sans-Serif" font-size="10.00">okw.gui.adapter.selenium.webdriver.</text>
<text text-anchor="middle" x="660" y="-286" font-family="Helvetica,sans-Serif" font-size="10.00">SeDriver.getElement</text>
</a>
</g>
</g>
<!-- Node244&#45;&gt;Node245 -->
<g id="edge17" class="edge"><title>Node244&#45;&gt;Node245</title>
<path fill="none" stroke="midnightblue" d="M493.998,-240.081C516.4,-248.98 545.644,-260.189 572,-269 579.151,-271.39 586.677,-273.763 594.186,-276.04"/>
<polygon fill="midnightblue" stroke="midnightblue" points="593.433,-279.468 604.016,-278.973 595.434,-272.76 593.433,-279.468"/>
</g>
<!-- Node245&#45;&gt;Node237 -->
<g id="edge18" class="edge"><title>Node245&#45;&gt;Node237</title>
<path fill="none" stroke="midnightblue" d="M725.434,-278.965C748.01,-273.698 773.543,-267.74 796.85,-262.302"/>
<polygon fill="midnightblue" stroke="midnightblue" points="797.745,-265.687 806.688,-260.006 796.154,-258.87 797.745,-265.687"/>
</g>
<!-- Node246 -->
<g id="node18" class="node"><title>Node246</title>
<g id="a_node18"><a xlink:href="classokw_1_1log_1_1_logger___sngltn.html#a8ebceaddd6cc6963ddb8e08c72ea808c" target="_top" xlink:title="LogPrint Function: Prints the values of expressions to the results file. ">
<polygon fill="white" stroke="black" points="805,-279 805,-309 939,-309 939,-279 805,-279"/>
<text text-anchor="start" x="813" y="-297" font-family="Helvetica,sans-Serif" font-size="10.00">okw.log.Logger_Sngltn.Log</text>
<text text-anchor="middle" x="872" y="-286" font-family="Helvetica,sans-Serif" font-size="10.00">Print</text>
</a>
</g>
</g>
<!-- Node245&#45;&gt;Node246 -->
<g id="edge19" class="edge"><title>Node245&#45;&gt;Node246</title>
<path fill="none" stroke="midnightblue" d="M748.235,-294C763.617,-294 779.523,-294 794.58,-294"/>
<polygon fill="midnightblue" stroke="midnightblue" points="794.852,-297.5 804.852,-294 794.852,-290.5 794.852,-297.5"/>
</g>
</g>
</svg>
        <g id="navigator" transform="translate(0 0)" fill="#404254">
                <rect fill="#f2f5e9" fill-opacity="0.5" stroke="#606060" stroke-width=".5" x="0" y="0" width="60" height="60"/>
                <use id="zoomplus" xlink:href="#zoomPlus" x="17" y="9" onmousedown="handleZoom(evt,'in')"/>
                <use id="zoomminus" xlink:href="#zoomMin" x="42" y="9" onmousedown="handleZoom(evt,'out')"/>
                <use id="reset" xlink:href="#resetDef" x="30" y="36" onmousedown="handleReset()"/>
                <g id="arrowUp" xlink:href="#dirArrow" transform="translate(30 24)" onmousedown="handlePan(0,-1)">
                  <use xlink:href="#rim" fill="#404040">
                        <set attributeName="fill" to="#808080" begin="arrowUp.mouseover" end="arrowUp.mouseout"/>
                  </use>
                  <path fill="none" stroke="white" stroke-width="1.5" d="M0,-3.0v7 M-2.5,-0.5L0,-3.0L2.5,-0.5"/>
                </g>
                <g id="arrowRight" xlink:href="#dirArrow" transform="rotate(90) translate(36 -43)" onmousedown="handlePan(1,0)">
                  <use xlink:href="#rim" fill="#404040">
                        <set attributeName="fill" to="#808080" begin="arrowRight.mouseover" end="arrowRight.mouseout"/>
                  </use>
                  <path fill="none" stroke="white" stroke-width="1.5" d="M0,-3.0v7 M-2.5,-0.5L0,-3.0L2.5,-0.5"/>
                </g>
                <g id="arrowDown" xlink:href="#dirArrow" transform="rotate(180) translate(-30 -48)" onmousedown="handlePan(0,1)">
                  <use xlink:href="#rim" fill="#404040">
                        <set attributeName="fill" to="#808080" begin="arrowDown.mouseover" end="arrowDown.mouseout"/>
                  </use>
                  <path fill="none" stroke="white" stroke-width="1.5" d="M0,-3.0v7 M-2.5,-0.5L0,-3.0L2.5,-0.5"/>
                </g>
                <g id="arrowLeft" xlink:href="#dirArrow" transform="rotate(270) translate(-36 17)" onmousedown="handlePan(-1,0)">
                  <use xlink:href="#rim" fill="#404040">
                        <set attributeName="fill" to="#808080" begin="arrowLeft.mouseover" end="arrowLeft.mouseout"/>
                  </use>
                  <path fill="none" stroke="white" stroke-width="1.5" d="M0,-3.0v7 M-2.5,-0.5L0,-3.0L2.5,-0.5"/>
                </g>
        </g>
        <svg viewBox="0 0 15 15" width="100%" height="30px" preserveAspectRatio="xMaxYMin meet">
         <g id="arrow_out" transform="scale(0.3 0.3)">
          <a xlink:href="classokw_1_1gui_1_1adapter_1_1selenium_1_1_se_any_window_a5f4b400e4aa9e68fd083ea205feb1c32_cgraph_org.svg" target="_base">
           <rect id="button" ry="5" rx="5" y="6" x="6" height="38" width="38"
                fill="#f2f5e9" fill-opacity="0.5" stroke="#606060" stroke-width="1.0"/>
           <path id="arrow"
             d="M 11.500037,31.436501 C 11.940474,20.09759 22.043105,11.32322 32.158766,21.979434 L 37.068811,17.246167 C 37.068811,17.246167 37.088388,32 37.088388,32 L 22.160133,31.978069 C 22.160133,31.978069 26.997745,27.140456 26.997745,27.140456 C 18.528582,18.264221 13.291696,25.230495 11.500037,31.436501 z"
             style="fill:#404040;"/>
          </a>
         </g>
        </svg>
</svg>
