<?xml version="1.0" encoding="UTF-8" standalone="no"?>
<!DOCTYPE svg PUBLIC "-//W3C//DTD SVG 1.1//EN"
 "http://www.w3.org/Graphics/SVG/1.1/DTD/svg11.dtd">
<!-- Generated by graphviz version 2.36.0 (20140111.2315)
 -->
<!-- Title: okw.gui.frames.frmWindowWithOutMethods Pages: 1 -->
<!--zoomable 694 -->
<svg id="main" version="1.1" xmlns="http://www.w3.org/2000/svg" xmlns:xlink="http://www.w3.org/1999/xlink" xml:space="preserve" onload="init(evt)">
<style type="text/css"><![CDATA[
.edge:hover path { stroke: red; }
.edge:hover polygon { stroke: red; fill: red; }
]]></style>
<script type="text/javascript"><![CDATA[
var edges = document.getElementsByTagName('g');
if (edges && edges.length) {
  for (var i=0;i<edges.length;i++) {
    if (edges[i].id.substr(0,4)=='edge') {
      edges[i].setAttribute('class','edge');
    }
  }
}
]]></script>
        <defs>
                <circle id="rim" cx="0" cy="0" r="7"/>
                <circle id="rim2" cx="0" cy="0" r="3.5"/>
                <g id="zoomPlus">
                        <use xlink:href="#rim" fill="#404040">
                                <set attributeName="fill" to="#808080" begin="zoomplus.mouseover" end="zoomplus.mouseout"/>
                        </use>
                        <path d="M-4,0h8M0,-4v8" fill="none" stroke="white" stroke-width="1.5" pointer-events="none"/>
                </g>
                <g id="zoomMin">
                        <use xlink:href="#rim" fill="#404040">
                                <set attributeName="fill" to="#808080" begin="zoomminus.mouseover" end="zoomminus.mouseout"/>
                        </use>
                        <path d="M-4,0h8" fill="none" stroke="white" stroke-width="1.5" pointer-events="none"/>
                </g>
                <g id="dirArrow">
                        <path fill="none" stroke="white" stroke-width="1.5" d="M0,-3.0v7 M-2.5,-0.5L0,-3.0L2.5,-0.5"/>
                </g>
               <g id="resetDef">
                       <use xlink:href="#rim2" fill="#404040">
                               <set attributeName="fill" to="#808080" begin="reset.mouseover" end="reset.mouseout"/>
                       </use>
               </g>
        </defs>

<script type="text/javascript">
var viewWidth = 411;
var viewHeight = 694;
var sectionId = 'dynsection-0';
</script>
<script xlink:href="svgpan.js"/>
<svg id="graph" class="graph">
<g id="viewport">
<title>okw.gui.frames.frmWindowWithOutMethods</title>
<polygon fill="white" stroke="none" points="-4,4 -4,-690 407,-690 407,4 -4,4"/>
<!-- Node0 -->
<g id="node1" class="node"><title>Node0</title>
<polygon fill="#bfbfbf" stroke="black" points="205,-0.5 205,-145.5 341,-145.5 341,-0.5 205,-0.5"/>
<text text-anchor="start" x="213" y="-133.5" font-family="Helvetica,sans-Serif" font-size="10.00">okw.gui.frames.frmWindow</text>
<text text-anchor="middle" x="273" y="-122.5" font-family="Helvetica,sans-Serif" font-size="10.00">WithOutMethods</text>
<polyline fill="none" stroke="black" points="205,-115.5 341,-115.5 "/>
<text text-anchor="start" x="213" y="-103.5" font-family="Helvetica,sans-Serif" font-size="10.00">&#45; myKN</text>
<text text-anchor="start" x="213" y="-92.5" font-family="Helvetica,sans-Serif" font-size="10.00">&#45; myFN</text>
<text text-anchor="start" x="213" y="-81.5" font-family="Helvetica,sans-Serif" font-size="10.00">&#45; myParentFN</text>
<polyline fill="none" stroke="black" points="205,-74.5 341,-74.5 "/>
<text text-anchor="start" x="213" y="-62.5" font-family="Helvetica,sans-Serif" font-size="10.00">+ setKN()</text>
<text text-anchor="start" x="213" y="-51.5" font-family="Helvetica,sans-Serif" font-size="10.00">+ getKN()</text>
<text text-anchor="start" x="213" y="-40.5" font-family="Helvetica,sans-Serif" font-size="10.00">+ setFN()</text>
<text text-anchor="start" x="213" y="-29.5" font-family="Helvetica,sans-Serif" font-size="10.00">+ getFN()</text>
<text text-anchor="start" x="213" y="-18.5" font-family="Helvetica,sans-Serif" font-size="10.00">+ setParentFN()</text>
<text text-anchor="start" x="213" y="-7.5" font-family="Helvetica,sans-Serif" font-size="10.00">+ getParentFN()</text>
</g>
<!-- Node1 -->
<g id="node2" class="node"><title>Node1</title>
<g id="a_node2"><a xlink:href="classokw_1_1gui_1_1_any_window.html" target="_top" xlink:title="Description of AnyWin. ">
<polygon fill="white" stroke="black" points="163,-182.5 163,-371.5 291,-371.5 291,-182.5 163,-182.5"/>
<text text-anchor="middle" x="227" y="-359.5" font-family="Helvetica,sans-Serif" font-size="10.00">okw.gui.AnyWindow</text>
<polyline fill="none" stroke="black" points="163,-352.5 291,-352.5 "/>
<text text-anchor="middle" x="227" y="-340.5" font-family="Helvetica,sans-Serif" font-size="10.00"> </text>
<polyline fill="none" stroke="black" points="163,-333.5 291,-333.5 "/>
<text text-anchor="start" x="171" y="-321.5" font-family="Helvetica,sans-Serif" font-size="10.00">+ AnyWindow()</text>
<text text-anchor="start" x="171" y="-310.5" font-family="Helvetica,sans-Serif" font-size="10.00">+ setLocator()</text>
<text text-anchor="start" x="171" y="-299.5" font-family="Helvetica,sans-Serif" font-size="10.00">+ getExists()</text>
<text text-anchor="start" x="171" y="-288.5" font-family="Helvetica,sans-Serif" font-size="10.00">+ getCaption()</text>
<text text-anchor="start" x="171" y="-277.5" font-family="Helvetica,sans-Serif" font-size="10.00">+ getIsActive()</text>
<text text-anchor="start" x="171" y="-266.5" font-family="Helvetica,sans-Serif" font-size="10.00">+ TypeKeyWindow()</text>
<text text-anchor="start" x="171" y="-255.5" font-family="Helvetica,sans-Serif" font-size="10.00">+ SelectWindow()</text>
<text text-anchor="start" x="171" y="-244.5" font-family="Helvetica,sans-Serif" font-size="10.00">+ StartApp()</text>
<text text-anchor="start" x="171" y="-233.5" font-family="Helvetica,sans-Serif" font-size="10.00">+ StopApp()</text>
<text text-anchor="start" x="171" y="-222.5" font-family="Helvetica,sans-Serif" font-size="10.00">+ VerifyWindowExists()</text>
<text text-anchor="start" x="171" y="-211.5" font-family="Helvetica,sans-Serif" font-size="10.00">+ VerifyIsWindowActive()</text>
<text text-anchor="start" x="171" y="-200.5" font-family="Helvetica,sans-Serif" font-size="10.00">+ VerifyWindowCaption()</text>
<text text-anchor="start" x="171" y="-189.5" font-family="Helvetica,sans-Serif" font-size="10.00">+ WaitForMe()</text>
</a>
</g>
</g>
<!-- Node1&#45;&gt;Node0 -->
<g id="edge1" class="edge"><title>Node1&#45;&gt;Node0</title>
<path fill="none" stroke="midnightblue" d="M250.568,-172.505C252.644,-163.391 254.713,-154.305 256.708,-145.542"/>
<polygon fill="none" stroke="midnightblue" points="247.125,-171.864 248.317,-182.392 253.95,-173.418 247.125,-171.864"/>
</g>
<!-- Node2 -->
<g id="node3" class="node"><title>Node2</title>
<g id="a_node3"><a xlink:href="classokw_1_1gui_1_1_any_win_base.html" target="_top" xlink:title="Description of AnyWin. ">
<polygon fill="white" stroke="black" points="0,-408.5 0,-685.5 134,-685.5 134,-408.5 0,-408.5"/>
<text text-anchor="middle" x="67" y="-673.5" font-family="Helvetica,sans-Serif" font-size="10.00">okw.gui.AnyWinBase</text>
<polyline fill="none" stroke="black" points="0,-666.5 134,-666.5 "/>
<text text-anchor="start" x="8" y="-654.5" font-family="Helvetica,sans-Serif" font-size="10.00">~ myLogger</text>
<text text-anchor="start" x="8" y="-643.5" font-family="Helvetica,sans-Serif" font-size="10.00"># _locator</text>
<text text-anchor="start" x="8" y="-632.5" font-family="Helvetica,sans-Serif" font-size="10.00">&#45; myFN</text>
<text text-anchor="start" x="8" y="-621.5" font-family="Helvetica,sans-Serif" font-size="10.00">&#45; myKN</text>
<text text-anchor="start" x="8" y="-610.5" font-family="Helvetica,sans-Serif" font-size="10.00">&#45; myParentFN</text>
<polyline fill="none" stroke="black" points="0,-603.5 134,-603.5 "/>
<text text-anchor="start" x="8" y="-591.5" font-family="Helvetica,sans-Serif" font-size="10.00">+ getLocator()</text>
<text text-anchor="start" x="8" y="-580.5" font-family="Helvetica,sans-Serif" font-size="10.00">+ getLOCATOR()</text>
<text text-anchor="start" x="8" y="-569.5" font-family="Helvetica,sans-Serif" font-size="10.00">+ getExists()</text>
<text text-anchor="start" x="8" y="-558.5" font-family="Helvetica,sans-Serif" font-size="10.00">+ AnyWinBase()</text>
<text text-anchor="start" x="8" y="-547.5" font-family="Helvetica,sans-Serif" font-size="10.00">+ AnyWinBase()</text>
<text text-anchor="start" x="8" y="-536.5" font-family="Helvetica,sans-Serif" font-size="10.00">+ getFN()</text>
<text text-anchor="start" x="8" y="-525.5" font-family="Helvetica,sans-Serif" font-size="10.00">+ getKN()</text>
<text text-anchor="start" x="8" y="-514.5" font-family="Helvetica,sans-Serif" font-size="10.00">+ getParentFN()</text>
<text text-anchor="start" x="8" y="-503.5" font-family="Helvetica,sans-Serif" font-size="10.00">+ setFN()</text>
<text text-anchor="start" x="8" y="-492.5" font-family="Helvetica,sans-Serif" font-size="10.00">+ setKN()</text>
<text text-anchor="start" x="8" y="-481.5" font-family="Helvetica,sans-Serif" font-size="10.00">+ setParentFN()</text>
<text text-anchor="start" x="8" y="-470.5" font-family="Helvetica,sans-Serif" font-size="10.00"># LogFunctionStartDebug()</text>
<text text-anchor="start" x="8" y="-459.5" font-family="Helvetica,sans-Serif" font-size="10.00"># LogFunctionStartDebug()</text>
<text text-anchor="start" x="8" y="-448.5" font-family="Helvetica,sans-Serif" font-size="10.00"># LogFunctionEndDebug()</text>
<text text-anchor="start" x="8" y="-437.5" font-family="Helvetica,sans-Serif" font-size="10.00"># LogFunctionEndDebug()</text>
<text text-anchor="start" x="8" y="-426.5" font-family="Helvetica,sans-Serif" font-size="10.00"># LogFunctionEndDebug()</text>
<text text-anchor="start" x="8" y="-415.5" font-family="Helvetica,sans-Serif" font-size="10.00"># LogFunctionEndDebug()</text>
</a>
</g>
</g>
<!-- Node2&#45;&gt;Node1 -->
<g id="edge2" class="edge"><title>Node2&#45;&gt;Node1</title>
<path fill="none" stroke="midnightblue" d="M139.397,-414.065C140.602,-412.026 141.803,-410.003 143,-408 150.097,-396.12 157.739,-383.759 165.418,-371.591"/>
<polygon fill="none" stroke="midnightblue" points="136.14,-412.701 134.103,-423.099 142.179,-416.241 136.14,-412.701"/>
</g>
<!-- Node3 -->
<g id="node4" class="node"><title>Node3</title>
<g id="a_node4"><a xlink:href="interfaceokw_1_1gui_1_1_i_g_u_i_window.html" target="_top" xlink:title="{okw.gui.IGUIWindow\n||+ getCaption()\l+ getExists()\l+ getIsActive()\l+ TypeKeyWindow()\l+ SelectWindow()\l+ StartApp()\l+ StopApp()\l+ VerifyWindowExists()\l+ VerifyIsWindowActive()\l+ VerifyWindowCaption()\l}">
<polygon fill="white" stroke="black" points="152,-469 152,-625 280,-625 280,-469 152,-469"/>
<text text-anchor="middle" x="216" y="-613" font-family="Helvetica,sans-Serif" font-size="10.00">okw.gui.IGUIWindow</text>
<polyline fill="none" stroke="black" points="152,-606 280,-606 "/>
<text text-anchor="middle" x="216" y="-594" font-family="Helvetica,sans-Serif" font-size="10.00"> </text>
<polyline fill="none" stroke="black" points="152,-587 280,-587 "/>
<text text-anchor="start" x="160" y="-575" font-family="Helvetica,sans-Serif" font-size="10.00">+ getCaption()</text>
<text text-anchor="start" x="160" y="-564" font-family="Helvetica,sans-Serif" font-size="10.00">+ getExists()</text>
<text text-anchor="start" x="160" y="-553" font-family="Helvetica,sans-Serif" font-size="10.00">+ getIsActive()</text>
<text text-anchor="start" x="160" y="-542" font-family="Helvetica,sans-Serif" font-size="10.00">+ TypeKeyWindow()</text>
<text text-anchor="start" x="160" y="-531" font-family="Helvetica,sans-Serif" font-size="10.00">+ SelectWindow()</text>
<text text-anchor="start" x="160" y="-520" font-family="Helvetica,sans-Serif" font-size="10.00">+ StartApp()</text>
<text text-anchor="start" x="160" y="-509" font-family="Helvetica,sans-Serif" font-size="10.00">+ StopApp()</text>
<text text-anchor="start" x="160" y="-498" font-family="Helvetica,sans-Serif" font-size="10.00">+ VerifyWindowExists()</text>
<text text-anchor="start" x="160" y="-487" font-family="Helvetica,sans-Serif" font-size="10.00">+ VerifyIsWindowActive()</text>
<text text-anchor="start" x="160" y="-476" font-family="Helvetica,sans-Serif" font-size="10.00">+ VerifyWindowCaption()</text>
</a>
</g>
</g>
<!-- Node3&#45;&gt;Node1 -->
<g id="edge3" class="edge"><title>Node3&#45;&gt;Node1</title>
<path fill="none" stroke="midnightblue" d="M219.582,-458.738C220.724,-430.903 221.993,-399.992 223.153,-371.719"/>
<polygon fill="none" stroke="midnightblue" points="216.08,-458.708 219.167,-468.843 223.074,-458.995 216.08,-458.708"/>
</g>
<!-- Node4 -->
<g id="node5" class="node"><title>Node4</title>
<g id="a_node5"><a xlink:href="interfaceokw_1_1core_1_1_i_o_k_w___f_n.html" target="_top" xlink:title="{okw.core.IOKW_FN\n||+ setKN()\l+ setFN()\l+ setParentFN()\l+ getKN()\l+ getFN()\l+ getParentFN()\l}">
<polygon fill="white" stroke="black" points="298.5,-491 298.5,-603 403.5,-603 403.5,-491 298.5,-491"/>
<text text-anchor="middle" x="351" y="-591" font-family="Helvetica,sans-Serif" font-size="10.00">okw.core.IOKW_FN</text>
<polyline fill="none" stroke="black" points="298.5,-584 403.5,-584 "/>
<text text-anchor="middle" x="351" y="-572" font-family="Helvetica,sans-Serif" font-size="10.00"> </text>
<polyline fill="none" stroke="black" points="298.5,-565 403.5,-565 "/>
<text text-anchor="start" x="306.5" y="-553" font-family="Helvetica,sans-Serif" font-size="10.00">+ setKN()</text>
<text text-anchor="start" x="306.5" y="-542" font-family="Helvetica,sans-Serif" font-size="10.00">+ setFN()</text>
<text text-anchor="start" x="306.5" y="-531" font-family="Helvetica,sans-Serif" font-size="10.00">+ setParentFN()</text>
<text text-anchor="start" x="306.5" y="-520" font-family="Helvetica,sans-Serif" font-size="10.00">+ getKN()</text>
<text text-anchor="start" x="306.5" y="-509" font-family="Helvetica,sans-Serif" font-size="10.00">+ getFN()</text>
<text text-anchor="start" x="306.5" y="-498" font-family="Helvetica,sans-Serif" font-size="10.00">+ getParentFN()</text>
</a>
</g>
</g>
<!-- Node4&#45;&gt;Node0 -->
<g id="edge5" class="edge"><title>Node4&#45;&gt;Node0</title>
<path fill="none" stroke="midnightblue" d="M343.976,-480.832C335.609,-407.729 320.187,-285.795 300,-182 297.694,-170.143 294.904,-157.638 292.005,-145.508"/>
<polygon fill="none" stroke="midnightblue" points="340.503,-481.274 345.109,-490.816 347.459,-480.485 340.503,-481.274"/>
</g>
<!-- Node4&#45;&gt;Node1 -->
<g id="edge4" class="edge"><title>Node4&#45;&gt;Node1</title>
<path fill="none" stroke="midnightblue" d="M322.345,-481.408C311.957,-458.208 300.057,-431.881 289,-408 283.537,-396.201 277.735,-383.831 271.957,-371.61"/>
<polygon fill="none" stroke="midnightblue" points="319.27,-483.104 326.547,-490.805 325.66,-480.247 319.27,-483.104"/>
</g>
</g>
</svg>
        <g id="navigator" transform="translate(0 0)" fill="#404254">
                <rect fill="#f2f5e9" fill-opacity="0.5" stroke="#606060" stroke-width=".5" x="0" y="0" width="60" height="60"/>
                <use id="zoomplus" xlink:href="#zoomPlus" x="17" y="9" onmousedown="handleZoom(evt,'in')"/>
                <use id="zoomminus" xlink:href="#zoomMin" x="42" y="9" onmousedown="handleZoom(evt,'out')"/>
                <use id="reset" xlink:href="#resetDef" x="30" y="36" onmousedown="handleReset()"/>
                <g id="arrowUp" xlink:href="#dirArrow" transform="translate(30 24)" onmousedown="handlePan(0,-1)">
                  <use xlink:href="#rim" fill="#404040">
                        <set attributeName="fill" to="#808080" begin="arrowUp.mouseover" end="arrowUp.mouseout"/>
                  </use>
                  <path fill="none" stroke="white" stroke-width="1.5" d="M0,-3.0v7 M-2.5,-0.5L0,-3.0L2.5,-0.5"/>
                </g>
                <g id="arrowRight" xlink:href="#dirArrow" transform="rotate(90) translate(36 -43)" onmousedown="handlePan(1,0)">
                  <use xlink:href="#rim" fill="#404040">
                        <set attributeName="fill" to="#808080" begin="arrowRight.mouseover" end="arrowRight.mouseout"/>
                  </use>
                  <path fill="none" stroke="white" stroke-width="1.5" d="M0,-3.0v7 M-2.5,-0.5L0,-3.0L2.5,-0.5"/>
                </g>
                <g id="arrowDown" xlink:href="#dirArrow" transform="rotate(180) translate(-30 -48)" onmousedown="handlePan(0,1)">
                  <use xlink:href="#rim" fill="#404040">
                        <set attributeName="fill" to="#808080" begin="arrowDown.mouseover" end="arrowDown.mouseout"/>
                  </use>
                  <path fill="none" stroke="white" stroke-width="1.5" d="M0,-3.0v7 M-2.5,-0.5L0,-3.0L2.5,-0.5"/>
                </g>
                <g id="arrowLeft" xlink:href="#dirArrow" transform="rotate(270) translate(-36 17)" onmousedown="handlePan(-1,0)">
                  <use xlink:href="#rim" fill="#404040">
                        <set attributeName="fill" to="#808080" begin="arrowLeft.mouseover" end="arrowLeft.mouseout"/>
                  </use>
                  <path fill="none" stroke="white" stroke-width="1.5" d="M0,-3.0v7 M-2.5,-0.5L0,-3.0L2.5,-0.5"/>
                </g>
        </g>
        <svg viewBox="0 0 15 15" width="100%" height="30px" preserveAspectRatio="xMaxYMin meet">
         <g id="arrow_out" transform="scale(0.3 0.3)">
          <a xlink:href="classokw_1_1gui_1_1frames_1_1frm_window_with_out_methods__inherit__graph_org.svg" target="_base">
           <rect id="button" ry="5" rx="5" y="6" x="6" height="38" width="38"
                fill="#f2f5e9" fill-opacity="0.5" stroke="#606060" stroke-width="1.0"/>
           <path id="arrow"
             d="M 11.500037,31.436501 C 11.940474,20.09759 22.043105,11.32322 32.158766,21.979434 L 37.068811,17.246167 C 37.068811,17.246167 37.088388,32 37.088388,32 L 22.160133,31.978069 C 22.160133,31.978069 26.997745,27.140456 26.997745,27.140456 C 18.528582,18.264221 13.291696,25.230495 11.500037,31.436501 z"
             style="fill:#404040;"/>
          </a>
         </g>
        </svg>
</svg>
