<?xml version="1.0" encoding="UTF-8" standalone="no"?>
<!DOCTYPE svg PUBLIC "-//W3C//DTD SVG 1.1//EN"
 "http://www.w3.org/Graphics/SVG/1.1/DTD/svg11.dtd">
<!-- Generated by graphviz version 2.36.0 (20140111.2315)
 -->
<!-- Title: okw.gui.adapter.selenium.SeAnyWindow.MemorizeLabel Pages: 1 -->
<!--zoomable 317 -->
<svg id="main" version="1.1" xmlns="http://www.w3.org/2000/svg" xmlns:xlink="http://www.w3.org/1999/xlink" xml:space="preserve" onload="init(evt)">
<style type="text/css"><![CDATA[
.edge:hover path { stroke: red; }
.edge:hover polygon { stroke: red; fill: red; }
]]></style>
<script type="text/javascript"><![CDATA[
var edges = document.getElementsByTagName('g');
if (edges && edges.length) {
  for (var i=0;i<edges.length;i++) {
    if (edges[i].id.substr(0,4)=='edge') {
      edges[i].setAttribute('class','edge');
    }
  }
}
]]></script>
        <defs>
                <circle id="rim" cx="0" cy="0" r="7"/>
                <circle id="rim2" cx="0" cy="0" r="3.5"/>
                <g id="zoomPlus">
                        <use xlink:href="#rim" fill="#404040">
                                <set attributeName="fill" to="#808080" begin="zoomplus.mouseover" end="zoomplus.mouseout"/>
                        </use>
                        <path d="M-4,0h8M0,-4v8" fill="none" stroke="white" stroke-width="1.5" pointer-events="none"/>
                </g>
                <g id="zoomMin">
                        <use xlink:href="#rim" fill="#404040">
                                <set attributeName="fill" to="#808080" begin="zoomminus.mouseover" end="zoomminus.mouseout"/>
                        </use>
                        <path d="M-4,0h8" fill="none" stroke="white" stroke-width="1.5" pointer-events="none"/>
                </g>
                <g id="dirArrow">
                        <path fill="none" stroke="white" stroke-width="1.5" d="M0,-3.0v7 M-2.5,-0.5L0,-3.0L2.5,-0.5"/>
                </g>
               <g id="resetDef">
                       <use xlink:href="#rim2" fill="#404040">
                               <set attributeName="fill" to="#808080" begin="reset.mouseover" end="reset.mouseout"/>
                       </use>
               </g>
        </defs>

<script type="text/javascript">
var viewWidth = 1132;
var viewHeight = 317;
var sectionId = 'dynsection-30';
</script>
<script xlink:href="svgpan.js"/>
<svg id="graph" class="graph">
<g id="viewport">
<title>okw.gui.adapter.selenium.SeAnyWindow.MemorizeLabel</title>
<polygon fill="white" stroke="none" points="-4,4 -4,-313 1128,-313 1128,4 -4,4"/>
<!-- Node411 -->
<g id="node1" class="node"><title>Node411</title>
<polygon fill="#bfbfbf" stroke="black" points="0,-163 0,-193 150,-193 150,-163 0,-163"/>
<text text-anchor="start" x="8" y="-181" font-family="Helvetica,sans-Serif" font-size="10.00">okw.gui.adapter.selenium.</text>
<text text-anchor="middle" x="75" y="-170" font-family="Helvetica,sans-Serif" font-size="10.00">SeAnyWindow.MemorizeLabel</text>
</g>
<!-- Node412 -->
<g id="node2" class="node"><title>Node412</title>
<g id="a_node2"><a xlink:href="classokw_1_1gui_1_1adapter_1_1selenium_1_1_se_any_window.html#af08a80081d265dc09e1c7968227d4b15" target="_top" xlink:title="Ermittelt den textuellen Inhalt des Labels. ">
<polygon fill="white" stroke="black" points="186.5,-163 186.5,-193 317.5,-193 317.5,-163 186.5,-163"/>
<text text-anchor="start" x="194.5" y="-181" font-family="Helvetica,sans-Serif" font-size="10.00">okw.gui.adapter.selenium.</text>
<text text-anchor="middle" x="252" y="-170" font-family="Helvetica,sans-Serif" font-size="10.00">SeAnyWindow.getLabel</text>
</a>
</g>
</g>
<!-- Node411&#45;&gt;Node412 -->
<g id="edge1" class="edge"><title>Node411&#45;&gt;Node412</title>
<path fill="none" stroke="midnightblue" d="M150.216,-178C158.853,-178 167.667,-178 176.311,-178"/>
<polygon fill="midnightblue" stroke="midnightblue" points="176.359,-181.5 186.359,-178 176.359,-174.5 176.359,-181.5"/>
</g>
<!-- Node413 -->
<g id="node3" class="node"><title>Node413</title>
<g id="a_node3"><a xlink:href="classokw_1_1gui_1_1adapter_1_1selenium_1_1_se_any_window.html#ad806d20bf0e42d47e0aa5282532d3230" target="_top" xlink:title="Prüft die Existenz des aktuellen Objektes. ">
<polygon fill="white" stroke="black" points="368.5,-139 368.5,-169 499.5,-169 499.5,-139 368.5,-139"/>
<text text-anchor="start" x="376.5" y="-157" font-family="Helvetica,sans-Serif" font-size="10.00">okw.gui.adapter.selenium.</text>
<text text-anchor="middle" x="434" y="-146" font-family="Helvetica,sans-Serif" font-size="10.00">SeAnyWindow.getExists</text>
</a>
</g>
</g>
<!-- Node412&#45;&gt;Node413 -->
<g id="edge2" class="edge"><title>Node412&#45;&gt;Node413</title>
<path fill="none" stroke="midnightblue" d="M317.73,-169.369C330.821,-167.624 344.689,-165.775 358.097,-163.987"/>
<polygon fill="midnightblue" stroke="midnightblue" points="358.79,-167.426 368.24,-162.635 357.865,-160.487 358.79,-167.426"/>
</g>
<!-- Node416 -->
<g id="node6" class="node"><title>Node416</title>
<g id="a_node6"><a xlink:href="classokw_1_1gui_1_1adapter_1_1selenium_1_1webdriver_1_1_se_driver.html#aee9e3f8a67f4ad1f8100a33ba71c926e" target="_top" xlink:title="Gibt die Instance für die einzige Instanz dieser Klasse zurück. ">
<polygon fill="white" stroke="black" points="550,-230 550,-260 726,-260 726,-230 550,-230"/>
<text text-anchor="start" x="558" y="-248" font-family="Helvetica,sans-Serif" font-size="10.00">okw.gui.adapter.selenium.webdriver.</text>
<text text-anchor="middle" x="638" y="-237" font-family="Helvetica,sans-Serif" font-size="10.00">SeDriver.getInstance</text>
</a>
</g>
</g>
<!-- Node412&#45;&gt;Node416 -->
<g id="edge20" class="edge"><title>Node412&#45;&gt;Node416</title>
<path fill="none" stroke="midnightblue" d="M277.271,-193.115C297.106,-204.628 326.296,-219.701 354,-227 414.391,-242.911 484.421,-247.473 539.708,-248.027"/>
<polygon fill="midnightblue" stroke="midnightblue" points="539.834,-251.527 549.854,-248.085 539.875,-244.528 539.834,-251.527"/>
</g>
<!-- Node422 -->
<g id="node12" class="node"><title>Node422</title>
<g id="a_node12"><a xlink:href="classokw_1_1_log_messenger.html#af225d1f037d47b3b085175c09d78bdd2" target="_top" xlink:title="Holt die Log&#45;Meldung für MethodeNmae/Textkey ohne weitere Parameter. ">
<polygon fill="white" stroke="black" points="354,-53.5 354,-72.5 514,-72.5 514,-53.5 354,-53.5"/>
<text text-anchor="middle" x="434" y="-60.5" font-family="Helvetica,sans-Serif" font-size="10.00">okw.LogMessenger.GetMessage</text>
</a>
</g>
</g>
<!-- Node412&#45;&gt;Node422 -->
<g id="edge11" class="edge"><title>Node412&#45;&gt;Node422</title>
<path fill="none" stroke="midnightblue" d="M276.532,-162.966C310.998,-140.946 374.849,-100.152 409.371,-78.0965"/>
<polygon fill="midnightblue" stroke="midnightblue" points="411.338,-80.9928 417.881,-72.6594 407.57,-75.0939 411.338,-80.9928"/>
</g>
<!-- Node425 -->
<g id="node15" class="node"><title>Node425</title>
<g id="a_node15"><a xlink:href="classokw_1_1gui_1_1adapter_1_1selenium_1_1_se_any_window.html#a8b42bf27f4660b4807375a57fa9de815" target="_top" xlink:title="Ermittelt aus dem gegebenen Locator das DOM&#45;Elelement, welches das Objekt representiert. ">
<polygon fill="white" stroke="black" points="368.5,-188 368.5,-218 499.5,-218 499.5,-188 368.5,-188"/>
<text text-anchor="start" x="376.5" y="-206" font-family="Helvetica,sans-Serif" font-size="10.00">okw.gui.adapter.selenium.</text>
<text text-anchor="middle" x="434" y="-195" font-family="Helvetica,sans-Serif" font-size="10.00">SeAnyWindow.Me</text>
</a>
</g>
</g>
<!-- Node412&#45;&gt;Node425 -->
<g id="edge14" class="edge"><title>Node412&#45;&gt;Node425</title>
<path fill="none" stroke="midnightblue" d="M317.73,-186.99C330.821,-188.809 344.689,-190.735 358.097,-192.597"/>
<polygon fill="midnightblue" stroke="midnightblue" points="357.853,-196.096 368.24,-194.006 358.816,-189.163 357.853,-196.096"/>
</g>
<!-- Node414 -->
<g id="node4" class="node"><title>Node414</title>
<g id="a_node4"><a xlink:href="classokw_1_1gui_1_1_any_win_base.html#a9929f6fae1f4e2c20df79d32d5bc79db" target="_top" xlink:title="Holt den vollständig (rekursiv) aufgelösten (z.B. ">
<polygon fill="white" stroke="black" points="558.5,-191.5 558.5,-210.5 717.5,-210.5 717.5,-191.5 558.5,-191.5"/>
<text text-anchor="middle" x="638" y="-198.5" font-family="Helvetica,sans-Serif" font-size="10.00">okw.gui.AnyWinBase.getLocator</text>
</a>
</g>
</g>
<!-- Node413&#45;&gt;Node414 -->
<g id="edge3" class="edge"><title>Node413&#45;&gt;Node414</title>
<path fill="none" stroke="midnightblue" d="M498.858,-169.048C515.502,-172.955 533.42,-177.148 550,-181 561.442,-183.658 573.736,-186.496 585.373,-189.173"/>
<polygon fill="midnightblue" stroke="midnightblue" points="584.863,-192.647 595.393,-191.477 586.431,-185.825 584.863,-192.647"/>
</g>
<!-- Node413&#45;&gt;Node416 -->
<g id="edge5" class="edge"><title>Node413&#45;&gt;Node416</title>
<path fill="none" stroke="midnightblue" d="M494.848,-169.045C501.56,-171.853 508.097,-175.147 514,-179 534.306,-192.256 529.519,-207.016 550,-220 553.339,-222.117 556.862,-224.059 560.5,-225.84"/>
<polygon fill="midnightblue" stroke="midnightblue" points="559.183,-229.085 569.743,-229.946 562.024,-222.688 559.183,-229.085"/>
</g>
<!-- Node417 -->
<g id="node7" class="node"><title>Node417</title>
<g id="a_node7"><a xlink:href="classokw_1_1gui_1_1adapter_1_1selenium_1_1webdriver_1_1_se_driver.html#a3505c2c7aba67399be71f26d15489839" target="_top" xlink:title="Ermittelt das Webelement mit der gegebenen frameID und dem gegebenen Locator. ">
<polygon fill="white" stroke="black" points="550,-142 550,-172 726,-172 726,-142 550,-142"/>
<text text-anchor="start" x="558" y="-160" font-family="Helvetica,sans-Serif" font-size="10.00">okw.gui.adapter.selenium.webdriver.</text>
<text text-anchor="middle" x="638" y="-149" font-family="Helvetica,sans-Serif" font-size="10.00">SeDriver.getElements</text>
</a>
</g>
</g>
<!-- Node413&#45;&gt;Node417 -->
<g id="edge6" class="edge"><title>Node413&#45;&gt;Node417</title>
<path fill="none" stroke="midnightblue" d="M499.748,-154.962C512.438,-155.15 526.008,-155.352 539.496,-155.552"/>
<polygon fill="midnightblue" stroke="midnightblue" points="539.727,-159.056 549.778,-155.705 539.831,-152.056 539.727,-159.056"/>
</g>
<!-- Node420 -->
<g id="node10" class="node"><title>Node420</title>
<g id="a_node10"><a xlink:href="classokw_1_1log_1_1_logger___sngltn.html#a2c15e9b2cd0c6266f4c67b8cb00d92e5" target="_top" xlink:title="LogWarning Function: Logs a warning to the results file. ">
<polygon fill="white" stroke="black" points="571,-44 571,-74 705,-74 705,-44 571,-44"/>
<text text-anchor="start" x="579" y="-62" font-family="Helvetica,sans-Serif" font-size="10.00">okw.log.Logger_Sngltn.Log</text>
<text text-anchor="middle" x="638" y="-51" font-family="Helvetica,sans-Serif" font-size="10.00">Warning</text>
</a>
</g>
</g>
<!-- Node413&#45;&gt;Node420 -->
<g id="edge9" class="edge"><title>Node413&#45;&gt;Node420</title>
<path fill="none" stroke="midnightblue" d="M455.623,-138.749C477.905,-122.89 514.941,-98.2852 550,-83 554.639,-80.9776 559.492,-79.0835 564.431,-77.3175"/>
<polygon fill="midnightblue" stroke="midnightblue" points="565.652,-80.5995 574.003,-74.0793 563.408,-73.9687 565.652,-80.5995"/>
</g>
<!-- Node421 -->
<g id="node11" class="node"><title>Node421</title>
<g id="a_node11"><a xlink:href="classokw_1_1log_1_1_logger___sngltn.html#a313f97c79ba4662d9daaf7f537dd02f4" target="_top" xlink:title="Loggt eine Nachricht. ">
<polygon fill="white" stroke="black" points="571,-93 571,-123 705,-123 705,-93 571,-93"/>
<text text-anchor="start" x="579" y="-111" font-family="Helvetica,sans-Serif" font-size="10.00">okw.log.Logger_Sngltn.Log</text>
<text text-anchor="middle" x="638" y="-100" font-family="Helvetica,sans-Serif" font-size="10.00">PrintDebug</text>
</a>
</g>
</g>
<!-- Node413&#45;&gt;Node421 -->
<g id="edge10" class="edge"><title>Node413&#45;&gt;Node421</title>
<path fill="none" stroke="midnightblue" d="M499.748,-139.256C519.284,-134.807 540.907,-129.882 561.101,-125.284"/>
<polygon fill="midnightblue" stroke="midnightblue" points="561.911,-128.689 570.884,-123.056 560.357,-121.864 561.911,-128.689"/>
</g>
<!-- Node415 -->
<g id="node5" class="node"><title>Node415</title>
<g id="a_node5"><a xlink:href="classokw_1_1gui_1_1_o_k_w_locator.html#adc74fc2125dd048dc1cb84e011f47ec8" target="_top" xlink:title="Holt den vollständig (rekursiv) aufgelösten (z.B. ">
<polygon fill="white" stroke="black" points="771,-191.5 771,-210.5 929,-210.5 929,-191.5 771,-191.5"/>
<text text-anchor="middle" x="850" y="-198.5" font-family="Helvetica,sans-Serif" font-size="10.00">okw.gui.OKWLocator.getLocator</text>
</a>
</g>
</g>
<!-- Node414&#45;&gt;Node415 -->
<g id="edge4" class="edge"><title>Node414&#45;&gt;Node415</title>
<path fill="none" stroke="midnightblue" d="M717.794,-201C731.748,-201 746.362,-201 760.561,-201"/>
<polygon fill="midnightblue" stroke="midnightblue" points="760.812,-204.5 770.812,-201 760.812,-197.5 760.812,-204.5"/>
</g>
<!-- Node418 -->
<g id="node8" class="node"><title>Node418</title>
<g id="a_node8"><a xlink:href="classokw_1_1gui_1_1adapter_1_1selenium_1_1webdriver_1_1_se_driver.html#a47eec72c911c05beb2127672daafb325" target="_top" xlink:title="Wechselt das aktuelle Frame auf das Frame mit der id=iframeID. ">
<polygon fill="white" stroke="black" points="762,-230 762,-260 938,-260 938,-230 762,-230"/>
<text text-anchor="start" x="770" y="-248" font-family="Helvetica,sans-Serif" font-size="10.00">okw.gui.adapter.selenium.webdriver.</text>
<text text-anchor="middle" x="850" y="-237" font-family="Helvetica,sans-Serif" font-size="10.00">SeDriver.swichToFrame</text>
</a>
</g>
</g>
<!-- Node417&#45;&gt;Node418 -->
<g id="edge7" class="edge"><title>Node417&#45;&gt;Node418</title>
<path fill="none" stroke="midnightblue" d="M705.658,-172.111C712.761,-174.894 719.688,-178.164 726,-182 745.881,-194.083 742.119,-207.917 762,-220 765.452,-222.098 769.088,-224.027 772.835,-225.799"/>
<polygon fill="midnightblue" stroke="midnightblue" points="771.773,-229.152 782.342,-229.889 774.539,-222.722 771.773,-229.152"/>
</g>
<!-- Node419 -->
<g id="node9" class="node"><title>Node419</title>
<g id="a_node9"><a xlink:href="classokw_1_1_o_k_w___helper.html#a3a7ba0f42b29adf70574830688e72e4a" target="_top" xlink:title="Prüft ob der gegeben String fpsStrin null oder leer (&quot;&quot;) ist. ">
<polygon fill="white" stroke="black" points="974.5,-230 974.5,-260 1123.5,-260 1123.5,-230 974.5,-230"/>
<text text-anchor="start" x="982.5" y="-248" font-family="Helvetica,sans-Serif" font-size="10.00">okw.OKW_Helper.isStringNull</text>
<text text-anchor="middle" x="1049" y="-237" font-family="Helvetica,sans-Serif" font-size="10.00">OrEmpty</text>
</a>
</g>
</g>
<!-- Node418&#45;&gt;Node419 -->
<g id="edge8" class="edge"><title>Node418&#45;&gt;Node419</title>
<path fill="none" stroke="midnightblue" d="M938.267,-245C946.922,-245 955.694,-245 964.311,-245"/>
<polygon fill="midnightblue" stroke="midnightblue" points="964.34,-248.5 974.34,-245 964.34,-241.5 964.34,-248.5"/>
</g>
<!-- Node423 -->
<g id="node13" class="node"><title>Node423</title>
<g id="a_node13"><a xlink:href="classokw_1_1_log_messenger.html#a530cd6ab82ec82a04206a2e976ec06e3" target="_top" xlink:title="Interne Kernfunktion holt die Log&#45;Meldung mit Platzhaltern aus der XML&#45;Datei. ">
<polygon fill="white" stroke="black" points="554.5,-5.5 554.5,-24.5 721.5,-24.5 721.5,-5.5 554.5,-5.5"/>
<text text-anchor="middle" x="638" y="-12.5" font-family="Helvetica,sans-Serif" font-size="10.00">okw.LogMessenger.ReadMessage</text>
</a>
</g>
</g>
<!-- Node422&#45;&gt;Node423 -->
<g id="edge12" class="edge"><title>Node422&#45;&gt;Node423</title>
<path fill="none" stroke="midnightblue" d="M471.441,-53.4935C494.02,-47.682 523.643,-40.1996 550,-34 560.264,-31.5857 571.234,-29.1092 581.806,-26.775"/>
<polygon fill="midnightblue" stroke="midnightblue" points="582.765,-30.148 591.783,-24.5874 581.266,-23.3104 582.765,-30.148"/>
</g>
<!-- Node424 -->
<g id="node14" class="node"><title>Node424</title>
<g id="a_node14"><a xlink:href="classokw_1_1_o_k_w___xml_reader.html#ab920b5335a2e1429c14cc5f8e79f39eb" target="_top" xlink:title="Lies den TextContent eines Tag. ">
<polygon fill="white" stroke="black" points="774,-0 774,-30 926,-30 926,-0 774,-0"/>
<text text-anchor="start" x="782" y="-18" font-family="Helvetica,sans-Serif" font-size="10.00">okw.OKW_XmlReader.getText</text>
<text text-anchor="middle" x="850" y="-7" font-family="Helvetica,sans-Serif" font-size="10.00">ContentSingleValue</text>
</a>
</g>
</g>
<!-- Node423&#45;&gt;Node424 -->
<g id="edge13" class="edge"><title>Node423&#45;&gt;Node424</title>
<path fill="none" stroke="midnightblue" d="M721.696,-15C735.55,-15 749.947,-15 763.861,-15"/>
<polygon fill="midnightblue" stroke="midnightblue" points="763.893,-18.5001 773.893,-15 763.893,-11.5001 763.893,-18.5001"/>
</g>
<!-- Node425&#45;&gt;Node414 -->
<g id="edge19" class="edge"><title>Node425&#45;&gt;Node414</title>
<path fill="none" stroke="midnightblue" d="M499.748,-202.359C515.229,-202.206 532.021,-202.039 548.373,-201.877"/>
<polygon fill="midnightblue" stroke="midnightblue" points="548.518,-205.376 558.482,-201.777 548.448,-198.377 548.518,-205.376"/>
</g>
<!-- Node425&#45;&gt;Node416 -->
<g id="edge15" class="edge"><title>Node425&#45;&gt;Node416</title>
<path fill="none" stroke="midnightblue" d="M499.748,-216.462C517.176,-220.086 536.266,-224.055 554.52,-227.851"/>
<polygon fill="midnightblue" stroke="midnightblue" points="554.056,-231.329 564.559,-229.938 555.481,-224.475 554.056,-231.329"/>
</g>
<!-- Node426 -->
<g id="node16" class="node"><title>Node426</title>
<g id="a_node16"><a xlink:href="classokw_1_1gui_1_1adapter_1_1selenium_1_1webdriver_1_1_se_driver.html#a6d879107786a94ebbdbd42b4ac6c6acf" target="_top" xlink:title="Ermittelt das Webelement mit der gegebenen frameID und dem gegebenen Locator. ">
<polygon fill="white" stroke="black" points="550,-279 550,-309 726,-309 726,-279 550,-279"/>
<text text-anchor="start" x="558" y="-297" font-family="Helvetica,sans-Serif" font-size="10.00">okw.gui.adapter.selenium.webdriver.</text>
<text text-anchor="middle" x="638" y="-286" font-family="Helvetica,sans-Serif" font-size="10.00">SeDriver.getElement</text>
</a>
</g>
</g>
<!-- Node425&#45;&gt;Node426 -->
<g id="edge16" class="edge"><title>Node425&#45;&gt;Node426</title>
<path fill="none" stroke="midnightblue" d="M457.502,-218.101C480.095,-232.728 516.294,-254.733 550,-269 555.698,-271.412 561.702,-273.674 567.782,-275.774"/>
<polygon fill="midnightblue" stroke="midnightblue" points="566.774,-279.127 577.367,-278.94 568.969,-272.48 566.774,-279.127"/>
</g>
<!-- Node426&#45;&gt;Node418 -->
<g id="edge17" class="edge"><title>Node426&#45;&gt;Node418</title>
<path fill="none" stroke="midnightblue" d="M703.434,-278.965C726.01,-273.698 751.543,-267.74 774.85,-262.302"/>
<polygon fill="midnightblue" stroke="midnightblue" points="775.745,-265.687 784.688,-260.006 774.154,-258.87 775.745,-265.687"/>
</g>
<!-- Node427 -->
<g id="node17" class="node"><title>Node427</title>
<g id="a_node17"><a xlink:href="classokw_1_1log_1_1_logger___sngltn.html#a8ebceaddd6cc6963ddb8e08c72ea808c" target="_top" xlink:title="LogPrint Function: Prints the values of expressions to the results file. ">
<polygon fill="white" stroke="black" points="783,-279 783,-309 917,-309 917,-279 783,-279"/>
<text text-anchor="start" x="791" y="-297" font-family="Helvetica,sans-Serif" font-size="10.00">okw.log.Logger_Sngltn.Log</text>
<text text-anchor="middle" x="850" y="-286" font-family="Helvetica,sans-Serif" font-size="10.00">Print</text>
</a>
</g>
</g>
<!-- Node426&#45;&gt;Node427 -->
<g id="edge18" class="edge"><title>Node426&#45;&gt;Node427</title>
<path fill="none" stroke="midnightblue" d="M726.235,-294C741.617,-294 757.523,-294 772.58,-294"/>
<polygon fill="midnightblue" stroke="midnightblue" points="772.852,-297.5 782.852,-294 772.852,-290.5 772.852,-297.5"/>
</g>
</g>
</svg>
        <g id="navigator" transform="translate(0 0)" fill="#404254">
                <rect fill="#f2f5e9" fill-opacity="0.5" stroke="#606060" stroke-width=".5" x="0" y="0" width="60" height="60"/>
                <use id="zoomplus" xlink:href="#zoomPlus" x="17" y="9" onmousedown="handleZoom(evt,'in')"/>
                <use id="zoomminus" xlink:href="#zoomMin" x="42" y="9" onmousedown="handleZoom(evt,'out')"/>
                <use id="reset" xlink:href="#resetDef" x="30" y="36" onmousedown="handleReset()"/>
                <g id="arrowUp" xlink:href="#dirArrow" transform="translate(30 24)" onmousedown="handlePan(0,-1)">
                  <use xlink:href="#rim" fill="#404040">
                        <set attributeName="fill" to="#808080" begin="arrowUp.mouseover" end="arrowUp.mouseout"/>
                  </use>
                  <path fill="none" stroke="white" stroke-width="1.5" d="M0,-3.0v7 M-2.5,-0.5L0,-3.0L2.5,-0.5"/>
                </g>
                <g id="arrowRight" xlink:href="#dirArrow" transform="rotate(90) translate(36 -43)" onmousedown="handlePan(1,0)">
                  <use xlink:href="#rim" fill="#404040">
                        <set attributeName="fill" to="#808080" begin="arrowRight.mouseover" end="arrowRight.mouseout"/>
                  </use>
                  <path fill="none" stroke="white" stroke-width="1.5" d="M0,-3.0v7 M-2.5,-0.5L0,-3.0L2.5,-0.5"/>
                </g>
                <g id="arrowDown" xlink:href="#dirArrow" transform="rotate(180) translate(-30 -48)" onmousedown="handlePan(0,1)">
                  <use xlink:href="#rim" fill="#404040">
                        <set attributeName="fill" to="#808080" begin="arrowDown.mouseover" end="arrowDown.mouseout"/>
                  </use>
                  <path fill="none" stroke="white" stroke-width="1.5" d="M0,-3.0v7 M-2.5,-0.5L0,-3.0L2.5,-0.5"/>
                </g>
                <g id="arrowLeft" xlink:href="#dirArrow" transform="rotate(270) translate(-36 17)" onmousedown="handlePan(-1,0)">
                  <use xlink:href="#rim" fill="#404040">
                        <set attributeName="fill" to="#808080" begin="arrowLeft.mouseover" end="arrowLeft.mouseout"/>
                  </use>
                  <path fill="none" stroke="white" stroke-width="1.5" d="M0,-3.0v7 M-2.5,-0.5L0,-3.0L2.5,-0.5"/>
                </g>
        </g>
        <svg viewBox="0 0 15 15" width="100%" height="30px" preserveAspectRatio="xMaxYMin meet">
         <g id="arrow_out" transform="scale(0.3 0.3)">
          <a xlink:href="classokw_1_1gui_1_1adapter_1_1selenium_1_1_se_any_window_a26e0e12d54e793e6cb084161d22d173e_cgraph_org.svg" target="_base">
           <rect id="button" ry="5" rx="5" y="6" x="6" height="38" width="38"
                fill="#f2f5e9" fill-opacity="0.5" stroke="#606060" stroke-width="1.0"/>
           <path id="arrow"
             d="M 11.500037,31.436501 C 11.940474,20.09759 22.043105,11.32322 32.158766,21.979434 L 37.068811,17.246167 C 37.068811,17.246167 37.088388,32 37.088388,32 L 22.160133,31.978069 C 22.160133,31.978069 26.997745,27.140456 26.997745,27.140456 C 18.528582,18.264221 13.291696,25.230495 11.500037,31.436501 z"
             style="fill:#404040;"/>
          </a>
         </g>
        </svg>
</svg>
