<?xml version="1.0" encoding="UTF-8" standalone="no"?>
<!DOCTYPE svg PUBLIC "-//W3C//DTD SVG 1.1//EN"
 "http://www.w3.org/Graphics/SVG/1.1/DTD/svg11.dtd">
<!-- Generated by graphviz version 2.26.3 (20100126.1600)
 -->
<!-- Title: okw.core.EN_OKWNotAllowedValueException_Keywords_IGNORE.tcVerifySelectedValueIGNORE1 Pages: 1 -->
<!--zoomable 318 -->
<svg id="main" version="1.1" xmlns="http://www.w3.org/2000/svg" xmlns:xlink="http://www.w3.org/1999/xlink" xml:space="preserve" onload="init(evt)">
<style type="text/css"><![CDATA[
.edge:hover path { stroke: red; }
.edge:hover polygon { stroke: red; fill: red; }
]]></style>
<script type="text/javascript"><![CDATA[
var edges = document.getElementsByTagName('g');
if (edges && edges.length) {
  for (var i=0;i<edges.length;i++) {
    if (edges[i].id.substr(0,4)=='edge') {
      edges[i].setAttribute('class','edge');
    }
  }
}
]]></script>
        <defs>
                <circle id="rim" cx="0" cy="0" r="7"/>
                <circle id="rim2" cx="0" cy="0" r="3.5"/>
                <g id="zoomPlus">
                        <use xlink:href="#rim" fill="#404040">
                                <set attributeName="fill" to="#808080" begin="zoomplus.mouseover" end="zoomplus.mouseout"/>
                        </use>
                        <path d="M-4,0h8M0,-4v8" fill="none" stroke="white" stroke-width="1.5" pointer-events="none"/>
                </g>
                <g id="zoomMin">
                        <use xlink:href="#rim" fill="#404040">
                                <set attributeName="fill" to="#808080" begin="zoomminus.mouseover" end="zoomminus.mouseout"/>
                        </use>
                        <path d="M-4,0h8" fill="none" stroke="white" stroke-width="1.5" pointer-events="none"/>
                </g>
                <g id="dirArrow">
                        <path fill="none" stroke="white" stroke-width="1.5" d="M0,-3.0v7 M-2.5,-0.5L0,-3.0L2.5,-0.5"/>
                </g>
               <g id="resetDef">
                       <use xlink:href="#rim2" fill="#404040">
                               <set attributeName="fill" to="#808080" begin="reset.mouseover" end="reset.mouseout"/>
                       </use>
               </g>
        </defs>

<script type="text/javascript">
var viewWidth = 1176;
var viewHeight = 318;
var sectionId = 'dynsection-49';
</script>
<script xlink:href="svgpan.js"/>
<svg id="graph" class="graph">
<g id="viewport">
<title>okw.core.EN_OKWNotAllowedValueException_Keywords_IGNORE.tcVerifySelectedValueIGNORE1</title>
<polygon fill="white" stroke="white" points="-4,5 -4,-314 1173,-314 1173,5 -4,5"/>
<!-- Node864 -->
<g id="node1" class="node"><title>Node864</title>
<polygon fill="#bfbfbf" stroke="black" points="0,-106.5 0,-153.5 206,-153.5 206,-106.5 0,-106.5"/>
<text text-anchor="start" x="8" y="-140.5" font-family="Helvetica,sans-Serif" font-size="10.00">okw.core.EN_OKWNotAllowed</text>
<text text-anchor="start" x="8" y="-127.5" font-family="Helvetica,sans-Serif" font-size="10.00">ValueException_Keywords</text>
<text text-anchor="middle" x="103" y="-114.5" font-family="Helvetica,sans-Serif" font-size="10.00">_IGNORE.tcVerifySelectedValueIGNORE1</text>
</g>
<!-- Node865 -->
<g id="node3" class="node"><title>Node865</title>
<a xlink:href="classokw_1_1core_1_1_e_n.html#aef613b0a3e6bb8a9623984db145cae69" target="_top" xlink:title="Markiert den Anfang eines neuen Testfalls. ">
<polygon fill="white" stroke="black" points="251.5,-73.5 251.5,-94.5 372.5,-94.5 372.5,-73.5 251.5,-73.5"/>
<text text-anchor="middle" x="312" y="-81.5" font-family="Helvetica,sans-Serif" font-size="10.00">okw.core.EN.BeginTest</text>
</a>
</g>
<!-- Node864&#45;&gt;Node865 -->
<g id="edge2" class="edge"><title>Node864&#45;&gt;Node865</title>
<path fill="none" stroke="midnightblue" d="M206.275,-107.27C222.737,-103.647 239.238,-100.015 254.146,-96.7334"/>
<polygon fill="midnightblue" stroke="midnightblue" points="255.179,-100.09 264.192,-94.5222 253.674,-93.2536 255.179,-100.09"/>
</g>
<!-- Node871 -->
<g id="node15" class="node"><title>Node871</title>
<a xlink:href="classokw_1_1core_1_1_e_n.html#a2b61c2b39a9cfdbdfd25fe0e3d43785b" target="_top" xlink:title="Setzt den Kontext auf das gegebene Fenster. ">
<polygon fill="white" stroke="black" points="242,-165.5 242,-186.5 382,-186.5 382,-165.5 242,-165.5"/>
<text text-anchor="middle" x="312" y="-173.5" font-family="Helvetica,sans-Serif" font-size="10.00">okw.core.EN.SelectWindow</text>
</a>
</g>
<!-- Node864&#45;&gt;Node871 -->
<g id="edge14" class="edge"><title>Node864&#45;&gt;Node871</title>
<path fill="none" stroke="midnightblue" d="M206.275,-152.73C222.737,-156.353 239.238,-159.985 254.146,-163.267"/>
<polygon fill="midnightblue" stroke="midnightblue" points="253.674,-166.746 264.192,-165.478 255.179,-159.91 253.674,-166.746"/>
</g>
<!-- Node878 -->
<g id="node30" class="node"><title>Node878</title>
<a xlink:href="classokw_1_1core_1_1_e_n.html#a535232918db76d11b92e1c00d24e228b" target="_top" xlink:title="Vergleicht den ausgewählten Wert des gegebenen Listenobjekts mit dem erwarteten Wert. ">
<polygon fill="white" stroke="black" points="242,-113 242,-147 382,-147 382,-113 242,-113"/>
<text text-anchor="start" x="250" y="-134" font-family="Helvetica,sans-Serif" font-size="10.00">okw.core.EN.VerifySelected</text>
<text text-anchor="middle" x="312" y="-121" font-family="Helvetica,sans-Serif" font-size="10.00">Value</text>
</a>
</g>
<!-- Node864&#45;&gt;Node878 -->
<g id="edge30" class="edge"><title>Node864&#45;&gt;Node878</title>
<path fill="none" stroke="midnightblue" d="M206.275,-130C214.83,-130 223.395,-130 231.742,-130"/>
<polygon fill="midnightblue" stroke="midnightblue" points="231.8,-133.5 241.8,-130 231.8,-126.5 231.8,-133.5"/>
</g>
<!-- Node866 -->
<g id="node5" class="node"><title>Node866</title>
<a xlink:href="classokw_1_1core_1_1_core.html#ab4e0f723d27cb11c944ec4c82c426100" target="_top" xlink:title="Setzt die Sprache auf den gegebenen wert Language. ">
<polygon fill="white" stroke="black" points="422.5,-95.5 422.5,-116.5 561.5,-116.5 561.5,-95.5 422.5,-95.5"/>
<text text-anchor="middle" x="492" y="-103.5" font-family="Helvetica,sans-Serif" font-size="10.00">okw.core.Core.setLanguage</text>
</a>
</g>
<!-- Node865&#45;&gt;Node866 -->
<g id="edge4" class="edge"><title>Node865&#45;&gt;Node866</title>
<path fill="none" stroke="midnightblue" d="M372.689,-91.4175C385.376,-92.9682 398.937,-94.6256 412.197,-96.2464"/>
<polygon fill="midnightblue" stroke="midnightblue" points="411.91,-99.7371 422.26,-97.4763 412.759,-92.7888 411.91,-99.7371"/>
</g>
<!-- Node868 -->
<g id="node9" class="node"><title>Node868</title>
<a xlink:href="classokw_1_1core_1_1_core.html#acfefe92468c9eb9e951846372726c4d8" target="_top" xlink:title="Markiert den Anfang eines neuen Testfalls. ">
<polygon fill="white" stroke="black" points="428,-52.5 428,-73.5 556,-73.5 556,-52.5 428,-52.5"/>
<text text-anchor="middle" x="492" y="-60.5" font-family="Helvetica,sans-Serif" font-size="10.00">okw.core.Core.BeginTest</text>
</a>
</g>
<!-- Node865&#45;&gt;Node868 -->
<g id="edge8" class="edge"><title>Node865&#45;&gt;Node868</title>
<path fill="none" stroke="midnightblue" d="M372.689,-76.9196C387.118,-75.2362 402.675,-73.4212 417.638,-71.6756"/>
<polygon fill="midnightblue" stroke="midnightblue" points="418.353,-75.1159 427.88,-70.4806 417.542,-68.1631 418.353,-75.1159"/>
</g>
<!-- Node867 -->
<g id="node7" class="node"><title>Node867</title>
<a xlink:href="interfaceokw_1_1core_1_1_i_o_k_w___state.html#a866baa0bde08a47418f54d63bdb56097" target="_top" xlink:title="Interne Methode zum setzen der Sprache für die sprachabhängigen Ausgaben der Dokumentation (Log)...">
<polygon fill="white" stroke="black" points="602.5,-92.5 602.5,-113.5 775.5,-113.5 775.5,-92.5 602.5,-92.5"/>
<text text-anchor="middle" x="689" y="-100.5" font-family="Helvetica,sans-Serif" font-size="10.00">okw.core.IOKW_State.setLanguage</text>
</a>
</g>
<!-- Node866&#45;&gt;Node867 -->
<g id="edge6" class="edge"><title>Node866&#45;&gt;Node867</title>
<path fill="none" stroke="midnightblue" d="M561.732,-104.938C571.611,-104.788 581.913,-104.631 592.19,-104.474"/>
<polygon fill="midnightblue" stroke="midnightblue" points="592.497,-107.97 602.442,-104.318 592.39,-100.971 592.497,-107.97"/>
</g>
<!-- Node869 -->
<g id="node11" class="node"><title>Node869</title>
<a xlink:href="classokw_1_1log_1_1_logger___sngltn.html#a60f4ad59db847ae61df928f9920f3deb" target="_top" xlink:title="Ausgabe des Testfalls. ">
<polygon fill="white" stroke="black" points="622,-0 622,-34 756,-34 756,-0 622,-0"/>
<text text-anchor="start" x="630" y="-21" font-family="Helvetica,sans-Serif" font-size="10.00">okw.log.Logger_Sngltn.Log</text>
<text text-anchor="middle" x="689" y="-8" font-family="Helvetica,sans-Serif" font-size="10.00">TestcaseStart</text>
</a>
</g>
<!-- Node868&#45;&gt;Node869 -->
<g id="edge10" class="edge"><title>Node868&#45;&gt;Node869</title>
<path fill="none" stroke="midnightblue" d="M537.196,-52.4467C559.359,-47.2716 586.673,-40.8935 611.996,-34.9807"/>
<polygon fill="midnightblue" stroke="midnightblue" points="613.016,-38.3367 621.958,-32.6545 611.424,-31.5201 613.016,-38.3367"/>
</g>
<!-- Node870 -->
<g id="node13" class="node"><title>Node870</title>
<a xlink:href="interfaceokw_1_1core_1_1_i_o_k_w___state.html#ae5480ddb1fc37eade5d899d335bc4b13" target="_top" xlink:title="Markiert den Anfang eines neuen Testfalls. ">
<polygon fill="white" stroke="black" points="608,-52.5 608,-73.5 770,-73.5 770,-52.5 608,-52.5"/>
<text text-anchor="middle" x="689" y="-60.5" font-family="Helvetica,sans-Serif" font-size="10.00">okw.core.IOKW_State.BeginTest</text>
</a>
</g>
<!-- Node868&#45;&gt;Node870 -->
<g id="edge12" class="edge"><title>Node868&#45;&gt;Node870</title>
<path fill="none" stroke="midnightblue" d="M556.233,-63C569.514,-63 583.746,-63 597.779,-63"/>
<polygon fill="midnightblue" stroke="midnightblue" points="597.946,-66.5001 607.946,-63 597.946,-59.5001 597.946,-66.5001"/>
</g>
<!-- Node871&#45;&gt;Node866 -->
<g id="edge16" class="edge"><title>Node871&#45;&gt;Node866</title>
<path fill="none" stroke="midnightblue" d="M352.677,-165.482C362.375,-162.671 372.629,-159.447 382,-156 409.783,-145.781 440.361,-131.635 462.21,-120.996"/>
<polygon fill="midnightblue" stroke="midnightblue" points="463.869,-124.081 471.299,-116.528 460.781,-117.799 463.869,-124.081"/>
</g>
<!-- Node872 -->
<g id="node18" class="node"><title>Node872</title>
<a xlink:href="classokw_1_1core_1_1_core.html#a6a68660eb5e34965522896e2a5c48314" target="_top" xlink:title="Setzt den Kontext auf das gegebene Fenster. ">
<polygon fill="white" stroke="black" points="419,-213.5 419,-234.5 565,-234.5 565,-213.5 419,-213.5"/>
<text text-anchor="middle" x="492" y="-221.5" font-family="Helvetica,sans-Serif" font-size="10.00">okw.core.Core.SelectWindow</text>
</a>
</g>
<!-- Node871&#45;&gt;Node872 -->
<g id="edge18" class="edge"><title>Node871&#45;&gt;Node872</title>
<path fill="none" stroke="midnightblue" d="M351.502,-186.534C378.348,-193.693 414.058,-203.215 442.757,-210.869"/>
<polygon fill="midnightblue" stroke="midnightblue" points="442.026,-214.296 452.59,-213.491 443.83,-207.532 442.026,-214.296"/>
</g>
<!-- Node873 -->
<g id="node20" class="node"><title>Node873</title>
<a xlink:href="classokw_1_1log_1_1_logger___sngltn.html#a70ec25e200e00ecefc544e8fd371d2ef" target="_top" xlink:title="Ausgabe eines Schlüsselwortes. ">
<polygon fill="white" stroke="black" points="622,-184 622,-218 756,-218 756,-184 622,-184"/>
<text text-anchor="start" x="630" y="-205" font-family="Helvetica,sans-Serif" font-size="10.00">okw.log.Logger_Sngltn.Log</text>
<text text-anchor="middle" x="689" y="-192" font-family="Helvetica,sans-Serif" font-size="10.00">KeyWordStart</text>
</a>
</g>
<!-- Node872&#45;&gt;Node873 -->
<g id="edge20" class="edge"><title>Node872&#45;&gt;Node873</title>
<path fill="none" stroke="midnightblue" d="M565.076,-215.468C580.346,-213.686 596.491,-211.801 611.902,-210.001"/>
<polygon fill="midnightblue" stroke="midnightblue" points="612.38,-213.469 621.906,-208.833 611.568,-206.517 612.38,-213.469"/>
</g>
<!-- Node874 -->
<g id="node22" class="node"><title>Node874</title>
<a xlink:href="classokw_1_1_log_messenger.html#af225d1f037d47b3b085175c09d78bdd2" target="_top" xlink:title="Holt die Log&#45;Meldung für MethodeNmae/Textkey ohne weitere Parameter. ">
<polygon fill="white" stroke="black" points="609,-236.5 609,-257.5 769,-257.5 769,-236.5 609,-236.5"/>
<text text-anchor="middle" x="689" y="-244.5" font-family="Helvetica,sans-Serif" font-size="10.00">okw.LogMessenger.GetMessage</text>
</a>
</g>
<!-- Node872&#45;&gt;Node874 -->
<g id="edge22" class="edge"><title>Node872&#45;&gt;Node874</title>
<path fill="none" stroke="midnightblue" d="M565.076,-232.532C575.974,-233.804 587.319,-235.129 598.524,-236.437"/>
<polygon fill="midnightblue" stroke="midnightblue" points="598.42,-239.948 608.758,-237.632 599.232,-232.996 598.42,-239.948"/>
</g>
<!-- Node877 -->
<g id="node28" class="node"><title>Node877</title>
<a xlink:href="interfaceokw_1_1core_1_1_i_o_k_w___state.html#ad4fc9610ed5b1176590a45b55e6ac7f0" target="_top" xlink:title="Setzt den Kontext auf das gegebene Fenster. ">
<polygon fill="white" stroke="black" points="616,-276 616,-310 762,-310 762,-276 616,-276"/>
<text text-anchor="start" x="624" y="-297" font-family="Helvetica,sans-Serif" font-size="10.00">okw.core.IOKW_State.Select</text>
<text text-anchor="middle" x="689" y="-284" font-family="Helvetica,sans-Serif" font-size="10.00">Window</text>
</a>
</g>
<!-- Node872&#45;&gt;Node877 -->
<g id="edge28" class="edge"><title>Node872&#45;&gt;Node877</title>
<path fill="none" stroke="midnightblue" d="M517.122,-234.501C539.277,-243.599 572.53,-256.856 602,-267 607.634,-268.939 613.501,-270.873 619.409,-272.76"/>
<polygon fill="midnightblue" stroke="midnightblue" points="618.768,-276.227 629.357,-275.885 620.865,-269.549 618.768,-276.227"/>
</g>
<!-- Node875 -->
<g id="node24" class="node"><title>Node875</title>
<a xlink:href="classokw_1_1_log_messenger.html#a530cd6ab82ec82a04206a2e976ec06e3" target="_top" xlink:title="Interne Kernfunktion holt die Log&#45;Meldung mit Platzhaltern aus der XML&#45;Datei. ">
<polygon fill="white" stroke="black" points="812.5,-236.5 812.5,-257.5 979.5,-257.5 979.5,-236.5 812.5,-236.5"/>
<text text-anchor="middle" x="896" y="-244.5" font-family="Helvetica,sans-Serif" font-size="10.00">okw.LogMessenger.ReadMessage</text>
</a>
</g>
<!-- Node874&#45;&gt;Node875 -->
<g id="edge24" class="edge"><title>Node874&#45;&gt;Node875</title>
<path fill="none" stroke="midnightblue" d="M769.032,-247C779.92,-247 791.173,-247 802.276,-247"/>
<polygon fill="midnightblue" stroke="midnightblue" points="802.415,-250.5 812.415,-247 802.415,-243.5 802.415,-250.5"/>
</g>
<!-- Node876 -->
<g id="node26" class="node"><title>Node876</title>
<a xlink:href="classokw_1_1_o_k_w___xml_reader.html#ab920b5335a2e1429c14cc5f8e79f39eb" target="_top" xlink:title="Lies den TextContent eines Tag. ">
<polygon fill="white" stroke="black" points="1016,-230 1016,-264 1168,-264 1168,-230 1016,-230"/>
<text text-anchor="start" x="1024" y="-251" font-family="Helvetica,sans-Serif" font-size="10.00">okw.OKW_XmlReader.getText</text>
<text text-anchor="middle" x="1092" y="-238" font-family="Helvetica,sans-Serif" font-size="10.00">ContentSingleValue</text>
</a>
</g>
<!-- Node875&#45;&gt;Node876 -->
<g id="edge26" class="edge"><title>Node875&#45;&gt;Node876</title>
<path fill="none" stroke="midnightblue" d="M979.69,-247C988.29,-247 997.041,-247 1005.67,-247"/>
<polygon fill="midnightblue" stroke="midnightblue" points="1005.72,-250.5 1015.72,-247 1005.72,-243.5 1005.72,-250.5"/>
</g>
<!-- Node878&#45;&gt;Node866 -->
<g id="edge32" class="edge"><title>Node878&#45;&gt;Node866</title>
<path fill="none" stroke="midnightblue" d="M382.108,-120.652C392.029,-119.329 402.289,-117.961 412.373,-116.617"/>
<polygon fill="midnightblue" stroke="midnightblue" points="412.929,-120.074 422.379,-115.283 412.004,-113.135 412.929,-120.074"/>
</g>
<!-- Node879 -->
<g id="node33" class="node"><title>Node879</title>
<a xlink:href="classokw_1_1core_1_1_core.html#ab243fc4ed28faf2ee9e7cd3123b8f13c" target="_top" xlink:title="Vergleicht den ausgewählten Wert des gegebenen Listenobjekts mit dem erwarteten Wert. ">
<polygon fill="white" stroke="black" points="418.5,-158 418.5,-192 565.5,-192 565.5,-158 418.5,-158"/>
<text text-anchor="start" x="426.5" y="-179" font-family="Helvetica,sans-Serif" font-size="10.00">okw.core.Core.VerifySelected</text>
<text text-anchor="middle" x="492" y="-166" font-family="Helvetica,sans-Serif" font-size="10.00">Value</text>
</a>
</g>
<!-- Node878&#45;&gt;Node879 -->
<g id="edge34" class="edge"><title>Node878&#45;&gt;Node879</title>
<path fill="none" stroke="midnightblue" d="M380.05,-147.013C391.138,-149.785 402.7,-152.675 414.004,-155.501"/>
<polygon fill="midnightblue" stroke="midnightblue" points="413.303,-158.933 423.853,-157.963 415.001,-152.142 413.303,-158.933"/>
</g>
<!-- Node879&#45;&gt;Node873 -->
<g id="edge36" class="edge"><title>Node879&#45;&gt;Node873</title>
<path fill="none" stroke="midnightblue" d="M565.636,-184.718C580.642,-186.699 596.473,-188.788 611.605,-190.785"/>
<polygon fill="midnightblue" stroke="midnightblue" points="611.58,-194.312 621.952,-192.151 612.496,-187.373 611.58,-194.312"/>
</g>
<!-- Node879&#45;&gt;Node874 -->
<g id="edge38" class="edge"><title>Node879&#45;&gt;Node874</title>
<path fill="none" stroke="midnightblue" d="M539.582,-192.06C548.498,-195.7 557.639,-199.742 566,-204 582.919,-212.616 584.492,-219.655 602,-227 607.909,-229.479 614.178,-231.679 620.537,-233.625"/>
<polygon fill="midnightblue" stroke="midnightblue" points="619.989,-237.108 630.566,-236.478 621.905,-230.375 619.989,-237.108"/>
</g>
<!-- Node880 -->
<g id="node37" class="node"><title>Node880</title>
<a xlink:href="interfaceokw_1_1core_1_1_i_o_k_w___state.html#a804768212384c2b9b29f2664a5eb95d0" target="_top" xlink:title="Vergleicht den ausgewählten Wert des gegebenen Listenobjekts mit dem erwarteten Wert. ">
<polygon fill="white" stroke="black" points="617.5,-132 617.5,-166 760.5,-166 760.5,-132 617.5,-132"/>
<text text-anchor="start" x="625.5" y="-153" font-family="Helvetica,sans-Serif" font-size="10.00">okw.core.IOKW_State.Verify</text>
<text text-anchor="middle" x="689" y="-140" font-family="Helvetica,sans-Serif" font-size="10.00">SelectedValue</text>
</a>
</g>
<!-- Node879&#45;&gt;Node880 -->
<g id="edge40" class="edge"><title>Node879&#45;&gt;Node880</title>
<path fill="none" stroke="midnightblue" d="M565.636,-165.282C579.267,-163.483 593.577,-161.594 607.428,-159.766"/>
<polygon fill="midnightblue" stroke="midnightblue" points="607.959,-163.226 617.415,-158.448 607.043,-156.286 607.959,-163.226"/>
</g>
</g>
</svg>
        <g id="navigator" transform="translate(0 0)" fill="#404254">
                <rect fill="#f2f5e9" fill-opacity="0.5" stroke="#606060" stroke-width=".5" x="0" y="0" width="60" height="60"/>
                <use id="zoomplus" xlink:href="#zoomPlus" x="17" y="9" onmousedown="handleZoom(evt,'in')"/>
                <use id="zoomminus" xlink:href="#zoomMin" x="42" y="9" onmousedown="handleZoom(evt,'out')"/>
                <use id="reset" xlink:href="#resetDef" x="30" y="36" onmousedown="handleReset()"/>
                <g id="arrowUp" xlink:href="#dirArrow" transform="translate(30 24)" onmousedown="handlePan(0,-1)">
                  <use xlink:href="#rim" fill="#404040">
                        <set attributeName="fill" to="#808080" begin="arrowUp.mouseover" end="arrowUp.mouseout"/>
                  </use>
                  <path fill="none" stroke="white" stroke-width="1.5" d="M0,-3.0v7 M-2.5,-0.5L0,-3.0L2.5,-0.5"/>
                </g>
                <g id="arrowRight" xlink:href="#dirArrow" transform="rotate(90) translate(36 -43)" onmousedown="handlePan(1,0)">
                  <use xlink:href="#rim" fill="#404040">
                        <set attributeName="fill" to="#808080" begin="arrowRight.mouseover" end="arrowRight.mouseout"/>
                  </use>
                  <path fill="none" stroke="white" stroke-width="1.5" d="M0,-3.0v7 M-2.5,-0.5L0,-3.0L2.5,-0.5"/>
                </g>
                <g id="arrowDown" xlink:href="#dirArrow" transform="rotate(180) translate(-30 -48)" onmousedown="handlePan(0,1)">
                  <use xlink:href="#rim" fill="#404040">
                        <set attributeName="fill" to="#808080" begin="arrowDown.mouseover" end="arrowDown.mouseout"/>
                  </use>
                  <path fill="none" stroke="white" stroke-width="1.5" d="M0,-3.0v7 M-2.5,-0.5L0,-3.0L2.5,-0.5"/>
                </g>
                <g id="arrowLeft" xlink:href="#dirArrow" transform="rotate(270) translate(-36 17)" onmousedown="handlePan(-1,0)">
                  <use xlink:href="#rim" fill="#404040">
                        <set attributeName="fill" to="#808080" begin="arrowLeft.mouseover" end="arrowLeft.mouseout"/>
                  </use>
                  <path fill="none" stroke="white" stroke-width="1.5" d="M0,-3.0v7 M-2.5,-0.5L0,-3.0L2.5,-0.5"/>
                </g>
        </g>
        <svg viewBox="0 0 15 15" width="100%" height="30px" preserveAspectRatio="xMaxYMin meet">
         <g id="arrow_out" transform="scale(0.3 0.3)">
          <a xlink:href="classokw_1_1core_1_1_e_n___o_k_w_not_allowed_value_exception___keywords___i_g_n_o_r_e_aa1091fdbff7395059c1f764ffcba24fc_cgraph_org.svg" target="_base">
           <rect id="button" ry="5" rx="5" y="6" x="6" height="38" width="38"
                fill="#f2f5e9" fill-opacity="0.5" stroke="#606060" stroke-width="1.0"/>
           <path id="arrow"
             d="M 11.500037,31.436501 C 11.940474,20.09759 22.043105,11.32322 32.158766,21.979434 L 37.068811,17.246167 C 37.068811,17.246167 37.088388,32 37.088388,32 L 22.160133,31.978069 C 22.160133,31.978069 26.997745,27.140456 26.997745,27.140456 C 18.528582,18.264221 13.291696,25.230495 11.500037,31.436501 z"
             style="fill:#404040;"/>
          </a>
         </g>
        </svg>
</svg>
