<?xml version="1.0" encoding="UTF-8" standalone="no"?>
<!DOCTYPE svg PUBLIC "-//W3C//DTD SVG 1.1//EN"
 "http://www.w3.org/Graphics/SVG/1.1/DTD/svg11.dtd">
<!-- Generated by graphviz version 2.38.0 (20140413.2041)
 -->
<!-- Title: okw.gui.AnyWindow.WaitForMe Pages: 1 -->
<svg width="373pt" height="268pt"
 viewBox="0.00 0.00 373.00 267.50" xmlns="http://www.w3.org/2000/svg" xmlns:xlink="http://www.w3.org/1999/xlink">
<g id="graph0" class="graph" transform="scale(1 1) rotate(0) translate(4 263.5)">
<title>okw.gui.AnyWindow.WaitForMe</title>
<polygon fill="white" stroke="none" points="-4,4 -4,-263.5 369,-263.5 369,4 -4,4"/>
<!-- Node7 -->
<g id="node1" class="node"><title>Node7</title>
<g id="a_node1"><a xlink:title="Methode, wartet auf das aktuelle GUI&#45;Object bis es erscheint oder der eingestellte TimeOut erreicht i...">
<polygon fill="#bfbfbf" stroke="black" points="0,-114.5 0,-133.5 158,-133.5 158,-114.5 0,-114.5"/>
<text text-anchor="middle" x="79" y="-121.5" font-family="Helvetica,sans-Serif" font-size="10.00">okw.gui.AnyWindow.WaitForMe</text>
</a>
</g>
</g>
<!-- Node8 -->
<g id="node2" class="node"><title>Node8</title>
<g id="a_node2"><a xlink:href="classokw_1_1_frame_object_dictionary___sngltn.html#a6796729146caaca3c9763e1e30bf4c9e" target="_top" xlink:title="Holt für einen GUI&#45;Object die angehängte Annotation.">
<polygon fill="white" stroke="black" points="206.5,-229 206.5,-259 352.5,-259 352.5,-229 206.5,-229"/>
<text text-anchor="start" x="214.5" y="-247" font-family="Helvetica,sans-Serif" font-size="10.00">okw.FrameObjectDictionary</text>
<text text-anchor="middle" x="279.5" y="-236" font-family="Helvetica,sans-Serif" font-size="10.00">_Sngltn.getOKW</text>
</a>
</g>
</g>
<!-- Node7&#45;&gt;Node8 -->
<g id="edge1" class="edge"><title>Node7&#45;&gt;Node8</title>
<path fill="none" stroke="midnightblue" d="M88.7879,-133.575C106.745,-152.587 149.702,-195.304 194,-219 198.245,-221.271 202.723,-223.361 207.313,-225.281"/>
<polygon fill="midnightblue" stroke="midnightblue" points="206.264,-228.628 216.853,-228.986 208.798,-222.103 206.264,-228.628"/>
</g>
<!-- Node9 -->
<g id="node3" class="node"><title>Node9</title>
<g id="a_node3"><a xlink:href="classokw_1_1gui_1_1_any_win_base.html#a064dcf61895c04b3dcd899d901586095" target="_top" xlink:title="Setzten des Objekt KN.">
<polygon fill="white" stroke="black" points="207,-190.5 207,-209.5 352,-209.5 352,-190.5 207,-190.5"/>
<text text-anchor="middle" x="279.5" y="-197.5" font-family="Helvetica,sans-Serif" font-size="10.00">okw.gui.AnyWinBase.getKN</text>
</a>
</g>
</g>
<!-- Node7&#45;&gt;Node9 -->
<g id="edge2" class="edge"><title>Node7&#45;&gt;Node9</title>
<path fill="none" stroke="midnightblue" d="M96.0614,-133.603C117.646,-146.136 157.524,-167.998 194,-181 201.27,-183.591 209.021,-185.907 216.769,-187.954"/>
<polygon fill="midnightblue" stroke="midnightblue" points="215.994,-191.368 226.545,-190.404 217.695,-184.578 215.994,-191.368"/>
</g>
<!-- Node10 -->
<g id="node4" class="node"><title>Node10</title>
<g id="a_node4"><a xlink:href="interfaceokw_1_1_o_k_w.html#af34bc34f70320801da0d077669491629" target="_top" xlink:title="TimeOut in Sekunden [s] für das erscheinen des aktuellen Objektes.">
<polygon fill="white" stroke="black" points="215.5,-152.5 215.5,-171.5 343.5,-171.5 343.5,-152.5 215.5,-152.5"/>
<text text-anchor="middle" x="279.5" y="-159.5" font-family="Helvetica,sans-Serif" font-size="10.00">okw.OKW.WaitForMe_TO</text>
</a>
</g>
</g>
<!-- Node7&#45;&gt;Node10 -->
<g id="edge3" class="edge"><title>Node7&#45;&gt;Node10</title>
<path fill="none" stroke="midnightblue" d="M129.834,-133.54C156.734,-138.69 190.136,-145.084 218.461,-150.506"/>
<polygon fill="midnightblue" stroke="midnightblue" points="218.166,-154.013 228.646,-152.456 219.482,-147.138 218.166,-154.013"/>
</g>
<!-- Node11 -->
<g id="node5" class="node"><title>Node11</title>
<g id="a_node5"><a xlink:href="interfaceokw_1_1_o_k_w.html#a243bbdc6c866386fd64fd4c4758a14b7" target="_top" xlink:title="Polling Time in [ms] für das aktuelle Object.">
<polygon fill="white" stroke="black" points="216.5,-114.5 216.5,-133.5 342.5,-133.5 342.5,-114.5 216.5,-114.5"/>
<text text-anchor="middle" x="279.5" y="-121.5" font-family="Helvetica,sans-Serif" font-size="10.00">okw.OKW.WaitForMe_PT</text>
</a>
</g>
</g>
<!-- Node7&#45;&gt;Node11 -->
<g id="edge4" class="edge"><title>Node7&#45;&gt;Node11</title>
<path fill="none" stroke="midnightblue" d="M158.168,-124C174.009,-124 190.602,-124 206.229,-124"/>
<polygon fill="midnightblue" stroke="midnightblue" points="206.341,-127.5 216.341,-124 206.341,-120.5 206.341,-127.5"/>
</g>
<!-- Node12 -->
<g id="node6" class="node"><title>Node12</title>
<g id="a_node6"><a xlink:href="classokw_1_1_o_k_w___time_out.html#adf7b9cc33db065c1f284bb5db2227b51" target="_top" xlink:title="Anzahl der berechnetten Zyklen.">
<polygon fill="white" stroke="black" points="194,-76.5 194,-95.5 365,-95.5 365,-76.5 194,-76.5"/>
<text text-anchor="middle" x="279.5" y="-83.5" font-family="Helvetica,sans-Serif" font-size="10.00">okw.OKW_TimeOut.getMaxCount</text>
</a>
</g>
</g>
<!-- Node7&#45;&gt;Node12 -->
<g id="edge5" class="edge"><title>Node7&#45;&gt;Node12</title>
<path fill="none" stroke="midnightblue" d="M129.834,-114.46C156.734,-109.31 190.136,-102.916 218.461,-97.4935"/>
<polygon fill="midnightblue" stroke="midnightblue" points="219.482,-100.862 228.646,-95.5439 218.166,-93.9866 219.482,-100.862"/>
</g>
<!-- Node13 -->
<g id="node7" class="node"><title>Node13</title>
<g id="a_node7"><a xlink:href="classokw_1_1gui_1_1_any_window.html#a817be880f1fbf753c65e85e68a7257ea" target="_top" xlink:title="Prüft die Existenz des aktuellen Objektes.">
<polygon fill="white" stroke="black" points="203,-38.5 203,-57.5 356,-57.5 356,-38.5 203,-38.5"/>
<text text-anchor="middle" x="279.5" y="-45.5" font-family="Helvetica,sans-Serif" font-size="10.00">okw.gui.AnyWindow.getExists</text>
</a>
</g>
</g>
<!-- Node7&#45;&gt;Node13 -->
<g id="edge6" class="edge"><title>Node7&#45;&gt;Node13</title>
<path fill="none" stroke="midnightblue" d="M96.0614,-114.397C117.646,-101.864 157.524,-80.0018 194,-67 201.27,-64.4086 209.021,-62.0926 216.769,-60.0457"/>
<polygon fill="midnightblue" stroke="midnightblue" points="217.695,-63.4219 226.545,-57.5963 215.994,-56.6318 217.695,-63.4219"/>
</g>
<!-- Node14 -->
<g id="node8" class="node"><title>Node14</title>
<g id="a_node8"><a xlink:href="classokw_1_1_o_k_w___time_out.html#ab7142e5e6adc82f308a70177c71ced2c" target="_top" xlink:title="Wartezeit zwischen zwei Pollings in [ms].">
<polygon fill="white" stroke="black" points="212.5,-0.5 212.5,-19.5 346.5,-19.5 346.5,-0.5 212.5,-0.5"/>
<text text-anchor="middle" x="279.5" y="-7.5" font-family="Helvetica,sans-Serif" font-size="10.00">okw.OKW_TimeOut.getPT</text>
</a>
</g>
</g>
<!-- Node7&#45;&gt;Node14 -->
<g id="edge7" class="edge"><title>Node7&#45;&gt;Node14</title>
<path fill="none" stroke="midnightblue" d="M88.3873,-114.47C105.945,-95.152 148.708,-51.3248 194,-29 198.889,-26.5902 204.088,-24.4818 209.411,-22.6379"/>
<polygon fill="midnightblue" stroke="midnightblue" points="210.595,-25.9345 219.085,-19.5965 208.496,-19.2567 210.595,-25.9345"/>
</g>
</g>
</svg>
