<?xml version="1.0" encoding="UTF-8" standalone="no"?>
<!DOCTYPE svg PUBLIC "-//W3C//DTD SVG 1.1//EN"
 "http://www.w3.org/Graphics/SVG/1.1/DTD/svg11.dtd">
<!-- Generated by graphviz version 2.36.0 (20140111.2315)
 -->
<!-- Title: okw.core.OK.SetFocus Pages: 1 -->
<!--zoomable 476 -->
<svg id="main" version="1.1" xmlns="http://www.w3.org/2000/svg" xmlns:xlink="http://www.w3.org/1999/xlink" xml:space="preserve" onload="init(evt)">
<style type="text/css"><![CDATA[
.edge:hover path { stroke: red; }
.edge:hover polygon { stroke: red; fill: red; }
]]></style>
<script type="text/javascript"><![CDATA[
var edges = document.getElementsByTagName('g');
if (edges && edges.length) {
  for (var i=0;i<edges.length;i++) {
    if (edges[i].id.substr(0,4)=='edge') {
      edges[i].setAttribute('class','edge');
    }
  }
}
]]></script>
        <defs>
                <circle id="rim" cx="0" cy="0" r="7"/>
                <circle id="rim2" cx="0" cy="0" r="3.5"/>
                <g id="zoomPlus">
                        <use xlink:href="#rim" fill="#404040">
                                <set attributeName="fill" to="#808080" begin="zoomplus.mouseover" end="zoomplus.mouseout"/>
                        </use>
                        <path d="M-4,0h8M0,-4v8" fill="none" stroke="white" stroke-width="1.5" pointer-events="none"/>
                </g>
                <g id="zoomMin">
                        <use xlink:href="#rim" fill="#404040">
                                <set attributeName="fill" to="#808080" begin="zoomminus.mouseover" end="zoomminus.mouseout"/>
                        </use>
                        <path d="M-4,0h8" fill="none" stroke="white" stroke-width="1.5" pointer-events="none"/>
                </g>
                <g id="dirArrow">
                        <path fill="none" stroke="white" stroke-width="1.5" d="M0,-3.0v7 M-2.5,-0.5L0,-3.0L2.5,-0.5"/>
                </g>
               <g id="resetDef">
                       <use xlink:href="#rim2" fill="#404040">
                               <set attributeName="fill" to="#808080" begin="reset.mouseover" end="reset.mouseout"/>
                       </use>
               </g>
        </defs>

<script type="text/javascript">
var viewWidth = 1286;
var viewHeight = 476;
var sectionId = 'dynsection-36';
</script>
<script xlink:href="svgpan.js"/>
<svg id="graph" class="graph">
<g id="viewport">
<title>okw.core.OK.SetFocus</title>
<polygon fill="white" stroke="none" points="-4,4 -4,-472 1282,-472 1282,4 -4,4"/>
<!-- Node756 -->
<g id="node1" class="node"><title>Node756</title>
<polygon fill="#bfbfbf" stroke="black" points="0.5,-196.5 0.5,-215.5 119.5,-215.5 119.5,-196.5 0.5,-196.5"/>
<text text-anchor="middle" x="60" y="-203.5" font-family="Helvetica,sans-Serif" font-size="10.00">okw.core.OK.SetFocus</text>
</g>
<!-- Node757 -->
<g id="node2" class="node"><title>Node757</title>
<g id="a_node2"><a xlink:href="classokw_1_1core_1_1_o_k_w___current_object___sngltn.html#a461fa1ff29f4bc4a9798707ea7b71849" target="_top" xlink:title="Setzt das Kindobjekt. ">
<polygon fill="white" stroke="black" points="156.5,-240 156.5,-270 305.5,-270 305.5,-240 156.5,-240"/>
<text text-anchor="start" x="164.5" y="-258" font-family="Helvetica,sans-Serif" font-size="10.00">okw.core.OKW_CurrentObject</text>
<text text-anchor="middle" x="231" y="-247" font-family="Helvetica,sans-Serif" font-size="10.00">_Sngltn.setChildName</text>
</a>
</g>
</g>
<!-- Node756&#45;&gt;Node757 -->
<g id="edge1" class="edge"><title>Node756&#45;&gt;Node757</title>
<path fill="none" stroke="midnightblue" d="M93.9861,-215.564C115.102,-221.686 143.157,-229.821 168.302,-237.111"/>
<polygon fill="midnightblue" stroke="midnightblue" points="167.559,-240.54 178.138,-239.963 169.508,-233.817 167.559,-240.54"/>
</g>
<!-- Node767 -->
<g id="node12" class="node"><title>Node767</title>
<g id="a_node12"><a xlink:href="classokw_1_1core_1_1_o_k.html#a5a6db6a457bcb71c893f5d4eb615b2b7" target="_top" xlink:title="Zentrale Exception&#45;Behandlung. ">
<polygon fill="white" stroke="black" points="156.5,-125.5 156.5,-144.5 305.5,-144.5 305.5,-125.5 156.5,-125.5"/>
<text text-anchor="middle" x="231" y="-132.5" font-family="Helvetica,sans-Serif" font-size="10.00">okw.core.OK.handleException</text>
</a>
</g>
</g>
<!-- Node756&#45;&gt;Node767 -->
<g id="edge15" class="edge"><title>Node756&#45;&gt;Node767</title>
<path fill="none" stroke="midnightblue" d="M83.7921,-196.425C113.231,-184.057 164.641,-162.458 197.99,-148.448"/>
<polygon fill="midnightblue" stroke="midnightblue" points="199.436,-151.637 207.3,-144.537 196.725,-145.183 199.436,-151.637"/>
</g>
<!-- Node758 -->
<g id="node3" class="node"><title>Node758</title>
<g id="a_node3"><a xlink:href="classokw_1_1log_1_1_logger___sngltn.html#a313f97c79ba4662d9daaf7f537dd02f4" target="_top" xlink:title="Loggt eine Nachricht. ">
<polygon fill="white" stroke="black" points="739,-333 739,-363 873,-363 873,-333 739,-333"/>
<text text-anchor="start" x="747" y="-351" font-family="Helvetica,sans-Serif" font-size="10.00">okw.log.Logger_Sngltn.Log</text>
<text text-anchor="middle" x="806" y="-340" font-family="Helvetica,sans-Serif" font-size="10.00">PrintDebug</text>
</a>
</g>
</g>
<!-- Node757&#45;&gt;Node758 -->
<g id="edge2" class="edge"><title>Node757&#45;&gt;Node758</title>
<path fill="none" stroke="midnightblue" d="M239.336,-270.268C254.093,-298.964 290.422,-360.198 342,-384 481.568,-448.409 670.048,-396.916 757.178,-366.43"/>
<polygon fill="midnightblue" stroke="midnightblue" points="758.545,-369.659 766.791,-363.007 756.197,-363.064 758.545,-369.659"/>
</g>
<!-- Node759 -->
<g id="node4" class="node"><title>Node759</title>
<g id="a_node4"><a xlink:href="classokw_1_1_log_messenger.html#af225d1f037d47b3b085175c09d78bdd2" target="_top" xlink:title="Holt die Log&#45;Meldung f端r MethodeNmae/Textkey ohne weitere Parameter. ">
<polygon fill="white" stroke="black" points="726,-245.5 726,-264.5 886,-264.5 886,-245.5 726,-245.5"/>
<text text-anchor="middle" x="806" y="-252.5" font-family="Helvetica,sans-Serif" font-size="10.00">okw.LogMessenger.GetMessage</text>
</a>
</g>
</g>
<!-- Node757&#45;&gt;Node759 -->
<g id="edge3" class="edge"><title>Node757&#45;&gt;Node759</title>
<path fill="none" stroke="midnightblue" d="M305.661,-252.714C317.8,-252.417 330.252,-252.16 342,-252 496.652,-249.891 535.346,-249.983 690,-252 698.325,-252.109 706.988,-252.261 715.659,-252.441"/>
<polygon fill="midnightblue" stroke="midnightblue" points="715.747,-255.944 725.821,-252.663 715.9,-248.945 715.747,-255.944"/>
</g>
<!-- Node762 -->
<g id="node7" class="node"><title>Node762</title>
<g id="a_node7"><a xlink:href="classokw_1_1_o_k_w___helper.html#a3a7ba0f42b29adf70574830688e72e4a" target="_top" xlink:title="Pr端ft ob der gegeben String fpsStrin null oder leer (&quot;&quot;) ist. ">
<polygon fill="white" stroke="black" points="342.5,-437 342.5,-467 491.5,-467 491.5,-437 342.5,-437"/>
<text text-anchor="start" x="350.5" y="-455" font-family="Helvetica,sans-Serif" font-size="10.00">okw.OKW_Helper.isStringNull</text>
<text text-anchor="middle" x="417" y="-444" font-family="Helvetica,sans-Serif" font-size="10.00">OrEmpty</text>
</a>
</g>
</g>
<!-- Node757&#45;&gt;Node762 -->
<g id="edge6" class="edge"><title>Node757&#45;&gt;Node762</title>
<path fill="none" stroke="midnightblue" d="M238.195,-270.121C252.11,-302.351 288.842,-378.417 342,-422 346.67,-425.829 351.893,-429.223 357.347,-432.22"/>
<polygon fill="midnightblue" stroke="midnightblue" points="356.175,-435.548 366.684,-436.896 359.309,-429.289 356.175,-435.548"/>
</g>
<!-- Node763 -->
<g id="node8" class="node"><title>Node763</title>
<g id="a_node8"><a xlink:href="classokw_1_1log_1_1_logger___sngltn.html#a8ebceaddd6cc6963ddb8e08c72ea808c" target="_top" xlink:title="LogPrint Function: Prints the values of expressions to the results file. ">
<polygon fill="white" stroke="black" points="542,-174 542,-204 676,-204 676,-174 542,-174"/>
<text text-anchor="start" x="550" y="-192" font-family="Helvetica,sans-Serif" font-size="10.00">okw.log.Logger_Sngltn.Log</text>
<text text-anchor="middle" x="609" y="-181" font-family="Helvetica,sans-Serif" font-size="10.00">Print</text>
</a>
</g>
</g>
<!-- Node757&#45;&gt;Node763 -->
<g id="edge7" class="edge"><title>Node757&#45;&gt;Node763</title>
<path fill="none" stroke="midnightblue" d="M271.431,-239.93C292.155,-232.565 318.144,-224.192 342,-219 405.138,-205.259 478.158,-197.594 531.701,-193.459"/>
<polygon fill="midnightblue" stroke="midnightblue" points="532.092,-196.94 541.803,-192.703 531.569,-189.96 532.092,-196.94"/>
</g>
<!-- Node764 -->
<g id="node9" class="node"><title>Node764</title>
<g id="a_node9"><a xlink:href="classokw_1_1core_1_1_o_k_w___current_object___sngltn.html#a51204f2563ba8defb737da6653705819" target="_top" xlink:title="Methode aktualisert zwei Werte: ">
<polygon fill="white" stroke="black" points="342.5,-262 342.5,-292 491.5,-292 491.5,-262 342.5,-262"/>
<text text-anchor="start" x="350.5" y="-280" font-family="Helvetica,sans-Serif" font-size="10.00">okw.core.OKW_CurrentObject</text>
<text text-anchor="middle" x="417" y="-269" font-family="Helvetica,sans-Serif" font-size="10.00">_Sngltn.updateObject</text>
</a>
</g>
</g>
<!-- Node757&#45;&gt;Node764 -->
<g id="edge8" class="edge"><title>Node757&#45;&gt;Node764</title>
<path fill="none" stroke="midnightblue" d="M305.515,-263.79C314.315,-264.842 323.351,-265.922 332.281,-266.99"/>
<polygon fill="midnightblue" stroke="midnightblue" points="331.957,-270.476 342.302,-268.188 332.788,-263.526 331.957,-270.476"/>
</g>
<!-- Node760 -->
<g id="node5" class="node"><title>Node760</title>
<g id="a_node5"><a xlink:href="classokw_1_1_log_messenger.html#a530cd6ab82ec82a04206a2e976ec06e3" target="_top" xlink:title="Interne Kernfunktion holt die Log&#45;Meldung mit Platzhaltern aus der XML&#45;Datei. ">
<polygon fill="white" stroke="black" points="922.5,-245.5 922.5,-264.5 1089.5,-264.5 1089.5,-245.5 922.5,-245.5"/>
<text text-anchor="middle" x="1006" y="-252.5" font-family="Helvetica,sans-Serif" font-size="10.00">okw.LogMessenger.ReadMessage</text>
</a>
</g>
</g>
<!-- Node759&#45;&gt;Node760 -->
<g id="edge4" class="edge"><title>Node759&#45;&gt;Node760</title>
<path fill="none" stroke="midnightblue" d="M886.108,-255C894.702,-255 903.505,-255 912.242,-255"/>
<polygon fill="midnightblue" stroke="midnightblue" points="912.452,-258.5 922.452,-255 912.452,-251.5 912.452,-258.5"/>
</g>
<!-- Node761 -->
<g id="node6" class="node"><title>Node761</title>
<g id="a_node6"><a xlink:href="classokw_1_1_o_k_w___xml_reader.html#ab920b5335a2e1429c14cc5f8e79f39eb" target="_top" xlink:title="Lies den TextContent eines Tag. ">
<polygon fill="white" stroke="black" points="1126,-240 1126,-270 1278,-270 1278,-240 1126,-240"/>
<text text-anchor="start" x="1134" y="-258" font-family="Helvetica,sans-Serif" font-size="10.00">okw.OKW_XmlReader.getText</text>
<text text-anchor="middle" x="1202" y="-247" font-family="Helvetica,sans-Serif" font-size="10.00">ContentSingleValue</text>
</a>
</g>
</g>
<!-- Node760&#45;&gt;Node761 -->
<g id="edge5" class="edge"><title>Node760&#45;&gt;Node761</title>
<path fill="none" stroke="midnightblue" d="M1089.55,-255C1098.23,-255 1107.06,-255 1115.76,-255"/>
<polygon fill="midnightblue" stroke="midnightblue" points="1115.9,-258.5 1125.9,-255 1115.9,-251.5 1115.9,-258.5"/>
</g>
<!-- Node765 -->
<g id="node10" class="node"><title>Node765</title>
<g id="a_node10"><a xlink:href="classokw_1_1_frame_object_dictionary___sngltn.html#aeec07d71cbebe71ec3ec4d27e86d6c5c" target="_top" xlink:title="Die Methode liefert das Frame&#45;Object des gegebenen FN eines Fensterobjektes zur端ck. ">
<polygon fill="white" stroke="black" points="528.5,-311 528.5,-341 689.5,-341 689.5,-311 528.5,-311"/>
<text text-anchor="start" x="536.5" y="-329" font-family="Helvetica,sans-Serif" font-size="10.00">okw.FrameObjectDictionary</text>
<text text-anchor="middle" x="609" y="-318" font-family="Helvetica,sans-Serif" font-size="10.00">_Sngltn.getParentObjectByName</text>
</a>
</g>
</g>
<!-- Node764&#45;&gt;Node765 -->
<g id="edge9" class="edge"><title>Node764&#45;&gt;Node765</title>
<path fill="none" stroke="midnightblue" d="M476.297,-292.035C496.45,-297.232 519.206,-303.101 540.064,-308.48"/>
<polygon fill="midnightblue" stroke="midnightblue" points="539.256,-311.886 549.813,-310.994 541.004,-305.107 539.256,-311.886"/>
</g>
<!-- Node766 -->
<g id="node11" class="node"><title>Node766</title>
<g id="a_node11"><a xlink:href="classokw_1_1_frame_object_dictionary___sngltn.html#a0a71734828093357dfc88b5fa242e361" target="_top" xlink:title="Die Methode liefert das Objekt des gegebenen Kindobjekttests zur端ck. ">
<polygon fill="white" stroke="black" points="531.5,-262 531.5,-292 686.5,-292 686.5,-262 531.5,-262"/>
<text text-anchor="start" x="539.5" y="-280" font-family="Helvetica,sans-Serif" font-size="10.00">okw.FrameObjectDictionary</text>
<text text-anchor="middle" x="609" y="-269" font-family="Helvetica,sans-Serif" font-size="10.00">_Sngltn.getChildObjectByName</text>
</a>
</g>
</g>
<!-- Node764&#45;&gt;Node766 -->
<g id="edge12" class="edge"><title>Node764&#45;&gt;Node766</title>
<path fill="none" stroke="midnightblue" d="M491.731,-277C501.408,-277 511.396,-277 521.264,-277"/>
<polygon fill="midnightblue" stroke="midnightblue" points="521.486,-280.5 531.486,-277 521.486,-273.5 521.486,-280.5"/>
</g>
<!-- Node765&#45;&gt;Node758 -->
<g id="edge10" class="edge"><title>Node765&#45;&gt;Node758</title>
<path fill="none" stroke="midnightblue" d="M689.595,-334.98C702.475,-336.433 715.787,-337.935 728.589,-339.379"/>
<polygon fill="midnightblue" stroke="midnightblue" points="728.4,-342.88 738.729,-340.523 729.185,-335.924 728.4,-342.88"/>
</g>
<!-- Node765&#45;&gt;Node759 -->
<g id="edge11" class="edge"><title>Node765&#45;&gt;Node759</title>
<path fill="none" stroke="midnightblue" d="M660.128,-310.991C670.073,-307.829 680.403,-304.413 690,-301 718.541,-290.849 750.495,-277.941 773.463,-268.383"/>
<polygon fill="midnightblue" stroke="midnightblue" points="774.845,-271.599 782.72,-264.51 772.143,-265.141 774.845,-271.599"/>
</g>
<!-- Node766&#45;&gt;Node758 -->
<g id="edge13" class="edge"><title>Node766&#45;&gt;Node758</title>
<path fill="none" stroke="midnightblue" d="M662.735,-292.032C671.875,-294.861 681.25,-297.908 690,-301 713.807,-309.414 739.89,-319.961 761.188,-328.931"/>
<polygon fill="midnightblue" stroke="midnightblue" points="760.039,-332.246 770.612,-332.929 762.772,-325.802 760.039,-332.246"/>
</g>
<!-- Node766&#45;&gt;Node759 -->
<g id="edge14" class="edge"><title>Node766&#45;&gt;Node759</title>
<path fill="none" stroke="midnightblue" d="M686.509,-268.368C696.092,-267.287 705.958,-266.174 715.713,-265.073"/>
<polygon fill="midnightblue" stroke="midnightblue" points="716.279,-268.532 725.823,-263.933 715.494,-261.576 716.279,-268.532"/>
</g>
<!-- Node767&#45;&gt;Node758 -->
<g id="edge18" class="edge"><title>Node767&#45;&gt;Node758</title>
<path fill="none" stroke="midnightblue" d="M240.432,-144.524C254.903,-161.137 284.939,-196.815 306,-230 324.959,-259.872 314.48,-278.765 342,-301 452.127,-389.975 628.424,-379.165 728.706,-363.487"/>
<polygon fill="midnightblue" stroke="midnightblue" points="729.451,-366.912 738.763,-361.858 728.332,-360.002 729.451,-366.912"/>
</g>
<!-- Node767&#45;&gt;Node763 -->
<g id="edge16" class="edge"><title>Node767&#45;&gt;Node763</title>
<path fill="none" stroke="midnightblue" d="M298.356,-144.53C363.628,-153.904 463.185,-168.202 531.696,-178.041"/>
<polygon fill="midnightblue" stroke="midnightblue" points="531.596,-181.563 541.992,-179.52 532.591,-174.634 531.596,-181.563"/>
</g>
<!-- Node768 -->
<g id="node13" class="node"><title>Node768</title>
<g id="a_node13"><a xlink:href="classokw_1_1log_1_1_logger___sngltn.html#aa29d396a2b9df1ac57079d777c548181" target="_top" xlink:title="LogException Function: Logs a Script Exception to the results file. ">
<polygon fill="white" stroke="black" points="350,-49 350,-79 484,-79 484,-49 350,-49"/>
<text text-anchor="start" x="358" y="-67" font-family="Helvetica,sans-Serif" font-size="10.00">okw.log.Logger_Sngltn.Log</text>
<text text-anchor="middle" x="417" y="-56" font-family="Helvetica,sans-Serif" font-size="10.00">Exception</text>
</a>
</g>
</g>
<!-- Node767&#45;&gt;Node768 -->
<g id="edge17" class="edge"><title>Node767&#45;&gt;Node768</title>
<path fill="none" stroke="midnightblue" d="M252.859,-125.42C274.816,-115.495 310.498,-99.8109 342,-88 347.059,-86.1034 352.343,-84.2136 357.659,-82.3747"/>
<polygon fill="midnightblue" stroke="midnightblue" points="358.876,-85.6577 367.221,-79.1292 356.626,-79.0292 358.876,-85.6577"/>
</g>
<!-- Node769 -->
<g id="node14" class="node"><title>Node769</title>
<g id="a_node14"><a xlink:href="classokw_1_1core_1_1_o_k_w___current_object___sngltn.html#a01b48f2c86a2f91909143ee9063dfd86" target="_top" xlink:title="Methode gibt alle wichtigen Informationen zum aktuellen Objekt aus. ">
<polygon fill="white" stroke="black" points="342.5,-98 342.5,-128 491.5,-128 491.5,-98 342.5,-98"/>
<text text-anchor="start" x="350.5" y="-116" font-family="Helvetica,sans-Serif" font-size="10.00">okw.core.OKW_CurrentObject</text>
<text text-anchor="middle" x="417" y="-105" font-family="Helvetica,sans-Serif" font-size="10.00">_Sngltn.LogObjectData</text>
</a>
</g>
</g>
<!-- Node767&#45;&gt;Node769 -->
<g id="edge19" class="edge"><title>Node767&#45;&gt;Node769</title>
<path fill="none" stroke="midnightblue" d="M305.515,-126.21C314.315,-125.158 323.351,-124.078 332.281,-123.01"/>
<polygon fill="midnightblue" stroke="midnightblue" points="332.788,-126.474 342.302,-121.812 331.957,-119.524 332.788,-126.474"/>
</g>
<!-- Node772 -->
<g id="node17" class="node"><title>Node772</title>
<g id="a_node17"><a xlink:href="classokw_1_1core_1_1_core.html#aafe6e3d88e810dabf350b37058d4af97" target="_top" xlink:title="Setter zum Setzen des aktuellen Zustandes. ">
<polygon fill="white" stroke="black" points="351.5,-0 351.5,-30 482.5,-30 482.5,-0 351.5,-0"/>
<text text-anchor="start" x="359.5" y="-18" font-family="Helvetica,sans-Serif" font-size="10.00">okw.core.Core.SetCurrent</text>
<text text-anchor="middle" x="417" y="-7" font-family="Helvetica,sans-Serif" font-size="10.00">State</text>
</a>
</g>
</g>
<!-- Node767&#45;&gt;Node772 -->
<g id="edge24" class="edge"><title>Node767&#45;&gt;Node772</title>
<path fill="none" stroke="midnightblue" d="M240.436,-125.397C257.683,-106.314 298.998,-63.3695 342,-39 345.029,-37.2832 348.199,-35.6688 351.45,-34.1536"/>
<polygon fill="midnightblue" stroke="midnightblue" points="352.974,-37.3083 360.779,-30.1433 350.209,-30.8773 352.974,-37.3083"/>
</g>
<!-- Node769&#45;&gt;Node759 -->
<g id="edge22" class="edge"><title>Node769&#45;&gt;Node759</title>
<path fill="none" stroke="midnightblue" d="M467.564,-97.9644C475.848,-94.9678 484.26,-91.617 492,-88 508.988,-80.0611 509.95,-71.0787 528,-66 597.309,-46.4989 627.236,-30.7201 690,-66 755.941,-103.066 788.485,-194.959 799.991,-235.384"/>
<polygon fill="midnightblue" stroke="midnightblue" points="796.637,-236.389 802.635,-245.123 803.393,-234.555 796.637,-236.389"/>
</g>
<!-- Node769&#45;&gt;Node763 -->
<g id="edge21" class="edge"><title>Node769&#45;&gt;Node763</title>
<path fill="none" stroke="midnightblue" d="M458.016,-128.008C469.161,-132.514 481.175,-137.682 492,-143 508.626,-151.167 511.053,-156.523 528,-164 533.288,-166.333 538.861,-168.544 544.503,-170.614"/>
<polygon fill="midnightblue" stroke="midnightblue" points="543.43,-173.947 554.025,-173.962 545.752,-167.343 543.43,-173.947"/>
</g>
<!-- Node770 -->
<g id="node15" class="node"><title>Node770</title>
<g id="a_node15"><a xlink:href="classokw_1_1log_1_1_logger___sngltn.html#ab4fc711bb4c754f251372ff3b14ab9c9" target="_top" xlink:title="Creates a new hierarchical level in the results file. ">
<polygon fill="white" stroke="black" points="540.5,-76 540.5,-106 677.5,-106 677.5,-76 540.5,-76"/>
<text text-anchor="start" x="548.5" y="-94" font-family="Helvetica,sans-Serif" font-size="10.00">okw.log.Logger_Sngltn.Res</text>
<text text-anchor="middle" x="609" y="-83" font-family="Helvetica,sans-Serif" font-size="10.00">OpenList</text>
</a>
</g>
</g>
<!-- Node769&#45;&gt;Node770 -->
<g id="edge20" class="edge"><title>Node769&#45;&gt;Node770</title>
<path fill="none" stroke="midnightblue" d="M491.731,-104.463C504.324,-103.005 517.443,-101.486 530.139,-100.015"/>
<polygon fill="midnightblue" stroke="midnightblue" points="530.682,-103.476 540.213,-98.849 529.877,-96.5226 530.682,-103.476"/>
</g>
<!-- Node771 -->
<g id="node16" class="node"><title>Node771</title>
<g id="a_node16"><a xlink:href="classokw_1_1log_1_1_logger___sngltn.html#a9b54104f7e0b4c0a473877b19dfaed56" target="_top" xlink:title="Closes a hierarchical level in the results file that was opened with ResOpenList. ...">
<polygon fill="white" stroke="black" points="540.5,-125 540.5,-155 677.5,-155 677.5,-125 540.5,-125"/>
<text text-anchor="start" x="548.5" y="-143" font-family="Helvetica,sans-Serif" font-size="10.00">okw.log.Logger_Sngltn.Res</text>
<text text-anchor="middle" x="609" y="-132" font-family="Helvetica,sans-Serif" font-size="10.00">CloseList</text>
</a>
</g>
</g>
<!-- Node769&#45;&gt;Node771 -->
<g id="edge23" class="edge"><title>Node769&#45;&gt;Node771</title>
<path fill="none" stroke="midnightblue" d="M491.731,-123.478C504.324,-125.267 517.443,-127.131 530.139,-128.936"/>
<polygon fill="midnightblue" stroke="midnightblue" points="529.82,-132.425 540.213,-130.367 530.805,-125.495 529.82,-132.425"/>
</g>
</g>
</svg>
        <g id="navigator" transform="translate(0 0)" fill="#404254">
                <rect fill="#f2f5e9" fill-opacity="0.5" stroke="#606060" stroke-width=".5" x="0" y="0" width="60" height="60"/>
                <use id="zoomplus" xlink:href="#zoomPlus" x="17" y="9" onmousedown="handleZoom(evt,'in')"/>
                <use id="zoomminus" xlink:href="#zoomMin" x="42" y="9" onmousedown="handleZoom(evt,'out')"/>
                <use id="reset" xlink:href="#resetDef" x="30" y="36" onmousedown="handleReset()"/>
                <g id="arrowUp" xlink:href="#dirArrow" transform="translate(30 24)" onmousedown="handlePan(0,-1)">
                  <use xlink:href="#rim" fill="#404040">
                        <set attributeName="fill" to="#808080" begin="arrowUp.mouseover" end="arrowUp.mouseout"/>
                  </use>
                  <path fill="none" stroke="white" stroke-width="1.5" d="M0,-3.0v7 M-2.5,-0.5L0,-3.0L2.5,-0.5"/>
                </g>
                <g id="arrowRight" xlink:href="#dirArrow" transform="rotate(90) translate(36 -43)" onmousedown="handlePan(1,0)">
                  <use xlink:href="#rim" fill="#404040">
                        <set attributeName="fill" to="#808080" begin="arrowRight.mouseover" end="arrowRight.mouseout"/>
                  </use>
                  <path fill="none" stroke="white" stroke-width="1.5" d="M0,-3.0v7 M-2.5,-0.5L0,-3.0L2.5,-0.5"/>
                </g>
                <g id="arrowDown" xlink:href="#dirArrow" transform="rotate(180) translate(-30 -48)" onmousedown="handlePan(0,1)">
                  <use xlink:href="#rim" fill="#404040">
                        <set attributeName="fill" to="#808080" begin="arrowDown.mouseover" end="arrowDown.mouseout"/>
                  </use>
                  <path fill="none" stroke="white" stroke-width="1.5" d="M0,-3.0v7 M-2.5,-0.5L0,-3.0L2.5,-0.5"/>
                </g>
                <g id="arrowLeft" xlink:href="#dirArrow" transform="rotate(270) translate(-36 17)" onmousedown="handlePan(-1,0)">
                  <use xlink:href="#rim" fill="#404040">
                        <set attributeName="fill" to="#808080" begin="arrowLeft.mouseover" end="arrowLeft.mouseout"/>
                  </use>
                  <path fill="none" stroke="white" stroke-width="1.5" d="M0,-3.0v7 M-2.5,-0.5L0,-3.0L2.5,-0.5"/>
                </g>
        </g>
        <svg viewBox="0 0 15 15" width="100%" height="30px" preserveAspectRatio="xMaxYMin meet">
         <g id="arrow_out" transform="scale(0.3 0.3)">
          <a xlink:href="classokw_1_1core_1_1_o_k_a2ec62170b8430a0ea58e919d8d46a7c0_cgraph_org.svg" target="_base">
           <rect id="button" ry="5" rx="5" y="6" x="6" height="38" width="38"
                fill="#f2f5e9" fill-opacity="0.5" stroke="#606060" stroke-width="1.0"/>
           <path id="arrow"
             d="M 11.500037,31.436501 C 11.940474,20.09759 22.043105,11.32322 32.158766,21.979434 L 37.068811,17.246167 C 37.068811,17.246167 37.088388,32 37.088388,32 L 22.160133,31.978069 C 22.160133,31.978069 26.997745,27.140456 26.997745,27.140456 C 18.528582,18.264221 13.291696,25.230495 11.500037,31.436501 z"
             style="fill:#404040;"/>
          </a>
         </g>
        </svg>
</svg>
