<?xml version="1.0" encoding="UTF-8" standalone="no"?>
<!DOCTYPE svg PUBLIC "-//W3C//DTD SVG 1.1//EN"
 "http://www.w3.org/Graphics/SVG/1.1/DTD/svg11.dtd">
<!-- Generated by graphviz version 2.36.0 (20140111.2315)
 -->
<!-- Title: okw.OKW_Memorize_Sngltn.get Pages: 1 -->
<!--zoomable 1571 -->
<svg id="main" version="1.1" xmlns="http://www.w3.org/2000/svg" xmlns:xlink="http://www.w3.org/1999/xlink" xml:space="preserve" onload="init(evt)">
<style type="text/css"><![CDATA[
.edge:hover path { stroke: red; }
.edge:hover polygon { stroke: red; fill: red; }
]]></style>
<script type="text/javascript"><![CDATA[
var edges = document.getElementsByTagName('g');
if (edges && edges.length) {
  for (var i=0;i<edges.length;i++) {
    if (edges[i].id.substr(0,4)=='edge') {
      edges[i].setAttribute('class','edge');
    }
  }
}
]]></script>
        <defs>
                <circle id="rim" cx="0" cy="0" r="7"/>
                <circle id="rim2" cx="0" cy="0" r="3.5"/>
                <g id="zoomPlus">
                        <use xlink:href="#rim" fill="#404040">
                                <set attributeName="fill" to="#808080" begin="zoomplus.mouseover" end="zoomplus.mouseout"/>
                        </use>
                        <path d="M-4,0h8M0,-4v8" fill="none" stroke="white" stroke-width="1.5" pointer-events="none"/>
                </g>
                <g id="zoomMin">
                        <use xlink:href="#rim" fill="#404040">
                                <set attributeName="fill" to="#808080" begin="zoomminus.mouseover" end="zoomminus.mouseout"/>
                        </use>
                        <path d="M-4,0h8" fill="none" stroke="white" stroke-width="1.5" pointer-events="none"/>
                </g>
                <g id="dirArrow">
                        <path fill="none" stroke="white" stroke-width="1.5" d="M0,-3.0v7 M-2.5,-0.5L0,-3.0L2.5,-0.5"/>
                </g>
               <g id="resetDef">
                       <use xlink:href="#rim2" fill="#404040">
                               <set attributeName="fill" to="#808080" begin="reset.mouseover" end="reset.mouseout"/>
                       </use>
               </g>
        </defs>

<script type="text/javascript">
var viewWidth = 414;
var viewHeight = 1571;
var sectionId = 'dynsection-3';
</script>
<script xlink:href="svgpan.js"/>
<svg id="graph" class="graph">
<g id="viewport">
<title>okw.OKW_Memorize_Sngltn.get</title>
<polygon fill="white" stroke="none" points="-4,4 -4,-1567 410,-1567 410,4 -4,4"/>
<!-- Node51 -->
<g id="node1" class="node"><title>Node51</title>
<polygon fill="#bfbfbf" stroke="black" points="0.5,-781.5 0.5,-800.5 159.5,-800.5 159.5,-781.5 0.5,-781.5"/>
<text text-anchor="middle" x="80" y="-788.5" font-family="Helvetica,sans-Serif" font-size="10.00">okw.OKW_Memorize_Sngltn.get</text>
</g>
<!-- Node52 -->
<g id="node2" class="node"><title>Node52</title>
<g id="a_node2"><a xlink:href="classokw_1_1core_1_1_e_n___keywords___a_n_t_l_r___test.html#a014ad937ba05658b9530788f42340ca4" target="_top" xlink:title="Prüft das Schlüsselwort &quot;BeginTest&quot; mit dem Testziel, dass der aktuelle Testfallname unter dem MemKey...">
<polygon fill="white" stroke="black" points="231,-1521.5 231,-1562.5 371,-1562.5 371,-1521.5 231,-1521.5"/>
<text text-anchor="start" x="239" y="-1550.5" font-family="Helvetica,sans-Serif" font-size="10.00">okw.core.EN_Keywords</text>
<text text-anchor="start" x="239" y="-1539.5" font-family="Helvetica,sans-Serif" font-size="10.00">_ANTLR_Test.tc_BeginTest</text>
<text text-anchor="middle" x="301" y="-1528.5" font-family="Helvetica,sans-Serif" font-size="10.00">_TestCaseName</text>
</a>
</g>
</g>
<!-- Node51&#45;&gt;Node52 -->
<g id="edge1" class="edge"><title>Node51&#45;&gt;Node52</title>
<path fill="none" stroke="midnightblue" d="M81.4139,-811.124C83.9785,-916.343 100.893,-1402.51 196,-1511 205.19,-1521.48 217.758,-1528.5 230.981,-1533.17"/>
<polygon fill="midnightblue" stroke="midnightblue" points="84.9087,-810.855 81.1826,-800.937 77.9105,-811.014 84.9087,-810.855"/>
</g>
<!-- Node53 -->
<g id="node3" class="node"><title>Node53</title>
<g id="a_node3"><a xlink:href="classokw_1_1_se_b_a_c_k_1_1_se_b_a_c_k___e_n___test.html#a216f20ac0d64b78675a285836ee8449a" target="_top" xlink:title="Testet das Schlüsselwort MemorizeExists( FN, Val ) eines SeBACK Prüfen. ">
<polygon fill="white" stroke="black" points="198,-1461.5 198,-1502.5 404,-1502.5 404,-1461.5 198,-1461.5"/>
<text text-anchor="start" x="206" y="-1490.5" font-family="Helvetica,sans-Serif" font-size="10.00">okw.SeBACK.SeBACK_EN</text>
<text text-anchor="start" x="206" y="-1479.5" font-family="Helvetica,sans-Serif" font-size="10.00">_Test.tcMemorizeExists</text>
<text text-anchor="middle" x="301" y="-1468.5" font-family="Helvetica,sans-Serif" font-size="10.00">_OKWFrameObjectMethodNotImplemented</text>
</a>
</g>
</g>
<!-- Node51&#45;&gt;Node53 -->
<g id="edge2" class="edge"><title>Node51&#45;&gt;Node53</title>
<path fill="none" stroke="midnightblue" d="M81.694,-810.721C85.5773,-909.932 107.723,-1353.58 196,-1452 199.137,-1455.5 202.653,-1458.6 206.444,-1461.35"/>
<polygon fill="midnightblue" stroke="midnightblue" points="85.1868,-810.462 81.3156,-800.599 78.1917,-810.723 85.1868,-810.462"/>
</g>
<!-- Node54 -->
<g id="node4" class="node"><title>Node54</title>
<g id="a_node4"><a xlink:href="classokw_1_1_se_b_a_c_k_1_1_se_b_a_c_k___e_n___test.html#a6fec92f9be648729f1b3b40e7366fb5e" target="_top" xlink:title="Teste das Schlüsselwort MemorizeIsActive( FN, MemKey ) eines SeBACK Prüfen. ">
<polygon fill="white" stroke="black" points="231,-1413 231,-1443 371,-1443 371,-1413 231,-1413"/>
<text text-anchor="start" x="239" y="-1431" font-family="Helvetica,sans-Serif" font-size="10.00">okw.SeBACK.SeBACK_EN</text>
<text text-anchor="middle" x="301" y="-1420" font-family="Helvetica,sans-Serif" font-size="10.00">_Test.tcMemorizeIsActive</text>
</a>
</g>
</g>
<!-- Node51&#45;&gt;Node54 -->
<g id="edge3" class="edge"><title>Node51&#45;&gt;Node54</title>
<path fill="none" stroke="midnightblue" d="M81.9106,-810.823C86.6821,-905.936 111.878,-1314.55 196,-1403 205.342,-1412.82 217.813,-1419.08 230.869,-1423"/>
<polygon fill="midnightblue" stroke="midnightblue" points="85.4059,-810.64 81.4273,-800.821 78.4141,-810.978 85.4059,-810.64"/>
</g>
<!-- Node55 -->
<g id="node5" class="node"><title>Node55</title>
<g id="a_node5"><a xlink:href="classokw_1_1_se_button_1_1_se_button___e_n___test.html#a9945d7e2b928f3055a48cfdd63c5c7f7" target="_top" xlink:title="Test des Schlüsselwortes MemorizeCaption für den GUI&#45;Adapter SeButton. ">
<polygon fill="white" stroke="black" points="226.5,-1364 226.5,-1394 375.5,-1394 375.5,-1364 226.5,-1364"/>
<text text-anchor="start" x="234.5" y="-1382" font-family="Helvetica,sans-Serif" font-size="10.00">okw.SeButton.SeButton</text>
<text text-anchor="middle" x="301" y="-1371" font-family="Helvetica,sans-Serif" font-size="10.00">_EN_Test.tcMemorizeCaption</text>
</a>
</g>
</g>
<!-- Node51&#45;&gt;Node55 -->
<g id="edge4" class="edge"><title>Node51&#45;&gt;Node55</title>
<path fill="none" stroke="midnightblue" d="M82.2688,-810.935C88.4372,-901.532 118.225,-1273.5 196,-1354 204.322,-1362.61 215.053,-1368.47 226.45,-1372.42"/>
<polygon fill="midnightblue" stroke="midnightblue" points="85.7575,-810.646 81.6051,-800.899 78.7728,-811.108 85.7575,-810.646"/>
</g>
<!-- Node56 -->
<g id="node6" class="node"><title>Node56</title>
<g id="a_node6"><a xlink:href="classokw_1_1_se_button_1_1_se_button___e_n___test.html#abf28e6329df074217d8c0bc889fdb9b4" target="_top" xlink:title="Test des Schlüsselwortes MemorizeCaption für den GUI&#45;Adapter SeButton. ">
<polygon fill="white" stroke="black" points="232,-1315 232,-1345 370,-1345 370,-1315 232,-1315"/>
<text text-anchor="start" x="240" y="-1333" font-family="Helvetica,sans-Serif" font-size="10.00">okw.SeButton.SeButton</text>
<text text-anchor="middle" x="301" y="-1322" font-family="Helvetica,sans-Serif" font-size="10.00">_EN_Test.tcMemorizeLabel</text>
</a>
</g>
</g>
<!-- Node51&#45;&gt;Node56 -->
<g id="edge5" class="edge"><title>Node51&#45;&gt;Node56</title>
<path fill="none" stroke="midnightblue" d="M82.6993,-811.075C90.3712,-896.962 124.553,-1232.42 196,-1305 205.705,-1314.86 218.569,-1321.1 231.932,-1324.99"/>
<polygon fill="midnightblue" stroke="midnightblue" points="86.1643,-810.521 81.8083,-800.863 79.1908,-811.129 86.1643,-810.521"/>
</g>
<!-- Node57 -->
<g id="node7" class="node"><title>Node57</title>
<g id="a_node7"><a xlink:href="classokw_1_1_se_button_1_1_se_button___e_n___test.html#a20800e29ef36853176b5c9967a8b161b" target="_top" xlink:title="Test des Schlüsselwortes MemorizeExists für den GUI&#45;Adapter SeButton. ">
<polygon fill="white" stroke="black" points="229.5,-1266 229.5,-1296 372.5,-1296 372.5,-1266 229.5,-1266"/>
<text text-anchor="start" x="237.5" y="-1284" font-family="Helvetica,sans-Serif" font-size="10.00">okw.SeButton.SeButton</text>
<text text-anchor="middle" x="301" y="-1273" font-family="Helvetica,sans-Serif" font-size="10.00">_EN_Test.tcMemorizeExists</text>
</a>
</g>
</g>
<!-- Node51&#45;&gt;Node57 -->
<g id="edge6" class="edge"><title>Node51&#45;&gt;Node57</title>
<path fill="none" stroke="midnightblue" d="M83.1897,-810.93C92.4269,-891.408 130.773,-1191.2 196,-1256 205.156,-1265.1 217.005,-1271.1 229.411,-1275.01"/>
<polygon fill="midnightblue" stroke="midnightblue" points="86.635,-810.247 82.0383,-800.702 79.6789,-811.031 86.635,-810.247"/>
</g>
<!-- Node58 -->
<g id="node8" class="node"><title>Node58</title>
<g id="a_node8"><a xlink:href="classokw_1_1_se_button_1_1_se_button___e_n___test.html#a9707ba1526eeda75c8fa41e1e8164aa0" target="_top" xlink:title="Test des Schlüsselwortes MemorizeHasFocus für den GUI&#45;Adapter SeButton. ">
<polygon fill="white" stroke="black" points="221,-1217 221,-1247 381,-1247 381,-1217 221,-1217"/>
<text text-anchor="start" x="229" y="-1235" font-family="Helvetica,sans-Serif" font-size="10.00">okw.SeButton.SeButton</text>
<text text-anchor="middle" x="301" y="-1224" font-family="Helvetica,sans-Serif" font-size="10.00">_EN_Test.tcMemorizeHasFocus</text>
</a>
</g>
</g>
<!-- Node51&#45;&gt;Node58 -->
<g id="edge7" class="edge"><title>Node51&#45;&gt;Node58</title>
<path fill="none" stroke="midnightblue" d="M83.7789,-810.733C94.6937,-885.484 136.944,-1149.91 196,-1207 203.076,-1213.84 211.68,-1218.92 220.875,-1222.68"/>
<polygon fill="midnightblue" stroke="midnightblue" points="87.2347,-810.174 82.3477,-800.774 80.3059,-811.17 87.2347,-810.174"/>
</g>
<!-- Node59 -->
<g id="node9" class="node"><title>Node59</title>
<g id="a_node9"><a xlink:href="classokw_1_1_se_button_1_1_se_button___e_n___test.html#a6598b01b18a4f5b518b5d610d1c8d290" target="_top" xlink:title="Test des Schlüsselwortes MemorizeIsActive für den GUI&#45;Adapter SeButton. ">
<polygon fill="white" stroke="black" points="225.5,-1168 225.5,-1198 376.5,-1198 376.5,-1168 225.5,-1168"/>
<text text-anchor="start" x="233.5" y="-1186" font-family="Helvetica,sans-Serif" font-size="10.00">okw.SeButton.SeButton</text>
<text text-anchor="middle" x="301" y="-1175" font-family="Helvetica,sans-Serif" font-size="10.00">_EN_Test.tcMemorizeIsActive</text>
</a>
</g>
</g>
<!-- Node51&#45;&gt;Node59 -->
<g id="edge8" class="edge"><title>Node51&#45;&gt;Node59</title>
<path fill="none" stroke="midnightblue" d="M80.8548,-810.957C81.5489,-872.531 92.4201,-1061.21 196,-1158 204.277,-1165.73 214.514,-1171.2 225.307,-1175.04"/>
<polygon fill="midnightblue" stroke="midnightblue" points="84.3541,-810.684 80.8253,-800.694 77.3542,-810.704 84.3541,-810.684"/>
</g>
<!-- Node60 -->
<g id="node10" class="node"><title>Node60</title>
<g id="a_node10"><a xlink:href="classokw_1_1_se_button_1_1_se_button___e_n___test.html#ab5f86f97a634753914c8c2b08b155a05" target="_top" xlink:title="Test des Schlüsselwortes MemorizeTooltip für den GUI&#45;Adapter SeButton. ">
<polygon fill="white" stroke="black" points="229,-1119 229,-1149 373,-1149 373,-1119 229,-1119"/>
<text text-anchor="start" x="237" y="-1137" font-family="Helvetica,sans-Serif" font-size="10.00">okw.SeButton.SeButton</text>
<text text-anchor="middle" x="301" y="-1126" font-family="Helvetica,sans-Serif" font-size="10.00">_EN_Test.tcMemorizeTooltip</text>
</a>
</g>
</g>
<!-- Node51&#45;&gt;Node60 -->
<g id="edge9" class="edge"><title>Node51&#45;&gt;Node60</title>
<path fill="none" stroke="midnightblue" d="M81.9518,-810.847C85.7507,-866.816 104.501,-1027.14 196,-1109 205.273,-1117.3 216.815,-1122.96 228.804,-1126.81"/>
<polygon fill="midnightblue" stroke="midnightblue" points="85.4277,-810.332 81.3473,-800.554 78.4397,-810.742 85.4277,-810.332"/>
</g>
<!-- Node61 -->
<g id="node11" class="node"><title>Node61</title>
<g id="a_node11"><a xlink:href="classokw_1_1_se_input_checkbox_1_1_se_input_checkbox___e_n___test.html#ad65d7242329916eba19b5ee13e6e96b6" target="_top" xlink:title="Logget ob ein vorhandenes objekt existiert. ">
<polygon fill="white" stroke="black" points="207.5,-1070 207.5,-1100 394.5,-1100 394.5,-1070 207.5,-1070"/>
<text text-anchor="start" x="215.5" y="-1088" font-family="Helvetica,sans-Serif" font-size="10.00">okw.SeInputCheckbox.SeInput</text>
<text text-anchor="middle" x="301" y="-1077" font-family="Helvetica,sans-Serif" font-size="10.00">Checkbox_EN_Test.tcMemorizeExists</text>
</a>
</g>
</g>
<!-- Node51&#45;&gt;Node61 -->
<g id="edge10" class="edge"><title>Node51&#45;&gt;Node61</title>
<path fill="none" stroke="midnightblue" d="M83.3999,-810.754C90.5554,-860.697 116.445,-992.807 196,-1060 200.54,-1063.83 205.57,-1067.1 210.896,-1069.88"/>
<polygon fill="midnightblue" stroke="midnightblue" points="86.8435,-810.098 82.0523,-800.648 79.9049,-811.023 86.8435,-810.098"/>
</g>
<!-- Node62 -->
<g id="node12" class="node"><title>Node62</title>
<g id="a_node12"><a xlink:href="classokw_1_1_se_input_checkbox_1_1_se_input_checkbox___e_n___test.html#afafdab11ea44117d916cdcaba9d30cce" target="_top" xlink:title="Speichert ob ein vorhandenes objekt existiert. ">
<polygon fill="white" stroke="black" points="207,-1021 207,-1051 395,-1051 395,-1021 207,-1021"/>
<text text-anchor="start" x="215" y="-1039" font-family="Helvetica,sans-Serif" font-size="10.00">okw.SeInputCheckbox.SeInput</text>
<text text-anchor="middle" x="301" y="-1028" font-family="Helvetica,sans-Serif" font-size="10.00">Checkbox_EN_Test.tcMemorizeTooltip</text>
</a>
</g>
</g>
<!-- Node51&#45;&gt;Node62 -->
<g id="edge11" class="edge"><title>Node51&#45;&gt;Node62</title>
<path fill="none" stroke="midnightblue" d="M85.4061,-810.61C96.1974,-853.92 128.168,-958.08 196,-1011 200.978,-1014.88 206.468,-1018.18 212.247,-1020.97"/>
<polygon fill="midnightblue" stroke="midnightblue" points="88.7812,-809.674 83.0597,-800.757 81.9716,-811.295 88.7812,-809.674"/>
</g>
<!-- Node63 -->
<g id="node13" class="node"><title>Node63</title>
<g id="a_node13"><a xlink:href="classokw_1_1_se_input_checkbox_1_1_se_input_checkbox___e_n___test.html#a6f0bfeb1a421a5e4c60e70659420fe5a" target="_top" xlink:title="Speichert ob ein vorhandenes objekt existiert. ">
<polygon fill="white" stroke="black" points="209,-972 209,-1002 393,-1002 393,-972 209,-972"/>
<text text-anchor="start" x="217" y="-990" font-family="Helvetica,sans-Serif" font-size="10.00">okw.SeInputCheckbox.SeInput</text>
<text text-anchor="middle" x="301" y="-979" font-family="Helvetica,sans-Serif" font-size="10.00">Checkbox_EN_Test.tcMemorizeValue</text>
</a>
</g>
</g>
<!-- Node51&#45;&gt;Node63 -->
<g id="edge12" class="edge"><title>Node51&#45;&gt;Node63</title>
<path fill="none" stroke="midnightblue" d="M88.3637,-810.299C103.061,-846.113 139.556,-922.774 196,-962 201.566,-965.868 207.659,-969.141 214.015,-971.911"/>
<polygon fill="midnightblue" stroke="midnightblue" points="91.4486,-808.584 84.5042,-800.582 84.943,-811.168 91.4486,-808.584"/>
</g>
<!-- Node64 -->
<g id="node14" class="node"><title>Node64</title>
<g id="a_node14"><a xlink:href="classokw_1_1_se_input_checkbox_1_1_se_input_checkbox___e_n___test.html#ad572d5badb79741c496835cbb5c2d6df" target="_top" xlink:title="Prüft die SetFocusFunktion bei Textfelder mit dem Attribute &quot;ReadOnly&quot;. ">
<polygon fill="white" stroke="black" points="222,-923 222,-953 380,-953 380,-923 222,-923"/>
<text text-anchor="start" x="230" y="-941" font-family="Helvetica,sans-Serif" font-size="10.00">okw.SeInputCheckbox.SeInput</text>
<text text-anchor="middle" x="301" y="-930" font-family="Helvetica,sans-Serif" font-size="10.00">Checkbox_EN_Test.tcSetFocus</text>
</a>
</g>
</g>
<!-- Node51&#45;&gt;Node64 -->
<g id="edge13" class="edge"><title>Node51&#45;&gt;Node64</title>
<path fill="none" stroke="midnightblue" d="M92.9098,-809.211C111.555,-836.203 150.274,-886.489 196,-913 204.033,-917.657 212.895,-921.449 221.956,-924.535"/>
<polygon fill="midnightblue" stroke="midnightblue" points="95.6689,-807.042 87.1734,-800.711 89.8668,-810.958 95.6689,-807.042"/>
</g>
<!-- Node65 -->
<g id="node15" class="node"><title>Node65</title>
<g id="a_node15"><a xlink:href="classokw_1_1_se_input_field_1_1_se_input_field___e_n___test.html#a2a649957e3eb7b2a00fae75dd386ff6b" target="_top" xlink:title="Teste das Schlüsselwort MemorizeExists( FN, MemKey ) eines SeInputText Prüfen. ">
<polygon fill="white" stroke="black" points="206,-874 206,-904 396,-904 396,-874 206,-874"/>
<text text-anchor="start" x="214" y="-892" font-family="Helvetica,sans-Serif" font-size="10.00">okw.SeInputField.SeInput</text>
<text text-anchor="middle" x="301" y="-881" font-family="Helvetica,sans-Serif" font-size="10.00">Field_EN_Test.TC_MemorizeExists_en</text>
</a>
</g>
</g>
<!-- Node51&#45;&gt;Node65 -->
<g id="edge14" class="edge"><title>Node51&#45;&gt;Node65</title>
<path fill="none" stroke="midnightblue" d="M101.258,-806.804C123.375,-823.33 160.404,-848.919 196,-864 204.977,-867.803 214.646,-871.098 224.345,-873.933"/>
<polygon fill="midnightblue" stroke="midnightblue" points="103.089,-803.8 93.0084,-800.54 98.8563,-809.375 103.089,-803.8"/>
</g>
<!-- Node66 -->
<g id="node16" class="node"><title>Node66</title>
<g id="a_node16"><a xlink:href="classokw_1_1_se_input_field_1_1_se_input_field___e_n___test.html#acd5886595f784cf019869d6ea13e8d01" target="_top" xlink:title="Teste das Schlüsselwort MemorizeHasFocus( FN, MemKey ) eines SeInputText Prüfen. ">
<polygon fill="white" stroke="black" points="210.5,-825 210.5,-855 391.5,-855 391.5,-825 210.5,-825"/>
<text text-anchor="start" x="218.5" y="-843" font-family="Helvetica,sans-Serif" font-size="10.00">okw.SeInputField.SeInput</text>
<text text-anchor="middle" x="301" y="-832" font-family="Helvetica,sans-Serif" font-size="10.00">Field_EN_Test.tcMemorizeHasFocus</text>
</a>
</g>
</g>
<!-- Node51&#45;&gt;Node66 -->
<g id="edge15" class="edge"><title>Node51&#45;&gt;Node66</title>
<path fill="none" stroke="midnightblue" d="M133.262,-802.693C163.037,-809.355 200.667,-817.775 232.641,-824.929"/>
<polygon fill="midnightblue" stroke="midnightblue" points="134.008,-799.274 123.485,-800.506 132.48,-806.105 134.008,-799.274"/>
</g>
<!-- Node67 -->
<g id="node17" class="node"><title>Node67</title>
<g id="a_node17"><a xlink:href="classokw_1_1_se_input_field_1_1_se_input_field___e_n___test.html#a2b32a4338175e0f367218d82c92e7587" target="_top" xlink:title="Teste das Schlüsselwort MemorizeIsActive( FN, MemKey ) eines SeInputText Prüfen. ">
<polygon fill="white" stroke="black" points="207,-776 207,-806 395,-806 395,-776 207,-776"/>
<text text-anchor="start" x="215" y="-794" font-family="Helvetica,sans-Serif" font-size="10.00">okw.SeInputField.SeInput</text>
<text text-anchor="middle" x="301" y="-783" font-family="Helvetica,sans-Serif" font-size="10.00">Field_EN_Test.tcMemorizeIsActive_en</text>
</a>
</g>
</g>
<!-- Node51&#45;&gt;Node67 -->
<g id="edge16" class="edge"><title>Node51&#45;&gt;Node67</title>
<path fill="none" stroke="midnightblue" d="M169.843,-791C181.968,-791 194.443,-791 206.645,-791"/>
<polygon fill="midnightblue" stroke="midnightblue" points="169.755,-787.5 159.755,-791 169.755,-794.5 169.755,-787.5"/>
</g>
<!-- Node68 -->
<g id="node18" class="node"><title>Node68</title>
<g id="a_node18"><a xlink:href="classokw_1_1_se_input_field_1_1_se_input_field___e_n___test.html#a6ae8699a98d818972e564c77d818da20" target="_top" xlink:title="Teste das Schlüsselwort MemorizeLabel( FN, MemKey ) eines SeInputText Prüfen. ">
<polygon fill="white" stroke="black" points="221.5,-727 221.5,-757 380.5,-757 380.5,-727 221.5,-727"/>
<text text-anchor="start" x="229.5" y="-745" font-family="Helvetica,sans-Serif" font-size="10.00">okw.SeInputField.SeInput</text>
<text text-anchor="middle" x="301" y="-734" font-family="Helvetica,sans-Serif" font-size="10.00">Field_EN_Test.tcMemorizeLabel</text>
</a>
</g>
</g>
<!-- Node51&#45;&gt;Node68 -->
<g id="edge17" class="edge"><title>Node51&#45;&gt;Node68</title>
<path fill="none" stroke="midnightblue" d="M133.262,-779.307C163.037,-772.645 200.667,-764.225 232.641,-757.071"/>
<polygon fill="midnightblue" stroke="midnightblue" points="132.48,-775.895 123.485,-781.494 134.008,-782.726 132.48,-775.895"/>
</g>
<!-- Node69 -->
<g id="node19" class="node"><title>Node69</title>
<g id="a_node19"><a xlink:href="classokw_1_1_se_input_field_1_1_se_input_field___e_n___test.html#acb693489ff268a48bee2955bc73062bb" target="_top" xlink:title="Testet ob das Schlüsselwort MemorizePlaceholder( FN, MemKey ) der Klasse SeInputText implementiert is...">
<polygon fill="white" stroke="black" points="207.5,-678 207.5,-708 394.5,-708 394.5,-678 207.5,-678"/>
<text text-anchor="start" x="215.5" y="-696" font-family="Helvetica,sans-Serif" font-size="10.00">okw.SeInputField.SeInput</text>
<text text-anchor="middle" x="301" y="-685" font-family="Helvetica,sans-Serif" font-size="10.00">Field_EN_Test.tcMemorizePlaceholder</text>
</a>
</g>
</g>
<!-- Node51&#45;&gt;Node69 -->
<g id="edge18" class="edge"><title>Node51&#45;&gt;Node69</title>
<path fill="none" stroke="midnightblue" d="M101.258,-775.196C123.375,-758.67 160.404,-733.081 196,-718 204.977,-714.197 214.646,-710.902 224.345,-708.067"/>
<polygon fill="midnightblue" stroke="midnightblue" points="98.8563,-772.625 93.0084,-781.46 103.089,-778.2 98.8563,-772.625"/>
</g>
<!-- Node70 -->
<g id="node20" class="node"><title>Node70</title>
<g id="a_node20"><a xlink:href="classokw_1_1_se_input_field_1_1_se_input_field___e_n___test.html#ab6cc18cf0a879e094db1b03150a0d270" target="_top" xlink:title="Teste das Schlüsselwort MemorizeTooltip( FN, MemKey ) eines SeInputText Prüfen. ">
<polygon fill="white" stroke="black" points="217,-629 217,-659 385,-659 385,-629 217,-629"/>
<text text-anchor="start" x="225" y="-647" font-family="Helvetica,sans-Serif" font-size="10.00">okw.SeInputField.SeInput</text>
<text text-anchor="middle" x="301" y="-636" font-family="Helvetica,sans-Serif" font-size="10.00">Field_EN_Test.tcMemorizeToolTip</text>
</a>
</g>
</g>
<!-- Node51&#45;&gt;Node70 -->
<g id="edge19" class="edge"><title>Node51&#45;&gt;Node70</title>
<path fill="none" stroke="midnightblue" d="M92.9098,-772.789C111.555,-745.797 150.274,-695.511 196,-669 202.747,-665.088 210.08,-661.787 217.624,-659.001"/>
<polygon fill="midnightblue" stroke="midnightblue" points="89.8668,-771.042 87.1734,-781.289 95.6689,-774.958 89.8668,-771.042"/>
</g>
<!-- Node71 -->
<g id="node21" class="node"><title>Node71</title>
<g id="a_node21"><a xlink:href="classokw_1_1_se_input_field_1_1_se_input_field___e_n___test.html#a49f951b6ec1ce68d0eccdb21dc57786b" target="_top" xlink:title="Teste das Schlüsselwort MemorizeValue( FN, MemKey ) eines SeInputText Prüfen. ">
<polygon fill="white" stroke="black" points="220.5,-580 220.5,-610 381.5,-610 381.5,-580 220.5,-580"/>
<text text-anchor="start" x="228.5" y="-598" font-family="Helvetica,sans-Serif" font-size="10.00">okw.SeInputField.SeInput</text>
<text text-anchor="middle" x="301" y="-587" font-family="Helvetica,sans-Serif" font-size="10.00">Field_EN_Test.tcMemorizeValue</text>
</a>
</g>
</g>
<!-- Node51&#45;&gt;Node71 -->
<g id="edge20" class="edge"><title>Node51&#45;&gt;Node71</title>
<path fill="none" stroke="midnightblue" d="M88.3637,-771.701C103.061,-735.887 139.556,-659.226 196,-620 203.396,-614.86 211.722,-610.771 220.361,-607.518"/>
<polygon fill="midnightblue" stroke="midnightblue" points="84.943,-770.832 84.5042,-781.418 91.4486,-773.416 84.943,-770.832"/>
</g>
<!-- Node72 -->
<g id="node22" class="node"><title>Node72</title>
<g id="a_node22"><a xlink:href="classokw_1_1_se_link_1_1_se_link___e_n___test.html#ade5477cb18a1aaf96deb62f11f8a69c0" target="_top" xlink:title="Tooltip eines Textfeldes Prüfen. ">
<polygon fill="white" stroke="black" points="237.5,-531 237.5,-561 364.5,-561 364.5,-531 237.5,-531"/>
<text text-anchor="start" x="245.5" y="-549" font-family="Helvetica,sans-Serif" font-size="10.00">okw.SeLink.SeLink_EN</text>
<text text-anchor="middle" x="301" y="-538" font-family="Helvetica,sans-Serif" font-size="10.00">_Test.TC_LogToolTip_en</text>
</a>
</g>
</g>
<!-- Node51&#45;&gt;Node72 -->
<g id="edge21" class="edge"><title>Node51&#45;&gt;Node72</title>
<path fill="none" stroke="midnightblue" d="M85.4061,-771.39C96.1974,-728.08 128.168,-623.92 196,-571 207.859,-561.748 222.626,-555.848 237.272,-552.105"/>
<polygon fill="midnightblue" stroke="midnightblue" points="81.9716,-770.705 83.0597,-781.243 88.7812,-772.326 81.9716,-770.705"/>
</g>
<!-- Node73 -->
<g id="node23" class="node"><title>Node73</title>
<g id="a_node23"><a xlink:href="classokw_1_1_se_link_1_1_se_link___e_n___test.html#ad01a36c9b258f69ec17ebba1b0f85eac" target="_top" xlink:title="Prüft die Methode SeLink.MemorizeToolTip. ">
<polygon fill="white" stroke="black" points="226.5,-482 226.5,-512 375.5,-512 375.5,-482 226.5,-482"/>
<text text-anchor="start" x="234.5" y="-500" font-family="Helvetica,sans-Serif" font-size="10.00">okw.SeLink.SeLink_EN</text>
<text text-anchor="middle" x="301" y="-489" font-family="Helvetica,sans-Serif" font-size="10.00">_Test.TC_MemorizeExists_en</text>
</a>
</g>
</g>
<!-- Node51&#45;&gt;Node73 -->
<g id="edge22" class="edge"><title>Node51&#45;&gt;Node73</title>
<path fill="none" stroke="midnightblue" d="M83.3999,-771.246C90.5554,-721.303 116.445,-589.193 196,-522 204.796,-514.571 215.431,-509.274 226.499,-505.512"/>
<polygon fill="midnightblue" stroke="midnightblue" points="79.9049,-770.977 82.0523,-781.352 86.8435,-771.902 79.9049,-770.977"/>
</g>
<!-- Node74 -->
<g id="node24" class="node"><title>Node74</title>
<g id="a_node24"><a xlink:href="classokw_1_1_se_link_1_1_se_link___e_n___test.html#a62aa2dfe0475b6579877aa5ef89615c3" target="_top" xlink:title="Prüft die Methode SeLink.MemorizeFocus. ">
<polygon fill="white" stroke="black" points="217.5,-433 217.5,-463 384.5,-463 384.5,-433 217.5,-433"/>
<text text-anchor="start" x="225.5" y="-451" font-family="Helvetica,sans-Serif" font-size="10.00">okw.SeLink.SeLink_EN</text>
<text text-anchor="middle" x="301" y="-440" font-family="Helvetica,sans-Serif" font-size="10.00">_Test.TC_MemorizeHasFocus_en</text>
</a>
</g>
</g>
<!-- Node51&#45;&gt;Node74 -->
<g id="edge23" class="edge"><title>Node51&#45;&gt;Node74</title>
<path fill="none" stroke="midnightblue" d="M81.9518,-771.153C85.7507,-715.184 104.501,-554.859 196,-473 202.297,-467.366 209.641,-462.946 217.461,-459.484"/>
<polygon fill="midnightblue" stroke="midnightblue" points="78.4397,-771.258 81.3473,-781.446 85.4277,-771.668 78.4397,-771.258"/>
</g>
<!-- Node75 -->
<g id="node25" class="node"><title>Node75</title>
<g id="a_node25"><a xlink:href="classokw_1_1_se_link_1_1_se_link___e_n___test.html#ad88f4d017f1a55ad12f9ffc5ed0ab336" target="_top" xlink:title="Prüft die Methode SeLink.MemorizeToolTip. ">
<polygon fill="white" stroke="black" points="224,-384 224,-414 378,-414 378,-384 224,-384"/>
<text text-anchor="start" x="232" y="-402" font-family="Helvetica,sans-Serif" font-size="10.00">okw.SeLink.SeLink_EN</text>
<text text-anchor="middle" x="301" y="-391" font-family="Helvetica,sans-Serif" font-size="10.00">_Test.TC_MemorizeToolTip_en</text>
</a>
</g>
</g>
<!-- Node51&#45;&gt;Node75 -->
<g id="edge24" class="edge"><title>Node51&#45;&gt;Node75</title>
<path fill="none" stroke="midnightblue" d="M80.8548,-771.043C81.5489,-709.469 92.4201,-520.79 196,-424 203.937,-416.583 213.678,-411.25 223.983,-407.437"/>
<polygon fill="midnightblue" stroke="midnightblue" points="77.3542,-771.296 80.8253,-781.306 84.3541,-771.316 77.3542,-771.296"/>
</g>
<!-- Node76 -->
<g id="node26" class="node"><title>Node76</title>
<g id="a_node26"><a xlink:href="classokw_1_1_se_m_a_x_i_m_i_z_e_1_1_se_m_a_x_i_m_i_z_e___e_n___test.html#a8f628d8a0b5dc48364458121ed12d463" target="_top" xlink:title="Testet das Schlüsselwort MemorizeExists( FN, Val ) eines SeMAXIMIZE Prüfen. ">
<polygon fill="white" stroke="black" points="198,-324.5 198,-365.5 404,-365.5 404,-324.5 198,-324.5"/>
<text text-anchor="start" x="206" y="-353.5" font-family="Helvetica,sans-Serif" font-size="10.00">okw.SeMAXIMIZE.SeMAXIMIZE</text>
<text text-anchor="start" x="206" y="-342.5" font-family="Helvetica,sans-Serif" font-size="10.00">_EN_Test.tcMemorizeExists</text>
<text text-anchor="middle" x="301" y="-331.5" font-family="Helvetica,sans-Serif" font-size="10.00">_OKWFrameObjectMethodNotImplemented</text>
</a>
</g>
</g>
<!-- Node51&#45;&gt;Node76 -->
<g id="edge25" class="edge"><title>Node51&#45;&gt;Node76</title>
<path fill="none" stroke="midnightblue" d="M83.8591,-771.349C95.0662,-696.893 138.241,-433.405 196,-375 199.436,-371.526 203.246,-368.448 207.32,-365.722"/>
<polygon fill="midnightblue" stroke="midnightblue" points="80.3931,-770.862 82.3883,-781.267 87.3174,-771.889 80.3931,-770.862"/>
</g>
<!-- Node77 -->
<g id="node27" class="node"><title>Node77</title>
<g id="a_node27"><a xlink:href="classokw_1_1_se_m_a_x_i_m_i_z_e_1_1_se_m_a_x_i_m_i_z_e___e_n___test.html#af649d3166ca3d9bc4c1f3858089a0853" target="_top" xlink:title="Teste das Schlüsselwort MemorizeIsActive( FN, MemKey ) eines SeMAXIMIZE Prüfen. ">
<polygon fill="white" stroke="black" points="220,-276 220,-306 382,-306 382,-276 220,-276"/>
<text text-anchor="start" x="228" y="-294" font-family="Helvetica,sans-Serif" font-size="10.00">okw.SeMAXIMIZE.SeMAXIMIZE</text>
<text text-anchor="middle" x="301" y="-283" font-family="Helvetica,sans-Serif" font-size="10.00">_EN_Test.tcMemorizeIsActive</text>
</a>
</g>
</g>
<!-- Node51&#45;&gt;Node77 -->
<g id="edge26" class="edge"><title>Node51&#45;&gt;Node77</title>
<path fill="none" stroke="midnightblue" d="M83.0447,-771.116C91.8367,-689.483 129.051,-381.266 196,-315 202.782,-308.287 211.045,-303.303 219.917,-299.625"/>
<polygon fill="midnightblue" stroke="midnightblue" points="79.5219,-771.149 81.9536,-781.461 86.4833,-771.883 79.5219,-771.149"/>
</g>
<!-- Node78 -->
<g id="node28" class="node"><title>Node78</title>
<g id="a_node28"><a xlink:href="classokw_1_1_se_radio_list_1_1_se_radio_list___e_n___test.html#a031bfd72643766034ade9d3148aa2cd9" target="_top" xlink:title="Prüft die Methode SeRadioList.MemorizeValue. ">
<polygon fill="white" stroke="black" points="227.5,-227 227.5,-257 374.5,-257 374.5,-227 227.5,-227"/>
<text text-anchor="start" x="235.5" y="-245" font-family="Helvetica,sans-Serif" font-size="10.00">okw.SeRadioList.SeRadioList</text>
<text text-anchor="middle" x="301" y="-234" font-family="Helvetica,sans-Serif" font-size="10.00">_EN_Test.tcMemorizeValue</text>
</a>
</g>
</g>
<!-- Node51&#45;&gt;Node78 -->
<g id="edge27" class="edge"><title>Node51&#45;&gt;Node78</title>
<path fill="none" stroke="midnightblue" d="M82.5701,-771.364C89.8556,-685.168 123.149,-341.313 196,-267 204.58,-258.248 215.648,-252.347 227.352,-248.409"/>
<polygon fill="midnightblue" stroke="midnightblue" points="79.0789,-771.114 81.7448,-781.368 86.0552,-771.689 79.0789,-771.114"/>
</g>
<!-- Node79 -->
<g id="node29" class="node"><title>Node79</title>
<g id="a_node29"><a xlink:href="classokw_1_1_se_radio_list_1_1_se_radio_list___e_n___test.html#a6d16d45b6f05656b84ae0c422e68b734" target="_top" xlink:title="Prüft die Methode SeRadioList.MemorizeValue. ">
<polygon fill="white" stroke="black" points="196.5,-167.5 196.5,-208.5 405.5,-208.5 405.5,-167.5 196.5,-167.5"/>
<text text-anchor="start" x="204.5" y="-196.5" font-family="Helvetica,sans-Serif" font-size="10.00">okw.SeRadioList.SeRadioList</text>
<text text-anchor="start" x="204.5" y="-185.5" font-family="Helvetica,sans-Serif" font-size="10.00">_EN_Test.tcMemorizeValue</text>
<text text-anchor="middle" x="301" y="-174.5" font-family="Helvetica,sans-Serif" font-size="10.00">_IGNORE_OKWNotAllowedValueException</text>
</a>
</g>
</g>
<!-- Node51&#45;&gt;Node79 -->
<g id="edge28" class="edge"><title>Node51&#45;&gt;Node79</title>
<path fill="none" stroke="midnightblue" d="M82.2596,-771.38C88.4748,-680.571 118.736,-301.939 196,-218 199.182,-214.543 202.734,-211.476 206.553,-208.754"/>
<polygon fill="midnightblue" stroke="midnightblue" points="78.7642,-771.196 81.5923,-781.406 85.7488,-771.661 78.7642,-771.196"/>
</g>
<!-- Node80 -->
<g id="node30" class="node"><title>Node80</title>
<g id="a_node30"><a xlink:href="classokw_1_1_se_radio_list_1_1_se_radio_list___e_n___test.html#a99028d6e59c8515b720a648fd04cdf9d" target="_top" xlink:title="Prüft die Methode SeRadioList.MemorizeValue. ">
<polygon fill="white" stroke="black" points="202,-107.5 202,-148.5 400,-148.5 400,-107.5 202,-107.5"/>
<text text-anchor="start" x="210" y="-136.5" font-family="Helvetica,sans-Serif" font-size="10.00">okw.SeRadioList.SeRadioList</text>
<text text-anchor="start" x="210" y="-125.5" font-family="Helvetica,sans-Serif" font-size="10.00">_EN_Test.tcMemorizeValue</text>
<text text-anchor="middle" x="301" y="-114.5" font-family="Helvetica,sans-Serif" font-size="10.00">_Empty_OKWNotAllowedValueException</text>
</a>
</g>
</g>
<!-- Node51&#45;&gt;Node80 -->
<g id="edge29" class="edge"><title>Node51&#45;&gt;Node80</title>
<path fill="none" stroke="midnightblue" d="M81.8629,-771.204C86.4744,-674.404 111.265,-251.769 196,-158 199.15,-154.514 202.676,-151.423 206.476,-148.683"/>
<polygon fill="midnightblue" stroke="midnightblue" points="78.3595,-771.2 81.3978,-781.35 85.3521,-771.521 78.3595,-771.2"/>
</g>
<!-- Node81 -->
<g id="node31" class="node"><title>Node81</title>
<g id="a_node31"><a xlink:href="classokw_1_1_se_radio_list_1_1_se_radio_list___e_n___test.html#ab6da5e2d827c5e804768ff83bf7bb6ff" target="_top" xlink:title="Prüft die Methode SeRadioList.MemorizeValue. ">
<polygon fill="white" stroke="black" points="227.5,-59 227.5,-89 374.5,-89 374.5,-59 227.5,-59"/>
<text text-anchor="start" x="235.5" y="-77" font-family="Helvetica,sans-Serif" font-size="10.00">okw.SeRadioList.SeRadioList</text>
<text text-anchor="middle" x="301" y="-66" font-family="Helvetica,sans-Serif" font-size="10.00">_EN_Test.tcMemorizeLabel</text>
</a>
</g>
</g>
<!-- Node51&#45;&gt;Node81 -->
<g id="edge30" class="edge"><title>Node51&#45;&gt;Node81</title>
<path fill="none" stroke="midnightblue" d="M81.419,-771.208C83.9969,-668.722 100.917,-199.204 196,-98 204.437,-89.0193 215.509,-83.0849 227.277,-79.2201"/>
<polygon fill="midnightblue" stroke="midnightblue" points="77.916,-771.3 81.1813,-781.379 84.9141,-771.464 77.916,-771.3"/>
</g>
<!-- Node82 -->
<g id="node32" class="node"><title>Node82</title>
<g id="a_node32"><a xlink:href="classokw_1_1_se_radio_list_1_1_se_radio_list___e_n___test.html#a6867860868e8cc03d7c683740c2876bd" target="_top" xlink:title="Prüft die Methode SeRadioList.MemorizeLabel. ">
<polygon fill="white" stroke="black" points="202,0.5 202,-40.5 400,-40.5 400,0.5 202,0.5"/>
<text text-anchor="start" x="210" y="-28.5" font-family="Helvetica,sans-Serif" font-size="10.00">okw.SeRadioList.SeRadioList</text>
<text text-anchor="start" x="210" y="-17.5" font-family="Helvetica,sans-Serif" font-size="10.00">_EN_Test.tcMemorizeLabel</text>
<text text-anchor="middle" x="301" y="-6.5" font-family="Helvetica,sans-Serif" font-size="10.00">_Empty_OKWNotAllowedValueException</text>
</a>
</g>
</g>
<!-- Node51&#45;&gt;Node82 -->
<g id="edge31" class="edge"><title>Node51&#45;&gt;Node82</title>
<path fill="none" stroke="midnightblue" d="M81.2949,-770.96C83.2701,-664.055 97.7329,-161.598 196,-50 199.105,-46.4742 202.595,-43.3508 206.365,-40.5851"/>
<polygon fill="midnightblue" stroke="midnightblue" points="77.7902,-771.217 81.1216,-781.274 84.7892,-771.334 77.7902,-771.217"/>
</g>
</g>
</svg>
        <g id="navigator" transform="translate(0 0)" fill="#404254">
                <rect fill="#f2f5e9" fill-opacity="0.5" stroke="#606060" stroke-width=".5" x="0" y="0" width="60" height="60"/>
                <use id="zoomplus" xlink:href="#zoomPlus" x="17" y="9" onmousedown="handleZoom(evt,'in')"/>
                <use id="zoomminus" xlink:href="#zoomMin" x="42" y="9" onmousedown="handleZoom(evt,'out')"/>
                <use id="reset" xlink:href="#resetDef" x="30" y="36" onmousedown="handleReset()"/>
                <g id="arrowUp" xlink:href="#dirArrow" transform="translate(30 24)" onmousedown="handlePan(0,-1)">
                  <use xlink:href="#rim" fill="#404040">
                        <set attributeName="fill" to="#808080" begin="arrowUp.mouseover" end="arrowUp.mouseout"/>
                  </use>
                  <path fill="none" stroke="white" stroke-width="1.5" d="M0,-3.0v7 M-2.5,-0.5L0,-3.0L2.5,-0.5"/>
                </g>
                <g id="arrowRight" xlink:href="#dirArrow" transform="rotate(90) translate(36 -43)" onmousedown="handlePan(1,0)">
                  <use xlink:href="#rim" fill="#404040">
                        <set attributeName="fill" to="#808080" begin="arrowRight.mouseover" end="arrowRight.mouseout"/>
                  </use>
                  <path fill="none" stroke="white" stroke-width="1.5" d="M0,-3.0v7 M-2.5,-0.5L0,-3.0L2.5,-0.5"/>
                </g>
                <g id="arrowDown" xlink:href="#dirArrow" transform="rotate(180) translate(-30 -48)" onmousedown="handlePan(0,1)">
                  <use xlink:href="#rim" fill="#404040">
                        <set attributeName="fill" to="#808080" begin="arrowDown.mouseover" end="arrowDown.mouseout"/>
                  </use>
                  <path fill="none" stroke="white" stroke-width="1.5" d="M0,-3.0v7 M-2.5,-0.5L0,-3.0L2.5,-0.5"/>
                </g>
                <g id="arrowLeft" xlink:href="#dirArrow" transform="rotate(270) translate(-36 17)" onmousedown="handlePan(-1,0)">
                  <use xlink:href="#rim" fill="#404040">
                        <set attributeName="fill" to="#808080" begin="arrowLeft.mouseover" end="arrowLeft.mouseout"/>
                  </use>
                  <path fill="none" stroke="white" stroke-width="1.5" d="M0,-3.0v7 M-2.5,-0.5L0,-3.0L2.5,-0.5"/>
                </g>
        </g>
        <svg viewBox="0 0 15 15" width="100%" height="30px" preserveAspectRatio="xMaxYMin meet">
         <g id="arrow_out" transform="scale(0.3 0.3)">
          <a xlink:href="classokw_1_1_o_k_w___memorize___sngltn_ad03be59f27b20d60aecb8e5f1f59b7db_icgraph_org.svg" target="_base">
           <rect id="button" ry="5" rx="5" y="6" x="6" height="38" width="38"
                fill="#f2f5e9" fill-opacity="0.5" stroke="#606060" stroke-width="1.0"/>
           <path id="arrow"
             d="M 11.500037,31.436501 C 11.940474,20.09759 22.043105,11.32322 32.158766,21.979434 L 37.068811,17.246167 C 37.068811,17.246167 37.088388,32 37.088388,32 L 22.160133,31.978069 C 22.160133,31.978069 26.997745,27.140456 26.997745,27.140456 C 18.528582,18.264221 13.291696,25.230495 11.500037,31.436501 z"
             style="fill:#404040;"/>
          </a>
         </g>
        </svg>
</svg>
