<?xml version="1.0" encoding="UTF-8" standalone="no"?>
<!DOCTYPE svg PUBLIC "-//W3C//DTD SVG 1.1//EN"
 "http://www.w3.org/Graphics/SVG/1.1/DTD/svg11.dtd">
<!-- Generated by graphviz version 2.38.0 (20140413.2041)
 -->
<!-- Title: okw.gui.adapter.selenium.SeInputCheckbox.Select Pages: 1 -->
<svg width="1390pt" height="394pt"
 viewBox="0.00 0.00 1390.00 393.80" xmlns="http://www.w3.org/2000/svg" xmlns:xlink="http://www.w3.org/1999/xlink">
<g id="graph0" class="graph" transform="scale(1 1) rotate(0) translate(4 389.797)">
<title>okw.gui.adapter.selenium.SeInputCheckbox.Select</title>
<polygon fill="white" stroke="none" points="-4,4 -4,-389.797 1386,-389.797 1386,4 -4,4"/>
<!-- Node66 -->
<g id="node1" class="node"><title>Node66</title>
<g id="a_node1"><a xlink:title="Erlaubte Werte sind sprachabhängig CHECKED/UNCHECKED.">
<polygon fill="#bfbfbf" stroke="black" points="0,-112 0,-142 140,-142 140,-112 0,-112"/>
<text text-anchor="start" x="8" y="-130" font-family="Helvetica,sans-Serif" font-size="10.00">okw.gui.adapter.selenium.</text>
<text text-anchor="middle" x="70" y="-119" font-family="Helvetica,sans-Serif" font-size="10.00">SeInputCheckbox.Select</text>
</a>
</g>
</g>
<!-- Node67 -->
<g id="node2" class="node"><title>Node67</title>
<g id="a_node2"><a xlink:href="classokw_1_1gui_1_1_any_win_base.html#abaab572bdbed7b471f659d5dd8c76853" target="_top" xlink:title="Diese Methode ruft die Methode Logger.Instance.LogFunctionStartDebug(fps_FunctionName),...">
<polygon fill="white" stroke="black" points="573,-325 573,-355 746,-355 746,-325 573,-325"/>
<text text-anchor="start" x="581" y="-343" font-family="Helvetica,sans-Serif" font-size="10.00">okw.gui.AnyWinBase.LogFunction</text>
<text text-anchor="middle" x="659.5" y="-332" font-family="Helvetica,sans-Serif" font-size="10.00">StartDebug</text>
</a>
</g>
</g>
<!-- Node66&#45;&gt;Node67 -->
<g id="edge1" class="edge"><title>Node66&#45;&gt;Node67</title>
<path fill="none" stroke="midnightblue" d="M76.7383,-142.169C89.6818,-174.509 124.123,-250.879 176,-295 246.863,-355.268 277.804,-357.639 369,-376 442.198,-390.738 463.106,-386.717 537,-376 561.073,-372.509 587.016,-365.318 608.723,-358.274"/>
<polygon fill="midnightblue" stroke="midnightblue" points="609.993,-361.54 618.377,-355.062 607.783,-354.898 609.993,-361.54"/>
</g>
<!-- Node68 -->
<g id="node3" class="node"><title>Node68</title>
<g id="a_node3"><a xlink:href="classokw_1_1gui_1_1adapter_1_1selenium_1_1_se_any_child_window.html#a72faf4aa1717b4178fae1b0570ca9b28" target="_top" xlink:title="Wartet auf das Objekt Wenn kein Fenster gefunden wird,.">
<polygon fill="white" stroke="black" points="581,-137 581,-167 738,-167 738,-137 581,-137"/>
<text text-anchor="start" x="589" y="-155" font-family="Helvetica,sans-Serif" font-size="10.00">okw.gui.adapter.selenium.</text>
<text text-anchor="middle" x="659.5" y="-144" font-family="Helvetica,sans-Serif" font-size="10.00">SeAnyChildWindow.WaitForMe</text>
</a>
</g>
</g>
<!-- Node66&#45;&gt;Node68 -->
<g id="edge2" class="edge"><title>Node66&#45;&gt;Node68</title>
<path fill="none" stroke="midnightblue" d="M140.191,-117.004C231.633,-105.595 397.461,-91.1537 537,-113 562.548,-117 590.058,-125.46 612.43,-133.482"/>
<polygon fill="midnightblue" stroke="midnightblue" points="611.408,-136.835 622.001,-136.999 613.822,-130.265 611.408,-136.835"/>
</g>
<!-- Node74 -->
<g id="node9" class="node"><title>Node74</title>
<g id="a_node9"><a xlink:href="classokw_1_1_log_messenger.html#af225d1f037d47b3b085175c09d78bdd2" target="_top" xlink:title="Holt die Log&#45;Meldung für MethodeNmae/Textkey ohne weitere Parameter.">
<polygon fill="white" stroke="black" points="791.5,-0.5 791.5,-19.5 960.5,-19.5 960.5,-0.5 791.5,-0.5"/>
<text text-anchor="middle" x="876" y="-7.5" font-family="Helvetica,sans-Serif" font-size="10.00">okw.LogMessenger.GetMessage</text>
</a>
</g>
</g>
<!-- Node66&#45;&gt;Node74 -->
<g id="edge38" class="edge"><title>Node66&#45;&gt;Node74</title>
<path fill="none" stroke="midnightblue" d="M95.4572,-111.988C116.124,-100.086 146.924,-84.1458 176,-76 386.486,-17.0323 645.081,-8.29216 781.098,-8.3462"/>
<polygon fill="midnightblue" stroke="midnightblue" points="781.469,-11.8469 791.476,-8.3676 781.484,-4.84689 781.469,-11.8469"/>
</g>
<!-- Node77 -->
<g id="node12" class="node"><title>Node77</title>
<g id="a_node12"><a xlink:href="classokw_1_1_o_k_w___const___sngltn.html#a51cde06bf07e855ba4d69ff36b9a27f7" target="_top" xlink:title="Methode ermittelt für Internalname und der aktuell eingestellten Sprache den Wert für Const.">
<polygon fill="white" stroke="black" points="802,-39 802,-69 950,-69 950,-39 802,-39"/>
<text text-anchor="start" x="810" y="-57" font-family="Helvetica,sans-Serif" font-size="10.00">okw.OKW_Const_Sngltn.Get</text>
<text text-anchor="middle" x="876" y="-46" font-family="Helvetica,sans-Serif" font-size="10.00">Const4Internalname</text>
</a>
</g>
</g>
<!-- Node66&#45;&gt;Node77 -->
<g id="edge11" class="edge"><title>Node66&#45;&gt;Node77</title>
<path fill="none" stroke="midnightblue" d="M119.448,-111.952C137.087,-107.041 157.289,-102.067 176,-99 396.319,-62.892 660.136,-55.4301 791.749,-54.0976"/>
<polygon fill="midnightblue" stroke="midnightblue" points="791.796,-57.5974 801.763,-54.0056 791.731,-50.5977 791.796,-57.5974"/>
</g>
<!-- Node79 -->
<g id="node14" class="node"><title>Node79</title>
<g id="a_node14"><a xlink:href="classokw_1_1gui_1_1adapter_1_1selenium_1_1_se_input_checkbox.html#ab998b0c6ae99303c050c6a7fe417dd6d" target="_top" xlink:title="Method verlässt die Checkbox immer angehakt, egal ob diese vorher angehakt war oder nicht.">
<polygon fill="white" stroke="black" points="182,-207 182,-237 327,-237 327,-207 182,-207"/>
<text text-anchor="start" x="190" y="-225" font-family="Helvetica,sans-Serif" font-size="10.00">okw.gui.adapter.selenium.</text>
<text text-anchor="middle" x="254.5" y="-214" font-family="Helvetica,sans-Serif" font-size="10.00">SeInputCheckbox.checking</text>
</a>
</g>
</g>
<!-- Node66&#45;&gt;Node79 -->
<g id="edge14" class="edge"><title>Node66&#45;&gt;Node79</title>
<path fill="none" stroke="midnightblue" d="M99.9177,-142.053C131.062,-158.265 180.762,-184.137 215.151,-202.037"/>
<polygon fill="midnightblue" stroke="midnightblue" points="213.93,-205.348 224.416,-206.86 217.162,-199.138 213.93,-205.348"/>
</g>
<!-- Node86 -->
<g id="node21" class="node"><title>Node86</title>
<g id="a_node21"><a xlink:href="classokw_1_1gui_1_1_any_win_base.html#a51cf50ace21902b3a5359316f53a7f3e" target="_top" xlink:title="Methode ruft die Methode Logger.Instance.LogFunctionEndDebug() auf.">
<polygon fill="white" stroke="black" points="573,-188 573,-218 746,-218 746,-188 573,-188"/>
<text text-anchor="start" x="581" y="-206" font-family="Helvetica,sans-Serif" font-size="10.00">okw.gui.AnyWinBase.LogFunction</text>
<text text-anchor="middle" x="659.5" y="-195" font-family="Helvetica,sans-Serif" font-size="10.00">EndDebug</text>
</a>
</g>
</g>
<!-- Node66&#45;&gt;Node86 -->
<g id="edge39" class="edge"><title>Node66&#45;&gt;Node86</title>
<path fill="none" stroke="midnightblue" d="M140.295,-133.269C231.504,-141.888 396.715,-158.774 537,-180 548.976,-181.812 561.574,-183.942 573.939,-186.163"/>
<polygon fill="midnightblue" stroke="midnightblue" points="573.323,-189.608 583.789,-187.959 574.579,-182.722 573.323,-189.608"/>
</g>
<!-- Node88 -->
<g id="node23" class="node"><title>Node88</title>
<g id="a_node23"><a xlink:href="classokw_1_1gui_1_1adapter_1_1selenium_1_1_se_input_checkbox.html#a9b2cd5dc1001157dcf168acb76779b6f" target="_top" xlink:title="Method verlässt die Checkbox immer unangehakt, egal ob sie vorher angehakt war oder nicht.">
<polygon fill="white" stroke="black" points="176,-256 176,-286 333,-286 333,-256 176,-256"/>
<text text-anchor="start" x="184" y="-274" font-family="Helvetica,sans-Serif" font-size="10.00">okw.gui.adapter.selenium.</text>
<text text-anchor="middle" x="254.5" y="-263" font-family="Helvetica,sans-Serif" font-size="10.00">SeInputCheckbox.unchecking</text>
</a>
</g>
</g>
<!-- Node66&#45;&gt;Node88 -->
<g id="edge33" class="edge"><title>Node66&#45;&gt;Node88</title>
<path fill="none" stroke="midnightblue" d="M80.3789,-142.122C96.7407,-167.284 132.901,-217.767 176,-246 179.078,-248.017 182.332,-249.882 185.694,-251.605"/>
<polygon fill="midnightblue" stroke="midnightblue" points="184.254,-254.796 194.797,-255.843 187.209,-248.449 184.254,-254.796"/>
</g>
<!-- Node69 -->
<g id="node4" class="node"><title>Node69</title>
<g id="a_node4"><a xlink:href="classokw_1_1log_1_1_logger___sngltn.html#ab4fc711bb4c754f251372ff3b14ab9c9" target="_top" xlink:title="Creates a new hierarchical level in the results file.">
<polygon fill="white" stroke="black" points="804.5,-88 804.5,-118 947.5,-118 947.5,-88 804.5,-88"/>
<text text-anchor="start" x="812.5" y="-106" font-family="Helvetica,sans-Serif" font-size="10.00">okw.log.Logger_Sngltn.Res</text>
<text text-anchor="middle" x="876" y="-95" font-family="Helvetica,sans-Serif" font-size="10.00">OpenList</text>
</a>
</g>
</g>
<!-- Node68&#45;&gt;Node69 -->
<g id="edge3" class="edge"><title>Node68&#45;&gt;Node69</title>
<path fill="none" stroke="midnightblue" d="M726.315,-136.965C749.375,-131.698 775.455,-125.74 799.261,-120.302"/>
<polygon fill="midnightblue" stroke="midnightblue" points="800.34,-123.645 809.31,-118.006 798.781,-116.821 800.34,-123.645"/>
</g>
<!-- Node70 -->
<g id="node5" class="node"><title>Node70</title>
<g id="a_node5"><a xlink:href="classokw_1_1log_1_1_logger___sngltn.html#a8ebceaddd6cc6963ddb8e08c72ea808c" target="_top" xlink:title="LogPrint Function: Prints the values of expressions to the results file.">
<polygon fill="white" stroke="black" points="1028.5,-244 1028.5,-274 1171.5,-274 1171.5,-244 1028.5,-244"/>
<text text-anchor="start" x="1036.5" y="-262" font-family="Helvetica,sans-Serif" font-size="10.00">okw.log.Logger_Sngltn.Log</text>
<text text-anchor="middle" x="1100" y="-251" font-family="Helvetica,sans-Serif" font-size="10.00">Print</text>
</a>
</g>
</g>
<!-- Node68&#45;&gt;Node70 -->
<g id="edge4" class="edge"><title>Node68&#45;&gt;Node70</title>
<path fill="none" stroke="midnightblue" d="M723.276,-167.048C731.198,-170.101 738.978,-173.722 746,-178 765.594,-189.937 761.529,-204.64 782,-215 822.113,-235.301 938.187,-247.518 1018.16,-253.76"/>
<polygon fill="midnightblue" stroke="midnightblue" points="1017.97,-257.256 1028.21,-254.528 1018.5,-250.276 1017.97,-257.256"/>
</g>
<!-- Node71 -->
<g id="node6" class="node"><title>Node71</title>
<g id="a_node6"><a xlink:href="classokw_1_1gui_1_1_any_win_base.html#a9929f6fae1f4e2c20df79d32d5bc79db" target="_top" xlink:title="Holt den vollständig (rekursiv) aufgelösten (z.B.">
<polygon fill="white" stroke="black" points="792.5,-186.5 792.5,-205.5 959.5,-205.5 959.5,-186.5 792.5,-186.5"/>
<text text-anchor="middle" x="876" y="-193.5" font-family="Helvetica,sans-Serif" font-size="10.00">okw.gui.AnyWinBase.getLocator</text>
</a>
</g>
</g>
<!-- Node68&#45;&gt;Node71 -->
<g id="edge5" class="edge"><title>Node68&#45;&gt;Node71</title>
<path fill="none" stroke="midnightblue" d="M733.719,-167.019C761.469,-172.712 792.61,-179.099 818.579,-184.426"/>
<polygon fill="midnightblue" stroke="midnightblue" points="818.128,-187.907 828.627,-186.488 819.534,-181.049 818.128,-187.907"/>
</g>
<!-- Node73 -->
<g id="node8" class="node"><title>Node73</title>
<g id="a_node8"><a xlink:href="classokw_1_1log_1_1_logger___sngltn.html#a9b54104f7e0b4c0a473877b19dfaed56" target="_top" xlink:title="Closes a hierarchical level in the results file that was opened with ResOpenList.">
<polygon fill="white" stroke="black" points="804.5,-137 804.5,-167 947.5,-167 947.5,-137 804.5,-137"/>
<text text-anchor="start" x="812.5" y="-155" font-family="Helvetica,sans-Serif" font-size="10.00">okw.log.Logger_Sngltn.Res</text>
<text text-anchor="middle" x="876" y="-144" font-family="Helvetica,sans-Serif" font-size="10.00">CloseList</text>
</a>
</g>
</g>
<!-- Node68&#45;&gt;Node73 -->
<g id="edge7" class="edge"><title>Node68&#45;&gt;Node73</title>
<path fill="none" stroke="midnightblue" d="M738.243,-152C756.452,-152 775.891,-152 794.229,-152"/>
<polygon fill="midnightblue" stroke="midnightblue" points="794.289,-155.5 804.289,-152 794.289,-148.5 794.289,-155.5"/>
</g>
<!-- Node68&#45;&gt;Node74 -->
<g id="edge8" class="edge"><title>Node68&#45;&gt;Node74</title>
<path fill="none" stroke="midnightblue" d="M670.861,-136.688C689.667,-110.188 732.121,-56.0248 782,-29 786.215,-26.716 790.674,-24.7058 795.266,-22.9366"/>
<polygon fill="midnightblue" stroke="midnightblue" points="796.531,-26.2026 804.843,-19.633 794.248,-19.5852 796.531,-26.2026"/>
</g>
<!-- Node72 -->
<g id="node7" class="node"><title>Node72</title>
<g id="a_node7"><a xlink:href="classokw_1_1gui_1_1_o_k_w_locator.html#adc74fc2125dd048dc1cb84e011f47ec8" target="_top" xlink:title="Holt den vollständig (rekursiv) aufgelösten (z.B.">
<polygon fill="white" stroke="black" points="1017,-186.5 1017,-205.5 1183,-205.5 1183,-186.5 1017,-186.5"/>
<text text-anchor="middle" x="1100" y="-193.5" font-family="Helvetica,sans-Serif" font-size="10.00">okw.gui.OKWLocator.getLocator</text>
</a>
</g>
</g>
<!-- Node71&#45;&gt;Node72 -->
<g id="edge6" class="edge"><title>Node71&#45;&gt;Node72</title>
<path fill="none" stroke="midnightblue" d="M959.665,-196C974.935,-196 990.971,-196 1006.51,-196"/>
<polygon fill="midnightblue" stroke="midnightblue" points="1006.64,-199.5 1016.64,-196 1006.64,-192.5 1006.64,-199.5"/>
</g>
<!-- Node75 -->
<g id="node10" class="node"><title>Node75</title>
<g id="a_node10"><a xlink:href="classokw_1_1_log_messenger.html#a530cd6ab82ec82a04206a2e976ec06e3" target="_top" xlink:title="Interne Kernfunktion holt die Log&#45;Meldung mit Platzhaltern aus der XML&#45;Datei.">
<polygon fill="white" stroke="black" points="1012.5,-2.5 1012.5,-21.5 1187.5,-21.5 1187.5,-2.5 1012.5,-2.5"/>
<text text-anchor="middle" x="1100" y="-9.5" font-family="Helvetica,sans-Serif" font-size="10.00">okw.LogMessenger.ReadMessage</text>
</a>
</g>
</g>
<!-- Node74&#45;&gt;Node75 -->
<g id="edge9" class="edge"><title>Node74&#45;&gt;Node75</title>
<path fill="none" stroke="midnightblue" d="M960.612,-10.7533C974.162,-10.8753 988.293,-11.0026 1002.13,-11.1273"/>
<polygon fill="midnightblue" stroke="midnightblue" points="1002.1,-14.6271 1012.13,-11.2174 1002.17,-7.62738 1002.1,-14.6271"/>
</g>
<!-- Node76 -->
<g id="node11" class="node"><title>Node76</title>
<g id="a_node11"><a xlink:href="classokw_1_1_o_k_w___xml_reader.html#ab920b5335a2e1429c14cc5f8e79f39eb" target="_top" xlink:title="Lies den TextContent eines Tag.">
<polygon fill="white" stroke="black" points="1230,-16 1230,-46 1382,-46 1382,-16 1230,-16"/>
<text text-anchor="start" x="1238" y="-34" font-family="Helvetica,sans-Serif" font-size="10.00">okw.OKW_XmlReader.getText</text>
<text text-anchor="middle" x="1306" y="-23" font-family="Helvetica,sans-Serif" font-size="10.00">ContentSingleValue</text>
</a>
</g>
</g>
<!-- Node75&#45;&gt;Node76 -->
<g id="edge10" class="edge"><title>Node75&#45;&gt;Node76</title>
<path fill="none" stroke="midnightblue" d="M1187.51,-20.0577C1198.21,-21.0541 1209.14,-22.0722 1219.82,-23.0667"/>
<polygon fill="midnightblue" stroke="midnightblue" points="1219.68,-26.569 1229.97,-24.0115 1220.33,-19.5992 1219.68,-26.569"/>
</g>
<!-- Node77&#45;&gt;Node76 -->
<g id="edge13" class="edge"><title>Node77&#45;&gt;Node76</title>
<path fill="none" stroke="midnightblue" d="M950.09,-50.0723C1024.69,-46.0632 1140.43,-39.8439 1219.3,-35.6054"/>
<polygon fill="midnightblue" stroke="midnightblue" points="1219.9,-39.0785 1229.69,-35.0469 1219.52,-32.0886 1219.9,-39.0785"/>
</g>
<!-- Node78 -->
<g id="node13" class="node"><title>Node78</title>
<g id="a_node13"><a xlink:href="classokw_1_1log_1_1_logger___sngltn.html#a313f97c79ba4662d9daaf7f537dd02f4" target="_top" xlink:title="Loggt eine Nachricht.">
<polygon fill="white" stroke="black" points="1028.5,-109 1028.5,-139 1171.5,-139 1171.5,-109 1028.5,-109"/>
<text text-anchor="start" x="1036.5" y="-127" font-family="Helvetica,sans-Serif" font-size="10.00">okw.log.Logger_Sngltn.Log</text>
<text text-anchor="middle" x="1100" y="-116" font-family="Helvetica,sans-Serif" font-size="10.00">PrintDebug</text>
</a>
</g>
</g>
<!-- Node77&#45;&gt;Node78 -->
<g id="edge12" class="edge"><title>Node77&#45;&gt;Node78</title>
<path fill="none" stroke="midnightblue" d="M938.75,-69.1035C949.224,-71.9027 959.956,-74.9202 970,-78 996.773,-86.2097 1026.21,-96.6015 1050.2,-105.43"/>
<polygon fill="midnightblue" stroke="midnightblue" points="1049.19,-108.788 1059.79,-108.98 1051.62,-102.224 1049.19,-108.788"/>
</g>
<!-- Node79&#45;&gt;Node67 -->
<g id="edge15" class="edge"><title>Node79&#45;&gt;Node67</title>
<path fill="none" stroke="midnightblue" d="M319.928,-237.19C324.614,-239.692 329.045,-242.606 333,-246 360.756,-269.817 338.68,-299.545 369,-320 399.764,-340.754 490.994,-344.245 562.908,-343.468"/>
<polygon fill="midnightblue" stroke="midnightblue" points="562.968,-346.968 572.919,-343.332 562.872,-339.969 562.968,-346.968"/>
</g>
<!-- Node80 -->
<g id="node15" class="node"><title>Node80</title>
<g id="a_node15"><a xlink:href="classokw_1_1gui_1_1adapter_1_1selenium_1_1_se_input_checkbox.html#aa5351c44da27a9f8c63ccd0315922c82" target="_top" xlink:title="Method liefert den aktuellen Zustand der Checkbox, &quot;angehakt&quot; oder &quot;nicht angehakt&quot;.">
<polygon fill="white" stroke="black" points="369,-281 369,-311 537,-311 537,-281 369,-281"/>
<text text-anchor="start" x="377" y="-299" font-family="Helvetica,sans-Serif" font-size="10.00">okw.gui.adapter.selenium.</text>
<text text-anchor="middle" x="453" y="-288" font-family="Helvetica,sans-Serif" font-size="10.00">SeInputCheckbox.getIsSelected</text>
</a>
</g>
</g>
<!-- Node79&#45;&gt;Node80 -->
<g id="edge16" class="edge"><title>Node79&#45;&gt;Node80</title>
<path fill="none" stroke="midnightblue" d="M311.34,-237.021C318.762,-239.672 326.163,-242.667 333,-246 350.509,-254.537 351.458,-262.531 369,-271 373.828,-273.331 378.92,-275.497 384.108,-277.5"/>
<polygon fill="midnightblue" stroke="midnightblue" points="382.922,-280.792 393.516,-280.927 385.318,-274.215 382.922,-280.792"/>
</g>
<!-- Node79&#45;&gt;Node86 -->
<g id="edge32" class="edge"><title>Node79&#45;&gt;Node86</title>
<path fill="none" stroke="midnightblue" d="M296.657,-206.982C317.938,-200.002 344.519,-192.487 369,-189 433.265,-179.847 506.276,-183.474 562.899,-189.325"/>
<polygon fill="midnightblue" stroke="midnightblue" points="562.599,-192.813 572.916,-190.401 563.347,-185.853 562.599,-192.813"/>
</g>
<!-- Node87 -->
<g id="node22" class="node"><title>Node87</title>
<g id="a_node22"><a xlink:href="classokw_1_1gui_1_1adapter_1_1selenium_1_1_se_any_child_window.html#a16df325c8b8bb0e360ac9d9dbb50d91e" target="_top" xlink:title="Das ist die GUI&#45;Adapter Methode, die durch das Schlüsselwort ClickOn( FN ) aufgerufen wird.">
<polygon fill="white" stroke="black" points="381.5,-232 381.5,-262 524.5,-262 524.5,-232 381.5,-232"/>
<text text-anchor="start" x="389.5" y="-250" font-family="Helvetica,sans-Serif" font-size="10.00">okw.gui.adapter.selenium.</text>
<text text-anchor="middle" x="453" y="-239" font-family="Helvetica,sans-Serif" font-size="10.00">SeAnyChildWindow.ClickOn</text>
</a>
</g>
</g>
<!-- Node79&#45;&gt;Node87 -->
<g id="edge27" class="edge"><title>Node79&#45;&gt;Node87</title>
<path fill="none" stroke="midnightblue" d="M327.275,-231.132C341.617,-232.956 356.772,-234.884 371.388,-236.744"/>
<polygon fill="midnightblue" stroke="midnightblue" points="371.043,-240.228 381.404,-238.018 371.926,-233.284 371.043,-240.228"/>
</g>
<!-- Node80&#45;&gt;Node67 -->
<g id="edge17" class="edge"><title>Node80&#45;&gt;Node67</title>
<path fill="none" stroke="midnightblue" d="M523.805,-311.019C541.476,-314.821 560.589,-318.934 578.712,-322.833"/>
<polygon fill="midnightblue" stroke="midnightblue" points="578.15,-326.292 588.662,-324.974 579.622,-319.449 578.15,-326.292"/>
</g>
<!-- Node81 -->
<g id="node16" class="node"><title>Node81</title>
<g id="a_node16"><a xlink:href="classokw_1_1gui_1_1adapter_1_1selenium_1_1_se_any_child_window.html#a9a138af1fc6ff850d708d66f308a2525" target="_top" xlink:title="Ermittelt aus dem gegebenen Locator das DOM&#45;Elelement, welches das Objekt representiert.">
<polygon fill="white" stroke="black" points="589.5,-263 589.5,-293 729.5,-293 729.5,-263 589.5,-263"/>
<text text-anchor="start" x="597.5" y="-281" font-family="Helvetica,sans-Serif" font-size="10.00">okw.gui.adapter.selenium.</text>
<text text-anchor="middle" x="659.5" y="-270" font-family="Helvetica,sans-Serif" font-size="10.00">SeAnyChildWindow.Me</text>
</a>
</g>
</g>
<!-- Node80&#45;&gt;Node81 -->
<g id="edge18" class="edge"><title>Node80&#45;&gt;Node81</title>
<path fill="none" stroke="midnightblue" d="M537.178,-288.679C551.148,-287.449 565.611,-286.176 579.472,-284.956"/>
<polygon fill="midnightblue" stroke="midnightblue" points="579.789,-288.442 589.444,-284.078 579.175,-281.469 579.789,-288.442"/>
</g>
<!-- Node80&#45;&gt;Node86 -->
<g id="edge26" class="edge"><title>Node80&#45;&gt;Node86</title>
<path fill="none" stroke="midnightblue" d="M509.956,-280.969C519.114,-277.992 528.411,-274.645 537,-271 554.14,-263.725 594.654,-240.579 624.201,-223.299"/>
<polygon fill="midnightblue" stroke="midnightblue" points="626.126,-226.227 632.981,-218.148 622.584,-220.189 626.126,-226.227"/>
</g>
<!-- Node81&#45;&gt;Node71 -->
<g id="edge25" class="edge"><title>Node81&#45;&gt;Node71</title>
<path fill="none" stroke="midnightblue" d="M699.843,-262.96C740.034,-247.596 801.838,-223.969 840.27,-209.277"/>
<polygon fill="midnightblue" stroke="midnightblue" points="841.89,-212.405 849.981,-205.564 839.39,-205.866 841.89,-212.405"/>
</g>
<!-- Node82 -->
<g id="node17" class="node"><title>Node82</title>
<g id="a_node17"><a xlink:href="classokw_1_1gui_1_1adapter_1_1selenium_1_1webdriver_1_1_se_driver.html#aee9e3f8a67f4ad1f8100a33ba71c926e" target="_top" xlink:title="Gibt die Instance für die einzige Instanz dieser Klasse zurück.">
<polygon fill="white" stroke="black" points="782,-263 782,-293 970,-293 970,-263 782,-263"/>
<text text-anchor="start" x="790" y="-281" font-family="Helvetica,sans-Serif" font-size="10.00">okw.gui.adapter.selenium.webdriver.</text>
<text text-anchor="middle" x="876" y="-270" font-family="Helvetica,sans-Serif" font-size="10.00">SeDriver.getInstance</text>
</a>
</g>
</g>
<!-- Node81&#45;&gt;Node82 -->
<g id="edge19" class="edge"><title>Node81&#45;&gt;Node82</title>
<path fill="none" stroke="midnightblue" d="M729.55,-278C742.953,-278 757.271,-278 771.502,-278"/>
<polygon fill="midnightblue" stroke="midnightblue" points="771.834,-281.5 781.834,-278 771.833,-274.5 771.834,-281.5"/>
</g>
<!-- Node83 -->
<g id="node18" class="node"><title>Node83</title>
<g id="a_node18"><a xlink:href="classokw_1_1gui_1_1adapter_1_1selenium_1_1webdriver_1_1_se_driver.html#a65a8400867355574525aa356a53d3ccf" target="_top" xlink:title="Ermittelt das Webelement mit der gegebenen frameID und dem gegebenen Locator.">
<polygon fill="white" stroke="black" points="782,-312 782,-342 970,-342 970,-312 782,-312"/>
<text text-anchor="start" x="790" y="-330" font-family="Helvetica,sans-Serif" font-size="10.00">okw.gui.adapter.selenium.webdriver.</text>
<text text-anchor="middle" x="876" y="-319" font-family="Helvetica,sans-Serif" font-size="10.00">SeDriver.getElement</text>
</a>
</g>
</g>
<!-- Node81&#45;&gt;Node83 -->
<g id="edge20" class="edge"><title>Node81&#45;&gt;Node83</title>
<path fill="none" stroke="midnightblue" d="M726.315,-293.035C749.375,-298.302 775.455,-304.26 799.261,-309.698"/>
<polygon fill="midnightblue" stroke="midnightblue" points="798.781,-313.179 809.31,-311.994 800.34,-306.355 798.781,-313.179"/>
</g>
<!-- Node83&#45;&gt;Node70 -->
<g id="edge22" class="edge"><title>Node83&#45;&gt;Node70</title>
<path fill="none" stroke="midnightblue" d="M935.194,-311.924C946.761,-308.768 958.793,-305.371 970,-302 995.221,-294.414 1022.96,-285.273 1046.23,-277.374"/>
<polygon fill="midnightblue" stroke="midnightblue" points="1047.57,-280.613 1055.91,-274.073 1045.31,-273.988 1047.57,-280.613"/>
</g>
<!-- Node83&#45;&gt;Node78 -->
<g id="edge24" class="edge"><title>Node83&#45;&gt;Node78</title>
<path fill="none" stroke="midnightblue" d="M956.803,-311.941C961.598,-309.151 966.064,-305.866 970,-302 1011.24,-261.485 970.252,-222.437 1006,-177 1017.14,-162.837 1033.19,-151.8 1048.82,-143.551"/>
<polygon fill="midnightblue" stroke="midnightblue" points="1050.55,-146.603 1057.94,-139.015 1047.43,-140.336 1050.55,-146.603"/>
</g>
<!-- Node84 -->
<g id="node19" class="node"><title>Node84</title>
<g id="a_node19"><a xlink:href="classokw_1_1gui_1_1adapter_1_1selenium_1_1webdriver_1_1_se_driver.html#a47eec72c911c05beb2127672daafb325" target="_top" xlink:title="Wechselt das aktuelle Frame auf das Frame mit der id=iframeID.">
<polygon fill="white" stroke="black" points="1006,-302 1006,-332 1194,-332 1194,-302 1006,-302"/>
<text text-anchor="start" x="1014" y="-320" font-family="Helvetica,sans-Serif" font-size="10.00">okw.gui.adapter.selenium.webdriver.</text>
<text text-anchor="middle" x="1100" y="-309" font-family="Helvetica,sans-Serif" font-size="10.00">SeDriver.swichToFrame</text>
</a>
</g>
</g>
<!-- Node83&#45;&gt;Node84 -->
<g id="edge21" class="edge"><title>Node83&#45;&gt;Node84</title>
<path fill="none" stroke="midnightblue" d="M970.183,-322.803C978.535,-322.426 987.024,-322.044 995.456,-321.664"/>
<polygon fill="midnightblue" stroke="midnightblue" points="995.867,-325.149 1005.7,-321.203 995.552,-318.156 995.867,-325.149"/>
</g>
<!-- Node85 -->
<g id="node20" class="node"><title>Node85</title>
<g id="a_node20"><a xlink:href="classokw_1_1log_1_1_logger___sngltn.html#a2c15e9b2cd0c6266f4c67b8cb00d92e5" target="_top" xlink:title="LogWarning Function: Logs a warning to the results file.">
<polygon fill="white" stroke="black" points="1028.5,-351 1028.5,-381 1171.5,-381 1171.5,-351 1028.5,-351"/>
<text text-anchor="start" x="1036.5" y="-369" font-family="Helvetica,sans-Serif" font-size="10.00">okw.log.Logger_Sngltn.Log</text>
<text text-anchor="middle" x="1100" y="-358" font-family="Helvetica,sans-Serif" font-size="10.00">Warning</text>
</a>
</g>
</g>
<!-- Node83&#45;&gt;Node85 -->
<g id="edge23" class="edge"><title>Node83&#45;&gt;Node85</title>
<path fill="none" stroke="midnightblue" d="M962.513,-342.023C980.858,-345.245 1000.18,-348.641 1018.34,-351.83"/>
<polygon fill="midnightblue" stroke="midnightblue" points="1017.83,-355.295 1028.29,-353.578 1019.05,-348.4 1017.83,-355.295"/>
</g>
<!-- Node87&#45;&gt;Node67 -->
<g id="edge28" class="edge"><title>Node87&#45;&gt;Node67</title>
<path fill="none" stroke="midnightblue" d="M517.237,-262.159C524.079,-264.711 530.8,-267.644 537,-271 555.568,-281.052 555.162,-290.703 573,-302 584.045,-308.995 596.596,-315.348 608.614,-320.771"/>
<polygon fill="midnightblue" stroke="midnightblue" points="607.535,-324.118 618.1,-324.915 610.338,-317.704 607.535,-324.118"/>
</g>
<!-- Node87&#45;&gt;Node68 -->
<g id="edge29" class="edge"><title>Node87&#45;&gt;Node68</title>
<path fill="none" stroke="midnightblue" d="M476.434,-231.883C499.765,-216.675 537.743,-193.338 573,-178 579.213,-175.297 585.795,-172.76 592.438,-170.41"/>
<polygon fill="midnightblue" stroke="midnightblue" points="593.835,-173.632 602.18,-167.104 591.586,-167.003 593.835,-173.632"/>
</g>
<!-- Node87&#45;&gt;Node81 -->
<g id="edge30" class="edge"><title>Node87&#45;&gt;Node81</title>
<path fill="none" stroke="midnightblue" d="M524.664,-257.712C542.295,-260.385 561.315,-263.268 579.328,-265.998"/>
<polygon fill="midnightblue" stroke="midnightblue" points="578.804,-269.459 589.216,-267.497 579.854,-262.538 578.804,-269.459"/>
</g>
<!-- Node87&#45;&gt;Node86 -->
<g id="edge31" class="edge"><title>Node87&#45;&gt;Node86</title>
<path fill="none" stroke="midnightblue" d="M523.805,-231.981C541.476,-228.179 560.589,-224.066 578.712,-220.167"/>
<polygon fill="midnightblue" stroke="midnightblue" points="579.622,-223.551 588.662,-218.026 578.15,-216.708 579.622,-223.551"/>
</g>
<!-- Node88&#45;&gt;Node67 -->
<g id="edge34" class="edge"><title>Node88&#45;&gt;Node67</title>
<path fill="none" stroke="midnightblue" d="M269.521,-286.001C289.392,-306.043 327.927,-340.584 369,-354 441.233,-377.594 528.986,-368.48 588.813,-357.037"/>
<polygon fill="midnightblue" stroke="midnightblue" points="589.78,-360.413 598.907,-355.033 588.417,-353.547 589.78,-360.413"/>
</g>
<!-- Node88&#45;&gt;Node80 -->
<g id="edge35" class="edge"><title>Node88&#45;&gt;Node80</title>
<path fill="none" stroke="midnightblue" d="M333.162,-280.881C341.566,-281.95 350.181,-283.046 358.745,-284.136"/>
<polygon fill="midnightblue" stroke="midnightblue" points="358.398,-287.619 368.76,-285.41 359.282,-280.675 358.398,-287.619"/>
</g>
<!-- Node88&#45;&gt;Node86 -->
<g id="edge37" class="edge"><title>Node88&#45;&gt;Node86</title>
<path fill="none" stroke="midnightblue" d="M308.792,-255.965C317.047,-253.023 325.362,-249.69 333,-246 350.315,-237.635 350.788,-228.172 369,-222 431.214,-200.914 505.175,-196.382 562.767,-197.009"/>
<polygon fill="midnightblue" stroke="midnightblue" points="562.902,-200.511 572.958,-197.175 563.016,-193.512 562.902,-200.511"/>
</g>
<!-- Node88&#45;&gt;Node87 -->
<g id="edge36" class="edge"><title>Node88&#45;&gt;Node87</title>
<path fill="none" stroke="midnightblue" d="M333.162,-261.515C345.69,-259.984 358.685,-258.397 371.283,-256.859"/>
<polygon fill="midnightblue" stroke="midnightblue" points="371.783,-260.324 381.285,-255.637 370.934,-253.375 371.783,-260.324"/>
</g>
</g>
</svg>
