<?xml version="1.0" encoding="UTF-8" standalone="no"?>
<!DOCTYPE svg PUBLIC "-//W3C//DTD SVG 1.1//EN"
 "http://www.w3.org/Graphics/SVG/1.1/DTD/svg11.dtd">
<!-- Generated by graphviz version 2.38.0 (20140413.2041)
 -->
<!-- Title: okw.core.EN.VerifyCaptionWCM Pages: 1 -->
<!--zoomable 166 -->
<svg id="main" version="1.1" xmlns="http://www.w3.org/2000/svg" xmlns:xlink="http://www.w3.org/1999/xlink" xml:space="preserve" onload="init(evt)">
<style type="text/css"><![CDATA[
.edge:hover path { stroke: red; }
.edge:hover polygon { stroke: red; fill: red; }
]]></style>
<script type="text/javascript"><![CDATA[
var edges = document.getElementsByTagName('g');
if (edges && edges.length) {
  for (var i=0;i<edges.length;i++) {
    if (edges[i].id.substr(0,4)=='edge') {
      edges[i].setAttribute('class','edge');
    }
  }
}
]]></script>
        <defs>
                <circle id="rim" cx="0" cy="0" r="7"/>
                <circle id="rim2" cx="0" cy="0" r="3.5"/>
                <g id="zoomPlus">
                        <use xlink:href="#rim" fill="#404040">
                                <set attributeName="fill" to="#808080" begin="zoomplus.mouseover" end="zoomplus.mouseout"/>
                        </use>
                        <path d="M-4,0h8M0,-4v8" fill="none" stroke="white" stroke-width="1.5" pointer-events="none"/>
                </g>
                <g id="zoomMin">
                        <use xlink:href="#rim" fill="#404040">
                                <set attributeName="fill" to="#808080" begin="zoomminus.mouseover" end="zoomminus.mouseout"/>
                        </use>
                        <path d="M-4,0h8" fill="none" stroke="white" stroke-width="1.5" pointer-events="none"/>
                </g>
                <g id="dirArrow">
                        <path fill="none" stroke="white" stroke-width="1.5" d="M0,-3.0v7 M-2.5,-0.5L0,-3.0L2.5,-0.5"/>
                </g>
               <g id="resetDef">
                       <use xlink:href="#rim2" fill="#404040">
                               <set attributeName="fill" to="#808080" begin="reset.mouseover" end="reset.mouseout"/>
                       </use>
               </g>
        </defs>

<script type="text/javascript">
var viewWidth = 998;
var viewHeight = 166;
var sectionId = 'dynsection-68';
</script>
<script xlink:href="svgpan.js"/>
<svg id="graph" class="graph">
<g id="viewport">
<title>okw.core.EN.VerifyCaptionWCM</title>
<polygon fill="white" stroke="none" points="-4,4 -4,-161.5 994,-161.5 994,4 -4,4"/>
<!-- Node2872 -->
<g id="node1" class="node"><title>Node2872</title>
<g id="a_node1"><a xlink:title="Überprüft die Überschrift des Objektes.">
<polygon fill="#bfbfbf" stroke="black" points="0,-93 0,-112 164,-112 164,-93 0,-93"/>
<text text-anchor="middle" x="82" y="-100" font-family="Helvetica,sans-Serif" font-size="10.00">okw.core.EN.VerifyCaptionWCM</text>
</a>
</g>
</g>
<!-- Node2873 -->
<g id="node2" class="node"><title>Node2873</title>
<g id="a_node2"><a xlink:href="classokw_1_1core_1_1_core.html#ab4e0f723d27cb11c944ec4c82c426100" target="_top" xlink:title="Setzt die Sprache auf den gegebenen wert Language.">
<polygon fill="white" stroke="black" points="212,-125 212,-144 361,-144 361,-125 212,-125"/>
<text text-anchor="middle" x="286.5" y="-132" font-family="Helvetica,sans-Serif" font-size="10.00">okw.core.Core.setLanguage</text>
</a>
</g>
</g>
<!-- Node2872&#45;&gt;Node2873 -->
<g id="edge1" class="edge"><title>Node2872&#45;&gt;Node2873</title>
<path fill="none" stroke="midnightblue" d="M143.208,-112.014C165.855,-115.593 191.799,-119.693 215.279,-123.403"/>
<polygon fill="midnightblue" stroke="midnightblue" points="214.75,-126.863 225.174,-124.967 215.843,-119.949 214.75,-126.863"/>
</g>
<!-- Node2875 -->
<g id="node4" class="node"><title>Node2875</title>
<g id="a_node4"><a xlink:href="classokw_1_1core_1_1_core.html#a1dc3f5a21cba756cd6448f88280342ec" target="_top" xlink:title="Überprüft die Überschrift des Objektes.">
<polygon fill="white" stroke="black" points="200,-62 200,-81 373,-81 373,-62 200,-62"/>
<text text-anchor="middle" x="286.5" y="-69" font-family="Helvetica,sans-Serif" font-size="10.00">okw.core.Core.VerifyCaptionWCM</text>
</a>
</g>
</g>
<!-- Node2872&#45;&gt;Node2875 -->
<g id="edge3" class="edge"><title>Node2872&#45;&gt;Node2875</title>
<path fill="none" stroke="midnightblue" d="M145.133,-92.9883C166.608,-89.7008 190.857,-85.9886 213.083,-82.586"/>
<polygon fill="midnightblue" stroke="midnightblue" points="213.781,-86.0201 223.136,-81.0471 212.721,-79.1007 213.781,-86.0201"/>
</g>
<!-- Node2874 -->
<g id="node3" class="node"><title>Node2874</title>
<g id="a_node3"><a xlink:href="interfaceokw_1_1core_1_1_i_o_k_w___state.html#a866baa0bde08a47418f54d63bdb56097" target="_top" xlink:title="Interne Methode zum setzen der Sprache für die sprachabhängigen Ausgaben der Dokumentation (Log).">
<polygon fill="white" stroke="black" points="409,-138 409,-157 591,-157 591,-138 409,-138"/>
<text text-anchor="middle" x="500" y="-145" font-family="Helvetica,sans-Serif" font-size="10.00">okw.core.IOKW_State.setLanguage</text>
</a>
</g>
</g>
<!-- Node2873&#45;&gt;Node2874 -->
<g id="edge2" class="edge"><title>Node2873&#45;&gt;Node2874</title>
<path fill="none" stroke="midnightblue" d="M361.176,-139.029C373.31,-139.774 386.068,-140.559 398.72,-141.336"/>
<polygon fill="midnightblue" stroke="midnightblue" points="398.635,-144.838 408.831,-141.958 399.065,-137.851 398.635,-144.838"/>
</g>
<!-- Node2876 -->
<g id="node5" class="node"><title>Node2876</title>
<g id="a_node5"><a xlink:href="classokw_1_1log_1_1_logger___sngltn.html#a70ec25e200e00ecefc544e8fd371d2ef" target="_top" xlink:title="Ausgabe eines Schlüsselwortes.">
<polygon fill="white" stroke="black" points="428.5,-88.5 428.5,-118.5 571.5,-118.5 571.5,-88.5 428.5,-88.5"/>
<text text-anchor="start" x="436.5" y="-106.5" font-family="Helvetica,sans-Serif" font-size="10.00">okw.log.Logger_Sngltn.Log</text>
<text text-anchor="middle" x="500" y="-95.5" font-family="Helvetica,sans-Serif" font-size="10.00">KeyWordStart</text>
</a>
</g>
</g>
<!-- Node2875&#45;&gt;Node2876 -->
<g id="edge4" class="edge"><title>Node2875&#45;&gt;Node2876</title>
<path fill="none" stroke="midnightblue" d="M350.384,-81.0144C371.609,-84.2257 395.606,-87.8565 418.029,-91.2491"/>
<polygon fill="midnightblue" stroke="midnightblue" points="417.794,-94.7532 428.205,-92.7887 418.841,-87.832 417.794,-94.7532"/>
</g>
<!-- Node2877 -->
<g id="node6" class="node"><title>Node2877</title>
<g id="a_node6"><a xlink:href="classokw_1_1_log_messenger.html#af225d1f037d47b3b085175c09d78bdd2" target="_top" xlink:title="Holt die Log&#45;Meldung für MethodeNmae/Textkey ohne weitere Parameter.">
<polygon fill="white" stroke="black" points="415.5,-50 415.5,-69 584.5,-69 584.5,-50 415.5,-50"/>
<text text-anchor="middle" x="500" y="-57" font-family="Helvetica,sans-Serif" font-size="10.00">okw.LogMessenger.GetMessage</text>
</a>
</g>
</g>
<!-- Node2875&#45;&gt;Node2877 -->
<g id="edge5" class="edge"><title>Node2875&#45;&gt;Node2877</title>
<path fill="none" stroke="midnightblue" d="M373.22,-66.6364C383.72,-66.0407 394.493,-65.4295 405.105,-64.8274"/>
<polygon fill="midnightblue" stroke="midnightblue" points="405.43,-68.3147 415.216,-64.2537 405.033,-61.3259 405.43,-68.3147"/>
</g>
<!-- Node2880 -->
<g id="node9" class="node"><title>Node2880</title>
<g id="a_node9"><a xlink:href="interfaceokw_1_1core_1_1_i_o_k_w___state.html#a8f08ab9f441773a456ea6a0f87f2967f" target="_top" xlink:title="Überprüft die Überschrift des Objektes.">
<polygon fill="white" stroke="black" points="427,-0.5 427,-30.5 573,-30.5 573,-0.5 427,-0.5"/>
<text text-anchor="start" x="435" y="-18.5" font-family="Helvetica,sans-Serif" font-size="10.00">okw.core.IOKW_State.Verify</text>
<text text-anchor="middle" x="500" y="-7.5" font-family="Helvetica,sans-Serif" font-size="10.00">CaptionWCM</text>
</a>
</g>
</g>
<!-- Node2875&#45;&gt;Node2880 -->
<g id="edge8" class="edge"><title>Node2875&#45;&gt;Node2880</title>
<path fill="none" stroke="midnightblue" d="M323.858,-61.8733C353.546,-54.0125 396.299,-42.6928 432.132,-33.2051"/>
<polygon fill="midnightblue" stroke="midnightblue" points="433.267,-36.5251 442.038,-30.5821 431.475,-29.7583 433.267,-36.5251"/>
</g>
<!-- Node2878 -->
<g id="node7" class="node"><title>Node2878</title>
<g id="a_node7"><a xlink:href="classokw_1_1_log_messenger.html#a530cd6ab82ec82a04206a2e976ec06e3" target="_top" xlink:title="Interne Kernfunktion holt die Log&#45;Meldung mit Platzhaltern aus der XML&#45;Datei.">
<polygon fill="white" stroke="black" points="627,-50 627,-69 802,-69 802,-50 627,-50"/>
<text text-anchor="middle" x="714.5" y="-57" font-family="Helvetica,sans-Serif" font-size="10.00">okw.LogMessenger.ReadMessage</text>
</a>
</g>
</g>
<!-- Node2877&#45;&gt;Node2878 -->
<g id="edge6" class="edge"><title>Node2877&#45;&gt;Node2878</title>
<path fill="none" stroke="midnightblue" d="M584.681,-59.5C595.154,-59.5 605.935,-59.5 616.589,-59.5"/>
<polygon fill="midnightblue" stroke="midnightblue" points="616.751,-63.0001 626.751,-59.5 616.751,-56.0001 616.751,-63.0001"/>
</g>
<!-- Node2879 -->
<g id="node8" class="node"><title>Node2879</title>
<g id="a_node8"><a xlink:href="classokw_1_1_o_k_w___xml_reader.html#ab920b5335a2e1429c14cc5f8e79f39eb" target="_top" xlink:title="Lies den TextContent eines Tag.">
<polygon fill="white" stroke="black" points="838,-44.5 838,-74.5 990,-74.5 990,-44.5 838,-44.5"/>
<text text-anchor="start" x="846" y="-62.5" font-family="Helvetica,sans-Serif" font-size="10.00">okw.OKW_XmlReader.getText</text>
<text text-anchor="middle" x="914" y="-51.5" font-family="Helvetica,sans-Serif" font-size="10.00">ContentSingleValue</text>
</a>
</g>
</g>
<!-- Node2878&#45;&gt;Node2879 -->
<g id="edge7" class="edge"><title>Node2878&#45;&gt;Node2879</title>
<path fill="none" stroke="midnightblue" d="M802.126,-59.5C810.6,-59.5 819.195,-59.5 827.656,-59.5"/>
<polygon fill="midnightblue" stroke="midnightblue" points="827.893,-63.0001 837.893,-59.5 827.892,-56.0001 827.893,-63.0001"/>
</g>
</g>
</svg>
        <g id="navigator" transform="translate(0 0)" fill="#404254">
                <rect fill="#f2f5e9" fill-opacity="0.5" stroke="#606060" stroke-width=".5" x="0" y="0" width="60" height="60"/>
                <use id="zoomplus" xlink:href="#zoomPlus" x="17" y="9" onmousedown="handleZoom(evt,'in')"/>
                <use id="zoomminus" xlink:href="#zoomMin" x="42" y="9" onmousedown="handleZoom(evt,'out')"/>
                <use id="reset" xlink:href="#resetDef" x="30" y="36" onmousedown="handleReset()"/>
                <g id="arrowUp" xlink:href="#dirArrow" transform="translate(30 24)" onmousedown="handlePan(0,-1)">
                  <use xlink:href="#rim" fill="#404040">
                        <set attributeName="fill" to="#808080" begin="arrowUp.mouseover" end="arrowUp.mouseout"/>
                  </use>
                  <path fill="none" stroke="white" stroke-width="1.5" d="M0,-3.0v7 M-2.5,-0.5L0,-3.0L2.5,-0.5"/>
                </g>
                <g id="arrowRight" xlink:href="#dirArrow" transform="rotate(90) translate(36 -43)" onmousedown="handlePan(1,0)">
                  <use xlink:href="#rim" fill="#404040">
                        <set attributeName="fill" to="#808080" begin="arrowRight.mouseover" end="arrowRight.mouseout"/>
                  </use>
                  <path fill="none" stroke="white" stroke-width="1.5" d="M0,-3.0v7 M-2.5,-0.5L0,-3.0L2.5,-0.5"/>
                </g>
                <g id="arrowDown" xlink:href="#dirArrow" transform="rotate(180) translate(-30 -48)" onmousedown="handlePan(0,1)">
                  <use xlink:href="#rim" fill="#404040">
                        <set attributeName="fill" to="#808080" begin="arrowDown.mouseover" end="arrowDown.mouseout"/>
                  </use>
                  <path fill="none" stroke="white" stroke-width="1.5" d="M0,-3.0v7 M-2.5,-0.5L0,-3.0L2.5,-0.5"/>
                </g>
                <g id="arrowLeft" xlink:href="#dirArrow" transform="rotate(270) translate(-36 17)" onmousedown="handlePan(-1,0)">
                  <use xlink:href="#rim" fill="#404040">
                        <set attributeName="fill" to="#808080" begin="arrowLeft.mouseover" end="arrowLeft.mouseout"/>
                  </use>
                  <path fill="none" stroke="white" stroke-width="1.5" d="M0,-3.0v7 M-2.5,-0.5L0,-3.0L2.5,-0.5"/>
                </g>
        </g>
        <svg viewBox="0 0 15 15" width="100%" height="30px" preserveAspectRatio="xMaxYMin meet">
         <g id="arrow_out" transform="scale(0.3 0.3)">
          <a xlink:href="classokw_1_1core_1_1_e_n_a5a742184bc524f6b6dceec7cef27a951_cgraph_org.svg" target="_base">
           <rect id="button" ry="5" rx="5" y="6" x="6" height="38" width="38"
                fill="#f2f5e9" fill-opacity="0.5" stroke="#606060" stroke-width="1.0"/>
           <path id="arrow"
             d="M 11.500037,31.436501 C 11.940474,20.09759 22.043105,11.32322 32.158766,21.979434 L 37.068811,17.246167 C 37.068811,17.246167 37.088388,32 37.088388,32 L 22.160133,31.978069 C 22.160133,31.978069 26.997745,27.140456 26.997745,27.140456 C 18.528582,18.264221 13.291696,25.230495 11.500037,31.436501 z"
             style="fill:#404040;"/>
          </a>
         </g>
        </svg>
</svg>
