<?xml version="1.0" encoding="UTF-8" standalone="no"?>
<!DOCTYPE svg PUBLIC "-//W3C//DTD SVG 1.1//EN"
 "http://www.w3.org/Graphics/SVG/1.1/DTD/svg11.dtd">
<!-- Generated by graphviz version 2.38.0 (20140413.2041)
 -->
<!-- Title: okw.core.EN.LogPlaceholder Pages: 1 -->
<svg width="980pt" height="154pt"
 viewBox="0.00 0.00 980.00 154.00" xmlns="http://www.w3.org/2000/svg" xmlns:xlink="http://www.w3.org/1999/xlink">
<g id="graph0" class="graph" transform="scale(1 1) rotate(0) translate(4 150)">
<title>okw.core.EN.LogPlaceholder</title>
<polygon fill="white" stroke="none" points="-4,4 -4,-150 976,-150 976,4 -4,4"/>
<!-- Node1026 -->
<g id="node1" class="node"><title>Node1026</title>
<g id="a_node1"><a xlink:title="Gibt den Wert des Platzhalters in der Logdatei aus.">
<polygon fill="#bfbfbf" stroke="black" points="0,-81.5 0,-100.5 150,-100.5 150,-81.5 0,-81.5"/>
<text text-anchor="middle" x="75" y="-88.5" font-family="Helvetica,sans-Serif" font-size="10.00">okw.core.EN.LogPlaceholder</text>
</a>
</g>
</g>
<!-- Node1027 -->
<g id="node2" class="node"><title>Node1027</title>
<g id="a_node2"><a xlink:href="classokw_1_1core_1_1_core.html#ab4e0f723d27cb11c944ec4c82c426100" target="_top" xlink:title="Setzt die Sprache auf den gegebenen wert Language.">
<polygon fill="white" stroke="black" points="191,-113.5 191,-132.5 340,-132.5 340,-113.5 191,-113.5"/>
<text text-anchor="middle" x="265.5" y="-120.5" font-family="Helvetica,sans-Serif" font-size="10.00">okw.core.Core.setLanguage</text>
</a>
</g>
</g>
<!-- Node1026&#45;&gt;Node1027 -->
<g id="edge1" class="edge"><title>Node1026&#45;&gt;Node1027</title>
<path fill="none" stroke="midnightblue" d="M132.046,-100.514C152.844,-104.045 176.631,-108.083 198.254,-111.754"/>
<polygon fill="midnightblue" stroke="midnightblue" points="197.9,-115.244 208.345,-113.467 199.071,-108.343 197.9,-115.244"/>
</g>
<!-- Node1029 -->
<g id="node4" class="node"><title>Node1029</title>
<g id="a_node4"><a xlink:href="classokw_1_1core_1_1_core.html#ab6f01d1c8bf15af8c993fe11acc58d59" target="_top" xlink:title="Gibt den Wert des Platzhalters in der Logdatei aus.">
<polygon fill="white" stroke="black" points="186,-50.5 186,-69.5 345,-69.5 345,-50.5 186,-50.5"/>
<text text-anchor="middle" x="265.5" y="-57.5" font-family="Helvetica,sans-Serif" font-size="10.00">okw.core.Core.LogPlaceholder</text>
</a>
</g>
</g>
<!-- Node1026&#45;&gt;Node1029 -->
<g id="edge3" class="edge"><title>Node1026&#45;&gt;Node1029</title>
<path fill="none" stroke="midnightblue" d="M133.837,-81.4883C153.647,-78.2304 175.993,-74.5555 196.53,-71.1781"/>
<polygon fill="midnightblue" stroke="midnightblue" points="197.148,-74.6236 206.447,-69.5471 196.012,-67.7164 197.148,-74.6236"/>
</g>
<!-- Node1028 -->
<g id="node3" class="node"><title>Node1028</title>
<g id="a_node3"><a xlink:href="interfaceokw_1_1core_1_1_i_o_k_w___state.html#a866baa0bde08a47418f54d63bdb56097" target="_top" xlink:title="Interne Methode zum setzen der Sprache f체r die sprachabh채ngigen Ausgaben der Dokumentation (Log).">
<polygon fill="white" stroke="black" points="386,-126.5 386,-145.5 568,-145.5 568,-126.5 386,-126.5"/>
<text text-anchor="middle" x="477" y="-133.5" font-family="Helvetica,sans-Serif" font-size="10.00">okw.core.IOKW_State.setLanguage</text>
</a>
</g>
</g>
<!-- Node1027&#45;&gt;Node1028 -->
<g id="edge2" class="edge"><title>Node1027&#45;&gt;Node1028</title>
<path fill="none" stroke="midnightblue" d="M340.067,-127.565C351.581,-128.279 363.648,-129.028 375.638,-129.772"/>
<polygon fill="midnightblue" stroke="midnightblue" points="375.48,-133.269 385.678,-130.395 375.914,-126.283 375.48,-133.269"/>
</g>
<!-- Node1030 -->
<g id="node5" class="node"><title>Node1030</title>
<g id="a_node5"><a xlink:href="classokw_1_1log_1_1_logger___sngltn.html#a70ec25e200e00ecefc544e8fd371d2ef" target="_top" xlink:title="Ausgabe eines Schl체sselwortes.">
<polygon fill="white" stroke="black" points="405.5,-77 405.5,-107 548.5,-107 548.5,-77 405.5,-77"/>
<text text-anchor="start" x="413.5" y="-95" font-family="Helvetica,sans-Serif" font-size="10.00">okw.log.Logger_Sngltn.Log</text>
<text text-anchor="middle" x="477" y="-84" font-family="Helvetica,sans-Serif" font-size="10.00">KeyWordStart</text>
</a>
</g>
</g>
<!-- Node1029&#45;&gt;Node1030 -->
<g id="edge4" class="edge"><title>Node1029&#45;&gt;Node1030</title>
<path fill="none" stroke="midnightblue" d="M328.79,-69.5144C349.604,-72.6937 373.111,-76.2843 395.131,-79.6477"/>
<polygon fill="midnightblue" stroke="midnightblue" points="394.715,-83.1247 405.129,-81.1748 395.772,-76.2049 394.715,-83.1247"/>
</g>
<!-- Node1031 -->
<g id="node6" class="node"><title>Node1031</title>
<g id="a_node6"><a xlink:href="classokw_1_1_log_messenger.html#af225d1f037d47b3b085175c09d78bdd2" target="_top" xlink:title="Holt die Log&#45;Meldung f체r MethodeNmae/Textkey ohne weitere Parameter.">
<polygon fill="white" stroke="black" points="392.5,-38.5 392.5,-57.5 561.5,-57.5 561.5,-38.5 392.5,-38.5"/>
<text text-anchor="middle" x="477" y="-45.5" font-family="Helvetica,sans-Serif" font-size="10.00">okw.LogMessenger.GetMessage</text>
</a>
</g>
</g>
<!-- Node1029&#45;&gt;Node1031 -->
<g id="edge5" class="edge"><title>Node1029&#45;&gt;Node1031</title>
<path fill="none" stroke="midnightblue" d="M345.106,-55.4975C357.17,-54.8065 369.729,-54.0871 382.084,-53.3794"/>
<polygon fill="midnightblue" stroke="midnightblue" points="382.616,-56.8548 392.399,-52.7886 382.215,-49.8663 382.616,-56.8548"/>
</g>
<!-- Node1034 -->
<g id="node9" class="node"><title>Node1034</title>
<g id="a_node9"><a xlink:href="interfaceokw_1_1core_1_1_i_o_k_w___state.html#a6462dea23c6c8698431e41696f156f84" target="_top" xlink:title="Gibt den Wert des Platzhalters in der Logdatei aus.">
<polygon fill="white" stroke="black" points="381,-0.5 381,-19.5 573,-19.5 573,-0.5 381,-0.5"/>
<text text-anchor="middle" x="477" y="-7.5" font-family="Helvetica,sans-Serif" font-size="10.00">okw.core.IOKW_State.LogPlaceholder</text>
</a>
</g>
</g>
<!-- Node1029&#45;&gt;Node1034 -->
<g id="edge8" class="edge"><title>Node1029&#45;&gt;Node1034</title>
<path fill="none" stroke="midnightblue" d="M299.421,-50.4583C322.223,-44.0041 353.334,-35.504 381,-29 392.017,-26.4099 403.807,-23.8687 415.2,-21.5296"/>
<polygon fill="midnightblue" stroke="midnightblue" points="415.975,-24.9439 425.082,-19.53 414.587,-18.083 415.975,-24.9439"/>
</g>
<!-- Node1032 -->
<g id="node7" class="node"><title>Node1032</title>
<g id="a_node7"><a xlink:href="classokw_1_1_log_messenger.html#a530cd6ab82ec82a04206a2e976ec06e3" target="_top" xlink:title="Interne Kernfunktion holt die Log&#45;Meldung mit Platzhaltern aus der XML&#45;Datei.">
<polygon fill="white" stroke="black" points="609,-38.5 609,-57.5 784,-57.5 784,-38.5 609,-38.5"/>
<text text-anchor="middle" x="696.5" y="-45.5" font-family="Helvetica,sans-Serif" font-size="10.00">okw.LogMessenger.ReadMessage</text>
</a>
</g>
</g>
<!-- Node1031&#45;&gt;Node1032 -->
<g id="edge6" class="edge"><title>Node1031&#45;&gt;Node1032</title>
<path fill="none" stroke="midnightblue" d="M561.78,-48C573.84,-48 586.334,-48 598.623,-48"/>
<polygon fill="midnightblue" stroke="midnightblue" points="598.883,-51.5001 608.883,-48 598.883,-44.5001 598.883,-51.5001"/>
</g>
<!-- Node1033 -->
<g id="node8" class="node"><title>Node1033</title>
<g id="a_node8"><a xlink:href="classokw_1_1_o_k_w___xml_reader.html#ab920b5335a2e1429c14cc5f8e79f39eb" target="_top" xlink:title="Lies den TextContent eines Tag.">
<polygon fill="white" stroke="black" points="820,-33 820,-63 972,-63 972,-33 820,-33"/>
<text text-anchor="start" x="828" y="-51" font-family="Helvetica,sans-Serif" font-size="10.00">okw.OKW_XmlReader.getText</text>
<text text-anchor="middle" x="896" y="-40" font-family="Helvetica,sans-Serif" font-size="10.00">ContentSingleValue</text>
</a>
</g>
</g>
<!-- Node1032&#45;&gt;Node1033 -->
<g id="edge7" class="edge"><title>Node1032&#45;&gt;Node1033</title>
<path fill="none" stroke="midnightblue" d="M784.126,-48C792.6,-48 801.195,-48 809.656,-48"/>
<polygon fill="midnightblue" stroke="midnightblue" points="809.893,-51.5001 819.893,-48 809.892,-44.5001 809.893,-51.5001"/>
</g>
</g>
</svg>
