<?xml version="1.0" encoding="UTF-8" standalone="no"?>
<!DOCTYPE svg PUBLIC "-//W3C//DTD SVG 1.1//EN"
 "http://www.w3.org/Graphics/SVG/1.1/DTD/svg11.dtd">
<!-- Generated by graphviz version 2.36.0 (20140111.2315)
 -->
<!-- Title: okw.OKW_Const_Sngltn Pages: 1 -->
<svg width="809pt" height="902pt"
 viewBox="0.00 0.00 809.00 902.00" xmlns="http://www.w3.org/2000/svg" xmlns:xlink="http://www.w3.org/1999/xlink">
<g id="graph0" class="graph" transform="scale(1 1) rotate(0) translate(4 898)">
<title>okw.OKW_Const_Sngltn</title>
<polygon fill="white" stroke="none" points="-4,4 -4,-898 805,-898 805,4 -4,4"/>
<!-- Node1 -->
<g id="node1" class="node"><title>Node1</title>
<polygon fill="#bfbfbf" stroke="black" points="332.5,-1 332.5,-179 491.5,-179 491.5,-1 332.5,-1"/>
<text text-anchor="middle" x="412" y="-167" font-family="Helvetica,sans-Serif" font-size="10.00">okw.OKW_Const_Sngltn</text>
<polyline fill="none" stroke="black" points="332.5,-160 491.5,-160 "/>
<text text-anchor="middle" x="412" y="-148" font-family="Helvetica,sans-Serif" font-size="10.00"> </text>
<polyline fill="none" stroke="black" points="332.5,-141 491.5,-141 "/>
<text text-anchor="start" x="340.5" y="-129" font-family="Helvetica,sans-Serif" font-size="10.00">+ Boolean2YesNo()</text>
<text text-anchor="start" x="340.5" y="-118" font-family="Helvetica,sans-Serif" font-size="10.00">+ ConcatHSEP()</text>
<text text-anchor="start" x="340.5" y="-107" font-family="Helvetica,sans-Serif" font-size="10.00">+ ConcatSEP()</text>
<text text-anchor="start" x="340.5" y="-96" font-family="Helvetica,sans-Serif" font-size="10.00">+ ConcatVSEP()</text>
<text text-anchor="start" x="340.5" y="-85" font-family="Helvetica,sans-Serif" font-size="10.00">+ GetConst4Internalname()</text>
<text text-anchor="start" x="340.5" y="-74" font-family="Helvetica,sans-Serif" font-size="10.00">+ GetOKWConst4Internalname()</text>
<text text-anchor="start" x="340.5" y="-63" font-family="Helvetica,sans-Serif" font-size="10.00">+ SplitHSEP()</text>
<text text-anchor="start" x="340.5" y="-52" font-family="Helvetica,sans-Serif" font-size="10.00">+ SplitSEP()</text>
<text text-anchor="start" x="340.5" y="-41" font-family="Helvetica,sans-Serif" font-size="10.00">+ SplitVSEP()</text>
<text text-anchor="start" x="340.5" y="-30" font-family="Helvetica,sans-Serif" font-size="10.00">+ YesNo2Boolean()</text>
<text text-anchor="start" x="340.5" y="-19" font-family="Helvetica,sans-Serif" font-size="10.00">+ getInstance()</text>
<text text-anchor="start" x="340.5" y="-8" font-family="Helvetica,sans-Serif" font-size="10.00"># OKW_Const_Sngltn()</text>
</g>
<!-- Node1&#45;&gt;Node1 -->
<g id="edge8" class="edge"><title>Node1&#45;&gt;Node1</title>
<path fill="none" stroke="#404040" d="M491.54,-108.849C502.038,-105.635 509,-99.3516 509,-90 509,-84.4475 506.545,-79.9768 502.354,-76.5878"/>
<polygon fill="none" stroke="#404040" points="502.261,-76.5411 495.103,-77.4197 491.54,-71.1508 498.697,-70.2722 502.261,-76.5411"/>
<text text-anchor="middle" x="531" y="-87.5" font-family="Helvetica,sans-Serif" font-size="10.00"> &#45;Instance</text>
</g>
<!-- Node2 -->
<g id="node2" class="node"><title>Node2</title>
<g id="a_node2"><a xlink:href="classokw_1_1_o_k_w___xml_reader.html" target="_top" xlink:title="{okw.OKW_XmlReader\n||+ getXMLFile()\l+ OKW_XmlReader()\l+ getTextContentSingleValue()\l+ getTextContentAsList()\l&#45; Init()\l}">
<polygon fill="white" stroke="black" points="207.5,-686.5 207.5,-787.5 358.5,-787.5 358.5,-686.5 207.5,-686.5"/>
<text text-anchor="middle" x="283" y="-775.5" font-family="Helvetica,sans-Serif" font-size="10.00">okw.OKW_XmlReader</text>
<polyline fill="none" stroke="black" points="207.5,-768.5 358.5,-768.5 "/>
<text text-anchor="middle" x="283" y="-756.5" font-family="Helvetica,sans-Serif" font-size="10.00"> </text>
<polyline fill="none" stroke="black" points="207.5,-749.5 358.5,-749.5 "/>
<text text-anchor="start" x="215.5" y="-737.5" font-family="Helvetica,sans-Serif" font-size="10.00">+ getXMLFile()</text>
<text text-anchor="start" x="215.5" y="-726.5" font-family="Helvetica,sans-Serif" font-size="10.00">+ OKW_XmlReader()</text>
<text text-anchor="start" x="215.5" y="-715.5" font-family="Helvetica,sans-Serif" font-size="10.00">+ getTextContentSingleValue()</text>
<text text-anchor="start" x="215.5" y="-704.5" font-family="Helvetica,sans-Serif" font-size="10.00">+ getTextContentAsList()</text>
<text text-anchor="start" x="215.5" y="-693.5" font-family="Helvetica,sans-Serif" font-size="10.00">&#45; Init()</text>
</a>
</g>
</g>
<!-- Node2&#45;&gt;Node1 -->
<g id="edge1" class="edge"><title>Node2&#45;&gt;Node1</title>
<path fill="none" stroke="#404040" d="M245.391,-686.357C236.242,-671.566 227.735,-654.801 223,-638 173.573,-462.609 140.184,-390.316 223,-228 244.044,-186.754 283.953,-155.035 321.694,-132.556"/>
<polygon fill="none" stroke="#404040" points="321.869,-132.455 325.068,-125.992 332.264,-126.46 329.065,-132.923 321.869,-132.455"/>
<text text-anchor="middle" x="257.5" y="-430.5" font-family="Helvetica,sans-Serif" font-size="10.00"> &#45;myXmlReader</text>
</g>
<!-- Node11 -->
<g id="node11" class="node"><title>Node11</title>
<g id="a_node11"><a xlink:href="classokw_1_1_log_messenger.html" target="_top" xlink:title="LogMessenger liest Log&#45;Meldungen sprachspezifisch für die im Konstruktor gegeben Klasse aus der Zugeh...">
<polygon fill="white" stroke="black" points="301.5,-377 301.5,-489 402.5,-489 402.5,-377 301.5,-377"/>
<text text-anchor="middle" x="352" y="-477" font-family="Helvetica,sans-Serif" font-size="10.00">okw.LogMessenger</text>
<polyline fill="none" stroke="black" points="301.5,-470 402.5,-470 "/>
<text text-anchor="start" x="309.5" y="-458" font-family="Helvetica,sans-Serif" font-size="10.00">&#45; cvsClassName</text>
<polyline fill="none" stroke="black" points="301.5,-451 402.5,-451 "/>
<text text-anchor="start" x="309.5" y="-439" font-family="Helvetica,sans-Serif" font-size="10.00">+ LogMessenger()</text>
<text text-anchor="start" x="309.5" y="-428" font-family="Helvetica,sans-Serif" font-size="10.00">+ GetMessage()</text>
<text text-anchor="start" x="309.5" y="-417" font-family="Helvetica,sans-Serif" font-size="10.00">+ GetMessage()</text>
<text text-anchor="start" x="309.5" y="-406" font-family="Helvetica,sans-Serif" font-size="10.00">+ GetMessage()</text>
<text text-anchor="start" x="309.5" y="-395" font-family="Helvetica,sans-Serif" font-size="10.00">+ GetMessage()</text>
<text text-anchor="start" x="309.5" y="-384" font-family="Helvetica,sans-Serif" font-size="10.00">&#45; ReadMessage()</text>
</a>
</g>
</g>
<!-- Node2&#45;&gt;Node11 -->
<g id="edge13" class="edge"><title>Node2&#45;&gt;Node11</title>
<path fill="none" stroke="#404040" d="M294.317,-686.469C305.857,-635.958 323.839,-557.253 336.657,-501.155"/>
<polygon fill="none" stroke="#404040" points="336.717,-500.89 334.154,-494.149 339.39,-489.191 341.953,-495.931 336.717,-500.89"/>
<text text-anchor="middle" x="334.5" y="-659.5" font-family="Helvetica,sans-Serif" font-size="10.00"> &#45;myXmlReader</text>
</g>
<!-- Node3 -->
<g id="node3" class="node"><title>Node3</title>
<polygon fill="white" stroke="#bfbfbf" points="-0.5,-836.5 -0.5,-893.5 70.5,-893.5 70.5,-836.5 -0.5,-836.5"/>
<text text-anchor="middle" x="35" y="-881.5" font-family="Helvetica,sans-Serif" font-size="10.00">ClassLoader</text>
<polyline fill="none" stroke="#bfbfbf" points="-0.5,-874.5 70.5,-874.5 "/>
<text text-anchor="middle" x="35" y="-862.5" font-family="Helvetica,sans-Serif" font-size="10.00"> </text>
<polyline fill="none" stroke="#bfbfbf" points="-0.5,-855.5 70.5,-855.5 "/>
<text text-anchor="middle" x="35" y="-843.5" font-family="Helvetica,sans-Serif" font-size="10.00"> </text>
</g>
<!-- Node3&#45;&gt;Node2 -->
<g id="edge2" class="edge"><title>Node3&#45;&gt;Node2</title>
<path fill="none" stroke="midnightblue" d="M79.821,-835.723C126.317,-810.118 170.758,-788.657 207.31,-771.747"/>
<polygon fill="none" stroke="midnightblue" points="77.8528,-832.812 70.8072,-840.725 81.2494,-838.933 77.8528,-832.812"/>
</g>
<!-- Node4 -->
<g id="node4" class="node"><title>Node4</title>
<polygon fill="white" stroke="#bfbfbf" points="88.5,-836.5 88.5,-893.5 213.5,-893.5 213.5,-836.5 88.5,-836.5"/>
<text text-anchor="middle" x="151" y="-881.5" font-family="Helvetica,sans-Serif" font-size="10.00">DocumentBuilderFactory</text>
<polyline fill="none" stroke="#bfbfbf" points="88.5,-874.5 213.5,-874.5 "/>
<text text-anchor="middle" x="151" y="-862.5" font-family="Helvetica,sans-Serif" font-size="10.00"> </text>
<polyline fill="none" stroke="#bfbfbf" points="88.5,-855.5 213.5,-855.5 "/>
<text text-anchor="middle" x="151" y="-843.5" font-family="Helvetica,sans-Serif" font-size="10.00"> </text>
</g>
<!-- Node4&#45;&gt;Node2 -->
<g id="edge3" class="edge"><title>Node4&#45;&gt;Node2</title>
<path fill="none" stroke="#404040" d="M161.18,-836.499C165.869,-826.191 172.157,-814.844 180,-806 185.397,-799.914 191.458,-794.138 197.868,-788.714"/>
<polygon fill="none" stroke="#404040" points="198.105,-788.524 200.288,-781.651 207.471,-781.022 205.288,-787.895 198.105,-788.524"/>
<text text-anchor="middle" x="212" y="-809.5" font-family="Helvetica,sans-Serif" font-size="10.00"> &#45;mydbFactory</text>
</g>
<!-- Node5 -->
<g id="node5" class="node"><title>Node5</title>
<polygon fill="white" stroke="#bfbfbf" points="231,-836.5 231,-893.5 275,-893.5 275,-836.5 231,-836.5"/>
<text text-anchor="middle" x="253" y="-881.5" font-family="Helvetica,sans-Serif" font-size="10.00">XPath</text>
<polyline fill="none" stroke="#bfbfbf" points="231,-874.5 275,-874.5 "/>
<text text-anchor="middle" x="253" y="-862.5" font-family="Helvetica,sans-Serif" font-size="10.00"> </text>
<polyline fill="none" stroke="#bfbfbf" points="231,-855.5 275,-855.5 "/>
<text text-anchor="middle" x="253" y="-843.5" font-family="Helvetica,sans-Serif" font-size="10.00"> </text>
</g>
<!-- Node5&#45;&gt;Node2 -->
<g id="edge4" class="edge"><title>Node5&#45;&gt;Node2</title>
<path fill="none" stroke="#404040" d="M247.742,-836.286C246.782,-826.602 246.704,-815.725 249,-806 249.546,-803.688 250.183,-801.364 250.896,-799.043"/>
<polygon fill="none" stroke="#404040" points="250.979,-798.812 249.233,-791.815 255.02,-787.513 256.766,-794.51 250.979,-798.812"/>
<text text-anchor="middle" x="272.5" y="-809.5" font-family="Helvetica,sans-Serif" font-size="10.00"> &#45;myXPath</text>
</g>
<!-- Node6 -->
<g id="node6" class="node"><title>Node6</title>
<polygon fill="white" stroke="#bfbfbf" points="297.5,-836.5 297.5,-893.5 334.5,-893.5 334.5,-836.5 297.5,-836.5"/>
<text text-anchor="middle" x="316" y="-881.5" font-family="Helvetica,sans-Serif" font-size="10.00">Path</text>
<polyline fill="none" stroke="#bfbfbf" points="297.5,-874.5 334.5,-874.5 "/>
<text text-anchor="middle" x="316" y="-862.5" font-family="Helvetica,sans-Serif" font-size="10.00"> </text>
<polyline fill="none" stroke="#bfbfbf" points="297.5,-855.5 334.5,-855.5 "/>
<text text-anchor="middle" x="316" y="-843.5" font-family="Helvetica,sans-Serif" font-size="10.00"> </text>
</g>
<!-- Node6&#45;&gt;Node2 -->
<g id="edge5" class="edge"><title>Node6&#45;&gt;Node2</title>
<path fill="none" stroke="#404040" d="M308.758,-836.349C305.896,-825.423 302.485,-812.399 299.097,-799.462"/>
<polygon fill="none" stroke="#404040" points="299.049,-799.276 293.659,-794.486 296.008,-787.668 301.398,-792.459 299.049,-799.276"/>
<text text-anchor="middle" x="332" y="-809.5" font-family="Helvetica,sans-Serif" font-size="10.00"> &#45;myXMLFile</text>
</g>
<!-- Node7 -->
<g id="node7" class="node"><title>Node7</title>
<polygon fill="white" stroke="#bfbfbf" points="353,-836.5 353,-893.5 445,-893.5 445,-836.5 353,-836.5"/>
<text text-anchor="middle" x="399" y="-881.5" font-family="Helvetica,sans-Serif" font-size="10.00">DocumentBuilder</text>
<polyline fill="none" stroke="#bfbfbf" points="353,-874.5 445,-874.5 "/>
<text text-anchor="middle" x="399" y="-862.5" font-family="Helvetica,sans-Serif" font-size="10.00"> </text>
<polyline fill="none" stroke="#bfbfbf" points="353,-855.5 445,-855.5 "/>
<text text-anchor="middle" x="399" y="-843.5" font-family="Helvetica,sans-Serif" font-size="10.00"> </text>
</g>
<!-- Node7&#45;&gt;Node2 -->
<g id="edge6" class="edge"><title>Node7&#45;&gt;Node2</title>
<path fill="none" stroke="#404040" d="M384.877,-836.476C379.079,-826.392 371.875,-815.205 364,-806 361.147,-802.665 358.12,-799.359 354.977,-796.107"/>
<polygon fill="none" stroke="#404040" points="354.952,-796.083 347.874,-794.704 346.425,-787.64 353.503,-789.019 354.952,-796.083"/>
<text text-anchor="middle" x="401.5" y="-809.5" font-family="Helvetica,sans-Serif" font-size="10.00"> &#45;mydBuilder</text>
</g>
<!-- Node8 -->
<g id="node8" class="node"><title>Node8</title>
<polygon fill="white" stroke="#bfbfbf" points="463,-836.5 463,-893.5 525,-893.5 525,-836.5 463,-836.5"/>
<text text-anchor="middle" x="494" y="-881.5" font-family="Helvetica,sans-Serif" font-size="10.00">Document</text>
<polyline fill="none" stroke="#bfbfbf" points="463,-874.5 525,-874.5 "/>
<text text-anchor="middle" x="494" y="-862.5" font-family="Helvetica,sans-Serif" font-size="10.00"> </text>
<polyline fill="none" stroke="#bfbfbf" points="463,-855.5 525,-855.5 "/>
<text text-anchor="middle" x="494" y="-843.5" font-family="Helvetica,sans-Serif" font-size="10.00"> </text>
</g>
<!-- Node8&#45;&gt;Node2 -->
<g id="edge7" class="edge"><title>Node8&#45;&gt;Node2</title>
<path fill="none" stroke="#404040" d="M468.649,-836.217C458.273,-825.872 445.725,-814.574 433,-806 413.615,-792.939 391.314,-781.285 369.937,-771.472"/>
<polygon fill="none" stroke="#404040" points="369.814,-771.417 362.703,-772.614 358.863,-766.51 365.974,-765.313 369.814,-771.417"/>
<text text-anchor="middle" x="490.5" y="-809.5" font-family="Helvetica,sans-Serif" font-size="10.00"> &#45;myXMLDocument</text>
</g>
<!-- Node9 -->
<g id="node9" class="node"><title>Node9</title>
<g id="a_node9"><a xlink:href="classokw_1_1_o_k_w_language.html" target="_top" xlink:title="http://de.wikipedia.org/wiki/ISO&#45;3166&#45;1&#45;Kodierliste ">
<polygon fill="white" stroke="black" points="421,-388 421,-478 525,-478 525,-388 421,-388"/>
<text text-anchor="middle" x="473" y="-466" font-family="Helvetica,sans-Serif" font-size="10.00">okw.OKWLanguage</text>
<polyline fill="none" stroke="black" points="421,-459 525,-459 "/>
<text text-anchor="start" x="429" y="-447" font-family="Helvetica,sans-Serif" font-size="10.00">&#45; Language</text>
<polyline fill="none" stroke="black" points="421,-440 525,-440 "/>
<text text-anchor="start" x="429" y="-428" font-family="Helvetica,sans-Serif" font-size="10.00">+ getLanguage()</text>
<text text-anchor="start" x="429" y="-417" font-family="Helvetica,sans-Serif" font-size="10.00">+ setLanguage()</text>
<text text-anchor="start" x="429" y="-406" font-family="Helvetica,sans-Serif" font-size="10.00">+ getInstance()</text>
<text text-anchor="start" x="429" y="-395" font-family="Helvetica,sans-Serif" font-size="10.00">&#45; OKWLanguage()</text>
</a>
</g>
</g>
<!-- Node9&#45;&gt;Node1 -->
<g id="edge9" class="edge"><title>Node9&#45;&gt;Node1</title>
<path fill="none" stroke="#404040" d="M465.088,-387.77C456.226,-338.232 441.577,-256.342 429.91,-191.118"/>
<polygon fill="none" stroke="#404040" points="429.881,-190.958 424.887,-185.756 427.768,-179.145 432.762,-184.347 429.881,-190.958"/>
<text text-anchor="middle" x="441.5" y="-201.5" font-family="Helvetica,sans-Serif" font-size="10.00"> &#45;CL</text>
</g>
<!-- Node9&#45;&gt;Node9 -->
<g id="edge11" class="edge"><title>Node9&#45;&gt;Node9</title>
<path fill="none" stroke="#404040" d="M525.202,-473.986C535.592,-469.373 543,-455.711 543,-433 543,-417.919 539.733,-406.827 534.496,-399.727"/>
<polygon fill="none" stroke="#404040" points="534.436,-399.678 527.265,-398.924 525.202,-392.014 532.374,-392.768 534.436,-399.678"/>
<text text-anchor="middle" x="565" y="-430.5" font-family="Helvetica,sans-Serif" font-size="10.00"> &#45;Instance</text>
</g>
<!-- Node10 -->
<g id="node10" class="node"><title>Node10</title>
<polygon fill="white" stroke="#bfbfbf" points="423.5,-708.5 423.5,-765.5 522.5,-765.5 522.5,-708.5 423.5,-708.5"/>
<text text-anchor="middle" x="473" y="-753.5" font-family="Helvetica,sans-Serif" font-size="10.00">ArrayList&lt; String &gt;</text>
<polyline fill="none" stroke="#bfbfbf" points="423.5,-746.5 522.5,-746.5 "/>
<text text-anchor="middle" x="473" y="-734.5" font-family="Helvetica,sans-Serif" font-size="10.00"> </text>
<polyline fill="none" stroke="#bfbfbf" points="423.5,-727.5 522.5,-727.5 "/>
<text text-anchor="middle" x="473" y="-715.5" font-family="Helvetica,sans-Serif" font-size="10.00"> </text>
</g>
<!-- Node10&#45;&gt;Node9 -->
<g id="edge10" class="edge"><title>Node10&#45;&gt;Node9</title>
<path fill="none" stroke="#404040" d="M473,-708.399C473,-659.085 473,-554.949 473,-490.094"/>
<polygon fill="none" stroke="#404040" points="473,-490.07 469,-484.07 473,-478.07 477,-484.07 473,-490.07"/>
<text text-anchor="middle" x="538.5" y="-659.5" font-family="Helvetica,sans-Serif" font-size="10.00"> &#45;cvLsLanguagesImplemented</text>
</g>
<!-- Node11&#45;&gt;Node1 -->
<g id="edge12" class="edge"><title>Node11&#45;&gt;Node1</title>
<path fill="none" stroke="#404040" d="M361.707,-376.833C370.522,-326.735 383.737,-251.625 394.41,-190.972"/>
<polygon fill="none" stroke="#404040" points="394.428,-190.864 391.529,-184.262 396.508,-179.046 399.408,-185.648 394.428,-190.864"/>
<text text-anchor="middle" x="403" y="-201.5" font-family="Helvetica,sans-Serif" font-size="10.00"> &#45;LM</text>
</g>
<!-- Node12 -->
<g id="node12" class="node"><title>Node12</title>
<g id="a_node12"><a xlink:href="classokw_1_1log_1_1_logger___sngltn.html" target="_top" xlink:title="{okw.log.Logger_Sngltn\n|&#45; cvbDebugMode\l|+ getDebugMode()\l+ setDebugMode()\l+ addLogger()\l+ reset()\l+ LogError()\l+ LogException()\l+ LogFunctionEnd()\l+ LogFunctionEnd()\l+ LogFunctionEnd()\l+ LogFunctionEnd()\l+ LogFunctionEndDebug()\l+ LogFunctionEndDebug()\l+ LogFunctionEndDebug()\l+ LogFunctionEndDebug()\l+ LogFunctionStart()\l+ LogFunctionStartDebug()\l+ LogKeyWordEnd()\l+ LogSequenceEnd()\l+ LogTestcaseEnd()\l+ LogKeyWordStart()\l+ LogSequenceStart()\l+ LogTestcaseStart()\l+ LogPass()\l+ LogPrint()\l+ LogPrintDebug()\l+ LogWarning()\l+ ResCloseList()\l+ ResCloseListDebug()\l+ ResOpenList()\l+ ResOpenListDebug()\l+ getInstance()\l+ init()\l&#45; Logger_Sngltn()\l}">
<polygon fill="white" stroke="black" points="605,-228.5 605,-637.5 739,-637.5 739,-228.5 605,-228.5"/>
<text text-anchor="middle" x="672" y="-625.5" font-family="Helvetica,sans-Serif" font-size="10.00">okw.log.Logger_Sngltn</text>
<polyline fill="none" stroke="black" points="605,-618.5 739,-618.5 "/>
<text text-anchor="start" x="613" y="-606.5" font-family="Helvetica,sans-Serif" font-size="10.00">&#45; cvbDebugMode</text>
<polyline fill="none" stroke="black" points="605,-599.5 739,-599.5 "/>
<text text-anchor="start" x="613" y="-587.5" font-family="Helvetica,sans-Serif" font-size="10.00">+ getDebugMode()</text>
<text text-anchor="start" x="613" y="-576.5" font-family="Helvetica,sans-Serif" font-size="10.00">+ setDebugMode()</text>
<text text-anchor="start" x="613" y="-565.5" font-family="Helvetica,sans-Serif" font-size="10.00">+ addLogger()</text>
<text text-anchor="start" x="613" y="-554.5" font-family="Helvetica,sans-Serif" font-size="10.00">+ reset()</text>
<text text-anchor="start" x="613" y="-543.5" font-family="Helvetica,sans-Serif" font-size="10.00">+ LogError()</text>
<text text-anchor="start" x="613" y="-532.5" font-family="Helvetica,sans-Serif" font-size="10.00">+ LogException()</text>
<text text-anchor="start" x="613" y="-521.5" font-family="Helvetica,sans-Serif" font-size="10.00">+ LogFunctionEnd()</text>
<text text-anchor="start" x="613" y="-510.5" font-family="Helvetica,sans-Serif" font-size="10.00">+ LogFunctionEnd()</text>
<text text-anchor="start" x="613" y="-499.5" font-family="Helvetica,sans-Serif" font-size="10.00">+ LogFunctionEnd()</text>
<text text-anchor="start" x="613" y="-488.5" font-family="Helvetica,sans-Serif" font-size="10.00">+ LogFunctionEnd()</text>
<text text-anchor="start" x="613" y="-477.5" font-family="Helvetica,sans-Serif" font-size="10.00">+ LogFunctionEndDebug()</text>
<text text-anchor="start" x="613" y="-466.5" font-family="Helvetica,sans-Serif" font-size="10.00">+ LogFunctionEndDebug()</text>
<text text-anchor="start" x="613" y="-455.5" font-family="Helvetica,sans-Serif" font-size="10.00">+ LogFunctionEndDebug()</text>
<text text-anchor="start" x="613" y="-444.5" font-family="Helvetica,sans-Serif" font-size="10.00">+ LogFunctionEndDebug()</text>
<text text-anchor="start" x="613" y="-433.5" font-family="Helvetica,sans-Serif" font-size="10.00">+ LogFunctionStart()</text>
<text text-anchor="start" x="613" y="-422.5" font-family="Helvetica,sans-Serif" font-size="10.00">+ LogFunctionStartDebug()</text>
<text text-anchor="start" x="613" y="-411.5" font-family="Helvetica,sans-Serif" font-size="10.00">+ LogKeyWordEnd()</text>
<text text-anchor="start" x="613" y="-400.5" font-family="Helvetica,sans-Serif" font-size="10.00">+ LogSequenceEnd()</text>
<text text-anchor="start" x="613" y="-389.5" font-family="Helvetica,sans-Serif" font-size="10.00">+ LogTestcaseEnd()</text>
<text text-anchor="start" x="613" y="-378.5" font-family="Helvetica,sans-Serif" font-size="10.00">+ LogKeyWordStart()</text>
<text text-anchor="start" x="613" y="-367.5" font-family="Helvetica,sans-Serif" font-size="10.00">+ LogSequenceStart()</text>
<text text-anchor="start" x="613" y="-356.5" font-family="Helvetica,sans-Serif" font-size="10.00">+ LogTestcaseStart()</text>
<text text-anchor="start" x="613" y="-345.5" font-family="Helvetica,sans-Serif" font-size="10.00">+ LogPass()</text>
<text text-anchor="start" x="613" y="-334.5" font-family="Helvetica,sans-Serif" font-size="10.00">+ LogPrint()</text>
<text text-anchor="start" x="613" y="-323.5" font-family="Helvetica,sans-Serif" font-size="10.00">+ LogPrintDebug()</text>
<text text-anchor="start" x="613" y="-312.5" font-family="Helvetica,sans-Serif" font-size="10.00">+ LogWarning()</text>
<text text-anchor="start" x="613" y="-301.5" font-family="Helvetica,sans-Serif" font-size="10.00">+ ResCloseList()</text>
<text text-anchor="start" x="613" y="-290.5" font-family="Helvetica,sans-Serif" font-size="10.00">+ ResCloseListDebug()</text>
<text text-anchor="start" x="613" y="-279.5" font-family="Helvetica,sans-Serif" font-size="10.00">+ ResOpenList()</text>
<text text-anchor="start" x="613" y="-268.5" font-family="Helvetica,sans-Serif" font-size="10.00">+ ResOpenListDebug()</text>
<text text-anchor="start" x="613" y="-257.5" font-family="Helvetica,sans-Serif" font-size="10.00">+ getInstance()</text>
<text text-anchor="start" x="613" y="-246.5" font-family="Helvetica,sans-Serif" font-size="10.00">+ init()</text>
<text text-anchor="start" x="613" y="-235.5" font-family="Helvetica,sans-Serif" font-size="10.00">&#45; Logger_Sngltn()</text>
</a>
</g>
</g>
<!-- Node12&#45;&gt;Node1 -->
<g id="edge14" class="edge"><title>Node12&#45;&gt;Node1</title>
<path fill="none" stroke="#404040" d="M604.855,-240.628C602.013,-236.299 599.062,-232.081 596,-228 570.764,-194.366 535.048,-165.173 501.788,-142.478"/>
<polygon fill="none" stroke="#404040" points="501.538,-142.311 494.327,-142.305 491.559,-135.646 498.77,-135.652 501.538,-142.311"/>
<text text-anchor="middle" x="592" y="-201.5" font-family="Helvetica,sans-Serif" font-size="10.00"> &#45;Log</text>
</g>
<!-- Node12&#45;&gt;Node12 -->
<g id="edge16" class="edge"><title>Node12&#45;&gt;Node12</title>
<path fill="none" stroke="#404040" d="M739.337,-472.178C749.84,-466.321 757,-453.262 757,-433 757,-419.387 753.768,-409.025 748.461,-401.914"/>
<polygon fill="none" stroke="#404040" points="748.315,-401.784 741.172,-400.796 739.337,-393.822 746.48,-394.81 748.315,-401.784"/>
<text text-anchor="middle" x="779" y="-430.5" font-family="Helvetica,sans-Serif" font-size="10.00"> &#45;Instance</text>
</g>
<!-- Node13 -->
<g id="node13" class="node"><title>Node13</title>
<polygon fill="white" stroke="#bfbfbf" points="600.5,-708.5 600.5,-765.5 743.5,-765.5 743.5,-708.5 600.5,-708.5"/>
<text text-anchor="middle" x="672" y="-753.5" font-family="Helvetica,sans-Serif" font-size="10.00">ArrayList&lt; okw.log.ILogger &gt;</text>
<polyline fill="none" stroke="#bfbfbf" points="600.5,-746.5 743.5,-746.5 "/>
<text text-anchor="middle" x="672" y="-734.5" font-family="Helvetica,sans-Serif" font-size="10.00"> </text>
<polyline fill="none" stroke="#bfbfbf" points="600.5,-727.5 743.5,-727.5 "/>
<text text-anchor="middle" x="672" y="-715.5" font-family="Helvetica,sans-Serif" font-size="10.00"> </text>
</g>
<!-- Node13&#45;&gt;Node12 -->
<g id="edge15" class="edge"><title>Node13&#45;&gt;Node12</title>
<path fill="none" stroke="#404040" d="M672,-708.399C672,-693.209 672,-672.819 672,-649.977"/>
<polygon fill="none" stroke="#404040" points="672,-649.823 668,-643.823 672,-637.823 676,-643.823 672,-649.823"/>
<text text-anchor="middle" x="698" y="-659.5" font-family="Helvetica,sans-Serif" font-size="10.00"> &#45;LoggerList</text>
</g>
</g>
</svg>
