<?xml version="1.0" encoding="UTF-8" standalone="no"?>
<!DOCTYPE svg PUBLIC "-//W3C//DTD SVG 1.1//EN"
 "http://www.w3.org/Graphics/SVG/1.1/DTD/svg11.dtd">
<!-- Generated by graphviz version 2.36.0 (20140111.2315)
 -->
<!-- Title: okw.gui.adapter.selenium.SeAnyChildWindow.VerifyTooltip Pages: 1 -->
<!--zoomable 301 -->
<svg id="main" version="1.1" xmlns="http://www.w3.org/2000/svg" xmlns:xlink="http://www.w3.org/1999/xlink" xml:space="preserve" onload="init(evt)">
<style type="text/css"><![CDATA[
.edge:hover path { stroke: red; }
.edge:hover polygon { stroke: red; fill: red; }
]]></style>
<script type="text/javascript"><![CDATA[
var edges = document.getElementsByTagName('g');
if (edges && edges.length) {
  for (var i=0;i<edges.length;i++) {
    if (edges[i].id.substr(0,4)=='edge') {
      edges[i].setAttribute('class','edge');
    }
  }
}
]]></script>
        <defs>
                <circle id="rim" cx="0" cy="0" r="7"/>
                <circle id="rim2" cx="0" cy="0" r="3.5"/>
                <g id="zoomPlus">
                        <use xlink:href="#rim" fill="#404040">
                                <set attributeName="fill" to="#808080" begin="zoomplus.mouseover" end="zoomplus.mouseout"/>
                        </use>
                        <path d="M-4,0h8M0,-4v8" fill="none" stroke="white" stroke-width="1.5" pointer-events="none"/>
                </g>
                <g id="zoomMin">
                        <use xlink:href="#rim" fill="#404040">
                                <set attributeName="fill" to="#808080" begin="zoomminus.mouseover" end="zoomminus.mouseout"/>
                        </use>
                        <path d="M-4,0h8" fill="none" stroke="white" stroke-width="1.5" pointer-events="none"/>
                </g>
                <g id="dirArrow">
                        <path fill="none" stroke="white" stroke-width="1.5" d="M0,-3.0v7 M-2.5,-0.5L0,-3.0L2.5,-0.5"/>
                </g>
               <g id="resetDef">
                       <use xlink:href="#rim2" fill="#404040">
                               <set attributeName="fill" to="#808080" begin="reset.mouseover" end="reset.mouseout"/>
                       </use>
               </g>
        </defs>

<script type="text/javascript">
var viewWidth = 1172;
var viewHeight = 301;
var sectionId = 'dynsection-49';
</script>
<script xlink:href="svgpan.js"/>
<svg id="graph" class="graph">
<g id="viewport">
<title>okw.gui.adapter.selenium.SeAnyChildWindow.VerifyTooltip</title>
<polygon fill="white" stroke="none" points="-4,4 -4,-297 1168,-297 1168,4 -4,4"/>
<!-- Node689 -->
<g id="node1" class="node"><title>Node689</title>
<polygon fill="#bfbfbf" stroke="black" points="0.5,-100 0.5,-130 161.5,-130 161.5,-100 0.5,-100"/>
<text text-anchor="start" x="8.5" y="-118" font-family="Helvetica,sans-Serif" font-size="10.00">okw.gui.adapter.selenium.</text>
<text text-anchor="middle" x="81" y="-107" font-family="Helvetica,sans-Serif" font-size="10.00">SeAnyChildWindow.VerifyTooltip</text>
</g>
<!-- Node690 -->
<g id="node2" class="node"><title>Node690</title>
<g id="a_node2"><a xlink:href="classokw_1_1gui_1_1_any_win_base.html#abaab572bdbed7b471f659d5dd8c76853" target="_top" xlink:title="Diese Methode ruft die Methode Logger.Instance.LogFunctionStartDebug(fps_FunctionName), und erweitert den gegebenen Methodenname in fps_FunctionName mit this.GetType().FullName um den Klassenbezeichner. ">
<polygon fill="white" stroke="black" points="384.5,-185 384.5,-215 551.5,-215 551.5,-185 384.5,-185"/>
<text text-anchor="start" x="392.5" y="-203" font-family="Helvetica,sans-Serif" font-size="10.00">okw.gui.AnyWinBase.LogFunction</text>
<text text-anchor="middle" x="468" y="-192" font-family="Helvetica,sans-Serif" font-size="10.00">StartDebug</text>
</a>
</g>
</g>
<!-- Node689&#45;&gt;Node690 -->
<g id="edge1" class="edge"><title>Node689&#45;&gt;Node690</title>
<path fill="none" stroke="midnightblue" d="M149.944,-130.001C216.711,-144.741 318.51,-167.217 388.653,-182.703"/>
<polygon fill="midnightblue" stroke="midnightblue" points="388.245,-186.197 398.765,-184.935 389.754,-179.361 388.245,-186.197"/>
</g>
<!-- Node691 -->
<g id="node3" class="node"><title>Node691</title>
<g id="a_node3"><a xlink:href="classokw_1_1gui_1_1adapter_1_1selenium_1_1_se_any_child_window.html#a1c887727f8411c769a24c90d8bde67a5" target="_top" xlink:title="Ermittelt den textuellen Inhalt des ToolTips. ">
<polygon fill="white" stroke="black" points="198.5,-100 198.5,-130 347.5,-130 347.5,-100 198.5,-100"/>
<text text-anchor="start" x="206.5" y="-118" font-family="Helvetica,sans-Serif" font-size="10.00">okw.gui.adapter.selenium.</text>
<text text-anchor="middle" x="273" y="-107" font-family="Helvetica,sans-Serif" font-size="10.00">SeAnyChildWindow.getTooltip</text>
</a>
</g>
</g>
<!-- Node689&#45;&gt;Node691 -->
<g id="edge2" class="edge"><title>Node689&#45;&gt;Node691</title>
<path fill="none" stroke="midnightblue" d="M161.751,-115C170.437,-115 179.298,-115 188.032,-115"/>
<polygon fill="midnightblue" stroke="midnightblue" points="188.21,-118.5 198.21,-115 188.21,-111.5 188.21,-118.5"/>
</g>
<!-- Node706 -->
<g id="node18" class="node"><title>Node706</title>
<g id="a_node18"><a xlink:href="classokw_1_1gui_1_1_any_win_base.html#a51cf50ace21902b3a5359316f53a7f3e" target="_top" xlink:title="Methode ruft die Methode Logger.Instance.LogFunctionEndDebug() auf. ">
<polygon fill="white" stroke="black" points="384.5,-38 384.5,-68 551.5,-68 551.5,-38 384.5,-38"/>
<text text-anchor="start" x="392.5" y="-56" font-family="Helvetica,sans-Serif" font-size="10.00">okw.gui.AnyWinBase.LogFunction</text>
<text text-anchor="middle" x="468" y="-45" font-family="Helvetica,sans-Serif" font-size="10.00">EndDebug</text>
</a>
</g>
</g>
<!-- Node689&#45;&gt;Node706 -->
<g id="edge21" class="edge"><title>Node689&#45;&gt;Node706</title>
<path fill="none" stroke="midnightblue" d="M147.471,-99.9857C163.919,-96.4633 181.566,-92.8968 198,-90 256.322,-79.7195 322.182,-70.6188 374.137,-64.0157"/>
<polygon fill="midnightblue" stroke="midnightblue" points="374.853,-67.4531 384.336,-62.7287 373.976,-60.5082 374.853,-67.4531"/>
</g>
<!-- Node691&#45;&gt;Node690 -->
<g id="edge3" class="edge"><title>Node691&#45;&gt;Node690</title>
<path fill="none" stroke="midnightblue" d="M298.179,-130.089C319.999,-143.239 353.292,-162.163 384,-175 389.515,-177.305 395.316,-179.497 401.183,-181.555"/>
<polygon fill="midnightblue" stroke="midnightblue" points="400.484,-185.013 411.078,-184.889 402.719,-178.379 400.484,-185.013"/>
</g>
<!-- Node692 -->
<g id="node4" class="node"><title>Node692</title>
<g id="a_node4"><a xlink:href="classokw_1_1gui_1_1adapter_1_1selenium_1_1_se_any_child_window.html#a72faf4aa1717b4178fae1b0570ca9b28" target="_top" xlink:title="Wartet auf das Objekt Wenn kein Fenster gefunden wird,. ">
<polygon fill="white" stroke="black" points="390.5,-136 390.5,-166 545.5,-166 545.5,-136 390.5,-136"/>
<text text-anchor="start" x="398.5" y="-154" font-family="Helvetica,sans-Serif" font-size="10.00">okw.gui.adapter.selenium.</text>
<text text-anchor="middle" x="468" y="-143" font-family="Helvetica,sans-Serif" font-size="10.00">SeAnyChildWindow.WaitForMe</text>
</a>
</g>
</g>
<!-- Node691&#45;&gt;Node692 -->
<g id="edge4" class="edge"><title>Node691&#45;&gt;Node692</title>
<path fill="none" stroke="midnightblue" d="M347.516,-128.713C358.281,-130.721 369.453,-132.805 380.449,-134.856"/>
<polygon fill="midnightblue" stroke="midnightblue" points="380.011,-138.334 390.483,-136.727 381.294,-131.453 380.011,-138.334"/>
</g>
<!-- Node701 -->
<g id="node13" class="node"><title>Node701</title>
<g id="a_node13"><a xlink:href="classokw_1_1gui_1_1adapter_1_1selenium_1_1_se_any_child_window.html#a9a138af1fc6ff850d708d66f308a2525" target="_top" xlink:title="Ermittelt aus dem gegebenen Locator das DOM&#45;Elelement, welches das Objekt representiert. ">
<polygon fill="white" stroke="black" points="402.5,-87 402.5,-117 533.5,-117 533.5,-87 402.5,-87"/>
<text text-anchor="start" x="410.5" y="-105" font-family="Helvetica,sans-Serif" font-size="10.00">okw.gui.adapter.selenium.</text>
<text text-anchor="middle" x="468" y="-94" font-family="Helvetica,sans-Serif" font-size="10.00">SeAnyChildWindow.Me</text>
</a>
</g>
</g>
<!-- Node691&#45;&gt;Node701 -->
<g id="edge13" class="edge"><title>Node691&#45;&gt;Node701</title>
<path fill="none" stroke="midnightblue" d="M347.516,-110.048C362.143,-109.063 377.519,-108.027 392.189,-107.039"/>
<polygon fill="midnightblue" stroke="midnightblue" points="392.473,-110.528 402.215,-106.364 392.002,-103.544 392.473,-110.528"/>
</g>
<!-- Node691&#45;&gt;Node706 -->
<g id="edge20" class="edge"><title>Node691&#45;&gt;Node706</title>
<path fill="none" stroke="midnightblue" d="M315.881,-99.9681C336.34,-92.7694 361.37,-84.1755 384,-77 390.34,-74.9896 396.975,-72.9555 403.611,-70.9664"/>
<polygon fill="midnightblue" stroke="midnightblue" points="404.709,-74.2915 413.301,-68.0921 402.718,-67.5805 404.709,-74.2915"/>
</g>
<!-- Node693 -->
<g id="node5" class="node"><title>Node693</title>
<g id="a_node5"><a xlink:href="classokw_1_1log_1_1_logger___sngltn.html#ab4fc711bb4c754f251372ff3b14ab9c9" target="_top" xlink:title="Creates a new hierarchical level in the results file. ">
<polygon fill="white" stroke="black" points="607.5,-263 607.5,-293 744.5,-293 744.5,-263 607.5,-263"/>
<text text-anchor="start" x="615.5" y="-281" font-family="Helvetica,sans-Serif" font-size="10.00">okw.log.Logger_Sngltn.Res</text>
<text text-anchor="middle" x="676" y="-270" font-family="Helvetica,sans-Serif" font-size="10.00">OpenList</text>
</a>
</g>
</g>
<!-- Node692&#45;&gt;Node693 -->
<g id="edge5" class="edge"><title>Node692&#45;&gt;Node693</title>
<path fill="none" stroke="midnightblue" d="M538.868,-166.126C543.574,-168.643 548.018,-171.578 552,-175 580.957,-199.886 559.023,-228.138 588,-253 591.22,-255.763 594.729,-258.221 598.43,-260.408"/>
<polygon fill="midnightblue" stroke="midnightblue" points="596.877,-263.546 607.367,-265.035 600.096,-257.329 596.877,-263.546"/>
</g>
<!-- Node694 -->
<g id="node6" class="node"><title>Node694</title>
<g id="a_node6"><a xlink:href="classokw_1_1log_1_1_logger___sngltn.html#a8ebceaddd6cc6963ddb8e08c72ea808c" target="_top" xlink:title="LogPrint Function: Prints the values of expressions to the results file. ">
<polygon fill="white" stroke="black" points="821,-134 821,-164 955,-164 955,-134 821,-134"/>
<text text-anchor="start" x="829" y="-152" font-family="Helvetica,sans-Serif" font-size="10.00">okw.log.Logger_Sngltn.Log</text>
<text text-anchor="middle" x="888" y="-141" font-family="Helvetica,sans-Serif" font-size="10.00">Print</text>
</a>
</g>
</g>
<!-- Node692&#45;&gt;Node694 -->
<g id="edge6" class="edge"><title>Node692&#45;&gt;Node694</title>
<path fill="none" stroke="midnightblue" d="M545.668,-150.633C620.964,-150.273 735.19,-149.726 810.447,-149.366"/>
<polygon fill="midnightblue" stroke="midnightblue" points="810.816,-152.865 820.799,-149.317 810.782,-145.865 810.816,-152.865"/>
</g>
<!-- Node695 -->
<g id="node7" class="node"><title>Node695</title>
<g id="a_node7"><a xlink:href="classokw_1_1gui_1_1_any_win_base.html#a9929f6fae1f4e2c20df79d32d5bc79db" target="_top" xlink:title="Holt den vollständig (rekursiv) aufgelösten (z.B. ">
<polygon fill="white" stroke="black" points="596.5,-98.5 596.5,-117.5 755.5,-117.5 755.5,-98.5 596.5,-98.5"/>
<text text-anchor="middle" x="676" y="-105.5" font-family="Helvetica,sans-Serif" font-size="10.00">okw.gui.AnyWinBase.getLocator</text>
</a>
</g>
</g>
<!-- Node692&#45;&gt;Node695 -->
<g id="edge7" class="edge"><title>Node692&#45;&gt;Node695</title>
<path fill="none" stroke="midnightblue" d="M541.049,-135.961C566.734,-130.599 595.249,-124.647 619.346,-119.617"/>
<polygon fill="midnightblue" stroke="midnightblue" points="620.308,-122.992 629.382,-117.522 618.878,-116.14 620.308,-122.992"/>
</g>
<!-- Node697 -->
<g id="node9" class="node"><title>Node697</title>
<g id="a_node9"><a xlink:href="classokw_1_1log_1_1_logger___sngltn.html#a9b54104f7e0b4c0a473877b19dfaed56" target="_top" xlink:title="Closes a hierarchical level in the results file that was opened with ResOpenList. ...">
<polygon fill="white" stroke="black" points="607.5,-175 607.5,-205 744.5,-205 744.5,-175 607.5,-175"/>
<text text-anchor="start" x="615.5" y="-193" font-family="Helvetica,sans-Serif" font-size="10.00">okw.log.Logger_Sngltn.Res</text>
<text text-anchor="middle" x="676" y="-182" font-family="Helvetica,sans-Serif" font-size="10.00">CloseList</text>
</a>
</g>
</g>
<!-- Node692&#45;&gt;Node697 -->
<g id="edge9" class="edge"><title>Node692&#45;&gt;Node697</title>
<path fill="none" stroke="midnightblue" d="M545.707,-165.522C562.632,-168.727 580.573,-172.123 597.529,-175.333"/>
<polygon fill="midnightblue" stroke="midnightblue" points="596.906,-178.777 607.383,-177.199 598.209,-171.9 596.906,-178.777"/>
</g>
<!-- Node698 -->
<g id="node10" class="node"><title>Node698</title>
<g id="a_node10"><a xlink:href="classokw_1_1_log_messenger.html#af225d1f037d47b3b085175c09d78bdd2" target="_top" xlink:title="Holt die Log&#45;Meldung für MethodeNmae/Textkey ohne weitere Parameter. ">
<polygon fill="white" stroke="black" points="596,-224.5 596,-243.5 756,-243.5 756,-224.5 596,-224.5"/>
<text text-anchor="middle" x="676" y="-231.5" font-family="Helvetica,sans-Serif" font-size="10.00">okw.LogMessenger.GetMessage</text>
</a>
</g>
</g>
<!-- Node692&#45;&gt;Node698 -->
<g id="edge10" class="edge"><title>Node692&#45;&gt;Node698</title>
<path fill="none" stroke="midnightblue" d="M534.366,-166.155C540.527,-168.681 546.513,-171.61 552,-175 572.068,-187.399 567.596,-202.163 588,-214 592.692,-216.722 597.727,-219.073 602.924,-221.105"/>
<polygon fill="midnightblue" stroke="midnightblue" points="601.819,-224.426 612.414,-224.427 604.132,-217.819 601.819,-224.426"/>
</g>
<!-- Node696 -->
<g id="node8" class="node"><title>Node696</title>
<g id="a_node8"><a xlink:href="classokw_1_1gui_1_1_o_k_w_locator.html#adc74fc2125dd048dc1cb84e011f47ec8" target="_top" xlink:title="Holt den vollständig (rekursiv) aufgelösten (z.B. ">
<polygon fill="white" stroke="black" points="809,-95.5 809,-114.5 967,-114.5 967,-95.5 809,-95.5"/>
<text text-anchor="middle" x="888" y="-102.5" font-family="Helvetica,sans-Serif" font-size="10.00">okw.gui.OKWLocator.getLocator</text>
</a>
</g>
</g>
<!-- Node695&#45;&gt;Node696 -->
<g id="edge8" class="edge"><title>Node695&#45;&gt;Node696</title>
<path fill="none" stroke="midnightblue" d="M755.794,-106.874C769.748,-106.675 784.362,-106.466 798.561,-106.263"/>
<polygon fill="midnightblue" stroke="midnightblue" points="798.863,-109.76 808.812,-106.117 798.763,-102.76 798.863,-109.76"/>
</g>
<!-- Node699 -->
<g id="node11" class="node"><title>Node699</title>
<g id="a_node11"><a xlink:href="classokw_1_1_log_messenger.html#a530cd6ab82ec82a04206a2e976ec06e3" target="_top" xlink:title="Interne Kernfunktion holt die Log&#45;Meldung mit Platzhaltern aus der XML&#45;Datei. ">
<polygon fill="white" stroke="black" points="804.5,-224.5 804.5,-243.5 971.5,-243.5 971.5,-224.5 804.5,-224.5"/>
<text text-anchor="middle" x="888" y="-231.5" font-family="Helvetica,sans-Serif" font-size="10.00">okw.LogMessenger.ReadMessage</text>
</a>
</g>
</g>
<!-- Node698&#45;&gt;Node699 -->
<g id="edge11" class="edge"><title>Node698&#45;&gt;Node699</title>
<path fill="none" stroke="midnightblue" d="M756.093,-234C768.57,-234 781.567,-234 794.319,-234"/>
<polygon fill="midnightblue" stroke="midnightblue" points="794.478,-237.5 804.478,-234 794.478,-230.5 794.478,-237.5"/>
</g>
<!-- Node700 -->
<g id="node12" class="node"><title>Node700</title>
<g id="a_node12"><a xlink:href="classokw_1_1_o_k_w___xml_reader.html#ab920b5335a2e1429c14cc5f8e79f39eb" target="_top" xlink:title="Lies den TextContent eines Tag. ">
<polygon fill="white" stroke="black" points="1012,-219 1012,-249 1164,-249 1164,-219 1012,-219"/>
<text text-anchor="start" x="1020" y="-237" font-family="Helvetica,sans-Serif" font-size="10.00">okw.OKW_XmlReader.getText</text>
<text text-anchor="middle" x="1088" y="-226" font-family="Helvetica,sans-Serif" font-size="10.00">ContentSingleValue</text>
</a>
</g>
</g>
<!-- Node699&#45;&gt;Node700 -->
<g id="edge12" class="edge"><title>Node699&#45;&gt;Node700</title>
<path fill="none" stroke="midnightblue" d="M971.536,-234C981.459,-234 991.609,-234 1001.57,-234"/>
<polygon fill="midnightblue" stroke="midnightblue" points="1001.87,-237.5 1011.87,-234 1001.87,-230.5 1001.87,-237.5"/>
</g>
<!-- Node701&#45;&gt;Node695 -->
<g id="edge19" class="edge"><title>Node701&#45;&gt;Node695</title>
<path fill="none" stroke="midnightblue" d="M533.614,-103.882C550.185,-104.365 568.303,-104.892 585.872,-105.404"/>
<polygon fill="midnightblue" stroke="midnightblue" points="586.04,-108.91 596.137,-105.703 586.243,-101.913 586.04,-108.91"/>
</g>
<!-- Node702 -->
<g id="node14" class="node"><title>Node702</title>
<g id="a_node14"><a xlink:href="classokw_1_1gui_1_1adapter_1_1selenium_1_1webdriver_1_1_se_driver.html#aee9e3f8a67f4ad1f8100a33ba71c926e" target="_top" xlink:title="Gibt die Instance für die einzige Instanz dieser Klasse zurück. ">
<polygon fill="white" stroke="black" points="588,-0 588,-30 764,-30 764,-0 588,-0"/>
<text text-anchor="start" x="596" y="-18" font-family="Helvetica,sans-Serif" font-size="10.00">okw.gui.adapter.selenium.webdriver.</text>
<text text-anchor="middle" x="676" y="-7" font-family="Helvetica,sans-Serif" font-size="10.00">SeDriver.getInstance</text>
</a>
</g>
</g>
<!-- Node701&#45;&gt;Node702 -->
<g id="edge14" class="edge"><title>Node701&#45;&gt;Node702</title>
<path fill="none" stroke="midnightblue" d="M531.729,-86.988C538.808,-84.1744 545.723,-80.87 552,-77 571.803,-64.7906 568.055,-50.9769 588,-39 590.821,-37.3061 593.764,-35.7286 596.791,-34.2598"/>
<polygon fill="midnightblue" stroke="midnightblue" points="598.34,-37.4023 606.084,-30.1718 595.521,-30.9949 598.34,-37.4023"/>
</g>
<!-- Node703 -->
<g id="node15" class="node"><title>Node703</title>
<g id="a_node15"><a xlink:href="classokw_1_1gui_1_1adapter_1_1selenium_1_1webdriver_1_1_se_driver.html#a6d879107786a94ebbdbd42b4ac6c6acf" target="_top" xlink:title="Ermittelt das Webelement mit der gegebenen frameID und dem gegebenen Locator. ">
<polygon fill="white" stroke="black" points="588,-49 588,-79 764,-79 764,-49 588,-49"/>
<text text-anchor="start" x="596" y="-67" font-family="Helvetica,sans-Serif" font-size="10.00">okw.gui.adapter.selenium.webdriver.</text>
<text text-anchor="middle" x="676" y="-56" font-family="Helvetica,sans-Serif" font-size="10.00">SeDriver.getElement</text>
</a>
</g>
</g>
<!-- Node701&#45;&gt;Node703 -->
<g id="edge15" class="edge"><title>Node701&#45;&gt;Node703</title>
<path fill="none" stroke="midnightblue" d="M533.614,-90.0808C549.495,-87.1514 566.796,-83.96 583.673,-80.8467"/>
<polygon fill="midnightblue" stroke="midnightblue" points="584.348,-84.2813 593.548,-79.0252 583.078,-77.3974 584.348,-84.2813"/>
</g>
<!-- Node703&#45;&gt;Node694 -->
<g id="edge18" class="edge"><title>Node703&#45;&gt;Node694</title>
<path fill="none" stroke="midnightblue" d="M742.592,-79.025C750.04,-81.8363 757.339,-85.1366 764,-89 783.304,-100.196 780.696,-112.804 800,-124 803.851,-126.234 807.915,-128.279 812.098,-130.15"/>
<polygon fill="midnightblue" stroke="midnightblue" points="810.828,-133.412 821.408,-133.975 813.488,-126.937 810.828,-133.412"/>
</g>
<!-- Node704 -->
<g id="node16" class="node"><title>Node704</title>
<g id="a_node16"><a xlink:href="classokw_1_1gui_1_1adapter_1_1selenium_1_1webdriver_1_1_se_driver.html#a47eec72c911c05beb2127672daafb325" target="_top" xlink:title="Wechselt das aktuelle Frame auf das Frame mit der id=iframeID. ">
<polygon fill="white" stroke="black" points="800,-46 800,-76 976,-76 976,-46 800,-46"/>
<text text-anchor="start" x="808" y="-64" font-family="Helvetica,sans-Serif" font-size="10.00">okw.gui.adapter.selenium.webdriver.</text>
<text text-anchor="middle" x="888" y="-53" font-family="Helvetica,sans-Serif" font-size="10.00">SeDriver.swichToFrame</text>
</a>
</g>
</g>
<!-- Node703&#45;&gt;Node704 -->
<g id="edge16" class="edge"><title>Node703&#45;&gt;Node704</title>
<path fill="none" stroke="midnightblue" d="M764.235,-62.7538C772.567,-62.6348 781.052,-62.5135 789.474,-62.3932"/>
<polygon fill="midnightblue" stroke="midnightblue" points="789.75,-65.8897 799.699,-62.2472 789.65,-58.8905 789.75,-65.8897"/>
</g>
<!-- Node705 -->
<g id="node17" class="node"><title>Node705</title>
<g id="a_node17"><a xlink:href="classokw_1_1_o_k_w___helper.html#a3a7ba0f42b29adf70574830688e72e4a" target="_top" xlink:title="Prüft ob der gegeben String fpsStrin null oder leer (&quot;&quot;) ist. ">
<polygon fill="white" stroke="black" points="1013.5,-46 1013.5,-76 1162.5,-76 1162.5,-46 1013.5,-46"/>
<text text-anchor="start" x="1021.5" y="-64" font-family="Helvetica,sans-Serif" font-size="10.00">okw.OKW_Helper.isStringNull</text>
<text text-anchor="middle" x="1088" y="-53" font-family="Helvetica,sans-Serif" font-size="10.00">OrEmpty</text>
</a>
</g>
</g>
<!-- Node704&#45;&gt;Node705 -->
<g id="edge17" class="edge"><title>Node704&#45;&gt;Node705</title>
<path fill="none" stroke="midnightblue" d="M976.134,-61C985.18,-61 994.36,-61 1003.37,-61"/>
<polygon fill="midnightblue" stroke="midnightblue" points="1003.44,-64.5001 1013.44,-61 1003.44,-57.5001 1003.44,-64.5001"/>
</g>
</g>
</svg>
        <g id="navigator" transform="translate(0 0)" fill="#404254">
                <rect fill="#f2f5e9" fill-opacity="0.5" stroke="#606060" stroke-width=".5" x="0" y="0" width="60" height="60"/>
                <use id="zoomplus" xlink:href="#zoomPlus" x="17" y="9" onmousedown="handleZoom(evt,'in')"/>
                <use id="zoomminus" xlink:href="#zoomMin" x="42" y="9" onmousedown="handleZoom(evt,'out')"/>
                <use id="reset" xlink:href="#resetDef" x="30" y="36" onmousedown="handleReset()"/>
                <g id="arrowUp" xlink:href="#dirArrow" transform="translate(30 24)" onmousedown="handlePan(0,-1)">
                  <use xlink:href="#rim" fill="#404040">
                        <set attributeName="fill" to="#808080" begin="arrowUp.mouseover" end="arrowUp.mouseout"/>
                  </use>
                  <path fill="none" stroke="white" stroke-width="1.5" d="M0,-3.0v7 M-2.5,-0.5L0,-3.0L2.5,-0.5"/>
                </g>
                <g id="arrowRight" xlink:href="#dirArrow" transform="rotate(90) translate(36 -43)" onmousedown="handlePan(1,0)">
                  <use xlink:href="#rim" fill="#404040">
                        <set attributeName="fill" to="#808080" begin="arrowRight.mouseover" end="arrowRight.mouseout"/>
                  </use>
                  <path fill="none" stroke="white" stroke-width="1.5" d="M0,-3.0v7 M-2.5,-0.5L0,-3.0L2.5,-0.5"/>
                </g>
                <g id="arrowDown" xlink:href="#dirArrow" transform="rotate(180) translate(-30 -48)" onmousedown="handlePan(0,1)">
                  <use xlink:href="#rim" fill="#404040">
                        <set attributeName="fill" to="#808080" begin="arrowDown.mouseover" end="arrowDown.mouseout"/>
                  </use>
                  <path fill="none" stroke="white" stroke-width="1.5" d="M0,-3.0v7 M-2.5,-0.5L0,-3.0L2.5,-0.5"/>
                </g>
                <g id="arrowLeft" xlink:href="#dirArrow" transform="rotate(270) translate(-36 17)" onmousedown="handlePan(-1,0)">
                  <use xlink:href="#rim" fill="#404040">
                        <set attributeName="fill" to="#808080" begin="arrowLeft.mouseover" end="arrowLeft.mouseout"/>
                  </use>
                  <path fill="none" stroke="white" stroke-width="1.5" d="M0,-3.0v7 M-2.5,-0.5L0,-3.0L2.5,-0.5"/>
                </g>
        </g>
        <svg viewBox="0 0 15 15" width="100%" height="30px" preserveAspectRatio="xMaxYMin meet">
         <g id="arrow_out" transform="scale(0.3 0.3)">
          <a xlink:href="classokw_1_1gui_1_1adapter_1_1selenium_1_1_se_any_child_window_ae60fbaf8981798fcfcee6e8f2e5eec15_cgraph_org.svg" target="_base">
           <rect id="button" ry="5" rx="5" y="6" x="6" height="38" width="38"
                fill="#f2f5e9" fill-opacity="0.5" stroke="#606060" stroke-width="1.0"/>
           <path id="arrow"
             d="M 11.500037,31.436501 C 11.940474,20.09759 22.043105,11.32322 32.158766,21.979434 L 37.068811,17.246167 C 37.068811,17.246167 37.088388,32 37.088388,32 L 22.160133,31.978069 C 22.160133,31.978069 26.997745,27.140456 26.997745,27.140456 C 18.528582,18.264221 13.291696,25.230495 11.500037,31.436501 z"
             style="fill:#404040;"/>
          </a>
         </g>
        </svg>
</svg>
