<?xml version="1.0" encoding="UTF-8" standalone="no"?>
<!DOCTYPE svg PUBLIC "-//W3C//DTD SVG 1.1//EN"
 "http://www.w3.org/Graphics/SVG/1.1/DTD/svg11.dtd">
<!-- Generated by graphviz version 2.36.0 (20140111.2315)
 -->
<!-- Title: okw.core.OK.handleException Pages: 1 -->
<svg width="932pt" height="208pt"
 viewBox="0.00 0.00 932.00 208.15" xmlns="http://www.w3.org/2000/svg" xmlns:xlink="http://www.w3.org/1999/xlink">
<g id="graph0" class="graph" transform="scale(1 1) rotate(0) translate(4 204.151)">
<title>okw.core.OK.handleException</title>
<polygon fill="white" stroke="none" points="-4,4 -4,-204.151 928,-204.151 928,4 -4,4"/>
<!-- Node83 -->
<g id="node1" class="node"><title>Node83</title>
<polygon fill="#bfbfbf" stroke="black" points="0.5,-103.5 0.5,-122.5 149.5,-122.5 149.5,-103.5 0.5,-103.5"/>
<text text-anchor="middle" x="75" y="-110.5" font-family="Helvetica,sans-Serif" font-size="10.00">okw.core.OK.handleException</text>
</g>
<!-- Node84 -->
<g id="node2" class="node"><title>Node84</title>
<g id="a_node2"><a xlink:href="classokw_1_1log_1_1_logger___sngltn.html#a8ebceaddd6cc6963ddb8e08c72ea808c" target="_top" xlink:title="LogPrint Function: Prints the values of expressions to the results file. ">
<polygon fill="white" stroke="black" points="385,-166 385,-196 519,-196 519,-166 385,-166"/>
<text text-anchor="start" x="393" y="-184" font-family="Helvetica,sans-Serif" font-size="10.00">okw.log.Logger_Sngltn.Log</text>
<text text-anchor="middle" x="452" y="-173" font-family="Helvetica,sans-Serif" font-size="10.00">Print</text>
</a>
</g>
</g>
<!-- Node83&#45;&gt;Node84 -->
<g id="edge1" class="edge"><title>Node83&#45;&gt;Node84</title>
<path fill="none" stroke="midnightblue" d="M85.8507,-122.547C103.91,-139.304 144.307,-173.424 186,-186 247.564,-204.569 320.88,-201.376 374.773,-194.646"/>
<polygon fill="midnightblue" stroke="midnightblue" points="375.485,-198.082 384.942,-193.305 374.571,-191.142 375.485,-198.082"/>
</g>
<!-- Node85 -->
<g id="node3" class="node"><title>Node85</title>
<g id="a_node3"><a xlink:href="classokw_1_1log_1_1_logger___sngltn.html#aa29d396a2b9df1ac57079d777c548181" target="_top" xlink:title="LogException Function: Logs a Script Exception to the results file. ">
<polygon fill="white" stroke="black" points="194,-147 194,-177 328,-177 328,-147 194,-147"/>
<text text-anchor="start" x="202" y="-165" font-family="Helvetica,sans-Serif" font-size="10.00">okw.log.Logger_Sngltn.Log</text>
<text text-anchor="middle" x="261" y="-154" font-family="Helvetica,sans-Serif" font-size="10.00">Exception</text>
</a>
</g>
</g>
<!-- Node83&#45;&gt;Node85 -->
<g id="edge2" class="edge"><title>Node83&#45;&gt;Node85</title>
<path fill="none" stroke="midnightblue" d="M111.914,-122.564C135.107,-128.74 165.991,-136.965 193.551,-144.304"/>
<polygon fill="midnightblue" stroke="midnightblue" points="192.971,-147.772 203.535,-146.963 194.772,-141.007 192.971,-147.772"/>
</g>
<!-- Node86 -->
<g id="node4" class="node"><title>Node86</title>
<g id="a_node4"><a xlink:href="classokw_1_1log_1_1_logger___sngltn.html#a313f97c79ba4662d9daaf7f537dd02f4" target="_top" xlink:title="Loggt eine Nachricht. ">
<polygon fill="white" stroke="black" points="194,-98 194,-128 328,-128 328,-98 194,-98"/>
<text text-anchor="start" x="202" y="-116" font-family="Helvetica,sans-Serif" font-size="10.00">okw.log.Logger_Sngltn.Log</text>
<text text-anchor="middle" x="261" y="-105" font-family="Helvetica,sans-Serif" font-size="10.00">PrintDebug</text>
</a>
</g>
</g>
<!-- Node83&#45;&gt;Node86 -->
<g id="edge3" class="edge"><title>Node83&#45;&gt;Node86</title>
<path fill="none" stroke="midnightblue" d="M149.515,-113C160.704,-113 172.274,-113 183.525,-113"/>
<polygon fill="midnightblue" stroke="midnightblue" points="183.748,-116.5 193.747,-113 183.747,-109.5 183.748,-116.5"/>
</g>
<!-- Node87 -->
<g id="node5" class="node"><title>Node87</title>
<g id="a_node5"><a xlink:href="classokw_1_1core_1_1_o_k_w___current_object___sngltn.html#a01b48f2c86a2f91909143ee9063dfd86" target="_top" xlink:title="Methode gibt alle wichtigen Informationen zum aktuellen Objekt aus. ">
<polygon fill="white" stroke="black" points="186.5,-49 186.5,-79 335.5,-79 335.5,-49 186.5,-49"/>
<text text-anchor="start" x="194.5" y="-67" font-family="Helvetica,sans-Serif" font-size="10.00">okw.core.OKW_CurrentObject</text>
<text text-anchor="middle" x="261" y="-56" font-family="Helvetica,sans-Serif" font-size="10.00">_Sngltn.LogObjectData</text>
</a>
</g>
</g>
<!-- Node83&#45;&gt;Node87 -->
<g id="edge4" class="edge"><title>Node83&#45;&gt;Node87</title>
<path fill="none" stroke="midnightblue" d="M111.914,-103.436C135.107,-97.2595 165.991,-89.0351 193.551,-81.6955"/>
<polygon fill="midnightblue" stroke="midnightblue" points="194.772,-84.9925 203.535,-79.037 192.971,-78.2283 194.772,-84.9925"/>
</g>
<!-- Node93 -->
<g id="node11" class="node"><title>Node93</title>
<g id="a_node11"><a xlink:href="classokw_1_1core_1_1_core.html#aafe6e3d88e810dabf350b37058d4af97" target="_top" xlink:title="Setter zum Setzen des aktuellen Zustandes. ">
<polygon fill="white" stroke="black" points="195.5,-0 195.5,-30 326.5,-30 326.5,-0 195.5,-0"/>
<text text-anchor="start" x="203.5" y="-18" font-family="Helvetica,sans-Serif" font-size="10.00">okw.core.Core.SetCurrent</text>
<text text-anchor="middle" x="261" y="-7" font-family="Helvetica,sans-Serif" font-size="10.00">State</text>
</a>
</g>
</g>
<!-- Node83&#45;&gt;Node93 -->
<g id="edge11" class="edge"><title>Node83&#45;&gt;Node93</title>
<path fill="none" stroke="midnightblue" d="M87.855,-103.381C107.317,-87.9802 147.713,-57.6322 186,-39 189.757,-37.1716 193.687,-35.4346 197.693,-33.7937"/>
<polygon fill="midnightblue" stroke="midnightblue" points="199.069,-37.0141 207.132,-30.1412 196.543,-30.4857 199.069,-37.0141"/>
</g>
<!-- Node87&#45;&gt;Node84 -->
<g id="edge6" class="edge"><title>Node87&#45;&gt;Node84</title>
<path fill="none" stroke="midnightblue" d="M319.717,-79.0488C325.441,-81.6069 330.982,-84.5716 336,-88 356.863,-102.253 353.006,-115.337 372,-132 384.341,-142.826 399.347,-152.785 412.952,-160.857"/>
<polygon fill="midnightblue" stroke="midnightblue" points="411.238,-163.909 421.648,-165.879 414.739,-157.847 411.238,-163.909"/>
</g>
<!-- Node88 -->
<g id="node6" class="node"><title>Node88</title>
<g id="a_node6"><a xlink:href="classokw_1_1log_1_1_logger___sngltn.html#ab4fc711bb4c754f251372ff3b14ab9c9" target="_top" xlink:title="Creates a new hierarchical level in the results file. ">
<polygon fill="white" stroke="black" points="383.5,-93 383.5,-123 520.5,-123 520.5,-93 383.5,-93"/>
<text text-anchor="start" x="391.5" y="-111" font-family="Helvetica,sans-Serif" font-size="10.00">okw.log.Logger_Sngltn.Res</text>
<text text-anchor="middle" x="452" y="-100" font-family="Helvetica,sans-Serif" font-size="10.00">OpenList</text>
</a>
</g>
</g>
<!-- Node87&#45;&gt;Node88 -->
<g id="edge5" class="edge"><title>Node87&#45;&gt;Node88</title>
<path fill="none" stroke="midnightblue" d="M326.514,-79.0192C342.543,-82.7508 359.856,-86.7814 376.328,-90.616"/>
<polygon fill="midnightblue" stroke="midnightblue" points="375.922,-94.1152 386.456,-92.9738 377.51,-87.2975 375.922,-94.1152"/>
</g>
<!-- Node89 -->
<g id="node7" class="node"><title>Node89</title>
<g id="a_node7"><a xlink:href="classokw_1_1_log_messenger.html#af225d1f037d47b3b085175c09d78bdd2" target="_top" xlink:title="Holt die Log&#45;Meldung für MethodeNmae/Textkey ohne weitere Parameter. ">
<polygon fill="white" stroke="black" points="372,-54.5 372,-73.5 532,-73.5 532,-54.5 372,-54.5"/>
<text text-anchor="middle" x="452" y="-61.5" font-family="Helvetica,sans-Serif" font-size="10.00">okw.LogMessenger.GetMessage</text>
</a>
</g>
</g>
<!-- Node87&#45;&gt;Node89 -->
<g id="edge7" class="edge"><title>Node87&#45;&gt;Node89</title>
<path fill="none" stroke="midnightblue" d="M335.614,-64C344.181,-64 352.989,-64 361.737,-64"/>
<polygon fill="midnightblue" stroke="midnightblue" points="361.961,-67.5001 371.961,-64 361.961,-60.5001 361.961,-67.5001"/>
</g>
<!-- Node92 -->
<g id="node10" class="node"><title>Node92</title>
<g id="a_node10"><a xlink:href="classokw_1_1log_1_1_logger___sngltn.html#a9b54104f7e0b4c0a473877b19dfaed56" target="_top" xlink:title="Closes a hierarchical level in the results file that was opened with ResOpenList. ...">
<polygon fill="white" stroke="black" points="383.5,-5 383.5,-35 520.5,-35 520.5,-5 383.5,-5"/>
<text text-anchor="start" x="391.5" y="-23" font-family="Helvetica,sans-Serif" font-size="10.00">okw.log.Logger_Sngltn.Res</text>
<text text-anchor="middle" x="452" y="-12" font-family="Helvetica,sans-Serif" font-size="10.00">CloseList</text>
</a>
</g>
</g>
<!-- Node87&#45;&gt;Node92 -->
<g id="edge10" class="edge"><title>Node87&#45;&gt;Node92</title>
<path fill="none" stroke="midnightblue" d="M326.514,-48.9808C342.543,-45.2492 359.856,-41.2186 376.328,-37.384"/>
<polygon fill="midnightblue" stroke="midnightblue" points="377.51,-40.7025 386.456,-35.0262 375.922,-33.8848 377.51,-40.7025"/>
</g>
<!-- Node90 -->
<g id="node8" class="node"><title>Node90</title>
<g id="a_node8"><a xlink:href="classokw_1_1_log_messenger.html#a530cd6ab82ec82a04206a2e976ec06e3" target="_top" xlink:title="Interne Kernfunktion holt die Log&#45;Meldung mit Platzhaltern aus der XML&#45;Datei. ">
<polygon fill="white" stroke="black" points="568.5,-54.5 568.5,-73.5 735.5,-73.5 735.5,-54.5 568.5,-54.5"/>
<text text-anchor="middle" x="652" y="-61.5" font-family="Helvetica,sans-Serif" font-size="10.00">okw.LogMessenger.ReadMessage</text>
</a>
</g>
</g>
<!-- Node89&#45;&gt;Node90 -->
<g id="edge8" class="edge"><title>Node89&#45;&gt;Node90</title>
<path fill="none" stroke="midnightblue" d="M532.108,-64C540.702,-64 549.505,-64 558.242,-64"/>
<polygon fill="midnightblue" stroke="midnightblue" points="558.452,-67.5001 568.452,-64 558.452,-60.5001 558.452,-67.5001"/>
</g>
<!-- Node91 -->
<g id="node9" class="node"><title>Node91</title>
<g id="a_node9"><a xlink:href="classokw_1_1_o_k_w___xml_reader.html#ab920b5335a2e1429c14cc5f8e79f39eb" target="_top" xlink:title="Lies den TextContent eines Tag. ">
<polygon fill="white" stroke="black" points="772,-49 772,-79 924,-79 924,-49 772,-49"/>
<text text-anchor="start" x="780" y="-67" font-family="Helvetica,sans-Serif" font-size="10.00">okw.OKW_XmlReader.getText</text>
<text text-anchor="middle" x="848" y="-56" font-family="Helvetica,sans-Serif" font-size="10.00">ContentSingleValue</text>
</a>
</g>
</g>
<!-- Node90&#45;&gt;Node91 -->
<g id="edge9" class="edge"><title>Node90&#45;&gt;Node91</title>
<path fill="none" stroke="midnightblue" d="M735.555,-64C744.227,-64 753.057,-64 761.759,-64"/>
<polygon fill="midnightblue" stroke="midnightblue" points="761.899,-67.5001 771.899,-64 761.899,-60.5001 761.899,-67.5001"/>
</g>
</g>
</svg>
