<?xml version="1.0" encoding="UTF-8" standalone="no"?>
<!DOCTYPE svg PUBLIC "-//W3C//DTD SVG 1.1//EN"
 "http://www.w3.org/Graphics/SVG/1.1/DTD/svg11.dtd">
<!-- Generated by graphviz version 2.38.0 (20140413.2041)
 -->
<!-- Title: okw.core.OK.LogHasFocus Pages: 1 -->
<svg width="1366pt" height="640pt"
 viewBox="0.00 0.00 1366.00 640.00" xmlns="http://www.w3.org/2000/svg" xmlns:xlink="http://www.w3.org/1999/xlink">
<g id="graph0" class="graph" transform="scale(1 1) rotate(0) translate(4 636)">
<title>okw.core.OK.LogHasFocus</title>
<polygon fill="white" stroke="none" points="-4,4 -4,-636 1362,-636 1362,4 -4,4"/>
<!-- Node200 -->
<g id="node1" class="node"><title>Node200</title>
<g id="a_node1"><a xlink:title="Dokumentiert den Fokus&#45;Status des gegebenen Objekts.">
<polygon fill="#bfbfbf" stroke="black" points="0,-284 0,-303 141,-303 141,-284 0,-284"/>
<text text-anchor="middle" x="70.5" y="-291" font-family="Helvetica,sans-Serif" font-size="10.00">okw.core.OK.LogHasFocus</text>
</a>
</g>
</g>
<!-- Node201 -->
<g id="node2" class="node"><title>Node201</title>
<g id="a_node2"><a xlink:href="classokw_1_1core_1_1_o_k_w___current_object___sngltn.html#a461fa1ff29f4bc4a9798707ea7b71849" target="_top" xlink:title="Setzt das Kindobjekt.">
<polygon fill="white" stroke="black" points="187.5,-442.5 187.5,-472.5 342.5,-472.5 342.5,-442.5 187.5,-442.5"/>
<text text-anchor="start" x="195.5" y="-460.5" font-family="Helvetica,sans-Serif" font-size="10.00">okw.core.OKW_CurrentObject</text>
<text text-anchor="middle" x="265" y="-449.5" font-family="Helvetica,sans-Serif" font-size="10.00">_Sngltn.setChildName</text>
</a>
</g>
</g>
<!-- Node200&#45;&gt;Node201 -->
<g id="edge1" class="edge"><title>Node200&#45;&gt;Node201</title>
<path fill="none" stroke="midnightblue" d="M82.6817,-303.026C112.835,-328.716 196.399,-399.907 238.729,-435.971"/>
<polygon fill="midnightblue" stroke="midnightblue" points="236.493,-438.663 246.374,-442.484 241.032,-433.335 236.493,-438.663"/>
</g>
<!-- Node203 -->
<g id="node4" class="node"><title>Node203</title>
<g id="a_node4"><a xlink:href="classokw_1_1_log_messenger.html#af225d1f037d47b3b085175c09d78bdd2" target="_top" xlink:title="Holt die Log&#45;Meldung für MethodeNmae/Textkey ohne weitere Parameter.">
<polygon fill="white" stroke="black" points="790,-448 790,-467 959,-467 959,-448 790,-448"/>
<text text-anchor="middle" x="874.5" y="-455" font-family="Helvetica,sans-Serif" font-size="10.00">okw.LogMessenger.GetMessage</text>
</a>
</g>
</g>
<!-- Node200&#45;&gt;Node203 -->
<g id="edge21" class="edge"><title>Node200&#45;&gt;Node203</title>
<path fill="none" stroke="midnightblue" d="M81.9472,-283.76C100.202,-267.078 139.538,-232.608 177,-209.5 265.346,-155.004 288.504,-137.491 389,-111.5 471.405,-90.1873 494.94,-100.613 580,-97.5 657.282,-94.6715 691.292,-52.2432 754,-97.5 867.862,-179.675 874.952,-374.713 874.142,-437.592"/>
<polygon fill="midnightblue" stroke="midnightblue" points="870.64,-437.665 873.923,-447.738 877.639,-437.816 870.64,-437.665"/>
</g>
<!-- Node207 -->
<g id="node8" class="node"><title>Node207</title>
<g id="a_node8"><a xlink:href="classokw_1_1log_1_1_logger___sngltn.html#a8ebceaddd6cc6963ddb8e08c72ea808c" target="_top" xlink:title="LogPrint Function: Prints the values of expressions to the results file.">
<polygon fill="white" stroke="black" points="595.5,-333.5 595.5,-363.5 738.5,-363.5 738.5,-333.5 595.5,-333.5"/>
<text text-anchor="start" x="603.5" y="-351.5" font-family="Helvetica,sans-Serif" font-size="10.00">okw.log.Logger_Sngltn.Log</text>
<text text-anchor="middle" x="667" y="-340.5" font-family="Helvetica,sans-Serif" font-size="10.00">Print</text>
</a>
</g>
</g>
<!-- Node200&#45;&gt;Node207 -->
<g id="edge22" class="edge"><title>Node200&#45;&gt;Node207</title>
<path fill="none" stroke="midnightblue" d="M136.115,-303.011C200.167,-312.115 301.158,-325.598 389,-333.5 454.928,-339.43 529.911,-343.317 585.221,-345.644"/>
<polygon fill="midnightblue" stroke="midnightblue" points="585.177,-349.145 595.313,-346.061 585.465,-342.151 585.177,-349.145"/>
</g>
<!-- Node211 -->
<g id="node12" class="node"><title>Node211</title>
<g id="a_node12"><a xlink:href="classokw_1_1_o_k_w___const___sngltn.html#afdb8f095b58cbd870dbb8eb353e3b0bf" target="_top" xlink:title="Holt die einzige Instanz dieser Klasse.">
<polygon fill="white" stroke="black" points="192,-0.5 192,-30.5 338,-30.5 338,-0.5 192,-0.5"/>
<text text-anchor="start" x="200" y="-18.5" font-family="Helvetica,sans-Serif" font-size="10.00">okw.OKW_Const_Sngltn.get</text>
<text text-anchor="middle" x="265" y="-7.5" font-family="Helvetica,sans-Serif" font-size="10.00">Instance</text>
</a>
</g>
</g>
<!-- Node200&#45;&gt;Node211 -->
<g id="edge15" class="edge"><title>Node200&#45;&gt;Node211</title>
<path fill="none" stroke="midnightblue" d="M72.7773,-283.835C78.1262,-247.19 102.047,-115.371 177,-45.5 181.09,-41.687 185.688,-38.3559 190.579,-35.4461"/>
<polygon fill="midnightblue" stroke="midnightblue" points="192.446,-38.4181 199.651,-30.6505 189.175,-32.2295 192.446,-38.4181"/>
</g>
<!-- Node213 -->
<g id="node14" class="node"><title>Node213</title>
<g id="a_node14"><a xlink:href="classokw_1_1_o_k_w___const___sngltn.html#afc1c3325b8bede60aa50b1d5ebfdddf1" target="_top" xlink:title="Konvertiert WAHR/FALSCH (true/false) sprachabhängig nach &quot;Ja&quot;/&quot;Nein&quot; (Yes/No)">
<polygon fill="white" stroke="black" points="177,-557.5 177,-587.5 353,-587.5 353,-557.5 177,-557.5"/>
<text text-anchor="start" x="185" y="-575.5" font-family="Helvetica,sans-Serif" font-size="10.00">okw.OKW_Const_Sngltn.Boolean2</text>
<text text-anchor="middle" x="265" y="-564.5" font-family="Helvetica,sans-Serif" font-size="10.00">YesNo</text>
</a>
</g>
</g>
<!-- Node200&#45;&gt;Node213 -->
<g id="edge17" class="edge"><title>Node200&#45;&gt;Node213</title>
<path fill="none" stroke="midnightblue" d="M75.7513,-303.066C88.7101,-331.726 129.725,-418.844 177,-482.5 195.707,-507.689 220.984,-533.092 239.472,-550.455"/>
<polygon fill="midnightblue" stroke="midnightblue" points="237.228,-553.148 246.94,-557.381 241.987,-548.015 237.228,-553.148"/>
</g>
<!-- Node215 -->
<g id="node16" class="node"><title>Node215</title>
<g id="a_node16"><a xlink:href="classokw_1_1core_1_1_o_k.html#a5a6db6a457bcb71c893f5d4eb615b2b7" target="_top" xlink:title="Zentrale Exception&#45;Behandlung.">
<polygon fill="white" stroke="black" points="187,-219 187,-238 343,-238 343,-219 187,-219"/>
<text text-anchor="middle" x="265" y="-226" font-family="Helvetica,sans-Serif" font-size="10.00">okw.core.OK.handleException</text>
</a>
</g>
</g>
<!-- Node200&#45;&gt;Node215 -->
<g id="edge23" class="edge"><title>Node200&#45;&gt;Node215</title>
<path fill="none" stroke="midnightblue" d="M99.904,-283.909C133.267,-272.644 188.759,-253.906 225.852,-241.381"/>
<polygon fill="midnightblue" stroke="midnightblue" points="227.438,-244.54 235.793,-238.024 225.199,-237.908 227.438,-244.54"/>
</g>
<!-- Node202 -->
<g id="node3" class="node"><title>Node202</title>
<g id="a_node3"><a xlink:href="classokw_1_1log_1_1_logger___sngltn.html#a313f97c79ba4662d9daaf7f537dd02f4" target="_top" xlink:title="Loggt eine Nachricht.">
<polygon fill="white" stroke="black" points="803,-524.5 803,-554.5 946,-554.5 946,-524.5 803,-524.5"/>
<text text-anchor="start" x="811" y="-542.5" font-family="Helvetica,sans-Serif" font-size="10.00">okw.log.Logger_Sngltn.Log</text>
<text text-anchor="middle" x="874.5" y="-531.5" font-family="Helvetica,sans-Serif" font-size="10.00">PrintDebug</text>
</a>
</g>
</g>
<!-- Node201&#45;&gt;Node202 -->
<g id="edge2" class="edge"><title>Node201&#45;&gt;Node202</title>
<path fill="none" stroke="midnightblue" d="M278.866,-472.532C299.413,-495.246 342.125,-537.373 389,-553.5 529.447,-601.821 706.541,-576.855 802.985,-556.69"/>
<polygon fill="midnightblue" stroke="midnightblue" points="803.867,-560.081 812.916,-554.571 802.406,-553.235 803.867,-560.081"/>
</g>
<!-- Node201&#45;&gt;Node203 -->
<g id="edge3" class="edge"><title>Node201&#45;&gt;Node203</title>
<path fill="none" stroke="midnightblue" d="M342.765,-456.059C358.08,-455.826 374.051,-455.622 389,-455.5 551.217,-454.181 591.783,-454.143 754,-455.5 762.351,-455.57 771.031,-455.667 779.728,-455.782"/>
<polygon fill="midnightblue" stroke="midnightblue" points="779.881,-459.284 789.929,-455.923 779.978,-452.285 779.881,-459.284"/>
</g>
<!-- Node206 -->
<g id="node7" class="node"><title>Node206</title>
<g id="a_node7"><a xlink:href="classokw_1_1_o_k_w___helper.html#a3a7ba0f42b29adf70574830688e72e4a" target="_top" xlink:title="Prüft ob der gegeben String fpsStrin null oder leer (&quot;&quot;) ist.">
<polygon fill="white" stroke="black" points="390.5,-464.5 390.5,-494.5 542.5,-494.5 542.5,-464.5 390.5,-464.5"/>
<text text-anchor="start" x="398.5" y="-482.5" font-family="Helvetica,sans-Serif" font-size="10.00">okw.OKW_Helper.isStringNull</text>
<text text-anchor="middle" x="466.5" y="-471.5" font-family="Helvetica,sans-Serif" font-size="10.00">OrEmpty</text>
</a>
</g>
</g>
<!-- Node201&#45;&gt;Node206 -->
<g id="edge6" class="edge"><title>Node201&#45;&gt;Node206</title>
<path fill="none" stroke="midnightblue" d="M342.561,-465.943C354.96,-467.31 367.865,-468.733 380.45,-470.121"/>
<polygon fill="midnightblue" stroke="midnightblue" points="380.136,-473.608 390.46,-471.225 380.903,-466.65 380.136,-473.608"/>
</g>
<!-- Node201&#45;&gt;Node207 -->
<g id="edge7" class="edge"><title>Node201&#45;&gt;Node207</title>
<path fill="none" stroke="midnightblue" d="M316.181,-442.479C338.447,-435.901 364.991,-428.176 389,-421.5 459.739,-401.831 541.013,-380.569 597.145,-366.094"/>
<polygon fill="midnightblue" stroke="midnightblue" points="598.165,-369.445 606.976,-363.562 596.419,-362.667 598.165,-369.445"/>
</g>
<!-- Node208 -->
<g id="node9" class="node"><title>Node208</title>
<g id="a_node9"><a xlink:href="classokw_1_1core_1_1_o_k_w___current_object___sngltn.html#a51204f2563ba8defb737da6653705819" target="_top" xlink:title="Methode aktualisert zwei Werte:">
<polygon fill="white" stroke="black" points="389,-513.5 389,-543.5 544,-543.5 544,-513.5 389,-513.5"/>
<text text-anchor="start" x="397" y="-531.5" font-family="Helvetica,sans-Serif" font-size="10.00">okw.core.OKW_CurrentObject</text>
<text text-anchor="middle" x="466.5" y="-520.5" font-family="Helvetica,sans-Serif" font-size="10.00">_Sngltn.updateObject</text>
</a>
</g>
</g>
<!-- Node201&#45;&gt;Node208 -->
<g id="edge8" class="edge"><title>Node201&#45;&gt;Node208</title>
<path fill="none" stroke="midnightblue" d="M303.737,-472.604C327.963,-482.13 360.173,-494.481 389,-504.5 394.559,-506.432 400.369,-508.381 406.194,-510.288"/>
<polygon fill="midnightblue" stroke="midnightblue" points="405.381,-513.703 415.973,-513.447 407.533,-507.042 405.381,-513.703"/>
</g>
<!-- Node204 -->
<g id="node5" class="node"><title>Node204</title>
<g id="a_node5"><a xlink:href="classokw_1_1_log_messenger.html#a530cd6ab82ec82a04206a2e976ec06e3" target="_top" xlink:title="Interne Kernfunktion holt die Log&#45;Meldung mit Platzhaltern aus der XML&#45;Datei.">
<polygon fill="white" stroke="black" points="995,-492 995,-511 1170,-511 1170,-492 995,-492"/>
<text text-anchor="middle" x="1082.5" y="-499" font-family="Helvetica,sans-Serif" font-size="10.00">okw.LogMessenger.ReadMessage</text>
</a>
</g>
</g>
<!-- Node203&#45;&gt;Node204 -->
<g id="edge4" class="edge"><title>Node203&#45;&gt;Node204</title>
<path fill="none" stroke="midnightblue" d="M920.199,-467.047C951.513,-473.736 993.546,-482.714 1026.85,-489.828"/>
<polygon fill="midnightblue" stroke="midnightblue" points="1026.38,-493.305 1036.89,-491.971 1027.84,-486.46 1026.38,-493.305"/>
</g>
<!-- Node205 -->
<g id="node6" class="node"><title>Node205</title>
<g id="a_node6"><a xlink:href="classokw_1_1_o_k_w___xml_reader.html#ab920b5335a2e1429c14cc5f8e79f39eb" target="_top" xlink:title="Lies den TextContent eines Tag.">
<polygon fill="white" stroke="black" points="1206,-538.5 1206,-568.5 1358,-568.5 1358,-538.5 1206,-538.5"/>
<text text-anchor="start" x="1214" y="-556.5" font-family="Helvetica,sans-Serif" font-size="10.00">okw.OKW_XmlReader.getText</text>
<text text-anchor="middle" x="1282" y="-545.5" font-family="Helvetica,sans-Serif" font-size="10.00">ContentSingleValue</text>
</a>
</g>
</g>
<!-- Node204&#45;&gt;Node205 -->
<g id="edge5" class="edge"><title>Node204&#45;&gt;Node205</title>
<path fill="none" stroke="midnightblue" d="M1119.72,-511.038C1145.95,-517.943 1182.17,-527.48 1213.65,-535.767"/>
<polygon fill="midnightblue" stroke="midnightblue" points="1213.12,-539.247 1223.68,-538.408 1214.9,-532.477 1213.12,-539.247"/>
</g>
<!-- Node209 -->
<g id="node10" class="node"><title>Node209</title>
<g id="a_node10"><a xlink:href="classokw_1_1_frame_object_dictionary___sngltn.html#aeec07d71cbebe71ec3ec4d27e86d6c5c" target="_top" xlink:title="Die Methode liefert das Frame&#45;Object des gegebenen FN eines Fensterobjektes zurück.">
<polygon fill="white" stroke="black" points="580,-513.5 580,-543.5 754,-543.5 754,-513.5 580,-513.5"/>
<text text-anchor="start" x="588" y="-531.5" font-family="Helvetica,sans-Serif" font-size="10.00">okw.FrameObjectDictionary</text>
<text text-anchor="middle" x="667" y="-520.5" font-family="Helvetica,sans-Serif" font-size="10.00">_Sngltn.getParentObjectByName</text>
</a>
</g>
</g>
<!-- Node208&#45;&gt;Node209 -->
<g id="edge9" class="edge"><title>Node208&#45;&gt;Node209</title>
<path fill="none" stroke="midnightblue" d="M544.245,-528.5C552.636,-528.5 561.252,-528.5 569.838,-528.5"/>
<polygon fill="midnightblue" stroke="midnightblue" points="569.888,-532 579.888,-528.5 569.888,-525 569.888,-532"/>
</g>
<!-- Node210 -->
<g id="node11" class="node"><title>Node210</title>
<g id="a_node11"><a xlink:href="classokw_1_1_frame_object_dictionary___sngltn.html#a0a71734828093357dfc88b5fa242e361" target="_top" xlink:title="Die Methode liefert das Objekt des gegebenen Kindobjekttests zurück.">
<polygon fill="white" stroke="black" points="583.5,-464.5 583.5,-494.5 750.5,-494.5 750.5,-464.5 583.5,-464.5"/>
<text text-anchor="start" x="591.5" y="-482.5" font-family="Helvetica,sans-Serif" font-size="10.00">okw.FrameObjectDictionary</text>
<text text-anchor="middle" x="667" y="-471.5" font-family="Helvetica,sans-Serif" font-size="10.00">_Sngltn.getChildObjectByName</text>
</a>
</g>
</g>
<!-- Node208&#45;&gt;Node210 -->
<g id="edge12" class="edge"><title>Node208&#45;&gt;Node210</title>
<path fill="none" stroke="midnightblue" d="M528.406,-513.465C549.555,-508.245 573.449,-502.346 595.32,-496.947"/>
<polygon fill="midnightblue" stroke="midnightblue" points="596.34,-500.301 605.21,-494.506 594.662,-493.505 596.34,-500.301"/>
</g>
<!-- Node209&#45;&gt;Node202 -->
<g id="edge10" class="edge"><title>Node209&#45;&gt;Node202</title>
<path fill="none" stroke="midnightblue" d="M754.257,-533.117C766.998,-533.799 780.085,-534.5 792.709,-535.175"/>
<polygon fill="midnightblue" stroke="midnightblue" points="792.546,-538.672 802.718,-535.711 792.92,-531.682 792.546,-538.672"/>
</g>
<!-- Node209&#45;&gt;Node203 -->
<g id="edge11" class="edge"><title>Node209&#45;&gt;Node203</title>
<path fill="none" stroke="midnightblue" d="M725.15,-513.437C734.83,-510.633 744.741,-507.604 754,-504.5 784.282,-494.349 818.095,-480.841 842.004,-470.911"/>
<polygon fill="midnightblue" stroke="midnightblue" points="843.412,-474.116 851.287,-467.029 840.711,-467.658 843.412,-474.116"/>
</g>
<!-- Node210&#45;&gt;Node202 -->
<g id="edge13" class="edge"><title>Node210&#45;&gt;Node202</title>
<path fill="none" stroke="midnightblue" d="M719.849,-494.554C731.109,-497.828 742.955,-501.277 754,-504.5 773.086,-510.069 793.882,-516.154 812.695,-521.665"/>
<polygon fill="midnightblue" stroke="midnightblue" points="811.752,-525.036 822.333,-524.489 813.721,-518.319 811.752,-525.036"/>
</g>
<!-- Node210&#45;&gt;Node203 -->
<g id="edge14" class="edge"><title>Node210&#45;&gt;Node203</title>
<path fill="none" stroke="midnightblue" d="M750.696,-470.647C760.298,-469.619 770.143,-468.565 779.878,-467.523"/>
<polygon fill="midnightblue" stroke="midnightblue" points="780.398,-470.987 789.969,-466.443 779.653,-464.027 780.398,-470.987"/>
</g>
<!-- Node212 -->
<g id="node13" class="node"><title>Node212</title>
<g id="a_node13"><a xlink:href="classokw_1_1_o_k_w___const___sngltn.html#a8404c43fc549df30d37c369c7d6e89ae" target="_top" xlink:title="Privater Konstruktor ohne Parameter im Entwurfsmuster Singelton initialisiert die Klasse OKW_Const.">
<polygon fill="white" stroke="black" points="390.5,-0.5 390.5,-30.5 542.5,-30.5 542.5,-0.5 390.5,-0.5"/>
<text text-anchor="start" x="398.5" y="-18.5" font-family="Helvetica,sans-Serif" font-size="10.00">okw.OKW_Const_Sngltn.OKW</text>
<text text-anchor="middle" x="466.5" y="-7.5" font-family="Helvetica,sans-Serif" font-size="10.00">_Const_Sngltn</text>
</a>
</g>
</g>
<!-- Node211&#45;&gt;Node212 -->
<g id="edge16" class="edge"><title>Node211&#45;&gt;Node212</title>
<path fill="none" stroke="midnightblue" d="M338.024,-15.5C351.675,-15.5 366.079,-15.5 380.097,-15.5"/>
<polygon fill="midnightblue" stroke="midnightblue" points="380.22,-19.0001 390.22,-15.5 380.22,-12.0001 380.22,-19.0001"/>
</g>
<!-- Node214 -->
<g id="node15" class="node"><title>Node214</title>
<g id="a_node15"><a xlink:href="classokw_1_1_o_k_w___const___sngltn.html#a51cde06bf07e855ba4d69ff36b9a27f7" target="_top" xlink:title="Methode ermittelt für Internalname und der aktuell eingestellten Sprache den Wert für Const.">
<polygon fill="white" stroke="black" points="593,-601.5 593,-631.5 741,-631.5 741,-601.5 593,-601.5"/>
<text text-anchor="start" x="601" y="-619.5" font-family="Helvetica,sans-Serif" font-size="10.00">okw.OKW_Const_Sngltn.Get</text>
<text text-anchor="middle" x="667" y="-608.5" font-family="Helvetica,sans-Serif" font-size="10.00">Const4Internalname</text>
</a>
</g>
</g>
<!-- Node213&#45;&gt;Node214 -->
<g id="edge18" class="edge"><title>Node213&#45;&gt;Node214</title>
<path fill="none" stroke="midnightblue" d="M353.012,-582.464C365.099,-583.83 377.358,-585.207 389,-586.5 454.06,-593.726 527.741,-601.695 582.748,-607.603"/>
<polygon fill="midnightblue" stroke="midnightblue" points="582.479,-611.094 592.795,-608.682 583.226,-604.134 582.479,-611.094"/>
</g>
<!-- Node214&#45;&gt;Node202 -->
<g id="edge19" class="edge"><title>Node214&#45;&gt;Node202</title>
<path fill="none" stroke="midnightblue" d="M712.311,-601.414C725.742,-596.741 740.508,-591.504 754,-586.5 778.125,-577.552 804.787,-567.118 826.795,-558.358"/>
<polygon fill="midnightblue" stroke="midnightblue" points="828.247,-561.547 836.236,-554.589 825.651,-555.046 828.247,-561.547"/>
</g>
<!-- Node214&#45;&gt;Node205 -->
<g id="edge20" class="edge"><title>Node214&#45;&gt;Node205</title>
<path fill="none" stroke="midnightblue" d="M741.03,-608.995C854.972,-597.284 1074.51,-574.722 1195.6,-562.276"/>
<polygon fill="midnightblue" stroke="midnightblue" points="1195.99,-565.755 1205.58,-561.251 1195.27,-558.792 1195.99,-565.755"/>
</g>
<!-- Node215&#45;&gt;Node207 -->
<g id="edge24" class="edge"><title>Node215&#45;&gt;Node207</title>
<path fill="none" stroke="midnightblue" d="M278.49,-238.063C299.871,-253.922 345.409,-285.497 389,-301.5 452.582,-324.843 528.685,-336.69 585.02,-342.646"/>
<polygon fill="midnightblue" stroke="midnightblue" points="584.998,-346.161 595.301,-343.691 585.706,-339.197 584.998,-346.161"/>
</g>
<!-- Node216 -->
<g id="node17" class="node"><title>Node216</title>
<g id="a_node17"><a xlink:href="classokw_1_1log_1_1_logger___sngltn.html#aa29d396a2b9df1ac57079d777c548181" target="_top" xlink:title="LogException Function: Logs a Script Exception to the results file.">
<polygon fill="white" stroke="black" points="395,-164.5 395,-194.5 538,-194.5 538,-164.5 395,-164.5"/>
<text text-anchor="start" x="403" y="-182.5" font-family="Helvetica,sans-Serif" font-size="10.00">okw.log.Logger_Sngltn.Log</text>
<text text-anchor="middle" x="466.5" y="-171.5" font-family="Helvetica,sans-Serif" font-size="10.00">Exception</text>
</a>
</g>
</g>
<!-- Node215&#45;&gt;Node216 -->
<g id="edge25" class="edge"><title>Node215&#45;&gt;Node216</title>
<path fill="none" stroke="midnightblue" d="M304.939,-218.936C330.307,-212.705 364.16,-204.391 394.239,-197.003"/>
<polygon fill="midnightblue" stroke="midnightblue" points="395.402,-200.321 404.278,-194.537 393.732,-193.523 395.402,-200.321"/>
</g>
<!-- Node217 -->
<g id="node18" class="node"><title>Node217</title>
<g id="a_node18"><a xlink:href="classokw_1_1log_1_1_logger___sngltn.html#ab4fc711bb4c754f251372ff3b14ab9c9" target="_top" xlink:title="Creates a new hierarchical level in the results file.">
<polygon fill="white" stroke="black" points="595.5,-107.5 595.5,-137.5 738.5,-137.5 738.5,-107.5 595.5,-107.5"/>
<text text-anchor="start" x="603.5" y="-125.5" font-family="Helvetica,sans-Serif" font-size="10.00">okw.log.Logger_Sngltn.Res</text>
<text text-anchor="middle" x="667" y="-114.5" font-family="Helvetica,sans-Serif" font-size="10.00">OpenList</text>
</a>
</g>
</g>
<!-- Node215&#45;&gt;Node217 -->
<g id="edge26" class="edge"><title>Node215&#45;&gt;Node217</title>
<path fill="none" stroke="midnightblue" d="M275.059,-218.874C294.019,-199.471 340.189,-156.025 389,-138.5 452.06,-115.86 528.368,-113.098 584.912,-115.298"/>
<polygon fill="midnightblue" stroke="midnightblue" points="585.085,-118.809 595.232,-115.763 585.4,-111.816 585.085,-118.809"/>
</g>
<!-- Node218 -->
<g id="node19" class="node"><title>Node218</title>
<g id="a_node19"><a xlink:href="classokw_1_1log_1_1_logger___sngltn.html#a9b54104f7e0b4c0a473877b19dfaed56" target="_top" xlink:title="Closes a hierarchical level in the results file that was opened with ResOpenList.">
<polygon fill="white" stroke="black" points="595.5,-194.5 595.5,-224.5 738.5,-224.5 738.5,-194.5 595.5,-194.5"/>
<text text-anchor="start" x="603.5" y="-212.5" font-family="Helvetica,sans-Serif" font-size="10.00">okw.log.Logger_Sngltn.Res</text>
<text text-anchor="middle" x="667" y="-201.5" font-family="Helvetica,sans-Serif" font-size="10.00">CloseList</text>
</a>
</g>
</g>
<!-- Node215&#45;&gt;Node218 -->
<g id="edge27" class="edge"><title>Node215&#45;&gt;Node218</title>
<path fill="none" stroke="midnightblue" d="M277.213,-218.806C297.721,-201.793 343.376,-167.166 389,-154.5 455.378,-136.072 476.65,-140.02 544,-154.5 575.282,-161.225 608.214,-176.632 631.968,-189.433"/>
<polygon fill="midnightblue" stroke="midnightblue" points="630.47,-192.604 640.917,-194.367 633.849,-186.474 630.47,-192.604"/>
</g>
<!-- Node219 -->
<g id="node20" class="node"><title>Node219</title>
<g id="a_node20"><a xlink:href="classokw_1_1core_1_1_o_k_w___current_object___sngltn.html#a01b48f2c86a2f91909143ee9063dfd86" target="_top" xlink:title="Methode gibt alle wichtigen Informationen zum aktuellen Objekt aus.">
<polygon fill="white" stroke="black" points="389,-213.5 389,-243.5 544,-243.5 544,-213.5 389,-213.5"/>
<text text-anchor="start" x="397" y="-231.5" font-family="Helvetica,sans-Serif" font-size="10.00">okw.core.OKW_CurrentObject</text>
<text text-anchor="middle" x="466.5" y="-220.5" font-family="Helvetica,sans-Serif" font-size="10.00">_Sngltn.LogObjectData</text>
</a>
</g>
</g>
<!-- Node215&#45;&gt;Node219 -->
<g id="edge28" class="edge"><title>Node215&#45;&gt;Node219</title>
<path fill="none" stroke="midnightblue" d="M343.132,-228.5C354.75,-228.5 366.801,-228.5 378.607,-228.5"/>
<polygon fill="midnightblue" stroke="midnightblue" points="378.902,-232 388.902,-228.5 378.902,-225 378.902,-232"/>
</g>
<!-- Node220 -->
<g id="node21" class="node"><title>Node220</title>
<g id="a_node21"><a xlink:href="classokw_1_1core_1_1_core.html#aafe6e3d88e810dabf350b37058d4af97" target="_top" xlink:title="Setter zum Setzen des aktuellen Zustandes.">
<polygon fill="white" stroke="black" points="397,-262.5 397,-292.5 536,-292.5 536,-262.5 397,-262.5"/>
<text text-anchor="start" x="405" y="-280.5" font-family="Helvetica,sans-Serif" font-size="10.00">okw.core.Core.SetCurrent</text>
<text text-anchor="middle" x="466.5" y="-269.5" font-family="Helvetica,sans-Serif" font-size="10.00">State</text>
</a>
</g>
</g>
<!-- Node215&#45;&gt;Node220 -->
<g id="edge33" class="edge"><title>Node215&#45;&gt;Node220</title>
<path fill="none" stroke="midnightblue" d="M304.939,-238.064C330.307,-244.295 364.16,-252.609 394.239,-259.997"/>
<polygon fill="midnightblue" stroke="midnightblue" points="393.732,-263.477 404.278,-262.463 395.402,-256.679 393.732,-263.477"/>
</g>
<!-- Node219&#45;&gt;Node203 -->
<g id="edge31" class="edge"><title>Node219&#45;&gt;Node203</title>
<path fill="none" stroke="midnightblue" d="M544.144,-242.392C604.818,-255.992 689.747,-281.009 754,-323.5 801.887,-355.168 842.723,-410.629 861.868,-439.255"/>
<polygon fill="midnightblue" stroke="midnightblue" points="859.099,-441.415 867.508,-447.861 864.954,-437.579 859.099,-441.415"/>
</g>
<!-- Node219&#45;&gt;Node207 -->
<g id="edge30" class="edge"><title>Node219&#45;&gt;Node207</title>
<path fill="none" stroke="midnightblue" d="M527.598,-243.502C533.368,-246.063 538.945,-249.042 544,-252.5 565.138,-266.962 560.671,-280.695 580,-297.5 593.56,-309.29 610.216,-319.884 625.246,-328.321"/>
<polygon fill="midnightblue" stroke="midnightblue" points="623.897,-331.572 634.352,-333.287 627.249,-325.427 623.897,-331.572"/>
</g>
<!-- Node219&#45;&gt;Node217 -->
<g id="edge29" class="edge"><title>Node219&#45;&gt;Node217</title>
<path fill="none" stroke="midnightblue" d="M520.094,-213.402C528.244,-210.468 536.455,-207.154 544,-203.5 578.441,-186.821 614.556,-161.755 638.472,-143.929"/>
<polygon fill="midnightblue" stroke="midnightblue" points="640.829,-146.534 646.705,-137.718 636.614,-140.946 640.829,-146.534"/>
</g>
<!-- Node219&#45;&gt;Node218 -->
<g id="edge32" class="edge"><title>Node219&#45;&gt;Node218</title>
<path fill="none" stroke="midnightblue" d="M544.245,-221.154C557.634,-219.873 571.599,-218.536 585.095,-217.244"/>
<polygon fill="midnightblue" stroke="midnightblue" points="585.686,-220.704 595.307,-216.267 585.019,-213.735 585.686,-220.704"/>
</g>
</g>
</svg>
