<?xml version="1.0" encoding="UTF-8" standalone="no"?>
<!DOCTYPE svg PUBLIC "-//W3C//DTD SVG 1.1//EN"
 "http://www.w3.org/Graphics/SVG/1.1/DTD/svg11.dtd">
<!-- Generated by graphviz version 2.36.0 (20140111.2315)
 -->
<!-- Title: okw.core.Core.MemorizeSelectedValue Pages: 1 -->
<svg width="762pt" height="126pt"
 viewBox="0.00 0.00 762.00 126.00" xmlns="http://www.w3.org/2000/svg" xmlns:xlink="http://www.w3.org/1999/xlink">
<g id="graph0" class="graph" transform="scale(1 1) rotate(0) translate(4 122)">
<title>okw.core.Core.MemorizeSelectedValue</title>
<polygon fill="white" stroke="none" points="-4,4 -4,-122 758,-122 758,4 -4,4"/>
<!-- Node1191 -->
<g id="node1" class="node"><title>Node1191</title>
<polygon fill="#bfbfbf" stroke="black" points="0,-44 0,-74 164,-74 164,-44 0,-44"/>
<text text-anchor="start" x="8" y="-62" font-family="Helvetica,sans-Serif" font-size="10.00">okw.core.Core.MemorizeSelected</text>
<text text-anchor="middle" x="82" y="-51" font-family="Helvetica,sans-Serif" font-size="10.00">Value</text>
</g>
<!-- Node1192 -->
<g id="node2" class="node"><title>Node1192</title>
<g id="a_node2"><a xlink:href="classokw_1_1log_1_1_logger___sngltn.html#a70ec25e200e00ecefc544e8fd371d2ef" target="_top" xlink:title="Ausgabe eines Schlüsselwortes. ">
<polygon fill="white" stroke="black" points="214,-88 214,-118 348,-118 348,-88 214,-88"/>
<text text-anchor="start" x="222" y="-106" font-family="Helvetica,sans-Serif" font-size="10.00">okw.log.Logger_Sngltn.Log</text>
<text text-anchor="middle" x="281" y="-95" font-family="Helvetica,sans-Serif" font-size="10.00">KeyWordStart</text>
</a>
</g>
</g>
<!-- Node1191&#45;&gt;Node1192 -->
<g id="edge1" class="edge"><title>Node1191&#45;&gt;Node1192</title>
<path fill="none" stroke="midnightblue" d="M150.245,-74.0192C167.39,-77.8485 185.944,-81.9925 203.513,-85.9165"/>
<polygon fill="midnightblue" stroke="midnightblue" points="203.203,-89.4335 213.725,-88.1975 204.729,-82.6018 203.203,-89.4335"/>
</g>
<!-- Node1193 -->
<g id="node3" class="node"><title>Node1193</title>
<g id="a_node3"><a xlink:href="classokw_1_1_log_messenger.html#af225d1f037d47b3b085175c09d78bdd2" target="_top" xlink:title="Holt die Log&#45;Meldung für MethodeNmae/Textkey ohne weitere Parameter. ">
<polygon fill="white" stroke="black" points="201,-49.5 201,-68.5 361,-68.5 361,-49.5 201,-49.5"/>
<text text-anchor="middle" x="281" y="-56.5" font-family="Helvetica,sans-Serif" font-size="10.00">okw.LogMessenger.GetMessage</text>
</a>
</g>
</g>
<!-- Node1191&#45;&gt;Node1193 -->
<g id="edge2" class="edge"><title>Node1191&#45;&gt;Node1193</title>
<path fill="none" stroke="midnightblue" d="M164.265,-59C172.949,-59 181.818,-59 190.59,-59"/>
<polygon fill="midnightblue" stroke="midnightblue" points="190.826,-62.5001 200.826,-59 190.826,-55.5001 190.826,-62.5001"/>
</g>
<!-- Node1196 -->
<g id="node6" class="node"><title>Node1196</title>
<g id="a_node6"><a xlink:href="interfaceokw_1_1core_1_1_i_o_k_w___state.html#a2e9dcf9b0e3ebe2645ed830e5c077e04" target="_top" xlink:title="Keine Beschreibung zu &quot;MemorizeSelectedValue&quot; verfügbar. ">
<polygon fill="white" stroke="black" points="200.5,-0 200.5,-30 361.5,-30 361.5,-0 200.5,-0"/>
<text text-anchor="start" x="208.5" y="-18" font-family="Helvetica,sans-Serif" font-size="10.00">okw.core.IOKW_State.Memorize</text>
<text text-anchor="middle" x="281" y="-7" font-family="Helvetica,sans-Serif" font-size="10.00">SelectedValue</text>
</a>
</g>
</g>
<!-- Node1191&#45;&gt;Node1196 -->
<g id="edge5" class="edge"><title>Node1191&#45;&gt;Node1196</title>
<path fill="none" stroke="midnightblue" d="M150.245,-43.9808C167.11,-40.214 185.339,-36.1426 202.653,-32.2756"/>
<polygon fill="midnightblue" stroke="midnightblue" points="203.727,-35.6219 212.724,-30.0262 202.201,-28.7902 203.727,-35.6219"/>
</g>
<!-- Node1194 -->
<g id="node4" class="node"><title>Node1194</title>
<g id="a_node4"><a xlink:href="classokw_1_1_log_messenger.html#a530cd6ab82ec82a04206a2e976ec06e3" target="_top" xlink:title="Interne Kernfunktion holt die Log&#45;Meldung mit Platzhaltern aus der XML&#45;Datei. ">
<polygon fill="white" stroke="black" points="398.5,-49.5 398.5,-68.5 565.5,-68.5 565.5,-49.5 398.5,-49.5"/>
<text text-anchor="middle" x="482" y="-56.5" font-family="Helvetica,sans-Serif" font-size="10.00">okw.LogMessenger.ReadMessage</text>
</a>
</g>
</g>
<!-- Node1193&#45;&gt;Node1194 -->
<g id="edge3" class="edge"><title>Node1193&#45;&gt;Node1194</title>
<path fill="none" stroke="midnightblue" d="M361.222,-59C370.121,-59 379.246,-59 388.295,-59"/>
<polygon fill="midnightblue" stroke="midnightblue" points="388.464,-62.5001 398.464,-59 388.464,-55.5001 388.464,-62.5001"/>
</g>
<!-- Node1195 -->
<g id="node5" class="node"><title>Node1195</title>
<g id="a_node5"><a xlink:href="classokw_1_1_o_k_w___xml_reader.html#ab920b5335a2e1429c14cc5f8e79f39eb" target="_top" xlink:title="Lies den TextContent eines Tag. ">
<polygon fill="white" stroke="black" points="602,-44 602,-74 754,-74 754,-44 602,-44"/>
<text text-anchor="start" x="610" y="-62" font-family="Helvetica,sans-Serif" font-size="10.00">okw.OKW_XmlReader.getText</text>
<text text-anchor="middle" x="678" y="-51" font-family="Helvetica,sans-Serif" font-size="10.00">ContentSingleValue</text>
</a>
</g>
</g>
<!-- Node1194&#45;&gt;Node1195 -->
<g id="edge4" class="edge"><title>Node1194&#45;&gt;Node1195</title>
<path fill="none" stroke="midnightblue" d="M565.555,-59C574.227,-59 583.057,-59 591.759,-59"/>
<polygon fill="midnightblue" stroke="midnightblue" points="591.899,-62.5001 601.899,-59 591.899,-55.5001 591.899,-62.5001"/>
</g>
</g>
</svg>
