<?xml version="1.0" encoding="UTF-8" standalone="no"?>
<!DOCTYPE svg PUBLIC "-//W3C//DTD SVG 1.1//EN"
 "http://www.w3.org/Graphics/SVG/1.1/DTD/svg11.dtd">
<!-- Generated by graphviz version 2.36.0 (20140111.2315)
 -->
<!-- Title: okw.core.Core.VerifyIsActive Pages: 1 -->
<!--zoomable 1717 -->
<svg id="main" version="1.1" xmlns="http://www.w3.org/2000/svg" xmlns:xlink="http://www.w3.org/1999/xlink" xml:space="preserve" onload="init(evt)">
<style type="text/css"><![CDATA[
.edge:hover path { stroke: red; }
.edge:hover polygon { stroke: red; fill: red; }
]]></style>
<script type="text/javascript"><![CDATA[
var edges = document.getElementsByTagName('g');
if (edges && edges.length) {
  for (var i=0;i<edges.length;i++) {
    if (edges[i].id.substr(0,4)=='edge') {
      edges[i].setAttribute('class','edge');
    }
  }
}
]]></script>
        <defs>
                <circle id="rim" cx="0" cy="0" r="7"/>
                <circle id="rim2" cx="0" cy="0" r="3.5"/>
                <g id="zoomPlus">
                        <use xlink:href="#rim" fill="#404040">
                                <set attributeName="fill" to="#808080" begin="zoomplus.mouseover" end="zoomplus.mouseout"/>
                        </use>
                        <path d="M-4,0h8M0,-4v8" fill="none" stroke="white" stroke-width="1.5" pointer-events="none"/>
                </g>
                <g id="zoomMin">
                        <use xlink:href="#rim" fill="#404040">
                                <set attributeName="fill" to="#808080" begin="zoomminus.mouseover" end="zoomminus.mouseout"/>
                        </use>
                        <path d="M-4,0h8" fill="none" stroke="white" stroke-width="1.5" pointer-events="none"/>
                </g>
                <g id="dirArrow">
                        <path fill="none" stroke="white" stroke-width="1.5" d="M0,-3.0v7 M-2.5,-0.5L0,-3.0L2.5,-0.5"/>
                </g>
               <g id="resetDef">
                       <use xlink:href="#rim2" fill="#404040">
                               <set attributeName="fill" to="#808080" begin="reset.mouseover" end="reset.mouseout"/>
                       </use>
               </g>
        </defs>

<script type="text/javascript">
var viewWidth = 576;
var viewHeight = 1717;
var sectionId = 'dynsection-97';
</script>
<script xlink:href="svgpan.js"/>
<svg id="graph" class="graph">
<g id="viewport">
<title>okw.core.Core.VerifyIsActive</title>
<polygon fill="white" stroke="none" points="-4,4 -4,-1713 572,-1713 572,4 -4,4"/>
<!-- Node3765 -->
<g id="node1" class="node"><title>Node3765</title>
<polygon fill="#bfbfbf" stroke="black" points="0.5,-827.5 0.5,-846.5 145.5,-846.5 145.5,-827.5 0.5,-827.5"/>
<text text-anchor="middle" x="73" y="-834.5" font-family="Helvetica,sans-Serif" font-size="10.00">okw.core.Core.VerifyIsActive</text>
</g>
<!-- Node3766 -->
<g id="node2" class="node"><title>Node3766</title>
<g id="a_node2"><a xlink:href="classokw_1_1core_1_1_e_n.html#a67f59cc780c7b380127c430522ae6a62" target="_top" xlink:title="Vergleicht den Fokus&#45;Status des gegebenen Objekts mit dem erwarteten Wert. ">
<polygon fill="white" stroke="black" points="182,-827.5 182,-846.5 320,-846.5 320,-827.5 182,-827.5"/>
<text text-anchor="middle" x="251" y="-834.5" font-family="Helvetica,sans-Serif" font-size="10.00">okw.core.EN.VerifyIsActive</text>
</a>
</g>
</g>
<!-- Node3765&#45;&gt;Node3766 -->
<g id="edge1" class="edge"><title>Node3765&#45;&gt;Node3766</title>
<path fill="none" stroke="midnightblue" d="M155.783,-837C164.519,-837 173.337,-837 181.891,-837"/>
<polygon fill="midnightblue" stroke="midnightblue" points="155.586,-833.5 145.586,-837 155.586,-840.5 155.586,-833.5"/>
</g>
<!-- Node3767 -->
<g id="node3" class="node"><title>Node3767</title>
<g id="a_node3"><a xlink:href="classokw_1_1core_1_1_e_n___keywords___a_n_t_l_r___test.html#a48924242e07099955b1134ab59fefe98" target="_top" xlink:title="okw.core.EN_Keywords\l_ANTLR_Test.tc_VerifyIsActive\l_MemorizedValue">
<polygon fill="white" stroke="black" points="383,-1667.5 383,-1708.5 541,-1708.5 541,-1667.5 383,-1667.5"/>
<text text-anchor="start" x="391" y="-1696.5" font-family="Helvetica,sans-Serif" font-size="10.00">okw.core.EN_Keywords</text>
<text text-anchor="start" x="391" y="-1685.5" font-family="Helvetica,sans-Serif" font-size="10.00">_ANTLR_Test.tc_VerifyIsActive</text>
<text text-anchor="middle" x="462" y="-1674.5" font-family="Helvetica,sans-Serif" font-size="10.00">_MemorizedValue</text>
</a>
</g>
</g>
<!-- Node3766&#45;&gt;Node3767 -->
<g id="edge2" class="edge"><title>Node3766&#45;&gt;Node3767</title>
<path fill="none" stroke="midnightblue" d="M251.689,-856.966C250.33,-970.231 249.128,-1531.38 356,-1657 363.205,-1665.47 372.6,-1671.69 382.808,-1676.24"/>
<polygon fill="midnightblue" stroke="midnightblue" points="255.193,-856.709 251.829,-846.663 248.193,-856.614 255.193,-856.709"/>
</g>
<!-- Node3768 -->
<g id="node4" class="node"><title>Node3768</title>
<g id="a_node4"><a xlink:href="classokw_1_1core_1_1_e_n___keywords___d_e_l_e_t_e___test.html#a0e62a17933f21dc8c45b22def98ac192" target="_top" xlink:title="okw.core.EN_Keywords\l_DELETE_Test.tcSelectMenu\l_Value_MV_DELETE_EmptyString">
<polygon fill="white" stroke="black" points="377,-1607.5 377,-1648.5 547,-1648.5 547,-1607.5 377,-1607.5"/>
<text text-anchor="start" x="385" y="-1636.5" font-family="Helvetica,sans-Serif" font-size="10.00">okw.core.EN_Keywords</text>
<text text-anchor="start" x="385" y="-1625.5" font-family="Helvetica,sans-Serif" font-size="10.00">_DELETE_Test.tcSelectMenu</text>
<text text-anchor="middle" x="462" y="-1614.5" font-family="Helvetica,sans-Serif" font-size="10.00">_Value_MV_DELETE_EmptyString</text>
</a>
</g>
</g>
<!-- Node3766&#45;&gt;Node3768 -->
<g id="edge3" class="edge"><title>Node3766&#45;&gt;Node3768</title>
<path fill="none" stroke="midnightblue" d="M251.91,-856.848C251.822,-964.873 256.662,-1481.39 356,-1597 361.822,-1603.78 369.046,-1609.11 376.96,-1613.3"/>
<polygon fill="midnightblue" stroke="midnightblue" points="255.41,-856.714 251.935,-846.705 248.41,-856.697 255.41,-856.714"/>
</g>
<!-- Node3769 -->
<g id="node5" class="node"><title>Node3769</title>
<g id="a_node5"><a xlink:href="classokw_1_1core_1_1_e_n___keywords___empty___test.html#a8449e6aa401aca7a8dc5701cfbe6588d" target="_top" xlink:title="Prüft &quot;${EMPTY}&quot; für das Schlüsselwort VerifyValue(string,string) ">
<polygon fill="white" stroke="black" points="384,-1547.5 384,-1588.5 540,-1588.5 540,-1547.5 384,-1547.5"/>
<text text-anchor="start" x="392" y="-1576.5" font-family="Helvetica,sans-Serif" font-size="10.00">okw.core.EN_Keywords</text>
<text text-anchor="start" x="392" y="-1565.5" font-family="Helvetica,sans-Serif" font-size="10.00">_Empty_Test.tc_VerifyTablecell</text>
<text text-anchor="middle" x="462" y="-1554.5" font-family="Helvetica,sans-Serif" font-size="10.00">ValueWCM_Empty</text>
</a>
</g>
</g>
<!-- Node3766&#45;&gt;Node3769 -->
<g id="edge4" class="edge"><title>Node3766&#45;&gt;Node3769</title>
<path fill="none" stroke="midnightblue" d="M252.167,-856.87C253.431,-959.773 264.22,-1431.42 356,-1537 363.482,-1545.61 373.225,-1551.88 383.757,-1556.45"/>
<polygon fill="midnightblue" stroke="midnightblue" points="255.665,-856.62 252.059,-846.657 248.665,-856.694 255.665,-856.62"/>
</g>
<!-- Node3770 -->
<g id="node6" class="node"><title>Node3770</title>
<g id="a_node6"><a xlink:href="classokw_1_1core_1_1_e_n___keywords___i_g_n_o_r_e___test.html#a4af0cd2b44e7a180261b407bd7248a88" target="_top" xlink:title="okw.core.EN_Keywords\l_IGNORE_Test.tcVerifyIsActive\l_IGNORE">
<polygon fill="white" stroke="black" points="382.5,-1487.5 382.5,-1528.5 541.5,-1528.5 541.5,-1487.5 382.5,-1487.5"/>
<text text-anchor="start" x="390.5" y="-1516.5" font-family="Helvetica,sans-Serif" font-size="10.00">okw.core.EN_Keywords</text>
<text text-anchor="start" x="390.5" y="-1505.5" font-family="Helvetica,sans-Serif" font-size="10.00">_IGNORE_Test.tcVerifyIsActive</text>
<text text-anchor="middle" x="462" y="-1494.5" font-family="Helvetica,sans-Serif" font-size="10.00">_IGNORE</text>
</a>
</g>
</g>
<!-- Node3766&#45;&gt;Node3770 -->
<g id="edge5" class="edge"><title>Node3766&#45;&gt;Node3770</title>
<path fill="none" stroke="midnightblue" d="M252.474,-856.984C255.19,-954.711 271.783,-1381.44 356,-1477 363.163,-1485.13 372.342,-1491.17 382.284,-1495.66"/>
<polygon fill="midnightblue" stroke="midnightblue" points="255.967,-856.647 252.208,-846.742 248.969,-856.829 255.967,-856.647"/>
</g>
<!-- Node3771 -->
<g id="node7" class="node"><title>Node3771</title>
<g id="a_node7"><a xlink:href="classokw_1_1core_1_1_e_n___keywords___i_g_n_o_r_e___test.html#a61db683fdd70725bc9aada7b849c37b1" target="_top" xlink:title="okw.core.EN_Keywords\l_IGNORE_Test.tcVerifyIsActive\l_IGNORE_EmptyString">
<polygon fill="white" stroke="black" points="382.5,-1427.5 382.5,-1468.5 541.5,-1468.5 541.5,-1427.5 382.5,-1427.5"/>
<text text-anchor="start" x="390.5" y="-1456.5" font-family="Helvetica,sans-Serif" font-size="10.00">okw.core.EN_Keywords</text>
<text text-anchor="start" x="390.5" y="-1445.5" font-family="Helvetica,sans-Serif" font-size="10.00">_IGNORE_Test.tcVerifyIsActive</text>
<text text-anchor="middle" x="462" y="-1434.5" font-family="Helvetica,sans-Serif" font-size="10.00">_IGNORE_EmptyString</text>
</a>
</g>
</g>
<!-- Node3766&#45;&gt;Node3771 -->
<g id="edge6" class="edge"><title>Node3766&#45;&gt;Node3771</title>
<path fill="none" stroke="midnightblue" d="M252.812,-856.878C256.967,-948.88 278.751,-1332.51 356,-1418 363.245,-1426.02 372.469,-1431.95 382.432,-1436.33"/>
<polygon fill="midnightblue" stroke="midnightblue" points="256.302,-856.559 252.373,-846.719 249.308,-856.861 256.302,-856.559"/>
</g>
<!-- Node3772 -->
<g id="node8" class="node"><title>Node3772</title>
<g id="a_node8"><a xlink:href="classokw_1_1core_1_1_e_n___keywords___test.html#afef7fb7f909fbf8dab860eec48268f4a" target="_top" xlink:title="okw.core.EN_Keywords\l_Test.tc_VerifyIsActive">
<polygon fill="white" stroke="black" points="401,-1379 401,-1409 523,-1409 523,-1379 401,-1379"/>
<text text-anchor="start" x="409" y="-1397" font-family="Helvetica,sans-Serif" font-size="10.00">okw.core.EN_Keywords</text>
<text text-anchor="middle" x="462" y="-1386" font-family="Helvetica,sans-Serif" font-size="10.00">_Test.tc_VerifyIsActive</text>
</a>
</g>
</g>
<!-- Node3766&#45;&gt;Node3772 -->
<g id="edge7" class="edge"><title>Node3766&#45;&gt;Node3772</title>
<path fill="none" stroke="midnightblue" d="M253.084,-856.917C258.244,-944.346 283.175,-1293.15 356,-1369 367.745,-1381.23 384.308,-1387.94 400.815,-1391.5"/>
<polygon fill="midnightblue" stroke="midnightblue" points="256.569,-856.554 252.505,-846.77 249.58,-856.953 256.569,-856.554"/>
</g>
<!-- Node3773 -->
<g id="node9" class="node"><title>Node3773</title>
<g id="a_node9"><a xlink:href="classokw_1_1core_1_1_e_n___o_k_w_frame_object_child_not_found_exception___test.html#aef48315ef3e48b52d3cedec5520b7e58" target="_top" xlink:title="Prüft ob die Ausnahme OKWFrameObjectChildNotFoundException durch die LFC&#45;VerifyIsActive ausgelöst wir...">
<polygon fill="white" stroke="black" points="356.5,-1308 356.5,-1360 567.5,-1360 567.5,-1308 356.5,-1308"/>
<text text-anchor="start" x="364.5" y="-1348" font-family="Helvetica,sans-Serif" font-size="10.00">okw.core.EN_OKWFrameObject</text>
<text text-anchor="start" x="364.5" y="-1337" font-family="Helvetica,sans-Serif" font-size="10.00">ChildNotFoundException</text>
<text text-anchor="start" x="364.5" y="-1326" font-family="Helvetica,sans-Serif" font-size="10.00">_Test.TC_VerifyIsActive</text>
<text text-anchor="middle" x="462" y="-1315" font-family="Helvetica,sans-Serif" font-size="10.00">_OKWFrameObjectChildNotFoundException</text>
</a>
</g>
</g>
<!-- Node3766&#45;&gt;Node3773 -->
<g id="edge8" class="edge"><title>Node3766&#45;&gt;Node3773</title>
<path fill="none" stroke="midnightblue" d="M253.892,-856.576C261.902,-935.651 295.426,-1230.48 356,-1298 359.217,-1301.59 362.807,-1304.82 366.667,-1307.72"/>
<polygon fill="midnightblue" stroke="midnightblue" points="257.365,-856.133 252.895,-846.528 250.399,-856.824 257.365,-856.133"/>
</g>
<!-- Node3774 -->
<g id="node10" class="node"><title>Node3774</title>
<g id="a_node10"><a xlink:href="classokw_1_1core_1_1_e_n___o_k_w_frame_object_method_not_implemented___test.html#ab0ef684a266ac277c615f75346b35d78" target="_top" xlink:title="Prüft ob die Ausnahme OKWFrameObjectMethodNotImplemented von VerifyIsActive( FN, ExpVal ) ausgelöst w...">
<polygon fill="white" stroke="black" points="361.5,-1237 361.5,-1289 562.5,-1289 562.5,-1237 361.5,-1237"/>
<text text-anchor="start" x="369.5" y="-1277" font-family="Helvetica,sans-Serif" font-size="10.00">okw.core.EN_OKWFrameObject</text>
<text text-anchor="start" x="369.5" y="-1266" font-family="Helvetica,sans-Serif" font-size="10.00">MethodNotImplemented_Test.TC</text>
<text text-anchor="start" x="369.5" y="-1255" font-family="Helvetica,sans-Serif" font-size="10.00">_VerifyIsActive_OKWFrameObjectMethod</text>
<text text-anchor="middle" x="462" y="-1244" font-family="Helvetica,sans-Serif" font-size="10.00">NotImplemented</text>
</a>
</g>
</g>
<!-- Node3766&#45;&gt;Node3774 -->
<g id="edge9" class="edge"><title>Node3766&#45;&gt;Node3774</title>
<path fill="none" stroke="midnightblue" d="M251.261,-856.785C250.02,-919.567 254.763,-1116.59 356,-1226 359.675,-1229.97 363.803,-1233.52 368.24,-1236.68"/>
<polygon fill="midnightblue" stroke="midnightblue" points="254.763,-856.769 251.541,-846.676 247.766,-856.576 254.763,-856.769"/>
</g>
<!-- Node3775 -->
<g id="node11" class="node"><title>Node3775</title>
<g id="a_node11"><a xlink:href="classokw_1_1core_1_1_e_n___o_k_w_not_allowed_value_exception___keywords___i_g_n_o_r_e.html#ae73248c833fee94e01dc03f17d4bf84f" target="_top" xlink:title="Prüft ob &quot;${IGNORE} &quot; die Ausnahme okw.exceptions.OKWNotAllowedValueException auslöst. ">
<polygon fill="white" stroke="black" points="372.5,-1176.5 372.5,-1217.5 551.5,-1217.5 551.5,-1176.5 372.5,-1176.5"/>
<text text-anchor="start" x="380.5" y="-1205.5" font-family="Helvetica,sans-Serif" font-size="10.00">okw.core.EN_OKWNotAllowed</text>
<text text-anchor="start" x="380.5" y="-1194.5" font-family="Helvetica,sans-Serif" font-size="10.00">ValueException_Keywords</text>
<text text-anchor="middle" x="462" y="-1183.5" font-family="Helvetica,sans-Serif" font-size="10.00">_IGNORE.tcVerifyIsActiveIGNORE1</text>
</a>
</g>
</g>
<!-- Node3766&#45;&gt;Node3775 -->
<g id="edge10" class="edge"><title>Node3766&#45;&gt;Node3775</title>
<path fill="none" stroke="midnightblue" d="M252.179,-856.871C253.798,-913.638 266.389,-1078.08 356,-1166 360.884,-1170.79 366.471,-1174.85 372.467,-1178.28"/>
<polygon fill="midnightblue" stroke="midnightblue" points="255.676,-856.661 251.979,-846.732 248.677,-856.799 255.676,-856.661"/>
</g>
<!-- Node3776 -->
<g id="node12" class="node"><title>Node3776</title>
<g id="a_node12"><a xlink:href="classokw_1_1core_1_1_e_n___o_k_w_not_allowed_value_exception___keywords___i_g_n_o_r_e.html#a19ef9656eaee897360a374103dad7e4d" target="_top" xlink:title="Prüft ob &quot;&quot;${IGNORE}${TCN}&quot; die Ausnahme okw.exceptions.OKWNotAllowedValueException auslöst...">
<polygon fill="white" stroke="black" points="372.5,-1116.5 372.5,-1157.5 551.5,-1157.5 551.5,-1116.5 372.5,-1116.5"/>
<text text-anchor="start" x="380.5" y="-1145.5" font-family="Helvetica,sans-Serif" font-size="10.00">okw.core.EN_OKWNotAllowed</text>
<text text-anchor="start" x="380.5" y="-1134.5" font-family="Helvetica,sans-Serif" font-size="10.00">ValueException_Keywords</text>
<text text-anchor="middle" x="462" y="-1123.5" font-family="Helvetica,sans-Serif" font-size="10.00">_IGNORE.tcVerifyIsActiveIGNORE2</text>
</a>
</g>
</g>
<!-- Node3766&#45;&gt;Node3776 -->
<g id="edge11" class="edge"><title>Node3766&#45;&gt;Node3776</title>
<path fill="none" stroke="midnightblue" d="M253.748,-856.472C259.226,-905.755 280.501,-1036.44 356,-1106 360.892,-1110.51 366.41,-1114.36 372.29,-1117.66"/>
<polygon fill="midnightblue" stroke="midnightblue" points="257.228,-856.101 252.737,-846.505 250.264,-856.807 257.228,-856.101"/>
</g>
<!-- Node3777 -->
<g id="node13" class="node"><title>Node3777</title>
<g id="a_node13"><a xlink:href="classokw_1_1core_1_1_e_n___o_k_w_not_allowed_value_exception___test.html#a4bc6ac5b3060a464f3582a492918e527" target="_top" xlink:title="Prüft ob die Ausnahme OKWNotAllowedValueException durch die LFC&#45;VerifyIsActive ausgelöst wird...">
<polygon fill="white" stroke="black" points="361.5,-1045 361.5,-1097 562.5,-1097 562.5,-1045 361.5,-1045"/>
<text text-anchor="start" x="369.5" y="-1085" font-family="Helvetica,sans-Serif" font-size="10.00">okw.core.EN_OKWNotAllowed</text>
<text text-anchor="start" x="369.5" y="-1074" font-family="Helvetica,sans-Serif" font-size="10.00">ValueException_Test.TC</text>
<text text-anchor="start" x="369.5" y="-1063" font-family="Helvetica,sans-Serif" font-size="10.00">_VerifyIsActive_OKWFrameObjectMethod</text>
<text text-anchor="middle" x="462" y="-1052" font-family="Helvetica,sans-Serif" font-size="10.00">NotFoundException</text>
</a>
</g>
</g>
<!-- Node3766&#45;&gt;Node3777 -->
<g id="edge12" class="edge"><title>Node3766&#45;&gt;Node3777</title>
<path fill="none" stroke="midnightblue" d="M257.005,-856.604C268.075,-896.075 298.338,-985.565 356,-1035 360.243,-1038.64 364.872,-1041.91 369.745,-1044.86"/>
<polygon fill="midnightblue" stroke="midnightblue" points="260.365,-855.619 254.385,-846.873 253.606,-857.439 260.365,-855.619"/>
</g>
<!-- Node3778 -->
<g id="node14" class="node"><title>Node3778</title>
<g id="a_node14"><a xlink:href="classokw_1_1_se_b_a_c_k_1_1_se_b_a_c_k___e_n___test.html#a1df415b98469ce6e7d5eca09f37b31f2" target="_top" xlink:title="Prüft, ob die Methode VerifyIsActive für BACK implementiert ist. ">
<polygon fill="white" stroke="black" points="392,-996 392,-1026 532,-1026 532,-996 392,-996"/>
<text text-anchor="start" x="400" y="-1014" font-family="Helvetica,sans-Serif" font-size="10.00">okw.SeBACK.SeBACK_EN</text>
<text text-anchor="middle" x="462" y="-1003" font-family="Helvetica,sans-Serif" font-size="10.00">_Test.tcVerifyIsActive</text>
</a>
</g>
</g>
<!-- Node3766&#45;&gt;Node3778 -->
<g id="edge13" class="edge"><title>Node3766&#45;&gt;Node3778</title>
<path fill="none" stroke="midnightblue" d="M259.993,-856.469C274.262,-888.69 307.265,-952.831 356,-986 366.689,-993.275 379.244,-998.444 391.882,-1002.11"/>
<polygon fill="midnightblue" stroke="midnightblue" points="263.031,-854.671 255.877,-846.857 256.596,-857.427 263.031,-854.671"/>
</g>
<!-- Node3779 -->
<g id="node15" class="node"><title>Node3779</title>
<g id="a_node15"><a xlink:href="classokw_1_1_se_button_1_1_se_button___e_n___test.html#ad4ae927522571dcec4f51a082ba15fab" target="_top" xlink:title="Test des Schlüsselwortes VerifyIsActive für den GUI&#45;Adapter SeButton. ">
<polygon fill="white" stroke="black" points="395,-936.5 395,-977.5 529,-977.5 529,-936.5 395,-936.5"/>
<text text-anchor="start" x="403" y="-965.5" font-family="Helvetica,sans-Serif" font-size="10.00">okw.SeButton.SeButton</text>
<text text-anchor="start" x="403" y="-954.5" font-family="Helvetica,sans-Serif" font-size="10.00">_EN_Test.tcVerifyIsActive</text>
<text text-anchor="middle" x="462" y="-943.5" font-family="Helvetica,sans-Serif" font-size="10.00">_ActiveYESExpectedYES</text>
</a>
</g>
</g>
<!-- Node3766&#45;&gt;Node3779 -->
<g id="edge14" class="edge"><title>Node3766&#45;&gt;Node3779</title>
<path fill="none" stroke="midnightblue" d="M267.429,-853.988C286.434,-873.944 320.574,-906.764 356,-926 368.026,-932.53 381.594,-937.84 394.884,-942.098"/>
<polygon fill="midnightblue" stroke="midnightblue" points="269.856,-851.459 260.472,-846.541 264.741,-856.237 269.856,-851.459"/>
</g>
<!-- Node3780 -->
<g id="node16" class="node"><title>Node3780</title>
<g id="a_node16"><a xlink:href="classokw_1_1_se_button_1_1_se_button___e_n___test.html#a3295d69853462e6795d10312257f2958" target="_top" xlink:title="Test des Schlüsselwortes VerifyIsActive für den GUI&#45;Adapter SeButton. ">
<polygon fill="white" stroke="black" points="395,-876.5 395,-917.5 529,-917.5 529,-876.5 395,-876.5"/>
<text text-anchor="start" x="403" y="-905.5" font-family="Helvetica,sans-Serif" font-size="10.00">okw.SeButton.SeButton</text>
<text text-anchor="start" x="403" y="-894.5" font-family="Helvetica,sans-Serif" font-size="10.00">_EN_Test.tcVerifyIsActive</text>
<text text-anchor="middle" x="462" y="-883.5" font-family="Helvetica,sans-Serif" font-size="10.00">_ActiveYESExpectedNO</text>
</a>
</g>
</g>
<!-- Node3766&#45;&gt;Node3780 -->
<g id="edge15" class="edge"><title>Node3766&#45;&gt;Node3780</title>
<path fill="none" stroke="midnightblue" d="M294.858,-849.304C323.614,-857.559 362.062,-868.597 394.729,-877.975"/>
<polygon fill="midnightblue" stroke="midnightblue" points="295.694,-845.902 285.117,-846.507 293.763,-852.631 295.694,-845.902"/>
</g>
<!-- Node3781 -->
<g id="node17" class="node"><title>Node3781</title>
<g id="a_node17"><a xlink:href="classokw_1_1_se_button_1_1_se_button___e_n___test.html#afb1db42499109698f522a240c9e57a94" target="_top" xlink:title="Test des Schlüsselwortes VerifyIsActive für den GUI&#45;Adapter SeButton. ">
<polygon fill="white" stroke="black" points="395,-816.5 395,-857.5 529,-857.5 529,-816.5 395,-816.5"/>
<text text-anchor="start" x="403" y="-845.5" font-family="Helvetica,sans-Serif" font-size="10.00">okw.SeButton.SeButton</text>
<text text-anchor="start" x="403" y="-834.5" font-family="Helvetica,sans-Serif" font-size="10.00">_EN_Test.tcVerifyIsActive</text>
<text text-anchor="middle" x="462" y="-823.5" font-family="Helvetica,sans-Serif" font-size="10.00">_ActiveNOExpectedNO</text>
</a>
</g>
</g>
<!-- Node3766&#45;&gt;Node3781 -->
<g id="edge16" class="edge"><title>Node3766&#45;&gt;Node3781</title>
<path fill="none" stroke="midnightblue" d="M330.402,-837C351.58,-837 374.286,-837 394.728,-837"/>
<polygon fill="midnightblue" stroke="midnightblue" points="330.145,-833.5 320.145,-837 330.145,-840.5 330.145,-833.5"/>
</g>
<!-- Node3782 -->
<g id="node18" class="node"><title>Node3782</title>
<g id="a_node18"><a xlink:href="classokw_1_1_se_button_1_1_se_button___e_n___test.html#a0e6b4fcc17323aba8f032237d2612c92" target="_top" xlink:title="Test des Schlüsselwortes VerifyIsActive für den GUI&#45;Adapter SeButton. ">
<polygon fill="white" stroke="black" points="395,-756.5 395,-797.5 529,-797.5 529,-756.5 395,-756.5"/>
<text text-anchor="start" x="403" y="-785.5" font-family="Helvetica,sans-Serif" font-size="10.00">okw.SeButton.SeButton</text>
<text text-anchor="start" x="403" y="-774.5" font-family="Helvetica,sans-Serif" font-size="10.00">_EN_Test.tcVerifyIsActive</text>
<text text-anchor="middle" x="462" y="-763.5" font-family="Helvetica,sans-Serif" font-size="10.00">_ActiveNOExpectedYES</text>
</a>
</g>
</g>
<!-- Node3766&#45;&gt;Node3782 -->
<g id="edge17" class="edge"><title>Node3766&#45;&gt;Node3782</title>
<path fill="none" stroke="midnightblue" d="M294.981,-824.575C313.719,-819.165 335.943,-812.758 356,-807 368.574,-803.39 381.997,-799.547 394.899,-795.858"/>
<polygon fill="midnightblue" stroke="midnightblue" points="293.885,-821.249 285.248,-827.386 295.827,-827.974 293.885,-821.249"/>
</g>
<!-- Node3783 -->
<g id="node19" class="node"><title>Node3783</title>
<g id="a_node19"><a xlink:href="classokw_1_1_se_input_checkbox_1_1_se_input_checkbox___e_n___test.html#ad572d5badb79741c496835cbb5c2d6df" target="_top" xlink:title="Prüft die SetFocusFunktion bei Textfelder mit dem Attribute &quot;ReadOnly&quot;. ">
<polygon fill="white" stroke="black" points="383,-708 383,-738 541,-738 541,-708 383,-708"/>
<text text-anchor="start" x="391" y="-726" font-family="Helvetica,sans-Serif" font-size="10.00">okw.SeInputCheckbox.SeInput</text>
<text text-anchor="middle" x="462" y="-715" font-family="Helvetica,sans-Serif" font-size="10.00">Checkbox_EN_Test.tcSetFocus</text>
</a>
</g>
</g>
<!-- Node3766&#45;&gt;Node3783 -->
<g id="edge18" class="edge"><title>Node3766&#45;&gt;Node3783</title>
<path fill="none" stroke="midnightblue" d="M266.898,-819.75C285.608,-799.217 319.684,-765.403 356,-747 364.423,-742.731 373.609,-739.213 382.929,-736.315"/>
<polygon fill="midnightblue" stroke="midnightblue" points="264.116,-817.611 260.075,-827.405 269.341,-822.269 264.116,-817.611"/>
</g>
<!-- Node3784 -->
<g id="node20" class="node"><title>Node3784</title>
<g id="a_node20"><a xlink:href="classokw_1_1_se_input_field_1_1_se_input_field___e_n___test.html#a009c63f6089c85d3a4cdeeca992a729d" target="_top" xlink:title="Test des Schlüsselwortes &quot;VerifyValue( FN, ExpVal ) für SeInputText. ">
<polygon fill="white" stroke="black" points="386,-659 386,-689 538,-689 538,-659 386,-659"/>
<text text-anchor="start" x="394" y="-677" font-family="Helvetica,sans-Serif" font-size="10.00">okw.SeInputField.SeInput</text>
<text text-anchor="middle" x="462" y="-666" font-family="Helvetica,sans-Serif" font-size="10.00">Field_EN_Test.tcVerifyCaption</text>
</a>
</g>
</g>
<!-- Node3766&#45;&gt;Node3784 -->
<g id="edge19" class="edge"><title>Node3766&#45;&gt;Node3784</title>
<path fill="none" stroke="midnightblue" d="M260.825,-818.093C275.898,-787.972 309.537,-729.399 356,-699 365.016,-693.101 375.28,-688.591 385.775,-685.143"/>
<polygon fill="midnightblue" stroke="midnightblue" points="257.654,-816.611 256.434,-827.136 263.951,-819.669 257.654,-816.611"/>
</g>
<!-- Node3785 -->
<g id="node21" class="node"><title>Node3785</title>
<g id="a_node21"><a xlink:href="classokw_1_1_se_input_field_1_1_se_input_field___e_n___test.html#a27d58cefa1bfc6754c9183baf8d6a41b" target="_top" xlink:title="okw.SeInputField.SeInput\lField_EN_Test.tcSelect\l_OKWGUIObjectNotFoundException">
<polygon fill="white" stroke="black" points="372.5,-599.5 372.5,-640.5 551.5,-640.5 551.5,-599.5 372.5,-599.5"/>
<text text-anchor="start" x="380.5" y="-628.5" font-family="Helvetica,sans-Serif" font-size="10.00">okw.SeInputField.SeInput</text>
<text text-anchor="start" x="380.5" y="-617.5" font-family="Helvetica,sans-Serif" font-size="10.00">Field_EN_Test.tcSelect</text>
<text text-anchor="middle" x="462" y="-606.5" font-family="Helvetica,sans-Serif" font-size="10.00">_OKWGUIObjectNotFoundException</text>
</a>
</g>
</g>
<!-- Node3766&#45;&gt;Node3785 -->
<g id="edge20" class="edge"><title>Node3766&#45;&gt;Node3785</title>
<path fill="none" stroke="midnightblue" d="M257.436,-817.209C268.973,-778.97 299.586,-694.765 356,-650 361.049,-645.993 366.61,-642.522 372.456,-639.514"/>
<polygon fill="midnightblue" stroke="midnightblue" points="253.989,-816.529 254.571,-827.108 260.713,-818.475 253.989,-816.529"/>
</g>
<!-- Node3786 -->
<g id="node22" class="node"><title>Node3786</title>
<g id="a_node22"><a xlink:href="classokw_1_1_se_input_radio_1_1_se_input_radio___e_n___test.html#a103a3f8f0538a52349d5309f5cfc0a82" target="_top" xlink:title="Test des Schlüsselwortes VerifyIsActive für den GUI&#45;Adapter SeInputRadio. ">
<polygon fill="white" stroke="black" points="380,-539.5 380,-580.5 544,-580.5 544,-539.5 380,-539.5"/>
<text text-anchor="start" x="388" y="-568.5" font-family="Helvetica,sans-Serif" font-size="10.00">okw.SeInputRadio.SeInput</text>
<text text-anchor="start" x="388" y="-557.5" font-family="Helvetica,sans-Serif" font-size="10.00">Radio_EN_Test.tc_VerifyIsActive</text>
<text text-anchor="middle" x="462" y="-546.5" font-family="Helvetica,sans-Serif" font-size="10.00">_ActiveYESExpectedYES</text>
</a>
</g>
</g>
<!-- Node3766&#45;&gt;Node3786 -->
<g id="edge21" class="edge"><title>Node3766&#45;&gt;Node3786</title>
<path fill="none" stroke="midnightblue" d="M254.461,-817.528C261.391,-771 285.397,-652.587 356,-590 363.023,-583.775 371.255,-578.835 379.967,-574.917"/>
<polygon fill="midnightblue" stroke="midnightblue" points="250.985,-817.114 253.079,-827.5 257.919,-818.075 250.985,-817.114"/>
</g>
<!-- Node3787 -->
<g id="node23" class="node"><title>Node3787</title>
<g id="a_node23"><a xlink:href="classokw_1_1_se_input_radio_1_1_se_input_radio___e_n___test.html#aeafdb24cf304342ae936e3f26fa9a6f8" target="_top" xlink:title="Test des Schlüsselwortes VerifyIsActive für den GUI&#45;Adapter SeInputRadio. ">
<polygon fill="white" stroke="black" points="380,-479.5 380,-520.5 544,-520.5 544,-479.5 380,-479.5"/>
<text text-anchor="start" x="388" y="-508.5" font-family="Helvetica,sans-Serif" font-size="10.00">okw.SeInputRadio.SeInput</text>
<text text-anchor="start" x="388" y="-497.5" font-family="Helvetica,sans-Serif" font-size="10.00">Radio_EN_Test.tc_VerifyIsActive</text>
<text text-anchor="middle" x="462" y="-486.5" font-family="Helvetica,sans-Serif" font-size="10.00">_ActiveYESExpectedNO</text>
</a>
</g>
</g>
<!-- Node3766&#45;&gt;Node3787 -->
<g id="edge22" class="edge"><title>Node3766&#45;&gt;Node3787</title>
<path fill="none" stroke="midnightblue" d="M252.652,-817.334C255.537,-763.227 271.18,-610.817 356,-530 362.863,-523.461 371.05,-518.332 379.783,-514.311"/>
<polygon fill="midnightblue" stroke="midnightblue" points="249.155,-817.181 252.21,-827.326 256.149,-817.491 249.155,-817.181"/>
</g>
<!-- Node3788 -->
<g id="node24" class="node"><title>Node3788</title>
<g id="a_node24"><a xlink:href="classokw_1_1_se_input_radio_1_1_se_input_radio___e_n___test.html#a1d4ca06f67bb39c879f1c103dd8d2e65" target="_top" xlink:title="Test des Schlüsselwortes VerifyIsActive für den GUI&#45;Adapter SeInputRadio. ">
<polygon fill="white" stroke="black" points="380,-419.5 380,-460.5 544,-460.5 544,-419.5 380,-419.5"/>
<text text-anchor="start" x="388" y="-448.5" font-family="Helvetica,sans-Serif" font-size="10.00">okw.SeInputRadio.SeInput</text>
<text text-anchor="start" x="388" y="-437.5" font-family="Helvetica,sans-Serif" font-size="10.00">Radio_EN_Test.tc_VerifyIsActive</text>
<text text-anchor="middle" x="462" y="-426.5" font-family="Helvetica,sans-Serif" font-size="10.00">_ActiveNOExpectedNO</text>
</a>
</g>
</g>
<!-- Node3766&#45;&gt;Node3788 -->
<g id="edge23" class="edge"><title>Node3766&#45;&gt;Node3788</title>
<path fill="none" stroke="midnightblue" d="M251.376,-817.283C250.571,-756.405 256.685,-569.53 356,-470 362.83,-463.156 371.105,-457.848 379.98,-453.736"/>
<polygon fill="midnightblue" stroke="midnightblue" points="247.88,-817.504 251.595,-827.426 254.878,-817.353 247.88,-817.504"/>
</g>
<!-- Node3789 -->
<g id="node25" class="node"><title>Node3789</title>
<g id="a_node25"><a xlink:href="classokw_1_1_se_input_radio_1_1_se_input_radio___e_n___test.html#ac58cbe6fdf4024220f5e0fa62fb4cdc2" target="_top" xlink:title="Test des Schlüsselwortes VerifyIsActive für den GUI&#45;Adapter SeInputRadio. ">
<polygon fill="white" stroke="black" points="380,-359.5 380,-400.5 544,-400.5 544,-359.5 380,-359.5"/>
<text text-anchor="start" x="388" y="-388.5" font-family="Helvetica,sans-Serif" font-size="10.00">okw.SeInputRadio.SeInput</text>
<text text-anchor="start" x="388" y="-377.5" font-family="Helvetica,sans-Serif" font-size="10.00">Radio_EN_Test.tc_VerifyIsActive</text>
<text text-anchor="middle" x="462" y="-366.5" font-family="Helvetica,sans-Serif" font-size="10.00">_ActiveNOExpectedYES</text>
</a>
</g>
</g>
<!-- Node3766&#45;&gt;Node3789 -->
<g id="edge24" class="edge"><title>Node3766&#45;&gt;Node3789</title>
<path fill="none" stroke="midnightblue" d="M254.174,-817.344C262.923,-741.677 297.907,-470.427 356,-410 362.767,-402.961 371.06,-397.541 379.992,-393.372"/>
<polygon fill="midnightblue" stroke="midnightblue" points="250.683,-817.066 253.034,-827.396 257.639,-817.854 250.683,-817.066"/>
</g>
<!-- Node3790 -->
<g id="node26" class="node"><title>Node3790</title>
<g id="a_node26"><a xlink:href="classokw_1_1_se_link_1_1_se_link___e_n___test.html#a0d7cb7adb422a225193c319cbe82de54" target="_top" xlink:title="Prüft ob die VerifyIsActive die Ausnahme OKWFrameObjectMethodNotImplemented auslöst. ">
<polygon fill="white" stroke="black" points="397,-311 397,-341 527,-341 527,-311 397,-311"/>
<text text-anchor="start" x="405" y="-329" font-family="Helvetica,sans-Serif" font-size="10.00">okw.SeLink.SeLink_EN</text>
<text text-anchor="middle" x="462" y="-318" font-family="Helvetica,sans-Serif" font-size="10.00">_Test.tcVerifyIsActive_en</text>
</a>
</g>
</g>
<!-- Node3766&#45;&gt;Node3790 -->
<g id="edge25" class="edge"><title>Node3766&#45;&gt;Node3790</title>
<path fill="none" stroke="midnightblue" d="M253.446,-817.19C259.881,-734.543 288.613,-418.359 356,-350 366.896,-338.947 381.764,-332.539 396.883,-328.925"/>
<polygon fill="midnightblue" stroke="midnightblue" points="249.949,-817.016 252.685,-827.251 256.93,-817.544 249.949,-817.016"/>
</g>
<!-- Node3791 -->
<g id="node27" class="node"><title>Node3791</title>
<g id="a_node27"><a xlink:href="classokw_1_1_se_m_a_x_i_m_i_z_e_1_1_se_m_a_x_i_m_i_z_e___e_n___test.html#ad1343eba452b03a2767bcdc7b7197746" target="_top" xlink:title="Prüft, ob die Methode VerifyIsActive für MAXIMIZE implementiert ist. ">
<polygon fill="white" stroke="black" points="381,-262 381,-292 543,-292 543,-262 381,-262"/>
<text text-anchor="start" x="389" y="-280" font-family="Helvetica,sans-Serif" font-size="10.00">okw.SeMAXIMIZE.SeMAXIMIZE</text>
<text text-anchor="middle" x="462" y="-269" font-family="Helvetica,sans-Serif" font-size="10.00">_EN_Test.tcVerifyIsActive</text>
</a>
</g>
</g>
<!-- Node3766&#45;&gt;Node3791 -->
<g id="edge26" class="edge"><title>Node3766&#45;&gt;Node3791</title>
<path fill="none" stroke="midnightblue" d="M253.066,-816.972C258.154,-729.055 282.819,-378.301 356,-302 362.939,-294.765 371.564,-289.462 380.867,-285.599"/>
<polygon fill="midnightblue" stroke="midnightblue" points="249.56,-816.996 252.497,-827.176 256.549,-817.386 249.56,-816.996"/>
</g>
<!-- Node3792 -->
<g id="node28" class="node"><title>Node3792</title>
<g id="a_node28"><a xlink:href="classokw_1_1_se_radio_list_1_1_se_radio_list___e_n___test.html#a15a728ef8e75aaa8dba0f259ec3c4d3a" target="_top" xlink:title="Prüft die Methode SeRadioList.IsActive(). ">
<polygon fill="white" stroke="black" points="388.5,-202.5 388.5,-243.5 535.5,-243.5 535.5,-202.5 388.5,-202.5"/>
<text text-anchor="start" x="396.5" y="-231.5" font-family="Helvetica,sans-Serif" font-size="10.00">okw.SeRadioList.SeRadioList</text>
<text text-anchor="start" x="396.5" y="-220.5" font-family="Helvetica,sans-Serif" font-size="10.00">_EN_Test.tcVerifyIsActive</text>
<text text-anchor="middle" x="462" y="-209.5" font-family="Helvetica,sans-Serif" font-size="10.00">_IsActiveYesExpectedYes</text>
</a>
</g>
</g>
<!-- Node3766&#45;&gt;Node3792 -->
<g id="edge27" class="edge"><title>Node3766&#45;&gt;Node3792</title>
<path fill="none" stroke="midnightblue" d="M252.797,-817.021C256.882,-724.548 278.403,-338.95 356,-253 364.639,-243.431 376.097,-236.829 388.267,-232.292"/>
<polygon fill="midnightblue" stroke="midnightblue" points="249.291,-817.092 252.365,-827.231 256.285,-817.388 249.291,-817.092"/>
</g>
<!-- Node3793 -->
<g id="node29" class="node"><title>Node3793</title>
<g id="a_node29"><a xlink:href="classokw_1_1_se_radio_list_1_1_se_radio_list___e_n___test.html#ab578bc0d5f70f96f96db2f2c26895cb2" target="_top" xlink:title="Prüft die Methode SeRadioList.IsActive(). ">
<polygon fill="white" stroke="black" points="388.5,-142.5 388.5,-183.5 535.5,-183.5 535.5,-142.5 388.5,-142.5"/>
<text text-anchor="start" x="396.5" y="-171.5" font-family="Helvetica,sans-Serif" font-size="10.00">okw.SeRadioList.SeRadioList</text>
<text text-anchor="start" x="396.5" y="-160.5" font-family="Helvetica,sans-Serif" font-size="10.00">_EN_Test.tcVerifyIsActive</text>
<text text-anchor="middle" x="462" y="-149.5" font-family="Helvetica,sans-Serif" font-size="10.00">_IsActiveNoExpectedNo</text>
</a>
</g>
</g>
<!-- Node3766&#45;&gt;Node3793 -->
<g id="edge28" class="edge"><title>Node3766&#45;&gt;Node3793</title>
<path fill="none" stroke="midnightblue" d="M252.43,-817.176C254.952,-719.347 270.81,-288.905 356,-193 364.625,-183.291 376.151,-176.629 388.41,-172.08"/>
<polygon fill="midnightblue" stroke="midnightblue" points="248.931,-817.109 252.19,-827.19 255.929,-817.277 248.931,-817.109"/>
</g>
<!-- Node3794 -->
<g id="node30" class="node"><title>Node3794</title>
<g id="a_node30"><a xlink:href="classokw_1_1_se_radio_list_1_1_se_radio_list___e_n___test.html#a19bc66e33e21e3f1858b79cd2ba6b37a" target="_top" xlink:title="Prüft die Methode SeRadioList.IsActive(). ">
<polygon fill="white" stroke="black" points="363.5,-71 363.5,-123 560.5,-123 560.5,-71 363.5,-71"/>
<text text-anchor="start" x="371.5" y="-111" font-family="Helvetica,sans-Serif" font-size="10.00">okw.SeRadioList.SeRadioList</text>
<text text-anchor="start" x="371.5" y="-100" font-family="Helvetica,sans-Serif" font-size="10.00">_EN_Test.tcVerifyIsActive</text>
<text text-anchor="start" x="371.5" y="-89" font-family="Helvetica,sans-Serif" font-size="10.00">_IsActiveYesExpectedNo_OKWVerifying</text>
<text text-anchor="middle" x="462" y="-78" font-family="Helvetica,sans-Serif" font-size="10.00">FailsException</text>
</a>
</g>
</g>
<!-- Node3766&#45;&gt;Node3794 -->
<g id="edge29" class="edge"><title>Node3766&#45;&gt;Node3794</title>
<path fill="none" stroke="midnightblue" d="M252.235,-817.09C253.839,-713.965 266.067,-241.173 356,-133 358.957,-129.444 362.282,-126.238 365.881,-123.348"/>
<polygon fill="midnightblue" stroke="midnightblue" points="248.732,-817.276 252.093,-827.324 255.731,-817.373 248.732,-817.276"/>
</g>
<!-- Node3795 -->
<g id="node31" class="node"><title>Node3795</title>
<g id="a_node31"><a xlink:href="classokw_1_1_se_radio_list_1_1_se_radio_list___e_n___test.html#a4f34676079afa812c5891ade99cb2161" target="_top" xlink:title="Prüft die Methode SeRadioList.IsActive(). ">
<polygon fill="white" stroke="black" points="363.5,-0 363.5,-52 560.5,-52 560.5,-0 363.5,-0"/>
<text text-anchor="start" x="371.5" y="-40" font-family="Helvetica,sans-Serif" font-size="10.00">okw.SeRadioList.SeRadioList</text>
<text text-anchor="start" x="371.5" y="-29" font-family="Helvetica,sans-Serif" font-size="10.00">_EN_Test.tcVerifyIsActive</text>
<text text-anchor="start" x="371.5" y="-18" font-family="Helvetica,sans-Serif" font-size="10.00">_IsActiveNoExpectedYes_OKWVerifying</text>
<text text-anchor="middle" x="462" y="-7" font-family="Helvetica,sans-Serif" font-size="10.00">FailsException</text>
</a>
</g>
</g>
<!-- Node3766&#45;&gt;Node3795 -->
<g id="edge30" class="edge"><title>Node3766&#45;&gt;Node3795</title>
<path fill="none" stroke="midnightblue" d="M251.937,-817.182C251.98,-708.186 257.359,-182.262 356,-62 358.933,-58.424 362.239,-55.2021 365.822,-52.2994"/>
<polygon fill="midnightblue" stroke="midnightblue" points="248.437,-817.4 251.949,-827.396 255.437,-817.392 248.437,-817.4"/>
</g>
</g>
</svg>
        <g id="navigator" transform="translate(0 0)" fill="#404254">
                <rect fill="#f2f5e9" fill-opacity="0.5" stroke="#606060" stroke-width=".5" x="0" y="0" width="60" height="60"/>
                <use id="zoomplus" xlink:href="#zoomPlus" x="17" y="9" onmousedown="handleZoom(evt,'in')"/>
                <use id="zoomminus" xlink:href="#zoomMin" x="42" y="9" onmousedown="handleZoom(evt,'out')"/>
                <use id="reset" xlink:href="#resetDef" x="30" y="36" onmousedown="handleReset()"/>
                <g id="arrowUp" xlink:href="#dirArrow" transform="translate(30 24)" onmousedown="handlePan(0,-1)">
                  <use xlink:href="#rim" fill="#404040">
                        <set attributeName="fill" to="#808080" begin="arrowUp.mouseover" end="arrowUp.mouseout"/>
                  </use>
                  <path fill="none" stroke="white" stroke-width="1.5" d="M0,-3.0v7 M-2.5,-0.5L0,-3.0L2.5,-0.5"/>
                </g>
                <g id="arrowRight" xlink:href="#dirArrow" transform="rotate(90) translate(36 -43)" onmousedown="handlePan(1,0)">
                  <use xlink:href="#rim" fill="#404040">
                        <set attributeName="fill" to="#808080" begin="arrowRight.mouseover" end="arrowRight.mouseout"/>
                  </use>
                  <path fill="none" stroke="white" stroke-width="1.5" d="M0,-3.0v7 M-2.5,-0.5L0,-3.0L2.5,-0.5"/>
                </g>
                <g id="arrowDown" xlink:href="#dirArrow" transform="rotate(180) translate(-30 -48)" onmousedown="handlePan(0,1)">
                  <use xlink:href="#rim" fill="#404040">
                        <set attributeName="fill" to="#808080" begin="arrowDown.mouseover" end="arrowDown.mouseout"/>
                  </use>
                  <path fill="none" stroke="white" stroke-width="1.5" d="M0,-3.0v7 M-2.5,-0.5L0,-3.0L2.5,-0.5"/>
                </g>
                <g id="arrowLeft" xlink:href="#dirArrow" transform="rotate(270) translate(-36 17)" onmousedown="handlePan(-1,0)">
                  <use xlink:href="#rim" fill="#404040">
                        <set attributeName="fill" to="#808080" begin="arrowLeft.mouseover" end="arrowLeft.mouseout"/>
                  </use>
                  <path fill="none" stroke="white" stroke-width="1.5" d="M0,-3.0v7 M-2.5,-0.5L0,-3.0L2.5,-0.5"/>
                </g>
        </g>
        <svg viewBox="0 0 15 15" width="100%" height="30px" preserveAspectRatio="xMaxYMin meet">
         <g id="arrow_out" transform="scale(0.3 0.3)">
          <a xlink:href="classokw_1_1core_1_1_core_af9261f054d5a82396c678851ade66b1b_icgraph_org.svg" target="_base">
           <rect id="button" ry="5" rx="5" y="6" x="6" height="38" width="38"
                fill="#f2f5e9" fill-opacity="0.5" stroke="#606060" stroke-width="1.0"/>
           <path id="arrow"
             d="M 11.500037,31.436501 C 11.940474,20.09759 22.043105,11.32322 32.158766,21.979434 L 37.068811,17.246167 C 37.068811,17.246167 37.088388,32 37.088388,32 L 22.160133,31.978069 C 22.160133,31.978069 26.997745,27.140456 26.997745,27.140456 C 18.528582,18.264221 13.291696,25.230495 11.500037,31.436501 z"
             style="fill:#404040;"/>
          </a>
         </g>
        </svg>
</svg>
