<?xml version="1.0" encoding="UTF-8" standalone="no"?>
<!DOCTYPE svg PUBLIC "-//W3C//DTD SVG 1.1//EN"
 "http://www.w3.org/Graphics/SVG/1.1/DTD/svg11.dtd">
<!-- Generated by graphviz version 2.38.0 (20140413.2041)
 -->
<!-- Title: okw.gui.adapter.selenium.SeInputCheckbox Pages: 1 -->
<svg width="1114pt" height="1884pt"
 viewBox="0.00 0.00 1114.00 1884.00" xmlns="http://www.w3.org/2000/svg" xmlns:xlink="http://www.w3.org/1999/xlink">
<g id="graph0" class="graph" transform="scale(1 1) rotate(0) translate(4 1880)">
<title>okw.gui.adapter.selenium.SeInputCheckbox</title>
<polygon fill="white" stroke="none" points="-4,4 -4,-1880 1110,-1880 1110,4 -4,4"/>
<!-- Node6 -->
<g id="node1" class="node"><title>Node6</title>
<g id="a_node1"><a xlink:title="Diese Klasse representiert einen &lt;input type=&quot;checkbox&quot;&gt;&#45;Tag, der mit Selenium angsteuert wird.">
<polygon fill="#bfbfbf" stroke="black" points="536,-0.5 536,-134.5 676,-134.5 676,-0.5 536,-0.5"/>
<text text-anchor="start" x="544" y="-122.5" font-family="Helvetica,sans-Serif" font-size="10.00">okw.gui.adapter.selenium.</text>
<text text-anchor="middle" x="606" y="-111.5" font-family="Helvetica,sans-Serif" font-size="10.00">SeInputCheckbox</text>
<polyline fill="none" stroke="black" points="536,-104.5 676,-104.5 "/>
<text text-anchor="middle" x="606" y="-92.5" font-family="Helvetica,sans-Serif" font-size="10.00"> </text>
<polyline fill="none" stroke="black" points="536,-85.5 676,-85.5 "/>
<text text-anchor="start" x="544" y="-73.5" font-family="Helvetica,sans-Serif" font-size="10.00">+ SeInputCheckbox()</text>
<text text-anchor="start" x="544" y="-62.5" font-family="Helvetica,sans-Serif" font-size="10.00">+ getIsSelected()</text>
<text text-anchor="start" x="544" y="-51.5" font-family="Helvetica,sans-Serif" font-size="10.00">+ checking()</text>
<text text-anchor="start" x="544" y="-40.5" font-family="Helvetica,sans-Serif" font-size="10.00">+ getValue()</text>
<text text-anchor="start" x="544" y="-29.5" font-family="Helvetica,sans-Serif" font-size="10.00">+ SetValue()</text>
<text text-anchor="start" x="544" y="-18.5" font-family="Helvetica,sans-Serif" font-size="10.00">+ Select()</text>
<text text-anchor="start" x="544" y="-7.5" font-family="Helvetica,sans-Serif" font-size="10.00">+ unchecking()</text>
</a>
</g>
</g>
<!-- Node7 -->
<g id="node2" class="node"><title>Node7</title>
<g id="a_node2"><a xlink:href="classokw_1_1gui_1_1adapter_1_1selenium_1_1_se_any_child_window.html" target="_top" xlink:title=" ">
<polygon fill="white" stroke="black" points="406,-182.5 406,-470.5 546,-470.5 546,-182.5 406,-182.5"/>
<text text-anchor="start" x="414" y="-458.5" font-family="Helvetica,sans-Serif" font-size="10.00">okw.gui.adapter.selenium.</text>
<text text-anchor="middle" x="476" y="-447.5" font-family="Helvetica,sans-Serif" font-size="10.00">SeAnyChildWindow</text>
<polyline fill="none" stroke="black" points="406,-440.5 546,-440.5 "/>
<text text-anchor="start" x="414" y="-428.5" font-family="Helvetica,sans-Serif" font-size="10.00"># iframeID</text>
<polyline fill="none" stroke="black" points="406,-421.5 546,-421.5 "/>
<text text-anchor="start" x="414" y="-409.5" font-family="Helvetica,sans-Serif" font-size="10.00">+ get_iframeID()</text>
<text text-anchor="start" x="414" y="-398.5" font-family="Helvetica,sans-Serif" font-size="10.00">+ set_iframeID()</text>
<text text-anchor="start" x="414" y="-387.5" font-family="Helvetica,sans-Serif" font-size="10.00">+ SeAnyChildWindow()</text>
<text text-anchor="start" x="414" y="-376.5" font-family="Helvetica,sans-Serif" font-size="10.00">+ SeAnyChildWindow()</text>
<text text-anchor="start" x="414" y="-365.5" font-family="Helvetica,sans-Serif" font-size="10.00">+ ClickOn()</text>
<text text-anchor="start" x="414" y="-354.5" font-family="Helvetica,sans-Serif" font-size="10.00">+ getCaption()</text>
<text text-anchor="start" x="414" y="-343.5" font-family="Helvetica,sans-Serif" font-size="10.00">+ getExists()</text>
<text text-anchor="start" x="414" y="-332.5" font-family="Helvetica,sans-Serif" font-size="10.00">+ getHasFocus()</text>
<text text-anchor="start" x="414" y="-321.5" font-family="Helvetica,sans-Serif" font-size="10.00">+ getIsActive()</text>
<text text-anchor="start" x="414" y="-310.5" font-family="Helvetica,sans-Serif" font-size="10.00">+ getLabel()</text>
<text text-anchor="start" x="414" y="-299.5" font-family="Helvetica,sans-Serif" font-size="10.00">+ getTooltip()</text>
<text text-anchor="start" x="414" y="-288.5" font-family="Helvetica,sans-Serif" font-size="10.00">+ getValue()</text>
<text text-anchor="start" x="414" y="-277.5" font-family="Helvetica,sans-Serif" font-size="10.00">+ LogCaption()</text>
<text text-anchor="start" x="414" y="-266.5" font-family="Helvetica,sans-Serif" font-size="10.00">+ LogExists()</text>
<text text-anchor="start" x="414" y="-255.5" font-family="Helvetica,sans-Serif" font-size="10.00">+ LogHasFocus()</text>
<text text-anchor="start" x="414" y="-244.5" font-family="Helvetica,sans-Serif" font-size="10.00">+ LogIsActive()</text>
<text text-anchor="start" x="414" y="-233.5" font-family="Helvetica,sans-Serif" font-size="10.00">+ LogLabel()</text>
<text text-anchor="start" x="414" y="-222.5" font-family="Helvetica,sans-Serif" font-size="10.00">+ LogPlaceholder()</text>
<text text-anchor="start" x="414" y="-211.5" font-family="Helvetica,sans-Serif" font-size="10.00">+ LogTooltip()</text>
<text text-anchor="start" x="414" y="-200.5" font-family="Helvetica,sans-Serif" font-size="10.00">+ LogValue()</text>
<text text-anchor="start" x="414" y="-189.5" font-family="Helvetica,sans-Serif" font-size="10.00">und 26 mehr ...</text>
</a>
</g>
</g>
<!-- Node7&#45;&gt;Node6 -->
<g id="edge1" class="edge"><title>Node7&#45;&gt;Node6</title>
<path fill="none" stroke="midnightblue" d="M550.851,-177.525C558.392,-162.618 565.751,-148.07 572.51,-134.707"/>
<polygon fill="none" stroke="midnightblue" points="547.527,-176.342 546.137,-186.845 553.774,-179.501 547.527,-176.342"/>
</g>
<!-- Node8 -->
<g id="node3" class="node"><title>Node8</title>
<g id="a_node3"><a xlink:href="classokw_1_1gui_1_1_any_childwindow.html" target="_top" xlink:title=" ">
<polygon fill="white" stroke="black" points="216.5,-518.5 216.5,-795.5 345.5,-795.5 345.5,-518.5 216.5,-518.5"/>
<text text-anchor="middle" x="281" y="-783.5" font-family="Helvetica,sans-Serif" font-size="10.00">okw.gui.AnyChildwindow</text>
<polyline fill="none" stroke="black" points="216.5,-776.5 345.5,-776.5 "/>
<text text-anchor="middle" x="281" y="-764.5" font-family="Helvetica,sans-Serif" font-size="10.00"> </text>
<polyline fill="none" stroke="black" points="216.5,-757.5 345.5,-757.5 "/>
<text text-anchor="start" x="224.5" y="-745.5" font-family="Helvetica,sans-Serif" font-size="10.00">+ getExists()</text>
<text text-anchor="start" x="224.5" y="-734.5" font-family="Helvetica,sans-Serif" font-size="10.00">+ getHasFocus()</text>
<text text-anchor="start" x="224.5" y="-723.5" font-family="Helvetica,sans-Serif" font-size="10.00">+ getIsActive()</text>
<text text-anchor="start" x="224.5" y="-712.5" font-family="Helvetica,sans-Serif" font-size="10.00">+ getCaption()</text>
<text text-anchor="start" x="224.5" y="-701.5" font-family="Helvetica,sans-Serif" font-size="10.00">+ getTooltip()</text>
<text text-anchor="start" x="224.5" y="-690.5" font-family="Helvetica,sans-Serif" font-size="10.00">+ getPlaceholder()</text>
<text text-anchor="start" x="224.5" y="-679.5" font-family="Helvetica,sans-Serif" font-size="10.00">+ getLabel()</text>
<text text-anchor="start" x="224.5" y="-668.5" font-family="Helvetica,sans-Serif" font-size="10.00">+ getMaxLength()</text>
<text text-anchor="start" x="224.5" y="-657.5" font-family="Helvetica,sans-Serif" font-size="10.00">+ getValue()</text>
<text text-anchor="start" x="224.5" y="-646.5" font-family="Helvetica,sans-Serif" font-size="10.00">+ ClickOn()</text>
<text text-anchor="start" x="224.5" y="-635.5" font-family="Helvetica,sans-Serif" font-size="10.00">+ DoubleClickOn()</text>
<text text-anchor="start" x="224.5" y="-624.5" font-family="Helvetica,sans-Serif" font-size="10.00">+ LogCaption()</text>
<text text-anchor="start" x="224.5" y="-613.5" font-family="Helvetica,sans-Serif" font-size="10.00">+ LogExists()</text>
<text text-anchor="start" x="224.5" y="-602.5" font-family="Helvetica,sans-Serif" font-size="10.00">+ LogHasFocus()</text>
<text text-anchor="start" x="224.5" y="-591.5" font-family="Helvetica,sans-Serif" font-size="10.00">+ LogIsActive()</text>
<text text-anchor="start" x="224.5" y="-580.5" font-family="Helvetica,sans-Serif" font-size="10.00">+ LogLabel()</text>
<text text-anchor="start" x="224.5" y="-569.5" font-family="Helvetica,sans-Serif" font-size="10.00">+ LogPlaceholder()</text>
<text text-anchor="start" x="224.5" y="-558.5" font-family="Helvetica,sans-Serif" font-size="10.00">+ LogSelected()</text>
<text text-anchor="start" x="224.5" y="-547.5" font-family="Helvetica,sans-Serif" font-size="10.00">+ LogTablecellValue()</text>
<text text-anchor="start" x="224.5" y="-536.5" font-family="Helvetica,sans-Serif" font-size="10.00">+ LogTooltip()</text>
<text text-anchor="start" x="224.5" y="-525.5" font-family="Helvetica,sans-Serif" font-size="10.00">und 32 mehr ...</text>
</a>
</g>
</g>
<!-- Node8&#45;&gt;Node7 -->
<g id="edge2" class="edge"><title>Node8&#45;&gt;Node7</title>
<path fill="none" stroke="midnightblue" d="M350.92,-538.211C368.821,-508.055 388.074,-475.622 405.98,-445.458"/>
<polygon fill="none" stroke="midnightblue" points="347.756,-536.685 345.661,-547.071 353.776,-540.258 347.756,-536.685"/>
</g>
<!-- Node9 -->
<g id="node4" class="node"><title>Node9</title>
<g id="a_node4"><a xlink:href="classokw_1_1gui_1_1_any_win_base.html" target="_top" xlink:title="Description of AnyWin.">
<polygon fill="white" stroke="black" points="0,-843.5 0,-1175.5 148,-1175.5 148,-843.5 0,-843.5"/>
<text text-anchor="middle" x="74" y="-1163.5" font-family="Helvetica,sans-Serif" font-size="10.00">okw.gui.AnyWinBase</text>
<polyline fill="none" stroke="black" points="0,-1156.5 148,-1156.5 "/>
<text text-anchor="start" x="8" y="-1144.5" font-family="Helvetica,sans-Serif" font-size="10.00">&#45; myFN</text>
<text text-anchor="start" x="8" y="-1133.5" font-family="Helvetica,sans-Serif" font-size="10.00">&#45; myKN</text>
<text text-anchor="start" x="8" y="-1122.5" font-family="Helvetica,sans-Serif" font-size="10.00">&#45; myParentFN</text>
<polyline fill="none" stroke="black" points="0,-1115.5 148,-1115.5 "/>
<text text-anchor="start" x="8" y="-1103.5" font-family="Helvetica,sans-Serif" font-size="10.00">+ getLocator()</text>
<text text-anchor="start" x="8" y="-1092.5" font-family="Helvetica,sans-Serif" font-size="10.00">+ getLOCATOR()</text>
<text text-anchor="start" x="8" y="-1081.5" font-family="Helvetica,sans-Serif" font-size="10.00">+ setLocator()</text>
<text text-anchor="start" x="8" y="-1070.5" font-family="Helvetica,sans-Serif" font-size="10.00">+ getExists()</text>
<text text-anchor="start" x="8" y="-1059.5" font-family="Helvetica,sans-Serif" font-size="10.00">+ AnyWinBase()</text>
<text text-anchor="start" x="8" y="-1048.5" font-family="Helvetica,sans-Serif" font-size="10.00">+ AnyWinBase()</text>
<text text-anchor="start" x="8" y="-1037.5" font-family="Helvetica,sans-Serif" font-size="10.00">+ LogFunctionStartDebug()</text>
<text text-anchor="start" x="8" y="-1026.5" font-family="Helvetica,sans-Serif" font-size="10.00">+ LogFunctionStart()</text>
<text text-anchor="start" x="8" y="-1015.5" font-family="Helvetica,sans-Serif" font-size="10.00">+ LogFunctionStartDebug()</text>
<text text-anchor="start" x="8" y="-1004.5" font-family="Helvetica,sans-Serif" font-size="10.00">+ LogFunctionStart()</text>
<text text-anchor="start" x="8" y="-993.5" font-family="Helvetica,sans-Serif" font-size="10.00">+ LogFunctionEndDebug()</text>
<text text-anchor="start" x="8" y="-982.5" font-family="Helvetica,sans-Serif" font-size="10.00">+ LogFunctionEnd()</text>
<text text-anchor="start" x="8" y="-971.5" font-family="Helvetica,sans-Serif" font-size="10.00">+ LogFunctionEndDebug()</text>
<text text-anchor="start" x="8" y="-960.5" font-family="Helvetica,sans-Serif" font-size="10.00">+ LogFunctionEnd()</text>
<text text-anchor="start" x="8" y="-949.5" font-family="Helvetica,sans-Serif" font-size="10.00">+ LogFunctionEndDebug()</text>
<text text-anchor="start" x="8" y="-938.5" font-family="Helvetica,sans-Serif" font-size="10.00">+ LogFunctionEnd()</text>
<text text-anchor="start" x="8" y="-927.5" font-family="Helvetica,sans-Serif" font-size="10.00">+ LogFunctionEndDebug()</text>
<text text-anchor="start" x="8" y="-916.5" font-family="Helvetica,sans-Serif" font-size="10.00">+ LogFunctionEnd()</text>
<text text-anchor="start" x="8" y="-905.5" font-family="Helvetica,sans-Serif" font-size="10.00">+ getFN()</text>
<text text-anchor="start" x="8" y="-894.5" font-family="Helvetica,sans-Serif" font-size="10.00">+ getKN()</text>
<text text-anchor="start" x="8" y="-883.5" font-family="Helvetica,sans-Serif" font-size="10.00">+ getParentFN()</text>
<text text-anchor="start" x="8" y="-872.5" font-family="Helvetica,sans-Serif" font-size="10.00">+ setFN()</text>
<text text-anchor="start" x="8" y="-861.5" font-family="Helvetica,sans-Serif" font-size="10.00">+ setKN()</text>
<text text-anchor="start" x="8" y="-850.5" font-family="Helvetica,sans-Serif" font-size="10.00">+ setParentFN()</text>
</a>
</g>
</g>
<!-- Node9&#45;&gt;Node8 -->
<g id="edge3" class="edge"><title>Node9&#45;&gt;Node8</title>
<path fill="none" stroke="midnightblue" d="M153.071,-849.809C154.38,-847.519 155.69,-845.248 157,-843 175.106,-811.932 196.422,-779.022 216.225,-749.708"/>
<polygon fill="none" stroke="midnightblue" points="149.901,-848.305 148.031,-858.734 155.996,-851.748 149.901,-848.305"/>
</g>
<!-- Node10 -->
<g id="node5" class="node"><title>Node10</title>
<g id="a_node5"><a xlink:href="classokw_1_1gui_1_1_o_k_w_locator.html" target="_top" xlink:title="Description of OKWLocator.">
<polygon fill="white" stroke="black" points="90,-1223.5 90,-1313.5 202,-1313.5 202,-1223.5 90,-1223.5"/>
<text text-anchor="middle" x="146" y="-1301.5" font-family="Helvetica,sans-Serif" font-size="10.00">okw.gui.OKWLocator</text>
<polyline fill="none" stroke="black" points="90,-1294.5 202,-1294.5 "/>
<text text-anchor="start" x="98" y="-1282.5" font-family="Helvetica,sans-Serif" font-size="10.00">&#45; _locator</text>
<polyline fill="none" stroke="black" points="90,-1275.5 202,-1275.5 "/>
<text text-anchor="start" x="98" y="-1263.5" font-family="Helvetica,sans-Serif" font-size="10.00">+ OKWLocator()</text>
<text text-anchor="start" x="98" y="-1252.5" font-family="Helvetica,sans-Serif" font-size="10.00">+ OKWLocator()</text>
<text text-anchor="start" x="98" y="-1241.5" font-family="Helvetica,sans-Serif" font-size="10.00">+ getLocator()</text>
<text text-anchor="start" x="98" y="-1230.5" font-family="Helvetica,sans-Serif" font-size="10.00">+ setLocator()</text>
</a>
</g>
</g>
<!-- Node10&#45;&gt;Node9 -->
<g id="edge4" class="edge"><title>Node10&#45;&gt;Node9</title>
<path fill="none" stroke="#404040" d="M133.623,-1223.32C130.591,-1212.5 127.159,-1200.25 123.51,-1187.22"/>
<polygon fill="none" stroke="#404040" points="123.489,-1187.15 118.019,-1182.45 120.252,-1175.59 125.722,-1180.29 123.489,-1187.15"/>
<text text-anchor="middle" x="152" y="-1197" font-family="Helvetica,sans-Serif" font-size="10.00"> #_locator</text>
</g>
<!-- Node11 -->
<g id="node6" class="node"><title>Node11</title>
<g id="a_node6"><a xlink:href="classokw_1_1gui_1_1_o_k_w_locator_base.html" target="_top" xlink:title=" ">
<polygon fill="white" stroke="black" points="86,-1521 86,-1611 222,-1611 222,-1521 86,-1521"/>
<text text-anchor="middle" x="154" y="-1599" font-family="Helvetica,sans-Serif" font-size="10.00">okw.gui.OKWLocatorBase</text>
<polyline fill="none" stroke="black" points="86,-1592 222,-1592 "/>
<text text-anchor="middle" x="154" y="-1580" font-family="Helvetica,sans-Serif" font-size="10.00"> </text>
<polyline fill="none" stroke="black" points="86,-1573 222,-1573 "/>
<text text-anchor="start" x="94" y="-1561" font-family="Helvetica,sans-Serif" font-size="10.00">+ OKWLocatorBase()</text>
<text text-anchor="start" x="94" y="-1550" font-family="Helvetica,sans-Serif" font-size="10.00">+ OKWLocatorBase()</text>
<text text-anchor="start" x="94" y="-1539" font-family="Helvetica,sans-Serif" font-size="10.00">~ setLocator()</text>
<text text-anchor="start" x="94" y="-1528" font-family="Helvetica,sans-Serif" font-size="10.00">~ getLocator()</text>
</a>
</g>
</g>
<!-- Node11&#45;&gt;Node10 -->
<g id="edge5" class="edge"><title>Node11&#45;&gt;Node10</title>
<path fill="none" stroke="midnightblue" d="M149.864,-1510.78C146.696,-1463.57 143.02,-1393.29 144,-1332 144.095,-1326.03 144.242,-1319.74 144.414,-1313.54"/>
<polygon fill="none" stroke="midnightblue" points="146.374,-1511.05 150.551,-1520.79 153.358,-1510.57 146.374,-1511.05"/>
</g>
<!-- Node11&#45;&gt;Node10 -->
<g id="edge6" class="edge"><title>Node11&#45;&gt;Node10</title>
<path fill="none" stroke="#404040" d="M152.802,-1520.76C151.396,-1468.82 149.061,-1382.58 147.527,-1325.89"/>
<polygon fill="none" stroke="#404040" points="147.518,-1325.55 143.357,-1319.66 147.193,-1313.56 151.354,-1319.45 147.518,-1325.55"/>
<text text-anchor="middle" x="178.5" y="-1335" font-family="Helvetica,sans-Serif" font-size="10.00"> &#45;_Locatoren</text>
</g>
<!-- Node12 -->
<g id="node7" class="node"><title>Node12</title>
<g id="a_node7"><a xlink:href="classokw_1_1log_1_1_logger___sngltn.html" target="_top" xlink:title=" ">
<polygon fill="white" stroke="black" points="255,-1361.5 255,-1770.5 403,-1770.5 403,-1361.5 255,-1361.5"/>
<text text-anchor="middle" x="329" y="-1758.5" font-family="Helvetica,sans-Serif" font-size="10.00">okw.log.Logger_Sngltn</text>
<polyline fill="none" stroke="black" points="255,-1751.5 403,-1751.5 "/>
<text text-anchor="start" x="263" y="-1739.5" font-family="Helvetica,sans-Serif" font-size="10.00">&#45; cvbDebugMode</text>
<polyline fill="none" stroke="black" points="255,-1732.5 403,-1732.5 "/>
<text text-anchor="start" x="263" y="-1720.5" font-family="Helvetica,sans-Serif" font-size="10.00">+ getDebugMode()</text>
<text text-anchor="start" x="263" y="-1709.5" font-family="Helvetica,sans-Serif" font-size="10.00">+ setDebugMode()</text>
<text text-anchor="start" x="263" y="-1698.5" font-family="Helvetica,sans-Serif" font-size="10.00">+ addLogger()</text>
<text text-anchor="start" x="263" y="-1687.5" font-family="Helvetica,sans-Serif" font-size="10.00">+ reset()</text>
<text text-anchor="start" x="263" y="-1676.5" font-family="Helvetica,sans-Serif" font-size="10.00">+ LogError()</text>
<text text-anchor="start" x="263" y="-1665.5" font-family="Helvetica,sans-Serif" font-size="10.00">+ LogException()</text>
<text text-anchor="start" x="263" y="-1654.5" font-family="Helvetica,sans-Serif" font-size="10.00">+ LogFunctionEnd()</text>
<text text-anchor="start" x="263" y="-1643.5" font-family="Helvetica,sans-Serif" font-size="10.00">+ LogFunctionEnd()</text>
<text text-anchor="start" x="263" y="-1632.5" font-family="Helvetica,sans-Serif" font-size="10.00">+ LogFunctionEnd()</text>
<text text-anchor="start" x="263" y="-1621.5" font-family="Helvetica,sans-Serif" font-size="10.00">+ LogFunctionEnd()</text>
<text text-anchor="start" x="263" y="-1610.5" font-family="Helvetica,sans-Serif" font-size="10.00">+ LogFunctionEndDebug()</text>
<text text-anchor="start" x="263" y="-1599.5" font-family="Helvetica,sans-Serif" font-size="10.00">+ LogFunctionEndDebug()</text>
<text text-anchor="start" x="263" y="-1588.5" font-family="Helvetica,sans-Serif" font-size="10.00">+ LogFunctionEndDebug()</text>
<text text-anchor="start" x="263" y="-1577.5" font-family="Helvetica,sans-Serif" font-size="10.00">+ LogFunctionEndDebug()</text>
<text text-anchor="start" x="263" y="-1566.5" font-family="Helvetica,sans-Serif" font-size="10.00">+ LogFunctionStart()</text>
<text text-anchor="start" x="263" y="-1555.5" font-family="Helvetica,sans-Serif" font-size="10.00">+ LogFunctionStartDebug()</text>
<text text-anchor="start" x="263" y="-1544.5" font-family="Helvetica,sans-Serif" font-size="10.00">+ LogKeyWordEnd()</text>
<text text-anchor="start" x="263" y="-1533.5" font-family="Helvetica,sans-Serif" font-size="10.00">+ LogSequenceEnd()</text>
<text text-anchor="start" x="263" y="-1522.5" font-family="Helvetica,sans-Serif" font-size="10.00">+ LogTestcaseEnd()</text>
<text text-anchor="start" x="263" y="-1511.5" font-family="Helvetica,sans-Serif" font-size="10.00">+ LogKeyWordStart()</text>
<text text-anchor="start" x="263" y="-1500.5" font-family="Helvetica,sans-Serif" font-size="10.00">+ LogSequenceStart()</text>
<text text-anchor="start" x="263" y="-1489.5" font-family="Helvetica,sans-Serif" font-size="10.00">+ LogTestcaseStart()</text>
<text text-anchor="start" x="263" y="-1478.5" font-family="Helvetica,sans-Serif" font-size="10.00">+ LogPass()</text>
<text text-anchor="start" x="263" y="-1467.5" font-family="Helvetica,sans-Serif" font-size="10.00">+ LogPrint()</text>
<text text-anchor="start" x="263" y="-1456.5" font-family="Helvetica,sans-Serif" font-size="10.00">+ LogPrintDebug()</text>
<text text-anchor="start" x="263" y="-1445.5" font-family="Helvetica,sans-Serif" font-size="10.00">+ LogWarning()</text>
<text text-anchor="start" x="263" y="-1434.5" font-family="Helvetica,sans-Serif" font-size="10.00">+ ResCloseList()</text>
<text text-anchor="start" x="263" y="-1423.5" font-family="Helvetica,sans-Serif" font-size="10.00">+ ResCloseListDebug()</text>
<text text-anchor="start" x="263" y="-1412.5" font-family="Helvetica,sans-Serif" font-size="10.00">+ ResOpenList()</text>
<text text-anchor="start" x="263" y="-1401.5" font-family="Helvetica,sans-Serif" font-size="10.00">+ ResOpenListDebug()</text>
<text text-anchor="start" x="263" y="-1390.5" font-family="Helvetica,sans-Serif" font-size="10.00">+ getInstance()</text>
<text text-anchor="start" x="263" y="-1379.5" font-family="Helvetica,sans-Serif" font-size="10.00">+ init()</text>
<text text-anchor="start" x="263" y="-1368.5" font-family="Helvetica,sans-Serif" font-size="10.00">&#45; Logger_Sngltn()</text>
</a>
</g>
</g>
<!-- Node12&#45;&gt;Node7 -->
<g id="edge19" class="edge"><title>Node12&#45;&gt;Node7</title>
<path fill="none" stroke="#404040" d="M388.021,-1361.32C403.098,-1302.03 417.666,-1236.84 427,-1176 463.849,-935.828 473.566,-653.551 475.81,-482.714"/>
<polygon fill="none" stroke="#404040" points="475.811,-482.608 471.885,-476.559 475.959,-470.609 479.885,-476.658 475.811,-482.608"/>
<text text-anchor="middle" x="491" y="-1007" font-family="Helvetica,sans-Serif" font-size="10.00"> #MyLogger</text>
</g>
<!-- Node12&#45;&gt;Node9 -->
<g id="edge10" class="edge"><title>Node12&#45;&gt;Node9</title>
<path fill="none" stroke="#404040" d="M291.704,-1361.28C288.419,-1351.28 284.858,-1341.47 281,-1332 259.27,-1278.68 247.497,-1267.53 211,-1223 199.244,-1208.66 195.112,-1206.03 181,-1194 170.854,-1185.35 165.549,-1186.23 157,-1176 156.626,-1175.55 156.254,-1175.1 155.883,-1174.65"/>
<polygon fill="none" stroke="#404040" points="155.656,-1174.36 148.806,-1172.11 148.253,-1164.92 155.102,-1167.17 155.656,-1174.36"/>
<text text-anchor="middle" x="300.5" y="-1266" font-family="Helvetica,sans-Serif" font-size="10.00"> &#45;myLogger</text>
</g>
<!-- Node12&#45;&gt;Node10 -->
<g id="edge7" class="edge"><title>Node12&#45;&gt;Node10</title>
<path fill="none" stroke="#404040" d="M254.89,-1393.34C242.347,-1371.73 228.348,-1350.68 213,-1332 210.475,-1328.93 207.805,-1325.86 205.041,-1322.82"/>
<polygon fill="none" stroke="#404040" points="204.78,-1322.55 197.749,-1320.95 196.522,-1313.84 203.553,-1315.44 204.78,-1322.55"/>
<text text-anchor="middle" x="249.5" y="-1335" font-family="Helvetica,sans-Serif" font-size="10.00"> &#45;myLogger</text>
</g>
<!-- Node12&#45;&gt;Node12 -->
<g id="edge9" class="edge"><title>Node12&#45;&gt;Node12</title>
<path fill="none" stroke="#404040" d="M403.36,-1604.36C413.916,-1598.16 421,-1585.37 421,-1566 421,-1552.99 417.802,-1542.94 412.502,-1535.87"/>
<polygon fill="none" stroke="#404040" points="412.277,-1535.67 405.141,-1534.62 403.36,-1527.64 410.495,-1528.68 412.277,-1535.67"/>
<text text-anchor="middle" x="445" y="-1563.5" font-family="Helvetica,sans-Serif" font-size="10.00"> &#45;Instance</text>
</g>
<!-- Node22 -->
<g id="node17" class="node"><title>Node22</title>
<g id="a_node17"><a xlink:href="classokw_1_1_o_k_w___const___sngltn.html" target="_top" xlink:title="OKW_Const verwaltet die sprachabhängigen OKW&#45;Konstanten.">
<polygon fill="white" stroke="black" points="653,-237.5 653,-415.5 825,-415.5 825,-237.5 653,-237.5"/>
<text text-anchor="middle" x="739" y="-403.5" font-family="Helvetica,sans-Serif" font-size="10.00">okw.OKW_Const_Sngltn</text>
<polyline fill="none" stroke="black" points="653,-396.5 825,-396.5 "/>
<text text-anchor="middle" x="739" y="-384.5" font-family="Helvetica,sans-Serif" font-size="10.00"> </text>
<polyline fill="none" stroke="black" points="653,-377.5 825,-377.5 "/>
<text text-anchor="start" x="661" y="-365.5" font-family="Helvetica,sans-Serif" font-size="10.00">+ Boolean2YesNo()</text>
<text text-anchor="start" x="661" y="-354.5" font-family="Helvetica,sans-Serif" font-size="10.00">+ ConcatHSEP()</text>
<text text-anchor="start" x="661" y="-343.5" font-family="Helvetica,sans-Serif" font-size="10.00">+ ConcatSEP()</text>
<text text-anchor="start" x="661" y="-332.5" font-family="Helvetica,sans-Serif" font-size="10.00">+ ConcatVSEP()</text>
<text text-anchor="start" x="661" y="-321.5" font-family="Helvetica,sans-Serif" font-size="10.00">+ GetConst4Internalname()</text>
<text text-anchor="start" x="661" y="-310.5" font-family="Helvetica,sans-Serif" font-size="10.00">+ GetOKWConst4Internalname()</text>
<text text-anchor="start" x="661" y="-299.5" font-family="Helvetica,sans-Serif" font-size="10.00">+ SplitHSEP()</text>
<text text-anchor="start" x="661" y="-288.5" font-family="Helvetica,sans-Serif" font-size="10.00">+ SplitSEP()</text>
<text text-anchor="start" x="661" y="-277.5" font-family="Helvetica,sans-Serif" font-size="10.00">+ SplitVSEP()</text>
<text text-anchor="start" x="661" y="-266.5" font-family="Helvetica,sans-Serif" font-size="10.00">+ YesNo2Boolean()</text>
<text text-anchor="start" x="661" y="-255.5" font-family="Helvetica,sans-Serif" font-size="10.00">+ getInstance()</text>
<text text-anchor="start" x="661" y="-244.5" font-family="Helvetica,sans-Serif" font-size="10.00"># OKW_Const_Sngltn()</text>
</a>
</g>
</g>
<!-- Node12&#45;&gt;Node22 -->
<g id="edge27" class="edge"><title>Node12&#45;&gt;Node22</title>
<path fill="none" stroke="#404040" d="M403.097,-1558.48C550.838,-1541 868,-1479.06 868,-1269.5 868,-1269.5 868,-1269.5 868,-656 868,-574.767 833.401,-489.566 800.04,-426.295"/>
<polygon fill="none" stroke="#404040" points="799.942,-426.114 793.581,-422.718 794.269,-415.539 800.63,-418.935 799.942,-426.114"/>
<text text-anchor="middle" x="880.5" y="-1007" font-family="Helvetica,sans-Serif" font-size="10.00"> &#45;Log</text>
</g>
<!-- Node13 -->
<g id="node8" class="node"><title>Node13</title>
<g id="a_node8"><a xlink:title=" ">
<polygon fill="white" stroke="#bfbfbf" points="252,-1818.5 252,-1875.5 406,-1875.5 406,-1818.5 252,-1818.5"/>
<text text-anchor="middle" x="329" y="-1863.5" font-family="Helvetica,sans-Serif" font-size="10.00">ArrayList&lt; okw.log.ILogger &gt;</text>
<polyline fill="none" stroke="#bfbfbf" points="252,-1856.5 406,-1856.5 "/>
<text text-anchor="middle" x="329" y="-1844.5" font-family="Helvetica,sans-Serif" font-size="10.00"> </text>
<polyline fill="none" stroke="#bfbfbf" points="252,-1837.5 406,-1837.5 "/>
<text text-anchor="middle" x="329" y="-1825.5" font-family="Helvetica,sans-Serif" font-size="10.00"> </text>
</a>
</g>
</g>
<!-- Node13&#45;&gt;Node12 -->
<g id="edge8" class="edge"><title>Node13&#45;&gt;Node12</title>
<path fill="none" stroke="#404040" d="M329,-1818.48C329,-1808.54 329,-1796.39 329,-1782.86"/>
<polygon fill="none" stroke="#404040" points="329,-1782.62 325,-1776.62 329,-1770.62 333,-1776.62 329,-1782.62"/>
<text text-anchor="middle" x="357.5" y="-1792" font-family="Helvetica,sans-Serif" font-size="10.00"> &#45;LoggerList</text>
</g>
<!-- Node14 -->
<g id="node9" class="node"><title>Node14</title>
<g id="a_node9"><a xlink:href="interfaceokw_1_1gui_1_1_i_g_u_i_childwindow.html" target="_top" xlink:title=" ">
<polygon fill="white" stroke="black" points="166.5,-871 166.5,-1148 297.5,-1148 297.5,-871 166.5,-871"/>
<text text-anchor="middle" x="232" y="-1136" font-family="Helvetica,sans-Serif" font-size="10.00">okw.gui.IGUIChildwindow</text>
<polyline fill="none" stroke="black" points="166.5,-1129 297.5,-1129 "/>
<text text-anchor="middle" x="232" y="-1117" font-family="Helvetica,sans-Serif" font-size="10.00"> </text>
<polyline fill="none" stroke="black" points="166.5,-1110 297.5,-1110 "/>
<text text-anchor="start" x="174.5" y="-1098" font-family="Helvetica,sans-Serif" font-size="10.00">+ getCaption()</text>
<text text-anchor="start" x="174.5" y="-1087" font-family="Helvetica,sans-Serif" font-size="10.00">+ getExists()</text>
<text text-anchor="start" x="174.5" y="-1076" font-family="Helvetica,sans-Serif" font-size="10.00">+ getHasFocus()</text>
<text text-anchor="start" x="174.5" y="-1065" font-family="Helvetica,sans-Serif" font-size="10.00">+ getIsActive()</text>
<text text-anchor="start" x="174.5" y="-1054" font-family="Helvetica,sans-Serif" font-size="10.00">+ getLabel()</text>
<text text-anchor="start" x="174.5" y="-1043" font-family="Helvetica,sans-Serif" font-size="10.00">+ getPlaceholder()</text>
<text text-anchor="start" x="174.5" y="-1032" font-family="Helvetica,sans-Serif" font-size="10.00">+ getTooltip()</text>
<text text-anchor="start" x="174.5" y="-1021" font-family="Helvetica,sans-Serif" font-size="10.00">+ getValue()</text>
<text text-anchor="start" x="174.5" y="-1010" font-family="Helvetica,sans-Serif" font-size="10.00">+ getMaxLength()</text>
<text text-anchor="start" x="174.5" y="-999" font-family="Helvetica,sans-Serif" font-size="10.00">+ ClickOn()</text>
<text text-anchor="start" x="174.5" y="-988" font-family="Helvetica,sans-Serif" font-size="10.00">+ DoubleClickOn()</text>
<text text-anchor="start" x="174.5" y="-977" font-family="Helvetica,sans-Serif" font-size="10.00">+ LogCaption()</text>
<text text-anchor="start" x="174.5" y="-966" font-family="Helvetica,sans-Serif" font-size="10.00">+ LogExists()</text>
<text text-anchor="start" x="174.5" y="-955" font-family="Helvetica,sans-Serif" font-size="10.00">+ LogHasFocus()</text>
<text text-anchor="start" x="174.5" y="-944" font-family="Helvetica,sans-Serif" font-size="10.00">+ LogIsActive()</text>
<text text-anchor="start" x="174.5" y="-933" font-family="Helvetica,sans-Serif" font-size="10.00">+ LogLabel()</text>
<text text-anchor="start" x="174.5" y="-922" font-family="Helvetica,sans-Serif" font-size="10.00">+ LogPlaceholder()</text>
<text text-anchor="start" x="174.5" y="-911" font-family="Helvetica,sans-Serif" font-size="10.00">+ LogSelected()</text>
<text text-anchor="start" x="174.5" y="-900" font-family="Helvetica,sans-Serif" font-size="10.00">+ LogTablecellValue()</text>
<text text-anchor="start" x="174.5" y="-889" font-family="Helvetica,sans-Serif" font-size="10.00">+ LogTooltip()</text>
<text text-anchor="start" x="174.5" y="-878" font-family="Helvetica,sans-Serif" font-size="10.00">und 29 mehr ...</text>
</a>
</g>
</g>
<!-- Node14&#45;&gt;Node8 -->
<g id="edge11" class="edge"><title>Node14&#45;&gt;Node8</title>
<path fill="none" stroke="midnightblue" d="M252.611,-861.071C255.639,-839.406 258.75,-817.159 261.75,-795.7"/>
<polygon fill="none" stroke="midnightblue" points="249.144,-860.591 251.225,-870.979 256.076,-861.56 249.144,-860.591"/>
</g>
<!-- Node15 -->
<g id="node10" class="node"><title>Node15</title>
<g id="a_node10"><a xlink:href="interfaceokw_1_1core_1_1_i_o_k_w___f_n.html" target="_top" xlink:title=" ">
<polygon fill="white" stroke="black" points="315.5,-953.5 315.5,-1065.5 418.5,-1065.5 418.5,-953.5 315.5,-953.5"/>
<text text-anchor="middle" x="367" y="-1053.5" font-family="Helvetica,sans-Serif" font-size="10.00">okw.core.IOKW_FN</text>
<polyline fill="none" stroke="black" points="315.5,-1046.5 418.5,-1046.5 "/>
<text text-anchor="middle" x="367" y="-1034.5" font-family="Helvetica,sans-Serif" font-size="10.00"> </text>
<polyline fill="none" stroke="black" points="315.5,-1027.5 418.5,-1027.5 "/>
<text text-anchor="start" x="323.5" y="-1015.5" font-family="Helvetica,sans-Serif" font-size="10.00">+ setKN()</text>
<text text-anchor="start" x="323.5" y="-1004.5" font-family="Helvetica,sans-Serif" font-size="10.00">+ setFN()</text>
<text text-anchor="start" x="323.5" y="-993.5" font-family="Helvetica,sans-Serif" font-size="10.00">+ setParentFN()</text>
<text text-anchor="start" x="323.5" y="-982.5" font-family="Helvetica,sans-Serif" font-size="10.00">+ getKN()</text>
<text text-anchor="start" x="323.5" y="-971.5" font-family="Helvetica,sans-Serif" font-size="10.00">+ getFN()</text>
<text text-anchor="start" x="323.5" y="-960.5" font-family="Helvetica,sans-Serif" font-size="10.00">+ getParentFN()</text>
</a>
</g>
</g>
<!-- Node15&#45;&gt;Node8 -->
<g id="edge12" class="edge"><title>Node15&#45;&gt;Node8</title>
<path fill="none" stroke="midnightblue" d="M351.021,-943.376C340.838,-901.874 327.256,-846.519 314.765,-795.611"/>
<polygon fill="none" stroke="midnightblue" points="347.686,-944.471 353.468,-953.349 354.484,-942.803 347.686,-944.471"/>
</g>
<!-- Node16 -->
<g id="node11" class="node"><title>Node16</title>
<g id="a_node11"><a xlink:href="classokw_1_1_log_messenger.html" target="_top" xlink:title="LogMessenger liest Log&#45;Meldungen sprachspezifisch für die im Konstruktor gegeben Klasse aus der Zugeh...">
<polygon fill="white" stroke="black" points="595.5,-601 595.5,-713 702.5,-713 702.5,-601 595.5,-601"/>
<text text-anchor="middle" x="649" y="-701" font-family="Helvetica,sans-Serif" font-size="10.00">okw.LogMessenger</text>
<polyline fill="none" stroke="black" points="595.5,-694 702.5,-694 "/>
<text text-anchor="start" x="603.5" y="-682" font-family="Helvetica,sans-Serif" font-size="10.00">&#45; cvsClassName</text>
<polyline fill="none" stroke="black" points="595.5,-675 702.5,-675 "/>
<text text-anchor="start" x="603.5" y="-663" font-family="Helvetica,sans-Serif" font-size="10.00">+ LogMessenger()</text>
<text text-anchor="start" x="603.5" y="-652" font-family="Helvetica,sans-Serif" font-size="10.00">+ GetMessage()</text>
<text text-anchor="start" x="603.5" y="-641" font-family="Helvetica,sans-Serif" font-size="10.00">+ GetMessage()</text>
<text text-anchor="start" x="603.5" y="-630" font-family="Helvetica,sans-Serif" font-size="10.00">+ GetMessage()</text>
<text text-anchor="start" x="603.5" y="-619" font-family="Helvetica,sans-Serif" font-size="10.00">+ GetMessage()</text>
<text text-anchor="start" x="603.5" y="-608" font-family="Helvetica,sans-Serif" font-size="10.00">&#45; ReadMessage()</text>
</a>
</g>
</g>
<!-- Node16&#45;&gt;Node7 -->
<g id="edge13" class="edge"><title>Node16&#45;&gt;Node7</title>
<path fill="none" stroke="#404040" d="M619.849,-600.646C601.132,-565.107 575.897,-517.188 551.788,-471.411"/>
<polygon fill="none" stroke="#404040" points="551.771,-471.376 545.436,-467.931 546.179,-460.759 552.514,-464.204 551.771,-471.376"/>
<text text-anchor="middle" x="575.5" y="-492" font-family="Helvetica,sans-Serif" font-size="10.00"> #LM</text>
</g>
<!-- Node16&#45;&gt;Node22 -->
<g id="edge26" class="edge"><title>Node16&#45;&gt;Node22</title>
<path fill="none" stroke="#404040" d="M664.166,-600.646C677.124,-553.346 696.091,-484.118 711.687,-427.193"/>
<polygon fill="none" stroke="#404040" points="711.688,-427.188 709.416,-420.344 714.859,-415.614 717.132,-422.458 711.688,-427.188"/>
<text text-anchor="middle" x="704.5" y="-492" font-family="Helvetica,sans-Serif" font-size="10.00"> &#45;LM</text>
</g>
<!-- Node17 -->
<g id="node12" class="node"><title>Node17</title>
<g id="a_node12"><a xlink:href="classokw_1_1_o_k_w___xml_reader.html" target="_top" xlink:title=" ">
<polygon fill="white" stroke="black" points="599,-959 599,-1060 763,-1060 763,-959 599,-959"/>
<text text-anchor="middle" x="681" y="-1048" font-family="Helvetica,sans-Serif" font-size="10.00">okw.OKW_XmlReader</text>
<polyline fill="none" stroke="black" points="599,-1041 763,-1041 "/>
<text text-anchor="start" x="607" y="-1029" font-family="Helvetica,sans-Serif" font-size="10.00">&#45; myXMLFile</text>
<polyline fill="none" stroke="black" points="599,-1022 763,-1022 "/>
<text text-anchor="start" x="607" y="-1010" font-family="Helvetica,sans-Serif" font-size="10.00">+ getXMLFile()</text>
<text text-anchor="start" x="607" y="-999" font-family="Helvetica,sans-Serif" font-size="10.00">+ OKW_XmlReader()</text>
<text text-anchor="start" x="607" y="-988" font-family="Helvetica,sans-Serif" font-size="10.00">+ getTextContentSingleValue()</text>
<text text-anchor="start" x="607" y="-977" font-family="Helvetica,sans-Serif" font-size="10.00">+ getTextContentAsList()</text>
<text text-anchor="start" x="607" y="-966" font-family="Helvetica,sans-Serif" font-size="10.00">&#45; Init()</text>
</a>
</g>
</g>
<!-- Node17&#45;&gt;Node16 -->
<g id="edge14" class="edge"><title>Node17&#45;&gt;Node16</title>
<path fill="none" stroke="#404040" d="M671.246,-958.885C664.481,-922.093 655.996,-870.625 652,-825 649.132,-792.248 648.216,-755.75 648.085,-725.249"/>
<polygon fill="none" stroke="#404040" points="648.085,-725.008 644.079,-719.012 648.073,-713.008 652.079,-719.004 648.085,-725.008"/>
<text text-anchor="middle" x="688.5" y="-817" font-family="Helvetica,sans-Serif" font-size="10.00"> &#45;myXmlReader</text>
</g>
<!-- Node17&#45;&gt;Node22 -->
<g id="edge21" class="edge"><title>Node17&#45;&gt;Node22</title>
<path fill="none" stroke="#404040" d="M695.878,-958.791C706.11,-922.17 718.911,-870.955 725,-825 743.114,-688.297 744.084,-528.689 742.246,-427.863"/>
<polygon fill="none" stroke="#404040" points="742.24,-427.557 738.122,-421.638 742.002,-415.56 746.12,-421.479 742.24,-427.557"/>
<text text-anchor="middle" x="779.5" y="-654.5" font-family="Helvetica,sans-Serif" font-size="10.00"> &#45;myXmlReader</text>
</g>
<!-- Node18 -->
<g id="node13" class="node"><title>Node18</title>
<g id="a_node13"><a xlink:title=" ">
<polygon fill="white" stroke="#bfbfbf" points="644,-1240 644,-1297 778,-1297 778,-1240 644,-1240"/>
<text text-anchor="middle" x="711" y="-1285" font-family="Helvetica,sans-Serif" font-size="10.00">DocumentBuilderFactory</text>
<polyline fill="none" stroke="#bfbfbf" points="644,-1278 778,-1278 "/>
<text text-anchor="middle" x="711" y="-1266" font-family="Helvetica,sans-Serif" font-size="10.00"> </text>
<polyline fill="none" stroke="#bfbfbf" points="644,-1259 778,-1259 "/>
<text text-anchor="middle" x="711" y="-1247" font-family="Helvetica,sans-Serif" font-size="10.00"> </text>
</a>
</g>
</g>
<!-- Node18&#45;&gt;Node17 -->
<g id="edge15" class="edge"><title>Node18&#45;&gt;Node17</title>
<path fill="none" stroke="#404040" d="M707.789,-1240C703.148,-1200.23 694.437,-1125.61 688.208,-1072.25"/>
<polygon fill="none" stroke="#404040" points="688.192,-1072.11 683.524,-1066.62 686.801,-1060.19 691.47,-1065.69 688.192,-1072.11"/>
<text text-anchor="middle" x="737.5" y="-1197" font-family="Helvetica,sans-Serif" font-size="10.00"> &#45;mydbFactory</text>
</g>
<!-- Node19 -->
<g id="node14" class="node"><title>Node19</title>
<g id="a_node14"><a xlink:title=" ">
<polygon fill="white" stroke="#bfbfbf" points="796,-1240 796,-1297 840,-1297 840,-1240 796,-1240"/>
<text text-anchor="middle" x="818" y="-1285" font-family="Helvetica,sans-Serif" font-size="10.00">XPath</text>
<polyline fill="none" stroke="#bfbfbf" points="796,-1278 840,-1278 "/>
<text text-anchor="middle" x="818" y="-1266" font-family="Helvetica,sans-Serif" font-size="10.00"> </text>
<polyline fill="none" stroke="#bfbfbf" points="796,-1259 840,-1259 "/>
<text text-anchor="middle" x="818" y="-1247" font-family="Helvetica,sans-Serif" font-size="10.00"> </text>
</a>
</g>
</g>
<!-- Node19&#45;&gt;Node17 -->
<g id="edge16" class="edge"><title>Node19&#45;&gt;Node17</title>
<path fill="none" stroke="#404040" d="M803.339,-1240C781.963,-1199.9 741.692,-1124.35 713.202,-1070.91"/>
<polygon fill="none" stroke="#404040" points="713.136,-1070.78 706.784,-1067.37 707.491,-1060.19 713.843,-1063.61 713.136,-1070.78"/>
<text text-anchor="middle" x="806.5" y="-1197" font-family="Helvetica,sans-Serif" font-size="10.00"> &#45;myXPath</text>
</g>
<!-- Node20 -->
<g id="node15" class="node"><title>Node20</title>
<g id="a_node15"><a xlink:title=" ">
<polygon fill="white" stroke="#bfbfbf" points="440,-1240 440,-1297 540,-1297 540,-1240 440,-1240"/>
<text text-anchor="middle" x="490" y="-1285" font-family="Helvetica,sans-Serif" font-size="10.00">DocumentBuilder</text>
<polyline fill="none" stroke="#bfbfbf" points="440,-1278 540,-1278 "/>
<text text-anchor="middle" x="490" y="-1266" font-family="Helvetica,sans-Serif" font-size="10.00"> </text>
<polyline fill="none" stroke="#bfbfbf" points="440,-1259 540,-1259 "/>
<text text-anchor="middle" x="490" y="-1247" font-family="Helvetica,sans-Serif" font-size="10.00"> </text>
</a>
</g>
</g>
<!-- Node20&#45;&gt;Node17 -->
<g id="edge17" class="edge"><title>Node20&#45;&gt;Node17</title>
<path fill="none" stroke="#404040" d="M508.384,-1239.66C517.675,-1225.81 529.236,-1208.88 540,-1194 570.457,-1151.9 606.13,-1105.5 633.974,-1069.89"/>
<polygon fill="none" stroke="#404040" points="634.208,-1069.59 634.76,-1062.4 641.609,-1060.15 641.057,-1067.34 634.208,-1069.59"/>
<text text-anchor="middle" x="570.5" y="-1197" font-family="Helvetica,sans-Serif" font-size="10.00"> &#45;mydBuilder</text>
</g>
<!-- Node21 -->
<g id="node16" class="node"><title>Node21</title>
<g id="a_node16"><a xlink:title=" ">
<polygon fill="white" stroke="#bfbfbf" points="558.5,-1240 558.5,-1297 625.5,-1297 625.5,-1240 558.5,-1240"/>
<text text-anchor="middle" x="592" y="-1285" font-family="Helvetica,sans-Serif" font-size="10.00">Document</text>
<polyline fill="none" stroke="#bfbfbf" points="558.5,-1278 625.5,-1278 "/>
<text text-anchor="middle" x="592" y="-1266" font-family="Helvetica,sans-Serif" font-size="10.00"> </text>
<polyline fill="none" stroke="#bfbfbf" points="558.5,-1259 625.5,-1259 "/>
<text text-anchor="middle" x="592" y="-1247" font-family="Helvetica,sans-Serif" font-size="10.00"> </text>
</a>
</g>
</g>
<!-- Node21&#45;&gt;Node17 -->
<g id="edge18" class="edge"><title>Node21&#45;&gt;Node17</title>
<path fill="none" stroke="#404040" d="M596.389,-1239.98C598.919,-1226.05 602.496,-1208.97 607,-1194 619.594,-1152.15 637.948,-1106.57 653.226,-1071.31"/>
<polygon fill="none" stroke="#404040" points="653.258,-1071.24 651.998,-1064.14 658.067,-1060.24 659.328,-1067.34 653.258,-1071.24"/>
<text text-anchor="middle" x="653" y="-1197" font-family="Helvetica,sans-Serif" font-size="10.00"> &#45;myXMLDocument</text>
</g>
<!-- Node22&#45;&gt;Node6 -->
<g id="edge20" class="edge"><title>Node22&#45;&gt;Node6</title>
<path fill="none" stroke="#404040" d="M693.415,-237.415C677.946,-207.523 660.795,-174.382 645.812,-145.429"/>
<polygon fill="none" stroke="#404040" points="645.699,-145.211 639.389,-141.721 640.183,-134.553 646.493,-138.044 645.699,-145.211"/>
<text text-anchor="middle" x="691.5" y="-156" font-family="Helvetica,sans-Serif" font-size="10.00"> &#45;myOKW_Const</text>
</g>
<!-- Node22&#45;&gt;Node22 -->
<g id="edge22" class="edge"><title>Node22&#45;&gt;Node22</title>
<path fill="none" stroke="#404040" d="M825.077,-353.932C835.886,-349.097 843,-339.953 843,-326.5 843,-317.882 840.081,-311.032 835.14,-305.95"/>
<polygon fill="none" stroke="#404040" points="834.982,-305.842 827.772,-305.757 825.077,-299.068 832.288,-299.153 834.982,-305.842"/>
<text text-anchor="middle" x="867" y="-324" font-family="Helvetica,sans-Serif" font-size="10.00"> &#45;Instance</text>
</g>
<!-- Node23 -->
<g id="node18" class="node"><title>Node23</title>
<g id="a_node18"><a xlink:href="classokw_1_1_o_k_w_language.html" target="_top" xlink:title="http://de.wikipedia.org/wiki/ISO&#45;3166&#45;1&#45;Kodierliste">
<polygon fill="white" stroke="black" points="904,-612 904,-702 1010,-702 1010,-612 904,-612"/>
<text text-anchor="middle" x="957" y="-690" font-family="Helvetica,sans-Serif" font-size="10.00">okw.OKWLanguage</text>
<polyline fill="none" stroke="black" points="904,-683 1010,-683 "/>
<text text-anchor="start" x="912" y="-671" font-family="Helvetica,sans-Serif" font-size="10.00">&#45; Language</text>
<polyline fill="none" stroke="black" points="904,-664 1010,-664 "/>
<text text-anchor="start" x="912" y="-652" font-family="Helvetica,sans-Serif" font-size="10.00">+ getLanguage()</text>
<text text-anchor="start" x="912" y="-641" font-family="Helvetica,sans-Serif" font-size="10.00">+ setLanguage()</text>
<text text-anchor="start" x="912" y="-630" font-family="Helvetica,sans-Serif" font-size="10.00">+ getInstance()</text>
<text text-anchor="start" x="912" y="-619" font-family="Helvetica,sans-Serif" font-size="10.00">&#45; OKWLanguage()</text>
</a>
</g>
</g>
<!-- Node23&#45;&gt;Node22 -->
<g id="edge23" class="edge"><title>Node23&#45;&gt;Node22</title>
<path fill="none" stroke="#404040" d="M941.438,-611.945C928.171,-577.152 907.26,-528.114 882,-489 867.729,-466.902 850.524,-444.772 833.069,-424.291"/>
<polygon fill="none" stroke="#404040" points="832.888,-424.082 825.938,-422.158 825.041,-415.003 831.99,-416.926 832.888,-424.082"/>
<text text-anchor="middle" x="896.5" y="-492" font-family="Helvetica,sans-Serif" font-size="10.00"> &#45;CL</text>
</g>
<!-- Node23&#45;&gt;Node23 -->
<g id="edge25" class="edge"><title>Node23&#45;&gt;Node23</title>
<path fill="none" stroke="#404040" d="M1010.26,-686.023C1020.63,-682.653 1028,-672.979 1028,-657 1028,-647.013 1025.12,-639.489 1020.43,-634.428"/>
<polygon fill="none" stroke="#404040" points="1020.39,-634.403 1013.18,-634.568 1010.26,-627.977 1017.47,-627.812 1020.39,-634.403"/>
<text text-anchor="middle" x="1052" y="-654.5" font-family="Helvetica,sans-Serif" font-size="10.00"> &#45;Instance</text>
</g>
<!-- Node24 -->
<g id="node19" class="node"><title>Node24</title>
<g id="a_node19"><a xlink:title=" ">
<polygon fill="white" stroke="#bfbfbf" points="911,-981 911,-1038 1021,-1038 1021,-981 911,-981"/>
<text text-anchor="middle" x="966" y="-1026" font-family="Helvetica,sans-Serif" font-size="10.00">ArrayList&lt; String &gt;</text>
<polyline fill="none" stroke="#bfbfbf" points="911,-1019 1021,-1019 "/>
<text text-anchor="middle" x="966" y="-1007" font-family="Helvetica,sans-Serif" font-size="10.00"> </text>
<polyline fill="none" stroke="#bfbfbf" points="911,-1000 1021,-1000 "/>
<text text-anchor="middle" x="966" y="-988" font-family="Helvetica,sans-Serif" font-size="10.00"> </text>
</a>
</g>
</g>
<!-- Node24&#45;&gt;Node23 -->
<g id="edge24" class="edge"><title>Node24&#45;&gt;Node23</title>
<path fill="none" stroke="#404040" d="M965.294,-980.997C963.822,-923.67 960.4,-790.413 958.443,-714.181"/>
<polygon fill="none" stroke="#404040" points="958.438,-713.999 954.285,-708.104 958.13,-702.003 962.283,-707.898 958.438,-713.999"/>
<text text-anchor="middle" x="1033.5" y="-817" font-family="Helvetica,sans-Serif" font-size="10.00"> &#45;cvLsLanguagesImplemented</text>
</g>
</g>
</svg>
