<?xml version="1.0" encoding="UTF-8" standalone="no"?>
<!DOCTYPE svg PUBLIC "-//W3C//DTD SVG 1.1//EN"
 "http://www.w3.org/Graphics/SVG/1.1/DTD/svg11.dtd">
<!-- Generated by graphviz version 2.36.0 (20140111.2315)
 -->
<!-- Title: okw.gui.adapter.selenium.SeTable Pages: 1 -->
<!--zoomable 1750 -->
<svg id="main" version="1.1" xmlns="http://www.w3.org/2000/svg" xmlns:xlink="http://www.w3.org/1999/xlink" xml:space="preserve" onload="init(evt)">
<style type="text/css"><![CDATA[
.edge:hover path { stroke: red; }
.edge:hover polygon { stroke: red; fill: red; }
]]></style>
<script type="text/javascript"><![CDATA[
var edges = document.getElementsByTagName('g');
if (edges && edges.length) {
  for (var i=0;i<edges.length;i++) {
    if (edges[i].id.substr(0,4)=='edge') {
      edges[i].setAttribute('class','edge');
    }
  }
}
]]></script>
        <defs>
                <circle id="rim" cx="0" cy="0" r="7"/>
                <circle id="rim2" cx="0" cy="0" r="3.5"/>
                <g id="zoomPlus">
                        <use xlink:href="#rim" fill="#404040">
                                <set attributeName="fill" to="#808080" begin="zoomplus.mouseover" end="zoomplus.mouseout"/>
                        </use>
                        <path d="M-4,0h8M0,-4v8" fill="none" stroke="white" stroke-width="1.5" pointer-events="none"/>
                </g>
                <g id="zoomMin">
                        <use xlink:href="#rim" fill="#404040">
                                <set attributeName="fill" to="#808080" begin="zoomminus.mouseover" end="zoomminus.mouseout"/>
                        </use>
                        <path d="M-4,0h8" fill="none" stroke="white" stroke-width="1.5" pointer-events="none"/>
                </g>
                <g id="dirArrow">
                        <path fill="none" stroke="white" stroke-width="1.5" d="M0,-3.0v7 M-2.5,-0.5L0,-3.0L2.5,-0.5"/>
                </g>
               <g id="resetDef">
                       <use xlink:href="#rim2" fill="#404040">
                               <set attributeName="fill" to="#808080" begin="reset.mouseover" end="reset.mouseout"/>
                       </use>
               </g>
        </defs>

<script type="text/javascript">
var viewWidth = 936;
var viewHeight = 1750;
var sectionId = 'dynsection-1';
</script>
<script xlink:href="svgpan.js"/>
<svg id="graph" class="graph">
<g id="viewport">
<title>okw.gui.adapter.selenium.SeTable</title>
<polygon fill="white" stroke="none" points="-4,4 -4,-1746 932,-1746 932,4 -4,4"/>
<!-- Node6 -->
<g id="node1" class="node"><title>Node6</title>
<polygon fill="#bfbfbf" stroke="black" points="221.5,-1 221.5,-69 352.5,-69 352.5,-1 221.5,-1"/>
<text text-anchor="start" x="229.5" y="-57" font-family="Helvetica,sans-Serif" font-size="10.00">okw.gui.adapter.selenium.</text>
<text text-anchor="middle" x="287" y="-46" font-family="Helvetica,sans-Serif" font-size="10.00">SeTable</text>
<polyline fill="none" stroke="black" points="221.5,-39 352.5,-39 "/>
<text text-anchor="middle" x="287" y="-27" font-family="Helvetica,sans-Serif" font-size="10.00"> </text>
<polyline fill="none" stroke="black" points="221.5,-20 352.5,-20 "/>
<text text-anchor="start" x="229.5" y="-8" font-family="Helvetica,sans-Serif" font-size="10.00">+ SeTable()</text>
</g>
<!-- Node7 -->
<g id="node2" class="node"><title>Node7</title>
<g id="a_node2"><a xlink:href="classokw_1_1gui_1_1adapter_1_1selenium_1_1_se_any_child_window.html" target="_top" xlink:title="{okw.gui.adapter.selenium.\lSeAnyChildWindow\n|# iframeID\l|+ getIframeID()\l+ setIframeID()\l+ SeAnyChildWindow()\l+ SeAnyChildWindow()\l+ ClickOn()\l+ getCaption()\l+ getExists()\l+ getHasFocus()\l+ getIsActive()\l+ getLabel()\l+ getTooltip()\l+ getValue()\l+ LogCaption()\l+ LogExists()\l+ LogHasFocus()\l+ LogIsActive()\l+ LogLabel()\l+ LogTooltip()\l+ LogValue()\l+ Me()\lund 22 mehr ...\l}">
<polygon fill="white" stroke="black" points="221.5,-109 221.5,-397 352.5,-397 352.5,-109 221.5,-109"/>
<text text-anchor="start" x="229.5" y="-385" font-family="Helvetica,sans-Serif" font-size="10.00">okw.gui.adapter.selenium.</text>
<text text-anchor="middle" x="287" y="-374" font-family="Helvetica,sans-Serif" font-size="10.00">SeAnyChildWindow</text>
<polyline fill="none" stroke="black" points="221.5,-367 352.5,-367 "/>
<text text-anchor="start" x="229.5" y="-355" font-family="Helvetica,sans-Serif" font-size="10.00"># iframeID</text>
<polyline fill="none" stroke="black" points="221.5,-348 352.5,-348 "/>
<text text-anchor="start" x="229.5" y="-336" font-family="Helvetica,sans-Serif" font-size="10.00">+ getIframeID()</text>
<text text-anchor="start" x="229.5" y="-325" font-family="Helvetica,sans-Serif" font-size="10.00">+ setIframeID()</text>
<text text-anchor="start" x="229.5" y="-314" font-family="Helvetica,sans-Serif" font-size="10.00">+ SeAnyChildWindow()</text>
<text text-anchor="start" x="229.5" y="-303" font-family="Helvetica,sans-Serif" font-size="10.00">+ SeAnyChildWindow()</text>
<text text-anchor="start" x="229.5" y="-292" font-family="Helvetica,sans-Serif" font-size="10.00">+ ClickOn()</text>
<text text-anchor="start" x="229.5" y="-281" font-family="Helvetica,sans-Serif" font-size="10.00">+ getCaption()</text>
<text text-anchor="start" x="229.5" y="-270" font-family="Helvetica,sans-Serif" font-size="10.00">+ getExists()</text>
<text text-anchor="start" x="229.5" y="-259" font-family="Helvetica,sans-Serif" font-size="10.00">+ getHasFocus()</text>
<text text-anchor="start" x="229.5" y="-248" font-family="Helvetica,sans-Serif" font-size="10.00">+ getIsActive()</text>
<text text-anchor="start" x="229.5" y="-237" font-family="Helvetica,sans-Serif" font-size="10.00">+ getLabel()</text>
<text text-anchor="start" x="229.5" y="-226" font-family="Helvetica,sans-Serif" font-size="10.00">+ getTooltip()</text>
<text text-anchor="start" x="229.5" y="-215" font-family="Helvetica,sans-Serif" font-size="10.00">+ getValue()</text>
<text text-anchor="start" x="229.5" y="-204" font-family="Helvetica,sans-Serif" font-size="10.00">+ LogCaption()</text>
<text text-anchor="start" x="229.5" y="-193" font-family="Helvetica,sans-Serif" font-size="10.00">+ LogExists()</text>
<text text-anchor="start" x="229.5" y="-182" font-family="Helvetica,sans-Serif" font-size="10.00">+ LogHasFocus()</text>
<text text-anchor="start" x="229.5" y="-171" font-family="Helvetica,sans-Serif" font-size="10.00">+ LogIsActive()</text>
<text text-anchor="start" x="229.5" y="-160" font-family="Helvetica,sans-Serif" font-size="10.00">+ LogLabel()</text>
<text text-anchor="start" x="229.5" y="-149" font-family="Helvetica,sans-Serif" font-size="10.00">+ LogTooltip()</text>
<text text-anchor="start" x="229.5" y="-138" font-family="Helvetica,sans-Serif" font-size="10.00">+ LogValue()</text>
<text text-anchor="start" x="229.5" y="-127" font-family="Helvetica,sans-Serif" font-size="10.00">+ Me()</text>
<text text-anchor="start" x="229.5" y="-116" font-family="Helvetica,sans-Serif" font-size="10.00">und 22 mehr ...</text>
</a>
</g>
</g>
<!-- Node7&#45;&gt;Node6 -->
<g id="edge1" class="edge"><title>Node7&#45;&gt;Node6</title>
<path fill="none" stroke="midnightblue" d="M287,-98.7743C287,-88.0342 287,-78.0223 287,-69.2886"/>
<polygon fill="none" stroke="midnightblue" points="283.5,-98.8266 287,-108.827 290.5,-98.8267 283.5,-98.8266"/>
</g>
<!-- Node8 -->
<g id="node3" class="node"><title>Node8</title>
<g id="a_node3"><a xlink:href="classokw_1_1gui_1_1_any_childwindow.html" target="_top" xlink:title="{okw.gui.AnyChildwindow\n||+ getExists()\l+ getHasFocus()\l+ getIsActive()\l+ getCaption()\l+ getTooltip()\l+ getLabel()\l+ getValue()\l+ ClickOn()\l+ DoubleClickOn()\l+ LogCaption()\l+ LogExists()\l+ LogHasFocus()\l+ LogIsActive()\l+ LogLabel()\l+ LogSelected()\l+ LogTablecellValue()\l+ LogTooltip()\l+ LogValue()\l+ MemorizeCaption()\l+ MemorizeExists()\lund 26 mehr ...\l}">
<polygon fill="white" stroke="black" points="224,-446.5 224,-723.5 350,-723.5 350,-446.5 224,-446.5"/>
<text text-anchor="middle" x="287" y="-711.5" font-family="Helvetica,sans-Serif" font-size="10.00">okw.gui.AnyChildwindow</text>
<polyline fill="none" stroke="black" points="224,-704.5 350,-704.5 "/>
<text text-anchor="middle" x="287" y="-692.5" font-family="Helvetica,sans-Serif" font-size="10.00"> </text>
<polyline fill="none" stroke="black" points="224,-685.5 350,-685.5 "/>
<text text-anchor="start" x="232" y="-673.5" font-family="Helvetica,sans-Serif" font-size="10.00">+ getExists()</text>
<text text-anchor="start" x="232" y="-662.5" font-family="Helvetica,sans-Serif" font-size="10.00">+ getHasFocus()</text>
<text text-anchor="start" x="232" y="-651.5" font-family="Helvetica,sans-Serif" font-size="10.00">+ getIsActive()</text>
<text text-anchor="start" x="232" y="-640.5" font-family="Helvetica,sans-Serif" font-size="10.00">+ getCaption()</text>
<text text-anchor="start" x="232" y="-629.5" font-family="Helvetica,sans-Serif" font-size="10.00">+ getTooltip()</text>
<text text-anchor="start" x="232" y="-618.5" font-family="Helvetica,sans-Serif" font-size="10.00">+ getLabel()</text>
<text text-anchor="start" x="232" y="-607.5" font-family="Helvetica,sans-Serif" font-size="10.00">+ getValue()</text>
<text text-anchor="start" x="232" y="-596.5" font-family="Helvetica,sans-Serif" font-size="10.00">+ ClickOn()</text>
<text text-anchor="start" x="232" y="-585.5" font-family="Helvetica,sans-Serif" font-size="10.00">+ DoubleClickOn()</text>
<text text-anchor="start" x="232" y="-574.5" font-family="Helvetica,sans-Serif" font-size="10.00">+ LogCaption()</text>
<text text-anchor="start" x="232" y="-563.5" font-family="Helvetica,sans-Serif" font-size="10.00">+ LogExists()</text>
<text text-anchor="start" x="232" y="-552.5" font-family="Helvetica,sans-Serif" font-size="10.00">+ LogHasFocus()</text>
<text text-anchor="start" x="232" y="-541.5" font-family="Helvetica,sans-Serif" font-size="10.00">+ LogIsActive()</text>
<text text-anchor="start" x="232" y="-530.5" font-family="Helvetica,sans-Serif" font-size="10.00">+ LogLabel()</text>
<text text-anchor="start" x="232" y="-519.5" font-family="Helvetica,sans-Serif" font-size="10.00">+ LogSelected()</text>
<text text-anchor="start" x="232" y="-508.5" font-family="Helvetica,sans-Serif" font-size="10.00">+ LogTablecellValue()</text>
<text text-anchor="start" x="232" y="-497.5" font-family="Helvetica,sans-Serif" font-size="10.00">+ LogTooltip()</text>
<text text-anchor="start" x="232" y="-486.5" font-family="Helvetica,sans-Serif" font-size="10.00">+ LogValue()</text>
<text text-anchor="start" x="232" y="-475.5" font-family="Helvetica,sans-Serif" font-size="10.00">+ MemorizeCaption()</text>
<text text-anchor="start" x="232" y="-464.5" font-family="Helvetica,sans-Serif" font-size="10.00">+ MemorizeExists()</text>
<text text-anchor="start" x="232" y="-453.5" font-family="Helvetica,sans-Serif" font-size="10.00">und 26 mehr ...</text>
</a>
</g>
</g>
<!-- Node8&#45;&gt;Node7 -->
<g id="edge2" class="edge"><title>Node8&#45;&gt;Node7</title>
<path fill="none" stroke="midnightblue" d="M287,-436.101C287,-423.164 287,-410.085 287,-397.187"/>
<polygon fill="none" stroke="midnightblue" points="283.5,-436.44 287,-446.44 290.5,-436.44 283.5,-436.44"/>
</g>
<!-- Node9 -->
<g id="node4" class="node"><title>Node9</title>
<g id="a_node4"><a xlink:href="classokw_1_1gui_1_1_any_win_base.html" target="_top" xlink:title="Description of AnyWin. ">
<polygon fill="white" stroke="black" points="108,-778 108,-1044 242,-1044 242,-778 108,-778"/>
<text text-anchor="middle" x="175" y="-1032" font-family="Helvetica,sans-Serif" font-size="10.00">okw.gui.AnyWinBase</text>
<polyline fill="none" stroke="black" points="108,-1025 242,-1025 "/>
<text text-anchor="start" x="116" y="-1013" font-family="Helvetica,sans-Serif" font-size="10.00">&#45; myFN</text>
<text text-anchor="start" x="116" y="-1002" font-family="Helvetica,sans-Serif" font-size="10.00">&#45; myKN</text>
<text text-anchor="start" x="116" y="-991" font-family="Helvetica,sans-Serif" font-size="10.00">&#45; myParentFN</text>
<polyline fill="none" stroke="black" points="108,-984 242,-984 "/>
<text text-anchor="start" x="116" y="-972" font-family="Helvetica,sans-Serif" font-size="10.00">+ getLocator()</text>
<text text-anchor="start" x="116" y="-961" font-family="Helvetica,sans-Serif" font-size="10.00">+ getLOCATOR()</text>
<text text-anchor="start" x="116" y="-950" font-family="Helvetica,sans-Serif" font-size="10.00">+ setLocator()</text>
<text text-anchor="start" x="116" y="-939" font-family="Helvetica,sans-Serif" font-size="10.00">+ getExists()</text>
<text text-anchor="start" x="116" y="-928" font-family="Helvetica,sans-Serif" font-size="10.00">+ AnyWinBase()</text>
<text text-anchor="start" x="116" y="-917" font-family="Helvetica,sans-Serif" font-size="10.00">+ AnyWinBase()</text>
<text text-anchor="start" x="116" y="-906" font-family="Helvetica,sans-Serif" font-size="10.00">+ getFN()</text>
<text text-anchor="start" x="116" y="-895" font-family="Helvetica,sans-Serif" font-size="10.00">+ getKN()</text>
<text text-anchor="start" x="116" y="-884" font-family="Helvetica,sans-Serif" font-size="10.00">+ getParentFN()</text>
<text text-anchor="start" x="116" y="-873" font-family="Helvetica,sans-Serif" font-size="10.00">+ setFN()</text>
<text text-anchor="start" x="116" y="-862" font-family="Helvetica,sans-Serif" font-size="10.00">+ setKN()</text>
<text text-anchor="start" x="116" y="-851" font-family="Helvetica,sans-Serif" font-size="10.00">+ setParentFN()</text>
<text text-anchor="start" x="116" y="-840" font-family="Helvetica,sans-Serif" font-size="10.00"># LogFunctionStartDebug()</text>
<text text-anchor="start" x="116" y="-829" font-family="Helvetica,sans-Serif" font-size="10.00"># LogFunctionStartDebug()</text>
<text text-anchor="start" x="116" y="-818" font-family="Helvetica,sans-Serif" font-size="10.00"># LogFunctionEndDebug()</text>
<text text-anchor="start" x="116" y="-807" font-family="Helvetica,sans-Serif" font-size="10.00"># LogFunctionEndDebug()</text>
<text text-anchor="start" x="116" y="-796" font-family="Helvetica,sans-Serif" font-size="10.00"># LogFunctionEndDebug()</text>
<text text-anchor="start" x="116" y="-785" font-family="Helvetica,sans-Serif" font-size="10.00"># LogFunctionEndDebug()</text>
</a>
</g>
</g>
<!-- Node9&#45;&gt;Node8 -->
<g id="edge3" class="edge"><title>Node9&#45;&gt;Node8</title>
<path fill="none" stroke="midnightblue" d="M224.057,-768.085C229.161,-753.321 234.342,-738.331 239.429,-723.616"/>
<polygon fill="none" stroke="midnightblue" points="220.675,-767.155 220.716,-777.749 227.291,-769.442 220.675,-767.155"/>
</g>
<!-- Node10 -->
<g id="node5" class="node"><title>Node10</title>
<g id="a_node5"><a xlink:href="classokw_1_1gui_1_1_o_k_w_locator.html" target="_top" xlink:title="Description of OKWLocator. ">
<polygon fill="white" stroke="black" points="206,-1098.5 206,-1177.5 316,-1177.5 316,-1098.5 206,-1098.5"/>
<text text-anchor="middle" x="261" y="-1165.5" font-family="Helvetica,sans-Serif" font-size="10.00">okw.gui.OKWLocator</text>
<polyline fill="none" stroke="black" points="206,-1158.5 316,-1158.5 "/>
<text text-anchor="start" x="214" y="-1146.5" font-family="Helvetica,sans-Serif" font-size="10.00">&#45; _locator</text>
<polyline fill="none" stroke="black" points="206,-1139.5 316,-1139.5 "/>
<text text-anchor="start" x="214" y="-1127.5" font-family="Helvetica,sans-Serif" font-size="10.00">+ OKWLocator()</text>
<text text-anchor="start" x="214" y="-1116.5" font-family="Helvetica,sans-Serif" font-size="10.00">+ getLocator()</text>
<text text-anchor="start" x="214" y="-1105.5" font-family="Helvetica,sans-Serif" font-size="10.00">+ setLocator()</text>
</a>
</g>
</g>
<!-- Node10&#45;&gt;Node9 -->
<g id="edge4" class="edge"><title>Node10&#45;&gt;Node9</title>
<path fill="none" stroke="#404040" d="M246.216,-1098.32C241.463,-1085.89 235.886,-1071.29 229.981,-1055.85"/>
<polygon fill="none" stroke="#404040" points="229.916,-1055.67 224.037,-1051.5 225.631,-1044.47 231.51,-1048.64 229.916,-1055.67"/>
<text text-anchor="middle" x="259.5" y="-1071.5" font-family="Helvetica,sans-Serif" font-size="10.00"> #_locator</text>
</g>
<!-- Node10&#45;&gt;Node10 -->
<g id="edge5" class="edge"><title>Node10&#45;&gt;Node10</title>
<path fill="none" stroke="#404040" d="M316.073,-1149.43C326.574,-1148.06 334,-1144.25 334,-1138 334,-1134.48 331.65,-1131.74 327.726,-1129.77"/>
<polygon fill="none" stroke="#404040" points="327.646,-1129.75 320.801,-1132.02 316.073,-1126.57 322.918,-1124.3 327.646,-1129.75"/>
<text text-anchor="middle" x="361.5" y="-1135.5" font-family="Helvetica,sans-Serif" font-size="10.00"> &#45;_Locatoren</text>
</g>
<!-- Node11 -->
<g id="node6" class="node"><title>Node11</title>
<g id="a_node6"><a xlink:href="classokw_1_1log_1_1_logger___sngltn.html" target="_top" xlink:title="{okw.log.Logger_Sngltn\n|&#45; cvbDebugMode\l|+ getDebugMode()\l+ setDebugMode()\l+ addLogger()\l+ reset()\l+ LogError()\l+ LogException()\l+ LogFunctionEnd()\l+ LogFunctionEnd()\l+ LogFunctionEnd()\l+ LogFunctionEnd()\l+ LogFunctionEndDebug()\l+ LogFunctionEndDebug()\l+ LogFunctionEndDebug()\l+ LogFunctionEndDebug()\l+ LogFunctionStart()\l+ LogFunctionStartDebug()\l+ LogKeyWordEnd()\l+ LogSequenceEnd()\l+ LogTestcaseEnd()\l+ LogKeyWordStart()\l+ LogSequenceStart()\l+ LogTestcaseStart()\l+ LogPass()\l+ LogPrint()\l+ LogPrintDebug()\l+ LogWarning()\l+ ResCloseList()\l+ ResCloseListDebug()\l+ ResOpenList()\l+ ResOpenListDebug()\l+ getInstance()\l+ init()\l&#45; Logger_Sngltn()\l}">
<polygon fill="white" stroke="black" points="41,-1226.5 41,-1635.5 175,-1635.5 175,-1226.5 41,-1226.5"/>
<text text-anchor="middle" x="108" y="-1623.5" font-family="Helvetica,sans-Serif" font-size="10.00">okw.log.Logger_Sngltn</text>
<polyline fill="none" stroke="black" points="41,-1616.5 175,-1616.5 "/>
<text text-anchor="start" x="49" y="-1604.5" font-family="Helvetica,sans-Serif" font-size="10.00">&#45; cvbDebugMode</text>
<polyline fill="none" stroke="black" points="41,-1597.5 175,-1597.5 "/>
<text text-anchor="start" x="49" y="-1585.5" font-family="Helvetica,sans-Serif" font-size="10.00">+ getDebugMode()</text>
<text text-anchor="start" x="49" y="-1574.5" font-family="Helvetica,sans-Serif" font-size="10.00">+ setDebugMode()</text>
<text text-anchor="start" x="49" y="-1563.5" font-family="Helvetica,sans-Serif" font-size="10.00">+ addLogger()</text>
<text text-anchor="start" x="49" y="-1552.5" font-family="Helvetica,sans-Serif" font-size="10.00">+ reset()</text>
<text text-anchor="start" x="49" y="-1541.5" font-family="Helvetica,sans-Serif" font-size="10.00">+ LogError()</text>
<text text-anchor="start" x="49" y="-1530.5" font-family="Helvetica,sans-Serif" font-size="10.00">+ LogException()</text>
<text text-anchor="start" x="49" y="-1519.5" font-family="Helvetica,sans-Serif" font-size="10.00">+ LogFunctionEnd()</text>
<text text-anchor="start" x="49" y="-1508.5" font-family="Helvetica,sans-Serif" font-size="10.00">+ LogFunctionEnd()</text>
<text text-anchor="start" x="49" y="-1497.5" font-family="Helvetica,sans-Serif" font-size="10.00">+ LogFunctionEnd()</text>
<text text-anchor="start" x="49" y="-1486.5" font-family="Helvetica,sans-Serif" font-size="10.00">+ LogFunctionEnd()</text>
<text text-anchor="start" x="49" y="-1475.5" font-family="Helvetica,sans-Serif" font-size="10.00">+ LogFunctionEndDebug()</text>
<text text-anchor="start" x="49" y="-1464.5" font-family="Helvetica,sans-Serif" font-size="10.00">+ LogFunctionEndDebug()</text>
<text text-anchor="start" x="49" y="-1453.5" font-family="Helvetica,sans-Serif" font-size="10.00">+ LogFunctionEndDebug()</text>
<text text-anchor="start" x="49" y="-1442.5" font-family="Helvetica,sans-Serif" font-size="10.00">+ LogFunctionEndDebug()</text>
<text text-anchor="start" x="49" y="-1431.5" font-family="Helvetica,sans-Serif" font-size="10.00">+ LogFunctionStart()</text>
<text text-anchor="start" x="49" y="-1420.5" font-family="Helvetica,sans-Serif" font-size="10.00">+ LogFunctionStartDebug()</text>
<text text-anchor="start" x="49" y="-1409.5" font-family="Helvetica,sans-Serif" font-size="10.00">+ LogKeyWordEnd()</text>
<text text-anchor="start" x="49" y="-1398.5" font-family="Helvetica,sans-Serif" font-size="10.00">+ LogSequenceEnd()</text>
<text text-anchor="start" x="49" y="-1387.5" font-family="Helvetica,sans-Serif" font-size="10.00">+ LogTestcaseEnd()</text>
<text text-anchor="start" x="49" y="-1376.5" font-family="Helvetica,sans-Serif" font-size="10.00">+ LogKeyWordStart()</text>
<text text-anchor="start" x="49" y="-1365.5" font-family="Helvetica,sans-Serif" font-size="10.00">+ LogSequenceStart()</text>
<text text-anchor="start" x="49" y="-1354.5" font-family="Helvetica,sans-Serif" font-size="10.00">+ LogTestcaseStart()</text>
<text text-anchor="start" x="49" y="-1343.5" font-family="Helvetica,sans-Serif" font-size="10.00">+ LogPass()</text>
<text text-anchor="start" x="49" y="-1332.5" font-family="Helvetica,sans-Serif" font-size="10.00">+ LogPrint()</text>
<text text-anchor="start" x="49" y="-1321.5" font-family="Helvetica,sans-Serif" font-size="10.00">+ LogPrintDebug()</text>
<text text-anchor="start" x="49" y="-1310.5" font-family="Helvetica,sans-Serif" font-size="10.00">+ LogWarning()</text>
<text text-anchor="start" x="49" y="-1299.5" font-family="Helvetica,sans-Serif" font-size="10.00">+ ResCloseList()</text>
<text text-anchor="start" x="49" y="-1288.5" font-family="Helvetica,sans-Serif" font-size="10.00">+ ResCloseListDebug()</text>
<text text-anchor="start" x="49" y="-1277.5" font-family="Helvetica,sans-Serif" font-size="10.00">+ ResOpenList()</text>
<text text-anchor="start" x="49" y="-1266.5" font-family="Helvetica,sans-Serif" font-size="10.00">+ ResOpenListDebug()</text>
<text text-anchor="start" x="49" y="-1255.5" font-family="Helvetica,sans-Serif" font-size="10.00">+ getInstance()</text>
<text text-anchor="start" x="49" y="-1244.5" font-family="Helvetica,sans-Serif" font-size="10.00">+ init()</text>
<text text-anchor="start" x="49" y="-1233.5" font-family="Helvetica,sans-Serif" font-size="10.00">&#45; Logger_Sngltn()</text>
</a>
</g>
</g>
<!-- Node11&#45;&gt;Node7 -->
<g id="edge21" class="edge"><title>Node11&#45;&gt;Node7</title>
<path fill="none" stroke="#404040" d="M40.9842,-1307.97C18.9556,-1257.24 0,-1196.79 0,-1139 0,-1139 0,-1139 0,-584 0,-455.223 125.974,-352.232 211.001,-297.385"/>
<polygon fill="none" stroke="#404040" points="211.026,-297.369 213.947,-290.776 221.156,-290.936 218.236,-297.53 211.026,-297.369"/>
<text text-anchor="middle" x="26" y="-908.5" font-family="Helvetica,sans-Serif" font-size="10.00"> #MyLogger</text>
</g>
<!-- Node11&#45;&gt;Node8 -->
<g id="edge12" class="edge"><title>Node11&#45;&gt;Node8</title>
<path fill="none" stroke="#404040" d="M87.2609,-1226.26C74.0179,-1063.77 65.0091,-850.81 99,-772 122.954,-716.46 172.04,-668.826 214.049,-635.67"/>
<polygon fill="none" stroke="#404040" points="214.229,-635.53 216.528,-628.695 223.721,-628.188 221.422,-635.023 214.229,-635.53"/>
<text text-anchor="middle" x="104" y="-1071.5" font-family="Helvetica,sans-Serif" font-size="10.00"> ~myLogger</text>
</g>
<!-- Node11&#45;&gt;Node9 -->
<g id="edge9" class="edge"><title>Node11&#45;&gt;Node9</title>
<path fill="none" stroke="#404040" d="M129.127,-1226.14C133.968,-1183.74 139.361,-1139.37 145,-1098 146.855,-1084.39 148.908,-1070.24 151.045,-1056.1"/>
<polygon fill="none" stroke="#404040" points="151.046,-1056.09 147.998,-1049.55 152.858,-1044.23 155.906,-1050.76 151.046,-1056.09"/>
<text text-anchor="middle" x="171" y="-1135.5" font-family="Helvetica,sans-Serif" font-size="10.00"> ~myLogger</text>
</g>
<!-- Node11&#45;&gt;Node10 -->
<g id="edge6" class="edge"><title>Node11&#45;&gt;Node10</title>
<path fill="none" stroke="#404040" d="M175.108,-1302.36C196.368,-1261.93 218.61,-1219.62 235.132,-1188.2"/>
<polygon fill="none" stroke="#404040" points="235.143,-1188.18 234.394,-1181.01 240.727,-1177.56 241.475,-1184.73 235.143,-1188.18"/>
<text text-anchor="middle" x="252.5" y="-1199.5" font-family="Helvetica,sans-Serif" font-size="10.00"> &#45;myLogger</text>
</g>
<!-- Node11&#45;&gt;Node11 -->
<g id="edge8" class="edge"><title>Node11&#45;&gt;Node11</title>
<path fill="none" stroke="#404040" d="M175.337,-1470.18C185.84,-1464.32 193,-1451.26 193,-1431 193,-1417.39 189.768,-1407.02 184.461,-1399.91"/>
<polygon fill="none" stroke="#404040" points="184.315,-1399.78 177.172,-1398.8 175.337,-1391.82 182.48,-1392.81 184.315,-1399.78"/>
<text text-anchor="middle" x="215" y="-1428.5" font-family="Helvetica,sans-Serif" font-size="10.00"> &#45;Instance</text>
</g>
<!-- Node12 -->
<g id="node7" class="node"><title>Node12</title>
<polygon fill="white" stroke="#bfbfbf" points="36.5,-1684.5 36.5,-1741.5 179.5,-1741.5 179.5,-1684.5 36.5,-1684.5"/>
<text text-anchor="middle" x="108" y="-1729.5" font-family="Helvetica,sans-Serif" font-size="10.00">ArrayList&lt; okw.log.ILogger &gt;</text>
<polyline fill="none" stroke="#bfbfbf" points="36.5,-1722.5 179.5,-1722.5 "/>
<text text-anchor="middle" x="108" y="-1710.5" font-family="Helvetica,sans-Serif" font-size="10.00"> </text>
<polyline fill="none" stroke="#bfbfbf" points="36.5,-1703.5 179.5,-1703.5 "/>
<text text-anchor="middle" x="108" y="-1691.5" font-family="Helvetica,sans-Serif" font-size="10.00"> </text>
</g>
<!-- Node12&#45;&gt;Node11 -->
<g id="edge7" class="edge"><title>Node12&#45;&gt;Node11</title>
<path fill="none" stroke="#404040" d="M108,-1684.39C108,-1674.2 108,-1661.7 108,-1647.78"/>
<polygon fill="none" stroke="#404040" points="108,-1647.76 104,-1641.76 108,-1635.76 112,-1641.76 108,-1647.76"/>
<text text-anchor="middle" x="134" y="-1657.5" font-family="Helvetica,sans-Serif" font-size="10.00"> &#45;LoggerList</text>
</g>
<!-- Node13 -->
<g id="node8" class="node"><title>Node13</title>
<g id="a_node8"><a xlink:href="interfaceokw_1_1gui_1_1_i_g_u_i_childwindow.html" target="_top" xlink:title="{okw.gui.IGUIChildwindow\n||+ getCaption()\l+ getExists()\l+ getHasFocus()\l+ getIsActive()\l+ getLabel()\l+ getTooltip()\l+ getValue()\l+ ClickOn()\l+ DoubleClickOn()\l+ LogCaption()\l+ LogExists()\l+ LogHasFocus()\l+ LogIsActive()\l+ LogLabel()\l+ LogSelected()\l+ LogTablecellValue()\l+ LogTooltip()\l+ LogValue()\l+ MemorizeCaption()\l+ MemorizeExists()\lund 23 mehr ...\l}">
<polygon fill="white" stroke="black" points="260,-772.5 260,-1049.5 390,-1049.5 390,-772.5 260,-772.5"/>
<text text-anchor="middle" x="325" y="-1037.5" font-family="Helvetica,sans-Serif" font-size="10.00">okw.gui.IGUIChildwindow</text>
<polyline fill="none" stroke="black" points="260,-1030.5 390,-1030.5 "/>
<text text-anchor="middle" x="325" y="-1018.5" font-family="Helvetica,sans-Serif" font-size="10.00"> </text>
<polyline fill="none" stroke="black" points="260,-1011.5 390,-1011.5 "/>
<text text-anchor="start" x="268" y="-999.5" font-family="Helvetica,sans-Serif" font-size="10.00">+ getCaption()</text>
<text text-anchor="start" x="268" y="-988.5" font-family="Helvetica,sans-Serif" font-size="10.00">+ getExists()</text>
<text text-anchor="start" x="268" y="-977.5" font-family="Helvetica,sans-Serif" font-size="10.00">+ getHasFocus()</text>
<text text-anchor="start" x="268" y="-966.5" font-family="Helvetica,sans-Serif" font-size="10.00">+ getIsActive()</text>
<text text-anchor="start" x="268" y="-955.5" font-family="Helvetica,sans-Serif" font-size="10.00">+ getLabel()</text>
<text text-anchor="start" x="268" y="-944.5" font-family="Helvetica,sans-Serif" font-size="10.00">+ getTooltip()</text>
<text text-anchor="start" x="268" y="-933.5" font-family="Helvetica,sans-Serif" font-size="10.00">+ getValue()</text>
<text text-anchor="start" x="268" y="-922.5" font-family="Helvetica,sans-Serif" font-size="10.00">+ ClickOn()</text>
<text text-anchor="start" x="268" y="-911.5" font-family="Helvetica,sans-Serif" font-size="10.00">+ DoubleClickOn()</text>
<text text-anchor="start" x="268" y="-900.5" font-family="Helvetica,sans-Serif" font-size="10.00">+ LogCaption()</text>
<text text-anchor="start" x="268" y="-889.5" font-family="Helvetica,sans-Serif" font-size="10.00">+ LogExists()</text>
<text text-anchor="start" x="268" y="-878.5" font-family="Helvetica,sans-Serif" font-size="10.00">+ LogHasFocus()</text>
<text text-anchor="start" x="268" y="-867.5" font-family="Helvetica,sans-Serif" font-size="10.00">+ LogIsActive()</text>
<text text-anchor="start" x="268" y="-856.5" font-family="Helvetica,sans-Serif" font-size="10.00">+ LogLabel()</text>
<text text-anchor="start" x="268" y="-845.5" font-family="Helvetica,sans-Serif" font-size="10.00">+ LogSelected()</text>
<text text-anchor="start" x="268" y="-834.5" font-family="Helvetica,sans-Serif" font-size="10.00">+ LogTablecellValue()</text>
<text text-anchor="start" x="268" y="-823.5" font-family="Helvetica,sans-Serif" font-size="10.00">+ LogTooltip()</text>
<text text-anchor="start" x="268" y="-812.5" font-family="Helvetica,sans-Serif" font-size="10.00">+ LogValue()</text>
<text text-anchor="start" x="268" y="-801.5" font-family="Helvetica,sans-Serif" font-size="10.00">+ MemorizeCaption()</text>
<text text-anchor="start" x="268" y="-790.5" font-family="Helvetica,sans-Serif" font-size="10.00">+ MemorizeExists()</text>
<text text-anchor="start" x="268" y="-779.5" font-family="Helvetica,sans-Serif" font-size="10.00">und 23 mehr ...</text>
</a>
</g>
</g>
<!-- Node13&#45;&gt;Node8 -->
<g id="edge10" class="edge"><title>Node13&#45;&gt;Node8</title>
<path fill="none" stroke="midnightblue" d="M307.636,-761.952C306.144,-749.228 304.638,-736.389 303.156,-723.751"/>
<polygon fill="none" stroke="midnightblue" points="304.188,-762.601 308.829,-772.125 311.141,-761.785 304.188,-762.601"/>
</g>
<!-- Node14 -->
<g id="node9" class="node"><title>Node14</title>
<g id="a_node9"><a xlink:href="interfaceokw_1_1core_1_1_i_o_k_w___f_n.html" target="_top" xlink:title="{okw.core.IOKW_FN\n||+ setKN()\l+ setFN()\l+ setParentFN()\l+ getKN()\l+ getFN()\l+ getParentFN()\l}">
<polygon fill="white" stroke="black" points="408.5,-855 408.5,-967 513.5,-967 513.5,-855 408.5,-855"/>
<text text-anchor="middle" x="461" y="-955" font-family="Helvetica,sans-Serif" font-size="10.00">okw.core.IOKW_FN</text>
<polyline fill="none" stroke="black" points="408.5,-948 513.5,-948 "/>
<text text-anchor="middle" x="461" y="-936" font-family="Helvetica,sans-Serif" font-size="10.00"> </text>
<polyline fill="none" stroke="black" points="408.5,-929 513.5,-929 "/>
<text text-anchor="start" x="416.5" y="-917" font-family="Helvetica,sans-Serif" font-size="10.00">+ setKN()</text>
<text text-anchor="start" x="416.5" y="-906" font-family="Helvetica,sans-Serif" font-size="10.00">+ setFN()</text>
<text text-anchor="start" x="416.5" y="-895" font-family="Helvetica,sans-Serif" font-size="10.00">+ setParentFN()</text>
<text text-anchor="start" x="416.5" y="-884" font-family="Helvetica,sans-Serif" font-size="10.00">+ getKN()</text>
<text text-anchor="start" x="416.5" y="-873" font-family="Helvetica,sans-Serif" font-size="10.00">+ getFN()</text>
<text text-anchor="start" x="416.5" y="-862" font-family="Helvetica,sans-Serif" font-size="10.00">+ getParentFN()</text>
</a>
</g>
</g>
<!-- Node14&#45;&gt;Node8 -->
<g id="edge11" class="edge"><title>Node14&#45;&gt;Node8</title>
<path fill="none" stroke="midnightblue" d="M434.024,-845.705C423.672,-822.216 411.364,-795.626 399,-772 384.144,-743.612 366.806,-713.57 350.272,-686.102"/>
<polygon fill="none" stroke="midnightblue" points="430.824,-847.122 438.039,-854.88 437.237,-844.316 430.824,-847.122"/>
</g>
<!-- Node15 -->
<g id="node10" class="node"><title>Node15</title>
<g id="a_node10"><a xlink:href="classokw_1_1_log_messenger.html" target="_top" xlink:title="LogMessenger liest Log&#45;Meldungen sprachspezifisch für die im Konstruktor gegeben Klasse aus der Zugeh...">
<polygon fill="white" stroke="black" points="444.5,-529 444.5,-641 545.5,-641 545.5,-529 444.5,-529"/>
<text text-anchor="middle" x="495" y="-629" font-family="Helvetica,sans-Serif" font-size="10.00">okw.LogMessenger</text>
<polyline fill="none" stroke="black" points="444.5,-622 545.5,-622 "/>
<text text-anchor="start" x="452.5" y="-610" font-family="Helvetica,sans-Serif" font-size="10.00">&#45; cvsClassName</text>
<polyline fill="none" stroke="black" points="444.5,-603 545.5,-603 "/>
<text text-anchor="start" x="452.5" y="-591" font-family="Helvetica,sans-Serif" font-size="10.00">+ LogMessenger()</text>
<text text-anchor="start" x="452.5" y="-580" font-family="Helvetica,sans-Serif" font-size="10.00">+ GetMessage()</text>
<text text-anchor="start" x="452.5" y="-569" font-family="Helvetica,sans-Serif" font-size="10.00">+ GetMessage()</text>
<text text-anchor="start" x="452.5" y="-558" font-family="Helvetica,sans-Serif" font-size="10.00">+ GetMessage()</text>
<text text-anchor="start" x="452.5" y="-547" font-family="Helvetica,sans-Serif" font-size="10.00">+ GetMessage()</text>
<text text-anchor="start" x="452.5" y="-536" font-family="Helvetica,sans-Serif" font-size="10.00">&#45; ReadMessage()</text>
</a>
</g>
</g>
<!-- Node15&#45;&gt;Node7 -->
<g id="edge13" class="edge"><title>Node15&#45;&gt;Node7</title>
<path fill="none" stroke="#404040" d="M460.185,-528.765C432.698,-485.155 393.409,-422.822 359.199,-368.547"/>
<polygon fill="none" stroke="#404040" points="359.052,-368.313 352.468,-365.37 352.653,-358.161 359.236,-361.104 359.052,-368.313"/>
<text text-anchor="middle" x="402" y="-419.5" font-family="Helvetica,sans-Serif" font-size="10.00"> #LM</text>
</g>
<!-- Node16 -->
<g id="node11" class="node"><title>Node16</title>
<g id="a_node11"><a xlink:href="classokw_1_1_o_k_w___xml_reader.html" target="_top" xlink:title="{okw.OKW_XmlReader\n||+ getXMLFile()\l+ OKW_XmlReader()\l+ getTextContentSingleValue()\l+ getTextContentAsList()\l&#45; Init()\l}">
<polygon fill="white" stroke="black" points="574.5,-860.5 574.5,-961.5 725.5,-961.5 725.5,-860.5 574.5,-860.5"/>
<text text-anchor="middle" x="650" y="-949.5" font-family="Helvetica,sans-Serif" font-size="10.00">okw.OKW_XmlReader</text>
<polyline fill="none" stroke="black" points="574.5,-942.5 725.5,-942.5 "/>
<text text-anchor="middle" x="650" y="-930.5" font-family="Helvetica,sans-Serif" font-size="10.00"> </text>
<polyline fill="none" stroke="black" points="574.5,-923.5 725.5,-923.5 "/>
<text text-anchor="start" x="582.5" y="-911.5" font-family="Helvetica,sans-Serif" font-size="10.00">+ getXMLFile()</text>
<text text-anchor="start" x="582.5" y="-900.5" font-family="Helvetica,sans-Serif" font-size="10.00">+ OKW_XmlReader()</text>
<text text-anchor="start" x="582.5" y="-889.5" font-family="Helvetica,sans-Serif" font-size="10.00">+ getTextContentSingleValue()</text>
<text text-anchor="start" x="582.5" y="-878.5" font-family="Helvetica,sans-Serif" font-size="10.00">+ getTextContentAsList()</text>
<text text-anchor="start" x="582.5" y="-867.5" font-family="Helvetica,sans-Serif" font-size="10.00">&#45; Init()</text>
</a>
</g>
</g>
<!-- Node16&#45;&gt;Node15 -->
<g id="edge14" class="edge"><title>Node16&#45;&gt;Node15</title>
<path fill="none" stroke="#404040" d="M626.29,-860.439C599.665,-804.783 556.326,-714.191 526.782,-652.435"/>
<polygon fill="none" stroke="#404040" points="526.612,-652.079 520.414,-648.393 521.433,-641.254 527.631,-644.941 526.612,-652.079"/>
<text text-anchor="middle" x="607.5" y="-745.5" font-family="Helvetica,sans-Serif" font-size="10.00"> &#45;myXmlReader</text>
</g>
<!-- Node17 -->
<g id="node12" class="node"><title>Node17</title>
<polygon fill="white" stroke="#bfbfbf" points="407.5,-1109.5 407.5,-1166.5 478.5,-1166.5 478.5,-1109.5 407.5,-1109.5"/>
<text text-anchor="middle" x="443" y="-1154.5" font-family="Helvetica,sans-Serif" font-size="10.00">ClassLoader</text>
<polyline fill="none" stroke="#bfbfbf" points="407.5,-1147.5 478.5,-1147.5 "/>
<text text-anchor="middle" x="443" y="-1135.5" font-family="Helvetica,sans-Serif" font-size="10.00"> </text>
<polyline fill="none" stroke="#bfbfbf" points="407.5,-1128.5 478.5,-1128.5 "/>
<text text-anchor="middle" x="443" y="-1116.5" font-family="Helvetica,sans-Serif" font-size="10.00"> </text>
</g>
<!-- Node17&#45;&gt;Node16 -->
<g id="edge15" class="edge"><title>Node17&#45;&gt;Node16</title>
<path fill="none" stroke="midnightblue" d="M475.452,-1101.73C510.107,-1064.06 565.301,-1004.06 604.333,-961.638"/>
<polygon fill="none" stroke="midnightblue" points="472.577,-1099.68 468.382,-1109.41 477.729,-1104.42 472.577,-1099.68"/>
</g>
<!-- Node18 -->
<g id="node13" class="node"><title>Node18</title>
<polygon fill="white" stroke="#bfbfbf" points="496.5,-1109.5 496.5,-1166.5 621.5,-1166.5 621.5,-1109.5 496.5,-1109.5"/>
<text text-anchor="middle" x="559" y="-1154.5" font-family="Helvetica,sans-Serif" font-size="10.00">DocumentBuilderFactory</text>
<polyline fill="none" stroke="#bfbfbf" points="496.5,-1147.5 621.5,-1147.5 "/>
<text text-anchor="middle" x="559" y="-1135.5" font-family="Helvetica,sans-Serif" font-size="10.00"> </text>
<polyline fill="none" stroke="#bfbfbf" points="496.5,-1128.5 621.5,-1128.5 "/>
<text text-anchor="middle" x="559" y="-1116.5" font-family="Helvetica,sans-Serif" font-size="10.00"> </text>
</g>
<!-- Node18&#45;&gt;Node16 -->
<g id="edge16" class="edge"><title>Node18&#45;&gt;Node16</title>
<path fill="none" stroke="#404040" d="M568.132,-1109.3C572.437,-1096.64 577.769,-1081.48 583,-1068 595.333,-1036.22 610.197,-1001.32 622.787,-972.599"/>
<polygon fill="none" stroke="#404040" points="622.834,-972.494 621.591,-965.39 627.67,-961.511 628.913,-968.614 622.834,-972.494"/>
<text text-anchor="middle" x="615" y="-1071.5" font-family="Helvetica,sans-Serif" font-size="10.00"> &#45;mydbFactory</text>
</g>
<!-- Node19 -->
<g id="node14" class="node"><title>Node19</title>
<polygon fill="white" stroke="#bfbfbf" points="639,-1109.5 639,-1166.5 683,-1166.5 683,-1109.5 639,-1109.5"/>
<text text-anchor="middle" x="661" y="-1154.5" font-family="Helvetica,sans-Serif" font-size="10.00">XPath</text>
<polyline fill="none" stroke="#bfbfbf" points="639,-1147.5 683,-1147.5 "/>
<text text-anchor="middle" x="661" y="-1135.5" font-family="Helvetica,sans-Serif" font-size="10.00"> </text>
<polyline fill="none" stroke="#bfbfbf" points="639,-1128.5 683,-1128.5 "/>
<text text-anchor="middle" x="661" y="-1116.5" font-family="Helvetica,sans-Serif" font-size="10.00"> </text>
</g>
<!-- Node19&#45;&gt;Node16 -->
<g id="edge17" class="edge"><title>Node19&#45;&gt;Node16</title>
<path fill="none" stroke="#404040" d="M655.178,-1109.29C653.488,-1100.02 651.865,-1089.61 651,-1080 647.848,-1044.99 647.441,-1005.72 647.895,-973.951"/>
<polygon fill="none" stroke="#404040" points="647.899,-973.722 644.008,-967.651 648.116,-961.724 652.007,-967.796 647.899,-973.722"/>
<text text-anchor="middle" x="674.5" y="-1071.5" font-family="Helvetica,sans-Serif" font-size="10.00"> &#45;myXPath</text>
</g>
<!-- Node20 -->
<g id="node15" class="node"><title>Node20</title>
<polygon fill="white" stroke="#bfbfbf" points="701.5,-1109.5 701.5,-1166.5 738.5,-1166.5 738.5,-1109.5 701.5,-1109.5"/>
<text text-anchor="middle" x="720" y="-1154.5" font-family="Helvetica,sans-Serif" font-size="10.00">Path</text>
<polyline fill="none" stroke="#bfbfbf" points="701.5,-1147.5 738.5,-1147.5 "/>
<text text-anchor="middle" x="720" y="-1135.5" font-family="Helvetica,sans-Serif" font-size="10.00"> </text>
<polyline fill="none" stroke="#bfbfbf" points="701.5,-1128.5 738.5,-1128.5 "/>
<text text-anchor="middle" x="720" y="-1116.5" font-family="Helvetica,sans-Serif" font-size="10.00"> </text>
</g>
<!-- Node20&#45;&gt;Node16 -->
<g id="edge18" class="edge"><title>Node20&#45;&gt;Node16</title>
<path fill="none" stroke="#404040" d="M711.417,-1109.41C700.927,-1075.69 682.869,-1017.65 669.041,-973.202"/>
<polygon fill="none" stroke="#404040" points="669.008,-973.097 663.406,-968.556 665.443,-961.638 671.045,-966.179 669.008,-973.097"/>
<text text-anchor="middle" x="730" y="-1071.5" font-family="Helvetica,sans-Serif" font-size="10.00"> &#45;myXMLFile</text>
</g>
<!-- Node21 -->
<g id="node16" class="node"><title>Node21</title>
<polygon fill="white" stroke="#bfbfbf" points="757,-1109.5 757,-1166.5 849,-1166.5 849,-1109.5 757,-1109.5"/>
<text text-anchor="middle" x="803" y="-1154.5" font-family="Helvetica,sans-Serif" font-size="10.00">DocumentBuilder</text>
<polyline fill="none" stroke="#bfbfbf" points="757,-1147.5 849,-1147.5 "/>
<text text-anchor="middle" x="803" y="-1135.5" font-family="Helvetica,sans-Serif" font-size="10.00"> </text>
<polyline fill="none" stroke="#bfbfbf" points="757,-1128.5 849,-1128.5 "/>
<text text-anchor="middle" x="803" y="-1116.5" font-family="Helvetica,sans-Serif" font-size="10.00"> </text>
</g>
<!-- Node21&#45;&gt;Node16 -->
<g id="edge19" class="edge"><title>Node21&#45;&gt;Node16</title>
<path fill="none" stroke="#404040" d="M787.373,-1109.47C779.939,-1096.7 770.774,-1081.41 762,-1068 740.772,-1035.56 715.718,-1000.4 694.696,-971.686"/>
<polygon fill="none" stroke="#404040" points="694.547,-971.484 687.771,-969.018 687.441,-961.814 694.217,-964.28 694.547,-971.484"/>
<text text-anchor="middle" x="797.5" y="-1071.5" font-family="Helvetica,sans-Serif" font-size="10.00"> &#45;mydBuilder</text>
</g>
<!-- Node22 -->
<g id="node17" class="node"><title>Node22</title>
<polygon fill="white" stroke="#bfbfbf" points="867,-1109.5 867,-1166.5 929,-1166.5 929,-1109.5 867,-1109.5"/>
<text text-anchor="middle" x="898" y="-1154.5" font-family="Helvetica,sans-Serif" font-size="10.00">Document</text>
<polyline fill="none" stroke="#bfbfbf" points="867,-1147.5 929,-1147.5 "/>
<text text-anchor="middle" x="898" y="-1135.5" font-family="Helvetica,sans-Serif" font-size="10.00"> </text>
<polyline fill="none" stroke="#bfbfbf" points="867,-1128.5 929,-1128.5 "/>
<text text-anchor="middle" x="898" y="-1116.5" font-family="Helvetica,sans-Serif" font-size="10.00"> </text>
</g>
<!-- Node22&#45;&gt;Node16 -->
<g id="edge20" class="edge"><title>Node22&#45;&gt;Node16</title>
<path fill="none" stroke="#404040" d="M871.222,-1109.36C858.61,-1096.57 843.24,-1081.3 829,-1068 793.197,-1034.57 752.065,-998.564 718.265,-969.576"/>
<polygon fill="none" stroke="#404040" points="718.054,-969.395 710.895,-968.534 708.937,-961.593 716.096,-962.455 718.054,-969.395"/>
<text text-anchor="middle" x="883.5" y="-1071.5" font-family="Helvetica,sans-Serif" font-size="10.00"> &#45;myXMLDocument</text>
</g>
</g>
</svg>
        <g id="navigator" transform="translate(0 0)" fill="#404254">
                <rect fill="#f2f5e9" fill-opacity="0.5" stroke="#606060" stroke-width=".5" x="0" y="0" width="60" height="60"/>
                <use id="zoomplus" xlink:href="#zoomPlus" x="17" y="9" onmousedown="handleZoom(evt,'in')"/>
                <use id="zoomminus" xlink:href="#zoomMin" x="42" y="9" onmousedown="handleZoom(evt,'out')"/>
                <use id="reset" xlink:href="#resetDef" x="30" y="36" onmousedown="handleReset()"/>
                <g id="arrowUp" xlink:href="#dirArrow" transform="translate(30 24)" onmousedown="handlePan(0,-1)">
                  <use xlink:href="#rim" fill="#404040">
                        <set attributeName="fill" to="#808080" begin="arrowUp.mouseover" end="arrowUp.mouseout"/>
                  </use>
                  <path fill="none" stroke="white" stroke-width="1.5" d="M0,-3.0v7 M-2.5,-0.5L0,-3.0L2.5,-0.5"/>
                </g>
                <g id="arrowRight" xlink:href="#dirArrow" transform="rotate(90) translate(36 -43)" onmousedown="handlePan(1,0)">
                  <use xlink:href="#rim" fill="#404040">
                        <set attributeName="fill" to="#808080" begin="arrowRight.mouseover" end="arrowRight.mouseout"/>
                  </use>
                  <path fill="none" stroke="white" stroke-width="1.5" d="M0,-3.0v7 M-2.5,-0.5L0,-3.0L2.5,-0.5"/>
                </g>
                <g id="arrowDown" xlink:href="#dirArrow" transform="rotate(180) translate(-30 -48)" onmousedown="handlePan(0,1)">
                  <use xlink:href="#rim" fill="#404040">
                        <set attributeName="fill" to="#808080" begin="arrowDown.mouseover" end="arrowDown.mouseout"/>
                  </use>
                  <path fill="none" stroke="white" stroke-width="1.5" d="M0,-3.0v7 M-2.5,-0.5L0,-3.0L2.5,-0.5"/>
                </g>
                <g id="arrowLeft" xlink:href="#dirArrow" transform="rotate(270) translate(-36 17)" onmousedown="handlePan(-1,0)">
                  <use xlink:href="#rim" fill="#404040">
                        <set attributeName="fill" to="#808080" begin="arrowLeft.mouseover" end="arrowLeft.mouseout"/>
                  </use>
                  <path fill="none" stroke="white" stroke-width="1.5" d="M0,-3.0v7 M-2.5,-0.5L0,-3.0L2.5,-0.5"/>
                </g>
        </g>
        <svg viewBox="0 0 15 15" width="100%" height="30px" preserveAspectRatio="xMaxYMin meet">
         <g id="arrow_out" transform="scale(0.3 0.3)">
          <a xlink:href="classokw_1_1gui_1_1adapter_1_1selenium_1_1_se_table__coll__graph_org.svg" target="_base">
           <rect id="button" ry="5" rx="5" y="6" x="6" height="38" width="38"
                fill="#f2f5e9" fill-opacity="0.5" stroke="#606060" stroke-width="1.0"/>
           <path id="arrow"
             d="M 11.500037,31.436501 C 11.940474,20.09759 22.043105,11.32322 32.158766,21.979434 L 37.068811,17.246167 C 37.068811,17.246167 37.088388,32 37.088388,32 L 22.160133,31.978069 C 22.160133,31.978069 26.997745,27.140456 26.997745,27.140456 C 18.528582,18.264221 13.291696,25.230495 11.500037,31.436501 z"
             style="fill:#404040;"/>
          </a>
         </g>
        </svg>
</svg>
