<?xml version="1.0" encoding="UTF-8" standalone="no"?>
<!DOCTYPE svg PUBLIC "-//W3C//DTD SVG 1.1//EN"
 "http://www.w3.org/Graphics/SVG/1.1/DTD/svg11.dtd">
<!-- Generated by graphviz version 2.36.0 (20140111.2315)
 -->
<!-- Title: okw.core.Core.VerifyLabelREGX Pages: 1 -->
<!--zoomable 1440 -->
<svg id="main" version="1.1" xmlns="http://www.w3.org/2000/svg" xmlns:xlink="http://www.w3.org/1999/xlink" xml:space="preserve" onload="init(evt)">
<style type="text/css"><![CDATA[
.edge:hover path { stroke: red; }
.edge:hover polygon { stroke: red; fill: red; }
]]></style>
<script type="text/javascript"><![CDATA[
var edges = document.getElementsByTagName('g');
if (edges && edges.length) {
  for (var i=0;i<edges.length;i++) {
    if (edges[i].id.substr(0,4)=='edge') {
      edges[i].setAttribute('class','edge');
    }
  }
}
]]></script>
        <defs>
                <circle id="rim" cx="0" cy="0" r="7"/>
                <circle id="rim2" cx="0" cy="0" r="3.5"/>
                <g id="zoomPlus">
                        <use xlink:href="#rim" fill="#404040">
                                <set attributeName="fill" to="#808080" begin="zoomplus.mouseover" end="zoomplus.mouseout"/>
                        </use>
                        <path d="M-4,0h8M0,-4v8" fill="none" stroke="white" stroke-width="1.5" pointer-events="none"/>
                </g>
                <g id="zoomMin">
                        <use xlink:href="#rim" fill="#404040">
                                <set attributeName="fill" to="#808080" begin="zoomminus.mouseover" end="zoomminus.mouseout"/>
                        </use>
                        <path d="M-4,0h8" fill="none" stroke="white" stroke-width="1.5" pointer-events="none"/>
                </g>
                <g id="dirArrow">
                        <path fill="none" stroke="white" stroke-width="1.5" d="M0,-3.0v7 M-2.5,-0.5L0,-3.0L2.5,-0.5"/>
                </g>
               <g id="resetDef">
                       <use xlink:href="#rim2" fill="#404040">
                               <set attributeName="fill" to="#808080" begin="reset.mouseover" end="reset.mouseout"/>
                       </use>
               </g>
        </defs>

<script type="text/javascript">
var viewWidth = 614;
var viewHeight = 1440;
var sectionId = 'dynsection-101';
</script>
<script xlink:href="svgpan.js"/>
<svg id="graph" class="graph">
<g id="viewport">
<title>okw.core.Core.VerifyLabelREGX</title>
<polygon fill="white" stroke="none" points="-4,4 -4,-1436 610,-1436 610,4 -4,4"/>
<!-- Node3836 -->
<g id="node1" class="node"><title>Node3836</title>
<polygon fill="#bfbfbf" stroke="black" points="0.5,-677.5 0.5,-696.5 161.5,-696.5 161.5,-677.5 0.5,-677.5"/>
<text text-anchor="middle" x="81" y="-684.5" font-family="Helvetica,sans-Serif" font-size="10.00">okw.core.Core.VerifyLabelREGX</text>
</g>
<!-- Node3837 -->
<g id="node2" class="node"><title>Node3837</title>
<g id="a_node2"><a xlink:href="classokw_1_1core_1_1_e_n.html#a33c8aac65f5d1f919065a9ec5e47f415" target="_top" xlink:title="Überprüft die Überschrift des Objektes. ">
<polygon fill="white" stroke="black" points="198,-677.5 198,-696.5 352,-696.5 352,-677.5 198,-677.5"/>
<text text-anchor="middle" x="275" y="-684.5" font-family="Helvetica,sans-Serif" font-size="10.00">okw.core.EN.VerifyLabelREGX</text>
</a>
</g>
</g>
<!-- Node3836&#45;&gt;Node3837 -->
<g id="edge1" class="edge"><title>Node3836&#45;&gt;Node3837</title>
<path fill="none" stroke="midnightblue" d="M171.906,-687C180.593,-687 189.346,-687 197.88,-687"/>
<polygon fill="midnightblue" stroke="midnightblue" points="171.757,-683.5 161.757,-687 171.757,-690.5 171.757,-683.5"/>
</g>
<!-- Node3838 -->
<g id="node3" class="node"><title>Node3838</title>
<g id="a_node3"><a xlink:href="classokw_1_1core_1_1_e_n___keywords___a_n_t_l_r___test.html#a7d3f82b882bb3d57869322402caf8edd" target="_top" xlink:title="okw.core.EN_Keywords\l_ANTLR_Test.tc_VerifyLabelREGX\l_MemorizedValue">
<polygon fill="white" stroke="black" points="410.5,-1390.5 410.5,-1431.5 583.5,-1431.5 583.5,-1390.5 410.5,-1390.5"/>
<text text-anchor="start" x="418.5" y="-1419.5" font-family="Helvetica,sans-Serif" font-size="10.00">okw.core.EN_Keywords</text>
<text text-anchor="start" x="418.5" y="-1408.5" font-family="Helvetica,sans-Serif" font-size="10.00">_ANTLR_Test.tc_VerifyLabelREGX</text>
<text text-anchor="middle" x="497" y="-1397.5" font-family="Helvetica,sans-Serif" font-size="10.00">_MemorizedValue</text>
</a>
</g>
</g>
<!-- Node3837&#45;&gt;Node3838 -->
<g id="edge2" class="edge"><title>Node3837&#45;&gt;Node3838</title>
<path fill="none" stroke="midnightblue" d="M276.427,-706.697C279.03,-808.705 295.9,-1276.2 388,-1380 394.214,-1387 401.895,-1392.47 410.274,-1396.73"/>
<polygon fill="midnightblue" stroke="midnightblue" points="279.923,-706.488 276.186,-696.574 272.925,-706.654 279.923,-706.488"/>
</g>
<!-- Node3839 -->
<g id="node4" class="node"><title>Node3839</title>
<g id="a_node4"><a xlink:href="classokw_1_1core_1_1_e_n___keywords___d_e_l_e_t_e___test.html#a0e62a17933f21dc8c45b22def98ac192" target="_top" xlink:title="okw.core.EN_Keywords\l_DELETE_Test.tcSelectMenu\l_Value_MV_DELETE_EmptyString">
<polygon fill="white" stroke="black" points="412,-1330.5 412,-1371.5 582,-1371.5 582,-1330.5 412,-1330.5"/>
<text text-anchor="start" x="420" y="-1359.5" font-family="Helvetica,sans-Serif" font-size="10.00">okw.core.EN_Keywords</text>
<text text-anchor="start" x="420" y="-1348.5" font-family="Helvetica,sans-Serif" font-size="10.00">_DELETE_Test.tcSelectMenu</text>
<text text-anchor="middle" x="497" y="-1337.5" font-family="Helvetica,sans-Serif" font-size="10.00">_Value_MV_DELETE_EmptyString</text>
</a>
</g>
</g>
<!-- Node3837&#45;&gt;Node3839 -->
<g id="edge3" class="edge"><title>Node3837&#45;&gt;Node3839</title>
<path fill="none" stroke="midnightblue" d="M276.76,-706.793C280.87,-803.581 303.488,-1226.17 388,-1320 394.658,-1327.39 402.95,-1333.07 411.96,-1337.42"/>
<polygon fill="midnightblue" stroke="midnightblue" points="280.251,-706.498 276.348,-696.649 273.257,-706.783 280.251,-706.498"/>
</g>
<!-- Node3840 -->
<g id="node5" class="node"><title>Node3840</title>
<g id="a_node5"><a xlink:href="classokw_1_1core_1_1_e_n___keywords___empty___test.html#acc74c594635d4e02913a9707027903f6" target="_top" xlink:title="Prüft &quot;${EMPTY}&quot; für das Schlüsslewort VerifyLabel(strng,string) ">
<polygon fill="white" stroke="black" points="410,-1270.5 410,-1311.5 584,-1311.5 584,-1270.5 410,-1270.5"/>
<text text-anchor="start" x="418" y="-1299.5" font-family="Helvetica,sans-Serif" font-size="10.00">okw.core.EN_Keywords</text>
<text text-anchor="start" x="418" y="-1288.5" font-family="Helvetica,sans-Serif" font-size="10.00">_Empty_Test.tc_VerifyLabelREGX_</text>
<text text-anchor="middle" x="497" y="-1277.5" font-family="Helvetica,sans-Serif" font-size="10.00">Empty</text>
</a>
</g>
</g>
<!-- Node3837&#45;&gt;Node3840 -->
<g id="edge4" class="edge"><title>Node3837&#45;&gt;Node3840</title>
<path fill="none" stroke="midnightblue" d="M277.148,-706.618C282.846,-797.415 310.969,-1176 388,-1260 394.197,-1266.76 401.758,-1272.08 409.975,-1276.26"/>
<polygon fill="midnightblue" stroke="midnightblue" points="280.639,-706.361 276.538,-696.592 273.652,-706.787 280.639,-706.361"/>
</g>
<!-- Node3841 -->
<g id="node6" class="node"><title>Node3841</title>
<g id="a_node6"><a xlink:href="classokw_1_1core_1_1_e_n___keywords___i_g_n_o_r_e___test.html#abdd39af32353efae68eac80b693bb618" target="_top" xlink:title="okw.core.EN_Keywords\l_IGNORE_Test.tcVerifyLabelREGX\l_IGNORE">
<polygon fill="white" stroke="black" points="409.5,-1210.5 409.5,-1251.5 584.5,-1251.5 584.5,-1210.5 409.5,-1210.5"/>
<text text-anchor="start" x="417.5" y="-1239.5" font-family="Helvetica,sans-Serif" font-size="10.00">okw.core.EN_Keywords</text>
<text text-anchor="start" x="417.5" y="-1228.5" font-family="Helvetica,sans-Serif" font-size="10.00">_IGNORE_Test.tcVerifyLabelREGX</text>
<text text-anchor="middle" x="497" y="-1217.5" font-family="Helvetica,sans-Serif" font-size="10.00">_IGNORE</text>
</a>
</g>
</g>
<!-- Node3837&#45;&gt;Node3841 -->
<g id="edge5" class="edge"><title>Node3837&#45;&gt;Node3841</title>
<path fill="none" stroke="midnightblue" d="M277.662,-706.953C285.164,-792.332 318.559,-1125.92 388,-1200 394.07,-1206.48 401.394,-1211.63 409.335,-1215.72"/>
<polygon fill="midnightblue" stroke="midnightblue" points="281.133,-706.466 276.791,-696.802 274.159,-707.065 281.133,-706.466"/>
</g>
<!-- Node3842 -->
<g id="node7" class="node"><title>Node3842</title>
<g id="a_node7"><a xlink:href="classokw_1_1core_1_1_e_n___keywords___i_g_n_o_r_e___test.html#a3170f755d09a1ce7e67c68cc923b20fc" target="_top" xlink:title="okw.core.EN_Keywords\l_IGNORE_Test.tcVerifyLabelREGX\l_IGNORE_EmptyString">
<polygon fill="white" stroke="black" points="409.5,-1150.5 409.5,-1191.5 584.5,-1191.5 584.5,-1150.5 409.5,-1150.5"/>
<text text-anchor="start" x="417.5" y="-1179.5" font-family="Helvetica,sans-Serif" font-size="10.00">okw.core.EN_Keywords</text>
<text text-anchor="start" x="417.5" y="-1168.5" font-family="Helvetica,sans-Serif" font-size="10.00">_IGNORE_Test.tcVerifyLabelREGX</text>
<text text-anchor="middle" x="497" y="-1157.5" font-family="Helvetica,sans-Serif" font-size="10.00">_IGNORE_EmptyString</text>
</a>
</g>
</g>
<!-- Node3837&#45;&gt;Node3842 -->
<g id="edge6" class="edge"><title>Node3837&#45;&gt;Node3842</title>
<path fill="none" stroke="midnightblue" d="M278.247,-706.906C287.562,-785.987 325.596,-1076.75 388,-1141 394.101,-1147.28 401.395,-1152.28 409.273,-1156.26"/>
<polygon fill="midnightblue" stroke="midnightblue" points="281.708,-706.358 277.082,-696.827 274.754,-707.163 281.708,-706.358"/>
</g>
<!-- Node3843 -->
<g id="node8" class="node"><title>Node3843</title>
<g id="a_node8"><a xlink:href="classokw_1_1core_1_1_e_n___keywords___test.html#a5a9b010b788b61511a51640fdefb5473" target="_top" xlink:title="&quot;Normaler&quot; Testfall für das Schlüsselwort EN.VerifyLabelREGX(String,String). ">
<polygon fill="white" stroke="black" points="429.5,-1102 429.5,-1132 564.5,-1132 564.5,-1102 429.5,-1102"/>
<text text-anchor="start" x="437.5" y="-1120" font-family="Helvetica,sans-Serif" font-size="10.00">okw.core.EN_Keywords</text>
<text text-anchor="middle" x="497" y="-1109" font-family="Helvetica,sans-Serif" font-size="10.00">_Test.tc_VerifyLabelREGX</text>
</a>
</g>
</g>
<!-- Node3837&#45;&gt;Node3843 -->
<g id="edge7" class="edge"><title>Node3837&#45;&gt;Node3843</title>
<path fill="none" stroke="midnightblue" d="M278.759,-706.677C289.443,-780.113 330.386,-1036.77 388,-1092 399.254,-1102.79 414.198,-1109.25 429.371,-1113.05"/>
<polygon fill="midnightblue" stroke="midnightblue" points="282.187,-705.926 277.306,-696.523 275.257,-706.918 282.187,-705.926"/>
</g>
<!-- Node3844 -->
<g id="node9" class="node"><title>Node3844</title>
<g id="a_node9"><a xlink:href="classokw_1_1core_1_1_e_n___o_k_w_frame_object_child_not_found_exception___test.html#a1ab06ec8e7266ccd2351358cbd8acb56" target="_top" xlink:title="Prüft ob die Ausnahme OKWFrameObjectChildNotFoundException durch die LFC&#45;VerifyCaption ausgelöst wird...">
<polygon fill="white" stroke="black" points="391.5,-1031 391.5,-1083 602.5,-1083 602.5,-1031 391.5,-1031"/>
<text text-anchor="start" x="399.5" y="-1071" font-family="Helvetica,sans-Serif" font-size="10.00">okw.core.EN_OKWFrameObject</text>
<text text-anchor="start" x="399.5" y="-1060" font-family="Helvetica,sans-Serif" font-size="10.00">ChildNotFoundException</text>
<text text-anchor="start" x="399.5" y="-1049" font-family="Helvetica,sans-Serif" font-size="10.00">_Test.TC_VerifyLabelREGX</text>
<text text-anchor="middle" x="497" y="-1038" font-family="Helvetica,sans-Serif" font-size="10.00">_OKWFrameObjectChildNotFoundException</text>
</a>
</g>
</g>
<!-- Node3837&#45;&gt;Node3844 -->
<g id="edge8" class="edge"><title>Node3837&#45;&gt;Node3844</title>
<path fill="none" stroke="midnightblue" d="M276.743,-706.663C279.962,-763.591 297.088,-930.251 388,-1021 391.637,-1024.63 395.649,-1027.89 399.923,-1030.83"/>
<polygon fill="midnightblue" stroke="midnightblue" points="280.232,-706.341 276.256,-696.52 273.24,-706.677 280.232,-706.341"/>
</g>
<!-- Node3845 -->
<g id="node10" class="node"><title>Node3845</title>
<g id="a_node10"><a xlink:href="classokw_1_1core_1_1_e_n___o_k_w_frame_object_method_not_implemented___test.html#ac1b160b211d0a952829432cc809a575e" target="_top" xlink:title="Prüft ob die Ausnahme OKWFrameObjectMethodNotImplemented von VerifyCaptionREGX( FN, ExpVal ) ausgelöst wird. ">
<polygon fill="white" stroke="black" points="388.5,-960 388.5,-1012 605.5,-1012 605.5,-960 388.5,-960"/>
<text text-anchor="start" x="396.5" y="-1000" font-family="Helvetica,sans-Serif" font-size="10.00">okw.core.EN_OKWFrameObject</text>
<text text-anchor="start" x="396.5" y="-989" font-family="Helvetica,sans-Serif" font-size="10.00">MethodNotImplemented_Test.TC</text>
<text text-anchor="start" x="396.5" y="-978" font-family="Helvetica,sans-Serif" font-size="10.00">_VerifyLabelREGX_OKWFrameObjectMethod</text>
<text text-anchor="middle" x="497" y="-967" font-family="Helvetica,sans-Serif" font-size="10.00">NotImplemented</text>
</a>
</g>
</g>
<!-- Node3837&#45;&gt;Node3845 -->
<g id="edge9" class="edge"><title>Node3837&#45;&gt;Node3845</title>
<path fill="none" stroke="midnightblue" d="M278.872,-706.772C286.926,-755.133 314.174,-880.438 388,-949 392.357,-953.046 397.176,-956.652 402.289,-959.866"/>
<polygon fill="midnightblue" stroke="midnightblue" points="282.298,-706.029 277.291,-696.693 275.383,-707.114 282.298,-706.029"/>
</g>
<!-- Node3846 -->
<g id="node11" class="node"><title>Node3846</title>
<g id="a_node11"><a xlink:href="classokw_1_1core_1_1_e_n___o_k_w_not_allowed_value_exception___keywords___i_g_n_o_r_e.html#a2a098a01c825e58bc17c21cb660e392d" target="_top" xlink:title="Prüft ob &quot;${IGNORE} &quot; die Ausnahme okw.exceptions.OKWNotAllowedValueException auslöst. ">
<polygon fill="white" stroke="black" points="399.5,-899.5 399.5,-940.5 594.5,-940.5 594.5,-899.5 399.5,-899.5"/>
<text text-anchor="start" x="407.5" y="-928.5" font-family="Helvetica,sans-Serif" font-size="10.00">okw.core.EN_OKWNotAllowed</text>
<text text-anchor="start" x="407.5" y="-917.5" font-family="Helvetica,sans-Serif" font-size="10.00">ValueException_Keywords</text>
<text text-anchor="middle" x="497" y="-906.5" font-family="Helvetica,sans-Serif" font-size="10.00">_IGNORE.tcVerifyLabelREGXIGNORE1</text>
</a>
</g>
</g>
<!-- Node3837&#45;&gt;Node3846 -->
<g id="edge10" class="edge"><title>Node3837&#45;&gt;Node3846</title>
<path fill="none" stroke="midnightblue" d="M281.264,-706.441C293.2,-746.764 326.199,-839.833 388,-889 392.961,-892.947 398.404,-896.391 404.125,-899.397"/>
<polygon fill="midnightblue" stroke="midnightblue" points="284.611,-705.413 278.507,-696.754 277.879,-707.33 284.611,-705.413"/>
</g>
<!-- Node3847 -->
<g id="node12" class="node"><title>Node3847</title>
<g id="a_node12"><a xlink:href="classokw_1_1core_1_1_e_n___o_k_w_not_allowed_value_exception___keywords___i_g_n_o_r_e.html#a01f380e6967cc2a70a25ae2dcbe3cae1" target="_top" xlink:title="Prüft ob &quot;&quot;${IGNORE}${TCN}&quot; die Ausnahme okw.exceptions.OKWNotAllowedValueException auslöst...">
<polygon fill="white" stroke="black" points="399.5,-839.5 399.5,-880.5 594.5,-880.5 594.5,-839.5 399.5,-839.5"/>
<text text-anchor="start" x="407.5" y="-868.5" font-family="Helvetica,sans-Serif" font-size="10.00">okw.core.EN_OKWNotAllowed</text>
<text text-anchor="start" x="407.5" y="-857.5" font-family="Helvetica,sans-Serif" font-size="10.00">ValueException_Keywords</text>
<text text-anchor="middle" x="497" y="-846.5" font-family="Helvetica,sans-Serif" font-size="10.00">_IGNORE.tcVerifyLabelREGXIGNORE2</text>
</a>
</g>
</g>
<!-- Node3837&#45;&gt;Node3847 -->
<g id="edge11" class="edge"><title>Node3837&#45;&gt;Node3847</title>
<path fill="none" stroke="midnightblue" d="M285.673,-705.755C302.369,-736.252 339.519,-796.452 388,-829 393.911,-832.969 400.333,-836.436 406.998,-839.464"/>
<polygon fill="midnightblue" stroke="midnightblue" points="288.602,-703.81 280.808,-696.634 282.426,-707.104 288.602,-703.81"/>
</g>
<!-- Node3848 -->
<g id="node13" class="node"><title>Node3848</title>
<g id="a_node13"><a xlink:href="classokw_1_1core_1_1_e_n___verify_label___o_k_w_verifying_fails_exception___test.html#af22c7094a42a9405a9d992ddfde2242f" target="_top" xlink:title="Prüft, ob die Ausnahme OKWVerifyingFailsException bei einem Soll/Ist&#45;Vergleich ausgelöst wird...">
<polygon fill="white" stroke="black" points="393,-768 393,-820 601,-820 601,-768 393,-768"/>
<text text-anchor="start" x="401" y="-808" font-family="Helvetica,sans-Serif" font-size="10.00">okw.core.EN_VerifyLabel</text>
<text text-anchor="start" x="401" y="-797" font-family="Helvetica,sans-Serif" font-size="10.00">_OKWVerifyingFailsException</text>
<text text-anchor="start" x="401" y="-786" font-family="Helvetica,sans-Serif" font-size="10.00">_Test.TC_VerifyLabelREGX_OKWVerifying</text>
<text text-anchor="middle" x="497" y="-775" font-family="Helvetica,sans-Serif" font-size="10.00">FailsException_SV02</text>
</a>
</g>
</g>
<!-- Node3837&#45;&gt;Node3848 -->
<g id="edge12" class="edge"><title>Node3837&#45;&gt;Node3848</title>
<path fill="none" stroke="midnightblue" d="M297.056,-702.553C318.922,-718.164 354.551,-742.115 388,-758 395.409,-761.519 403.254,-764.843 411.199,-767.942"/>
<polygon fill="midnightblue" stroke="midnightblue" points="298.999,-699.639 288.844,-696.618 294.899,-705.312 298.999,-699.639"/>
</g>
<!-- Node3849 -->
<g id="node14" class="node"><title>Node3849</title>
<g id="a_node14"><a xlink:href="classokw_1_1core_1_1_e_n___verify_label___o_k_w_verifying_fails_exception___test.html#a9dbd5baaa8296c25765acb158143bbc4" target="_top" xlink:title="Prüft, ob die Ausnahme OKWVerifyingFailsException bei einem Soll/Ist&#45;Vergleich ausgelöst wird...">
<polygon fill="white" stroke="black" points="393,-697 393,-749 601,-749 601,-697 393,-697"/>
<text text-anchor="start" x="401" y="-737" font-family="Helvetica,sans-Serif" font-size="10.00">okw.core.EN_VerifyLabel</text>
<text text-anchor="start" x="401" y="-726" font-family="Helvetica,sans-Serif" font-size="10.00">_OKWVerifyingFailsException</text>
<text text-anchor="start" x="401" y="-715" font-family="Helvetica,sans-Serif" font-size="10.00">_Test.TC_VerifyLabelREGX_OKWVerifying</text>
<text text-anchor="middle" x="497" y="-704" font-family="Helvetica,sans-Serif" font-size="10.00">FailsException_SV03</text>
</a>
</g>
</g>
<!-- Node3837&#45;&gt;Node3849 -->
<g id="edge13" class="edge"><title>Node3837&#45;&gt;Node3849</title>
<path fill="none" stroke="midnightblue" d="M344.054,-698.136C359.526,-700.668 376.3,-703.413 392.866,-706.123"/>
<polygon fill="midnightblue" stroke="midnightblue" points="344.524,-694.667 334.09,-696.506 343.394,-701.575 344.524,-694.667"/>
</g>
<!-- Node3850 -->
<g id="node15" class="node"><title>Node3850</title>
<g id="a_node15"><a xlink:href="classokw_1_1core_1_1_e_n___verify_label___o_k_w_verifying_fails_exception___test.html#a51c25a006faecb3d4bf7571cffa553a6" target="_top" xlink:title="Prüft, ob die Ausnahme OKWVerifyingFailsException bei einem Soll/Ist&#45;Vergleich ausgelöst wird...">
<polygon fill="white" stroke="black" points="393,-626 393,-678 601,-678 601,-626 393,-626"/>
<text text-anchor="start" x="401" y="-666" font-family="Helvetica,sans-Serif" font-size="10.00">okw.core.EN_VerifyLabel</text>
<text text-anchor="start" x="401" y="-655" font-family="Helvetica,sans-Serif" font-size="10.00">_OKWVerifyingFailsException</text>
<text text-anchor="start" x="401" y="-644" font-family="Helvetica,sans-Serif" font-size="10.00">_Test.TC_VerifyLabelREGX_OKWVerifying</text>
<text text-anchor="middle" x="497" y="-633" font-family="Helvetica,sans-Serif" font-size="10.00">FailsException_MV01</text>
</a>
</g>
</g>
<!-- Node3837&#45;&gt;Node3850 -->
<g id="edge14" class="edge"><title>Node3837&#45;&gt;Node3850</title>
<path fill="none" stroke="midnightblue" d="M345.99,-675.865C360.959,-673.484 377.074,-670.92 392.992,-668.388"/>
<polygon fill="midnightblue" stroke="midnightblue" points="345.151,-672.455 335.825,-677.482 346.251,-679.368 345.151,-672.455"/>
</g>
<!-- Node3851 -->
<g id="node16" class="node"><title>Node3851</title>
<g id="a_node16"><a xlink:href="classokw_1_1core_1_1_e_n___verify_label___o_k_w_verifying_fails_exception___test.html#ac61d3c202e94a1dc164d5a6e7006eea7" target="_top" xlink:title="Prüft, ob die Ausnahme OKWVerifyingFailsException bei einem Soll/Ist&#45;Vergleich ausgelöst wird...">
<polygon fill="white" stroke="black" points="393,-555 393,-607 601,-607 601,-555 393,-555"/>
<text text-anchor="start" x="401" y="-595" font-family="Helvetica,sans-Serif" font-size="10.00">okw.core.EN_VerifyLabel</text>
<text text-anchor="start" x="401" y="-584" font-family="Helvetica,sans-Serif" font-size="10.00">_OKWVerifyingFailsException</text>
<text text-anchor="start" x="401" y="-573" font-family="Helvetica,sans-Serif" font-size="10.00">_Test.TC_VerifyLabelREGX_OKWVerifying</text>
<text text-anchor="middle" x="497" y="-562" font-family="Helvetica,sans-Serif" font-size="10.00">FailsException_MV02</text>
</a>
</g>
</g>
<!-- Node3837&#45;&gt;Node3851 -->
<g id="edge15" class="edge"><title>Node3837&#45;&gt;Node3851</title>
<path fill="none" stroke="midnightblue" d="M297.451,-671.435C319.374,-656.057 354.818,-632.629 388,-617 395.42,-613.505 403.273,-610.197 411.223,-607.108"/>
<polygon fill="midnightblue" stroke="midnightblue" points="295.329,-668.649 289.201,-677.292 299.381,-674.357 295.329,-668.649"/>
</g>
<!-- Node3852 -->
<g id="node17" class="node"><title>Node3852</title>
<g id="a_node17"><a xlink:href="classokw_1_1core_1_1_e_n___verify_label___o_k_w_verifying_fails_exception___test.html#a690aec12aa28796c458455bba0e67b60" target="_top" xlink:title="Prüft, ob die Ausnahme OKWVerifyingFailsException bei einem Soll/Ist&#45;Vergleich ausgelöst wird...">
<polygon fill="white" stroke="black" points="393,-484 393,-536 601,-536 601,-484 393,-484"/>
<text text-anchor="start" x="401" y="-524" font-family="Helvetica,sans-Serif" font-size="10.00">okw.core.EN_VerifyLabel</text>
<text text-anchor="start" x="401" y="-513" font-family="Helvetica,sans-Serif" font-size="10.00">_OKWVerifyingFailsException</text>
<text text-anchor="start" x="401" y="-502" font-family="Helvetica,sans-Serif" font-size="10.00">_Test.TC_VerifyLabelREGX_OKWVerifying</text>
<text text-anchor="middle" x="497" y="-491" font-family="Helvetica,sans-Serif" font-size="10.00">FailsException_MV03</text>
</a>
</g>
</g>
<!-- Node3837&#45;&gt;Node3852 -->
<g id="edge16" class="edge"><title>Node3837&#45;&gt;Node3852</title>
<path fill="none" stroke="midnightblue" d="M286.111,-668.169C303.196,-638.079 340.597,-579.176 388,-546 393.182,-542.374 398.755,-539.091 404.542,-536.124"/>
<polygon fill="midnightblue" stroke="midnightblue" points="282.897,-666.748 281.11,-677.191 289.02,-670.141 282.897,-666.748"/>
</g>
<!-- Node3853 -->
<g id="node18" class="node"><title>Node3853</title>
<g id="a_node18"><a xlink:href="classokw_1_1core_1_1_e_n___verify_label___o_k_w_verifying_fails_exception___test.html#a6483317a5edcbc6a4d6f1488bb145c9b" target="_top" xlink:title="Prüft, ob die Ausnahme OKWVerifyingFailsException bei einem Soll/Ist&#45;Vergleich ausgelöst wird...">
<polygon fill="white" stroke="black" points="393,-413 393,-465 601,-465 601,-413 393,-413"/>
<text text-anchor="start" x="401" y="-453" font-family="Helvetica,sans-Serif" font-size="10.00">okw.core.EN_VerifyLabel</text>
<text text-anchor="start" x="401" y="-442" font-family="Helvetica,sans-Serif" font-size="10.00">_OKWVerifyingFailsException</text>
<text text-anchor="start" x="401" y="-431" font-family="Helvetica,sans-Serif" font-size="10.00">_Test.TC_VerifyLabelREGX_OKWVerifying</text>
<text text-anchor="middle" x="497" y="-420" font-family="Helvetica,sans-Serif" font-size="10.00">FailsException_MV04</text>
</a>
</g>
</g>
<!-- Node3837&#45;&gt;Node3853 -->
<g id="edge17" class="edge"><title>Node3837&#45;&gt;Node3853</title>
<path fill="none" stroke="midnightblue" d="M280.912,-667.669C292.423,-626.249 325.046,-528.377 388,-475 392.296,-471.357 396.975,-468.079 401.897,-465.13"/>
<polygon fill="midnightblue" stroke="midnightblue" points="277.526,-666.784 278.326,-677.349 284.289,-668.591 277.526,-666.784"/>
</g>
<!-- Node3854 -->
<g id="node19" class="node"><title>Node3854</title>
<g id="a_node19"><a xlink:href="classokw_1_1_se_b_a_c_k_1_1_se_b_a_c_k___e_n___test.html#ab091684ec06b08148f1e7f23fa1fb3b0" target="_top" xlink:title="Test des Schlüsselwortes &quot;VerifyLabelREGX( FN, ExpVal ) für SeBACK. ">
<polygon fill="white" stroke="black" points="394,-352.5 394,-393.5 600,-393.5 600,-352.5 394,-352.5"/>
<text text-anchor="start" x="402" y="-381.5" font-family="Helvetica,sans-Serif" font-size="10.00">okw.SeBACK.SeBACK_EN</text>
<text text-anchor="start" x="402" y="-370.5" font-family="Helvetica,sans-Serif" font-size="10.00">_Test.tcVerifyLabelREGX</text>
<text text-anchor="middle" x="497" y="-359.5" font-family="Helvetica,sans-Serif" font-size="10.00">_OKWFrameObjectMethodNotImplemented</text>
</a>
</g>
</g>
<!-- Node3837&#45;&gt;Node3854 -->
<g id="edge18" class="edge"><title>Node3837&#45;&gt;Node3854</title>
<path fill="none" stroke="midnightblue" d="M277.929,-667.144C284.002,-615.717 307.408,-477.107 388,-404 392.334,-400.068 397.136,-396.632 402.236,-393.63"/>
<polygon fill="midnightblue" stroke="midnightblue" points="274.431,-666.931 276.831,-677.251 281.39,-667.687 274.431,-666.931"/>
</g>
<!-- Node3855 -->
<g id="node20" class="node"><title>Node3855</title>
<g id="a_node20"><a xlink:href="classokw_1_1_se_button_1_1_se_button___e_n___test.html#aeaa042e8e34a199abbefbc7ecaea3d3e" target="_top" xlink:title="Test des Schlüsselwortes VerifyLabel für den GUI&#45;Adapter SeButton. ">
<polygon fill="white" stroke="black" points="422.5,-304 422.5,-334 571.5,-334 571.5,-304 422.5,-304"/>
<text text-anchor="start" x="430.5" y="-322" font-family="Helvetica,sans-Serif" font-size="10.00">okw.SeButton.SeButton</text>
<text text-anchor="middle" x="497" y="-311" font-family="Helvetica,sans-Serif" font-size="10.00">_EN_Test.tcVerifyLabelREGX</text>
</a>
</g>
</g>
<!-- Node3837&#45;&gt;Node3855 -->
<g id="edge19" class="edge"><title>Node3837&#45;&gt;Node3855</title>
<path fill="none" stroke="midnightblue" d="M276.073,-667.056C277.433,-607.912 289.928,-432.074 388,-343 397.668,-334.219 409.821,-328.409 422.455,-324.612"/>
<polygon fill="midnightblue" stroke="midnightblue" points="272.57,-667.22 275.927,-677.268 279.57,-667.319 272.57,-667.22"/>
</g>
<!-- Node3856 -->
<g id="node21" class="node"><title>Node3856</title>
<g id="a_node21"><a xlink:href="classokw_1_1_se_input_checkbox_1_1_se_input_checkbox___e_n___test.html#ad572d5badb79741c496835cbb5c2d6df" target="_top" xlink:title="Prüft die SetFocusFunktion bei Textfelder mit dem Attribute &quot;ReadOnly&quot;. ">
<polygon fill="white" stroke="black" points="418,-255 418,-285 576,-285 576,-255 418,-255"/>
<text text-anchor="start" x="426" y="-273" font-family="Helvetica,sans-Serif" font-size="10.00">okw.SeInputCheckbox.SeInput</text>
<text text-anchor="middle" x="497" y="-262" font-family="Helvetica,sans-Serif" font-size="10.00">Checkbox_EN_Test.tcSetFocus</text>
</a>
</g>
</g>
<!-- Node3837&#45;&gt;Node3856 -->
<g id="edge20" class="edge"><title>Node3837&#45;&gt;Node3856</title>
<path fill="none" stroke="midnightblue" d="M278.925,-667.483C290.058,-595.767 331.997,-348.227 388,-295 396.37,-287.045 406.749,-281.445 417.736,-277.534"/>
<polygon fill="midnightblue" stroke="midnightblue" points="275.456,-667.012 277.405,-677.426 282.376,-668.07 275.456,-667.012"/>
</g>
<!-- Node3857 -->
<g id="node22" class="node"><title>Node3857</title>
<g id="a_node22"><a xlink:href="classokw_1_1_se_input_field_1_1_se_input_field___e_n___test.html#a9dcd93d3338372dbb93aaa6065990df9" target="_top" xlink:title="Prüft, ob die Methode VerifyLabel bei einer Soll/Ist Abweichung die Ausnahme OKWVerifyingFailsExcepti...">
<polygon fill="white" stroke="black" points="422.5,-195.5 422.5,-236.5 571.5,-236.5 571.5,-195.5 422.5,-195.5"/>
<text text-anchor="start" x="430.5" y="-224.5" font-family="Helvetica,sans-Serif" font-size="10.00">okw.SeInputField.SeInput</text>
<text text-anchor="start" x="430.5" y="-213.5" font-family="Helvetica,sans-Serif" font-size="10.00">Field_EN_Test.tcVerifyLabel</text>
<text text-anchor="middle" x="497" y="-202.5" font-family="Helvetica,sans-Serif" font-size="10.00">_OKWVerifyingFailsException</text>
</a>
</g>
</g>
<!-- Node3837&#45;&gt;Node3857 -->
<g id="edge21" class="edge"><title>Node3837&#45;&gt;Node3857</title>
<path fill="none" stroke="midnightblue" d="M278.391,-667.183C288.128,-589.663 327.191,-308.177 388,-246 397.388,-236.4 409.562,-229.796 422.337,-225.27"/>
<polygon fill="midnightblue" stroke="midnightblue" points="274.875,-667.099 277.124,-677.452 281.822,-667.956 274.875,-667.099"/>
</g>
<!-- Node3858 -->
<g id="node23" class="node"><title>Node3858</title>
<g id="a_node23"><a xlink:href="classokw_1_1_se_input_radio_1_1_se_input_radio___e_n___test.html#ade83254f49e432d8b8ae35a08832ba20" target="_top" xlink:title="Test des Schlüsselwortes VerifyLabelREGX für den GUI&#45;Adapter SeInputRadio. ">
<polygon fill="white" stroke="black" points="407,-147 407,-177 587,-177 587,-147 407,-147"/>
<text text-anchor="start" x="415" y="-165" font-family="Helvetica,sans-Serif" font-size="10.00">okw.SeInputRadio.SeInput</text>
<text text-anchor="middle" x="497" y="-154" font-family="Helvetica,sans-Serif" font-size="10.00">Radio_EN_Test.tc_VerifyLabelREGX</text>
</a>
</g>
</g>
<!-- Node3837&#45;&gt;Node3858 -->
<g id="edge22" class="edge"><title>Node3837&#45;&gt;Node3858</title>
<path fill="none" stroke="midnightblue" d="M277.622,-667.403C284.957,-583.562 317.762,-256.149 388,-186 393.504,-180.503 399.97,-176.144 406.955,-172.702"/>
<polygon fill="midnightblue" stroke="midnightblue" points="274.134,-667.11 276.771,-677.371 281.109,-667.705 274.134,-667.11"/>
</g>
<!-- Node3859 -->
<g id="node24" class="node"><title>Node3859</title>
<g id="a_node24"><a xlink:href="classokw_1_1_se_link_1_1_se_link___e_n___test.html#ad88f4d017f1a55ad12f9ffc5ed0ab336" target="_top" xlink:title="Prüft die Methode SeLink.MemorizeToolTip. ">
<polygon fill="white" stroke="black" points="420,-98 420,-128 574,-128 574,-98 420,-98"/>
<text text-anchor="start" x="428" y="-116" font-family="Helvetica,sans-Serif" font-size="10.00">okw.SeLink.SeLink_EN</text>
<text text-anchor="middle" x="497" y="-105" font-family="Helvetica,sans-Serif" font-size="10.00">_Test.TC_MemorizeToolTip_en</text>
</a>
</g>
</g>
<!-- Node3837&#45;&gt;Node3859 -->
<g id="edge23" class="edge"><title>Node3837&#45;&gt;Node3859</title>
<path fill="none" stroke="midnightblue" d="M277.235,-667.276C283.2,-578.4 311.92,-216.103 388,-138 396.729,-129.039 407.988,-123.017 419.929,-119.019"/>
<polygon fill="midnightblue" stroke="midnightblue" points="273.737,-667.133 276.58,-677.34 280.722,-667.588 273.737,-667.133"/>
</g>
<!-- Node3860 -->
<g id="node25" class="node"><title>Node3860</title>
<g id="a_node25"><a xlink:href="classokw_1_1_se_m_a_x_i_m_i_z_e_1_1_se_m_a_x_i_m_i_z_e___e_n___test.html#a7997021dc666dca0a6322c95a0ede70b" target="_top" xlink:title="Test des Schlüsselwortes &quot;VerifyLabelREGX( FN, ExpVal ) für SeMAXIMIZE. ">
<polygon fill="white" stroke="black" points="416,-49 416,-79 578,-79 578,-49 416,-49"/>
<text text-anchor="start" x="424" y="-67" font-family="Helvetica,sans-Serif" font-size="10.00">okw.SeMAXIMIZE.SeMAXIMIZE</text>
<text text-anchor="middle" x="497" y="-56" font-family="Helvetica,sans-Serif" font-size="10.00">_EN_Test.tcVerifyLabelREGX</text>
</a>
</g>
</g>
<!-- Node3837&#45;&gt;Node3860 -->
<g id="edge24" class="edge"><title>Node3837&#45;&gt;Node3860</title>
<path fill="none" stroke="midnightblue" d="M276.876,-667.332C281.442,-573.803 305.557,-175.009 388,-89 395.724,-80.9416 405.492,-75.2514 415.981,-71.27"/>
<polygon fill="midnightblue" stroke="midnightblue" points="273.376,-667.244 276.404,-677.397 280.368,-667.572 273.376,-667.244"/>
</g>
<!-- Node3861 -->
<g id="node26" class="node"><title>Node3861</title>
<g id="a_node26"><a xlink:href="classokw_1_1_se_radio_list_1_1_se_radio_list___e_n___test.html#a4ba84c588853824c99cd27c7d8dfb86e" target="_top" xlink:title="okw.SeRadioList.SeRadioList\l_EN_Test.tcLogIsActive">
<polygon fill="white" stroke="black" points="423.5,-0 423.5,-30 570.5,-30 570.5,-0 423.5,-0"/>
<text text-anchor="start" x="431.5" y="-18" font-family="Helvetica,sans-Serif" font-size="10.00">okw.SeRadioList.SeRadioList</text>
<text text-anchor="middle" x="497" y="-7" font-family="Helvetica,sans-Serif" font-size="10.00">_EN_Test.tcLogIsActive</text>
</a>
</g>
</g>
<!-- Node3837&#45;&gt;Node3861 -->
<g id="edge25" class="edge"><title>Node3837&#45;&gt;Node3861</title>
<path fill="none" stroke="midnightblue" d="M276.584,-666.983C279.879,-568.217 299.294,-133.824 388,-40 397.454,-30.0008 410.051,-23.6369 423.299,-19.6577"/>
<polygon fill="midnightblue" stroke="midnightblue" points="273.083,-666.989 276.266,-677.094 280.079,-667.21 273.083,-666.989"/>
</g>
</g>
</svg>
        <g id="navigator" transform="translate(0 0)" fill="#404254">
                <rect fill="#f2f5e9" fill-opacity="0.5" stroke="#606060" stroke-width=".5" x="0" y="0" width="60" height="60"/>
                <use id="zoomplus" xlink:href="#zoomPlus" x="17" y="9" onmousedown="handleZoom(evt,'in')"/>
                <use id="zoomminus" xlink:href="#zoomMin" x="42" y="9" onmousedown="handleZoom(evt,'out')"/>
                <use id="reset" xlink:href="#resetDef" x="30" y="36" onmousedown="handleReset()"/>
                <g id="arrowUp" xlink:href="#dirArrow" transform="translate(30 24)" onmousedown="handlePan(0,-1)">
                  <use xlink:href="#rim" fill="#404040">
                        <set attributeName="fill" to="#808080" begin="arrowUp.mouseover" end="arrowUp.mouseout"/>
                  </use>
                  <path fill="none" stroke="white" stroke-width="1.5" d="M0,-3.0v7 M-2.5,-0.5L0,-3.0L2.5,-0.5"/>
                </g>
                <g id="arrowRight" xlink:href="#dirArrow" transform="rotate(90) translate(36 -43)" onmousedown="handlePan(1,0)">
                  <use xlink:href="#rim" fill="#404040">
                        <set attributeName="fill" to="#808080" begin="arrowRight.mouseover" end="arrowRight.mouseout"/>
                  </use>
                  <path fill="none" stroke="white" stroke-width="1.5" d="M0,-3.0v7 M-2.5,-0.5L0,-3.0L2.5,-0.5"/>
                </g>
                <g id="arrowDown" xlink:href="#dirArrow" transform="rotate(180) translate(-30 -48)" onmousedown="handlePan(0,1)">
                  <use xlink:href="#rim" fill="#404040">
                        <set attributeName="fill" to="#808080" begin="arrowDown.mouseover" end="arrowDown.mouseout"/>
                  </use>
                  <path fill="none" stroke="white" stroke-width="1.5" d="M0,-3.0v7 M-2.5,-0.5L0,-3.0L2.5,-0.5"/>
                </g>
                <g id="arrowLeft" xlink:href="#dirArrow" transform="rotate(270) translate(-36 17)" onmousedown="handlePan(-1,0)">
                  <use xlink:href="#rim" fill="#404040">
                        <set attributeName="fill" to="#808080" begin="arrowLeft.mouseover" end="arrowLeft.mouseout"/>
                  </use>
                  <path fill="none" stroke="white" stroke-width="1.5" d="M0,-3.0v7 M-2.5,-0.5L0,-3.0L2.5,-0.5"/>
                </g>
        </g>
        <svg viewBox="0 0 15 15" width="100%" height="30px" preserveAspectRatio="xMaxYMin meet">
         <g id="arrow_out" transform="scale(0.3 0.3)">
          <a xlink:href="classokw_1_1core_1_1_core_a15bd6c1b810f32fe6efcc76ccb10a0ae_icgraph_org.svg" target="_base">
           <rect id="button" ry="5" rx="5" y="6" x="6" height="38" width="38"
                fill="#f2f5e9" fill-opacity="0.5" stroke="#606060" stroke-width="1.0"/>
           <path id="arrow"
             d="M 11.500037,31.436501 C 11.940474,20.09759 22.043105,11.32322 32.158766,21.979434 L 37.068811,17.246167 C 37.068811,17.246167 37.088388,32 37.088388,32 L 22.160133,31.978069 C 22.160133,31.978069 26.997745,27.140456 26.997745,27.140456 C 18.528582,18.264221 13.291696,25.230495 11.500037,31.436501 z"
             style="fill:#404040;"/>
          </a>
         </g>
        </svg>
</svg>
