<?xml version="1.0" encoding="UTF-8" standalone="no"?>
<!DOCTYPE svg PUBLIC "-//W3C//DTD SVG 1.1//EN"
 "http://www.w3.org/Graphics/SVG/1.1/DTD/svg11.dtd">
<!-- Generated by graphviz version 2.26.3 (20100126.1600)
 -->
<!-- Title: okw.gui.adapter.selenium.SeDriver.swichToFrame Pages: 1 -->
<svg width="326pt" height="42pt"
 viewBox="0.00 0.00 326.00 42.00" xmlns="http://www.w3.org/2000/svg" xmlns:xlink="http://www.w3.org/1999/xlink">
<g id="graph1" class="graph" transform="scale(1 1) rotate(0) translate(4 38)">
<title>okw.gui.adapter.selenium.SeDriver.swichToFrame</title>
<polygon fill="white" stroke="white" points="-4,5 -4,-38 323,-38 323,5 -4,5"/>
<!-- Node216 -->
<g id="node1" class="node"><title>Node216</title>
<polygon fill="#bfbfbf" stroke="black" points="0.5,-0 0.5,-34 131.5,-34 131.5,-0 0.5,-0"/>
<text text-anchor="start" x="8.5" y="-21" font-family="Helvetica,sans-Serif" font-size="10.00">okw.gui.adapter.selenium.</text>
<text text-anchor="middle" x="66" y="-8" font-family="Helvetica,sans-Serif" font-size="10.00">SeDriver.swichToFrame</text>
</g>
<!-- Node217 -->
<g id="node3" class="node"><title>Node217</title>
<a xlink:href="classokw_1_1_o_k_w___helper.html#a3a7ba0f42b29adf70574830688e72e4a" target="_top" xlink:title="Prüft ob der gegeben String fpsStrin null oder leer (&quot;&quot;) ist. ">
<polygon fill="white" stroke="black" points="168.5,-0 168.5,-34 317.5,-34 317.5,-0 168.5,-0"/>
<text text-anchor="start" x="176.5" y="-21" font-family="Helvetica,sans-Serif" font-size="10.00">okw.OKW_Helper.isStringNull</text>
<text text-anchor="middle" x="243" y="-8" font-family="Helvetica,sans-Serif" font-size="10.00">OrEmpty</text>
</a>
</g>
<!-- Node216&#45;&gt;Node217 -->
<g id="edge2" class="edge"><title>Node216&#45;&gt;Node217</title>
<path fill="none" stroke="midnightblue" d="M131.657,-17C140.306,-17 149.268,-17 158.18,-17"/>
<polygon fill="midnightblue" stroke="midnightblue" points="158.201,-20.5001 168.201,-17 158.201,-13.5001 158.201,-20.5001"/>
</g>
</g>
</svg>
