<?xml version="1.0" encoding="UTF-8" standalone="no"?>
<!DOCTYPE svg PUBLIC "-//W3C//DTD SVG 1.1//EN"
 "http://www.w3.org/Graphics/SVG/1.1/DTD/svg11.dtd">
<!-- Generated by graphviz version 2.38.0 (20140413.2041)
 -->
<!-- Title: okw.core.Core.MemorizeTablecellValue Pages: 1 -->
<svg width="785pt" height="127pt"
 viewBox="0.00 0.00 785.00 127.00" xmlns="http://www.w3.org/2000/svg" xmlns:xlink="http://www.w3.org/1999/xlink">
<g id="graph0" class="graph" transform="scale(1 1) rotate(0) translate(4 123)">
<title>okw.core.Core.MemorizeTablecellValue</title>
<polygon fill="white" stroke="none" points="-4,4 -4,-123 781,-123 781,4 -4,4"/>
<!-- Node1206 -->
<g id="node1" class="node"><title>Node1206</title>
<g id="a_node1"><a xlink:title="Merkt sich den Wert der gegebenen Zelle in der Tabelle.">
<polygon fill="#bfbfbf" stroke="black" points="0,-44.5 0,-74.5 173,-74.5 173,-44.5 0,-44.5"/>
<text text-anchor="start" x="8" y="-62.5" font-family="Helvetica,sans-Serif" font-size="10.00">okw.core.Core.MemorizeTablecell</text>
<text text-anchor="middle" x="86.5" y="-51.5" font-family="Helvetica,sans-Serif" font-size="10.00">Value</text>
</a>
</g>
</g>
<!-- Node1207 -->
<g id="node2" class="node"><title>Node1207</title>
<g id="a_node2"><a xlink:href="classokw_1_1log_1_1_logger___sngltn.html#a70ec25e200e00ecefc544e8fd371d2ef" target="_top" xlink:title="Ausgabe eines Schlüsselwortes.">
<polygon fill="white" stroke="black" points="222,-88.5 222,-118.5 365,-118.5 365,-88.5 222,-88.5"/>
<text text-anchor="start" x="230" y="-106.5" font-family="Helvetica,sans-Serif" font-size="10.00">okw.log.Logger_Sngltn.Log</text>
<text text-anchor="middle" x="293.5" y="-95.5" font-family="Helvetica,sans-Serif" font-size="10.00">KeyWordStart</text>
</a>
</g>
</g>
<!-- Node1206&#45;&gt;Node1207 -->
<g id="edge1" class="edge"><title>Node1206&#45;&gt;Node1207</title>
<path fill="none" stroke="midnightblue" d="M157.476,-74.5192C175.19,-78.3212 194.35,-82.4336 212.516,-86.3328"/>
<polygon fill="midnightblue" stroke="midnightblue" points="211.98,-89.7972 222.492,-88.4738 213.449,-82.9531 211.98,-89.7972"/>
</g>
<!-- Node1208 -->
<g id="node3" class="node"><title>Node1208</title>
<g id="a_node3"><a xlink:href="classokw_1_1_log_messenger.html#af225d1f037d47b3b085175c09d78bdd2" target="_top" xlink:title="Holt die Log&#45;Meldung für MethodeNmae/Textkey ohne weitere Parameter.">
<polygon fill="white" stroke="black" points="209,-50 209,-69 378,-69 378,-50 209,-50"/>
<text text-anchor="middle" x="293.5" y="-57" font-family="Helvetica,sans-Serif" font-size="10.00">okw.LogMessenger.GetMessage</text>
</a>
</g>
</g>
<!-- Node1206&#45;&gt;Node1208 -->
<g id="edge2" class="edge"><title>Node1206&#45;&gt;Node1208</title>
<path fill="none" stroke="midnightblue" d="M173.251,-59.5C181.597,-59.5 190.095,-59.5 198.517,-59.5"/>
<polygon fill="midnightblue" stroke="midnightblue" points="198.735,-63.0001 208.735,-59.5 198.735,-56.0001 198.735,-63.0001"/>
</g>
<!-- Node1211 -->
<g id="node6" class="node"><title>Node1211</title>
<g id="a_node6"><a xlink:href="interfaceokw_1_1core_1_1_i_o_k_w___state.html#a663c898d044034490098c92870bce082" target="_top" xlink:title="Merkt sich den Wert der gegebenen Zelle in der Tabelle.">
<polygon fill="white" stroke="black" points="210,-0.5 210,-30.5 377,-30.5 377,-0.5 210,-0.5"/>
<text text-anchor="start" x="218" y="-18.5" font-family="Helvetica,sans-Serif" font-size="10.00">okw.core.IOKW_State.Memorize</text>
<text text-anchor="middle" x="293.5" y="-7.5" font-family="Helvetica,sans-Serif" font-size="10.00">TablecellValue</text>
</a>
</g>
</g>
<!-- Node1206&#45;&gt;Node1211 -->
<g id="edge5" class="edge"><title>Node1206&#45;&gt;Node1211</title>
<path fill="none" stroke="midnightblue" d="M157.476,-44.4808C175.19,-40.6788 194.35,-36.5664 212.516,-32.6672"/>
<polygon fill="midnightblue" stroke="midnightblue" points="213.449,-36.0469 222.492,-30.5262 211.98,-29.2028 213.449,-36.0469"/>
</g>
<!-- Node1209 -->
<g id="node4" class="node"><title>Node1209</title>
<g id="a_node4"><a xlink:href="classokw_1_1_log_messenger.html#a530cd6ab82ec82a04206a2e976ec06e3" target="_top" xlink:title="Interne Kernfunktion holt die Log&#45;Meldung mit Platzhaltern aus der XML&#45;Datei.">
<polygon fill="white" stroke="black" points="414,-50 414,-69 589,-69 589,-50 414,-50"/>
<text text-anchor="middle" x="501.5" y="-57" font-family="Helvetica,sans-Serif" font-size="10.00">okw.LogMessenger.ReadMessage</text>
</a>
</g>
</g>
<!-- Node1208&#45;&gt;Node1209 -->
<g id="edge3" class="edge"><title>Node1208&#45;&gt;Node1209</title>
<path fill="none" stroke="midnightblue" d="M378.288,-59.5C386.603,-59.5 395.092,-59.5 403.526,-59.5"/>
<polygon fill="midnightblue" stroke="midnightblue" points="403.772,-63.0001 413.772,-59.5 403.772,-56.0001 403.772,-63.0001"/>
</g>
<!-- Node1210 -->
<g id="node5" class="node"><title>Node1210</title>
<g id="a_node5"><a xlink:href="classokw_1_1_o_k_w___xml_reader.html#ab920b5335a2e1429c14cc5f8e79f39eb" target="_top" xlink:title="Lies den TextContent eines Tag.">
<polygon fill="white" stroke="black" points="625,-44.5 625,-74.5 777,-74.5 777,-44.5 625,-44.5"/>
<text text-anchor="start" x="633" y="-62.5" font-family="Helvetica,sans-Serif" font-size="10.00">okw.OKW_XmlReader.getText</text>
<text text-anchor="middle" x="701" y="-51.5" font-family="Helvetica,sans-Serif" font-size="10.00">ContentSingleValue</text>
</a>
</g>
</g>
<!-- Node1209&#45;&gt;Node1210 -->
<g id="edge4" class="edge"><title>Node1209&#45;&gt;Node1210</title>
<path fill="none" stroke="midnightblue" d="M589.126,-59.5C597.6,-59.5 606.195,-59.5 614.656,-59.5"/>
<polygon fill="midnightblue" stroke="midnightblue" points="614.893,-63.0001 624.893,-59.5 614.892,-56.0001 614.893,-63.0001"/>
</g>
</g>
</svg>
