<?xml version="1.0" encoding="UTF-8" standalone="no"?>
<!DOCTYPE svg PUBLIC "-//W3C//DTD SVG 1.1//EN"
 "http://www.w3.org/Graphics/SVG/1.1/DTD/svg11.dtd">
<!-- Generated by graphviz version 2.38.0 (20140413.2041)
 -->
<!-- Title: okw.OKW_GetJavaClass.createInstanceByType Pages: 1 -->
<svg width="532pt" height="39pt"
 viewBox="0.00 0.00 532.00 39.00" xmlns="http://www.w3.org/2000/svg" xmlns:xlink="http://www.w3.org/1999/xlink">
<g id="graph0" class="graph" transform="scale(1 1) rotate(0) translate(4 35)">
<title>okw.OKW_GetJavaClass.createInstanceByType</title>
<polygon fill="white" stroke="none" points="-4,4 -4,-35 528,-35 528,4 -4,4"/>
<!-- Node5 -->
<g id="node1" class="node"><title>Node5</title>
<g id="a_node1"><a xlink:title="Die Methode erzeugt eine Instanz der Rahmenklasse (frame class) mit dem in &#39;fps_ParentClassName&#39; gege...">
<polygon fill="#bfbfbf" stroke="black" points="364,-0.5 364,-30.5 524,-30.5 524,-0.5 364,-0.5"/>
<text text-anchor="start" x="372" y="-18.5" font-family="Helvetica,sans-Serif" font-size="10.00">okw.OKW_GetJavaClass.create</text>
<text text-anchor="middle" x="444" y="-7.5" font-family="Helvetica,sans-Serif" font-size="10.00">InstanceByType</text>
</a>
</g>
</g>
<!-- Node6 -->
<g id="node2" class="node"><title>Node6</title>
<g id="a_node2"><a xlink:href="classokw_1_1_frame_object_dictionary___sngltn.html#a1710d54e13c9ce591277209c898eec98" target="_top" xlink:title="Liefert die Instanz der Klasse.">
<polygon fill="white" stroke="black" points="182,-0.5 182,-30.5 328,-30.5 328,-0.5 182,-0.5"/>
<text text-anchor="start" x="190" y="-18.5" font-family="Helvetica,sans-Serif" font-size="10.00">okw.FrameObjectDictionary</text>
<text text-anchor="middle" x="255" y="-7.5" font-family="Helvetica,sans-Serif" font-size="10.00">_Sngltn.frameScan</text>
</a>
</g>
</g>
<!-- Node5&#45;&gt;Node6 -->
<g id="edge1" class="edge"><title>Node5&#45;&gt;Node6</title>
<path fill="none" stroke="midnightblue" d="M353.9,-15.5C345.29,-15.5 336.63,-15.5 328.214,-15.5"/>
<polygon fill="midnightblue" stroke="midnightblue" points="353.966,-19.0001 363.966,-15.5 353.966,-12.0001 353.966,-19.0001"/>
</g>
<!-- Node7 -->
<g id="node3" class="node"><title>Node7</title>
<g id="a_node3"><a xlink:href="classokw_1_1_frame_object_dictionary___sngltn.html#a905bac544e5962ae15dfe1c1c50f2467" target="_top" xlink:title="Methode initialisiert diese Klasse.">
<polygon fill="white" stroke="black" points="0,-0.5 0,-30.5 146,-30.5 146,-0.5 0,-0.5"/>
<text text-anchor="start" x="8" y="-18.5" font-family="Helvetica,sans-Serif" font-size="10.00">okw.FrameObjectDictionary</text>
<text text-anchor="middle" x="73" y="-7.5" font-family="Helvetica,sans-Serif" font-size="10.00">_Sngltn.init</text>
</a>
</g>
</g>
<!-- Node6&#45;&gt;Node7 -->
<g id="edge2" class="edge"><title>Node6&#45;&gt;Node7</title>
<path fill="none" stroke="midnightblue" d="M171.561,-15.5C163.094,-15.5 154.536,-15.5 146.192,-15.5"/>
<polygon fill="midnightblue" stroke="midnightblue" points="171.824,-19.0001 181.824,-15.5 171.824,-12.0001 171.824,-19.0001"/>
</g>
</g>
</svg>
