<?xml version="1.0" encoding="UTF-8" standalone="no"?>
<!DOCTYPE svg PUBLIC "-//W3C//DTD SVG 1.1//EN"
 "http://www.w3.org/Graphics/SVG/1.1/DTD/svg11.dtd">
<!-- Generated by graphviz version 2.26.3 (20100126.1600)
 -->
<!-- Title: okw.core.OK.LogCaption Pages: 1 -->
<svg width="1292pt" height="420pt"
 viewBox="0.00 0.00 1292.00 419.98" xmlns="http://www.w3.org/2000/svg" xmlns:xlink="http://www.w3.org/1999/xlink">
<g id="graph1" class="graph" transform="scale(1 1) rotate(0) translate(4 415.979)">
<title>okw.core.OK.LogCaption</title>
<polygon fill="white" stroke="white" points="-4,5 -4,-415.979 1289,-415.979 1289,5 -4,5"/>
<!-- Node150 -->
<g id="node1" class="node"><title>Node150</title>
<polygon fill="#bfbfbf" stroke="black" points="0,-129.833 0,-150.833 126,-150.833 126,-129.833 0,-129.833"/>
<text text-anchor="middle" x="63" y="-137.833" font-family="Helvetica,sans-Serif" font-size="10.00">okw.core.OK.LogCaption</text>
</g>
<!-- Node151 -->
<g id="node3" class="node"><title>Node151</title>
<a xlink:href="classokw_1_1core_1_1_o_k_w___current_object___sngltn.html#a461fa1ff29f4bc4a9798707ea7b71849" target="_top" xlink:title="Setzt das Kindobjekt. ">
<polygon fill="white" stroke="black" points="162.5,-289.333 162.5,-323.333 311.5,-323.333 311.5,-289.333 162.5,-289.333"/>
<text text-anchor="start" x="170.5" y="-310.333" font-family="Helvetica,sans-Serif" font-size="10.00">okw.core.OKW_CurrentObject</text>
<text text-anchor="middle" x="237" y="-297.333" font-family="Helvetica,sans-Serif" font-size="10.00">_Sngltn.setChildName</text>
</a>
</g>
<!-- Node150&#45;&gt;Node151 -->
<g id="edge2" class="edge"><title>Node150&#45;&gt;Node151</title>
<path fill="none" stroke="midnightblue" d="M73.5874,-150.923C91.5846,-168.874 129.368,-206.351 162,-237.333 177.914,-252.443 196.013,-269.109 210.444,-282.275"/>
<polygon fill="midnightblue" stroke="midnightblue" points="208.296,-285.053 218.046,-289.198 213.009,-279.878 208.296,-285.053"/>
</g>
<!-- Node160 -->
<g id="node25" class="node"><title>Node160</title>
<a xlink:href="classokw_1_1log_1_1_logger___sngltn.html#a7e6a606dd7ab49b10e070736e7e9c854" target="_top" xlink:title="Erzeugt eine hierachische Log&#45;Ebene in der Ergenbniss&#45;Ausgabe. ">
<polygon fill="white" stroke="black" points="168.5,-77.3333 168.5,-111.333 305.5,-111.333 305.5,-77.3333 168.5,-77.3333"/>
<text text-anchor="start" x="176.5" y="-98.3333" font-family="Helvetica,sans-Serif" font-size="10.00">okw.log.Logger_Sngltn.Res</text>
<text text-anchor="middle" x="237" y="-85.3333" font-family="Helvetica,sans-Serif" font-size="10.00">OpenListDebug</text>
</a>
</g>
<!-- Node150&#45;&gt;Node160 -->
<g id="edge28" class="edge"><title>Node150&#45;&gt;Node160</title>
<path fill="none" stroke="midnightblue" d="M102.919,-129.78C120.595,-125.107 141.981,-119.453 162.432,-114.047"/>
<polygon fill="midnightblue" stroke="midnightblue" points="163.603,-117.358 172.376,-111.418 161.813,-110.59 163.603,-117.358"/>
</g>
<!-- Node161 -->
<g id="node27" class="node"><title>Node161</title>
<a xlink:href="classokw_1_1log_1_1_logger___sngltn.html#a8ebceaddd6cc6963ddb8e08c72ea808c" target="_top" xlink:title="LogPrint Function: Prints the values of expressions to the results file. ">
<polygon fill="white" stroke="black" points="548,-168.333 548,-202.333 682,-202.333 682,-168.333 548,-168.333"/>
<text text-anchor="start" x="556" y="-189.333" font-family="Helvetica,sans-Serif" font-size="10.00">okw.log.Logger_Sngltn.Log</text>
<text text-anchor="middle" x="615" y="-176.333" font-family="Helvetica,sans-Serif" font-size="10.00">Print</text>
</a>
</g>
<!-- Node150&#45;&gt;Node161 -->
<g id="edge30" class="edge"><title>Node150&#45;&gt;Node161</title>
<path fill="none" stroke="midnightblue" d="M112.249,-150.84C128.098,-154.072 145.76,-157.516 162,-160.333 244.304,-174.609 264.684,-181.318 348,-187.333 414.494,-192.134 431.336,-187.903 498,-187.333 510.87,-187.223 524.535,-187.045 537.814,-186.84"/>
<polygon fill="midnightblue" stroke="midnightblue" points="537.931,-190.338 547.873,-186.678 537.818,-183.339 537.931,-190.338"/>
</g>
<!-- Node162 -->
<g id="node29" class="node"><title>Node162</title>
<a xlink:href="classokw_1_1log_1_1_logger___sngltn.html#abfcdbe2bdf7ed25188c9c630b7cd358e" target="_top" xlink:title="Closes a hierarchical level in the results file that was opened with ResOpenList. ...">
<polygon fill="white" stroke="black" points="168.5,-25.3333 168.5,-59.3333 305.5,-59.3333 305.5,-25.3333 168.5,-25.3333"/>
<text text-anchor="start" x="176.5" y="-46.3333" font-family="Helvetica,sans-Serif" font-size="10.00">okw.log.Logger_Sngltn.Res</text>
<text text-anchor="middle" x="237" y="-33.3333" font-family="Helvetica,sans-Serif" font-size="10.00">CloseListDebug</text>
</a>
</g>
<!-- Node150&#45;&gt;Node162 -->
<g id="edge32" class="edge"><title>Node150&#45;&gt;Node162</title>
<path fill="none" stroke="midnightblue" d="M75.0296,-129.746C92.9224,-114.443 128.091,-86.0407 162,-68.3333 165.31,-66.605 168.759,-64.9513 172.281,-63.3757"/>
<polygon fill="midnightblue" stroke="midnightblue" points="173.876,-66.5019 181.729,-59.3902 171.155,-60.0522 173.876,-66.5019"/>
</g>
<!-- Node163 -->
<g id="node31" class="node"><title>Node163</title>
<a xlink:href="classokw_1_1core_1_1_o_k.html#a5a6db6a457bcb71c893f5d4eb615b2b7" target="_top" xlink:title="Zentrale Exception&#45;Behandlung. ">
<polygon fill="white" stroke="black" points="162.5,-129.833 162.5,-150.833 311.5,-150.833 311.5,-129.833 162.5,-129.833"/>
<text text-anchor="middle" x="237" y="-137.833" font-family="Helvetica,sans-Serif" font-size="10.00">okw.core.OK.handleException</text>
</a>
</g>
<!-- Node150&#45;&gt;Node163 -->
<g id="edge34" class="edge"><title>Node150&#45;&gt;Node163</title>
<path fill="none" stroke="midnightblue" d="M126.31,-140.333C134.691,-140.333 143.389,-140.333 152.061,-140.333"/>
<polygon fill="midnightblue" stroke="midnightblue" points="152.206,-143.833 162.206,-140.333 152.206,-136.833 152.206,-143.833"/>
</g>
<!-- Node152 -->
<g id="node5" class="node"><title>Node152</title>
<a xlink:href="classokw_1_1log_1_1_logger___sngltn.html#a313f97c79ba4662d9daaf7f537dd02f4" target="_top" xlink:title="Loggt eine Nachricht. ">
<polygon fill="white" stroke="black" points="745,-257.333 745,-291.333 879,-291.333 879,-257.333 745,-257.333"/>
<text text-anchor="start" x="753" y="-278.333" font-family="Helvetica,sans-Serif" font-size="10.00">okw.log.Logger_Sngltn.Log</text>
<text text-anchor="middle" x="812" y="-265.333" font-family="Helvetica,sans-Serif" font-size="10.00">PrintDebug</text>
</a>
</g>
<!-- Node151&#45;&gt;Node152 -->
<g id="edge4" class="edge"><title>Node151&#45;&gt;Node152</title>
<path fill="none" stroke="midnightblue" d="M299.094,-289.286C314.921,-285.634 331.988,-282.289 348,-280.333 483.273,-263.815 642.37,-266.507 734.742,-270.234"/>
<polygon fill="midnightblue" stroke="midnightblue" points="734.707,-273.735 744.845,-270.656 735,-266.741 734.707,-273.735"/>
</g>
<!-- Node153 -->
<g id="node7" class="node"><title>Node153</title>
<a xlink:href="classokw_1_1_log_messenger.html#af225d1f037d47b3b085175c09d78bdd2" target="_top" xlink:title="Holt die Log&#45;Meldung f端r MethodeNmae/Textkey ohne weitere Parameter. ">
<polygon fill="white" stroke="black" points="732,-334.833 732,-355.833 892,-355.833 892,-334.833 732,-334.833"/>
<text text-anchor="middle" x="812" y="-342.833" font-family="Helvetica,sans-Serif" font-size="10.00">okw.LogMessenger.GetMessage</text>
</a>
</g>
<!-- Node151&#45;&gt;Node153 -->
<g id="edge6" class="edge"><title>Node151&#45;&gt;Node153</title>
<path fill="none" stroke="midnightblue" d="M253.957,-323.418C274.259,-342.54 310.272,-372.403 348,-384.333 495.469,-430.966 543.363,-409.305 696,-384.333 724.676,-379.642 755.819,-368.832 778.609,-359.781"/>
<polygon fill="midnightblue" stroke="midnightblue" points="780.199,-362.913 788.143,-355.903 777.561,-356.429 780.199,-362.913"/>
</g>
<!-- Node156 -->
<g id="node13" class="node"><title>Node156</title>
<a xlink:href="classokw_1_1_o_k_w___helper.html#a3a7ba0f42b29adf70574830688e72e4a" target="_top" xlink:title="Pr端ft ob der gegeben String fpsStrin null oder leer (&quot;&quot;) ist. ">
<polygon fill="white" stroke="black" points="348.5,-289.333 348.5,-323.333 497.5,-323.333 497.5,-289.333 348.5,-289.333"/>
<text text-anchor="start" x="356.5" y="-310.333" font-family="Helvetica,sans-Serif" font-size="10.00">okw.OKW_Helper.isStringNull</text>
<text text-anchor="middle" x="423" y="-297.333" font-family="Helvetica,sans-Serif" font-size="10.00">OrEmpty</text>
</a>
</g>
<!-- Node151&#45;&gt;Node156 -->
<g id="edge12" class="edge"><title>Node151&#45;&gt;Node156</title>
<path fill="none" stroke="midnightblue" d="M311.582,-306.333C320.393,-306.333 329.435,-306.333 338.373,-306.333"/>
<polygon fill="midnightblue" stroke="midnightblue" points="338.402,-309.833 348.402,-306.333 338.402,-302.833 338.402,-309.833"/>
</g>
<!-- Node157 -->
<g id="node15" class="node"><title>Node157</title>
<a xlink:href="classokw_1_1core_1_1_o_k_w___current_object___sngltn.html#a51204f2563ba8defb737da6653705819" target="_top" xlink:title="Methode aktualisert zwei Werte: ">
<polygon fill="white" stroke="black" points="348.5,-341.333 348.5,-375.333 497.5,-375.333 497.5,-341.333 348.5,-341.333"/>
<text text-anchor="start" x="356.5" y="-362.333" font-family="Helvetica,sans-Serif" font-size="10.00">okw.core.OKW_CurrentObject</text>
<text text-anchor="middle" x="423" y="-349.333" font-family="Helvetica,sans-Serif" font-size="10.00">_Sngltn.updateObject</text>
</a>
</g>
<!-- Node151&#45;&gt;Node157 -->
<g id="edge14" class="edge"><title>Node151&#45;&gt;Node157</title>
<path fill="none" stroke="midnightblue" d="M297.903,-323.36C315.246,-328.208 334.285,-333.531 352.165,-338.53"/>
<polygon fill="midnightblue" stroke="midnightblue" points="351.387,-341.947 361.96,-341.268 353.271,-335.205 351.387,-341.947"/>
</g>
<!-- Node154 -->
<g id="node9" class="node"><title>Node154</title>
<a xlink:href="classokw_1_1_log_messenger.html#a530cd6ab82ec82a04206a2e976ec06e3" target="_top" xlink:title="Interne Kernfunktion holt die Log&#45;Meldung mit Platzhaltern aus der XML&#45;Datei. ">
<polygon fill="white" stroke="black" points="928.5,-334.833 928.5,-355.833 1095.5,-355.833 1095.5,-334.833 928.5,-334.833"/>
<text text-anchor="middle" x="1012" y="-342.833" font-family="Helvetica,sans-Serif" font-size="10.00">okw.LogMessenger.ReadMessage</text>
</a>
</g>
<!-- Node153&#45;&gt;Node154 -->
<g id="edge8" class="edge"><title>Node153&#45;&gt;Node154</title>
<path fill="none" stroke="midnightblue" d="M892.195,-345.333C900.709,-345.333 909.423,-345.333 918.075,-345.333"/>
<polygon fill="midnightblue" stroke="midnightblue" points="918.189,-348.833 928.189,-345.333 918.189,-341.833 918.189,-348.833"/>
</g>
<!-- Node155 -->
<g id="node11" class="node"><title>Node155</title>
<a xlink:href="classokw_1_1_o_k_w___xml_reader.html#ab920b5335a2e1429c14cc5f8e79f39eb" target="_top" xlink:title="Lies den TextContent eines Tag. ">
<polygon fill="white" stroke="black" points="1132,-328.333 1132,-362.333 1284,-362.333 1284,-328.333 1132,-328.333"/>
<text text-anchor="start" x="1140" y="-349.333" font-family="Helvetica,sans-Serif" font-size="10.00">okw.OKW_XmlReader.getText</text>
<text text-anchor="middle" x="1208" y="-336.333" font-family="Helvetica,sans-Serif" font-size="10.00">ContentSingleValue</text>
</a>
</g>
<!-- Node154&#45;&gt;Node155 -->
<g id="edge10" class="edge"><title>Node154&#45;&gt;Node155</title>
<path fill="none" stroke="midnightblue" d="M1095.69,-345.333C1104.29,-345.333 1113.04,-345.333 1121.67,-345.333"/>
<polygon fill="midnightblue" stroke="midnightblue" points="1121.72,-348.833 1131.72,-345.333 1121.72,-341.833 1121.72,-348.833"/>
</g>
<!-- Node158 -->
<g id="node17" class="node"><title>Node158</title>
<a xlink:href="classokw_1_1_frame_object_dictionary___sngltn.html#aeec07d71cbebe71ec3ec4d27e86d6c5c" target="_top" xlink:title="Die Methode liefert das Frame&#45;Object des gegebenen FN eines Fensterobjektes zur端ck. ">
<polygon fill="white" stroke="black" points="534.5,-341.333 534.5,-375.333 695.5,-375.333 695.5,-341.333 534.5,-341.333"/>
<text text-anchor="start" x="542.5" y="-362.333" font-family="Helvetica,sans-Serif" font-size="10.00">okw.FrameObjectDictionary</text>
<text text-anchor="middle" x="615" y="-349.333" font-family="Helvetica,sans-Serif" font-size="10.00">_Sngltn.getParentObjectByName</text>
</a>
</g>
<!-- Node157&#45;&gt;Node158 -->
<g id="edge16" class="edge"><title>Node157&#45;&gt;Node158</title>
<path fill="none" stroke="midnightblue" d="M497.507,-358.333C506.315,-358.333 515.376,-358.333 524.375,-358.333"/>
<polygon fill="midnightblue" stroke="midnightblue" points="524.491,-361.833 534.491,-358.333 524.491,-354.833 524.491,-361.833"/>
</g>
<!-- Node159 -->
<g id="node21" class="node"><title>Node159</title>
<a xlink:href="classokw_1_1_frame_object_dictionary___sngltn.html#a0a71734828093357dfc88b5fa242e361" target="_top" xlink:title="Die Methode liefert das Objekt des gegebenen Kindobjekttests zur端ck. ">
<polygon fill="white" stroke="black" points="537.5,-289.333 537.5,-323.333 692.5,-323.333 692.5,-289.333 537.5,-289.333"/>
<text text-anchor="start" x="545.5" y="-310.333" font-family="Helvetica,sans-Serif" font-size="10.00">okw.FrameObjectDictionary</text>
<text text-anchor="middle" x="615" y="-297.333" font-family="Helvetica,sans-Serif" font-size="10.00">_Sngltn.getChildObjectByName</text>
</a>
</g>
<!-- Node157&#45;&gt;Node159 -->
<g id="edge22" class="edge"><title>Node157&#45;&gt;Node159</title>
<path fill="none" stroke="midnightblue" d="M485.868,-341.307C503.853,-336.436 523.606,-331.086 542.136,-326.067"/>
<polygon fill="midnightblue" stroke="midnightblue" points="543.253,-329.391 551.991,-323.398 541.424,-322.634 543.253,-329.391"/>
</g>
<!-- Node158&#45;&gt;Node152 -->
<g id="edge18" class="edge"><title>Node158&#45;&gt;Node152</title>
<path fill="none" stroke="midnightblue" d="M672.044,-341.239C680.157,-338.456 688.341,-335.456 696,-332.333 721.906,-321.772 749.99,-307.799 772.036,-296.215"/>
<polygon fill="midnightblue" stroke="midnightblue" points="773.896,-299.191 781.091,-291.414 770.617,-293.006 773.896,-299.191"/>
</g>
<!-- Node158&#45;&gt;Node153 -->
<g id="edge20" class="edge"><title>Node158&#45;&gt;Node153</title>
<path fill="none" stroke="midnightblue" d="M695.696,-353.008C704.25,-352.444 712.989,-351.867 721.643,-351.296"/>
<polygon fill="midnightblue" stroke="midnightblue" points="722,-354.78 731.748,-350.629 721.539,-347.795 722,-354.78"/>
</g>
<!-- Node159&#45;&gt;Node152 -->
<g id="edge24" class="edge"><title>Node159&#45;&gt;Node152</title>
<path fill="none" stroke="midnightblue" d="M692.577,-293.732C706.44,-291.48 720.882,-289.134 734.736,-286.884"/>
<polygon fill="midnightblue" stroke="midnightblue" points="735.394,-290.323 744.703,-285.265 734.271,-283.414 735.394,-290.323"/>
</g>
<!-- Node159&#45;&gt;Node153 -->
<g id="edge26" class="edge"><title>Node159&#45;&gt;Node153</title>
<path fill="none" stroke="midnightblue" d="M692.577,-321.691C711.205,-325.379 730.88,-329.274 748.767,-332.815"/>
<polygon fill="midnightblue" stroke="midnightblue" points="748.296,-336.29 758.785,-334.798 749.655,-329.423 748.296,-336.29"/>
</g>
<!-- Node163&#45;&gt;Node152 -->
<g id="edge40" class="edge"><title>Node163&#45;&gt;Node152</title>
<path fill="none" stroke="midnightblue" d="M298.351,-129.742C303.334,-127.223 307.986,-124.13 312,-120.333 349.372,-84.9861 306.352,-40.525 348,-10.3333 367.681,3.93348 672.458,3.15979 696,-12.3333 777.615,-66.0435 802.277,-191.556 809.337,-247.082"/>
<polygon fill="midnightblue" stroke="midnightblue" points="805.884,-247.688 810.525,-257.212 812.836,-246.872 805.884,-247.688"/>
</g>
<!-- Node163&#45;&gt;Node161 -->
<g id="edge36" class="edge"><title>Node163&#45;&gt;Node161</title>
<path fill="none" stroke="midnightblue" d="M275.235,-150.875C296.502,-156.337 323.539,-162.622 348,-166.333 411.451,-175.96 484.143,-180.729 537.642,-183.081"/>
<polygon fill="midnightblue" stroke="midnightblue" points="537.601,-186.582 547.739,-183.506 537.895,-179.588 537.601,-186.582"/>
</g>
<!-- Node164 -->
<g id="node34" class="node"><title>Node164</title>
<a xlink:href="classokw_1_1log_1_1_logger___sngltn.html#aa29d396a2b9df1ac57079d777c548181" target="_top" xlink:title="LogException Function: Logs a Script Exception to the results file. ">
<polygon fill="white" stroke="black" points="356,-123.333 356,-157.333 490,-157.333 490,-123.333 356,-123.333"/>
<text text-anchor="start" x="364" y="-144.333" font-family="Helvetica,sans-Serif" font-size="10.00">okw.log.Logger_Sngltn.Log</text>
<text text-anchor="middle" x="423" y="-131.333" font-family="Helvetica,sans-Serif" font-size="10.00">Exception</text>
</a>
</g>
<!-- Node163&#45;&gt;Node164 -->
<g id="edge38" class="edge"><title>Node163&#45;&gt;Node164</title>
<path fill="none" stroke="midnightblue" d="M311.582,-140.333C322.802,-140.333 334.394,-140.333 345.671,-140.333"/>
<polygon fill="midnightblue" stroke="midnightblue" points="345.918,-143.833 355.917,-140.333 345.917,-136.833 345.918,-143.833"/>
</g>
<!-- Node165 -->
<g id="node37" class="node"><title>Node165</title>
<a xlink:href="classokw_1_1core_1_1_o_k_w___current_object___sngltn.html#a01b48f2c86a2f91909143ee9063dfd86" target="_top" xlink:title="Methode gibt alle wichtigen Informationen zum aktuellen Objekt aus. ">
<polygon fill="white" stroke="black" points="348.5,-71.3333 348.5,-105.333 497.5,-105.333 497.5,-71.3333 348.5,-71.3333"/>
<text text-anchor="start" x="356.5" y="-92.3333" font-family="Helvetica,sans-Serif" font-size="10.00">okw.core.OKW_CurrentObject</text>
<text text-anchor="middle" x="423" y="-79.3333" font-family="Helvetica,sans-Serif" font-size="10.00">_Sngltn.LogObjectData</text>
</a>
</g>
<!-- Node163&#45;&gt;Node165 -->
<g id="edge42" class="edge"><title>Node163&#45;&gt;Node165</title>
<path fill="none" stroke="midnightblue" d="M277.131,-129.791C288.422,-126.782 300.703,-123.468 312,-120.333 325.896,-116.478 340.744,-112.264 354.911,-108.196"/>
<polygon fill="midnightblue" stroke="midnightblue" points="355.949,-111.54 364.591,-105.41 354.013,-104.813 355.949,-111.54"/>
</g>
<!-- Node168 -->
<g id="node45" class="node"><title>Node168</title>
<a xlink:href="classokw_1_1core_1_1_core.html#aafe6e3d88e810dabf350b37058d4af97" target="_top" xlink:title="Setter zum Setzen des aktuellen Zustandes. ">
<polygon fill="white" stroke="black" points="357.5,-19.3333 357.5,-53.3333 488.5,-53.3333 488.5,-19.3333 357.5,-19.3333"/>
<text text-anchor="start" x="365.5" y="-40.3333" font-family="Helvetica,sans-Serif" font-size="10.00">okw.core.Core.SetCurrent</text>
<text text-anchor="middle" x="423" y="-27.3333" font-family="Helvetica,sans-Serif" font-size="10.00">State</text>
</a>
</g>
<!-- Node163&#45;&gt;Node168 -->
<g id="edge52" class="edge"><title>Node163&#45;&gt;Node168</title>
<path fill="none" stroke="midnightblue" d="M294.788,-129.808C300.919,-127.296 306.804,-124.186 312,-120.333 336.372,-102.265 324.304,-81.2807 348,-62.3333 349.574,-61.0747 351.213,-59.8749 352.905,-58.7315"/>
<polygon fill="midnightblue" stroke="midnightblue" points="354.938,-61.5946 361.74,-53.4718 351.357,-55.5797 354.938,-61.5946"/>
</g>
<!-- Node165&#45;&gt;Node153 -->
<g id="edge48" class="edge"><title>Node165&#45;&gt;Node153</title>
<path fill="none" stroke="midnightblue" d="M490.242,-105.381C570.473,-125.784 694.135,-157.46 696,-159.333 741.631,-205.169 692.643,-249.01 732,-300.333 742.102,-313.507 757.231,-323.411 771.622,-330.525"/>
<polygon fill="midnightblue" stroke="midnightblue" points="770.365,-333.8 780.913,-334.803 773.293,-327.441 770.365,-333.8"/>
</g>
<!-- Node165&#45;&gt;Node161 -->
<g id="edge46" class="edge"><title>Node165&#45;&gt;Node161</title>
<path fill="none" stroke="midnightblue" d="M481.243,-105.353C487.093,-107.987 492.789,-110.971 498,-114.333 517.548,-126.947 514.794,-139.204 534,-152.333 540.346,-156.672 547.35,-160.585 554.503,-164.071"/>
<polygon fill="midnightblue" stroke="midnightblue" points="553.058,-167.259 563.606,-168.258 555.984,-160.899 553.058,-167.259"/>
</g>
<!-- Node166 -->
<g id="node39" class="node"><title>Node166</title>
<a xlink:href="classokw_1_1log_1_1_logger___sngltn.html#ab4fc711bb4c754f251372ff3b14ab9c9" target="_top" xlink:title="Creates a new hierarchical level in the results file. ">
<polygon fill="white" stroke="black" points="546.5,-73.3333 546.5,-107.333 683.5,-107.333 683.5,-73.3333 546.5,-73.3333"/>
<text text-anchor="start" x="554.5" y="-94.3333" font-family="Helvetica,sans-Serif" font-size="10.00">okw.log.Logger_Sngltn.Res</text>
<text text-anchor="middle" x="615" y="-81.3333" font-family="Helvetica,sans-Serif" font-size="10.00">OpenList</text>
</a>
</g>
<!-- Node165&#45;&gt;Node166 -->
<g id="edge44" class="edge"><title>Node165&#45;&gt;Node166</title>
<path fill="none" stroke="midnightblue" d="M497.507,-89.1094C510.233,-89.242 523.49,-89.3801 536.32,-89.5137"/>
<polygon fill="midnightblue" stroke="midnightblue" points="536.463,-93.0153 546.499,-89.6198 536.536,-86.0157 536.463,-93.0153"/>
</g>
<!-- Node167 -->
<g id="node43" class="node"><title>Node167</title>
<a xlink:href="classokw_1_1log_1_1_logger___sngltn.html#a9b54104f7e0b4c0a473877b19dfaed56" target="_top" xlink:title="Closes a hierarchical level in the results file that was opened with ResOpenList. ...">
<polygon fill="white" stroke="black" points="546.5,-21.3333 546.5,-55.3333 683.5,-55.3333 683.5,-21.3333 546.5,-21.3333"/>
<text text-anchor="start" x="554.5" y="-42.3333" font-family="Helvetica,sans-Serif" font-size="10.00">okw.log.Logger_Sngltn.Res</text>
<text text-anchor="middle" x="615" y="-29.3333" font-family="Helvetica,sans-Serif" font-size="10.00">CloseList</text>
</a>
</g>
<!-- Node165&#45;&gt;Node167 -->
<g id="edge50" class="edge"><title>Node165&#45;&gt;Node167</title>
<path fill="none" stroke="midnightblue" d="M488.539,-71.266C504.975,-66.9856 522.741,-62.359 539.616,-57.9647"/>
<polygon fill="midnightblue" stroke="midnightblue" points="540.636,-61.3158 549.431,-55.4086 538.872,-54.5417 540.636,-61.3158"/>
</g>
</g>
</svg>
