<?xml version="1.0" encoding="UTF-8" standalone="no"?>
<!DOCTYPE svg PUBLIC "-//W3C//DTD SVG 1.1//EN"
 "http://www.w3.org/Graphics/SVG/1.1/DTD/svg11.dtd">
<!-- Generated by graphviz version 2.36.0 (20140111.2315)
 -->
<!-- Title: okw.OKW_Memorize_Sngltn Pages: 1 -->
<svg width="684pt" height="858pt"
 viewBox="0.00 0.00 684.00 858.00" xmlns="http://www.w3.org/2000/svg" xmlns:xlink="http://www.w3.org/1999/xlink">
<g id="graph0" class="graph" transform="scale(1 1) rotate(0) translate(4 854)">
<title>okw.OKW_Memorize_Sngltn</title>
<polygon fill="white" stroke="none" points="-4,4 -4,-854 680,-854 680,4 -4,4"/>
<!-- Node1 -->
<g id="node1" class="node"><title>Node1</title>
<polygon fill="#bfbfbf" stroke="black" points="335.5,-1 335.5,-135 478.5,-135 478.5,-1 335.5,-1"/>
<text text-anchor="middle" x="407" y="-123" font-family="Helvetica,sans-Serif" font-size="10.00">okw.OKW_Memorize_Sngltn</text>
<polyline fill="none" stroke="black" points="335.5,-116 478.5,-116 "/>
<text text-anchor="start" x="343.5" y="-104" font-family="Helvetica,sans-Serif" font-size="10.00">+ OKW_Memorize_xml</text>
<polyline fill="none" stroke="black" points="335.5,-97 478.5,-97 "/>
<text text-anchor="start" x="343.5" y="-85" font-family="Helvetica,sans-Serif" font-size="10.00">+ exists()</text>
<text text-anchor="start" x="343.5" y="-74" font-family="Helvetica,sans-Serif" font-size="10.00">+ get()</text>
<text text-anchor="start" x="343.5" y="-63" font-family="Helvetica,sans-Serif" font-size="10.00">+ init()</text>
<text text-anchor="start" x="343.5" y="-52" font-family="Helvetica,sans-Serif" font-size="10.00">+ save()</text>
<text text-anchor="start" x="343.5" y="-41" font-family="Helvetica,sans-Serif" font-size="10.00">+ set()</text>
<text text-anchor="start" x="343.5" y="-30" font-family="Helvetica,sans-Serif" font-size="10.00">+ getInstance()</text>
<text text-anchor="start" x="343.5" y="-19" font-family="Helvetica,sans-Serif" font-size="10.00">+ reset()</text>
<text text-anchor="start" x="343.5" y="-8" font-family="Helvetica,sans-Serif" font-size="10.00">&#45; OKW_Memorize_Sngltn()</text>
</g>
<!-- Node1&#45;&gt;Node1 -->
<g id="edge10" class="edge"><title>Node1&#45;&gt;Node1</title>
<path fill="none" stroke="#404040" d="M478.582,-83.5654C488.989,-81.0947 496,-75.9062 496,-68 496,-63.5527 493.782,-59.9654 489.988,-57.238"/>
<polygon fill="none" stroke="#404040" points="489.641,-57.0919 482.559,-58.4497 478.582,-52.4346 485.664,-51.0767 489.641,-57.0919"/>
<text text-anchor="middle" x="518" y="-65.5" font-family="Helvetica,sans-Serif" font-size="10.00"> &#45;Instance</text>
</g>
<!-- Node2 -->
<g id="node2" class="node"><title>Node2</title>
<g id="a_node2"><a xlink:href="classokw_1_1_log_messenger.html" target="_top" xlink:title="LogMessenger liest Log&#45;Meldungen sprachspezifisch für die im Konstruktor gegeben Klasse aus der Zugeh...">
<polygon fill="white" stroke="black" points="232.5,-333 232.5,-445 333.5,-445 333.5,-333 232.5,-333"/>
<text text-anchor="middle" x="283" y="-433" font-family="Helvetica,sans-Serif" font-size="10.00">okw.LogMessenger</text>
<polyline fill="none" stroke="black" points="232.5,-426 333.5,-426 "/>
<text text-anchor="start" x="240.5" y="-414" font-family="Helvetica,sans-Serif" font-size="10.00">&#45; cvsClassName</text>
<polyline fill="none" stroke="black" points="232.5,-407 333.5,-407 "/>
<text text-anchor="start" x="240.5" y="-395" font-family="Helvetica,sans-Serif" font-size="10.00">+ LogMessenger()</text>
<text text-anchor="start" x="240.5" y="-384" font-family="Helvetica,sans-Serif" font-size="10.00">+ GetMessage()</text>
<text text-anchor="start" x="240.5" y="-373" font-family="Helvetica,sans-Serif" font-size="10.00">+ GetMessage()</text>
<text text-anchor="start" x="240.5" y="-362" font-family="Helvetica,sans-Serif" font-size="10.00">+ GetMessage()</text>
<text text-anchor="start" x="240.5" y="-351" font-family="Helvetica,sans-Serif" font-size="10.00">+ GetMessage()</text>
<text text-anchor="start" x="240.5" y="-340" font-family="Helvetica,sans-Serif" font-size="10.00">&#45; ReadMessage()</text>
</a>
</g>
</g>
<!-- Node2&#45;&gt;Node1 -->
<g id="edge1" class="edge"><title>Node2&#45;&gt;Node1</title>
<path fill="none" stroke="#404040" d="M295.712,-332.742C306.147,-291.04 322.52,-232.857 343,-184 348.261,-171.45 354.537,-158.516 361.073,-146.055"/>
<polygon fill="none" stroke="#404040" points="361.196,-145.826 360.504,-138.648 366.863,-135.248 367.555,-142.426 361.196,-145.826"/>
<text text-anchor="middle" x="367" y="-157.5" font-family="Helvetica,sans-Serif" font-size="10.00"> &#45;LM</text>
</g>
<!-- Node3 -->
<g id="node3" class="node"><title>Node3</title>
<g id="a_node3"><a xlink:href="classokw_1_1_o_k_w___xml_reader.html" target="_top" xlink:title="{okw.OKW_XmlReader\n||+ getXMLFile()\l+ OKW_XmlReader()\l+ getTextContentSingleValue()\l+ getTextContentAsList()\l&#45; Init()\l}">
<polygon fill="white" stroke="black" points="207.5,-642.5 207.5,-743.5 358.5,-743.5 358.5,-642.5 207.5,-642.5"/>
<text text-anchor="middle" x="283" y="-731.5" font-family="Helvetica,sans-Serif" font-size="10.00">okw.OKW_XmlReader</text>
<polyline fill="none" stroke="black" points="207.5,-724.5 358.5,-724.5 "/>
<text text-anchor="middle" x="283" y="-712.5" font-family="Helvetica,sans-Serif" font-size="10.00"> </text>
<polyline fill="none" stroke="black" points="207.5,-705.5 358.5,-705.5 "/>
<text text-anchor="start" x="215.5" y="-693.5" font-family="Helvetica,sans-Serif" font-size="10.00">+ getXMLFile()</text>
<text text-anchor="start" x="215.5" y="-682.5" font-family="Helvetica,sans-Serif" font-size="10.00">+ OKW_XmlReader()</text>
<text text-anchor="start" x="215.5" y="-671.5" font-family="Helvetica,sans-Serif" font-size="10.00">+ getTextContentSingleValue()</text>
<text text-anchor="start" x="215.5" y="-660.5" font-family="Helvetica,sans-Serif" font-size="10.00">+ getTextContentAsList()</text>
<text text-anchor="start" x="215.5" y="-649.5" font-family="Helvetica,sans-Serif" font-size="10.00">&#45; Init()</text>
</a>
</g>
</g>
<!-- Node3&#45;&gt;Node2 -->
<g id="edge2" class="edge"><title>Node3&#45;&gt;Node2</title>
<path fill="none" stroke="#404040" d="M283,-642.469C283,-592.064 283,-513.583 283,-457.508"/>
<polygon fill="none" stroke="#404040" points="283,-457.191 279,-451.191 283,-445.191 287,-451.191 283,-457.191"/>
<text text-anchor="middle" x="317.5" y="-615.5" font-family="Helvetica,sans-Serif" font-size="10.00"> &#45;myXmlReader</text>
</g>
<!-- Node4 -->
<g id="node4" class="node"><title>Node4</title>
<polygon fill="white" stroke="#bfbfbf" points="-0.5,-792.5 -0.5,-849.5 70.5,-849.5 70.5,-792.5 -0.5,-792.5"/>
<text text-anchor="middle" x="35" y="-837.5" font-family="Helvetica,sans-Serif" font-size="10.00">ClassLoader</text>
<polyline fill="none" stroke="#bfbfbf" points="-0.5,-830.5 70.5,-830.5 "/>
<text text-anchor="middle" x="35" y="-818.5" font-family="Helvetica,sans-Serif" font-size="10.00"> </text>
<polyline fill="none" stroke="#bfbfbf" points="-0.5,-811.5 70.5,-811.5 "/>
<text text-anchor="middle" x="35" y="-799.5" font-family="Helvetica,sans-Serif" font-size="10.00"> </text>
</g>
<!-- Node4&#45;&gt;Node3 -->
<g id="edge3" class="edge"><title>Node4&#45;&gt;Node3</title>
<path fill="none" stroke="midnightblue" d="M79.821,-791.723C126.317,-766.118 170.758,-744.657 207.31,-727.747"/>
<polygon fill="none" stroke="midnightblue" points="77.8528,-788.812 70.8072,-796.725 81.2494,-794.933 77.8528,-788.812"/>
</g>
<!-- Node5 -->
<g id="node5" class="node"><title>Node5</title>
<polygon fill="white" stroke="#bfbfbf" points="88.5,-792.5 88.5,-849.5 213.5,-849.5 213.5,-792.5 88.5,-792.5"/>
<text text-anchor="middle" x="151" y="-837.5" font-family="Helvetica,sans-Serif" font-size="10.00">DocumentBuilderFactory</text>
<polyline fill="none" stroke="#bfbfbf" points="88.5,-830.5 213.5,-830.5 "/>
<text text-anchor="middle" x="151" y="-818.5" font-family="Helvetica,sans-Serif" font-size="10.00"> </text>
<polyline fill="none" stroke="#bfbfbf" points="88.5,-811.5 213.5,-811.5 "/>
<text text-anchor="middle" x="151" y="-799.5" font-family="Helvetica,sans-Serif" font-size="10.00"> </text>
</g>
<!-- Node5&#45;&gt;Node3 -->
<g id="edge4" class="edge"><title>Node5&#45;&gt;Node3</title>
<path fill="none" stroke="#404040" d="M161.18,-792.499C165.869,-782.191 172.157,-770.844 180,-762 185.397,-755.914 191.458,-750.138 197.868,-744.714"/>
<polygon fill="none" stroke="#404040" points="198.105,-744.524 200.288,-737.651 207.471,-737.022 205.288,-743.895 198.105,-744.524"/>
<text text-anchor="middle" x="212" y="-765.5" font-family="Helvetica,sans-Serif" font-size="10.00"> &#45;mydbFactory</text>
</g>
<!-- Node6 -->
<g id="node6" class="node"><title>Node6</title>
<polygon fill="white" stroke="#bfbfbf" points="231,-792.5 231,-849.5 275,-849.5 275,-792.5 231,-792.5"/>
<text text-anchor="middle" x="253" y="-837.5" font-family="Helvetica,sans-Serif" font-size="10.00">XPath</text>
<polyline fill="none" stroke="#bfbfbf" points="231,-830.5 275,-830.5 "/>
<text text-anchor="middle" x="253" y="-818.5" font-family="Helvetica,sans-Serif" font-size="10.00"> </text>
<polyline fill="none" stroke="#bfbfbf" points="231,-811.5 275,-811.5 "/>
<text text-anchor="middle" x="253" y="-799.5" font-family="Helvetica,sans-Serif" font-size="10.00"> </text>
</g>
<!-- Node6&#45;&gt;Node3 -->
<g id="edge5" class="edge"><title>Node6&#45;&gt;Node3</title>
<path fill="none" stroke="#404040" d="M247.742,-792.286C246.782,-782.602 246.704,-771.725 249,-762 249.546,-759.688 250.183,-757.364 250.896,-755.043"/>
<polygon fill="none" stroke="#404040" points="250.979,-754.812 249.233,-747.815 255.02,-743.513 256.766,-750.51 250.979,-754.812"/>
<text text-anchor="middle" x="272.5" y="-765.5" font-family="Helvetica,sans-Serif" font-size="10.00"> &#45;myXPath</text>
</g>
<!-- Node7 -->
<g id="node7" class="node"><title>Node7</title>
<polygon fill="white" stroke="#bfbfbf" points="297.5,-792.5 297.5,-849.5 334.5,-849.5 334.5,-792.5 297.5,-792.5"/>
<text text-anchor="middle" x="316" y="-837.5" font-family="Helvetica,sans-Serif" font-size="10.00">Path</text>
<polyline fill="none" stroke="#bfbfbf" points="297.5,-830.5 334.5,-830.5 "/>
<text text-anchor="middle" x="316" y="-818.5" font-family="Helvetica,sans-Serif" font-size="10.00"> </text>
<polyline fill="none" stroke="#bfbfbf" points="297.5,-811.5 334.5,-811.5 "/>
<text text-anchor="middle" x="316" y="-799.5" font-family="Helvetica,sans-Serif" font-size="10.00"> </text>
</g>
<!-- Node7&#45;&gt;Node3 -->
<g id="edge6" class="edge"><title>Node7&#45;&gt;Node3</title>
<path fill="none" stroke="#404040" d="M308.758,-792.349C305.896,-781.423 302.485,-768.399 299.097,-755.462"/>
<polygon fill="none" stroke="#404040" points="299.049,-755.276 293.659,-750.486 296.008,-743.668 301.398,-748.459 299.049,-755.276"/>
<text text-anchor="middle" x="332" y="-765.5" font-family="Helvetica,sans-Serif" font-size="10.00"> &#45;myXMLFile</text>
</g>
<!-- Node8 -->
<g id="node8" class="node"><title>Node8</title>
<polygon fill="white" stroke="#bfbfbf" points="353,-792.5 353,-849.5 445,-849.5 445,-792.5 353,-792.5"/>
<text text-anchor="middle" x="399" y="-837.5" font-family="Helvetica,sans-Serif" font-size="10.00">DocumentBuilder</text>
<polyline fill="none" stroke="#bfbfbf" points="353,-830.5 445,-830.5 "/>
<text text-anchor="middle" x="399" y="-818.5" font-family="Helvetica,sans-Serif" font-size="10.00"> </text>
<polyline fill="none" stroke="#bfbfbf" points="353,-811.5 445,-811.5 "/>
<text text-anchor="middle" x="399" y="-799.5" font-family="Helvetica,sans-Serif" font-size="10.00"> </text>
</g>
<!-- Node8&#45;&gt;Node3 -->
<g id="edge7" class="edge"><title>Node8&#45;&gt;Node3</title>
<path fill="none" stroke="#404040" d="M384.877,-792.476C379.079,-782.392 371.875,-771.205 364,-762 361.147,-758.665 358.12,-755.359 354.977,-752.107"/>
<polygon fill="none" stroke="#404040" points="354.952,-752.083 347.874,-750.704 346.425,-743.64 353.503,-745.019 354.952,-752.083"/>
<text text-anchor="middle" x="401.5" y="-765.5" font-family="Helvetica,sans-Serif" font-size="10.00"> &#45;mydBuilder</text>
</g>
<!-- Node9 -->
<g id="node9" class="node"><title>Node9</title>
<polygon fill="white" stroke="#bfbfbf" points="463,-792.5 463,-849.5 525,-849.5 525,-792.5 463,-792.5"/>
<text text-anchor="middle" x="494" y="-837.5" font-family="Helvetica,sans-Serif" font-size="10.00">Document</text>
<polyline fill="none" stroke="#bfbfbf" points="463,-830.5 525,-830.5 "/>
<text text-anchor="middle" x="494" y="-818.5" font-family="Helvetica,sans-Serif" font-size="10.00"> </text>
<polyline fill="none" stroke="#bfbfbf" points="463,-811.5 525,-811.5 "/>
<text text-anchor="middle" x="494" y="-799.5" font-family="Helvetica,sans-Serif" font-size="10.00"> </text>
</g>
<!-- Node9&#45;&gt;Node3 -->
<g id="edge8" class="edge"><title>Node9&#45;&gt;Node3</title>
<path fill="none" stroke="#404040" d="M468.649,-792.217C458.273,-781.872 445.725,-770.574 433,-762 413.615,-748.939 391.314,-737.285 369.937,-727.472"/>
<polygon fill="none" stroke="#404040" points="369.814,-727.417 362.703,-728.614 358.863,-722.51 365.974,-721.313 369.814,-727.417"/>
<text text-anchor="middle" x="490.5" y="-765.5" font-family="Helvetica,sans-Serif" font-size="10.00"> &#45;myXMLDocument</text>
</g>
<!-- Node10 -->
<g id="node10" class="node"><title>Node10</title>
<polygon fill="white" stroke="#bfbfbf" points="352,-360.5 352,-417.5 462,-417.5 462,-360.5 352,-360.5"/>
<text text-anchor="middle" x="407" y="-405.5" font-family="Helvetica,sans-Serif" font-size="10.00">Map&lt; String, String &gt;</text>
<polyline fill="none" stroke="#bfbfbf" points="352,-398.5 462,-398.5 "/>
<text text-anchor="middle" x="407" y="-386.5" font-family="Helvetica,sans-Serif" font-size="10.00"> </text>
<polyline fill="none" stroke="#bfbfbf" points="352,-379.5 462,-379.5 "/>
<text text-anchor="middle" x="407" y="-367.5" font-family="Helvetica,sans-Serif" font-size="10.00"> </text>
</g>
<!-- Node10&#45;&gt;Node1 -->
<g id="edge9" class="edge"><title>Node10&#45;&gt;Node1</title>
<path fill="none" stroke="#404040" d="M407,-360.249C407,-313.274 407,-216.467 407,-147.359"/>
<polygon fill="none" stroke="#404040" points="407,-147.228 403,-141.228 407,-135.228 411,-141.228 407,-147.228"/>
<text text-anchor="middle" x="427" y="-157.5" font-family="Helvetica,sans-Serif" font-size="10.00"> +_Value</text>
</g>
<!-- Node11 -->
<g id="node11" class="node"><title>Node11</title>
<g id="a_node11"><a xlink:href="classokw_1_1log_1_1_logger___sngltn.html" target="_top" xlink:title="{okw.log.Logger_Sngltn\n|&#45; cvbDebugMode\l|+ getDebugMode()\l+ setDebugMode()\l+ addLogger()\l+ reset()\l+ LogError()\l+ LogException()\l+ LogFunctionEnd()\l+ LogFunctionEnd()\l+ LogFunctionEnd()\l+ LogFunctionEnd()\l+ LogFunctionEndDebug()\l+ LogFunctionEndDebug()\l+ LogFunctionEndDebug()\l+ LogFunctionEndDebug()\l+ LogFunctionStart()\l+ LogFunctionStartDebug()\l+ LogKeyWordEnd()\l+ LogSequenceEnd()\l+ LogTestcaseEnd()\l+ LogKeyWordStart()\l+ LogSequenceStart()\l+ LogTestcaseStart()\l+ LogPass()\l+ LogPrint()\l+ LogPrintDebug()\l+ LogWarning()\l+ ResCloseList()\l+ ResCloseListDebug()\l+ ResOpenList()\l+ ResOpenListDebug()\l+ getInstance()\l+ init()\l&#45; Logger_Sngltn()\l}">
<polygon fill="white" stroke="black" points="480,-184.5 480,-593.5 614,-593.5 614,-184.5 480,-184.5"/>
<text text-anchor="middle" x="547" y="-581.5" font-family="Helvetica,sans-Serif" font-size="10.00">okw.log.Logger_Sngltn</text>
<polyline fill="none" stroke="black" points="480,-574.5 614,-574.5 "/>
<text text-anchor="start" x="488" y="-562.5" font-family="Helvetica,sans-Serif" font-size="10.00">&#45; cvbDebugMode</text>
<polyline fill="none" stroke="black" points="480,-555.5 614,-555.5 "/>
<text text-anchor="start" x="488" y="-543.5" font-family="Helvetica,sans-Serif" font-size="10.00">+ getDebugMode()</text>
<text text-anchor="start" x="488" y="-532.5" font-family="Helvetica,sans-Serif" font-size="10.00">+ setDebugMode()</text>
<text text-anchor="start" x="488" y="-521.5" font-family="Helvetica,sans-Serif" font-size="10.00">+ addLogger()</text>
<text text-anchor="start" x="488" y="-510.5" font-family="Helvetica,sans-Serif" font-size="10.00">+ reset()</text>
<text text-anchor="start" x="488" y="-499.5" font-family="Helvetica,sans-Serif" font-size="10.00">+ LogError()</text>
<text text-anchor="start" x="488" y="-488.5" font-family="Helvetica,sans-Serif" font-size="10.00">+ LogException()</text>
<text text-anchor="start" x="488" y="-477.5" font-family="Helvetica,sans-Serif" font-size="10.00">+ LogFunctionEnd()</text>
<text text-anchor="start" x="488" y="-466.5" font-family="Helvetica,sans-Serif" font-size="10.00">+ LogFunctionEnd()</text>
<text text-anchor="start" x="488" y="-455.5" font-family="Helvetica,sans-Serif" font-size="10.00">+ LogFunctionEnd()</text>
<text text-anchor="start" x="488" y="-444.5" font-family="Helvetica,sans-Serif" font-size="10.00">+ LogFunctionEnd()</text>
<text text-anchor="start" x="488" y="-433.5" font-family="Helvetica,sans-Serif" font-size="10.00">+ LogFunctionEndDebug()</text>
<text text-anchor="start" x="488" y="-422.5" font-family="Helvetica,sans-Serif" font-size="10.00">+ LogFunctionEndDebug()</text>
<text text-anchor="start" x="488" y="-411.5" font-family="Helvetica,sans-Serif" font-size="10.00">+ LogFunctionEndDebug()</text>
<text text-anchor="start" x="488" y="-400.5" font-family="Helvetica,sans-Serif" font-size="10.00">+ LogFunctionEndDebug()</text>
<text text-anchor="start" x="488" y="-389.5" font-family="Helvetica,sans-Serif" font-size="10.00">+ LogFunctionStart()</text>
<text text-anchor="start" x="488" y="-378.5" font-family="Helvetica,sans-Serif" font-size="10.00">+ LogFunctionStartDebug()</text>
<text text-anchor="start" x="488" y="-367.5" font-family="Helvetica,sans-Serif" font-size="10.00">+ LogKeyWordEnd()</text>
<text text-anchor="start" x="488" y="-356.5" font-family="Helvetica,sans-Serif" font-size="10.00">+ LogSequenceEnd()</text>
<text text-anchor="start" x="488" y="-345.5" font-family="Helvetica,sans-Serif" font-size="10.00">+ LogTestcaseEnd()</text>
<text text-anchor="start" x="488" y="-334.5" font-family="Helvetica,sans-Serif" font-size="10.00">+ LogKeyWordStart()</text>
<text text-anchor="start" x="488" y="-323.5" font-family="Helvetica,sans-Serif" font-size="10.00">+ LogSequenceStart()</text>
<text text-anchor="start" x="488" y="-312.5" font-family="Helvetica,sans-Serif" font-size="10.00">+ LogTestcaseStart()</text>
<text text-anchor="start" x="488" y="-301.5" font-family="Helvetica,sans-Serif" font-size="10.00">+ LogPass()</text>
<text text-anchor="start" x="488" y="-290.5" font-family="Helvetica,sans-Serif" font-size="10.00">+ LogPrint()</text>
<text text-anchor="start" x="488" y="-279.5" font-family="Helvetica,sans-Serif" font-size="10.00">+ LogPrintDebug()</text>
<text text-anchor="start" x="488" y="-268.5" font-family="Helvetica,sans-Serif" font-size="10.00">+ LogWarning()</text>
<text text-anchor="start" x="488" y="-257.5" font-family="Helvetica,sans-Serif" font-size="10.00">+ ResCloseList()</text>
<text text-anchor="start" x="488" y="-246.5" font-family="Helvetica,sans-Serif" font-size="10.00">+ ResCloseListDebug()</text>
<text text-anchor="start" x="488" y="-235.5" font-family="Helvetica,sans-Serif" font-size="10.00">+ ResOpenList()</text>
<text text-anchor="start" x="488" y="-224.5" font-family="Helvetica,sans-Serif" font-size="10.00">+ ResOpenListDebug()</text>
<text text-anchor="start" x="488" y="-213.5" font-family="Helvetica,sans-Serif" font-size="10.00">+ getInstance()</text>
<text text-anchor="start" x="488" y="-202.5" font-family="Helvetica,sans-Serif" font-size="10.00">+ init()</text>
<text text-anchor="start" x="488" y="-191.5" font-family="Helvetica,sans-Serif" font-size="10.00">&#45; Logger_Sngltn()</text>
</a>
</g>
</g>
<!-- Node11&#45;&gt;Node1 -->
<g id="edge11" class="edge"><title>Node11&#45;&gt;Node1</title>
<path fill="none" stroke="#404040" d="M479.928,-203.97C476.988,-197.197 474.008,-190.521 471,-184 465.226,-171.483 458.619,-158.48 451.892,-145.913"/>
<polygon fill="none" stroke="#404040" points="451.696,-145.551 445.317,-142.188 445.968,-135.006 452.347,-138.37 451.696,-145.551"/>
<text text-anchor="middle" x="473" y="-157.5" font-family="Helvetica,sans-Serif" font-size="10.00"> &#45;Log</text>
</g>
<!-- Node11&#45;&gt;Node11 -->
<g id="edge13" class="edge"><title>Node11&#45;&gt;Node11</title>
<path fill="none" stroke="#404040" d="M614.337,-428.178C624.84,-422.321 632,-409.262 632,-389 632,-375.387 628.768,-365.025 623.461,-357.914"/>
<polygon fill="none" stroke="#404040" points="623.315,-357.784 616.172,-356.796 614.337,-349.822 621.48,-350.81 623.315,-357.784"/>
<text text-anchor="middle" x="654" y="-386.5" font-family="Helvetica,sans-Serif" font-size="10.00"> &#45;Instance</text>
</g>
<!-- Node12 -->
<g id="node12" class="node"><title>Node12</title>
<polygon fill="white" stroke="#bfbfbf" points="475.5,-664.5 475.5,-721.5 618.5,-721.5 618.5,-664.5 475.5,-664.5"/>
<text text-anchor="middle" x="547" y="-709.5" font-family="Helvetica,sans-Serif" font-size="10.00">ArrayList&lt; okw.log.ILogger &gt;</text>
<polyline fill="none" stroke="#bfbfbf" points="475.5,-702.5 618.5,-702.5 "/>
<text text-anchor="middle" x="547" y="-690.5" font-family="Helvetica,sans-Serif" font-size="10.00"> </text>
<polyline fill="none" stroke="#bfbfbf" points="475.5,-683.5 618.5,-683.5 "/>
<text text-anchor="middle" x="547" y="-671.5" font-family="Helvetica,sans-Serif" font-size="10.00"> </text>
</g>
<!-- Node12&#45;&gt;Node11 -->
<g id="edge12" class="edge"><title>Node12&#45;&gt;Node11</title>
<path fill="none" stroke="#404040" d="M547,-664.399C547,-649.209 547,-628.819 547,-605.977"/>
<polygon fill="none" stroke="#404040" points="547,-605.823 543,-599.823 547,-593.823 551,-599.823 547,-605.823"/>
<text text-anchor="middle" x="573" y="-615.5" font-family="Helvetica,sans-Serif" font-size="10.00"> &#45;LoggerList</text>
</g>
</g>
</svg>
