<?xml version="1.0" encoding="UTF-8" standalone="no"?>
<!DOCTYPE svg PUBLIC "-//W3C//DTD SVG 1.1//EN"
 "http://www.w3.org/Graphics/SVG/1.1/DTD/svg11.dtd">
<!-- Generated by graphviz version 2.26.3 (20100126.1600)
 -->
<!-- Title: okw.gui.adapter.selenium.SeAnyChildWindow.getValue Pages: 1 -->
<!--zoomable 316 -->
<svg id="main" version="1.1" xmlns="http://www.w3.org/2000/svg" xmlns:xlink="http://www.w3.org/1999/xlink" xml:space="preserve" onload="init(evt)">
<style type="text/css"><![CDATA[
.edge:hover path { stroke: red; }
.edge:hover polygon { stroke: red; fill: red; }
]]></style>
<script type="text/javascript"><![CDATA[
var edges = document.getElementsByTagName('g');
if (edges && edges.length) {
  for (var i=0;i<edges.length;i++) {
    if (edges[i].id.substr(0,4)=='edge') {
      edges[i].setAttribute('class','edge');
    }
  }
}
]]></script>
        <defs>
                <circle id="rim" cx="0" cy="0" r="7"/>
                <circle id="rim2" cx="0" cy="0" r="3.5"/>
                <g id="zoomPlus">
                        <use xlink:href="#rim" fill="#404040">
                                <set attributeName="fill" to="#808080" begin="zoomplus.mouseover" end="zoomplus.mouseout"/>
                        </use>
                        <path d="M-4,0h8M0,-4v8" fill="none" stroke="white" stroke-width="1.5" pointer-events="none"/>
                </g>
                <g id="zoomMin">
                        <use xlink:href="#rim" fill="#404040">
                                <set attributeName="fill" to="#808080" begin="zoomminus.mouseover" end="zoomminus.mouseout"/>
                        </use>
                        <path d="M-4,0h8" fill="none" stroke="white" stroke-width="1.5" pointer-events="none"/>
                </g>
                <g id="dirArrow">
                        <path fill="none" stroke="white" stroke-width="1.5" d="M0,-3.0v7 M-2.5,-0.5L0,-3.0L2.5,-0.5"/>
                </g>
               <g id="resetDef">
                       <use xlink:href="#rim2" fill="#404040">
                               <set attributeName="fill" to="#808080" begin="reset.mouseover" end="reset.mouseout"/>
                       </use>
               </g>
        </defs>

<script type="text/javascript">
var viewWidth = 946;
var viewHeight = 316;
var sectionId = 'dynsection-16';
</script>
<script xlink:href="svgpan.js"/>
<svg id="graph" class="graph">
<g id="viewport">
<title>okw.gui.adapter.selenium.SeAnyChildWindow.getValue</title>
<polygon fill="white" stroke="white" points="-4,5 -4,-312 943,-312 943,5 -4,5"/>
<!-- Node145 -->
<g id="node1" class="node"><title>Node145</title>
<polygon fill="#bfbfbf" stroke="black" points="0.5,-117 0.5,-151 145.5,-151 145.5,-117 0.5,-117"/>
<text text-anchor="start" x="8.5" y="-138" font-family="Helvetica,sans-Serif" font-size="10.00">okw.gui.adapter.selenium.</text>
<text text-anchor="middle" x="73" y="-125" font-family="Helvetica,sans-Serif" font-size="10.00">SeAnyChildWindow.getValue</text>
</g>
<!-- Node146 -->
<g id="node3" class="node"><title>Node146</title>
<a xlink:href="classokw_1_1gui_1_1_any_win_base.html#abaab572bdbed7b471f659d5dd8c76853" target="_top" xlink:title="Diese Methode ruft die Methode Logger.Instance.LogFunctionStartDebug(fps_FunctionName), und erweitert den gegebenen Methodenname in fps_FunctionName mit this.GetType().FullName um den Klassenbezeichner. ">
<polygon fill="white" stroke="black" points="182.5,-195 182.5,-229 349.5,-229 349.5,-195 182.5,-195"/>
<text text-anchor="start" x="190.5" y="-216" font-family="Helvetica,sans-Serif" font-size="10.00">okw.gui.AnyWinBase.LogFunction</text>
<text text-anchor="middle" x="266" y="-203" font-family="Helvetica,sans-Serif" font-size="10.00">StartDebug</text>
</a>
</g>
<!-- Node145&#45;&gt;Node146 -->
<g id="edge2" class="edge"><title>Node145&#45;&gt;Node146</title>
<path fill="none" stroke="midnightblue" d="M105.842,-151.204C127.195,-162.003 155.833,-175.771 182,-186 186.976,-187.945 192.162,-189.845 197.407,-191.674"/>
<polygon fill="midnightblue" stroke="midnightblue" points="196.285,-194.99 206.879,-194.887 198.533,-188.361 196.285,-194.99"/>
</g>
<!-- Node147 -->
<g id="node5" class="node"><title>Node147</title>
<a xlink:href="classokw_1_1gui_1_1adapter_1_1selenium_1_1_se_any_child_window.html#a72faf4aa1717b4178fae1b0570ca9b28" target="_top" xlink:title="Wartet auf das Objekt Wenn kein Fenster gefunden wird,. ">
<polygon fill="white" stroke="black" points="188.5,-143 188.5,-177 343.5,-177 343.5,-143 188.5,-143"/>
<text text-anchor="start" x="196.5" y="-164" font-family="Helvetica,sans-Serif" font-size="10.00">okw.gui.adapter.selenium.</text>
<text text-anchor="middle" x="266" y="-151" font-family="Helvetica,sans-Serif" font-size="10.00">SeAnyChildWindow.WaitForMe</text>
</a>
</g>
<!-- Node145&#45;&gt;Node147 -->
<g id="edge4" class="edge"><title>Node145&#45;&gt;Node147</title>
<path fill="none" stroke="midnightblue" d="M145.69,-143.792C156.325,-145.225 167.372,-146.713 178.269,-148.181"/>
<polygon fill="midnightblue" stroke="midnightblue" points="177.84,-151.655 188.218,-149.522 178.774,-144.718 177.84,-151.655"/>
</g>
<!-- Node156 -->
<g id="node23" class="node"><title>Node156</title>
<a xlink:href="classokw_1_1gui_1_1adapter_1_1selenium_1_1_se_any_child_window.html#a9a138af1fc6ff850d708d66f308a2525" target="_top" xlink:title="Ermittelt aus dem gegebenen Locator das DOM&#45;Elelement, welches das Objekt representiert. ">
<polygon fill="white" stroke="black" points="200.5,-91 200.5,-125 331.5,-125 331.5,-91 200.5,-91"/>
<text text-anchor="start" x="208.5" y="-112" font-family="Helvetica,sans-Serif" font-size="10.00">okw.gui.adapter.selenium.</text>
<text text-anchor="middle" x="266" y="-99" font-family="Helvetica,sans-Serif" font-size="10.00">SeAnyChildWindow.Me</text>
</a>
</g>
<!-- Node145&#45;&gt;Node156 -->
<g id="edge22" class="edge"><title>Node145&#45;&gt;Node156</title>
<path fill="none" stroke="midnightblue" d="M145.69,-124.208C160.276,-122.243 175.635,-120.173 190.32,-118.195"/>
<polygon fill="midnightblue" stroke="midnightblue" points="190.917,-121.647 200.36,-116.843 189.982,-114.709 190.917,-121.647"/>
</g>
<!-- Node161 -->
<g id="node35" class="node"><title>Node161</title>
<a xlink:href="classokw_1_1gui_1_1_any_win_base.html#a51cf50ace21902b3a5359316f53a7f3e" target="_top" xlink:title="Methode ruft die Methode Logger.Instance.LogFunctionEndDebug() auf. ">
<polygon fill="white" stroke="black" points="182.5,-39 182.5,-73 349.5,-73 349.5,-39 182.5,-39"/>
<text text-anchor="start" x="190.5" y="-60" font-family="Helvetica,sans-Serif" font-size="10.00">okw.gui.AnyWinBase.LogFunction</text>
<text text-anchor="middle" x="266" y="-47" font-family="Helvetica,sans-Serif" font-size="10.00">EndDebug</text>
</a>
</g>
<!-- Node145&#45;&gt;Node161 -->
<g id="edge36" class="edge"><title>Node145&#45;&gt;Node161</title>
<path fill="none" stroke="midnightblue" d="M105.842,-116.796C127.195,-105.997 155.833,-92.2291 182,-82 186.976,-80.0547 192.162,-78.1553 197.407,-76.3256"/>
<polygon fill="midnightblue" stroke="midnightblue" points="198.533,-79.6394 206.879,-73.1127 196.285,-73.0104 198.533,-79.6394"/>
</g>
<!-- Node148 -->
<g id="node7" class="node"><title>Node148</title>
<a xlink:href="classokw_1_1log_1_1_logger___sngltn.html#ab4fc711bb4c754f251372ff3b14ab9c9" target="_top" xlink:title="Creates a new hierarchical level in the results file. ">
<polygon fill="white" stroke="black" points="397.5,-274 397.5,-308 534.5,-308 534.5,-274 397.5,-274"/>
<text text-anchor="start" x="405.5" y="-295" font-family="Helvetica,sans-Serif" font-size="10.00">okw.log.Logger_Sngltn.Res</text>
<text text-anchor="middle" x="466" y="-282" font-family="Helvetica,sans-Serif" font-size="10.00">OpenList</text>
</a>
</g>
<!-- Node147&#45;&gt;Node148 -->
<g id="edge6" class="edge"><title>Node147&#45;&gt;Node148</title>
<path fill="none" stroke="midnightblue" d="M337.158,-177.01C341.761,-179.594 346.104,-182.571 350,-186 378.965,-211.491 357.215,-239.306 386,-265 387.311,-266.17 388.675,-267.288 390.085,-268.355"/>
<polygon fill="midnightblue" stroke="midnightblue" points="388.32,-271.383 398.603,-273.935 392.156,-265.527 388.32,-271.383"/>
</g>
<!-- Node149 -->
<g id="node9" class="node"><title>Node149</title>
<a xlink:href="classokw_1_1log_1_1_logger___sngltn.html#a8ebceaddd6cc6963ddb8e08c72ea808c" target="_top" xlink:title="LogPrint Function: Prints the values of expressions to the results file. ">
<polygon fill="white" stroke="black" points="599,-140 599,-174 733,-174 733,-140 599,-140"/>
<text text-anchor="start" x="607" y="-161" font-family="Helvetica,sans-Serif" font-size="10.00">okw.log.Logger_Sngltn.Log</text>
<text text-anchor="middle" x="666" y="-148" font-family="Helvetica,sans-Serif" font-size="10.00">Print</text>
</a>
</g>
<!-- Node147&#45;&gt;Node149 -->
<g id="edge8" class="edge"><title>Node147&#45;&gt;Node149</title>
<path fill="none" stroke="midnightblue" d="M343.598,-159.418C414.299,-158.888 518.159,-158.109 588.751,-157.579"/>
<polygon fill="midnightblue" stroke="midnightblue" points="588.943,-161.078 598.916,-157.503 588.89,-154.078 588.943,-161.078"/>
</g>
<!-- Node150 -->
<g id="node11" class="node"><title>Node150</title>
<a xlink:href="classokw_1_1gui_1_1_any_win_base.html#a9929f6fae1f4e2c20df79d32d5bc79db" target="_top" xlink:title="Holt den vollständig (rekursiv) aufgelösten (z.B. ">
<polygon fill="white" stroke="black" points="386.5,-104.5 386.5,-125.5 545.5,-125.5 545.5,-104.5 386.5,-104.5"/>
<text text-anchor="middle" x="466" y="-112.5" font-family="Helvetica,sans-Serif" font-size="10.00">okw.gui.AnyWinBase.getLocator</text>
</a>
</g>
<!-- Node147&#45;&gt;Node150 -->
<g id="edge10" class="edge"><title>Node147&#45;&gt;Node150</title>
<path fill="none" stroke="midnightblue" d="M341.611,-142.987C364.148,-137.917 388.445,-132.45 409.533,-127.705"/>
<polygon fill="midnightblue" stroke="midnightblue" points="410.303,-131.12 419.29,-125.51 408.766,-124.29 410.303,-131.12"/>
</g>
<!-- Node152 -->
<g id="node15" class="node"><title>Node152</title>
<a xlink:href="classokw_1_1log_1_1_logger___sngltn.html#a9b54104f7e0b4c0a473877b19dfaed56" target="_top" xlink:title="Closes a hierarchical level in the results file that was opened with ResOpenList. ...">
<polygon fill="white" stroke="black" points="397.5,-182 397.5,-216 534.5,-216 534.5,-182 397.5,-182"/>
<text text-anchor="start" x="405.5" y="-203" font-family="Helvetica,sans-Serif" font-size="10.00">okw.log.Logger_Sngltn.Res</text>
<text text-anchor="middle" x="466" y="-190" font-family="Helvetica,sans-Serif" font-size="10.00">CloseList</text>
</a>
</g>
<!-- Node147&#45;&gt;Node152 -->
<g id="edge14" class="edge"><title>Node147&#45;&gt;Node152</title>
<path fill="none" stroke="midnightblue" d="M343.611,-175.134C357.975,-177.935 372.988,-180.863 387.381,-183.669"/>
<polygon fill="midnightblue" stroke="midnightblue" points="386.746,-187.111 397.231,-185.59 388.086,-180.241 386.746,-187.111"/>
</g>
<!-- Node153 -->
<g id="node17" class="node"><title>Node153</title>
<a xlink:href="classokw_1_1_log_messenger.html#af225d1f037d47b3b085175c09d78bdd2" target="_top" xlink:title="Holt die Log&#45;Meldung für MethodeNmae/Textkey ohne weitere Parameter. ">
<polygon fill="white" stroke="black" points="386,-234.5 386,-255.5 546,-255.5 546,-234.5 386,-234.5"/>
<text text-anchor="middle" x="466" y="-242.5" font-family="Helvetica,sans-Serif" font-size="10.00">okw.LogMessenger.GetMessage</text>
</a>
</g>
<!-- Node147&#45;&gt;Node153 -->
<g id="edge16" class="edge"><title>Node147&#45;&gt;Node153</title>
<path fill="none" stroke="midnightblue" d="M333.025,-177.147C338.954,-179.724 344.706,-182.661 350,-186 369.951,-198.586 365.709,-212.97 386,-225 389.602,-227.136 393.425,-229.044 397.372,-230.75"/>
<polygon fill="midnightblue" stroke="midnightblue" points="396.171,-234.038 406.76,-234.373 398.691,-227.507 396.171,-234.038"/>
</g>
<!-- Node151 -->
<g id="node13" class="node"><title>Node151</title>
<a xlink:href="classokw_1_1gui_1_1_o_k_w_locator.html#adc74fc2125dd048dc1cb84e011f47ec8" target="_top" xlink:title="Holt den vollständig (rekursiv) aufgelösten (z.B. ">
<polygon fill="white" stroke="black" points="587,-100.5 587,-121.5 745,-121.5 745,-100.5 587,-100.5"/>
<text text-anchor="middle" x="666" y="-108.5" font-family="Helvetica,sans-Serif" font-size="10.00">okw.gui.OKWLocator.getLocator</text>
</a>
</g>
<!-- Node150&#45;&gt;Node151 -->
<g id="edge12" class="edge"><title>Node150&#45;&gt;Node151</title>
<path fill="none" stroke="midnightblue" d="M545.62,-113.408C555.832,-113.203 566.341,-112.993 576.695,-112.786"/>
<polygon fill="midnightblue" stroke="midnightblue" points="577.053,-116.28 586.981,-112.58 576.912,-109.281 577.053,-116.28"/>
</g>
<!-- Node154 -->
<g id="node19" class="node"><title>Node154</title>
<a xlink:href="classokw_1_1_log_messenger.html#a530cd6ab82ec82a04206a2e976ec06e3" target="_top" xlink:title="Interne Kernfunktion holt die Log&#45;Meldung mit Platzhaltern aus der XML&#45;Datei. ">
<polygon fill="white" stroke="black" points="582.5,-234.5 582.5,-255.5 749.5,-255.5 749.5,-234.5 582.5,-234.5"/>
<text text-anchor="middle" x="666" y="-242.5" font-family="Helvetica,sans-Serif" font-size="10.00">okw.LogMessenger.ReadMessage</text>
</a>
</g>
<!-- Node153&#45;&gt;Node154 -->
<g id="edge18" class="edge"><title>Node153&#45;&gt;Node154</title>
<path fill="none" stroke="midnightblue" d="M546.195,-245C554.709,-245 563.423,-245 572.075,-245"/>
<polygon fill="midnightblue" stroke="midnightblue" points="572.189,-248.5 582.189,-245 572.189,-241.5 572.189,-248.5"/>
</g>
<!-- Node155 -->
<g id="node21" class="node"><title>Node155</title>
<a xlink:href="classokw_1_1_o_k_w___xml_reader.html#ab920b5335a2e1429c14cc5f8e79f39eb" target="_top" xlink:title="Lies den TextContent eines Tag. ">
<polygon fill="white" stroke="black" points="786,-228 786,-262 938,-262 938,-228 786,-228"/>
<text text-anchor="start" x="794" y="-249" font-family="Helvetica,sans-Serif" font-size="10.00">okw.OKW_XmlReader.getText</text>
<text text-anchor="middle" x="862" y="-236" font-family="Helvetica,sans-Serif" font-size="10.00">ContentSingleValue</text>
</a>
</g>
<!-- Node154&#45;&gt;Node155 -->
<g id="edge20" class="edge"><title>Node154&#45;&gt;Node155</title>
<path fill="none" stroke="midnightblue" d="M749.69,-245C758.29,-245 767.041,-245 775.669,-245"/>
<polygon fill="midnightblue" stroke="midnightblue" points="775.725,-248.5 785.725,-245 775.725,-241.5 775.725,-248.5"/>
</g>
<!-- Node156&#45;&gt;Node150 -->
<g id="edge34" class="edge"><title>Node156&#45;&gt;Node150</title>
<path fill="none" stroke="midnightblue" d="M331.764,-110.302C345.918,-110.797 361.112,-111.329 376.006,-111.85"/>
<polygon fill="midnightblue" stroke="midnightblue" points="376.137,-115.357 386.254,-112.209 376.382,-108.361 376.137,-115.357"/>
</g>
<!-- Node157 -->
<g id="node25" class="node"><title>Node157</title>
<a xlink:href="classokw_1_1gui_1_1adapter_1_1selenium_1_1_se_driver.html#acb82765e99981ecc210e7599bbc2c639" target="_top" xlink:title="Gibt die Instance für die einzige Instanz dieser Klasse zurück. ">
<polygon fill="white" stroke="black" points="400.5,-0 400.5,-34 531.5,-34 531.5,-0 400.5,-0"/>
<text text-anchor="start" x="408.5" y="-21" font-family="Helvetica,sans-Serif" font-size="10.00">okw.gui.adapter.selenium.</text>
<text text-anchor="middle" x="466" y="-8" font-family="Helvetica,sans-Serif" font-size="10.00">SeDriver.getInstance</text>
</a>
</g>
<!-- Node156&#45;&gt;Node157 -->
<g id="edge24" class="edge"><title>Node156&#45;&gt;Node157</title>
<path fill="none" stroke="midnightblue" d="M331.721,-91.4133C338.109,-88.7037 344.319,-85.5838 350,-82 369.951,-69.4144 366.138,-55.7255 386,-43 388.561,-41.3591 391.235,-39.8131 393.987,-38.3574"/>
<polygon fill="midnightblue" stroke="midnightblue" points="395.51,-41.5087 402.994,-34.0101 392.467,-35.2045 395.51,-41.5087"/>
</g>
<!-- Node158 -->
<g id="node27" class="node"><title>Node158</title>
<a xlink:href="classokw_1_1gui_1_1adapter_1_1selenium_1_1_se_driver.html#ae08fe1cf4c694bb3a4dfb1f1837b26bc" target="_top" xlink:title="Ermittelt das Webelement mit der gegebenen frameID und dem gegebenen Locator. ">
<polygon fill="white" stroke="black" points="400.5,-52 400.5,-86 531.5,-86 531.5,-52 400.5,-52"/>
<text text-anchor="start" x="408.5" y="-73" font-family="Helvetica,sans-Serif" font-size="10.00">okw.gui.adapter.selenium.</text>
<text text-anchor="middle" x="466" y="-60" font-family="Helvetica,sans-Serif" font-size="10.00">SeDriver.getElement</text>
</a>
</g>
<!-- Node156&#45;&gt;Node158 -->
<g id="edge26" class="edge"><title>Node156&#45;&gt;Node158</title>
<path fill="none" stroke="midnightblue" d="M331.764,-95.1759C350.476,-91.5271 371.007,-87.5237 390.26,-83.7692"/>
<polygon fill="midnightblue" stroke="midnightblue" points="391.051,-87.1811 400.196,-81.8318 389.711,-80.3105 391.051,-87.1811"/>
</g>
<!-- Node158&#45;&gt;Node149 -->
<g id="edge32" class="edge"><title>Node158&#45;&gt;Node149</title>
<path fill="none" stroke="midnightblue" d="M528.451,-86.0519C534.563,-88.6708 540.521,-91.6424 546,-95 565.293,-106.823 562.625,-119.312 582,-131 584.81,-132.695 587.741,-134.289 590.753,-135.787"/>
<polygon fill="midnightblue" stroke="midnightblue" points="589.436,-139.033 599.987,-139.996 592.339,-132.664 589.436,-139.033"/>
</g>
<!-- Node159 -->
<g id="node29" class="node"><title>Node159</title>
<a xlink:href="classokw_1_1gui_1_1adapter_1_1selenium_1_1_se_driver.html#a502a7d54c1a8b80424cd42a4e168a191" target="_top" xlink:title="Wechselt das aktuelle Frame auf das Frame mit der id=iframeID. ">
<polygon fill="white" stroke="black" points="600.5,-48 600.5,-82 731.5,-82 731.5,-48 600.5,-48"/>
<text text-anchor="start" x="608.5" y="-69" font-family="Helvetica,sans-Serif" font-size="10.00">okw.gui.adapter.selenium.</text>
<text text-anchor="middle" x="666" y="-56" font-family="Helvetica,sans-Serif" font-size="10.00">SeDriver.swichToFrame</text>
</a>
</g>
<!-- Node158&#45;&gt;Node159 -->
<g id="edge28" class="edge"><title>Node158&#45;&gt;Node159</title>
<path fill="none" stroke="midnightblue" d="M531.764,-67.6847C550.39,-67.3122 570.819,-66.9036 589.995,-66.5201"/>
<polygon fill="midnightblue" stroke="midnightblue" points="590.268,-70.0154 600.196,-66.3161 590.128,-63.0168 590.268,-70.0154"/>
</g>
<!-- Node160 -->
<g id="node31" class="node"><title>Node160</title>
<a xlink:href="classokw_1_1_o_k_w___helper.html#a3a7ba0f42b29adf70574830688e72e4a" target="_top" xlink:title="Prüft ob der gegeben String fpsStrin null oder leer (&quot;&quot;) ist. ">
<polygon fill="white" stroke="black" points="787.5,-48 787.5,-82 936.5,-82 936.5,-48 787.5,-48"/>
<text text-anchor="start" x="795.5" y="-69" font-family="Helvetica,sans-Serif" font-size="10.00">okw.OKW_Helper.isStringNull</text>
<text text-anchor="middle" x="862" y="-56" font-family="Helvetica,sans-Serif" font-size="10.00">OrEmpty</text>
</a>
</g>
<!-- Node159&#45;&gt;Node160 -->
<g id="edge30" class="edge"><title>Node159&#45;&gt;Node160</title>
<path fill="none" stroke="midnightblue" d="M731.538,-65C746.235,-65 762.031,-65 777.381,-65"/>
<polygon fill="midnightblue" stroke="midnightblue" points="777.387,-68.5001 787.387,-65 777.387,-61.5001 777.387,-68.5001"/>
</g>
</g>
</svg>
        <g id="navigator" transform="translate(0 0)" fill="#404254">
                <rect fill="#f2f5e9" fill-opacity="0.5" stroke="#606060" stroke-width=".5" x="0" y="0" width="60" height="60"/>
                <use id="zoomplus" xlink:href="#zoomPlus" x="17" y="9" onmousedown="handleZoom(evt,'in')"/>
                <use id="zoomminus" xlink:href="#zoomMin" x="42" y="9" onmousedown="handleZoom(evt,'out')"/>
                <use id="reset" xlink:href="#resetDef" x="30" y="36" onmousedown="handleReset()"/>
                <g id="arrowUp" xlink:href="#dirArrow" transform="translate(30 24)" onmousedown="handlePan(0,-1)">
                  <use xlink:href="#rim" fill="#404040">
                        <set attributeName="fill" to="#808080" begin="arrowUp.mouseover" end="arrowUp.mouseout"/>
                  </use>
                  <path fill="none" stroke="white" stroke-width="1.5" d="M0,-3.0v7 M-2.5,-0.5L0,-3.0L2.5,-0.5"/>
                </g>
                <g id="arrowRight" xlink:href="#dirArrow" transform="rotate(90) translate(36 -43)" onmousedown="handlePan(1,0)">
                  <use xlink:href="#rim" fill="#404040">
                        <set attributeName="fill" to="#808080" begin="arrowRight.mouseover" end="arrowRight.mouseout"/>
                  </use>
                  <path fill="none" stroke="white" stroke-width="1.5" d="M0,-3.0v7 M-2.5,-0.5L0,-3.0L2.5,-0.5"/>
                </g>
                <g id="arrowDown" xlink:href="#dirArrow" transform="rotate(180) translate(-30 -48)" onmousedown="handlePan(0,1)">
                  <use xlink:href="#rim" fill="#404040">
                        <set attributeName="fill" to="#808080" begin="arrowDown.mouseover" end="arrowDown.mouseout"/>
                  </use>
                  <path fill="none" stroke="white" stroke-width="1.5" d="M0,-3.0v7 M-2.5,-0.5L0,-3.0L2.5,-0.5"/>
                </g>
                <g id="arrowLeft" xlink:href="#dirArrow" transform="rotate(270) translate(-36 17)" onmousedown="handlePan(-1,0)">
                  <use xlink:href="#rim" fill="#404040">
                        <set attributeName="fill" to="#808080" begin="arrowLeft.mouseover" end="arrowLeft.mouseout"/>
                  </use>
                  <path fill="none" stroke="white" stroke-width="1.5" d="M0,-3.0v7 M-2.5,-0.5L0,-3.0L2.5,-0.5"/>
                </g>
        </g>
        <svg viewBox="0 0 15 15" width="100%" height="30px" preserveAspectRatio="xMaxYMin meet">
         <g id="arrow_out" transform="scale(0.3 0.3)">
          <a xlink:href="classokw_1_1gui_1_1adapter_1_1selenium_1_1_se_any_child_window_a2fcad47248d5e447d9b3cb29a933b8df_cgraph_org.svg" target="_base">
           <rect id="button" ry="5" rx="5" y="6" x="6" height="38" width="38"
                fill="#f2f5e9" fill-opacity="0.5" stroke="#606060" stroke-width="1.0"/>
           <path id="arrow"
             d="M 11.500037,31.436501 C 11.940474,20.09759 22.043105,11.32322 32.158766,21.979434 L 37.068811,17.246167 C 37.068811,17.246167 37.088388,32 37.088388,32 L 22.160133,31.978069 C 22.160133,31.978069 26.997745,27.140456 26.997745,27.140456 C 18.528582,18.264221 13.291696,25.230495 11.500037,31.436501 z"
             style="fill:#404040;"/>
          </a>
         </g>
        </svg>
</svg>
