<?xml version="1.0" encoding="UTF-8" standalone="no"?>
<!DOCTYPE svg PUBLIC "-//W3C//DTD SVG 1.1//EN"
 "http://www.w3.org/Graphics/SVG/1.1/DTD/svg11.dtd">
<!-- Generated by graphviz version 2.26.3 (20100126.1600)
 -->
<!-- Title: okw.core.Core.MemorizeTablecellValue Pages: 1 -->
<!--zoomable 160 -->
<svg id="main" version="1.1" xmlns="http://www.w3.org/2000/svg" xmlns:xlink="http://www.w3.org/1999/xlink" xml:space="preserve" onload="init(evt)">
<style type="text/css"><![CDATA[
.edge:hover path { stroke: red; }
.edge:hover polygon { stroke: red; fill: red; }
]]></style>
<script type="text/javascript"><![CDATA[
var edges = document.getElementsByTagName('g');
if (edges && edges.length) {
  for (var i=0;i<edges.length;i++) {
    if (edges[i].id.substr(0,4)=='edge') {
      edges[i].setAttribute('class','edge');
    }
  }
}
]]></script>
        <defs>
                <circle id="rim" cx="0" cy="0" r="7"/>
                <circle id="rim2" cx="0" cy="0" r="3.5"/>
                <g id="zoomPlus">
                        <use xlink:href="#rim" fill="#404040">
                                <set attributeName="fill" to="#808080" begin="zoomplus.mouseover" end="zoomplus.mouseout"/>
                        </use>
                        <path d="M-4,0h8M0,-4v8" fill="none" stroke="white" stroke-width="1.5" pointer-events="none"/>
                </g>
                <g id="zoomMin">
                        <use xlink:href="#rim" fill="#404040">
                                <set attributeName="fill" to="#808080" begin="zoomminus.mouseover" end="zoomminus.mouseout"/>
                        </use>
                        <path d="M-4,0h8" fill="none" stroke="white" stroke-width="1.5" pointer-events="none"/>
                </g>
                <g id="dirArrow">
                        <path fill="none" stroke="white" stroke-width="1.5" d="M0,-3.0v7 M-2.5,-0.5L0,-3.0L2.5,-0.5"/>
                </g>
               <g id="resetDef">
                       <use xlink:href="#rim2" fill="#404040">
                               <set attributeName="fill" to="#808080" begin="reset.mouseover" end="reset.mouseout"/>
                       </use>
               </g>
        </defs>

<script type="text/javascript">
var viewWidth = 590;
var viewHeight = 160;
var sectionId = 'dynsection-44';
</script>
<script xlink:href="svgpan.js"/>
<svg id="graph" class="graph">
<g id="viewport">
<title>okw.core.Core.MemorizeTablecellValue</title>
<polygon fill="white" stroke="white" points="-4,5 -4,-156 587,-156 587,5 -4,5"/>
<!-- Node832 -->
<g id="node1" class="node"><title>Node832</title>
<polygon fill="#bfbfbf" stroke="black" points="0.5,-36 0.5,-70 165.5,-70 165.5,-36 0.5,-36"/>
<text text-anchor="start" x="8.5" y="-57" font-family="Helvetica,sans-Serif" font-size="10.00">okw.core.Core.MemorizeTablecell</text>
<text text-anchor="middle" x="83" y="-44" font-family="Helvetica,sans-Serif" font-size="10.00">Value</text>
</g>
<!-- Node833 -->
<g id="node3" class="node"><title>Node833</title>
<a xlink:href="classokw_1_1core_1_1_e_n.html#a69ca65f068665ec7e458d9701bb826ff" target="_top" xlink:title="Merkt sich den Wert der gegebenen Zelle in der Tabelle. ">
<polygon fill="white" stroke="black" points="205,-66 205,-100 363,-100 363,-66 205,-66"/>
<text text-anchor="start" x="213" y="-87" font-family="Helvetica,sans-Serif" font-size="10.00">okw.core.EN.MemorizeTablecell</text>
<text text-anchor="middle" x="284" y="-74" font-family="Helvetica,sans-Serif" font-size="10.00">Value</text>
</a>
</g>
<!-- Node832&#45;&gt;Node833 -->
<g id="edge2" class="edge"><title>Node832&#45;&gt;Node833</title>
<path fill="none" stroke="midnightblue" d="M175.741,-66.8419C185.497,-68.2981 195.352,-69.7689 204.934,-71.199"/>
<polygon fill="midnightblue" stroke="midnightblue" points="176.032,-63.3466 165.625,-65.332 174.998,-70.2699 176.032,-63.3466"/>
</g>
<!-- Node836 -->
<g id="node9" class="node"><title>Node836</title>
<a xlink:href="classokw_1_1core_1_1_current_object___test.html#aefef14ea88c3a0d237d4d94d6e60967e" target="_top" xlink:title="Testziel: Prüft den Aufruf der Methode MemorizeSelectedValue( FN, MemKey ) im ChildObject. ">
<polygon fill="white" stroke="black" points="202,-0.5 202,-47.5 366,-47.5 366,-0.5 202,-0.5"/>
<text text-anchor="start" x="210" y="-34.5" font-family="Helvetica,sans-Serif" font-size="10.00">okw.core.CurrentObject</text>
<text text-anchor="start" x="210" y="-21.5" font-family="Helvetica,sans-Serif" font-size="10.00">_Test.tc_MemorizeTablecellValue</text>
<text text-anchor="middle" x="284" y="-8.5" font-family="Helvetica,sans-Serif" font-size="10.00">Value_ChildObject</text>
</a>
</g>
<!-- Node832&#45;&gt;Node836 -->
<g id="edge8" class="edge"><title>Node832&#45;&gt;Node836</title>
<path fill="none" stroke="midnightblue" d="M175.741,-39.6195C184.402,-38.3699 193.14,-37.1092 201.696,-35.8747"/>
<polygon fill="midnightblue" stroke="midnightblue" points="175.022,-36.1868 165.625,-41.079 176.022,-43.1151 175.022,-36.1868"/>
</g>
<!-- Node834 -->
<g id="node5" class="node"><title>Node834</title>
<a xlink:href="classokw_1_1core_1_1_e_n___o_k_w_not_allowed_value_exception___keywords___i_g_n_o_r_e.html#a8c28a77c8241c9b46584fccb2fc480b1" target="_top" xlink:title="Prüft ob &quot;${IGNORE} &quot; die Ausnahme okw.exceptions.OKWNotAllowedValueException auslöst. ">
<polygon fill="white" stroke="black" points="402.5,-92 402.5,-152 581.5,-152 581.5,-92 402.5,-92"/>
<text text-anchor="start" x="410.5" y="-139" font-family="Helvetica,sans-Serif" font-size="10.00">okw.core.EN_OKWNotAllowed</text>
<text text-anchor="start" x="410.5" y="-126" font-family="Helvetica,sans-Serif" font-size="10.00">ValueException_Keywords</text>
<text text-anchor="start" x="410.5" y="-113" font-family="Helvetica,sans-Serif" font-size="10.00">_IGNORE.tcMemorizeTablecellValue</text>
<text text-anchor="middle" x="492" y="-100" font-family="Helvetica,sans-Serif" font-size="10.00">IGNORE1</text>
</a>
</g>
<!-- Node833&#45;&gt;Node834 -->
<g id="edge4" class="edge"><title>Node833&#45;&gt;Node834</title>
<path fill="none" stroke="midnightblue" d="M373.176,-99.7206C382.795,-101.524 392.587,-103.36 402.213,-105.165"/>
<polygon fill="midnightblue" stroke="midnightblue" points="373.703,-96.2584 363.229,-97.8555 372.413,-103.139 373.703,-96.2584"/>
</g>
<!-- Node835 -->
<g id="node7" class="node"><title>Node835</title>
<a xlink:href="classokw_1_1core_1_1_e_n___o_k_w_not_allowed_value_exception___keywords___i_g_n_o_r_e.html#a5661983ff87090109557ad06f0ad2301" target="_top" xlink:title="Prüft ob &quot;&quot;${IGNORE}${TCN}&quot; die Ausnahme okw.exceptions.OKWNotAllowedValueException auslöst...">
<polygon fill="white" stroke="black" points="402.5,-14 402.5,-74 581.5,-74 581.5,-14 402.5,-14"/>
<text text-anchor="start" x="410.5" y="-61" font-family="Helvetica,sans-Serif" font-size="10.00">okw.core.EN_OKWNotAllowed</text>
<text text-anchor="start" x="410.5" y="-48" font-family="Helvetica,sans-Serif" font-size="10.00">ValueException_Keywords</text>
<text text-anchor="start" x="410.5" y="-35" font-family="Helvetica,sans-Serif" font-size="10.00">_IGNORE.tcMemorizeTablecellValue</text>
<text text-anchor="middle" x="492" y="-22" font-family="Helvetica,sans-Serif" font-size="10.00">IGNORE2</text>
</a>
</g>
<!-- Node833&#45;&gt;Node835 -->
<g id="edge6" class="edge"><title>Node833&#45;&gt;Node835</title>
<path fill="none" stroke="midnightblue" d="M373.176,-66.2794C382.795,-64.4759 392.587,-62.64 402.213,-60.8351"/>
<polygon fill="midnightblue" stroke="midnightblue" points="372.413,-62.8615 363.229,-68.1445 373.703,-69.7416 372.413,-62.8615"/>
</g>
</g>
</svg>
        <g id="navigator" transform="translate(0 0)" fill="#404254">
                <rect fill="#f2f5e9" fill-opacity="0.5" stroke="#606060" stroke-width=".5" x="0" y="0" width="60" height="60"/>
                <use id="zoomplus" xlink:href="#zoomPlus" x="17" y="9" onmousedown="handleZoom(evt,'in')"/>
                <use id="zoomminus" xlink:href="#zoomMin" x="42" y="9" onmousedown="handleZoom(evt,'out')"/>
                <use id="reset" xlink:href="#resetDef" x="30" y="36" onmousedown="handleReset()"/>
                <g id="arrowUp" xlink:href="#dirArrow" transform="translate(30 24)" onmousedown="handlePan(0,-1)">
                  <use xlink:href="#rim" fill="#404040">
                        <set attributeName="fill" to="#808080" begin="arrowUp.mouseover" end="arrowUp.mouseout"/>
                  </use>
                  <path fill="none" stroke="white" stroke-width="1.5" d="M0,-3.0v7 M-2.5,-0.5L0,-3.0L2.5,-0.5"/>
                </g>
                <g id="arrowRight" xlink:href="#dirArrow" transform="rotate(90) translate(36 -43)" onmousedown="handlePan(1,0)">
                  <use xlink:href="#rim" fill="#404040">
                        <set attributeName="fill" to="#808080" begin="arrowRight.mouseover" end="arrowRight.mouseout"/>
                  </use>
                  <path fill="none" stroke="white" stroke-width="1.5" d="M0,-3.0v7 M-2.5,-0.5L0,-3.0L2.5,-0.5"/>
                </g>
                <g id="arrowDown" xlink:href="#dirArrow" transform="rotate(180) translate(-30 -48)" onmousedown="handlePan(0,1)">
                  <use xlink:href="#rim" fill="#404040">
                        <set attributeName="fill" to="#808080" begin="arrowDown.mouseover" end="arrowDown.mouseout"/>
                  </use>
                  <path fill="none" stroke="white" stroke-width="1.5" d="M0,-3.0v7 M-2.5,-0.5L0,-3.0L2.5,-0.5"/>
                </g>
                <g id="arrowLeft" xlink:href="#dirArrow" transform="rotate(270) translate(-36 17)" onmousedown="handlePan(-1,0)">
                  <use xlink:href="#rim" fill="#404040">
                        <set attributeName="fill" to="#808080" begin="arrowLeft.mouseover" end="arrowLeft.mouseout"/>
                  </use>
                  <path fill="none" stroke="white" stroke-width="1.5" d="M0,-3.0v7 M-2.5,-0.5L0,-3.0L2.5,-0.5"/>
                </g>
        </g>
        <svg viewBox="0 0 15 15" width="100%" height="30px" preserveAspectRatio="xMaxYMin meet">
         <g id="arrow_out" transform="scale(0.3 0.3)">
          <a xlink:href="classokw_1_1core_1_1_core_a67a1a2afd49b3f0e696f86e78a599c4b_icgraph_org.svg" target="_base">
           <rect id="button" ry="5" rx="5" y="6" x="6" height="38" width="38"
                fill="#f2f5e9" fill-opacity="0.5" stroke="#606060" stroke-width="1.0"/>
           <path id="arrow"
             d="M 11.500037,31.436501 C 11.940474,20.09759 22.043105,11.32322 32.158766,21.979434 L 37.068811,17.246167 C 37.068811,17.246167 37.088388,32 37.088388,32 L 22.160133,31.978069 C 22.160133,31.978069 26.997745,27.140456 26.997745,27.140456 C 18.528582,18.264221 13.291696,25.230495 11.500037,31.436501 z"
             style="fill:#404040;"/>
          </a>
         </g>
        </svg>
</svg>
