<?xml version="1.0" encoding="UTF-8" standalone="no"?>
<!DOCTYPE svg PUBLIC "-//W3C//DTD SVG 1.1//EN"
 "http://www.w3.org/Graphics/SVG/1.1/DTD/svg11.dtd">
<!-- Generated by graphviz version 2.36.0 (20140111.2315)
 -->
<!-- Title: okw.OKW_Helper.concatListString Pages: 1 -->
<!--zoomable 279 -->
<svg id="main" version="1.1" xmlns="http://www.w3.org/2000/svg" xmlns:xlink="http://www.w3.org/1999/xlink" xml:space="preserve" onload="init(evt)">
<style type="text/css"><![CDATA[
.edge:hover path { stroke: red; }
.edge:hover polygon { stroke: red; fill: red; }
]]></style>
<script type="text/javascript"><![CDATA[
var edges = document.getElementsByTagName('g');
if (edges && edges.length) {
  for (var i=0;i<edges.length;i++) {
    if (edges[i].id.substr(0,4)=='edge') {
      edges[i].setAttribute('class','edge');
    }
  }
}
]]></script>
        <defs>
                <circle id="rim" cx="0" cy="0" r="7"/>
                <circle id="rim2" cx="0" cy="0" r="3.5"/>
                <g id="zoomPlus">
                        <use xlink:href="#rim" fill="#404040">
                                <set attributeName="fill" to="#808080" begin="zoomplus.mouseover" end="zoomplus.mouseout"/>
                        </use>
                        <path d="M-4,0h8M0,-4v8" fill="none" stroke="white" stroke-width="1.5" pointer-events="none"/>
                </g>
                <g id="zoomMin">
                        <use xlink:href="#rim" fill="#404040">
                                <set attributeName="fill" to="#808080" begin="zoomminus.mouseover" end="zoomminus.mouseout"/>
                        </use>
                        <path d="M-4,0h8" fill="none" stroke="white" stroke-width="1.5" pointer-events="none"/>
                </g>
                <g id="dirArrow">
                        <path fill="none" stroke="white" stroke-width="1.5" d="M0,-3.0v7 M-2.5,-0.5L0,-3.0L2.5,-0.5"/>
                </g>
               <g id="resetDef">
                       <use xlink:href="#rim2" fill="#404040">
                               <set attributeName="fill" to="#808080" begin="reset.mouseover" end="reset.mouseout"/>
                       </use>
               </g>
        </defs>

<script type="text/javascript">
var viewWidth = 582;
var viewHeight = 279;
var sectionId = 'dynsection-3';
</script>
<script xlink:href="svgpan.js"/>
<svg id="graph" class="graph">
<g id="viewport">
<title>okw.OKW_Helper.concatListString</title>
<polygon fill="white" stroke="none" points="-4,4 -4,-275 578,-275 578,4 -4,4"/>
<!-- Node16 -->
<g id="node1" class="node"><title>Node16</title>
<polygon fill="#bfbfbf" stroke="black" points="0.5,-107 0.5,-137 143.5,-137 143.5,-107 0.5,-107"/>
<text text-anchor="start" x="8.5" y="-125" font-family="Helvetica,sans-Serif" font-size="10.00">okw.OKW_Helper.concatList</text>
<text text-anchor="middle" x="72" y="-114" font-family="Helvetica,sans-Serif" font-size="10.00">String</text>
</g>
<!-- Node17 -->
<g id="node2" class="node"><title>Node17</title>
<g id="a_node2"><a xlink:href="classokw_1_1_o_k_w___const___sngltn.html#a8c09d5d14790e264ebca64d6af80cf96" target="_top" xlink:title="Methode verbindet die einzelne Strings eines List&lt;Strings&gt; zu einem string und trennt diese mit der K...">
<polygon fill="white" stroke="black" points="180,-169.5 180,-188.5 368,-188.5 368,-169.5 180,-169.5"/>
<text text-anchor="middle" x="274" y="-176.5" font-family="Helvetica,sans-Serif" font-size="10.00">okw.OKW_Const_Sngltn.ConcatHSEP</text>
</a>
</g>
</g>
<!-- Node16&#45;&gt;Node17 -->
<g id="edge1" class="edge"><title>Node16&#45;&gt;Node17</title>
<path fill="none" stroke="midnightblue" d="M120.793,-140.583C139.127,-147.284 160.36,-154.535 180,-160 192.701,-163.534 206.546,-166.715 219.579,-169.418"/>
<polygon fill="midnightblue" stroke="midnightblue" points="121.807,-137.226 111.214,-137.036 119.377,-143.791 121.807,-137.226"/>
</g>
<!-- Node18 -->
<g id="node3" class="node"><title>Node18</title>
<g id="a_node3"><a xlink:href="classokw_1_1_o_k_w___const___sngltn.html#a8002f97f9fc96fbb3cfdbe04351e23b4" target="_top" xlink:title="Methode verbindet die einzelne Strings eines List&lt;Strings&gt; zu einem string und trennt diese mit der K...">
<polygon fill="white" stroke="black" points="183.5,-131.5 183.5,-150.5 364.5,-150.5 364.5,-131.5 183.5,-131.5"/>
<text text-anchor="middle" x="274" y="-138.5" font-family="Helvetica,sans-Serif" font-size="10.00">okw.OKW_Const_Sngltn.ConcatSEP</text>
</a>
</g>
</g>
<!-- Node16&#45;&gt;Node18 -->
<g id="edge2" class="edge"><title>Node16&#45;&gt;Node18</title>
<path fill="none" stroke="midnightblue" d="M153.554,-129.653C163.294,-130.578 173.29,-131.528 183.154,-132.465"/>
<polygon fill="midnightblue" stroke="midnightblue" points="153.799,-126.16 143.513,-128.699 153.137,-133.129 153.799,-126.16"/>
</g>
<!-- Node26 -->
<g id="node11" class="node"><title>Node26</title>
<g id="a_node11"><a xlink:href="classokw_1_1_o_k_w___const___sngltn.html#af7a33c2c7a1d1762b118b4c02bea80d7" target="_top" xlink:title="Methode verbindet die einzelnen Strings eines List&lt;Strings&gt; zu einem string und trennt diese mit der ...">
<polygon fill="white" stroke="black" points="180,-93.5 180,-112.5 368,-112.5 368,-93.5 180,-93.5"/>
<text text-anchor="middle" x="274" y="-100.5" font-family="Helvetica,sans-Serif" font-size="10.00">okw.OKW_Const_Sngltn.ConcatVSEP</text>
</a>
</g>
</g>
<!-- Node16&#45;&gt;Node26 -->
<g id="edge10" class="edge"><title>Node16&#45;&gt;Node26</title>
<path fill="none" stroke="midnightblue" d="M153.505,-114.352C162.11,-113.535 170.915,-112.698 179.652,-111.868"/>
<polygon fill="midnightblue" stroke="midnightblue" points="153.137,-110.871 143.513,-115.301 153.799,-117.84 153.137,-110.871"/>
</g>
<!-- Node27 -->
<g id="node12" class="node"><title>Node27</title>
<g id="a_node12"><a xlink:href="classokw_1_1_o_k_w___helper_test.html#a4a54cfce3440c6c39c752d858a7237c0" target="_top" xlink:title="Test auf den Vergleich von zwei ListStings mit je drei Werten. ">
<polygon fill="white" stroke="black" points="196.5,-44 196.5,-74 351.5,-74 351.5,-44 196.5,-44"/>
<text text-anchor="start" x="204.5" y="-62" font-family="Helvetica,sans-Serif" font-size="10.00">okw.OKW_HelperTest.tcList</text>
<text text-anchor="middle" x="274" y="-51" font-family="Helvetica,sans-Serif" font-size="10.00">StringCompare_3_3_DiffWert_2</text>
</a>
</g>
</g>
<!-- Node16&#45;&gt;Node27 -->
<g id="edge11" class="edge"><title>Node16&#45;&gt;Node27</title>
<path fill="none" stroke="midnightblue" d="M122.589,-103.474C140.568,-97.0001 161.102,-89.8857 180,-84 191.014,-80.5696 202.847,-77.1722 214.258,-74.0393"/>
<polygon fill="midnightblue" stroke="midnightblue" points="121.097,-100.292 112.89,-106.993 123.484,-106.872 121.097,-100.292"/>
</g>
<!-- Node19 -->
<g id="node4" class="node"><title>Node19</title>
<g id="a_node4"><a xlink:href="classokw_1_1core_1_1_o_k.html#a661c650ca7824d1ea464d98b792ae712" target="_top" xlink:title="Keine Beschreibung zu &quot;MemorizeCaption&quot; verfügbar. ">
<polygon fill="white" stroke="black" points="412.5,-251.5 412.5,-270.5 565.5,-270.5 565.5,-251.5 412.5,-251.5"/>
<text text-anchor="middle" x="489" y="-258.5" font-family="Helvetica,sans-Serif" font-size="10.00">okw.core.OK.MemorizeCaption</text>
</a>
</g>
</g>
<!-- Node18&#45;&gt;Node19 -->
<g id="edge3" class="edge"><title>Node18&#45;&gt;Node19</title>
<path fill="none" stroke="midnightblue" d="M361.468,-155.37C363.74,-156.784 365.925,-158.324 368,-160 398.966,-185.006 373.297,-216.671 404,-242 408.613,-245.806 413.836,-248.886 419.365,-251.375"/>
<polygon fill="midnightblue" stroke="midnightblue" points="362.792,-152.11 352.319,-150.514 359.511,-158.293 362.792,-152.11"/>
</g>
<!-- Node20 -->
<g id="node5" class="node"><title>Node20</title>
<g id="a_node5"><a xlink:href="classokw_1_1core_1_1_o_k.html#ad09ff6f6389ceb04f7ec338ea3c45e85" target="_top" xlink:title="Speirchert den aktuellen Wert der Etikette, und legt diesen unter fpsMemKeyName ab. ">
<polygon fill="white" stroke="black" points="417.5,-213.5 417.5,-232.5 560.5,-232.5 560.5,-213.5 417.5,-213.5"/>
<text text-anchor="middle" x="489" y="-220.5" font-family="Helvetica,sans-Serif" font-size="10.00">okw.core.OK.MemorizeLabel</text>
</a>
</g>
</g>
<!-- Node18&#45;&gt;Node20 -->
<g id="edge4" class="edge"><title>Node18&#45;&gt;Node20</title>
<path fill="none" stroke="midnightblue" d="M357.079,-154.369C360.865,-156.034 364.528,-157.903 368,-160 389.629,-173.062 382.509,-190.712 404,-204 410.231,-207.853 417.155,-210.927 424.277,-213.379"/>
<polygon fill="midnightblue" stroke="midnightblue" points="358.041,-150.988 347.452,-150.632 355.508,-157.514 358.041,-150.988"/>
</g>
<!-- Node21 -->
<g id="node6" class="node"><title>Node21</title>
<g id="a_node6"><a xlink:href="classokw_1_1core_1_1_o_k.html#ac9744fdc26e9049a0d0fe48b1ae9d11c" target="_top" xlink:title="Speirchert den aktuellen Wert der Platzhalters, und legt diesen unter fpsMemKeyName ab...">
<polygon fill="white" stroke="black" points="404,-175.5 404,-194.5 574,-194.5 574,-175.5 404,-175.5"/>
<text text-anchor="middle" x="489" y="-182.5" font-family="Helvetica,sans-Serif" font-size="10.00">okw.core.OK.MemorizePlaceholder</text>
</a>
</g>
</g>
<!-- Node18&#45;&gt;Node21 -->
<g id="edge5" class="edge"><title>Node18&#45;&gt;Node21</title>
<path fill="none" stroke="midnightblue" d="M331.735,-152.555C343.712,-155.004 356.274,-157.581 368,-160 392.593,-165.074 420.01,-170.782 442.423,-175.461"/>
<polygon fill="midnightblue" stroke="midnightblue" points="332.34,-149.106 321.842,-150.533 330.938,-155.964 332.34,-149.106"/>
</g>
<!-- Node22 -->
<g id="node7" class="node"><title>Node22</title>
<g id="a_node7"><a xlink:href="classokw_1_1core_1_1_o_k.html#a7e8652a632b073da02222ee6e5e88266" target="_top" xlink:title="Keine Beschreibung zu &quot;MemorizeSelectedValue&quot; verfügbar. ">
<polygon fill="white" stroke="black" points="410,-126 410,-156 568,-156 568,-126 410,-126"/>
<text text-anchor="start" x="418" y="-144" font-family="Helvetica,sans-Serif" font-size="10.00">okw.core.OK.MemorizeSelected</text>
<text text-anchor="middle" x="489" y="-133" font-family="Helvetica,sans-Serif" font-size="10.00">Value</text>
</a>
</g>
</g>
<!-- Node18&#45;&gt;Node22 -->
<g id="edge6" class="edge"><title>Node18&#45;&gt;Node22</title>
<path fill="none" stroke="midnightblue" d="M374.97,-141C386.689,-141 398.513,-141 409.873,-141"/>
<polygon fill="midnightblue" stroke="midnightblue" points="374.714,-137.5 364.714,-141 374.714,-144.5 374.714,-137.5"/>
</g>
<!-- Node23 -->
<g id="node8" class="node"><title>Node23</title>
<g id="a_node8"><a xlink:href="classokw_1_1core_1_1_o_k.html#ab7c819556f3b21faeea08fad5be32813" target="_top" xlink:title="Merkt sich den Wert der gegebenen Zelle in der Tabelle. throws Exception ">
<polygon fill="white" stroke="black" points="410,-77 410,-107 568,-107 568,-77 410,-77"/>
<text text-anchor="start" x="418" y="-95" font-family="Helvetica,sans-Serif" font-size="10.00">okw.core.OK.MemorizeTablecell</text>
<text text-anchor="middle" x="489" y="-84" font-family="Helvetica,sans-Serif" font-size="10.00">Value</text>
</a>
</g>
</g>
<!-- Node18&#45;&gt;Node23 -->
<g id="edge7" class="edge"><title>Node18&#45;&gt;Node23</title>
<path fill="none" stroke="midnightblue" d="M333.705,-129.41C345.101,-127.046 356.938,-124.512 368,-122 388.313,-117.388 410.461,-111.964 430.137,-107.005"/>
<polygon fill="midnightblue" stroke="midnightblue" points="332.926,-125.997 323.835,-131.438 334.335,-132.854 332.926,-125.997"/>
</g>
<!-- Node24 -->
<g id="node9" class="node"><title>Node24</title>
<g id="a_node9"><a xlink:href="classokw_1_1core_1_1_o_k.html#aad3ff1b462da844ccc53d2e177fb1def" target="_top" xlink:title="Dokumentiert den Tooltip&#45;Text (Kurzinformation) des gegebenen Objekts. ">
<polygon fill="white" stroke="black" points="414.5,-38.5 414.5,-57.5 563.5,-57.5 563.5,-38.5 414.5,-38.5"/>
<text text-anchor="middle" x="489" y="-45.5" font-family="Helvetica,sans-Serif" font-size="10.00">okw.core.OK.MemorizeTooltip</text>
</a>
</g>
</g>
<!-- Node18&#45;&gt;Node24 -->
<g id="edge8" class="edge"><title>Node18&#45;&gt;Node24</title>
<path fill="none" stroke="midnightblue" d="M359.21,-127.163C362.261,-125.613 365.205,-123.897 368,-122 392.172,-105.591 380.001,-83.6607 404,-67 409.527,-63.163 415.706,-60.0879 422.138,-57.6254"/>
<polygon fill="midnightblue" stroke="midnightblue" points="357.508,-124.089 349.779,-131.336 360.34,-130.491 357.508,-124.089"/>
</g>
<!-- Node25 -->
<g id="node10" class="node"><title>Node25</title>
<g id="a_node10"><a xlink:href="classokw_1_1core_1_1_o_k.html#a2d93a84a57295418131d219a5887094d" target="_top" xlink:title="Merkt sich den Standartwert eines Objekts. ">
<polygon fill="white" stroke="black" points="417,-0.5 417,-19.5 561,-19.5 561,-0.5 417,-0.5"/>
<text text-anchor="middle" x="489" y="-7.5" font-family="Helvetica,sans-Serif" font-size="10.00">okw.core.OK.MemorizeValue</text>
</a>
</g>
</g>
<!-- Node18&#45;&gt;Node25 -->
<g id="edge9" class="edge"><title>Node18&#45;&gt;Node25</title>
<path fill="none" stroke="midnightblue" d="M362.381,-126.216C364.332,-124.915 366.21,-123.512 368,-122 401.857,-93.3963 370.444,-57.9563 404,-29 408.415,-25.1904 413.434,-22.1006 418.771,-19.5996"/>
<polygon fill="midnightblue" stroke="midnightblue" points="360.391,-123.321 353.41,-131.29 363.837,-129.414 360.391,-123.321"/>
</g>
</g>
</svg>
        <g id="navigator" transform="translate(0 0)" fill="#404254">
                <rect fill="#f2f5e9" fill-opacity="0.5" stroke="#606060" stroke-width=".5" x="0" y="0" width="60" height="60"/>
                <use id="zoomplus" xlink:href="#zoomPlus" x="17" y="9" onmousedown="handleZoom(evt,'in')"/>
                <use id="zoomminus" xlink:href="#zoomMin" x="42" y="9" onmousedown="handleZoom(evt,'out')"/>
                <use id="reset" xlink:href="#resetDef" x="30" y="36" onmousedown="handleReset()"/>
                <g id="arrowUp" xlink:href="#dirArrow" transform="translate(30 24)" onmousedown="handlePan(0,-1)">
                  <use xlink:href="#rim" fill="#404040">
                        <set attributeName="fill" to="#808080" begin="arrowUp.mouseover" end="arrowUp.mouseout"/>
                  </use>
                  <path fill="none" stroke="white" stroke-width="1.5" d="M0,-3.0v7 M-2.5,-0.5L0,-3.0L2.5,-0.5"/>
                </g>
                <g id="arrowRight" xlink:href="#dirArrow" transform="rotate(90) translate(36 -43)" onmousedown="handlePan(1,0)">
                  <use xlink:href="#rim" fill="#404040">
                        <set attributeName="fill" to="#808080" begin="arrowRight.mouseover" end="arrowRight.mouseout"/>
                  </use>
                  <path fill="none" stroke="white" stroke-width="1.5" d="M0,-3.0v7 M-2.5,-0.5L0,-3.0L2.5,-0.5"/>
                </g>
                <g id="arrowDown" xlink:href="#dirArrow" transform="rotate(180) translate(-30 -48)" onmousedown="handlePan(0,1)">
                  <use xlink:href="#rim" fill="#404040">
                        <set attributeName="fill" to="#808080" begin="arrowDown.mouseover" end="arrowDown.mouseout"/>
                  </use>
                  <path fill="none" stroke="white" stroke-width="1.5" d="M0,-3.0v7 M-2.5,-0.5L0,-3.0L2.5,-0.5"/>
                </g>
                <g id="arrowLeft" xlink:href="#dirArrow" transform="rotate(270) translate(-36 17)" onmousedown="handlePan(-1,0)">
                  <use xlink:href="#rim" fill="#404040">
                        <set attributeName="fill" to="#808080" begin="arrowLeft.mouseover" end="arrowLeft.mouseout"/>
                  </use>
                  <path fill="none" stroke="white" stroke-width="1.5" d="M0,-3.0v7 M-2.5,-0.5L0,-3.0L2.5,-0.5"/>
                </g>
        </g>
        <svg viewBox="0 0 15 15" width="100%" height="30px" preserveAspectRatio="xMaxYMin meet">
         <g id="arrow_out" transform="scale(0.3 0.3)">
          <a xlink:href="classokw_1_1_o_k_w___helper_ac27bd4b709ec8ac0c87afb72ff7d12f9_icgraph_org.svg" target="_base">
           <rect id="button" ry="5" rx="5" y="6" x="6" height="38" width="38"
                fill="#f2f5e9" fill-opacity="0.5" stroke="#606060" stroke-width="1.0"/>
           <path id="arrow"
             d="M 11.500037,31.436501 C 11.940474,20.09759 22.043105,11.32322 32.158766,21.979434 L 37.068811,17.246167 C 37.068811,17.246167 37.088388,32 37.088388,32 L 22.160133,31.978069 C 22.160133,31.978069 26.997745,27.140456 26.997745,27.140456 C 18.528582,18.264221 13.291696,25.230495 11.500037,31.436501 z"
             style="fill:#404040;"/>
          </a>
         </g>
        </svg>
</svg>
