<?xml version="1.0" encoding="UTF-8" standalone="no"?>
<!DOCTYPE svg PUBLIC "-//W3C//DTD SVG 1.1//EN"
 "http://www.w3.org/Graphics/SVG/1.1/DTD/svg11.dtd">
<!-- Generated by graphviz version 2.26.3 (20100126.1600)
 -->
<!-- Title: okw.core.EN_OKWNotAllowedValueException_Keywords_IGNORE.tcMemorizeHasFocusIGNORE2 Pages: 1 -->
<svg width="1198pt" height="318pt"
 viewBox="0.00 0.00 1198.00 318.00" xmlns="http://www.w3.org/2000/svg" xmlns:xlink="http://www.w3.org/1999/xlink">
<g id="graph1" class="graph" transform="scale(1 1) rotate(0) translate(4 314)">
<title>okw.core.EN_OKWNotAllowedValueException_Keywords_IGNORE.tcMemorizeHasFocusIGNORE2</title>
<polygon fill="white" stroke="white" points="-4,5 -4,-314 1195,-314 1195,5 -4,5"/>
<!-- Node90 -->
<g id="node1" class="node"><title>Node90</title>
<polygon fill="#bfbfbf" stroke="black" points="0,-112.5 0,-159.5 206,-159.5 206,-112.5 0,-112.5"/>
<text text-anchor="start" x="8" y="-146.5" font-family="Helvetica,sans-Serif" font-size="10.00">okw.core.EN_OKWNotAllowed</text>
<text text-anchor="start" x="8" y="-133.5" font-family="Helvetica,sans-Serif" font-size="10.00">ValueException_Keywords</text>
<text text-anchor="middle" x="103" y="-120.5" font-family="Helvetica,sans-Serif" font-size="10.00">_IGNORE.tcMemorizeHasFocusIGNORE2</text>
</g>
<!-- Node91 -->
<g id="node3" class="node"><title>Node91</title>
<a xlink:href="classokw_1_1core_1_1_e_n.html#aef613b0a3e6bb8a9623984db145cae69" target="_top" xlink:title="Markiert den Anfang eines neuen Testfalls. ">
<polygon fill="white" stroke="black" points="263.5,-85.5 263.5,-106.5 384.5,-106.5 384.5,-85.5 263.5,-85.5"/>
<text text-anchor="middle" x="324" y="-93.5" font-family="Helvetica,sans-Serif" font-size="10.00">okw.core.EN.BeginTest</text>
</a>
</g>
<!-- Node90&#45;&gt;Node91 -->
<g id="edge2" class="edge"><title>Node90&#45;&gt;Node91</title>
<path fill="none" stroke="midnightblue" d="M206.059,-117.347C222.86,-114.306 239.89,-111.223 255.589,-108.382"/>
<polygon fill="midnightblue" stroke="midnightblue" points="256.48,-111.778 265.697,-106.553 255.233,-104.89 256.48,-111.778"/>
</g>
<!-- Node97 -->
<g id="node15" class="node"><title>Node97</title>
<a xlink:href="classokw_1_1core_1_1_e_n.html#a2b61c2b39a9cfdbdfd25fe0e3d43785b" target="_top" xlink:title="Setzt den Kontext auf das gegebene Fenster. ">
<polygon fill="white" stroke="black" points="254,-165.5 254,-186.5 394,-186.5 394,-165.5 254,-165.5"/>
<text text-anchor="middle" x="324" y="-173.5" font-family="Helvetica,sans-Serif" font-size="10.00">okw.core.EN.SelectWindow</text>
</a>
</g>
<!-- Node90&#45;&gt;Node97 -->
<g id="edge14" class="edge"><title>Node90&#45;&gt;Node97</title>
<path fill="none" stroke="midnightblue" d="M206.059,-154.653C222.86,-157.694 239.89,-160.777 255.589,-163.618"/>
<polygon fill="midnightblue" stroke="midnightblue" points="255.233,-167.11 265.697,-165.447 256.48,-160.222 255.233,-167.11"/>
</g>
<!-- Node104 -->
<g id="node30" class="node"><title>Node104</title>
<a xlink:href="classokw_1_1core_1_1_e_n.html#a93f2db8bf0eff6613fbf2bbbeb9436f0" target="_top" xlink:title="Keine Beschreibung zu &quot;MemorizeHasFocus&quot; verfügbar. ">
<polygon fill="white" stroke="black" points="242,-125.5 242,-146.5 406,-146.5 406,-125.5 242,-125.5"/>
<text text-anchor="middle" x="324" y="-133.5" font-family="Helvetica,sans-Serif" font-size="10.00">okw.core.EN.MemorizeHasFocus</text>
</a>
</g>
<!-- Node90&#45;&gt;Node104 -->
<g id="edge30" class="edge"><title>Node90&#45;&gt;Node104</title>
<path fill="none" stroke="midnightblue" d="M206.059,-136C214.619,-136 223.239,-136 231.713,-136"/>
<polygon fill="midnightblue" stroke="midnightblue" points="231.961,-139.5 241.961,-136 231.961,-132.5 231.961,-139.5"/>
</g>
<!-- Node92 -->
<g id="node5" class="node"><title>Node92</title>
<a xlink:href="classokw_1_1core_1_1_core.html#ab4e0f723d27cb11c944ec4c82c426100" target="_top" xlink:title="Setzt die Sprache auf den gegebenen wert Language. ">
<polygon fill="white" stroke="black" points="445.5,-105.5 445.5,-126.5 584.5,-126.5 584.5,-105.5 445.5,-105.5"/>
<text text-anchor="middle" x="515" y="-113.5" font-family="Helvetica,sans-Serif" font-size="10.00">okw.core.Core.setLanguage</text>
</a>
</g>
<!-- Node91&#45;&gt;Node92 -->
<g id="edge4" class="edge"><title>Node91&#45;&gt;Node92</title>
<path fill="none" stroke="midnightblue" d="M384.696,-102.356C400.707,-104.032 418.231,-105.867 435.088,-107.632"/>
<polygon fill="midnightblue" stroke="midnightblue" points="435.168,-111.16 445.478,-108.72 435.897,-104.198 435.168,-111.16"/>
</g>
<!-- Node94 -->
<g id="node9" class="node"><title>Node94</title>
<a xlink:href="classokw_1_1core_1_1_core.html#acfefe92468c9eb9e951846372726c4d8" target="_top" xlink:title="Markiert den Anfang eines neuen Testfalls. ">
<polygon fill="white" stroke="black" points="451,-52.5 451,-73.5 579,-73.5 579,-52.5 451,-52.5"/>
<text text-anchor="middle" x="515" y="-60.5" font-family="Helvetica,sans-Serif" font-size="10.00">okw.core.Core.BeginTest</text>
</a>
</g>
<!-- Node91&#45;&gt;Node94 -->
<g id="edge8" class="edge"><title>Node91&#45;&gt;Node94</title>
<path fill="none" stroke="midnightblue" d="M384.696,-85.5133C403.579,-82.2508 424.565,-78.6249 444.081,-75.253"/>
<polygon fill="midnightblue" stroke="midnightblue" points="444.876,-78.6676 454.134,-73.5161 443.684,-71.7698 444.876,-78.6676"/>
</g>
<!-- Node93 -->
<g id="node7" class="node"><title>Node93</title>
<a xlink:href="interfaceokw_1_1core_1_1_i_o_k_w___state.html#a866baa0bde08a47418f54d63bdb56097" target="_top" xlink:title="Interne Methode zum setzen der Sprache für die sprachabhängigen Ausgaben der Dokumentation (Log)...">
<polygon fill="white" stroke="black" points="624.5,-92.5 624.5,-113.5 797.5,-113.5 797.5,-92.5 624.5,-92.5"/>
<text text-anchor="middle" x="711" y="-100.5" font-family="Helvetica,sans-Serif" font-size="10.00">okw.core.IOKW_State.setLanguage</text>
</a>
</g>
<!-- Node92&#45;&gt;Node93 -->
<g id="edge6" class="edge"><title>Node92&#45;&gt;Node93</title>
<path fill="none" stroke="midnightblue" d="M584.654,-111.38C594.309,-110.74 604.366,-110.073 614.404,-109.407"/>
<polygon fill="midnightblue" stroke="midnightblue" points="614.672,-112.897 624.419,-108.743 614.209,-105.912 614.672,-112.897"/>
</g>
<!-- Node95 -->
<g id="node11" class="node"><title>Node95</title>
<a xlink:href="classokw_1_1log_1_1_logger___sngltn.html#a60f4ad59db847ae61df928f9920f3deb" target="_top" xlink:title="Ausgabe des Testfalls. ">
<polygon fill="white" stroke="black" points="644,-0 644,-34 778,-34 778,-0 644,-0"/>
<text text-anchor="start" x="652" y="-21" font-family="Helvetica,sans-Serif" font-size="10.00">okw.log.Logger_Sngltn.Log</text>
<text text-anchor="middle" x="711" y="-8" font-family="Helvetica,sans-Serif" font-size="10.00">TestcaseStart</text>
</a>
</g>
<!-- Node94&#45;&gt;Node95 -->
<g id="edge10" class="edge"><title>Node94&#45;&gt;Node95</title>
<path fill="none" stroke="midnightblue" d="M559.966,-52.4467C581.917,-47.295 608.947,-40.9512 634.045,-35.061"/>
<polygon fill="midnightblue" stroke="midnightblue" points="634.985,-38.4355 643.921,-32.7431 633.385,-31.6206 634.985,-38.4355"/>
</g>
<!-- Node96 -->
<g id="node13" class="node"><title>Node96</title>
<a xlink:href="interfaceokw_1_1core_1_1_i_o_k_w___state.html#ae5480ddb1fc37eade5d899d335bc4b13" target="_top" xlink:title="Markiert den Anfang eines neuen Testfalls. ">
<polygon fill="white" stroke="black" points="630,-52.5 630,-73.5 792,-73.5 792,-52.5 630,-52.5"/>
<text text-anchor="middle" x="711" y="-60.5" font-family="Helvetica,sans-Serif" font-size="10.00">okw.core.IOKW_State.BeginTest</text>
</a>
</g>
<!-- Node94&#45;&gt;Node96 -->
<g id="edge12" class="edge"><title>Node94&#45;&gt;Node96</title>
<path fill="none" stroke="midnightblue" d="M579.178,-63C592.078,-63 605.869,-63 619.493,-63"/>
<polygon fill="midnightblue" stroke="midnightblue" points="619.86,-66.5001 629.86,-63 619.86,-59.5001 619.86,-66.5001"/>
</g>
<!-- Node97&#45;&gt;Node92 -->
<g id="edge16" class="edge"><title>Node97&#45;&gt;Node92</title>
<path fill="none" stroke="midnightblue" d="M371.079,-165.479C382.572,-162.647 394.785,-159.414 406,-156 430.805,-148.45 458.201,-138.388 479.323,-130.245"/>
<polygon fill="midnightblue" stroke="midnightblue" points="480.8,-133.426 488.851,-126.539 478.262,-126.903 480.8,-133.426"/>
</g>
<!-- Node98 -->
<g id="node18" class="node"><title>Node98</title>
<a xlink:href="classokw_1_1core_1_1_core.html#a6a68660eb5e34965522896e2a5c48314" target="_top" xlink:title="Setzt den Kontext auf das gegebene Fenster. ">
<polygon fill="white" stroke="black" points="442,-213.5 442,-234.5 588,-234.5 588,-213.5 442,-213.5"/>
<text text-anchor="middle" x="515" y="-221.5" font-family="Helvetica,sans-Serif" font-size="10.00">okw.core.Core.SelectWindow</text>
</a>
</g>
<!-- Node97&#45;&gt;Node98 -->
<g id="edge18" class="edge"><title>Node97&#45;&gt;Node98</title>
<path fill="none" stroke="midnightblue" d="M365.916,-186.534C394.527,-193.724 432.626,-203.299 463.147,-210.969"/>
<polygon fill="midnightblue" stroke="midnightblue" points="462.631,-214.448 473.182,-213.491 464.337,-207.659 462.631,-214.448"/>
</g>
<!-- Node99 -->
<g id="node20" class="node"><title>Node99</title>
<a xlink:href="classokw_1_1log_1_1_logger___sngltn.html#a70ec25e200e00ecefc544e8fd371d2ef" target="_top" xlink:title="Ausgabe eines Schlüsselwortes. ">
<polygon fill="white" stroke="black" points="644,-184 644,-218 778,-218 778,-184 644,-184"/>
<text text-anchor="start" x="652" y="-205" font-family="Helvetica,sans-Serif" font-size="10.00">okw.log.Logger_Sngltn.Log</text>
<text text-anchor="middle" x="711" y="-192" font-family="Helvetica,sans-Serif" font-size="10.00">KeyWordStart</text>
</a>
</g>
<!-- Node98&#45;&gt;Node99 -->
<g id="edge20" class="edge"><title>Node98&#45;&gt;Node99</title>
<path fill="none" stroke="midnightblue" d="M588.262,-215.403C603.104,-213.661 618.756,-211.825 633.731,-210.067"/>
<polygon fill="midnightblue" stroke="midnightblue" points="634.448,-213.507 643.972,-208.866 633.632,-206.555 634.448,-213.507"/>
</g>
<!-- Node100 -->
<g id="node22" class="node"><title>Node100</title>
<a xlink:href="classokw_1_1_log_messenger.html#af225d1f037d47b3b085175c09d78bdd2" target="_top" xlink:title="Holt die Log&#45;Meldung für MethodeNmae/Textkey ohne weitere Parameter. ">
<polygon fill="white" stroke="black" points="631,-236.5 631,-257.5 791,-257.5 791,-236.5 631,-236.5"/>
<text text-anchor="middle" x="711" y="-244.5" font-family="Helvetica,sans-Serif" font-size="10.00">okw.LogMessenger.GetMessage</text>
</a>
</g>
<!-- Node98&#45;&gt;Node100 -->
<g id="edge22" class="edge"><title>Node98&#45;&gt;Node100</title>
<path fill="none" stroke="midnightblue" d="M588.262,-232.597C598.918,-233.847 609.991,-235.147 620.932,-236.431"/>
<polygon fill="midnightblue" stroke="midnightblue" points="620.586,-239.914 630.926,-237.604 621.402,-232.962 620.586,-239.914"/>
</g>
<!-- Node103 -->
<g id="node28" class="node"><title>Node103</title>
<a xlink:href="interfaceokw_1_1core_1_1_i_o_k_w___state.html#ad4fc9610ed5b1176590a45b55e6ac7f0" target="_top" xlink:title="Setzt den Kontext auf das gegebene Fenster. ">
<polygon fill="white" stroke="black" points="638,-276 638,-310 784,-310 784,-276 638,-276"/>
<text text-anchor="start" x="646" y="-297" font-family="Helvetica,sans-Serif" font-size="10.00">okw.core.IOKW_State.Select</text>
<text text-anchor="middle" x="711" y="-284" font-family="Helvetica,sans-Serif" font-size="10.00">Window</text>
</a>
</g>
<!-- Node98&#45;&gt;Node103 -->
<g id="edge28" class="edge"><title>Node98&#45;&gt;Node103</title>
<path fill="none" stroke="midnightblue" d="M539.883,-234.518C561.831,-243.627 594.778,-256.89 624,-267 629.631,-268.948 635.496,-270.888 641.402,-272.779"/>
<polygon fill="midnightblue" stroke="midnightblue" points="640.759,-276.246 651.348,-275.909 642.86,-269.568 640.759,-276.246"/>
</g>
<!-- Node101 -->
<g id="node24" class="node"><title>Node101</title>
<a xlink:href="classokw_1_1_log_messenger.html#a530cd6ab82ec82a04206a2e976ec06e3" target="_top" xlink:title="Interne Kernfunktion holt die Log&#45;Meldung mit Platzhaltern aus der XML&#45;Datei. ">
<polygon fill="white" stroke="black" points="834.5,-236.5 834.5,-257.5 1001.5,-257.5 1001.5,-236.5 834.5,-236.5"/>
<text text-anchor="middle" x="918" y="-244.5" font-family="Helvetica,sans-Serif" font-size="10.00">okw.LogMessenger.ReadMessage</text>
</a>
</g>
<!-- Node100&#45;&gt;Node101 -->
<g id="edge24" class="edge"><title>Node100&#45;&gt;Node101</title>
<path fill="none" stroke="midnightblue" d="M791.032,-247C801.92,-247 813.173,-247 824.276,-247"/>
<polygon fill="midnightblue" stroke="midnightblue" points="824.415,-250.5 834.415,-247 824.415,-243.5 824.415,-250.5"/>
</g>
<!-- Node102 -->
<g id="node26" class="node"><title>Node102</title>
<a xlink:href="classokw_1_1_o_k_w___xml_reader.html#ab920b5335a2e1429c14cc5f8e79f39eb" target="_top" xlink:title="Lies den TextContent eines Tag. ">
<polygon fill="white" stroke="black" points="1038,-230 1038,-264 1190,-264 1190,-230 1038,-230"/>
<text text-anchor="start" x="1046" y="-251" font-family="Helvetica,sans-Serif" font-size="10.00">okw.OKW_XmlReader.getText</text>
<text text-anchor="middle" x="1114" y="-238" font-family="Helvetica,sans-Serif" font-size="10.00">ContentSingleValue</text>
</a>
</g>
<!-- Node101&#45;&gt;Node102 -->
<g id="edge26" class="edge"><title>Node101&#45;&gt;Node102</title>
<path fill="none" stroke="midnightblue" d="M1001.69,-247C1010.29,-247 1019.04,-247 1027.67,-247"/>
<polygon fill="midnightblue" stroke="midnightblue" points="1027.72,-250.5 1037.72,-247 1027.72,-243.5 1027.72,-250.5"/>
</g>
<!-- Node104&#45;&gt;Node92 -->
<g id="edge32" class="edge"><title>Node104&#45;&gt;Node92</title>
<path fill="none" stroke="midnightblue" d="M406.11,-127.402C415.79,-126.388 425.658,-125.355 435.304,-124.345"/>
<polygon fill="midnightblue" stroke="midnightblue" points="435.678,-127.825 445.259,-123.303 434.949,-120.863 435.678,-127.825"/>
</g>
<!-- Node105 -->
<g id="node33" class="node"><title>Node105</title>
<a xlink:href="classokw_1_1core_1_1_core.html#af476a6399f7554f11a332d521fa4957e" target="_top" xlink:title="Keine Beschreibung zu &quot;MemorizeHasFocus&quot; verfügbar. ">
<polygon fill="white" stroke="black" points="443,-158 443,-192 587,-192 587,-158 443,-158"/>
<text text-anchor="start" x="451" y="-179" font-family="Helvetica,sans-Serif" font-size="10.00">okw.core.Core.MemorizeHas</text>
<text text-anchor="middle" x="515" y="-166" font-family="Helvetica,sans-Serif" font-size="10.00">Focus</text>
</a>
</g>
<!-- Node104&#45;&gt;Node105 -->
<g id="edge34" class="edge"><title>Node104&#45;&gt;Node105</title>
<path fill="none" stroke="midnightblue" d="M375.436,-146.503C393.111,-150.112 413.366,-154.248 432.863,-158.229"/>
<polygon fill="midnightblue" stroke="midnightblue" points="432.166,-161.658 442.664,-160.23 433.566,-154.8 432.166,-161.658"/>
</g>
<!-- Node105&#45;&gt;Node99 -->
<g id="edge36" class="edge"><title>Node105&#45;&gt;Node99</title>
<path fill="none" stroke="midnightblue" d="M587.148,-184.571C602.37,-186.59 618.488,-188.728 633.884,-190.77"/>
<polygon fill="midnightblue" stroke="midnightblue" points="633.508,-194.251 643.881,-192.096 634.428,-187.312 633.508,-194.251"/>
</g>
<!-- Node105&#45;&gt;Node100 -->
<g id="edge38" class="edge"><title>Node105&#45;&gt;Node100</title>
<path fill="none" stroke="midnightblue" d="M561.931,-192.109C570.727,-195.745 579.746,-199.773 588,-204 604.899,-212.655 606.492,-219.655 624,-227 629.909,-229.479 636.178,-231.679 642.537,-233.625"/>
<polygon fill="midnightblue" stroke="midnightblue" points="641.989,-237.108 652.566,-236.478 643.905,-230.375 641.989,-237.108"/>
</g>
<!-- Node106 -->
<g id="node37" class="node"><title>Node106</title>
<a xlink:href="interfaceokw_1_1core_1_1_i_o_k_w___state.html#a064a961875018e9ce88379b1b5314fb1" target="_top" xlink:title="Keine Beschreibung zu &quot;MemorizeHasFocus&quot; verfügbar. ">
<polygon fill="white" stroke="black" points="630.5,-132 630.5,-166 791.5,-166 791.5,-132 630.5,-132"/>
<text text-anchor="start" x="638.5" y="-153" font-family="Helvetica,sans-Serif" font-size="10.00">okw.core.IOKW_State.Memorize</text>
<text text-anchor="middle" x="711" y="-140" font-family="Helvetica,sans-Serif" font-size="10.00">HasFocus</text>
</a>
</g>
<!-- Node105&#45;&gt;Node106 -->
<g id="edge40" class="edge"><title>Node105&#45;&gt;Node106</title>
<path fill="none" stroke="midnightblue" d="M587.148,-165.429C597.929,-163.999 609.159,-162.51 620.264,-161.036"/>
<polygon fill="midnightblue" stroke="midnightblue" points="620.957,-164.475 630.41,-159.69 620.037,-157.536 620.957,-164.475"/>
</g>
</g>
</svg>
