<?xml version="1.0" encoding="UTF-8" standalone="no"?>
<!DOCTYPE svg PUBLIC "-//W3C//DTD SVG 1.1//EN"
 "http://www.w3.org/Graphics/SVG/1.1/DTD/svg11.dtd">
<!-- Generated by graphviz version 2.36.0 (20140111.2315)
 -->
<!-- Title: okw.gui.adapter.selenium.SeAnyWindow.getValue Pages: 1 -->
<svg width="328pt" height="136pt"
 viewBox="0.00 0.00 328.00 136.00" xmlns="http://www.w3.org/2000/svg" xmlns:xlink="http://www.w3.org/1999/xlink">
<g id="graph0" class="graph" transform="scale(1 1) rotate(0) translate(4 132)">
<title>okw.gui.adapter.selenium.SeAnyWindow.getValue</title>
<polygon fill="white" stroke="none" points="-4,4 -4,-132 324,-132 324,4 -4,4"/>
<!-- Node177 -->
<g id="node1" class="node"><title>Node177</title>
<polygon fill="#bfbfbf" stroke="black" points="0.5,-49 0.5,-79 131.5,-79 131.5,-49 0.5,-49"/>
<text text-anchor="start" x="8.5" y="-67" font-family="Helvetica,sans-Serif" font-size="10.00">okw.gui.adapter.selenium.</text>
<text text-anchor="middle" x="66" y="-56" font-family="Helvetica,sans-Serif" font-size="10.00">SeAnyWindow.getValue</text>
</g>
<!-- Node178 -->
<g id="node2" class="node"><title>Node178</title>
<g id="a_node2"><a xlink:href="classokw_1_1gui_1_1adapter_1_1selenium_1_1_se_any_window.html#a4393c40898d3b2173978f22ef3a5064e" target="_top" xlink:title="Ermittelt den Wert des Objktes für das Schlüsselwort Loggewert. ">
<polygon fill="white" stroke="black" points="178.5,-98 178.5,-128 309.5,-128 309.5,-98 178.5,-98"/>
<text text-anchor="start" x="186.5" y="-116" font-family="Helvetica,sans-Serif" font-size="10.00">okw.gui.adapter.selenium.</text>
<text text-anchor="middle" x="244" y="-105" font-family="Helvetica,sans-Serif" font-size="10.00">SeAnyWindow.LogValue</text>
</a>
</g>
</g>
<!-- Node177&#45;&gt;Node178 -->
<g id="edge1" class="edge"><title>Node177&#45;&gt;Node178</title>
<path fill="none" stroke="midnightblue" d="M131.011,-81.8212C150.014,-87.1118 170.632,-92.8522 188.937,-97.9484"/>
<polygon fill="midnightblue" stroke="midnightblue" points="131.814,-78.4118 121.242,-79.1014 129.937,-85.1554 131.814,-78.4118"/>
</g>
<!-- Node179 -->
<g id="node3" class="node"><title>Node179</title>
<g id="a_node3"><a xlink:href="classokw_1_1gui_1_1adapter_1_1selenium_1_1_se_any_window.html#a12e4a6c87233f7de1d6738313709865e" target="_top" xlink:title="Ermittelt den Wert, im Allgemeinen den textuellen Inhalt eines Objektes für das Schlüsselwort MerkeWe...">
<polygon fill="white" stroke="black" points="168,-49 168,-79 320,-79 320,-49 168,-49"/>
<text text-anchor="start" x="176" y="-67" font-family="Helvetica,sans-Serif" font-size="10.00">okw.gui.adapter.selenium.</text>
<text text-anchor="middle" x="244" y="-56" font-family="Helvetica,sans-Serif" font-size="10.00">SeAnyWindow.MemorizeValue</text>
</a>
</g>
</g>
<!-- Node177&#45;&gt;Node179 -->
<g id="edge2" class="edge"><title>Node177&#45;&gt;Node179</title>
<path fill="none" stroke="midnightblue" d="M141.593,-64C150.246,-64 159.076,-64 167.738,-64"/>
<polygon fill="midnightblue" stroke="midnightblue" points="141.537,-60.5001 131.537,-64 141.536,-67.5001 141.537,-60.5001"/>
</g>
<!-- Node180 -->
<g id="node4" class="node"><title>Node180</title>
<g id="a_node4"><a xlink:href="classokw_1_1gui_1_1adapter_1_1selenium_1_1_se_any_window.html#a22e71a15606b0dc55a2b2ded64043780" target="_top" xlink:title="Ermittelt den textuellen Inhalt des markierten Textes für Prüfewert. ">
<polygon fill="white" stroke="black" points="177,-0 177,-30 311,-30 311,-0 177,-0"/>
<text text-anchor="start" x="185" y="-18" font-family="Helvetica,sans-Serif" font-size="10.00">okw.gui.adapter.selenium.</text>
<text text-anchor="middle" x="244" y="-7" font-family="Helvetica,sans-Serif" font-size="10.00">SeAnyWindow.VerifyValue</text>
</a>
</g>
</g>
<!-- Node177&#45;&gt;Node180 -->
<g id="edge3" class="edge"><title>Node177&#45;&gt;Node180</title>
<path fill="none" stroke="midnightblue" d="M131.011,-46.1788C150.014,-40.8882 170.632,-35.1478 188.937,-30.0516"/>
<polygon fill="midnightblue" stroke="midnightblue" points="129.937,-42.8446 121.242,-48.8986 131.814,-49.5882 129.937,-42.8446"/>
</g>
</g>
</svg>
