<?xml version="1.0" encoding="UTF-8" standalone="no"?>
<!DOCTYPE svg PUBLIC "-//W3C//DTD SVG 1.1//EN"
 "http://www.w3.org/Graphics/SVG/1.1/DTD/svg11.dtd">
<!-- Generated by graphviz version 2.36.0 (20140111.2315)
 -->
<!-- Title: okw.core.EN.VerifyIsActive Pages: 1 -->
<svg width="394pt" height="1597pt"
 viewBox="0.00 0.00 394.00 1597.00" xmlns="http://www.w3.org/2000/svg" xmlns:xlink="http://www.w3.org/1999/xlink">
<g id="graph0" class="graph" transform="scale(1 1) rotate(0) translate(4 1593)">
<title>okw.core.EN.VerifyIsActive</title>
<polygon fill="white" stroke="none" points="-4,4 -4,-1593 390,-1593 390,4 -4,4"/>
<!-- Node2585 -->
<g id="node1" class="node"><title>Node2585</title>
<polygon fill="#bfbfbf" stroke="black" points="0,-767.5 0,-786.5 138,-786.5 138,-767.5 0,-767.5"/>
<text text-anchor="middle" x="69" y="-774.5" font-family="Helvetica,sans-Serif" font-size="10.00">okw.core.EN.VerifyIsActive</text>
</g>
<!-- Node2586 -->
<g id="node2" class="node"><title>Node2586</title>
<g id="a_node2"><a xlink:href="classokw_1_1core_1_1_e_n___keywords___a_n_t_l_r___test.html#a48924242e07099955b1134ab59fefe98" target="_top" xlink:title="okw.core.EN_Keywords\l_ANTLR_Test.tc_VerifyIsActive\l_MemorizedValue">
<polygon fill="white" stroke="black" points="201,-1547.5 201,-1588.5 359,-1588.5 359,-1547.5 201,-1547.5"/>
<text text-anchor="start" x="209" y="-1576.5" font-family="Helvetica,sans-Serif" font-size="10.00">okw.core.EN_Keywords</text>
<text text-anchor="start" x="209" y="-1565.5" font-family="Helvetica,sans-Serif" font-size="10.00">_ANTLR_Test.tc_VerifyIsActive</text>
<text text-anchor="middle" x="280" y="-1554.5" font-family="Helvetica,sans-Serif" font-size="10.00">_MemorizedValue</text>
</a>
</g>
</g>
<!-- Node2585&#45;&gt;Node2586 -->
<g id="edge1" class="edge"><title>Node2585&#45;&gt;Node2586</title>
<path fill="none" stroke="midnightblue" d="M69.9101,-796.848C69.822,-904.873 74.6617,-1421.39 174,-1537 181.247,-1545.43 190.664,-1551.63 200.882,-1556.17"/>
<polygon fill="midnightblue" stroke="midnightblue" points="73.4104,-796.714 69.935,-786.705 66.4104,-796.697 73.4104,-796.714"/>
</g>
<!-- Node2587 -->
<g id="node3" class="node"><title>Node2587</title>
<g id="a_node3"><a xlink:href="classokw_1_1core_1_1_e_n___keywords___d_e_l_e_t_e___test.html#a0e62a17933f21dc8c45b22def98ac192" target="_top" xlink:title="okw.core.EN_Keywords\l_DELETE_Test.tcSelectMenu\l_Value_MV_DELETE_EmptyString">
<polygon fill="white" stroke="black" points="195,-1487.5 195,-1528.5 365,-1528.5 365,-1487.5 195,-1487.5"/>
<text text-anchor="start" x="203" y="-1516.5" font-family="Helvetica,sans-Serif" font-size="10.00">okw.core.EN_Keywords</text>
<text text-anchor="start" x="203" y="-1505.5" font-family="Helvetica,sans-Serif" font-size="10.00">_DELETE_Test.tcSelectMenu</text>
<text text-anchor="middle" x="280" y="-1494.5" font-family="Helvetica,sans-Serif" font-size="10.00">_Value_MV_DELETE_EmptyString</text>
</a>
</g>
</g>
<!-- Node2585&#45;&gt;Node2587 -->
<g id="edge2" class="edge"><title>Node2585&#45;&gt;Node2587</title>
<path fill="none" stroke="midnightblue" d="M70.167,-796.87C71.4307,-899.773 82.2203,-1371.42 174,-1477 179.799,-1483.67 186.955,-1488.94 194.784,-1493.1"/>
<polygon fill="midnightblue" stroke="midnightblue" points="73.6646,-796.62 70.0592,-786.657 66.665,-796.694 73.6646,-796.62"/>
</g>
<!-- Node2588 -->
<g id="node4" class="node"><title>Node2588</title>
<g id="a_node4"><a xlink:href="classokw_1_1core_1_1_e_n___keywords___empty___test.html#a8449e6aa401aca7a8dc5701cfbe6588d" target="_top" xlink:title="Prüft &quot;${EMPTY}&quot; für das Schlüsselwort VerifyValue(string,string) ">
<polygon fill="white" stroke="black" points="202,-1427.5 202,-1468.5 358,-1468.5 358,-1427.5 202,-1427.5"/>
<text text-anchor="start" x="210" y="-1456.5" font-family="Helvetica,sans-Serif" font-size="10.00">okw.core.EN_Keywords</text>
<text text-anchor="start" x="210" y="-1445.5" font-family="Helvetica,sans-Serif" font-size="10.00">_Empty_Test.tc_VerifyTablecell</text>
<text text-anchor="middle" x="280" y="-1434.5" font-family="Helvetica,sans-Serif" font-size="10.00">ValueWCM_Empty</text>
</a>
</g>
</g>
<!-- Node2585&#45;&gt;Node2588 -->
<g id="edge3" class="edge"><title>Node2585&#45;&gt;Node2588</title>
<path fill="none" stroke="midnightblue" d="M70.4524,-797.03C73.0661,-894.979 89.2473,-1322.66 174,-1418 181.557,-1426.5 191.34,-1432.67 201.89,-1437.12"/>
<polygon fill="midnightblue" stroke="midnightblue" points="73.9447,-796.674 70.1972,-786.764 66.9469,-796.848 73.9447,-796.674"/>
</g>
<!-- Node2589 -->
<g id="node5" class="node"><title>Node2589</title>
<g id="a_node5"><a xlink:href="classokw_1_1core_1_1_e_n___keywords___test.html#afef7fb7f909fbf8dab860eec48268f4a" target="_top" xlink:title="okw.core.EN_Keywords\l_Test.tc_VerifyIsActive">
<polygon fill="white" stroke="black" points="219,-1379 219,-1409 341,-1409 341,-1379 219,-1379"/>
<text text-anchor="start" x="227" y="-1397" font-family="Helvetica,sans-Serif" font-size="10.00">okw.core.EN_Keywords</text>
<text text-anchor="middle" x="280" y="-1386" font-family="Helvetica,sans-Serif" font-size="10.00">_Test.tc_VerifyIsActive</text>
</a>
</g>
</g>
<!-- Node2585&#45;&gt;Node2589 -->
<g id="edge4" class="edge"><title>Node2585&#45;&gt;Node2589</title>
<path fill="none" stroke="midnightblue" d="M70.6597,-797.043C74.1496,-890.611 93.4697,-1283.5 174,-1369 185.692,-1381.41 202.339,-1388.16 218.941,-1391.7"/>
<polygon fill="midnightblue" stroke="midnightblue" points="74.1538,-796.811 70.3023,-786.941 67.1582,-797.058 74.1538,-796.811"/>
</g>
<!-- Node2590 -->
<g id="node6" class="node"><title>Node2590</title>
<g id="a_node6"><a xlink:href="classokw_1_1core_1_1_e_n___o_k_w_frame_object_child_not_found_exception___test.html#aef48315ef3e48b52d3cedec5520b7e58" target="_top" xlink:title="Prüft ob die Ausnahme OKWFrameObjectChildNotFoundException durch die LFC&#45;VerifyIsActive ausgelöst wir...">
<polygon fill="white" stroke="black" points="174.5,-1308 174.5,-1360 385.5,-1360 385.5,-1308 174.5,-1308"/>
<text text-anchor="start" x="182.5" y="-1348" font-family="Helvetica,sans-Serif" font-size="10.00">okw.core.EN_OKWFrameObject</text>
<text text-anchor="start" x="182.5" y="-1337" font-family="Helvetica,sans-Serif" font-size="10.00">ChildNotFoundException</text>
<text text-anchor="start" x="182.5" y="-1326" font-family="Helvetica,sans-Serif" font-size="10.00">_Test.TC_VerifyIsActive</text>
<text text-anchor="middle" x="280" y="-1315" font-family="Helvetica,sans-Serif" font-size="10.00">_OKWFrameObjectChildNotFoundException</text>
</a>
</g>
</g>
<!-- Node2585&#45;&gt;Node2590 -->
<g id="edge5" class="edge"><title>Node2585&#45;&gt;Node2590</title>
<path fill="none" stroke="midnightblue" d="M71.3642,-796.895C77.629,-882.743 106.286,-1220.6 174,-1298 177.172,-1301.63 180.726,-1304.89 184.557,-1307.82"/>
<polygon fill="midnightblue" stroke="midnightblue" points="74.8542,-796.629 70.6542,-786.902 67.8718,-797.125 74.8542,-796.629"/>
</g>
<!-- Node2591 -->
<g id="node7" class="node"><title>Node2591</title>
<g id="a_node7"><a xlink:href="classokw_1_1core_1_1_e_n___o_k_w_frame_object_method_not_implemented___test.html#ab0ef684a266ac277c615f75346b35d78" target="_top" xlink:title="Prüft ob die Ausnahme OKWFrameObjectMethodNotImplemented von VerifyIsActive( FN, ExpVal ) ausgelöst w...">
<polygon fill="white" stroke="black" points="179.5,-1237 179.5,-1289 380.5,-1289 380.5,-1237 179.5,-1237"/>
<text text-anchor="start" x="187.5" y="-1277" font-family="Helvetica,sans-Serif" font-size="10.00">okw.core.EN_OKWFrameObject</text>
<text text-anchor="start" x="187.5" y="-1266" font-family="Helvetica,sans-Serif" font-size="10.00">MethodNotImplemented_Test.TC</text>
<text text-anchor="start" x="187.5" y="-1255" font-family="Helvetica,sans-Serif" font-size="10.00">_VerifyIsActive_OKWFrameObjectMethod</text>
<text text-anchor="middle" x="280" y="-1244" font-family="Helvetica,sans-Serif" font-size="10.00">NotImplemented</text>
</a>
</g>
</g>
<!-- Node2585&#45;&gt;Node2591 -->
<g id="edge6" class="edge"><title>Node2585&#45;&gt;Node2591</title>
<path fill="none" stroke="midnightblue" d="M72.0872,-797.038C80.627,-875.445 115.265,-1160.34 174,-1226 177.608,-1230.03 181.683,-1233.63 186.08,-1236.83"/>
<polygon fill="midnightblue" stroke="midnightblue" points="75.5204,-796.225 70.9786,-786.653 68.5599,-796.968 75.5204,-796.225"/>
</g>
<!-- Node2592 -->
<g id="node8" class="node"><title>Node2592</title>
<g id="a_node8"><a xlink:href="classokw_1_1core_1_1_e_n___o_k_w_not_allowed_value_exception___keywords___i_g_n_o_r_e.html#ae73248c833fee94e01dc03f17d4bf84f" target="_top" xlink:title="Prüft ob &quot;${IGNORE} &quot; die Ausnahme okw.exceptions.OKWNotAllowedValueException auslöst. ">
<polygon fill="white" stroke="black" points="190.5,-1176.5 190.5,-1217.5 369.5,-1217.5 369.5,-1176.5 190.5,-1176.5"/>
<text text-anchor="start" x="198.5" y="-1205.5" font-family="Helvetica,sans-Serif" font-size="10.00">okw.core.EN_OKWNotAllowed</text>
<text text-anchor="start" x="198.5" y="-1194.5" font-family="Helvetica,sans-Serif" font-size="10.00">ValueException_Keywords</text>
<text text-anchor="middle" x="280" y="-1183.5" font-family="Helvetica,sans-Serif" font-size="10.00">_IGNORE.tcVerifyIsActiveIGNORE1</text>
</a>
</g>
</g>
<!-- Node2585&#45;&gt;Node2592 -->
<g id="edge7" class="edge"><title>Node2585&#45;&gt;Node2592</title>
<path fill="none" stroke="midnightblue" d="M72.7005,-796.713C82.8496,-868.057 120.858,-1111.47 174,-1166 178.775,-1170.9 184.284,-1175.04 190.226,-1178.52"/>
<polygon fill="midnightblue" stroke="midnightblue" points="76.1648,-796.214 71.3128,-786.795 69.2324,-797.184 76.1648,-796.214"/>
</g>
<!-- Node2593 -->
<g id="node9" class="node"><title>Node2593</title>
<g id="a_node9"><a xlink:href="classokw_1_1core_1_1_e_n___o_k_w_not_allowed_value_exception___keywords___i_g_n_o_r_e.html#a19ef9656eaee897360a374103dad7e4d" target="_top" xlink:title="Prüft ob &quot;&quot;${IGNORE}${TCN}&quot; die Ausnahme okw.exceptions.OKWNotAllowedValueException auslöst...">
<polygon fill="white" stroke="black" points="190.5,-1116.5 190.5,-1157.5 369.5,-1157.5 369.5,-1116.5 190.5,-1116.5"/>
<text text-anchor="start" x="198.5" y="-1145.5" font-family="Helvetica,sans-Serif" font-size="10.00">okw.core.EN_OKWNotAllowed</text>
<text text-anchor="start" x="198.5" y="-1134.5" font-family="Helvetica,sans-Serif" font-size="10.00">ValueException_Keywords</text>
<text text-anchor="middle" x="280" y="-1123.5" font-family="Helvetica,sans-Serif" font-size="10.00">_IGNORE.tcVerifyIsActiveIGNORE2</text>
</a>
</g>
</g>
<!-- Node2585&#45;&gt;Node2593 -->
<g id="edge8" class="edge"><title>Node2585&#45;&gt;Node2593</title>
<path fill="none" stroke="midnightblue" d="M70.1789,-796.871C71.7983,-853.638 84.3895,-1018.08 174,-1106 178.884,-1110.79 184.471,-1114.85 190.467,-1118.28"/>
<polygon fill="midnightblue" stroke="midnightblue" points="73.6756,-796.661 69.9789,-786.732 66.6769,-796.799 73.6756,-796.661"/>
</g>
<!-- Node2594 -->
<g id="node10" class="node"><title>Node2594</title>
<g id="a_node10"><a xlink:href="classokw_1_1core_1_1_e_n___o_k_w_not_allowed_value_exception___test.html#a4bc6ac5b3060a464f3582a492918e527" target="_top" xlink:title="Prüft ob die Ausnahme OKWNotAllowedValueException durch die LFC&#45;VerifyIsActive ausgelöst wird...">
<polygon fill="white" stroke="black" points="179.5,-1045 179.5,-1097 380.5,-1097 380.5,-1045 179.5,-1045"/>
<text text-anchor="start" x="187.5" y="-1085" font-family="Helvetica,sans-Serif" font-size="10.00">okw.core.EN_OKWNotAllowed</text>
<text text-anchor="start" x="187.5" y="-1074" font-family="Helvetica,sans-Serif" font-size="10.00">ValueException_Test.TC</text>
<text text-anchor="start" x="187.5" y="-1063" font-family="Helvetica,sans-Serif" font-size="10.00">_VerifyIsActive_OKWFrameObjectMethod</text>
<text text-anchor="middle" x="280" y="-1052" font-family="Helvetica,sans-Serif" font-size="10.00">NotFoundException</text>
</a>
</g>
</g>
<!-- Node2585&#45;&gt;Node2594 -->
<g id="edge9" class="edge"><title>Node2585&#45;&gt;Node2594</title>
<path fill="none" stroke="midnightblue" d="M72.3566,-796.75C79.0958,-844.542 102.784,-967.454 174,-1035 177.775,-1038.58 181.922,-1041.81 186.32,-1044.71"/>
<polygon fill="midnightblue" stroke="midnightblue" points="75.7876,-795.994 71.0182,-786.534 68.8469,-796.903 75.7876,-795.994"/>
</g>
<!-- Node2595 -->
<g id="node11" class="node"><title>Node2595</title>
<g id="a_node11"><a xlink:href="classokw_1_1_se_b_a_c_k_1_1_se_b_a_c_k___e_n___test.html#a1df415b98469ce6e7d5eca09f37b31f2" target="_top" xlink:title="Prüft, ob die Methode VerifyIsActive für BACK implementiert ist. ">
<polygon fill="white" stroke="black" points="210,-996 210,-1026 350,-1026 350,-996 210,-996"/>
<text text-anchor="start" x="218" y="-1014" font-family="Helvetica,sans-Serif" font-size="10.00">okw.SeBACK.SeBACK_EN</text>
<text text-anchor="middle" x="280" y="-1003" font-family="Helvetica,sans-Serif" font-size="10.00">_Test.tcVerifyIsActive</text>
</a>
</g>
</g>
<!-- Node2585&#45;&gt;Node2595 -->
<g id="edge10" class="edge"><title>Node2585&#45;&gt;Node2595</title>
<path fill="none" stroke="midnightblue" d="M73.941,-796.725C83.3567,-838.494 111.215,-936.115 174,-986 184.343,-994.218 196.953,-999.806 209.796,-1003.59"/>
<polygon fill="midnightblue" stroke="midnightblue" points="77.3165,-795.772 71.8036,-786.724 70.4711,-797.235 77.3165,-795.772"/>
</g>
<!-- Node2596 -->
<g id="node12" class="node"><title>Node2596</title>
<g id="a_node12"><a xlink:href="classokw_1_1_se_button_1_1_se_button___e_n___test.html#ad4ae927522571dcec4f51a082ba15fab" target="_top" xlink:title="Test des Schlüsselwortes VerifyIsActive für den GUI&#45;Adapter SeButton. ">
<polygon fill="white" stroke="black" points="213,-936.5 213,-977.5 347,-977.5 347,-936.5 213,-936.5"/>
<text text-anchor="start" x="221" y="-965.5" font-family="Helvetica,sans-Serif" font-size="10.00">okw.SeButton.SeButton</text>
<text text-anchor="start" x="221" y="-954.5" font-family="Helvetica,sans-Serif" font-size="10.00">_EN_Test.tcVerifyIsActive</text>
<text text-anchor="middle" x="280" y="-943.5" font-family="Helvetica,sans-Serif" font-size="10.00">_ActiveYESExpectedYES</text>
</a>
</g>
</g>
<!-- Node2585&#45;&gt;Node2596 -->
<g id="edge11" class="edge"><title>Node2585&#45;&gt;Node2596</title>
<path fill="none" stroke="midnightblue" d="M78.1904,-796.187C92.7494,-827.994 126.166,-891.543 174,-926 185.49,-934.277 199.184,-940.361 212.828,-944.829"/>
<polygon fill="midnightblue" stroke="midnightblue" points="81.238,-794.426 73.9824,-786.706 74.8398,-797.266 81.238,-794.426"/>
</g>
<!-- Node2597 -->
<g id="node13" class="node"><title>Node2597</title>
<g id="a_node13"><a xlink:href="classokw_1_1_se_button_1_1_se_button___e_n___test.html#a3295d69853462e6795d10312257f2958" target="_top" xlink:title="Test des Schlüsselwortes VerifyIsActive für den GUI&#45;Adapter SeButton. ">
<polygon fill="white" stroke="black" points="213,-876.5 213,-917.5 347,-917.5 347,-876.5 213,-876.5"/>
<text text-anchor="start" x="221" y="-905.5" font-family="Helvetica,sans-Serif" font-size="10.00">okw.SeButton.SeButton</text>
<text text-anchor="start" x="221" y="-894.5" font-family="Helvetica,sans-Serif" font-size="10.00">_EN_Test.tcVerifyIsActive</text>
<text text-anchor="middle" x="280" y="-883.5" font-family="Helvetica,sans-Serif" font-size="10.00">_ActiveYESExpectedNO</text>
</a>
</g>
</g>
<!-- Node2585&#45;&gt;Node2597 -->
<g id="edge12" class="edge"><title>Node2585&#45;&gt;Node2597</title>
<path fill="none" stroke="midnightblue" d="M85.4293,-793.988C104.434,-813.944 138.574,-846.764 174,-866 186.026,-872.53 199.594,-877.84 212.884,-882.098"/>
<polygon fill="midnightblue" stroke="midnightblue" points="87.8565,-791.459 78.4722,-786.541 82.7414,-796.237 87.8565,-791.459"/>
</g>
<!-- Node2598 -->
<g id="node14" class="node"><title>Node2598</title>
<g id="a_node14"><a xlink:href="classokw_1_1_se_button_1_1_se_button___e_n___test.html#afb1db42499109698f522a240c9e57a94" target="_top" xlink:title="Test des Schlüsselwortes VerifyIsActive für den GUI&#45;Adapter SeButton. ">
<polygon fill="white" stroke="black" points="213,-816.5 213,-857.5 347,-857.5 347,-816.5 213,-816.5"/>
<text text-anchor="start" x="221" y="-845.5" font-family="Helvetica,sans-Serif" font-size="10.00">okw.SeButton.SeButton</text>
<text text-anchor="start" x="221" y="-834.5" font-family="Helvetica,sans-Serif" font-size="10.00">_EN_Test.tcVerifyIsActive</text>
<text text-anchor="middle" x="280" y="-823.5" font-family="Helvetica,sans-Serif" font-size="10.00">_ActiveNOExpectedNO</text>
</a>
</g>
</g>
<!-- Node2585&#45;&gt;Node2598 -->
<g id="edge13" class="edge"><title>Node2585&#45;&gt;Node2598</title>
<path fill="none" stroke="midnightblue" d="M112.858,-789.304C141.614,-797.559 180.062,-808.597 212.729,-817.975"/>
<polygon fill="midnightblue" stroke="midnightblue" points="113.694,-785.902 103.117,-786.507 111.763,-792.631 113.694,-785.902"/>
</g>
<!-- Node2599 -->
<g id="node15" class="node"><title>Node2599</title>
<g id="a_node15"><a xlink:href="classokw_1_1_se_button_1_1_se_button___e_n___test.html#a0e6b4fcc17323aba8f032237d2612c92" target="_top" xlink:title="Test des Schlüsselwortes VerifyIsActive für den GUI&#45;Adapter SeButton. ">
<polygon fill="white" stroke="black" points="213,-756.5 213,-797.5 347,-797.5 347,-756.5 213,-756.5"/>
<text text-anchor="start" x="221" y="-785.5" font-family="Helvetica,sans-Serif" font-size="10.00">okw.SeButton.SeButton</text>
<text text-anchor="start" x="221" y="-774.5" font-family="Helvetica,sans-Serif" font-size="10.00">_EN_Test.tcVerifyIsActive</text>
<text text-anchor="middle" x="280" y="-763.5" font-family="Helvetica,sans-Serif" font-size="10.00">_ActiveNOExpectedYES</text>
</a>
</g>
</g>
<!-- Node2585&#45;&gt;Node2599 -->
<g id="edge14" class="edge"><title>Node2585&#45;&gt;Node2599</title>
<path fill="none" stroke="midnightblue" d="M148.402,-777C169.58,-777 192.286,-777 212.728,-777"/>
<polygon fill="midnightblue" stroke="midnightblue" points="148.145,-773.5 138.145,-777 148.145,-780.5 148.145,-773.5"/>
</g>
<!-- Node2600 -->
<g id="node16" class="node"><title>Node2600</title>
<g id="a_node16"><a xlink:href="classokw_1_1_se_input_checkbox_1_1_se_input_checkbox___e_n___test.html#ad572d5badb79741c496835cbb5c2d6df" target="_top" xlink:title="Prüft die SetFocusFunktion bei Textfelder mit dem Attribute &quot;ReadOnly&quot;. ">
<polygon fill="white" stroke="black" points="201,-708 201,-738 359,-738 359,-708 201,-708"/>
<text text-anchor="start" x="209" y="-726" font-family="Helvetica,sans-Serif" font-size="10.00">okw.SeInputCheckbox.SeInput</text>
<text text-anchor="middle" x="280" y="-715" font-family="Helvetica,sans-Serif" font-size="10.00">Checkbox_EN_Test.tcSetFocus</text>
</a>
</g>
</g>
<!-- Node2585&#45;&gt;Node2600 -->
<g id="edge15" class="edge"><title>Node2585&#45;&gt;Node2600</title>
<path fill="none" stroke="midnightblue" d="M110.872,-764.636C129.98,-759.003 153.083,-752.403 174,-747 185.859,-743.937 198.523,-740.87 210.804,-738.002"/>
<polygon fill="midnightblue" stroke="midnightblue" points="109.868,-761.282 101.276,-767.481 111.859,-767.993 109.868,-761.282"/>
</g>
<!-- Node2601 -->
<g id="node17" class="node"><title>Node2601</title>
<g id="a_node17"><a xlink:href="classokw_1_1_se_input_field_1_1_se_input_field___e_n___test.html#a009c63f6089c85d3a4cdeeca992a729d" target="_top" xlink:title="Test des Schlüsselwortes &quot;VerifyValue( FN, ExpVal ) für SeInputText. ">
<polygon fill="white" stroke="black" points="204,-659 204,-689 356,-689 356,-659 204,-659"/>
<text text-anchor="start" x="212" y="-677" font-family="Helvetica,sans-Serif" font-size="10.00">okw.SeInputField.SeInput</text>
<text text-anchor="middle" x="280" y="-666" font-family="Helvetica,sans-Serif" font-size="10.00">Field_EN_Test.tcVerifyCaption</text>
</a>
</g>
</g>
<!-- Node2585&#45;&gt;Node2601 -->
<g id="edge16" class="edge"><title>Node2585&#45;&gt;Node2601</title>
<path fill="none" stroke="midnightblue" d="M87.1679,-760.555C106.675,-742.773 140.209,-714.851 174,-699 183.416,-694.583 193.684,-690.906 203.992,-687.857"/>
<polygon fill="midnightblue" stroke="midnightblue" points="84.6481,-758.119 79.7065,-767.491 89.4139,-763.246 84.6481,-758.119"/>
</g>
<!-- Node2602 -->
<g id="node18" class="node"><title>Node2602</title>
<g id="a_node18"><a xlink:href="classokw_1_1_se_input_field_1_1_se_input_field___e_n___test.html#a27d58cefa1bfc6754c9183baf8d6a41b" target="_top" xlink:title="okw.SeInputField.SeInput\lField_EN_Test.tcSelect\l_OKWGUIObjectNotFoundException">
<polygon fill="white" stroke="black" points="190.5,-599.5 190.5,-640.5 369.5,-640.5 369.5,-599.5 190.5,-599.5"/>
<text text-anchor="start" x="198.5" y="-628.5" font-family="Helvetica,sans-Serif" font-size="10.00">okw.SeInputField.SeInput</text>
<text text-anchor="start" x="198.5" y="-617.5" font-family="Helvetica,sans-Serif" font-size="10.00">Field_EN_Test.tcSelect</text>
<text text-anchor="middle" x="280" y="-606.5" font-family="Helvetica,sans-Serif" font-size="10.00">_OKWGUIObjectNotFoundException</text>
</a>
</g>
</g>
<!-- Node2585&#45;&gt;Node2602 -->
<g id="edge17" class="edge"><title>Node2585&#45;&gt;Node2602</title>
<path fill="none" stroke="midnightblue" d="M80.0522,-758.662C96.1952,-730.937 130.542,-678.564 174,-650 179.387,-646.46 185.194,-643.33 191.217,-640.566"/>
<polygon fill="midnightblue" stroke="midnightblue" points="77.0072,-756.936 75.1164,-767.361 83.0955,-760.391 77.0072,-756.936"/>
</g>
<!-- Node2603 -->
<g id="node19" class="node"><title>Node2603</title>
<g id="a_node19"><a xlink:href="classokw_1_1_se_input_radio_1_1_se_input_radio___e_n___test.html#a103a3f8f0538a52349d5309f5cfc0a82" target="_top" xlink:title="Test des Schlüsselwortes VerifyIsActive für den GUI&#45;Adapter SeInputRadio. ">
<polygon fill="white" stroke="black" points="198,-539.5 198,-580.5 362,-580.5 362,-539.5 198,-539.5"/>
<text text-anchor="start" x="206" y="-568.5" font-family="Helvetica,sans-Serif" font-size="10.00">okw.SeInputRadio.SeInput</text>
<text text-anchor="start" x="206" y="-557.5" font-family="Helvetica,sans-Serif" font-size="10.00">Radio_EN_Test.tc_VerifyIsActive</text>
<text text-anchor="middle" x="280" y="-546.5" font-family="Helvetica,sans-Serif" font-size="10.00">_ActiveYESExpectedYES</text>
</a>
</g>
</g>
<!-- Node2585&#45;&gt;Node2603 -->
<g id="edge18" class="edge"><title>Node2585&#45;&gt;Node2603</title>
<path fill="none" stroke="midnightblue" d="M75.4361,-757.209C86.9733,-718.97 117.586,-634.765 174,-590 181.129,-584.343 189.275,-579.753 197.808,-576.029"/>
<polygon fill="midnightblue" stroke="midnightblue" points="71.9895,-756.529 72.5707,-767.108 78.7134,-758.475 71.9895,-756.529"/>
</g>
<!-- Node2604 -->
<g id="node20" class="node"><title>Node2604</title>
<g id="a_node20"><a xlink:href="classokw_1_1_se_input_radio_1_1_se_input_radio___e_n___test.html#aeafdb24cf304342ae936e3f26fa9a6f8" target="_top" xlink:title="Test des Schlüsselwortes VerifyIsActive für den GUI&#45;Adapter SeInputRadio. ">
<polygon fill="white" stroke="black" points="198,-479.5 198,-520.5 362,-520.5 362,-479.5 198,-479.5"/>
<text text-anchor="start" x="206" y="-508.5" font-family="Helvetica,sans-Serif" font-size="10.00">okw.SeInputRadio.SeInput</text>
<text text-anchor="start" x="206" y="-497.5" font-family="Helvetica,sans-Serif" font-size="10.00">Radio_EN_Test.tc_VerifyIsActive</text>
<text text-anchor="middle" x="280" y="-486.5" font-family="Helvetica,sans-Serif" font-size="10.00">_ActiveYESExpectedNO</text>
</a>
</g>
</g>
<!-- Node2585&#45;&gt;Node2604 -->
<g id="edge19" class="edge"><title>Node2585&#45;&gt;Node2604</title>
<path fill="none" stroke="midnightblue" d="M72.4613,-757.528C79.3912,-711 103.397,-592.587 174,-530 181.023,-523.775 189.255,-518.835 197.967,-514.917"/>
<polygon fill="midnightblue" stroke="midnightblue" points="68.9853,-757.114 71.0789,-767.5 75.919,-758.075 68.9853,-757.114"/>
</g>
<!-- Node2605 -->
<g id="node21" class="node"><title>Node2605</title>
<g id="a_node21"><a xlink:href="classokw_1_1_se_input_radio_1_1_se_input_radio___e_n___test.html#a1d4ca06f67bb39c879f1c103dd8d2e65" target="_top" xlink:title="Test des Schlüsselwortes VerifyIsActive für den GUI&#45;Adapter SeInputRadio. ">
<polygon fill="white" stroke="black" points="198,-419.5 198,-460.5 362,-460.5 362,-419.5 198,-419.5"/>
<text text-anchor="start" x="206" y="-448.5" font-family="Helvetica,sans-Serif" font-size="10.00">okw.SeInputRadio.SeInput</text>
<text text-anchor="start" x="206" y="-437.5" font-family="Helvetica,sans-Serif" font-size="10.00">Radio_EN_Test.tc_VerifyIsActive</text>
<text text-anchor="middle" x="280" y="-426.5" font-family="Helvetica,sans-Serif" font-size="10.00">_ActiveNOExpectedNO</text>
</a>
</g>
</g>
<!-- Node2585&#45;&gt;Node2605 -->
<g id="edge20" class="edge"><title>Node2585&#45;&gt;Node2605</title>
<path fill="none" stroke="midnightblue" d="M70.652,-757.334C73.5366,-703.227 89.1798,-550.817 174,-470 180.863,-463.461 189.05,-458.332 197.783,-454.311"/>
<polygon fill="midnightblue" stroke="midnightblue" points="67.1554,-757.181 70.2098,-767.326 74.1486,-757.491 67.1554,-757.181"/>
</g>
<!-- Node2606 -->
<g id="node22" class="node"><title>Node2606</title>
<g id="a_node22"><a xlink:href="classokw_1_1_se_input_radio_1_1_se_input_radio___e_n___test.html#ac58cbe6fdf4024220f5e0fa62fb4cdc2" target="_top" xlink:title="Test des Schlüsselwortes VerifyIsActive für den GUI&#45;Adapter SeInputRadio. ">
<polygon fill="white" stroke="black" points="198,-359.5 198,-400.5 362,-400.5 362,-359.5 198,-359.5"/>
<text text-anchor="start" x="206" y="-388.5" font-family="Helvetica,sans-Serif" font-size="10.00">okw.SeInputRadio.SeInput</text>
<text text-anchor="start" x="206" y="-377.5" font-family="Helvetica,sans-Serif" font-size="10.00">Radio_EN_Test.tc_VerifyIsActive</text>
<text text-anchor="middle" x="280" y="-366.5" font-family="Helvetica,sans-Serif" font-size="10.00">_ActiveNOExpectedYES</text>
</a>
</g>
</g>
<!-- Node2585&#45;&gt;Node2606 -->
<g id="edge21" class="edge"><title>Node2585&#45;&gt;Node2606</title>
<path fill="none" stroke="midnightblue" d="M69.3758,-757.283C68.5706,-696.405 74.6849,-509.53 174,-410 180.83,-403.156 189.105,-397.848 197.98,-393.736"/>
<polygon fill="midnightblue" stroke="midnightblue" points="65.8796,-757.504 69.5946,-767.426 72.878,-757.353 65.8796,-757.504"/>
</g>
<!-- Node2607 -->
<g id="node23" class="node"><title>Node2607</title>
<g id="a_node23"><a xlink:href="classokw_1_1_se_link_1_1_se_link___e_n___test.html#a0d7cb7adb422a225193c319cbe82de54" target="_top" xlink:title="Prüft ob die VerifyIsActive die Ausnahme OKWFrameObjectMethodNotImplemented auslöst. ">
<polygon fill="white" stroke="black" points="215,-311 215,-341 345,-341 345,-311 215,-311"/>
<text text-anchor="start" x="223" y="-329" font-family="Helvetica,sans-Serif" font-size="10.00">okw.SeLink.SeLink_EN</text>
<text text-anchor="middle" x="280" y="-318" font-family="Helvetica,sans-Serif" font-size="10.00">_Test.tcVerifyIsActive_en</text>
</a>
</g>
</g>
<!-- Node2585&#45;&gt;Node2607 -->
<g id="edge22" class="edge"><title>Node2585&#45;&gt;Node2607</title>
<path fill="none" stroke="midnightblue" d="M72.0777,-757.249C80.47,-681.23 114.309,-408.849 174,-350 184.986,-339.169 199.795,-332.827 214.824,-329.204"/>
<polygon fill="midnightblue" stroke="midnightblue" points="68.581,-757.031 70.9863,-767.349 75.5405,-757.783 68.581,-757.031"/>
</g>
<!-- Node2608 -->
<g id="node24" class="node"><title>Node2608</title>
<g id="a_node24"><a xlink:href="classokw_1_1_se_m_a_x_i_m_i_z_e_1_1_se_m_a_x_i_m_i_z_e___e_n___test.html#ad1343eba452b03a2767bcdc7b7197746" target="_top" xlink:title="Prüft, ob die Methode VerifyIsActive für MAXIMIZE implementiert ist. ">
<polygon fill="white" stroke="black" points="199,-262 199,-292 361,-292 361,-262 199,-262"/>
<text text-anchor="start" x="207" y="-280" font-family="Helvetica,sans-Serif" font-size="10.00">okw.SeMAXIMIZE.SeMAXIMIZE</text>
<text text-anchor="middle" x="280" y="-269" font-family="Helvetica,sans-Serif" font-size="10.00">_EN_Test.tcVerifyIsActive</text>
</a>
</g>
</g>
<!-- Node2585&#45;&gt;Node2608 -->
<g id="edge23" class="edge"><title>Node2585&#45;&gt;Node2608</title>
<path fill="none" stroke="midnightblue" d="M71.5788,-757.191C78.459,-675.861 108.464,-368.739 174,-302 180.958,-294.914 189.536,-289.69 198.764,-285.862"/>
<polygon fill="midnightblue" stroke="midnightblue" points="68.0627,-757.243 70.73,-767.497 75.0391,-757.818 68.0627,-757.243"/>
</g>
<!-- Node2609 -->
<g id="node25" class="node"><title>Node2609</title>
<g id="a_node25"><a xlink:href="classokw_1_1_se_radio_list_1_1_se_radio_list___e_n___test.html#a15a728ef8e75aaa8dba0f259ec3c4d3a" target="_top" xlink:title="Prüft die Methode SeRadioList.IsActive(). ">
<polygon fill="white" stroke="black" points="206.5,-202.5 206.5,-243.5 353.5,-243.5 353.5,-202.5 206.5,-202.5"/>
<text text-anchor="start" x="214.5" y="-231.5" font-family="Helvetica,sans-Serif" font-size="10.00">okw.SeRadioList.SeRadioList</text>
<text text-anchor="start" x="214.5" y="-220.5" font-family="Helvetica,sans-Serif" font-size="10.00">_EN_Test.tcVerifyIsActive</text>
<text text-anchor="middle" x="280" y="-209.5" font-family="Helvetica,sans-Serif" font-size="10.00">_IsActiveYesExpectedYes</text>
</a>
</g>
</g>
<!-- Node2585&#45;&gt;Node2609 -->
<g id="edge24" class="edge"><title>Node2585&#45;&gt;Node2609</title>
<path fill="none" stroke="midnightblue" d="M71.2284,-757.193C76.9668,-670.957 103.874,-329.154 174,-253 182.733,-243.516 194.235,-236.954 206.419,-232.431"/>
<polygon fill="midnightblue" stroke="midnightblue" points="67.7201,-757.21 70.5691,-767.414 74.7056,-757.66 67.7201,-757.21"/>
</g>
<!-- Node2610 -->
<g id="node26" class="node"><title>Node2610</title>
<g id="a_node26"><a xlink:href="classokw_1_1_se_radio_list_1_1_se_radio_list___e_n___test.html#ab578bc0d5f70f96f96db2f2c26895cb2" target="_top" xlink:title="Prüft die Methode SeRadioList.IsActive(). ">
<polygon fill="white" stroke="black" points="206.5,-142.5 206.5,-183.5 353.5,-183.5 353.5,-142.5 206.5,-142.5"/>
<text text-anchor="start" x="214.5" y="-171.5" font-family="Helvetica,sans-Serif" font-size="10.00">okw.SeRadioList.SeRadioList</text>
<text text-anchor="start" x="214.5" y="-160.5" font-family="Helvetica,sans-Serif" font-size="10.00">_EN_Test.tcVerifyIsActive</text>
<text text-anchor="middle" x="280" y="-149.5" font-family="Helvetica,sans-Serif" font-size="10.00">_IsActiveNoExpectedNo</text>
</a>
</g>
</g>
<!-- Node2585&#45;&gt;Node2610 -->
<g id="edge25" class="edge"><title>Node2585&#45;&gt;Node2610</title>
<path fill="none" stroke="midnightblue" d="M70.7968,-757.021C74.8822,-664.548 96.4031,-278.95 174,-193 182.639,-183.431 194.097,-176.829 206.267,-172.292"/>
<polygon fill="midnightblue" stroke="midnightblue" points="67.2907,-757.092 70.3653,-767.231 74.2845,-757.388 67.2907,-757.092"/>
</g>
<!-- Node2611 -->
<g id="node27" class="node"><title>Node2611</title>
<g id="a_node27"><a xlink:href="classokw_1_1_se_radio_list_1_1_se_radio_list___e_n___test.html#a19bc66e33e21e3f1858b79cd2ba6b37a" target="_top" xlink:title="Prüft die Methode SeRadioList.IsActive(). ">
<polygon fill="white" stroke="black" points="181.5,-71 181.5,-123 378.5,-123 378.5,-71 181.5,-71"/>
<text text-anchor="start" x="189.5" y="-111" font-family="Helvetica,sans-Serif" font-size="10.00">okw.SeRadioList.SeRadioList</text>
<text text-anchor="start" x="189.5" y="-100" font-family="Helvetica,sans-Serif" font-size="10.00">_EN_Test.tcVerifyIsActive</text>
<text text-anchor="start" x="189.5" y="-89" font-family="Helvetica,sans-Serif" font-size="10.00">_IsActiveYesExpectedNo_OKWVerifying</text>
<text text-anchor="middle" x="280" y="-78" font-family="Helvetica,sans-Serif" font-size="10.00">FailsException</text>
</a>
</g>
</g>
<!-- Node2585&#45;&gt;Node2611 -->
<g id="edge26" class="edge"><title>Node2585&#45;&gt;Node2611</title>
<path fill="none" stroke="midnightblue" d="M70.5399,-756.965C73.5692,-658.979 91.4154,-230.987 174,-133 177.105,-129.316 180.605,-126.008 184.392,-123.039"/>
<polygon fill="midnightblue" stroke="midnightblue" points="67.0335,-757.136 70.2406,-767.234 74.0306,-757.34 67.0335,-757.136"/>
</g>
<!-- Node2612 -->
<g id="node28" class="node"><title>Node2612</title>
<g id="a_node28"><a xlink:href="classokw_1_1_se_radio_list_1_1_se_radio_list___e_n___test.html#a4f34676079afa812c5891ade99cb2161" target="_top" xlink:title="Prüft die Methode SeRadioList.IsActive(). ">
<polygon fill="white" stroke="black" points="181.5,-0 181.5,-52 378.5,-52 378.5,-0 181.5,-0"/>
<text text-anchor="start" x="189.5" y="-40" font-family="Helvetica,sans-Serif" font-size="10.00">okw.SeRadioList.SeRadioList</text>
<text text-anchor="start" x="189.5" y="-29" font-family="Helvetica,sans-Serif" font-size="10.00">_EN_Test.tcVerifyIsActive</text>
<text text-anchor="start" x="189.5" y="-18" font-family="Helvetica,sans-Serif" font-size="10.00">_IsActiveNoExpectedYes_OKWVerifying</text>
<text text-anchor="middle" x="280" y="-7" font-family="Helvetica,sans-Serif" font-size="10.00">FailsException</text>
</a>
</g>
</g>
<!-- Node2585&#45;&gt;Node2612 -->
<g id="edge27" class="edge"><title>Node2585&#45;&gt;Node2612</title>
<path fill="none" stroke="midnightblue" d="M70.1846,-757.099C71.5392,-653.032 82.7215,-172.041 174,-62 176.953,-58.4403 180.275,-55.2316 183.871,-52.3394"/>
<polygon fill="midnightblue" stroke="midnightblue" points="66.684,-757.134 70.0699,-767.174 73.6836,-757.214 66.684,-757.134"/>
</g>
</g>
</svg>
