<?xml version="1.0" encoding="UTF-8" standalone="no"?>
<!DOCTYPE svg PUBLIC "-//W3C//DTD SVG 1.1//EN"
 "http://www.w3.org/Graphics/SVG/1.1/DTD/svg11.dtd">
<!-- Generated by graphviz version 2.36.0 (20140111.2315)
 -->
<!-- Title: okw.gui.frames.frmSafari Pages: 1 -->
<!--zoomable 766 -->
<svg id="main" version="1.1" xmlns="http://www.w3.org/2000/svg" xmlns:xlink="http://www.w3.org/1999/xlink" xml:space="preserve" onload="init(evt)">
<style type="text/css"><![CDATA[
.edge:hover path { stroke: red; }
.edge:hover polygon { stroke: red; fill: red; }
]]></style>
<script type="text/javascript"><![CDATA[
var edges = document.getElementsByTagName('g');
if (edges && edges.length) {
  for (var i=0;i<edges.length;i++) {
    if (edges[i].id.substr(0,4)=='edge') {
      edges[i].setAttribute('class','edge');
    }
  }
}
]]></script>
        <defs>
                <circle id="rim" cx="0" cy="0" r="7"/>
                <circle id="rim2" cx="0" cy="0" r="3.5"/>
                <g id="zoomPlus">
                        <use xlink:href="#rim" fill="#404040">
                                <set attributeName="fill" to="#808080" begin="zoomplus.mouseover" end="zoomplus.mouseout"/>
                        </use>
                        <path d="M-4,0h8M0,-4v8" fill="none" stroke="white" stroke-width="1.5" pointer-events="none"/>
                </g>
                <g id="zoomMin">
                        <use xlink:href="#rim" fill="#404040">
                                <set attributeName="fill" to="#808080" begin="zoomminus.mouseover" end="zoomminus.mouseout"/>
                        </use>
                        <path d="M-4,0h8" fill="none" stroke="white" stroke-width="1.5" pointer-events="none"/>
                </g>
                <g id="dirArrow">
                        <path fill="none" stroke="white" stroke-width="1.5" d="M0,-3.0v7 M-2.5,-0.5L0,-3.0L2.5,-0.5"/>
                </g>
               <g id="resetDef">
                       <use xlink:href="#rim2" fill="#404040">
                               <set attributeName="fill" to="#808080" begin="reset.mouseover" end="reset.mouseout"/>
                       </use>
               </g>
        </defs>

<script type="text/javascript">
var viewWidth = 411;
var viewHeight = 766;
var sectionId = 'dynsection-0';
</script>
<script xlink:href="svgpan.js"/>
<svg id="graph" class="graph">
<g id="viewport">
<title>okw.gui.frames.frmSafari</title>
<polygon fill="white" stroke="none" points="-4,4 -4,-762 407,-762 407,4 -4,4"/>
<!-- Node0 -->
<g id="node1" class="node"><title>Node0</title>
<polygon fill="#bfbfbf" stroke="black" points="153,-0.5 153,-57.5 279,-57.5 279,-0.5 153,-0.5"/>
<text text-anchor="middle" x="216" y="-45.5" font-family="Helvetica,sans-Serif" font-size="10.00">okw.gui.frames.frmSafari</text>
<polyline fill="none" stroke="black" points="153,-38.5 279,-38.5 "/>
<text text-anchor="start" x="161" y="-26.5" font-family="Helvetica,sans-Serif" font-size="10.00">+ URL</text>
<polyline fill="none" stroke="black" points="153,-19.5 279,-19.5 "/>
<text text-anchor="middle" x="216" y="-7.5" font-family="Helvetica,sans-Serif" font-size="10.00"> </text>
</g>
<!-- Node1 -->
<g id="node2" class="node"><title>Node1</title>
<g id="a_node2"><a xlink:href="classokw_1_1gui_1_1adapter_1_1selenium_1_1webdriver_1_1_se_safari_app.html" target="_top" xlink:title="OKW Selenium FireFox BrowserWindow Klasse. ">
<polygon fill="white" stroke="black" points="128,-94.5 128,-217.5 304,-217.5 304,-94.5 128,-94.5"/>
<text text-anchor="start" x="136" y="-205.5" font-family="Helvetica,sans-Serif" font-size="10.00">okw.gui.adapter.selenium.webdriver.</text>
<text text-anchor="middle" x="216" y="-194.5" font-family="Helvetica,sans-Serif" font-size="10.00">SeSafariApp</text>
<polyline fill="none" stroke="black" points="128,-187.5 304,-187.5 "/>
<text text-anchor="start" x="136" y="-175.5" font-family="Helvetica,sans-Serif" font-size="10.00"># MyLogger</text>
<polyline fill="none" stroke="black" points="128,-168.5 304,-168.5 "/>
<text text-anchor="start" x="136" y="-156.5" font-family="Helvetica,sans-Serif" font-size="10.00">+ SeSafariApp()</text>
<text text-anchor="start" x="136" y="-145.5" font-family="Helvetica,sans-Serif" font-size="10.00">+ Init()</text>
<text text-anchor="start" x="136" y="-134.5" font-family="Helvetica,sans-Serif" font-size="10.00">+ SelectWindow()</text>
<text text-anchor="start" x="136" y="-123.5" font-family="Helvetica,sans-Serif" font-size="10.00">+ StartApp()</text>
<text text-anchor="start" x="136" y="-112.5" font-family="Helvetica,sans-Serif" font-size="10.00">+ StopApp()</text>
<text text-anchor="start" x="136" y="-101.5" font-family="Helvetica,sans-Serif" font-size="10.00">+ TypeKey()</text>
</a>
</g>
</g>
<!-- Node1&#45;&gt;Node0 -->
<g id="edge1" class="edge"><title>Node1&#45;&gt;Node0</title>
<path fill="none" stroke="midnightblue" d="M216,-84.1384C216,-74.7999 216,-65.715 216,-57.7379"/>
<polygon fill="none" stroke="midnightblue" points="212.5,-84.3308 216,-94.3308 219.5,-84.3309 212.5,-84.3308"/>
</g>
<!-- Node2 -->
<g id="node3" class="node"><title>Node2</title>
<g id="a_node3"><a xlink:href="classokw_1_1gui_1_1_any_window.html" target="_top" xlink:title="Description of AnyWin. ">
<polygon fill="white" stroke="black" points="152,-254.5 152,-443.5 280,-443.5 280,-254.5 152,-254.5"/>
<text text-anchor="middle" x="216" y="-431.5" font-family="Helvetica,sans-Serif" font-size="10.00">okw.gui.AnyWindow</text>
<polyline fill="none" stroke="black" points="152,-424.5 280,-424.5 "/>
<text text-anchor="middle" x="216" y="-412.5" font-family="Helvetica,sans-Serif" font-size="10.00"> </text>
<polyline fill="none" stroke="black" points="152,-405.5 280,-405.5 "/>
<text text-anchor="start" x="160" y="-393.5" font-family="Helvetica,sans-Serif" font-size="10.00">+ AnyWindow()</text>
<text text-anchor="start" x="160" y="-382.5" font-family="Helvetica,sans-Serif" font-size="10.00">+ setLocator()</text>
<text text-anchor="start" x="160" y="-371.5" font-family="Helvetica,sans-Serif" font-size="10.00">+ getExists()</text>
<text text-anchor="start" x="160" y="-360.5" font-family="Helvetica,sans-Serif" font-size="10.00">+ getCaption()</text>
<text text-anchor="start" x="160" y="-349.5" font-family="Helvetica,sans-Serif" font-size="10.00">+ getIsActive()</text>
<text text-anchor="start" x="160" y="-338.5" font-family="Helvetica,sans-Serif" font-size="10.00">+ TypeKeyWindow()</text>
<text text-anchor="start" x="160" y="-327.5" font-family="Helvetica,sans-Serif" font-size="10.00">+ SelectWindow()</text>
<text text-anchor="start" x="160" y="-316.5" font-family="Helvetica,sans-Serif" font-size="10.00">+ StartApp()</text>
<text text-anchor="start" x="160" y="-305.5" font-family="Helvetica,sans-Serif" font-size="10.00">+ StopApp()</text>
<text text-anchor="start" x="160" y="-294.5" font-family="Helvetica,sans-Serif" font-size="10.00">+ VerifyWindowExists()</text>
<text text-anchor="start" x="160" y="-283.5" font-family="Helvetica,sans-Serif" font-size="10.00">+ VerifyIsWindowActive()</text>
<text text-anchor="start" x="160" y="-272.5" font-family="Helvetica,sans-Serif" font-size="10.00">+ VerifyWindowCaption()</text>
<text text-anchor="start" x="160" y="-261.5" font-family="Helvetica,sans-Serif" font-size="10.00">+ WaitForMe()</text>
</a>
</g>
</g>
<!-- Node2&#45;&gt;Node1 -->
<g id="edge2" class="edge"><title>Node2&#45;&gt;Node1</title>
<path fill="none" stroke="midnightblue" d="M216,-244.231C216,-235.195 216,-226.258 216,-217.747"/>
<polygon fill="none" stroke="midnightblue" points="212.5,-244.458 216,-254.458 219.5,-244.458 212.5,-244.458"/>
</g>
<!-- Node3 -->
<g id="node4" class="node"><title>Node3</title>
<g id="a_node4"><a xlink:href="classokw_1_1gui_1_1_any_win_base.html" target="_top" xlink:title="Description of AnyWin. ">
<polygon fill="white" stroke="black" points="0,-480.5 0,-757.5 134,-757.5 134,-480.5 0,-480.5"/>
<text text-anchor="middle" x="67" y="-745.5" font-family="Helvetica,sans-Serif" font-size="10.00">okw.gui.AnyWinBase</text>
<polyline fill="none" stroke="black" points="0,-738.5 134,-738.5 "/>
<text text-anchor="start" x="8" y="-726.5" font-family="Helvetica,sans-Serif" font-size="10.00">~ myLogger</text>
<text text-anchor="start" x="8" y="-715.5" font-family="Helvetica,sans-Serif" font-size="10.00"># _locator</text>
<text text-anchor="start" x="8" y="-704.5" font-family="Helvetica,sans-Serif" font-size="10.00">&#45; myFN</text>
<text text-anchor="start" x="8" y="-693.5" font-family="Helvetica,sans-Serif" font-size="10.00">&#45; myKN</text>
<text text-anchor="start" x="8" y="-682.5" font-family="Helvetica,sans-Serif" font-size="10.00">&#45; myParentFN</text>
<polyline fill="none" stroke="black" points="0,-675.5 134,-675.5 "/>
<text text-anchor="start" x="8" y="-663.5" font-family="Helvetica,sans-Serif" font-size="10.00">+ getLocator()</text>
<text text-anchor="start" x="8" y="-652.5" font-family="Helvetica,sans-Serif" font-size="10.00">+ getLOCATOR()</text>
<text text-anchor="start" x="8" y="-641.5" font-family="Helvetica,sans-Serif" font-size="10.00">+ getExists()</text>
<text text-anchor="start" x="8" y="-630.5" font-family="Helvetica,sans-Serif" font-size="10.00">+ AnyWinBase()</text>
<text text-anchor="start" x="8" y="-619.5" font-family="Helvetica,sans-Serif" font-size="10.00">+ AnyWinBase()</text>
<text text-anchor="start" x="8" y="-608.5" font-family="Helvetica,sans-Serif" font-size="10.00">+ getFN()</text>
<text text-anchor="start" x="8" y="-597.5" font-family="Helvetica,sans-Serif" font-size="10.00">+ getKN()</text>
<text text-anchor="start" x="8" y="-586.5" font-family="Helvetica,sans-Serif" font-size="10.00">+ getParentFN()</text>
<text text-anchor="start" x="8" y="-575.5" font-family="Helvetica,sans-Serif" font-size="10.00">+ setFN()</text>
<text text-anchor="start" x="8" y="-564.5" font-family="Helvetica,sans-Serif" font-size="10.00">+ setKN()</text>
<text text-anchor="start" x="8" y="-553.5" font-family="Helvetica,sans-Serif" font-size="10.00">+ setParentFN()</text>
<text text-anchor="start" x="8" y="-542.5" font-family="Helvetica,sans-Serif" font-size="10.00"># LogFunctionStartDebug()</text>
<text text-anchor="start" x="8" y="-531.5" font-family="Helvetica,sans-Serif" font-size="10.00"># LogFunctionStartDebug()</text>
<text text-anchor="start" x="8" y="-520.5" font-family="Helvetica,sans-Serif" font-size="10.00"># LogFunctionEndDebug()</text>
<text text-anchor="start" x="8" y="-509.5" font-family="Helvetica,sans-Serif" font-size="10.00"># LogFunctionEndDebug()</text>
<text text-anchor="start" x="8" y="-498.5" font-family="Helvetica,sans-Serif" font-size="10.00"># LogFunctionEndDebug()</text>
<text text-anchor="start" x="8" y="-487.5" font-family="Helvetica,sans-Serif" font-size="10.00"># LogFunctionEndDebug()</text>
</a>
</g>
</g>
<!-- Node3&#45;&gt;Node2 -->
<g id="edge3" class="edge"><title>Node3&#45;&gt;Node2</title>
<path fill="none" stroke="midnightblue" d="M138.991,-487.214C140.338,-484.789 141.675,-482.383 143,-480 149.542,-468.237 156.438,-455.889 163.275,-443.678"/>
<polygon fill="none" stroke="midnightblue" points="135.873,-485.621 134.082,-496.064 141.994,-489.017 135.873,-485.621"/>
</g>
<!-- Node4 -->
<g id="node5" class="node"><title>Node4</title>
<g id="a_node5"><a xlink:href="interfaceokw_1_1gui_1_1_i_g_u_i_window.html" target="_top" xlink:title="{okw.gui.IGUIWindow\n||+ getCaption()\l+ getExists()\l+ getIsActive()\l+ TypeKeyWindow()\l+ SelectWindow()\l+ StartApp()\l+ StopApp()\l+ VerifyWindowExists()\l+ VerifyIsWindowActive()\l+ VerifyWindowCaption()\l}">
<polygon fill="white" stroke="black" points="152,-541 152,-697 280,-697 280,-541 152,-541"/>
<text text-anchor="middle" x="216" y="-685" font-family="Helvetica,sans-Serif" font-size="10.00">okw.gui.IGUIWindow</text>
<polyline fill="none" stroke="black" points="152,-678 280,-678 "/>
<text text-anchor="middle" x="216" y="-666" font-family="Helvetica,sans-Serif" font-size="10.00"> </text>
<polyline fill="none" stroke="black" points="152,-659 280,-659 "/>
<text text-anchor="start" x="160" y="-647" font-family="Helvetica,sans-Serif" font-size="10.00">+ getCaption()</text>
<text text-anchor="start" x="160" y="-636" font-family="Helvetica,sans-Serif" font-size="10.00">+ getExists()</text>
<text text-anchor="start" x="160" y="-625" font-family="Helvetica,sans-Serif" font-size="10.00">+ getIsActive()</text>
<text text-anchor="start" x="160" y="-614" font-family="Helvetica,sans-Serif" font-size="10.00">+ TypeKeyWindow()</text>
<text text-anchor="start" x="160" y="-603" font-family="Helvetica,sans-Serif" font-size="10.00">+ SelectWindow()</text>
<text text-anchor="start" x="160" y="-592" font-family="Helvetica,sans-Serif" font-size="10.00">+ StartApp()</text>
<text text-anchor="start" x="160" y="-581" font-family="Helvetica,sans-Serif" font-size="10.00">+ StopApp()</text>
<text text-anchor="start" x="160" y="-570" font-family="Helvetica,sans-Serif" font-size="10.00">+ VerifyWindowExists()</text>
<text text-anchor="start" x="160" y="-559" font-family="Helvetica,sans-Serif" font-size="10.00">+ VerifyIsWindowActive()</text>
<text text-anchor="start" x="160" y="-548" font-family="Helvetica,sans-Serif" font-size="10.00">+ VerifyWindowCaption()</text>
</a>
</g>
</g>
<!-- Node4&#45;&gt;Node2 -->
<g id="edge4" class="edge"><title>Node4&#45;&gt;Node2</title>
<path fill="none" stroke="midnightblue" d="M216,-530.738C216,-502.903 216,-471.992 216,-443.719"/>
<polygon fill="none" stroke="midnightblue" points="212.5,-530.843 216,-540.843 219.5,-530.843 212.5,-530.843"/>
</g>
<!-- Node5 -->
<g id="node6" class="node"><title>Node5</title>
<g id="a_node6"><a xlink:href="interfaceokw_1_1core_1_1_i_o_k_w___f_n.html" target="_top" xlink:title="{okw.core.IOKW_FN\n||+ setKN()\l+ setFN()\l+ setParentFN()\l+ getKN()\l+ getFN()\l+ getParentFN()\l}">
<polygon fill="white" stroke="black" points="298.5,-563 298.5,-675 403.5,-675 403.5,-563 298.5,-563"/>
<text text-anchor="middle" x="351" y="-663" font-family="Helvetica,sans-Serif" font-size="10.00">okw.core.IOKW_FN</text>
<polyline fill="none" stroke="black" points="298.5,-656 403.5,-656 "/>
<text text-anchor="middle" x="351" y="-644" font-family="Helvetica,sans-Serif" font-size="10.00"> </text>
<polyline fill="none" stroke="black" points="298.5,-637 403.5,-637 "/>
<text text-anchor="start" x="306.5" y="-625" font-family="Helvetica,sans-Serif" font-size="10.00">+ setKN()</text>
<text text-anchor="start" x="306.5" y="-614" font-family="Helvetica,sans-Serif" font-size="10.00">+ setFN()</text>
<text text-anchor="start" x="306.5" y="-603" font-family="Helvetica,sans-Serif" font-size="10.00">+ setParentFN()</text>
<text text-anchor="start" x="306.5" y="-592" font-family="Helvetica,sans-Serif" font-size="10.00">+ getKN()</text>
<text text-anchor="start" x="306.5" y="-581" font-family="Helvetica,sans-Serif" font-size="10.00">+ getFN()</text>
<text text-anchor="start" x="306.5" y="-570" font-family="Helvetica,sans-Serif" font-size="10.00">+ getParentFN()</text>
</a>
</g>
</g>
<!-- Node5&#45;&gt;Node2 -->
<g id="edge5" class="edge"><title>Node5&#45;&gt;Node2</title>
<path fill="none" stroke="midnightblue" d="M323.358,-553.289C313.024,-529.973 300.899,-503.602 289,-480 282.999,-468.097 276.458,-455.721 269.838,-443.546"/>
<polygon fill="none" stroke="midnightblue" points="320.286,-554.999 327.522,-562.737 326.692,-552.175 320.286,-554.999"/>
</g>
</g>
</svg>
        <g id="navigator" transform="translate(0 0)" fill="#404254">
                <rect fill="#f2f5e9" fill-opacity="0.5" stroke="#606060" stroke-width=".5" x="0" y="0" width="60" height="60"/>
                <use id="zoomplus" xlink:href="#zoomPlus" x="17" y="9" onmousedown="handleZoom(evt,'in')"/>
                <use id="zoomminus" xlink:href="#zoomMin" x="42" y="9" onmousedown="handleZoom(evt,'out')"/>
                <use id="reset" xlink:href="#resetDef" x="30" y="36" onmousedown="handleReset()"/>
                <g id="arrowUp" xlink:href="#dirArrow" transform="translate(30 24)" onmousedown="handlePan(0,-1)">
                  <use xlink:href="#rim" fill="#404040">
                        <set attributeName="fill" to="#808080" begin="arrowUp.mouseover" end="arrowUp.mouseout"/>
                  </use>
                  <path fill="none" stroke="white" stroke-width="1.5" d="M0,-3.0v7 M-2.5,-0.5L0,-3.0L2.5,-0.5"/>
                </g>
                <g id="arrowRight" xlink:href="#dirArrow" transform="rotate(90) translate(36 -43)" onmousedown="handlePan(1,0)">
                  <use xlink:href="#rim" fill="#404040">
                        <set attributeName="fill" to="#808080" begin="arrowRight.mouseover" end="arrowRight.mouseout"/>
                  </use>
                  <path fill="none" stroke="white" stroke-width="1.5" d="M0,-3.0v7 M-2.5,-0.5L0,-3.0L2.5,-0.5"/>
                </g>
                <g id="arrowDown" xlink:href="#dirArrow" transform="rotate(180) translate(-30 -48)" onmousedown="handlePan(0,1)">
                  <use xlink:href="#rim" fill="#404040">
                        <set attributeName="fill" to="#808080" begin="arrowDown.mouseover" end="arrowDown.mouseout"/>
                  </use>
                  <path fill="none" stroke="white" stroke-width="1.5" d="M0,-3.0v7 M-2.5,-0.5L0,-3.0L2.5,-0.5"/>
                </g>
                <g id="arrowLeft" xlink:href="#dirArrow" transform="rotate(270) translate(-36 17)" onmousedown="handlePan(-1,0)">
                  <use xlink:href="#rim" fill="#404040">
                        <set attributeName="fill" to="#808080" begin="arrowLeft.mouseover" end="arrowLeft.mouseout"/>
                  </use>
                  <path fill="none" stroke="white" stroke-width="1.5" d="M0,-3.0v7 M-2.5,-0.5L0,-3.0L2.5,-0.5"/>
                </g>
        </g>
        <svg viewBox="0 0 15 15" width="100%" height="30px" preserveAspectRatio="xMaxYMin meet">
         <g id="arrow_out" transform="scale(0.3 0.3)">
          <a xlink:href="classokw_1_1gui_1_1frames_1_1frm_safari__inherit__graph_org.svg" target="_base">
           <rect id="button" ry="5" rx="5" y="6" x="6" height="38" width="38"
                fill="#f2f5e9" fill-opacity="0.5" stroke="#606060" stroke-width="1.0"/>
           <path id="arrow"
             d="M 11.500037,31.436501 C 11.940474,20.09759 22.043105,11.32322 32.158766,21.979434 L 37.068811,17.246167 C 37.068811,17.246167 37.088388,32 37.088388,32 L 22.160133,31.978069 C 22.160133,31.978069 26.997745,27.140456 26.997745,27.140456 C 18.528582,18.264221 13.291696,25.230495 11.500037,31.436501 z"
             style="fill:#404040;"/>
          </a>
         </g>
        </svg>
</svg>
