<?xml version="1.0" encoding="UTF-8" standalone="no"?>
<!DOCTYPE svg PUBLIC "-//W3C//DTD SVG 1.1//EN"
 "http://www.w3.org/Graphics/SVG/1.1/DTD/svg11.dtd">
<!-- Generated by graphviz version 2.36.0 (20140111.2315)
 -->
<!-- Title: okw.core.Core.VerifyTablecellValueWCM Pages: 1 -->
<!--zoomable 1230 -->
<svg id="main" version="1.1" xmlns="http://www.w3.org/2000/svg" xmlns:xlink="http://www.w3.org/1999/xlink" xml:space="preserve" onload="init(evt)">
<style type="text/css"><![CDATA[
.edge:hover path { stroke: red; }
.edge:hover polygon { stroke: red; fill: red; }
]]></style>
<script type="text/javascript"><![CDATA[
var edges = document.getElementsByTagName('g');
if (edges && edges.length) {
  for (var i=0;i<edges.length;i++) {
    if (edges[i].id.substr(0,4)=='edge') {
      edges[i].setAttribute('class','edge');
    }
  }
}
]]></script>
        <defs>
                <circle id="rim" cx="0" cy="0" r="7"/>
                <circle id="rim2" cx="0" cy="0" r="3.5"/>
                <g id="zoomPlus">
                        <use xlink:href="#rim" fill="#404040">
                                <set attributeName="fill" to="#808080" begin="zoomplus.mouseover" end="zoomplus.mouseout"/>
                        </use>
                        <path d="M-4,0h8M0,-4v8" fill="none" stroke="white" stroke-width="1.5" pointer-events="none"/>
                </g>
                <g id="zoomMin">
                        <use xlink:href="#rim" fill="#404040">
                                <set attributeName="fill" to="#808080" begin="zoomminus.mouseover" end="zoomminus.mouseout"/>
                        </use>
                        <path d="M-4,0h8" fill="none" stroke="white" stroke-width="1.5" pointer-events="none"/>
                </g>
                <g id="dirArrow">
                        <path fill="none" stroke="white" stroke-width="1.5" d="M0,-3.0v7 M-2.5,-0.5L0,-3.0L2.5,-0.5"/>
                </g>
               <g id="resetDef">
                       <use xlink:href="#rim2" fill="#404040">
                               <set attributeName="fill" to="#808080" begin="reset.mouseover" end="reset.mouseout"/>
                       </use>
               </g>
        </defs>

<script type="text/javascript">
var viewWidth = 604;
var viewHeight = 1230;
var sectionId = 'dynsection-121';
</script>
<script xlink:href="svgpan.js"/>
<svg id="graph" class="graph">
<g id="viewport">
<title>okw.core.Core.VerifyTablecellValueWCM</title>
<polygon fill="white" stroke="none" points="-4,4 -4,-1226 600,-1226 600,4 -4,4"/>
<!-- Node4100 -->
<g id="node1" class="node"><title>Node4100</title>
<polygon fill="#bfbfbf" stroke="black" points="0,-634 0,-664 148,-664 148,-634 0,-634"/>
<text text-anchor="start" x="8" y="-652" font-family="Helvetica,sans-Serif" font-size="10.00">okw.core.Core.VerifyTablecell</text>
<text text-anchor="middle" x="74" y="-641" font-family="Helvetica,sans-Serif" font-size="10.00">ValueWCM</text>
</g>
<!-- Node4101 -->
<g id="node2" class="node"><title>Node4101</title>
<g id="a_node2"><a xlink:href="classokw_1_1core_1_1_e_n.html#aae92a9bb1e550b16be588fbd38c39038" target="_top" xlink:title="Vergleicht den Inhalt der gegebenen Tabellenzelle mit dem erwarteten Wert. ">
<polygon fill="white" stroke="black" points="184.5,-634 184.5,-664 325.5,-664 325.5,-634 184.5,-634"/>
<text text-anchor="start" x="192.5" y="-652" font-family="Helvetica,sans-Serif" font-size="10.00">okw.core.EN.VerifyTablecell</text>
<text text-anchor="middle" x="255" y="-641" font-family="Helvetica,sans-Serif" font-size="10.00">ValueWCM</text>
</a>
</g>
</g>
<!-- Node4100&#45;&gt;Node4101 -->
<g id="edge1" class="edge"><title>Node4100&#45;&gt;Node4101</title>
<path fill="none" stroke="midnightblue" d="M158.255,-649C166.984,-649 175.793,-649 184.347,-649"/>
<polygon fill="midnightblue" stroke="midnightblue" points="158.064,-645.5 148.064,-649 158.064,-652.5 158.064,-645.5"/>
</g>
<!-- Node4102 -->
<g id="node3" class="node"><title>Node4102</title>
<g id="a_node3"><a xlink:href="classokw_1_1core_1_1_e_n___keywords___a_n_t_l_r___test.html#a001e269537cc59c4573e8dd2275550b0" target="_top" xlink:title="okw.core.EN_Keywords\l_ANTLR_Test.tc_VerifyTablecell\lValueWCM_MemorizedValue">
<polygon fill="white" stroke="black" points="398.5,-1180.5 398.5,-1221.5 559.5,-1221.5 559.5,-1180.5 398.5,-1180.5"/>
<text text-anchor="start" x="406.5" y="-1209.5" font-family="Helvetica,sans-Serif" font-size="10.00">okw.core.EN_Keywords</text>
<text text-anchor="start" x="406.5" y="-1198.5" font-family="Helvetica,sans-Serif" font-size="10.00">_ANTLR_Test.tc_VerifyTablecell</text>
<text text-anchor="middle" x="479" y="-1187.5" font-family="Helvetica,sans-Serif" font-size="10.00">ValueWCM_MemorizedValue</text>
</a>
</g>
</g>
<!-- Node4101&#45;&gt;Node4102 -->
<g id="edge2" class="edge"><title>Node4101&#45;&gt;Node4102</title>
<path fill="none" stroke="midnightblue" d="M257.676,-674.103C264.443,-767.939 292.774,-1096.46 362,-1170 371.787,-1180.4 384.642,-1187.45 398.222,-1192.2"/>
<polygon fill="midnightblue" stroke="midnightblue" points="261.165,-673.821 256.973,-664.091 254.183,-674.312 261.165,-673.821"/>
</g>
<!-- Node4103 -->
<g id="node4" class="node"><title>Node4103</title>
<g id="a_node4"><a xlink:href="classokw_1_1core_1_1_e_n___keywords___d_e_l_e_t_e___test.html#aef1aa280938a881904e91fbb8db09a8b" target="_top" xlink:title="okw.core.EN_Keywords\l_DELETE_Test.tcVerifyTablecell\lValueWCM_DELETE_OKWNotAllowedValue\lException">
<polygon fill="white" stroke="black" points="371.5,-1109 371.5,-1161 586.5,-1161 586.5,-1109 371.5,-1109"/>
<text text-anchor="start" x="379.5" y="-1149" font-family="Helvetica,sans-Serif" font-size="10.00">okw.core.EN_Keywords</text>
<text text-anchor="start" x="379.5" y="-1138" font-family="Helvetica,sans-Serif" font-size="10.00">_DELETE_Test.tcVerifyTablecell</text>
<text text-anchor="start" x="379.5" y="-1127" font-family="Helvetica,sans-Serif" font-size="10.00">ValueWCM_DELETE_OKWNotAllowedValue</text>
<text text-anchor="middle" x="479" y="-1116" font-family="Helvetica,sans-Serif" font-size="10.00">Exception</text>
</a>
</g>
</g>
<!-- Node4101&#45;&gt;Node4103 -->
<g id="edge3" class="edge"><title>Node4101&#45;&gt;Node4103</title>
<path fill="none" stroke="midnightblue" d="M258.71,-674.341C268.318,-759.66 303.353,-1034.66 362,-1098 365.734,-1102.03 369.906,-1105.63 374.389,-1108.83"/>
<polygon fill="midnightblue" stroke="midnightblue" points="262.172,-673.803 257.594,-664.249 255.215,-674.573 262.172,-673.803"/>
</g>
<!-- Node4104 -->
<g id="node5" class="node"><title>Node4104</title>
<g id="a_node5"><a xlink:href="classokw_1_1core_1_1_e_n___keywords___empty___test.html#a8449e6aa401aca7a8dc5701cfbe6588d" target="_top" xlink:title="Prüft &quot;${EMPTY}&quot; für das Schlüsselwort VerifyValue(string,string) ">
<polygon fill="white" stroke="black" points="401,-1048.5 401,-1089.5 557,-1089.5 557,-1048.5 401,-1048.5"/>
<text text-anchor="start" x="409" y="-1077.5" font-family="Helvetica,sans-Serif" font-size="10.00">okw.core.EN_Keywords</text>
<text text-anchor="start" x="409" y="-1066.5" font-family="Helvetica,sans-Serif" font-size="10.00">_Empty_Test.tc_VerifyTablecell</text>
<text text-anchor="middle" x="479" y="-1055.5" font-family="Helvetica,sans-Serif" font-size="10.00">ValueWCM_Empty</text>
</a>
</g>
</g>
<!-- Node4101&#45;&gt;Node4104 -->
<g id="edge4" class="edge"><title>Node4101&#45;&gt;Node4104</title>
<path fill="none" stroke="midnightblue" d="M259.574,-674.329C271.045,-752.129 309.281,-985.539 362,-1038 372.639,-1048.59 386.469,-1055.67 400.854,-1060.38"/>
<polygon fill="midnightblue" stroke="midnightblue" points="263.036,-673.812 258.135,-664.419 256.109,-674.818 263.036,-673.812"/>
</g>
<!-- Node4105 -->
<g id="node6" class="node"><title>Node4105</title>
<g id="a_node6"><a xlink:href="classokw_1_1core_1_1_e_n___keywords___i_g_n_o_r_e___test.html#a27b68153a134989ed0bd3924a8ad6ef9" target="_top" xlink:title="okw.core.EN_Keywords\l_IGNORE_Test.tcVerifyTablecell\lValueWCM_IGNORE">
<polygon fill="white" stroke="black" points="398,-988.5 398,-1029.5 560,-1029.5 560,-988.5 398,-988.5"/>
<text text-anchor="start" x="406" y="-1017.5" font-family="Helvetica,sans-Serif" font-size="10.00">okw.core.EN_Keywords</text>
<text text-anchor="start" x="406" y="-1006.5" font-family="Helvetica,sans-Serif" font-size="10.00">_IGNORE_Test.tcVerifyTablecell</text>
<text text-anchor="middle" x="479" y="-995.5" font-family="Helvetica,sans-Serif" font-size="10.00">ValueWCM_IGNORE</text>
</a>
</g>
</g>
<!-- Node4101&#45;&gt;Node4105 -->
<g id="edge5" class="edge"><title>Node4101&#45;&gt;Node4105</title>
<path fill="none" stroke="midnightblue" d="M256.384,-674.36C258.74,-735.836 273.562,-893.923 362,-978 372.047,-987.551 384.701,-994.232 397.931,-998.89"/>
<polygon fill="midnightblue" stroke="midnightblue" points="259.873,-673.936 256.074,-664.045 252.876,-674.146 259.873,-673.936"/>
</g>
<!-- Node4106 -->
<g id="node7" class="node"><title>Node4106</title>
<g id="a_node7"><a xlink:href="classokw_1_1core_1_1_e_n___keywords___i_g_n_o_r_e___test.html#a3b24ad3bc9ba3d0b1c1ba045b6a02f74" target="_top" xlink:title="okw.core.EN_Keywords\l_IGNORE_Test.tcVerifyTablecell\lValueWCM_IGNORE_EmptyString">
<polygon fill="white" stroke="black" points="393.5,-928.5 393.5,-969.5 564.5,-969.5 564.5,-928.5 393.5,-928.5"/>
<text text-anchor="start" x="401.5" y="-957.5" font-family="Helvetica,sans-Serif" font-size="10.00">okw.core.EN_Keywords</text>
<text text-anchor="start" x="401.5" y="-946.5" font-family="Helvetica,sans-Serif" font-size="10.00">_IGNORE_Test.tcVerifyTablecell</text>
<text text-anchor="middle" x="479" y="-935.5" font-family="Helvetica,sans-Serif" font-size="10.00">ValueWCM_IGNORE_EmptyString</text>
</a>
</g>
</g>
<!-- Node4101&#45;&gt;Node4106 -->
<g id="edge6" class="edge"><title>Node4101&#45;&gt;Node4106</title>
<path fill="none" stroke="midnightblue" d="M258.377,-674.224C264.799,-727.695 287.41,-852.932 362,-919 371.031,-927 381.925,-932.914 393.373,-937.278"/>
<polygon fill="midnightblue" stroke="midnightblue" points="261.85,-673.79 257.268,-664.237 254.893,-674.562 261.85,-673.79"/>
</g>
<!-- Node4107 -->
<g id="node8" class="node"><title>Node4107</title>
<g id="a_node8"><a xlink:href="classokw_1_1core_1_1_e_n___keywords___test.html#af71fe83cdc64d3d4276d23e0d8476275" target="_top" xlink:title="okw.core.EN_Keywords\l_Test.tc_VerifyTablecellValue">
<polygon fill="white" stroke="black" points="405.5,-880 405.5,-910 552.5,-910 552.5,-880 405.5,-880"/>
<text text-anchor="start" x="413.5" y="-898" font-family="Helvetica,sans-Serif" font-size="10.00">okw.core.EN_Keywords</text>
<text text-anchor="middle" x="479" y="-887" font-family="Helvetica,sans-Serif" font-size="10.00">_Test.tc_VerifyTablecellValue</text>
</a>
</g>
</g>
<!-- Node4101&#45;&gt;Node4107 -->
<g id="edge7" class="edge"><title>Node4101&#45;&gt;Node4107</title>
<path fill="none" stroke="midnightblue" d="M260.529,-674.014C270.291,-720.344 297.841,-819.387 362,-870 374.454,-879.825 389.911,-886.001 405.437,-889.835"/>
<polygon fill="midnightblue" stroke="midnightblue" points="263.958,-673.312 258.563,-664.194 257.094,-674.687 263.958,-673.312"/>
</g>
<!-- Node4108 -->
<g id="node9" class="node"><title>Node4108</title>
<g id="a_node9"><a xlink:href="classokw_1_1core_1_1_e_n___keywords___test.html#a03b56f17307561f962e20a860e203b01" target="_top" xlink:title="okw.core.EN_Keywords\l_Test.tc_VerifyTablecellValueWCM">
<polygon fill="white" stroke="black" points="392.5,-831 392.5,-861 565.5,-861 565.5,-831 392.5,-831"/>
<text text-anchor="start" x="400.5" y="-849" font-family="Helvetica,sans-Serif" font-size="10.00">okw.core.EN_Keywords</text>
<text text-anchor="middle" x="479" y="-838" font-family="Helvetica,sans-Serif" font-size="10.00">_Test.tc_VerifyTablecellValueWCM</text>
</a>
</g>
</g>
<!-- Node4101&#45;&gt;Node4108 -->
<g id="edge8" class="edge"><title>Node4101&#45;&gt;Node4108</title>
<path fill="none" stroke="midnightblue" d="M264.199,-674.059C278.006,-712.122 309.639,-783.983 362,-821 371.084,-827.422 381.497,-832.247 392.274,-835.863"/>
<polygon fill="midnightblue" stroke="midnightblue" points="267.382,-672.559 260.774,-664.277 260.775,-674.872 267.382,-672.559"/>
</g>
<!-- Node4109 -->
<g id="node10" class="node"><title>Node4109</title>
<g id="a_node10"><a xlink:href="classokw_1_1core_1_1_e_n___o_k_w_frame_object_child_not_found_exception___test.html#a02104956724e32ee77dd99ec6318fbf3" target="_top" xlink:title="Prüft ob die Ausnahme OKWFrameObjectChildNotFoundException durch die VerifyTablecellValueWCM ausgelös...">
<polygon fill="white" stroke="black" points="373.5,-760 373.5,-812 584.5,-812 584.5,-760 373.5,-760"/>
<text text-anchor="start" x="381.5" y="-800" font-family="Helvetica,sans-Serif" font-size="10.00">okw.core.EN_OKWFrameObject</text>
<text text-anchor="start" x="381.5" y="-789" font-family="Helvetica,sans-Serif" font-size="10.00">ChildNotFoundException</text>
<text text-anchor="start" x="381.5" y="-778" font-family="Helvetica,sans-Serif" font-size="10.00">_Test.TC_VerifyTablecellValueWCM</text>
<text text-anchor="middle" x="479" y="-767" font-family="Helvetica,sans-Serif" font-size="10.00">_OKWFrameObjectChildNotFoundException</text>
</a>
</g>
</g>
<!-- Node4101&#45;&gt;Node4109 -->
<g id="edge9" class="edge"><title>Node4101&#45;&gt;Node4109</title>
<path fill="none" stroke="midnightblue" d="M274.63,-672.133C294.165,-694.964 326.863,-729.361 362,-750 368.182,-753.631 374.768,-756.933 381.541,-759.928"/>
<polygon fill="midnightblue" stroke="midnightblue" points="277.159,-669.702 268.049,-664.292 271.797,-674.202 277.159,-669.702"/>
</g>
<!-- Node4110 -->
<g id="node11" class="node"><title>Node4110</title>
<g id="a_node11"><a xlink:href="classokw_1_1core_1_1_e_n___o_k_w_frame_object_method_not_implemented___test.html#ab57f6a3cb0f1844cbb7308c07cdc911e" target="_top" xlink:title="Prüft ob die Ausnahme OKWFrameObjectMethodNotImplemented von VerifyTablecellValueWCM( FN...">
<polygon fill="white" stroke="black" points="368,-689 368,-741 590,-741 590,-689 368,-689"/>
<text text-anchor="start" x="376" y="-729" font-family="Helvetica,sans-Serif" font-size="10.00">okw.core.EN_OKWFrameObject</text>
<text text-anchor="start" x="376" y="-718" font-family="Helvetica,sans-Serif" font-size="10.00">MethodNotImplemented_Test.TC</text>
<text text-anchor="start" x="376" y="-707" font-family="Helvetica,sans-Serif" font-size="10.00">_VerifyTablecellValueWCM_OKWFrameObject</text>
<text text-anchor="middle" x="479" y="-696" font-family="Helvetica,sans-Serif" font-size="10.00">MethodNotImplemented</text>
</a>
</g>
</g>
<!-- Node4101&#45;&gt;Node4110 -->
<g id="edge10" class="edge"><title>Node4101&#45;&gt;Node4110</title>
<path fill="none" stroke="midnightblue" d="M316.525,-666.994C339.336,-673.776 365.76,-681.631 390.542,-688.999"/>
<polygon fill="midnightblue" stroke="midnightblue" points="317.236,-663.554 306.653,-664.059 315.241,-670.264 317.236,-663.554"/>
</g>
<!-- Node4111 -->
<g id="node12" class="node"><title>Node4111</title>
<g id="a_node12"><a xlink:href="classokw_1_1core_1_1_e_n___o_k_w_not_allowed_value_exception___keywords___i_g_n_o_r_e.html#a01cc43e85801af91d6022e1efaf5f554" target="_top" xlink:title="Prüft ob &quot;${IGNORE} &quot; die Ausnahme okw.exceptions.OKWNotAllowedValueException auslöst. ">
<polygon fill="white" stroke="black" points="362.5,-628.5 362.5,-669.5 595.5,-669.5 595.5,-628.5 362.5,-628.5"/>
<text text-anchor="start" x="370.5" y="-657.5" font-family="Helvetica,sans-Serif" font-size="10.00">okw.core.EN_OKWNotAllowed</text>
<text text-anchor="start" x="370.5" y="-646.5" font-family="Helvetica,sans-Serif" font-size="10.00">ValueException_Keywords</text>
<text text-anchor="middle" x="479" y="-635.5" font-family="Helvetica,sans-Serif" font-size="10.00">_IGNORE.tcVerifyTablecellValueWCMIGNORE1</text>
</a>
</g>
</g>
<!-- Node4101&#45;&gt;Node4111 -->
<g id="edge11" class="edge"><title>Node4101&#45;&gt;Node4111</title>
<path fill="none" stroke="midnightblue" d="M335.659,-649C344.321,-649 353.26,-649 362.24,-649"/>
<polygon fill="midnightblue" stroke="midnightblue" points="335.633,-645.5 325.633,-649 335.633,-652.5 335.633,-645.5"/>
</g>
<!-- Node4112 -->
<g id="node13" class="node"><title>Node4112</title>
<g id="a_node13"><a xlink:href="classokw_1_1core_1_1_e_n___o_k_w_not_allowed_value_exception___keywords___i_g_n_o_r_e.html#a36bfbbdbc00d2c67b25f08bc0953fa7e" target="_top" xlink:title="Prüft ob &quot;&quot;${IGNORE}${TCN}&quot; die Ausnahme okw.exceptions.OKWNotAllowedValueException auslöst...">
<polygon fill="white" stroke="black" points="362.5,-568.5 362.5,-609.5 595.5,-609.5 595.5,-568.5 362.5,-568.5"/>
<text text-anchor="start" x="370.5" y="-597.5" font-family="Helvetica,sans-Serif" font-size="10.00">okw.core.EN_OKWNotAllowed</text>
<text text-anchor="start" x="370.5" y="-586.5" font-family="Helvetica,sans-Serif" font-size="10.00">ValueException_Keywords</text>
<text text-anchor="middle" x="479" y="-575.5" font-family="Helvetica,sans-Serif" font-size="10.00">_IGNORE.tcVerifyTablecellValueWCMIGNORE2</text>
</a>
</g>
</g>
<!-- Node4101&#45;&gt;Node4112 -->
<g id="edge12" class="edge"><title>Node4101&#45;&gt;Node4112</title>
<path fill="none" stroke="midnightblue" d="M318.045,-631.185C332.457,-627.118 347.751,-622.858 362,-619 373.545,-615.874 385.756,-612.638 397.751,-609.501"/>
<polygon fill="midnightblue" stroke="midnightblue" points="316.901,-627.871 308.232,-633.963 318.807,-634.607 316.901,-627.871"/>
</g>
<!-- Node4113 -->
<g id="node14" class="node"><title>Node4113</title>
<g id="a_node14"><a xlink:href="classokw_1_1core_1_1_e_n___verify_tablecell_value___o_k_w_verifying_fails_exception___test.html#a7d1689bc5748216a7b92c117af26e15b" target="_top" xlink:title="Prüft, ob die Ausnahme OKWVerifyingFailsException bei einem Soll/Ist&#45;Vergleich ausgelöst wird...">
<polygon fill="white" stroke="black" points="390,-497 390,-549 568,-549 568,-497 390,-497"/>
<text text-anchor="start" x="398" y="-537" font-family="Helvetica,sans-Serif" font-size="10.00">okw.core.EN_VerifyTablecell</text>
<text text-anchor="start" x="398" y="-526" font-family="Helvetica,sans-Serif" font-size="10.00">Value_OKWVerifyingFailsException</text>
<text text-anchor="start" x="398" y="-515" font-family="Helvetica,sans-Serif" font-size="10.00">_Test.TC_VerifyTablecellValueWCM</text>
<text text-anchor="middle" x="479" y="-504" font-family="Helvetica,sans-Serif" font-size="10.00">_OKWVerifyingFailsException_M01</text>
</a>
</g>
</g>
<!-- Node4101&#45;&gt;Node4113 -->
<g id="edge13" class="edge"><title>Node4101&#45;&gt;Node4113</title>
<path fill="none" stroke="midnightblue" d="M277.097,-626.51C297.192,-606.278 329.168,-577.04 362,-559 370.778,-554.177 380.292,-549.904 389.967,-546.143"/>
<polygon fill="midnightblue" stroke="midnightblue" points="274.48,-624.18 270,-633.782 279.49,-629.07 274.48,-624.18"/>
</g>
<!-- Node4114 -->
<g id="node15" class="node"><title>Node4114</title>
<g id="a_node15"><a xlink:href="classokw_1_1core_1_1_e_n___verify_tablecell_value___o_k_w_verifying_fails_exception___test.html#af54dfd1b5b177bf51f4d7898f3dc61dd" target="_top" xlink:title="Prüft, ob die Ausnahme OKWVerifyingFailsException bei einem Soll/Ist&#45;Vergleich ausgelöst wird...">
<polygon fill="white" stroke="black" points="390,-426 390,-478 568,-478 568,-426 390,-426"/>
<text text-anchor="start" x="398" y="-466" font-family="Helvetica,sans-Serif" font-size="10.00">okw.core.EN_VerifyTablecell</text>
<text text-anchor="start" x="398" y="-455" font-family="Helvetica,sans-Serif" font-size="10.00">Value_OKWVerifyingFailsException</text>
<text text-anchor="start" x="398" y="-444" font-family="Helvetica,sans-Serif" font-size="10.00">_Test.TC_VerifyTablecellValueWCM</text>
<text text-anchor="middle" x="479" y="-433" font-family="Helvetica,sans-Serif" font-size="10.00">_OKWVerifyingFailsException_SV01</text>
</a>
</g>
</g>
<!-- Node4101&#45;&gt;Node4114 -->
<g id="edge14" class="edge"><title>Node4101&#45;&gt;Node4114</title>
<path fill="none" stroke="midnightblue" d="M265.929,-624.015C281.264,-588.587 314.041,-524.062 362,-488 370.427,-481.664 379.987,-476.429 389.916,-472.108"/>
<polygon fill="midnightblue" stroke="midnightblue" points="262.548,-623.025 261.899,-633.6 269.001,-625.738 262.548,-623.025"/>
</g>
<!-- Node4115 -->
<g id="node16" class="node"><title>Node4115</title>
<g id="a_node16"><a xlink:href="classokw_1_1core_1_1_e_n___verify_tablecell_value___o_k_w_verifying_fails_exception___test.html#abc22401d4e522fd99228d329aa03252f" target="_top" xlink:title="Prüft, ob die Ausnahme OKWVerifyingFailsException bei einem Soll/Ist&#45;Vergleich ausgelöst wird...">
<polygon fill="white" stroke="black" points="390,-355 390,-407 568,-407 568,-355 390,-355"/>
<text text-anchor="start" x="398" y="-395" font-family="Helvetica,sans-Serif" font-size="10.00">okw.core.EN_VerifyTablecell</text>
<text text-anchor="start" x="398" y="-384" font-family="Helvetica,sans-Serif" font-size="10.00">Value_OKWVerifyingFailsException</text>
<text text-anchor="start" x="398" y="-373" font-family="Helvetica,sans-Serif" font-size="10.00">_Test.TC_VerifyTablecellValueWCM</text>
<text text-anchor="middle" x="479" y="-362" font-family="Helvetica,sans-Serif" font-size="10.00">_OKWVerifyingFailsException_SV02</text>
</a>
</g>
</g>
<!-- Node4101&#45;&gt;Node4115 -->
<g id="edge15" class="edge"><title>Node4101&#45;&gt;Node4115</title>
<path fill="none" stroke="midnightblue" d="M260.516,-623.656C270.313,-576.121 298,-473.311 362,-417 370.153,-409.827 379.72,-404.082 389.803,-399.483"/>
<polygon fill="midnightblue" stroke="midnightblue" points="257.035,-623.223 258.544,-633.71 263.904,-624.571 257.035,-623.223"/>
</g>
<!-- Node4116 -->
<g id="node17" class="node"><title>Node4116</title>
<g id="a_node17"><a xlink:href="classokw_1_1core_1_1_e_n___verify_tablecell_value___o_k_w_verifying_fails_exception___test.html#af68d0df2919f388b020991884c9c277c" target="_top" xlink:title="Prüft, ob die Ausnahme OKWVerifyingFailsException bei einem Soll/Ist&#45;Vergleich ausgelöst wird...">
<polygon fill="white" stroke="black" points="390,-284 390,-336 568,-336 568,-284 390,-284"/>
<text text-anchor="start" x="398" y="-324" font-family="Helvetica,sans-Serif" font-size="10.00">okw.core.EN_VerifyTablecell</text>
<text text-anchor="start" x="398" y="-313" font-family="Helvetica,sans-Serif" font-size="10.00">Value_OKWVerifyingFailsException</text>
<text text-anchor="start" x="398" y="-302" font-family="Helvetica,sans-Serif" font-size="10.00">_Test.TC_VerifyTablecellValueWCM</text>
<text text-anchor="middle" x="479" y="-291" font-family="Helvetica,sans-Serif" font-size="10.00">_OKWVerifyingFailsException_SV03</text>
</a>
</g>
</g>
<!-- Node4101&#45;&gt;Node4116 -->
<g id="edge16" class="edge"><title>Node4101&#45;&gt;Node4116</title>
<path fill="none" stroke="midnightblue" d="M257.411,-623.86C262.01,-566.275 281.377,-423.802 362,-346 369.966,-338.313 379.543,-332.264 389.736,-327.506"/>
<polygon fill="midnightblue" stroke="midnightblue" points="253.916,-623.672 256.693,-633.896 260.898,-624.172 253.916,-623.672"/>
</g>
<!-- Node4117 -->
<g id="node18" class="node"><title>Node4117</title>
<g id="a_node18"><a xlink:href="classokw_1_1core_1_1_e_n___verify_tablecell_value___o_k_w_verifying_fails_exception___test.html#abb87915a2ba983fa43a2b1c8b9be6fcd" target="_top" xlink:title="Prüft, ob die Ausnahme OKWVerifyingFailsException bei einem Soll/Ist&#45;Vergleich ausgelöst wird...">
<polygon fill="white" stroke="black" points="389.5,-213 389.5,-265 568.5,-265 568.5,-213 389.5,-213"/>
<text text-anchor="start" x="397.5" y="-253" font-family="Helvetica,sans-Serif" font-size="10.00">okw.core.EN_VerifyTablecell</text>
<text text-anchor="start" x="397.5" y="-242" font-family="Helvetica,sans-Serif" font-size="10.00">Value_OKWVerifyingFailsException</text>
<text text-anchor="start" x="397.5" y="-231" font-family="Helvetica,sans-Serif" font-size="10.00">_Test.TC_VerifyTablecellValueWCM</text>
<text text-anchor="middle" x="479" y="-220" font-family="Helvetica,sans-Serif" font-size="10.00">_OKWVerifyingFailsException_MV01</text>
</a>
</g>
</g>
<!-- Node4101&#45;&gt;Node4117 -->
<g id="edge17" class="edge"><title>Node4101&#45;&gt;Node4117</title>
<path fill="none" stroke="midnightblue" d="M255.441,-623.651C255.394,-556.935 264.68,-374.758 362,-275 369.731,-267.076 379.169,-260.888 389.29,-256.057"/>
<polygon fill="midnightblue" stroke="midnightblue" points="251.942,-623.714 255.522,-633.686 258.941,-623.658 251.942,-623.714"/>
</g>
<!-- Node4118 -->
<g id="node19" class="node"><title>Node4118</title>
<g id="a_node19"><a xlink:href="classokw_1_1core_1_1_e_n___verify_tablecell_value___o_k_w_verifying_fails_exception___test.html#a541ac6fcca8d1da6fa7e2eaefb226c3d" target="_top" xlink:title="Prüft, ob die Ausnahme OKWVerifyingFailsException bei einem Soll/Ist&#45;Vergleich ausgelöst wird...">
<polygon fill="white" stroke="black" points="389.5,-142 389.5,-194 568.5,-194 568.5,-142 389.5,-142"/>
<text text-anchor="start" x="397.5" y="-182" font-family="Helvetica,sans-Serif" font-size="10.00">okw.core.EN_VerifyTablecell</text>
<text text-anchor="start" x="397.5" y="-171" font-family="Helvetica,sans-Serif" font-size="10.00">Value_OKWVerifyingFailsException</text>
<text text-anchor="start" x="397.5" y="-160" font-family="Helvetica,sans-Serif" font-size="10.00">_Test.TC_VerifyTablecellValueWCM</text>
<text text-anchor="middle" x="479" y="-149" font-family="Helvetica,sans-Serif" font-size="10.00">_OKWVerifyingFailsException_MV02</text>
</a>
</g>
</g>
<!-- Node4101&#45;&gt;Node4118 -->
<g id="edge18" class="edge"><title>Node4101&#45;&gt;Node4118</title>
<path fill="none" stroke="midnightblue" d="M258.724,-623.865C268.376,-539.245 303.539,-266.52 362,-204 369.633,-195.837 379.078,-189.511 389.256,-184.611"/>
<polygon fill="midnightblue" stroke="midnightblue" points="255.238,-623.548 257.602,-633.875 262.194,-624.327 255.238,-623.548"/>
</g>
<!-- Node4119 -->
<g id="node20" class="node"><title>Node4119</title>
<g id="a_node20"><a xlink:href="classokw_1_1core_1_1_e_n___verify_tablecell_value___o_k_w_verifying_fails_exception___test.html#a0557d509a1ea0ba6aecd8387d5c09b6d" target="_top" xlink:title="Prüft, ob die Ausnahme OKWVerifyingFailsException bei einem Soll/Ist&#45;Vergleich ausgelöst wird...">
<polygon fill="white" stroke="black" points="389.5,-71 389.5,-123 568.5,-123 568.5,-71 389.5,-71"/>
<text text-anchor="start" x="397.5" y="-111" font-family="Helvetica,sans-Serif" font-size="10.00">okw.core.EN_VerifyTablecell</text>
<text text-anchor="start" x="397.5" y="-100" font-family="Helvetica,sans-Serif" font-size="10.00">Value_OKWVerifyingFailsException</text>
<text text-anchor="start" x="397.5" y="-89" font-family="Helvetica,sans-Serif" font-size="10.00">_Test.TC_VerifyTablecellValueWCM</text>
<text text-anchor="middle" x="479" y="-78" font-family="Helvetica,sans-Serif" font-size="10.00">_OKWVerifyingFailsException_MV03</text>
</a>
</g>
</g>
<!-- Node4101&#45;&gt;Node4119 -->
<g id="edge19" class="edge"><title>Node4101&#45;&gt;Node4119</title>
<path fill="none" stroke="midnightblue" d="M257.851,-623.631C265.159,-530.215 294.946,-206.993 362,-133 369.575,-124.641 379.051,-118.203 389.301,-113.249"/>
<polygon fill="midnightblue" stroke="midnightblue" points="254.342,-623.614 257.07,-633.851 261.322,-624.147 254.342,-623.614"/>
</g>
<!-- Node4120 -->
<g id="node21" class="node"><title>Node4120</title>
<g id="a_node21"><a xlink:href="classokw_1_1core_1_1_e_n___verify_tablecell_value___o_k_w_verifying_fails_exception___test.html#a7930de8c19b5fbbd7ddaa75bd106726b" target="_top" xlink:title="Prüft, ob die Ausnahme OKWVerifyingFailsException bei einem Soll/Ist&#45;Vergleich ausgelöst wird...">
<polygon fill="white" stroke="black" points="389.5,-0 389.5,-52 568.5,-52 568.5,-0 389.5,-0"/>
<text text-anchor="start" x="397.5" y="-40" font-family="Helvetica,sans-Serif" font-size="10.00">okw.core.EN_VerifyTablecell</text>
<text text-anchor="start" x="397.5" y="-29" font-family="Helvetica,sans-Serif" font-size="10.00">Value_OKWVerifyingFailsException</text>
<text text-anchor="start" x="397.5" y="-18" font-family="Helvetica,sans-Serif" font-size="10.00">_Test.TC_VerifyTablecellValueWCM</text>
<text text-anchor="middle" x="479" y="-7" font-family="Helvetica,sans-Serif" font-size="10.00">_OKWVerifyingFailsException_MV04</text>
</a>
</g>
</g>
<!-- Node4101&#45;&gt;Node4120 -->
<g id="edge20" class="edge"><title>Node4101&#45;&gt;Node4120</title>
<path fill="none" stroke="midnightblue" d="M257.17,-623.512C262.33,-521.969 286.273,-147.601 362,-62 369.545,-53.4715 379.068,-46.9392 389.399,-41.9404"/>
<polygon fill="midnightblue" stroke="midnightblue" points="253.662,-623.593 256.667,-633.752 260.653,-623.936 253.662,-623.593"/>
</g>
</g>
</svg>
        <g id="navigator" transform="translate(0 0)" fill="#404254">
                <rect fill="#f2f5e9" fill-opacity="0.5" stroke="#606060" stroke-width=".5" x="0" y="0" width="60" height="60"/>
                <use id="zoomplus" xlink:href="#zoomPlus" x="17" y="9" onmousedown="handleZoom(evt,'in')"/>
                <use id="zoomminus" xlink:href="#zoomMin" x="42" y="9" onmousedown="handleZoom(evt,'out')"/>
                <use id="reset" xlink:href="#resetDef" x="30" y="36" onmousedown="handleReset()"/>
                <g id="arrowUp" xlink:href="#dirArrow" transform="translate(30 24)" onmousedown="handlePan(0,-1)">
                  <use xlink:href="#rim" fill="#404040">
                        <set attributeName="fill" to="#808080" begin="arrowUp.mouseover" end="arrowUp.mouseout"/>
                  </use>
                  <path fill="none" stroke="white" stroke-width="1.5" d="M0,-3.0v7 M-2.5,-0.5L0,-3.0L2.5,-0.5"/>
                </g>
                <g id="arrowRight" xlink:href="#dirArrow" transform="rotate(90) translate(36 -43)" onmousedown="handlePan(1,0)">
                  <use xlink:href="#rim" fill="#404040">
                        <set attributeName="fill" to="#808080" begin="arrowRight.mouseover" end="arrowRight.mouseout"/>
                  </use>
                  <path fill="none" stroke="white" stroke-width="1.5" d="M0,-3.0v7 M-2.5,-0.5L0,-3.0L2.5,-0.5"/>
                </g>
                <g id="arrowDown" xlink:href="#dirArrow" transform="rotate(180) translate(-30 -48)" onmousedown="handlePan(0,1)">
                  <use xlink:href="#rim" fill="#404040">
                        <set attributeName="fill" to="#808080" begin="arrowDown.mouseover" end="arrowDown.mouseout"/>
                  </use>
                  <path fill="none" stroke="white" stroke-width="1.5" d="M0,-3.0v7 M-2.5,-0.5L0,-3.0L2.5,-0.5"/>
                </g>
                <g id="arrowLeft" xlink:href="#dirArrow" transform="rotate(270) translate(-36 17)" onmousedown="handlePan(-1,0)">
                  <use xlink:href="#rim" fill="#404040">
                        <set attributeName="fill" to="#808080" begin="arrowLeft.mouseover" end="arrowLeft.mouseout"/>
                  </use>
                  <path fill="none" stroke="white" stroke-width="1.5" d="M0,-3.0v7 M-2.5,-0.5L0,-3.0L2.5,-0.5"/>
                </g>
        </g>
        <svg viewBox="0 0 15 15" width="100%" height="30px" preserveAspectRatio="xMaxYMin meet">
         <g id="arrow_out" transform="scale(0.3 0.3)">
          <a xlink:href="classokw_1_1core_1_1_core_add884d5c22a8a05b762e3bc06a7ed02a_icgraph_org.svg" target="_base">
           <rect id="button" ry="5" rx="5" y="6" x="6" height="38" width="38"
                fill="#f2f5e9" fill-opacity="0.5" stroke="#606060" stroke-width="1.0"/>
           <path id="arrow"
             d="M 11.500037,31.436501 C 11.940474,20.09759 22.043105,11.32322 32.158766,21.979434 L 37.068811,17.246167 C 37.068811,17.246167 37.088388,32 37.088388,32 L 22.160133,31.978069 C 22.160133,31.978069 26.997745,27.140456 26.997745,27.140456 C 18.528582,18.264221 13.291696,25.230495 11.500037,31.436501 z"
             style="fill:#404040;"/>
          </a>
         </g>
        </svg>
</svg>
