<?xml version="1.0" encoding="UTF-8" standalone="no"?>
<!DOCTYPE svg PUBLIC "-//W3C//DTD SVG 1.1//EN"
 "http://www.w3.org/Graphics/SVG/1.1/DTD/svg11.dtd">
<!-- Generated by graphviz version 2.36.0 (20140111.2315)
 -->
<!-- Title: okw.core.EN.VerifyPlaceholder Pages: 1 -->
<svg width="414pt" height="907pt"
 viewBox="0.00 0.00 414.00 907.00" xmlns="http://www.w3.org/2000/svg" xmlns:xlink="http://www.w3.org/1999/xlink">
<g id="graph0" class="graph" transform="scale(1 1) rotate(0) translate(4 903)">
<title>okw.core.EN.VerifyPlaceholder</title>
<polygon fill="white" stroke="none" points="-4,4 -4,-903 410,-903 410,4 -4,4"/>
<!-- Node3070 -->
<g id="node1" class="node"><title>Node3070</title>
<polygon fill="#bfbfbf" stroke="black" points="0.5,-467.5 0.5,-486.5 153.5,-486.5 153.5,-467.5 0.5,-467.5"/>
<text text-anchor="middle" x="77" y="-474.5" font-family="Helvetica,sans-Serif" font-size="10.00">okw.core.EN.VerifyPlaceholder</text>
</g>
<!-- Node3071 -->
<g id="node2" class="node"><title>Node3071</title>
<g id="a_node2"><a xlink:href="classokw_1_1core_1_1_e_n___keywords___a_n_t_l_r___test.html#a3f722728dc3541a08f029eb1be36059d" target="_top" xlink:title="okw.core.EN_Keywords\l_ANTLR_Test.tc_VerifyPlaceholder\l_MemorizedValue">
<polygon fill="white" stroke="black" points="211.5,-857.5 211.5,-898.5 384.5,-898.5 384.5,-857.5 211.5,-857.5"/>
<text text-anchor="start" x="219.5" y="-886.5" font-family="Helvetica,sans-Serif" font-size="10.00">okw.core.EN_Keywords</text>
<text text-anchor="start" x="219.5" y="-875.5" font-family="Helvetica,sans-Serif" font-size="10.00">_ANTLR_Test.tc_VerifyPlaceholder</text>
<text text-anchor="middle" x="298" y="-864.5" font-family="Helvetica,sans-Serif" font-size="10.00">_MemorizedValue</text>
</a>
</g>
</g>
<!-- Node3070&#45;&gt;Node3071 -->
<g id="edge1" class="edge"><title>Node3070&#45;&gt;Node3071</title>
<path fill="none" stroke="midnightblue" d="M77.8166,-496.895C78.3704,-558.318 88.6411,-746.844 190,-847 196.191,-853.117 203.511,-858.042 211.373,-862.004"/>
<polygon fill="midnightblue" stroke="midnightblue" points="81.3165,-496.658 77.8088,-486.66 74.3165,-496.663 81.3165,-496.658"/>
</g>
<!-- Node3072 -->
<g id="node3" class="node"><title>Node3072</title>
<g id="a_node3"><a xlink:href="classokw_1_1core_1_1_e_n___keywords___empty___test.html#ad1fddfc8480e09cd510e31ab8197100d" target="_top" xlink:title="Prüft &quot;${EMPTY}&quot; für das Schlüsslewort VerifyPlaceholder(strng,string) ">
<polygon fill="white" stroke="black" points="211.5,-797.5 211.5,-838.5 384.5,-838.5 384.5,-797.5 211.5,-797.5"/>
<text text-anchor="start" x="219.5" y="-826.5" font-family="Helvetica,sans-Serif" font-size="10.00">okw.core.EN_Keywords</text>
<text text-anchor="start" x="219.5" y="-815.5" font-family="Helvetica,sans-Serif" font-size="10.00">_Empty_Test.tc_VerifyPlaceholder_</text>
<text text-anchor="middle" x="298" y="-804.5" font-family="Helvetica,sans-Serif" font-size="10.00">Empty</text>
</a>
</g>
</g>
<!-- Node3070&#45;&gt;Node3072 -->
<g id="edge2" class="edge"><title>Node3070&#45;&gt;Node3072</title>
<path fill="none" stroke="midnightblue" d="M79.1649,-496.872C83.4604,-551.544 103.077,-705.527 190,-787 196.279,-792.886 203.609,-797.662 211.433,-801.536"/>
<polygon fill="midnightblue" stroke="midnightblue" points="82.6481,-496.508 78.4621,-486.775 75.665,-496.994 82.6481,-496.508"/>
</g>
<!-- Node3073 -->
<g id="node4" class="node"><title>Node3073</title>
<g id="a_node4"><a xlink:href="classokw_1_1core_1_1_e_n___keywords___i_g_n_o_r_e___test.html#a86eb0b9aa765c8e54610c8076417ecda" target="_top" xlink:title="okw.core.EN_Keywords\l_IGNORE_Test.tcVerifyPlaceholder\l_IGNORE">
<polygon fill="white" stroke="black" points="211,-737.5 211,-778.5 385,-778.5 385,-737.5 211,-737.5"/>
<text text-anchor="start" x="219" y="-766.5" font-family="Helvetica,sans-Serif" font-size="10.00">okw.core.EN_Keywords</text>
<text text-anchor="start" x="219" y="-755.5" font-family="Helvetica,sans-Serif" font-size="10.00">_IGNORE_Test.tcVerifyPlaceholder</text>
<text text-anchor="middle" x="298" y="-744.5" font-family="Helvetica,sans-Serif" font-size="10.00">_IGNORE</text>
</a>
</g>
</g>
<!-- Node3070&#45;&gt;Node3073 -->
<g id="edge3" class="edge"><title>Node3070&#45;&gt;Node3073</title>
<path fill="none" stroke="midnightblue" d="M81.0128,-496.834C89.275,-544.221 116.76,-664.764 190,-728 196.206,-733.358 203.301,-737.765 210.818,-741.387"/>
<polygon fill="midnightblue" stroke="midnightblue" points="84.4194,-495.979 79.3463,-486.678 77.5118,-497.113 84.4194,-495.979"/>
</g>
<!-- Node3074 -->
<g id="node5" class="node"><title>Node3074</title>
<g id="a_node5"><a xlink:href="classokw_1_1core_1_1_e_n___keywords___test.html#a1ebfacda6da447f3b583236e39ec91a3" target="_top" xlink:title="&quot;Normaler&quot; Testfall für das Schlüsselwort EN.VerifyPlaceholder(String,String). ">
<polygon fill="white" stroke="black" points="231,-689 231,-719 365,-719 365,-689 231,-689"/>
<text text-anchor="start" x="239" y="-707" font-family="Helvetica,sans-Serif" font-size="10.00">okw.core.EN_Keywords</text>
<text text-anchor="middle" x="298" y="-696" font-family="Helvetica,sans-Serif" font-size="10.00">_Test.tc_VerifyPlaceholder</text>
</a>
</g>
</g>
<!-- Node3070&#45;&gt;Node3074 -->
<g id="edge4" class="edge"><title>Node3070&#45;&gt;Node3074</title>
<path fill="none" stroke="midnightblue" d="M83.0713,-496.69C94.6424,-537.484 126.989,-631.393 190,-679 201.872,-687.97 216.443,-693.795 230.966,-697.558"/>
<polygon fill="midnightblue" stroke="midnightblue" points="86.4066,-495.616 80.405,-486.885 79.6519,-497.453 86.4066,-495.616"/>
</g>
<!-- Node3075 -->
<g id="node6" class="node"><title>Node3075</title>
<g id="a_node6"><a xlink:href="classokw_1_1core_1_1_e_n___o_k_w_frame_object_child_not_found_exception___test.html#a3a3732606b304999437df394a02af52b" target="_top" xlink:title="Prüft ob die Ausnahme OKWFrameObjectChildNotFoundException durch die LFC&#45;VerifyPlaceholder ausgelöst ...">
<polygon fill="white" stroke="black" points="192.5,-618 192.5,-670 403.5,-670 403.5,-618 192.5,-618"/>
<text text-anchor="start" x="200.5" y="-658" font-family="Helvetica,sans-Serif" font-size="10.00">okw.core.EN_OKWFrameObject</text>
<text text-anchor="start" x="200.5" y="-647" font-family="Helvetica,sans-Serif" font-size="10.00">ChildNotFoundException</text>
<text text-anchor="start" x="200.5" y="-636" font-family="Helvetica,sans-Serif" font-size="10.00">_Test.TC_VerifyPlaceholder</text>
<text text-anchor="middle" x="298" y="-625" font-family="Helvetica,sans-Serif" font-size="10.00">_OKWFrameObjectChildNotFoundException</text>
</a>
</g>
</g>
<!-- Node3070&#45;&gt;Node3075 -->
<g id="edge5" class="edge"><title>Node3070&#45;&gt;Node3075</title>
<path fill="none" stroke="midnightblue" d="M89.2091,-495.644C107.101,-523.884 144.75,-577.44 190,-608 195.36,-611.62 201.116,-614.905 207.077,-617.881"/>
<polygon fill="midnightblue" stroke="midnightblue" points="91.9661,-493.448 83.7245,-486.791 86.0154,-497.135 91.9661,-493.448"/>
</g>
<!-- Node3076 -->
<g id="node7" class="node"><title>Node3076</title>
<g id="a_node7"><a xlink:href="classokw_1_1core_1_1_e_n___o_k_w_frame_object_method_not_implemented___test.html#a5ec49242642726beb4f84e8a864c2239" target="_top" xlink:title="Prüft ob die Ausnahme OKWFrameObjectMethodNotImplemented von VerifyCaption( FN, ExpVal ) ausgelöst wi...">
<polygon fill="white" stroke="black" points="190,-547 190,-599 406,-599 406,-547 190,-547"/>
<text text-anchor="start" x="198" y="-587" font-family="Helvetica,sans-Serif" font-size="10.00">okw.core.EN_OKWFrameObject</text>
<text text-anchor="start" x="198" y="-576" font-family="Helvetica,sans-Serif" font-size="10.00">MethodNotImplemented_Test.TC</text>
<text text-anchor="start" x="198" y="-565" font-family="Helvetica,sans-Serif" font-size="10.00">_VerifyPlaceholder_OKWFrameObjectMethod</text>
<text text-anchor="middle" x="298" y="-554" font-family="Helvetica,sans-Serif" font-size="10.00">NotImplemented</text>
</a>
</g>
</g>
<!-- Node3070&#45;&gt;Node3076 -->
<g id="edge6" class="edge"><title>Node3070&#45;&gt;Node3076</title>
<path fill="none" stroke="midnightblue" d="M103.148,-491.662C125.5,-504.349 159.298,-522.697 190,-536 198.747,-539.79 208.02,-543.472 217.307,-546.951"/>
<polygon fill="midnightblue" stroke="midnightblue" points="104.729,-488.534 94.3119,-486.602 101.251,-494.609 104.729,-488.534"/>
</g>
<!-- Node3077 -->
<g id="node8" class="node"><title>Node3077</title>
<g id="a_node8"><a xlink:href="classokw_1_1core_1_1_e_n___o_k_w_not_allowed_value_exception___keywords___i_g_n_o_r_e.html#aea2eb8ff6f07fc4f6be227f4dea24eee" target="_top" xlink:title="Prüft ob &quot;${IGNORE} &quot; die Ausnahme okw.exceptions.OKWNotAllowedValueException auslöst. ">
<polygon fill="white" stroke="black" points="201,-486.5 201,-527.5 395,-527.5 395,-486.5 201,-486.5"/>
<text text-anchor="start" x="209" y="-515.5" font-family="Helvetica,sans-Serif" font-size="10.00">okw.core.EN_OKWNotAllowed</text>
<text text-anchor="start" x="209" y="-504.5" font-family="Helvetica,sans-Serif" font-size="10.00">ValueException_Keywords</text>
<text text-anchor="middle" x="298" y="-493.5" font-family="Helvetica,sans-Serif" font-size="10.00">_IGNORE.tcVerifyPlaceholderIGNORE1</text>
</a>
</g>
</g>
<!-- Node3070&#45;&gt;Node3077 -->
<g id="edge7" class="edge"><title>Node3070&#45;&gt;Node3077</title>
<path fill="none" stroke="midnightblue" d="M157.655,-487.912C171.663,-489.831 186.377,-491.846 200.78,-493.819"/>
<polygon fill="midnightblue" stroke="midnightblue" points="157.976,-484.423 147.594,-486.533 157.026,-491.358 157.976,-484.423"/>
</g>
<!-- Node3078 -->
<g id="node9" class="node"><title>Node3078</title>
<g id="a_node9"><a xlink:href="classokw_1_1core_1_1_e_n___o_k_w_not_allowed_value_exception___keywords___i_g_n_o_r_e.html#a37f7b5b9f5c5b73cc02f856d73f6103f" target="_top" xlink:title="Prüft ob &quot;&quot;${IGNORE}${TCN}&quot; die Ausnahme okw.exceptions.OKWNotAllowedValueException auslöst...">
<polygon fill="white" stroke="black" points="201,-426.5 201,-467.5 395,-467.5 395,-426.5 201,-426.5"/>
<text text-anchor="start" x="209" y="-455.5" font-family="Helvetica,sans-Serif" font-size="10.00">okw.core.EN_OKWNotAllowed</text>
<text text-anchor="start" x="209" y="-444.5" font-family="Helvetica,sans-Serif" font-size="10.00">ValueException_Keywords</text>
<text text-anchor="middle" x="298" y="-433.5" font-family="Helvetica,sans-Serif" font-size="10.00">_IGNORE.tcVerifyPlaceholderIGNORE2</text>
</a>
</g>
</g>
<!-- Node3070&#45;&gt;Node3078 -->
<g id="edge8" class="edge"><title>Node3070&#45;&gt;Node3078</title>
<path fill="none" stroke="midnightblue" d="M157.655,-466.088C171.663,-464.169 186.377,-462.154 200.78,-460.181"/>
<polygon fill="midnightblue" stroke="midnightblue" points="157.026,-462.642 147.594,-467.467 157.976,-469.577 157.026,-462.642"/>
</g>
<!-- Node3079 -->
<g id="node10" class="node"><title>Node3079</title>
<g id="a_node10"><a xlink:href="classokw_1_1core_1_1_e_n___verify_placeholder___o_k_w_verifying_fails_exception___test.html#a8fa7db3dfbbdad831586cc1de97877ef" target="_top" xlink:title="Prüft, ob die Ausnahme OKWVerifyingFailsException bei einem Soll/Ist&#45;Vergleich ausgelöst wird...">
<polygon fill="white" stroke="black" points="209,-355 209,-407 387,-407 387,-355 209,-355"/>
<text text-anchor="start" x="217" y="-395" font-family="Helvetica,sans-Serif" font-size="10.00">okw.core.EN_VerifyPlaceholder</text>
<text text-anchor="start" x="217" y="-384" font-family="Helvetica,sans-Serif" font-size="10.00">_OKWVerifyingFailsException</text>
<text text-anchor="start" x="217" y="-373" font-family="Helvetica,sans-Serif" font-size="10.00">_Test.TC_VerifyPlaceholder</text>
<text text-anchor="middle" x="298" y="-362" font-family="Helvetica,sans-Serif" font-size="10.00">_OKWVerifyingFailsException_SV01</text>
</a>
</g>
</g>
<!-- Node3070&#45;&gt;Node3079 -->
<g id="edge9" class="edge"><title>Node3070&#45;&gt;Node3079</title>
<path fill="none" stroke="midnightblue" d="M102.704,-462.215C125.012,-449.243 158.997,-430.408 190,-417 198.005,-413.538 206.461,-410.192 214.968,-407.026"/>
<polygon fill="midnightblue" stroke="midnightblue" points="100.753,-459.302 93.901,-467.383 104.297,-465.339 100.753,-459.302"/>
</g>
<!-- Node3080 -->
<g id="node11" class="node"><title>Node3080</title>
<g id="a_node11"><a xlink:href="classokw_1_1core_1_1_e_n___verify_placeholder___o_k_w_verifying_fails_exception___test.html#a3de10586e4a4ca4b92292aaf61f076f3" target="_top" xlink:title="Prüft, ob die Ausnahme OKWVerifyingFailsException bei einem Soll/Ist&#45;Vergleich ausgelöst wird...">
<polygon fill="white" stroke="black" points="209,-284 209,-336 387,-336 387,-284 209,-284"/>
<text text-anchor="start" x="217" y="-324" font-family="Helvetica,sans-Serif" font-size="10.00">okw.core.EN_VerifyPlaceholder</text>
<text text-anchor="start" x="217" y="-313" font-family="Helvetica,sans-Serif" font-size="10.00">_OKWVerifyingFailsException</text>
<text text-anchor="start" x="217" y="-302" font-family="Helvetica,sans-Serif" font-size="10.00">_Test.TC_VerifyPlaceholder</text>
<text text-anchor="middle" x="298" y="-291" font-family="Helvetica,sans-Serif" font-size="10.00">_OKWVerifyingFailsException_SV02</text>
</a>
</g>
</g>
<!-- Node3070&#45;&gt;Node3080 -->
<g id="edge10" class="edge"><title>Node3070&#45;&gt;Node3080</title>
<path fill="none" stroke="midnightblue" d="M89.2091,-458.356C107.101,-430.116 144.75,-376.56 190,-346 195.929,-341.996 202.342,-338.402 208.981,-335.183"/>
<polygon fill="midnightblue" stroke="midnightblue" points="86.0154,-456.865 83.7245,-467.209 91.9661,-460.552 86.0154,-456.865"/>
</g>
<!-- Node3081 -->
<g id="node12" class="node"><title>Node3081</title>
<g id="a_node12"><a xlink:href="classokw_1_1core_1_1_e_n___verify_placeholder___o_k_w_verifying_fails_exception___test.html#add60b25819f0f103f1b0576932b590ad" target="_top" xlink:title="Prüft, ob die Ausnahme OKWVerifyingFailsException bei einem Soll/Ist&#45;Vergleich ausgelöst wird...">
<polygon fill="white" stroke="black" points="209,-213 209,-265 387,-265 387,-213 209,-213"/>
<text text-anchor="start" x="217" y="-253" font-family="Helvetica,sans-Serif" font-size="10.00">okw.core.EN_VerifyPlaceholder</text>
<text text-anchor="start" x="217" y="-242" font-family="Helvetica,sans-Serif" font-size="10.00">_OKWVerifyingFailsException</text>
<text text-anchor="start" x="217" y="-231" font-family="Helvetica,sans-Serif" font-size="10.00">_Test.TC_VerifyPlaceholder</text>
<text text-anchor="middle" x="298" y="-220" font-family="Helvetica,sans-Serif" font-size="10.00">_OKWVerifyingFailsException_SV03</text>
</a>
</g>
</g>
<!-- Node3070&#45;&gt;Node3081 -->
<g id="edge11" class="edge"><title>Node3070&#45;&gt;Node3081</title>
<path fill="none" stroke="midnightblue" d="M83.5225,-457.524C95.8618,-417.478 129.451,-325.438 190,-275 195.723,-270.233 202.104,-266.088 208.822,-262.486"/>
<polygon fill="midnightblue" stroke="midnightblue" points="80.0925,-456.779 80.6009,-467.362 86.8029,-458.772 80.0925,-456.779"/>
</g>
<!-- Node3082 -->
<g id="node13" class="node"><title>Node3082</title>
<g id="a_node13"><a xlink:href="classokw_1_1core_1_1_e_n___verify_placeholder___o_k_w_verifying_fails_exception___test.html#a844de0f2992f79a344d6f0c095296b9e" target="_top" xlink:title="Prüft, ob die Ausnahme OKWVerifyingFailsException bei einem Soll/Ist&#45;Vergleich ausgelöst wird...">
<polygon fill="white" stroke="black" points="208.5,-142 208.5,-194 387.5,-194 387.5,-142 208.5,-142"/>
<text text-anchor="start" x="216.5" y="-182" font-family="Helvetica,sans-Serif" font-size="10.00">okw.core.EN_VerifyPlaceholder</text>
<text text-anchor="start" x="216.5" y="-171" font-family="Helvetica,sans-Serif" font-size="10.00">_OKWVerifyingFailsException</text>
<text text-anchor="start" x="216.5" y="-160" font-family="Helvetica,sans-Serif" font-size="10.00">_Test.TC_VerifyPlaceholder</text>
<text text-anchor="middle" x="298" y="-149" font-family="Helvetica,sans-Serif" font-size="10.00">_OKWVerifyingFailsException_MV01</text>
</a>
</g>
</g>
<!-- Node3070&#45;&gt;Node3082 -->
<g id="edge12" class="edge"><title>Node3070&#45;&gt;Node3082</title>
<path fill="none" stroke="midnightblue" d="M80.4376,-457.385C87.6419,-407.714 113.363,-275.828 190,-204 195.506,-198.84 201.775,-194.418 208.455,-190.628"/>
<polygon fill="midnightblue" stroke="midnightblue" points="76.9512,-457.049 79.0758,-467.428 83.8878,-457.989 76.9512,-457.049"/>
</g>
<!-- Node3083 -->
<g id="node14" class="node"><title>Node3083</title>
<g id="a_node14"><a xlink:href="classokw_1_1core_1_1_e_n___verify_placeholder___o_k_w_verifying_fails_exception___test.html#a06f87d2eff809d40e1c1f62f92a1b5ae" target="_top" xlink:title="Prüft, ob die Ausnahme OKWVerifyingFailsException bei einem Soll/Ist&#45;Vergleich ausgelöst wird...">
<polygon fill="white" stroke="black" points="208.5,-71 208.5,-123 387.5,-123 387.5,-71 208.5,-71"/>
<text text-anchor="start" x="216.5" y="-111" font-family="Helvetica,sans-Serif" font-size="10.00">okw.core.EN_VerifyPlaceholder</text>
<text text-anchor="start" x="216.5" y="-100" font-family="Helvetica,sans-Serif" font-size="10.00">_OKWVerifyingFailsException</text>
<text text-anchor="start" x="216.5" y="-89" font-family="Helvetica,sans-Serif" font-size="10.00">_Test.TC_VerifyPlaceholder</text>
<text text-anchor="middle" x="298" y="-78" font-family="Helvetica,sans-Serif" font-size="10.00">_OKWVerifyingFailsException_MV02</text>
</a>
</g>
</g>
<!-- Node3070&#45;&gt;Node3083 -->
<g id="edge13" class="edge"><title>Node3070&#45;&gt;Node3083</title>
<path fill="none" stroke="midnightblue" d="M78.5415,-457.139C81.2106,-398.929 96.9857,-226.93 190,-133 195.378,-127.569 201.602,-122.957 208.287,-119.04"/>
<polygon fill="midnightblue" stroke="midnightblue" points="75.0412,-457.083 78.1634,-467.208 82.0363,-457.346 75.0412,-457.083"/>
</g>
<!-- Node3084 -->
<g id="node15" class="node"><title>Node3084</title>
<g id="a_node15"><a xlink:href="classokw_1_1core_1_1_e_n___verify_placeholder___o_k_w_verifying_fails_exception___test.html#a598eb8529afcf45f202a4f18e8e0c8cb" target="_top" xlink:title="Prüft, ob die Ausnahme OKWVerifyingFailsException bei einem Soll/Ist&#45;Vergleich ausgelöst wird...">
<polygon fill="white" stroke="black" points="208.5,-0 208.5,-52 387.5,-52 387.5,-0 208.5,-0"/>
<text text-anchor="start" x="216.5" y="-40" font-family="Helvetica,sans-Serif" font-size="10.00">okw.core.EN_VerifyPlaceholder</text>
<text text-anchor="start" x="216.5" y="-29" font-family="Helvetica,sans-Serif" font-size="10.00">_OKWVerifyingFailsException</text>
<text text-anchor="start" x="216.5" y="-18" font-family="Helvetica,sans-Serif" font-size="10.00">_Test.TC_VerifyPlaceholder</text>
<text text-anchor="middle" x="298" y="-7" font-family="Helvetica,sans-Serif" font-size="10.00">_OKWVerifyingFailsException_MV03</text>
</a>
</g>
</g>
<!-- Node3070&#45;&gt;Node3084 -->
<g id="edge14" class="edge"><title>Node3070&#45;&gt;Node3084</title>
<path fill="none" stroke="midnightblue" d="M77.2303,-457.115C75.8017,-391.381 80.2541,-178.648 190,-62 195.372,-56.29 201.678,-51.4855 208.494,-47.443"/>
<polygon fill="midnightblue" stroke="midnightblue" points="73.7377,-457.419 77.5297,-467.312 80.7347,-457.214 73.7377,-457.419"/>
</g>
</g>
</svg>
