<?xml version="1.0" encoding="UTF-8" standalone="no"?>
<!DOCTYPE svg PUBLIC "-//W3C//DTD SVG 1.1//EN"
 "http://www.w3.org/Graphics/SVG/1.1/DTD/svg11.dtd">
<!-- Generated by graphviz version 2.26.3 (20100126.1600)
 -->
<!-- Title: okw.core.EN.LogValue Pages: 1 -->
<svg width="342pt" height="382pt"
 viewBox="0.00 0.00 342.00 382.00" xmlns="http://www.w3.org/2000/svg" xmlns:xlink="http://www.w3.org/1999/xlink">
<g id="graph1" class="graph" transform="scale(1 1) rotate(0) translate(4 378)">
<title>okw.core.EN.LogValue</title>
<polygon fill="white" stroke="white" points="-4,5 -4,-378 339,-378 339,5 -4,5"/>
<!-- Node798 -->
<g id="node1" class="node"><title>Node798</title>
<polygon fill="#bfbfbf" stroke="black" points="0.5,-176.5 0.5,-197.5 117.5,-197.5 117.5,-176.5 0.5,-176.5"/>
<text text-anchor="middle" x="59" y="-184.5" font-family="Helvetica,sans-Serif" font-size="10.00">okw.core.EN.LogValue</text>
</g>
<!-- Node799 -->
<g id="node3" class="node"><title>Node799</title>
<a xlink:href="classokw_1_1_se_button_1_1_se_button___test.html#aef48b30a3875d9ae2d8e6a3234361199" target="_top" xlink:title="Test des Schlüsselwortes LogTooltip für den GUI&#45;Adapter SeButton. ">
<polygon fill="white" stroke="black" points="154.5,-326.5 154.5,-373.5 333.5,-373.5 333.5,-326.5 154.5,-326.5"/>
<text text-anchor="start" x="162.5" y="-360.5" font-family="Helvetica,sans-Serif" font-size="10.00">okw.SeButton.SeButton</text>
<text text-anchor="start" x="162.5" y="-347.5" font-family="Helvetica,sans-Serif" font-size="10.00">_Test.tcLogValue_OKWFrameObject</text>
<text text-anchor="middle" x="244" y="-334.5" font-family="Helvetica,sans-Serif" font-size="10.00">MethodNotImplemented</text>
</a>
</g>
<!-- Node798&#45;&gt;Node799 -->
<g id="edge2" class="edge"><title>Node798&#45;&gt;Node799</title>
<path fill="none" stroke="midnightblue" d="M68.7624,-207.03C83.5059,-235.323 114.03,-286.892 154,-317 158.52,-320.404 163.426,-323.487 168.537,-326.272"/>
<polygon fill="midnightblue" stroke="midnightblue" points="71.6983,-205.08 64.0562,-197.742 65.4541,-208.244 71.6983,-205.08"/>
</g>
<!-- Node800 -->
<g id="node5" class="node"><title>Node800</title>
<a xlink:href="classokw_1_1_se_input_checkbox_1_1_se_input_checkbox___test.html#a542f6ac40fc3ea24ebc7ac74f506f5bd" target="_top" xlink:title="Speichert ob ein vorhandenes objekt existiert. ">
<polygon fill="white" stroke="black" points="168,-274 168,-308 320,-308 320,-274 168,-274"/>
<text text-anchor="start" x="176" y="-295" font-family="Helvetica,sans-Serif" font-size="10.00">okw.SeInputCheckbox.SeInput</text>
<text text-anchor="middle" x="244" y="-282" font-family="Helvetica,sans-Serif" font-size="10.00">Checkbox_Test.tcLogValue</text>
</a>
</g>
<!-- Node798&#45;&gt;Node800 -->
<g id="edge4" class="edge"><title>Node798&#45;&gt;Node800</title>
<path fill="none" stroke="midnightblue" d="M76.4581,-205.117C94.3896,-222.752 123.866,-249.145 154,-265 160.333,-268.332 167.148,-271.287 174.092,-273.895"/>
<polygon fill="midnightblue" stroke="midnightblue" points="78.6075,-202.316 69.0707,-197.701 73.6479,-207.256 78.6075,-202.316"/>
</g>
<!-- Node801 -->
<g id="node7" class="node"><title>Node801</title>
<a xlink:href="classokw_1_1_se_input_checkbox_1_1_se_input_checkbox___test.html#a702ffb63f0af2c995bd71ca884b0f408" target="_top" xlink:title="Prüft die SetFocusFunktion bei Textfelder mit dem Attribute &quot;ReadOnly&quot;. ">
<polygon fill="white" stroke="black" points="168,-222 168,-256 320,-256 320,-222 168,-222"/>
<text text-anchor="start" x="176" y="-243" font-family="Helvetica,sans-Serif" font-size="10.00">okw.SeInputCheckbox.SeInput</text>
<text text-anchor="middle" x="244" y="-230" font-family="Helvetica,sans-Serif" font-size="10.00">Checkbox_Test.tcSetFocus</text>
</a>
</g>
<!-- Node798&#45;&gt;Node801 -->
<g id="edge6" class="edge"><title>Node798&#45;&gt;Node801</title>
<path fill="none" stroke="midnightblue" d="M106.149,-200.253C129.607,-206.846 158.235,-214.893 183.312,-221.942"/>
<polygon fill="midnightblue" stroke="midnightblue" points="107.012,-196.86 96.4375,-197.523 105.117,-203.598 107.012,-196.86"/>
</g>
<!-- Node802 -->
<g id="node9" class="node"><title>Node802</title>
<a xlink:href="classokw_1_1_se_input_field_1_1_se_input_field___test.html#a42e4059b89141e92e2865652940ba9c2" target="_top" xlink:title="Teste das Schlüsselwort LogValue( FN ) eines SeInputText Prüfen. ">
<polygon fill="white" stroke="black" points="179.5,-170 179.5,-204 308.5,-204 308.5,-170 179.5,-170"/>
<text text-anchor="start" x="187.5" y="-191" font-family="Helvetica,sans-Serif" font-size="10.00">okw.SeInputField.SeInput</text>
<text text-anchor="middle" x="244" y="-178" font-family="Helvetica,sans-Serif" font-size="10.00">Field_Test.tcLogValue</text>
</a>
</g>
<!-- Node798&#45;&gt;Node802 -->
<g id="edge8" class="edge"><title>Node798&#45;&gt;Node802</title>
<path fill="none" stroke="midnightblue" d="M127.877,-187C144.755,-187 162.758,-187 179.426,-187"/>
<polygon fill="midnightblue" stroke="midnightblue" points="127.535,-183.5 117.535,-187 127.535,-190.5 127.535,-183.5"/>
</g>
<!-- Node803 -->
<g id="node11" class="node"><title>Node803</title>
<a xlink:href="classokw_1_1_se_input_field_1_1_se_input_field___test.html#aa7612889d0a642c440c6a085e205ac8f" target="_top" xlink:title="okw.SeInputField.SeInput\lField_Test.tcSelect_OKWGUIObject\lNotFoundException">
<polygon fill="white" stroke="black" points="155.5,-104.5 155.5,-151.5 332.5,-151.5 332.5,-104.5 155.5,-104.5"/>
<text text-anchor="start" x="163.5" y="-138.5" font-family="Helvetica,sans-Serif" font-size="10.00">okw.SeInputField.SeInput</text>
<text text-anchor="start" x="163.5" y="-125.5" font-family="Helvetica,sans-Serif" font-size="10.00">Field_Test.tcSelect_OKWGUIObject</text>
<text text-anchor="middle" x="244" y="-112.5" font-family="Helvetica,sans-Serif" font-size="10.00">NotFoundException</text>
</a>
</g>
<!-- Node798&#45;&gt;Node803 -->
<g id="edge10" class="edge"><title>Node798&#45;&gt;Node803</title>
<path fill="none" stroke="midnightblue" d="M101.661,-173.395C121.993,-166.91 146.907,-158.965 170.175,-151.544"/>
<polygon fill="midnightblue" stroke="midnightblue" points="100.538,-170.079 92.0743,-176.452 102.665,-176.748 100.538,-170.079"/>
</g>
<!-- Node804 -->
<g id="node13" class="node"><title>Node804</title>
<a xlink:href="classokw_1_1_se_input_radio_1_1_se_input_radio___e_n___test.html#a218a93e4888e4acbaf2b10f2b3302834" target="_top" xlink:title="Test des Schlüsselwortes LogTooltip für den GUI&#45;Adapter SeInputRadio. ">
<polygon fill="white" stroke="black" points="172.5,-52 172.5,-86 315.5,-86 315.5,-52 172.5,-52"/>
<text text-anchor="start" x="180.5" y="-73" font-family="Helvetica,sans-Serif" font-size="10.00">okw.SeInputRadio.SeInput</text>
<text text-anchor="middle" x="244" y="-60" font-family="Helvetica,sans-Serif" font-size="10.00">Radio_EN_Test.tc_LogValue</text>
</a>
</g>
<!-- Node798&#45;&gt;Node804 -->
<g id="edge12" class="edge"><title>Node798&#45;&gt;Node804</title>
<path fill="none" stroke="midnightblue" d="M73.3962,-168.391C90.4617,-147.57 120.802,-114.242 154,-95 159.769,-91.6561 165.999,-88.7164 172.394,-86.1372"/>
<polygon fill="midnightblue" stroke="midnightblue" points="70.4443,-166.478 66.9256,-176.472 75.9083,-170.854 70.4443,-166.478"/>
</g>
<!-- Node805 -->
<g id="node15" class="node"><title>Node805</title>
<a xlink:href="classokw_1_1_se_radio_list_1_1_se_radio_list___test.html#aea77598d5bb5139318c0a400174cc018" target="_top" xlink:title="Prüft die Methode SeRadioList.LogValue. ">
<polygon fill="white" stroke="black" points="170.5,-0 170.5,-34 317.5,-34 317.5,-0 170.5,-0"/>
<text text-anchor="start" x="178.5" y="-21" font-family="Helvetica,sans-Serif" font-size="10.00">okw.SeRadioList.SeRadioList</text>
<text text-anchor="middle" x="244" y="-8" font-family="Helvetica,sans-Serif" font-size="10.00">_Test.tcLogValue</text>
</a>
</g>
<!-- Node798&#45;&gt;Node805 -->
<g id="edge14" class="edge"><title>Node798&#45;&gt;Node805</title>
<path fill="none" stroke="midnightblue" d="M66.7456,-167.078C79.8983,-135.881 109.572,-75.6955 154,-43 158.978,-39.3369 164.461,-36.1883 170.189,-33.4823"/>
<polygon fill="midnightblue" stroke="midnightblue" points="63.453,-165.883 62.921,-176.465 69.9356,-168.525 63.453,-165.883"/>
</g>
</g>
</svg>
