<?xml version="1.0" encoding="UTF-8" standalone="no"?>
<!DOCTYPE svg PUBLIC "-//W3C//DTD SVG 1.1//EN"
 "http://www.w3.org/Graphics/SVG/1.1/DTD/svg11.dtd">
<!-- Generated by graphviz version 2.36.0 (20140111.2315)
 -->
<!-- Title: okw.gui.adapter.selenium.SeAnyWindow.Me Pages: 1 -->
<svg width="528pt" height="822pt"
 viewBox="0.00 0.00 528.00 822.00" xmlns="http://www.w3.org/2000/svg" xmlns:xlink="http://www.w3.org/1999/xlink">
<g id="graph0" class="graph" transform="scale(1 1) rotate(0) translate(4 818)">
<title>okw.gui.adapter.selenium.SeAnyWindow.Me</title>
<polygon fill="white" stroke="none" points="-4,4 -4,-818 524,-818 524,4 -4,4"/>
<!-- Node315 -->
<g id="node1" class="node"><title>Node315</title>
<polygon fill="#bfbfbf" stroke="black" points="0.5,-282 0.5,-312 131.5,-312 131.5,-282 0.5,-282"/>
<text text-anchor="start" x="8.5" y="-300" font-family="Helvetica,sans-Serif" font-size="10.00">okw.gui.adapter.selenium.</text>
<text text-anchor="middle" x="66" y="-289" font-family="Helvetica,sans-Serif" font-size="10.00">SeAnyWindow.Me</text>
</g>
<!-- Node316 -->
<g id="node2" class="node"><title>Node316</title>
<g id="a_node2"><a xlink:href="classokw_1_1gui_1_1adapter_1_1selenium_1_1_se_any_window.html#aa12522740af84cd18ca60c08bec1ce47" target="_top" xlink:title="Klickt auf das aktuelle Objekt. ">
<polygon fill="white" stroke="black" points="174.5,-735 174.5,-765 305.5,-765 305.5,-735 174.5,-735"/>
<text text-anchor="start" x="182.5" y="-753" font-family="Helvetica,sans-Serif" font-size="10.00">okw.gui.adapter.selenium.</text>
<text text-anchor="middle" x="240" y="-742" font-family="Helvetica,sans-Serif" font-size="10.00">SeAnyWindow.ClickOn</text>
</a>
</g>
</g>
<!-- Node315&#45;&gt;Node316 -->
<g id="edge1" class="edge"><title>Node315&#45;&gt;Node316</title>
<path fill="none" stroke="midnightblue" d="M69.8044,-322.439C79.3883,-405.073 113.306,-664.128 168,-725 171.494,-728.888 175.629,-732.172 180.12,-734.945"/>
<polygon fill="midnightblue" stroke="midnightblue" points="73.2712,-321.948 68.661,-312.409 66.3163,-322.741 73.2712,-321.948"/>
</g>
<!-- Node317 -->
<g id="node3" class="node"><title>Node317</title>
<g id="a_node3"><a xlink:href="classokw_1_1gui_1_1adapter_1_1selenium_1_1_se_any_window.html#ac628cf2651ecb5ac8104a8379a3fa06e" target="_top" xlink:title="Ermittelt den textuellen Inhalt der Überschrift eines HTML&#45;Tags anhand des Attributee &quot;textContent&quot;...">
<polygon fill="white" stroke="black" points="174.5,-686 174.5,-716 305.5,-716 305.5,-686 174.5,-686"/>
<text text-anchor="start" x="182.5" y="-704" font-family="Helvetica,sans-Serif" font-size="10.00">okw.gui.adapter.selenium.</text>
<text text-anchor="middle" x="240" y="-693" font-family="Helvetica,sans-Serif" font-size="10.00">SeAnyWindow.getCaption</text>
</a>
</g>
</g>
<!-- Node315&#45;&gt;Node317 -->
<g id="edge2" class="edge"><title>Node315&#45;&gt;Node317</title>
<path fill="none" stroke="midnightblue" d="M72.6,-322.203C85.0737,-375.73 118.038,-503.879 168,-602 184.315,-634.042 210.271,-667.185 225.869,-685.837"/>
<polygon fill="midnightblue" stroke="midnightblue" points="75.9613,-321.202 70.3149,-312.237 69.1384,-322.767 75.9613,-321.202"/>
</g>
<!-- Node321 -->
<g id="node7" class="node"><title>Node321</title>
<g id="a_node7"><a xlink:href="classokw_1_1gui_1_1adapter_1_1selenium_1_1_se_any_window.html#a2406dc361467d086f006ffe1aa8c89fe" target="_top" xlink:title="Methode liefert den aktuellen Zustand Wert des Focus. ">
<polygon fill="white" stroke="black" points="168.5,-563 168.5,-593 311.5,-593 311.5,-563 168.5,-563"/>
<text text-anchor="start" x="176.5" y="-581" font-family="Helvetica,sans-Serif" font-size="10.00">okw.gui.adapter.selenium.</text>
<text text-anchor="middle" x="240" y="-570" font-family="Helvetica,sans-Serif" font-size="10.00">SeAnyWindow.getHasFocus</text>
</a>
</g>
</g>
<!-- Node315&#45;&gt;Node321 -->
<g id="edge6" class="edge"><title>Node315&#45;&gt;Node321</title>
<path fill="none" stroke="midnightblue" d="M76.136,-321.699C91.637,-361.93 125.579,-443.218 168,-504 183.692,-526.484 206.198,-548.696 221.641,-562.827"/>
<polygon fill="midnightblue" stroke="midnightblue" points="79.3377,-320.271 72.5137,-312.167 72.7942,-322.758 79.3377,-320.271"/>
</g>
<!-- Node325 -->
<g id="node11" class="node"><title>Node325</title>
<g id="a_node11"><a xlink:href="classokw_1_1gui_1_1adapter_1_1selenium_1_1_se_any_window.html#a471a1346a97ca3365eb4274adcde296b" target="_top" xlink:title="Ermittelt, ob das aktuellen Objekt aktiv ist. ">
<polygon fill="white" stroke="black" points="173,-465 173,-495 307,-495 307,-465 173,-465"/>
<text text-anchor="start" x="181" y="-483" font-family="Helvetica,sans-Serif" font-size="10.00">okw.gui.adapter.selenium.</text>
<text text-anchor="middle" x="240" y="-472" font-family="Helvetica,sans-Serif" font-size="10.00">SeAnyWindow.getIsActive</text>
</a>
</g>
</g>
<!-- Node315&#45;&gt;Node325 -->
<g id="edge10" class="edge"><title>Node315&#45;&gt;Node325</title>
<path fill="none" stroke="midnightblue" d="M88.419,-319.789C124.069,-357.719 194.635,-432.798 224.793,-464.884"/>
<polygon fill="midnightblue" stroke="midnightblue" points="90.7678,-317.177 81.3688,-312.288 85.6671,-321.971 90.7678,-317.177"/>
</g>
<!-- Node328 -->
<g id="node14" class="node"><title>Node328</title>
<g id="a_node14"><a xlink:href="classokw_1_1gui_1_1adapter_1_1selenium_1_1_se_any_window.html#af08a80081d265dc09e1c7968227d4b15" target="_top" xlink:title="Ermittelt den textuellen Inhalt des Labels. ">
<polygon fill="white" stroke="black" points="174.5,-319 174.5,-349 305.5,-349 305.5,-319 174.5,-319"/>
<text text-anchor="start" x="182.5" y="-337" font-family="Helvetica,sans-Serif" font-size="10.00">okw.gui.adapter.selenium.</text>
<text text-anchor="middle" x="240" y="-326" font-family="Helvetica,sans-Serif" font-size="10.00">SeAnyWindow.getLabel</text>
</a>
</g>
</g>
<!-- Node315&#45;&gt;Node328 -->
<g id="edge14" class="edge"><title>Node315&#45;&gt;Node328</title>
<path fill="none" stroke="midnightblue" d="M141.501,-313.026C152.453,-315.382 163.658,-317.793 174.389,-320.101"/>
<polygon fill="midnightblue" stroke="midnightblue" points="142.048,-309.564 131.536,-310.883 140.576,-316.408 142.048,-309.564"/>
</g>
<!-- Node332 -->
<g id="node18" class="node"><title>Node332</title>
<g id="a_node18"><a xlink:href="classokw_1_1gui_1_1adapter_1_1selenium_1_1_se_any_window.html#afb3aa055dd6f2604bf484a9c44f77909" target="_top" xlink:title="Ermittelt den textuellen Inhalt des ToolTips. ">
<polygon fill="white" stroke="black" points="174.5,-245 174.5,-275 305.5,-275 305.5,-245 174.5,-245"/>
<text text-anchor="start" x="182.5" y="-263" font-family="Helvetica,sans-Serif" font-size="10.00">okw.gui.adapter.selenium.</text>
<text text-anchor="middle" x="240" y="-252" font-family="Helvetica,sans-Serif" font-size="10.00">SeAnyWindow.getTooltip</text>
</a>
</g>
</g>
<!-- Node315&#45;&gt;Node332 -->
<g id="edge18" class="edge"><title>Node315&#45;&gt;Node332</title>
<path fill="none" stroke="midnightblue" d="M141.501,-280.974C152.453,-278.618 163.658,-276.207 174.389,-273.899"/>
<polygon fill="midnightblue" stroke="midnightblue" points="140.576,-277.592 131.536,-283.117 142.048,-284.436 140.576,-277.592"/>
</g>
<!-- Node336 -->
<g id="node22" class="node"><title>Node336</title>
<g id="a_node22"><a xlink:href="classokw_1_1gui_1_1adapter_1_1selenium_1_1_se_any_window.html#a5d60d6ec1ef41ea4f7cc4f1bf3c65fa1" target="_top" xlink:title="Liest den aktuellen Wert/Text aus dem HTML&#45;Tag. ">
<polygon fill="white" stroke="black" points="174.5,-196 174.5,-226 305.5,-226 305.5,-196 174.5,-196"/>
<text text-anchor="start" x="182.5" y="-214" font-family="Helvetica,sans-Serif" font-size="10.00">okw.gui.adapter.selenium.</text>
<text text-anchor="middle" x="240" y="-203" font-family="Helvetica,sans-Serif" font-size="10.00">SeAnyWindow.getValue</text>
</a>
</g>
</g>
<!-- Node315&#45;&gt;Node336 -->
<g id="edge22" class="edge"><title>Node315&#45;&gt;Node336</title>
<path fill="none" stroke="midnightblue" d="M97.6206,-276.247C117.189,-263.561 143.421,-247.6 168,-236 175.564,-232.43 183.783,-229.083 191.857,-226.07"/>
<polygon fill="midnightblue" stroke="midnightblue" points="95.5701,-273.406 89.1283,-281.818 99.4096,-279.259 95.5701,-273.406"/>
</g>
<!-- Node340 -->
<g id="node26" class="node"><title>Node340</title>
<g id="a_node26"><a xlink:href="classokw_1_1gui_1_1adapter_1_1selenium_1_1_se_any_window.html#a0bef055aba55927cd32eea0fe23d9805" target="_top" xlink:title="Prüft die nicht Existenz des aktuellen Objektes. ">
<polygon fill="white" stroke="black" points="174.5,-147 174.5,-177 305.5,-177 305.5,-147 174.5,-147"/>
<text text-anchor="start" x="182.5" y="-165" font-family="Helvetica,sans-Serif" font-size="10.00">okw.gui.adapter.selenium.</text>
<text text-anchor="middle" x="240" y="-154" font-family="Helvetica,sans-Serif" font-size="10.00">SeAnyWindow.NotExists</text>
</a>
</g>
</g>
<!-- Node315&#45;&gt;Node340 -->
<g id="edge26" class="edge"><title>Node315&#45;&gt;Node340</title>
<path fill="none" stroke="midnightblue" d="M83.3435,-273.205C101.432,-248.499 132.731,-210.273 168,-187 173.781,-183.185 180.211,-179.879 186.775,-177.033"/>
<polygon fill="midnightblue" stroke="midnightblue" points="80.2765,-271.476 77.2942,-281.642 85.9654,-275.554 80.2765,-271.476"/>
</g>
<!-- Node341 -->
<g id="node27" class="node"><title>Node341</title>
<g id="a_node27"><a xlink:href="classokw_1_1gui_1_1adapter_1_1selenium_1_1_se_any_window.html#a18cc21003d35c2cdcd17b78bf91f2045" target="_top" xlink:title="Setzt den Focus auf das Objekt. ">
<polygon fill="white" stroke="black" points="174.5,-98 174.5,-128 305.5,-128 305.5,-98 174.5,-98"/>
<text text-anchor="start" x="182.5" y="-116" font-family="Helvetica,sans-Serif" font-size="10.00">okw.gui.adapter.selenium.</text>
<text text-anchor="middle" x="240" y="-105" font-family="Helvetica,sans-Serif" font-size="10.00">SeAnyWindow.SetFocus</text>
</a>
</g>
</g>
<!-- Node315&#45;&gt;Node341 -->
<g id="edge27" class="edge"><title>Node315&#45;&gt;Node341</title>
<path fill="none" stroke="midnightblue" d="M76.4061,-272.562C90.952,-237.864 122.103,-174.491 168,-138 172.808,-134.178 178.243,-130.916 183.914,-128.138"/>
<polygon fill="midnightblue" stroke="midnightblue" points="73.1149,-271.364 72.5857,-281.945 79.5982,-274.003 73.1149,-271.364"/>
</g>
<!-- Node342 -->
<g id="node28" class="node"><title>Node342</title>
<g id="a_node28"><a xlink:href="classokw_1_1gui_1_1adapter_1_1selenium_1_1_se_any_window.html#ab8c870d4fbe1a9eab110f75320991f64" target="_top" xlink:title="Tastatur Eingabe an das Objekt. ">
<polygon fill="white" stroke="black" points="174.5,-49 174.5,-79 305.5,-79 305.5,-49 174.5,-49"/>
<text text-anchor="start" x="182.5" y="-67" font-family="Helvetica,sans-Serif" font-size="10.00">okw.gui.adapter.selenium.</text>
<text text-anchor="middle" x="240" y="-56" font-family="Helvetica,sans-Serif" font-size="10.00">SeAnyWindow.TypeKey</text>
</a>
</g>
</g>
<!-- Node315&#45;&gt;Node342 -->
<g id="edge28" class="edge"><title>Node315&#45;&gt;Node342</title>
<path fill="none" stroke="midnightblue" d="M72.5148,-272.044C83.3428,-228.743 111.418,-139.499 168,-89 172.29,-85.1713 177.203,-81.9201 182.397,-79.1611"/>
<polygon fill="midnightblue" stroke="midnightblue" points="69.1109,-271.23 70.1818,-281.77 75.9178,-272.862 69.1109,-271.23"/>
</g>
<!-- Node318 -->
<g id="node4" class="node"><title>Node318</title>
<g id="a_node4"><a xlink:href="classokw_1_1gui_1_1adapter_1_1selenium_1_1_se_any_window.html#a592cca9ca404042c076ba6e114daf31d" target="_top" xlink:title="Ermittelt den textuellen Inhalt der Beschriftung (Caption). ">
<polygon fill="white" stroke="black" points="367,-784 367,-814 501,-814 501,-784 367,-784"/>
<text text-anchor="start" x="375" y="-802" font-family="Helvetica,sans-Serif" font-size="10.00">okw.gui.adapter.selenium.</text>
<text text-anchor="middle" x="434" y="-791" font-family="Helvetica,sans-Serif" font-size="10.00">SeAnyWindow.LogCaption</text>
</a>
</g>
</g>
<!-- Node317&#45;&gt;Node318 -->
<g id="edge3" class="edge"><title>Node317&#45;&gt;Node318</title>
<path fill="none" stroke="midnightblue" d="M303.666,-720.611C306.569,-722.274 309.366,-724.068 312,-726 333.501,-741.773 326.092,-758.796 348,-774 353.813,-778.034 360.281,-781.426 366.982,-784.275"/>
<polygon fill="midnightblue" stroke="midnightblue" points="305.193,-717.46 294.698,-716.004 301.994,-723.687 305.193,-717.46"/>
</g>
<!-- Node319 -->
<g id="node5" class="node"><title>Node319</title>
<g id="a_node5"><a xlink:href="classokw_1_1gui_1_1adapter_1_1selenium_1_1_se_any_window.html#a79fed120f45d576a1e34bba8c3936f0a" target="_top" xlink:title="Ermittelt den textuellen Inhalt des Caption/Überschrift für das Schlüsselwort MerkeWert. ">
<polygon fill="white" stroke="black" points="353.5,-735 353.5,-765 514.5,-765 514.5,-735 353.5,-735"/>
<text text-anchor="start" x="361.5" y="-753" font-family="Helvetica,sans-Serif" font-size="10.00">okw.gui.adapter.selenium.</text>
<text text-anchor="middle" x="434" y="-742" font-family="Helvetica,sans-Serif" font-size="10.00">SeAnyWindow.MemorizeCaption</text>
</a>
</g>
</g>
<!-- Node317&#45;&gt;Node319 -->
<g id="edge4" class="edge"><title>Node317&#45;&gt;Node319</title>
<path fill="none" stroke="midnightblue" d="M309.767,-718.55C330.851,-723.931 353.845,-729.799 374.2,-734.994"/>
<polygon fill="midnightblue" stroke="midnightblue" points="310.466,-715.116 299.911,-716.035 308.735,-721.899 310.466,-715.116"/>
</g>
<!-- Node320 -->
<g id="node6" class="node"><title>Node320</title>
<g id="a_node6"><a xlink:href="classokw_1_1gui_1_1adapter_1_1selenium_1_1_se_any_window.html#a9ad73167da71aa8082d826f9d84ef288" target="_top" xlink:title="Ermittelt den textuellen Inhalt des ToolTips für Prüfewert. ">
<polygon fill="white" stroke="black" points="362.5,-686 362.5,-716 505.5,-716 505.5,-686 362.5,-686"/>
<text text-anchor="start" x="370.5" y="-704" font-family="Helvetica,sans-Serif" font-size="10.00">okw.gui.adapter.selenium.</text>
<text text-anchor="middle" x="434" y="-693" font-family="Helvetica,sans-Serif" font-size="10.00">SeAnyWindow.VerifyCaption</text>
</a>
</g>
</g>
<!-- Node317&#45;&gt;Node320 -->
<g id="edge5" class="edge"><title>Node317&#45;&gt;Node320</title>
<path fill="none" stroke="midnightblue" d="M316.119,-701C331.316,-701 347.246,-701 362.285,-701"/>
<polygon fill="midnightblue" stroke="midnightblue" points="315.735,-697.5 305.735,-701 315.735,-704.5 315.735,-697.5"/>
</g>
<!-- Node322 -->
<g id="node8" class="node"><title>Node322</title>
<g id="a_node8"><a xlink:href="classokw_1_1gui_1_1adapter_1_1selenium_1_1_se_any_window.html#a81fc0c4d8a2797fc2f67124883b58aa0" target="_top" xlink:title="Ermittelt für LoggeWert, ob das aktuelle Objekt den Fokus hat. ">
<polygon fill="white" stroke="black" points="361.5,-637 361.5,-667 506.5,-667 506.5,-637 361.5,-637"/>
<text text-anchor="start" x="369.5" y="-655" font-family="Helvetica,sans-Serif" font-size="10.00">okw.gui.adapter.selenium.</text>
<text text-anchor="middle" x="434" y="-644" font-family="Helvetica,sans-Serif" font-size="10.00">SeAnyWindow.LogHasFocus</text>
</a>
</g>
</g>
<!-- Node321&#45;&gt;Node322 -->
<g id="edge7" class="edge"><title>Node321&#45;&gt;Node322</title>
<path fill="none" stroke="midnightblue" d="M280.066,-597.526C300.09,-607.112 325.035,-618.415 348,-627 357.365,-630.501 367.455,-633.836 377.296,-636.863"/>
<polygon fill="midnightblue" stroke="midnightblue" points="281.477,-594.32 270.951,-593.118 278.43,-600.622 281.477,-594.32"/>
</g>
<!-- Node323 -->
<g id="node9" class="node"><title>Node323</title>
<g id="a_node9"><a xlink:href="classokw_1_1gui_1_1adapter_1_1selenium_1_1_se_any_window.html#a9bbcabb6c1d3b95ca94a3bd0921b206c" target="_top" xlink:title="Ermittelt ob das Objekt den Fokus besitz und liefert diesen für das Schlüsselwort MerkeWert...">
<polygon fill="white" stroke="black" points="348,-588 348,-618 520,-618 520,-588 348,-588"/>
<text text-anchor="start" x="356" y="-606" font-family="Helvetica,sans-Serif" font-size="10.00">okw.gui.adapter.selenium.</text>
<text text-anchor="middle" x="434" y="-595" font-family="Helvetica,sans-Serif" font-size="10.00">SeAnyWindow.MemorizeHasFocus</text>
</a>
</g>
</g>
<!-- Node321&#45;&gt;Node323 -->
<g id="edge8" class="edge"><title>Node321&#45;&gt;Node323</title>
<path fill="none" stroke="midnightblue" d="M321.712,-588.509C330.342,-589.633 339.142,-590.779 347.822,-591.909"/>
<polygon fill="midnightblue" stroke="midnightblue" points="322.044,-585.023 311.676,-587.203 321.14,-591.965 322.044,-585.023"/>
</g>
<!-- Node324 -->
<g id="node10" class="node"><title>Node324</title>
<g id="a_node10"><a xlink:href="classokw_1_1gui_1_1adapter_1_1selenium_1_1_se_any_window.html#a6498c1c87ad98dc2cd7e601106023720" target="_top" xlink:title="Ermittelt/Prüft, ob das aktuelle Objekt aktiv ist. ">
<polygon fill="white" stroke="black" points="361,-539 361,-569 507,-569 507,-539 361,-539"/>
<text text-anchor="start" x="369" y="-557" font-family="Helvetica,sans-Serif" font-size="10.00">okw.gui.adapter.selenium.</text>
<text text-anchor="middle" x="434" y="-546" font-family="Helvetica,sans-Serif" font-size="10.00">SeAnyWindow.VerifyIsActive</text>
</a>
</g>
</g>
<!-- Node321&#45;&gt;Node324 -->
<g id="edge9" class="edge"><title>Node321&#45;&gt;Node324</title>
<path fill="none" stroke="midnightblue" d="M321.942,-567.882C334.867,-566.267 348.165,-564.604 360.867,-563.017"/>
<polygon fill="midnightblue" stroke="midnightblue" points="321.164,-564.452 311.676,-569.166 322.033,-571.398 321.164,-564.452"/>
</g>
<!-- Node325&#45;&gt;Node324 -->
<g id="edge13" class="edge"><title>Node325&#45;&gt;Node324</title>
<path fill="none" stroke="midnightblue" d="M280.066,-499.526C300.09,-509.112 325.035,-520.415 348,-529 357.365,-532.501 367.455,-535.836 377.296,-538.863"/>
<polygon fill="midnightblue" stroke="midnightblue" points="281.477,-496.32 270.951,-495.118 278.43,-502.622 281.477,-496.32"/>
</g>
<!-- Node326 -->
<g id="node12" class="node"><title>Node326</title>
<g id="a_node12"><a xlink:href="classokw_1_1gui_1_1adapter_1_1selenium_1_1_se_any_window.html#a5f4b400e4aa9e68fd083ea205feb1c32" target="_top" xlink:title="Ermittelt, ob das aktuelle Objket Aktiv ist. ">
<polygon fill="white" stroke="black" points="366,-490 366,-520 502,-520 502,-490 366,-490"/>
<text text-anchor="start" x="374" y="-508" font-family="Helvetica,sans-Serif" font-size="10.00">okw.gui.adapter.selenium.</text>
<text text-anchor="middle" x="434" y="-497" font-family="Helvetica,sans-Serif" font-size="10.00">SeAnyWindow.LogIsActive</text>
</a>
</g>
</g>
<!-- Node325&#45;&gt;Node326 -->
<g id="edge11" class="edge"><title>Node325&#45;&gt;Node326</title>
<path fill="none" stroke="midnightblue" d="M317,-489.896C333.131,-491.996 350.05,-494.199 365.825,-496.253"/>
<polygon fill="midnightblue" stroke="midnightblue" points="317.444,-486.424 307.076,-488.604 316.54,-493.366 317.444,-486.424"/>
</g>
<!-- Node327 -->
<g id="node13" class="node"><title>Node327</title>
<g id="a_node13"><a xlink:href="classokw_1_1gui_1_1adapter_1_1selenium_1_1_se_any_window.html#a4c220e499764b9b1523bee0e68727699" target="_top" xlink:title="Ermittelt für das Schlüsselwort MerkeIstAktive, ob das aktuelle Objekt aktiv ist. ...">
<polygon fill="white" stroke="black" points="352.5,-441 352.5,-471 515.5,-471 515.5,-441 352.5,-441"/>
<text text-anchor="start" x="360.5" y="-459" font-family="Helvetica,sans-Serif" font-size="10.00">okw.gui.adapter.selenium.</text>
<text text-anchor="middle" x="434" y="-448" font-family="Helvetica,sans-Serif" font-size="10.00">SeAnyWindow.MemorizeIsActive</text>
</a>
</g>
</g>
<!-- Node325&#45;&gt;Node327 -->
<g id="edge12" class="edge"><title>Node325&#45;&gt;Node327</title>
<path fill="none" stroke="midnightblue" d="M317.094,-470.488C328.632,-469.046 340.571,-467.554 352.205,-466.099"/>
<polygon fill="midnightblue" stroke="midnightblue" points="316.564,-467.027 307.076,-471.741 317.432,-473.973 316.564,-467.027"/>
</g>
<!-- Node329 -->
<g id="node15" class="node"><title>Node329</title>
<g id="a_node15"><a xlink:href="classokw_1_1gui_1_1adapter_1_1selenium_1_1_se_any_window.html#a7d9329528a1de239d3f545dbc4ab3349" target="_top" xlink:title="Logt den textuellen Inhalt des Labels eines Objektes. ">
<polygon fill="white" stroke="black" points="368.5,-392 368.5,-422 499.5,-422 499.5,-392 368.5,-392"/>
<text text-anchor="start" x="376.5" y="-410" font-family="Helvetica,sans-Serif" font-size="10.00">okw.gui.adapter.selenium.</text>
<text text-anchor="middle" x="434" y="-399" font-family="Helvetica,sans-Serif" font-size="10.00">SeAnyWindow.LogLabel</text>
</a>
</g>
</g>
<!-- Node328&#45;&gt;Node329 -->
<g id="edge15" class="edge"><title>Node328&#45;&gt;Node329</title>
<path fill="none" stroke="midnightblue" d="M280.975,-353.486C300.858,-362.776 325.412,-373.656 348,-382 357.523,-385.518 367.786,-388.884 377.773,-391.942"/>
<polygon fill="midnightblue" stroke="midnightblue" points="282.443,-350.308 271.906,-349.207 279.456,-356.639 282.443,-350.308"/>
</g>
<!-- Node330 -->
<g id="node16" class="node"><title>Node330</title>
<g id="a_node16"><a xlink:href="classokw_1_1gui_1_1adapter_1_1selenium_1_1_se_any_window.html#a26e0e12d54e793e6cb084161d22d173e" target="_top" xlink:title="Ermittelt den textuellen Inhalt des Labels für das Schlüsselwort MerkeWert. ">
<polygon fill="white" stroke="black" points="359,-343 359,-373 509,-373 509,-343 359,-343"/>
<text text-anchor="start" x="367" y="-361" font-family="Helvetica,sans-Serif" font-size="10.00">okw.gui.adapter.selenium.</text>
<text text-anchor="middle" x="434" y="-350" font-family="Helvetica,sans-Serif" font-size="10.00">SeAnyWindow.MemorizeLabel</text>
</a>
</g>
</g>
<!-- Node328&#45;&gt;Node330 -->
<g id="edge16" class="edge"><title>Node328&#45;&gt;Node330</title>
<path fill="none" stroke="midnightblue" d="M315.901,-343.363C330.044,-345.13 344.83,-346.979 358.946,-348.743"/>
<polygon fill="midnightblue" stroke="midnightblue" points="316.092,-339.859 305.735,-342.092 315.223,-346.805 316.092,-339.859"/>
</g>
<!-- Node331 -->
<g id="node17" class="node"><title>Node331</title>
<g id="a_node17"><a xlink:href="classokw_1_1gui_1_1adapter_1_1selenium_1_1_se_any_window.html#af43e390e1ff415edf0f712ccad4c60e7" target="_top" xlink:title="Ermittelt den textuellen Inhalt des Labels für Prüfewert. ">
<polygon fill="white" stroke="black" points="367.5,-294 367.5,-324 500.5,-324 500.5,-294 367.5,-294"/>
<text text-anchor="start" x="375.5" y="-312" font-family="Helvetica,sans-Serif" font-size="10.00">okw.gui.adapter.selenium.</text>
<text text-anchor="middle" x="434" y="-301" font-family="Helvetica,sans-Serif" font-size="10.00">SeAnyWindow.VerifyLabel</text>
</a>
</g>
</g>
<!-- Node328&#45;&gt;Node331 -->
<g id="edge17" class="edge"><title>Node328&#45;&gt;Node331</title>
<path fill="none" stroke="midnightblue" d="M316.108,-324.22C332.988,-322.022 350.774,-319.707 367.238,-317.563"/>
<polygon fill="midnightblue" stroke="midnightblue" points="315.199,-320.809 305.735,-325.571 316.103,-327.75 315.199,-320.809"/>
</g>
<!-- Node333 -->
<g id="node19" class="node"><title>Node333</title>
<g id="a_node19"><a xlink:href="classokw_1_1gui_1_1adapter_1_1selenium_1_1_se_any_window.html#afc2a8c2aa64ef9cf5ea8b29e85d7d65c" target="_top" xlink:title="Logt den textuellen Inhalt des ToolTips. ">
<polygon fill="white" stroke="black" points="368.5,-245 368.5,-275 499.5,-275 499.5,-245 368.5,-245"/>
<text text-anchor="start" x="376.5" y="-263" font-family="Helvetica,sans-Serif" font-size="10.00">okw.gui.adapter.selenium.</text>
<text text-anchor="middle" x="434" y="-252" font-family="Helvetica,sans-Serif" font-size="10.00">SeAnyWindow.LogTooltip</text>
</a>
</g>
</g>
<!-- Node332&#45;&gt;Node333 -->
<g id="edge19" class="edge"><title>Node332&#45;&gt;Node333</title>
<path fill="none" stroke="midnightblue" d="M315.796,-260C333.104,-260 351.381,-260 368.22,-260"/>
<polygon fill="midnightblue" stroke="midnightblue" points="315.735,-256.5 305.735,-260 315.735,-263.5 315.735,-256.5"/>
</g>
<!-- Node334 -->
<g id="node20" class="node"><title>Node334</title>
<g id="a_node20"><a xlink:href="classokw_1_1gui_1_1adapter_1_1selenium_1_1_se_any_window.html#a20997f7ec363af3e52ded1d26822090c" target="_top" xlink:title="Ermittelt den textuellen Inhalt des ToolTips für das Schlüsselwort MerkeWert. ">
<polygon fill="white" stroke="black" points="356,-196 356,-226 512,-226 512,-196 356,-196"/>
<text text-anchor="start" x="364" y="-214" font-family="Helvetica,sans-Serif" font-size="10.00">okw.gui.adapter.selenium.</text>
<text text-anchor="middle" x="434" y="-203" font-family="Helvetica,sans-Serif" font-size="10.00">SeAnyWindow.MemorizeTooltip</text>
</a>
</g>
</g>
<!-- Node332&#45;&gt;Node334 -->
<g id="edge20" class="edge"><title>Node332&#45;&gt;Node334</title>
<path fill="none" stroke="midnightblue" d="M309.767,-242.45C330.851,-237.069 353.845,-231.201 374.2,-226.006"/>
<polygon fill="midnightblue" stroke="midnightblue" points="308.735,-239.101 299.911,-244.965 310.466,-245.884 308.735,-239.101"/>
</g>
<!-- Node335 -->
<g id="node21" class="node"><title>Node335</title>
<g id="a_node21"><a xlink:href="classokw_1_1gui_1_1adapter_1_1selenium_1_1_se_any_window.html#a6cf810f4712e4e7892f47722dd57a6f2" target="_top" xlink:title="Ermittelt den textuellen Inhalt des ToolTips für Prüfewert. ">
<polygon fill="white" stroke="black" points="364.5,-147 364.5,-177 503.5,-177 503.5,-147 364.5,-147"/>
<text text-anchor="start" x="372.5" y="-165" font-family="Helvetica,sans-Serif" font-size="10.00">okw.gui.adapter.selenium.</text>
<text text-anchor="middle" x="434" y="-154" font-family="Helvetica,sans-Serif" font-size="10.00">SeAnyWindow.VerifyTooltip</text>
</a>
</g>
</g>
<!-- Node332&#45;&gt;Node335 -->
<g id="edge21" class="edge"><title>Node332&#45;&gt;Node335</title>
<path fill="none" stroke="midnightblue" d="M303.666,-240.389C306.569,-238.726 309.366,-236.932 312,-235 333.501,-219.227 326.092,-202.204 348,-187 353.56,-183.141 359.72,-179.87 366.109,-177.099"/>
<polygon fill="midnightblue" stroke="midnightblue" points="301.994,-237.313 294.698,-244.996 305.193,-243.54 301.994,-237.313"/>
</g>
<!-- Node337 -->
<g id="node23" class="node"><title>Node337</title>
<g id="a_node23"><a xlink:href="classokw_1_1gui_1_1adapter_1_1selenium_1_1_se_any_window.html#a4393c40898d3b2173978f22ef3a5064e" target="_top" xlink:title="Ermittelt den Wert des Objktes für das Schlüsselwort Loggewert. ">
<polygon fill="white" stroke="black" points="368.5,-98 368.5,-128 499.5,-128 499.5,-98 368.5,-98"/>
<text text-anchor="start" x="376.5" y="-116" font-family="Helvetica,sans-Serif" font-size="10.00">okw.gui.adapter.selenium.</text>
<text text-anchor="middle" x="434" y="-105" font-family="Helvetica,sans-Serif" font-size="10.00">SeAnyWindow.LogValue</text>
</a>
</g>
</g>
<!-- Node336&#45;&gt;Node337 -->
<g id="edge23" class="edge"><title>Node336&#45;&gt;Node337</title>
<path fill="none" stroke="midnightblue" d="M303.666,-191.389C306.569,-189.726 309.366,-187.932 312,-186 333.501,-170.227 326.092,-153.204 348,-138 354.192,-133.703 361.128,-130.135 368.296,-127.174"/>
<polygon fill="midnightblue" stroke="midnightblue" points="301.994,-188.313 294.698,-195.996 305.193,-194.54 301.994,-188.313"/>
</g>
<!-- Node338 -->
<g id="node24" class="node"><title>Node338</title>
<g id="a_node24"><a xlink:href="classokw_1_1gui_1_1adapter_1_1selenium_1_1_se_any_window.html#a12e4a6c87233f7de1d6738313709865e" target="_top" xlink:title="Ermittelt den Wert, im Allgemeinen den textuellen Inhalt eines Objektes für das Schlüsselwort MerkeWe...">
<polygon fill="white" stroke="black" points="358,-49 358,-79 510,-79 510,-49 358,-49"/>
<text text-anchor="start" x="366" y="-67" font-family="Helvetica,sans-Serif" font-size="10.00">okw.gui.adapter.selenium.</text>
<text text-anchor="middle" x="434" y="-56" font-family="Helvetica,sans-Serif" font-size="10.00">SeAnyWindow.MemorizeValue</text>
</a>
</g>
</g>
<!-- Node336&#45;&gt;Node338 -->
<g id="edge24" class="edge"><title>Node336&#45;&gt;Node338</title>
<path fill="none" stroke="midnightblue" d="M307.349,-190.085C308.977,-188.803 310.532,-187.443 312,-186 344.788,-153.759 314.377,-120.37 348,-89 352.161,-85.1175 356.896,-81.8351 361.95,-79.0603"/>
<polygon fill="midnightblue" stroke="midnightblue" points="305.064,-187.403 298.69,-195.865 308.95,-193.225 305.064,-187.403"/>
</g>
<!-- Node339 -->
<g id="node25" class="node"><title>Node339</title>
<g id="a_node25"><a xlink:href="classokw_1_1gui_1_1adapter_1_1selenium_1_1_se_any_window.html#a22e71a15606b0dc55a2b2ded64043780" target="_top" xlink:title="Ermittelt den textuellen Inhalt des markierten Textes für Prüfewert. ">
<polygon fill="white" stroke="black" points="367,-0 367,-30 501,-30 501,-0 367,-0"/>
<text text-anchor="start" x="375" y="-18" font-family="Helvetica,sans-Serif" font-size="10.00">okw.gui.adapter.selenium.</text>
<text text-anchor="middle" x="434" y="-7" font-family="Helvetica,sans-Serif" font-size="10.00">SeAnyWindow.VerifyValue</text>
</a>
</g>
</g>
<!-- Node336&#45;&gt;Node339 -->
<g id="edge25" class="edge"><title>Node336&#45;&gt;Node339</title>
<path fill="none" stroke="midnightblue" d="M308.163,-189.783C309.51,-188.59 310.792,-187.331 312,-186 356.916,-136.511 301.801,-88.2927 348,-40 353.317,-34.4425 359.799,-30.1023 366.789,-26.7158"/>
<polygon fill="midnightblue" stroke="midnightblue" points="305.82,-187.162 299.838,-195.907 309.968,-192.801 305.82,-187.162"/>
</g>
</g>
</svg>
