<?xml version="1.0" encoding="UTF-8" standalone="no"?>
<!DOCTYPE svg PUBLIC "-//W3C//DTD SVG 1.1//EN"
 "http://www.w3.org/Graphics/SVG/1.1/DTD/svg11.dtd">
<!-- Generated by graphviz version 2.38.0 (20140413.2041)
 -->
<!-- Title: okw.FrameObjectDictionary_Sngltn.frameScan Pages: 1 -->
<svg width="762pt" height="362pt"
 viewBox="0.00 0.00 762.00 362.00" xmlns="http://www.w3.org/2000/svg" xmlns:xlink="http://www.w3.org/1999/xlink">
<g id="graph0" class="graph" transform="scale(1 1) rotate(0) translate(4 358)">
<title>okw.FrameObjectDictionary_Sngltn.frameScan</title>
<polygon fill="white" stroke="none" points="-4,4 -4,-358 758,-358 758,4 -4,4"/>
<!-- Node2 -->
<g id="node1" class="node"><title>Node2</title>
<g id="a_node1"><a xlink:title="Liefert die Instanz der Klasse.">
<polygon fill="#bfbfbf" stroke="black" points="0,-159.5 0,-189.5 146,-189.5 146,-159.5 0,-159.5"/>
<text text-anchor="start" x="8" y="-177.5" font-family="Helvetica,sans-Serif" font-size="10.00">okw.FrameObjectDictionary</text>
<text text-anchor="middle" x="73" y="-166.5" font-family="Helvetica,sans-Serif" font-size="10.00">_Sngltn.frameScan</text>
</a>
</g>
</g>
<!-- Node3 -->
<g id="node2" class="node"><title>Node3</title>
<g id="a_node2"><a xlink:href="classokw_1_1log_1_1_logger___sngltn.html#ab4fc711bb4c754f251372ff3b14ab9c9" target="_top" xlink:title="Creates a new hierarchical level in the results file.">
<polygon fill="white" stroke="black" points="197,-323.5 197,-353.5 340,-353.5 340,-323.5 197,-323.5"/>
<text text-anchor="start" x="205" y="-341.5" font-family="Helvetica,sans-Serif" font-size="10.00">okw.log.Logger_Sngltn.Res</text>
<text text-anchor="middle" x="268.5" y="-330.5" font-family="Helvetica,sans-Serif" font-size="10.00">OpenList</text>
</a>
</g>
</g>
<!-- Node2&#45;&gt;Node3 -->
<g id="edge1" class="edge"><title>Node2&#45;&gt;Node3</title>
<path fill="none" stroke="midnightblue" d="M81.4807,-189.741C96.4453,-218.615 132.892,-281.357 182,-314.5 184.396,-316.117 186.9,-317.626 189.483,-319.034"/>
<polygon fill="midnightblue" stroke="midnightblue" points="188.005,-322.207 198.527,-323.443 191.072,-315.915 188.005,-322.207"/>
</g>
<!-- Node4 -->
<g id="node3" class="node"><title>Node4</title>
<g id="a_node3"><a xlink:href="classokw_1_1_frame_object_dictionary___sngltn.html#adb3f31a2a073d4093f801a4422529dea" target="_top" xlink:title="Methode erstellt eine Liste aller OKWGUI&#45;Rahmenklassen (Frame class), die in der aktuell ausgeführten...">
<polygon fill="white" stroke="black" points="182,-274.5 182,-304.5 355,-304.5 355,-274.5 182,-274.5"/>
<text text-anchor="start" x="190" y="-292.5" font-family="Helvetica,sans-Serif" font-size="10.00">okw.FrameObjectDictionary</text>
<text text-anchor="middle" x="268.5" y="-281.5" font-family="Helvetica,sans-Serif" font-size="10.00">_Sngltn.getListOfOKWGuiClasses</text>
</a>
</g>
</g>
<!-- Node2&#45;&gt;Node4 -->
<g id="edge2" class="edge"><title>Node2&#45;&gt;Node4</title>
<path fill="none" stroke="midnightblue" d="M87.8758,-189.691C107.117,-209.869 143.863,-245.309 182,-265.5 185.502,-267.354 189.163,-269.078 192.915,-270.679"/>
<polygon fill="midnightblue" stroke="midnightblue" points="191.806,-274.003 202.393,-274.409 194.37,-267.49 191.806,-274.003"/>
</g>
<!-- Node5 -->
<g id="node4" class="node"><title>Node5</title>
<g id="a_node4"><a xlink:href="classokw_1_1_frame_object_dictionary___sngltn.html#a39e2832f14f2822d2365007804aebba1" target="_top" xlink:title="Holt die Referenz auf die Annotation des gegebenen Objektes.">
<polygon fill="white" stroke="black" points="194.5,-225.5 194.5,-255.5 342.5,-255.5 342.5,-225.5 194.5,-225.5"/>
<text text-anchor="start" x="202.5" y="-243.5" font-family="Helvetica,sans-Serif" font-size="10.00">okw.FrameObjectDictionary</text>
<text text-anchor="middle" x="268.5" y="-232.5" font-family="Helvetica,sans-Serif" font-size="10.00">_Sngltn.getOKWFromObjekt</text>
</a>
</g>
</g>
<!-- Node2&#45;&gt;Node5 -->
<g id="edge3" class="edge"><title>Node2&#45;&gt;Node5</title>
<path fill="none" stroke="midnightblue" d="M111.725,-189.652C132.346,-197.724 158.422,-207.591 182,-215.5 188.955,-217.833 196.269,-220.16 203.569,-222.403"/>
<polygon fill="midnightblue" stroke="midnightblue" points="202.895,-225.856 213.481,-225.402 204.923,-219.156 202.895,-225.856"/>
</g>
<!-- Node6 -->
<g id="node5" class="node"><title>Node6</title>
<g id="a_node5"><a xlink:href="interfaceokw_1_1_o_k_w.html#a95f6a6c8976dbbc79a8765a36e3545ff" target="_top" xlink:title="FN des GUI&#45;Objektes.">
<polygon fill="white" stroke="black" points="231.5,-187 231.5,-206 305.5,-206 305.5,-187 231.5,-187"/>
<text text-anchor="middle" x="268.5" y="-194" font-family="Helvetica,sans-Serif" font-size="10.00">okw.OKW.FN</text>
</a>
</g>
</g>
<!-- Node2&#45;&gt;Node6 -->
<g id="edge4" class="edge"><title>Node2&#45;&gt;Node6</title>
<path fill="none" stroke="midnightblue" d="M146.052,-182.692C171.304,-185.563 198.961,-188.707 221.496,-191.27"/>
<polygon fill="midnightblue" stroke="midnightblue" points="221.131,-194.751 231.462,-192.403 221.922,-187.795 221.131,-194.751"/>
</g>
<!-- Node7 -->
<g id="node6" class="node"><title>Node7</title>
<g id="a_node6"><a xlink:href="classokw_1_1log_1_1_logger___sngltn.html#a8ebceaddd6cc6963ddb8e08c72ea808c" target="_top" xlink:title="LogPrint Function: Prints the values of expressions to the results file.">
<polygon fill="white" stroke="black" points="197,-137.5 197,-167.5 340,-167.5 340,-137.5 197,-137.5"/>
<text text-anchor="start" x="205" y="-155.5" font-family="Helvetica,sans-Serif" font-size="10.00">okw.log.Logger_Sngltn.Log</text>
<text text-anchor="middle" x="268.5" y="-144.5" font-family="Helvetica,sans-Serif" font-size="10.00">Print</text>
</a>
</g>
</g>
<!-- Node2&#45;&gt;Node7 -->
<g id="edge5" class="edge"><title>Node2&#45;&gt;Node7</title>
<path fill="none" stroke="midnightblue" d="M146.052,-166.308C159.324,-164.799 173.26,-163.215 186.768,-161.679"/>
<polygon fill="midnightblue" stroke="midnightblue" points="187.456,-165.123 196.996,-160.516 186.665,-158.168 187.456,-165.123"/>
</g>
<!-- Node8 -->
<g id="node7" class="node"><title>Node8</title>
<g id="a_node7"><a xlink:href="classokw_1_1log_1_1_logger___sngltn.html#a313f97c79ba4662d9daaf7f537dd02f4" target="_top" xlink:title="Loggt eine Nachricht.">
<polygon fill="white" stroke="black" points="197,-88.5 197,-118.5 340,-118.5 340,-88.5 197,-88.5"/>
<text text-anchor="start" x="205" y="-106.5" font-family="Helvetica,sans-Serif" font-size="10.00">okw.log.Logger_Sngltn.Log</text>
<text text-anchor="middle" x="268.5" y="-95.5" font-family="Helvetica,sans-Serif" font-size="10.00">PrintDebug</text>
</a>
</g>
</g>
<!-- Node2&#45;&gt;Node8 -->
<g id="edge6" class="edge"><title>Node2&#45;&gt;Node8</title>
<path fill="none" stroke="midnightblue" d="M106.687,-159.384C127.902,-149.871 156.287,-137.699 182,-128.5 188.707,-126.1 195.769,-123.755 202.841,-121.522"/>
<polygon fill="midnightblue" stroke="midnightblue" points="203.935,-124.847 212.457,-118.552 201.87,-118.159 203.935,-124.847"/>
</g>
<!-- Node9 -->
<g id="node8" class="node"><title>Node9</title>
<g id="a_node8"><a xlink:href="classokw_1_1_log_messenger.html#af225d1f037d47b3b085175c09d78bdd2" target="_top" xlink:title="Holt die Log&#45;Meldung für MethodeNmae/Textkey ohne weitere Parameter.">
<polygon fill="white" stroke="black" points="184,-50 184,-69 353,-69 353,-50 184,-50"/>
<text text-anchor="middle" x="268.5" y="-57" font-family="Helvetica,sans-Serif" font-size="10.00">okw.LogMessenger.GetMessage</text>
</a>
</g>
</g>
<!-- Node2&#45;&gt;Node9 -->
<g id="edge7" class="edge"><title>Node2&#45;&gt;Node9</title>
<path fill="none" stroke="midnightblue" d="M86.6491,-159.441C105.293,-138.258 142.262,-99.9672 182,-79.5 187.514,-76.6599 193.435,-74.2174 199.495,-72.1178"/>
<polygon fill="midnightblue" stroke="midnightblue" points="200.607,-75.4372 209.092,-69.0929 198.502,-68.7609 200.607,-75.4372"/>
</g>
<!-- Node12 -->
<g id="node11" class="node"><title>Node12</title>
<g id="a_node11"><a xlink:href="classokw_1_1log_1_1_logger___sngltn.html#a9b54104f7e0b4c0a473877b19dfaed56" target="_top" xlink:title="Closes a hierarchical level in the results file that was opened with ResOpenList.">
<polygon fill="white" stroke="black" points="197,-0.5 197,-30.5 340,-30.5 340,-0.5 197,-0.5"/>
<text text-anchor="start" x="205" y="-18.5" font-family="Helvetica,sans-Serif" font-size="10.00">okw.log.Logger_Sngltn.Res</text>
<text text-anchor="middle" x="268.5" y="-7.5" font-family="Helvetica,sans-Serif" font-size="10.00">CloseList</text>
</a>
</g>
</g>
<!-- Node2&#45;&gt;Node12 -->
<g id="edge10" class="edge"><title>Node2&#45;&gt;Node12</title>
<path fill="none" stroke="midnightblue" d="M82.171,-159.097C97.775,-131.178 134.529,-72.1775 182,-40.5 185.075,-38.4478 188.322,-36.5609 191.681,-34.8263"/>
<polygon fill="midnightblue" stroke="midnightblue" points="193.207,-37.9764 200.795,-30.5814 190.252,-31.6309 193.207,-37.9764"/>
</g>
<!-- Node10 -->
<g id="node9" class="node"><title>Node10</title>
<g id="a_node9"><a xlink:href="classokw_1_1_log_messenger.html#a530cd6ab82ec82a04206a2e976ec06e3" target="_top" xlink:title="Interne Kernfunktion holt die Log&#45;Meldung mit Platzhaltern aus der XML&#45;Datei.">
<polygon fill="white" stroke="black" points="391,-50 391,-69 566,-69 566,-50 391,-50"/>
<text text-anchor="middle" x="478.5" y="-57" font-family="Helvetica,sans-Serif" font-size="10.00">okw.LogMessenger.ReadMessage</text>
</a>
</g>
</g>
<!-- Node9&#45;&gt;Node10 -->
<g id="edge8" class="edge"><title>Node9&#45;&gt;Node10</title>
<path fill="none" stroke="midnightblue" d="M353.202,-59.5C362.225,-59.5 371.459,-59.5 380.619,-59.5"/>
<polygon fill="midnightblue" stroke="midnightblue" points="380.914,-63.0001 390.914,-59.5 380.914,-56.0001 380.914,-63.0001"/>
</g>
<!-- Node11 -->
<g id="node10" class="node"><title>Node11</title>
<g id="a_node10"><a xlink:href="classokw_1_1_o_k_w___xml_reader.html#ab920b5335a2e1429c14cc5f8e79f39eb" target="_top" xlink:title="Lies den TextContent eines Tag.">
<polygon fill="white" stroke="black" points="602,-44.5 602,-74.5 754,-74.5 754,-44.5 602,-44.5"/>
<text text-anchor="start" x="610" y="-62.5" font-family="Helvetica,sans-Serif" font-size="10.00">okw.OKW_XmlReader.getText</text>
<text text-anchor="middle" x="678" y="-51.5" font-family="Helvetica,sans-Serif" font-size="10.00">ContentSingleValue</text>
</a>
</g>
</g>
<!-- Node10&#45;&gt;Node11 -->
<g id="edge9" class="edge"><title>Node10&#45;&gt;Node11</title>
<path fill="none" stroke="midnightblue" d="M566.126,-59.5C574.6,-59.5 583.195,-59.5 591.656,-59.5"/>
<polygon fill="midnightblue" stroke="midnightblue" points="591.893,-63.0001 601.893,-59.5 591.892,-56.0001 591.893,-63.0001"/>
</g>
</g>
</svg>
