<?xml version="1.0" encoding="UTF-8" standalone="no"?>
<!DOCTYPE svg PUBLIC "-//W3C//DTD SVG 1.1//EN"
 "http://www.w3.org/Graphics/SVG/1.1/DTD/svg11.dtd">
<!-- Generated by graphviz version 2.36.0 (20140111.2315)
 -->
<!-- Title: okw.gui.adapter.selenium.SeInputCheckbox Pages: 1 -->
<svg width="1162pt" height="1836pt"
 viewBox="0.00 0.00 1162.00 1836.00" xmlns="http://www.w3.org/2000/svg" xmlns:xlink="http://www.w3.org/1999/xlink">
<g id="graph0" class="graph" transform="scale(1 1) rotate(0) translate(4 1832)">
<title>okw.gui.adapter.selenium.SeInputCheckbox</title>
<polygon fill="white" stroke="none" points="-4,4 -4,-1832 1158,-1832 1158,4 -4,4"/>
<!-- Node6 -->
<g id="node1" class="node"><title>Node6</title>
<polygon fill="#bfbfbf" stroke="black" points="369.5,-0.5 369.5,-145.5 500.5,-145.5 500.5,-0.5 369.5,-0.5"/>
<text text-anchor="start" x="377.5" y="-133.5" font-family="Helvetica,sans-Serif" font-size="10.00">okw.gui.adapter.selenium.</text>
<text text-anchor="middle" x="435" y="-122.5" font-family="Helvetica,sans-Serif" font-size="10.00">SeInputCheckbox</text>
<polyline fill="none" stroke="black" points="369.5,-115.5 500.5,-115.5 "/>
<text text-anchor="middle" x="435" y="-103.5" font-family="Helvetica,sans-Serif" font-size="10.00"> </text>
<polyline fill="none" stroke="black" points="369.5,-96.5 500.5,-96.5 "/>
<text text-anchor="start" x="377.5" y="-84.5" font-family="Helvetica,sans-Serif" font-size="10.00">+ SeInputCheckbox()</text>
<text text-anchor="start" x="377.5" y="-73.5" font-family="Helvetica,sans-Serif" font-size="10.00">+ SeInputCheckbox()</text>
<text text-anchor="start" x="377.5" y="-62.5" font-family="Helvetica,sans-Serif" font-size="10.00">+ getIsSelected()</text>
<text text-anchor="start" x="377.5" y="-51.5" font-family="Helvetica,sans-Serif" font-size="10.00">+ checking()</text>
<text text-anchor="start" x="377.5" y="-40.5" font-family="Helvetica,sans-Serif" font-size="10.00">+ getValue()</text>
<text text-anchor="start" x="377.5" y="-29.5" font-family="Helvetica,sans-Serif" font-size="10.00">+ SetValue()</text>
<text text-anchor="start" x="377.5" y="-18.5" font-family="Helvetica,sans-Serif" font-size="10.00">+ Select()</text>
<text text-anchor="start" x="377.5" y="-7.5" font-family="Helvetica,sans-Serif" font-size="10.00">+ unchecking()</text>
</g>
<!-- Node7 -->
<g id="node2" class="node"><title>Node7</title>
<g id="a_node2"><a xlink:href="classokw_1_1gui_1_1adapter_1_1selenium_1_1_se_any_child_window.html" target="_top" xlink:title="{okw.gui.adapter.selenium.\lSeAnyChildWindow\n|# iframeID\l|+ getIframeID()\l+ setIframeID()\l+ SeAnyChildWindow()\l+ SeAnyChildWindow()\l+ ClickOn()\l+ getCaption()\l+ getExists()\l+ getHasFocus()\l+ getIsActive()\l+ getLabel()\l+ getTooltip()\l+ getValue()\l+ LogCaption()\l+ LogExists()\l+ LogHasFocus()\l+ LogIsActive()\l+ LogLabel()\l+ LogPlaceholder()\l+ LogTooltip()\l+ LogValue()\lund 25 mehr ...\l}">
<polygon fill="white" stroke="black" points="487.5,-195 487.5,-483 618.5,-483 618.5,-195 487.5,-195"/>
<text text-anchor="start" x="495.5" y="-471" font-family="Helvetica,sans-Serif" font-size="10.00">okw.gui.adapter.selenium.</text>
<text text-anchor="middle" x="553" y="-460" font-family="Helvetica,sans-Serif" font-size="10.00">SeAnyChildWindow</text>
<polyline fill="none" stroke="black" points="487.5,-453 618.5,-453 "/>
<text text-anchor="start" x="495.5" y="-441" font-family="Helvetica,sans-Serif" font-size="10.00"># iframeID</text>
<polyline fill="none" stroke="black" points="487.5,-434 618.5,-434 "/>
<text text-anchor="start" x="495.5" y="-422" font-family="Helvetica,sans-Serif" font-size="10.00">+ getIframeID()</text>
<text text-anchor="start" x="495.5" y="-411" font-family="Helvetica,sans-Serif" font-size="10.00">+ setIframeID()</text>
<text text-anchor="start" x="495.5" y="-400" font-family="Helvetica,sans-Serif" font-size="10.00">+ SeAnyChildWindow()</text>
<text text-anchor="start" x="495.5" y="-389" font-family="Helvetica,sans-Serif" font-size="10.00">+ SeAnyChildWindow()</text>
<text text-anchor="start" x="495.5" y="-378" font-family="Helvetica,sans-Serif" font-size="10.00">+ ClickOn()</text>
<text text-anchor="start" x="495.5" y="-367" font-family="Helvetica,sans-Serif" font-size="10.00">+ getCaption()</text>
<text text-anchor="start" x="495.5" y="-356" font-family="Helvetica,sans-Serif" font-size="10.00">+ getExists()</text>
<text text-anchor="start" x="495.5" y="-345" font-family="Helvetica,sans-Serif" font-size="10.00">+ getHasFocus()</text>
<text text-anchor="start" x="495.5" y="-334" font-family="Helvetica,sans-Serif" font-size="10.00">+ getIsActive()</text>
<text text-anchor="start" x="495.5" y="-323" font-family="Helvetica,sans-Serif" font-size="10.00">+ getLabel()</text>
<text text-anchor="start" x="495.5" y="-312" font-family="Helvetica,sans-Serif" font-size="10.00">+ getTooltip()</text>
<text text-anchor="start" x="495.5" y="-301" font-family="Helvetica,sans-Serif" font-size="10.00">+ getValue()</text>
<text text-anchor="start" x="495.5" y="-290" font-family="Helvetica,sans-Serif" font-size="10.00">+ LogCaption()</text>
<text text-anchor="start" x="495.5" y="-279" font-family="Helvetica,sans-Serif" font-size="10.00">+ LogExists()</text>
<text text-anchor="start" x="495.5" y="-268" font-family="Helvetica,sans-Serif" font-size="10.00">+ LogHasFocus()</text>
<text text-anchor="start" x="495.5" y="-257" font-family="Helvetica,sans-Serif" font-size="10.00">+ LogIsActive()</text>
<text text-anchor="start" x="495.5" y="-246" font-family="Helvetica,sans-Serif" font-size="10.00">+ LogLabel()</text>
<text text-anchor="start" x="495.5" y="-235" font-family="Helvetica,sans-Serif" font-size="10.00">+ LogPlaceholder()</text>
<text text-anchor="start" x="495.5" y="-224" font-family="Helvetica,sans-Serif" font-size="10.00">+ LogTooltip()</text>
<text text-anchor="start" x="495.5" y="-213" font-family="Helvetica,sans-Serif" font-size="10.00">+ LogValue()</text>
<text text-anchor="start" x="495.5" y="-202" font-family="Helvetica,sans-Serif" font-size="10.00">und 25 mehr ...</text>
</a>
</g>
</g>
<!-- Node7&#45;&gt;Node6 -->
<g id="edge1" class="edge"><title>Node7&#45;&gt;Node6</title>
<path fill="none" stroke="midnightblue" d="M484.741,-185.285C478.627,-171.605 472.648,-158.23 467.077,-145.766"/>
<polygon fill="none" stroke="midnightblue" points="481.717,-187.096 488.993,-194.797 488.107,-184.239 481.717,-187.096"/>
</g>
<!-- Node8 -->
<g id="node3" class="node"><title>Node8</title>
<g id="a_node3"><a xlink:href="classokw_1_1gui_1_1_any_childwindow.html" target="_top" xlink:title="{okw.gui.AnyChildwindow\n||+ getExists()\l+ getHasFocus()\l+ getIsActive()\l+ getCaption()\l+ getTooltip()\l+ getPlaceholder()\l+ getLabel()\l+ getValue()\l+ ClickOn()\l+ DoubleClickOn()\l+ LogCaption()\l+ LogExists()\l+ LogHasFocus()\l+ LogIsActive()\l+ LogLabel()\l+ LogPlaceholder()\l+ LogSelected()\l+ LogTablecellValue()\l+ LogTooltip()\l+ LogValue()\lund 30 mehr ...\l}">
<polygon fill="white" stroke="black" points="853,-532.5 853,-809.5 979,-809.5 979,-532.5 853,-532.5"/>
<text text-anchor="middle" x="916" y="-797.5" font-family="Helvetica,sans-Serif" font-size="10.00">okw.gui.AnyChildwindow</text>
<polyline fill="none" stroke="black" points="853,-790.5 979,-790.5 "/>
<text text-anchor="middle" x="916" y="-778.5" font-family="Helvetica,sans-Serif" font-size="10.00"> </text>
<polyline fill="none" stroke="black" points="853,-771.5 979,-771.5 "/>
<text text-anchor="start" x="861" y="-759.5" font-family="Helvetica,sans-Serif" font-size="10.00">+ getExists()</text>
<text text-anchor="start" x="861" y="-748.5" font-family="Helvetica,sans-Serif" font-size="10.00">+ getHasFocus()</text>
<text text-anchor="start" x="861" y="-737.5" font-family="Helvetica,sans-Serif" font-size="10.00">+ getIsActive()</text>
<text text-anchor="start" x="861" y="-726.5" font-family="Helvetica,sans-Serif" font-size="10.00">+ getCaption()</text>
<text text-anchor="start" x="861" y="-715.5" font-family="Helvetica,sans-Serif" font-size="10.00">+ getTooltip()</text>
<text text-anchor="start" x="861" y="-704.5" font-family="Helvetica,sans-Serif" font-size="10.00">+ getPlaceholder()</text>
<text text-anchor="start" x="861" y="-693.5" font-family="Helvetica,sans-Serif" font-size="10.00">+ getLabel()</text>
<text text-anchor="start" x="861" y="-682.5" font-family="Helvetica,sans-Serif" font-size="10.00">+ getValue()</text>
<text text-anchor="start" x="861" y="-671.5" font-family="Helvetica,sans-Serif" font-size="10.00">+ ClickOn()</text>
<text text-anchor="start" x="861" y="-660.5" font-family="Helvetica,sans-Serif" font-size="10.00">+ DoubleClickOn()</text>
<text text-anchor="start" x="861" y="-649.5" font-family="Helvetica,sans-Serif" font-size="10.00">+ LogCaption()</text>
<text text-anchor="start" x="861" y="-638.5" font-family="Helvetica,sans-Serif" font-size="10.00">+ LogExists()</text>
<text text-anchor="start" x="861" y="-627.5" font-family="Helvetica,sans-Serif" font-size="10.00">+ LogHasFocus()</text>
<text text-anchor="start" x="861" y="-616.5" font-family="Helvetica,sans-Serif" font-size="10.00">+ LogIsActive()</text>
<text text-anchor="start" x="861" y="-605.5" font-family="Helvetica,sans-Serif" font-size="10.00">+ LogLabel()</text>
<text text-anchor="start" x="861" y="-594.5" font-family="Helvetica,sans-Serif" font-size="10.00">+ LogPlaceholder()</text>
<text text-anchor="start" x="861" y="-583.5" font-family="Helvetica,sans-Serif" font-size="10.00">+ LogSelected()</text>
<text text-anchor="start" x="861" y="-572.5" font-family="Helvetica,sans-Serif" font-size="10.00">+ LogTablecellValue()</text>
<text text-anchor="start" x="861" y="-561.5" font-family="Helvetica,sans-Serif" font-size="10.00">+ LogTooltip()</text>
<text text-anchor="start" x="861" y="-550.5" font-family="Helvetica,sans-Serif" font-size="10.00">+ LogValue()</text>
<text text-anchor="start" x="861" y="-539.5" font-family="Helvetica,sans-Serif" font-size="10.00">und 30 mehr ...</text>
</a>
</g>
</g>
<!-- Node8&#45;&gt;Node7 -->
<g id="edge2" class="edge"><title>Node8&#45;&gt;Node7</title>
<path fill="none" stroke="midnightblue" d="M845.319,-605.744C779.629,-546.026 682.561,-457.783 618.566,-399.605"/>
<polygon fill="none" stroke="midnightblue" points="843.016,-608.381 852.77,-612.518 847.725,-603.202 843.016,-608.381"/>
</g>
<!-- Node9 -->
<g id="node4" class="node"><title>Node9</title>
<g id="a_node4"><a xlink:href="classokw_1_1gui_1_1_any_win_base.html" target="_top" xlink:title="Description of AnyWin. ">
<polygon fill="white" stroke="black" points="699,-864 699,-1130 833,-1130 833,-864 699,-864"/>
<text text-anchor="middle" x="766" y="-1118" font-family="Helvetica,sans-Serif" font-size="10.00">okw.gui.AnyWinBase</text>
<polyline fill="none" stroke="black" points="699,-1111 833,-1111 "/>
<text text-anchor="start" x="707" y="-1099" font-family="Helvetica,sans-Serif" font-size="10.00">&#45; myFN</text>
<text text-anchor="start" x="707" y="-1088" font-family="Helvetica,sans-Serif" font-size="10.00">&#45; myKN</text>
<text text-anchor="start" x="707" y="-1077" font-family="Helvetica,sans-Serif" font-size="10.00">&#45; myParentFN</text>
<polyline fill="none" stroke="black" points="699,-1070 833,-1070 "/>
<text text-anchor="start" x="707" y="-1058" font-family="Helvetica,sans-Serif" font-size="10.00">+ getLocator()</text>
<text text-anchor="start" x="707" y="-1047" font-family="Helvetica,sans-Serif" font-size="10.00">+ getLOCATOR()</text>
<text text-anchor="start" x="707" y="-1036" font-family="Helvetica,sans-Serif" font-size="10.00">+ setLocator()</text>
<text text-anchor="start" x="707" y="-1025" font-family="Helvetica,sans-Serif" font-size="10.00">+ getExists()</text>
<text text-anchor="start" x="707" y="-1014" font-family="Helvetica,sans-Serif" font-size="10.00">+ AnyWinBase()</text>
<text text-anchor="start" x="707" y="-1003" font-family="Helvetica,sans-Serif" font-size="10.00">+ AnyWinBase()</text>
<text text-anchor="start" x="707" y="-992" font-family="Helvetica,sans-Serif" font-size="10.00">+ getFN()</text>
<text text-anchor="start" x="707" y="-981" font-family="Helvetica,sans-Serif" font-size="10.00">+ getKN()</text>
<text text-anchor="start" x="707" y="-970" font-family="Helvetica,sans-Serif" font-size="10.00">+ getParentFN()</text>
<text text-anchor="start" x="707" y="-959" font-family="Helvetica,sans-Serif" font-size="10.00">+ setFN()</text>
<text text-anchor="start" x="707" y="-948" font-family="Helvetica,sans-Serif" font-size="10.00">+ setKN()</text>
<text text-anchor="start" x="707" y="-937" font-family="Helvetica,sans-Serif" font-size="10.00">+ setParentFN()</text>
<text text-anchor="start" x="707" y="-926" font-family="Helvetica,sans-Serif" font-size="10.00"># LogFunctionStartDebug()</text>
<text text-anchor="start" x="707" y="-915" font-family="Helvetica,sans-Serif" font-size="10.00"># LogFunctionStartDebug()</text>
<text text-anchor="start" x="707" y="-904" font-family="Helvetica,sans-Serif" font-size="10.00"># LogFunctionEndDebug()</text>
<text text-anchor="start" x="707" y="-893" font-family="Helvetica,sans-Serif" font-size="10.00"># LogFunctionEndDebug()</text>
<text text-anchor="start" x="707" y="-882" font-family="Helvetica,sans-Serif" font-size="10.00"># LogFunctionEndDebug()</text>
<text text-anchor="start" x="707" y="-871" font-family="Helvetica,sans-Serif" font-size="10.00"># LogFunctionEndDebug()</text>
</a>
</g>
</g>
<!-- Node9&#45;&gt;Node8 -->
<g id="edge3" class="edge"><title>Node9&#45;&gt;Node8</title>
<path fill="none" stroke="midnightblue" d="M831.611,-854.28C838.68,-839.012 845.861,-823.5 852.899,-808.298"/>
<polygon fill="none" stroke="midnightblue" points="828.252,-853.204 827.227,-863.749 834.605,-856.145 828.252,-853.204"/>
</g>
<!-- Node10 -->
<g id="node5" class="node"><title>Node10</title>
<g id="a_node5"><a xlink:href="classokw_1_1gui_1_1_o_k_w_locator.html" target="_top" xlink:title="Description of OKWLocator. ">
<polygon fill="white" stroke="black" points="745,-1184.5 745,-1263.5 855,-1263.5 855,-1184.5 745,-1184.5"/>
<text text-anchor="middle" x="800" y="-1251.5" font-family="Helvetica,sans-Serif" font-size="10.00">okw.gui.OKWLocator</text>
<polyline fill="none" stroke="black" points="745,-1244.5 855,-1244.5 "/>
<text text-anchor="start" x="753" y="-1232.5" font-family="Helvetica,sans-Serif" font-size="10.00">&#45; _locator</text>
<polyline fill="none" stroke="black" points="745,-1225.5 855,-1225.5 "/>
<text text-anchor="start" x="753" y="-1213.5" font-family="Helvetica,sans-Serif" font-size="10.00">+ OKWLocator()</text>
<text text-anchor="start" x="753" y="-1202.5" font-family="Helvetica,sans-Serif" font-size="10.00">+ getLocator()</text>
<text text-anchor="start" x="753" y="-1191.5" font-family="Helvetica,sans-Serif" font-size="10.00">+ setLocator()</text>
</a>
</g>
</g>
<!-- Node10&#45;&gt;Node9 -->
<g id="edge4" class="edge"><title>Node10&#45;&gt;Node9</title>
<path fill="none" stroke="#404040" d="M794.155,-1184.32C792.312,-1172.13 790.157,-1157.86 787.873,-1142.75"/>
<polygon fill="none" stroke="#404040" points="787.81,-1142.33 782.958,-1137 786.017,-1130.47 790.869,-1135.8 787.81,-1142.33"/>
<text text-anchor="middle" x="812.5" y="-1157.5" font-family="Helvetica,sans-Serif" font-size="10.00"> #_locator</text>
</g>
<!-- Node10&#45;&gt;Node10 -->
<g id="edge5" class="edge"><title>Node10&#45;&gt;Node10</title>
<path fill="none" stroke="#404040" d="M855.073,-1235.43C865.574,-1234.06 873,-1230.25 873,-1224 873,-1220.48 870.65,-1217.74 866.726,-1215.77"/>
<polygon fill="none" stroke="#404040" points="866.646,-1215.75 859.801,-1218.02 855.073,-1212.57 861.918,-1210.3 866.646,-1215.75"/>
<text text-anchor="middle" x="900.5" y="-1221.5" font-family="Helvetica,sans-Serif" font-size="10.00"> &#45;_Locatoren</text>
</g>
<!-- Node11 -->
<g id="node6" class="node"><title>Node11</title>
<g id="a_node6"><a xlink:href="classokw_1_1log_1_1_logger___sngltn.html" target="_top" xlink:title="{okw.log.Logger_Sngltn\n|&#45; cvbDebugMode\l|+ getDebugMode()\l+ setDebugMode()\l+ addLogger()\l+ reset()\l+ LogError()\l+ LogException()\l+ LogFunctionEnd()\l+ LogFunctionEnd()\l+ LogFunctionEnd()\l+ LogFunctionEnd()\l+ LogFunctionEndDebug()\l+ LogFunctionEndDebug()\l+ LogFunctionEndDebug()\l+ LogFunctionEndDebug()\l+ LogFunctionStart()\l+ LogFunctionStartDebug()\l+ LogKeyWordEnd()\l+ LogSequenceEnd()\l+ LogTestcaseEnd()\l+ LogKeyWordStart()\l+ LogSequenceStart()\l+ LogTestcaseStart()\l+ LogPass()\l+ LogPrint()\l+ LogPrintDebug()\l+ LogWarning()\l+ ResCloseList()\l+ ResCloseListDebug()\l+ ResOpenList()\l+ ResOpenListDebug()\l+ getInstance()\l+ init()\l&#45; Logger_Sngltn()\l}">
<polygon fill="white" stroke="black" points="608,-1312.5 608,-1721.5 742,-1721.5 742,-1312.5 608,-1312.5"/>
<text text-anchor="middle" x="675" y="-1709.5" font-family="Helvetica,sans-Serif" font-size="10.00">okw.log.Logger_Sngltn</text>
<polyline fill="none" stroke="black" points="608,-1702.5 742,-1702.5 "/>
<text text-anchor="start" x="616" y="-1690.5" font-family="Helvetica,sans-Serif" font-size="10.00">&#45; cvbDebugMode</text>
<polyline fill="none" stroke="black" points="608,-1683.5 742,-1683.5 "/>
<text text-anchor="start" x="616" y="-1671.5" font-family="Helvetica,sans-Serif" font-size="10.00">+ getDebugMode()</text>
<text text-anchor="start" x="616" y="-1660.5" font-family="Helvetica,sans-Serif" font-size="10.00">+ setDebugMode()</text>
<text text-anchor="start" x="616" y="-1649.5" font-family="Helvetica,sans-Serif" font-size="10.00">+ addLogger()</text>
<text text-anchor="start" x="616" y="-1638.5" font-family="Helvetica,sans-Serif" font-size="10.00">+ reset()</text>
<text text-anchor="start" x="616" y="-1627.5" font-family="Helvetica,sans-Serif" font-size="10.00">+ LogError()</text>
<text text-anchor="start" x="616" y="-1616.5" font-family="Helvetica,sans-Serif" font-size="10.00">+ LogException()</text>
<text text-anchor="start" x="616" y="-1605.5" font-family="Helvetica,sans-Serif" font-size="10.00">+ LogFunctionEnd()</text>
<text text-anchor="start" x="616" y="-1594.5" font-family="Helvetica,sans-Serif" font-size="10.00">+ LogFunctionEnd()</text>
<text text-anchor="start" x="616" y="-1583.5" font-family="Helvetica,sans-Serif" font-size="10.00">+ LogFunctionEnd()</text>
<text text-anchor="start" x="616" y="-1572.5" font-family="Helvetica,sans-Serif" font-size="10.00">+ LogFunctionEnd()</text>
<text text-anchor="start" x="616" y="-1561.5" font-family="Helvetica,sans-Serif" font-size="10.00">+ LogFunctionEndDebug()</text>
<text text-anchor="start" x="616" y="-1550.5" font-family="Helvetica,sans-Serif" font-size="10.00">+ LogFunctionEndDebug()</text>
<text text-anchor="start" x="616" y="-1539.5" font-family="Helvetica,sans-Serif" font-size="10.00">+ LogFunctionEndDebug()</text>
<text text-anchor="start" x="616" y="-1528.5" font-family="Helvetica,sans-Serif" font-size="10.00">+ LogFunctionEndDebug()</text>
<text text-anchor="start" x="616" y="-1517.5" font-family="Helvetica,sans-Serif" font-size="10.00">+ LogFunctionStart()</text>
<text text-anchor="start" x="616" y="-1506.5" font-family="Helvetica,sans-Serif" font-size="10.00">+ LogFunctionStartDebug()</text>
<text text-anchor="start" x="616" y="-1495.5" font-family="Helvetica,sans-Serif" font-size="10.00">+ LogKeyWordEnd()</text>
<text text-anchor="start" x="616" y="-1484.5" font-family="Helvetica,sans-Serif" font-size="10.00">+ LogSequenceEnd()</text>
<text text-anchor="start" x="616" y="-1473.5" font-family="Helvetica,sans-Serif" font-size="10.00">+ LogTestcaseEnd()</text>
<text text-anchor="start" x="616" y="-1462.5" font-family="Helvetica,sans-Serif" font-size="10.00">+ LogKeyWordStart()</text>
<text text-anchor="start" x="616" y="-1451.5" font-family="Helvetica,sans-Serif" font-size="10.00">+ LogSequenceStart()</text>
<text text-anchor="start" x="616" y="-1440.5" font-family="Helvetica,sans-Serif" font-size="10.00">+ LogTestcaseStart()</text>
<text text-anchor="start" x="616" y="-1429.5" font-family="Helvetica,sans-Serif" font-size="10.00">+ LogPass()</text>
<text text-anchor="start" x="616" y="-1418.5" font-family="Helvetica,sans-Serif" font-size="10.00">+ LogPrint()</text>
<text text-anchor="start" x="616" y="-1407.5" font-family="Helvetica,sans-Serif" font-size="10.00">+ LogPrintDebug()</text>
<text text-anchor="start" x="616" y="-1396.5" font-family="Helvetica,sans-Serif" font-size="10.00">+ LogWarning()</text>
<text text-anchor="start" x="616" y="-1385.5" font-family="Helvetica,sans-Serif" font-size="10.00">+ ResCloseList()</text>
<text text-anchor="start" x="616" y="-1374.5" font-family="Helvetica,sans-Serif" font-size="10.00">+ ResCloseListDebug()</text>
<text text-anchor="start" x="616" y="-1363.5" font-family="Helvetica,sans-Serif" font-size="10.00">+ ResOpenList()</text>
<text text-anchor="start" x="616" y="-1352.5" font-family="Helvetica,sans-Serif" font-size="10.00">+ ResOpenListDebug()</text>
<text text-anchor="start" x="616" y="-1341.5" font-family="Helvetica,sans-Serif" font-size="10.00">+ getInstance()</text>
<text text-anchor="start" x="616" y="-1330.5" font-family="Helvetica,sans-Serif" font-size="10.00">+ init()</text>
<text text-anchor="start" x="616" y="-1319.5" font-family="Helvetica,sans-Serif" font-size="10.00">&#45; Logger_Sngltn()</text>
</a>
</g>
</g>
<!-- Node11&#45;&gt;Node7 -->
<g id="edge19" class="edge"><title>Node11&#45;&gt;Node7</title>
<path fill="none" stroke="#404040" d="M634.549,-1312.34C631.162,-1283.14 629,-1253.39 629,-1225 629,-1225 629,-1225 629,-670 629,-612.078 617.744,-549.863 603.895,-495.238"/>
<polygon fill="none" stroke="#404040" points="603.822,-494.956 598.444,-490.153 600.808,-483.34 606.187,-488.144 603.822,-494.956"/>
<text text-anchor="middle" x="655" y="-994.5" font-family="Helvetica,sans-Serif" font-size="10.00"> #MyLogger</text>
</g>
<!-- Node11&#45;&gt;Node8 -->
<g id="edge12" class="edge"><title>Node11&#45;&gt;Node8</title>
<path fill="none" stroke="#404040" d="M742.038,-1482.27C844.52,-1426.43 1036.31,-1304.06 1113,-1136 1164.29,-1023.59 1161.92,-971.46 1113,-858 1087.81,-799.572 1034.24,-750.959 989.31,-718.101"/>
<polygon fill="none" stroke="#404040" points="989.037,-717.906 981.83,-717.664 979.281,-710.919 986.488,-711.16 989.037,-717.906"/>
<text text-anchor="middle" x="1128" y="-1157.5" font-family="Helvetica,sans-Serif" font-size="10.00"> ~myLogger</text>
</g>
<!-- Node11&#45;&gt;Node9 -->
<g id="edge9" class="edge"><title>Node11&#45;&gt;Node9</title>
<path fill="none" stroke="#404040" d="M668.088,-1312.11C670.099,-1269.4 674.798,-1224.93 684,-1184 687.13,-1170.08 691.316,-1155.92 696.148,-1141.94"/>
<polygon fill="none" stroke="#404040" points="696.291,-1141.54 694.555,-1134.54 700.349,-1130.24 702.084,-1137.24 696.291,-1141.54"/>
<text text-anchor="middle" x="710" y="-1221.5" font-family="Helvetica,sans-Serif" font-size="10.00"> ~myLogger</text>
</g>
<!-- Node11&#45;&gt;Node10 -->
<g id="edge6" class="edge"><title>Node11&#45;&gt;Node10</title>
<path fill="none" stroke="#404040" d="M742.074,-1359.85C755.313,-1329.03 768.278,-1298.85 778.573,-1274.88"/>
<polygon fill="none" stroke="#404040" points="778.666,-1274.66 777.359,-1267.57 783.402,-1263.64 784.71,-1270.73 778.666,-1274.66"/>
<text text-anchor="middle" x="797.5" y="-1285.5" font-family="Helvetica,sans-Serif" font-size="10.00"> &#45;myLogger</text>
</g>
<!-- Node11&#45;&gt;Node11 -->
<g id="edge8" class="edge"><title>Node11&#45;&gt;Node11</title>
<path fill="none" stroke="#404040" d="M742.337,-1556.18C752.84,-1550.32 760,-1537.26 760,-1517 760,-1503.39 756.768,-1493.02 751.461,-1485.91"/>
<polygon fill="none" stroke="#404040" points="751.315,-1485.78 744.172,-1484.8 742.337,-1477.82 749.48,-1478.81 751.315,-1485.78"/>
<text text-anchor="middle" x="782" y="-1514.5" font-family="Helvetica,sans-Serif" font-size="10.00"> &#45;Instance</text>
</g>
<!-- Node21 -->
<g id="node16" class="node"><title>Node21</title>
<g id="a_node16"><a xlink:href="classokw_1_1_o_k_w___const___sngltn.html" target="_top" xlink:title="OKW_Const verwaltet die sprachabhängigen OKW&#45;Konstanten. ">
<polygon fill="white" stroke="black" points="190.5,-250 190.5,-428 349.5,-428 349.5,-250 190.5,-250"/>
<text text-anchor="middle" x="270" y="-416" font-family="Helvetica,sans-Serif" font-size="10.00">okw.OKW_Const_Sngltn</text>
<polyline fill="none" stroke="black" points="190.5,-409 349.5,-409 "/>
<text text-anchor="middle" x="270" y="-397" font-family="Helvetica,sans-Serif" font-size="10.00"> </text>
<polyline fill="none" stroke="black" points="190.5,-390 349.5,-390 "/>
<text text-anchor="start" x="198.5" y="-378" font-family="Helvetica,sans-Serif" font-size="10.00">+ Boolean2YesNo()</text>
<text text-anchor="start" x="198.5" y="-367" font-family="Helvetica,sans-Serif" font-size="10.00">+ ConcatHSEP()</text>
<text text-anchor="start" x="198.5" y="-356" font-family="Helvetica,sans-Serif" font-size="10.00">+ ConcatSEP()</text>
<text text-anchor="start" x="198.5" y="-345" font-family="Helvetica,sans-Serif" font-size="10.00">+ ConcatVSEP()</text>
<text text-anchor="start" x="198.5" y="-334" font-family="Helvetica,sans-Serif" font-size="10.00">+ GetConst4Internalname()</text>
<text text-anchor="start" x="198.5" y="-323" font-family="Helvetica,sans-Serif" font-size="10.00">+ GetOKWConst4Internalname()</text>
<text text-anchor="start" x="198.5" y="-312" font-family="Helvetica,sans-Serif" font-size="10.00">+ SplitHSEP()</text>
<text text-anchor="start" x="198.5" y="-301" font-family="Helvetica,sans-Serif" font-size="10.00">+ SplitSEP()</text>
<text text-anchor="start" x="198.5" y="-290" font-family="Helvetica,sans-Serif" font-size="10.00">+ SplitVSEP()</text>
<text text-anchor="start" x="198.5" y="-279" font-family="Helvetica,sans-Serif" font-size="10.00">+ YesNo2Boolean()</text>
<text text-anchor="start" x="198.5" y="-268" font-family="Helvetica,sans-Serif" font-size="10.00">+ getInstance()</text>
<text text-anchor="start" x="198.5" y="-257" font-family="Helvetica,sans-Serif" font-size="10.00"># OKW_Const_Sngltn()</text>
</a>
</g>
</g>
<!-- Node11&#45;&gt;Node21 -->
<g id="edge27" class="edge"><title>Node11&#45;&gt;Node21</title>
<path fill="none" stroke="#404040" d="M607.893,-1506.88C476.065,-1484.8 196,-1415.47 196,-1225 196,-1225 196,-1225 196,-670 196,-591.373 216.249,-504.705 235.563,-439.925"/>
<polygon fill="none" stroke="#404040" points="235.669,-439.573 233.584,-432.671 239.153,-428.09 241.239,-434.993 235.669,-439.573"/>
<text text-anchor="middle" x="207" y="-994.5" font-family="Helvetica,sans-Serif" font-size="10.00"> &#45;Log</text>
</g>
<!-- Node12 -->
<g id="node7" class="node"><title>Node12</title>
<polygon fill="white" stroke="#bfbfbf" points="603.5,-1770.5 603.5,-1827.5 746.5,-1827.5 746.5,-1770.5 603.5,-1770.5"/>
<text text-anchor="middle" x="675" y="-1815.5" font-family="Helvetica,sans-Serif" font-size="10.00">ArrayList&lt; okw.log.ILogger &gt;</text>
<polyline fill="none" stroke="#bfbfbf" points="603.5,-1808.5 746.5,-1808.5 "/>
<text text-anchor="middle" x="675" y="-1796.5" font-family="Helvetica,sans-Serif" font-size="10.00"> </text>
<polyline fill="none" stroke="#bfbfbf" points="603.5,-1789.5 746.5,-1789.5 "/>
<text text-anchor="middle" x="675" y="-1777.5" font-family="Helvetica,sans-Serif" font-size="10.00"> </text>
</g>
<!-- Node12&#45;&gt;Node11 -->
<g id="edge7" class="edge"><title>Node12&#45;&gt;Node11</title>
<path fill="none" stroke="#404040" d="M675,-1770.39C675,-1760.2 675,-1747.7 675,-1733.78"/>
<polygon fill="none" stroke="#404040" points="675,-1733.76 671,-1727.76 675,-1721.76 679,-1727.76 675,-1733.76"/>
<text text-anchor="middle" x="701" y="-1743.5" font-family="Helvetica,sans-Serif" font-size="10.00"> &#45;LoggerList</text>
</g>
<!-- Node13 -->
<g id="node8" class="node"><title>Node13</title>
<g id="a_node8"><a xlink:href="interfaceokw_1_1gui_1_1_i_g_u_i_childwindow.html" target="_top" xlink:title="{okw.gui.IGUIChildwindow\n||+ getCaption()\l+ getExists()\l+ getHasFocus()\l+ getIsActive()\l+ getLabel()\l+ getPlaceholder()\l+ getTooltip()\l+ getValue()\l+ ClickOn()\l+ DoubleClickOn()\l+ LogCaption()\l+ LogExists()\l+ LogHasFocus()\l+ LogIsActive()\l+ LogLabel()\l+ LogPlaceholder()\l+ LogSelected()\l+ LogTablecellValue()\l+ LogTooltip()\l+ LogValue()\lund 27 mehr ...\l}">
<polygon fill="white" stroke="black" points="851,-858.5 851,-1135.5 981,-1135.5 981,-858.5 851,-858.5"/>
<text text-anchor="middle" x="916" y="-1123.5" font-family="Helvetica,sans-Serif" font-size="10.00">okw.gui.IGUIChildwindow</text>
<polyline fill="none" stroke="black" points="851,-1116.5 981,-1116.5 "/>
<text text-anchor="middle" x="916" y="-1104.5" font-family="Helvetica,sans-Serif" font-size="10.00"> </text>
<polyline fill="none" stroke="black" points="851,-1097.5 981,-1097.5 "/>
<text text-anchor="start" x="859" y="-1085.5" font-family="Helvetica,sans-Serif" font-size="10.00">+ getCaption()</text>
<text text-anchor="start" x="859" y="-1074.5" font-family="Helvetica,sans-Serif" font-size="10.00">+ getExists()</text>
<text text-anchor="start" x="859" y="-1063.5" font-family="Helvetica,sans-Serif" font-size="10.00">+ getHasFocus()</text>
<text text-anchor="start" x="859" y="-1052.5" font-family="Helvetica,sans-Serif" font-size="10.00">+ getIsActive()</text>
<text text-anchor="start" x="859" y="-1041.5" font-family="Helvetica,sans-Serif" font-size="10.00">+ getLabel()</text>
<text text-anchor="start" x="859" y="-1030.5" font-family="Helvetica,sans-Serif" font-size="10.00">+ getPlaceholder()</text>
<text text-anchor="start" x="859" y="-1019.5" font-family="Helvetica,sans-Serif" font-size="10.00">+ getTooltip()</text>
<text text-anchor="start" x="859" y="-1008.5" font-family="Helvetica,sans-Serif" font-size="10.00">+ getValue()</text>
<text text-anchor="start" x="859" y="-997.5" font-family="Helvetica,sans-Serif" font-size="10.00">+ ClickOn()</text>
<text text-anchor="start" x="859" y="-986.5" font-family="Helvetica,sans-Serif" font-size="10.00">+ DoubleClickOn()</text>
<text text-anchor="start" x="859" y="-975.5" font-family="Helvetica,sans-Serif" font-size="10.00">+ LogCaption()</text>
<text text-anchor="start" x="859" y="-964.5" font-family="Helvetica,sans-Serif" font-size="10.00">+ LogExists()</text>
<text text-anchor="start" x="859" y="-953.5" font-family="Helvetica,sans-Serif" font-size="10.00">+ LogHasFocus()</text>
<text text-anchor="start" x="859" y="-942.5" font-family="Helvetica,sans-Serif" font-size="10.00">+ LogIsActive()</text>
<text text-anchor="start" x="859" y="-931.5" font-family="Helvetica,sans-Serif" font-size="10.00">+ LogLabel()</text>
<text text-anchor="start" x="859" y="-920.5" font-family="Helvetica,sans-Serif" font-size="10.00">+ LogPlaceholder()</text>
<text text-anchor="start" x="859" y="-909.5" font-family="Helvetica,sans-Serif" font-size="10.00">+ LogSelected()</text>
<text text-anchor="start" x="859" y="-898.5" font-family="Helvetica,sans-Serif" font-size="10.00">+ LogTablecellValue()</text>
<text text-anchor="start" x="859" y="-887.5" font-family="Helvetica,sans-Serif" font-size="10.00">+ LogTooltip()</text>
<text text-anchor="start" x="859" y="-876.5" font-family="Helvetica,sans-Serif" font-size="10.00">+ LogValue()</text>
<text text-anchor="start" x="859" y="-865.5" font-family="Helvetica,sans-Serif" font-size="10.00">und 27 mehr ...</text>
</a>
</g>
</g>
<!-- Node13&#45;&gt;Node8 -->
<g id="edge10" class="edge"><title>Node13&#45;&gt;Node8</title>
<path fill="none" stroke="midnightblue" d="M916,-847.952C916,-835.228 916,-822.389 916,-809.751"/>
<polygon fill="none" stroke="midnightblue" points="912.5,-848.125 916,-858.125 919.5,-848.125 912.5,-848.125"/>
</g>
<!-- Node14 -->
<g id="node9" class="node"><title>Node14</title>
<g id="a_node9"><a xlink:href="interfaceokw_1_1core_1_1_i_o_k_w___f_n.html" target="_top" xlink:title="{okw.core.IOKW_FN\n||+ setKN()\l+ setFN()\l+ setParentFN()\l+ getKN()\l+ getFN()\l+ getParentFN()\l}">
<polygon fill="white" stroke="black" points="999.5,-941 999.5,-1053 1104.5,-1053 1104.5,-941 999.5,-941"/>
<text text-anchor="middle" x="1052" y="-1041" font-family="Helvetica,sans-Serif" font-size="10.00">okw.core.IOKW_FN</text>
<polyline fill="none" stroke="black" points="999.5,-1034 1104.5,-1034 "/>
<text text-anchor="middle" x="1052" y="-1022" font-family="Helvetica,sans-Serif" font-size="10.00"> </text>
<polyline fill="none" stroke="black" points="999.5,-1015 1104.5,-1015 "/>
<text text-anchor="start" x="1007.5" y="-1003" font-family="Helvetica,sans-Serif" font-size="10.00">+ setKN()</text>
<text text-anchor="start" x="1007.5" y="-992" font-family="Helvetica,sans-Serif" font-size="10.00">+ setFN()</text>
<text text-anchor="start" x="1007.5" y="-981" font-family="Helvetica,sans-Serif" font-size="10.00">+ setParentFN()</text>
<text text-anchor="start" x="1007.5" y="-970" font-family="Helvetica,sans-Serif" font-size="10.00">+ getKN()</text>
<text text-anchor="start" x="1007.5" y="-959" font-family="Helvetica,sans-Serif" font-size="10.00">+ getFN()</text>
<text text-anchor="start" x="1007.5" y="-948" font-family="Helvetica,sans-Serif" font-size="10.00">+ getParentFN()</text>
</a>
</g>
</g>
<!-- Node14&#45;&gt;Node8 -->
<g id="edge11" class="edge"><title>Node14&#45;&gt;Node8</title>
<path fill="none" stroke="midnightblue" d="M1024.76,-931.103C1010.13,-896.254 991.515,-851.904 973.837,-809.788"/>
<polygon fill="none" stroke="midnightblue" points="1021.68,-932.805 1028.78,-940.671 1028.13,-930.095 1021.68,-932.805"/>
</g>
<!-- Node15 -->
<g id="node10" class="node"><title>Node15</title>
<g id="a_node10"><a xlink:href="classokw_1_1_log_messenger.html" target="_top" xlink:title="LogMessenger liest Log&#45;Meldungen sprachspezifisch für die im Konstruktor gegeben Klasse aus der Zugeh...">
<polygon fill="white" stroke="black" points="357.5,-615 357.5,-727 458.5,-727 458.5,-615 357.5,-615"/>
<text text-anchor="middle" x="408" y="-715" font-family="Helvetica,sans-Serif" font-size="10.00">okw.LogMessenger</text>
<polyline fill="none" stroke="black" points="357.5,-708 458.5,-708 "/>
<text text-anchor="start" x="365.5" y="-696" font-family="Helvetica,sans-Serif" font-size="10.00">&#45; cvsClassName</text>
<polyline fill="none" stroke="black" points="357.5,-689 458.5,-689 "/>
<text text-anchor="start" x="365.5" y="-677" font-family="Helvetica,sans-Serif" font-size="10.00">+ LogMessenger()</text>
<text text-anchor="start" x="365.5" y="-666" font-family="Helvetica,sans-Serif" font-size="10.00">+ GetMessage()</text>
<text text-anchor="start" x="365.5" y="-655" font-family="Helvetica,sans-Serif" font-size="10.00">+ GetMessage()</text>
<text text-anchor="start" x="365.5" y="-644" font-family="Helvetica,sans-Serif" font-size="10.00">+ GetMessage()</text>
<text text-anchor="start" x="365.5" y="-633" font-family="Helvetica,sans-Serif" font-size="10.00">+ GetMessage()</text>
<text text-anchor="start" x="365.5" y="-622" font-family="Helvetica,sans-Serif" font-size="10.00">&#45; ReadMessage()</text>
</a>
</g>
</g>
<!-- Node15&#45;&gt;Node7 -->
<g id="edge13" class="edge"><title>Node15&#45;&gt;Node7</title>
<path fill="none" stroke="#404040" d="M432.27,-614.765C446.843,-581.598 466.175,-537.602 485.089,-494.557"/>
<polygon fill="none" stroke="#404040" points="485.188,-494.331 483.939,-487.229 490.015,-483.345 491.263,-490.447 485.188,-494.331"/>
<text text-anchor="middle" x="492" y="-505.5" font-family="Helvetica,sans-Serif" font-size="10.00"> #LM</text>
</g>
<!-- Node15&#45;&gt;Node21 -->
<g id="edge26" class="edge"><title>Node15&#45;&gt;Node21</title>
<path fill="none" stroke="#404040" d="M384.902,-614.765C364.94,-567.031 335.599,-496.866 311.563,-439.39"/>
<polygon fill="none" stroke="#404040" points="311.461,-439.145 305.456,-435.153 306.831,-428.074 312.836,-432.066 311.461,-439.145"/>
<text text-anchor="middle" x="349" y="-505.5" font-family="Helvetica,sans-Serif" font-size="10.00"> &#45;LM</text>
</g>
<!-- Node16 -->
<g id="node11" class="node"><title>Node16</title>
<g id="a_node11"><a xlink:href="classokw_1_1_o_k_w___xml_reader.html" target="_top" xlink:title="{okw.OKW_XmlReader\n|&#45; myXMLFile\l|+ getXMLFile()\l+ OKW_XmlReader()\l+ getTextContentSingleValue()\l+ getTextContentAsList()\l&#45; Init()\l}">
<polygon fill="white" stroke="black" points="294.5,-946.5 294.5,-1047.5 445.5,-1047.5 445.5,-946.5 294.5,-946.5"/>
<text text-anchor="middle" x="370" y="-1035.5" font-family="Helvetica,sans-Serif" font-size="10.00">okw.OKW_XmlReader</text>
<polyline fill="none" stroke="black" points="294.5,-1028.5 445.5,-1028.5 "/>
<text text-anchor="start" x="302.5" y="-1016.5" font-family="Helvetica,sans-Serif" font-size="10.00">&#45; myXMLFile</text>
<polyline fill="none" stroke="black" points="294.5,-1009.5 445.5,-1009.5 "/>
<text text-anchor="start" x="302.5" y="-997.5" font-family="Helvetica,sans-Serif" font-size="10.00">+ getXMLFile()</text>
<text text-anchor="start" x="302.5" y="-986.5" font-family="Helvetica,sans-Serif" font-size="10.00">+ OKW_XmlReader()</text>
<text text-anchor="start" x="302.5" y="-975.5" font-family="Helvetica,sans-Serif" font-size="10.00">+ getTextContentSingleValue()</text>
<text text-anchor="start" x="302.5" y="-964.5" font-family="Helvetica,sans-Serif" font-size="10.00">+ getTextContentAsList()</text>
<text text-anchor="start" x="302.5" y="-953.5" font-family="Helvetica,sans-Serif" font-size="10.00">&#45; Init()</text>
</a>
</g>
</g>
<!-- Node16&#45;&gt;Node15 -->
<g id="edge14" class="edge"><title>Node16&#45;&gt;Node15</title>
<path fill="none" stroke="#404040" d="M375.813,-946.439C382.313,-891.014 392.877,-800.942 400.118,-739.205"/>
<polygon fill="none" stroke="#404040" points="400.122,-739.173 396.848,-732.748 401.52,-727.254 404.793,-733.68 400.122,-739.173"/>
<text text-anchor="middle" x="423.5" y="-831.5" font-family="Helvetica,sans-Serif" font-size="10.00"> &#45;myXmlReader</text>
</g>
<!-- Node16&#45;&gt;Node21 -->
<g id="edge21" class="edge"><title>Node16&#45;&gt;Node21</title>
<path fill="none" stroke="#404040" d="M338.161,-946.174C316.928,-909.962 290.82,-858.921 279,-810 248.854,-685.236 252.352,-536.38 259.533,-440.122"/>
<polygon fill="none" stroke="#404040" points="259.54,-440.03 256.018,-433.737 260.472,-428.066 263.994,-434.359 259.54,-440.03"/>
<text text-anchor="middle" x="313.5" y="-668.5" font-family="Helvetica,sans-Serif" font-size="10.00"> &#45;myXmlReader</text>
</g>
<!-- Node17 -->
<g id="node12" class="node"><title>Node17</title>
<polygon fill="white" stroke="#bfbfbf" points="475.5,-1195.5 475.5,-1252.5 600.5,-1252.5 600.5,-1195.5 475.5,-1195.5"/>
<text text-anchor="middle" x="538" y="-1240.5" font-family="Helvetica,sans-Serif" font-size="10.00">DocumentBuilderFactory</text>
<polyline fill="none" stroke="#bfbfbf" points="475.5,-1233.5 600.5,-1233.5 "/>
<text text-anchor="middle" x="538" y="-1221.5" font-family="Helvetica,sans-Serif" font-size="10.00"> </text>
<polyline fill="none" stroke="#bfbfbf" points="475.5,-1214.5 600.5,-1214.5 "/>
<text text-anchor="middle" x="538" y="-1202.5" font-family="Helvetica,sans-Serif" font-size="10.00"> </text>
</g>
<!-- Node17&#45;&gt;Node16 -->
<g id="edge15" class="edge"><title>Node17&#45;&gt;Node16</title>
<path fill="none" stroke="#404040" d="M524.84,-1195.38C518.269,-1182.45 509.843,-1167.05 501,-1154 478.102,-1120.2 449.215,-1085.15 424.397,-1056.87"/>
<polygon fill="none" stroke="#404040" points="424.101,-1056.53 417.13,-1054.69 416.151,-1047.54 423.122,-1049.39 424.101,-1056.53"/>
<text text-anchor="middle" x="540" y="-1157.5" font-family="Helvetica,sans-Serif" font-size="10.00"> &#45;mydbFactory</text>
</g>
<!-- Node18 -->
<g id="node13" class="node"><title>Node18</title>
<polygon fill="white" stroke="#bfbfbf" points="224,-1195.5 224,-1252.5 268,-1252.5 268,-1195.5 224,-1195.5"/>
<text text-anchor="middle" x="246" y="-1240.5" font-family="Helvetica,sans-Serif" font-size="10.00">XPath</text>
<polyline fill="none" stroke="#bfbfbf" points="224,-1233.5 268,-1233.5 "/>
<text text-anchor="middle" x="246" y="-1221.5" font-family="Helvetica,sans-Serif" font-size="10.00"> </text>
<polyline fill="none" stroke="#bfbfbf" points="224,-1214.5 268,-1214.5 "/>
<text text-anchor="middle" x="246" y="-1202.5" font-family="Helvetica,sans-Serif" font-size="10.00"> </text>
</g>
<!-- Node18&#45;&gt;Node16 -->
<g id="edge16" class="edge"><title>Node18&#45;&gt;Node16</title>
<path fill="none" stroke="#404040" d="M261.205,-1195.41C279.905,-1161.48 312.184,-1102.91 336.739,-1058.35"/>
<polygon fill="none" stroke="#404040" points="336.852,-1058.15 336.245,-1050.96 342.644,-1047.64 343.251,-1054.82 336.852,-1058.15"/>
<text text-anchor="middle" x="306.5" y="-1157.5" font-family="Helvetica,sans-Serif" font-size="10.00"> &#45;myXPath</text>
</g>
<!-- Node19 -->
<g id="node14" class="node"><title>Node19</title>
<polygon fill="white" stroke="#bfbfbf" points="286,-1195.5 286,-1252.5 378,-1252.5 378,-1195.5 286,-1195.5"/>
<text text-anchor="middle" x="332" y="-1240.5" font-family="Helvetica,sans-Serif" font-size="10.00">DocumentBuilder</text>
<polyline fill="none" stroke="#bfbfbf" points="286,-1233.5 378,-1233.5 "/>
<text text-anchor="middle" x="332" y="-1221.5" font-family="Helvetica,sans-Serif" font-size="10.00"> </text>
<polyline fill="none" stroke="#bfbfbf" points="286,-1214.5 378,-1214.5 "/>
<text text-anchor="middle" x="332" y="-1202.5" font-family="Helvetica,sans-Serif" font-size="10.00"> </text>
</g>
<!-- Node19&#45;&gt;Node16 -->
<g id="edge17" class="edge"><title>Node19&#45;&gt;Node16</title>
<path fill="none" stroke="#404040" d="M336.66,-1195.41C342.342,-1161.77 352.115,-1103.9 359.616,-1059.49"/>
<polygon fill="none" stroke="#404040" points="359.618,-1059.47 356.673,-1052.89 361.617,-1047.64 364.562,-1054.22 359.618,-1059.47"/>
<text text-anchor="middle" x="371.5" y="-1157.5" font-family="Helvetica,sans-Serif" font-size="10.00"> &#45;mydBuilder</text>
</g>
<!-- Node20 -->
<g id="node15" class="node"><title>Node20</title>
<polygon fill="white" stroke="#bfbfbf" points="396,-1195.5 396,-1252.5 458,-1252.5 458,-1195.5 396,-1195.5"/>
<text text-anchor="middle" x="427" y="-1240.5" font-family="Helvetica,sans-Serif" font-size="10.00">Document</text>
<polyline fill="none" stroke="#bfbfbf" points="396,-1233.5 458,-1233.5 "/>
<text text-anchor="middle" x="427" y="-1221.5" font-family="Helvetica,sans-Serif" font-size="10.00"> </text>
<polyline fill="none" stroke="#bfbfbf" points="396,-1214.5 458,-1214.5 "/>
<text text-anchor="middle" x="427" y="-1202.5" font-family="Helvetica,sans-Serif" font-size="10.00"> </text>
</g>
<!-- Node20&#45;&gt;Node16 -->
<g id="edge18" class="edge"><title>Node20&#45;&gt;Node16</title>
<path fill="none" stroke="#404040" d="M420.011,-1195.41C411.487,-1161.77 396.827,-1103.9 385.576,-1059.49"/>
<polygon fill="none" stroke="#404040" points="385.522,-1059.27 380.171,-1054.44 382.575,-1047.64 387.926,-1052.47 385.522,-1059.27"/>
<text text-anchor="middle" x="454.5" y="-1157.5" font-family="Helvetica,sans-Serif" font-size="10.00"> &#45;myXMLDocument</text>
</g>
<!-- Node21&#45;&gt;Node6 -->
<g id="edge20" class="edge"><title>Node21&#45;&gt;Node6</title>
<path fill="none" stroke="#404040" d="M325.172,-249.725C344.112,-219.421 365.218,-185.652 383.826,-155.878"/>
<polygon fill="none" stroke="#404040" points="383.937,-155.701 383.725,-148.493 390.297,-145.525 390.509,-152.733 383.937,-155.701"/>
<text text-anchor="middle" x="415" y="-167.5" font-family="Helvetica,sans-Serif" font-size="10.00"> &#45;myOKW_Const</text>
</g>
<!-- Node21&#45;&gt;Node21 -->
<g id="edge22" class="edge"><title>Node21&#45;&gt;Node21</title>
<path fill="none" stroke="#404040" d="M349.54,-366.778C360.038,-362.041 367,-352.781 367,-339 367,-330.387 364.28,-323.54 359.678,-318.459"/>
<polygon fill="none" stroke="#404040" points="359.306,-318.194 352.099,-317.964 349.54,-311.222 356.747,-311.453 359.306,-318.194"/>
<text text-anchor="middle" x="389" y="-336.5" font-family="Helvetica,sans-Serif" font-size="10.00"> &#45;Instance</text>
</g>
<!-- Node22 -->
<g id="node17" class="node"><title>Node22</title>
<g id="a_node17"><a xlink:href="classokw_1_1_o_k_w_language.html" target="_top" xlink:title="http://de.wikipedia.org/wiki/ISO&#45;3166&#45;1&#45;Kodierliste ">
<polygon fill="white" stroke="black" points="0,-626 0,-716 104,-716 104,-626 0,-626"/>
<text text-anchor="middle" x="52" y="-704" font-family="Helvetica,sans-Serif" font-size="10.00">okw.OKWLanguage</text>
<polyline fill="none" stroke="black" points="0,-697 104,-697 "/>
<text text-anchor="start" x="8" y="-685" font-family="Helvetica,sans-Serif" font-size="10.00">&#45; Language</text>
<polyline fill="none" stroke="black" points="0,-678 104,-678 "/>
<text text-anchor="start" x="8" y="-666" font-family="Helvetica,sans-Serif" font-size="10.00">+ getLanguage()</text>
<text text-anchor="start" x="8" y="-655" font-family="Helvetica,sans-Serif" font-size="10.00">+ setLanguage()</text>
<text text-anchor="start" x="8" y="-644" font-family="Helvetica,sans-Serif" font-size="10.00">+ getInstance()</text>
<text text-anchor="start" x="8" y="-633" font-family="Helvetica,sans-Serif" font-size="10.00">&#45; OKWLanguage()</text>
</a>
</g>
</g>
<!-- Node22&#45;&gt;Node21 -->
<g id="edge23" class="edge"><title>Node22&#45;&gt;Node21</title>
<path fill="none" stroke="#404040" d="M81.1742,-625.837C112.662,-578.173 163.822,-500.728 204.953,-438.466"/>
<polygon fill="none" stroke="#404040" points="205.109,-438.229 205.079,-431.018 211.724,-428.217 211.754,-435.428 205.109,-438.229"/>
<text text-anchor="middle" x="170.5" y="-505.5" font-family="Helvetica,sans-Serif" font-size="10.00"> &#45;CL</text>
</g>
<!-- Node22&#45;&gt;Node22 -->
<g id="edge25" class="edge"><title>Node22&#45;&gt;Node22</title>
<path fill="none" stroke="#404040" d="M104.202,-700.122C114.592,-696.844 122,-687.137 122,-671 122,-660.915 119.106,-653.341 114.399,-648.278"/>
<polygon fill="none" stroke="#404040" points="114.366,-648.258 107.158,-648.456 104.202,-641.878 111.411,-641.68 114.366,-648.258"/>
<text text-anchor="middle" x="144" y="-668.5" font-family="Helvetica,sans-Serif" font-size="10.00"> &#45;Instance</text>
</g>
<!-- Node23 -->
<g id="node18" class="node"><title>Node23</title>
<polygon fill="white" stroke="#bfbfbf" points="0.5,-968.5 0.5,-1025.5 99.5,-1025.5 99.5,-968.5 0.5,-968.5"/>
<text text-anchor="middle" x="50" y="-1013.5" font-family="Helvetica,sans-Serif" font-size="10.00">ArrayList&lt; String &gt;</text>
<polyline fill="none" stroke="#bfbfbf" points="0.5,-1006.5 99.5,-1006.5 "/>
<text text-anchor="middle" x="50" y="-994.5" font-family="Helvetica,sans-Serif" font-size="10.00"> </text>
<polyline fill="none" stroke="#bfbfbf" points="0.5,-987.5 99.5,-987.5 "/>
<text text-anchor="middle" x="50" y="-975.5" font-family="Helvetica,sans-Serif" font-size="10.00"> </text>
</g>
<!-- Node23&#45;&gt;Node22 -->
<g id="edge24" class="edge"><title>Node23&#45;&gt;Node22</title>
<path fill="none" stroke="#404040" d="M50.1607,-968.353C50.3551,-935.058 50.6944,-877.437 51,-828 51.2043,-794.941 51.4412,-757.942 51.633,-728.276"/>
<polygon fill="none" stroke="#404040" points="51.6345,-728.043 47.6735,-722.017 51.7123,-716.043 55.6733,-722.069 51.6345,-728.043"/>
<text text-anchor="middle" x="116.5" y="-831.5" font-family="Helvetica,sans-Serif" font-size="10.00"> &#45;cvLsLanguagesImplemented</text>
</g>
</g>
</svg>
