<?xml version="1.0" encoding="UTF-8" standalone="no"?>
<!DOCTYPE svg PUBLIC "-//W3C//DTD SVG 1.1//EN"
 "http://www.w3.org/Graphics/SVG/1.1/DTD/svg11.dtd">
<!-- Generated by graphviz version 2.38.0 (20140413.2041)
 -->
<!-- Title: okw.OKW_FileHelper.move Pages: 1 -->
<svg width="532pt" height="47pt"
 viewBox="0.00 0.00 532.00 47.00" xmlns="http://www.w3.org/2000/svg" xmlns:xlink="http://www.w3.org/1999/xlink">
<g id="graph0" class="graph" transform="scale(1 1) rotate(0) translate(4 43)">
<title>okw.OKW_FileHelper.move</title>
<polygon fill="white" stroke="none" points="-4,4 -4,-43 528,-43 528,4 -4,4"/>
<!-- Node47 -->
<g id="node1" class="node"><title>Node47</title>
<g id="a_node1"><a xlink:title="Verschiebt die gegeben Quell&#45;Datei zu einer neuen Ziel&#45;Datei.">
<polygon fill="#bfbfbf" stroke="black" points="0,-19.5 0,-38.5 140,-38.5 140,-19.5 0,-19.5"/>
<text text-anchor="middle" x="70" y="-26.5" font-family="Helvetica,sans-Serif" font-size="10.00">okw.OKW_FileHelper.move</text>
</a>
</g>
</g>
<!-- Node48 -->
<g id="node2" class="node"><title>Node48</title>
<g id="a_node2"><a xlink:href="classokw_1_1_o_k_w___file_helper.html#a86faaa4792bbe9d333c7bf2d2de275e3" target="_top" xlink:title="Prüft, ob die gegebene fpsPaFiNa Datei existiert.">
<polygon fill="white" stroke="black" points="370,-19.5 370,-38.5 524,-38.5 524,-19.5 370,-19.5"/>
<text text-anchor="middle" x="447" y="-26.5" font-family="Helvetica,sans-Serif" font-size="10.00">okw.OKW_FileHelper.fileExists</text>
</a>
</g>
</g>
<!-- Node47&#45;&gt;Node48 -->
<g id="edge1" class="edge"><title>Node47&#45;&gt;Node48</title>
<path fill="none" stroke="midnightblue" d="M140.218,-29C202.116,-29 293.083,-29 359.707,-29"/>
<polygon fill="midnightblue" stroke="midnightblue" points="359.768,-32.5001 369.768,-29 359.768,-25.5001 359.768,-32.5001"/>
</g>
<!-- Node49 -->
<g id="node3" class="node"><title>Node49</title>
<g id="a_node3"><a xlink:href="classokw_1_1_o_k_w___file_helper.html#ac5d246c66d38a54d9c7f388550be59e0" target="_top" xlink:title="Löscht die gegebene Datei fpsPaFiNa.">
<polygon fill="white" stroke="black" points="176,-0.5 176,-19.5 334,-19.5 334,-0.5 176,-0.5"/>
<text text-anchor="middle" x="255" y="-7.5" font-family="Helvetica,sans-Serif" font-size="10.00">okw.OKW_FileHelper.deleteFile</text>
</a>
</g>
</g>
<!-- Node47&#45;&gt;Node49 -->
<g id="edge2" class="edge"><title>Node47&#45;&gt;Node49</title>
<path fill="none" stroke="midnightblue" d="M140.184,-21.8169C148.551,-20.9483 157.182,-20.0522 165.774,-19.16"/>
<polygon fill="midnightblue" stroke="midnightblue" points="166.24,-22.6306 175.825,-18.1165 165.517,-15.668 166.24,-22.6306"/>
</g>
<!-- Node49&#45;&gt;Node48 -->
<g id="edge3" class="edge"><title>Node49&#45;&gt;Node48</title>
<path fill="none" stroke="midnightblue" d="M334.103,-17.8103C342.563,-18.6563 351.208,-19.5208 359.757,-20.3757"/>
<polygon fill="midnightblue" stroke="midnightblue" points="359.434,-23.8608 369.733,-21.3733 360.131,-16.8955 359.434,-23.8608"/>
</g>
</g>
</svg>
