<?xml version="1.0" encoding="UTF-8" standalone="no"?>
<!DOCTYPE svg PUBLIC "-//W3C//DTD SVG 1.1//EN"
 "http://www.w3.org/Graphics/SVG/1.1/DTD/svg11.dtd">
<!-- Generated by graphviz version 2.36.0 (20140111.2315)
 -->
<!-- Title: okw.gui.adapter.selenium.SeInputCheckbox.SeInputCheckbox Pages: 1 -->
<svg width="554pt" height="38pt"
 viewBox="0.00 0.00 554.00 38.00" xmlns="http://www.w3.org/2000/svg" xmlns:xlink="http://www.w3.org/1999/xlink">
<g id="graph0" class="graph" transform="scale(1 1) rotate(0) translate(4 34)">
<title>okw.gui.adapter.selenium.SeInputCheckbox.SeInputCheckbox</title>
<polygon fill="white" stroke="none" points="-4,4 -4,-34 550,-34 550,4 -4,4"/>
<!-- Node0 -->
<g id="node1" class="node"><title>Node0</title>
<polygon fill="#bfbfbf" stroke="black" points="0,-0 0,-30 176,-30 176,-0 0,-0"/>
<text text-anchor="start" x="8" y="-18" font-family="Helvetica,sans-Serif" font-size="10.00">okw.gui.adapter.selenium.</text>
<text text-anchor="middle" x="88" y="-7" font-family="Helvetica,sans-Serif" font-size="10.00">SeInputCheckbox.SeInputCheckbox</text>
</g>
<!-- Node1 -->
<g id="node2" class="node"><title>Node1</title>
<g id="a_node2"><a xlink:href="classokw_1_1_o_k_w___const___sngltn.html#afdb8f095b58cbd870dbb8eb353e3b0bf" target="_top" xlink:title="Holt die einzige Instanz dieser Klasse. ">
<polygon fill="white" stroke="black" points="212.5,-0 212.5,-30 355.5,-30 355.5,-0 212.5,-0"/>
<text text-anchor="start" x="220.5" y="-18" font-family="Helvetica,sans-Serif" font-size="10.00">okw.OKW_Const_Sngltn.get</text>
<text text-anchor="middle" x="284" y="-7" font-family="Helvetica,sans-Serif" font-size="10.00">Instance</text>
</a>
</g>
</g>
<!-- Node0&#45;&gt;Node1 -->
<g id="edge1" class="edge"><title>Node0&#45;&gt;Node1</title>
<path fill="none" stroke="midnightblue" d="M176.069,-15C184.829,-15 193.699,-15 202.388,-15"/>
<polygon fill="midnightblue" stroke="midnightblue" points="202.487,-18.5001 212.487,-15 202.487,-11.5001 202.487,-18.5001"/>
</g>
<!-- Node2 -->
<g id="node3" class="node"><title>Node2</title>
<g id="a_node3"><a xlink:href="classokw_1_1_o_k_w___const___sngltn.html#a8404c43fc549df30d37c369c7d6e89ae" target="_top" xlink:title="Privater Konstruktor ohne Parameter im Entwurfsmuster Singelton initialisiert die Klasse OKW_Const...">
<polygon fill="white" stroke="black" points="392.5,-0 392.5,-30 545.5,-30 545.5,-0 392.5,-0"/>
<text text-anchor="start" x="400.5" y="-18" font-family="Helvetica,sans-Serif" font-size="10.00">okw.OKW_Const_Sngltn.OKW</text>
<text text-anchor="middle" x="469" y="-7" font-family="Helvetica,sans-Serif" font-size="10.00">_Const_Sngltn</text>
</a>
</g>
</g>
<!-- Node1&#45;&gt;Node2 -->
<g id="edge2" class="edge"><title>Node1&#45;&gt;Node2</title>
<path fill="none" stroke="midnightblue" d="M355.753,-15C364.355,-15 373.216,-15 382.009,-15"/>
<polygon fill="midnightblue" stroke="midnightblue" points="382.28,-18.5001 392.28,-15 382.28,-11.5001 382.28,-18.5001"/>
</g>
</g>
</svg>
