<?xml version="1.0" encoding="UTF-8" standalone="no"?>
<!DOCTYPE svg PUBLIC "-//W3C//DTD SVG 1.1//EN"
 "http://www.w3.org/Graphics/SVG/1.1/DTD/svg11.dtd">
<!-- Generated by graphviz version 2.36.0 (20140111.2315)
 -->
<!-- Title: okw.core.Core.MemorizeIsActive Pages: 1 -->
<!--zoomable 126 -->
<svg id="main" version="1.1" xmlns="http://www.w3.org/2000/svg" xmlns:xlink="http://www.w3.org/1999/xlink" xml:space="preserve" onload="init(evt)">
<style type="text/css"><![CDATA[
.edge:hover path { stroke: red; }
.edge:hover polygon { stroke: red; fill: red; }
]]></style>
<script type="text/javascript"><![CDATA[
var edges = document.getElementsByTagName('g');
if (edges && edges.length) {
  for (var i=0;i<edges.length;i++) {
    if (edges[i].id.substr(0,4)=='edge') {
      edges[i].setAttribute('class','edge');
    }
  }
}
]]></script>
        <defs>
                <circle id="rim" cx="0" cy="0" r="7"/>
                <circle id="rim2" cx="0" cy="0" r="3.5"/>
                <g id="zoomPlus">
                        <use xlink:href="#rim" fill="#404040">
                                <set attributeName="fill" to="#808080" begin="zoomplus.mouseover" end="zoomplus.mouseout"/>
                        </use>
                        <path d="M-4,0h8M0,-4v8" fill="none" stroke="white" stroke-width="1.5" pointer-events="none"/>
                </g>
                <g id="zoomMin">
                        <use xlink:href="#rim" fill="#404040">
                                <set attributeName="fill" to="#808080" begin="zoomminus.mouseover" end="zoomminus.mouseout"/>
                        </use>
                        <path d="M-4,0h8" fill="none" stroke="white" stroke-width="1.5" pointer-events="none"/>
                </g>
                <g id="dirArrow">
                        <path fill="none" stroke="white" stroke-width="1.5" d="M0,-3.0v7 M-2.5,-0.5L0,-3.0L2.5,-0.5"/>
                </g>
               <g id="resetDef">
                       <use xlink:href="#rim2" fill="#404040">
                               <set attributeName="fill" to="#808080" begin="reset.mouseover" end="reset.mouseout"/>
                       </use>
               </g>
        </defs>

<script type="text/javascript">
var viewWidth = 732;
var viewHeight = 126;
var sectionId = 'dynsection-39';
</script>
<script xlink:href="svgpan.js"/>
<svg id="graph" class="graph">
<g id="viewport">
<title>okw.core.Core.MemorizeIsActive</title>
<polygon fill="white" stroke="none" points="-4,4 -4,-122 728,-122 728,4 -4,4"/>
<!-- Node1113 -->
<g id="node1" class="node"><title>Node1113</title>
<polygon fill="#bfbfbf" stroke="black" points="0,-44 0,-74 134,-74 134,-44 0,-44"/>
<text text-anchor="start" x="8" y="-62" font-family="Helvetica,sans-Serif" font-size="10.00">okw.core.Core.MemorizeIs</text>
<text text-anchor="middle" x="67" y="-51" font-family="Helvetica,sans-Serif" font-size="10.00">Active</text>
</g>
<!-- Node1114 -->
<g id="node2" class="node"><title>Node1114</title>
<g id="a_node2"><a xlink:href="classokw_1_1log_1_1_logger___sngltn.html#a70ec25e200e00ecefc544e8fd371d2ef" target="_top" xlink:title="Ausgabe eines Schlüsselwortes. ">
<polygon fill="white" stroke="black" points="184,-88 184,-118 318,-118 318,-88 184,-88"/>
<text text-anchor="start" x="192" y="-106" font-family="Helvetica,sans-Serif" font-size="10.00">okw.log.Logger_Sngltn.Log</text>
<text text-anchor="middle" x="251" y="-95" font-family="Helvetica,sans-Serif" font-size="10.00">KeyWordStart</text>
</a>
</g>
</g>
<!-- Node1113&#45;&gt;Node1114 -->
<g id="edge1" class="edge"><title>Node1113&#45;&gt;Node1114</title>
<path fill="none" stroke="midnightblue" d="M130.125,-74.0192C145.56,-77.7508 162.232,-81.7814 178.093,-85.616"/>
<polygon fill="midnightblue" stroke="midnightblue" points="177.304,-89.0258 187.846,-87.9738 178.949,-82.2218 177.304,-89.0258"/>
</g>
<!-- Node1115 -->
<g id="node3" class="node"><title>Node1115</title>
<g id="a_node3"><a xlink:href="classokw_1_1_log_messenger.html#af225d1f037d47b3b085175c09d78bdd2" target="_top" xlink:title="Holt die Log&#45;Meldung für MethodeNmae/Textkey ohne weitere Parameter. ">
<polygon fill="white" stroke="black" points="171,-49.5 171,-68.5 331,-68.5 331,-49.5 171,-49.5"/>
<text text-anchor="middle" x="251" y="-56.5" font-family="Helvetica,sans-Serif" font-size="10.00">okw.LogMessenger.GetMessage</text>
</a>
</g>
</g>
<!-- Node1113&#45;&gt;Node1115 -->
<g id="edge2" class="edge"><title>Node1113&#45;&gt;Node1115</title>
<path fill="none" stroke="midnightblue" d="M134.221,-59C142.861,-59 151.824,-59 160.763,-59"/>
<polygon fill="midnightblue" stroke="midnightblue" points="160.829,-62.5001 170.829,-59 160.829,-55.5001 160.829,-62.5001"/>
</g>
<!-- Node1118 -->
<g id="node6" class="node"><title>Node1118</title>
<g id="a_node6"><a xlink:href="interfaceokw_1_1core_1_1_i_o_k_w___state.html#aacc6bf4789bc0654920cd81c26dbd9f9" target="_top" xlink:title="Merkt sich den Zustand des gegebenen Objekts. ">
<polygon fill="white" stroke="black" points="170.5,-0 170.5,-30 331.5,-30 331.5,-0 170.5,-0"/>
<text text-anchor="start" x="178.5" y="-18" font-family="Helvetica,sans-Serif" font-size="10.00">okw.core.IOKW_State.Memorize</text>
<text text-anchor="middle" x="251" y="-7" font-family="Helvetica,sans-Serif" font-size="10.00">IsActive</text>
</a>
</g>
</g>
<!-- Node1113&#45;&gt;Node1118 -->
<g id="edge5" class="edge"><title>Node1113&#45;&gt;Node1118</title>
<path fill="none" stroke="midnightblue" d="M130.125,-43.9808C145.56,-40.2492 162.232,-36.2186 178.093,-32.384"/>
<polygon fill="midnightblue" stroke="midnightblue" points="178.949,-35.7782 187.846,-30.0262 177.304,-28.9742 178.949,-35.7782"/>
</g>
<!-- Node1116 -->
<g id="node4" class="node"><title>Node1116</title>
<g id="a_node4"><a xlink:href="classokw_1_1_log_messenger.html#a530cd6ab82ec82a04206a2e976ec06e3" target="_top" xlink:title="Interne Kernfunktion holt die Log&#45;Meldung mit Platzhaltern aus der XML&#45;Datei. ">
<polygon fill="white" stroke="black" points="368.5,-49.5 368.5,-68.5 535.5,-68.5 535.5,-49.5 368.5,-49.5"/>
<text text-anchor="middle" x="452" y="-56.5" font-family="Helvetica,sans-Serif" font-size="10.00">okw.LogMessenger.ReadMessage</text>
</a>
</g>
</g>
<!-- Node1115&#45;&gt;Node1116 -->
<g id="edge3" class="edge"><title>Node1115&#45;&gt;Node1116</title>
<path fill="none" stroke="midnightblue" d="M331.222,-59C340.121,-59 349.246,-59 358.295,-59"/>
<polygon fill="midnightblue" stroke="midnightblue" points="358.464,-62.5001 368.464,-59 358.464,-55.5001 358.464,-62.5001"/>
</g>
<!-- Node1117 -->
<g id="node5" class="node"><title>Node1117</title>
<g id="a_node5"><a xlink:href="classokw_1_1_o_k_w___xml_reader.html#ab920b5335a2e1429c14cc5f8e79f39eb" target="_top" xlink:title="Lies den TextContent eines Tag. ">
<polygon fill="white" stroke="black" points="572,-44 572,-74 724,-74 724,-44 572,-44"/>
<text text-anchor="start" x="580" y="-62" font-family="Helvetica,sans-Serif" font-size="10.00">okw.OKW_XmlReader.getText</text>
<text text-anchor="middle" x="648" y="-51" font-family="Helvetica,sans-Serif" font-size="10.00">ContentSingleValue</text>
</a>
</g>
</g>
<!-- Node1116&#45;&gt;Node1117 -->
<g id="edge4" class="edge"><title>Node1116&#45;&gt;Node1117</title>
<path fill="none" stroke="midnightblue" d="M535.555,-59C544.227,-59 553.057,-59 561.759,-59"/>
<polygon fill="midnightblue" stroke="midnightblue" points="561.899,-62.5001 571.899,-59 561.899,-55.5001 561.899,-62.5001"/>
</g>
</g>
</svg>
        <g id="navigator" transform="translate(0 0)" fill="#404254">
                <rect fill="#f2f5e9" fill-opacity="0.5" stroke="#606060" stroke-width=".5" x="0" y="0" width="60" height="60"/>
                <use id="zoomplus" xlink:href="#zoomPlus" x="17" y="9" onmousedown="handleZoom(evt,'in')"/>
                <use id="zoomminus" xlink:href="#zoomMin" x="42" y="9" onmousedown="handleZoom(evt,'out')"/>
                <use id="reset" xlink:href="#resetDef" x="30" y="36" onmousedown="handleReset()"/>
                <g id="arrowUp" xlink:href="#dirArrow" transform="translate(30 24)" onmousedown="handlePan(0,-1)">
                  <use xlink:href="#rim" fill="#404040">
                        <set attributeName="fill" to="#808080" begin="arrowUp.mouseover" end="arrowUp.mouseout"/>
                  </use>
                  <path fill="none" stroke="white" stroke-width="1.5" d="M0,-3.0v7 M-2.5,-0.5L0,-3.0L2.5,-0.5"/>
                </g>
                <g id="arrowRight" xlink:href="#dirArrow" transform="rotate(90) translate(36 -43)" onmousedown="handlePan(1,0)">
                  <use xlink:href="#rim" fill="#404040">
                        <set attributeName="fill" to="#808080" begin="arrowRight.mouseover" end="arrowRight.mouseout"/>
                  </use>
                  <path fill="none" stroke="white" stroke-width="1.5" d="M0,-3.0v7 M-2.5,-0.5L0,-3.0L2.5,-0.5"/>
                </g>
                <g id="arrowDown" xlink:href="#dirArrow" transform="rotate(180) translate(-30 -48)" onmousedown="handlePan(0,1)">
                  <use xlink:href="#rim" fill="#404040">
                        <set attributeName="fill" to="#808080" begin="arrowDown.mouseover" end="arrowDown.mouseout"/>
                  </use>
                  <path fill="none" stroke="white" stroke-width="1.5" d="M0,-3.0v7 M-2.5,-0.5L0,-3.0L2.5,-0.5"/>
                </g>
                <g id="arrowLeft" xlink:href="#dirArrow" transform="rotate(270) translate(-36 17)" onmousedown="handlePan(-1,0)">
                  <use xlink:href="#rim" fill="#404040">
                        <set attributeName="fill" to="#808080" begin="arrowLeft.mouseover" end="arrowLeft.mouseout"/>
                  </use>
                  <path fill="none" stroke="white" stroke-width="1.5" d="M0,-3.0v7 M-2.5,-0.5L0,-3.0L2.5,-0.5"/>
                </g>
        </g>
        <svg viewBox="0 0 15 15" width="100%" height="30px" preserveAspectRatio="xMaxYMin meet">
         <g id="arrow_out" transform="scale(0.3 0.3)">
          <a xlink:href="classokw_1_1core_1_1_core_a69fb76c04f4cfaa44b65f5477768455c_cgraph_org.svg" target="_base">
           <rect id="button" ry="5" rx="5" y="6" x="6" height="38" width="38"
                fill="#f2f5e9" fill-opacity="0.5" stroke="#606060" stroke-width="1.0"/>
           <path id="arrow"
             d="M 11.500037,31.436501 C 11.940474,20.09759 22.043105,11.32322 32.158766,21.979434 L 37.068811,17.246167 C 37.068811,17.246167 37.088388,32 37.088388,32 L 22.160133,31.978069 C 22.160133,31.978069 26.997745,27.140456 26.997745,27.140456 C 18.528582,18.264221 13.291696,25.230495 11.500037,31.436501 z"
             style="fill:#404040;"/>
          </a>
         </g>
        </svg>
</svg>
