<?xml version="1.0" encoding="UTF-8" standalone="no"?>
<!DOCTYPE svg PUBLIC "-//W3C//DTD SVG 1.1//EN"
 "http://www.w3.org/Graphics/SVG/1.1/DTD/svg11.dtd">
<!-- Generated by graphviz version 2.26.3 (20100126.1600)
 -->
<!-- Title: okw.gui.adapter.selenium.SeSelect.SetValue Pages: 1 -->
<!--zoomable 420 -->
<svg id="main" version="1.1" xmlns="http://www.w3.org/2000/svg" xmlns:xlink="http://www.w3.org/1999/xlink" xml:space="preserve" onload="init(evt)">
<style type="text/css"><![CDATA[
.edge:hover path { stroke: red; }
.edge:hover polygon { stroke: red; fill: red; }
]]></style>
<script type="text/javascript"><![CDATA[
var edges = document.getElementsByTagName('g');
if (edges && edges.length) {
  for (var i=0;i<edges.length;i++) {
    if (edges[i].id.substr(0,4)=='edge') {
      edges[i].setAttribute('class','edge');
    }
  }
}
]]></script>
        <defs>
                <circle id="rim" cx="0" cy="0" r="7"/>
                <circle id="rim2" cx="0" cy="0" r="3.5"/>
                <g id="zoomPlus">
                        <use xlink:href="#rim" fill="#404040">
                                <set attributeName="fill" to="#808080" begin="zoomplus.mouseover" end="zoomplus.mouseout"/>
                        </use>
                        <path d="M-4,0h8M0,-4v8" fill="none" stroke="white" stroke-width="1.5" pointer-events="none"/>
                </g>
                <g id="zoomMin">
                        <use xlink:href="#rim" fill="#404040">
                                <set attributeName="fill" to="#808080" begin="zoomminus.mouseover" end="zoomminus.mouseout"/>
                        </use>
                        <path d="M-4,0h8" fill="none" stroke="white" stroke-width="1.5" pointer-events="none"/>
                </g>
                <g id="dirArrow">
                        <path fill="none" stroke="white" stroke-width="1.5" d="M0,-3.0v7 M-2.5,-0.5L0,-3.0L2.5,-0.5"/>
                </g>
               <g id="resetDef">
                       <use xlink:href="#rim2" fill="#404040">
                               <set attributeName="fill" to="#808080" begin="reset.mouseover" end="reset.mouseout"/>
                       </use>
               </g>
        </defs>

<script type="text/javascript">
var viewWidth = 1102;
var viewHeight = 420;
var sectionId = 'dynsection-5';
</script>
<script xlink:href="svgpan.js"/>
<svg id="graph" class="graph">
<g id="viewport">
<title>okw.gui.adapter.selenium.SeSelect.SetValue</title>
<polygon fill="white" stroke="white" points="-4,5 -4,-416 1099,-416 1099,5 -4,5"/>
<!-- Node51 -->
<g id="node1" class="node"><title>Node51</title>
<polygon fill="#bfbfbf" stroke="black" points="0.5,-152 0.5,-186 131.5,-186 131.5,-152 0.5,-152"/>
<text text-anchor="start" x="8.5" y="-173" font-family="Helvetica,sans-Serif" font-size="10.00">okw.gui.adapter.selenium.</text>
<text text-anchor="middle" x="66" y="-160" font-family="Helvetica,sans-Serif" font-size="10.00">SeSelect.SetValue</text>
</g>
<!-- Node52 -->
<g id="node3" class="node"><title>Node52</title>
<a xlink:href="classokw_1_1gui_1_1_any_win_base.html#abaab572bdbed7b471f659d5dd8c76853" target="_top" xlink:title="Diese Methode ruft die Methode Logger.Instance.LogFunctionStartDebug(fps_FunctionName), und erweitert den gegebenen Methodenname in fps_FunctionName mit this.GetType().FullName um den Klassenbezeichner. ">
<polygon fill="white" stroke="black" points="338.5,-276 338.5,-310 505.5,-310 505.5,-276 338.5,-276"/>
<text text-anchor="start" x="346.5" y="-297" font-family="Helvetica,sans-Serif" font-size="10.00">okw.gui.AnyWinBase.LogFunction</text>
<text text-anchor="middle" x="422" y="-284" font-family="Helvetica,sans-Serif" font-size="10.00">StartDebug</text>
</a>
</g>
<!-- Node51&#45;&gt;Node52 -->
<g id="edge2" class="edge"><title>Node51&#45;&gt;Node52</title>
<path fill="none" stroke="midnightblue" d="M97.5246,-186.209C117.366,-196.596 143.726,-209.595 168,-219 224.915,-241.051 291.185,-260.149 341.762,-273.418"/>
<polygon fill="midnightblue" stroke="midnightblue" points="341.101,-276.863 351.66,-275.993 342.864,-270.088 341.101,-276.863"/>
</g>
<!-- Node53 -->
<g id="node5" class="node"><title>Node53</title>
<a xlink:href="classokw_1_1gui_1_1adapter_1_1selenium_1_1_se_any_child_window.html#a72faf4aa1717b4178fae1b0570ca9b28" target="_top" xlink:title="Wartet auf das Objekt Wenn kein Fenster gefunden wird,. ">
<polygon fill="white" stroke="black" points="344.5,-224 344.5,-258 499.5,-258 499.5,-224 344.5,-224"/>
<text text-anchor="start" x="352.5" y="-245" font-family="Helvetica,sans-Serif" font-size="10.00">okw.gui.adapter.selenium.</text>
<text text-anchor="middle" x="422" y="-232" font-family="Helvetica,sans-Serif" font-size="10.00">SeAnyChildWindow.WaitForMe</text>
</a>
</g>
<!-- Node51&#45;&gt;Node53 -->
<g id="edge4" class="edge"><title>Node51&#45;&gt;Node53</title>
<path fill="none" stroke="midnightblue" d="M131.504,-184.088C143.624,-186.789 156.184,-189.529 168,-192 223.211,-203.547 285.386,-215.559 334.402,-224.799"/>
<polygon fill="midnightblue" stroke="midnightblue" points="333.864,-228.259 344.339,-226.668 335.158,-221.38 333.864,-228.259"/>
</g>
<!-- Node62 -->
<g id="node23" class="node"><title>Node62</title>
<a xlink:href="classokw_1_1gui_1_1adapter_1_1selenium_1_1_se_select.html#afdad05e1d4413b4cdce12d38b67def23" target="_top" xlink:title="Methode wählt einen oder mehrere Werte in einer ListBox aus. ">
<polygon fill="white" stroke="black" points="169.5,-130 169.5,-164 300.5,-164 300.5,-130 169.5,-130"/>
<text text-anchor="start" x="177.5" y="-151" font-family="Helvetica,sans-Serif" font-size="10.00">okw.gui.adapter.selenium.</text>
<text text-anchor="middle" x="235" y="-138" font-family="Helvetica,sans-Serif" font-size="10.00">SeSelect.Select</text>
</a>
</g>
<!-- Node51&#45;&gt;Node62 -->
<g id="edge22" class="edge"><title>Node51&#45;&gt;Node62</title>
<path fill="none" stroke="midnightblue" d="M131.824,-160.431C140.876,-159.253 150.229,-158.035 159.439,-156.836"/>
<polygon fill="midnightblue" stroke="midnightblue" points="159.891,-160.307 169.356,-155.545 158.988,-153.366 159.891,-160.307"/>
</g>
<!-- Node63 -->
<g id="node27" class="node"><title>Node63</title>
<a xlink:href="classokw_1_1gui_1_1adapter_1_1selenium_1_1_se_any_child_window.html#a9a138af1fc6ff850d708d66f308a2525" target="_top" xlink:title="Ermittelt aus dem gegebenen Locator das DOM&#45;Elelement, welches das Objekt representiert. ">
<polygon fill="white" stroke="black" points="356.5,-172 356.5,-206 487.5,-206 487.5,-172 356.5,-172"/>
<text text-anchor="start" x="364.5" y="-193" font-family="Helvetica,sans-Serif" font-size="10.00">okw.gui.adapter.selenium.</text>
<text text-anchor="middle" x="422" y="-180" font-family="Helvetica,sans-Serif" font-size="10.00">SeAnyChildWindow.Me</text>
</a>
</g>
<!-- Node51&#45;&gt;Node63 -->
<g id="edge56" class="edge"><title>Node51&#45;&gt;Node63</title>
<path fill="none" stroke="midnightblue" d="M131.711,-172.692C192.45,-176.104 282.673,-181.173 346.383,-184.752"/>
<polygon fill="midnightblue" stroke="midnightblue" points="346.191,-188.246 356.372,-185.313 346.584,-181.258 346.191,-188.246"/>
</g>
<!-- Node73 -->
<g id="node50" class="node"><title>Node73</title>
<a xlink:href="classokw_1_1gui_1_1_any_win_base.html#a51cf50ace21902b3a5359316f53a7f3e" target="_top" xlink:title="Methode ruft die Methode Logger.Instance.LogFunctionEndDebug() auf. ">
<polygon fill="white" stroke="black" points="338.5,-16 338.5,-50 505.5,-50 505.5,-16 338.5,-16"/>
<text text-anchor="start" x="346.5" y="-37" font-family="Helvetica,sans-Serif" font-size="10.00">okw.gui.AnyWinBase.LogFunction</text>
<text text-anchor="middle" x="422" y="-24" font-family="Helvetica,sans-Serif" font-size="10.00">EndDebug</text>
</a>
</g>
<!-- Node51&#45;&gt;Node73 -->
<g id="edge60" class="edge"><title>Node51&#45;&gt;Node73</title>
<path fill="none" stroke="midnightblue" d="M98.9443,-151.814C118.639,-141.968 144.355,-129.849 168,-121 225.977,-99.3038 245.787,-108.928 302,-83 319.462,-74.9459 320.636,-67.2617 338,-59 341.985,-57.1041 346.141,-55.3049 350.378,-53.6046"/>
<polygon fill="midnightblue" stroke="midnightblue" points="351.647,-56.8667 359.751,-50.0416 349.16,-50.3236 351.647,-56.8667"/>
</g>
<!-- Node74 -->
<g id="node53" class="node"><title>Node74</title>
<a xlink:href="classokw_1_1log_1_1_logger___sngltn.html#ae3f9bbd7f9bb06a3637b638bd791693c" target="_top" xlink:title="LogError Function: Logs an error message to the results file. ">
<polygon fill="white" stroke="black" points="168,-40 168,-74 302,-74 302,-40 168,-40"/>
<text text-anchor="start" x="176" y="-61" font-family="Helvetica,sans-Serif" font-size="10.00">okw.log.Logger_Sngltn.Log</text>
<text text-anchor="middle" x="235" y="-48" font-family="Helvetica,sans-Serif" font-size="10.00">Error</text>
</a>
</g>
<!-- Node51&#45;&gt;Node74 -->
<g id="edge58" class="edge"><title>Node51&#45;&gt;Node74</title>
<path fill="none" stroke="midnightblue" d="M84.9094,-151.706C104.653,-134.212 137.005,-107.099 168,-88 173.37,-84.6907 179.152,-81.508 184.989,-78.5255"/>
<polygon fill="midnightblue" stroke="midnightblue" points="186.729,-81.5705 194.155,-74.0143 183.637,-75.29 186.729,-81.5705"/>
</g>
<!-- Node54 -->
<g id="node7" class="node"><title>Node54</title>
<a xlink:href="classokw_1_1log_1_1_logger___sngltn.html#ab4fc711bb4c754f251372ff3b14ab9c9" target="_top" xlink:title="Creates a new hierarchical level in the results file. ">
<polygon fill="white" stroke="black" points="553.5,-338 553.5,-372 690.5,-372 690.5,-338 553.5,-338"/>
<text text-anchor="start" x="561.5" y="-359" font-family="Helvetica,sans-Serif" font-size="10.00">okw.log.Logger_Sngltn.Res</text>
<text text-anchor="middle" x="622" y="-346" font-family="Helvetica,sans-Serif" font-size="10.00">OpenList</text>
</a>
</g>
<!-- Node53&#45;&gt;Node54 -->
<g id="edge6" class="edge"><title>Node53&#45;&gt;Node54</title>
<path fill="none" stroke="midnightblue" d="M491.958,-258.017C496.949,-260.602 501.701,-263.577 506,-267 530.927,-286.848 517.213,-308.977 542,-329 543.576,-330.273 545.217,-331.485 546.91,-332.638"/>
<polygon fill="midnightblue" stroke="midnightblue" points="545.379,-335.801 555.759,-337.927 548.971,-329.792 545.379,-335.801"/>
</g>
<!-- Node55 -->
<g id="node9" class="node"><title>Node55</title>
<a xlink:href="classokw_1_1log_1_1_logger___sngltn.html#a8ebceaddd6cc6963ddb8e08c72ea808c" target="_top" xlink:title="LogPrint Function: Prints the values of expressions to the results file. ">
<polygon fill="white" stroke="black" points="755,-241 755,-275 889,-275 889,-241 755,-241"/>
<text text-anchor="start" x="763" y="-262" font-family="Helvetica,sans-Serif" font-size="10.00">okw.log.Logger_Sngltn.Log</text>
<text text-anchor="middle" x="822" y="-249" font-family="Helvetica,sans-Serif" font-size="10.00">Print</text>
</a>
</g>
<!-- Node53&#45;&gt;Node55 -->
<g id="edge8" class="edge"><title>Node53&#45;&gt;Node55</title>
<path fill="none" stroke="midnightblue" d="M499.598,-244.298C570.299,-247.303 674.159,-251.717 744.751,-254.717"/>
<polygon fill="midnightblue" stroke="midnightblue" points="744.777,-258.221 754.916,-255.149 745.074,-251.227 744.777,-258.221"/>
</g>
<!-- Node56 -->
<g id="node11" class="node"><title>Node56</title>
<a xlink:href="classokw_1_1gui_1_1_any_win_base.html#a9929f6fae1f4e2c20df79d32d5bc79db" target="_top" xlink:title="Holt den vollständig (rekursiv) aufgelösten (z.B. ">
<polygon fill="white" stroke="black" points="542.5,-208.5 542.5,-229.5 701.5,-229.5 701.5,-208.5 542.5,-208.5"/>
<text text-anchor="middle" x="622" y="-216.5" font-family="Helvetica,sans-Serif" font-size="10.00">okw.gui.AnyWinBase.getLocator</text>
</a>
</g>
<!-- Node53&#45;&gt;Node56 -->
<g id="edge10" class="edge"><title>Node53&#45;&gt;Node56</title>
<path fill="none" stroke="midnightblue" d="M499.611,-232.463C510.372,-231.279 521.497,-230.055 532.453,-228.85"/>
<polygon fill="midnightblue" stroke="midnightblue" points="532.895,-232.323 542.452,-227.75 532.129,-225.365 532.895,-232.323"/>
</g>
<!-- Node58 -->
<g id="node15" class="node"><title>Node58</title>
<a xlink:href="classokw_1_1log_1_1_logger___sngltn.html#a9b54104f7e0b4c0a473877b19dfaed56" target="_top" xlink:title="Closes a hierarchical level in the results file that was opened with ResOpenList. ...">
<polygon fill="white" stroke="black" points="553.5,-286 553.5,-320 690.5,-320 690.5,-286 553.5,-286"/>
<text text-anchor="start" x="561.5" y="-307" font-family="Helvetica,sans-Serif" font-size="10.00">okw.log.Logger_Sngltn.Res</text>
<text text-anchor="middle" x="622" y="-294" font-family="Helvetica,sans-Serif" font-size="10.00">CloseList</text>
</a>
</g>
<!-- Node53&#45;&gt;Node58 -->
<g id="edge14" class="edge"><title>Node53&#45;&gt;Node58</title>
<path fill="none" stroke="midnightblue" d="M477.127,-258.057C486.752,-261.036 496.668,-264.108 506,-267 522.668,-272.166 540.683,-277.754 557.43,-282.952"/>
<polygon fill="midnightblue" stroke="midnightblue" points="556.537,-286.339 567.125,-285.961 558.612,-279.654 556.537,-286.339"/>
</g>
<!-- Node59 -->
<g id="node17" class="node"><title>Node59</title>
<a xlink:href="classokw_1_1_log_messenger.html#af225d1f037d47b3b085175c09d78bdd2" target="_top" xlink:title="Holt die Log&#45;Meldung für MethodeNmae/Textkey ohne weitere Parameter. ">
<polygon fill="white" stroke="black" points="542,-390.5 542,-411.5 702,-411.5 702,-390.5 542,-390.5"/>
<text text-anchor="middle" x="622" y="-398.5" font-family="Helvetica,sans-Serif" font-size="10.00">okw.LogMessenger.GetMessage</text>
</a>
</g>
<!-- Node53&#45;&gt;Node59 -->
<g id="edge16" class="edge"><title>Node53&#45;&gt;Node59</title>
<path fill="none" stroke="midnightblue" d="M494.826,-258.216C498.869,-260.753 502.644,-263.663 506,-267 543.678,-304.463 503.303,-344.591 542,-381 543.525,-382.435 545.137,-383.771 546.82,-385.015"/>
<polygon fill="midnightblue" stroke="midnightblue" points="545.414,-388.258 555.77,-390.498 549.072,-382.289 545.414,-388.258"/>
</g>
<!-- Node57 -->
<g id="node13" class="node"><title>Node57</title>
<a xlink:href="classokw_1_1gui_1_1_o_k_w_locator.html#adc74fc2125dd048dc1cb84e011f47ec8" target="_top" xlink:title="Holt den vollständig (rekursiv) aufgelösten (z.B. ">
<polygon fill="white" stroke="black" points="743,-201.5 743,-222.5 901,-222.5 901,-201.5 743,-201.5"/>
<text text-anchor="middle" x="822" y="-209.5" font-family="Helvetica,sans-Serif" font-size="10.00">okw.gui.OKWLocator.getLocator</text>
</a>
</g>
<!-- Node56&#45;&gt;Node57 -->
<g id="edge12" class="edge"><title>Node56&#45;&gt;Node57</title>
<path fill="none" stroke="midnightblue" d="M701.62,-216.213C711.832,-215.856 722.341,-215.488 732.695,-215.126"/>
<polygon fill="midnightblue" stroke="midnightblue" points="733.109,-218.613 742.981,-214.766 732.864,-211.618 733.109,-218.613"/>
</g>
<!-- Node60 -->
<g id="node19" class="node"><title>Node60</title>
<a xlink:href="classokw_1_1_log_messenger.html#a530cd6ab82ec82a04206a2e976ec06e3" target="_top" xlink:title="Interne Kernfunktion holt die Log&#45;Meldung mit Platzhaltern aus der XML&#45;Datei. ">
<polygon fill="white" stroke="black" points="738.5,-341.5 738.5,-362.5 905.5,-362.5 905.5,-341.5 738.5,-341.5"/>
<text text-anchor="middle" x="822" y="-349.5" font-family="Helvetica,sans-Serif" font-size="10.00">okw.LogMessenger.ReadMessage</text>
</a>
</g>
<!-- Node59&#45;&gt;Node60 -->
<g id="edge18" class="edge"><title>Node59&#45;&gt;Node60</title>
<path fill="none" stroke="midnightblue" d="M664.905,-390.488C695.382,-383.021 736.5,-372.947 769.025,-364.979"/>
<polygon fill="midnightblue" stroke="midnightblue" points="769.941,-368.358 778.821,-362.579 768.276,-361.559 769.941,-368.358"/>
</g>
<!-- Node61 -->
<g id="node21" class="node"><title>Node61</title>
<a xlink:href="classokw_1_1_o_k_w___xml_reader.html#ab920b5335a2e1429c14cc5f8e79f39eb" target="_top" xlink:title="Lies den TextContent eines Tag. ">
<polygon fill="white" stroke="black" points="942,-245 942,-279 1094,-279 1094,-245 942,-245"/>
<text text-anchor="start" x="950" y="-266" font-family="Helvetica,sans-Serif" font-size="10.00">okw.OKW_XmlReader.getText</text>
<text text-anchor="middle" x="1018" y="-253" font-family="Helvetica,sans-Serif" font-size="10.00">ContentSingleValue</text>
</a>
</g>
<!-- Node60&#45;&gt;Node61 -->
<g id="edge20" class="edge"><title>Node60&#45;&gt;Node61</title>
<path fill="none" stroke="midnightblue" d="M844.867,-341.5C875.811,-327.291 931.732,-301.613 971.648,-283.284"/>
<polygon fill="midnightblue" stroke="midnightblue" points="973.292,-286.381 980.919,-279.027 970.371,-280.019 973.292,-286.381"/>
</g>
<!-- Node62&#45;&gt;Node52 -->
<g id="edge24" class="edge"><title>Node62&#45;&gt;Node52</title>
<path fill="none" stroke="midnightblue" d="M245.372,-164.411C261.79,-190.497 296.226,-239.581 338,-267 340.313,-268.518 342.72,-269.952 345.195,-271.305"/>
<polygon fill="midnightblue" stroke="midnightblue" points="343.899,-274.569 354.414,-275.862 347.001,-268.293 343.899,-274.569"/>
</g>
<!-- Node62&#45;&gt;Node53 -->
<g id="edge26" class="edge"><title>Node62&#45;&gt;Node53</title>
<path fill="none" stroke="midnightblue" d="M256.818,-164.063C276.956,-179.148 308.171,-200.89 338,-215 341.989,-216.887 346.148,-218.679 350.388,-220.374"/>
<polygon fill="midnightblue" stroke="midnightblue" points="349.174,-223.657 359.765,-223.928 351.655,-217.111 349.174,-223.657"/>
</g>
<!-- Node62&#45;&gt;Node63 -->
<g id="edge28" class="edge"><title>Node62&#45;&gt;Node63</title>
<path fill="none" stroke="midnightblue" d="M300.666,-161.749C315.515,-165.084 331.394,-168.65 346.608,-172.067"/>
<polygon fill="midnightblue" stroke="midnightblue" points="345.968,-175.51 356.492,-174.287 347.502,-168.681 345.968,-175.51"/>
</g>
<!-- Node68 -->
<g id="node39" class="node"><title>Node68</title>
<a xlink:href="classokw_1_1_o_k_w___const___sngltn.html#afdb8f095b58cbd870dbb8eb353e3b0bf" target="_top" xlink:title="Holt die einzige Instanz dieser Klasse. ">
<polygon fill="white" stroke="black" points="350.5,-68 350.5,-102 493.5,-102 493.5,-68 350.5,-68"/>
<text text-anchor="start" x="358.5" y="-89" font-family="Helvetica,sans-Serif" font-size="10.00">okw.OKW_Const_Sngltn.get</text>
<text text-anchor="middle" x="422" y="-76" font-family="Helvetica,sans-Serif" font-size="10.00">Instance</text>
</a>
</g>
<!-- Node62&#45;&gt;Node68 -->
<g id="edge42" class="edge"><title>Node62&#45;&gt;Node68</title>
<path fill="none" stroke="midnightblue" d="M282.568,-129.972C299.963,-123.852 319.828,-116.986 338,-111 343.9,-109.057 350.046,-107.074 356.211,-105.114"/>
<polygon fill="midnightblue" stroke="midnightblue" points="357.4,-108.41 365.882,-102.062 355.293,-101.734 357.4,-108.41"/>
</g>
<!-- Node70 -->
<g id="node43" class="node"><title>Node70</title>
<a xlink:href="classokw_1_1_o_k_w___const___sngltn.html#a02c05c79f7ea6e862a81a64ce23941fd" target="_top" xlink:title="Methode ermittelt für Internalname und der aktuell eingestellten Sprache den Wert für OKWConst...">
<polygon fill="white" stroke="black" points="349.5,-120 349.5,-154 494.5,-154 494.5,-120 349.5,-120"/>
<text text-anchor="start" x="357.5" y="-141" font-family="Helvetica,sans-Serif" font-size="10.00">okw.OKW_Const_Sngltn.Get</text>
<text text-anchor="middle" x="422" y="-128" font-family="Helvetica,sans-Serif" font-size="10.00">OKWConst4Internalname</text>
</a>
</g>
<!-- Node62&#45;&gt;Node70 -->
<g id="edge46" class="edge"><title>Node62&#45;&gt;Node70</title>
<path fill="none" stroke="midnightblue" d="M300.666,-143.488C313.122,-142.822 326.303,-142.117 339.209,-141.427"/>
<polygon fill="midnightblue" stroke="midnightblue" points="339.682,-144.907 349.48,-140.878 339.308,-137.917 339.682,-144.907"/>
</g>
<!-- Node62&#45;&gt;Node73 -->
<g id="edge54" class="edge"><title>Node62&#45;&gt;Node73</title>
<path fill="none" stroke="midnightblue" d="M281.129,-129.975C288.566,-126.054 295.835,-121.411 302,-116 324.518,-96.2335 314.217,-77.2243 338,-59 339.636,-57.7465 341.333,-56.5529 343.08,-55.4164"/>
<polygon fill="midnightblue" stroke="midnightblue" points="345.248,-58.2076 352.181,-50.1962 341.765,-52.1355 345.248,-58.2076"/>
</g>
<!-- Node63&#45;&gt;Node56 -->
<g id="edge40" class="edge"><title>Node63&#45;&gt;Node56</title>
<path fill="none" stroke="midnightblue" d="M487.764,-198.865C504.896,-201.434 523.551,-204.233 541.356,-206.903"/>
<polygon fill="midnightblue" stroke="midnightblue" points="541.314,-210.436 551.723,-208.458 542.352,-203.514 541.314,-210.436"/>
</g>
<!-- Node64 -->
<g id="node29" class="node"><title>Node64</title>
<a xlink:href="classokw_1_1gui_1_1adapter_1_1selenium_1_1_se_driver.html#acb82765e99981ecc210e7599bbc2c639" target="_top" xlink:title="Gibt die Instance für die einzige Instanz dieser Klasse zurück. ">
<polygon fill="white" stroke="black" points="556.5,-156 556.5,-190 687.5,-190 687.5,-156 556.5,-156"/>
<text text-anchor="start" x="564.5" y="-177" font-family="Helvetica,sans-Serif" font-size="10.00">okw.gui.adapter.selenium.</text>
<text text-anchor="middle" x="622" y="-164" font-family="Helvetica,sans-Serif" font-size="10.00">SeDriver.getInstance</text>
</a>
</g>
<!-- Node63&#45;&gt;Node64 -->
<g id="edge30" class="edge"><title>Node63&#45;&gt;Node64</title>
<path fill="none" stroke="midnightblue" d="M487.764,-183.739C506.39,-182.249 526.819,-180.615 545.995,-179.08"/>
<polygon fill="midnightblue" stroke="midnightblue" points="546.507,-182.551 556.196,-178.264 545.949,-175.573 546.507,-182.551"/>
</g>
<!-- Node65 -->
<g id="node31" class="node"><title>Node65</title>
<a xlink:href="classokw_1_1gui_1_1adapter_1_1selenium_1_1_se_driver.html#ae08fe1cf4c694bb3a4dfb1f1837b26bc" target="_top" xlink:title="Ermittelt das Webelement mit der gegebenen frameID und dem gegebenen Locator. ">
<polygon fill="white" stroke="black" points="556.5,-104 556.5,-138 687.5,-138 687.5,-104 556.5,-104"/>
<text text-anchor="start" x="564.5" y="-125" font-family="Helvetica,sans-Serif" font-size="10.00">okw.gui.adapter.selenium.</text>
<text text-anchor="middle" x="622" y="-112" font-family="Helvetica,sans-Serif" font-size="10.00">SeDriver.getElement</text>
</a>
</g>
<!-- Node63&#45;&gt;Node65 -->
<g id="edge32" class="edge"><title>Node63&#45;&gt;Node65</title>
<path fill="none" stroke="midnightblue" d="M480.143,-171.985C488.866,-169.149 497.711,-166.112 506,-163 522.392,-156.845 525.652,-153.27 542,-147 547.028,-145.072 552.268,-143.159 557.553,-141.298"/>
<polygon fill="midnightblue" stroke="midnightblue" points="558.769,-144.581 567.081,-138.012 556.487,-137.964 558.769,-144.581"/>
</g>
<!-- Node65&#45;&gt;Node55 -->
<g id="edge38" class="edge"><title>Node65&#45;&gt;Node55</title>
<path fill="none" stroke="midnightblue" d="M687.556,-136.861C692.782,-139.702 697.695,-143.052 702,-147 732.236,-174.73 707.57,-204.483 738,-232 740.491,-234.253 743.174,-236.31 745.998,-238.189"/>
<polygon fill="midnightblue" stroke="midnightblue" points="744.434,-241.328 754.841,-243.309 747.941,-235.27 744.434,-241.328"/>
</g>
<!-- Node66 -->
<g id="node33" class="node"><title>Node66</title>
<a xlink:href="classokw_1_1gui_1_1adapter_1_1selenium_1_1_se_driver.html#a502a7d54c1a8b80424cd42a4e168a191" target="_top" xlink:title="Wechselt das aktuelle Frame auf das Frame mit der id=iframeID. ">
<polygon fill="white" stroke="black" points="756.5,-104 756.5,-138 887.5,-138 887.5,-104 756.5,-104"/>
<text text-anchor="start" x="764.5" y="-125" font-family="Helvetica,sans-Serif" font-size="10.00">okw.gui.adapter.selenium.</text>
<text text-anchor="middle" x="822" y="-112" font-family="Helvetica,sans-Serif" font-size="10.00">SeDriver.swichToFrame</text>
</a>
</g>
<!-- Node65&#45;&gt;Node66 -->
<g id="edge34" class="edge"><title>Node65&#45;&gt;Node66</title>
<path fill="none" stroke="midnightblue" d="M687.764,-121C706.39,-121 726.819,-121 745.995,-121"/>
<polygon fill="midnightblue" stroke="midnightblue" points="746.196,-124.5 756.196,-121 746.196,-117.5 746.196,-124.5"/>
</g>
<!-- Node67 -->
<g id="node35" class="node"><title>Node67</title>
<a xlink:href="classokw_1_1_o_k_w___helper.html#a3a7ba0f42b29adf70574830688e72e4a" target="_top" xlink:title="Prüft ob der gegeben String fpsStrin null oder leer (&quot;&quot;) ist. ">
<polygon fill="white" stroke="black" points="943.5,-104 943.5,-138 1092.5,-138 1092.5,-104 943.5,-104"/>
<text text-anchor="start" x="951.5" y="-125" font-family="Helvetica,sans-Serif" font-size="10.00">okw.OKW_Helper.isStringNull</text>
<text text-anchor="middle" x="1018" y="-112" font-family="Helvetica,sans-Serif" font-size="10.00">OrEmpty</text>
</a>
</g>
<!-- Node66&#45;&gt;Node67 -->
<g id="edge36" class="edge"><title>Node66&#45;&gt;Node67</title>
<path fill="none" stroke="midnightblue" d="M887.538,-121C902.235,-121 918.031,-121 933.381,-121"/>
<polygon fill="midnightblue" stroke="midnightblue" points="933.387,-124.5 943.387,-121 933.387,-117.5 933.387,-124.5"/>
</g>
<!-- Node69 -->
<g id="node41" class="node"><title>Node69</title>
<a xlink:href="classokw_1_1_o_k_w___const___sngltn.html#a8404c43fc549df30d37c369c7d6e89ae" target="_top" xlink:title="Privater Konstruktor ohne Parameter im Entwurfsmuster Singelton initialisiert die Klasse OKW_Const...">
<polygon fill="white" stroke="black" points="545.5,-0 545.5,-34 698.5,-34 698.5,-0 545.5,-0"/>
<text text-anchor="start" x="553.5" y="-21" font-family="Helvetica,sans-Serif" font-size="10.00">okw.OKW_Const_Sngltn.OKW</text>
<text text-anchor="middle" x="622" y="-8" font-family="Helvetica,sans-Serif" font-size="10.00">_Const_Sngltn</text>
</a>
</g>
<!-- Node68&#45;&gt;Node69 -->
<g id="edge44" class="edge"><title>Node68&#45;&gt;Node69</title>
<path fill="none" stroke="midnightblue" d="M480.143,-67.9847C488.866,-65.1492 497.711,-62.1125 506,-59 522.392,-52.8452 525.652,-49.2699 542,-43 547.028,-41.0716 552.268,-39.1592 557.553,-37.2984"/>
<polygon fill="midnightblue" stroke="midnightblue" points="558.769,-40.5814 567.081,-34.0121 556.487,-33.964 558.769,-40.5814"/>
</g>
<!-- Node71 -->
<g id="node45" class="node"><title>Node71</title>
<a xlink:href="classokw_1_1_o_k_w___const___sngltn.html#a51cde06bf07e855ba4d69ff36b9a27f7" target="_top" xlink:title="Methode ermittelt für Internalname und der aktuell eingestellten Sprache den Wert für Const...">
<polygon fill="white" stroke="black" points="549.5,-52 549.5,-86 694.5,-86 694.5,-52 549.5,-52"/>
<text text-anchor="start" x="557.5" y="-73" font-family="Helvetica,sans-Serif" font-size="10.00">okw.OKW_Const_Sngltn.Get</text>
<text text-anchor="middle" x="622" y="-60" font-family="Helvetica,sans-Serif" font-size="10.00">Const4Internalname</text>
</a>
</g>
<!-- Node70&#45;&gt;Node71 -->
<g id="edge48" class="edge"><title>Node70&#45;&gt;Node71</title>
<path fill="none" stroke="midnightblue" d="M480.143,-119.985C488.866,-117.149 497.711,-114.112 506,-111 522.392,-104.845 525.652,-101.27 542,-95 547.028,-93.0716 552.268,-91.1592 557.553,-89.2984"/>
<polygon fill="midnightblue" stroke="midnightblue" points="558.769,-92.5814 567.081,-86.0121 556.487,-85.964 558.769,-92.5814"/>
</g>
<!-- Node71&#45;&gt;Node61 -->
<g id="edge52" class="edge"><title>Node71&#45;&gt;Node61</title>
<path fill="none" stroke="midnightblue" d="M687.146,-86.0443C692.397,-88.6322 697.431,-91.5998 702,-95 724.551,-111.781 715.017,-130.817 738,-147 801.203,-191.502 835.112,-161.177 906,-192 934.959,-204.592 965.174,-223.894 986.912,-239.043"/>
<polygon fill="midnightblue" stroke="midnightblue" points="984.912,-241.915 995.098,-244.831 988.953,-236.2 984.912,-241.915"/>
</g>
<!-- Node72 -->
<g id="node47" class="node"><title>Node72</title>
<a xlink:href="classokw_1_1log_1_1_logger___sngltn.html#a313f97c79ba4662d9daaf7f537dd02f4" target="_top" xlink:title="Loggt eine Nachricht. ">
<polygon fill="white" stroke="black" points="755,-52 755,-86 889,-86 889,-52 755,-52"/>
<text text-anchor="start" x="763" y="-73" font-family="Helvetica,sans-Serif" font-size="10.00">okw.log.Logger_Sngltn.Log</text>
<text text-anchor="middle" x="822" y="-60" font-family="Helvetica,sans-Serif" font-size="10.00">PrintDebug</text>
</a>
</g>
<!-- Node71&#45;&gt;Node72 -->
<g id="edge50" class="edge"><title>Node71&#45;&gt;Node72</title>
<path fill="none" stroke="midnightblue" d="M694.77,-69C711.049,-69 728.37,-69 744.82,-69"/>
<polygon fill="midnightblue" stroke="midnightblue" points="744.934,-72.5001 754.934,-69 744.933,-65.5001 744.934,-72.5001"/>
</g>
</g>
</svg>
        <g id="navigator" transform="translate(0 0)" fill="#404254">
                <rect fill="#f2f5e9" fill-opacity="0.5" stroke="#606060" stroke-width=".5" x="0" y="0" width="60" height="60"/>
                <use id="zoomplus" xlink:href="#zoomPlus" x="17" y="9" onmousedown="handleZoom(evt,'in')"/>
                <use id="zoomminus" xlink:href="#zoomMin" x="42" y="9" onmousedown="handleZoom(evt,'out')"/>
                <use id="reset" xlink:href="#resetDef" x="30" y="36" onmousedown="handleReset()"/>
                <g id="arrowUp" xlink:href="#dirArrow" transform="translate(30 24)" onmousedown="handlePan(0,-1)">
                  <use xlink:href="#rim" fill="#404040">
                        <set attributeName="fill" to="#808080" begin="arrowUp.mouseover" end="arrowUp.mouseout"/>
                  </use>
                  <path fill="none" stroke="white" stroke-width="1.5" d="M0,-3.0v7 M-2.5,-0.5L0,-3.0L2.5,-0.5"/>
                </g>
                <g id="arrowRight" xlink:href="#dirArrow" transform="rotate(90) translate(36 -43)" onmousedown="handlePan(1,0)">
                  <use xlink:href="#rim" fill="#404040">
                        <set attributeName="fill" to="#808080" begin="arrowRight.mouseover" end="arrowRight.mouseout"/>
                  </use>
                  <path fill="none" stroke="white" stroke-width="1.5" d="M0,-3.0v7 M-2.5,-0.5L0,-3.0L2.5,-0.5"/>
                </g>
                <g id="arrowDown" xlink:href="#dirArrow" transform="rotate(180) translate(-30 -48)" onmousedown="handlePan(0,1)">
                  <use xlink:href="#rim" fill="#404040">
                        <set attributeName="fill" to="#808080" begin="arrowDown.mouseover" end="arrowDown.mouseout"/>
                  </use>
                  <path fill="none" stroke="white" stroke-width="1.5" d="M0,-3.0v7 M-2.5,-0.5L0,-3.0L2.5,-0.5"/>
                </g>
                <g id="arrowLeft" xlink:href="#dirArrow" transform="rotate(270) translate(-36 17)" onmousedown="handlePan(-1,0)">
                  <use xlink:href="#rim" fill="#404040">
                        <set attributeName="fill" to="#808080" begin="arrowLeft.mouseover" end="arrowLeft.mouseout"/>
                  </use>
                  <path fill="none" stroke="white" stroke-width="1.5" d="M0,-3.0v7 M-2.5,-0.5L0,-3.0L2.5,-0.5"/>
                </g>
        </g>
        <svg viewBox="0 0 15 15" width="100%" height="30px" preserveAspectRatio="xMaxYMin meet">
         <g id="arrow_out" transform="scale(0.3 0.3)">
          <a xlink:href="classokw_1_1gui_1_1adapter_1_1selenium_1_1_se_select_adadeaad5c5dbbe8c2f24e51a99de6012_cgraph_org.svg" target="_base">
           <rect id="button" ry="5" rx="5" y="6" x="6" height="38" width="38"
                fill="#f2f5e9" fill-opacity="0.5" stroke="#606060" stroke-width="1.0"/>
           <path id="arrow"
             d="M 11.500037,31.436501 C 11.940474,20.09759 22.043105,11.32322 32.158766,21.979434 L 37.068811,17.246167 C 37.068811,17.246167 37.088388,32 37.088388,32 L 22.160133,31.978069 C 22.160133,31.978069 26.997745,27.140456 26.997745,27.140456 C 18.528582,18.264221 13.291696,25.230495 11.500037,31.436501 z"
             style="fill:#404040;"/>
          </a>
         </g>
        </svg>
</svg>
