<?xml version="1.0" encoding="UTF-8" standalone="no"?>
<!DOCTYPE svg PUBLIC "-//W3C//DTD SVG 1.1//EN"
 "http://www.w3.org/Graphics/SVG/1.1/DTD/svg11.dtd">
<!-- Generated by graphviz version 2.26.3 (20100126.1600)
 -->
<!-- Title: okw.core.EN.MemorizeLabel Pages: 1 -->
<!--zoomable 632 -->
<svg id="main" version="1.1" xmlns="http://www.w3.org/2000/svg" xmlns:xlink="http://www.w3.org/1999/xlink" xml:space="preserve" onload="init(evt)">
<style type="text/css"><![CDATA[
.edge:hover path { stroke: red; }
.edge:hover polygon { stroke: red; fill: red; }
]]></style>
<script type="text/javascript"><![CDATA[
var edges = document.getElementsByTagName('g');
if (edges && edges.length) {
  for (var i=0;i<edges.length;i++) {
    if (edges[i].id.substr(0,4)=='edge') {
      edges[i].setAttribute('class','edge');
    }
  }
}
]]></script>
        <defs>
                <circle id="rim" cx="0" cy="0" r="7"/>
                <circle id="rim2" cx="0" cy="0" r="3.5"/>
                <g id="zoomPlus">
                        <use xlink:href="#rim" fill="#404040">
                                <set attributeName="fill" to="#808080" begin="zoomplus.mouseover" end="zoomplus.mouseout"/>
                        </use>
                        <path d="M-4,0h8M0,-4v8" fill="none" stroke="white" stroke-width="1.5" pointer-events="none"/>
                </g>
                <g id="zoomMin">
                        <use xlink:href="#rim" fill="#404040">
                                <set attributeName="fill" to="#808080" begin="zoomminus.mouseover" end="zoomminus.mouseout"/>
                        </use>
                        <path d="M-4,0h8" fill="none" stroke="white" stroke-width="1.5" pointer-events="none"/>
                </g>
                <g id="dirArrow">
                        <path fill="none" stroke="white" stroke-width="1.5" d="M0,-3.0v7 M-2.5,-0.5L0,-3.0L2.5,-0.5"/>
                </g>
               <g id="resetDef">
                       <use xlink:href="#rim2" fill="#404040">
                               <set attributeName="fill" to="#808080" begin="reset.mouseover" end="reset.mouseout"/>
                       </use>
               </g>
        </defs>

<script type="text/javascript">
var viewWidth = 372;
var viewHeight = 632;
var sectionId = 'dynsection-32';
</script>
<script xlink:href="svgpan.js"/>
<svg id="graph" class="graph">
<g id="viewport">
<title>okw.core.EN.MemorizeLabel</title>
<polygon fill="white" stroke="white" points="-4,5 -4,-628 369,-628 369,5 -4,5"/>
<!-- Node887 -->
<g id="node1" class="node"><title>Node887</title>
<polygon fill="#bfbfbf" stroke="black" points="0.5,-301.5 0.5,-322.5 143.5,-322.5 143.5,-301.5 0.5,-301.5"/>
<text text-anchor="middle" x="72" y="-309.5" font-family="Helvetica,sans-Serif" font-size="10.00">okw.core.EN.MemorizeLabel</text>
</g>
<!-- Node888 -->
<g id="node3" class="node"><title>Node888</title>
<a xlink:href="classokw_1_1core_1_1_e_n___o_k_w_not_allowed_value_exception___keywords___i_g_n_o_r_e.html#a2a8cb99a9d1cc182f3bc3ccf5b52848f" target="_top" xlink:title="Prüft ob &quot;${IGNORE} &quot; die Ausnahme okw.exceptions.OKWNotAllowedValueException auslöst. ">
<polygon fill="white" stroke="black" points="180,-576.5 180,-623.5 364,-623.5 364,-576.5 180,-576.5"/>
<text text-anchor="start" x="188" y="-610.5" font-family="Helvetica,sans-Serif" font-size="10.00">okw.core.EN_OKWNotAllowed</text>
<text text-anchor="start" x="188" y="-597.5" font-family="Helvetica,sans-Serif" font-size="10.00">ValueException_Keywords</text>
<text text-anchor="middle" x="272" y="-584.5" font-family="Helvetica,sans-Serif" font-size="10.00">_IGNORE.tcMemorizeLabelIGNORE1</text>
</a>
</g>
<!-- Node887&#45;&gt;Node888 -->
<g id="edge2" class="edge"><title>Node887&#45;&gt;Node888</title>
<path fill="none" stroke="midnightblue" d="M75.0454,-332.804C83.1518,-380.851 109.649,-500.497 180,-567 183.699,-570.497 187.795,-573.628 192.144,-576.43"/>
<polygon fill="midnightblue" stroke="midnightblue" points="78.4646,-332.019 73.4372,-322.693 71.5515,-333.119 78.4646,-332.019"/>
</g>
<!-- Node889 -->
<g id="node5" class="node"><title>Node889</title>
<a xlink:href="classokw_1_1core_1_1_e_n___o_k_w_not_allowed_value_exception___keywords___i_g_n_o_r_e.html#a15ebf4abb1c918d82e9def2e5eae825f" target="_top" xlink:title="Prüft ob &quot;&quot;${IGNORE}${TCN}&quot; die Ausnahme okw.exceptions.OKWNotAllowedValueException auslöst...">
<polygon fill="white" stroke="black" points="180,-510.5 180,-557.5 364,-557.5 364,-510.5 180,-510.5"/>
<text text-anchor="start" x="188" y="-544.5" font-family="Helvetica,sans-Serif" font-size="10.00">okw.core.EN_OKWNotAllowed</text>
<text text-anchor="start" x="188" y="-531.5" font-family="Helvetica,sans-Serif" font-size="10.00">ValueException_Keywords</text>
<text text-anchor="middle" x="272" y="-518.5" font-family="Helvetica,sans-Serif" font-size="10.00">_IGNORE.tcMemorizeLabelIGNORE2</text>
</a>
</g>
<!-- Node887&#45;&gt;Node889 -->
<g id="edge4" class="edge"><title>Node887&#45;&gt;Node889</title>
<path fill="none" stroke="midnightblue" d="M78.277,-332.267C91.1581,-370.62 124.16,-454.154 180,-501 184.16,-504.49 188.717,-507.623 193.508,-510.434"/>
<polygon fill="midnightblue" stroke="midnightblue" points="81.5929,-331.146 75.1752,-322.716 74.9352,-333.308 81.5929,-331.146"/>
</g>
<!-- Node890 -->
<g id="node7" class="node"><title>Node890</title>
<a xlink:href="classokw_1_1_se_button_1_1_se_button___test.html#a08c22b878d6b52ce0b31fda499009041" target="_top" xlink:title="Test des Schlüsselwortes MemorizeCaption für den GUI&#45;Adapter SeButton. ">
<polygon fill="white" stroke="black" points="211,-458 211,-492 333,-492 333,-458 211,-458"/>
<text text-anchor="start" x="219" y="-479" font-family="Helvetica,sans-Serif" font-size="10.00">okw.SeButton.SeButton</text>
<text text-anchor="middle" x="272" y="-466" font-family="Helvetica,sans-Serif" font-size="10.00">_Test.tcMemorizeLabel</text>
</a>
</g>
<!-- Node887&#45;&gt;Node890 -->
<g id="edge6" class="edge"><title>Node887&#45;&gt;Node890</title>
<path fill="none" stroke="midnightblue" d="M82.2646,-331.855C98.7733,-361.807 134.08,-418.299 180,-449 189.245,-455.181 199.952,-459.907 210.723,-463.517"/>
<polygon fill="midnightblue" stroke="midnightblue" points="85.2121,-329.946 77.3984,-322.791 79.0446,-333.257 85.2121,-329.946"/>
</g>
<!-- Node891 -->
<g id="node9" class="node"><title>Node891</title>
<a xlink:href="classokw_1_1_se_input_checkbox_1_1_se_input_checkbox___test.html#a702ffb63f0af2c995bd71ca884b0f408" target="_top" xlink:title="Prüft die SetFocusFunktion bei Textfelder mit dem Attribute &quot;ReadOnly&quot;. ">
<polygon fill="white" stroke="black" points="196,-406 196,-440 348,-440 348,-406 196,-406"/>
<text text-anchor="start" x="204" y="-427" font-family="Helvetica,sans-Serif" font-size="10.00">okw.SeInputCheckbox.SeInput</text>
<text text-anchor="middle" x="272" y="-414" font-family="Helvetica,sans-Serif" font-size="10.00">Checkbox_Test.tcSetFocus</text>
</a>
</g>
<!-- Node887&#45;&gt;Node891 -->
<g id="edge8" class="edge"><title>Node887&#45;&gt;Node891</title>
<path fill="none" stroke="midnightblue" d="M89.908,-329.782C110.158,-348.954 144.9,-379.122 180,-397 186.507,-400.315 193.496,-403.258 200.607,-405.86"/>
<polygon fill="midnightblue" stroke="midnightblue" points="92.273,-327.2 82.6431,-322.783 87.4163,-332.241 92.273,-327.2"/>
</g>
<!-- Node892 -->
<g id="node11" class="node"><title>Node892</title>
<a xlink:href="classokw_1_1_se_input_field_1_1_se_input_field___test.html#a1ce56336d132b8466dd7f6a54bf3d160" target="_top" xlink:title="Teste das Schlüsselwort MemorizeLabel( FN, MemKey ) eines SeInputText Prüfen. ">
<polygon fill="white" stroke="black" points="202,-354 202,-388 342,-388 342,-354 202,-354"/>
<text text-anchor="start" x="210" y="-375" font-family="Helvetica,sans-Serif" font-size="10.00">okw.SeInputField.SeInput</text>
<text text-anchor="middle" x="272" y="-362" font-family="Helvetica,sans-Serif" font-size="10.00">Field_Test.tcMemorizeLabel</text>
</a>
</g>
<!-- Node887&#45;&gt;Node892 -->
<g id="edge10" class="edge"><title>Node887&#45;&gt;Node892</title>
<path fill="none" stroke="midnightblue" d="M115.593,-325.549C135.244,-331.598 158.76,-338.754 180,-345 190.032,-347.95 200.698,-351.022 211.078,-353.979"/>
<polygon fill="midnightblue" stroke="midnightblue" points="116.581,-322.191 105.994,-322.588 114.518,-328.88 116.581,-322.191"/>
</g>
<!-- Node893 -->
<g id="node13" class="node"><title>Node893</title>
<a xlink:href="classokw_1_1_se_input_field_1_1_se_input_field___test.html#aa7612889d0a642c440c6a085e205ac8f" target="_top" xlink:title="okw.SeInputField.SeInput\lField_Test.tcSelect_OKWGUIObject\lNotFoundException">
<polygon fill="white" stroke="black" points="183.5,-288.5 183.5,-335.5 360.5,-335.5 360.5,-288.5 183.5,-288.5"/>
<text text-anchor="start" x="191.5" y="-322.5" font-family="Helvetica,sans-Serif" font-size="10.00">okw.SeInputField.SeInput</text>
<text text-anchor="start" x="191.5" y="-309.5" font-family="Helvetica,sans-Serif" font-size="10.00">Field_Test.tcSelect_OKWGUIObject</text>
<text text-anchor="middle" x="272" y="-296.5" font-family="Helvetica,sans-Serif" font-size="10.00">NotFoundException</text>
</a>
</g>
<!-- Node887&#45;&gt;Node893 -->
<g id="edge12" class="edge"><title>Node887&#45;&gt;Node893</title>
<path fill="none" stroke="midnightblue" d="M153.729,-312C163.511,-312 173.534,-312 183.407,-312"/>
<polygon fill="midnightblue" stroke="midnightblue" points="153.64,-308.5 143.64,-312 153.64,-315.5 153.64,-308.5"/>
</g>
<!-- Node894 -->
<g id="node15" class="node"><title>Node894</title>
<a xlink:href="classokw_1_1_se_input_radio_1_1_se_input_radio___e_n___test.html#a39fbafcc74d53e91efb523e129b67aa2" target="_top" xlink:title="Test des Schlüsselwortes MemorizeLabel für den GUI&#45;Adapter SeInputRadio. ">
<polygon fill="white" stroke="black" points="187.5,-236 187.5,-270 356.5,-270 356.5,-236 187.5,-236"/>
<text text-anchor="start" x="195.5" y="-257" font-family="Helvetica,sans-Serif" font-size="10.00">okw.SeInputRadio.SeInput</text>
<text text-anchor="middle" x="272" y="-244" font-family="Helvetica,sans-Serif" font-size="10.00">Radio_EN_Test.tc_MemorizeLabel</text>
</a>
</g>
<!-- Node887&#45;&gt;Node894 -->
<g id="edge14" class="edge"><title>Node887&#45;&gt;Node894</title>
<path fill="none" stroke="midnightblue" d="M115.593,-298.451C135.244,-292.402 158.76,-285.246 180,-279 190.032,-276.05 200.698,-272.978 211.078,-270.021"/>
<polygon fill="midnightblue" stroke="midnightblue" points="114.518,-295.12 105.994,-301.412 116.581,-301.809 114.518,-295.12"/>
</g>
<!-- Node895 -->
<g id="node17" class="node"><title>Node895</title>
<a xlink:href="classokw_1_1_se_link_1_1_se_link___e_n___test.html#ade5477cb18a1aaf96deb62f11f8a69c0" target="_top" xlink:title="Tooltip eines Textfeldes Prüfen. ">
<polygon fill="white" stroke="black" points="208.5,-184 208.5,-218 335.5,-218 335.5,-184 208.5,-184"/>
<text text-anchor="start" x="216.5" y="-205" font-family="Helvetica,sans-Serif" font-size="10.00">okw.SeLink.SeLink_EN</text>
<text text-anchor="middle" x="272" y="-192" font-family="Helvetica,sans-Serif" font-size="10.00">_Test.TC_LogToolTip_en</text>
</a>
</g>
<!-- Node887&#45;&gt;Node895 -->
<g id="edge16" class="edge"><title>Node887&#45;&gt;Node895</title>
<path fill="none" stroke="midnightblue" d="M89.908,-294.218C110.158,-275.046 144.9,-244.878 180,-227 188.874,-222.48 198.642,-218.651 208.397,-215.436"/>
<polygon fill="midnightblue" stroke="midnightblue" points="87.4163,-291.759 82.6431,-301.217 92.273,-296.8 87.4163,-291.759"/>
</g>
<!-- Node896 -->
<g id="node19" class="node"><title>Node896</title>
<a xlink:href="classokw_1_1_se_radio_list_1_1_se_radio_list___test.html#aab4f19ba4cc95daf81fea0cd40b9622d" target="_top" xlink:title="Prüft die Methode SeRadioList.MemorizeValue. ">
<polygon fill="white" stroke="black" points="198.5,-132 198.5,-166 345.5,-166 345.5,-132 198.5,-132"/>
<text text-anchor="start" x="206.5" y="-153" font-family="Helvetica,sans-Serif" font-size="10.00">okw.SeRadioList.SeRadioList</text>
<text text-anchor="middle" x="272" y="-140" font-family="Helvetica,sans-Serif" font-size="10.00">_Test.tcMemorizeLabel</text>
</a>
</g>
<!-- Node887&#45;&gt;Node896 -->
<g id="edge18" class="edge"><title>Node887&#45;&gt;Node896</title>
<path fill="none" stroke="midnightblue" d="M82.2646,-292.145C98.7733,-262.193 134.08,-205.701 180,-175 185.657,-171.218 191.862,-167.98 198.294,-165.21"/>
<polygon fill="midnightblue" stroke="midnightblue" points="79.0446,-290.743 77.3984,-301.209 85.2121,-294.054 79.0446,-290.743"/>
</g>
<!-- Node897 -->
<g id="node21" class="node"><title>Node897</title>
<a xlink:href="classokw_1_1_se_radio_list_1_1_se_radio_list___test.html#a3c0308b4fab8c43411d02cf4ce6c3084" target="_top" xlink:title="Prüft die Methode SeRadioList.MemorizeLabel. ">
<polygon fill="white" stroke="black" points="190,-66.5 190,-113.5 354,-113.5 354,-66.5 190,-66.5"/>
<text text-anchor="start" x="198" y="-100.5" font-family="Helvetica,sans-Serif" font-size="10.00">okw.SeRadioList.SeRadioList</text>
<text text-anchor="start" x="198" y="-87.5" font-family="Helvetica,sans-Serif" font-size="10.00">_Test.tcMemorizeLabel_IGNORE</text>
<text text-anchor="middle" x="272" y="-74.5" font-family="Helvetica,sans-Serif" font-size="10.00">_OKWNotAllowedValueException</text>
</a>
</g>
<!-- Node887&#45;&gt;Node897 -->
<g id="edge20" class="edge"><title>Node887&#45;&gt;Node897</title>
<path fill="none" stroke="midnightblue" d="M78.277,-291.733C91.1581,-253.38 124.16,-169.846 180,-123 184.16,-119.51 188.717,-116.377 193.508,-113.566"/>
<polygon fill="midnightblue" stroke="midnightblue" points="74.9352,-290.692 75.1752,-301.284 81.5929,-292.854 74.9352,-290.692"/>
</g>
<!-- Node898 -->
<g id="node23" class="node"><title>Node898</title>
<a xlink:href="classokw_1_1_se_radio_list_1_1_se_radio_list___test.html#a570eb3cf73952fbe534422dd7abc1449" target="_top" xlink:title="Prüft die Methode SeRadioList.MemorizeLabel. ">
<polygon fill="white" stroke="black" points="190,-0.5 190,-47.5 354,-47.5 354,-0.5 190,-0.5"/>
<text text-anchor="start" x="198" y="-34.5" font-family="Helvetica,sans-Serif" font-size="10.00">okw.SeRadioList.SeRadioList</text>
<text text-anchor="start" x="198" y="-21.5" font-family="Helvetica,sans-Serif" font-size="10.00">_Test.tcMemorizeLabel_Empty</text>
<text text-anchor="middle" x="272" y="-8.5" font-family="Helvetica,sans-Serif" font-size="10.00">_OKWNotAllowedValueException</text>
</a>
</g>
<!-- Node887&#45;&gt;Node898 -->
<g id="edge22" class="edge"><title>Node887&#45;&gt;Node898</title>
<path fill="none" stroke="midnightblue" d="M75.0454,-291.196C83.1518,-243.149 109.649,-123.503 180,-57 183.699,-53.503 187.795,-50.3724 192.144,-47.5704"/>
<polygon fill="midnightblue" stroke="midnightblue" points="71.5515,-290.881 73.4372,-301.307 78.4646,-291.981 71.5515,-290.881"/>
</g>
</g>
</svg>
        <g id="navigator" transform="translate(0 0)" fill="#404254">
                <rect fill="#f2f5e9" fill-opacity="0.5" stroke="#606060" stroke-width=".5" x="0" y="0" width="60" height="60"/>
                <use id="zoomplus" xlink:href="#zoomPlus" x="17" y="9" onmousedown="handleZoom(evt,'in')"/>
                <use id="zoomminus" xlink:href="#zoomMin" x="42" y="9" onmousedown="handleZoom(evt,'out')"/>
                <use id="reset" xlink:href="#resetDef" x="30" y="36" onmousedown="handleReset()"/>
                <g id="arrowUp" xlink:href="#dirArrow" transform="translate(30 24)" onmousedown="handlePan(0,-1)">
                  <use xlink:href="#rim" fill="#404040">
                        <set attributeName="fill" to="#808080" begin="arrowUp.mouseover" end="arrowUp.mouseout"/>
                  </use>
                  <path fill="none" stroke="white" stroke-width="1.5" d="M0,-3.0v7 M-2.5,-0.5L0,-3.0L2.5,-0.5"/>
                </g>
                <g id="arrowRight" xlink:href="#dirArrow" transform="rotate(90) translate(36 -43)" onmousedown="handlePan(1,0)">
                  <use xlink:href="#rim" fill="#404040">
                        <set attributeName="fill" to="#808080" begin="arrowRight.mouseover" end="arrowRight.mouseout"/>
                  </use>
                  <path fill="none" stroke="white" stroke-width="1.5" d="M0,-3.0v7 M-2.5,-0.5L0,-3.0L2.5,-0.5"/>
                </g>
                <g id="arrowDown" xlink:href="#dirArrow" transform="rotate(180) translate(-30 -48)" onmousedown="handlePan(0,1)">
                  <use xlink:href="#rim" fill="#404040">
                        <set attributeName="fill" to="#808080" begin="arrowDown.mouseover" end="arrowDown.mouseout"/>
                  </use>
                  <path fill="none" stroke="white" stroke-width="1.5" d="M0,-3.0v7 M-2.5,-0.5L0,-3.0L2.5,-0.5"/>
                </g>
                <g id="arrowLeft" xlink:href="#dirArrow" transform="rotate(270) translate(-36 17)" onmousedown="handlePan(-1,0)">
                  <use xlink:href="#rim" fill="#404040">
                        <set attributeName="fill" to="#808080" begin="arrowLeft.mouseover" end="arrowLeft.mouseout"/>
                  </use>
                  <path fill="none" stroke="white" stroke-width="1.5" d="M0,-3.0v7 M-2.5,-0.5L0,-3.0L2.5,-0.5"/>
                </g>
        </g>
        <svg viewBox="0 0 15 15" width="100%" height="30px" preserveAspectRatio="xMaxYMin meet">
         <g id="arrow_out" transform="scale(0.3 0.3)">
          <a xlink:href="classokw_1_1core_1_1_e_n_aecb0b17c6683319633eec36e2646f3f5_icgraph_org.svg" target="_base">
           <rect id="button" ry="5" rx="5" y="6" x="6" height="38" width="38"
                fill="#f2f5e9" fill-opacity="0.5" stroke="#606060" stroke-width="1.0"/>
           <path id="arrow"
             d="M 11.500037,31.436501 C 11.940474,20.09759 22.043105,11.32322 32.158766,21.979434 L 37.068811,17.246167 C 37.068811,17.246167 37.088388,32 37.088388,32 L 22.160133,31.978069 C 22.160133,31.978069 26.997745,27.140456 26.997745,27.140456 C 18.528582,18.264221 13.291696,25.230495 11.500037,31.436501 z"
             style="fill:#404040;"/>
          </a>
         </g>
        </svg>
</svg>
