<?xml version="1.0" encoding="UTF-8" standalone="no"?>
<!DOCTYPE svg PUBLIC "-//W3C//DTD SVG 1.1//EN"
 "http://www.w3.org/Graphics/SVG/1.1/DTD/svg11.dtd">
<!-- Generated by graphviz version 2.38.0 (20140413.2041)
 -->
<!-- Title: okw.core.EN.SelectTablecell Pages: 1 -->
<svg width="964pt" height="166pt"
 viewBox="0.00 0.00 964.00 165.50" xmlns="http://www.w3.org/2000/svg" xmlns:xlink="http://www.w3.org/1999/xlink">
<g id="graph0" class="graph" transform="scale(1 1) rotate(0) translate(4 161.5)">
<title>okw.core.EN.SelectTablecell</title>
<polygon fill="white" stroke="none" points="-4,4 -4,-161.5 960,-161.5 960,4 -4,4"/>
<!-- Node1346 -->
<g id="node1" class="node"><title>Node1346</title>
<g id="a_node1"><a xlink:title="Wählt die gegebene Tabellenzelle aus.">
<polygon fill="#bfbfbf" stroke="black" points="0,-93 0,-112 147,-112 147,-93 0,-93"/>
<text text-anchor="middle" x="73.5" y="-100" font-family="Helvetica,sans-Serif" font-size="10.00">okw.core.EN.SelectTablecell</text>
</a>
</g>
</g>
<!-- Node1347 -->
<g id="node2" class="node"><title>Node1347</title>
<g id="a_node2"><a xlink:href="classokw_1_1core_1_1_core.html#ab4e0f723d27cb11c944ec4c82c426100" target="_top" xlink:title="Setzt die Sprache auf den gegebenen wert Language.">
<polygon fill="white" stroke="black" points="186.5,-125 186.5,-144 335.5,-144 335.5,-125 186.5,-125"/>
<text text-anchor="middle" x="261" y="-132" font-family="Helvetica,sans-Serif" font-size="10.00">okw.core.Core.setLanguage</text>
</a>
</g>
</g>
<!-- Node1346&#45;&gt;Node1347 -->
<g id="edge1" class="edge"><title>Node1346&#45;&gt;Node1347</title>
<path fill="none" stroke="midnightblue" d="M129.654,-112.014C150.121,-115.545 173.529,-119.583 194.809,-123.254"/>
<polygon fill="midnightblue" stroke="midnightblue" points="194.289,-126.716 204.738,-124.967 195.479,-119.818 194.289,-126.716"/>
</g>
<!-- Node1349 -->
<g id="node4" class="node"><title>Node1349</title>
<g id="a_node4"><a xlink:href="classokw_1_1core_1_1_core.html#a02e398b0aa11815b25b1471e4ce2795e" target="_top" xlink:title="Wählt die gegebene Tabellenzelle aus.">
<polygon fill="white" stroke="black" points="183,-62 183,-81 339,-81 339,-62 183,-62"/>
<text text-anchor="middle" x="261" y="-69" font-family="Helvetica,sans-Serif" font-size="10.00">okw.core.Core.SelectTablecell</text>
</a>
</g>
</g>
<!-- Node1346&#45;&gt;Node1349 -->
<g id="edge3" class="edge"><title>Node1346&#45;&gt;Node1349</title>
<path fill="none" stroke="midnightblue" d="M131.417,-92.9883C150.823,-89.7452 172.702,-86.0889 192.836,-82.7242"/>
<polygon fill="midnightblue" stroke="midnightblue" points="193.585,-86.1476 202.871,-81.0471 192.431,-79.2434 193.585,-86.1476"/>
</g>
<!-- Node1348 -->
<g id="node3" class="node"><title>Node1348</title>
<g id="a_node3"><a xlink:href="interfaceokw_1_1core_1_1_i_o_k_w___state.html#a866baa0bde08a47418f54d63bdb56097" target="_top" xlink:title="Interne Methode zum setzen der Sprache für die sprachabhängigen Ausgaben der Dokumentation (Log).">
<polygon fill="white" stroke="black" points="375,-138 375,-157 557,-157 557,-138 375,-138"/>
<text text-anchor="middle" x="466" y="-145" font-family="Helvetica,sans-Serif" font-size="10.00">okw.core.IOKW_State.setLanguage</text>
</a>
</g>
</g>
<!-- Node1347&#45;&gt;Node1348 -->
<g id="edge2" class="edge"><title>Node1347&#45;&gt;Node1348</title>
<path fill="none" stroke="midnightblue" d="M335.575,-139.212C345.007,-139.816 354.787,-140.442 364.555,-141.068"/>
<polygon fill="midnightblue" stroke="midnightblue" points="364.511,-144.572 374.714,-141.718 364.959,-137.586 364.511,-144.572"/>
</g>
<!-- Node1350 -->
<g id="node5" class="node"><title>Node1350</title>
<g id="a_node5"><a xlink:href="classokw_1_1log_1_1_logger___sngltn.html#a70ec25e200e00ecefc544e8fd371d2ef" target="_top" xlink:title="Ausgabe eines Schlüsselwortes.">
<polygon fill="white" stroke="black" points="394.5,-88.5 394.5,-118.5 537.5,-118.5 537.5,-88.5 394.5,-88.5"/>
<text text-anchor="start" x="402.5" y="-106.5" font-family="Helvetica,sans-Serif" font-size="10.00">okw.log.Logger_Sngltn.Log</text>
<text text-anchor="middle" x="466" y="-95.5" font-family="Helvetica,sans-Serif" font-size="10.00">KeyWordStart</text>
</a>
</g>
</g>
<!-- Node1349&#45;&gt;Node1350 -->
<g id="edge4" class="edge"><title>Node1349&#45;&gt;Node1350</title>
<path fill="none" stroke="midnightblue" d="M322.357,-81.0144C341.742,-84.0701 363.536,-87.5057 384.145,-90.7543"/>
<polygon fill="midnightblue" stroke="midnightblue" points="383.728,-94.2317 394.151,-92.3316 384.818,-87.3171 383.728,-94.2317"/>
</g>
<!-- Node1351 -->
<g id="node6" class="node"><title>Node1351</title>
<g id="a_node6"><a xlink:href="classokw_1_1_log_messenger.html#af225d1f037d47b3b085175c09d78bdd2" target="_top" xlink:title="Holt die Log&#45;Meldung für MethodeNmae/Textkey ohne weitere Parameter.">
<polygon fill="white" stroke="black" points="381.5,-50 381.5,-69 550.5,-69 550.5,-50 381.5,-50"/>
<text text-anchor="middle" x="466" y="-57" font-family="Helvetica,sans-Serif" font-size="10.00">okw.LogMessenger.GetMessage</text>
</a>
</g>
</g>
<!-- Node1349&#45;&gt;Node1351 -->
<g id="edge5" class="edge"><title>Node1349&#45;&gt;Node1351</title>
<path fill="none" stroke="midnightblue" d="M339.035,-66.9462C349.49,-66.3282 360.313,-65.6884 371.023,-65.0553"/>
<polygon fill="midnightblue" stroke="midnightblue" points="371.466,-68.5353 381.242,-64.4512 371.053,-61.5475 371.466,-68.5353"/>
</g>
<!-- Node1354 -->
<g id="node9" class="node"><title>Node1354</title>
<g id="a_node9"><a xlink:href="interfaceokw_1_1core_1_1_i_o_k_w___state.html#ad4767e2f8655cd52ae27dac1351d9c18" target="_top" xlink:title="Wählt die gegebene Tabellenzelle aus.">
<polygon fill="white" stroke="black" points="391.5,-0.5 391.5,-30.5 540.5,-30.5 540.5,-0.5 391.5,-0.5"/>
<text text-anchor="start" x="399.5" y="-18.5" font-family="Helvetica,sans-Serif" font-size="10.00">okw.core.IOKW_State.Select</text>
<text text-anchor="middle" x="466" y="-7.5" font-family="Helvetica,sans-Serif" font-size="10.00">Tablecell</text>
</a>
</g>
</g>
<!-- Node1349&#45;&gt;Node1354 -->
<g id="edge8" class="edge"><title>Node1349&#45;&gt;Node1354</title>
<path fill="none" stroke="midnightblue" d="M296.897,-61.8733C325.27,-54.0461 366.076,-42.7894 400.378,-33.3268"/>
<polygon fill="midnightblue" stroke="midnightblue" points="401.618,-36.6154 410.327,-30.5821 399.757,-29.8675 401.618,-36.6154"/>
</g>
<!-- Node1352 -->
<g id="node7" class="node"><title>Node1352</title>
<g id="a_node7"><a xlink:href="classokw_1_1_log_messenger.html#a530cd6ab82ec82a04206a2e976ec06e3" target="_top" xlink:title="Interne Kernfunktion holt die Log&#45;Meldung mit Platzhaltern aus der XML&#45;Datei.">
<polygon fill="white" stroke="black" points="593,-50 593,-69 768,-69 768,-50 593,-50"/>
<text text-anchor="middle" x="680.5" y="-57" font-family="Helvetica,sans-Serif" font-size="10.00">okw.LogMessenger.ReadMessage</text>
</a>
</g>
</g>
<!-- Node1351&#45;&gt;Node1352 -->
<g id="edge6" class="edge"><title>Node1351&#45;&gt;Node1352</title>
<path fill="none" stroke="midnightblue" d="M550.681,-59.5C561.154,-59.5 571.935,-59.5 582.589,-59.5"/>
<polygon fill="midnightblue" stroke="midnightblue" points="582.751,-63.0001 592.751,-59.5 582.751,-56.0001 582.751,-63.0001"/>
</g>
<!-- Node1353 -->
<g id="node8" class="node"><title>Node1353</title>
<g id="a_node8"><a xlink:href="classokw_1_1_o_k_w___xml_reader.html#ab920b5335a2e1429c14cc5f8e79f39eb" target="_top" xlink:title="Lies den TextContent eines Tag.">
<polygon fill="white" stroke="black" points="804,-44.5 804,-74.5 956,-74.5 956,-44.5 804,-44.5"/>
<text text-anchor="start" x="812" y="-62.5" font-family="Helvetica,sans-Serif" font-size="10.00">okw.OKW_XmlReader.getText</text>
<text text-anchor="middle" x="880" y="-51.5" font-family="Helvetica,sans-Serif" font-size="10.00">ContentSingleValue</text>
</a>
</g>
</g>
<!-- Node1352&#45;&gt;Node1353 -->
<g id="edge7" class="edge"><title>Node1352&#45;&gt;Node1353</title>
<path fill="none" stroke="midnightblue" d="M768.126,-59.5C776.6,-59.5 785.195,-59.5 793.656,-59.5"/>
<polygon fill="midnightblue" stroke="midnightblue" points="793.893,-63.0001 803.893,-59.5 793.892,-56.0001 793.893,-63.0001"/>
</g>
</g>
</svg>
