<?xml version="1.0" encoding="UTF-8" standalone="no"?>
<!DOCTYPE svg PUBLIC "-//W3C//DTD SVG 1.1//EN"
 "http://www.w3.org/Graphics/SVG/1.1/DTD/svg11.dtd">
<!-- Generated by graphviz version 2.38.0 (20140413.2041)
 -->
<!-- Title: okw.core.EN.VerifyTooltipWCM Pages: 1 -->
<!--zoomable 166 -->
<svg id="main" version="1.1" xmlns="http://www.w3.org/2000/svg" xmlns:xlink="http://www.w3.org/1999/xlink" xml:space="preserve" onload="init(evt)">
<style type="text/css"><![CDATA[
.edge:hover path { stroke: red; }
.edge:hover polygon { stroke: red; fill: red; }
]]></style>
<script type="text/javascript"><![CDATA[
var edges = document.getElementsByTagName('g');
if (edges && edges.length) {
  for (var i=0;i<edges.length;i++) {
    if (edges[i].id.substr(0,4)=='edge') {
      edges[i].setAttribute('class','edge');
    }
  }
}
]]></script>
        <defs>
                <circle id="rim" cx="0" cy="0" r="7"/>
                <circle id="rim2" cx="0" cy="0" r="3.5"/>
                <g id="zoomPlus">
                        <use xlink:href="#rim" fill="#404040">
                                <set attributeName="fill" to="#808080" begin="zoomplus.mouseover" end="zoomplus.mouseout"/>
                        </use>
                        <path d="M-4,0h8M0,-4v8" fill="none" stroke="white" stroke-width="1.5" pointer-events="none"/>
                </g>
                <g id="zoomMin">
                        <use xlink:href="#rim" fill="#404040">
                                <set attributeName="fill" to="#808080" begin="zoomminus.mouseover" end="zoomminus.mouseout"/>
                        </use>
                        <path d="M-4,0h8" fill="none" stroke="white" stroke-width="1.5" pointer-events="none"/>
                </g>
                <g id="dirArrow">
                        <path fill="none" stroke="white" stroke-width="1.5" d="M0,-3.0v7 M-2.5,-0.5L0,-3.0L2.5,-0.5"/>
                </g>
               <g id="resetDef">
                       <use xlink:href="#rim2" fill="#404040">
                               <set attributeName="fill" to="#808080" begin="reset.mouseover" end="reset.mouseout"/>
                       </use>
               </g>
        </defs>

<script type="text/javascript">
var viewWidth = 984;
var viewHeight = 166;
var sectionId = 'dynsection-108';
</script>
<script xlink:href="svgpan.js"/>
<svg id="graph" class="graph">
<g id="viewport">
<title>okw.core.EN.VerifyTooltipWCM</title>
<polygon fill="white" stroke="none" points="-4,4 -4,-161.5 980,-161.5 980,4 -4,4"/>
<!-- Node3488 -->
<g id="node1" class="node"><title>Node3488</title>
<g id="a_node1"><a xlink:title="Prüft den Tooltip&#45;Text eines Objektes (in den meisten Fällen ist dies der angezeigte Text).">
<polygon fill="#bfbfbf" stroke="black" points="0,-93 0,-112 157,-112 157,-93 0,-93"/>
<text text-anchor="middle" x="78.5" y="-100" font-family="Helvetica,sans-Serif" font-size="10.00">okw.core.EN.VerifyTooltipWCM</text>
</a>
</g>
</g>
<!-- Node3489 -->
<g id="node2" class="node"><title>Node3489</title>
<g id="a_node2"><a xlink:href="classokw_1_1core_1_1_core.html#ab4e0f723d27cb11c944ec4c82c426100" target="_top" xlink:title="Setzt die Sprache auf den gegebenen wert Language.">
<polygon fill="white" stroke="black" points="201.5,-125 201.5,-144 350.5,-144 350.5,-125 201.5,-125"/>
<text text-anchor="middle" x="276" y="-132" font-family="Helvetica,sans-Serif" font-size="10.00">okw.core.Core.setLanguage</text>
</a>
</g>
</g>
<!-- Node3488&#45;&gt;Node3489 -->
<g id="edge1" class="edge"><title>Node3488&#45;&gt;Node3489</title>
<path fill="none" stroke="midnightblue" d="M137.627,-112.014C159.296,-115.561 184.091,-119.62 206.598,-123.304"/>
<polygon fill="midnightblue" stroke="midnightblue" points="206.325,-126.806 216.759,-124.967 207.456,-119.898 206.325,-126.806"/>
</g>
<!-- Node3491 -->
<g id="node4" class="node"><title>Node3491</title>
<g id="a_node4"><a xlink:href="classokw_1_1core_1_1_core.html#a160aacb0d6817770fde1faeaf6749af3" target="_top" xlink:title="Prüft den Tooltip&#45;Text eines Objektes (in den meisten Fällen ist dies der angezeigte Text).">
<polygon fill="white" stroke="black" points="193,-62 193,-81 359,-81 359,-62 193,-62"/>
<text text-anchor="middle" x="276" y="-69" font-family="Helvetica,sans-Serif" font-size="10.00">okw.core.Core.VerifyTooltipWCM</text>
</a>
</g>
</g>
<!-- Node3488&#45;&gt;Node3491 -->
<g id="edge3" class="edge"><title>Node3488&#45;&gt;Node3491</title>
<path fill="none" stroke="midnightblue" d="M139.485,-92.9883C160.124,-89.7156 183.417,-86.0221 204.796,-82.632"/>
<polygon fill="midnightblue" stroke="midnightblue" points="205.463,-86.0701 214.792,-81.0471 204.367,-79.1565 205.463,-86.0701"/>
</g>
<!-- Node3490 -->
<g id="node3" class="node"><title>Node3490</title>
<g id="a_node3"><a xlink:href="interfaceokw_1_1core_1_1_i_o_k_w___state.html#a866baa0bde08a47418f54d63bdb56097" target="_top" xlink:title="Interne Methode zum setzen der Sprache für die sprachabhängigen Ausgaben der Dokumentation (Log).">
<polygon fill="white" stroke="black" points="395,-138 395,-157 577,-157 577,-138 395,-138"/>
<text text-anchor="middle" x="486" y="-145" font-family="Helvetica,sans-Serif" font-size="10.00">okw.core.IOKW_State.setLanguage</text>
</a>
</g>
</g>
<!-- Node3489&#45;&gt;Node3490 -->
<g id="edge2" class="edge"><title>Node3489&#45;&gt;Node3490</title>
<path fill="none" stroke="midnightblue" d="M350.626,-139.102C361.653,-139.791 373.18,-140.511 384.647,-141.228"/>
<polygon fill="midnightblue" stroke="midnightblue" points="384.497,-144.725 394.696,-141.856 384.934,-137.739 384.497,-144.725"/>
</g>
<!-- Node3492 -->
<g id="node5" class="node"><title>Node3492</title>
<g id="a_node5"><a xlink:href="classokw_1_1log_1_1_logger___sngltn.html#a70ec25e200e00ecefc544e8fd371d2ef" target="_top" xlink:title="Ausgabe eines Schlüsselwortes.">
<polygon fill="white" stroke="black" points="414.5,-88.5 414.5,-118.5 557.5,-118.5 557.5,-88.5 414.5,-88.5"/>
<text text-anchor="start" x="422.5" y="-106.5" font-family="Helvetica,sans-Serif" font-size="10.00">okw.log.Logger_Sngltn.Log</text>
<text text-anchor="middle" x="486" y="-95.5" font-family="Helvetica,sans-Serif" font-size="10.00">KeyWordStart</text>
</a>
</g>
</g>
<!-- Node3491&#45;&gt;Node3492 -->
<g id="edge4" class="edge"><title>Node3491&#45;&gt;Node3492</title>
<path fill="none" stroke="midnightblue" d="M338.844,-81.0144C359.405,-84.1778 382.613,-87.7482 404.381,-91.097"/>
<polygon fill="midnightblue" stroke="midnightblue" points="403.85,-94.5564 414.265,-92.6178 404.914,-87.6378 403.85,-94.5564"/>
</g>
<!-- Node3493 -->
<g id="node6" class="node"><title>Node3493</title>
<g id="a_node6"><a xlink:href="classokw_1_1_log_messenger.html#af225d1f037d47b3b085175c09d78bdd2" target="_top" xlink:title="Holt die Log&#45;Meldung für MethodeNmae/Textkey ohne weitere Parameter.">
<polygon fill="white" stroke="black" points="401.5,-50 401.5,-69 570.5,-69 570.5,-50 401.5,-50"/>
<text text-anchor="middle" x="486" y="-57" font-family="Helvetica,sans-Serif" font-size="10.00">okw.LogMessenger.GetMessage</text>
</a>
</g>
</g>
<!-- Node3491&#45;&gt;Node3493 -->
<g id="edge5" class="edge"><title>Node3491&#45;&gt;Node3493</title>
<path fill="none" stroke="midnightblue" d="M359.207,-66.7573C369.706,-66.1516 380.514,-65.528 391.179,-64.9128"/>
<polygon fill="midnightblue" stroke="midnightblue" points="391.563,-68.3965 401.344,-64.3263 391.159,-61.4082 391.563,-68.3965"/>
</g>
<!-- Node3496 -->
<g id="node9" class="node"><title>Node3496</title>
<g id="a_node9"><a xlink:href="interfaceokw_1_1core_1_1_i_o_k_w___state.html#a5eeafdd7f415970cddcec31fa642da02" target="_top" xlink:title="Prüft den Tooltip&#45;Text eines Objektes (in den meisten Fällen ist dies der angezeigte Text).">
<polygon fill="white" stroke="black" points="413,-0.5 413,-30.5 559,-30.5 559,-0.5 413,-0.5"/>
<text text-anchor="start" x="421" y="-18.5" font-family="Helvetica,sans-Serif" font-size="10.00">okw.core.IOKW_State.Verify</text>
<text text-anchor="middle" x="486" y="-7.5" font-family="Helvetica,sans-Serif" font-size="10.00">TooltipWCM</text>
</a>
</g>
</g>
<!-- Node3491&#45;&gt;Node3496 -->
<g id="edge8" class="edge"><title>Node3491&#45;&gt;Node3496</title>
<path fill="none" stroke="midnightblue" d="M312.756,-61.8733C341.953,-54.0125 383.998,-42.6928 419.238,-33.2051"/>
<polygon fill="midnightblue" stroke="midnightblue" points="420.235,-36.5615 428.981,-30.5821 418.415,-29.8022 420.235,-36.5615"/>
</g>
<!-- Node3494 -->
<g id="node7" class="node"><title>Node3494</title>
<g id="a_node7"><a xlink:href="classokw_1_1_log_messenger.html#a530cd6ab82ec82a04206a2e976ec06e3" target="_top" xlink:title="Interne Kernfunktion holt die Log&#45;Meldung mit Platzhaltern aus der XML&#45;Datei.">
<polygon fill="white" stroke="black" points="613,-50 613,-69 788,-69 788,-50 613,-50"/>
<text text-anchor="middle" x="700.5" y="-57" font-family="Helvetica,sans-Serif" font-size="10.00">okw.LogMessenger.ReadMessage</text>
</a>
</g>
</g>
<!-- Node3493&#45;&gt;Node3494 -->
<g id="edge6" class="edge"><title>Node3493&#45;&gt;Node3494</title>
<path fill="none" stroke="midnightblue" d="M570.681,-59.5C581.154,-59.5 591.935,-59.5 602.589,-59.5"/>
<polygon fill="midnightblue" stroke="midnightblue" points="602.751,-63.0001 612.751,-59.5 602.751,-56.0001 602.751,-63.0001"/>
</g>
<!-- Node3495 -->
<g id="node8" class="node"><title>Node3495</title>
<g id="a_node8"><a xlink:href="classokw_1_1_o_k_w___xml_reader.html#ab920b5335a2e1429c14cc5f8e79f39eb" target="_top" xlink:title="Lies den TextContent eines Tag.">
<polygon fill="white" stroke="black" points="824,-44.5 824,-74.5 976,-74.5 976,-44.5 824,-44.5"/>
<text text-anchor="start" x="832" y="-62.5" font-family="Helvetica,sans-Serif" font-size="10.00">okw.OKW_XmlReader.getText</text>
<text text-anchor="middle" x="900" y="-51.5" font-family="Helvetica,sans-Serif" font-size="10.00">ContentSingleValue</text>
</a>
</g>
</g>
<!-- Node3494&#45;&gt;Node3495 -->
<g id="edge7" class="edge"><title>Node3494&#45;&gt;Node3495</title>
<path fill="none" stroke="midnightblue" d="M788.126,-59.5C796.6,-59.5 805.195,-59.5 813.656,-59.5"/>
<polygon fill="midnightblue" stroke="midnightblue" points="813.893,-63.0001 823.893,-59.5 813.892,-56.0001 813.893,-63.0001"/>
</g>
</g>
</svg>
        <g id="navigator" transform="translate(0 0)" fill="#404254">
                <rect fill="#f2f5e9" fill-opacity="0.5" stroke="#606060" stroke-width=".5" x="0" y="0" width="60" height="60"/>
                <use id="zoomplus" xlink:href="#zoomPlus" x="17" y="9" onmousedown="handleZoom(evt,'in')"/>
                <use id="zoomminus" xlink:href="#zoomMin" x="42" y="9" onmousedown="handleZoom(evt,'out')"/>
                <use id="reset" xlink:href="#resetDef" x="30" y="36" onmousedown="handleReset()"/>
                <g id="arrowUp" xlink:href="#dirArrow" transform="translate(30 24)" onmousedown="handlePan(0,-1)">
                  <use xlink:href="#rim" fill="#404040">
                        <set attributeName="fill" to="#808080" begin="arrowUp.mouseover" end="arrowUp.mouseout"/>
                  </use>
                  <path fill="none" stroke="white" stroke-width="1.5" d="M0,-3.0v7 M-2.5,-0.5L0,-3.0L2.5,-0.5"/>
                </g>
                <g id="arrowRight" xlink:href="#dirArrow" transform="rotate(90) translate(36 -43)" onmousedown="handlePan(1,0)">
                  <use xlink:href="#rim" fill="#404040">
                        <set attributeName="fill" to="#808080" begin="arrowRight.mouseover" end="arrowRight.mouseout"/>
                  </use>
                  <path fill="none" stroke="white" stroke-width="1.5" d="M0,-3.0v7 M-2.5,-0.5L0,-3.0L2.5,-0.5"/>
                </g>
                <g id="arrowDown" xlink:href="#dirArrow" transform="rotate(180) translate(-30 -48)" onmousedown="handlePan(0,1)">
                  <use xlink:href="#rim" fill="#404040">
                        <set attributeName="fill" to="#808080" begin="arrowDown.mouseover" end="arrowDown.mouseout"/>
                  </use>
                  <path fill="none" stroke="white" stroke-width="1.5" d="M0,-3.0v7 M-2.5,-0.5L0,-3.0L2.5,-0.5"/>
                </g>
                <g id="arrowLeft" xlink:href="#dirArrow" transform="rotate(270) translate(-36 17)" onmousedown="handlePan(-1,0)">
                  <use xlink:href="#rim" fill="#404040">
                        <set attributeName="fill" to="#808080" begin="arrowLeft.mouseover" end="arrowLeft.mouseout"/>
                  </use>
                  <path fill="none" stroke="white" stroke-width="1.5" d="M0,-3.0v7 M-2.5,-0.5L0,-3.0L2.5,-0.5"/>
                </g>
        </g>
        <svg viewBox="0 0 15 15" width="100%" height="30px" preserveAspectRatio="xMaxYMin meet">
         <g id="arrow_out" transform="scale(0.3 0.3)">
          <a xlink:href="classokw_1_1core_1_1_e_n_aab0f2e51f9be09e36fbd27a5c8c88511_cgraph_org.svg" target="_base">
           <rect id="button" ry="5" rx="5" y="6" x="6" height="38" width="38"
                fill="#f2f5e9" fill-opacity="0.5" stroke="#606060" stroke-width="1.0"/>
           <path id="arrow"
             d="M 11.500037,31.436501 C 11.940474,20.09759 22.043105,11.32322 32.158766,21.979434 L 37.068811,17.246167 C 37.068811,17.246167 37.088388,32 37.088388,32 L 22.160133,31.978069 C 22.160133,31.978069 26.997745,27.140456 26.997745,27.140456 C 18.528582,18.264221 13.291696,25.230495 11.500037,31.436501 z"
             style="fill:#404040;"/>
          </a>
         </g>
        </svg>
</svg>
