<?xml version="1.0" encoding="UTF-8" standalone="no"?>
<!DOCTYPE svg PUBLIC "-//W3C//DTD SVG 1.1//EN"
 "http://www.w3.org/Graphics/SVG/1.1/DTD/svg11.dtd">
<!-- Generated by graphviz version 2.38.0 (20140413.2041)
 -->
<!-- Title: okw.log.Log2Console.LogFunctionStartDebug Pages: 1 -->
<svg width="998pt" height="96pt"
 viewBox="0.00 0.00 998.00 96.00" xmlns="http://www.w3.org/2000/svg" xmlns:xlink="http://www.w3.org/1999/xlink">
<g id="graph0" class="graph" transform="scale(1 1) rotate(0) translate(4 92)">
<title>okw.log.Log2Console.LogFunctionStartDebug</title>
<polygon fill="white" stroke="none" points="-4,4 -4,-92 994,-92 994,4 -4,4"/>
<!-- Node88 -->
<g id="node1" class="node"><title>Node88</title>
<g id="a_node1"><a xlink:title="LogFunctionStartDebug:">
<polygon fill="#bfbfbf" stroke="black" points="0,-33 0,-63 176,-63 176,-33 0,-33"/>
<text text-anchor="start" x="8" y="-51" font-family="Helvetica,sans-Serif" font-size="10.00">okw.log.Log2Console.LogFunction</text>
<text text-anchor="middle" x="88" y="-40" font-family="Helvetica,sans-Serif" font-size="10.00">StartDebug</text>
</a>
</g>
</g>
<!-- Node89 -->
<g id="node2" class="node"><title>Node89</title>
<g id="a_node2"><a xlink:href="classokw_1_1log_1_1_log2_console.html#a06fc14df2dcb5b2b28b65b2a5ca07e25" target="_top" xlink:title="LogFunctionStart:">
<polygon fill="white" stroke="black" points="212,-33 212,-63 388,-63 388,-33 212,-33"/>
<text text-anchor="start" x="220" y="-51" font-family="Helvetica,sans-Serif" font-size="10.00">okw.log.Log2Console.LogFunction</text>
<text text-anchor="middle" x="300" y="-40" font-family="Helvetica,sans-Serif" font-size="10.00">Start</text>
</a>
</g>
</g>
<!-- Node88&#45;&gt;Node89 -->
<g id="edge1" class="edge"><title>Node88&#45;&gt;Node89</title>
<path fill="none" stroke="midnightblue" d="M176.235,-48C184.567,-48 193.052,-48 201.474,-48"/>
<polygon fill="midnightblue" stroke="midnightblue" points="201.699,-51.5001 211.699,-48 201.699,-44.5001 201.699,-51.5001"/>
</g>
<!-- Node90 -->
<g id="node3" class="node"><title>Node90</title>
<g id="a_node3"><a xlink:href="classokw_1_1log_1_1_log2_console.html#af99ba81cf4d8e14d5fe19070f12ae5cb" target="_top" xlink:title="LogFunctionStartDebug: Opens a debug outline level with the .">
<polygon fill="white" stroke="black" points="424.5,-38.5 424.5,-57.5 601.5,-57.5 601.5,-38.5 424.5,-38.5"/>
<text text-anchor="middle" x="513" y="-45.5" font-family="Helvetica,sans-Serif" font-size="10.00">okw.log.Log2Console.ResOpenList</text>
</a>
</g>
</g>
<!-- Node89&#45;&gt;Node90 -->
<g id="edge2" class="edge"><title>Node89&#45;&gt;Node90</title>
<path fill="none" stroke="midnightblue" d="M388.04,-48C396.689,-48 405.508,-48 414.257,-48"/>
<polygon fill="midnightblue" stroke="midnightblue" points="414.479,-51.5001 424.479,-48 414.479,-44.5001 414.479,-51.5001"/>
</g>
<!-- Node91 -->
<g id="node4" class="node"><title>Node91</title>
<g id="a_node4"><a xlink:href="classokw_1_1log_1_1_log2_console.html#a76c2788140c26471575dfa92c118d1dc" target="_top" xlink:title="LogPrint: Prints the given message to the results.">
<polygon fill="white" stroke="black" points="638,-68.5 638,-87.5 796,-87.5 796,-68.5 638,-68.5"/>
<text text-anchor="middle" x="717" y="-75.5" font-family="Helvetica,sans-Serif" font-size="10.00">okw.log.Log2Console.LogPrint</text>
</a>
</g>
</g>
<!-- Node89&#45;&gt;Node91 -->
<g id="edge6" class="edge"><title>Node89&#45;&gt;Node91</title>
<path fill="none" stroke="midnightblue" d="M388.195,-62.7432C400.197,-64.3996 412.385,-65.8879 424,-67 492.124,-73.5227 569.534,-76.2256 627.527,-77.3231"/>
<polygon fill="midnightblue" stroke="midnightblue" points="627.697,-80.8266 637.757,-77.5039 627.821,-73.8277 627.697,-80.8266"/>
</g>
<!-- Node94 -->
<g id="node7" class="node"><title>Node94</title>
<g id="a_node7"><a xlink:href="classokw_1_1log_1_1_log2_console.html#ab2120d2a3c68dc03a6a62d02570bfbd6" target="_top" xlink:title="ResCloseList: Closes the outline level.">
<polygon fill="white" stroke="black" points="424,-0.5 424,-19.5 602,-19.5 602,-0.5 424,-0.5"/>
<text text-anchor="middle" x="513" y="-7.5" font-family="Helvetica,sans-Serif" font-size="10.00">okw.log.Log2Console.ResCloseList</text>
</a>
</g>
</g>
<!-- Node89&#45;&gt;Node94 -->
<g id="edge7" class="edge"><title>Node89&#45;&gt;Node94</title>
<path fill="none" stroke="midnightblue" d="M384.393,-32.9814C405.974,-29.0948 428.847,-24.9755 449.177,-21.3141"/>
<polygon fill="midnightblue" stroke="midnightblue" points="450.024,-24.718 459.245,-19.5009 448.783,-17.8289 450.024,-24.718"/>
</g>
<!-- Node90&#45;&gt;Node91 -->
<g id="edge3" class="edge"><title>Node90&#45;&gt;Node91</title>
<path fill="none" stroke="midnightblue" d="M578.192,-57.5334C598.444,-60.5413 620.985,-63.8889 641.872,-66.9909"/>
<polygon fill="midnightblue" stroke="midnightblue" points="641.57,-70.4843 651.975,-68.4914 642.598,-63.5602 641.57,-70.4843"/>
</g>
<!-- Node92 -->
<g id="node5" class="node"><title>Node92</title>
<g id="a_node5"><a xlink:href="classokw_1_1log_1_1_log2_console.html#a418e8bba5b89f56ddaf2fea089dd24b2" target="_top" xlink:title="Erzeugt die Einrücktiefe für die Console&#45;Ausgabe.">
<polygon fill="white" stroke="black" points="642,-11 642,-41 792,-41 792,-11 642,-11"/>
<text text-anchor="start" x="650" y="-29" font-family="Helvetica,sans-Serif" font-size="10.00">okw.log.Log2Console.Blanks</text>
<text text-anchor="middle" x="717" y="-18" font-family="Helvetica,sans-Serif" font-size="10.00">Before</text>
</a>
</g>
</g>
<!-- Node90&#45;&gt;Node92 -->
<g id="edge4" class="edge"><title>Node90&#45;&gt;Node92</title>
<path fill="none" stroke="midnightblue" d="M601.425,-38.4784C611.502,-37.381 621.761,-36.2636 631.794,-35.171"/>
<polygon fill="midnightblue" stroke="midnightblue" points="632.173,-38.6505 641.735,-34.0883 631.415,-31.6916 632.173,-38.6505"/>
</g>
<!-- Node93 -->
<g id="node6" class="node"><title>Node93</title>
<g id="a_node6"><a xlink:href="classokw_1_1_o_k_w___helper.html#ab5e676787808ed174e603c1e3bfcd176" target="_top" xlink:title=" ">
<polygon fill="white" stroke="black" points="832,-16.5 832,-35.5 990,-35.5 990,-16.5 832,-16.5"/>
<text text-anchor="middle" x="911" y="-23.5" font-family="Helvetica,sans-Serif" font-size="10.00">okw.OKW_Helper.repeatString</text>
</a>
</g>
</g>
<!-- Node92&#45;&gt;Node93 -->
<g id="edge5" class="edge"><title>Node92&#45;&gt;Node93</title>
<path fill="none" stroke="midnightblue" d="M792.232,-26C801.865,-26 811.807,-26 821.642,-26"/>
<polygon fill="midnightblue" stroke="midnightblue" points="821.834,-29.5001 831.834,-26 821.834,-22.5001 821.834,-29.5001"/>
</g>
<!-- Node94&#45;&gt;Node92 -->
<g id="edge8" class="edge"><title>Node94&#45;&gt;Node92</title>
<path fill="none" stroke="midnightblue" d="M602.013,-16.9713C611.876,-17.7526 621.908,-18.5471 631.722,-19.3245"/>
<polygon fill="midnightblue" stroke="midnightblue" points="631.611,-22.8266 641.856,-20.1272 632.163,-15.8484 631.611,-22.8266"/>
</g>
</g>
</svg>
