<?xml version="1.0" encoding="UTF-8" standalone="no"?>
<!DOCTYPE svg PUBLIC "-//W3C//DTD SVG 1.1//EN"
 "http://www.w3.org/Graphics/SVG/1.1/DTD/svg11.dtd">
<!-- Generated by graphviz version 2.38.0 (20140413.2041)
 -->
<!-- Title: okw.log.Log2Console.LogKeyWordStart Pages: 1 -->
<svg width="761pt" height="78pt"
 viewBox="0.00 0.00 761.00 77.50" xmlns="http://www.w3.org/2000/svg" xmlns:xlink="http://www.w3.org/1999/xlink">
<g id="graph0" class="graph" transform="scale(1 1) rotate(0) translate(4 73.5)">
<title>okw.log.Log2Console.LogKeyWordStart</title>
<polygon fill="white" stroke="none" points="-4,4 -4,-73.5 757,-73.5 757,4 -4,4"/>
<!-- Node101 -->
<g id="node1" class="node"><title>Node101</title>
<g id="a_node1"><a xlink:title="LogKeyWordStart:">
<polygon fill="#bfbfbf" stroke="black" points="0,-22.5 0,-52.5 152,-52.5 152,-22.5 0,-22.5"/>
<text text-anchor="start" x="8" y="-40.5" font-family="Helvetica,sans-Serif" font-size="10.00">okw.log.Log2Console.LogKey</text>
<text text-anchor="middle" x="76" y="-29.5" font-family="Helvetica,sans-Serif" font-size="10.00">WordStart</text>
</a>
</g>
</g>
<!-- Node102 -->
<g id="node2" class="node"><title>Node102</title>
<g id="a_node2"><a xlink:href="classokw_1_1log_1_1_log2_console.html#af99ba81cf4d8e14d5fe19070f12ae5cb" target="_top" xlink:title="LogFunctionStartDebug: Opens a debug outline level with the .">
<polygon fill="white" stroke="black" points="188,-28 188,-47 365,-47 365,-28 188,-28"/>
<text text-anchor="middle" x="276.5" y="-35" font-family="Helvetica,sans-Serif" font-size="10.00">okw.log.Log2Console.ResOpenList</text>
</a>
</g>
</g>
<!-- Node101&#45;&gt;Node102 -->
<g id="edge1" class="edge"><title>Node101&#45;&gt;Node102</title>
<path fill="none" stroke="midnightblue" d="M152.044,-37.5C160.409,-37.5 169.018,-37.5 177.613,-37.5"/>
<polygon fill="midnightblue" stroke="midnightblue" points="177.681,-41.0001 187.681,-37.5 177.681,-34.0001 177.681,-41.0001"/>
</g>
<!-- Node103 -->
<g id="node3" class="node"><title>Node103</title>
<g id="a_node3"><a xlink:href="classokw_1_1log_1_1_log2_console.html#a76c2788140c26471575dfa92c118d1dc" target="_top" xlink:title="LogPrint: Prints the given message to the results.">
<polygon fill="white" stroke="black" points="401,-50 401,-69 559,-69 559,-50 401,-50"/>
<text text-anchor="middle" x="480" y="-57" font-family="Helvetica,sans-Serif" font-size="10.00">okw.log.Log2Console.LogPrint</text>
</a>
</g>
</g>
<!-- Node102&#45;&gt;Node103 -->
<g id="edge2" class="edge"><title>Node102&#45;&gt;Node103</title>
<path fill="none" stroke="midnightblue" d="M364.709,-47.0216C373.348,-47.9647 382.121,-48.9227 390.77,-49.867"/>
<polygon fill="midnightblue" stroke="midnightblue" points="390.53,-53.3614 400.85,-50.9675 391.289,-46.4028 390.53,-53.3614"/>
</g>
<!-- Node104 -->
<g id="node4" class="node"><title>Node104</title>
<g id="a_node4"><a xlink:href="classokw_1_1log_1_1_log2_console.html#a418e8bba5b89f56ddaf2fea089dd24b2" target="_top" xlink:title="Erzeugt die Einrücktiefe für die Console&#45;Ausgabe.">
<polygon fill="white" stroke="black" points="405,-0.5 405,-30.5 555,-30.5 555,-0.5 405,-0.5"/>
<text text-anchor="start" x="413" y="-18.5" font-family="Helvetica,sans-Serif" font-size="10.00">okw.log.Log2Console.Blanks</text>
<text text-anchor="middle" x="480" y="-7.5" font-family="Helvetica,sans-Serif" font-size="10.00">Before</text>
</a>
</g>
</g>
<!-- Node102&#45;&gt;Node104 -->
<g id="edge3" class="edge"><title>Node102&#45;&gt;Node104</title>
<path fill="none" stroke="midnightblue" d="M364.709,-27.9784C374.655,-26.8925 384.781,-25.7869 394.689,-24.7051"/>
<polygon fill="midnightblue" stroke="midnightblue" points="395.358,-28.153 404.919,-23.5883 394.598,-21.1944 395.358,-28.153"/>
</g>
<!-- Node105 -->
<g id="node5" class="node"><title>Node105</title>
<g id="a_node5"><a xlink:href="classokw_1_1_o_k_w___helper.html#ab5e676787808ed174e603c1e3bfcd176" target="_top" xlink:title=" ">
<polygon fill="white" stroke="black" points="595,-6 595,-25 753,-25 753,-6 595,-6"/>
<text text-anchor="middle" x="674" y="-13" font-family="Helvetica,sans-Serif" font-size="10.00">okw.OKW_Helper.repeatString</text>
</a>
</g>
</g>
<!-- Node104&#45;&gt;Node105 -->
<g id="edge4" class="edge"><title>Node104&#45;&gt;Node105</title>
<path fill="none" stroke="midnightblue" d="M555.232,-15.5C564.865,-15.5 574.807,-15.5 584.642,-15.5"/>
<polygon fill="midnightblue" stroke="midnightblue" points="584.834,-19.0001 594.834,-15.5 584.834,-12.0001 584.834,-19.0001"/>
</g>
</g>
</svg>
