<?xml version="1.0" encoding="UTF-8" standalone="no"?>
<!DOCTYPE svg PUBLIC "-//W3C//DTD SVG 1.1//EN"
 "http://www.w3.org/Graphics/SVG/1.1/DTD/svg11.dtd">
<!-- Generated by graphviz version 2.38.0 (20140413.2041)
 -->
<!-- Title: okw.gui.adapter.selenium.SeAnyChildWindow.LogCaption Pages: 1 -->
<svg width="1212pt" height="302pt"
 viewBox="0.00 0.00 1212.00 302.00" xmlns="http://www.w3.org/2000/svg" xmlns:xlink="http://www.w3.org/1999/xlink">
<g id="graph0" class="graph" transform="scale(1 1) rotate(0) translate(4 298)">
<title>okw.gui.adapter.selenium.SeAnyChildWindow.LogCaption</title>
<polygon fill="white" stroke="none" points="-4,4 -4,-298 1208,-298 1208,4 -4,4"/>
<!-- Node159 -->
<g id="node1" class="node"><title>Node159</title>
<g id="a_node1"><a xlink:title="Das ist die GUI&#45;Adapter Methode, die durch das Schlüsselwort LogCaption( FN, ExpVal ) aufgerufen wird...">
<polygon fill="#bfbfbf" stroke="black" points="0,-100.5 0,-130.5 162,-130.5 162,-100.5 0,-100.5"/>
<text text-anchor="start" x="8" y="-118.5" font-family="Helvetica,sans-Serif" font-size="10.00">okw.gui.adapter.selenium.</text>
<text text-anchor="middle" x="81" y="-107.5" font-family="Helvetica,sans-Serif" font-size="10.00">SeAnyChildWindow.LogCaption</text>
</a>
</g>
</g>
<!-- Node160 -->
<g id="node2" class="node"><title>Node160</title>
<g id="a_node2"><a xlink:href="classokw_1_1gui_1_1_any_win_base.html#abaab572bdbed7b471f659d5dd8c76853" target="_top" xlink:title="Diese Methode ruft die Methode Logger.Instance.LogFunctionStartDebug(fps_FunctionName),...">
<polygon fill="white" stroke="black" points="395,-185.5 395,-215.5 568,-215.5 568,-185.5 395,-185.5"/>
<text text-anchor="start" x="403" y="-203.5" font-family="Helvetica,sans-Serif" font-size="10.00">okw.gui.AnyWinBase.LogFunction</text>
<text text-anchor="middle" x="481.5" y="-192.5" font-family="Helvetica,sans-Serif" font-size="10.00">StartDebug</text>
</a>
</g>
</g>
<!-- Node159&#45;&gt;Node160 -->
<g id="edge1" class="edge"><title>Node159&#45;&gt;Node160</title>
<path fill="none" stroke="midnightblue" d="M152.326,-130.501C221.576,-145.271 327.235,-167.809 399.852,-183.298"/>
<polygon fill="midnightblue" stroke="midnightblue" points="399.362,-186.772 409.872,-185.435 400.822,-179.926 399.362,-186.772"/>
</g>
<!-- Node161 -->
<g id="node3" class="node"><title>Node161</title>
<g id="a_node3"><a xlink:href="classokw_1_1gui_1_1adapter_1_1selenium_1_1_se_any_child_window.html#a6dbc784267dbac3feef5e421ece9aced" target="_top" xlink:title="Ermittelt den textuellen Inhalt der Überschrift eines HTML&#45;Tags anhand des Attributee &quot;textContent&quot;.">
<polygon fill="white" stroke="black" points="198,-100.5 198,-130.5 359,-130.5 359,-100.5 198,-100.5"/>
<text text-anchor="start" x="206" y="-118.5" font-family="Helvetica,sans-Serif" font-size="10.00">okw.gui.adapter.selenium.</text>
<text text-anchor="middle" x="278.5" y="-107.5" font-family="Helvetica,sans-Serif" font-size="10.00">SeAnyChildWindow.getCaption</text>
</a>
</g>
</g>
<!-- Node159&#45;&gt;Node161 -->
<g id="edge2" class="edge"><title>Node159&#45;&gt;Node161</title>
<path fill="none" stroke="midnightblue" d="M162.081,-115.5C170.57,-115.5 179.243,-115.5 187.831,-115.5"/>
<polygon fill="midnightblue" stroke="midnightblue" points="187.859,-119 197.859,-115.5 187.859,-112 187.859,-119"/>
</g>
<!-- Node175 -->
<g id="node17" class="node"><title>Node175</title>
<g id="a_node17"><a xlink:href="classokw_1_1gui_1_1_any_win_base.html#a51cf50ace21902b3a5359316f53a7f3e" target="_top" xlink:title="Methode ruft die Methode Logger.Instance.LogFunctionEndDebug() auf.">
<polygon fill="white" stroke="black" points="395,-38.5 395,-68.5 568,-68.5 568,-38.5 395,-38.5"/>
<text text-anchor="start" x="403" y="-56.5" font-family="Helvetica,sans-Serif" font-size="10.00">okw.gui.AnyWinBase.LogFunction</text>
<text text-anchor="middle" x="481.5" y="-45.5" font-family="Helvetica,sans-Serif" font-size="10.00">EndDebug</text>
</a>
</g>
</g>
<!-- Node159&#45;&gt;Node175 -->
<g id="edge20" class="edge"><title>Node159&#45;&gt;Node175</title>
<path fill="none" stroke="midnightblue" d="M147.154,-100.476C163.688,-96.9346 181.456,-93.3613 198,-90.5 259.944,-79.787 330.009,-70.5919 384.865,-64.0479"/>
<polygon fill="midnightblue" stroke="midnightblue" points="385.406,-67.5084 394.925,-62.8571 384.583,-60.5569 385.406,-67.5084"/>
</g>
<!-- Node161&#45;&gt;Node160 -->
<g id="edge3" class="edge"><title>Node161&#45;&gt;Node160</title>
<path fill="none" stroke="midnightblue" d="M304.965,-130.567C327.927,-143.703 362.917,-162.619 395,-175.5 400.934,-177.882 407.181,-180.147 413.485,-182.27"/>
<polygon fill="midnightblue" stroke="midnightblue" points="412.811,-185.731 423.403,-185.487 414.97,-179.072 412.811,-185.731"/>
</g>
<!-- Node162 -->
<g id="node4" class="node"><title>Node162</title>
<g id="a_node4"><a xlink:href="classokw_1_1gui_1_1adapter_1_1selenium_1_1_se_any_child_window.html#a72faf4aa1717b4178fae1b0570ca9b28" target="_top" xlink:title="Wartet auf das Objekt Wenn kein Fenster gefunden wird,.">
<polygon fill="white" stroke="black" points="403,-136.5 403,-166.5 560,-166.5 560,-136.5 403,-136.5"/>
<text text-anchor="start" x="411" y="-154.5" font-family="Helvetica,sans-Serif" font-size="10.00">okw.gui.adapter.selenium.</text>
<text text-anchor="middle" x="481.5" y="-143.5" font-family="Helvetica,sans-Serif" font-size="10.00">SeAnyChildWindow.WaitForMe</text>
</a>
</g>
</g>
<!-- Node161&#45;&gt;Node162 -->
<g id="edge4" class="edge"><title>Node161&#45;&gt;Node162</title>
<path fill="none" stroke="midnightblue" d="M359.229,-129.78C370.222,-131.749 381.562,-133.78 392.691,-135.773"/>
<polygon fill="midnightblue" stroke="midnightblue" points="392.375,-139.272 402.836,-137.59 393.61,-132.382 392.375,-139.272"/>
</g>
<!-- Node171 -->
<g id="node13" class="node"><title>Node171</title>
<g id="a_node13"><a xlink:href="classokw_1_1gui_1_1adapter_1_1selenium_1_1_se_any_child_window.html#a9a138af1fc6ff850d708d66f308a2525" target="_top" xlink:title="Ermittelt aus dem gegebenen Locator das DOM&#45;Elelement, welches das Objekt representiert.">
<polygon fill="white" stroke="black" points="411.5,-87.5 411.5,-117.5 551.5,-117.5 551.5,-87.5 411.5,-87.5"/>
<text text-anchor="start" x="419.5" y="-105.5" font-family="Helvetica,sans-Serif" font-size="10.00">okw.gui.adapter.selenium.</text>
<text text-anchor="middle" x="481.5" y="-94.5" font-family="Helvetica,sans-Serif" font-size="10.00">SeAnyChildWindow.Me</text>
</a>
</g>
</g>
<!-- Node161&#45;&gt;Node171 -->
<g id="edge13" class="edge"><title>Node161&#45;&gt;Node171</title>
<path fill="none" stroke="midnightblue" d="M359.229,-110.343C372.942,-109.456 387.194,-108.535 400.903,-107.648"/>
<polygon fill="midnightblue" stroke="midnightblue" points="401.51,-111.116 411.263,-106.978 401.058,-104.131 401.51,-111.116"/>
</g>
<!-- Node161&#45;&gt;Node175 -->
<g id="edge19" class="edge"><title>Node161&#45;&gt;Node175</title>
<path fill="none" stroke="midnightblue" d="M323.78,-100.424C345.219,-93.2545 371.374,-84.6985 395,-77.5 401.793,-75.4301 408.91,-73.3281 416.014,-71.2726"/>
<polygon fill="midnightblue" stroke="midnightblue" points="417.014,-74.627 425.661,-68.5057 415.084,-67.8982 417.014,-74.627"/>
</g>
<!-- Node163 -->
<g id="node5" class="node"><title>Node163</title>
<g id="a_node5"><a xlink:href="classokw_1_1log_1_1_logger___sngltn.html#ab4fc711bb4c754f251372ff3b14ab9c9" target="_top" xlink:title="Creates a new hierarchical level in the results file.">
<polygon fill="white" stroke="black" points="626.5,-263.5 626.5,-293.5 769.5,-293.5 769.5,-263.5 626.5,-263.5"/>
<text text-anchor="start" x="634.5" y="-281.5" font-family="Helvetica,sans-Serif" font-size="10.00">okw.log.Logger_Sngltn.Res</text>
<text text-anchor="middle" x="698" y="-270.5" font-family="Helvetica,sans-Serif" font-size="10.00">OpenList</text>
</a>
</g>
</g>
<!-- Node162&#45;&gt;Node163 -->
<g id="edge5" class="edge"><title>Node162&#45;&gt;Node163</title>
<path fill="none" stroke="midnightblue" d="M554.877,-166.67C559.574,-169.178 564.011,-172.099 568,-175.5 597.054,-200.272 574.81,-228.889 604,-253.5 607.972,-256.849 612.351,-259.754 616.978,-262.272"/>
<polygon fill="midnightblue" stroke="midnightblue" points="615.611,-265.498 626.143,-266.655 618.631,-259.183 615.611,-265.498"/>
</g>
<!-- Node164 -->
<g id="node6" class="node"><title>Node164</title>
<g id="a_node6"><a xlink:href="classokw_1_1log_1_1_logger___sngltn.html#a8ebceaddd6cc6963ddb8e08c72ea808c" target="_top" xlink:title="LogPrint Function: Prints the values of expressions to the results file.">
<polygon fill="white" stroke="black" points="850.5,-134.5 850.5,-164.5 993.5,-164.5 993.5,-134.5 850.5,-134.5"/>
<text text-anchor="start" x="858.5" y="-152.5" font-family="Helvetica,sans-Serif" font-size="10.00">okw.log.Logger_Sngltn.Log</text>
<text text-anchor="middle" x="922" y="-141.5" font-family="Helvetica,sans-Serif" font-size="10.00">Print</text>
</a>
</g>
</g>
<!-- Node162&#45;&gt;Node164 -->
<g id="edge6" class="edge"><title>Node162&#45;&gt;Node164</title>
<path fill="none" stroke="midnightblue" d="M560.138,-151.146C638.928,-150.787 760.365,-150.233 840.255,-149.868"/>
<polygon fill="midnightblue" stroke="midnightblue" points="840.287,-153.368 850.271,-149.823 840.255,-146.368 840.287,-153.368"/>
</g>
<!-- Node165 -->
<g id="node7" class="node"><title>Node165</title>
<g id="a_node7"><a xlink:href="classokw_1_1gui_1_1_any_win_base.html#a9929f6fae1f4e2c20df79d32d5bc79db" target="_top" xlink:title="Holt den vollständig (rekursiv) aufgelösten (z.B.">
<polygon fill="white" stroke="black" points="614.5,-99 614.5,-118 781.5,-118 781.5,-99 614.5,-99"/>
<text text-anchor="middle" x="698" y="-106" font-family="Helvetica,sans-Serif" font-size="10.00">okw.gui.AnyWinBase.getLocator</text>
</a>
</g>
</g>
<!-- Node162&#45;&gt;Node165 -->
<g id="edge7" class="edge"><title>Node162&#45;&gt;Node165</title>
<path fill="none" stroke="midnightblue" d="M557.522,-136.461C584.386,-131.075 614.224,-125.094 639.386,-120.05"/>
<polygon fill="midnightblue" stroke="midnightblue" points="640.383,-123.42 649.499,-118.022 639.007,-116.556 640.383,-123.42"/>
</g>
<!-- Node167 -->
<g id="node9" class="node"><title>Node167</title>
<g id="a_node9"><a xlink:href="classokw_1_1log_1_1_logger___sngltn.html#a9b54104f7e0b4c0a473877b19dfaed56" target="_top" xlink:title="Closes a hierarchical level in the results file that was opened with ResOpenList.">
<polygon fill="white" stroke="black" points="626.5,-175.5 626.5,-205.5 769.5,-205.5 769.5,-175.5 626.5,-175.5"/>
<text text-anchor="start" x="634.5" y="-193.5" font-family="Helvetica,sans-Serif" font-size="10.00">okw.log.Logger_Sngltn.Res</text>
<text text-anchor="middle" x="698" y="-182.5" font-family="Helvetica,sans-Serif" font-size="10.00">CloseList</text>
</a>
</g>
</g>
<!-- Node162&#45;&gt;Node167 -->
<g id="edge9" class="edge"><title>Node162&#45;&gt;Node167</title>
<path fill="none" stroke="midnightblue" d="M560.243,-165.635C578.452,-168.946 597.891,-172.48 616.229,-175.814"/>
<polygon fill="midnightblue" stroke="midnightblue" points="615.824,-179.298 626.289,-177.643 617.076,-172.411 615.824,-179.298"/>
</g>
<!-- Node168 -->
<g id="node10" class="node"><title>Node168</title>
<g id="a_node10"><a xlink:href="classokw_1_1_log_messenger.html#af225d1f037d47b3b085175c09d78bdd2" target="_top" xlink:title="Holt die Log&#45;Meldung für MethodeNmae/Textkey ohne weitere Parameter.">
<polygon fill="white" stroke="black" points="613.5,-225 613.5,-244 782.5,-244 782.5,-225 613.5,-225"/>
<text text-anchor="middle" x="698" y="-232" font-family="Helvetica,sans-Serif" font-size="10.00">okw.LogMessenger.GetMessage</text>
</a>
</g>
</g>
<!-- Node162&#45;&gt;Node168 -->
<g id="edge10" class="edge"><title>Node162&#45;&gt;Node168</title>
<path fill="none" stroke="midnightblue" d="M549.832,-166.505C556.18,-169.061 562.347,-172.038 568,-175.5 588.116,-187.82 583.513,-202.808 604,-214.5 608.751,-217.212 613.83,-219.556 619.072,-221.584"/>
<polygon fill="midnightblue" stroke="midnightblue" points="618.054,-224.935 628.648,-224.901 620.345,-218.321 618.054,-224.935"/>
</g>
<!-- Node166 -->
<g id="node8" class="node"><title>Node166</title>
<g id="a_node8"><a xlink:href="classokw_1_1gui_1_1_o_k_w_locator.html#adc74fc2125dd048dc1cb84e011f47ec8" target="_top" xlink:title="Holt den vollständig (rekursiv) aufgelösten (z.B.">
<polygon fill="white" stroke="black" points="839,-96 839,-115 1005,-115 1005,-96 839,-96"/>
<text text-anchor="middle" x="922" y="-103" font-family="Helvetica,sans-Serif" font-size="10.00">okw.gui.OKWLocator.getLocator</text>
</a>
</g>
</g>
<!-- Node165&#45;&gt;Node166 -->
<g id="edge8" class="edge"><title>Node165&#45;&gt;Node166</title>
<path fill="none" stroke="midnightblue" d="M781.665,-107.383C796.935,-107.177 812.971,-106.96 828.51,-106.75"/>
<polygon fill="midnightblue" stroke="midnightblue" points="828.684,-110.248 838.636,-106.613 828.59,-103.249 828.684,-110.248"/>
</g>
<!-- Node169 -->
<g id="node11" class="node"><title>Node169</title>
<g id="a_node11"><a xlink:href="classokw_1_1_log_messenger.html#a530cd6ab82ec82a04206a2e976ec06e3" target="_top" xlink:title="Interne Kernfunktion holt die Log&#45;Meldung mit Platzhaltern aus der XML&#45;Datei.">
<polygon fill="white" stroke="black" points="834.5,-225 834.5,-244 1009.5,-244 1009.5,-225 834.5,-225"/>
<text text-anchor="middle" x="922" y="-232" font-family="Helvetica,sans-Serif" font-size="10.00">okw.LogMessenger.ReadMessage</text>
</a>
</g>
</g>
<!-- Node168&#45;&gt;Node169 -->
<g id="edge11" class="edge"><title>Node168&#45;&gt;Node169</title>
<path fill="none" stroke="midnightblue" d="M782.612,-234.5C796.162,-234.5 810.293,-234.5 824.126,-234.5"/>
<polygon fill="midnightblue" stroke="midnightblue" points="824.134,-238 834.134,-234.5 824.134,-231 824.134,-238"/>
</g>
<!-- Node170 -->
<g id="node12" class="node"><title>Node170</title>
<g id="a_node12"><a xlink:href="classokw_1_1_o_k_w___xml_reader.html#ab920b5335a2e1429c14cc5f8e79f39eb" target="_top" xlink:title="Lies den TextContent eines Tag.">
<polygon fill="white" stroke="black" points="1052,-219.5 1052,-249.5 1204,-249.5 1204,-219.5 1052,-219.5"/>
<text text-anchor="start" x="1060" y="-237.5" font-family="Helvetica,sans-Serif" font-size="10.00">okw.OKW_XmlReader.getText</text>
<text text-anchor="middle" x="1128" y="-226.5" font-family="Helvetica,sans-Serif" font-size="10.00">ContentSingleValue</text>
</a>
</g>
</g>
<!-- Node169&#45;&gt;Node170 -->
<g id="edge12" class="edge"><title>Node169&#45;&gt;Node170</title>
<path fill="none" stroke="midnightblue" d="M1009.51,-234.5C1020.21,-234.5 1031.14,-234.5 1041.82,-234.5"/>
<polygon fill="midnightblue" stroke="midnightblue" points="1041.97,-238 1051.97,-234.5 1041.97,-231 1041.97,-238"/>
</g>
<!-- Node171&#45;&gt;Node165 -->
<g id="edge18" class="edge"><title>Node171&#45;&gt;Node165</title>
<path fill="none" stroke="midnightblue" d="M551.55,-104.431C568.237,-104.898 586.344,-105.405 603.933,-105.897"/>
<polygon fill="midnightblue" stroke="midnightblue" points="604.121,-109.403 614.215,-106.184 604.317,-102.406 604.121,-109.403"/>
</g>
<!-- Node172 -->
<g id="node14" class="node"><title>Node172</title>
<g id="a_node14"><a xlink:href="classokw_1_1gui_1_1adapter_1_1selenium_1_1webdriver_1_1_se_driver.html#aee9e3f8a67f4ad1f8100a33ba71c926e" target="_top" xlink:title="Gibt die Instance für die einzige Instanz dieser Klasse zurück.">
<polygon fill="white" stroke="black" points="604,-0.5 604,-30.5 792,-30.5 792,-0.5 604,-0.5"/>
<text text-anchor="start" x="612" y="-18.5" font-family="Helvetica,sans-Serif" font-size="10.00">okw.gui.adapter.selenium.webdriver.</text>
<text text-anchor="middle" x="698" y="-7.5" font-family="Helvetica,sans-Serif" font-size="10.00">SeDriver.getInstance</text>
</a>
</g>
</g>
<!-- Node171&#45;&gt;Node172 -->
<g id="edge14" class="edge"><title>Node171&#45;&gt;Node172</title>
<path fill="none" stroke="midnightblue" d="M547.564,-87.472C554.7,-84.668 561.665,-81.3702 568,-77.5 587.852,-65.3709 583.957,-51.3108 604,-39.5 607.037,-37.7104 610.207,-36.0526 613.466,-34.5172"/>
<polygon fill="midnightblue" stroke="midnightblue" points="615.035,-37.6533 622.856,-30.5061 612.285,-31.2161 615.035,-37.6533"/>
</g>
<!-- Node173 -->
<g id="node15" class="node"><title>Node173</title>
<g id="a_node15"><a xlink:href="classokw_1_1gui_1_1adapter_1_1selenium_1_1webdriver_1_1_se_driver.html#a6d879107786a94ebbdbd42b4ac6c6acf" target="_top" xlink:title="Ermittelt das Webelement mit der gegebenen frameID und dem gegebenen Locator.">
<polygon fill="white" stroke="black" points="604,-49.5 604,-79.5 792,-79.5 792,-49.5 604,-49.5"/>
<text text-anchor="start" x="612" y="-67.5" font-family="Helvetica,sans-Serif" font-size="10.00">okw.gui.adapter.selenium.webdriver.</text>
<text text-anchor="middle" x="698" y="-56.5" font-family="Helvetica,sans-Serif" font-size="10.00">SeDriver.getElement</text>
</a>
</g>
</g>
<!-- Node171&#45;&gt;Node173 -->
<g id="edge15" class="edge"><title>Node171&#45;&gt;Node173</title>
<path fill="none" stroke="midnightblue" d="M551.55,-90.2674C567.726,-87.4018 585.235,-84.2999 602.313,-81.2743"/>
<polygon fill="midnightblue" stroke="midnightblue" points="603.07,-84.6949 612.306,-79.5041 601.848,-77.8023 603.07,-84.6949"/>
</g>
<!-- Node173&#45;&gt;Node164 -->
<g id="edge17" class="edge"><title>Node173&#45;&gt;Node164</title>
<path fill="none" stroke="midnightblue" d="M770.088,-79.5157C777.711,-82.3159 785.169,-85.6163 792,-89.5 811.399,-100.529 808.601,-113.471 828,-124.5 832.142,-126.855 836.515,-128.996 841.015,-130.94"/>
<polygon fill="midnightblue" stroke="midnightblue" points="839.813,-134.229 850.399,-134.662 842.394,-127.722 839.813,-134.229"/>
</g>
<!-- Node174 -->
<g id="node16" class="node"><title>Node174</title>
<g id="a_node16"><a xlink:href="classokw_1_1gui_1_1adapter_1_1selenium_1_1webdriver_1_1_se_driver.html#a47eec72c911c05beb2127672daafb325" target="_top" xlink:title="Wechselt das aktuelle Frame auf das Frame mit der id=iframeID.">
<polygon fill="white" stroke="black" points="828,-46.5 828,-76.5 1016,-76.5 1016,-46.5 828,-46.5"/>
<text text-anchor="start" x="836" y="-64.5" font-family="Helvetica,sans-Serif" font-size="10.00">okw.gui.adapter.selenium.webdriver.</text>
<text text-anchor="middle" x="922" y="-53.5" font-family="Helvetica,sans-Serif" font-size="10.00">SeDriver.swichToFrame</text>
</a>
</g>
</g>
<!-- Node173&#45;&gt;Node174 -->
<g id="edge16" class="edge"><title>Node173&#45;&gt;Node174</title>
<path fill="none" stroke="midnightblue" d="M792.183,-63.2408C800.535,-63.1279 809.024,-63.0132 817.456,-62.8992"/>
<polygon fill="midnightblue" stroke="midnightblue" points="817.748,-66.3957 827.7,-62.7608 817.653,-59.3964 817.748,-66.3957"/>
</g>
</g>
</svg>
