<?xml version="1.0" encoding="UTF-8" standalone="no"?>
<!DOCTYPE svg PUBLIC "-//W3C//DTD SVG 1.1//EN"
 "http://www.w3.org/Graphics/SVG/1.1/DTD/svg11.dtd">
<!-- Generated by graphviz version 2.26.3 (20100126.1600)
 -->
<!-- Title: okw.core.EN.LogTooltip Pages: 1 -->
<svg width="344pt" height="382pt"
 viewBox="0.00 0.00 344.00 382.00" xmlns="http://www.w3.org/2000/svg" xmlns:xlink="http://www.w3.org/1999/xlink">
<g id="graph1" class="graph" transform="scale(1 1) rotate(0) translate(4 378)">
<title>okw.core.EN.LogTooltip</title>
<polygon fill="white" stroke="white" points="-4,5 -4,-378 341,-378 341,5 -4,5"/>
<!-- Node781 -->
<g id="node1" class="node"><title>Node781</title>
<polygon fill="#bfbfbf" stroke="black" points="0,-183.5 0,-204.5 122,-204.5 122,-183.5 0,-183.5"/>
<text text-anchor="middle" x="61" y="-191.5" font-family="Helvetica,sans-Serif" font-size="10.00">okw.core.EN.LogTooltip</text>
</g>
<!-- Node782 -->
<g id="node3" class="node"><title>Node782</title>
<a xlink:href="classokw_1_1_se_button_1_1_se_button___test.html#ad0e00e150e5ab6ed0203334b1c9c954d" target="_top" xlink:title="Test des Schlüsselwortes LogTooltip für den GUI&#45;Adapter SeButton. ">
<polygon fill="white" stroke="black" points="186,-340 186,-374 308,-374 308,-340 186,-340"/>
<text text-anchor="start" x="194" y="-361" font-family="Helvetica,sans-Serif" font-size="10.00">okw.SeButton.SeButton</text>
<text text-anchor="middle" x="247" y="-348" font-family="Helvetica,sans-Serif" font-size="10.00">_Test.tcLogToolTip</text>
</a>
</g>
<!-- Node781&#45;&gt;Node782 -->
<g id="edge2" class="edge"><title>Node781&#45;&gt;Node782</title>
<path fill="none" stroke="midnightblue" d="M69.9005,-214.207C84.1459,-244.206 114.913,-300.274 158,-331 166.257,-336.888 175.84,-341.453 185.596,-344.989"/>
<polygon fill="midnightblue" stroke="midnightblue" points="72.917,-212.39 65.5577,-204.768 66.5578,-215.316 72.917,-212.39"/>
</g>
<!-- Node783 -->
<g id="node5" class="node"><title>Node783</title>
<a xlink:href="classokw_1_1_se_input_checkbox_1_1_se_input_checkbox___test.html#a702ffb63f0af2c995bd71ca884b0f408" target="_top" xlink:title="Prüft die SetFocusFunktion bei Textfelder mit dem Attribute &quot;ReadOnly&quot;. ">
<polygon fill="white" stroke="black" points="171,-288 171,-322 323,-322 323,-288 171,-288"/>
<text text-anchor="start" x="179" y="-309" font-family="Helvetica,sans-Serif" font-size="10.00">okw.SeInputCheckbox.SeInput</text>
<text text-anchor="middle" x="247" y="-296" font-family="Helvetica,sans-Serif" font-size="10.00">Checkbox_Test.tcSetFocus</text>
</a>
</g>
<!-- Node781&#45;&gt;Node783 -->
<g id="edge4" class="edge"><title>Node781&#45;&gt;Node783</title>
<path fill="none" stroke="midnightblue" d="M76.9417,-212.023C94.8651,-231.236 125.709,-261.28 158,-279 164.068,-282.33 170.609,-285.275 177.292,-287.87"/>
<polygon fill="midnightblue" stroke="midnightblue" points="79.4143,-209.54 70.0847,-204.519 74.2469,-214.262 79.4143,-209.54"/>
</g>
<!-- Node784 -->
<g id="node7" class="node"><title>Node784</title>
<a xlink:href="classokw_1_1_se_input_field_1_1_se_input_field___test.html#adb7a88172cfaf13f62d1326966788094" target="_top" xlink:title="Teste das Schlüsselwort LogTooltip( FN ) eines SeInputText Prüfen. ">
<polygon fill="white" stroke="black" points="182.5,-236 182.5,-270 311.5,-270 311.5,-236 182.5,-236"/>
<text text-anchor="start" x="190.5" y="-257" font-family="Helvetica,sans-Serif" font-size="10.00">okw.SeInputField.SeInput</text>
<text text-anchor="middle" x="247" y="-244" font-family="Helvetica,sans-Serif" font-size="10.00">Field_Test.tcLogToolTip</text>
</a>
</g>
<!-- Node781&#45;&gt;Node784 -->
<g id="edge6" class="edge"><title>Node781&#45;&gt;Node784</title>
<path fill="none" stroke="midnightblue" d="M100.9,-208.013C118.369,-214.034 139.142,-221.041 158,-227 167.363,-229.959 177.317,-232.984 187.049,-235.875"/>
<polygon fill="midnightblue" stroke="midnightblue" points="101.631,-204.562 91.0366,-204.597 99.3407,-211.176 101.631,-204.562"/>
</g>
<!-- Node785 -->
<g id="node9" class="node"><title>Node785</title>
<a xlink:href="classokw_1_1_se_input_field_1_1_se_input_field___test.html#aa7612889d0a642c440c6a085e205ac8f" target="_top" xlink:title="okw.SeInputField.SeInput\lField_Test.tcSelect_OKWGUIObject\lNotFoundException">
<polygon fill="white" stroke="black" points="158.5,-170.5 158.5,-217.5 335.5,-217.5 335.5,-170.5 158.5,-170.5"/>
<text text-anchor="start" x="166.5" y="-204.5" font-family="Helvetica,sans-Serif" font-size="10.00">okw.SeInputField.SeInput</text>
<text text-anchor="start" x="166.5" y="-191.5" font-family="Helvetica,sans-Serif" font-size="10.00">Field_Test.tcSelect_OKWGUIObject</text>
<text text-anchor="middle" x="247" y="-178.5" font-family="Helvetica,sans-Serif" font-size="10.00">NotFoundException</text>
</a>
</g>
<!-- Node781&#45;&gt;Node785 -->
<g id="edge8" class="edge"><title>Node781&#45;&gt;Node785</title>
<path fill="none" stroke="midnightblue" d="M132.336,-194C140.797,-194 149.511,-194 158.177,-194"/>
<polygon fill="midnightblue" stroke="midnightblue" points="132.161,-190.5 122.161,-194 132.161,-197.5 132.161,-190.5"/>
</g>
<!-- Node786 -->
<g id="node11" class="node"><title>Node786</title>
<a xlink:href="classokw_1_1_se_input_radio_1_1_se_input_radio___e_n___test.html#ab7bf9763de116419a8384cae94a825bf" target="_top" xlink:title="Test des Schlüsselwortes LogTooltip für den GUI&#45;Adapter SeInputRadio. ">
<polygon fill="white" stroke="black" points="171.5,-118 171.5,-152 322.5,-152 322.5,-118 171.5,-118"/>
<text text-anchor="start" x="179.5" y="-139" font-family="Helvetica,sans-Serif" font-size="10.00">okw.SeInputRadio.SeInput</text>
<text text-anchor="middle" x="247" y="-126" font-family="Helvetica,sans-Serif" font-size="10.00">Radio_EN_Test.tc_LogToolTip</text>
</a>
</g>
<!-- Node781&#45;&gt;Node786 -->
<g id="edge10" class="edge"><title>Node781&#45;&gt;Node786</title>
<path fill="none" stroke="midnightblue" d="M100.9,-179.987C118.369,-173.966 139.142,-166.959 158,-161 167.363,-158.041 177.317,-155.016 187.049,-152.125"/>
<polygon fill="midnightblue" stroke="midnightblue" points="99.3407,-176.824 91.0366,-183.403 101.631,-183.438 99.3407,-176.824"/>
</g>
<!-- Node787 -->
<g id="node13" class="node"><title>Node787</title>
<a xlink:href="classokw_1_1_se_link_1_1_se_link___e_n___test.html#ade5477cb18a1aaf96deb62f11f8a69c0" target="_top" xlink:title="Tooltip eines Textfeldes Prüfen. ">
<polygon fill="white" stroke="black" points="183.5,-66 183.5,-100 310.5,-100 310.5,-66 183.5,-66"/>
<text text-anchor="start" x="191.5" y="-87" font-family="Helvetica,sans-Serif" font-size="10.00">okw.SeLink.SeLink_EN</text>
<text text-anchor="middle" x="247" y="-74" font-family="Helvetica,sans-Serif" font-size="10.00">_Test.TC_LogToolTip_en</text>
</a>
</g>
<!-- Node781&#45;&gt;Node787 -->
<g id="edge12" class="edge"><title>Node781&#45;&gt;Node787</title>
<path fill="none" stroke="midnightblue" d="M76.9417,-175.977C94.8651,-156.764 125.709,-126.72 158,-109 165.903,-104.663 174.607,-100.98 183.383,-97.8711"/>
<polygon fill="midnightblue" stroke="midnightblue" points="74.2469,-173.738 70.0847,-183.481 79.4143,-178.46 74.2469,-173.738"/>
</g>
<!-- Node788 -->
<g id="node15" class="node"><title>Node788</title>
<a xlink:href="classokw_1_1_se_radio_list_1_1_se_radio_list___test.html#a570eb3cf73952fbe534422dd7abc1449" target="_top" xlink:title="Prüft die Methode SeRadioList.MemorizeLabel. ">
<polygon fill="white" stroke="black" points="165,-0.5 165,-47.5 329,-47.5 329,-0.5 165,-0.5"/>
<text text-anchor="start" x="173" y="-34.5" font-family="Helvetica,sans-Serif" font-size="10.00">okw.SeRadioList.SeRadioList</text>
<text text-anchor="start" x="173" y="-21.5" font-family="Helvetica,sans-Serif" font-size="10.00">_Test.tcMemorizeLabel_Empty</text>
<text text-anchor="middle" x="247" y="-8.5" font-family="Helvetica,sans-Serif" font-size="10.00">_OKWNotAllowedValueException</text>
</a>
</g>
<!-- Node781&#45;&gt;Node788 -->
<g id="edge14" class="edge"><title>Node781&#45;&gt;Node788</title>
<path fill="none" stroke="midnightblue" d="M70.1832,-174.174C84.7942,-144.67 116.028,-89.2323 158,-57 162.444,-53.5874 167.277,-50.4992 172.318,-47.7094"/>
<polygon fill="midnightblue" stroke="midnightblue" points="66.9026,-172.92 65.718,-183.448 73.2096,-175.957 66.9026,-172.92"/>
</g>
</g>
</svg>
