<?xml version="1.0" encoding="UTF-8" standalone="no"?>
<!DOCTYPE svg PUBLIC "-//W3C//DTD SVG 1.1//EN"
 "http://www.w3.org/Graphics/SVG/1.1/DTD/svg11.dtd">
<!-- Generated by graphviz version 2.38.0 (20140413.2041)
 -->
<!-- Title: okw.log.Log2Console.LogFunctionEnd Pages: 1 -->
<svg width="804pt" height="96pt"
 viewBox="0.00 0.00 804.00 96.00" xmlns="http://www.w3.org/2000/svg" xmlns:xlink="http://www.w3.org/1999/xlink">
<g id="graph0" class="graph" transform="scale(1 1) rotate(0) translate(4 92)">
<title>okw.log.Log2Console.LogFunctionEnd</title>
<polygon fill="white" stroke="none" points="-4,4 -4,-92 800,-92 800,4 -4,4"/>
<!-- Node31 -->
<g id="node1" class="node"><title>Node31</title>
<g id="a_node1"><a xlink:title="LogFunctionEnd(String):">
<polygon fill="#bfbfbf" stroke="black" points="0,-38.5 0,-57.5 194,-57.5 194,-38.5 0,-38.5"/>
<text text-anchor="middle" x="97" y="-45.5" font-family="Helvetica,sans-Serif" font-size="10.00">okw.log.Log2Console.LogFunctionEnd</text>
</a>
</g>
</g>
<!-- Node32 -->
<g id="node2" class="node"><title>Node32</title>
<g id="a_node2"><a xlink:href="classokw_1_1log_1_1_log2_console.html#af99ba81cf4d8e14d5fe19070f12ae5cb" target="_top" xlink:title="LogFunctionStartDebug: Opens a debug outline level with the .">
<polygon fill="white" stroke="black" points="230.5,-38.5 230.5,-57.5 407.5,-57.5 407.5,-38.5 230.5,-38.5"/>
<text text-anchor="middle" x="319" y="-45.5" font-family="Helvetica,sans-Serif" font-size="10.00">okw.log.Log2Console.ResOpenList</text>
</a>
</g>
</g>
<!-- Node31&#45;&gt;Node32 -->
<g id="edge1" class="edge"><title>Node31&#45;&gt;Node32</title>
<path fill="none" stroke="midnightblue" d="M194.175,-48C202.818,-48 211.576,-48 220.233,-48"/>
<polygon fill="midnightblue" stroke="midnightblue" points="220.334,-51.5001 230.334,-48 220.334,-44.5001 220.334,-51.5001"/>
</g>
<!-- Node33 -->
<g id="node3" class="node"><title>Node33</title>
<g id="a_node3"><a xlink:href="classokw_1_1log_1_1_log2_console.html#a76c2788140c26471575dfa92c118d1dc" target="_top" xlink:title="LogPrint: Prints the given message to the results.">
<polygon fill="white" stroke="black" points="444,-68.5 444,-87.5 602,-87.5 602,-68.5 444,-68.5"/>
<text text-anchor="middle" x="523" y="-75.5" font-family="Helvetica,sans-Serif" font-size="10.00">okw.log.Log2Console.LogPrint</text>
</a>
</g>
</g>
<!-- Node31&#45;&gt;Node33 -->
<g id="edge5" class="edge"><title>Node31&#45;&gt;Node33</title>
<path fill="none" stroke="midnightblue" d="M155.022,-57.5464C178.219,-61.0801 205.327,-64.7659 230,-67 298.157,-73.1717 375.565,-75.8935 433.549,-77.0875"/>
<polygon fill="midnightblue" stroke="midnightblue" points="433.711,-80.5912 443.777,-77.2864 433.847,-73.5925 433.711,-80.5912"/>
</g>
<!-- Node36 -->
<g id="node6" class="node"><title>Node36</title>
<g id="a_node6"><a xlink:href="classokw_1_1log_1_1_log2_console.html#ab2120d2a3c68dc03a6a62d02570bfbd6" target="_top" xlink:title="ResCloseList: Closes the outline level.">
<polygon fill="white" stroke="black" points="230,-0.5 230,-19.5 408,-19.5 408,-0.5 230,-0.5"/>
<text text-anchor="middle" x="319" y="-7.5" font-family="Helvetica,sans-Serif" font-size="10.00">okw.log.Log2Console.ResCloseList</text>
</a>
</g>
</g>
<!-- Node31&#45;&gt;Node36 -->
<g id="edge6" class="edge"><title>Node31&#45;&gt;Node36</title>
<path fill="none" stroke="midnightblue" d="M153.231,-38.46C183.437,-33.2426 221.041,-26.7475 252.695,-21.28"/>
<polygon fill="midnightblue" stroke="midnightblue" points="253.488,-24.695 262.746,-19.5439 252.296,-17.7971 253.488,-24.695"/>
</g>
<!-- Node32&#45;&gt;Node33 -->
<g id="edge2" class="edge"><title>Node32&#45;&gt;Node33</title>
<path fill="none" stroke="midnightblue" d="M384.192,-57.5334C404.444,-60.5413 426.985,-63.8889 447.872,-66.9909"/>
<polygon fill="midnightblue" stroke="midnightblue" points="447.57,-70.4843 457.975,-68.4914 448.598,-63.5602 447.57,-70.4843"/>
</g>
<!-- Node34 -->
<g id="node4" class="node"><title>Node34</title>
<g id="a_node4"><a xlink:href="classokw_1_1log_1_1_log2_console.html#a418e8bba5b89f56ddaf2fea089dd24b2" target="_top" xlink:title="Erzeugt die Einrücktiefe für die Console&#45;Ausgabe.">
<polygon fill="white" stroke="black" points="448,-11 448,-41 598,-41 598,-11 448,-11"/>
<text text-anchor="start" x="456" y="-29" font-family="Helvetica,sans-Serif" font-size="10.00">okw.log.Log2Console.Blanks</text>
<text text-anchor="middle" x="523" y="-18" font-family="Helvetica,sans-Serif" font-size="10.00">Before</text>
</a>
</g>
</g>
<!-- Node32&#45;&gt;Node34 -->
<g id="edge3" class="edge"><title>Node32&#45;&gt;Node34</title>
<path fill="none" stroke="midnightblue" d="M407.425,-38.4784C417.502,-37.381 427.761,-36.2636 437.794,-35.171"/>
<polygon fill="midnightblue" stroke="midnightblue" points="438.173,-38.6505 447.735,-34.0883 437.415,-31.6916 438.173,-38.6505"/>
</g>
<!-- Node35 -->
<g id="node5" class="node"><title>Node35</title>
<g id="a_node5"><a xlink:href="classokw_1_1_o_k_w___helper.html#ab5e676787808ed174e603c1e3bfcd176" target="_top" xlink:title=" ">
<polygon fill="white" stroke="black" points="638,-16.5 638,-35.5 796,-35.5 796,-16.5 638,-16.5"/>
<text text-anchor="middle" x="717" y="-23.5" font-family="Helvetica,sans-Serif" font-size="10.00">okw.OKW_Helper.repeatString</text>
</a>
</g>
</g>
<!-- Node34&#45;&gt;Node35 -->
<g id="edge4" class="edge"><title>Node34&#45;&gt;Node35</title>
<path fill="none" stroke="midnightblue" d="M598.232,-26C607.865,-26 617.807,-26 627.642,-26"/>
<polygon fill="midnightblue" stroke="midnightblue" points="627.834,-29.5001 637.834,-26 627.834,-22.5001 627.834,-29.5001"/>
</g>
<!-- Node36&#45;&gt;Node34 -->
<g id="edge7" class="edge"><title>Node36&#45;&gt;Node34</title>
<path fill="none" stroke="midnightblue" d="M408.013,-16.9713C417.876,-17.7526 427.908,-18.5471 437.722,-19.3245"/>
<polygon fill="midnightblue" stroke="midnightblue" points="437.611,-22.8266 447.856,-20.1272 438.163,-15.8484 437.611,-22.8266"/>
</g>
</g>
</svg>
