<?xml version="1.0" encoding="UTF-8" standalone="no"?>
<!DOCTYPE svg PUBLIC "-//W3C//DTD SVG 1.1//EN"
 "http://www.w3.org/Graphics/SVG/1.1/DTD/svg11.dtd">
<!-- Generated by graphviz version 2.38.0 (20140413.2041)
 -->
<!-- Title: okw.core.EN.VerifyLabelWCM Pages: 1 -->
<!--zoomable 166 -->
<svg id="main" version="1.1" xmlns="http://www.w3.org/2000/svg" xmlns:xlink="http://www.w3.org/1999/xlink" xml:space="preserve" onload="init(evt)">
<style type="text/css"><![CDATA[
.edge:hover path { stroke: red; }
.edge:hover polygon { stroke: red; fill: red; }
]]></style>
<script type="text/javascript"><![CDATA[
var edges = document.getElementsByTagName('g');
if (edges && edges.length) {
  for (var i=0;i<edges.length;i++) {
    if (edges[i].id.substr(0,4)=='edge') {
      edges[i].setAttribute('class','edge');
    }
  }
}
]]></script>
        <defs>
                <circle id="rim" cx="0" cy="0" r="7"/>
                <circle id="rim2" cx="0" cy="0" r="3.5"/>
                <g id="zoomPlus">
                        <use xlink:href="#rim" fill="#404040">
                                <set attributeName="fill" to="#808080" begin="zoomplus.mouseover" end="zoomplus.mouseout"/>
                        </use>
                        <path d="M-4,0h8M0,-4v8" fill="none" stroke="white" stroke-width="1.5" pointer-events="none"/>
                </g>
                <g id="zoomMin">
                        <use xlink:href="#rim" fill="#404040">
                                <set attributeName="fill" to="#808080" begin="zoomminus.mouseover" end="zoomminus.mouseout"/>
                        </use>
                        <path d="M-4,0h8" fill="none" stroke="white" stroke-width="1.5" pointer-events="none"/>
                </g>
                <g id="dirArrow">
                        <path fill="none" stroke="white" stroke-width="1.5" d="M0,-3.0v7 M-2.5,-0.5L0,-3.0L2.5,-0.5"/>
                </g>
               <g id="resetDef">
                       <use xlink:href="#rim2" fill="#404040">
                               <set attributeName="fill" to="#808080" begin="reset.mouseover" end="reset.mouseout"/>
                       </use>
               </g>
        </defs>

<script type="text/javascript">
var viewWidth = 974;
var viewHeight = 166;
var sectionId = 'dynsection-82';
</script>
<script xlink:href="svgpan.js"/>
<svg id="graph" class="graph">
<g id="viewport">
<title>okw.core.EN.VerifyLabelWCM</title>
<polygon fill="white" stroke="none" points="-4,4 -4,-161.5 970,-161.5 970,4 -4,4"/>
<!-- Node3112 -->
<g id="node1" class="node"><title>Node3112</title>
<g id="a_node1"><a xlink:title="Überprüft die Beschreibung/Label des Objektes.">
<polygon fill="#bfbfbf" stroke="black" points="0,-93 0,-112 152,-112 152,-93 0,-93"/>
<text text-anchor="middle" x="76" y="-100" font-family="Helvetica,sans-Serif" font-size="10.00">okw.core.EN.VerifyLabelWCM</text>
</a>
</g>
</g>
<!-- Node3113 -->
<g id="node2" class="node"><title>Node3113</title>
<g id="a_node2"><a xlink:href="classokw_1_1core_1_1_core.html#ab4e0f723d27cb11c944ec4c82c426100" target="_top" xlink:title="Setzt die Sprache auf den gegebenen wert Language.">
<polygon fill="white" stroke="black" points="194,-125 194,-144 343,-144 343,-125 194,-125"/>
<text text-anchor="middle" x="268.5" y="-132" font-family="Helvetica,sans-Serif" font-size="10.00">okw.core.Core.setLanguage</text>
</a>
</g>
</g>
<!-- Node3112&#45;&gt;Node3113 -->
<g id="edge1" class="edge"><title>Node3112&#45;&gt;Node3113</title>
<path fill="none" stroke="midnightblue" d="M133.641,-112.014C154.755,-115.561 178.916,-119.62 200.848,-123.304"/>
<polygon fill="midnightblue" stroke="midnightblue" points="200.307,-126.762 210.749,-124.967 201.467,-119.859 200.307,-126.762"/>
</g>
<!-- Node3115 -->
<g id="node4" class="node"><title>Node3115</title>
<g id="a_node4"><a xlink:href="classokw_1_1core_1_1_core.html#a6e3d7fe88a78afa61a1a340dd2da88b7" target="_top" xlink:title="Überprüft die Beschreibung/Label des Objektes.">
<polygon fill="white" stroke="black" points="188,-62 188,-81 349,-81 349,-62 188,-62"/>
<text text-anchor="middle" x="268.5" y="-69" font-family="Helvetica,sans-Serif" font-size="10.00">okw.core.Core.VerifyLabelWCM</text>
</a>
</g>
</g>
<!-- Node3112&#45;&gt;Node3115 -->
<g id="edge3" class="edge"><title>Node3112&#45;&gt;Node3115</title>
<path fill="none" stroke="midnightblue" d="M135.451,-92.9883C155.471,-89.7304 178.054,-86.0555 198.809,-82.6781"/>
<polygon fill="midnightblue" stroke="midnightblue" points="199.523,-86.1079 208.831,-81.0471 198.399,-79.1988 199.523,-86.1079"/>
</g>
<!-- Node3114 -->
<g id="node3" class="node"><title>Node3114</title>
<g id="a_node3"><a xlink:href="interfaceokw_1_1core_1_1_i_o_k_w___state.html#a866baa0bde08a47418f54d63bdb56097" target="_top" xlink:title="Interne Methode zum setzen der Sprache für die sprachabhängigen Ausgaben der Dokumentation (Log).">
<polygon fill="white" stroke="black" points="385,-138 385,-157 567,-157 567,-138 385,-138"/>
<text text-anchor="middle" x="476" y="-145" font-family="Helvetica,sans-Serif" font-size="10.00">okw.core.IOKW_State.setLanguage</text>
</a>
</g>
</g>
<!-- Node3113&#45;&gt;Node3114 -->
<g id="edge2" class="edge"><title>Node3113&#45;&gt;Node3114</title>
<path fill="none" stroke="midnightblue" d="M343.11,-139.157C353.321,-139.803 363.951,-140.475 374.548,-141.145"/>
<polygon fill="midnightblue" stroke="midnightblue" points="374.483,-144.648 384.684,-141.787 374.925,-137.662 374.483,-144.648"/>
</g>
<!-- Node3116 -->
<g id="node5" class="node"><title>Node3116</title>
<g id="a_node5"><a xlink:href="classokw_1_1log_1_1_logger___sngltn.html#a70ec25e200e00ecefc544e8fd371d2ef" target="_top" xlink:title="Ausgabe eines Schlüsselwortes.">
<polygon fill="white" stroke="black" points="404.5,-88.5 404.5,-118.5 547.5,-118.5 547.5,-88.5 404.5,-88.5"/>
<text text-anchor="start" x="412.5" y="-106.5" font-family="Helvetica,sans-Serif" font-size="10.00">okw.log.Logger_Sngltn.Log</text>
<text text-anchor="middle" x="476" y="-95.5" font-family="Helvetica,sans-Serif" font-size="10.00">KeyWordStart</text>
</a>
</g>
</g>
<!-- Node3115&#45;&gt;Node3116 -->
<g id="edge4" class="edge"><title>Node3115&#45;&gt;Node3116</title>
<path fill="none" stroke="midnightblue" d="M330.6,-81.0144C350.619,-84.1317 373.177,-87.6443 394.409,-90.9506"/>
<polygon fill="midnightblue" stroke="midnightblue" points="393.962,-94.4231 404.382,-92.5035 395.04,-87.5065 393.962,-94.4231"/>
</g>
<!-- Node3117 -->
<g id="node6" class="node"><title>Node3117</title>
<g id="a_node6"><a xlink:href="classokw_1_1_log_messenger.html#af225d1f037d47b3b085175c09d78bdd2" target="_top" xlink:title="Holt die Log&#45;Meldung für MethodeNmae/Textkey ohne weitere Parameter.">
<polygon fill="white" stroke="black" points="391.5,-50 391.5,-69 560.5,-69 560.5,-50 391.5,-50"/>
<text text-anchor="middle" x="476" y="-57" font-family="Helvetica,sans-Serif" font-size="10.00">okw.LogMessenger.GetMessage</text>
</a>
</g>
</g>
<!-- Node3115&#45;&gt;Node3117 -->
<g id="edge5" class="edge"><title>Node3115&#45;&gt;Node3117</title>
<path fill="none" stroke="midnightblue" d="M349.246,-66.8433C359.676,-66.2342 370.441,-65.6057 381.078,-64.9845"/>
<polygon fill="midnightblue" stroke="midnightblue" points="381.443,-68.4692 391.222,-64.3921 381.035,-61.4811 381.443,-68.4692"/>
</g>
<!-- Node3120 -->
<g id="node9" class="node"><title>Node3120</title>
<g id="a_node9"><a xlink:href="interfaceokw_1_1core_1_1_i_o_k_w___state.html#aa2e12e52f5fd3c45a5006af52dd9a7db" target="_top" xlink:title="Überprüft die Beschreibung/Label des Objektes.">
<polygon fill="white" stroke="black" points="403,-0.5 403,-30.5 549,-30.5 549,-0.5 403,-0.5"/>
<text text-anchor="start" x="411" y="-18.5" font-family="Helvetica,sans-Serif" font-size="10.00">okw.core.IOKW_State.Verify</text>
<text text-anchor="middle" x="476" y="-7.5" font-family="Helvetica,sans-Serif" font-size="10.00">LabelWCM</text>
</a>
</g>
</g>
<!-- Node3115&#45;&gt;Node3120 -->
<g id="edge8" class="edge"><title>Node3115&#45;&gt;Node3120</title>
<path fill="none" stroke="midnightblue" d="M304.827,-61.8733C333.55,-54.0461 374.857,-42.7894 409.582,-33.3268"/>
<polygon fill="midnightblue" stroke="midnightblue" points="410.926,-36.5882 419.654,-30.5821 409.086,-29.8345 410.926,-36.5882"/>
</g>
<!-- Node3118 -->
<g id="node7" class="node"><title>Node3118</title>
<g id="a_node7"><a xlink:href="classokw_1_1_log_messenger.html#a530cd6ab82ec82a04206a2e976ec06e3" target="_top" xlink:title="Interne Kernfunktion holt die Log&#45;Meldung mit Platzhaltern aus der XML&#45;Datei.">
<polygon fill="white" stroke="black" points="603,-50 603,-69 778,-69 778,-50 603,-50"/>
<text text-anchor="middle" x="690.5" y="-57" font-family="Helvetica,sans-Serif" font-size="10.00">okw.LogMessenger.ReadMessage</text>
</a>
</g>
</g>
<!-- Node3117&#45;&gt;Node3118 -->
<g id="edge6" class="edge"><title>Node3117&#45;&gt;Node3118</title>
<path fill="none" stroke="midnightblue" d="M560.681,-59.5C571.154,-59.5 581.935,-59.5 592.589,-59.5"/>
<polygon fill="midnightblue" stroke="midnightblue" points="592.751,-63.0001 602.751,-59.5 592.751,-56.0001 592.751,-63.0001"/>
</g>
<!-- Node3119 -->
<g id="node8" class="node"><title>Node3119</title>
<g id="a_node8"><a xlink:href="classokw_1_1_o_k_w___xml_reader.html#ab920b5335a2e1429c14cc5f8e79f39eb" target="_top" xlink:title="Lies den TextContent eines Tag.">
<polygon fill="white" stroke="black" points="814,-44.5 814,-74.5 966,-74.5 966,-44.5 814,-44.5"/>
<text text-anchor="start" x="822" y="-62.5" font-family="Helvetica,sans-Serif" font-size="10.00">okw.OKW_XmlReader.getText</text>
<text text-anchor="middle" x="890" y="-51.5" font-family="Helvetica,sans-Serif" font-size="10.00">ContentSingleValue</text>
</a>
</g>
</g>
<!-- Node3118&#45;&gt;Node3119 -->
<g id="edge7" class="edge"><title>Node3118&#45;&gt;Node3119</title>
<path fill="none" stroke="midnightblue" d="M778.126,-59.5C786.6,-59.5 795.195,-59.5 803.656,-59.5"/>
<polygon fill="midnightblue" stroke="midnightblue" points="803.893,-63.0001 813.893,-59.5 803.892,-56.0001 803.893,-63.0001"/>
</g>
</g>
</svg>
        <g id="navigator" transform="translate(0 0)" fill="#404254">
                <rect fill="#f2f5e9" fill-opacity="0.5" stroke="#606060" stroke-width=".5" x="0" y="0" width="60" height="60"/>
                <use id="zoomplus" xlink:href="#zoomPlus" x="17" y="9" onmousedown="handleZoom(evt,'in')"/>
                <use id="zoomminus" xlink:href="#zoomMin" x="42" y="9" onmousedown="handleZoom(evt,'out')"/>
                <use id="reset" xlink:href="#resetDef" x="30" y="36" onmousedown="handleReset()"/>
                <g id="arrowUp" xlink:href="#dirArrow" transform="translate(30 24)" onmousedown="handlePan(0,-1)">
                  <use xlink:href="#rim" fill="#404040">
                        <set attributeName="fill" to="#808080" begin="arrowUp.mouseover" end="arrowUp.mouseout"/>
                  </use>
                  <path fill="none" stroke="white" stroke-width="1.5" d="M0,-3.0v7 M-2.5,-0.5L0,-3.0L2.5,-0.5"/>
                </g>
                <g id="arrowRight" xlink:href="#dirArrow" transform="rotate(90) translate(36 -43)" onmousedown="handlePan(1,0)">
                  <use xlink:href="#rim" fill="#404040">
                        <set attributeName="fill" to="#808080" begin="arrowRight.mouseover" end="arrowRight.mouseout"/>
                  </use>
                  <path fill="none" stroke="white" stroke-width="1.5" d="M0,-3.0v7 M-2.5,-0.5L0,-3.0L2.5,-0.5"/>
                </g>
                <g id="arrowDown" xlink:href="#dirArrow" transform="rotate(180) translate(-30 -48)" onmousedown="handlePan(0,1)">
                  <use xlink:href="#rim" fill="#404040">
                        <set attributeName="fill" to="#808080" begin="arrowDown.mouseover" end="arrowDown.mouseout"/>
                  </use>
                  <path fill="none" stroke="white" stroke-width="1.5" d="M0,-3.0v7 M-2.5,-0.5L0,-3.0L2.5,-0.5"/>
                </g>
                <g id="arrowLeft" xlink:href="#dirArrow" transform="rotate(270) translate(-36 17)" onmousedown="handlePan(-1,0)">
                  <use xlink:href="#rim" fill="#404040">
                        <set attributeName="fill" to="#808080" begin="arrowLeft.mouseover" end="arrowLeft.mouseout"/>
                  </use>
                  <path fill="none" stroke="white" stroke-width="1.5" d="M0,-3.0v7 M-2.5,-0.5L0,-3.0L2.5,-0.5"/>
                </g>
        </g>
        <svg viewBox="0 0 15 15" width="100%" height="30px" preserveAspectRatio="xMaxYMin meet">
         <g id="arrow_out" transform="scale(0.3 0.3)">
          <a xlink:href="classokw_1_1core_1_1_e_n_a70ba07cc0050e6bd89dc133c36972d2a_cgraph_org.svg" target="_base">
           <rect id="button" ry="5" rx="5" y="6" x="6" height="38" width="38"
                fill="#f2f5e9" fill-opacity="0.5" stroke="#606060" stroke-width="1.0"/>
           <path id="arrow"
             d="M 11.500037,31.436501 C 11.940474,20.09759 22.043105,11.32322 32.158766,21.979434 L 37.068811,17.246167 C 37.068811,17.246167 37.088388,32 37.088388,32 L 22.160133,31.978069 C 22.160133,31.978069 26.997745,27.140456 26.997745,27.140456 C 18.528582,18.264221 13.291696,25.230495 11.500037,31.436501 z"
             style="fill:#404040;"/>
          </a>
         </g>
        </svg>
</svg>
