<?xml version="1.0" encoding="UTF-8" standalone="no"?>
<!DOCTYPE svg PUBLIC "-//W3C//DTD SVG 1.1//EN"
 "http://www.w3.org/Graphics/SVG/1.1/DTD/svg11.dtd">
<!-- Generated by graphviz version 2.36.0 (20140111.2315)
 -->
<!-- Title: okw.core.EN.MemorizePlaceholder Pages: 1 -->
<svg width="994pt" height="165pt"
 viewBox="0.00 0.00 994.00 165.00" xmlns="http://www.w3.org/2000/svg" xmlns:xlink="http://www.w3.org/1999/xlink">
<g id="graph0" class="graph" transform="scale(1 1) rotate(0) translate(4 161)">
<title>okw.core.EN.MemorizePlaceholder</title>
<polygon fill="white" stroke="none" points="-4,4 -4,-161 990,-161 990,4 -4,4"/>
<!-- Node1150 -->
<g id="node1" class="node"><title>Node1150</title>
<polygon fill="#bfbfbf" stroke="black" points="0,-92.5 0,-111.5 170,-111.5 170,-92.5 0,-92.5"/>
<text text-anchor="middle" x="85" y="-99.5" font-family="Helvetica,sans-Serif" font-size="10.00">okw.core.EN.MemorizePlaceholder</text>
</g>
<!-- Node1151 -->
<g id="node2" class="node"><title>Node1151</title>
<g id="a_node2"><a xlink:href="classokw_1_1core_1_1_core.html#ab4e0f723d27cb11c944ec4c82c426100" target="_top" xlink:title="Setzt die Sprache auf den gegebenen wert Language. ">
<polygon fill="white" stroke="black" points="225.5,-124.5 225.5,-143.5 364.5,-143.5 364.5,-124.5 225.5,-124.5"/>
<text text-anchor="middle" x="295" y="-131.5" font-family="Helvetica,sans-Serif" font-size="10.00">okw.core.Core.setLanguage</text>
</a>
</g>
</g>
<!-- Node1150&#45;&gt;Node1151 -->
<g id="edge1" class="edge"><title>Node1150&#45;&gt;Node1151</title>
<path fill="none" stroke="midnightblue" d="M147.844,-111.514C171.105,-115.093 197.754,-119.193 221.872,-122.903"/>
<polygon fill="midnightblue" stroke="midnightblue" points="221.619,-126.406 232.035,-124.467 222.684,-119.487 221.619,-126.406"/>
</g>
<!-- Node1153 -->
<g id="node4" class="node"><title>Node1153</title>
<g id="a_node4"><a xlink:href="classokw_1_1core_1_1_core.html#a5f007ae79e3d319dd205ac60a060e16b" target="_top" xlink:title="Speirchert den aktuellen Wert der Platzhalters, und legt diesen unter fpsMemKeyName ab...">
<polygon fill="white" stroke="black" points="206.5,-61.5 206.5,-80.5 383.5,-80.5 383.5,-61.5 206.5,-61.5"/>
<text text-anchor="middle" x="295" y="-68.5" font-family="Helvetica,sans-Serif" font-size="10.00">okw.core.Core.MemorizePlaceholder</text>
</a>
</g>
</g>
<!-- Node1150&#45;&gt;Node1153 -->
<g id="edge3" class="edge"><title>Node1150&#45;&gt;Node1153</title>
<path fill="none" stroke="midnightblue" d="M149.82,-92.4883C171.978,-89.186 197.01,-85.4552 219.925,-82.0401"/>
<polygon fill="midnightblue" stroke="midnightblue" points="220.567,-85.4831 229.942,-80.5471 219.535,-78.5595 220.567,-85.4831"/>
</g>
<!-- Node1152 -->
<g id="node3" class="node"><title>Node1152</title>
<g id="a_node3"><a xlink:href="interfaceokw_1_1core_1_1_i_o_k_w___state.html#a866baa0bde08a47418f54d63bdb56097" target="_top" xlink:title="Interne Methode zum setzen der Sprache f체r die sprachabh채ngigen Ausgaben der Dokumentation (Log)...">
<polygon fill="white" stroke="black" points="420.5,-137.5 420.5,-156.5 593.5,-156.5 593.5,-137.5 420.5,-137.5"/>
<text text-anchor="middle" x="507" y="-144.5" font-family="Helvetica,sans-Serif" font-size="10.00">okw.core.IOKW_State.setLanguage</text>
</a>
</g>
</g>
<!-- Node1151&#45;&gt;Node1152 -->
<g id="edge2" class="edge"><title>Node1151&#45;&gt;Node1152</title>
<path fill="none" stroke="midnightblue" d="M364.762,-138.257C379.284,-139.156 394.861,-140.12 410.175,-141.068"/>
<polygon fill="midnightblue" stroke="midnightblue" points="409.99,-144.563 420.187,-141.688 410.423,-137.577 409.99,-144.563"/>
</g>
<!-- Node1154 -->
<g id="node5" class="node"><title>Node1154</title>
<g id="a_node5"><a xlink:href="classokw_1_1log_1_1_logger___sngltn.html#a70ec25e200e00ecefc544e8fd371d2ef" target="_top" xlink:title="Ausgabe eines Schl체sselwortes. ">
<polygon fill="white" stroke="black" points="440,-88 440,-118 574,-118 574,-88 440,-88"/>
<text text-anchor="start" x="448" y="-106" font-family="Helvetica,sans-Serif" font-size="10.00">okw.log.Logger_Sngltn.Log</text>
<text text-anchor="middle" x="507" y="-95" font-family="Helvetica,sans-Serif" font-size="10.00">KeyWordStart</text>
</a>
</g>
</g>
<!-- Node1153&#45;&gt;Node1154 -->
<g id="edge4" class="edge"><title>Node1153&#45;&gt;Node1154</title>
<path fill="none" stroke="midnightblue" d="M358.438,-80.5144C380.866,-83.9319 406.412,-87.8247 429.873,-91.3996"/>
<polygon fill="midnightblue" stroke="midnightblue" points="429.371,-94.8636 439.784,-92.91 430.426,-87.9434 429.371,-94.8636"/>
</g>
<!-- Node1155 -->
<g id="node6" class="node"><title>Node1155</title>
<g id="a_node6"><a xlink:href="classokw_1_1_log_messenger.html#af225d1f037d47b3b085175c09d78bdd2" target="_top" xlink:title="Holt die Log&#45;Meldung f체r MethodeNmae/Textkey ohne weitere Parameter. ">
<polygon fill="white" stroke="black" points="427,-49.5 427,-68.5 587,-68.5 587,-49.5 427,-49.5"/>
<text text-anchor="middle" x="507" y="-56.5" font-family="Helvetica,sans-Serif" font-size="10.00">okw.LogMessenger.GetMessage</text>
</a>
</g>
</g>
<!-- Node1153&#45;&gt;Node1155 -->
<g id="edge5" class="edge"><title>Node1153&#45;&gt;Node1155</title>
<path fill="none" stroke="midnightblue" d="M383.538,-65.9978C394.567,-65.3676 405.861,-64.7222 416.914,-64.0906"/>
<polygon fill="midnightblue" stroke="midnightblue" points="417.198,-67.5802 426.982,-63.5153 416.799,-60.5916 417.198,-67.5802"/>
</g>
<!-- Node1158 -->
<g id="node9" class="node"><title>Node1158</title>
<g id="a_node9"><a xlink:href="interfaceokw_1_1core_1_1_i_o_k_w___state.html#ad965c719cd59cf1d91c1aa37f1da9f63" target="_top" xlink:title="Speirchert den aktuellen Wert der Platzhalters, und legt diesen unter fpsMemKeyName ab...">
<polygon fill="white" stroke="black" points="426.5,-0 426.5,-30 587.5,-30 587.5,-0 426.5,-0"/>
<text text-anchor="start" x="434.5" y="-18" font-family="Helvetica,sans-Serif" font-size="10.00">okw.core.IOKW_State.Memorize</text>
<text text-anchor="middle" x="507" y="-7" font-family="Helvetica,sans-Serif" font-size="10.00">Placeholder</text>
</a>
</g>
</g>
<!-- Node1153&#45;&gt;Node1158 -->
<g id="edge8" class="edge"><title>Node1153&#45;&gt;Node1158</title>
<path fill="none" stroke="midnightblue" d="M332.1,-61.3733C361.578,-53.5125 404.027,-42.1928 439.606,-32.7051"/>
<polygon fill="midnightblue" stroke="midnightblue" points="440.682,-36.0406 449.442,-30.0821 438.878,-29.277 440.682,-36.0406"/>
</g>
<!-- Node1156 -->
<g id="node7" class="node"><title>Node1156</title>
<g id="a_node7"><a xlink:href="classokw_1_1_log_messenger.html#a530cd6ab82ec82a04206a2e976ec06e3" target="_top" xlink:title="Interne Kernfunktion holt die Log&#45;Meldung mit Platzhaltern aus der XML&#45;Datei. ">
<polygon fill="white" stroke="black" points="630.5,-49.5 630.5,-68.5 797.5,-68.5 797.5,-49.5 630.5,-49.5"/>
<text text-anchor="middle" x="714" y="-56.5" font-family="Helvetica,sans-Serif" font-size="10.00">okw.LogMessenger.ReadMessage</text>
</a>
</g>
</g>
<!-- Node1155&#45;&gt;Node1156 -->
<g id="edge6" class="edge"><title>Node1155&#45;&gt;Node1156</title>
<path fill="none" stroke="midnightblue" d="M587.258,-59C598.041,-59 609.186,-59 620.181,-59"/>
<polygon fill="midnightblue" stroke="midnightblue" points="620.222,-62.5001 630.222,-59 620.222,-55.5001 620.222,-62.5001"/>
</g>
<!-- Node1157 -->
<g id="node8" class="node"><title>Node1157</title>
<g id="a_node8"><a xlink:href="classokw_1_1_o_k_w___xml_reader.html#ab920b5335a2e1429c14cc5f8e79f39eb" target="_top" xlink:title="Lies den TextContent eines Tag. ">
<polygon fill="white" stroke="black" points="834,-44 834,-74 986,-74 986,-44 834,-44"/>
<text text-anchor="start" x="842" y="-62" font-family="Helvetica,sans-Serif" font-size="10.00">okw.OKW_XmlReader.getText</text>
<text text-anchor="middle" x="910" y="-51" font-family="Helvetica,sans-Serif" font-size="10.00">ContentSingleValue</text>
</a>
</g>
</g>
<!-- Node1156&#45;&gt;Node1157 -->
<g id="edge7" class="edge"><title>Node1156&#45;&gt;Node1157</title>
<path fill="none" stroke="midnightblue" d="M797.555,-59C806.227,-59 815.057,-59 823.759,-59"/>
<polygon fill="midnightblue" stroke="midnightblue" points="823.899,-62.5001 833.899,-59 823.899,-55.5001 823.899,-62.5001"/>
</g>
</g>
</svg>
