<?xml version="1.0" encoding="UTF-8" standalone="no"?>
<!DOCTYPE svg PUBLIC "-//W3C//DTD SVG 1.1//EN"
 "http://www.w3.org/Graphics/SVG/1.1/DTD/svg11.dtd">
<!-- Generated by graphviz version 2.38.0 (20140413.2041)
 -->
<!-- Title: okw.gui.adapter.selenium.SeAnyWindow.MemorizeIsActive Pages: 1 -->
<!--zoomable 318 -->
<svg id="main" version="1.1" xmlns="http://www.w3.org/2000/svg" xmlns:xlink="http://www.w3.org/1999/xlink" xml:space="preserve" onload="init(evt)">
<style type="text/css"><![CDATA[
.edge:hover path { stroke: red; }
.edge:hover polygon { stroke: red; fill: red; }
]]></style>
<script type="text/javascript"><![CDATA[
var edges = document.getElementsByTagName('g');
if (edges && edges.length) {
  for (var i=0;i<edges.length;i++) {
    if (edges[i].id.substr(0,4)=='edge') {
      edges[i].setAttribute('class','edge');
    }
  }
}
]]></script>
        <defs>
                <circle id="rim" cx="0" cy="0" r="7"/>
                <circle id="rim2" cx="0" cy="0" r="3.5"/>
                <g id="zoomPlus">
                        <use xlink:href="#rim" fill="#404040">
                                <set attributeName="fill" to="#808080" begin="zoomplus.mouseover" end="zoomplus.mouseout"/>
                        </use>
                        <path d="M-4,0h8M0,-4v8" fill="none" stroke="white" stroke-width="1.5" pointer-events="none"/>
                </g>
                <g id="zoomMin">
                        <use xlink:href="#rim" fill="#404040">
                                <set attributeName="fill" to="#808080" begin="zoomminus.mouseover" end="zoomminus.mouseout"/>
                        </use>
                        <path d="M-4,0h8" fill="none" stroke="white" stroke-width="1.5" pointer-events="none"/>
                </g>
                <g id="dirArrow">
                        <path fill="none" stroke="white" stroke-width="1.5" d="M0,-3.0v7 M-2.5,-0.5L0,-3.0L2.5,-0.5"/>
                </g>
               <g id="resetDef">
                       <use xlink:href="#rim2" fill="#404040">
                               <set attributeName="fill" to="#808080" begin="reset.mouseover" end="reset.mouseout"/>
                       </use>
               </g>
        </defs>

<script type="text/javascript">
var viewWidth = 1006;
var viewHeight = 318;
var sectionId = 'dynsection-29';
</script>
<script xlink:href="svgpan.js"/>
<svg id="graph" class="graph">
<g id="viewport">
<title>okw.gui.adapter.selenium.SeAnyWindow.MemorizeIsActive</title>
<polygon fill="white" stroke="none" points="-4,4 -4,-314 1002,-314 1002,4 -4,4"/>
<!-- Node373 -->
<g id="node1" class="node"><title>Node373</title>
<g id="a_node1"><a xlink:title="Ermittelt für das Schlüsselwort MerkeIstAktive, ob das aktuelle Objekt aktiv ist.">
<polygon fill="#bfbfbf" stroke="black" points="0,-142.5 0,-172.5 169,-172.5 169,-142.5 0,-142.5"/>
<text text-anchor="start" x="8" y="-160.5" font-family="Helvetica,sans-Serif" font-size="10.00">okw.gui.adapter.selenium.</text>
<text text-anchor="middle" x="84.5" y="-149.5" font-family="Helvetica,sans-Serif" font-size="10.00">SeAnyWindow.MemorizeIsActive</text>
</a>
</g>
</g>
<!-- Node374 -->
<g id="node2" class="node"><title>Node374</title>
<g id="a_node2"><a xlink:href="classokw_1_1gui_1_1adapter_1_1selenium_1_1_se_any_window.html#a471a1346a97ca3365eb4274adcde296b" target="_top" xlink:title="Ermittelt, ob das aktuellen Objekt aktiv ist.">
<polygon fill="white" stroke="black" points="205,-142.5 205,-172.5 345,-172.5 345,-142.5 205,-142.5"/>
<text text-anchor="start" x="213" y="-160.5" font-family="Helvetica,sans-Serif" font-size="10.00">okw.gui.adapter.selenium.</text>
<text text-anchor="middle" x="275" y="-149.5" font-family="Helvetica,sans-Serif" font-size="10.00">SeAnyWindow.getIsActive</text>
</a>
</g>
</g>
<!-- Node373&#45;&gt;Node374 -->
<g id="edge1" class="edge"><title>Node373&#45;&gt;Node374</title>
<path fill="none" stroke="midnightblue" d="M169.002,-157.5C177.543,-157.5 186.204,-157.5 194.698,-157.5"/>
<polygon fill="midnightblue" stroke="midnightblue" points="194.958,-161 204.958,-157.5 194.958,-154 194.958,-161"/>
</g>
<!-- Node375 -->
<g id="node3" class="node"><title>Node375</title>
<g id="a_node3"><a xlink:href="classokw_1_1gui_1_1adapter_1_1selenium_1_1_se_any_window.html#ad806d20bf0e42d47e0aa5282532d3230" target="_top" xlink:title="Prüft die Existenz des aktuellen Objektes.">
<polygon fill="white" stroke="black" points="395.5,-142.5 395.5,-172.5 535.5,-172.5 535.5,-142.5 395.5,-142.5"/>
<text text-anchor="start" x="403.5" y="-160.5" font-family="Helvetica,sans-Serif" font-size="10.00">okw.gui.adapter.selenium.</text>
<text text-anchor="middle" x="465.5" y="-149.5" font-family="Helvetica,sans-Serif" font-size="10.00">SeAnyWindow.getExists</text>
</a>
</g>
</g>
<!-- Node374&#45;&gt;Node375 -->
<g id="edge2" class="edge"><title>Node374&#45;&gt;Node375</title>
<path fill="none" stroke="midnightblue" d="M345.12,-157.5C358.182,-157.5 371.939,-157.5 385.283,-157.5"/>
<polygon fill="midnightblue" stroke="midnightblue" points="385.388,-161 395.388,-157.5 385.388,-154 385.388,-161"/>
</g>
<!-- Node383 -->
<g id="node11" class="node"><title>Node383</title>
<g id="a_node11"><a xlink:href="classokw_1_1_log_messenger.html#af225d1f037d47b3b085175c09d78bdd2" target="_top" xlink:title="Holt die Log&#45;Meldung für MethodeNmae/Textkey ohne weitere Parameter.">
<polygon fill="white" stroke="black" points="381,-55 381,-74 550,-74 550,-55 381,-55"/>
<text text-anchor="middle" x="465.5" y="-62" font-family="Helvetica,sans-Serif" font-size="10.00">okw.LogMessenger.GetMessage</text>
</a>
</g>
</g>
<!-- Node374&#45;&gt;Node383 -->
<g id="edge10" class="edge"><title>Node374&#45;&gt;Node383</title>
<path fill="none" stroke="midnightblue" d="M306.705,-142.351C342.465,-124.708 401.068,-95.7955 435.9,-78.6102"/>
<polygon fill="midnightblue" stroke="midnightblue" points="437.636,-81.6565 445.056,-74.0932 434.539,-75.379 437.636,-81.6565"/>
</g>
<!-- Node386 -->
<g id="node14" class="node"><title>Node386</title>
<g id="a_node14"><a xlink:href="classokw_1_1gui_1_1adapter_1_1selenium_1_1_se_any_window.html#a8b42bf27f4660b4807375a57fa9de815" target="_top" xlink:title="Ermittelt aus dem gegebenen Locator das DOM&#45;Elelement, welches das Objekt representiert.">
<polygon fill="white" stroke="black" points="395.5,-210.5 395.5,-240.5 535.5,-240.5 535.5,-210.5 395.5,-210.5"/>
<text text-anchor="start" x="403.5" y="-228.5" font-family="Helvetica,sans-Serif" font-size="10.00">okw.gui.adapter.selenium.</text>
<text text-anchor="middle" x="465.5" y="-217.5" font-family="Helvetica,sans-Serif" font-size="10.00">SeAnyWindow.Me</text>
</a>
</g>
</g>
<!-- Node374&#45;&gt;Node386 -->
<g id="edge13" class="edge"><title>Node374&#45;&gt;Node386</title>
<path fill="none" stroke="midnightblue" d="M317.834,-172.591C346.021,-182.76 383.38,-196.236 413.337,-207.043"/>
<polygon fill="midnightblue" stroke="midnightblue" points="412.188,-210.35 422.783,-210.451 414.564,-203.765 412.188,-210.35"/>
</g>
<!-- Node376 -->
<g id="node4" class="node"><title>Node376</title>
<g id="a_node4"><a xlink:href="classokw_1_1gui_1_1_any_win_base.html#a9929f6fae1f4e2c20df79d32d5bc79db" target="_top" xlink:title="Holt den vollständig (rekursiv) aufgelösten (z.B.">
<polygon fill="white" stroke="black" points="596.5,-192 596.5,-211 763.5,-211 763.5,-192 596.5,-192"/>
<text text-anchor="middle" x="680" y="-199" font-family="Helvetica,sans-Serif" font-size="10.00">okw.gui.AnyWinBase.getLocator</text>
</a>
</g>
</g>
<!-- Node375&#45;&gt;Node376 -->
<g id="edge3" class="edge"><title>Node375&#45;&gt;Node376</title>
<path fill="none" stroke="midnightblue" d="M535.682,-172.031C552.168,-175.478 569.706,-179.131 586,-182.5 597.725,-184.924 610.286,-187.503 622.264,-189.953"/>
<polygon fill="midnightblue" stroke="midnightblue" points="621.658,-193.402 632.157,-191.975 623.06,-186.543 621.658,-193.402"/>
</g>
<!-- Node378 -->
<g id="node6" class="node"><title>Node378</title>
<g id="a_node6"><a xlink:href="classokw_1_1gui_1_1adapter_1_1selenium_1_1webdriver_1_1_se_driver.html#aee9e3f8a67f4ad1f8100a33ba71c926e" target="_top" xlink:title="Gibt die Instance für die einzige Instanz dieser Klasse zurück.">
<polygon fill="white" stroke="black" points="586,-230.5 586,-260.5 774,-260.5 774,-230.5 586,-230.5"/>
<text text-anchor="start" x="594" y="-248.5" font-family="Helvetica,sans-Serif" font-size="10.00">okw.gui.adapter.selenium.webdriver.</text>
<text text-anchor="middle" x="680" y="-237.5" font-family="Helvetica,sans-Serif" font-size="10.00">SeDriver.getInstance</text>
</a>
</g>
</g>
<!-- Node375&#45;&gt;Node378 -->
<g id="edge5" class="edge"><title>Node375&#45;&gt;Node378</title>
<path fill="none" stroke="midnightblue" d="M495.1,-172.565C511.224,-181.06 531.738,-191.869 550,-201.5 566.003,-209.939 569.16,-213.888 586,-220.5 592.274,-222.963 598.878,-225.27 605.552,-227.41"/>
<polygon fill="midnightblue" stroke="midnightblue" points="604.765,-230.829 615.352,-230.423 606.822,-224.138 604.765,-230.829"/>
</g>
<!-- Node379 -->
<g id="node7" class="node"><title>Node379</title>
<g id="a_node7"><a xlink:href="classokw_1_1gui_1_1adapter_1_1selenium_1_1webdriver_1_1_se_driver.html#a3505c2c7aba67399be71f26d15489839" target="_top" xlink:title="Ermittelt das Webelement mit der gegebenen frameID und dem gegebenen Locator.">
<polygon fill="white" stroke="black" points="586,-142.5 586,-172.5 774,-172.5 774,-142.5 586,-142.5"/>
<text text-anchor="start" x="594" y="-160.5" font-family="Helvetica,sans-Serif" font-size="10.00">okw.gui.adapter.selenium.webdriver.</text>
<text text-anchor="middle" x="680" y="-149.5" font-family="Helvetica,sans-Serif" font-size="10.00">SeDriver.getElements</text>
</a>
</g>
</g>
<!-- Node375&#45;&gt;Node379 -->
<g id="edge6" class="edge"><title>Node375&#45;&gt;Node379</title>
<path fill="none" stroke="midnightblue" d="M535.786,-157.5C548.526,-157.5 562.076,-157.5 575.566,-157.5"/>
<polygon fill="midnightblue" stroke="midnightblue" points="575.855,-161 585.855,-157.5 575.855,-154 575.855,-161"/>
</g>
<!-- Node381 -->
<g id="node9" class="node"><title>Node381</title>
<g id="a_node9"><a xlink:href="classokw_1_1log_1_1_logger___sngltn.html#a2c15e9b2cd0c6266f4c67b8cb00d92e5" target="_top" xlink:title="LogWarning Function: Logs a warning to the results file.">
<polygon fill="white" stroke="black" points="608.5,-44.5 608.5,-74.5 751.5,-74.5 751.5,-44.5 608.5,-44.5"/>
<text text-anchor="start" x="616.5" y="-62.5" font-family="Helvetica,sans-Serif" font-size="10.00">okw.log.Logger_Sngltn.Log</text>
<text text-anchor="middle" x="680" y="-51.5" font-family="Helvetica,sans-Serif" font-size="10.00">Warning</text>
</a>
</g>
</g>
<!-- Node375&#45;&gt;Node381 -->
<g id="edge8" class="edge"><title>Node375&#45;&gt;Node381</title>
<path fill="none" stroke="midnightblue" d="M486.611,-142.39C509.559,-125.798 548.745,-99.405 586,-83.5 590.766,-81.4652 595.745,-79.5708 600.816,-77.8126"/>
<polygon fill="midnightblue" stroke="midnightblue" points="602.231,-81.0325 610.648,-74.5984 600.056,-74.379 602.231,-81.0325"/>
</g>
<!-- Node382 -->
<g id="node10" class="node"><title>Node382</title>
<g id="a_node10"><a xlink:href="classokw_1_1log_1_1_logger___sngltn.html#a313f97c79ba4662d9daaf7f537dd02f4" target="_top" xlink:title="Loggt eine Nachricht.">
<polygon fill="white" stroke="black" points="608.5,-93.5 608.5,-123.5 751.5,-123.5 751.5,-93.5 608.5,-93.5"/>
<text text-anchor="start" x="616.5" y="-111.5" font-family="Helvetica,sans-Serif" font-size="10.00">okw.log.Logger_Sngltn.Log</text>
<text text-anchor="middle" x="680" y="-100.5" font-family="Helvetica,sans-Serif" font-size="10.00">PrintDebug</text>
</a>
</g>
</g>
<!-- Node375&#45;&gt;Node382 -->
<g id="edge9" class="edge"><title>Node375&#45;&gt;Node382</title>
<path fill="none" stroke="midnightblue" d="M531.701,-142.465C554.546,-137.198 580.383,-131.24 603.968,-125.802"/>
<polygon fill="midnightblue" stroke="midnightblue" points="604.964,-129.164 613.922,-123.506 603.391,-122.343 604.964,-129.164"/>
</g>
<!-- Node377 -->
<g id="node5" class="node"><title>Node377</title>
<g id="a_node5"><a xlink:href="classokw_1_1gui_1_1_o_k_w_locator.html#adc74fc2125dd048dc1cb84e011f47ec8" target="_top" xlink:title="Holt den vollständig (rekursiv) aufgelösten (z.B.">
<polygon fill="white" stroke="black" points="821,-192 821,-211 987,-211 987,-192 821,-192"/>
<text text-anchor="middle" x="904" y="-199" font-family="Helvetica,sans-Serif" font-size="10.00">okw.gui.OKWLocator.getLocator</text>
</a>
</g>
</g>
<!-- Node376&#45;&gt;Node377 -->
<g id="edge4" class="edge"><title>Node376&#45;&gt;Node377</title>
<path fill="none" stroke="midnightblue" d="M763.665,-201.5C778.935,-201.5 794.971,-201.5 810.51,-201.5"/>
<polygon fill="midnightblue" stroke="midnightblue" points="810.636,-205 820.636,-201.5 810.636,-198 810.636,-205"/>
</g>
<!-- Node380 -->
<g id="node8" class="node"><title>Node380</title>
<g id="a_node8"><a xlink:href="classokw_1_1gui_1_1adapter_1_1selenium_1_1webdriver_1_1_se_driver.html#a47eec72c911c05beb2127672daafb325" target="_top" xlink:title="Wechselt das aktuelle Frame auf das Frame mit der id=iframeID.">
<polygon fill="white" stroke="black" points="810,-230.5 810,-260.5 998,-260.5 998,-230.5 810,-230.5"/>
<text text-anchor="start" x="818" y="-248.5" font-family="Helvetica,sans-Serif" font-size="10.00">okw.gui.adapter.selenium.webdriver.</text>
<text text-anchor="middle" x="904" y="-237.5" font-family="Helvetica,sans-Serif" font-size="10.00">SeDriver.swichToFrame</text>
</a>
</g>
</g>
<!-- Node379&#45;&gt;Node380 -->
<g id="edge7" class="edge"><title>Node379&#45;&gt;Node380</title>
<path fill="none" stroke="midnightblue" d="M753.219,-172.604C760.473,-175.378 767.537,-178.648 774,-182.5 793.984,-194.411 790.016,-208.589 810,-220.5 813.635,-222.667 817.461,-224.65 821.404,-226.463"/>
<polygon fill="midnightblue" stroke="midnightblue" points="820.206,-229.756 830.781,-230.396 822.913,-223.301 820.206,-229.756"/>
</g>
<!-- Node384 -->
<g id="node12" class="node"><title>Node384</title>
<g id="a_node12"><a xlink:href="classokw_1_1_log_messenger.html#a530cd6ab82ec82a04206a2e976ec06e3" target="_top" xlink:title="Interne Kernfunktion holt die Log&#45;Meldung mit Platzhaltern aus der XML&#45;Datei.">
<polygon fill="white" stroke="black" points="592.5,-6 592.5,-25 767.5,-25 767.5,-6 592.5,-6"/>
<text text-anchor="middle" x="680" y="-13" font-family="Helvetica,sans-Serif" font-size="10.00">okw.LogMessenger.ReadMessage</text>
</a>
</g>
</g>
<!-- Node383&#45;&gt;Node384 -->
<g id="edge11" class="edge"><title>Node383&#45;&gt;Node384</title>
<path fill="none" stroke="midnightblue" d="M502.746,-54.9554C526.386,-48.8405 557.947,-40.8836 586,-34.5 597.061,-31.983 608.898,-29.4459 620.293,-27.0814"/>
<polygon fill="midnightblue" stroke="midnightblue" points="621.073,-30.4945 630.163,-25.0528 619.663,-23.6378 621.073,-30.4945"/>
</g>
<!-- Node385 -->
<g id="node13" class="node"><title>Node385</title>
<g id="a_node13"><a xlink:href="classokw_1_1_o_k_w___xml_reader.html#ab920b5335a2e1429c14cc5f8e79f39eb" target="_top" xlink:title="Lies den TextContent eines Tag.">
<polygon fill="white" stroke="black" points="828,-0.5 828,-30.5 980,-30.5 980,-0.5 828,-0.5"/>
<text text-anchor="start" x="836" y="-18.5" font-family="Helvetica,sans-Serif" font-size="10.00">okw.OKW_XmlReader.getText</text>
<text text-anchor="middle" x="904" y="-7.5" font-family="Helvetica,sans-Serif" font-size="10.00">ContentSingleValue</text>
</a>
</g>
</g>
<!-- Node384&#45;&gt;Node385 -->
<g id="edge12" class="edge"><title>Node384&#45;&gt;Node385</title>
<path fill="none" stroke="midnightblue" d="M767.785,-15.5C784.2,-15.5 801.359,-15.5 817.727,-15.5"/>
<polygon fill="midnightblue" stroke="midnightblue" points="817.803,-19.0001 827.803,-15.5 817.803,-12.0001 817.803,-19.0001"/>
</g>
<!-- Node386&#45;&gt;Node376 -->
<g id="edge18" class="edge"><title>Node386&#45;&gt;Node376</title>
<path fill="none" stroke="midnightblue" d="M535.786,-217.675C551.986,-215.845 569.495,-213.868 586.523,-211.944"/>
<polygon fill="midnightblue" stroke="midnightblue" points="586.937,-215.42 596.481,-210.82 586.151,-208.464 586.937,-215.42"/>
</g>
<!-- Node386&#45;&gt;Node378 -->
<g id="edge14" class="edge"><title>Node386&#45;&gt;Node378</title>
<path fill="none" stroke="midnightblue" d="M535.786,-232.021C548.526,-233.22 562.076,-234.495 575.566,-235.765"/>
<polygon fill="midnightblue" stroke="midnightblue" points="575.571,-239.281 585.855,-236.733 576.227,-232.312 575.571,-239.281"/>
</g>
<!-- Node387 -->
<g id="node15" class="node"><title>Node387</title>
<g id="a_node15"><a xlink:href="classokw_1_1gui_1_1adapter_1_1selenium_1_1webdriver_1_1_se_driver.html#a6d879107786a94ebbdbd42b4ac6c6acf" target="_top" xlink:title="Ermittelt das Webelement mit der gegebenen frameID und dem gegebenen Locator.">
<polygon fill="white" stroke="black" points="586,-279.5 586,-309.5 774,-309.5 774,-279.5 586,-279.5"/>
<text text-anchor="start" x="594" y="-297.5" font-family="Helvetica,sans-Serif" font-size="10.00">okw.gui.adapter.selenium.webdriver.</text>
<text text-anchor="middle" x="680" y="-286.5" font-family="Helvetica,sans-Serif" font-size="10.00">SeDriver.getElement</text>
</a>
</g>
</g>
<!-- Node386&#45;&gt;Node387 -->
<g id="edge15" class="edge"><title>Node386&#45;&gt;Node387</title>
<path fill="none" stroke="midnightblue" d="M503.282,-240.524C526.732,-249.809 557.888,-261.608 586,-270.5 592.777,-272.644 599.875,-274.739 607,-276.742"/>
<polygon fill="midnightblue" stroke="midnightblue" points="606.134,-280.134 616.705,-279.413 607.992,-273.385 606.134,-280.134"/>
</g>
<!-- Node387&#45;&gt;Node380 -->
<g id="edge16" class="edge"><title>Node387&#45;&gt;Node380</title>
<path fill="none" stroke="midnightblue" d="M749.116,-279.465C773.089,-274.174 800.215,-268.187 824.943,-262.729"/>
<polygon fill="midnightblue" stroke="midnightblue" points="826.002,-266.079 835.013,-260.506 824.493,-259.244 826.002,-266.079"/>
</g>
<!-- Node388 -->
<g id="node16" class="node"><title>Node388</title>
<g id="a_node16"><a xlink:href="classokw_1_1log_1_1_logger___sngltn.html#a8ebceaddd6cc6963ddb8e08c72ea808c" target="_top" xlink:title="LogPrint Function: Prints the values of expressions to the results file.">
<polygon fill="white" stroke="black" points="832.5,-279.5 832.5,-309.5 975.5,-309.5 975.5,-279.5 832.5,-279.5"/>
<text text-anchor="start" x="840.5" y="-297.5" font-family="Helvetica,sans-Serif" font-size="10.00">okw.log.Logger_Sngltn.Log</text>
<text text-anchor="middle" x="904" y="-286.5" font-family="Helvetica,sans-Serif" font-size="10.00">Print</text>
</a>
</g>
</g>
<!-- Node387&#45;&gt;Node388 -->
<g id="edge17" class="edge"><title>Node387&#45;&gt;Node388</title>
<path fill="none" stroke="midnightblue" d="M774.183,-294.5C790.146,-294.5 806.614,-294.5 822.22,-294.5"/>
<polygon fill="midnightblue" stroke="midnightblue" points="822.336,-298 832.336,-294.5 822.336,-291 822.336,-298"/>
</g>
</g>
</svg>
        <g id="navigator" transform="translate(0 0)" fill="#404254">
                <rect fill="#f2f5e9" fill-opacity="0.5" stroke="#606060" stroke-width=".5" x="0" y="0" width="60" height="60"/>
                <use id="zoomplus" xlink:href="#zoomPlus" x="17" y="9" onmousedown="handleZoom(evt,'in')"/>
                <use id="zoomminus" xlink:href="#zoomMin" x="42" y="9" onmousedown="handleZoom(evt,'out')"/>
                <use id="reset" xlink:href="#resetDef" x="30" y="36" onmousedown="handleReset()"/>
                <g id="arrowUp" xlink:href="#dirArrow" transform="translate(30 24)" onmousedown="handlePan(0,-1)">
                  <use xlink:href="#rim" fill="#404040">
                        <set attributeName="fill" to="#808080" begin="arrowUp.mouseover" end="arrowUp.mouseout"/>
                  </use>
                  <path fill="none" stroke="white" stroke-width="1.5" d="M0,-3.0v7 M-2.5,-0.5L0,-3.0L2.5,-0.5"/>
                </g>
                <g id="arrowRight" xlink:href="#dirArrow" transform="rotate(90) translate(36 -43)" onmousedown="handlePan(1,0)">
                  <use xlink:href="#rim" fill="#404040">
                        <set attributeName="fill" to="#808080" begin="arrowRight.mouseover" end="arrowRight.mouseout"/>
                  </use>
                  <path fill="none" stroke="white" stroke-width="1.5" d="M0,-3.0v7 M-2.5,-0.5L0,-3.0L2.5,-0.5"/>
                </g>
                <g id="arrowDown" xlink:href="#dirArrow" transform="rotate(180) translate(-30 -48)" onmousedown="handlePan(0,1)">
                  <use xlink:href="#rim" fill="#404040">
                        <set attributeName="fill" to="#808080" begin="arrowDown.mouseover" end="arrowDown.mouseout"/>
                  </use>
                  <path fill="none" stroke="white" stroke-width="1.5" d="M0,-3.0v7 M-2.5,-0.5L0,-3.0L2.5,-0.5"/>
                </g>
                <g id="arrowLeft" xlink:href="#dirArrow" transform="rotate(270) translate(-36 17)" onmousedown="handlePan(-1,0)">
                  <use xlink:href="#rim" fill="#404040">
                        <set attributeName="fill" to="#808080" begin="arrowLeft.mouseover" end="arrowLeft.mouseout"/>
                  </use>
                  <path fill="none" stroke="white" stroke-width="1.5" d="M0,-3.0v7 M-2.5,-0.5L0,-3.0L2.5,-0.5"/>
                </g>
        </g>
        <svg viewBox="0 0 15 15" width="100%" height="30px" preserveAspectRatio="xMaxYMin meet">
         <g id="arrow_out" transform="scale(0.3 0.3)">
          <a xlink:href="classokw_1_1gui_1_1adapter_1_1selenium_1_1_se_any_window_a4c220e499764b9b1523bee0e68727699_cgraph_org.svg" target="_base">
           <rect id="button" ry="5" rx="5" y="6" x="6" height="38" width="38"
                fill="#f2f5e9" fill-opacity="0.5" stroke="#606060" stroke-width="1.0"/>
           <path id="arrow"
             d="M 11.500037,31.436501 C 11.940474,20.09759 22.043105,11.32322 32.158766,21.979434 L 37.068811,17.246167 C 37.068811,17.246167 37.088388,32 37.088388,32 L 22.160133,31.978069 C 22.160133,31.978069 26.997745,27.140456 26.997745,27.140456 C 18.528582,18.264221 13.291696,25.230495 11.500037,31.436501 z"
             style="fill:#404040;"/>
          </a>
         </g>
        </svg>
</svg>
