<?xml version="1.0" encoding="UTF-8" standalone="no"?>
<!DOCTYPE svg PUBLIC "-//W3C//DTD SVG 1.1//EN"
 "http://www.w3.org/Graphics/SVG/1.1/DTD/svg11.dtd">
<!-- Generated by graphviz version 2.36.0 (20140111.2315)
 -->
<!-- Title: okw.core.NOK.BeginTest Pages: 1 -->
<!--zoomable 263 -->
<svg id="main" version="1.1" xmlns="http://www.w3.org/2000/svg" xmlns:xlink="http://www.w3.org/1999/xlink" xml:space="preserve" onload="init(evt)">
<style type="text/css"><![CDATA[
.edge:hover path { stroke: red; }
.edge:hover polygon { stroke: red; fill: red; }
]]></style>
<script type="text/javascript"><![CDATA[
var edges = document.getElementsByTagName('g');
if (edges && edges.length) {
  for (var i=0;i<edges.length;i++) {
    if (edges[i].id.substr(0,4)=='edge') {
      edges[i].setAttribute('class','edge');
    }
  }
}
]]></script>
        <defs>
                <circle id="rim" cx="0" cy="0" r="7"/>
                <circle id="rim2" cx="0" cy="0" r="3.5"/>
                <g id="zoomPlus">
                        <use xlink:href="#rim" fill="#404040">
                                <set attributeName="fill" to="#808080" begin="zoomplus.mouseover" end="zoomplus.mouseout"/>
                        </use>
                        <path d="M-4,0h8M0,-4v8" fill="none" stroke="white" stroke-width="1.5" pointer-events="none"/>
                </g>
                <g id="zoomMin">
                        <use xlink:href="#rim" fill="#404040">
                                <set attributeName="fill" to="#808080" begin="zoomminus.mouseover" end="zoomminus.mouseout"/>
                        </use>
                        <path d="M-4,0h8" fill="none" stroke="white" stroke-width="1.5" pointer-events="none"/>
                </g>
                <g id="dirArrow">
                        <path fill="none" stroke="white" stroke-width="1.5" d="M0,-3.0v7 M-2.5,-0.5L0,-3.0L2.5,-0.5"/>
                </g>
               <g id="resetDef">
                       <use xlink:href="#rim2" fill="#404040">
                               <set attributeName="fill" to="#808080" begin="reset.mouseover" end="reset.mouseout"/>
                       </use>
               </g>
        </defs>

<script type="text/javascript">
var viewWidth = 928;
var viewHeight = 263;
var sectionId = 'dynsection-3';
</script>
<script xlink:href="svgpan.js"/>
<svg id="graph" class="graph">
<g id="viewport">
<title>okw.core.NOK.BeginTest</title>
<polygon fill="white" stroke="none" points="-4,4 -4,-259 924,-259 924,4 -4,4"/>
<!-- Node3 -->
<g id="node1" class="node"><title>Node3</title>
<polygon fill="#bfbfbf" stroke="black" points="0,-93.5 0,-112.5 128,-112.5 128,-93.5 0,-93.5"/>
<text text-anchor="middle" x="64" y="-100.5" font-family="Helvetica,sans-Serif" font-size="10.00">okw.core.NOK.BeginTest</text>
</g>
<!-- Node4 -->
<g id="node2" class="node"><title>Node4</title>
<g id="a_node2"><a xlink:href="classokw_1_1core_1_1_o_k_w___current_object___sngltn.html#a7a0493ac8df3be5684bc27ef90142343" target="_top" xlink:title="Führt die Initialisierung der Klasse durch: Es werden alle Felder der Klasse auf einen definierten An...">
<polygon fill="white" stroke="black" points="169.5,-181 169.5,-211 318.5,-211 318.5,-181 169.5,-181"/>
<text text-anchor="start" x="177.5" y="-199" font-family="Helvetica,sans-Serif" font-size="10.00">okw.core.OKW_CurrentObject</text>
<text text-anchor="middle" x="244" y="-188" font-family="Helvetica,sans-Serif" font-size="10.00">_Sngltn.init</text>
</a>
</g>
</g>
<!-- Node3&#45;&gt;Node4 -->
<g id="edge1" class="edge"><title>Node3&#45;&gt;Node4</title>
<path fill="none" stroke="midnightblue" d="M76.4856,-112.587C94.2468,-127.005 129.898,-154.351 164,-171 168.648,-173.269 173.548,-175.394 178.539,-177.37"/>
<polygon fill="midnightblue" stroke="midnightblue" points="177.612,-180.76 188.204,-180.987 180.065,-174.204 177.612,-180.76"/>
</g>
<!-- Node5 -->
<g id="node3" class="node"><title>Node5</title>
<g id="a_node3"><a xlink:href="classokw_1_1_o_k_w___memorize___sngltn.html#a108813fb1dfa22043cdf1156513a57d3" target="_top" xlink:title="Diese Methode gibt die einzige Instanz dieser Klasse zurück. ">
<polygon fill="white" stroke="black" points="164.5,-132 164.5,-162 323.5,-162 323.5,-132 164.5,-132"/>
<text text-anchor="start" x="172.5" y="-150" font-family="Helvetica,sans-Serif" font-size="10.00">okw.OKW_Memorize_Sngltn.get</text>
<text text-anchor="middle" x="244" y="-139" font-family="Helvetica,sans-Serif" font-size="10.00">Instance</text>
</a>
</g>
</g>
<!-- Node3&#45;&gt;Node5 -->
<g id="edge2" class="edge"><title>Node3&#45;&gt;Node5</title>
<path fill="none" stroke="midnightblue" d="M103.623,-112.547C123.664,-117.501 148.786,-123.711 172.162,-129.49"/>
<polygon fill="midnightblue" stroke="midnightblue" points="171.506,-132.933 182.054,-131.935 173.186,-126.137 171.506,-132.933"/>
</g>
<!-- Node7 -->
<g id="node5" class="node"><title>Node7</title>
<g id="a_node5"><a xlink:href="classokw_1_1_o_k_w___memorize___sngltn.html#a77acdbf6b56b381439a16f96b54e6fbd" target="_top" xlink:title="Setzt/Merkt sich das MemKey/Value&#45;Paar. ">
<polygon fill="white" stroke="black" points="164.5,-93.5 164.5,-112.5 323.5,-112.5 323.5,-93.5 164.5,-93.5"/>
<text text-anchor="middle" x="244" y="-100.5" font-family="Helvetica,sans-Serif" font-size="10.00">okw.OKW_Memorize_Sngltn.set</text>
</a>
</g>
</g>
<!-- Node3&#45;&gt;Node7 -->
<g id="edge4" class="edge"><title>Node3&#45;&gt;Node7</title>
<path fill="none" stroke="midnightblue" d="M128.007,-103C136.581,-103 145.508,-103 154.429,-103"/>
<polygon fill="midnightblue" stroke="midnightblue" points="154.48,-106.5 164.48,-103 154.48,-99.5001 154.48,-106.5"/>
</g>
<!-- Node12 -->
<g id="node10" class="node"><title>Node12</title>
<g id="a_node10"><a xlink:href="classokw_1_1log_1_1_logger___sngltn.html#a8ebceaddd6cc6963ddb8e08c72ea808c" target="_top" xlink:title="LogPrint Function: Prints the values of expressions to the results file. ">
<polygon fill="white" stroke="black" points="377,-0 377,-30 511,-30 511,-0 377,-0"/>
<text text-anchor="start" x="385" y="-18" font-family="Helvetica,sans-Serif" font-size="10.00">okw.log.Logger_Sngltn.Log</text>
<text text-anchor="middle" x="444" y="-7" font-family="Helvetica,sans-Serif" font-size="10.00">Print</text>
</a>
</g>
</g>
<!-- Node3&#45;&gt;Node12 -->
<g id="edge12" class="edge"><title>Node3&#45;&gt;Node12</title>
<path fill="none" stroke="midnightblue" d="M109.538,-93.4041C161.206,-82.1844 248.915,-62.8684 324,-45 340.392,-41.099 358.014,-36.7452 374.54,-32.5906"/>
<polygon fill="midnightblue" stroke="midnightblue" points="375.828,-35.8754 384.668,-30.0353 374.115,-29.0881 375.828,-35.8754"/>
</g>
<!-- Node15 -->
<g id="node13" class="node"><title>Node15</title>
<g id="a_node13"><a xlink:href="classokw_1_1core_1_1_core.html#aafe6e3d88e810dabf350b37058d4af97" target="_top" xlink:title="Setter zum Setzen des aktuellen Zustandes. ">
<polygon fill="white" stroke="black" points="178.5,-6 178.5,-36 309.5,-36 309.5,-6 178.5,-6"/>
<text text-anchor="start" x="186.5" y="-24" font-family="Helvetica,sans-Serif" font-size="10.00">okw.core.Core.SetCurrent</text>
<text text-anchor="middle" x="244" y="-13" font-family="Helvetica,sans-Serif" font-size="10.00">State</text>
</a>
</g>
</g>
<!-- Node3&#45;&gt;Node15 -->
<g id="edge13" class="edge"><title>Node3&#45;&gt;Node15</title>
<path fill="none" stroke="midnightblue" d="M81.8586,-93.3439C101.317,-82.3885 134.44,-64.3175 164,-51 172.637,-47.1089 181.943,-43.2721 191.031,-39.7098"/>
<polygon fill="midnightblue" stroke="midnightblue" points="192.312,-42.967 200.385,-36.106 189.796,-36.4349 192.312,-42.967"/>
</g>
<!-- Node6 -->
<g id="node4" class="node"><title>Node6</title>
<g id="a_node4"><a xlink:href="classokw_1_1_o_k_w___memorize___sngltn.html#a12aa85f3e36dabb70ea713a400dd3c36" target="_top" xlink:title="Privater Konstruktor dieser Klasse. ">
<polygon fill="white" stroke="black" points="371,-225 371,-255 517,-255 517,-225 371,-225"/>
<text text-anchor="start" x="379" y="-243" font-family="Helvetica,sans-Serif" font-size="10.00">okw.OKW_Memorize_Sngltn.</text>
<text text-anchor="middle" x="444" y="-232" font-family="Helvetica,sans-Serif" font-size="10.00">OKW_Memorize_Sngltn</text>
</a>
</g>
</g>
<!-- Node5&#45;&gt;Node6 -->
<g id="edge3" class="edge"><title>Node5&#45;&gt;Node6</title>
<path fill="none" stroke="midnightblue" d="M307.425,-162.074C313.248,-164.616 318.878,-167.571 324,-171 344.995,-185.058 338.988,-200.967 360,-215 363.058,-217.042 366.289,-218.923 369.632,-220.653"/>
<polygon fill="midnightblue" stroke="midnightblue" points="368.157,-223.828 378.698,-224.893 371.122,-217.487 368.157,-223.828"/>
</g>
<!-- Node8 -->
<g id="node6" class="node"><title>Node8</title>
<g id="a_node6"><a xlink:href="classokw_1_1_log_messenger.html#af225d1f037d47b3b085175c09d78bdd2" target="_top" xlink:title="Holt die Log&#45;Meldung für MethodeNmae/Textkey ohne weitere Parameter. ">
<polygon fill="white" stroke="black" points="364,-186.5 364,-205.5 524,-205.5 524,-186.5 364,-186.5"/>
<text text-anchor="middle" x="444" y="-193.5" font-family="Helvetica,sans-Serif" font-size="10.00">okw.LogMessenger.GetMessage</text>
</a>
</g>
</g>
<!-- Node7&#45;&gt;Node8 -->
<g id="edge5" class="edge"><title>Node7&#45;&gt;Node8</title>
<path fill="none" stroke="midnightblue" d="M305.714,-112.571C312.2,-115.034 318.448,-118.124 324,-122 347.652,-138.51 336.352,-159.485 360,-176 363.486,-178.435 367.233,-180.575 371.139,-182.456"/>
<polygon fill="midnightblue" stroke="midnightblue" points="369.918,-185.739 380.492,-186.391 372.633,-179.287 369.918,-185.739"/>
</g>
<!-- Node11 -->
<g id="node9" class="node"><title>Node11</title>
<g id="a_node9"><a xlink:href="classokw_1_1log_1_1_logger___sngltn.html#ab4fc711bb4c754f251372ff3b14ab9c9" target="_top" xlink:title="Creates a new hierarchical level in the results file. ">
<polygon fill="white" stroke="black" points="375.5,-137 375.5,-167 512.5,-167 512.5,-137 375.5,-137"/>
<text text-anchor="start" x="383.5" y="-155" font-family="Helvetica,sans-Serif" font-size="10.00">okw.log.Logger_Sngltn.Res</text>
<text text-anchor="middle" x="444" y="-144" font-family="Helvetica,sans-Serif" font-size="10.00">OpenList</text>
</a>
</g>
</g>
<!-- Node7&#45;&gt;Node11 -->
<g id="edge8" class="edge"><title>Node7&#45;&gt;Node11</title>
<path fill="none" stroke="midnightblue" d="M285.21,-112.581C297.652,-115.57 311.399,-118.896 324,-122 340.19,-125.987 357.602,-130.341 373.976,-134.463"/>
<polygon fill="midnightblue" stroke="midnightblue" points="373.464,-137.944 384.017,-136.995 375.176,-131.156 373.464,-137.944"/>
</g>
<!-- Node7&#45;&gt;Node12 -->
<g id="edge9" class="edge"><title>Node7&#45;&gt;Node12</title>
<path fill="none" stroke="midnightblue" d="M291.076,-93.4651C302.358,-89.9519 314.042,-85.2452 324,-79 343.984,-66.4667 340.001,-52.5096 360,-40 363.349,-37.905 366.884,-35.9769 370.532,-34.2033"/>
<polygon fill="midnightblue" stroke="midnightblue" points="372.061,-37.3541 379.788,-30.1061 369.228,-30.9531 372.061,-37.3541"/>
</g>
<!-- Node13 -->
<g id="node11" class="node"><title>Node13</title>
<g id="a_node11"><a xlink:href="classokw_1_1log_1_1_logger___sngltn.html#a9b54104f7e0b4c0a473877b19dfaed56" target="_top" xlink:title="Closes a hierarchical level in the results file that was opened with ResOpenList. ...">
<polygon fill="white" stroke="black" points="375.5,-88 375.5,-118 512.5,-118 512.5,-88 375.5,-88"/>
<text text-anchor="start" x="383.5" y="-106" font-family="Helvetica,sans-Serif" font-size="10.00">okw.log.Logger_Sngltn.Res</text>
<text text-anchor="middle" x="444" y="-95" font-family="Helvetica,sans-Serif" font-size="10.00">CloseList</text>
</a>
</g>
</g>
<!-- Node7&#45;&gt;Node13 -->
<g id="edge10" class="edge"><title>Node7&#45;&gt;Node13</title>
<path fill="none" stroke="midnightblue" d="M323.539,-103C337.219,-103 351.444,-103 365.107,-103"/>
<polygon fill="midnightblue" stroke="midnightblue" points="365.427,-106.5 375.427,-103 365.427,-99.5001 365.427,-106.5"/>
</g>
<!-- Node14 -->
<g id="node12" class="node"><title>Node14</title>
<g id="a_node12"><a xlink:href="classokw_1_1_o_k_w___memorize___sngltn.html#a3ff14b0c6e596369e1437c59888a104f" target="_top" xlink:title="Liest die Werte der Klasse OKW_Memorize aus einer Datei, gegeben in OKW.OKW_Ini.Xml_Ini_xml, ein. ">
<polygon fill="white" stroke="black" points="360.5,-49.5 360.5,-68.5 527.5,-68.5 527.5,-49.5 360.5,-49.5"/>
<text text-anchor="middle" x="444" y="-56.5" font-family="Helvetica,sans-Serif" font-size="10.00">okw.OKW_Memorize_Sngltn.save</text>
</a>
</g>
</g>
<!-- Node7&#45;&gt;Node14 -->
<g id="edge11" class="edge"><title>Node7&#45;&gt;Node14</title>
<path fill="none" stroke="midnightblue" d="M287.963,-93.4527C317.931,-86.7931 358.114,-77.8637 390.061,-70.7642"/>
<polygon fill="midnightblue" stroke="midnightblue" points="391.118,-74.1147 400.121,-68.5287 389.6,-67.2814 391.118,-74.1147"/>
</g>
<!-- Node9 -->
<g id="node7" class="node"><title>Node9</title>
<g id="a_node7"><a xlink:href="classokw_1_1_log_messenger.html#a530cd6ab82ec82a04206a2e976ec06e3" target="_top" xlink:title="Interne Kernfunktion holt die Log&#45;Meldung mit Platzhaltern aus der XML&#45;Datei. ">
<polygon fill="white" stroke="black" points="564.5,-186.5 564.5,-205.5 731.5,-205.5 731.5,-186.5 564.5,-186.5"/>
<text text-anchor="middle" x="648" y="-193.5" font-family="Helvetica,sans-Serif" font-size="10.00">okw.LogMessenger.ReadMessage</text>
</a>
</g>
</g>
<!-- Node8&#45;&gt;Node9 -->
<g id="edge6" class="edge"><title>Node8&#45;&gt;Node9</title>
<path fill="none" stroke="midnightblue" d="M524.256,-196C534.018,-196 544.065,-196 554.007,-196"/>
<polygon fill="midnightblue" stroke="midnightblue" points="554.314,-199.5 564.314,-196 554.314,-192.5 554.314,-199.5"/>
</g>
<!-- Node10 -->
<g id="node8" class="node"><title>Node10</title>
<g id="a_node8"><a xlink:href="classokw_1_1_o_k_w___xml_reader.html#ab920b5335a2e1429c14cc5f8e79f39eb" target="_top" xlink:title="Lies den TextContent eines Tag. ">
<polygon fill="white" stroke="black" points="768,-181 768,-211 920,-211 920,-181 768,-181"/>
<text text-anchor="start" x="776" y="-199" font-family="Helvetica,sans-Serif" font-size="10.00">okw.OKW_XmlReader.getText</text>
<text text-anchor="middle" x="844" y="-188" font-family="Helvetica,sans-Serif" font-size="10.00">ContentSingleValue</text>
</a>
</g>
</g>
<!-- Node9&#45;&gt;Node10 -->
<g id="edge7" class="edge"><title>Node9&#45;&gt;Node10</title>
<path fill="none" stroke="midnightblue" d="M731.555,-196C740.227,-196 749.057,-196 757.759,-196"/>
<polygon fill="midnightblue" stroke="midnightblue" points="757.899,-199.5 767.899,-196 757.899,-192.5 757.899,-199.5"/>
</g>
</g>
</svg>
        <g id="navigator" transform="translate(0 0)" fill="#404254">
                <rect fill="#f2f5e9" fill-opacity="0.5" stroke="#606060" stroke-width=".5" x="0" y="0" width="60" height="60"/>
                <use id="zoomplus" xlink:href="#zoomPlus" x="17" y="9" onmousedown="handleZoom(evt,'in')"/>
                <use id="zoomminus" xlink:href="#zoomMin" x="42" y="9" onmousedown="handleZoom(evt,'out')"/>
                <use id="reset" xlink:href="#resetDef" x="30" y="36" onmousedown="handleReset()"/>
                <g id="arrowUp" xlink:href="#dirArrow" transform="translate(30 24)" onmousedown="handlePan(0,-1)">
                  <use xlink:href="#rim" fill="#404040">
                        <set attributeName="fill" to="#808080" begin="arrowUp.mouseover" end="arrowUp.mouseout"/>
                  </use>
                  <path fill="none" stroke="white" stroke-width="1.5" d="M0,-3.0v7 M-2.5,-0.5L0,-3.0L2.5,-0.5"/>
                </g>
                <g id="arrowRight" xlink:href="#dirArrow" transform="rotate(90) translate(36 -43)" onmousedown="handlePan(1,0)">
                  <use xlink:href="#rim" fill="#404040">
                        <set attributeName="fill" to="#808080" begin="arrowRight.mouseover" end="arrowRight.mouseout"/>
                  </use>
                  <path fill="none" stroke="white" stroke-width="1.5" d="M0,-3.0v7 M-2.5,-0.5L0,-3.0L2.5,-0.5"/>
                </g>
                <g id="arrowDown" xlink:href="#dirArrow" transform="rotate(180) translate(-30 -48)" onmousedown="handlePan(0,1)">
                  <use xlink:href="#rim" fill="#404040">
                        <set attributeName="fill" to="#808080" begin="arrowDown.mouseover" end="arrowDown.mouseout"/>
                  </use>
                  <path fill="none" stroke="white" stroke-width="1.5" d="M0,-3.0v7 M-2.5,-0.5L0,-3.0L2.5,-0.5"/>
                </g>
                <g id="arrowLeft" xlink:href="#dirArrow" transform="rotate(270) translate(-36 17)" onmousedown="handlePan(-1,0)">
                  <use xlink:href="#rim" fill="#404040">
                        <set attributeName="fill" to="#808080" begin="arrowLeft.mouseover" end="arrowLeft.mouseout"/>
                  </use>
                  <path fill="none" stroke="white" stroke-width="1.5" d="M0,-3.0v7 M-2.5,-0.5L0,-3.0L2.5,-0.5"/>
                </g>
        </g>
        <svg viewBox="0 0 15 15" width="100%" height="30px" preserveAspectRatio="xMaxYMin meet">
         <g id="arrow_out" transform="scale(0.3 0.3)">
          <a xlink:href="classokw_1_1core_1_1_n_o_k_a62d1765ea311e440d678cb57ca9dd2c2_cgraph_org.svg" target="_base">
           <rect id="button" ry="5" rx="5" y="6" x="6" height="38" width="38"
                fill="#f2f5e9" fill-opacity="0.5" stroke="#606060" stroke-width="1.0"/>
           <path id="arrow"
             d="M 11.500037,31.436501 C 11.940474,20.09759 22.043105,11.32322 32.158766,21.979434 L 37.068811,17.246167 C 37.068811,17.246167 37.088388,32 37.088388,32 L 22.160133,31.978069 C 22.160133,31.978069 26.997745,27.140456 26.997745,27.140456 C 18.528582,18.264221 13.291696,25.230495 11.500037,31.436501 z"
             style="fill:#404040;"/>
          </a>
         </g>
        </svg>
</svg>
