<?xml version="1.0" encoding="UTF-8" standalone="no"?>
<!DOCTYPE svg PUBLIC "-//W3C//DTD SVG 1.1//EN"
 "http://www.w3.org/Graphics/SVG/1.1/DTD/svg11.dtd">
<!-- Generated by graphviz version 2.38.0 (20140413.2041)
 -->
<!-- Title: okw.log.Log2Console.LogFunctionEnd Pages: 1 -->
<svg width="796pt" height="72pt"
 viewBox="0.00 0.00 796.00 71.50" xmlns="http://www.w3.org/2000/svg" xmlns:xlink="http://www.w3.org/1999/xlink">
<g id="graph0" class="graph" transform="scale(1 1) rotate(0) translate(4 67.5)">
<title>okw.log.Log2Console.LogFunctionEnd</title>
<polygon fill="white" stroke="none" points="-4,4 -4,-67.5 792,-67.5 792,4 -4,4"/>
<!-- Node24 -->
<g id="node1" class="node"><title>Node24</title>
<g id="a_node1"><a xlink:title="LogFunctionEnd:">
<polygon fill="#bfbfbf" stroke="black" points="0,-25 0,-44 194,-44 194,-25 0,-25"/>
<text text-anchor="middle" x="97" y="-32" font-family="Helvetica,sans-Serif" font-size="10.00">okw.log.Log2Console.LogFunctionEnd</text>
</a>
</g>
</g>
<!-- Node25 -->
<g id="node2" class="node"><title>Node25</title>
<g id="a_node2"><a xlink:href="classokw_1_1log_1_1_log2_console.html#a76c2788140c26471575dfa92c118d1dc" target="_top" xlink:title="LogPrint: Prints the given message to the results.">
<polygon fill="white" stroke="black" points="240,-44 240,-63 398,-63 398,-44 240,-44"/>
<text text-anchor="middle" x="319" y="-51" font-family="Helvetica,sans-Serif" font-size="10.00">okw.log.Log2Console.LogPrint</text>
</a>
</g>
</g>
<!-- Node24&#45;&gt;Node25 -->
<g id="edge1" class="edge"><title>Node24&#45;&gt;Node25</title>
<path fill="none" stroke="midnightblue" d="M194.175,-42.806C205.979,-43.8255 218,-44.8636 229.68,-45.8724"/>
<polygon fill="midnightblue" stroke="midnightblue" points="229.579,-49.3766 239.843,-46.7501 230.182,-42.4026 229.579,-49.3766"/>
</g>
<!-- Node26 -->
<g id="node3" class="node"><title>Node26</title>
<g id="a_node3"><a xlink:href="classokw_1_1log_1_1_log2_console.html#ab2120d2a3c68dc03a6a62d02570bfbd6" target="_top" xlink:title="ResCloseList: Closes the outline level.">
<polygon fill="white" stroke="black" points="230,-6 230,-25 408,-25 408,-6 230,-6"/>
<text text-anchor="middle" x="319" y="-13" font-family="Helvetica,sans-Serif" font-size="10.00">okw.log.Log2Console.ResCloseList</text>
</a>
</g>
</g>
<!-- Node24&#45;&gt;Node26 -->
<g id="edge2" class="edge"><title>Node24&#45;&gt;Node26</title>
<path fill="none" stroke="midnightblue" d="M194.175,-26.194C202.735,-25.4547 211.408,-24.7057 219.983,-23.9651"/>
<polygon fill="midnightblue" stroke="midnightblue" points="220.329,-27.4483 229.991,-23.1008 219.727,-20.4743 220.329,-27.4483"/>
</g>
<!-- Node27 -->
<g id="node4" class="node"><title>Node27</title>
<g id="a_node4"><a xlink:href="classokw_1_1log_1_1_log2_console.html#a418e8bba5b89f56ddaf2fea089dd24b2" target="_top" xlink:title="Erzeugt die Einrücktiefe für die Console&#45;Ausgabe.">
<polygon fill="white" stroke="black" points="444,-0.5 444,-30.5 594,-30.5 594,-0.5 444,-0.5"/>
<text text-anchor="start" x="452" y="-18.5" font-family="Helvetica,sans-Serif" font-size="10.00">okw.log.Log2Console.Blanks</text>
<text text-anchor="middle" x="519" y="-7.5" font-family="Helvetica,sans-Serif" font-size="10.00">Before</text>
</a>
</g>
</g>
<!-- Node26&#45;&gt;Node27 -->
<g id="edge3" class="edge"><title>Node26&#45;&gt;Node27</title>
<path fill="none" stroke="midnightblue" d="M408.287,-15.5C416.719,-15.5 425.255,-15.5 433.647,-15.5"/>
<polygon fill="midnightblue" stroke="midnightblue" points="433.796,-19.0001 443.796,-15.5 433.796,-12.0001 433.796,-19.0001"/>
</g>
<!-- Node28 -->
<g id="node5" class="node"><title>Node28</title>
<g id="a_node5"><a xlink:href="classokw_1_1_o_k_w___helper.html#ab5e676787808ed174e603c1e3bfcd176" target="_top" xlink:title=" ">
<polygon fill="white" stroke="black" points="630,-6 630,-25 788,-25 788,-6 630,-6"/>
<text text-anchor="middle" x="709" y="-13" font-family="Helvetica,sans-Serif" font-size="10.00">okw.OKW_Helper.repeatString</text>
</a>
</g>
</g>
<!-- Node27&#45;&gt;Node28 -->
<g id="edge4" class="edge"><title>Node27&#45;&gt;Node28</title>
<path fill="none" stroke="midnightblue" d="M594.033,-15.5C602.452,-15.5 611.095,-15.5 619.675,-15.5"/>
<polygon fill="midnightblue" stroke="midnightblue" points="619.702,-19.0001 629.701,-15.5 619.701,-12.0001 619.702,-19.0001"/>
</g>
</g>
</svg>
