<?xml version="1.0" encoding="UTF-8" standalone="no"?>
<!DOCTYPE svg PUBLIC "-//W3C//DTD SVG 1.1//EN"
 "http://www.w3.org/Graphics/SVG/1.1/DTD/svg11.dtd">
<!-- Generated by graphviz version 2.26.3 (20100126.1600)
 -->
<!-- Title: okw.core.EN.MemorizeIsActive Pages: 1 -->
<svg width="398pt" height="448pt"
 viewBox="0.00 0.00 398.00 448.00" xmlns="http://www.w3.org/2000/svg" xmlns:xlink="http://www.w3.org/1999/xlink">
<g id="graph1" class="graph" transform="scale(1 1) rotate(0) translate(4 444)">
<title>okw.core.EN.MemorizeIsActive</title>
<polygon fill="white" stroke="white" points="-4,5 -4,-444 395,-444 395,5 -4,5"/>
<!-- Node869 -->
<g id="node1" class="node"><title>Node869</title>
<polygon fill="#bfbfbf" stroke="black" points="0.5,-202.5 0.5,-223.5 155.5,-223.5 155.5,-202.5 0.5,-202.5"/>
<text text-anchor="middle" x="78" y="-210.5" font-family="Helvetica,sans-Serif" font-size="10.00">okw.core.EN.MemorizeIsActive</text>
</g>
<!-- Node870 -->
<g id="node3" class="node"><title>Node870</title>
<a xlink:href="classokw_1_1core_1_1_e_n___o_k_w_not_allowed_value_exception___keywords___i_g_n_o_r_e.html#a6e44ea6f8c45474e652babb6966c380f" target="_top" xlink:title="Prüft ob &quot;${IGNORE} &quot; die Ausnahme okw.exceptions.OKWNotAllowedValueException auslöst. ">
<polygon fill="white" stroke="black" points="192.5,-392.5 192.5,-439.5 389.5,-439.5 389.5,-392.5 192.5,-392.5"/>
<text text-anchor="start" x="200.5" y="-426.5" font-family="Helvetica,sans-Serif" font-size="10.00">okw.core.EN_OKWNotAllowed</text>
<text text-anchor="start" x="200.5" y="-413.5" font-family="Helvetica,sans-Serif" font-size="10.00">ValueException_Keywords</text>
<text text-anchor="middle" x="291" y="-400.5" font-family="Helvetica,sans-Serif" font-size="10.00">_IGNORE.tcMemorizeIsActiveIGNORE1</text>
</a>
</g>
<!-- Node869&#45;&gt;Node870 -->
<g id="edge2" class="edge"><title>Node869&#45;&gt;Node870</title>
<path fill="none" stroke="midnightblue" d="M86.0604,-232.79C101.422,-268.089 138.225,-342.042 192,-383 196.612,-386.513 201.618,-389.663 206.847,-392.486"/>
<polygon fill="midnightblue" stroke="midnightblue" points="89.2641,-231.38 82.1422,-223.536 82.818,-234.109 89.2641,-231.38"/>
</g>
<!-- Node871 -->
<g id="node5" class="node"><title>Node871</title>
<a xlink:href="classokw_1_1core_1_1_e_n___o_k_w_not_allowed_value_exception___keywords___i_g_n_o_r_e.html#aecc232a734bfeaf3b7e1ca88028c6122" target="_top" xlink:title="Prüft ob &quot;&quot;${IGNORE}${TCN}&quot; die Ausnahme okw.exceptions.OKWNotAllowedValueException auslöst...">
<polygon fill="white" stroke="black" points="192.5,-326.5 192.5,-373.5 389.5,-373.5 389.5,-326.5 192.5,-326.5"/>
<text text-anchor="start" x="200.5" y="-360.5" font-family="Helvetica,sans-Serif" font-size="10.00">okw.core.EN_OKWNotAllowed</text>
<text text-anchor="start" x="200.5" y="-347.5" font-family="Helvetica,sans-Serif" font-size="10.00">ValueException_Keywords</text>
<text text-anchor="middle" x="291" y="-334.5" font-family="Helvetica,sans-Serif" font-size="10.00">_IGNORE.tcMemorizeIsActiveIGNORE2</text>
</a>
</g>
<!-- Node869&#45;&gt;Node871 -->
<g id="edge4" class="edge"><title>Node869&#45;&gt;Node871</title>
<path fill="none" stroke="midnightblue" d="M93.6517,-231.398C114.114,-254.395 152.077,-293.574 192,-317 197.86,-320.438 204.127,-323.578 210.557,-326.431"/>
<polygon fill="midnightblue" stroke="midnightblue" points="96.1515,-228.94 86.9334,-223.717 90.8826,-233.548 96.1515,-228.94"/>
</g>
<!-- Node872 -->
<g id="node7" class="node"><title>Node872</title>
<a xlink:href="classokw_1_1_se_button_1_1_se_button___test.html#a742924cbe4e1f591e377bb0996d36d17" target="_top" xlink:title="Test des Schlüsselwortes MemorizeIsActive für den GUI&#45;Adapter SeButton. ">
<polygon fill="white" stroke="black" points="225.5,-274 225.5,-308 356.5,-308 356.5,-274 225.5,-274"/>
<text text-anchor="start" x="233.5" y="-295" font-family="Helvetica,sans-Serif" font-size="10.00">okw.SeButton.SeButton</text>
<text text-anchor="middle" x="291" y="-282" font-family="Helvetica,sans-Serif" font-size="10.00">_Test.tcMemorizeIsActive</text>
</a>
</g>
<!-- Node869&#45;&gt;Node872 -->
<g id="edge6" class="edge"><title>Node869&#45;&gt;Node872</title>
<path fill="none" stroke="midnightblue" d="M107.662,-228.229C130.336,-239.45 162.596,-254.52 192,-265 202.629,-268.789 214.077,-272.297 225.282,-275.432"/>
<polygon fill="midnightblue" stroke="midnightblue" points="109.076,-225.023 98.5669,-223.68 105.945,-231.283 109.076,-225.023"/>
</g>
<!-- Node873 -->
<g id="node9" class="node"><title>Node873</title>
<a xlink:href="classokw_1_1_se_input_checkbox_1_1_se_input_checkbox___test.html#a702ffb63f0af2c995bd71ca884b0f408" target="_top" xlink:title="Prüft die SetFocusFunktion bei Textfelder mit dem Attribute &quot;ReadOnly&quot;. ">
<polygon fill="white" stroke="black" points="215,-222 215,-256 367,-256 367,-222 215,-222"/>
<text text-anchor="start" x="223" y="-243" font-family="Helvetica,sans-Serif" font-size="10.00">okw.SeInputCheckbox.SeInput</text>
<text text-anchor="middle" x="291" y="-230" font-family="Helvetica,sans-Serif" font-size="10.00">Checkbox_Test.tcSetFocus</text>
</a>
</g>
<!-- Node869&#45;&gt;Node873 -->
<g id="edge8" class="edge"><title>Node869&#45;&gt;Node873</title>
<path fill="none" stroke="midnightblue" d="M165.606,-223.694C181.988,-225.693 198.986,-227.768 214.982,-229.721"/>
<polygon fill="midnightblue" stroke="midnightblue" points="165.851,-220.198 155.5,-222.46 165.003,-227.146 165.851,-220.198"/>
</g>
<!-- Node874 -->
<g id="node11" class="node"><title>Node874</title>
<a xlink:href="classokw_1_1_se_input_field_1_1_se_input_field___test.html#a47dccb1226e59298b732ce75379b95cb" target="_top" xlink:title="Teste das Schlüsselwort MemorizeIsActive( FN, MemKey ) eines SeInputText Prüfen. ">
<polygon fill="white" stroke="black" points="207,-170 207,-204 375,-204 375,-170 207,-170"/>
<text text-anchor="start" x="215" y="-191" font-family="Helvetica,sans-Serif" font-size="10.00">okw.SeInputField.SeInput</text>
<text text-anchor="middle" x="291" y="-178" font-family="Helvetica,sans-Serif" font-size="10.00">Field_Test.tcMemorizeIsActive_en</text>
</a>
</g>
<!-- Node869&#45;&gt;Node874 -->
<g id="edge10" class="edge"><title>Node869&#45;&gt;Node874</title>
<path fill="none" stroke="midnightblue" d="M165.76,-202.288C179.302,-200.634 193.262,-198.93 206.726,-197.287"/>
<polygon fill="midnightblue" stroke="midnightblue" points="165.003,-198.854 155.5,-203.54 165.851,-205.802 165.003,-198.854"/>
</g>
<!-- Node875 -->
<g id="node13" class="node"><title>Node875</title>
<a xlink:href="classokw_1_1_se_input_field_1_1_se_input_field___test.html#aa7612889d0a642c440c6a085e205ac8f" target="_top" xlink:title="okw.SeInputField.SeInput\lField_Test.tcSelect_OKWGUIObject\lNotFoundException">
<polygon fill="white" stroke="black" points="202.5,-104.5 202.5,-151.5 379.5,-151.5 379.5,-104.5 202.5,-104.5"/>
<text text-anchor="start" x="210.5" y="-138.5" font-family="Helvetica,sans-Serif" font-size="10.00">okw.SeInputField.SeInput</text>
<text text-anchor="start" x="210.5" y="-125.5" font-family="Helvetica,sans-Serif" font-size="10.00">Field_Test.tcSelect_OKWGUIObject</text>
<text text-anchor="middle" x="291" y="-112.5" font-family="Helvetica,sans-Serif" font-size="10.00">NotFoundException</text>
</a>
</g>
<!-- Node869&#45;&gt;Node875 -->
<g id="edge12" class="edge"><title>Node869&#45;&gt;Node875</title>
<path fill="none" stroke="midnightblue" d="M108.705,-197.919C131.436,-187.02 163.306,-172.29 192,-161 200.177,-157.783 208.809,-154.6 217.43,-151.555"/>
<polygon fill="midnightblue" stroke="midnightblue" points="107.043,-194.835 99.5589,-202.335 110.086,-201.139 107.043,-194.835"/>
</g>
<!-- Node876 -->
<g id="node15" class="node"><title>Node876</title>
<a xlink:href="classokw_1_1_se_input_radio_1_1_se_input_radio___e_n___test.html#a7810904e1268bdaf14922ba950527c06" target="_top" xlink:title="Test des Schlüsselwortes MemorizeIsActive für den GUI&#45;Adapter SeInputRadio. ">
<polygon fill="white" stroke="black" points="200,-52 200,-86 382,-86 382,-52 200,-52"/>
<text text-anchor="start" x="208" y="-73" font-family="Helvetica,sans-Serif" font-size="10.00">okw.SeInputRadio.SeInput</text>
<text text-anchor="middle" x="291" y="-60" font-family="Helvetica,sans-Serif" font-size="10.00">Radio_EN_Test.tc_MemorizeIsActive</text>
</a>
</g>
<!-- Node869&#45;&gt;Node876 -->
<g id="edge14" class="edge"><title>Node869&#45;&gt;Node876</title>
<path fill="none" stroke="midnightblue" d="M91.1109,-193.953C110.218,-167.667 148.243,-120.622 192,-95 197.827,-91.5878 204.106,-88.6158 210.573,-86.0283"/>
<polygon fill="midnightblue" stroke="midnightblue" points="88.1068,-192.138 85.163,-202.315 93.8112,-196.195 88.1068,-192.138"/>
</g>
<!-- Node877 -->
<g id="node17" class="node"><title>Node877</title>
<a xlink:href="classokw_1_1_se_link_1_1_se_link___e_n___test.html#a6790e3a557b34eef479a3306c331bc46" target="_top" xlink:title="Prüft ob die VerifyIsActive die Ausnahme OKWFrameObjectMethodNotImplemented auslöst. ">
<polygon fill="white" stroke="black" points="217.5,-0 217.5,-34 364.5,-34 364.5,-0 217.5,-0"/>
<text text-anchor="start" x="225.5" y="-21" font-family="Helvetica,sans-Serif" font-size="10.00">okw.SeLink.SeLink_EN</text>
<text text-anchor="middle" x="291" y="-8" font-family="Helvetica,sans-Serif" font-size="10.00">_Test.tcMemorizeIsActive_en</text>
</a>
</g>
<!-- Node869&#45;&gt;Node877 -->
<g id="edge16" class="edge"><title>Node869&#45;&gt;Node877</title>
<path fill="none" stroke="midnightblue" d="M85.8028,-192.86C100.754,-157.003 136.924,-82.1911 192,-43 199.674,-37.5395 208.413,-33.2256 217.449,-29.8175"/>
<polygon fill="midnightblue" stroke="midnightblue" points="82.5025,-191.685 81.9977,-202.268 88.9918,-194.31 82.5025,-191.685"/>
</g>
</g>
</svg>
