<?xml version="1.0" encoding="UTF-8" standalone="no"?>
<!DOCTYPE svg PUBLIC "-//W3C//DTD SVG 1.1//EN"
 "http://www.w3.org/Graphics/SVG/1.1/DTD/svg11.dtd">
<!-- Generated by graphviz version 2.38.0 (20140413.2041)
 -->
<!-- Title: okw.OKW_Memorize_Sngltn.init Pages: 1 -->
<svg width="362pt" height="176pt"
 viewBox="0.00 0.00 362.00 176.00" xmlns="http://www.w3.org/2000/svg" xmlns:xlink="http://www.w3.org/1999/xlink">
<g id="graph0" class="graph" transform="scale(1 1) rotate(0) translate(4 172)">
<title>okw.OKW_Memorize_Sngltn.init</title>
<polygon fill="white" stroke="none" points="-4,4 -4,-172 358,-172 358,4 -4,4"/>
<!-- Node117 -->
<g id="node1" class="node"><title>Node117</title>
<g id="a_node1"><a xlink:title="Initialsiert die Klasse OKW.OKW_Memorize.">
<polygon fill="#bfbfbf" stroke="black" points="0,-72 0,-91 164,-91 164,-72 0,-72"/>
<text text-anchor="middle" x="82" y="-79" font-family="Helvetica,sans-Serif" font-size="10.00">okw.OKW_Memorize_Sngltn.init</text>
</a>
</g>
</g>
<!-- Node118 -->
<g id="node2" class="node"><title>Node118</title>
<g id="a_node2"><a xlink:href="classokw_1_1_o_k_w___helper.html#a3a7ba0f42b29adf70574830688e72e4a" target="_top" xlink:title="Prüft ob der gegeben String fpsStrin null oder leer (&quot;&quot;) ist.">
<polygon fill="white" stroke="black" points="201,-137.5 201,-167.5 353,-167.5 353,-137.5 201,-137.5"/>
<text text-anchor="start" x="209" y="-155.5" font-family="Helvetica,sans-Serif" font-size="10.00">okw.OKW_Helper.isStringNull</text>
<text text-anchor="middle" x="277" y="-144.5" font-family="Helvetica,sans-Serif" font-size="10.00">OrEmpty</text>
</a>
</g>
</g>
<!-- Node117&#45;&gt;Node118 -->
<g id="edge1" class="edge"><title>Node117&#45;&gt;Node118</title>
<path fill="none" stroke="midnightblue" d="M105.236,-91.0204C128.63,-100.898 166.615,-116.543 200,-128.5 205.424,-130.443 211.095,-132.389 216.788,-134.285"/>
<polygon fill="midnightblue" stroke="midnightblue" points="215.758,-137.63 226.351,-137.42 217.939,-130.979 215.758,-137.63"/>
</g>
<!-- Node119 -->
<g id="node3" class="node"><title>Node119</title>
<g id="a_node3"><a xlink:href="classokw_1_1log_1_1_logger___sngltn.html#a313f97c79ba4662d9daaf7f537dd02f4" target="_top" xlink:title="Loggt eine Nachricht.">
<polygon fill="white" stroke="black" points="205.5,-88.5 205.5,-118.5 348.5,-118.5 348.5,-88.5 205.5,-88.5"/>
<text text-anchor="start" x="213.5" y="-106.5" font-family="Helvetica,sans-Serif" font-size="10.00">okw.log.Logger_Sngltn.Log</text>
<text text-anchor="middle" x="277" y="-95.5" font-family="Helvetica,sans-Serif" font-size="10.00">PrintDebug</text>
</a>
</g>
</g>
<!-- Node117&#45;&gt;Node119 -->
<g id="edge2" class="edge"><title>Node117&#45;&gt;Node119</title>
<path fill="none" stroke="midnightblue" d="M164.01,-90.7344C174.3,-91.9073 184.832,-93.1078 195.12,-94.2805"/>
<polygon fill="midnightblue" stroke="midnightblue" points="194.976,-97.7867 205.308,-95.4419 195.769,-90.8318 194.976,-97.7867"/>
</g>
<!-- Node120 -->
<g id="node4" class="node"><title>Node120</title>
<g id="a_node4"><a xlink:href="classokw_1_1_o_k_w___file_helper.html#a86faaa4792bbe9d333c7bf2d2de275e3" target="_top" xlink:title="Prüft, ob die gegebene fpsPaFiNa Datei existiert.">
<polygon fill="white" stroke="black" points="200,-50 200,-69 354,-69 354,-50 200,-50"/>
<text text-anchor="middle" x="277" y="-57" font-family="Helvetica,sans-Serif" font-size="10.00">okw.OKW_FileHelper.fileExists</text>
</a>
</g>
</g>
<!-- Node117&#45;&gt;Node120 -->
<g id="edge3" class="edge"><title>Node117&#45;&gt;Node120</title>
<path fill="none" stroke="midnightblue" d="M164.01,-72.2656C172.537,-71.2937 181.229,-70.3029 189.812,-69.3246"/>
<polygon fill="midnightblue" stroke="midnightblue" points="190.28,-72.7939 199.819,-68.1838 189.487,-65.839 190.28,-72.7939"/>
</g>
<!-- Node121 -->
<g id="node5" class="node"><title>Node121</title>
<g id="a_node5"><a xlink:href="classokw_1_1log_1_1_logger___sngltn.html#a2c15e9b2cd0c6266f4c67b8cb00d92e5" target="_top" xlink:title="LogWarning Function: Logs a warning to the results file.">
<polygon fill="white" stroke="black" points="205.5,-0.5 205.5,-30.5 348.5,-30.5 348.5,-0.5 205.5,-0.5"/>
<text text-anchor="start" x="213.5" y="-18.5" font-family="Helvetica,sans-Serif" font-size="10.00">okw.log.Logger_Sngltn.Log</text>
<text text-anchor="middle" x="277" y="-7.5" font-family="Helvetica,sans-Serif" font-size="10.00">Warning</text>
</a>
</g>
</g>
<!-- Node117&#45;&gt;Node121 -->
<g id="edge4" class="edge"><title>Node117&#45;&gt;Node121</title>
<path fill="none" stroke="midnightblue" d="M109.902,-71.9075C133.584,-63.503 169.022,-51.0217 200,-40.5 206.451,-38.309 213.219,-36.0399 219.947,-33.803"/>
<polygon fill="midnightblue" stroke="midnightblue" points="221.341,-37.0284 229.734,-30.5617 219.14,-30.3834 221.341,-37.0284"/>
</g>
</g>
</svg>
