<?xml version="1.0" encoding="UTF-8" standalone="no"?>
<!DOCTYPE svg PUBLIC "-//W3C//DTD SVG 1.1//EN"
 "http://www.w3.org/Graphics/SVG/1.1/DTD/svg11.dtd">
<!-- Generated by graphviz version 2.26.3 (20100126.1600)
 -->
<!-- Title: okw.core.Core.MemorizeIsActive Pages: 1 -->
<!--zoomable 396 -->
<svg id="main" version="1.1" xmlns="http://www.w3.org/2000/svg" xmlns:xlink="http://www.w3.org/1999/xlink" xml:space="preserve" onload="init(evt)">
<style type="text/css"><![CDATA[
.edge:hover path { stroke: red; }
.edge:hover polygon { stroke: red; fill: red; }
]]></style>
<script type="text/javascript"><![CDATA[
var edges = document.getElementsByTagName('g');
if (edges && edges.length) {
  for (var i=0;i<edges.length;i++) {
    if (edges[i].id.substr(0,4)=='edge') {
      edges[i].setAttribute('class','edge');
    }
  }
}
]]></script>
        <defs>
                <circle id="rim" cx="0" cy="0" r="7"/>
                <circle id="rim2" cx="0" cy="0" r="3.5"/>
                <g id="zoomPlus">
                        <use xlink:href="#rim" fill="#404040">
                                <set attributeName="fill" to="#808080" begin="zoomplus.mouseover" end="zoomplus.mouseout"/>
                        </use>
                        <path d="M-4,0h8M0,-4v8" fill="none" stroke="white" stroke-width="1.5" pointer-events="none"/>
                </g>
                <g id="zoomMin">
                        <use xlink:href="#rim" fill="#404040">
                                <set attributeName="fill" to="#808080" begin="zoomminus.mouseover" end="zoomminus.mouseout"/>
                        </use>
                        <path d="M-4,0h8" fill="none" stroke="white" stroke-width="1.5" pointer-events="none"/>
                </g>
                <g id="dirArrow">
                        <path fill="none" stroke="white" stroke-width="1.5" d="M0,-3.0v7 M-2.5,-0.5L0,-3.0L2.5,-0.5"/>
                </g>
               <g id="resetDef">
                       <use xlink:href="#rim2" fill="#404040">
                               <set attributeName="fill" to="#808080" begin="reset.mouseover" end="reset.mouseout"/>
                       </use>
               </g>
        </defs>

<script type="text/javascript">
var viewWidth = 568;
var viewHeight = 396;
var sectionId = 'dynsection-38';
</script>
<script xlink:href="svgpan.js"/>
<svg id="graph" class="graph">
<g id="viewport">
<title>okw.core.Core.MemorizeIsActive</title>
<polygon fill="white" stroke="white" points="-4,5 -4,-392 565,-392 565,5 -4,5"/>
<!-- Node786 -->
<g id="node1" class="node"><title>Node786</title>
<polygon fill="#bfbfbf" stroke="black" points="0,-143 0,-177 134,-177 134,-143 0,-143"/>
<text text-anchor="start" x="8" y="-164" font-family="Helvetica,sans-Serif" font-size="10.00">okw.core.Core.MemorizeIs</text>
<text text-anchor="middle" x="67" y="-151" font-family="Helvetica,sans-Serif" font-size="10.00">Active</text>
</g>
<!-- Node787 -->
<g id="node3" class="node"><title>Node787</title>
<a xlink:href="classokw_1_1core_1_1_e_n.html#a935b5a215e8176e6abda9bc268f107f4" target="_top" xlink:title="Merkt sich den Zustand des gegebenen Objekts. ">
<polygon fill="white" stroke="black" points="170.5,-176.5 170.5,-197.5 325.5,-197.5 325.5,-176.5 170.5,-176.5"/>
<text text-anchor="middle" x="248" y="-184.5" font-family="Helvetica,sans-Serif" font-size="10.00">okw.core.EN.MemorizeIsActive</text>
</a>
</g>
<!-- Node786&#45;&gt;Node787 -->
<g id="edge2" class="edge"><title>Node786&#45;&gt;Node787</title>
<path fill="none" stroke="midnightblue" d="M144.158,-171.51C155.17,-173.152 166.451,-174.835 177.33,-176.458"/>
<polygon fill="midnightblue" stroke="midnightblue" points="144.547,-168.029 134.141,-170.015 143.515,-174.953 144.547,-168.029"/>
</g>
<!-- Node795 -->
<g id="node19" class="node"><title>Node795</title>
<a xlink:href="classokw_1_1core_1_1_current_object___test.html#a071092391826959809ec74f3c4d2ec59" target="_top" xlink:title="Testziel: Prüft den Aufruf der Methode MemorizeIsActive( FN, MemKey ) im ChildObject. ">
<polygon fill="white" stroke="black" points="179.5,-110.5 179.5,-157.5 316.5,-157.5 316.5,-110.5 179.5,-110.5"/>
<text text-anchor="start" x="187.5" y="-144.5" font-family="Helvetica,sans-Serif" font-size="10.00">okw.core.CurrentObject</text>
<text text-anchor="start" x="187.5" y="-131.5" font-family="Helvetica,sans-Serif" font-size="10.00">_Test.tc_MemorizeIsActive</text>
<text text-anchor="middle" x="248" y="-118.5" font-family="Helvetica,sans-Serif" font-size="10.00">_ChildObject</text>
</a>
</g>
<!-- Node786&#45;&gt;Node795 -->
<g id="edge18" class="edge"><title>Node786&#45;&gt;Node795</title>
<path fill="none" stroke="midnightblue" d="M144.31,-148.895C155.993,-147.216 167.975,-145.495 179.456,-143.846"/>
<polygon fill="midnightblue" stroke="midnightblue" points="143.541,-145.469 134.141,-150.356 144.537,-152.398 143.541,-145.469"/>
</g>
<!-- Node788 -->
<g id="node5" class="node"><title>Node788</title>
<a xlink:href="classokw_1_1core_1_1_e_n___o_k_w_not_allowed_value_exception___keywords___i_g_n_o_r_e.html#a6e44ea6f8c45474e652babb6966c380f" target="_top" xlink:title="Prüft ob &quot;${IGNORE} &quot; die Ausnahme okw.exceptions.OKWNotAllowedValueException auslöst. ">
<polygon fill="white" stroke="black" points="362.5,-340.5 362.5,-387.5 559.5,-387.5 559.5,-340.5 362.5,-340.5"/>
<text text-anchor="start" x="370.5" y="-374.5" font-family="Helvetica,sans-Serif" font-size="10.00">okw.core.EN_OKWNotAllowed</text>
<text text-anchor="start" x="370.5" y="-361.5" font-family="Helvetica,sans-Serif" font-size="10.00">ValueException_Keywords</text>
<text text-anchor="middle" x="461" y="-348.5" font-family="Helvetica,sans-Serif" font-size="10.00">_IGNORE.tcMemorizeIsActiveIGNORE1</text>
</a>
</g>
<!-- Node787&#45;&gt;Node788 -->
<g id="edge4" class="edge"><title>Node787&#45;&gt;Node788</title>
<path fill="none" stroke="midnightblue" d="M258.558,-206.733C276.053,-237.614 313.94,-297.306 362,-331 366.895,-334.432 372.174,-337.528 377.655,-340.317"/>
<polygon fill="midnightblue" stroke="midnightblue" points="261.512,-204.843 253.607,-197.788 255.388,-208.233 261.512,-204.843"/>
</g>
<!-- Node789 -->
<g id="node7" class="node"><title>Node789</title>
<a xlink:href="classokw_1_1core_1_1_e_n___o_k_w_not_allowed_value_exception___keywords___i_g_n_o_r_e.html#aecc232a734bfeaf3b7e1ca88028c6122" target="_top" xlink:title="Prüft ob &quot;&quot;${IGNORE}${TCN}&quot; die Ausnahme okw.exceptions.OKWNotAllowedValueException auslöst...">
<polygon fill="white" stroke="black" points="362.5,-274.5 362.5,-321.5 559.5,-321.5 559.5,-274.5 362.5,-274.5"/>
<text text-anchor="start" x="370.5" y="-308.5" font-family="Helvetica,sans-Serif" font-size="10.00">okw.core.EN_OKWNotAllowed</text>
<text text-anchor="start" x="370.5" y="-295.5" font-family="Helvetica,sans-Serif" font-size="10.00">ValueException_Keywords</text>
<text text-anchor="middle" x="461" y="-282.5" font-family="Helvetica,sans-Serif" font-size="10.00">_IGNORE.tcMemorizeIsActiveIGNORE2</text>
</a>
</g>
<!-- Node787&#45;&gt;Node789 -->
<g id="edge6" class="edge"><title>Node787&#45;&gt;Node789</title>
<path fill="none" stroke="midnightblue" d="M268.931,-203.98C290.996,-221.222 327.3,-247.769 362,-265 368.815,-268.384 376.059,-271.546 383.407,-274.468"/>
<polygon fill="midnightblue" stroke="midnightblue" points="270.947,-201.112 260.934,-197.649 266.602,-206.6 270.947,-201.112"/>
</g>
<!-- Node790 -->
<g id="node9" class="node"><title>Node790</title>
<a xlink:href="classokw_1_1_se_input_checkbox_1_1_se_input_checkbox___test.html#a702ffb63f0af2c995bd71ca884b0f408" target="_top" xlink:title="Prüft die SetFocusFunktion bei Textfelder mit dem Attribute &quot;ReadOnly&quot;. ">
<polygon fill="white" stroke="black" points="385,-222 385,-256 537,-256 537,-222 385,-222"/>
<text text-anchor="start" x="393" y="-243" font-family="Helvetica,sans-Serif" font-size="10.00">okw.SeInputCheckbox.SeInput</text>
<text text-anchor="middle" x="461" y="-230" font-family="Helvetica,sans-Serif" font-size="10.00">Checkbox_Test.tcSetFocus</text>
</a>
</g>
<!-- Node787&#45;&gt;Node790 -->
<g id="edge8" class="edge"><title>Node787&#45;&gt;Node790</title>
<path fill="none" stroke="midnightblue" d="M300.844,-199.901C328.115,-206.559 361.739,-214.767 391.127,-221.942"/>
<polygon fill="midnightblue" stroke="midnightblue" points="301.649,-196.495 291.104,-197.523 299.988,-203.295 301.649,-196.495"/>
</g>
<!-- Node791 -->
<g id="node11" class="node"><title>Node791</title>
<a xlink:href="classokw_1_1_se_input_field_1_1_se_input_field___test.html#a47dccb1226e59298b732ce75379b95cb" target="_top" xlink:title="Teste das Schlüsselwort MemorizeIsActive( FN, MemKey ) eines SeInputText Prüfen. ">
<polygon fill="white" stroke="black" points="377,-170 377,-204 545,-204 545,-170 377,-170"/>
<text text-anchor="start" x="385" y="-191" font-family="Helvetica,sans-Serif" font-size="10.00">okw.SeInputField.SeInput</text>
<text text-anchor="middle" x="461" y="-178" font-family="Helvetica,sans-Serif" font-size="10.00">Field_Test.tcMemorizeIsActive_en</text>
</a>
</g>
<!-- Node787&#45;&gt;Node791 -->
<g id="edge10" class="edge"><title>Node787&#45;&gt;Node791</title>
<path fill="none" stroke="midnightblue" d="M335.76,-187C349.302,-187 363.262,-187 376.726,-187"/>
<polygon fill="midnightblue" stroke="midnightblue" points="335.5,-183.5 325.5,-187 335.5,-190.5 335.5,-183.5"/>
</g>
<!-- Node792 -->
<g id="node13" class="node"><title>Node792</title>
<a xlink:href="classokw_1_1_se_input_field_1_1_se_input_field___test.html#aa7612889d0a642c440c6a085e205ac8f" target="_top" xlink:title="okw.SeInputField.SeInput\lField_Test.tcSelect_OKWGUIObject\lNotFoundException">
<polygon fill="white" stroke="black" points="372.5,-104.5 372.5,-151.5 549.5,-151.5 549.5,-104.5 372.5,-104.5"/>
<text text-anchor="start" x="380.5" y="-138.5" font-family="Helvetica,sans-Serif" font-size="10.00">okw.SeInputField.SeInput</text>
<text text-anchor="start" x="380.5" y="-125.5" font-family="Helvetica,sans-Serif" font-size="10.00">Field_Test.tcSelect_OKWGUIObject</text>
<text text-anchor="middle" x="461" y="-112.5" font-family="Helvetica,sans-Serif" font-size="10.00">NotFoundException</text>
</a>
</g>
<!-- Node787&#45;&gt;Node792 -->
<g id="edge12" class="edge"><title>Node787&#45;&gt;Node792</title>
<path fill="none" stroke="midnightblue" d="M299.881,-173.931C308.612,-171.665 317.572,-169.297 326,-167 343.771,-162.156 362.801,-156.777 380.804,-151.6"/>
<polygon fill="midnightblue" stroke="midnightblue" points="298.97,-170.551 290.161,-176.438 300.718,-177.329 298.97,-170.551"/>
</g>
<!-- Node793 -->
<g id="node15" class="node"><title>Node793</title>
<a xlink:href="classokw_1_1_se_input_radio_1_1_se_input_radio___e_n___test.html#a7810904e1268bdaf14922ba950527c06" target="_top" xlink:title="Test des Schlüsselwortes MemorizeIsActive für den GUI&#45;Adapter SeInputRadio. ">
<polygon fill="white" stroke="black" points="370,-52 370,-86 552,-86 552,-52 370,-52"/>
<text text-anchor="start" x="378" y="-73" font-family="Helvetica,sans-Serif" font-size="10.00">okw.SeInputRadio.SeInput</text>
<text text-anchor="middle" x="461" y="-60" font-family="Helvetica,sans-Serif" font-size="10.00">Radio_EN_Test.tc_MemorizeIsActive</text>
</a>
</g>
<!-- Node787&#45;&gt;Node793 -->
<g id="edge14" class="edge"><title>Node787&#45;&gt;Node793</title>
<path fill="none" stroke="midnightblue" d="M319.528,-171.562C321.787,-170.169 323.954,-168.652 326,-167 353.84,-144.529 334.225,-117.552 362,-95 366.139,-91.6396 370.667,-88.7097 375.436,-86.1557"/>
<polygon fill="midnightblue" stroke="midnightblue" points="317.648,-168.596 310.423,-176.344 320.903,-174.793 317.648,-168.596"/>
</g>
<!-- Node794 -->
<g id="node17" class="node"><title>Node794</title>
<a xlink:href="classokw_1_1_se_link_1_1_se_link___e_n___test.html#a6790e3a557b34eef479a3306c331bc46" target="_top" xlink:title="Prüft ob die VerifyIsActive die Ausnahme OKWFrameObjectMethodNotImplemented auslöst. ">
<polygon fill="white" stroke="black" points="387.5,-0 387.5,-34 534.5,-34 534.5,-0 387.5,-0"/>
<text text-anchor="start" x="395.5" y="-21" font-family="Helvetica,sans-Serif" font-size="10.00">okw.SeLink.SeLink_EN</text>
<text text-anchor="middle" x="461" y="-8" font-family="Helvetica,sans-Serif" font-size="10.00">_Test.tcMemorizeIsActive_en</text>
</a>
</g>
<!-- Node787&#45;&gt;Node794 -->
<g id="edge16" class="edge"><title>Node787&#45;&gt;Node794</title>
<path fill="none" stroke="midnightblue" d="M321.349,-170.983C322.977,-169.748 324.532,-168.423 326,-167 367.214,-127.067 320.903,-83.0532 362,-43 369.19,-35.9924 378.029,-30.8115 387.438,-26.9924"/>
<polygon fill="midnightblue" stroke="midnightblue" points="319.286,-168.146 312.681,-176.429 323.01,-174.073 319.286,-168.146"/>
</g>
</g>
</svg>
        <g id="navigator" transform="translate(0 0)" fill="#404254">
                <rect fill="#f2f5e9" fill-opacity="0.5" stroke="#606060" stroke-width=".5" x="0" y="0" width="60" height="60"/>
                <use id="zoomplus" xlink:href="#zoomPlus" x="17" y="9" onmousedown="handleZoom(evt,'in')"/>
                <use id="zoomminus" xlink:href="#zoomMin" x="42" y="9" onmousedown="handleZoom(evt,'out')"/>
                <use id="reset" xlink:href="#resetDef" x="30" y="36" onmousedown="handleReset()"/>
                <g id="arrowUp" xlink:href="#dirArrow" transform="translate(30 24)" onmousedown="handlePan(0,-1)">
                  <use xlink:href="#rim" fill="#404040">
                        <set attributeName="fill" to="#808080" begin="arrowUp.mouseover" end="arrowUp.mouseout"/>
                  </use>
                  <path fill="none" stroke="white" stroke-width="1.5" d="M0,-3.0v7 M-2.5,-0.5L0,-3.0L2.5,-0.5"/>
                </g>
                <g id="arrowRight" xlink:href="#dirArrow" transform="rotate(90) translate(36 -43)" onmousedown="handlePan(1,0)">
                  <use xlink:href="#rim" fill="#404040">
                        <set attributeName="fill" to="#808080" begin="arrowRight.mouseover" end="arrowRight.mouseout"/>
                  </use>
                  <path fill="none" stroke="white" stroke-width="1.5" d="M0,-3.0v7 M-2.5,-0.5L0,-3.0L2.5,-0.5"/>
                </g>
                <g id="arrowDown" xlink:href="#dirArrow" transform="rotate(180) translate(-30 -48)" onmousedown="handlePan(0,1)">
                  <use xlink:href="#rim" fill="#404040">
                        <set attributeName="fill" to="#808080" begin="arrowDown.mouseover" end="arrowDown.mouseout"/>
                  </use>
                  <path fill="none" stroke="white" stroke-width="1.5" d="M0,-3.0v7 M-2.5,-0.5L0,-3.0L2.5,-0.5"/>
                </g>
                <g id="arrowLeft" xlink:href="#dirArrow" transform="rotate(270) translate(-36 17)" onmousedown="handlePan(-1,0)">
                  <use xlink:href="#rim" fill="#404040">
                        <set attributeName="fill" to="#808080" begin="arrowLeft.mouseover" end="arrowLeft.mouseout"/>
                  </use>
                  <path fill="none" stroke="white" stroke-width="1.5" d="M0,-3.0v7 M-2.5,-0.5L0,-3.0L2.5,-0.5"/>
                </g>
        </g>
        <svg viewBox="0 0 15 15" width="100%" height="30px" preserveAspectRatio="xMaxYMin meet">
         <g id="arrow_out" transform="scale(0.3 0.3)">
          <a xlink:href="classokw_1_1core_1_1_core_a69fb76c04f4cfaa44b65f5477768455c_icgraph_org.svg" target="_base">
           <rect id="button" ry="5" rx="5" y="6" x="6" height="38" width="38"
                fill="#f2f5e9" fill-opacity="0.5" stroke="#606060" stroke-width="1.0"/>
           <path id="arrow"
             d="M 11.500037,31.436501 C 11.940474,20.09759 22.043105,11.32322 32.158766,21.979434 L 37.068811,17.246167 C 37.068811,17.246167 37.088388,32 37.088388,32 L 22.160133,31.978069 C 22.160133,31.978069 26.997745,27.140456 26.997745,27.140456 C 18.528582,18.264221 13.291696,25.230495 11.500037,31.436501 z"
             style="fill:#404040;"/>
          </a>
         </g>
        </svg>
</svg>
