<?xml version="1.0" encoding="UTF-8" standalone="no"?>
<!DOCTYPE svg PUBLIC "-//W3C//DTD SVG 1.1//EN"
 "http://www.w3.org/Graphics/SVG/1.1/DTD/svg11.dtd">
<!-- Generated by graphviz version 2.26.3 (20100126.1600)
 -->
<!-- Title: okw.gui.adapter.selenium.SeAnyChildWindow.SelectMenu Pages: 1 -->
<svg width="762pt" height="134pt"
 viewBox="0.00 0.00 762.00 134.00" xmlns="http://www.w3.org/2000/svg" xmlns:xlink="http://www.w3.org/1999/xlink">
<g id="graph1" class="graph" transform="scale(1 1) rotate(0) translate(4 130)">
<title>okw.gui.adapter.selenium.SeAnyChildWindow.SelectMenu</title>
<polygon fill="white" stroke="white" points="-4,5 -4,-130 759,-130 759,5 -4,5"/>
<!-- Node503 -->
<g id="node1" class="node"><title>Node503</title>
<polygon fill="#bfbfbf" stroke="black" points="0,-46 0,-80 158,-80 158,-46 0,-46"/>
<text text-anchor="start" x="8" y="-67" font-family="Helvetica,sans-Serif" font-size="10.00">okw.gui.adapter.selenium.</text>
<text text-anchor="middle" x="79" y="-54" font-family="Helvetica,sans-Serif" font-size="10.00">SeAnyChildWindow.SelectMenu</text>
</g>
<!-- Node504 -->
<g id="node3" class="node"><title>Node504</title>
<a xlink:href="classokw_1_1gui_1_1_any_win_base.html#abaab572bdbed7b471f659d5dd8c76853" target="_top" xlink:title="Diese Methode ruft die Methode Logger.Instance.LogFunctionStartDebug(fps_FunctionName), und erweitert den gegebenen Methodenname in fps_FunctionName mit this.GetType().FullName um den Klassenbezeichner. ">
<polygon fill="white" stroke="black" points="194.5,-92 194.5,-126 361.5,-126 361.5,-92 194.5,-92"/>
<text text-anchor="start" x="202.5" y="-113" font-family="Helvetica,sans-Serif" font-size="10.00">okw.gui.AnyWinBase.LogFunction</text>
<text text-anchor="middle" x="278" y="-100" font-family="Helvetica,sans-Serif" font-size="10.00">StartDebug</text>
</a>
</g>
<!-- Node503&#45;&gt;Node504 -->
<g id="edge2" class="edge"><title>Node503&#45;&gt;Node504</title>
<path fill="none" stroke="midnightblue" d="M152.817,-80.0633C166.347,-83.1907 180.556,-86.4752 194.348,-89.6634"/>
<polygon fill="midnightblue" stroke="midnightblue" points="193.77,-93.1221 204.302,-91.9642 195.347,-86.3019 193.77,-93.1221"/>
</g>
<!-- Node505 -->
<g id="node5" class="node"><title>Node505</title>
<a xlink:href="classokw_1_1_log_messenger.html#af225d1f037d47b3b085175c09d78bdd2" target="_top" xlink:title="Holt die Log&#45;Meldung für MethodeNmae/Textkey ohne weitere Parameter. ">
<polygon fill="white" stroke="black" points="198,-52.5 198,-73.5 358,-73.5 358,-52.5 198,-52.5"/>
<text text-anchor="middle" x="278" y="-60.5" font-family="Helvetica,sans-Serif" font-size="10.00">okw.LogMessenger.GetMessage</text>
</a>
</g>
<!-- Node503&#45;&gt;Node505 -->
<g id="edge4" class="edge"><title>Node503&#45;&gt;Node505</title>
<path fill="none" stroke="midnightblue" d="M158.222,-63C167.875,-63 177.794,-63 187.595,-63"/>
<polygon fill="midnightblue" stroke="midnightblue" points="187.749,-66.5001 197.749,-63 187.749,-59.5001 187.749,-66.5001"/>
</g>
<!-- Node508 -->
<g id="node11" class="node"><title>Node508</title>
<a xlink:href="classokw_1_1gui_1_1_any_win_base.html#a51cf50ace21902b3a5359316f53a7f3e" target="_top" xlink:title="Methode ruft die Methode Logger.Instance.LogFunctionEndDebug() auf. ">
<polygon fill="white" stroke="black" points="194.5,-0 194.5,-34 361.5,-34 361.5,-0 194.5,-0"/>
<text text-anchor="start" x="202.5" y="-21" font-family="Helvetica,sans-Serif" font-size="10.00">okw.gui.AnyWinBase.LogFunction</text>
<text text-anchor="middle" x="278" y="-8" font-family="Helvetica,sans-Serif" font-size="10.00">EndDebug</text>
</a>
</g>
<!-- Node503&#45;&gt;Node508 -->
<g id="edge10" class="edge"><title>Node503&#45;&gt;Node508</title>
<path fill="none" stroke="midnightblue" d="M152.817,-45.9367C166.347,-42.8093 180.556,-39.5248 194.348,-36.3366"/>
<polygon fill="midnightblue" stroke="midnightblue" points="195.347,-39.6981 204.302,-34.0358 193.77,-32.8779 195.347,-39.6981"/>
</g>
<!-- Node506 -->
<g id="node7" class="node"><title>Node506</title>
<a xlink:href="classokw_1_1_log_messenger.html#a530cd6ab82ec82a04206a2e976ec06e3" target="_top" xlink:title="Interne Kernfunktion holt die Log&#45;Meldung mit Platzhaltern aus der XML&#45;Datei. ">
<polygon fill="white" stroke="black" points="398.5,-52.5 398.5,-73.5 565.5,-73.5 565.5,-52.5 398.5,-52.5"/>
<text text-anchor="middle" x="482" y="-60.5" font-family="Helvetica,sans-Serif" font-size="10.00">okw.LogMessenger.ReadMessage</text>
</a>
</g>
<!-- Node505&#45;&gt;Node506 -->
<g id="edge6" class="edge"><title>Node505&#45;&gt;Node506</title>
<path fill="none" stroke="midnightblue" d="M358.041,-63C368.003,-63 378.259,-63 388.403,-63"/>
<polygon fill="midnightblue" stroke="midnightblue" points="388.495,-66.5001 398.495,-63 388.495,-59.5001 388.495,-66.5001"/>
</g>
<!-- Node507 -->
<g id="node9" class="node"><title>Node507</title>
<a xlink:href="classokw_1_1_o_k_w___xml_reader.html#ab920b5335a2e1429c14cc5f8e79f39eb" target="_top" xlink:title="Lies den TextContent eines Tag. ">
<polygon fill="white" stroke="black" points="602,-46 602,-80 754,-80 754,-46 602,-46"/>
<text text-anchor="start" x="610" y="-67" font-family="Helvetica,sans-Serif" font-size="10.00">okw.OKW_XmlReader.getText</text>
<text text-anchor="middle" x="678" y="-54" font-family="Helvetica,sans-Serif" font-size="10.00">ContentSingleValue</text>
</a>
</g>
<!-- Node506&#45;&gt;Node507 -->
<g id="edge8" class="edge"><title>Node506&#45;&gt;Node507</title>
<path fill="none" stroke="midnightblue" d="M565.69,-63C574.29,-63 583.041,-63 591.669,-63"/>
<polygon fill="midnightblue" stroke="midnightblue" points="591.725,-66.5001 601.725,-63 591.725,-59.5001 591.725,-66.5001"/>
</g>
</g>
</svg>
