<?xml version="1.0" encoding="UTF-8" standalone="no"?>
<!DOCTYPE svg PUBLIC "-//W3C//DTD SVG 1.1//EN"
 "http://www.w3.org/Graphics/SVG/1.1/DTD/svg11.dtd">
<!-- Generated by graphviz version 2.38.0 (20140413.2041)
 -->
<!-- Title: okw.core.Core.VerifyDirectoryExists Pages: 1 -->
<svg width="347pt" height="39pt"
 viewBox="0.00 0.00 347.00 39.00" xmlns="http://www.w3.org/2000/svg" xmlns:xlink="http://www.w3.org/1999/xlink">
<g id="graph0" class="graph" transform="scale(1 1) rotate(0) translate(4 35)">
<title>okw.core.Core.VerifyDirectoryExists</title>
<polygon fill="white" stroke="none" points="-4,4 -4,-35 343,-35 343,4 -4,4"/>
<!-- Node3796 -->
<g id="node1" class="node"><title>Node3796</title>
<g id="a_node1"><a xlink:title="Prüft, ob das gegebene Verzeichnis existiert.">
<polygon fill="#bfbfbf" stroke="black" points="183,-0.5 183,-30.5 339,-30.5 339,-0.5 183,-0.5"/>
<text text-anchor="start" x="191" y="-18.5" font-family="Helvetica,sans-Serif" font-size="10.00">okw.core.Core.VerifyDirectory</text>
<text text-anchor="middle" x="261" y="-7.5" font-family="Helvetica,sans-Serif" font-size="10.00">Exists</text>
</a>
</g>
</g>
<!-- Node3797 -->
<g id="node2" class="node"><title>Node3797</title>
<g id="a_node2"><a xlink:href="classokw_1_1core_1_1_e_n.html#a832e18e87deb97fe59452da72e9cd3be" target="_top" xlink:title="Prüft, ob das gegebene Verzeichnis existiert.">
<polygon fill="white" stroke="black" points="0,-0.5 0,-30.5 147,-30.5 147,-0.5 0,-0.5"/>
<text text-anchor="start" x="8" y="-18.5" font-family="Helvetica,sans-Serif" font-size="10.00">okw.core.EN.VerifyDirectory</text>
<text text-anchor="middle" x="73.5" y="-7.5" font-family="Helvetica,sans-Serif" font-size="10.00">Exists</text>
</a>
</g>
</g>
<!-- Node3796&#45;&gt;Node3797 -->
<g id="edge1" class="edge"><title>Node3796&#45;&gt;Node3797</title>
<path fill="none" stroke="midnightblue" d="M172.883,-15.5C164.272,-15.5 155.596,-15.5 147.154,-15.5"/>
<polygon fill="midnightblue" stroke="midnightblue" points="172.943,-19.0001 182.943,-15.5 172.943,-12.0001 172.943,-19.0001"/>
</g>
</g>
</svg>
