<?xml version="1.0" encoding="UTF-8" standalone="no"?>
<!DOCTYPE svg PUBLIC "-//W3C//DTD SVG 1.1//EN"
 "http://www.w3.org/Graphics/SVG/1.1/DTD/svg11.dtd">
<!-- Generated by graphviz version 2.36.0 (20140111.2315)
 -->
<!-- Title: okw.core.Core.VerifyLabelWCM Pages: 1 -->
<!--zoomable 1653 -->
<svg id="main" version="1.1" xmlns="http://www.w3.org/2000/svg" xmlns:xlink="http://www.w3.org/1999/xlink" xml:space="preserve" onload="init(evt)">
<style type="text/css"><![CDATA[
.edge:hover path { stroke: red; }
.edge:hover polygon { stroke: red; fill: red; }
]]></style>
<script type="text/javascript"><![CDATA[
var edges = document.getElementsByTagName('g');
if (edges && edges.length) {
  for (var i=0;i<edges.length;i++) {
    if (edges[i].id.substr(0,4)=='edge') {
      edges[i].setAttribute('class','edge');
    }
  }
}
]]></script>
        <defs>
                <circle id="rim" cx="0" cy="0" r="7"/>
                <circle id="rim2" cx="0" cy="0" r="3.5"/>
                <g id="zoomPlus">
                        <use xlink:href="#rim" fill="#404040">
                                <set attributeName="fill" to="#808080" begin="zoomplus.mouseover" end="zoomplus.mouseout"/>
                        </use>
                        <path d="M-4,0h8M0,-4v8" fill="none" stroke="white" stroke-width="1.5" pointer-events="none"/>
                </g>
                <g id="zoomMin">
                        <use xlink:href="#rim" fill="#404040">
                                <set attributeName="fill" to="#808080" begin="zoomminus.mouseover" end="zoomminus.mouseout"/>
                        </use>
                        <path d="M-4,0h8" fill="none" stroke="white" stroke-width="1.5" pointer-events="none"/>
                </g>
                <g id="dirArrow">
                        <path fill="none" stroke="white" stroke-width="1.5" d="M0,-3.0v7 M-2.5,-0.5L0,-3.0L2.5,-0.5"/>
                </g>
               <g id="resetDef">
                       <use xlink:href="#rim2" fill="#404040">
                               <set attributeName="fill" to="#808080" begin="reset.mouseover" end="reset.mouseout"/>
                       </use>
               </g>
        </defs>

<script type="text/javascript">
var viewWidth = 604;
var viewHeight = 1653;
var sectionId = 'dynsection-103';
</script>
<script xlink:href="svgpan.js"/>
<svg id="graph" class="graph">
<g id="viewport">
<title>okw.core.Core.VerifyLabelWCM</title>
<polygon fill="white" stroke="none" points="-4,4 -4,-1649 600,-1649 600,4 -4,4"/>
<!-- Node3868 -->
<g id="node1" class="node"><title>Node3868</title>
<polygon fill="#bfbfbf" stroke="black" points="0,-784.5 0,-803.5 158,-803.5 158,-784.5 0,-784.5"/>
<text text-anchor="middle" x="79" y="-791.5" font-family="Helvetica,sans-Serif" font-size="10.00">okw.core.Core.VerifyLabelWCM</text>
</g>
<!-- Node3869 -->
<g id="node2" class="node"><title>Node3869</title>
<g id="a_node2"><a xlink:href="classokw_1_1core_1_1_e_n.html#a70ba07cc0050e6bd89dc133c36972d2a" target="_top" xlink:title="Überprüft die Beschreibung des Objektes. ">
<polygon fill="white" stroke="black" points="194.5,-784.5 194.5,-803.5 345.5,-803.5 345.5,-784.5 194.5,-784.5"/>
<text text-anchor="middle" x="270" y="-791.5" font-family="Helvetica,sans-Serif" font-size="10.00">okw.core.EN.VerifyLabelWCM</text>
</a>
</g>
</g>
<!-- Node3868&#45;&gt;Node3869 -->
<g id="edge1" class="edge"><title>Node3868&#45;&gt;Node3869</title>
<path fill="none" stroke="midnightblue" d="M168.416,-794C177.129,-794 185.911,-794 194.464,-794"/>
<polygon fill="midnightblue" stroke="midnightblue" points="168.238,-790.5 158.238,-794 168.238,-797.5 168.238,-790.5"/>
</g>
<!-- Node3870 -->
<g id="node3" class="node"><title>Node3870</title>
<g id="a_node3"><a xlink:href="classokw_1_1core_1_1_e_n___keywords___a_n_t_l_r___test.html#a389abd728853cdcf69faae5b1763878e" target="_top" xlink:title="okw.core.EN_Keywords\l_ANTLR_Test.tc_VerifyLabelWCM\l_MemorizedValue">
<polygon fill="white" stroke="black" points="404,-1603.5 404,-1644.5 574,-1644.5 574,-1603.5 404,-1603.5"/>
<text text-anchor="start" x="412" y="-1632.5" font-family="Helvetica,sans-Serif" font-size="10.00">okw.core.EN_Keywords</text>
<text text-anchor="start" x="412" y="-1621.5" font-family="Helvetica,sans-Serif" font-size="10.00">_ANTLR_Test.tc_VerifyLabelWCM</text>
<text text-anchor="middle" x="489" y="-1610.5" font-family="Helvetica,sans-Serif" font-size="10.00">_MemorizedValue</text>
</a>
</g>
</g>
<!-- Node3869&#45;&gt;Node3870 -->
<g id="edge2" class="edge"><title>Node3869&#45;&gt;Node3870</title>
<path fill="none" stroke="midnightblue" d="M270.946,-813.822C271.043,-925.083 276.928,-1471.29 382,-1593 388.077,-1600.04 395.656,-1605.52 403.949,-1609.79"/>
<polygon fill="midnightblue" stroke="midnightblue" points="274.446,-813.684 270.953,-803.682 267.446,-813.679 274.446,-813.684"/>
</g>
<!-- Node3871 -->
<g id="node4" class="node"><title>Node3871</title>
<g id="a_node4"><a xlink:href="classokw_1_1core_1_1_e_n___keywords___d_e_l_e_t_e___test.html#a0e62a17933f21dc8c45b22def98ac192" target="_top" xlink:title="okw.core.EN_Keywords\l_DELETE_Test.tcSelectMenu\l_Value_MV_DELETE_EmptyString">
<polygon fill="white" stroke="black" points="404,-1543.5 404,-1584.5 574,-1584.5 574,-1543.5 404,-1543.5"/>
<text text-anchor="start" x="412" y="-1572.5" font-family="Helvetica,sans-Serif" font-size="10.00">okw.core.EN_Keywords</text>
<text text-anchor="start" x="412" y="-1561.5" font-family="Helvetica,sans-Serif" font-size="10.00">_DELETE_Test.tcSelectMenu</text>
<text text-anchor="middle" x="489" y="-1550.5" font-family="Helvetica,sans-Serif" font-size="10.00">_Value_MV_DELETE_EmptyString</text>
</a>
</g>
</g>
<!-- Node3869&#45;&gt;Node3871 -->
<g id="edge3" class="edge"><title>Node3869&#45;&gt;Node3871</title>
<path fill="none" stroke="midnightblue" d="M271.194,-813.974C272.631,-920.53 284.548,-1421.37 382,-1533 388.052,-1539.93 395.562,-1545.36 403.769,-1549.59"/>
<polygon fill="midnightblue" stroke="midnightblue" points="274.691,-813.652 271.073,-803.694 267.691,-813.735 274.691,-813.652"/>
</g>
<!-- Node3872 -->
<g id="node5" class="node"><title>Node3872</title>
<g id="a_node5"><a xlink:href="classokw_1_1core_1_1_e_n___keywords___empty___test.html#aafb0e984b138a14f5944cc74e6481bec" target="_top" xlink:title="Prüft &quot;${EMPTY}&quot; für das Schlüsslewort VerifyLabel(strng,string) ">
<polygon fill="white" stroke="black" points="403.5,-1483.5 403.5,-1524.5 574.5,-1524.5 574.5,-1483.5 403.5,-1483.5"/>
<text text-anchor="start" x="411.5" y="-1512.5" font-family="Helvetica,sans-Serif" font-size="10.00">okw.core.EN_Keywords</text>
<text text-anchor="start" x="411.5" y="-1501.5" font-family="Helvetica,sans-Serif" font-size="10.00">_Empty_Test.tc_VerifyLabelWCM_</text>
<text text-anchor="middle" x="489" y="-1490.5" font-family="Helvetica,sans-Serif" font-size="10.00">Empty</text>
</a>
</g>
</g>
<!-- Node3869&#45;&gt;Node3872 -->
<g id="edge4" class="edge"><title>Node3869&#45;&gt;Node3872</title>
<path fill="none" stroke="midnightblue" d="M271.484,-813.932C274.337,-915.143 292.087,-1371.34 382,-1473 387.97,-1479.75 395.321,-1485.07 403.345,-1489.25"/>
<polygon fill="midnightblue" stroke="midnightblue" points="274.98,-813.756 271.217,-803.852 267.983,-813.941 274.98,-813.756"/>
</g>
<!-- Node3873 -->
<g id="node6" class="node"><title>Node3873</title>
<g id="a_node6"><a xlink:href="classokw_1_1core_1_1_e_n___keywords___i_g_n_o_r_e___test.html#a4dfe2d0247c22c5eb1f1f94cc559aff0" target="_top" xlink:title="okw.core.EN_Keywords\l_IGNORE_Test.tcVerifyLabelWCM\l_IGNORE">
<polygon fill="white" stroke="black" points="403,-1423.5 403,-1464.5 575,-1464.5 575,-1423.5 403,-1423.5"/>
<text text-anchor="start" x="411" y="-1452.5" font-family="Helvetica,sans-Serif" font-size="10.00">okw.core.EN_Keywords</text>
<text text-anchor="start" x="411" y="-1441.5" font-family="Helvetica,sans-Serif" font-size="10.00">_IGNORE_Test.tcVerifyLabelWCM</text>
<text text-anchor="middle" x="489" y="-1430.5" font-family="Helvetica,sans-Serif" font-size="10.00">_IGNORE</text>
</a>
</g>
</g>
<!-- Node3869&#45;&gt;Node3873 -->
<g id="edge5" class="edge"><title>Node3869&#45;&gt;Node3873</title>
<path fill="none" stroke="midnightblue" d="M271.83,-813.956C276.206,-909.721 299.621,-1321.29 382,-1413 387.894,-1419.56 395.092,-1424.77 402.936,-1428.89"/>
<polygon fill="midnightblue" stroke="midnightblue" points="275.323,-813.723 271.388,-803.886 268.33,-814.03 275.323,-813.723"/>
</g>
<!-- Node3874 -->
<g id="node7" class="node"><title>Node3874</title>
<g id="a_node7"><a xlink:href="classokw_1_1core_1_1_e_n___keywords___i_g_n_o_r_e___test.html#afd5a4fbb77f79820fc665a62a10a7924" target="_top" xlink:title="okw.core.EN_Keywords\l_IGNORE_Test.tcVerifyLabelWCM\l_IGNORE_EmptyString">
<polygon fill="white" stroke="black" points="403,-1363.5 403,-1404.5 575,-1404.5 575,-1363.5 403,-1363.5"/>
<text text-anchor="start" x="411" y="-1392.5" font-family="Helvetica,sans-Serif" font-size="10.00">okw.core.EN_Keywords</text>
<text text-anchor="start" x="411" y="-1381.5" font-family="Helvetica,sans-Serif" font-size="10.00">_IGNORE_Test.tcVerifyLabelWCM</text>
<text text-anchor="middle" x="489" y="-1370.5" font-family="Helvetica,sans-Serif" font-size="10.00">_IGNORE_EmptyString</text>
</a>
</g>
</g>
<!-- Node3869&#45;&gt;Node3874 -->
<g id="edge6" class="edge"><title>Node3869&#45;&gt;Node3874</title>
<path fill="none" stroke="midnightblue" d="M272.227,-814.028C278.15,-904.286 306.654,-1272.36 382,-1354 387.902,-1360.39 395.054,-1365.46 402.826,-1369.48"/>
<polygon fill="midnightblue" stroke="midnightblue" points="275.704,-813.566 271.576,-803.808 268.719,-814.011 275.704,-813.566"/>
</g>
<!-- Node3875 -->
<g id="node8" class="node"><title>Node3875</title>
<g id="a_node8"><a xlink:href="classokw_1_1core_1_1_e_n___keywords___test.html#af0480b6de0340fe3c17398da7aaa3839" target="_top" xlink:title="&quot;Normaler&quot; Testfall für das Schlüsselwort EN.VerifyLabelWCM(String,String). ">
<polygon fill="white" stroke="black" points="423,-1315 423,-1345 555,-1345 555,-1315 423,-1315"/>
<text text-anchor="start" x="431" y="-1333" font-family="Helvetica,sans-Serif" font-size="10.00">okw.core.EN_Keywords</text>
<text text-anchor="middle" x="489" y="-1322" font-family="Helvetica,sans-Serif" font-size="10.00">_Test.tc_VerifyLabelWCM</text>
</a>
</g>
</g>
<!-- Node3869&#45;&gt;Node3875 -->
<g id="edge7" class="edge"><title>Node3869&#45;&gt;Node3875</title>
<path fill="none" stroke="midnightblue" d="M272.544,-813.959C279.551,-899.352 311.137,-1232.87 382,-1305 392.932,-1316.13 407.826,-1322.68 422.994,-1326.45"/>
<polygon fill="midnightblue" stroke="midnightblue" points="276.018,-813.495 271.732,-803.806 269.04,-814.053 276.018,-813.495"/>
</g>
<!-- Node3876 -->
<g id="node9" class="node"><title>Node3876</title>
<g id="a_node9"><a xlink:href="classokw_1_1core_1_1_e_n___o_k_w_frame_object_child_not_found_exception___test.html#a1f17a9b2071e2c989d6f13a17261d4c1" target="_top" xlink:title="Prüft ob die Ausnahme OKWFrameObjectChildNotFoundException durch die LFC&#45;VerifyCaption ausgelöst wird...">
<polygon fill="white" stroke="black" points="383.5,-1244 383.5,-1296 594.5,-1296 594.5,-1244 383.5,-1244"/>
<text text-anchor="start" x="391.5" y="-1284" font-family="Helvetica,sans-Serif" font-size="10.00">okw.core.EN_OKWFrameObject</text>
<text text-anchor="start" x="391.5" y="-1273" font-family="Helvetica,sans-Serif" font-size="10.00">ChildNotFoundException</text>
<text text-anchor="start" x="391.5" y="-1262" font-family="Helvetica,sans-Serif" font-size="10.00">_Test.TC_VerifyLabelWCM</text>
<text text-anchor="middle" x="489" y="-1251" font-family="Helvetica,sans-Serif" font-size="10.00">_OKWFrameObjectChildNotFoundException</text>
</a>
</g>
</g>
<!-- Node3869&#45;&gt;Node3876 -->
<g id="edge8" class="edge"><title>Node3869&#45;&gt;Node3876</title>
<path fill="none" stroke="midnightblue" d="M273.52,-814.173C283.596,-891.845 323.305,-1170.39 382,-1234 385.295,-1237.57 388.957,-1240.79 392.884,-1243.69"/>
<polygon fill="midnightblue" stroke="midnightblue" points="276.941,-813.332 272.203,-803.856 269.997,-814.218 276.941,-813.332"/>
</g>
<!-- Node3877 -->
<g id="node10" class="node"><title>Node3877</title>
<g id="a_node10"><a xlink:href="classokw_1_1core_1_1_e_n___o_k_w_frame_object_method_not_implemented___test.html#a62484fa5ac110f76c7871dff8cdc2395" target="_top" xlink:title="Prüft ob die Ausnahme OKWFrameObjectMethodNotImplemented von VerifyCaptionWCM( FN, ExpVal ) ausgelöst wird. ">
<polygon fill="white" stroke="black" points="382,-1173 382,-1225 596,-1225 596,-1173 382,-1173"/>
<text text-anchor="start" x="390" y="-1213" font-family="Helvetica,sans-Serif" font-size="10.00">okw.core.EN_OKWFrameObject</text>
<text text-anchor="start" x="390" y="-1202" font-family="Helvetica,sans-Serif" font-size="10.00">MethodNotImplemented_Test.TC</text>
<text text-anchor="start" x="390" y="-1191" font-family="Helvetica,sans-Serif" font-size="10.00">_VerifyLabelWCM_OKWFrameObjectMethod</text>
<text text-anchor="middle" x="489" y="-1180" font-family="Helvetica,sans-Serif" font-size="10.00">NotImplemented</text>
</a>
</g>
</g>
<!-- Node3869&#45;&gt;Node3877 -->
<g id="edge9" class="edge"><title>Node3869&#45;&gt;Node3877</title>
<path fill="none" stroke="midnightblue" d="M270.976,-813.64C271.982,-874.313 283.348,-1060.81 382,-1163 385.51,-1166.64 389.4,-1169.9 393.557,-1172.84"/>
<polygon fill="midnightblue" stroke="midnightblue" points="274.475,-813.503 270.89,-803.533 267.475,-813.563 274.475,-813.503"/>
</g>
<!-- Node3878 -->
<g id="node11" class="node"><title>Node3878</title>
<g id="a_node11"><a xlink:href="classokw_1_1core_1_1_e_n___o_k_w_frame_object_method_not_implemented___test.html#a111596776b0372c8c042d5c674be2ec9" target="_top" xlink:title="Prüft ob die Ausnahme OKWFrameObjectMethodNotImplemented von VerifyPlaceholderWCM( FN...">
<polygon fill="white" stroke="black" points="384.5,-1102 384.5,-1154 593.5,-1154 593.5,-1102 384.5,-1102"/>
<text text-anchor="start" x="392.5" y="-1142" font-family="Helvetica,sans-Serif" font-size="10.00">okw.core.EN_OKWFrameObject</text>
<text text-anchor="start" x="392.5" y="-1131" font-family="Helvetica,sans-Serif" font-size="10.00">MethodNotImplemented_Test.TC</text>
<text text-anchor="start" x="392.5" y="-1120" font-family="Helvetica,sans-Serif" font-size="10.00">_VerifyPlaceholderWCM_OKWFrameObject</text>
<text text-anchor="middle" x="489" y="-1109" font-family="Helvetica,sans-Serif" font-size="10.00">MethodNotImplemented</text>
</a>
</g>
</g>
<!-- Node3869&#45;&gt;Node3878 -->
<g id="edge10" class="edge"><title>Node3869&#45;&gt;Node3878</title>
<path fill="none" stroke="midnightblue" d="M272.668,-813.499C278.185,-865.903 300.44,-1011.2 382,-1091 386.18,-1095.09 390.835,-1098.73 395.798,-1101.97"/>
<polygon fill="midnightblue" stroke="midnightblue" points="276.15,-813.145 271.707,-803.526 269.183,-813.816 276.15,-813.145"/>
</g>
<!-- Node3879 -->
<g id="node12" class="node"><title>Node3879</title>
<g id="a_node12"><a xlink:href="classokw_1_1core_1_1_e_n___o_k_w_not_allowed_value_exception___keywords___i_g_n_o_r_e.html#ab5b67589389cb02e0547185fbf862097" target="_top" xlink:title="Prüft ob &quot;${IGNORE} &quot; die Ausnahme okw.exceptions.OKWNotAllowedValueException auslöst. ">
<polygon fill="white" stroke="black" points="393,-1041.5 393,-1082.5 585,-1082.5 585,-1041.5 393,-1041.5"/>
<text text-anchor="start" x="401" y="-1070.5" font-family="Helvetica,sans-Serif" font-size="10.00">okw.core.EN_OKWNotAllowed</text>
<text text-anchor="start" x="401" y="-1059.5" font-family="Helvetica,sans-Serif" font-size="10.00">ValueException_Keywords</text>
<text text-anchor="middle" x="489" y="-1048.5" font-family="Helvetica,sans-Serif" font-size="10.00">_IGNORE.tcVerifyLabelWCMIGNORE1</text>
</a>
</g>
</g>
<!-- Node3869&#45;&gt;Node3879 -->
<g id="edge11" class="edge"><title>Node3869&#45;&gt;Node3879</title>
<path fill="none" stroke="midnightblue" d="M274.572,-813.909C283.787,-859.393 312.674,-971.574 382,-1031 386.586,-1034.93 391.648,-1038.36 396.999,-1041.36"/>
<polygon fill="midnightblue" stroke="midnightblue" points="277.964,-813.015 272.64,-803.855 271.09,-814.335 277.964,-813.015"/>
</g>
<!-- Node3880 -->
<g id="node13" class="node"><title>Node3880</title>
<g id="a_node13"><a xlink:href="classokw_1_1core_1_1_e_n___o_k_w_not_allowed_value_exception___keywords___i_g_n_o_r_e.html#a59950fbfd35a688eb5f7b348023b627c" target="_top" xlink:title="Prüft ob &quot;&quot;${IGNORE}${TCN}&quot; die Ausnahme okw.exceptions.OKWNotAllowedValueException auslöst...">
<polygon fill="white" stroke="black" points="393,-981.5 393,-1022.5 585,-1022.5 585,-981.5 393,-981.5"/>
<text text-anchor="start" x="401" y="-1010.5" font-family="Helvetica,sans-Serif" font-size="10.00">okw.core.EN_OKWNotAllowed</text>
<text text-anchor="start" x="401" y="-999.5" font-family="Helvetica,sans-Serif" font-size="10.00">ValueException_Keywords</text>
<text text-anchor="middle" x="489" y="-988.5" font-family="Helvetica,sans-Serif" font-size="10.00">_IGNORE.tcVerifyLabelWCMIGNORE2</text>
</a>
</g>
</g>
<!-- Node3869&#45;&gt;Node3880 -->
<g id="edge12" class="edge"><title>Node3869&#45;&gt;Node3880</title>
<path fill="none" stroke="midnightblue" d="M277.725,-813.236C291.448,-849.65 326.182,-928.778 382,-971 387.276,-974.991 393.054,-978.469 399.105,-981.5"/>
<polygon fill="midnightblue" stroke="midnightblue" points="280.99,-811.973 274.275,-803.778 274.413,-814.372 280.99,-811.973"/>
</g>
<!-- Node3881 -->
<g id="node14" class="node"><title>Node3881</title>
<g id="a_node14"><a xlink:href="classokw_1_1core_1_1_e_n___verify_label___o_k_w_verifying_fails_exception___test.html#a8413c81f5d96301ecc9a1e3beaf0561e" target="_top" xlink:title="Prüft, ob die Ausnahme OKWVerifyingFailsException bei einem Soll/Ist&#45;Vergleich ausgelöst wird...">
<polygon fill="white" stroke="black" points="386.5,-910 386.5,-962 591.5,-962 591.5,-910 386.5,-910"/>
<text text-anchor="start" x="394.5" y="-950" font-family="Helvetica,sans-Serif" font-size="10.00">okw.core.EN_VerifyLabel</text>
<text text-anchor="start" x="394.5" y="-939" font-family="Helvetica,sans-Serif" font-size="10.00">_OKWVerifyingFailsException</text>
<text text-anchor="start" x="394.5" y="-928" font-family="Helvetica,sans-Serif" font-size="10.00">_Test.TC_VerifyLabelWCM_OKWVerifying</text>
<text text-anchor="middle" x="489" y="-917" font-family="Helvetica,sans-Serif" font-size="10.00">FailsException_M01</text>
</a>
</g>
</g>
<!-- Node3869&#45;&gt;Node3881 -->
<g id="edge13" class="edge"><title>Node3869&#45;&gt;Node3881</title>
<path fill="none" stroke="midnightblue" d="M285.138,-811.634C304.651,-834.906 341.992,-875.752 382,-900 387.983,-903.626 394.38,-906.945 400.956,-909.97"/>
<polygon fill="midnightblue" stroke="midnightblue" points="287.621,-809.143 278.563,-803.647 282.216,-813.592 287.621,-809.143"/>
</g>
<!-- Node3882 -->
<g id="node15" class="node"><title>Node3882</title>
<g id="a_node15"><a xlink:href="classokw_1_1core_1_1_e_n___verify_label___o_k_w_verifying_fails_exception___test.html#a33635eb753e79dcd7f891ecb903b72f3" target="_top" xlink:title="Prüft, ob die Ausnahme OKWVerifyingFailsException bei einem Soll/Ist&#45;Vergleich ausgelöst wird...">
<polygon fill="white" stroke="black" points="386.5,-839 386.5,-891 591.5,-891 591.5,-839 386.5,-839"/>
<text text-anchor="start" x="394.5" y="-879" font-family="Helvetica,sans-Serif" font-size="10.00">okw.core.EN_VerifyLabel</text>
<text text-anchor="start" x="394.5" y="-868" font-family="Helvetica,sans-Serif" font-size="10.00">_OKWVerifyingFailsException</text>
<text text-anchor="start" x="394.5" y="-857" font-family="Helvetica,sans-Serif" font-size="10.00">_Test.TC_VerifyLabelWCM_OKWVerifying</text>
<text text-anchor="middle" x="489" y="-846" font-family="Helvetica,sans-Serif" font-size="10.00">FailsException_SV01</text>
</a>
</g>
</g>
<!-- Node3869&#45;&gt;Node3882 -->
<g id="edge14" class="edge"><title>Node3869&#45;&gt;Node3882</title>
<path fill="none" stroke="midnightblue" d="M309.853,-806.712C337.205,-815.661 374.784,-827.957 408.379,-838.949"/>
<polygon fill="midnightblue" stroke="midnightblue" points="310.858,-803.359 300.266,-803.575 308.681,-810.012 310.858,-803.359"/>
</g>
<!-- Node3883 -->
<g id="node16" class="node"><title>Node3883</title>
<g id="a_node16"><a xlink:href="classokw_1_1core_1_1_e_n___verify_label___o_k_w_verifying_fails_exception___test.html#aad4f76c8fb7d37d6d3a4353d9c4d8bbe" target="_top" xlink:title="Prüft, ob die Ausnahme OKWVerifyingFailsException bei einem Soll/Ist&#45;Vergleich ausgelöst wird...">
<polygon fill="white" stroke="black" points="386.5,-768 386.5,-820 591.5,-820 591.5,-768 386.5,-768"/>
<text text-anchor="start" x="394.5" y="-808" font-family="Helvetica,sans-Serif" font-size="10.00">okw.core.EN_VerifyLabel</text>
<text text-anchor="start" x="394.5" y="-797" font-family="Helvetica,sans-Serif" font-size="10.00">_OKWVerifyingFailsException</text>
<text text-anchor="start" x="394.5" y="-786" font-family="Helvetica,sans-Serif" font-size="10.00">_Test.TC_VerifyLabelWCM_OKWVerifying</text>
<text text-anchor="middle" x="489" y="-775" font-family="Helvetica,sans-Serif" font-size="10.00">FailsException_SV02</text>
</a>
</g>
</g>
<!-- Node3869&#45;&gt;Node3883 -->
<g id="edge15" class="edge"><title>Node3869&#45;&gt;Node3883</title>
<path fill="none" stroke="midnightblue" d="M355.956,-794C365.929,-794 376.181,-794 386.353,-794"/>
<polygon fill="midnightblue" stroke="midnightblue" points="355.679,-790.5 345.679,-794 355.679,-797.5 355.679,-790.5"/>
</g>
<!-- Node3884 -->
<g id="node17" class="node"><title>Node3884</title>
<g id="a_node17"><a xlink:href="classokw_1_1core_1_1_e_n___verify_label___o_k_w_verifying_fails_exception___test.html#adeb23837ad921772273100a2bbe27b26" target="_top" xlink:title="Prüft, ob die Ausnahme OKWVerifyingFailsException bei einem Soll/Ist&#45;Vergleich ausgelöst wird...">
<polygon fill="white" stroke="black" points="386.5,-697 386.5,-749 591.5,-749 591.5,-697 386.5,-697"/>
<text text-anchor="start" x="394.5" y="-737" font-family="Helvetica,sans-Serif" font-size="10.00">okw.core.EN_VerifyLabel</text>
<text text-anchor="start" x="394.5" y="-726" font-family="Helvetica,sans-Serif" font-size="10.00">_OKWVerifyingFailsException</text>
<text text-anchor="start" x="394.5" y="-715" font-family="Helvetica,sans-Serif" font-size="10.00">_Test.TC_VerifyLabelWCM_OKWVerifying</text>
<text text-anchor="middle" x="489" y="-704" font-family="Helvetica,sans-Serif" font-size="10.00">FailsException_SV03</text>
</a>
</g>
</g>
<!-- Node3869&#45;&gt;Node3884 -->
<g id="edge16" class="edge"><title>Node3869&#45;&gt;Node3884</title>
<path fill="none" stroke="midnightblue" d="M309.853,-781.288C337.205,-772.339 374.784,-760.043 408.379,-749.051"/>
<polygon fill="midnightblue" stroke="midnightblue" points="308.681,-777.988 300.266,-784.425 310.858,-784.641 308.681,-777.988"/>
</g>
<!-- Node3885 -->
<g id="node18" class="node"><title>Node3885</title>
<g id="a_node18"><a xlink:href="classokw_1_1core_1_1_e_n___verify_label___o_k_w_verifying_fails_exception___test.html#a15e8ab6a40bdf507abd90b3b588986df" target="_top" xlink:title="Prüft, ob die Ausnahme OKWVerifyingFailsException bei einem Soll/Ist&#45;Vergleich ausgelöst wird...">
<polygon fill="white" stroke="black" points="386.5,-626 386.5,-678 591.5,-678 591.5,-626 386.5,-626"/>
<text text-anchor="start" x="394.5" y="-666" font-family="Helvetica,sans-Serif" font-size="10.00">okw.core.EN_VerifyLabel</text>
<text text-anchor="start" x="394.5" y="-655" font-family="Helvetica,sans-Serif" font-size="10.00">_OKWVerifyingFailsException</text>
<text text-anchor="start" x="394.5" y="-644" font-family="Helvetica,sans-Serif" font-size="10.00">_Test.TC_VerifyLabelWCM_OKWVerifying</text>
<text text-anchor="middle" x="489" y="-633" font-family="Helvetica,sans-Serif" font-size="10.00">FailsException_MV01</text>
</a>
</g>
</g>
<!-- Node3869&#45;&gt;Node3885 -->
<g id="edge17" class="edge"><title>Node3869&#45;&gt;Node3885</title>
<path fill="none" stroke="midnightblue" d="M285.138,-776.366C304.651,-753.094 341.992,-712.248 382,-688 387.983,-684.374 394.38,-681.055 400.956,-678.03"/>
<polygon fill="midnightblue" stroke="midnightblue" points="282.216,-774.408 278.563,-784.353 287.621,-778.857 282.216,-774.408"/>
</g>
<!-- Node3886 -->
<g id="node19" class="node"><title>Node3886</title>
<g id="a_node19"><a xlink:href="classokw_1_1core_1_1_e_n___verify_label___o_k_w_verifying_fails_exception___test.html#a11a50d6db7152fa1c06ad1a49d601f04" target="_top" xlink:title="Prüft, ob die Ausnahme OKWVerifyingFailsException bei einem Soll/Ist&#45;Vergleich ausgelöst wird...">
<polygon fill="white" stroke="black" points="386.5,-555 386.5,-607 591.5,-607 591.5,-555 386.5,-555"/>
<text text-anchor="start" x="394.5" y="-595" font-family="Helvetica,sans-Serif" font-size="10.00">okw.core.EN_VerifyLabel</text>
<text text-anchor="start" x="394.5" y="-584" font-family="Helvetica,sans-Serif" font-size="10.00">_OKWVerifyingFailsException</text>
<text text-anchor="start" x="394.5" y="-573" font-family="Helvetica,sans-Serif" font-size="10.00">_Test.TC_VerifyLabelWCM_OKWVerifying</text>
<text text-anchor="middle" x="489" y="-562" font-family="Helvetica,sans-Serif" font-size="10.00">FailsException_MV02</text>
</a>
</g>
</g>
<!-- Node3869&#45;&gt;Node3886 -->
<g id="edge18" class="edge"><title>Node3869&#45;&gt;Node3886</title>
<path fill="none" stroke="midnightblue" d="M277.892,-774.98C291.9,-738.934 327.1,-660.409 382,-617 386.65,-613.323 391.696,-610.012 396.979,-607.031"/>
<polygon fill="midnightblue" stroke="midnightblue" points="274.617,-773.746 274.364,-784.338 281.167,-776.215 274.617,-773.746"/>
</g>
<!-- Node3887 -->
<g id="node20" class="node"><title>Node3887</title>
<g id="a_node20"><a xlink:href="classokw_1_1core_1_1_e_n___verify_label___o_k_w_verifying_fails_exception___test.html#a2dfdbf1d19acc598f043745b7176b783" target="_top" xlink:title="Prüft, ob die Ausnahme OKWVerifyingFailsException bei einem Soll/Ist&#45;Vergleich ausgelöst wird...">
<polygon fill="white" stroke="black" points="386.5,-484 386.5,-536 591.5,-536 591.5,-484 386.5,-484"/>
<text text-anchor="start" x="394.5" y="-524" font-family="Helvetica,sans-Serif" font-size="10.00">okw.core.EN_VerifyLabel</text>
<text text-anchor="start" x="394.5" y="-513" font-family="Helvetica,sans-Serif" font-size="10.00">_OKWVerifyingFailsException</text>
<text text-anchor="start" x="394.5" y="-502" font-family="Helvetica,sans-Serif" font-size="10.00">_Test.TC_VerifyLabelWCM_OKWVerifying</text>
<text text-anchor="middle" x="489" y="-491" font-family="Helvetica,sans-Serif" font-size="10.00">FailsException_MV03</text>
</a>
</g>
</g>
<!-- Node3869&#45;&gt;Node3887 -->
<g id="edge19" class="edge"><title>Node3869&#45;&gt;Node3887</title>
<path fill="none" stroke="midnightblue" d="M274.287,-774.335C283.078,-727.846 311.438,-610.258 382,-546 386.023,-542.336 390.435,-539.043 395.101,-536.083"/>
<polygon fill="midnightblue" stroke="midnightblue" points="270.818,-773.854 272.499,-784.315 277.708,-775.089 270.818,-773.854"/>
</g>
<!-- Node3888 -->
<g id="node21" class="node"><title>Node3888</title>
<g id="a_node21"><a xlink:href="classokw_1_1core_1_1_e_n___verify_label___o_k_w_verifying_fails_exception___test.html#adfdfa5dad4e3e11fc268a7406cfec681" target="_top" xlink:title="Prüft, ob die Ausnahme OKWVerifyingFailsException bei einem Soll/Ist&#45;Vergleich ausgelöst wird...">
<polygon fill="white" stroke="black" points="386.5,-413 386.5,-465 591.5,-465 591.5,-413 386.5,-413"/>
<text text-anchor="start" x="394.5" y="-453" font-family="Helvetica,sans-Serif" font-size="10.00">okw.core.EN_VerifyLabel</text>
<text text-anchor="start" x="394.5" y="-442" font-family="Helvetica,sans-Serif" font-size="10.00">_OKWVerifyingFailsException</text>
<text text-anchor="start" x="394.5" y="-431" font-family="Helvetica,sans-Serif" font-size="10.00">_Test.TC_VerifyLabelWCM_OKWVerifying</text>
<text text-anchor="middle" x="489" y="-420" font-family="Helvetica,sans-Serif" font-size="10.00">FailsException_MV04</text>
</a>
</g>
</g>
<!-- Node3869&#45;&gt;Node3888 -->
<g id="edge20" class="edge"><title>Node3869&#45;&gt;Node3888</title>
<path fill="none" stroke="midnightblue" d="M272.075,-774.15C276.14,-718.805 295.16,-561.195 382,-475 385.724,-471.303 389.842,-467.986 394.229,-465.009"/>
<polygon fill="midnightblue" stroke="midnightblue" points="268.568,-774.14 271.415,-784.345 275.554,-774.592 268.568,-774.14"/>
</g>
<!-- Node3889 -->
<g id="node22" class="node"><title>Node3889</title>
<g id="a_node22"><a xlink:href="classokw_1_1_se_b_a_c_k_1_1_se_b_a_c_k___e_n___test.html#a29f741cf52b591e86a930e4e122787b8" target="_top" xlink:title="Test des Schlüsselwortes &quot;VerifyLabelWCM( FN, ExpVal ) für SeBACK. ">
<polygon fill="white" stroke="black" points="386,-352.5 386,-393.5 592,-393.5 592,-352.5 386,-352.5"/>
<text text-anchor="start" x="394" y="-381.5" font-family="Helvetica,sans-Serif" font-size="10.00">okw.SeBACK.SeBACK_EN</text>
<text text-anchor="start" x="394" y="-370.5" font-family="Helvetica,sans-Serif" font-size="10.00">_Test.tcVerifyLabelWCM</text>
<text text-anchor="middle" x="489" y="-359.5" font-family="Helvetica,sans-Serif" font-size="10.00">_OKWFrameObjectMethodNotImplemented</text>
</a>
</g>
</g>
<!-- Node3869&#45;&gt;Node3889 -->
<g id="edge21" class="edge"><title>Node3869&#45;&gt;Node3889</title>
<path fill="none" stroke="midnightblue" d="M270.409,-774.319C269.625,-711.045 276.009,-510.76 382,-404 385.918,-400.054 390.308,-396.604 395.013,-393.589"/>
<polygon fill="midnightblue" stroke="midnightblue" points="266.913,-774.559 270.616,-784.486 273.911,-774.416 266.913,-774.559"/>
</g>
<!-- Node3890 -->
<g id="node23" class="node"><title>Node3890</title>
<g id="a_node23"><a xlink:href="classokw_1_1_se_button_1_1_se_button___e_n___test.html#ad7a9a0dd1e9c8cfaffc43f899500763f" target="_top" xlink:title="Test des Schlüsselwortes VerifyLabel für den GUI&#45;Adapter SeButton. ">
<polygon fill="white" stroke="black" points="416,-304 416,-334 562,-334 562,-304 416,-304"/>
<text text-anchor="start" x="424" y="-322" font-family="Helvetica,sans-Serif" font-size="10.00">okw.SeButton.SeButton</text>
<text text-anchor="middle" x="489" y="-311" font-family="Helvetica,sans-Serif" font-size="10.00">_EN_Test.tcVerifyLabelWCM</text>
</a>
</g>
</g>
<!-- Node3869&#45;&gt;Node3890 -->
<g id="edge22" class="edge"><title>Node3869&#45;&gt;Node3890</title>
<path fill="none" stroke="midnightblue" d="M273.133,-774.139C282.005,-695.252 318.511,-405.315 382,-343 391.292,-333.88 403.275,-327.933 415.824,-324.111"/>
<polygon fill="midnightblue" stroke="midnightblue" points="269.642,-773.872 272.025,-784.195 276.6,-774.639 269.642,-773.872"/>
</g>
<!-- Node3891 -->
<g id="node24" class="node"><title>Node3891</title>
<g id="a_node24"><a xlink:href="classokw_1_1_se_input_checkbox_1_1_se_input_checkbox___e_n___test.html#ad572d5badb79741c496835cbb5c2d6df" target="_top" xlink:title="Prüft die SetFocusFunktion bei Textfelder mit dem Attribute &quot;ReadOnly&quot;. ">
<polygon fill="white" stroke="black" points="410,-255 410,-285 568,-285 568,-255 410,-255"/>
<text text-anchor="start" x="418" y="-273" font-family="Helvetica,sans-Serif" font-size="10.00">okw.SeInputCheckbox.SeInput</text>
<text text-anchor="middle" x="489" y="-262" font-family="Helvetica,sans-Serif" font-size="10.00">Checkbox_EN_Test.tcSetFocus</text>
</a>
</g>
</g>
<!-- Node3869&#45;&gt;Node3891 -->
<g id="edge23" class="edge"><title>Node3869&#45;&gt;Node3891</title>
<path fill="none" stroke="midnightblue" d="M272.638,-774.248C279.985,-690.432 312.62,-365.269 382,-295 389.771,-287.129 399.526,-281.55 409.952,-277.626"/>
<polygon fill="midnightblue" stroke="midnightblue" points="269.133,-774.16 271.768,-784.422 276.107,-774.756 269.133,-774.16"/>
</g>
<!-- Node3892 -->
<g id="node25" class="node"><title>Node3892</title>
<g id="a_node25"><a xlink:href="classokw_1_1_se_input_field_1_1_se_input_field___e_n___test.html#a9dcd93d3338372dbb93aaa6065990df9" target="_top" xlink:title="Prüft, ob die Methode VerifyLabel bei einer Soll/Ist Abweichung die Ausnahme OKWVerifyingFailsExcepti...">
<polygon fill="white" stroke="black" points="414.5,-195.5 414.5,-236.5 563.5,-236.5 563.5,-195.5 414.5,-195.5"/>
<text text-anchor="start" x="422.5" y="-224.5" font-family="Helvetica,sans-Serif" font-size="10.00">okw.SeInputField.SeInput</text>
<text text-anchor="start" x="422.5" y="-213.5" font-family="Helvetica,sans-Serif" font-size="10.00">Field_EN_Test.tcVerifyLabel</text>
<text text-anchor="middle" x="489" y="-202.5" font-family="Helvetica,sans-Serif" font-size="10.00">_OKWVerifyingFailsException</text>
</a>
</g>
</g>
<!-- Node3869&#45;&gt;Node3892 -->
<g id="edge24" class="edge"><title>Node3869&#45;&gt;Node3892</title>
<path fill="none" stroke="midnightblue" d="M272.291,-774.397C278.494,-686.056 308.041,-325.802 382,-246 390.775,-236.531 402.293,-229.97 414.496,-225.442"/>
<polygon fill="midnightblue" stroke="midnightblue" points="268.797,-774.185 271.608,-784.4 275.781,-774.661 268.797,-774.185"/>
</g>
<!-- Node3893 -->
<g id="node26" class="node"><title>Node3893</title>
<g id="a_node26"><a xlink:href="classokw_1_1_se_input_radio_1_1_se_input_radio___e_n___test.html#a6a86224f9d84da7d414a93ac0ab0925e" target="_top" xlink:title="Test des Schlüsselwortes VerifyLabel für den GUI&#45;Adapter SeInputRadio. ">
<polygon fill="white" stroke="black" points="400.5,-147 400.5,-177 577.5,-177 577.5,-147 400.5,-147"/>
<text text-anchor="start" x="408.5" y="-165" font-family="Helvetica,sans-Serif" font-size="10.00">okw.SeInputRadio.SeInput</text>
<text text-anchor="middle" x="489" y="-154" font-family="Helvetica,sans-Serif" font-size="10.00">Radio_EN_Test.tc_VerifyLabelWCM</text>
</a>
</g>
</g>
<!-- Node3869&#45;&gt;Node3893 -->
<g id="edge25" class="edge"><title>Node3869&#45;&gt;Node3893</title>
<path fill="none" stroke="midnightblue" d="M271.781,-773.999C275.905,-678.89 298.239,-273.363 382,-186 387.289,-180.484 393.557,-176.113 400.363,-172.662"/>
<polygon fill="midnightblue" stroke="midnightblue" points="268.274,-774.098 271.357,-784.234 275.268,-774.388 268.274,-774.098"/>
</g>
<!-- Node3894 -->
<g id="node27" class="node"><title>Node3894</title>
<g id="a_node27"><a xlink:href="classokw_1_1_se_link_1_1_se_link___e_n___test.html#ad88f4d017f1a55ad12f9ffc5ed0ab336" target="_top" xlink:title="Prüft die Methode SeLink.MemorizeToolTip. ">
<polygon fill="white" stroke="black" points="412,-98 412,-128 566,-128 566,-98 412,-98"/>
<text text-anchor="start" x="420" y="-116" font-family="Helvetica,sans-Serif" font-size="10.00">okw.SeLink.SeLink_EN</text>
<text text-anchor="middle" x="489" y="-105" font-family="Helvetica,sans-Serif" font-size="10.00">_Test.TC_MemorizeToolTip_en</text>
</a>
</g>
</g>
<!-- Node3869&#45;&gt;Node3894 -->
<g id="edge26" class="edge"><title>Node3869&#45;&gt;Node3894</title>
<path fill="none" stroke="midnightblue" d="M271.497,-774.349C274.402,-675.503 292.306,-233.626 382,-138 390.149,-129.312 400.707,-123.386 411.994,-119.389"/>
<polygon fill="midnightblue" stroke="midnightblue" points="267.996,-774.342 271.219,-784.434 274.994,-774.534 267.996,-774.342"/>
</g>
<!-- Node3895 -->
<g id="node28" class="node"><title>Node3895</title>
<g id="a_node28"><a xlink:href="classokw_1_1_se_m_a_x_i_m_i_z_e_1_1_se_m_a_x_i_m_i_z_e___e_n___test.html#aa41e7be4c4dc27be4a70b60adb4b9593" target="_top" xlink:title="Test des Schlüsselwortes &quot;VerifyLabelWCM( FN, ExpVal ) für SeMAXIMIZE. ">
<polygon fill="white" stroke="black" points="408,-49 408,-79 570,-79 570,-49 408,-49"/>
<text text-anchor="start" x="416" y="-67" font-family="Helvetica,sans-Serif" font-size="10.00">okw.SeMAXIMIZE.SeMAXIMIZE</text>
<text text-anchor="middle" x="489" y="-56" font-family="Helvetica,sans-Serif" font-size="10.00">_EN_Test.tcVerifyLabelWCM</text>
</a>
</g>
</g>
<!-- Node3869&#45;&gt;Node3895 -->
<g id="edge27" class="edge"><title>Node3869&#45;&gt;Node3895</title>
<path fill="none" stroke="midnightblue" d="M271.247,-774.199C272.95,-670.682 285.978,-192.554 382,-89 389.135,-81.3052 398.159,-75.7718 407.916,-71.8243"/>
<polygon fill="midnightblue" stroke="midnightblue" points="267.748,-774.171 271.1,-784.222 274.747,-774.274 267.748,-774.171"/>
</g>
<!-- Node3896 -->
<g id="node29" class="node"><title>Node3896</title>
<g id="a_node29"><a xlink:href="classokw_1_1_se_radio_list_1_1_se_radio_list___e_n___test.html#a4ba84c588853824c99cd27c7d8dfb86e" target="_top" xlink:title="okw.SeRadioList.SeRadioList\l_EN_Test.tcLogIsActive">
<polygon fill="white" stroke="black" points="415.5,-0 415.5,-30 562.5,-30 562.5,-0 415.5,-0"/>
<text text-anchor="start" x="423.5" y="-18" font-family="Helvetica,sans-Serif" font-size="10.00">okw.SeRadioList.SeRadioList</text>
<text text-anchor="middle" x="489" y="-7" font-family="Helvetica,sans-Serif" font-size="10.00">_EN_Test.tcLogIsActive</text>
</a>
</g>
</g>
<!-- Node3869&#45;&gt;Node3896 -->
<g id="edge28" class="edge"><title>Node3869&#45;&gt;Node3896</title>
<path fill="none" stroke="midnightblue" d="M271.025,-774.204C271.575,-666.473 279.588,-151.56 382,-40 390.887,-30.3196 402.761,-24.0528 415.345,-20.0595"/>
<polygon fill="midnightblue" stroke="midnightblue" points="267.525,-774.307 270.991,-784.319 274.525,-774.331 267.525,-774.307"/>
</g>
</g>
</svg>
        <g id="navigator" transform="translate(0 0)" fill="#404254">
                <rect fill="#f2f5e9" fill-opacity="0.5" stroke="#606060" stroke-width=".5" x="0" y="0" width="60" height="60"/>
                <use id="zoomplus" xlink:href="#zoomPlus" x="17" y="9" onmousedown="handleZoom(evt,'in')"/>
                <use id="zoomminus" xlink:href="#zoomMin" x="42" y="9" onmousedown="handleZoom(evt,'out')"/>
                <use id="reset" xlink:href="#resetDef" x="30" y="36" onmousedown="handleReset()"/>
                <g id="arrowUp" xlink:href="#dirArrow" transform="translate(30 24)" onmousedown="handlePan(0,-1)">
                  <use xlink:href="#rim" fill="#404040">
                        <set attributeName="fill" to="#808080" begin="arrowUp.mouseover" end="arrowUp.mouseout"/>
                  </use>
                  <path fill="none" stroke="white" stroke-width="1.5" d="M0,-3.0v7 M-2.5,-0.5L0,-3.0L2.5,-0.5"/>
                </g>
                <g id="arrowRight" xlink:href="#dirArrow" transform="rotate(90) translate(36 -43)" onmousedown="handlePan(1,0)">
                  <use xlink:href="#rim" fill="#404040">
                        <set attributeName="fill" to="#808080" begin="arrowRight.mouseover" end="arrowRight.mouseout"/>
                  </use>
                  <path fill="none" stroke="white" stroke-width="1.5" d="M0,-3.0v7 M-2.5,-0.5L0,-3.0L2.5,-0.5"/>
                </g>
                <g id="arrowDown" xlink:href="#dirArrow" transform="rotate(180) translate(-30 -48)" onmousedown="handlePan(0,1)">
                  <use xlink:href="#rim" fill="#404040">
                        <set attributeName="fill" to="#808080" begin="arrowDown.mouseover" end="arrowDown.mouseout"/>
                  </use>
                  <path fill="none" stroke="white" stroke-width="1.5" d="M0,-3.0v7 M-2.5,-0.5L0,-3.0L2.5,-0.5"/>
                </g>
                <g id="arrowLeft" xlink:href="#dirArrow" transform="rotate(270) translate(-36 17)" onmousedown="handlePan(-1,0)">
                  <use xlink:href="#rim" fill="#404040">
                        <set attributeName="fill" to="#808080" begin="arrowLeft.mouseover" end="arrowLeft.mouseout"/>
                  </use>
                  <path fill="none" stroke="white" stroke-width="1.5" d="M0,-3.0v7 M-2.5,-0.5L0,-3.0L2.5,-0.5"/>
                </g>
        </g>
        <svg viewBox="0 0 15 15" width="100%" height="30px" preserveAspectRatio="xMaxYMin meet">
         <g id="arrow_out" transform="scale(0.3 0.3)">
          <a xlink:href="classokw_1_1core_1_1_core_a6e3d7fe88a78afa61a1a340dd2da88b7_icgraph_org.svg" target="_base">
           <rect id="button" ry="5" rx="5" y="6" x="6" height="38" width="38"
                fill="#f2f5e9" fill-opacity="0.5" stroke="#606060" stroke-width="1.0"/>
           <path id="arrow"
             d="M 11.500037,31.436501 C 11.940474,20.09759 22.043105,11.32322 32.158766,21.979434 L 37.068811,17.246167 C 37.068811,17.246167 37.088388,32 37.088388,32 L 22.160133,31.978069 C 22.160133,31.978069 26.997745,27.140456 26.997745,27.140456 C 18.528582,18.264221 13.291696,25.230495 11.500037,31.436501 z"
             style="fill:#404040;"/>
          </a>
         </g>
        </svg>
</svg>
