<?xml version="1.0" encoding="UTF-8" standalone="no"?>
<!DOCTYPE svg PUBLIC "-//W3C//DTD SVG 1.1//EN"
 "http://www.w3.org/Graphics/SVG/1.1/DTD/svg11.dtd">
<!-- Generated by graphviz version 2.26.3 (20100126.1600)
 -->
<!-- Title: okw.gui.adapter.selenium.SeAnyChildWindow.VerifyExists Pages: 1 -->
<svg width="936pt" height="342pt"
 viewBox="0.00 0.00 936.00 342.00" xmlns="http://www.w3.org/2000/svg" xmlns:xlink="http://www.w3.org/1999/xlink">
<g id="graph1" class="graph" transform="scale(1 1) rotate(0) translate(4 338)">
<title>okw.gui.adapter.selenium.SeAnyChildWindow.VerifyExists</title>
<polygon fill="white" stroke="white" points="-4,5 -4,-338 933,-338 933,5 -4,5"/>
<!-- Node579 -->
<g id="node1" class="node"><title>Node579</title>
<polygon fill="#bfbfbf" stroke="black" points="0,-156 0,-190 160,-190 160,-156 0,-156"/>
<text text-anchor="start" x="8" y="-177" font-family="Helvetica,sans-Serif" font-size="10.00">okw.gui.adapter.selenium.</text>
<text text-anchor="middle" x="80" y="-164" font-family="Helvetica,sans-Serif" font-size="10.00">SeAnyChildWindow.VerifyExists</text>
</g>
<!-- Node580 -->
<g id="node3" class="node"><title>Node580</title>
<a xlink:href="classokw_1_1gui_1_1_any_win_base.html#abaab572bdbed7b471f659d5dd8c76853" target="_top" xlink:title="Diese Methode ruft die Methode Logger.Instance.LogFunctionStartDebug(fps_FunctionName), und erweitert den gegebenen Methodenname in fps_FunctionName mit this.GetType().FullName um den Klassenbezeichner. ">
<polygon fill="white" stroke="black" points="380.5,-300 380.5,-334 547.5,-334 547.5,-300 380.5,-300"/>
<text text-anchor="start" x="388.5" y="-321" font-family="Helvetica,sans-Serif" font-size="10.00">okw.gui.AnyWinBase.LogFunction</text>
<text text-anchor="middle" x="464" y="-308" font-family="Helvetica,sans-Serif" font-size="10.00">StartDebug</text>
</a>
</g>
<!-- Node579&#45;&gt;Node580 -->
<g id="edge2" class="edge"><title>Node579&#45;&gt;Node580</title>
<path fill="none" stroke="midnightblue" d="M120.399,-190.002C177.679,-213.852 285.997,-258.016 380,-291 385.537,-292.943 391.305,-294.888 397.109,-296.792"/>
<polygon fill="midnightblue" stroke="midnightblue" points="396.287,-300.204 406.879,-299.948 398.439,-293.543 396.287,-300.204"/>
</g>
<!-- Node581 -->
<g id="node5" class="node"><title>Node581</title>
<a xlink:href="classokw_1_1gui_1_1adapter_1_1selenium_1_1_se_any_child_window.html#abbf4e30bd11acd1ad0c06706a6e43871" target="_top" xlink:title="Prüft die Existenz des aktuellen Objektes. ">
<polygon fill="white" stroke="black" points="196,-156 196,-190 344,-190 344,-156 196,-156"/>
<text text-anchor="start" x="204" y="-177" font-family="Helvetica,sans-Serif" font-size="10.00">okw.gui.adapter.selenium.</text>
<text text-anchor="middle" x="270" y="-164" font-family="Helvetica,sans-Serif" font-size="10.00">SeAnyChildWindow.getExists</text>
</a>
</g>
<!-- Node579&#45;&gt;Node581 -->
<g id="edge4" class="edge"><title>Node579&#45;&gt;Node581</title>
<path fill="none" stroke="midnightblue" d="M160.026,-173C168.462,-173 177.06,-173 185.544,-173"/>
<polygon fill="midnightblue" stroke="midnightblue" points="185.817,-176.5 195.817,-173 185.817,-169.5 185.817,-176.5"/>
</g>
<!-- Node590 -->
<g id="node24" class="node"><title>Node590</title>
<a xlink:href="classokw_1_1gui_1_1_any_win_base.html#a51cf50ace21902b3a5359316f53a7f3e" target="_top" xlink:title="Methode ruft die Methode Logger.Instance.LogFunctionEndDebug() auf. ">
<polygon fill="white" stroke="black" points="380.5,-0 380.5,-34 547.5,-34 547.5,-0 380.5,-0"/>
<text text-anchor="start" x="388.5" y="-21" font-family="Helvetica,sans-Serif" font-size="10.00">okw.gui.AnyWinBase.LogFunction</text>
<text text-anchor="middle" x="464" y="-8" font-family="Helvetica,sans-Serif" font-size="10.00">EndDebug</text>
</a>
</g>
<!-- Node579&#45;&gt;Node590 -->
<g id="edge26" class="edge"><title>Node579&#45;&gt;Node590</title>
<path fill="none" stroke="midnightblue" d="M115.964,-155.899C171.751,-129.718 282.85,-78.9631 380,-43 385.19,-41.0789 390.594,-39.1805 396.048,-37.3369"/>
<polygon fill="midnightblue" stroke="midnightblue" points="397.488,-40.5473 405.883,-34.0846 395.29,-33.9012 397.488,-40.5473"/>
</g>
<!-- Node581&#45;&gt;Node580 -->
<g id="edge6" class="edge"><title>Node581&#45;&gt;Node580</title>
<path fill="none" stroke="midnightblue" d="M285.745,-190.002C315.81,-222.451 378.558,-290.095 380,-291 382.485,-292.559 385.071,-294.031 387.728,-295.419"/>
<polygon fill="midnightblue" stroke="midnightblue" points="386.459,-298.692 396.993,-299.826 389.465,-292.37 386.459,-298.692"/>
</g>
<!-- Node582 -->
<g id="node8" class="node"><title>Node582</title>
<a xlink:href="classokw_1_1gui_1_1_any_win_base.html#a9929f6fae1f4e2c20df79d32d5bc79db" target="_top" xlink:title="Holt den vollständig (rekursiv) aufgelösten (z.B. ">
<polygon fill="white" stroke="black" points="384.5,-260.5 384.5,-281.5 543.5,-281.5 543.5,-260.5 384.5,-260.5"/>
<text text-anchor="middle" x="464" y="-268.5" font-family="Helvetica,sans-Serif" font-size="10.00">okw.gui.AnyWinBase.getLocator</text>
</a>
</g>
<!-- Node581&#45;&gt;Node582 -->
<g id="edge8" class="edge"><title>Node581&#45;&gt;Node582</title>
<path fill="none" stroke="midnightblue" d="M289.241,-190.169C310.149,-207.939 345.239,-235.256 380,-251 385.336,-253.417 391.001,-255.562 396.769,-257.462"/>
<polygon fill="midnightblue" stroke="midnightblue" points="395.949,-260.871 406.535,-260.433 397.986,-254.174 395.949,-260.871"/>
</g>
<!-- Node584 -->
<g id="node12" class="node"><title>Node584</title>
<a xlink:href="classokw_1_1gui_1_1adapter_1_1selenium_1_1_se_driver.html#acb82765e99981ecc210e7599bbc2c639" target="_top" xlink:title="Gibt die Instance für die einzige Instanz dieser Klasse zurück. ">
<polygon fill="white" stroke="black" points="398.5,-208 398.5,-242 529.5,-242 529.5,-208 398.5,-208"/>
<text text-anchor="start" x="406.5" y="-229" font-family="Helvetica,sans-Serif" font-size="10.00">okw.gui.adapter.selenium.</text>
<text text-anchor="middle" x="464" y="-216" font-family="Helvetica,sans-Serif" font-size="10.00">SeDriver.getInstance</text>
</a>
</g>
<!-- Node581&#45;&gt;Node584 -->
<g id="edge12" class="edge"><title>Node581&#45;&gt;Node584</title>
<path fill="none" stroke="midnightblue" d="M333.523,-190.027C351.779,-194.92 371.838,-200.297 390.636,-205.335"/>
<polygon fill="midnightblue" stroke="midnightblue" points="389.769,-208.727 400.334,-207.935 391.582,-201.965 389.769,-208.727"/>
</g>
<!-- Node585 -->
<g id="node14" class="node"><title>Node585</title>
<a xlink:href="classokw_1_1gui_1_1adapter_1_1selenium_1_1_se_driver.html#ae71e420f6619b67bb69ca8d70455d807" target="_top" xlink:title="Ermittelt das Webelement mit der gegebenen frameID und dem gegebenen Locator. ">
<polygon fill="white" stroke="black" points="398.5,-156 398.5,-190 529.5,-190 529.5,-156 398.5,-156"/>
<text text-anchor="start" x="406.5" y="-177" font-family="Helvetica,sans-Serif" font-size="10.00">okw.gui.adapter.selenium.</text>
<text text-anchor="middle" x="464" y="-164" font-family="Helvetica,sans-Serif" font-size="10.00">SeDriver.getElements</text>
</a>
</g>
<!-- Node581&#45;&gt;Node585 -->
<g id="edge14" class="edge"><title>Node581&#45;&gt;Node585</title>
<path fill="none" stroke="midnightblue" d="M344.173,-173C358.548,-173 373.631,-173 388.062,-173"/>
<polygon fill="midnightblue" stroke="midnightblue" points="388.434,-176.5 398.434,-173 388.434,-169.5 388.434,-176.5"/>
</g>
<!-- Node588 -->
<g id="node20" class="node"><title>Node588</title>
<a xlink:href="classokw_1_1log_1_1_logger___sngltn.html#a2c15e9b2cd0c6266f4c67b8cb00d92e5" target="_top" xlink:title="LogWarning Function: Logs a warning to the results file. ">
<polygon fill="white" stroke="black" points="397,-104 397,-138 531,-138 531,-104 397,-104"/>
<text text-anchor="start" x="405" y="-125" font-family="Helvetica,sans-Serif" font-size="10.00">okw.log.Logger_Sngltn.Log</text>
<text text-anchor="middle" x="464" y="-112" font-family="Helvetica,sans-Serif" font-size="10.00">Warning</text>
</a>
</g>
<!-- Node581&#45;&gt;Node588 -->
<g id="edge20" class="edge"><title>Node581&#45;&gt;Node588</title>
<path fill="none" stroke="midnightblue" d="M333.523,-155.973C351.779,-151.08 371.838,-145.703 390.636,-140.665"/>
<polygon fill="midnightblue" stroke="midnightblue" points="391.582,-144.035 400.334,-138.065 389.769,-137.273 391.582,-144.035"/>
</g>
<!-- Node589 -->
<g id="node22" class="node"><title>Node589</title>
<a xlink:href="classokw_1_1log_1_1_logger___sngltn.html#a313f97c79ba4662d9daaf7f537dd02f4" target="_top" xlink:title="Loggt eine Nachricht. ">
<polygon fill="white" stroke="black" points="397,-52 397,-86 531,-86 531,-52 397,-52"/>
<text text-anchor="start" x="405" y="-73" font-family="Helvetica,sans-Serif" font-size="10.00">okw.log.Logger_Sngltn.Log</text>
<text text-anchor="middle" x="464" y="-60" font-family="Helvetica,sans-Serif" font-size="10.00">PrintDebug</text>
</a>
</g>
<!-- Node581&#45;&gt;Node589 -->
<g id="edge22" class="edge"><title>Node581&#45;&gt;Node589</title>
<path fill="none" stroke="midnightblue" d="M289.845,-155.963C310.975,-138.562 345.991,-111.786 380,-95 383.773,-93.1377 387.707,-91.3751 391.725,-89.7122"/>
<polygon fill="midnightblue" stroke="midnightblue" points="393.166,-92.9069 401.211,-86.0131 390.623,-86.3851 393.166,-92.9069"/>
</g>
<!-- Node581&#45;&gt;Node590 -->
<g id="edge24" class="edge"><title>Node581&#45;&gt;Node590</title>
<path fill="none" stroke="midnightblue" d="M284.868,-155.974C299.901,-138.7 323.742,-111.142 344,-87 360.241,-67.6444 359.042,-57.1125 380,-43 382.295,-41.4546 384.686,-39.9976 387.149,-38.6244"/>
<polygon fill="midnightblue" stroke="midnightblue" points="388.966,-41.6281 396.329,-34.0098 385.823,-35.3737 388.966,-41.6281"/>
</g>
<!-- Node583 -->
<g id="node10" class="node"><title>Node583</title>
<a xlink:href="classokw_1_1gui_1_1_o_k_w_locator.html#adc74fc2125dd048dc1cb84e011f47ec8" target="_top" xlink:title="Holt den vollständig (rekursiv) aufgelösten (z.B. ">
<polygon fill="white" stroke="black" points="584,-260.5 584,-281.5 742,-281.5 742,-260.5 584,-260.5"/>
<text text-anchor="middle" x="663" y="-268.5" font-family="Helvetica,sans-Serif" font-size="10.00">okw.gui.OKWLocator.getLocator</text>
</a>
</g>
<!-- Node582&#45;&gt;Node583 -->
<g id="edge10" class="edge"><title>Node582&#45;&gt;Node583</title>
<path fill="none" stroke="midnightblue" d="M543.508,-271C553.495,-271 563.762,-271 573.885,-271"/>
<polygon fill="midnightblue" stroke="midnightblue" points="573.943,-274.5 583.943,-271 573.943,-267.5 573.943,-274.5"/>
</g>
<!-- Node586 -->
<g id="node16" class="node"><title>Node586</title>
<a xlink:href="classokw_1_1gui_1_1adapter_1_1selenium_1_1_se_driver.html#a502a7d54c1a8b80424cd42a4e168a191" target="_top" xlink:title="Wechselt das aktuelle Frame auf das Frame mit der id=iframeID. ">
<polygon fill="white" stroke="black" points="597.5,-156 597.5,-190 728.5,-190 728.5,-156 597.5,-156"/>
<text text-anchor="start" x="605.5" y="-177" font-family="Helvetica,sans-Serif" font-size="10.00">okw.gui.adapter.selenium.</text>
<text text-anchor="middle" x="663" y="-164" font-family="Helvetica,sans-Serif" font-size="10.00">SeDriver.swichToFrame</text>
</a>
</g>
<!-- Node585&#45;&gt;Node586 -->
<g id="edge16" class="edge"><title>Node585&#45;&gt;Node586</title>
<path fill="none" stroke="midnightblue" d="M529.712,-173C548.137,-173 568.316,-173 587.272,-173"/>
<polygon fill="midnightblue" stroke="midnightblue" points="587.357,-176.5 597.357,-173 587.357,-169.5 587.357,-176.5"/>
</g>
<!-- Node587 -->
<g id="node18" class="node"><title>Node587</title>
<a xlink:href="classokw_1_1_o_k_w___helper.html#a3a7ba0f42b29adf70574830688e72e4a" target="_top" xlink:title="Prüft ob der gegeben String fpsStrin null oder leer (&quot;&quot;) ist. ">
<polygon fill="white" stroke="black" points="778.5,-156 778.5,-190 927.5,-190 927.5,-156 778.5,-156"/>
<text text-anchor="start" x="786.5" y="-177" font-family="Helvetica,sans-Serif" font-size="10.00">okw.OKW_Helper.isStringNull</text>
<text text-anchor="middle" x="853" y="-164" font-family="Helvetica,sans-Serif" font-size="10.00">OrEmpty</text>
</a>
</g>
<!-- Node586&#45;&gt;Node587 -->
<g id="edge18" class="edge"><title>Node586&#45;&gt;Node587</title>
<path fill="none" stroke="midnightblue" d="M728.653,-173C741.389,-173 754.905,-173 768.155,-173"/>
<polygon fill="midnightblue" stroke="midnightblue" points="768.218,-176.5 778.218,-173 768.217,-169.5 768.218,-176.5"/>
</g>
</g>
</svg>
