<?xml version="1.0" encoding="UTF-8" standalone="no"?>
<!DOCTYPE svg PUBLIC "-//W3C//DTD SVG 1.1//EN"
 "http://www.w3.org/Graphics/SVG/1.1/DTD/svg11.dtd">
<!-- Generated by graphviz version 2.38.0 (20140413.2041)
 -->
<!-- Title: okw.core.EN.MemorizeLabel Pages: 1 -->
<!--zoomable 544 -->
<svg id="main" version="1.1" xmlns="http://www.w3.org/2000/svg" xmlns:xlink="http://www.w3.org/1999/xlink" xml:space="preserve" onload="init(evt)">
<style type="text/css"><![CDATA[
.edge:hover path { stroke: red; }
.edge:hover polygon { stroke: red; fill: red; }
]]></style>
<script type="text/javascript"><![CDATA[
var edges = document.getElementsByTagName('g');
if (edges && edges.length) {
  for (var i=0;i<edges.length;i++) {
    if (edges[i].id.substr(0,4)=='edge') {
      edges[i].setAttribute('class','edge');
    }
  }
}
]]></script>
        <defs>
                <circle id="rim" cx="0" cy="0" r="7"/>
                <circle id="rim2" cx="0" cy="0" r="3.5"/>
                <g id="zoomPlus">
                        <use xlink:href="#rim" fill="#404040">
                                <set attributeName="fill" to="#808080" begin="zoomplus.mouseover" end="zoomplus.mouseout"/>
                        </use>
                        <path d="M-4,0h8M0,-4v8" fill="none" stroke="white" stroke-width="1.5" pointer-events="none"/>
                </g>
                <g id="zoomMin">
                        <use xlink:href="#rim" fill="#404040">
                                <set attributeName="fill" to="#808080" begin="zoomminus.mouseover" end="zoomminus.mouseout"/>
                        </use>
                        <path d="M-4,0h8" fill="none" stroke="white" stroke-width="1.5" pointer-events="none"/>
                </g>
                <g id="dirArrow">
                        <path fill="none" stroke="white" stroke-width="1.5" d="M0,-3.0v7 M-2.5,-0.5L0,-3.0L2.5,-0.5"/>
                </g>
               <g id="resetDef">
                       <use xlink:href="#rim2" fill="#404040">
                               <set attributeName="fill" to="#808080" begin="reset.mouseover" end="reset.mouseout"/>
                       </use>
               </g>
        </defs>

<script type="text/javascript">
var viewWidth = 415;
var viewHeight = 544;
var sectionId = 'dynsection-34';
</script>
<script xlink:href="svgpan.js"/>
<svg id="graph" class="graph">
<g id="viewport">
<title>okw.core.EN.MemorizeLabel</title>
<polygon fill="white" stroke="none" points="-4,4 -4,-540 411,-540 411,4 -4,4"/>
<!-- Node1171 -->
<g id="node1" class="node"><title>Node1171</title>
<g id="a_node1"><a xlink:title="Speirchert den aktuellen Wert der Etikette, und legt diesen unter fpsMemKeyName ab.">
<polygon fill="#bfbfbf" stroke="black" points="257,-257.5 257,-276.5 407,-276.5 407,-257.5 257,-257.5"/>
<text text-anchor="middle" x="332" y="-264.5" font-family="Helvetica,sans-Serif" font-size="10.00">okw.core.EN.MemorizeLabel</text>
</a>
</g>
</g>
<!-- Node1172 -->
<g id="node2" class="node"><title>Node1172</title>
<g id="a_node2"><a xlink:href="classokw_1_1core_1_1_e_n___o_k_w_not_allowed_value_exception___keywords___i_g_n_o_r_e.html#a2a8cb99a9d1cc182f3bc3ccf5b52848f" target="_top" xlink:title="Prüft ob &quot;${IGNORE} &quot; die Ausnahme okw.exceptions.OKWNotAllowedValueException auslöst.">
<polygon fill="white" stroke="black" points="17.5,-494.5 17.5,-535.5 203.5,-535.5 203.5,-494.5 17.5,-494.5"/>
<text text-anchor="start" x="25.5" y="-523.5" font-family="Helvetica,sans-Serif" font-size="10.00">okw.core.EN_OKWNotAllowed</text>
<text text-anchor="start" x="25.5" y="-512.5" font-family="Helvetica,sans-Serif" font-size="10.00">ValueException_Keywords</text>
<text text-anchor="middle" x="110.5" y="-501.5" font-family="Helvetica,sans-Serif" font-size="10.00">_IGNORE.tcMemorizeLabelIGNORE1</text>
</a>
</g>
</g>
<!-- Node1171&#45;&gt;Node1172 -->
<g id="edge1" class="edge"><title>Node1171&#45;&gt;Node1172</title>
<path fill="none" stroke="midnightblue" d="M326.812,-286.539C316.611,-329.285 286.372,-431.544 221,-485 215.736,-489.305 209.902,-492.994 203.747,-496.156"/>
<polygon fill="midnightblue" stroke="midnightblue" points="330.272,-287.11 329.077,-276.582 323.446,-285.557 330.272,-287.11"/>
</g>
<!-- Node1173 -->
<g id="node3" class="node"><title>Node1173</title>
<g id="a_node3"><a xlink:href="classokw_1_1core_1_1_e_n___o_k_w_not_allowed_value_exception___keywords___i_g_n_o_r_e.html#a15ebf4abb1c918d82e9def2e5eae825f" target="_top" xlink:title="Prüft ob &quot;&quot;${IGNORE}${TCN}&quot; die Ausnahme okw.exceptions.OKWNotAllowedValueException auslöst.">
<polygon fill="white" stroke="black" points="17.5,-434.5 17.5,-475.5 203.5,-475.5 203.5,-434.5 17.5,-434.5"/>
<text text-anchor="start" x="25.5" y="-463.5" font-family="Helvetica,sans-Serif" font-size="10.00">okw.core.EN_OKWNotAllowed</text>
<text text-anchor="start" x="25.5" y="-452.5" font-family="Helvetica,sans-Serif" font-size="10.00">ValueException_Keywords</text>
<text text-anchor="middle" x="110.5" y="-441.5" font-family="Helvetica,sans-Serif" font-size="10.00">_IGNORE.tcMemorizeLabelIGNORE2</text>
</a>
</g>
</g>
<!-- Node1171&#45;&gt;Node1173 -->
<g id="edge2" class="edge"><title>Node1171&#45;&gt;Node1173</title>
<path fill="none" stroke="midnightblue" d="M323.059,-286.052C308.148,-319.444 272.73,-388.457 221,-425 215.607,-428.81 209.75,-432.136 203.643,-435.041"/>
<polygon fill="midnightblue" stroke="midnightblue" points="326.412,-287.116 327.174,-276.548 319.989,-284.334 326.412,-287.116"/>
</g>
<!-- Node1174 -->
<g id="node4" class="node"><title>Node1174</title>
<g id="a_node4"><a xlink:href="classokw_1_1_se_b_a_c_k_1_1_se_b_a_c_k___e_n___test.html#ab0bddf0bdf4a7017f461bfd9baa76624" target="_top" xlink:title="Teste das Schlüsselwort MemorizeLabel( FN, MemKey ) eines SeBACK Prüfen.">
<polygon fill="white" stroke="black" points="-1.42109e-14,-374.5 -1.42109e-14,-415.5 221,-415.5 221,-374.5 -1.42109e-14,-374.5"/>
<text text-anchor="start" x="8" y="-403.5" font-family="Helvetica,sans-Serif" font-size="10.00">okw.SeBACK.SeBACK_EN</text>
<text text-anchor="start" x="8" y="-392.5" font-family="Helvetica,sans-Serif" font-size="10.00">_Test.tcMemorizeLabel</text>
<text text-anchor="middle" x="110.5" y="-381.5" font-family="Helvetica,sans-Serif" font-size="10.00">_OKWFrameObjectMethodNotImplemented</text>
</a>
</g>
</g>
<!-- Node1171&#45;&gt;Node1174 -->
<g id="edge3" class="edge"><title>Node1171&#45;&gt;Node1174</title>
<path fill="none" stroke="midnightblue" d="M316.704,-284.157C297.296,-306.339 260.476,-344.646 221,-366 215.205,-369.134 209.052,-371.945 202.734,-374.463"/>
<polygon fill="midnightblue" stroke="midnightblue" points="319.405,-286.383 323.259,-276.514 314.092,-281.826 319.405,-286.383"/>
</g>
<!-- Node1175 -->
<g id="node5" class="node"><title>Node1175</title>
<g id="a_node5"><a xlink:href="classokw_1_1_se_button_1_1_se_button___e_n___test.html#abf28e6329df074217d8c0bc889fdb9b4" target="_top" xlink:title="Test des Schlüsselwortes MemorizeCaption für den GUI&#45;Adapter SeButton.">
<polygon fill="white" stroke="black" points="38.5,-326 38.5,-356 182.5,-356 182.5,-326 38.5,-326"/>
<text text-anchor="start" x="46.5" y="-344" font-family="Helvetica,sans-Serif" font-size="10.00">okw.SeButton.SeButton</text>
<text text-anchor="middle" x="110.5" y="-333" font-family="Helvetica,sans-Serif" font-size="10.00">_EN_Test.tcMemorizeLabel</text>
</a>
</g>
</g>
<!-- Node1171&#45;&gt;Node1175 -->
<g id="edge4" class="edge"><title>Node1171&#45;&gt;Node1175</title>
<path fill="none" stroke="midnightblue" d="M304.166,-281.131C282.28,-292.179 250.303,-307.25 221,-317 208.812,-321.055 195.631,-324.615 182.778,-327.664"/>
<polygon fill="midnightblue" stroke="midnightblue" points="305.869,-284.192 313.177,-276.521 302.681,-277.96 305.869,-284.192"/>
</g>
<!-- Node1176 -->
<g id="node6" class="node"><title>Node1176</title>
<g id="a_node6"><a xlink:href="classokw_1_1_se_input_field_1_1_se_input_field___e_n___test.html#a6ae8699a98d818972e564c77d818da20" target="_top" xlink:title="Teste das Schlüsselwort MemorizeLabel( FN, MemKey ) eines SeInputText Prüfen.">
<polygon fill="white" stroke="black" points="28,-277 28,-307 193,-307 193,-277 28,-277"/>
<text text-anchor="start" x="36" y="-295" font-family="Helvetica,sans-Serif" font-size="10.00">okw.SeInputField.SeInput</text>
<text text-anchor="middle" x="110.5" y="-284" font-family="Helvetica,sans-Serif" font-size="10.00">Field_EN_Test.tcMemorizeLabel</text>
</a>
</g>
</g>
<!-- Node1171&#45;&gt;Node1176 -->
<g id="edge5" class="edge"><title>Node1171&#45;&gt;Node1176</title>
<path fill="none" stroke="midnightblue" d="M246.749,-276.596C229.144,-278.601 210.611,-280.712 193.104,-282.706"/>
<polygon fill="midnightblue" stroke="midnightblue" points="247.454,-280.038 256.993,-275.429 246.661,-273.083 247.454,-280.038"/>
</g>
<!-- Node1177 -->
<g id="node7" class="node"><title>Node1177</title>
<g id="a_node7"><a xlink:href="classokw_1_1_se_input_radio_1_1_se_input_radio___e_n___test.html#a39fbafcc74d53e91efb523e129b67aa2" target="_top" xlink:title="Test des Schlüsselwortes MemorizeLabel für den GUI&#45;Adapter SeInputRadio.">
<polygon fill="white" stroke="black" points="22.5,-228 22.5,-258 198.5,-258 198.5,-228 22.5,-228"/>
<text text-anchor="start" x="30.5" y="-246" font-family="Helvetica,sans-Serif" font-size="10.00">okw.SeInputRadio.SeInput</text>
<text text-anchor="middle" x="110.5" y="-235" font-family="Helvetica,sans-Serif" font-size="10.00">Radio_EN_Test.tc_MemorizeLabel</text>
</a>
</g>
</g>
<!-- Node1171&#45;&gt;Node1177 -->
<g id="edge6" class="edge"><title>Node1171&#45;&gt;Node1177</title>
<path fill="none" stroke="midnightblue" d="M246.794,-257.793C231.09,-256.076 214.646,-254.278 198.85,-252.551"/>
<polygon fill="midnightblue" stroke="midnightblue" points="246.672,-261.3 256.993,-258.908 247.433,-254.342 246.672,-261.3"/>
</g>
<!-- Node1178 -->
<g id="node8" class="node"><title>Node1178</title>
<g id="a_node8"><a xlink:href="classokw_1_1_se_m_a_x_i_m_i_z_e_1_1_se_m_a_x_i_m_i_z_e___e_n___test.html#a7124f05d1703f310ef914e1bfd48fa51" target="_top" xlink:title="Teste das Schlüsselwort MemorizeLabel( FN, MemKey ) eines SeMAXIMIZE Prüfen.">
<polygon fill="white" stroke="black" points="-1.42109e-14,-168.5 -1.42109e-14,-209.5 221,-209.5 221,-168.5 -1.42109e-14,-168.5"/>
<text text-anchor="start" x="8" y="-197.5" font-family="Helvetica,sans-Serif" font-size="10.00">okw.SeMAXIMIZE.SeMAXIMIZE</text>
<text text-anchor="start" x="8" y="-186.5" font-family="Helvetica,sans-Serif" font-size="10.00">_EN_Test.tcMemorizeLabel</text>
<text text-anchor="middle" x="110.5" y="-175.5" font-family="Helvetica,sans-Serif" font-size="10.00">_OKWFrameObjectMethodNotImplemented</text>
</a>
</g>
</g>
<!-- Node1171&#45;&gt;Node1178 -->
<g id="edge7" class="edge"><title>Node1171&#45;&gt;Node1178</title>
<path fill="none" stroke="midnightblue" d="M302.381,-253.155C280.443,-242.877 249.239,-228.971 221,-219 211.614,-215.686 201.67,-212.512 191.753,-209.551"/>
<polygon fill="midnightblue" stroke="midnightblue" points="300.936,-256.343 311.472,-257.456 303.929,-250.016 300.936,-256.343"/>
</g>
<!-- Node1179 -->
<g id="node9" class="node"><title>Node1179</title>
<g id="a_node9"><a xlink:href="classokw_1_1_se_radio_list_1_1_se_radio_list___e_n___test.html#ab6da5e2d827c5e804768ff83bf7bb6ff" target="_top" xlink:title="Prüft die Methode SeRadioList.MemorizeValue.">
<polygon fill="white" stroke="black" points="35,-120 35,-150 186,-150 186,-120 35,-120"/>
<text text-anchor="start" x="43" y="-138" font-family="Helvetica,sans-Serif" font-size="10.00">okw.SeRadioList.SeRadioList</text>
<text text-anchor="middle" x="110.5" y="-127" font-family="Helvetica,sans-Serif" font-size="10.00">_EN_Test.tcMemorizeLabel</text>
</a>
</g>
</g>
<!-- Node1171&#45;&gt;Node1179 -->
<g id="edge8" class="edge"><title>Node1171&#45;&gt;Node1179</title>
<path fill="none" stroke="midnightblue" d="M318.05,-249.076C299.44,-224.71 262.743,-181.588 221,-159 210.302,-153.211 198.301,-148.819 186.271,-145.485"/>
<polygon fill="midnightblue" stroke="midnightblue" points="315.485,-251.491 324.27,-257.414 321.096,-247.306 315.485,-251.491"/>
</g>
<!-- Node1180 -->
<g id="node10" class="node"><title>Node1180</title>
<g id="a_node10"><a xlink:href="classokw_1_1_se_radio_list_1_1_se_radio_list___e_n___test.html#a4303fc17d4342ecb5458f71b8696a83b" target="_top" xlink:title="Prüft die Methode SeRadioList.MemorizeLabel.">
<polygon fill="white" stroke="black" points="4.5,-60.5 4.5,-101.5 216.5,-101.5 216.5,-60.5 4.5,-60.5"/>
<text text-anchor="start" x="12.5" y="-89.5" font-family="Helvetica,sans-Serif" font-size="10.00">okw.SeRadioList.SeRadioList</text>
<text text-anchor="start" x="12.5" y="-78.5" font-family="Helvetica,sans-Serif" font-size="10.00">_EN_Test.tcMemorizeLabel</text>
<text text-anchor="middle" x="110.5" y="-67.5" font-family="Helvetica,sans-Serif" font-size="10.00">_IGNORE_OKWNotAllowedValueException</text>
</a>
</g>
</g>
<!-- Node1171&#45;&gt;Node1180 -->
<g id="edge9" class="edge"><title>Node1171&#45;&gt;Node1180</title>
<path fill="none" stroke="midnightblue" d="M322.776,-247.715C307.636,-214.57 272.153,-146.906 221,-111 215.918,-107.433 210.429,-104.289 204.71,-101.519"/>
<polygon fill="midnightblue" stroke="midnightblue" points="319.719,-249.456 326.971,-257.18 326.118,-246.619 319.719,-249.456"/>
</g>
<!-- Node1181 -->
<g id="node11" class="node"><title>Node1181</title>
<g id="a_node11"><a xlink:href="classokw_1_1_se_radio_list_1_1_se_radio_list___e_n___test.html#a6867860868e8cc03d7c683740c2876bd" target="_top" xlink:title="Prüft die Methode SeRadioList.MemorizeLabel.">
<polygon fill="white" stroke="black" points="7.5,-0.5 7.5,-41.5 213.5,-41.5 213.5,-0.5 7.5,-0.5"/>
<text text-anchor="start" x="15.5" y="-29.5" font-family="Helvetica,sans-Serif" font-size="10.00">okw.SeRadioList.SeRadioList</text>
<text text-anchor="start" x="15.5" y="-18.5" font-family="Helvetica,sans-Serif" font-size="10.00">_EN_Test.tcMemorizeLabel</text>
<text text-anchor="middle" x="110.5" y="-7.5" font-family="Helvetica,sans-Serif" font-size="10.00">_Empty_OKWNotAllowedValueException</text>
</a>
</g>
</g>
<!-- Node1171&#45;&gt;Node1181 -->
<g id="edge10" class="edge"><title>Node1171&#45;&gt;Node1181</title>
<path fill="none" stroke="midnightblue" d="M326.612,-247.048C316.162,-204.344 285.694,-103.7 221,-51 216.645,-47.452 211.902,-44.3222 206.912,-41.5614"/>
<polygon fill="midnightblue" stroke="midnightblue" points="323.261,-248.091 328.944,-257.032 330.078,-246.498 323.261,-248.091"/>
</g>
</g>
</svg>
        <g id="navigator" transform="translate(0 0)" fill="#404254">
                <rect fill="#f2f5e9" fill-opacity="0.5" stroke="#606060" stroke-width=".5" x="0" y="0" width="60" height="60"/>
                <use id="zoomplus" xlink:href="#zoomPlus" x="17" y="9" onmousedown="handleZoom(evt,'in')"/>
                <use id="zoomminus" xlink:href="#zoomMin" x="42" y="9" onmousedown="handleZoom(evt,'out')"/>
                <use id="reset" xlink:href="#resetDef" x="30" y="36" onmousedown="handleReset()"/>
                <g id="arrowUp" xlink:href="#dirArrow" transform="translate(30 24)" onmousedown="handlePan(0,-1)">
                  <use xlink:href="#rim" fill="#404040">
                        <set attributeName="fill" to="#808080" begin="arrowUp.mouseover" end="arrowUp.mouseout"/>
                  </use>
                  <path fill="none" stroke="white" stroke-width="1.5" d="M0,-3.0v7 M-2.5,-0.5L0,-3.0L2.5,-0.5"/>
                </g>
                <g id="arrowRight" xlink:href="#dirArrow" transform="rotate(90) translate(36 -43)" onmousedown="handlePan(1,0)">
                  <use xlink:href="#rim" fill="#404040">
                        <set attributeName="fill" to="#808080" begin="arrowRight.mouseover" end="arrowRight.mouseout"/>
                  </use>
                  <path fill="none" stroke="white" stroke-width="1.5" d="M0,-3.0v7 M-2.5,-0.5L0,-3.0L2.5,-0.5"/>
                </g>
                <g id="arrowDown" xlink:href="#dirArrow" transform="rotate(180) translate(-30 -48)" onmousedown="handlePan(0,1)">
                  <use xlink:href="#rim" fill="#404040">
                        <set attributeName="fill" to="#808080" begin="arrowDown.mouseover" end="arrowDown.mouseout"/>
                  </use>
                  <path fill="none" stroke="white" stroke-width="1.5" d="M0,-3.0v7 M-2.5,-0.5L0,-3.0L2.5,-0.5"/>
                </g>
                <g id="arrowLeft" xlink:href="#dirArrow" transform="rotate(270) translate(-36 17)" onmousedown="handlePan(-1,0)">
                  <use xlink:href="#rim" fill="#404040">
                        <set attributeName="fill" to="#808080" begin="arrowLeft.mouseover" end="arrowLeft.mouseout"/>
                  </use>
                  <path fill="none" stroke="white" stroke-width="1.5" d="M0,-3.0v7 M-2.5,-0.5L0,-3.0L2.5,-0.5"/>
                </g>
        </g>
        <svg viewBox="0 0 15 15" width="100%" height="30px" preserveAspectRatio="xMaxYMin meet">
         <g id="arrow_out" transform="scale(0.3 0.3)">
          <a xlink:href="classokw_1_1core_1_1_e_n_aecb0b17c6683319633eec36e2646f3f5_icgraph_org.svg" target="_base">
           <rect id="button" ry="5" rx="5" y="6" x="6" height="38" width="38"
                fill="#f2f5e9" fill-opacity="0.5" stroke="#606060" stroke-width="1.0"/>
           <path id="arrow"
             d="M 11.500037,31.436501 C 11.940474,20.09759 22.043105,11.32322 32.158766,21.979434 L 37.068811,17.246167 C 37.068811,17.246167 37.088388,32 37.088388,32 L 22.160133,31.978069 C 22.160133,31.978069 26.997745,27.140456 26.997745,27.140456 C 18.528582,18.264221 13.291696,25.230495 11.500037,31.436501 z"
             style="fill:#404040;"/>
          </a>
         </g>
        </svg>
</svg>
