<?xml version="1.0" encoding="UTF-8" standalone="no"?>
<!DOCTYPE svg PUBLIC "-//W3C//DTD SVG 1.1//EN"
 "http://www.w3.org/Graphics/SVG/1.1/DTD/svg11.dtd">
<!-- Generated by graphviz version 2.26.3 (20100126.1600)
 -->
<!-- Title: okw.gui.adapter.selenium.SeAnyWindow.MemorizeHasFocus Pages: 1 -->
<!--zoomable 336 -->
<svg id="main" version="1.1" xmlns="http://www.w3.org/2000/svg" xmlns:xlink="http://www.w3.org/1999/xlink" xml:space="preserve" onload="init(evt)">
<style type="text/css"><![CDATA[
.edge:hover path { stroke: red; }
.edge:hover polygon { stroke: red; fill: red; }
]]></style>
<script type="text/javascript"><![CDATA[
var edges = document.getElementsByTagName('g');
if (edges && edges.length) {
  for (var i=0;i<edges.length;i++) {
    if (edges[i].id.substr(0,4)=='edge') {
      edges[i].setAttribute('class','edge');
    }
  }
}
]]></script>
        <defs>
                <circle id="rim" cx="0" cy="0" r="7"/>
                <circle id="rim2" cx="0" cy="0" r="3.5"/>
                <g id="zoomPlus">
                        <use xlink:href="#rim" fill="#404040">
                                <set attributeName="fill" to="#808080" begin="zoomplus.mouseover" end="zoomplus.mouseout"/>
                        </use>
                        <path d="M-4,0h8M0,-4v8" fill="none" stroke="white" stroke-width="1.5" pointer-events="none"/>
                </g>
                <g id="zoomMin">
                        <use xlink:href="#rim" fill="#404040">
                                <set attributeName="fill" to="#808080" begin="zoomminus.mouseover" end="zoomminus.mouseout"/>
                        </use>
                        <path d="M-4,0h8" fill="none" stroke="white" stroke-width="1.5" pointer-events="none"/>
                </g>
                <g id="dirArrow">
                        <path fill="none" stroke="white" stroke-width="1.5" d="M0,-3.0v7 M-2.5,-0.5L0,-3.0L2.5,-0.5"/>
                </g>
               <g id="resetDef">
                       <use xlink:href="#rim2" fill="#404040">
                               <set attributeName="fill" to="#808080" begin="reset.mouseover" end="reset.mouseout"/>
                       </use>
               </g>
        </defs>

<script type="text/javascript">
var viewWidth = 1148;
var viewHeight = 336;
var sectionId = 'dynsection-28';
</script>
<script xlink:href="svgpan.js"/>
<svg id="graph" class="graph">
<g id="viewport">
<title>okw.gui.adapter.selenium.SeAnyWindow.MemorizeHasFocus</title>
<polygon fill="white" stroke="white" points="-4,5 -4,-332 1145,-332 1145,5 -4,5"/>
<!-- Node376 -->
<g id="node1" class="node"><title>Node376</title>
<polygon fill="#bfbfbf" stroke="black" points="0,-192 0,-226 172,-226 172,-192 0,-192"/>
<text text-anchor="start" x="8" y="-213" font-family="Helvetica,sans-Serif" font-size="10.00">okw.gui.adapter.selenium.</text>
<text text-anchor="middle" x="86" y="-200" font-family="Helvetica,sans-Serif" font-size="10.00">SeAnyWindow.MemorizeHasFocus</text>
</g>
<!-- Node377 -->
<g id="node3" class="node"><title>Node377</title>
<a xlink:href="classokw_1_1gui_1_1_any_win_base.html#abaab572bdbed7b471f659d5dd8c76853" target="_top" xlink:title="Diese Methode ruft die Methode Logger.Instance.LogFunctionStartDebug(fps_FunctionName), und erweitert den gegebenen Methodenname in fps_FunctionName mit this.GetType().FullName um den Klassenbezeichner. ">
<polygon fill="white" stroke="black" points="388.5,-238 388.5,-272 555.5,-272 555.5,-238 388.5,-238"/>
<text text-anchor="start" x="396.5" y="-259" font-family="Helvetica,sans-Serif" font-size="10.00">okw.gui.AnyWinBase.LogFunction</text>
<text text-anchor="middle" x="472" y="-246" font-family="Helvetica,sans-Serif" font-size="10.00">StartDebug</text>
</a>
</g>
<!-- Node376&#45;&gt;Node377 -->
<g id="edge2" class="edge"><title>Node376&#45;&gt;Node377</title>
<path fill="none" stroke="midnightblue" d="M172.145,-219.266C233.289,-226.553 315.325,-236.329 378.134,-243.814"/>
<polygon fill="midnightblue" stroke="midnightblue" points="378.094,-247.334 388.438,-245.042 378.923,-240.383 378.094,-247.334"/>
</g>
<!-- Node378 -->
<g id="node5" class="node"><title>Node378</title>
<a xlink:href="classokw_1_1gui_1_1adapter_1_1selenium_1_1_se_any_window.html#a2406dc361467d086f006ffe1aa8c89fe" target="_top" xlink:title="Methode liefert den aktuellen Zustand Wert des Focus. ">
<polygon fill="white" stroke="black" points="208.5,-158 208.5,-192 351.5,-192 351.5,-158 208.5,-158"/>
<text text-anchor="start" x="216.5" y="-179" font-family="Helvetica,sans-Serif" font-size="10.00">okw.gui.adapter.selenium.</text>
<text text-anchor="middle" x="280" y="-166" font-family="Helvetica,sans-Serif" font-size="10.00">SeAnyWindow.getHasFocus</text>
</a>
</g>
<!-- Node376&#45;&gt;Node378 -->
<g id="edge4" class="edge"><title>Node376&#45;&gt;Node378</title>
<path fill="none" stroke="midnightblue" d="M172.221,-193.889C180.876,-192.372 189.648,-190.835 198.255,-189.326"/>
<polygon fill="midnightblue" stroke="midnightblue" points="199.021,-192.746 208.266,-187.572 197.812,-185.851 199.021,-192.746"/>
</g>
<!-- Node378&#45;&gt;Node377 -->
<g id="edge6" class="edge"><title>Node378&#45;&gt;Node377</title>
<path fill="none" stroke="midnightblue" d="M311.038,-192.219C332.293,-203.584 361.35,-218.296 388,-229 392.748,-230.907 397.692,-232.76 402.7,-234.541"/>
<polygon fill="midnightblue" stroke="midnightblue" points="401.78,-237.926 412.375,-237.872 404.059,-231.307 401.78,-237.926"/>
</g>
<!-- Node379 -->
<g id="node8" class="node"><title>Node379</title>
<a xlink:href="classokw_1_1gui_1_1adapter_1_1selenium_1_1_se_any_window.html#ad806d20bf0e42d47e0aa5282532d3230" target="_top" xlink:title="Prüft die Existenz des aktuellen Objektes. ">
<polygon fill="white" stroke="black" points="406.5,-146 406.5,-180 537.5,-180 537.5,-146 406.5,-146"/>
<text text-anchor="start" x="414.5" y="-167" font-family="Helvetica,sans-Serif" font-size="10.00">okw.gui.adapter.selenium.</text>
<text text-anchor="middle" x="472" y="-154" font-family="Helvetica,sans-Serif" font-size="10.00">SeAnyWindow.getExists</text>
</a>
</g>
<!-- Node378&#45;&gt;Node379 -->
<g id="edge8" class="edge"><title>Node378&#45;&gt;Node379</title>
<path fill="none" stroke="midnightblue" d="M351.767,-170.515C366.306,-169.606 381.638,-168.648 396.308,-167.731"/>
<polygon fill="midnightblue" stroke="midnightblue" points="396.578,-171.221 406.34,-167.104 396.141,-164.234 396.578,-171.221"/>
</g>
<!-- Node382 -->
<g id="node14" class="node"><title>Node382</title>
<a xlink:href="classokw_1_1gui_1_1adapter_1_1selenium_1_1_se_driver.html#acb82765e99981ecc210e7599bbc2c639" target="_top" xlink:title="Gibt die Instance für die einzige Instanz dieser Klasse zurück. ">
<polygon fill="white" stroke="black" points="610.5,-52 610.5,-86 741.5,-86 741.5,-52 610.5,-52"/>
<text text-anchor="start" x="618.5" y="-73" font-family="Helvetica,sans-Serif" font-size="10.00">okw.gui.adapter.selenium.</text>
<text text-anchor="middle" x="676" y="-60" font-family="Helvetica,sans-Serif" font-size="10.00">SeDriver.getInstance</text>
</a>
</g>
<!-- Node378&#45;&gt;Node382 -->
<g id="edge32" class="edge"><title>Node378&#45;&gt;Node382</title>
<path fill="none" stroke="midnightblue" d="M294.307,-157.631C313.203,-136.133 348.712,-100.47 388,-85 456.162,-58.1601 540.467,-56.7701 600.207,-60.5083"/>
<polygon fill="midnightblue" stroke="midnightblue" points="600.104,-64.0094 610.321,-61.2046 600.585,-57.0259 600.104,-64.0094"/>
</g>
<!-- Node388 -->
<g id="node26" class="node"><title>Node388</title>
<a xlink:href="classokw_1_1_log_messenger.html#af225d1f037d47b3b085175c09d78bdd2" target="_top" xlink:title="Holt die Log&#45;Meldung für MethodeNmae/Textkey ohne weitere Parameter. ">
<polygon fill="white" stroke="black" points="392,-198.5 392,-219.5 552,-219.5 552,-198.5 392,-198.5"/>
<text text-anchor="middle" x="472" y="-206.5" font-family="Helvetica,sans-Serif" font-size="10.00">okw.LogMessenger.GetMessage</text>
</a>
</g>
<!-- Node378&#45;&gt;Node388 -->
<g id="edge26" class="edge"><title>Node378&#45;&gt;Node388</title>
<path fill="none" stroke="midnightblue" d="M351.767,-187.709C368.35,-190.645 385.965,-193.765 402.451,-196.684"/>
<polygon fill="midnightblue" stroke="midnightblue" points="402.093,-200.175 412.551,-198.472 403.314,-193.282 402.093,-200.175"/>
</g>
<!-- Node391 -->
<g id="node33" class="node"><title>Node391</title>
<a xlink:href="classokw_1_1gui_1_1adapter_1_1selenium_1_1_se_any_window.html#a8b42bf27f4660b4807375a57fa9de815" target="_top" xlink:title="Ermittelt aus dem gegebenen Locator das DOM&#45;Elelement, welches das Objekt representiert. ">
<polygon fill="white" stroke="black" points="406.5,-94 406.5,-128 537.5,-128 537.5,-94 406.5,-94"/>
<text text-anchor="start" x="414.5" y="-115" font-family="Helvetica,sans-Serif" font-size="10.00">okw.gui.adapter.selenium.</text>
<text text-anchor="middle" x="472" y="-102" font-family="Helvetica,sans-Serif" font-size="10.00">SeAnyWindow.Me</text>
</a>
</g>
<!-- Node378&#45;&gt;Node391 -->
<g id="edge34" class="edge"><title>Node378&#45;&gt;Node391</title>
<path fill="none" stroke="midnightblue" d="M327.181,-157.961C346.041,-151.264 367.995,-143.613 388,-137 393.897,-135.051 400.042,-133.064 406.207,-131.101"/>
<polygon fill="midnightblue" stroke="midnightblue" points="407.396,-134.396 415.877,-128.046 405.287,-127.721 407.396,-134.396"/>
</g>
<!-- Node380 -->
<g id="node10" class="node"><title>Node380</title>
<a xlink:href="classokw_1_1gui_1_1_any_win_base.html#a9929f6fae1f4e2c20df79d32d5bc79db" target="_top" xlink:title="Holt den vollständig (rekursiv) aufgelösten (z.B. ">
<polygon fill="white" stroke="black" points="596.5,-104.5 596.5,-125.5 755.5,-125.5 755.5,-104.5 596.5,-104.5"/>
<text text-anchor="middle" x="676" y="-112.5" font-family="Helvetica,sans-Serif" font-size="10.00">okw.gui.AnyWinBase.getLocator</text>
</a>
</g>
<!-- Node379&#45;&gt;Node380 -->
<g id="edge10" class="edge"><title>Node379&#45;&gt;Node380</title>
<path fill="none" stroke="midnightblue" d="M537.67,-147.548C564.61,-141.209 595.44,-133.955 621.148,-127.906"/>
<polygon fill="midnightblue" stroke="midnightblue" points="622.161,-131.264 631.093,-125.566 620.557,-124.45 622.161,-131.264"/>
</g>
<!-- Node379&#45;&gt;Node382 -->
<g id="edge14" class="edge"><title>Node379&#45;&gt;Node382</title>
<path fill="none" stroke="midnightblue" d="M537.858,-146.627C544.22,-143.876 550.386,-140.688 556,-137 576.549,-123.503 571.451,-108.497 592,-95 594.895,-93.0986 597.936,-91.3299 601.076,-89.6855"/>
<polygon fill="midnightblue" stroke="midnightblue" points="602.615,-92.8292 610.142,-85.3729 599.608,-86.5079 602.615,-92.8292"/>
</g>
<!-- Node383 -->
<g id="node16" class="node"><title>Node383</title>
<a xlink:href="classokw_1_1gui_1_1adapter_1_1selenium_1_1_se_driver.html#ae71e420f6619b67bb69ca8d70455d807" target="_top" xlink:title="Ermittelt das Webelement mit der gegebenen frameID und dem gegebenen Locator. ">
<polygon fill="white" stroke="black" points="610.5,-144 610.5,-178 741.5,-178 741.5,-144 610.5,-144"/>
<text text-anchor="start" x="618.5" y="-165" font-family="Helvetica,sans-Serif" font-size="10.00">okw.gui.adapter.selenium.</text>
<text text-anchor="middle" x="676" y="-152" font-family="Helvetica,sans-Serif" font-size="10.00">SeDriver.getElements</text>
</a>
</g>
<!-- Node379&#45;&gt;Node383 -->
<g id="edge16" class="edge"><title>Node379&#45;&gt;Node383</title>
<path fill="none" stroke="midnightblue" d="M537.67,-162.356C557.598,-162.161 579.655,-161.945 600.192,-161.743"/>
<polygon fill="midnightblue" stroke="midnightblue" points="600.488,-165.241 610.453,-161.643 600.419,-158.241 600.488,-165.241"/>
</g>
<!-- Node386 -->
<g id="node22" class="node"><title>Node386</title>
<a xlink:href="classokw_1_1log_1_1_logger___sngltn.html#a2c15e9b2cd0c6266f4c67b8cb00d92e5" target="_top" xlink:title="LogWarning Function: Logs a warning to the results file. ">
<polygon fill="white" stroke="black" points="609,-196 609,-230 743,-230 743,-196 609,-196"/>
<text text-anchor="start" x="617" y="-217" font-family="Helvetica,sans-Serif" font-size="10.00">okw.log.Logger_Sngltn.Log</text>
<text text-anchor="middle" x="676" y="-204" font-family="Helvetica,sans-Serif" font-size="10.00">Warning</text>
</a>
</g>
<!-- Node379&#45;&gt;Node386 -->
<g id="edge22" class="edge"><title>Node379&#45;&gt;Node386</title>
<path fill="none" stroke="midnightblue" d="M537.67,-179.096C557.189,-183.88 578.749,-189.164 598.924,-194.109"/>
<polygon fill="midnightblue" stroke="midnightblue" points="598.156,-197.524 608.702,-196.505 599.822,-190.725 598.156,-197.524"/>
</g>
<!-- Node387 -->
<g id="node24" class="node"><title>Node387</title>
<a xlink:href="classokw_1_1log_1_1_logger___sngltn.html#a313f97c79ba4662d9daaf7f537dd02f4" target="_top" xlink:title="Loggt eine Nachricht. ">
<polygon fill="white" stroke="black" points="609,-248 609,-282 743,-282 743,-248 609,-248"/>
<text text-anchor="start" x="617" y="-269" font-family="Helvetica,sans-Serif" font-size="10.00">okw.log.Logger_Sngltn.Log</text>
<text text-anchor="middle" x="676" y="-256" font-family="Helvetica,sans-Serif" font-size="10.00">PrintDebug</text>
</a>
</g>
<!-- Node379&#45;&gt;Node387 -->
<g id="edge24" class="edge"><title>Node379&#45;&gt;Node387</title>
<path fill="none" stroke="midnightblue" d="M537.76,-178.698C544.211,-181.585 550.423,-184.989 556,-189 578.231,-204.988 569.769,-223.012 592,-239 594.521,-240.813 597.172,-242.503 599.917,-244.076"/>
<polygon fill="midnightblue" stroke="midnightblue" points="598.459,-247.262 608.953,-248.718 601.657,-241.035 598.459,-247.262"/>
</g>
<!-- Node381 -->
<g id="node12" class="node"><title>Node381</title>
<a xlink:href="classokw_1_1gui_1_1_o_k_w_locator.html#adc74fc2125dd048dc1cb84e011f47ec8" target="_top" xlink:title="Holt den vollständig (rekursiv) aufgelösten (z.B. ">
<polygon fill="white" stroke="black" points="796,-104.5 796,-125.5 954,-125.5 954,-104.5 796,-104.5"/>
<text text-anchor="middle" x="875" y="-112.5" font-family="Helvetica,sans-Serif" font-size="10.00">okw.gui.OKWLocator.getLocator</text>
</a>
</g>
<!-- Node380&#45;&gt;Node381 -->
<g id="edge12" class="edge"><title>Node380&#45;&gt;Node381</title>
<path fill="none" stroke="midnightblue" d="M755.508,-115C765.495,-115 775.762,-115 785.885,-115"/>
<polygon fill="midnightblue" stroke="midnightblue" points="785.943,-118.5 795.943,-115 785.943,-111.5 785.943,-118.5"/>
</g>
<!-- Node384 -->
<g id="node18" class="node"><title>Node384</title>
<a xlink:href="classokw_1_1gui_1_1adapter_1_1selenium_1_1_se_driver.html#a502a7d54c1a8b80424cd42a4e168a191" target="_top" xlink:title="Wechselt das aktuelle Frame auf das Frame mit der id=iframeID. ">
<polygon fill="white" stroke="black" points="809.5,-144 809.5,-178 940.5,-178 940.5,-144 809.5,-144"/>
<text text-anchor="start" x="817.5" y="-165" font-family="Helvetica,sans-Serif" font-size="10.00">okw.gui.adapter.selenium.</text>
<text text-anchor="middle" x="875" y="-152" font-family="Helvetica,sans-Serif" font-size="10.00">SeDriver.swichToFrame</text>
</a>
</g>
<!-- Node383&#45;&gt;Node384 -->
<g id="edge18" class="edge"><title>Node383&#45;&gt;Node384</title>
<path fill="none" stroke="midnightblue" d="M741.712,-161C760.137,-161 780.316,-161 799.272,-161"/>
<polygon fill="midnightblue" stroke="midnightblue" points="799.357,-164.5 809.357,-161 799.357,-157.5 799.357,-164.5"/>
</g>
<!-- Node385 -->
<g id="node20" class="node"><title>Node385</title>
<a xlink:href="classokw_1_1_o_k_w___helper.html#a3a7ba0f42b29adf70574830688e72e4a" target="_top" xlink:title="Prüft ob der gegeben String fpsStrin null oder leer (&quot;&quot;) ist. ">
<polygon fill="white" stroke="black" points="990.5,-144 990.5,-178 1139.5,-178 1139.5,-144 990.5,-144"/>
<text text-anchor="start" x="998.5" y="-165" font-family="Helvetica,sans-Serif" font-size="10.00">okw.OKW_Helper.isStringNull</text>
<text text-anchor="middle" x="1065" y="-152" font-family="Helvetica,sans-Serif" font-size="10.00">OrEmpty</text>
</a>
</g>
<!-- Node384&#45;&gt;Node385 -->
<g id="edge20" class="edge"><title>Node384&#45;&gt;Node385</title>
<path fill="none" stroke="midnightblue" d="M940.653,-161C953.389,-161 966.905,-161 980.155,-161"/>
<polygon fill="midnightblue" stroke="midnightblue" points="980.218,-164.5 990.218,-161 980.217,-157.5 980.218,-164.5"/>
</g>
<!-- Node389 -->
<g id="node28" class="node"><title>Node389</title>
<a xlink:href="classokw_1_1_log_messenger.html#a530cd6ab82ec82a04206a2e976ec06e3" target="_top" xlink:title="Interne Kernfunktion holt die Log&#45;Meldung mit Platzhaltern aus der XML&#45;Datei. ">
<polygon fill="white" stroke="black" points="592.5,-300.5 592.5,-321.5 759.5,-321.5 759.5,-300.5 592.5,-300.5"/>
<text text-anchor="middle" x="676" y="-308.5" font-family="Helvetica,sans-Serif" font-size="10.00">okw.LogMessenger.ReadMessage</text>
</a>
</g>
<!-- Node388&#45;&gt;Node389 -->
<g id="edge28" class="edge"><title>Node388&#45;&gt;Node389</title>
<path fill="none" stroke="midnightblue" d="M538.942,-219.51C545.021,-222.036 550.827,-225.154 556,-229 581.572,-248.009 566.428,-271.991 592,-291 594.506,-292.863 597.16,-294.555 599.922,-296.092"/>
<polygon fill="midnightblue" stroke="midnightblue" points="598.529,-299.306 609.058,-300.49 601.566,-292.999 598.529,-299.306"/>
</g>
<!-- Node390 -->
<g id="node30" class="node"><title>Node390</title>
<a xlink:href="classokw_1_1_o_k_w___xml_reader.html#ab920b5335a2e1429c14cc5f8e79f39eb" target="_top" xlink:title="Lies den TextContent eines Tag. ">
<polygon fill="white" stroke="black" points="799,-294 799,-328 951,-328 951,-294 799,-294"/>
<text text-anchor="start" x="807" y="-315" font-family="Helvetica,sans-Serif" font-size="10.00">okw.OKW_XmlReader.getText</text>
<text text-anchor="middle" x="875" y="-302" font-family="Helvetica,sans-Serif" font-size="10.00">ContentSingleValue</text>
</a>
</g>
<!-- Node389&#45;&gt;Node390 -->
<g id="edge30" class="edge"><title>Node389&#45;&gt;Node390</title>
<path fill="none" stroke="midnightblue" d="M759.529,-311C769.239,-311 779.157,-311 788.901,-311"/>
<polygon fill="midnightblue" stroke="midnightblue" points="788.975,-314.5 798.975,-311 788.975,-307.5 788.975,-314.5"/>
</g>
<!-- Node391&#45;&gt;Node380 -->
<g id="edge44" class="edge"><title>Node391&#45;&gt;Node380</title>
<path fill="none" stroke="midnightblue" d="M537.67,-112.288C553.103,-112.59 569.812,-112.918 586.104,-113.237"/>
<polygon fill="midnightblue" stroke="midnightblue" points="586.112,-116.738 596.179,-113.435 586.249,-109.739 586.112,-116.738"/>
</g>
<!-- Node391&#45;&gt;Node382 -->
<g id="edge36" class="edge"><title>Node391&#45;&gt;Node382</title>
<path fill="none" stroke="midnightblue" d="M537.67,-97.4797C557.689,-93.3581 579.856,-88.7943 600.473,-84.5497"/>
<polygon fill="midnightblue" stroke="midnightblue" points="601.364,-87.9396 610.453,-82.4949 599.953,-81.0834 601.364,-87.9396"/>
</g>
<!-- Node392 -->
<g id="node36" class="node"><title>Node392</title>
<a xlink:href="classokw_1_1gui_1_1adapter_1_1selenium_1_1_se_driver.html#ae08fe1cf4c694bb3a4dfb1f1837b26bc" target="_top" xlink:title="Ermittelt das Webelement mit der gegebenen frameID und dem gegebenen Locator. ">
<polygon fill="white" stroke="black" points="610.5,-0 610.5,-34 741.5,-34 741.5,-0 610.5,-0"/>
<text text-anchor="start" x="618.5" y="-21" font-family="Helvetica,sans-Serif" font-size="10.00">okw.gui.adapter.selenium.</text>
<text text-anchor="middle" x="676" y="-8" font-family="Helvetica,sans-Serif" font-size="10.00">SeDriver.getElement</text>
</a>
</g>
<!-- Node391&#45;&gt;Node392 -->
<g id="edge38" class="edge"><title>Node391&#45;&gt;Node392</title>
<path fill="none" stroke="midnightblue" d="M498.312,-93.8916C522.074,-78.9828 558.368,-57.5319 592,-43 596.41,-41.0945 601.005,-39.2646 605.673,-37.5205"/>
<polygon fill="midnightblue" stroke="midnightblue" points="607.087,-40.7317 615.321,-34.0643 604.727,-34.1418 607.087,-40.7317"/>
</g>
<!-- Node392&#45;&gt;Node384 -->
<g id="edge40" class="edge"><title>Node392&#45;&gt;Node384</title>
<path fill="none" stroke="midnightblue" d="M741.62,-30.7193C748.326,-33.9782 754.633,-38.0106 760,-43 792.157,-72.8968 764.11,-104.819 796,-135 797.494,-136.414 799.067,-137.752 800.705,-139.016"/>
<polygon fill="midnightblue" stroke="midnightblue" points="799.104,-142.154 809.375,-144.753 802.967,-136.316 799.104,-142.154"/>
</g>
<!-- Node393 -->
<g id="node39" class="node"><title>Node393</title>
<a xlink:href="classokw_1_1log_1_1_logger___sngltn.html#a8ebceaddd6cc6963ddb8e08c72ea808c" target="_top" xlink:title="LogPrint Function: Prints the values of expressions to the results file. ">
<polygon fill="white" stroke="black" points="808,-0 808,-34 942,-34 942,-0 808,-0"/>
<text text-anchor="start" x="816" y="-21" font-family="Helvetica,sans-Serif" font-size="10.00">okw.log.Logger_Sngltn.Log</text>
<text text-anchor="middle" x="875" y="-8" font-family="Helvetica,sans-Serif" font-size="10.00">Print</text>
</a>
</g>
<!-- Node392&#45;&gt;Node393 -->
<g id="edge42" class="edge"><title>Node392&#45;&gt;Node393</title>
<path fill="none" stroke="midnightblue" d="M741.712,-17C759.67,-17 779.294,-17 797.829,-17"/>
<polygon fill="midnightblue" stroke="midnightblue" points="797.996,-20.5001 807.996,-17 797.996,-13.5001 797.996,-20.5001"/>
</g>
</g>
</svg>
        <g id="navigator" transform="translate(0 0)" fill="#404254">
                <rect fill="#f2f5e9" fill-opacity="0.5" stroke="#606060" stroke-width=".5" x="0" y="0" width="60" height="60"/>
                <use id="zoomplus" xlink:href="#zoomPlus" x="17" y="9" onmousedown="handleZoom(evt,'in')"/>
                <use id="zoomminus" xlink:href="#zoomMin" x="42" y="9" onmousedown="handleZoom(evt,'out')"/>
                <use id="reset" xlink:href="#resetDef" x="30" y="36" onmousedown="handleReset()"/>
                <g id="arrowUp" xlink:href="#dirArrow" transform="translate(30 24)" onmousedown="handlePan(0,-1)">
                  <use xlink:href="#rim" fill="#404040">
                        <set attributeName="fill" to="#808080" begin="arrowUp.mouseover" end="arrowUp.mouseout"/>
                  </use>
                  <path fill="none" stroke="white" stroke-width="1.5" d="M0,-3.0v7 M-2.5,-0.5L0,-3.0L2.5,-0.5"/>
                </g>
                <g id="arrowRight" xlink:href="#dirArrow" transform="rotate(90) translate(36 -43)" onmousedown="handlePan(1,0)">
                  <use xlink:href="#rim" fill="#404040">
                        <set attributeName="fill" to="#808080" begin="arrowRight.mouseover" end="arrowRight.mouseout"/>
                  </use>
                  <path fill="none" stroke="white" stroke-width="1.5" d="M0,-3.0v7 M-2.5,-0.5L0,-3.0L2.5,-0.5"/>
                </g>
                <g id="arrowDown" xlink:href="#dirArrow" transform="rotate(180) translate(-30 -48)" onmousedown="handlePan(0,1)">
                  <use xlink:href="#rim" fill="#404040">
                        <set attributeName="fill" to="#808080" begin="arrowDown.mouseover" end="arrowDown.mouseout"/>
                  </use>
                  <path fill="none" stroke="white" stroke-width="1.5" d="M0,-3.0v7 M-2.5,-0.5L0,-3.0L2.5,-0.5"/>
                </g>
                <g id="arrowLeft" xlink:href="#dirArrow" transform="rotate(270) translate(-36 17)" onmousedown="handlePan(-1,0)">
                  <use xlink:href="#rim" fill="#404040">
                        <set attributeName="fill" to="#808080" begin="arrowLeft.mouseover" end="arrowLeft.mouseout"/>
                  </use>
                  <path fill="none" stroke="white" stroke-width="1.5" d="M0,-3.0v7 M-2.5,-0.5L0,-3.0L2.5,-0.5"/>
                </g>
        </g>
        <svg viewBox="0 0 15 15" width="100%" height="30px" preserveAspectRatio="xMaxYMin meet">
         <g id="arrow_out" transform="scale(0.3 0.3)">
          <a xlink:href="classokw_1_1gui_1_1adapter_1_1selenium_1_1_se_any_window_a9bbcabb6c1d3b95ca94a3bd0921b206c_cgraph_org.svg" target="_base">
           <rect id="button" ry="5" rx="5" y="6" x="6" height="38" width="38"
                fill="#f2f5e9" fill-opacity="0.5" stroke="#606060" stroke-width="1.0"/>
           <path id="arrow"
             d="M 11.500037,31.436501 C 11.940474,20.09759 22.043105,11.32322 32.158766,21.979434 L 37.068811,17.246167 C 37.068811,17.246167 37.088388,32 37.088388,32 L 22.160133,31.978069 C 22.160133,31.978069 26.997745,27.140456 26.997745,27.140456 C 18.528582,18.264221 13.291696,25.230495 11.500037,31.436501 z"
             style="fill:#404040;"/>
          </a>
         </g>
        </svg>
</svg>
