<?xml version="1.0" encoding="UTF-8" standalone="no"?>
<!DOCTYPE svg PUBLIC "-//W3C//DTD SVG 1.1//EN"
 "http://www.w3.org/Graphics/SVG/1.1/DTD/svg11.dtd">
<!-- Generated by graphviz version 2.38.0 (20140413.2041)
 -->
<!-- Title: okw.gui.adapter.selenium.SeAnyChildWindow.MemorizeIsActive Pages: 1 -->
<svg width="1254pt" height="354pt"
 viewBox="0.00 0.00 1254.00 354.00" xmlns="http://www.w3.org/2000/svg" xmlns:xlink="http://www.w3.org/1999/xlink">
<g id="graph0" class="graph" transform="scale(1 1) rotate(0) translate(4 350)">
<title>okw.gui.adapter.selenium.SeAnyChildWindow.MemorizeIsActive</title>
<polygon fill="white" stroke="none" points="-4,4 -4,-350 1250,-350 1250,4 -4,4"/>
<!-- Node445 -->
<g id="node1" class="node"><title>Node445</title>
<g id="a_node1"><a xlink:title="Das ist die GUI&#45;Adapter Methode, die durch das Schlüsselwort refMemorizeIsActive aufgerufen wird.">
<polygon fill="#bfbfbf" stroke="black" points="0,-147.5 0,-177.5 192,-177.5 192,-147.5 0,-147.5"/>
<text text-anchor="start" x="8" y="-165.5" font-family="Helvetica,sans-Serif" font-size="10.00">okw.gui.adapter.selenium.</text>
<text text-anchor="middle" x="96" y="-154.5" font-family="Helvetica,sans-Serif" font-size="10.00">SeAnyChildWindow.MemorizeIsActive</text>
</a>
</g>
</g>
<!-- Node446 -->
<g id="node2" class="node"><title>Node446</title>
<g id="a_node2"><a xlink:href="classokw_1_1gui_1_1_any_win_base.html#abaab572bdbed7b471f659d5dd8c76853" target="_top" xlink:title="Diese Methode ruft die Methode Logger.Instance.LogFunctionStartDebug(fps_FunctionName),...">
<polygon fill="white" stroke="black" points="228,-172.5 228,-202.5 401,-202.5 401,-172.5 228,-172.5"/>
<text text-anchor="start" x="236" y="-190.5" font-family="Helvetica,sans-Serif" font-size="10.00">okw.gui.AnyWinBase.LogFunction</text>
<text text-anchor="middle" x="314.5" y="-179.5" font-family="Helvetica,sans-Serif" font-size="10.00">StartDebug</text>
</a>
</g>
</g>
<!-- Node445&#45;&gt;Node446 -->
<g id="edge1" class="edge"><title>Node445&#45;&gt;Node446</title>
<path fill="none" stroke="midnightblue" d="M192.275,-173.502C200.663,-174.47 209.156,-175.451 217.55,-176.42"/>
<polygon fill="midnightblue" stroke="midnightblue" points="217.389,-179.925 227.725,-177.595 218.192,-172.971 217.389,-179.925"/>
</g>
<!-- Node447 -->
<g id="node3" class="node"><title>Node447</title>
<g id="a_node3"><a xlink:href="classokw_1_1gui_1_1adapter_1_1selenium_1_1_se_any_child_window.html#ad645cfa0e917477adffe133b1d3371d5" target="_top" xlink:title="Ermittelt, ob das aktuellen Objekt aktiv ist.">
<polygon fill="white" stroke="black" points="234,-123.5 234,-153.5 395,-153.5 395,-123.5 234,-123.5"/>
<text text-anchor="start" x="242" y="-141.5" font-family="Helvetica,sans-Serif" font-size="10.00">okw.gui.adapter.selenium.</text>
<text text-anchor="middle" x="314.5" y="-130.5" font-family="Helvetica,sans-Serif" font-size="10.00">SeAnyChildWindow.getIsActive</text>
</a>
</g>
</g>
<!-- Node445&#45;&gt;Node447 -->
<g id="edge2" class="edge"><title>Node445&#45;&gt;Node447</title>
<path fill="none" stroke="midnightblue" d="M192.275,-151.938C202.655,-150.788 213.197,-149.619 223.511,-148.476"/>
<polygon fill="midnightblue" stroke="midnightblue" points="224.181,-151.923 233.735,-147.342 223.41,-144.966 224.181,-151.923"/>
</g>
<!-- Node448 -->
<g id="node4" class="node"><title>Node448</title>
<g id="a_node4"><a xlink:href="classokw_1_1gui_1_1adapter_1_1selenium_1_1_se_any_child_window.html#a72faf4aa1717b4178fae1b0570ca9b28" target="_top" xlink:title="Wartet auf das Objekt Wenn kein Fenster gefunden wird,.">
<polygon fill="white" stroke="black" points="445,-205.5 445,-235.5 602,-235.5 602,-205.5 445,-205.5"/>
<text text-anchor="start" x="453" y="-223.5" font-family="Helvetica,sans-Serif" font-size="10.00">okw.gui.adapter.selenium.</text>
<text text-anchor="middle" x="523.5" y="-212.5" font-family="Helvetica,sans-Serif" font-size="10.00">SeAnyChildWindow.WaitForMe</text>
</a>
</g>
</g>
<!-- Node447&#45;&gt;Node448 -->
<g id="edge3" class="edge"><title>Node447&#45;&gt;Node448</title>
<path fill="none" stroke="midnightblue" d="M374.342,-153.578C383.354,-156.3 392.485,-159.3 401,-162.5 430.166,-173.462 461.903,-188.735 485.624,-200.856"/>
<polygon fill="midnightblue" stroke="midnightblue" points="484.13,-204.024 494.622,-205.499 487.34,-197.803 484.13,-204.024"/>
</g>
<!-- Node457 -->
<g id="node13" class="node"><title>Node457</title>
<g id="a_node13"><a xlink:href="classokw_1_1gui_1_1adapter_1_1selenium_1_1_se_any_child_window.html#a9a138af1fc6ff850d708d66f308a2525" target="_top" xlink:title="Ermittelt aus dem gegebenen Locator das DOM&#45;Elelement, welches das Objekt representiert.">
<polygon fill="white" stroke="black" points="453.5,-123.5 453.5,-153.5 593.5,-153.5 593.5,-123.5 453.5,-123.5"/>
<text text-anchor="start" x="461.5" y="-141.5" font-family="Helvetica,sans-Serif" font-size="10.00">okw.gui.adapter.selenium.</text>
<text text-anchor="middle" x="523.5" y="-130.5" font-family="Helvetica,sans-Serif" font-size="10.00">SeAnyChildWindow.Me</text>
</a>
</g>
</g>
<!-- Node447&#45;&gt;Node457 -->
<g id="edge12" class="edge"><title>Node447&#45;&gt;Node457</title>
<path fill="none" stroke="midnightblue" d="M395.236,-138.5C410.931,-138.5 427.398,-138.5 443.083,-138.5"/>
<polygon fill="midnightblue" stroke="midnightblue" points="443.262,-142 453.262,-138.5 443.262,-135 443.262,-142"/>
</g>
<!-- Node463 -->
<g id="node19" class="node"><title>Node463</title>
<g id="a_node19"><a xlink:href="classokw_1_1gui_1_1_any_win_base.html#a51cf50ace21902b3a5359316f53a7f3e" target="_top" xlink:title="Methode ruft die Methode Logger.Instance.LogFunctionEndDebug() auf.">
<polygon fill="white" stroke="black" points="437,-74.5 437,-104.5 610,-104.5 610,-74.5 437,-74.5"/>
<text text-anchor="start" x="445" y="-92.5" font-family="Helvetica,sans-Serif" font-size="10.00">okw.gui.AnyWinBase.LogFunction</text>
<text text-anchor="middle" x="523.5" y="-81.5" font-family="Helvetica,sans-Serif" font-size="10.00">EndDebug</text>
</a>
</g>
</g>
<!-- Node447&#45;&gt;Node463 -->
<g id="edge20" class="edge"><title>Node447&#45;&gt;Node463</title>
<path fill="none" stroke="midnightblue" d="M379.014,-123.465C401.168,-118.221 426.211,-112.293 449.102,-106.874"/>
<polygon fill="midnightblue" stroke="midnightblue" points="450.182,-110.216 459.107,-104.506 448.569,-103.404 450.182,-110.216"/>
</g>
<!-- Node449 -->
<g id="node5" class="node"><title>Node449</title>
<g id="a_node5"><a xlink:href="classokw_1_1log_1_1_logger___sngltn.html#ab4fc711bb4c754f251372ff3b14ab9c9" target="_top" xlink:title="Creates a new hierarchical level in the results file.">
<polygon fill="white" stroke="black" points="668.5,-315.5 668.5,-345.5 811.5,-345.5 811.5,-315.5 668.5,-315.5"/>
<text text-anchor="start" x="676.5" y="-333.5" font-family="Helvetica,sans-Serif" font-size="10.00">okw.log.Logger_Sngltn.Res</text>
<text text-anchor="middle" x="740" y="-322.5" font-family="Helvetica,sans-Serif" font-size="10.00">OpenList</text>
</a>
</g>
</g>
<!-- Node448&#45;&gt;Node449 -->
<g id="edge4" class="edge"><title>Node448&#45;&gt;Node449</title>
<path fill="none" stroke="midnightblue" d="M541.806,-235.573C564.343,-254.472 605.641,-286.67 646,-305.5 651.241,-307.945 656.764,-310.186 662.397,-312.234"/>
<polygon fill="midnightblue" stroke="midnightblue" points="661.356,-315.576 671.95,-315.498 663.619,-308.952 661.356,-315.576"/>
</g>
<!-- Node450 -->
<g id="node6" class="node"><title>Node450</title>
<g id="a_node6"><a xlink:href="classokw_1_1log_1_1_logger___sngltn.html#a8ebceaddd6cc6963ddb8e08c72ea808c" target="_top" xlink:title="LogPrint Function: Prints the values of expressions to the results file.">
<polygon fill="white" stroke="black" points="892.5,-186.5 892.5,-216.5 1035.5,-216.5 1035.5,-186.5 892.5,-186.5"/>
<text text-anchor="start" x="900.5" y="-204.5" font-family="Helvetica,sans-Serif" font-size="10.00">okw.log.Logger_Sngltn.Log</text>
<text text-anchor="middle" x="964" y="-193.5" font-family="Helvetica,sans-Serif" font-size="10.00">Print</text>
</a>
</g>
</g>
<!-- Node448&#45;&gt;Node450 -->
<g id="edge5" class="edge"><title>Node448&#45;&gt;Node450</title>
<path fill="none" stroke="midnightblue" d="M602.138,-217.136C680.928,-213.722 802.365,-208.46 882.255,-204.999"/>
<polygon fill="midnightblue" stroke="midnightblue" points="882.431,-208.494 892.271,-204.565 882.128,-201.501 882.431,-208.494"/>
</g>
<!-- Node451 -->
<g id="node7" class="node"><title>Node451</title>
<g id="a_node7"><a xlink:href="classokw_1_1gui_1_1_any_win_base.html#a9929f6fae1f4e2c20df79d32d5bc79db" target="_top" xlink:title="Holt den vollständig (rekursiv) aufgelösten (z.B.">
<polygon fill="white" stroke="black" points="656.5,-151 656.5,-170 823.5,-170 823.5,-151 656.5,-151"/>
<text text-anchor="middle" x="740" y="-158" font-family="Helvetica,sans-Serif" font-size="10.00">okw.gui.AnyWinBase.getLocator</text>
</a>
</g>
</g>
<!-- Node448&#45;&gt;Node451 -->
<g id="edge6" class="edge"><title>Node448&#45;&gt;Node451</title>
<path fill="none" stroke="midnightblue" d="M573.747,-205.476C595.796,-198.862 622.148,-191.109 646,-184.5 660.623,-180.448 676.601,-176.244 691.124,-172.509"/>
<polygon fill="midnightblue" stroke="midnightblue" points="692.09,-175.874 700.91,-170.005 690.355,-169.093 692.09,-175.874"/>
</g>
<!-- Node453 -->
<g id="node9" class="node"><title>Node453</title>
<g id="a_node9"><a xlink:href="classokw_1_1log_1_1_logger___sngltn.html#a9b54104f7e0b4c0a473877b19dfaed56" target="_top" xlink:title="Closes a hierarchical level in the results file that was opened with ResOpenList.">
<polygon fill="white" stroke="black" points="668.5,-227.5 668.5,-257.5 811.5,-257.5 811.5,-227.5 668.5,-227.5"/>
<text text-anchor="start" x="676.5" y="-245.5" font-family="Helvetica,sans-Serif" font-size="10.00">okw.log.Logger_Sngltn.Res</text>
<text text-anchor="middle" x="740" y="-234.5" font-family="Helvetica,sans-Serif" font-size="10.00">CloseList</text>
</a>
</g>
</g>
<!-- Node448&#45;&gt;Node453 -->
<g id="edge8" class="edge"><title>Node448&#45;&gt;Node453</title>
<path fill="none" stroke="midnightblue" d="M602.243,-228.474C620.452,-230.341 639.891,-232.335 658.229,-234.216"/>
<polygon fill="midnightblue" stroke="midnightblue" points="657.984,-237.709 668.289,-235.248 658.698,-230.745 657.984,-237.709"/>
</g>
<!-- Node454 -->
<g id="node10" class="node"><title>Node454</title>
<g id="a_node10"><a xlink:href="classokw_1_1_log_messenger.html#af225d1f037d47b3b085175c09d78bdd2" target="_top" xlink:title="Holt die Log&#45;Meldung für MethodeNmae/Textkey ohne weitere Parameter.">
<polygon fill="white" stroke="black" points="655.5,-277 655.5,-296 824.5,-296 824.5,-277 655.5,-277"/>
<text text-anchor="middle" x="740" y="-284" font-family="Helvetica,sans-Serif" font-size="10.00">okw.LogMessenger.GetMessage</text>
</a>
</g>
</g>
<!-- Node448&#45;&gt;Node454 -->
<g id="edge9" class="edge"><title>Node448&#45;&gt;Node454</title>
<path fill="none" stroke="midnightblue" d="M559.904,-235.518C583.889,-245.289 616.471,-257.788 646,-266.5 656.308,-269.541 667.386,-272.329 678.175,-274.795"/>
<polygon fill="midnightblue" stroke="midnightblue" points="677.451,-278.219 687.972,-276.967 678.967,-271.385 677.451,-278.219"/>
</g>
<!-- Node452 -->
<g id="node8" class="node"><title>Node452</title>
<g id="a_node8"><a xlink:href="classokw_1_1gui_1_1_o_k_w_locator.html#adc74fc2125dd048dc1cb84e011f47ec8" target="_top" xlink:title="Holt den vollständig (rekursiv) aufgelösten (z.B.">
<polygon fill="white" stroke="black" points="881,-148 881,-167 1047,-167 1047,-148 881,-148"/>
<text text-anchor="middle" x="964" y="-155" font-family="Helvetica,sans-Serif" font-size="10.00">okw.gui.OKWLocator.getLocator</text>
</a>
</g>
</g>
<!-- Node451&#45;&gt;Node452 -->
<g id="edge7" class="edge"><title>Node451&#45;&gt;Node452</title>
<path fill="none" stroke="midnightblue" d="M823.665,-159.383C838.935,-159.177 854.971,-158.96 870.51,-158.75"/>
<polygon fill="midnightblue" stroke="midnightblue" points="870.684,-162.248 880.636,-158.613 870.59,-155.249 870.684,-162.248"/>
</g>
<!-- Node455 -->
<g id="node11" class="node"><title>Node455</title>
<g id="a_node11"><a xlink:href="classokw_1_1_log_messenger.html#a530cd6ab82ec82a04206a2e976ec06e3" target="_top" xlink:title="Interne Kernfunktion holt die Log&#45;Meldung mit Platzhaltern aus der XML&#45;Datei.">
<polygon fill="white" stroke="black" points="876.5,-277 876.5,-296 1051.5,-296 1051.5,-277 876.5,-277"/>
<text text-anchor="middle" x="964" y="-284" font-family="Helvetica,sans-Serif" font-size="10.00">okw.LogMessenger.ReadMessage</text>
</a>
</g>
</g>
<!-- Node454&#45;&gt;Node455 -->
<g id="edge10" class="edge"><title>Node454&#45;&gt;Node455</title>
<path fill="none" stroke="midnightblue" d="M824.612,-286.5C838.162,-286.5 852.293,-286.5 866.126,-286.5"/>
<polygon fill="midnightblue" stroke="midnightblue" points="866.134,-290 876.134,-286.5 866.134,-283 866.134,-290"/>
</g>
<!-- Node456 -->
<g id="node12" class="node"><title>Node456</title>
<g id="a_node12"><a xlink:href="classokw_1_1_o_k_w___xml_reader.html#ab920b5335a2e1429c14cc5f8e79f39eb" target="_top" xlink:title="Lies den TextContent eines Tag.">
<polygon fill="white" stroke="black" points="1094,-271.5 1094,-301.5 1246,-301.5 1246,-271.5 1094,-271.5"/>
<text text-anchor="start" x="1102" y="-289.5" font-family="Helvetica,sans-Serif" font-size="10.00">okw.OKW_XmlReader.getText</text>
<text text-anchor="middle" x="1170" y="-278.5" font-family="Helvetica,sans-Serif" font-size="10.00">ContentSingleValue</text>
</a>
</g>
</g>
<!-- Node455&#45;&gt;Node456 -->
<g id="edge11" class="edge"><title>Node455&#45;&gt;Node456</title>
<path fill="none" stroke="midnightblue" d="M1051.51,-286.5C1062.21,-286.5 1073.14,-286.5 1083.82,-286.5"/>
<polygon fill="midnightblue" stroke="midnightblue" points="1083.97,-290 1093.97,-286.5 1083.97,-283 1083.97,-290"/>
</g>
<!-- Node457&#45;&gt;Node451 -->
<g id="edge19" class="edge"><title>Node457&#45;&gt;Node451</title>
<path fill="none" stroke="midnightblue" d="M593.55,-145.582C610.237,-147.294 628.344,-149.151 645.933,-150.955"/>
<polygon fill="midnightblue" stroke="midnightblue" points="645.91,-154.471 656.215,-152.009 646.624,-147.507 645.91,-154.471"/>
</g>
<!-- Node458 -->
<g id="node14" class="node"><title>Node458</title>
<g id="a_node14"><a xlink:href="classokw_1_1gui_1_1adapter_1_1selenium_1_1webdriver_1_1_se_driver.html#aee9e3f8a67f4ad1f8100a33ba71c926e" target="_top" xlink:title="Gibt die Instance für die einzige Instanz dieser Klasse zurück.">
<polygon fill="white" stroke="black" points="646,-101.5 646,-131.5 834,-131.5 834,-101.5 646,-101.5"/>
<text text-anchor="start" x="654" y="-119.5" font-family="Helvetica,sans-Serif" font-size="10.00">okw.gui.adapter.selenium.webdriver.</text>
<text text-anchor="middle" x="740" y="-108.5" font-family="Helvetica,sans-Serif" font-size="10.00">SeDriver.getInstance</text>
</a>
</g>
</g>
<!-- Node457&#45;&gt;Node458 -->
<g id="edge13" class="edge"><title>Node457&#45;&gt;Node458</title>
<path fill="none" stroke="midnightblue" d="M593.55,-131.418C606.953,-130.043 621.271,-128.575 635.502,-127.115"/>
<polygon fill="midnightblue" stroke="midnightblue" points="636.243,-130.558 645.834,-126.056 635.529,-123.594 636.243,-130.558"/>
</g>
<!-- Node459 -->
<g id="node15" class="node"><title>Node459</title>
<g id="a_node15"><a xlink:href="classokw_1_1gui_1_1adapter_1_1selenium_1_1webdriver_1_1_se_driver.html#a65a8400867355574525aa356a53d3ccf" target="_top" xlink:title="Ermittelt das Webelement mit der gegebenen frameID und dem gegebenen Locator.">
<polygon fill="white" stroke="black" points="646,-52.5 646,-82.5 834,-82.5 834,-52.5 646,-52.5"/>
<text text-anchor="start" x="654" y="-70.5" font-family="Helvetica,sans-Serif" font-size="10.00">okw.gui.adapter.selenium.webdriver.</text>
<text text-anchor="middle" x="740" y="-59.5" font-family="Helvetica,sans-Serif" font-size="10.00">SeDriver.getElement</text>
</a>
</g>
</g>
<!-- Node457&#45;&gt;Node459 -->
<g id="edge14" class="edge"><title>Node457&#45;&gt;Node459</title>
<path fill="none" stroke="midnightblue" d="M583.645,-123.43C592.616,-120.509 601.656,-117.192 610,-113.5 627.148,-105.914 628.733,-98.8116 646,-91.5 650.772,-89.4793 655.756,-87.5955 660.83,-85.8452"/>
<polygon fill="midnightblue" stroke="midnightblue" points="662.242,-89.0665 670.667,-82.6428 660.075,-82.4103 662.242,-89.0665"/>
</g>
<!-- Node459&#45;&gt;Node450 -->
<g id="edge16" class="edge"><title>Node459&#45;&gt;Node450</title>
<path fill="none" stroke="midnightblue" d="M821.165,-82.7086C825.754,-85.2158 830.084,-88.1252 834,-91.5 865.076,-118.285 839.059,-149.559 870,-176.5 873.996,-179.979 878.427,-182.98 883.125,-185.567"/>
<polygon fill="midnightblue" stroke="midnightblue" points="881.915,-188.869 892.443,-190.051 884.95,-182.561 881.915,-188.869"/>
</g>
<!-- Node460 -->
<g id="node16" class="node"><title>Node460</title>
<g id="a_node16"><a xlink:href="classokw_1_1gui_1_1adapter_1_1selenium_1_1webdriver_1_1_se_driver.html#a47eec72c911c05beb2127672daafb325" target="_top" xlink:title="Wechselt das aktuelle Frame auf das Frame mit der id=iframeID.">
<polygon fill="white" stroke="black" points="870,-49.5 870,-79.5 1058,-79.5 1058,-49.5 870,-49.5"/>
<text text-anchor="start" x="878" y="-67.5" font-family="Helvetica,sans-Serif" font-size="10.00">okw.gui.adapter.selenium.webdriver.</text>
<text text-anchor="middle" x="964" y="-56.5" font-family="Helvetica,sans-Serif" font-size="10.00">SeDriver.swichToFrame</text>
</a>
</g>
</g>
<!-- Node459&#45;&gt;Node460 -->
<g id="edge15" class="edge"><title>Node459&#45;&gt;Node460</title>
<path fill="none" stroke="midnightblue" d="M834.183,-66.2408C842.535,-66.1279 851.024,-66.0132 859.456,-65.8992"/>
<polygon fill="midnightblue" stroke="midnightblue" points="859.748,-69.3957 869.7,-65.7608 859.653,-62.3964 859.748,-69.3957"/>
</g>
<!-- Node461 -->
<g id="node17" class="node"><title>Node461</title>
<g id="a_node17"><a xlink:href="classokw_1_1log_1_1_logger___sngltn.html#a2c15e9b2cd0c6266f4c67b8cb00d92e5" target="_top" xlink:title="LogWarning Function: Logs a warning to the results file.">
<polygon fill="white" stroke="black" points="892.5,-0.5 892.5,-30.5 1035.5,-30.5 1035.5,-0.5 892.5,-0.5"/>
<text text-anchor="start" x="900.5" y="-18.5" font-family="Helvetica,sans-Serif" font-size="10.00">okw.log.Logger_Sngltn.Log</text>
<text text-anchor="middle" x="964" y="-7.5" font-family="Helvetica,sans-Serif" font-size="10.00">Warning</text>
</a>
</g>
</g>
<!-- Node459&#45;&gt;Node461 -->
<g id="edge17" class="edge"><title>Node459&#45;&gt;Node461</title>
<path fill="none" stroke="midnightblue" d="M805.212,-52.4594C831.443,-46.3151 861.942,-39.1712 889.095,-32.8112"/>
<polygon fill="midnightblue" stroke="midnightblue" points="889.994,-36.1952 898.933,-30.5068 888.398,-29.3797 889.994,-36.1952"/>
</g>
<!-- Node462 -->
<g id="node18" class="node"><title>Node462</title>
<g id="a_node18"><a xlink:href="classokw_1_1log_1_1_logger___sngltn.html#a313f97c79ba4662d9daaf7f537dd02f4" target="_top" xlink:title="Loggt eine Nachricht.">
<polygon fill="white" stroke="black" points="892.5,-98.5 892.5,-128.5 1035.5,-128.5 1035.5,-98.5 892.5,-98.5"/>
<text text-anchor="start" x="900.5" y="-116.5" font-family="Helvetica,sans-Serif" font-size="10.00">okw.log.Logger_Sngltn.Log</text>
<text text-anchor="middle" x="964" y="-105.5" font-family="Helvetica,sans-Serif" font-size="10.00">PrintDebug</text>
</a>
</g>
</g>
<!-- Node459&#45;&gt;Node462 -->
<g id="edge18" class="edge"><title>Node459&#45;&gt;Node462</title>
<path fill="none" stroke="midnightblue" d="M813.691,-82.5621C835.722,-87.127 860.047,-92.1675 882.555,-96.8312"/>
<polygon fill="midnightblue" stroke="midnightblue" points="881.912,-100.272 892.415,-98.8742 883.333,-93.418 881.912,-100.272"/>
</g>
</g>
</svg>
