<?xml version="1.0" encoding="UTF-8" standalone="no"?>
<!DOCTYPE svg PUBLIC "-//W3C//DTD SVG 1.1//EN"
 "http://www.w3.org/Graphics/SVG/1.1/DTD/svg11.dtd">
<!-- Generated by graphviz version 2.26.3 (20100126.1600)
 -->
<!-- Title: okw.core.EN.MemorizeIsActive Pages: 1 -->
<!--zoomable 528 -->
<svg id="main" version="1.1" xmlns="http://www.w3.org/2000/svg" xmlns:xlink="http://www.w3.org/1999/xlink" xml:space="preserve" onload="init(evt)">
<style type="text/css"><![CDATA[
.edge:hover path { stroke: red; }
.edge:hover polygon { stroke: red; fill: red; }
]]></style>
<script type="text/javascript"><![CDATA[
var edges = document.getElementsByTagName('g');
if (edges && edges.length) {
  for (var i=0;i<edges.length;i++) {
    if (edges[i].id.substr(0,4)=='edge') {
      edges[i].setAttribute('class','edge');
    }
  }
}
]]></script>
        <defs>
                <circle id="rim" cx="0" cy="0" r="7"/>
                <circle id="rim2" cx="0" cy="0" r="3.5"/>
                <g id="zoomPlus">
                        <use xlink:href="#rim" fill="#404040">
                                <set attributeName="fill" to="#808080" begin="zoomplus.mouseover" end="zoomplus.mouseout"/>
                        </use>
                        <path d="M-4,0h8M0,-4v8" fill="none" stroke="white" stroke-width="1.5" pointer-events="none"/>
                </g>
                <g id="zoomMin">
                        <use xlink:href="#rim" fill="#404040">
                                <set attributeName="fill" to="#808080" begin="zoomminus.mouseover" end="zoomminus.mouseout"/>
                        </use>
                        <path d="M-4,0h8" fill="none" stroke="white" stroke-width="1.5" pointer-events="none"/>
                </g>
                <g id="dirArrow">
                        <path fill="none" stroke="white" stroke-width="1.5" d="M0,-3.0v7 M-2.5,-0.5L0,-3.0L2.5,-0.5"/>
                </g>
               <g id="resetDef">
                       <use xlink:href="#rim2" fill="#404040">
                               <set attributeName="fill" to="#808080" begin="reset.mouseover" end="reset.mouseout"/>
                       </use>
               </g>
        </defs>

<script type="text/javascript">
var viewWidth = 398;
var viewHeight = 528;
var sectionId = 'dynsection-30';
</script>
<script xlink:href="svgpan.js"/>
<svg id="graph" class="graph">
<g id="viewport">
<title>okw.core.EN.MemorizeIsActive</title>
<polygon fill="white" stroke="white" points="-4,5 -4,-524 395,-524 395,5 -4,5"/>
<!-- Node865 -->
<g id="node1" class="node"><title>Node865</title>
<polygon fill="#bfbfbf" stroke="black" points="0.5,-228.5 0.5,-249.5 155.5,-249.5 155.5,-228.5 0.5,-228.5"/>
<text text-anchor="middle" x="78" y="-236.5" font-family="Helvetica,sans-Serif" font-size="10.00">okw.core.EN.MemorizeIsActive</text>
</g>
<!-- Node866 -->
<g id="node3" class="node"><title>Node866</title>
<a xlink:href="classokw_1_1core_1_1_e_n___keywords___i_g_n_o_r_e___test.html#a1b5d924dc382fe974ce129c19249d5f0" target="_top" xlink:title="okw.core.EN_Keywords\l_IGNORE_Test.TC_MemorizeIsActive\l_IGNORE">
<polygon fill="white" stroke="black" points="197.5,-472.5 197.5,-519.5 384.5,-519.5 384.5,-472.5 197.5,-472.5"/>
<text text-anchor="start" x="205.5" y="-506.5" font-family="Helvetica,sans-Serif" font-size="10.00">okw.core.EN_Keywords</text>
<text text-anchor="start" x="205.5" y="-493.5" font-family="Helvetica,sans-Serif" font-size="10.00">_IGNORE_Test.TC_MemorizeIsActive</text>
<text text-anchor="middle" x="291" y="-480.5" font-family="Helvetica,sans-Serif" font-size="10.00">_IGNORE</text>
</a>
</g>
<!-- Node865&#45;&gt;Node866 -->
<g id="edge2" class="edge"><title>Node865&#45;&gt;Node866</title>
<path fill="none" stroke="midnightblue" d="M82.7868,-259.468C94.0716,-303.245 126.462,-406.567 192,-463 195.981,-466.428 200.331,-469.503 204.915,-472.261"/>
<polygon fill="midnightblue" stroke="midnightblue" points="86.1657,-258.552 80.3651,-249.686 79.3708,-260.234 86.1657,-258.552"/>
</g>
<!-- Node867 -->
<g id="node5" class="node"><title>Node867</title>
<a xlink:href="classokw_1_1core_1_1_e_n___keywords___i_g_n_o_r_e___test.html#a70e3024dfc57199124c8219e76691602" target="_top" xlink:title="okw.core.EN_Keywords\l_IGNORE_Test.TC_MemorizeIsActive\l_IGNORE_StringEmpty">
<polygon fill="white" stroke="black" points="197.5,-406.5 197.5,-453.5 384.5,-453.5 384.5,-406.5 197.5,-406.5"/>
<text text-anchor="start" x="205.5" y="-440.5" font-family="Helvetica,sans-Serif" font-size="10.00">okw.core.EN_Keywords</text>
<text text-anchor="start" x="205.5" y="-427.5" font-family="Helvetica,sans-Serif" font-size="10.00">_IGNORE_Test.TC_MemorizeIsActive</text>
<text text-anchor="middle" x="291" y="-414.5" font-family="Helvetica,sans-Serif" font-size="10.00">_IGNORE_StringEmpty</text>
</a>
</g>
<!-- Node865&#45;&gt;Node867 -->
<g id="edge4" class="edge"><title>Node865&#45;&gt;Node867</title>
<path fill="none" stroke="midnightblue" d="M87.1167,-258.766C103.459,-292.076 140.868,-359.424 192,-397 196.672,-400.433 201.722,-403.524 206.984,-406.304"/>
<polygon fill="midnightblue" stroke="midnightblue" points="90.2014,-257.104 82.7296,-249.592 83.8863,-260.124 90.2014,-257.104"/>
</g>
<!-- Node868 -->
<g id="node7" class="node"><title>Node868</title>
<a xlink:href="classokw_1_1core_1_1_e_n___o_k_w_not_allowed_value_exception___keywords___i_g_n_o_r_e.html#a6e44ea6f8c45474e652babb6966c380f" target="_top" xlink:title="Prüft ob &quot;${IGNORE} &quot; die Ausnahme okw.exceptions.OKWNotAllowedValueException auslöst. ">
<polygon fill="white" stroke="black" points="192.5,-340.5 192.5,-387.5 389.5,-387.5 389.5,-340.5 192.5,-340.5"/>
<text text-anchor="start" x="200.5" y="-374.5" font-family="Helvetica,sans-Serif" font-size="10.00">okw.core.EN_OKWNotAllowed</text>
<text text-anchor="start" x="200.5" y="-361.5" font-family="Helvetica,sans-Serif" font-size="10.00">ValueException_Keywords</text>
<text text-anchor="middle" x="291" y="-348.5" font-family="Helvetica,sans-Serif" font-size="10.00">_IGNORE.tcMemorizeIsActiveIGNORE1</text>
</a>
</g>
<!-- Node865&#45;&gt;Node868 -->
<g id="edge6" class="edge"><title>Node865&#45;&gt;Node868</title>
<path fill="none" stroke="midnightblue" d="M95.681,-256.699C116.919,-277.098 154.405,-310.443 192,-331 198.279,-334.433 204.977,-337.593 211.816,-340.481"/>
<polygon fill="midnightblue" stroke="midnightblue" points="97.9731,-254.046 88.3706,-249.569 93.0855,-259.057 97.9731,-254.046"/>
</g>
<!-- Node869 -->
<g id="node9" class="node"><title>Node869</title>
<a xlink:href="classokw_1_1core_1_1_e_n___o_k_w_not_allowed_value_exception___keywords___i_g_n_o_r_e.html#aecc232a734bfeaf3b7e1ca88028c6122" target="_top" xlink:title="Prüft ob &quot;&quot;${IGNORE}${TCN}&quot; die Ausnahme okw.exceptions.OKWNotAllowedValueException auslöst...">
<polygon fill="white" stroke="black" points="192.5,-274.5 192.5,-321.5 389.5,-321.5 389.5,-274.5 192.5,-274.5"/>
<text text-anchor="start" x="200.5" y="-308.5" font-family="Helvetica,sans-Serif" font-size="10.00">okw.core.EN_OKWNotAllowed</text>
<text text-anchor="start" x="200.5" y="-295.5" font-family="Helvetica,sans-Serif" font-size="10.00">ValueException_Keywords</text>
<text text-anchor="middle" x="291" y="-282.5" font-family="Helvetica,sans-Serif" font-size="10.00">_IGNORE.tcMemorizeIsActiveIGNORE2</text>
</a>
</g>
<!-- Node865&#45;&gt;Node869 -->
<g id="edge8" class="edge"><title>Node865&#45;&gt;Node869</title>
<path fill="none" stroke="midnightblue" d="M125.846,-252.253C149.484,-258.801 178.724,-266.9 206.001,-274.456"/>
<polygon fill="midnightblue" stroke="midnightblue" points="126.652,-248.845 116.08,-249.548 124.783,-255.591 126.652,-248.845"/>
</g>
<!-- Node870 -->
<g id="node11" class="node"><title>Node870</title>
<a xlink:href="classokw_1_1_se_input_checkbox_1_1_se_input_checkbox___test.html#a702ffb63f0af2c995bd71ca884b0f408" target="_top" xlink:title="Prüft die SetFocusFunktion bei Textfelder mit dem Attribute &quot;ReadOnly&quot;. ">
<polygon fill="white" stroke="black" points="215,-222 215,-256 367,-256 367,-222 215,-222"/>
<text text-anchor="start" x="223" y="-243" font-family="Helvetica,sans-Serif" font-size="10.00">okw.SeInputCheckbox.SeInput</text>
<text text-anchor="middle" x="291" y="-230" font-family="Helvetica,sans-Serif" font-size="10.00">Checkbox_Test.tcSetFocus</text>
</a>
</g>
<!-- Node865&#45;&gt;Node870 -->
<g id="edge10" class="edge"><title>Node865&#45;&gt;Node870</title>
<path fill="none" stroke="midnightblue" d="M165.606,-239C181.988,-239 198.986,-239 214.982,-239"/>
<polygon fill="midnightblue" stroke="midnightblue" points="165.5,-235.5 155.5,-239 165.5,-242.5 165.5,-235.5"/>
</g>
<!-- Node871 -->
<g id="node13" class="node"><title>Node871</title>
<a xlink:href="classokw_1_1_se_input_field_1_1_se_input_field___test.html#a47dccb1226e59298b732ce75379b95cb" target="_top" xlink:title="Teste das Schlüsselwort MemorizeIsActive( FN, MemKey ) eines SeInputText Prüfen. ">
<polygon fill="white" stroke="black" points="207,-170 207,-204 375,-204 375,-170 207,-170"/>
<text text-anchor="start" x="215" y="-191" font-family="Helvetica,sans-Serif" font-size="10.00">okw.SeInputField.SeInput</text>
<text text-anchor="middle" x="291" y="-178" font-family="Helvetica,sans-Serif" font-size="10.00">Field_Test.tcMemorizeIsActive_en</text>
</a>
</g>
<!-- Node865&#45;&gt;Node871 -->
<g id="edge12" class="edge"><title>Node865&#45;&gt;Node871</title>
<path fill="none" stroke="midnightblue" d="M130.844,-226.099C158.115,-219.441 191.739,-211.233 221.127,-204.058"/>
<polygon fill="midnightblue" stroke="midnightblue" points="129.988,-222.705 121.104,-228.477 131.649,-229.505 129.988,-222.705"/>
</g>
<!-- Node872 -->
<g id="node15" class="node"><title>Node872</title>
<a xlink:href="classokw_1_1_se_input_field_1_1_se_input_field___test.html#aa7612889d0a642c440c6a085e205ac8f" target="_top" xlink:title="okw.SeInputField.SeInput\lField_Test.tcSelect_OKWGUIObject\lNotFoundException">
<polygon fill="white" stroke="black" points="202.5,-104.5 202.5,-151.5 379.5,-151.5 379.5,-104.5 202.5,-104.5"/>
<text text-anchor="start" x="210.5" y="-138.5" font-family="Helvetica,sans-Serif" font-size="10.00">okw.SeInputField.SeInput</text>
<text text-anchor="start" x="210.5" y="-125.5" font-family="Helvetica,sans-Serif" font-size="10.00">Field_Test.tcSelect_OKWGUIObject</text>
<text text-anchor="middle" x="291" y="-112.5" font-family="Helvetica,sans-Serif" font-size="10.00">NotFoundException</text>
</a>
</g>
<!-- Node865&#45;&gt;Node872 -->
<g id="edge14" class="edge"><title>Node865&#45;&gt;Node872</title>
<path fill="none" stroke="midnightblue" d="M98.9313,-222.02C120.996,-204.778 157.3,-178.231 192,-161 198.815,-157.616 206.059,-154.454 213.407,-151.532"/>
<polygon fill="midnightblue" stroke="midnightblue" points="96.6023,-219.4 90.9344,-228.351 100.947,-224.888 96.6023,-219.4"/>
</g>
<!-- Node873 -->
<g id="node17" class="node"><title>Node873</title>
<a xlink:href="classokw_1_1_se_input_radio_1_1_se_input_radio___e_n___test.html#a7810904e1268bdaf14922ba950527c06" target="_top" xlink:title="Test des Schlüsselwortes MemorizeIsActive für den GUI&#45;Adapter SeInputRadio. ">
<polygon fill="white" stroke="black" points="200,-52 200,-86 382,-86 382,-52 200,-52"/>
<text text-anchor="start" x="208" y="-73" font-family="Helvetica,sans-Serif" font-size="10.00">okw.SeInputRadio.SeInput</text>
<text text-anchor="middle" x="291" y="-60" font-family="Helvetica,sans-Serif" font-size="10.00">Radio_EN_Test.tc_MemorizeIsActive</text>
</a>
</g>
<!-- Node865&#45;&gt;Node873 -->
<g id="edge16" class="edge"><title>Node865&#45;&gt;Node873</title>
<path fill="none" stroke="midnightblue" d="M88.0543,-219.353C105.086,-188.093 142.631,-127.274 192,-95 197.206,-91.5967 202.839,-88.6381 208.685,-86.066"/>
<polygon fill="midnightblue" stroke="midnightblue" points="84.8542,-217.917 83.2563,-228.39 91.0369,-221.199 84.8542,-217.917"/>
</g>
<!-- Node874 -->
<g id="node19" class="node"><title>Node874</title>
<a xlink:href="classokw_1_1_se_link_1_1_se_link___e_n___test.html#a6790e3a557b34eef479a3306c331bc46" target="_top" xlink:title="Prüft ob die VerifyIsActive die Ausnahme OKWFrameObjectMethodNotImplemented auslöst. ">
<polygon fill="white" stroke="black" points="217.5,-0 217.5,-34 364.5,-34 364.5,-0 217.5,-0"/>
<text text-anchor="start" x="225.5" y="-21" font-family="Helvetica,sans-Serif" font-size="10.00">okw.SeLink.SeLink_EN</text>
<text text-anchor="middle" x="291" y="-8" font-family="Helvetica,sans-Serif" font-size="10.00">_Test.tcMemorizeIsActive_en</text>
</a>
</g>
<!-- Node865&#45;&gt;Node874 -->
<g id="edge18" class="edge"><title>Node865&#45;&gt;Node874</title>
<path fill="none" stroke="midnightblue" d="M84.0875,-218.338C97.0248,-178.136 131.162,-89.2883 192,-43 199.566,-37.2433 208.294,-32.7572 217.367,-29.262"/>
<polygon fill="midnightblue" stroke="midnightblue" points="80.6797,-217.511 81.0594,-228.099 87.3654,-219.585 80.6797,-217.511"/>
</g>
</g>
</svg>
        <g id="navigator" transform="translate(0 0)" fill="#404254">
                <rect fill="#f2f5e9" fill-opacity="0.5" stroke="#606060" stroke-width=".5" x="0" y="0" width="60" height="60"/>
                <use id="zoomplus" xlink:href="#zoomPlus" x="17" y="9" onmousedown="handleZoom(evt,'in')"/>
                <use id="zoomminus" xlink:href="#zoomMin" x="42" y="9" onmousedown="handleZoom(evt,'out')"/>
                <use id="reset" xlink:href="#resetDef" x="30" y="36" onmousedown="handleReset()"/>
                <g id="arrowUp" xlink:href="#dirArrow" transform="translate(30 24)" onmousedown="handlePan(0,-1)">
                  <use xlink:href="#rim" fill="#404040">
                        <set attributeName="fill" to="#808080" begin="arrowUp.mouseover" end="arrowUp.mouseout"/>
                  </use>
                  <path fill="none" stroke="white" stroke-width="1.5" d="M0,-3.0v7 M-2.5,-0.5L0,-3.0L2.5,-0.5"/>
                </g>
                <g id="arrowRight" xlink:href="#dirArrow" transform="rotate(90) translate(36 -43)" onmousedown="handlePan(1,0)">
                  <use xlink:href="#rim" fill="#404040">
                        <set attributeName="fill" to="#808080" begin="arrowRight.mouseover" end="arrowRight.mouseout"/>
                  </use>
                  <path fill="none" stroke="white" stroke-width="1.5" d="M0,-3.0v7 M-2.5,-0.5L0,-3.0L2.5,-0.5"/>
                </g>
                <g id="arrowDown" xlink:href="#dirArrow" transform="rotate(180) translate(-30 -48)" onmousedown="handlePan(0,1)">
                  <use xlink:href="#rim" fill="#404040">
                        <set attributeName="fill" to="#808080" begin="arrowDown.mouseover" end="arrowDown.mouseout"/>
                  </use>
                  <path fill="none" stroke="white" stroke-width="1.5" d="M0,-3.0v7 M-2.5,-0.5L0,-3.0L2.5,-0.5"/>
                </g>
                <g id="arrowLeft" xlink:href="#dirArrow" transform="rotate(270) translate(-36 17)" onmousedown="handlePan(-1,0)">
                  <use xlink:href="#rim" fill="#404040">
                        <set attributeName="fill" to="#808080" begin="arrowLeft.mouseover" end="arrowLeft.mouseout"/>
                  </use>
                  <path fill="none" stroke="white" stroke-width="1.5" d="M0,-3.0v7 M-2.5,-0.5L0,-3.0L2.5,-0.5"/>
                </g>
        </g>
        <svg viewBox="0 0 15 15" width="100%" height="30px" preserveAspectRatio="xMaxYMin meet">
         <g id="arrow_out" transform="scale(0.3 0.3)">
          <a xlink:href="classokw_1_1core_1_1_e_n_a935b5a215e8176e6abda9bc268f107f4_icgraph_org.svg" target="_base">
           <rect id="button" ry="5" rx="5" y="6" x="6" height="38" width="38"
                fill="#f2f5e9" fill-opacity="0.5" stroke="#606060" stroke-width="1.0"/>
           <path id="arrow"
             d="M 11.500037,31.436501 C 11.940474,20.09759 22.043105,11.32322 32.158766,21.979434 L 37.068811,17.246167 C 37.068811,17.246167 37.088388,32 37.088388,32 L 22.160133,31.978069 C 22.160133,31.978069 26.997745,27.140456 26.997745,27.140456 C 18.528582,18.264221 13.291696,25.230495 11.500037,31.436501 z"
             style="fill:#404040;"/>
          </a>
         </g>
        </svg>
</svg>
