<?xml version="1.0" encoding="UTF-8" standalone="no"?>
<!DOCTYPE svg PUBLIC "-//W3C//DTD SVG 1.1//EN"
 "http://www.w3.org/Graphics/SVG/1.1/DTD/svg11.dtd">
<!-- Generated by graphviz version 2.36.0 (20140111.2315)
 -->
<!-- Title: okw.core.EN_OKWNotAllowedValueException_Keywords_IGNORE.tcMemorizeValueIGNORE1 Pages: 1 -->
<!--zoomable 301 -->
<svg id="main" version="1.1" xmlns="http://www.w3.org/2000/svg" xmlns:xlink="http://www.w3.org/1999/xlink" xml:space="preserve" onload="init(evt)">
<style type="text/css"><![CDATA[
.edge:hover path { stroke: red; }
.edge:hover polygon { stroke: red; fill: red; }
]]></style>
<script type="text/javascript"><![CDATA[
var edges = document.getElementsByTagName('g');
if (edges && edges.length) {
  for (var i=0;i<edges.length;i++) {
    if (edges[i].id.substr(0,4)=='edge') {
      edges[i].setAttribute('class','edge');
    }
  }
}
]]></script>
        <defs>
                <circle id="rim" cx="0" cy="0" r="7"/>
                <circle id="rim2" cx="0" cy="0" r="3.5"/>
                <g id="zoomPlus">
                        <use xlink:href="#rim" fill="#404040">
                                <set attributeName="fill" to="#808080" begin="zoomplus.mouseover" end="zoomplus.mouseout"/>
                        </use>
                        <path d="M-4,0h8M0,-4v8" fill="none" stroke="white" stroke-width="1.5" pointer-events="none"/>
                </g>
                <g id="zoomMin">
                        <use xlink:href="#rim" fill="#404040">
                                <set attributeName="fill" to="#808080" begin="zoomminus.mouseover" end="zoomminus.mouseout"/>
                        </use>
                        <path d="M-4,0h8" fill="none" stroke="white" stroke-width="1.5" pointer-events="none"/>
                </g>
                <g id="dirArrow">
                        <path fill="none" stroke="white" stroke-width="1.5" d="M0,-3.0v7 M-2.5,-0.5L0,-3.0L2.5,-0.5"/>
                </g>
               <g id="resetDef">
                       <use xlink:href="#rim2" fill="#404040">
                               <set attributeName="fill" to="#808080" begin="reset.mouseover" end="reset.mouseout"/>
                       </use>
               </g>
        </defs>

<script type="text/javascript">
var viewWidth = 1164;
var viewHeight = 301;
var sectionId = 'dynsection-17';
</script>
<script xlink:href="svgpan.js"/>
<svg id="graph" class="graph">
<g id="viewport">
<title>okw.core.EN_OKWNotAllowedValueException_Keywords_IGNORE.tcMemorizeValueIGNORE1</title>
<polygon fill="white" stroke="none" points="-4,4 -4,-297 1160,-297 1160,4 -4,4"/>
<!-- Node288 -->
<g id="node1" class="node"><title>Node288</title>
<polygon fill="#bfbfbf" stroke="black" points="0.5,-106.5 0.5,-147.5 185.5,-147.5 185.5,-106.5 0.5,-106.5"/>
<text text-anchor="start" x="8.5" y="-135.5" font-family="Helvetica,sans-Serif" font-size="10.00">okw.core.EN_OKWNotAllowed</text>
<text text-anchor="start" x="8.5" y="-124.5" font-family="Helvetica,sans-Serif" font-size="10.00">ValueException_Keywords</text>
<text text-anchor="middle" x="93" y="-113.5" font-family="Helvetica,sans-Serif" font-size="10.00">_IGNORE.tcMemorizeValueIGNORE1</text>
</g>
<!-- Node289 -->
<g id="node2" class="node"><title>Node289</title>
<g id="a_node2"><a xlink:href="classokw_1_1core_1_1_e_n.html#aef613b0a3e6bb8a9623984db145cae69" target="_top" xlink:title="Markiert den Anfang eines neuen Testfalls. ">
<polygon fill="white" stroke="black" points="233.5,-79.5 233.5,-98.5 354.5,-98.5 354.5,-79.5 233.5,-79.5"/>
<text text-anchor="middle" x="294" y="-86.5" font-family="Helvetica,sans-Serif" font-size="10.00">okw.core.EN.BeginTest</text>
</a>
</g>
</g>
<!-- Node288&#45;&gt;Node289 -->
<g id="edge1" class="edge"><title>Node288&#45;&gt;Node289</title>
<path fill="none" stroke="midnightblue" d="M185.637,-109.502C201.716,-106.431 218.07,-103.308 233.007,-100.456"/>
<polygon fill="midnightblue" stroke="midnightblue" points="233.934,-103.842 243.1,-98.5287 232.621,-96.9665 233.934,-103.842"/>
</g>
<!-- Node295 -->
<g id="node8" class="node"><title>Node295</title>
<g id="a_node8"><a xlink:href="classokw_1_1core_1_1_e_n.html#a2b61c2b39a9cfdbdfd25fe0e3d43785b" target="_top" xlink:title="Setzt den Kontext auf das gegebene Fenster. ">
<polygon fill="white" stroke="black" points="224,-155.5 224,-174.5 364,-174.5 364,-155.5 224,-155.5"/>
<text text-anchor="middle" x="294" y="-162.5" font-family="Helvetica,sans-Serif" font-size="10.00">okw.core.EN.SelectWindow</text>
</a>
</g>
</g>
<!-- Node288&#45;&gt;Node295 -->
<g id="edge7" class="edge"><title>Node288&#45;&gt;Node295</title>
<path fill="none" stroke="midnightblue" d="M185.637,-144.498C201.716,-147.569 218.07,-150.692 233.007,-153.544"/>
<polygon fill="midnightblue" stroke="midnightblue" points="232.621,-157.033 243.1,-155.471 233.934,-150.158 232.621,-157.033"/>
</g>
<!-- Node302 -->
<g id="node15" class="node"><title>Node302</title>
<g id="a_node15"><a xlink:href="classokw_1_1core_1_1_e_n.html#a443ae129e7d12b082d0555c597d1425d" target="_top" xlink:title="Merkt sich den Standartwert eines Objekts. ">
<polygon fill="white" stroke="black" points="222,-117.5 222,-136.5 366,-136.5 366,-117.5 222,-117.5"/>
<text text-anchor="middle" x="294" y="-124.5" font-family="Helvetica,sans-Serif" font-size="10.00">okw.core.EN.MemorizeValue</text>
</a>
</g>
</g>
<!-- Node288&#45;&gt;Node302 -->
<g id="edge15" class="edge"><title>Node288&#45;&gt;Node302</title>
<path fill="none" stroke="midnightblue" d="M185.637,-127C194.362,-127 203.168,-127 211.784,-127"/>
<polygon fill="midnightblue" stroke="midnightblue" points="211.796,-130.5 221.796,-127 211.796,-123.5 211.796,-130.5"/>
</g>
<!-- Node290 -->
<g id="node3" class="node"><title>Node290</title>
<g id="a_node3"><a xlink:href="classokw_1_1core_1_1_core.html#ab4e0f723d27cb11c944ec4c82c426100" target="_top" xlink:title="Setzt die Sprache auf den gegebenen wert Language. ">
<polygon fill="white" stroke="black" points="408.5,-98.5 408.5,-117.5 547.5,-117.5 547.5,-98.5 408.5,-98.5"/>
<text text-anchor="middle" x="478" y="-105.5" font-family="Helvetica,sans-Serif" font-size="10.00">okw.core.Core.setLanguage</text>
</a>
</g>
</g>
<!-- Node289&#45;&gt;Node290 -->
<g id="edge2" class="edge"><title>Node289&#45;&gt;Node290</title>
<path fill="none" stroke="midnightblue" d="M354.594,-95.2213C368.576,-96.681 383.686,-98.2584 398.359,-99.7903"/>
<polygon fill="midnightblue" stroke="midnightblue" points="398.119,-103.284 408.429,-100.841 398.846,-96.322 398.119,-103.284"/>
</g>
<!-- Node292 -->
<g id="node5" class="node"><title>Node292</title>
<g id="a_node5"><a xlink:href="classokw_1_1core_1_1_core.html#acfefe92468c9eb9e951846372726c4d8" target="_top" xlink:title="Markiert den Anfang eines neuen Testfalls. ">
<polygon fill="white" stroke="black" points="414,-49.5 414,-68.5 542,-68.5 542,-49.5 414,-49.5"/>
<text text-anchor="middle" x="478" y="-56.5" font-family="Helvetica,sans-Serif" font-size="10.00">okw.core.Core.BeginTest</text>
</a>
</g>
</g>
<!-- Node289&#45;&gt;Node292 -->
<g id="edge4" class="edge"><title>Node289&#45;&gt;Node292</title>
<path fill="none" stroke="midnightblue" d="M352.836,-79.4666C370.835,-76.4998 390.839,-73.2024 409.441,-70.1362"/>
<polygon fill="midnightblue" stroke="midnightblue" points="410.017,-73.5885 419.314,-68.5086 408.878,-66.6817 410.017,-73.5885"/>
</g>
<!-- Node291 -->
<g id="node4" class="node"><title>Node291</title>
<g id="a_node4"><a xlink:href="interfaceokw_1_1core_1_1_i_o_k_w___state.html#a866baa0bde08a47418f54d63bdb56097" target="_top" xlink:title="Interne Methode zum setzen der Sprache f체r die sprachabh채ngigen Ausgaben der Dokumentation (Log)...">
<polygon fill="white" stroke="black" points="590.5,-87.5 590.5,-106.5 763.5,-106.5 763.5,-87.5 590.5,-87.5"/>
<text text-anchor="middle" x="677" y="-94.5" font-family="Helvetica,sans-Serif" font-size="10.00">okw.core.IOKW_State.setLanguage</text>
</a>
</g>
</g>
<!-- Node290&#45;&gt;Node291 -->
<g id="edge3" class="edge"><title>Node290&#45;&gt;Node291</title>
<path fill="none" stroke="midnightblue" d="M547.624,-104.168C558.167,-103.58 569.213,-102.963 580.214,-102.348"/>
<polygon fill="midnightblue" stroke="midnightblue" points="580.5,-105.838 590.289,-101.786 580.109,-98.8489 580.5,-105.838"/>
</g>
<!-- Node293 -->
<g id="node6" class="node"><title>Node293</title>
<g id="a_node6"><a xlink:href="classokw_1_1log_1_1_logger___sngltn.html#a60f4ad59db847ae61df928f9920f3deb" target="_top" xlink:title="Ausgabe des Testfalls. ">
<polygon fill="white" stroke="black" points="610,-0 610,-30 744,-30 744,-0 610,-0"/>
<text text-anchor="start" x="618" y="-18" font-family="Helvetica,sans-Serif" font-size="10.00">okw.log.Logger_Sngltn.Log</text>
<text text-anchor="middle" x="677" y="-7" font-family="Helvetica,sans-Serif" font-size="10.00">TestcaseStart</text>
</a>
</g>
</g>
<!-- Node292&#45;&gt;Node293 -->
<g id="edge5" class="edge"><title>Node292&#45;&gt;Node293</title>
<path fill="none" stroke="midnightblue" d="M521.746,-49.4527C544.524,-44.3652 573.233,-37.953 599.689,-32.044"/>
<polygon fill="midnightblue" stroke="midnightblue" points="600.705,-35.4035 609.702,-29.8078 599.179,-28.5718 600.705,-35.4035"/>
</g>
<!-- Node294 -->
<g id="node7" class="node"><title>Node294</title>
<g id="a_node7"><a xlink:href="interfaceokw_1_1core_1_1_i_o_k_w___state.html#ae5480ddb1fc37eade5d899d335bc4b13" target="_top" xlink:title="Markiert den Anfang eines neuen Testfalls. ">
<polygon fill="white" stroke="black" points="596,-49.5 596,-68.5 758,-68.5 758,-49.5 596,-49.5"/>
<text text-anchor="middle" x="677" y="-56.5" font-family="Helvetica,sans-Serif" font-size="10.00">okw.core.IOKW_State.BeginTest</text>
</a>
</g>
</g>
<!-- Node292&#45;&gt;Node294 -->
<g id="edge6" class="edge"><title>Node292&#45;&gt;Node294</title>
<path fill="none" stroke="midnightblue" d="M542.145,-59C556.044,-59 571.026,-59 585.759,-59"/>
<polygon fill="midnightblue" stroke="midnightblue" points="585.904,-62.5001 595.904,-59 585.904,-55.5001 585.904,-62.5001"/>
</g>
<!-- Node295&#45;&gt;Node290 -->
<g id="edge8" class="edge"><title>Node295&#45;&gt;Node290</title>
<path fill="none" stroke="midnightblue" d="M332.721,-155.419C343.512,-152.539 355.258,-149.272 366,-146 391.346,-138.28 419.593,-128.594 441.249,-120.934"/>
<polygon fill="midnightblue" stroke="midnightblue" points="442.452,-124.221 450.701,-117.571 440.106,-117.626 442.452,-124.221"/>
</g>
<!-- Node296 -->
<g id="node9" class="node"><title>Node296</title>
<g id="a_node9"><a xlink:href="classokw_1_1core_1_1_core.html#a6a68660eb5e34965522896e2a5c48314" target="_top" xlink:title="Setzt den Kontext auf das gegebene Fenster. ">
<polygon fill="white" stroke="black" points="405,-202.5 405,-221.5 551,-221.5 551,-202.5 405,-202.5"/>
<text text-anchor="middle" x="478" y="-209.5" font-family="Helvetica,sans-Serif" font-size="10.00">okw.core.Core.SelectWindow</text>
</a>
</g>
</g>
<!-- Node295&#45;&gt;Node296 -->
<g id="edge9" class="edge"><title>Node295&#45;&gt;Node296</title>
<path fill="none" stroke="midnightblue" d="M331.83,-174.511C360.106,-181.813 399.353,-191.948 429.911,-199.84"/>
<polygon fill="midnightblue" stroke="midnightblue" points="429.355,-203.311 439.912,-202.422 431.105,-196.533 429.355,-203.311"/>
</g>
<!-- Node297 -->
<g id="node10" class="node"><title>Node297</title>
<g id="a_node10"><a xlink:href="classokw_1_1log_1_1_logger___sngltn.html#a70ec25e200e00ecefc544e8fd371d2ef" target="_top" xlink:title="Ausgabe eines Schl체sselwortes. ">
<polygon fill="white" stroke="black" points="610,-175 610,-205 744,-205 744,-175 610,-175"/>
<text text-anchor="start" x="618" y="-193" font-family="Helvetica,sans-Serif" font-size="10.00">okw.log.Logger_Sngltn.Log</text>
<text text-anchor="middle" x="677" y="-182" font-family="Helvetica,sans-Serif" font-size="10.00">KeyWordStart</text>
</a>
</g>
</g>
<!-- Node296&#45;&gt;Node297 -->
<g id="edge10" class="edge"><title>Node296&#45;&gt;Node297</title>
<path fill="none" stroke="midnightblue" d="M551.237,-203.933C567.001,-202.172 583.733,-200.304 599.651,-198.526"/>
<polygon fill="midnightblue" stroke="midnightblue" points="600.426,-201.962 609.976,-197.373 599.649,-195.005 600.426,-201.962"/>
</g>
<!-- Node298 -->
<g id="node11" class="node"><title>Node298</title>
<g id="a_node11"><a xlink:href="classokw_1_1_log_messenger.html#af225d1f037d47b3b085175c09d78bdd2" target="_top" xlink:title="Holt die Log&#45;Meldung f체r MethodeNmae/Textkey ohne weitere Parameter. ">
<polygon fill="white" stroke="black" points="597,-224.5 597,-243.5 757,-243.5 757,-224.5 597,-224.5"/>
<text text-anchor="middle" x="677" y="-231.5" font-family="Helvetica,sans-Serif" font-size="10.00">okw.LogMessenger.GetMessage</text>
</a>
</g>
</g>
<!-- Node296&#45;&gt;Node298 -->
<g id="edge11" class="edge"><title>Node296&#45;&gt;Node298</title>
<path fill="none" stroke="midnightblue" d="M551.237,-220.067C562.819,-221.36 574.923,-222.712 586.843,-224.043"/>
<polygon fill="midnightblue" stroke="midnightblue" points="586.471,-227.523 596.797,-225.155 587.247,-220.567 586.471,-227.523"/>
</g>
<!-- Node301 -->
<g id="node14" class="node"><title>Node301</title>
<g id="a_node14"><a xlink:href="interfaceokw_1_1core_1_1_i_o_k_w___state.html#ad4fc9610ed5b1176590a45b55e6ac7f0" target="_top" xlink:title="Setzt den Kontext auf das gegebene Fenster. ">
<polygon fill="white" stroke="black" points="604,-263 604,-293 750,-293 750,-263 604,-263"/>
<text text-anchor="start" x="612" y="-281" font-family="Helvetica,sans-Serif" font-size="10.00">okw.core.IOKW_State.Select</text>
<text text-anchor="middle" x="677" y="-270" font-family="Helvetica,sans-Serif" font-size="10.00">Window</text>
</a>
</g>
</g>
<!-- Node296&#45;&gt;Node301 -->
<g id="edge14" class="edge"><title>Node296&#45;&gt;Node301</title>
<path fill="none" stroke="midnightblue" d="M503.512,-221.624C525.888,-230.272 559.953,-243.097 590,-253 597.268,-255.395 604.921,-257.794 612.541,-260.106"/>
<polygon fill="midnightblue" stroke="midnightblue" points="611.561,-263.466 622.144,-262.981 613.568,-256.76 611.561,-263.466"/>
</g>
<!-- Node299 -->
<g id="node12" class="node"><title>Node299</title>
<g id="a_node12"><a xlink:href="classokw_1_1_log_messenger.html#a530cd6ab82ec82a04206a2e976ec06e3" target="_top" xlink:title="Interne Kernfunktion holt die Log&#45;Meldung mit Platzhaltern aus der XML&#45;Datei. ">
<polygon fill="white" stroke="black" points="800.5,-224.5 800.5,-243.5 967.5,-243.5 967.5,-224.5 800.5,-224.5"/>
<text text-anchor="middle" x="884" y="-231.5" font-family="Helvetica,sans-Serif" font-size="10.00">okw.LogMessenger.ReadMessage</text>
</a>
</g>
</g>
<!-- Node298&#45;&gt;Node299 -->
<g id="edge12" class="edge"><title>Node298&#45;&gt;Node299</title>
<path fill="none" stroke="midnightblue" d="M757.258,-234C768.041,-234 779.186,-234 790.181,-234"/>
<polygon fill="midnightblue" stroke="midnightblue" points="790.222,-237.5 800.222,-234 790.222,-230.5 790.222,-237.5"/>
</g>
<!-- Node300 -->
<g id="node13" class="node"><title>Node300</title>
<g id="a_node13"><a xlink:href="classokw_1_1_o_k_w___xml_reader.html#ab920b5335a2e1429c14cc5f8e79f39eb" target="_top" xlink:title="Lies den TextContent eines Tag. ">
<polygon fill="white" stroke="black" points="1004,-219 1004,-249 1156,-249 1156,-219 1004,-219"/>
<text text-anchor="start" x="1012" y="-237" font-family="Helvetica,sans-Serif" font-size="10.00">okw.OKW_XmlReader.getText</text>
<text text-anchor="middle" x="1080" y="-226" font-family="Helvetica,sans-Serif" font-size="10.00">ContentSingleValue</text>
</a>
</g>
</g>
<!-- Node299&#45;&gt;Node300 -->
<g id="edge13" class="edge"><title>Node299&#45;&gt;Node300</title>
<path fill="none" stroke="midnightblue" d="M967.555,-234C976.227,-234 985.057,-234 993.759,-234"/>
<polygon fill="midnightblue" stroke="midnightblue" points="993.899,-237.5 1003.9,-234 993.899,-230.5 993.899,-237.5"/>
</g>
<!-- Node302&#45;&gt;Node290 -->
<g id="edge16" class="edge"><title>Node302&#45;&gt;Node290</title>
<path fill="none" stroke="midnightblue" d="M366.148,-119.572C376.65,-118.476 387.522,-117.341 398.169,-116.23"/>
<polygon fill="midnightblue" stroke="midnightblue" points="398.705,-119.693 408.287,-115.173 397.978,-112.731 398.705,-119.693"/>
</g>
<!-- Node303 -->
<g id="node16" class="node"><title>Node303</title>
<g id="a_node16"><a xlink:href="classokw_1_1core_1_1_core.html#ac8440162926bfc169ee483bd7f860117" target="_top" xlink:title="Merkt sich den Standartwert eines Objekts. ">
<polygon fill="white" stroke="black" points="402.5,-147.5 402.5,-166.5 553.5,-166.5 553.5,-147.5 402.5,-147.5"/>
<text text-anchor="middle" x="478" y="-154.5" font-family="Helvetica,sans-Serif" font-size="10.00">okw.core.Core.MemorizeValue</text>
</a>
</g>
</g>
<!-- Node302&#45;&gt;Node303 -->
<g id="edge17" class="edge"><title>Node302&#45;&gt;Node303</title>
<path fill="none" stroke="midnightblue" d="M352.836,-136.533C370.835,-139.5 390.839,-142.798 409.441,-145.864"/>
<polygon fill="midnightblue" stroke="midnightblue" points="408.878,-149.318 419.314,-147.491 410.017,-142.412 408.878,-149.318"/>
</g>
<!-- Node303&#45;&gt;Node297 -->
<g id="edge18" class="edge"><title>Node303&#45;&gt;Node297</title>
<path fill="none" stroke="midnightblue" d="M535.716,-166.501C555.734,-169.854 578.578,-173.681 599.936,-177.258"/>
<polygon fill="midnightblue" stroke="midnightblue" points="599.514,-180.736 609.955,-178.937 600.67,-173.832 599.514,-180.736"/>
</g>
<!-- Node303&#45;&gt;Node298 -->
<g id="edge19" class="edge"><title>Node303&#45;&gt;Node298</title>
<path fill="none" stroke="midnightblue" d="M500.24,-166.639C515.382,-173.645 536.138,-183.523 554,-193 570.363,-201.682 572.786,-207.159 590,-214 597.494,-216.978 605.54,-219.577 613.595,-221.827"/>
<polygon fill="midnightblue" stroke="midnightblue" points="612.826,-225.244 623.387,-224.4 614.605,-218.473 612.826,-225.244"/>
</g>
<!-- Node304 -->
<g id="node17" class="node"><title>Node304</title>
<g id="a_node17"><a xlink:href="interfaceokw_1_1core_1_1_i_o_k_w___state.html#aa48a3de07623a93fc0b4d68629dd0887" target="_top" xlink:title="Merkt sich den Standartwert eines Objekts. ">
<polygon fill="white" stroke="black" points="596.5,-126 596.5,-156 757.5,-156 757.5,-126 596.5,-126"/>
<text text-anchor="start" x="604.5" y="-144" font-family="Helvetica,sans-Serif" font-size="10.00">okw.core.IOKW_State.Memorize</text>
<text text-anchor="middle" x="677" y="-133" font-family="Helvetica,sans-Serif" font-size="10.00">Value</text>
</a>
</g>
</g>
<!-- Node303&#45;&gt;Node304 -->
<g id="edge20" class="edge"><title>Node303&#45;&gt;Node304</title>
<path fill="none" stroke="midnightblue" d="M553.758,-150.928C564.316,-150.071 575.262,-149.182 586.068,-148.304"/>
<polygon fill="midnightblue" stroke="midnightblue" points="586.686,-151.766 596.369,-147.467 586.119,-144.789 586.686,-151.766"/>
</g>
</g>
</svg>
        <g id="navigator" transform="translate(0 0)" fill="#404254">
                <rect fill="#f2f5e9" fill-opacity="0.5" stroke="#606060" stroke-width=".5" x="0" y="0" width="60" height="60"/>
                <use id="zoomplus" xlink:href="#zoomPlus" x="17" y="9" onmousedown="handleZoom(evt,'in')"/>
                <use id="zoomminus" xlink:href="#zoomMin" x="42" y="9" onmousedown="handleZoom(evt,'out')"/>
                <use id="reset" xlink:href="#resetDef" x="30" y="36" onmousedown="handleReset()"/>
                <g id="arrowUp" xlink:href="#dirArrow" transform="translate(30 24)" onmousedown="handlePan(0,-1)">
                  <use xlink:href="#rim" fill="#404040">
                        <set attributeName="fill" to="#808080" begin="arrowUp.mouseover" end="arrowUp.mouseout"/>
                  </use>
                  <path fill="none" stroke="white" stroke-width="1.5" d="M0,-3.0v7 M-2.5,-0.5L0,-3.0L2.5,-0.5"/>
                </g>
                <g id="arrowRight" xlink:href="#dirArrow" transform="rotate(90) translate(36 -43)" onmousedown="handlePan(1,0)">
                  <use xlink:href="#rim" fill="#404040">
                        <set attributeName="fill" to="#808080" begin="arrowRight.mouseover" end="arrowRight.mouseout"/>
                  </use>
                  <path fill="none" stroke="white" stroke-width="1.5" d="M0,-3.0v7 M-2.5,-0.5L0,-3.0L2.5,-0.5"/>
                </g>
                <g id="arrowDown" xlink:href="#dirArrow" transform="rotate(180) translate(-30 -48)" onmousedown="handlePan(0,1)">
                  <use xlink:href="#rim" fill="#404040">
                        <set attributeName="fill" to="#808080" begin="arrowDown.mouseover" end="arrowDown.mouseout"/>
                  </use>
                  <path fill="none" stroke="white" stroke-width="1.5" d="M0,-3.0v7 M-2.5,-0.5L0,-3.0L2.5,-0.5"/>
                </g>
                <g id="arrowLeft" xlink:href="#dirArrow" transform="rotate(270) translate(-36 17)" onmousedown="handlePan(-1,0)">
                  <use xlink:href="#rim" fill="#404040">
                        <set attributeName="fill" to="#808080" begin="arrowLeft.mouseover" end="arrowLeft.mouseout"/>
                  </use>
                  <path fill="none" stroke="white" stroke-width="1.5" d="M0,-3.0v7 M-2.5,-0.5L0,-3.0L2.5,-0.5"/>
                </g>
        </g>
        <svg viewBox="0 0 15 15" width="100%" height="30px" preserveAspectRatio="xMaxYMin meet">
         <g id="arrow_out" transform="scale(0.3 0.3)">
          <a xlink:href="classokw_1_1core_1_1_e_n___o_k_w_not_allowed_value_exception___keywords___i_g_n_o_r_e_a0043a5deb5356d4eb60fd46789aa30bd_cgraph_org.svg" target="_base">
           <rect id="button" ry="5" rx="5" y="6" x="6" height="38" width="38"
                fill="#f2f5e9" fill-opacity="0.5" stroke="#606060" stroke-width="1.0"/>
           <path id="arrow"
             d="M 11.500037,31.436501 C 11.940474,20.09759 22.043105,11.32322 32.158766,21.979434 L 37.068811,17.246167 C 37.068811,17.246167 37.088388,32 37.088388,32 L 22.160133,31.978069 C 22.160133,31.978069 26.997745,27.140456 26.997745,27.140456 C 18.528582,18.264221 13.291696,25.230495 11.500037,31.436501 z"
             style="fill:#404040;"/>
          </a>
         </g>
        </svg>
</svg>
