<?xml version="1.0" encoding="UTF-8" standalone="no"?>
<!DOCTYPE svg PUBLIC "-//W3C//DTD SVG 1.1//EN"
 "http://www.w3.org/Graphics/SVG/1.1/DTD/svg11.dtd">
<!-- Generated by graphviz version 2.36.0 (20140111.2315)
 -->
<!-- Title: okw.core.EN.VerifyCaptionWCM Pages: 1 -->
<svg width="430pt" height="1435pt"
 viewBox="0.00 0.00 430.00 1435.00" xmlns="http://www.w3.org/2000/svg" xmlns:xlink="http://www.w3.org/1999/xlink">
<g id="graph0" class="graph" transform="scale(1 1) rotate(0) translate(4 1431)">
<title>okw.core.EN.VerifyCaptionWCM</title>
<polygon fill="white" stroke="none" points="-4,4 -4,-1431 426,-1431 426,4 -4,4"/>
<!-- Node2797 -->
<g id="node1" class="node"><title>Node2797</title>
<polygon fill="#bfbfbf" stroke="black" points="0.5,-708.5 0.5,-727.5 161.5,-727.5 161.5,-708.5 0.5,-708.5"/>
<text text-anchor="middle" x="81" y="-715.5" font-family="Helvetica,sans-Serif" font-size="10.00">okw.core.EN.VerifyCaptionWCM</text>
</g>
<!-- Node2798 -->
<g id="node2" class="node"><title>Node2798</title>
<g id="a_node2"><a xlink:href="classokw_1_1core_1_1_e_n___keywords___a_n_t_l_r___test.html#a3f7653664be8e4b3d0394146907c0f53" target="_top" xlink:title="okw.core.EN_Keywords\l_ANTLR_Test.tc_VerifyCaption\lWCM_MemorizedValue">
<polygon fill="white" stroke="black" points="232.5,-1385.5 232.5,-1426.5 387.5,-1426.5 387.5,-1385.5 232.5,-1385.5"/>
<text text-anchor="start" x="240.5" y="-1414.5" font-family="Helvetica,sans-Serif" font-size="10.00">okw.core.EN_Keywords</text>
<text text-anchor="start" x="240.5" y="-1403.5" font-family="Helvetica,sans-Serif" font-size="10.00">_ANTLR_Test.tc_VerifyCaption</text>
<text text-anchor="middle" x="310" y="-1392.5" font-family="Helvetica,sans-Serif" font-size="10.00">WCM_MemorizedValue</text>
</a>
</g>
</g>
<!-- Node2797&#45;&gt;Node2798 -->
<g id="edge1" class="edge"><title>Node2797&#45;&gt;Node2798</title>
<path fill="none" stroke="midnightblue" d="M82.728,-737.619C86.7816,-836.312 109.681,-1277.61 198,-1375 207.207,-1385.15 219.434,-1392.09 232.406,-1396.81"/>
<polygon fill="midnightblue" stroke="midnightblue" points="86.2223,-737.404 82.3322,-727.55 79.2277,-737.679 86.2223,-737.404"/>
</g>
<!-- Node2799 -->
<g id="node3" class="node"><title>Node2799</title>
<g id="a_node3"><a xlink:href="classokw_1_1core_1_1_e_n___keywords___d_e_l_e_t_e___test.html#a0e62a17933f21dc8c45b22def98ac192" target="_top" xlink:title="okw.core.EN_Keywords\l_DELETE_Test.tcSelectMenu\l_Value_MV_DELETE_EmptyString">
<polygon fill="white" stroke="black" points="225,-1325.5 225,-1366.5 395,-1366.5 395,-1325.5 225,-1325.5"/>
<text text-anchor="start" x="233" y="-1354.5" font-family="Helvetica,sans-Serif" font-size="10.00">okw.core.EN_Keywords</text>
<text text-anchor="start" x="233" y="-1343.5" font-family="Helvetica,sans-Serif" font-size="10.00">_DELETE_Test.tcSelectMenu</text>
<text text-anchor="middle" x="310" y="-1332.5" font-family="Helvetica,sans-Serif" font-size="10.00">_Value_MV_DELETE_EmptyString</text>
</a>
</g>
</g>
<!-- Node2797&#45;&gt;Node2799 -->
<g id="edge2" class="edge"><title>Node2797&#45;&gt;Node2799</title>
<path fill="none" stroke="midnightblue" d="M83.1029,-737.565C88.7356,-830.612 117.241,-1227.47 198,-1315 205.462,-1323.09 214.842,-1329.13 224.97,-1333.64"/>
<polygon fill="midnightblue" stroke="midnightblue" points="86.5953,-737.33 82.5154,-727.552 79.6073,-737.74 86.5953,-737.33"/>
</g>
<!-- Node2800 -->
<g id="node4" class="node"><title>Node2800</title>
<g id="a_node4"><a xlink:href="classokw_1_1core_1_1_e_n___keywords___empty___test.html#ac82eb938b9d084ce33a1a01938d107ab" target="_top" xlink:title="Prüft &quot;${EMPTY}&quot; für das Schlüsslewort VerifyCaptionWCM(strng,string) ">
<polygon fill="white" stroke="black" points="234.5,-1265.5 234.5,-1306.5 385.5,-1306.5 385.5,-1265.5 234.5,-1265.5"/>
<text text-anchor="start" x="242.5" y="-1294.5" font-family="Helvetica,sans-Serif" font-size="10.00">okw.core.EN_Keywords</text>
<text text-anchor="start" x="242.5" y="-1283.5" font-family="Helvetica,sans-Serif" font-size="10.00">_Empty_Test.tc_VerifyCaption</text>
<text text-anchor="middle" x="310" y="-1272.5" font-family="Helvetica,sans-Serif" font-size="10.00">WCM_Empty</text>
</a>
</g>
</g>
<!-- Node2797&#45;&gt;Node2800 -->
<g id="edge3" class="edge"><title>Node2797&#45;&gt;Node2800</title>
<path fill="none" stroke="midnightblue" d="M83.6034,-738.055C91.0358,-826.099 124.922,-1177.43 198,-1255 207.81,-1265.41 220.799,-1272.43 234.426,-1277.13"/>
<polygon fill="midnightblue" stroke="midnightblue" points="87.0709,-737.516 82.7611,-727.837 80.0946,-738.091 87.0709,-737.516"/>
</g>
<!-- Node2801 -->
<g id="node5" class="node"><title>Node2801</title>
<g id="a_node5"><a xlink:href="classokw_1_1core_1_1_e_n___keywords___i_g_n_o_r_e___test.html#a5729b3a6fdb534b61fbc5fc09b8b9252" target="_top" xlink:title="okw.core.EN_Keywords\l_IGNORE_Test.tcVerifyCaption\lWCM_IGNORE">
<polygon fill="white" stroke="black" points="231.5,-1205.5 231.5,-1246.5 388.5,-1246.5 388.5,-1205.5 231.5,-1205.5"/>
<text text-anchor="start" x="239.5" y="-1234.5" font-family="Helvetica,sans-Serif" font-size="10.00">okw.core.EN_Keywords</text>
<text text-anchor="start" x="239.5" y="-1223.5" font-family="Helvetica,sans-Serif" font-size="10.00">_IGNORE_Test.tcVerifyCaption</text>
<text text-anchor="middle" x="310" y="-1212.5" font-family="Helvetica,sans-Serif" font-size="10.00">WCM_IGNORE</text>
</a>
</g>
</g>
<!-- Node2797&#45;&gt;Node2801 -->
<g id="edge4" class="edge"><title>Node2797&#45;&gt;Node2801</title>
<path fill="none" stroke="midnightblue" d="M84.1652,-737.845C93.4405,-819.331 132.364,-1127.11 198,-1195 207.179,-1204.49 219.002,-1211.15 231.497,-1215.81"/>
<polygon fill="midnightblue" stroke="midnightblue" points="87.6004,-737.07 83.0121,-727.52 80.6437,-737.847 87.6004,-737.07"/>
</g>
<!-- Node2802 -->
<g id="node6" class="node"><title>Node2802</title>
<g id="a_node6"><a xlink:href="classokw_1_1core_1_1_e_n___keywords___i_g_n_o_r_e___test.html#a89ca3300ccd9517e8993c2109b6bfd58" target="_top" xlink:title="okw.core.EN_Keywords\l_IGNORE_Test.tcVerifyCaption\lWCM_IGNORE_EmptyString">
<polygon fill="white" stroke="black" points="231.5,-1145.5 231.5,-1186.5 388.5,-1186.5 388.5,-1145.5 231.5,-1145.5"/>
<text text-anchor="start" x="239.5" y="-1174.5" font-family="Helvetica,sans-Serif" font-size="10.00">okw.core.EN_Keywords</text>
<text text-anchor="start" x="239.5" y="-1163.5" font-family="Helvetica,sans-Serif" font-size="10.00">_IGNORE_Test.tcVerifyCaption</text>
<text text-anchor="middle" x="310" y="-1152.5" font-family="Helvetica,sans-Serif" font-size="10.00">WCM_IGNORE_EmptyString</text>
</a>
</g>
</g>
<!-- Node2797&#45;&gt;Node2802 -->
<g id="edge5" class="edge"><title>Node2797&#45;&gt;Node2802</title>
<path fill="none" stroke="midnightblue" d="M84.8646,-737.777C96.0985,-812.705 139.426,-1077.82 198,-1136 207.277,-1145.21 219.073,-1151.68 231.492,-1156.19"/>
<polygon fill="midnightblue" stroke="midnightblue" points="88.314,-737.177 83.3905,-727.795 81.3891,-738.199 88.314,-737.177"/>
</g>
<!-- Node2803 -->
<g id="node7" class="node"><title>Node2803</title>
<g id="a_node7"><a xlink:href="classokw_1_1core_1_1_e_n___keywords___test.html#aca6116a857a85d06d4da58ab2c04815b" target="_top" xlink:title="&quot;Normaler&quot; Testfall für das Schlüsselwort VerifyCaptionWCM(String, String). ">
<polygon fill="white" stroke="black" points="238.5,-1097 238.5,-1127 381.5,-1127 381.5,-1097 238.5,-1097"/>
<text text-anchor="start" x="246.5" y="-1115" font-family="Helvetica,sans-Serif" font-size="10.00">okw.core.EN_Keywords</text>
<text text-anchor="middle" x="310" y="-1104" font-family="Helvetica,sans-Serif" font-size="10.00">_Test.tc_VerifyCaptionWCM</text>
</a>
</g>
</g>
<!-- Node2797&#45;&gt;Node2803 -->
<g id="edge6" class="edge"><title>Node2797&#45;&gt;Node2803</title>
<path fill="none" stroke="midnightblue" d="M81.8155,-738.133C82.405,-800.238 93.0839,-990.455 198,-1087 209.12,-1097.23 223.506,-1103.58 238.213,-1107.46"/>
<polygon fill="midnightblue" stroke="midnightblue" points="85.3152,-737.777 81.8047,-727.781 78.3152,-737.784 85.3152,-737.777"/>
</g>
<!-- Node2804 -->
<g id="node8" class="node"><title>Node2804</title>
<g id="a_node8"><a xlink:href="classokw_1_1core_1_1_e_n___o_k_w_frame_object_child_not_found_exception___test.html#a2f33777396a3c4be3fe6bc1c5d7e3cfa" target="_top" xlink:title="Prüft ob die Ausnahme OKWFrameObjectChildNotFoundException durch die LFC&#45;VerifyCaption ausgelöst wird...">
<polygon fill="white" stroke="black" points="204.5,-1026 204.5,-1078 415.5,-1078 415.5,-1026 204.5,-1026"/>
<text text-anchor="start" x="212.5" y="-1066" font-family="Helvetica,sans-Serif" font-size="10.00">okw.core.EN_OKWFrameObject</text>
<text text-anchor="start" x="212.5" y="-1055" font-family="Helvetica,sans-Serif" font-size="10.00">ChildNotFoundException</text>
<text text-anchor="start" x="212.5" y="-1044" font-family="Helvetica,sans-Serif" font-size="10.00">_Test.TC_VerifyCaptionWCM</text>
<text text-anchor="middle" x="310" y="-1033" font-family="Helvetica,sans-Serif" font-size="10.00">_OKWFrameObjectChildNotFoundException</text>
</a>
</g>
</g>
<!-- Node2797&#45;&gt;Node2804 -->
<g id="edge7" class="edge"><title>Node2797&#45;&gt;Node2804</title>
<path fill="none" stroke="midnightblue" d="M83.9116,-737.68C90.0978,-790.551 114.315,-937.001 198,-1016 201.904,-1019.69 206.189,-1022.99 210.735,-1025.96"/>
<polygon fill="midnightblue" stroke="midnightblue" points="87.3784,-737.184 82.8248,-727.617 80.4189,-737.935 87.3784,-737.184"/>
</g>
<!-- Node2805 -->
<g id="node9" class="node"><title>Node2805</title>
<g id="a_node9"><a xlink:href="classokw_1_1core_1_1_e_n___o_k_w_frame_object_method_not_implemented___test.html#a9be70f215bf6c8aa4697061e34c255ae" target="_top" xlink:title="Prüft ob die Ausnahme OKWFrameObjectMethodNotImplemented von VerifyCaptionWCM( FN, ExpVal ) ausgelöst wird. ">
<polygon fill="white" stroke="black" points="198,-955 198,-1007 422,-1007 422,-955 198,-955"/>
<text text-anchor="start" x="206" y="-995" font-family="Helvetica,sans-Serif" font-size="10.00">okw.core.EN_OKWFrameObject</text>
<text text-anchor="start" x="206" y="-984" font-family="Helvetica,sans-Serif" font-size="10.00">MethodNotImplemented_Test.TC</text>
<text text-anchor="start" x="206" y="-973" font-family="Helvetica,sans-Serif" font-size="10.00">_VerifyCaptionWCM_OKWFrameObjectMethod</text>
<text text-anchor="middle" x="310" y="-962" font-family="Helvetica,sans-Serif" font-size="10.00">NotImplemented</text>
</a>
</g>
</g>
<!-- Node2797&#45;&gt;Node2805 -->
<g id="edge8" class="edge"><title>Node2797&#45;&gt;Node2805</title>
<path fill="none" stroke="midnightblue" d="M86.6785,-737.713C98.0383,-781.329 131.187,-886.669 198,-944 202.779,-948.101 208.028,-951.751 213.564,-954.999"/>
<polygon fill="midnightblue" stroke="midnightblue" points="90.0207,-736.65 84.1994,-727.798 83.2298,-738.348 90.0207,-736.65"/>
</g>
<!-- Node2806 -->
<g id="node10" class="node"><title>Node2806</title>
<g id="a_node10"><a xlink:href="classokw_1_1core_1_1_e_n___o_k_w_not_allowed_value_exception___keywords___i_g_n_o_r_e.html#a10ebae61f1265eb4a0a7b5a597daf90c" target="_top" xlink:title="Prüft ob &quot;${IGNORE} &quot; die Ausnahme okw.exceptions.OKWNotAllowedValueException auslöst. ">
<polygon fill="white" stroke="black" points="208.5,-894.5 208.5,-935.5 411.5,-935.5 411.5,-894.5 208.5,-894.5"/>
<text text-anchor="start" x="216.5" y="-923.5" font-family="Helvetica,sans-Serif" font-size="10.00">okw.core.EN_OKWNotAllowed</text>
<text text-anchor="start" x="216.5" y="-912.5" font-family="Helvetica,sans-Serif" font-size="10.00">ValueException_Keywords</text>
<text text-anchor="middle" x="310" y="-901.5" font-family="Helvetica,sans-Serif" font-size="10.00">_IGNORE.tcVerifyCaptionWCMIGNORE1</text>
</a>
</g>
</g>
<!-- Node2797&#45;&gt;Node2806 -->
<g id="edge9" class="edge"><title>Node2797&#45;&gt;Node2806</title>
<path fill="none" stroke="midnightblue" d="M89.988,-737.041C105.521,-771.707 143.151,-845.123 198,-884 203.55,-887.934 209.584,-891.37 215.875,-894.37"/>
<polygon fill="midnightblue" stroke="midnightblue" points="93.0824,-735.38 85.8824,-727.608 86.6639,-738.174 93.0824,-735.38"/>
</g>
<!-- Node2807 -->
<g id="node11" class="node"><title>Node2807</title>
<g id="a_node11"><a xlink:href="classokw_1_1core_1_1_e_n___o_k_w_not_allowed_value_exception___keywords___i_g_n_o_r_e.html#aaeeb4627ca538eddece9dca8eb06770d" target="_top" xlink:title="Prüft ob &quot;&quot;${IGNORE}${TCN}&quot; die Ausnahme okw.exceptions.OKWNotAllowedValueException auslöst...">
<polygon fill="white" stroke="black" points="208.5,-834.5 208.5,-875.5 411.5,-875.5 411.5,-834.5 208.5,-834.5"/>
<text text-anchor="start" x="216.5" y="-863.5" font-family="Helvetica,sans-Serif" font-size="10.00">okw.core.EN_OKWNotAllowed</text>
<text text-anchor="start" x="216.5" y="-852.5" font-family="Helvetica,sans-Serif" font-size="10.00">ValueException_Keywords</text>
<text text-anchor="middle" x="310" y="-841.5" font-family="Helvetica,sans-Serif" font-size="10.00">_IGNORE.tcVerifyCaptionWCMIGNORE2</text>
</a>
</g>
</g>
<!-- Node2797&#45;&gt;Node2807 -->
<g id="edge10" class="edge"><title>Node2797&#45;&gt;Node2807</title>
<path fill="none" stroke="midnightblue" d="M96.1779,-735.269C116.381,-758.763 155.717,-800.55 198,-824 205.086,-827.93 212.709,-831.393 220.52,-834.437"/>
<polygon fill="midnightblue" stroke="midnightblue" points="98.7542,-732.895 89.6305,-727.509 93.4041,-737.409 98.7542,-732.895"/>
</g>
<!-- Node2808 -->
<g id="node12" class="node"><title>Node2808</title>
<g id="a_node12"><a xlink:href="classokw_1_1core_1_1_e_n___verify_caption___o_k_w_verifying_fails_exception___test.html#af9bdc7bb46d04994c295b199a62a7b0a" target="_top" xlink:title="Prüft, ob die Ausnahme OKWVerifyingFailsException bei einem Soll/Ist&#45;Vergleich ausgelöst wird...">
<polygon fill="white" stroke="black" points="223.5,-763 223.5,-815 396.5,-815 396.5,-763 223.5,-763"/>
<text text-anchor="start" x="231.5" y="-803" font-family="Helvetica,sans-Serif" font-size="10.00">okw.core.EN_VerifyCaption</text>
<text text-anchor="start" x="231.5" y="-792" font-family="Helvetica,sans-Serif" font-size="10.00">_OKWVerifyingFailsException</text>
<text text-anchor="start" x="231.5" y="-781" font-family="Helvetica,sans-Serif" font-size="10.00">_Test.TC_VerifyCaptionWCM</text>
<text text-anchor="middle" x="310" y="-770" font-family="Helvetica,sans-Serif" font-size="10.00">_OKWVerifyingFailsException_M01</text>
</a>
</g>
</g>
<!-- Node2797&#45;&gt;Node2808 -->
<g id="edge11" class="edge"><title>Node2797&#45;&gt;Node2808</title>
<path fill="none" stroke="midnightblue" d="M122.268,-730.595C150.911,-739.554 190.412,-751.909 225.71,-762.949"/>
<polygon fill="midnightblue" stroke="midnightblue" points="123.203,-727.22 112.614,-727.575 121.113,-733.901 123.203,-727.22"/>
</g>
<!-- Node2809 -->
<g id="node13" class="node"><title>Node2809</title>
<g id="a_node13"><a xlink:href="classokw_1_1core_1_1_e_n___verify_caption___o_k_w_verifying_fails_exception___test.html#a8f9d39deab0135aa718b2277a0058afa" target="_top" xlink:title="Prüft, ob die Ausnahme OKWVerifyingFailsException bei einem Soll/Ist&#45;Vergleich ausgelöst wird...">
<polygon fill="white" stroke="black" points="221,-692 221,-744 399,-744 399,-692 221,-692"/>
<text text-anchor="start" x="229" y="-732" font-family="Helvetica,sans-Serif" font-size="10.00">okw.core.EN_VerifyCaption</text>
<text text-anchor="start" x="229" y="-721" font-family="Helvetica,sans-Serif" font-size="10.00">_OKWVerifyingFailsException</text>
<text text-anchor="start" x="229" y="-710" font-family="Helvetica,sans-Serif" font-size="10.00">_Test.TC_VerifyCaptionWCM</text>
<text text-anchor="middle" x="310" y="-699" font-family="Helvetica,sans-Serif" font-size="10.00">_OKWVerifyingFailsException_SV01</text>
</a>
</g>
</g>
<!-- Node2797&#45;&gt;Node2809 -->
<g id="edge12" class="edge"><title>Node2797&#45;&gt;Node2809</title>
<path fill="none" stroke="midnightblue" d="M172.165,-718C188.235,-718 204.958,-718 220.968,-718"/>
<polygon fill="midnightblue" stroke="midnightblue" points="171.713,-714.5 161.713,-718 171.712,-721.5 171.713,-714.5"/>
</g>
<!-- Node2810 -->
<g id="node14" class="node"><title>Node2810</title>
<g id="a_node14"><a xlink:href="classokw_1_1core_1_1_e_n___verify_caption___o_k_w_verifying_fails_exception___test.html#a619b2f9cc1ea67b4d8930429f5e89afb" target="_top" xlink:title="Prüft, ob die Ausnahme OKWVerifyingFailsException bei einem Soll/Ist&#45;Vergleich ausgelöst wird...">
<polygon fill="white" stroke="black" points="221,-621 221,-673 399,-673 399,-621 221,-621"/>
<text text-anchor="start" x="229" y="-661" font-family="Helvetica,sans-Serif" font-size="10.00">okw.core.EN_VerifyCaption</text>
<text text-anchor="start" x="229" y="-650" font-family="Helvetica,sans-Serif" font-size="10.00">_OKWVerifyingFailsException</text>
<text text-anchor="start" x="229" y="-639" font-family="Helvetica,sans-Serif" font-size="10.00">_Test.TC_VerifyCaptionWCM</text>
<text text-anchor="middle" x="310" y="-628" font-family="Helvetica,sans-Serif" font-size="10.00">_OKWVerifyingFailsException_SV02</text>
</a>
</g>
</g>
<!-- Node2797&#45;&gt;Node2810 -->
<g id="edge13" class="edge"><title>Node2797&#45;&gt;Node2810</title>
<path fill="none" stroke="midnightblue" d="M122.268,-705.405C150.911,-696.446 190.412,-684.091 225.71,-673.051"/>
<polygon fill="midnightblue" stroke="midnightblue" points="121.113,-702.099 112.614,-708.425 123.203,-708.78 121.113,-702.099"/>
</g>
<!-- Node2811 -->
<g id="node15" class="node"><title>Node2811</title>
<g id="a_node15"><a xlink:href="classokw_1_1core_1_1_e_n___verify_caption___o_k_w_verifying_fails_exception___test.html#abb36da55605535168493aef594107ad8" target="_top" xlink:title="Prüft, ob die Ausnahme OKWVerifyingFailsException bei einem Soll/Ist&#45;Vergleich ausgelöst wird...">
<polygon fill="white" stroke="black" points="221,-550 221,-602 399,-602 399,-550 221,-550"/>
<text text-anchor="start" x="229" y="-590" font-family="Helvetica,sans-Serif" font-size="10.00">okw.core.EN_VerifyCaption</text>
<text text-anchor="start" x="229" y="-579" font-family="Helvetica,sans-Serif" font-size="10.00">_OKWVerifyingFailsException</text>
<text text-anchor="start" x="229" y="-568" font-family="Helvetica,sans-Serif" font-size="10.00">_Test.TC_VerifyCaptionWCM</text>
<text text-anchor="middle" x="310" y="-557" font-family="Helvetica,sans-Serif" font-size="10.00">_OKWVerifyingFailsException_SV03</text>
</a>
</g>
</g>
<!-- Node2797&#45;&gt;Node2811 -->
<g id="edge14" class="edge"><title>Node2797&#45;&gt;Node2811</title>
<path fill="none" stroke="midnightblue" d="M96.6264,-700.626C117.081,-677.355 156.42,-636.196 198,-612 205.179,-607.822 212.906,-604.06 220.821,-600.686"/>
<polygon fill="midnightblue" stroke="midnightblue" points="93.8637,-698.47 89.9756,-708.326 99.1611,-703.046 93.8637,-698.47"/>
</g>
<!-- Node2812 -->
<g id="node16" class="node"><title>Node2812</title>
<g id="a_node16"><a xlink:href="classokw_1_1core_1_1_e_n___verify_caption___o_k_w_verifying_fails_exception___test.html#a4521c47eda3c864df9fa1323ac7a4971" target="_top" xlink:title="Prüft, ob die Ausnahme OKWVerifyingFailsException bei einem Soll/Ist&#45;Vergleich ausgelöst wird...">
<polygon fill="white" stroke="black" points="220.5,-479 220.5,-531 399.5,-531 399.5,-479 220.5,-479"/>
<text text-anchor="start" x="228.5" y="-519" font-family="Helvetica,sans-Serif" font-size="10.00">okw.core.EN_VerifyCaption</text>
<text text-anchor="start" x="228.5" y="-508" font-family="Helvetica,sans-Serif" font-size="10.00">_OKWVerifyingFailsException</text>
<text text-anchor="start" x="228.5" y="-497" font-family="Helvetica,sans-Serif" font-size="10.00">_Test.TC_VerifyCaptionWCM</text>
<text text-anchor="middle" x="310" y="-486" font-family="Helvetica,sans-Serif" font-size="10.00">_OKWVerifyingFailsException_MV01</text>
</a>
</g>
</g>
<!-- Node2797&#45;&gt;Node2812 -->
<g id="edge15" class="edge"><title>Node2797&#45;&gt;Node2812</title>
<path fill="none" stroke="midnightblue" d="M89.3894,-698.91C104.348,-662.745 141.656,-584.023 198,-541 204.843,-535.775 212.474,-531.292 220.441,-527.45"/>
<polygon fill="midnightblue" stroke="midnightblue" points="86.097,-697.716 85.6161,-708.3 92.5922,-700.326 86.097,-697.716"/>
</g>
<!-- Node2813 -->
<g id="node17" class="node"><title>Node2813</title>
<g id="a_node17"><a xlink:href="classokw_1_1core_1_1_e_n___verify_caption___o_k_w_verifying_fails_exception___test.html#aeca3db77c4205dc26337a21b1096b305" target="_top" xlink:title="Prüft, ob die Ausnahme OKWVerifyingFailsException bei einem Soll/Ist&#45;Vergleich ausgelöst wird...">
<polygon fill="white" stroke="black" points="220.5,-408 220.5,-460 399.5,-460 399.5,-408 220.5,-408"/>
<text text-anchor="start" x="228.5" y="-448" font-family="Helvetica,sans-Serif" font-size="10.00">okw.core.EN_VerifyCaption</text>
<text text-anchor="start" x="228.5" y="-437" font-family="Helvetica,sans-Serif" font-size="10.00">_OKWVerifyingFailsException</text>
<text text-anchor="start" x="228.5" y="-426" font-family="Helvetica,sans-Serif" font-size="10.00">_Test.TC_VerifyCaptionWCM</text>
<text text-anchor="middle" x="310" y="-415" font-family="Helvetica,sans-Serif" font-size="10.00">_OKWVerifyingFailsException_MV02</text>
</a>
</g>
</g>
<!-- Node2797&#45;&gt;Node2813 -->
<g id="edge16" class="edge"><title>Node2797&#45;&gt;Node2813</title>
<path fill="none" stroke="midnightblue" d="M85.6546,-698.256C95.3189,-651.595 125.92,-533.661 198,-470 204.681,-464.099 212.345,-459.163 220.456,-455.035"/>
<polygon fill="midnightblue" stroke="midnightblue" points="82.18,-697.786 83.6795,-708.274 89.0478,-699.14 82.18,-697.786"/>
</g>
<!-- Node2814 -->
<g id="node18" class="node"><title>Node2814</title>
<g id="a_node18"><a xlink:href="classokw_1_1core_1_1_e_n___verify_caption___o_k_w_verifying_fails_exception___test.html#ae2dde8fce03c2e3e4c4ec42f48d6e2a5" target="_top" xlink:title="Prüft, ob die Ausnahme OKWVerifyingFailsException bei einem Soll/Ist&#45;Vergleich ausgelöst wird...">
<polygon fill="white" stroke="black" points="220.5,-337 220.5,-389 399.5,-389 399.5,-337 220.5,-337"/>
<text text-anchor="start" x="228.5" y="-377" font-family="Helvetica,sans-Serif" font-size="10.00">okw.core.EN_VerifyCaption</text>
<text text-anchor="start" x="228.5" y="-366" font-family="Helvetica,sans-Serif" font-size="10.00">_OKWVerifyingFailsException</text>
<text text-anchor="start" x="228.5" y="-355" font-family="Helvetica,sans-Serif" font-size="10.00">_Test.TC_VerifyCaptionWCM</text>
<text text-anchor="middle" x="310" y="-344" font-family="Helvetica,sans-Serif" font-size="10.00">_OKWVerifyingFailsException_MV03</text>
</a>
</g>
</g>
<!-- Node2797&#45;&gt;Node2814 -->
<g id="edge17" class="edge"><title>Node2797&#45;&gt;Node2814</title>
<path fill="none" stroke="midnightblue" d="M83.3581,-698.069C88.2181,-642.513 109.538,-484.406 198,-399 204.559,-392.668 212.241,-387.45 220.45,-383.149"/>
<polygon fill="midnightblue" stroke="midnightblue" points="79.848,-698.061 82.5526,-708.305 86.8264,-698.61 79.848,-698.061"/>
</g>
<!-- Node2815 -->
<g id="node19" class="node"><title>Node2815</title>
<g id="a_node19"><a xlink:href="classokw_1_1core_1_1_e_n___verify_caption___o_k_w_verifying_fails_exception___test.html#aea6a83264b91716f3751701cca70c1ee" target="_top" xlink:title="Prüft, ob die Ausnahme OKWVerifyingFailsException bei einem Soll/Ist&#45;Vergleich ausgelöst wird...">
<polygon fill="white" stroke="black" points="220.5,-266 220.5,-318 399.5,-318 399.5,-266 220.5,-266"/>
<text text-anchor="start" x="228.5" y="-306" font-family="Helvetica,sans-Serif" font-size="10.00">okw.core.EN_VerifyCaption</text>
<text text-anchor="start" x="228.5" y="-295" font-family="Helvetica,sans-Serif" font-size="10.00">_OKWVerifyingFailsException</text>
<text text-anchor="start" x="228.5" y="-284" font-family="Helvetica,sans-Serif" font-size="10.00">_Test.TC_VerifyCaptionWCM</text>
<text text-anchor="middle" x="310" y="-273" font-family="Helvetica,sans-Serif" font-size="10.00">_OKWVerifyingFailsException_MV04</text>
</a>
</g>
</g>
<!-- Node2797&#45;&gt;Node2815 -->
<g id="edge18" class="edge"><title>Node2797&#45;&gt;Node2815</title>
<path fill="none" stroke="midnightblue" d="M81.8229,-698.006C82.3728,-634.591 92.8061,-435.805 198,-328 204.438,-321.403 212.093,-316.013 220.331,-311.611"/>
<polygon fill="midnightblue" stroke="midnightblue" points="78.3229,-698.216 81.8147,-708.219 85.3229,-698.222 78.3229,-698.216"/>
</g>
<!-- Node2816 -->
<g id="node20" class="node"><title>Node2816</title>
<g id="a_node20"><a xlink:href="classokw_1_1_se_b_a_c_k_1_1_se_b_a_c_k___e_n___test.html#a2a020cb3ea69545c08077b166126ce5b" target="_top" xlink:title="Test des Schlüsselwortes &quot;VerifyCaptionWCM( FN, ExpVal ) für SeBACK. ">
<polygon fill="white" stroke="black" points="207,-205.5 207,-246.5 413,-246.5 413,-205.5 207,-205.5"/>
<text text-anchor="start" x="215" y="-234.5" font-family="Helvetica,sans-Serif" font-size="10.00">okw.SeBACK.SeBACK_EN</text>
<text text-anchor="start" x="215" y="-223.5" font-family="Helvetica,sans-Serif" font-size="10.00">_Test.tcVerifyCaptionWCM</text>
<text text-anchor="middle" x="310" y="-212.5" font-family="Helvetica,sans-Serif" font-size="10.00">_OKWFrameObjectMethodNotImplemented</text>
</a>
</g>
</g>
<!-- Node2797&#45;&gt;Node2816 -->
<g id="edge19" class="edge"><title>Node2797&#45;&gt;Node2816</title>
<path fill="none" stroke="midnightblue" d="M84.3263,-698.303C94.1017,-618.756 134.317,-322.349 198,-257 201.84,-253.059 206.136,-249.608 210.746,-246.585"/>
<polygon fill="midnightblue" stroke="midnightblue" points="80.8297,-698.065 83.1057,-708.412 87.7792,-698.904 80.8297,-698.065"/>
</g>
<!-- Node2817 -->
<g id="node21" class="node"><title>Node2817</title>
<g id="a_node21"><a xlink:href="classokw_1_1_se_button_1_1_se_button___e_n___test.html#aadb669e90ae21a754d5f827cca744e00" target="_top" xlink:title="Test des Schlüsselwortes VerifyCaptionWCM für den GUI&#45;Adapter SeButton. ">
<polygon fill="white" stroke="black" points="231.5,-157 231.5,-187 388.5,-187 388.5,-157 231.5,-157"/>
<text text-anchor="start" x="239.5" y="-175" font-family="Helvetica,sans-Serif" font-size="10.00">okw.SeButton.SeButton</text>
<text text-anchor="middle" x="310" y="-164" font-family="Helvetica,sans-Serif" font-size="10.00">_EN_Test.tcVerifyCaptionWCM</text>
</a>
</g>
</g>
<!-- Node2797&#45;&gt;Node2817 -->
<g id="edge20" class="edge"><title>Node2797&#45;&gt;Node2817</title>
<path fill="none" stroke="midnightblue" d="M83.5802,-698.395C90.9142,-612.345 124.443,-269.137 198,-196 207.158,-186.895 218.896,-180.877 231.294,-176.964"/>
<polygon fill="midnightblue" stroke="midnightblue" points="80.0905,-698.127 82.7495,-708.383 87.0664,-698.707 80.0905,-698.127"/>
</g>
<!-- Node2818 -->
<g id="node22" class="node"><title>Node2818</title>
<g id="a_node22"><a xlink:href="classokw_1_1_se_input_radio_1_1_se_input_radio___e_n___test.html#a2c9d933ce3a2e74d316cfe0b96626a58" target="_top" xlink:title="Test des Schlüsselwortes VerifyCaptionWCM für den GUI&#45;Adapter SeInputRadio. ">
<polygon fill="white" stroke="black" points="216,-108 216,-138 404,-138 404,-108 216,-108"/>
<text text-anchor="start" x="224" y="-126" font-family="Helvetica,sans-Serif" font-size="10.00">okw.SeInputRadio.SeInput</text>
<text text-anchor="middle" x="310" y="-115" font-family="Helvetica,sans-Serif" font-size="10.00">Radio_EN_Test.tc_VerifyCaptionWCM</text>
</a>
</g>
</g>
<!-- Node2797&#45;&gt;Node2818 -->
<g id="edge21" class="edge"><title>Node2797&#45;&gt;Node2818</title>
<path fill="none" stroke="midnightblue" d="M83.2033,-698.377C89.1706,-607.571 118.546,-229.121 198,-148 203.183,-142.708 209.23,-138.43 215.776,-134.982"/>
<polygon fill="midnightblue" stroke="midnightblue" points="79.7074,-698.202 82.564,-708.404 86.6933,-698.647 79.7074,-698.202"/>
</g>
<!-- Node2819 -->
<g id="node23" class="node"><title>Node2819</title>
<g id="a_node23"><a xlink:href="classokw_1_1_se_link_1_1_se_link___e_n___test.html#ad88f4d017f1a55ad12f9ffc5ed0ab336" target="_top" xlink:title="Prüft die Methode SeLink.MemorizeToolTip. ">
<polygon fill="white" stroke="black" points="233,-59 233,-89 387,-89 387,-59 233,-59"/>
<text text-anchor="start" x="241" y="-77" font-family="Helvetica,sans-Serif" font-size="10.00">okw.SeLink.SeLink_EN</text>
<text text-anchor="middle" x="310" y="-66" font-family="Helvetica,sans-Serif" font-size="10.00">_Test.TC_MemorizeToolTip_en</text>
</a>
</g>
</g>
<!-- Node2797&#45;&gt;Node2819 -->
<g id="edge22" class="edge"><title>Node2797&#45;&gt;Node2819</title>
<path fill="none" stroke="midnightblue" d="M82.8834,-697.925C87.533,-601.608 112.304,-187.862 198,-99 207.461,-89.1889 219.886,-82.8505 232.99,-78.8254"/>
<polygon fill="midnightblue" stroke="midnightblue" points="79.3807,-697.903 82.4134,-708.054 86.3732,-698.227 79.3807,-697.903"/>
</g>
<!-- Node2820 -->
<g id="node24" class="node"><title>Node2820</title>
<g id="a_node24"><a xlink:href="classokw_1_1_se_m_a_x_i_m_i_z_e_1_1_se_m_a_x_i_m_i_z_e___e_n___test.html#a5635ffb7ca6fe28b63d53eb20d68e83b" target="_top" xlink:title="Test des Schlüsselwortes &quot;VerifyCaptionWCM( FN, ExpVal ) für SeMAXIMIZE. ">
<polygon fill="white" stroke="black" points="207,0.5 207,-40.5 413,-40.5 413,0.5 207,0.5"/>
<text text-anchor="start" x="215" y="-28.5" font-family="Helvetica,sans-Serif" font-size="10.00">okw.SeMAXIMIZE.SeMAXIMIZE</text>
<text text-anchor="start" x="215" y="-17.5" font-family="Helvetica,sans-Serif" font-size="10.00">_EN_Test.tcVerifyCaptionWCM</text>
<text text-anchor="middle" x="310" y="-6.5" font-family="Helvetica,sans-Serif" font-size="10.00">_OKWFrameObjectMethodNotImplemented</text>
</a>
</g>
</g>
<!-- Node2797&#45;&gt;Node2820 -->
<g id="edge23" class="edge"><title>Node2797&#45;&gt;Node2820</title>
<path fill="none" stroke="midnightblue" d="M82.6622,-698.041C86.3946,-597.64 107.972,-148.719 198,-50 201.228,-46.4601 204.827,-43.3202 208.698,-40.5365"/>
<polygon fill="midnightblue" stroke="midnightblue" points="79.1557,-698.167 82.2997,-708.285 86.1513,-698.415 79.1557,-698.167"/>
</g>
</g>
</svg>
