<?xml version="1.0" encoding="UTF-8" standalone="no"?>
<!DOCTYPE svg PUBLIC "-//W3C//DTD SVG 1.1//EN"
 "http://www.w3.org/Graphics/SVG/1.1/DTD/svg11.dtd">
<!-- Generated by graphviz version 2.36.0 (20140111.2315)
 -->
<!-- Title: okw.core.EN_OKWNotAllowedValueException_Keywords_IGNORE.tcMemorizeCaptionIGNORE1 Pages: 1 -->
<svg width="1190pt" height="301pt"
 viewBox="0.00 0.00 1190.00 301.00" xmlns="http://www.w3.org/2000/svg" xmlns:xlink="http://www.w3.org/1999/xlink">
<g id="graph0" class="graph" transform="scale(1 1) rotate(0) translate(4 297)">
<title>okw.core.EN_OKWNotAllowedValueException_Keywords_IGNORE.tcMemorizeCaptionIGNORE1</title>
<polygon fill="white" stroke="none" points="-4,4 -4,-297 1186,-297 1186,4 -4,4"/>
<!-- Node0 -->
<g id="node1" class="node"><title>Node0</title>
<polygon fill="#bfbfbf" stroke="black" points="0,-106.5 0,-147.5 194,-147.5 194,-106.5 0,-106.5"/>
<text text-anchor="start" x="8" y="-135.5" font-family="Helvetica,sans-Serif" font-size="10.00">okw.core.EN_OKWNotAllowed</text>
<text text-anchor="start" x="8" y="-124.5" font-family="Helvetica,sans-Serif" font-size="10.00">ValueException_Keywords</text>
<text text-anchor="middle" x="97" y="-113.5" font-family="Helvetica,sans-Serif" font-size="10.00">_IGNORE.tcMemorizeCaptionIGNORE1</text>
</g>
<!-- Node1 -->
<g id="node2" class="node"><title>Node1</title>
<g id="a_node2"><a xlink:href="classokw_1_1core_1_1_e_n.html#aef613b0a3e6bb8a9623984db145cae69" target="_top" xlink:title="Markiert den Anfang eines neuen Testfalls. ">
<polygon fill="white" stroke="black" points="246.5,-79.5 246.5,-98.5 367.5,-98.5 367.5,-79.5 246.5,-79.5"/>
<text text-anchor="middle" x="307" y="-86.5" font-family="Helvetica,sans-Serif" font-size="10.00">okw.core.EN.BeginTest</text>
</a>
</g>
</g>
<!-- Node0&#45;&gt;Node1 -->
<g id="edge1" class="edge"><title>Node0&#45;&gt;Node1</title>
<path fill="none" stroke="midnightblue" d="M194.085,-109.446C210.937,-106.367 228.068,-103.237 243.695,-100.383"/>
<polygon fill="midnightblue" stroke="midnightblue" points="244.52,-103.79 253.728,-98.5497 243.262,-96.904 244.52,-103.79"/>
</g>
<!-- Node7 -->
<g id="node8" class="node"><title>Node7</title>
<g id="a_node8"><a xlink:href="classokw_1_1core_1_1_e_n.html#a2b61c2b39a9cfdbdfd25fe0e3d43785b" target="_top" xlink:title="Setzt den Kontext auf das gegebene Fenster. ">
<polygon fill="white" stroke="black" points="237,-155.5 237,-174.5 377,-174.5 377,-155.5 237,-155.5"/>
<text text-anchor="middle" x="307" y="-162.5" font-family="Helvetica,sans-Serif" font-size="10.00">okw.core.EN.SelectWindow</text>
</a>
</g>
</g>
<!-- Node0&#45;&gt;Node7 -->
<g id="edge7" class="edge"><title>Node0&#45;&gt;Node7</title>
<path fill="none" stroke="midnightblue" d="M194.085,-144.554C210.937,-147.633 228.068,-150.763 243.695,-153.617"/>
<polygon fill="midnightblue" stroke="midnightblue" points="243.262,-157.096 253.728,-155.45 244.52,-150.21 243.262,-157.096"/>
</g>
<!-- Node14 -->
<g id="node15" class="node"><title>Node14</title>
<g id="a_node15"><a xlink:href="classokw_1_1core_1_1_e_n.html#ab10f0a1c40f0093a14c4be313d59a94a" target="_top" xlink:title="Keine Beschreibung zu &quot;MemorizeCaption&quot; verfügbar. ">
<polygon fill="white" stroke="black" points="230.5,-117.5 230.5,-136.5 383.5,-136.5 383.5,-117.5 230.5,-117.5"/>
<text text-anchor="middle" x="307" y="-124.5" font-family="Helvetica,sans-Serif" font-size="10.00">okw.core.EN.MemorizeCaption</text>
</a>
</g>
</g>
<!-- Node0&#45;&gt;Node14 -->
<g id="edge15" class="edge"><title>Node0&#45;&gt;Node14</title>
<path fill="none" stroke="midnightblue" d="M194.085,-127C202.807,-127 211.603,-127 220.227,-127"/>
<polygon fill="midnightblue" stroke="midnightblue" points="220.257,-130.5 230.257,-127 220.257,-123.5 220.257,-130.5"/>
</g>
<!-- Node2 -->
<g id="node3" class="node"><title>Node2</title>
<g id="a_node3"><a xlink:href="classokw_1_1core_1_1_core.html#ab4e0f723d27cb11c944ec4c82c426100" target="_top" xlink:title="Setzt die Sprache auf den gegebenen wert Language. ">
<polygon fill="white" stroke="black" points="430.5,-98.5 430.5,-117.5 569.5,-117.5 569.5,-98.5 430.5,-98.5"/>
<text text-anchor="middle" x="500" y="-105.5" font-family="Helvetica,sans-Serif" font-size="10.00">okw.core.Core.setLanguage</text>
</a>
</g>
</g>
<!-- Node1&#45;&gt;Node2 -->
<g id="edge2" class="edge"><title>Node1&#45;&gt;Node2</title>
<path fill="none" stroke="midnightblue" d="M367.648,-94.9336C384.301,-96.5901 402.655,-98.4159 420.229,-100.164"/>
<polygon fill="midnightblue" stroke="midnightblue" points="420.17,-103.675 430.467,-101.183 420.863,-96.7098 420.17,-103.675"/>
</g>
<!-- Node4 -->
<g id="node5" class="node"><title>Node4</title>
<g id="a_node5"><a xlink:href="classokw_1_1core_1_1_core.html#acfefe92468c9eb9e951846372726c4d8" target="_top" xlink:title="Markiert den Anfang eines neuen Testfalls. ">
<polygon fill="white" stroke="black" points="436,-49.5 436,-68.5 564,-68.5 564,-49.5 436,-49.5"/>
<text text-anchor="middle" x="500" y="-56.5" font-family="Helvetica,sans-Serif" font-size="10.00">okw.core.Core.BeginTest</text>
</a>
</g>
</g>
<!-- Node1&#45;&gt;Node4 -->
<g id="edge4" class="edge"><title>Node1&#45;&gt;Node4</title>
<path fill="none" stroke="midnightblue" d="M367.648,-79.6312C386.937,-76.6015 408.509,-73.2133 428.507,-70.0722"/>
<polygon fill="midnightblue" stroke="midnightblue" points="429.154,-73.5136 438.49,-68.5043 428.068,-66.5984 429.154,-73.5136"/>
</g>
<!-- Node3 -->
<g id="node4" class="node"><title>Node3</title>
<g id="a_node4"><a xlink:href="interfaceokw_1_1core_1_1_i_o_k_w___state.html#a866baa0bde08a47418f54d63bdb56097" target="_top" xlink:title="Interne Methode zum setzen der Sprache für die sprachabhängigen Ausgaben der Dokumentation (Log)...">
<polygon fill="white" stroke="black" points="616.5,-87.5 616.5,-106.5 789.5,-106.5 789.5,-87.5 616.5,-87.5"/>
<text text-anchor="middle" x="703" y="-94.5" font-family="Helvetica,sans-Serif" font-size="10.00">okw.core.IOKW_State.setLanguage</text>
</a>
</g>
</g>
<!-- Node2&#45;&gt;Node3 -->
<g id="edge3" class="edge"><title>Node2&#45;&gt;Node3</title>
<path fill="none" stroke="midnightblue" d="M569.611,-104.245C581.339,-103.603 593.713,-102.926 605.998,-102.254"/>
<polygon fill="midnightblue" stroke="midnightblue" points="606.486,-105.732 616.28,-101.691 606.103,-98.7429 606.486,-105.732"/>
</g>
<!-- Node5 -->
<g id="node6" class="node"><title>Node5</title>
<g id="a_node6"><a xlink:href="classokw_1_1log_1_1_logger___sngltn.html#a60f4ad59db847ae61df928f9920f3deb" target="_top" xlink:title="Ausgabe des Testfalls. ">
<polygon fill="white" stroke="black" points="636,-0 636,-30 770,-30 770,-0 636,-0"/>
<text text-anchor="start" x="644" y="-18" font-family="Helvetica,sans-Serif" font-size="10.00">okw.log.Logger_Sngltn.Log</text>
<text text-anchor="middle" x="703" y="-7" font-family="Helvetica,sans-Serif" font-size="10.00">TestcaseStart</text>
</a>
</g>
</g>
<!-- Node4&#45;&gt;Node5 -->
<g id="edge5" class="edge"><title>Node4&#45;&gt;Node5</title>
<path fill="none" stroke="midnightblue" d="M544.614,-49.4527C568.368,-44.2527 598.444,-37.6689 625.926,-31.6529"/>
<polygon fill="midnightblue" stroke="midnightblue" points="626.897,-35.0233 635.918,-29.4658 625.4,-28.1853 626.897,-35.0233"/>
</g>
<!-- Node6 -->
<g id="node7" class="node"><title>Node6</title>
<g id="a_node7"><a xlink:href="interfaceokw_1_1core_1_1_i_o_k_w___state.html#ae5480ddb1fc37eade5d899d335bc4b13" target="_top" xlink:title="Markiert den Anfang eines neuen Testfalls. ">
<polygon fill="white" stroke="black" points="622,-49.5 622,-68.5 784,-68.5 784,-49.5 622,-49.5"/>
<text text-anchor="middle" x="703" y="-56.5" font-family="Helvetica,sans-Serif" font-size="10.00">okw.core.IOKW_State.BeginTest</text>
</a>
</g>
</g>
<!-- Node4&#45;&gt;Node6 -->
<g id="edge6" class="edge"><title>Node4&#45;&gt;Node6</title>
<path fill="none" stroke="midnightblue" d="M564.046,-59C579.063,-59 595.381,-59 611.363,-59"/>
<polygon fill="midnightblue" stroke="midnightblue" points="611.8,-62.5001 621.8,-59 611.8,-55.5001 611.8,-62.5001"/>
</g>
<!-- Node7&#45;&gt;Node2 -->
<g id="edge8" class="edge"><title>Node7&#45;&gt;Node2</title>
<path fill="none" stroke="midnightblue" d="M348.381,-155.496C359.932,-152.617 372.504,-149.331 384,-146 410.389,-138.353 439.799,-128.612 462.271,-120.908"/>
<polygon fill="midnightblue" stroke="midnightblue" points="463.448,-124.204 471.76,-117.634 461.165,-117.587 463.448,-124.204"/>
</g>
<!-- Node8 -->
<g id="node9" class="node"><title>Node8</title>
<g id="a_node9"><a xlink:href="classokw_1_1core_1_1_core.html#a6a68660eb5e34965522896e2a5c48314" target="_top" xlink:title="Setzt den Kontext auf das gegebene Fenster. ">
<polygon fill="white" stroke="black" points="427,-202.5 427,-221.5 573,-221.5 573,-202.5 427,-202.5"/>
<text text-anchor="middle" x="500" y="-209.5" font-family="Helvetica,sans-Serif" font-size="10.00">okw.core.Core.SelectWindow</text>
</a>
</g>
</g>
<!-- Node7&#45;&gt;Node8 -->
<g id="edge9" class="edge"><title>Node7&#45;&gt;Node8</title>
<path fill="none" stroke="midnightblue" d="M346.652,-174.511C376.455,-181.845 417.872,-192.036 450,-199.942"/>
<polygon fill="midnightblue" stroke="midnightblue" points="449.532,-203.432 460.078,-202.422 451.204,-196.634 449.532,-203.432"/>
</g>
<!-- Node9 -->
<g id="node10" class="node"><title>Node9</title>
<g id="a_node10"><a xlink:href="classokw_1_1log_1_1_logger___sngltn.html#a70ec25e200e00ecefc544e8fd371d2ef" target="_top" xlink:title="Ausgabe eines Schlüsselwortes. ">
<polygon fill="white" stroke="black" points="636,-175 636,-205 770,-205 770,-175 636,-175"/>
<text text-anchor="start" x="644" y="-193" font-family="Helvetica,sans-Serif" font-size="10.00">okw.log.Logger_Sngltn.Log</text>
<text text-anchor="middle" x="703" y="-182" font-family="Helvetica,sans-Serif" font-size="10.00">KeyWordStart</text>
</a>
</g>
</g>
<!-- Node8&#45;&gt;Node9 -->
<g id="edge10" class="edge"><title>Node8&#45;&gt;Node9</title>
<path fill="none" stroke="midnightblue" d="M573.282,-204.089C590.311,-202.225 608.516,-200.232 625.715,-198.35"/>
<polygon fill="midnightblue" stroke="midnightblue" points="626.149,-201.823 635.709,-197.256 625.388,-194.865 626.149,-201.823"/>
</g>
<!-- Node10 -->
<g id="node11" class="node"><title>Node10</title>
<g id="a_node11"><a xlink:href="classokw_1_1_log_messenger.html#af225d1f037d47b3b085175c09d78bdd2" target="_top" xlink:title="Holt die Log&#45;Meldung für MethodeNmae/Textkey ohne weitere Parameter. ">
<polygon fill="white" stroke="black" points="623,-224.5 623,-243.5 783,-243.5 783,-224.5 623,-224.5"/>
<text text-anchor="middle" x="703" y="-231.5" font-family="Helvetica,sans-Serif" font-size="10.00">okw.LogMessenger.GetMessage</text>
</a>
</g>
</g>
<!-- Node8&#45;&gt;Node10 -->
<g id="edge11" class="edge"><title>Node8&#45;&gt;Node10</title>
<path fill="none" stroke="midnightblue" d="M573.282,-219.911C586.107,-221.315 599.599,-222.792 612.827,-224.24"/>
<polygon fill="midnightblue" stroke="midnightblue" points="612.553,-227.731 622.874,-225.339 613.315,-220.772 612.553,-227.731"/>
</g>
<!-- Node13 -->
<g id="node14" class="node"><title>Node13</title>
<g id="a_node14"><a xlink:href="interfaceokw_1_1core_1_1_i_o_k_w___state.html#ad4fc9610ed5b1176590a45b55e6ac7f0" target="_top" xlink:title="Setzt den Kontext auf das gegebene Fenster. ">
<polygon fill="white" stroke="black" points="630,-263 630,-293 776,-293 776,-263 630,-263"/>
<text text-anchor="start" x="638" y="-281" font-family="Helvetica,sans-Serif" font-size="10.00">okw.core.IOKW_State.Select</text>
<text text-anchor="middle" x="703" y="-270" font-family="Helvetica,sans-Serif" font-size="10.00">Window</text>
</a>
</g>
</g>
<!-- Node8&#45;&gt;Node13 -->
<g id="edge14" class="edge"><title>Node8&#45;&gt;Node13</title>
<path fill="none" stroke="midnightblue" d="M526.429,-221.558C549.634,-230.161 584.941,-242.959 616,-253 623.282,-255.354 630.942,-257.727 638.567,-260.025"/>
<polygon fill="midnightblue" stroke="midnightblue" points="637.592,-263.386 648.175,-262.888 639.591,-256.678 637.592,-263.386"/>
</g>
<!-- Node11 -->
<g id="node12" class="node"><title>Node11</title>
<g id="a_node12"><a xlink:href="classokw_1_1_log_messenger.html#a530cd6ab82ec82a04206a2e976ec06e3" target="_top" xlink:title="Interne Kernfunktion holt die Log&#45;Meldung mit Platzhaltern aus der XML&#45;Datei. ">
<polygon fill="white" stroke="black" points="826.5,-224.5 826.5,-243.5 993.5,-243.5 993.5,-224.5 826.5,-224.5"/>
<text text-anchor="middle" x="910" y="-231.5" font-family="Helvetica,sans-Serif" font-size="10.00">okw.LogMessenger.ReadMessage</text>
</a>
</g>
</g>
<!-- Node10&#45;&gt;Node11 -->
<g id="edge12" class="edge"><title>Node10&#45;&gt;Node11</title>
<path fill="none" stroke="midnightblue" d="M783.258,-234C794.041,-234 805.186,-234 816.181,-234"/>
<polygon fill="midnightblue" stroke="midnightblue" points="816.222,-237.5 826.222,-234 816.222,-230.5 816.222,-237.5"/>
</g>
<!-- Node12 -->
<g id="node13" class="node"><title>Node12</title>
<g id="a_node13"><a xlink:href="classokw_1_1_o_k_w___xml_reader.html#ab920b5335a2e1429c14cc5f8e79f39eb" target="_top" xlink:title="Lies den TextContent eines Tag. ">
<polygon fill="white" stroke="black" points="1030,-219 1030,-249 1182,-249 1182,-219 1030,-219"/>
<text text-anchor="start" x="1038" y="-237" font-family="Helvetica,sans-Serif" font-size="10.00">okw.OKW_XmlReader.getText</text>
<text text-anchor="middle" x="1106" y="-226" font-family="Helvetica,sans-Serif" font-size="10.00">ContentSingleValue</text>
</a>
</g>
</g>
<!-- Node11&#45;&gt;Node12 -->
<g id="edge13" class="edge"><title>Node11&#45;&gt;Node12</title>
<path fill="none" stroke="midnightblue" d="M993.555,-234C1002.23,-234 1011.06,-234 1019.76,-234"/>
<polygon fill="midnightblue" stroke="midnightblue" points="1019.9,-237.5 1029.9,-234 1019.9,-230.5 1019.9,-237.5"/>
</g>
<!-- Node14&#45;&gt;Node2 -->
<g id="edge16" class="edge"><title>Node14&#45;&gt;Node2</title>
<path fill="none" stroke="midnightblue" d="M383.763,-119.463C395.805,-118.265 408.286,-117.024 420.392,-115.82"/>
<polygon fill="midnightblue" stroke="midnightblue" points="420.851,-119.291 430.456,-114.819 420.158,-112.326 420.851,-119.291"/>
</g>
<!-- Node15 -->
<g id="node16" class="node"><title>Node15</title>
<g id="a_node16"><a xlink:href="classokw_1_1core_1_1_core.html#a45d00018ce652231985a88ca26d34da7" target="_top" xlink:title="Keine Beschreibung zu &quot;MemorizeCaption&quot; verfügbar. ">
<polygon fill="white" stroke="black" points="420,-147.5 420,-166.5 580,-166.5 580,-147.5 420,-147.5"/>
<text text-anchor="middle" x="500" y="-154.5" font-family="Helvetica,sans-Serif" font-size="10.00">okw.core.Core.MemorizeCaption</text>
</a>
</g>
</g>
<!-- Node14&#45;&gt;Node15 -->
<g id="edge17" class="edge"><title>Node14&#45;&gt;Node15</title>
<path fill="none" stroke="midnightblue" d="M368.696,-136.533C387.672,-139.514 408.772,-142.828 428.37,-145.906"/>
<polygon fill="midnightblue" stroke="midnightblue" points="428.04,-149.397 438.462,-147.491 429.126,-142.482 428.04,-149.397"/>
</g>
<!-- Node15&#45;&gt;Node9 -->
<g id="edge18" class="edge"><title>Node15&#45;&gt;Node9</title>
<path fill="none" stroke="midnightblue" d="M558.868,-166.501C579.686,-169.919 603.501,-173.828 625.651,-177.465"/>
<polygon fill="midnightblue" stroke="midnightblue" points="625.26,-180.948 635.695,-179.114 626.394,-174.04 625.26,-180.948"/>
</g>
<!-- Node15&#45;&gt;Node10 -->
<g id="edge19" class="edge"><title>Node15&#45;&gt;Node10</title>
<path fill="none" stroke="midnightblue" d="M523.763,-166.648C539.705,-173.581 561.396,-183.366 580,-193 596.449,-201.518 598.786,-207.159 616,-214 623.494,-216.978 631.54,-219.577 639.595,-221.827"/>
<polygon fill="midnightblue" stroke="midnightblue" points="638.826,-225.244 649.387,-224.4 640.605,-218.473 638.826,-225.244"/>
</g>
<!-- Node16 -->
<g id="node17" class="node"><title>Node16</title>
<g id="a_node17"><a xlink:href="interfaceokw_1_1core_1_1_i_o_k_w___state.html#af8e1a17d61642cdb29d6c4e95200c275" target="_top" xlink:title="Keine Beschreibung zu &quot;MemorizeCaption&quot; verfügbar. ">
<polygon fill="white" stroke="black" points="622.5,-126 622.5,-156 783.5,-156 783.5,-126 622.5,-126"/>
<text text-anchor="start" x="630.5" y="-144" font-family="Helvetica,sans-Serif" font-size="10.00">okw.core.IOKW_State.Memorize</text>
<text text-anchor="middle" x="703" y="-133" font-family="Helvetica,sans-Serif" font-size="10.00">Caption</text>
</a>
</g>
</g>
<!-- Node15&#45;&gt;Node16 -->
<g id="edge20" class="edge"><title>Node15&#45;&gt;Node16</title>
<path fill="none" stroke="midnightblue" d="M580.152,-150.699C590.642,-149.864 601.457,-149.003 612.111,-148.155"/>
<polygon fill="midnightblue" stroke="midnightblue" points="612.57,-151.63 622.261,-147.347 612.014,-144.652 612.57,-151.63"/>
</g>
</g>
</svg>
