<?xml version="1.0" encoding="UTF-8" standalone="no"?>
<!DOCTYPE svg PUBLIC "-//W3C//DTD SVG 1.1//EN"
 "http://www.w3.org/Graphics/SVG/1.1/DTD/svg11.dtd">
<!-- Generated by graphviz version 2.26.3 (20100126.1600)
 -->
<!-- Title: okw.core.Core.VerifyIsActive Pages: 1 -->
<!--zoomable 1620 -->
<svg id="main" version="1.1" xmlns="http://www.w3.org/2000/svg" xmlns:xlink="http://www.w3.org/1999/xlink" xml:space="preserve" onload="init(evt)">
<style type="text/css"><![CDATA[
.edge:hover path { stroke: red; }
.edge:hover polygon { stroke: red; fill: red; }
]]></style>
<script type="text/javascript"><![CDATA[
var edges = document.getElementsByTagName('g');
if (edges && edges.length) {
  for (var i=0;i<edges.length;i++) {
    if (edges[i].id.substr(0,4)=='edge') {
      edges[i].setAttribute('class','edge');
    }
  }
}
]]></script>
        <defs>
                <circle id="rim" cx="0" cy="0" r="7"/>
                <circle id="rim2" cx="0" cy="0" r="3.5"/>
                <g id="zoomPlus">
                        <use xlink:href="#rim" fill="#404040">
                                <set attributeName="fill" to="#808080" begin="zoomplus.mouseover" end="zoomplus.mouseout"/>
                        </use>
                        <path d="M-4,0h8M0,-4v8" fill="none" stroke="white" stroke-width="1.5" pointer-events="none"/>
                </g>
                <g id="zoomMin">
                        <use xlink:href="#rim" fill="#404040">
                                <set attributeName="fill" to="#808080" begin="zoomminus.mouseover" end="zoomminus.mouseout"/>
                        </use>
                        <path d="M-4,0h8" fill="none" stroke="white" stroke-width="1.5" pointer-events="none"/>
                </g>
                <g id="dirArrow">
                        <path fill="none" stroke="white" stroke-width="1.5" d="M0,-3.0v7 M-2.5,-0.5L0,-3.0L2.5,-0.5"/>
                </g>
               <g id="resetDef">
                       <use xlink:href="#rim2" fill="#404040">
                               <set attributeName="fill" to="#808080" begin="reset.mouseover" end="reset.mouseout"/>
                       </use>
               </g>
        </defs>

<script type="text/javascript">
var viewWidth = 584;
var viewHeight = 1620;
var sectionId = 'dynsection-91';
</script>
<script xlink:href="svgpan.js"/>
<svg id="graph" class="graph">
<g id="viewport">
<title>okw.core.Core.VerifyIsActive</title>
<polygon fill="white" stroke="white" points="-4,5 -4,-1616 581,-1616 581,5 -4,5"/>
<!-- Node3000 -->
<g id="node1" class="node"><title>Node3000</title>
<polygon fill="#bfbfbf" stroke="black" points="0.5,-763.5 0.5,-784.5 145.5,-784.5 145.5,-763.5 0.5,-763.5"/>
<text text-anchor="middle" x="73" y="-771.5" font-family="Helvetica,sans-Serif" font-size="10.00">okw.core.Core.VerifyIsActive</text>
</g>
<!-- Node3001 -->
<g id="node3" class="node"><title>Node3001</title>
<a xlink:href="classokw_1_1core_1_1_e_n.html#a67f59cc780c7b380127c430522ae6a62" target="_top" xlink:title="Vergleicht den Fokus&#45;Status des gegebenen Objekts mit dem erwarteten Wert. ">
<polygon fill="white" stroke="black" points="182,-763.5 182,-784.5 320,-784.5 320,-763.5 182,-763.5"/>
<text text-anchor="middle" x="251" y="-771.5" font-family="Helvetica,sans-Serif" font-size="10.00">okw.core.EN.VerifyIsActive</text>
</a>
</g>
<!-- Node3000&#45;&gt;Node3001 -->
<g id="edge2" class="edge"><title>Node3000&#45;&gt;Node3001</title>
<path fill="none" stroke="midnightblue" d="M155.79,-774C164.471,-774 173.23,-774 181.737,-774"/>
<polygon fill="midnightblue" stroke="midnightblue" points="155.656,-770.5 145.656,-774 155.656,-777.5 155.656,-770.5"/>
</g>
<!-- Node3002 -->
<g id="node5" class="node"><title>Node3002</title>
<a xlink:href="classokw_1_1core_1_1_e_n___keywords___a_n_t_l_r___test.html#a48924242e07099955b1134ab59fefe98" target="_top" xlink:title="okw.core.EN_Keywords\l_ANTLR_Test.tc_VerifyIsActive\l_MemorizedValue">
<polygon fill="white" stroke="black" points="387,-1564.5 387,-1611.5 545,-1611.5 545,-1564.5 387,-1564.5"/>
<text text-anchor="start" x="395" y="-1598.5" font-family="Helvetica,sans-Serif" font-size="10.00">okw.core.EN_Keywords</text>
<text text-anchor="start" x="395" y="-1585.5" font-family="Helvetica,sans-Serif" font-size="10.00">_ANTLR_Test.tc_VerifyIsActive</text>
<text text-anchor="middle" x="466" y="-1572.5" font-family="Helvetica,sans-Serif" font-size="10.00">_MemorizedValue</text>
</a>
</g>
<!-- Node3001&#45;&gt;Node3002 -->
<g id="edge4" class="edge"><title>Node3001&#45;&gt;Node3002</title>
<path fill="none" stroke="midnightblue" d="M252.466,-794.917C260.931,-913.209 304.967,-1495.2 356,-1555 364.219,-1564.63 375.128,-1571.51 386.888,-1576.42"/>
<polygon fill="midnightblue" stroke="midnightblue" points="255.939,-794.406 251.74,-784.678 248.956,-794.901 255.939,-794.406"/>
</g>
<!-- Node3003 -->
<g id="node7" class="node"><title>Node3003</title>
<a xlink:href="classokw_1_1core_1_1_e_n___keywords___d_e_l_e_t_e___test.html#a0e62a17933f21dc8c45b22def98ac192" target="_top" xlink:title="okw.core.EN_Keywords\l_DELETE_Test.tcSelectMenu\l_Value_MV_DELETE_EmptyString">
<polygon fill="white" stroke="black" points="381,-1498.5 381,-1545.5 551,-1545.5 551,-1498.5 381,-1498.5"/>
<text text-anchor="start" x="389" y="-1532.5" font-family="Helvetica,sans-Serif" font-size="10.00">okw.core.EN_Keywords</text>
<text text-anchor="start" x="389" y="-1519.5" font-family="Helvetica,sans-Serif" font-size="10.00">_DELETE_Test.tcSelectMenu</text>
<text text-anchor="middle" x="466" y="-1506.5" font-family="Helvetica,sans-Serif" font-size="10.00">_Value_MV_DELETE_EmptyString</text>
</a>
</g>
<!-- Node3001&#45;&gt;Node3003 -->
<g id="edge6" class="edge"><title>Node3001&#45;&gt;Node3003</title>
<path fill="none" stroke="midnightblue" d="M251.146,-794.65C252.306,-900.454 262.711,-1381.03 356,-1489 362.843,-1496.92 371.506,-1502.98 380.955,-1507.61"/>
<polygon fill="midnightblue" stroke="midnightblue" points="254.645,-794.58 251.052,-784.613 247.646,-794.645 254.645,-794.58"/>
</g>
<!-- Node3004 -->
<g id="node9" class="node"><title>Node3004</title>
<a xlink:href="classokw_1_1core_1_1_e_n___keywords___empty___test.html#a8449e6aa401aca7a8dc5701cfbe6588d" target="_top" xlink:title="Prüft &quot;${EMPTY}&quot; für das Schlüsselwort VerifyValue(string,string) ">
<polygon fill="white" stroke="black" points="388,-1432.5 388,-1479.5 544,-1479.5 544,-1432.5 388,-1432.5"/>
<text text-anchor="start" x="396" y="-1466.5" font-family="Helvetica,sans-Serif" font-size="10.00">okw.core.EN_Keywords</text>
<text text-anchor="start" x="396" y="-1453.5" font-family="Helvetica,sans-Serif" font-size="10.00">_Empty_Test.tc_VerifyTablecell</text>
<text text-anchor="middle" x="466" y="-1440.5" font-family="Helvetica,sans-Serif" font-size="10.00">ValueWCM_Empty</text>
</a>
</g>
<!-- Node3001&#45;&gt;Node3004 -->
<g id="edge8" class="edge"><title>Node3001&#45;&gt;Node3004</title>
<path fill="none" stroke="midnightblue" d="M251.492,-794.922C254.268,-895.24 271.044,-1326.11 356,-1423 364.544,-1432.74 375.841,-1439.67 387.942,-1444.57"/>
<polygon fill="midnightblue" stroke="midnightblue" points="254.989,-794.741 251.23,-784.835 247.991,-794.922 254.989,-794.741"/>
</g>
<!-- Node3005 -->
<g id="node11" class="node"><title>Node3005</title>
<a xlink:href="classokw_1_1core_1_1_e_n___keywords___test.html#afef7fb7f909fbf8dab860eec48268f4a" target="_top" xlink:title="okw.core.EN_Keywords\l_Test.tc_VerifyIsActive">
<polygon fill="white" stroke="black" points="405,-1380 405,-1414 527,-1414 527,-1380 405,-1380"/>
<text text-anchor="start" x="413" y="-1401" font-family="Helvetica,sans-Serif" font-size="10.00">okw.core.EN_Keywords</text>
<text text-anchor="middle" x="466" y="-1388" font-family="Helvetica,sans-Serif" font-size="10.00">_Test.tc_VerifyIsActive</text>
</a>
</g>
<!-- Node3001&#45;&gt;Node3005 -->
<g id="edge10" class="edge"><title>Node3001&#45;&gt;Node3005</title>
<path fill="none" stroke="midnightblue" d="M251.701,-795.145C255.32,-891.161 274.972,-1285.13 356,-1371 368.66,-1384.42 386.853,-1391.49 404.81,-1395.06"/>
<polygon fill="midnightblue" stroke="midnightblue" points="255.192,-794.822 251.337,-784.954 248.197,-795.072 255.192,-794.822"/>
</g>
<!-- Node3006 -->
<g id="node13" class="node"><title>Node3006</title>
<a xlink:href="classokw_1_1core_1_1_e_n___o_k_w_frame_object_child_not_found_exception___test.html#aef48315ef3e48b52d3cedec5520b7e58" target="_top" xlink:title="Prüft ob die Ausnahme OKWFrameObjectChildNotFoundException durch die LFC&#45;VerifyIsActive ausgelöst wir...">
<polygon fill="white" stroke="black" points="360.5,-1302 360.5,-1362 571.5,-1362 571.5,-1302 360.5,-1302"/>
<text text-anchor="start" x="368.5" y="-1349" font-family="Helvetica,sans-Serif" font-size="10.00">okw.core.EN_OKWFrameObject</text>
<text text-anchor="start" x="368.5" y="-1336" font-family="Helvetica,sans-Serif" font-size="10.00">ChildNotFoundException</text>
<text text-anchor="start" x="368.5" y="-1323" font-family="Helvetica,sans-Serif" font-size="10.00">_Test.TC_VerifyIsActive</text>
<text text-anchor="middle" x="466" y="-1310" font-family="Helvetica,sans-Serif" font-size="10.00">_OKWFrameObjectChildNotFoundException</text>
</a>
</g>
<!-- Node3001&#45;&gt;Node3006 -->
<g id="edge12" class="edge"><title>Node3001&#45;&gt;Node3006</title>
<path fill="none" stroke="midnightblue" d="M252.522,-794.918C259.263,-882.141 289.102,-1215.93 356,-1293 358.789,-1296.21 361.861,-1299.16 365.15,-1301.87"/>
<polygon fill="midnightblue" stroke="midnightblue" points="255.994,-794.415 251.752,-784.706 249.014,-794.941 255.994,-794.415"/>
</g>
<!-- Node3007 -->
<g id="node15" class="node"><title>Node3007</title>
<a xlink:href="classokw_1_1core_1_1_e_n___o_k_w_frame_object_method_not_implemented___test.html#ab0ef684a266ac277c615f75346b35d78" target="_top" xlink:title="Prüft ob die Ausnahme OKWFrameObjectMethodNotImplemented von VerifyIsActive( FN, ExpVal ) ausgelöst w...">
<polygon fill="white" stroke="black" points="365.5,-1224 365.5,-1284 566.5,-1284 566.5,-1224 365.5,-1224"/>
<text text-anchor="start" x="373.5" y="-1271" font-family="Helvetica,sans-Serif" font-size="10.00">okw.core.EN_OKWFrameObject</text>
<text text-anchor="start" x="373.5" y="-1258" font-family="Helvetica,sans-Serif" font-size="10.00">MethodNotImplemented_Test.TC</text>
<text text-anchor="start" x="373.5" y="-1245" font-family="Helvetica,sans-Serif" font-size="10.00">_VerifyIsActive_OKWFrameObjectMethod</text>
<text text-anchor="middle" x="466" y="-1232" font-family="Helvetica,sans-Serif" font-size="10.00">NotImplemented</text>
</a>
</g>
<!-- Node3001&#45;&gt;Node3007 -->
<g id="edge14" class="edge"><title>Node3001&#45;&gt;Node3007</title>
<path fill="none" stroke="midnightblue" d="M253.309,-794.721C262.439,-873.179 298.349,-1150.83 356,-1215 358.844,-1218.17 361.961,-1221.07 365.288,-1223.75"/>
<polygon fill="midnightblue" stroke="midnightblue" points="256.77,-794.177 252.157,-784.639 249.815,-794.972 256.77,-794.177"/>
</g>
<!-- Node3008 -->
<g id="node17" class="node"><title>Node3008</title>
<a xlink:href="classokw_1_1core_1_1_e_n___o_k_w_not_allowed_value_exception___keywords___i_g_n_o_r_e.html#ae73248c833fee94e01dc03f17d4bf84f" target="_top" xlink:title="Prüft ob &quot;${IGNORE} &quot; die Ausnahme okw.exceptions.OKWNotAllowedValueException auslöst. ">
<polygon fill="white" stroke="black" points="376.5,-1158.5 376.5,-1205.5 555.5,-1205.5 555.5,-1158.5 376.5,-1158.5"/>
<text text-anchor="start" x="384.5" y="-1192.5" font-family="Helvetica,sans-Serif" font-size="10.00">okw.core.EN_OKWNotAllowed</text>
<text text-anchor="start" x="384.5" y="-1179.5" font-family="Helvetica,sans-Serif" font-size="10.00">ValueException_Keywords</text>
<text text-anchor="middle" x="466" y="-1166.5" font-family="Helvetica,sans-Serif" font-size="10.00">_IGNORE.tcVerifyIsActiveIGNORE1</text>
</a>
</g>
<!-- Node3001&#45;&gt;Node3008 -->
<g id="edge16" class="edge"><title>Node3001&#45;&gt;Node3008</title>
<path fill="none" stroke="midnightblue" d="M254.146,-794.812C265.273,-865.8 304.853,-1096.9 356,-1149 361.936,-1155.05 368.933,-1160 376.475,-1164.04"/>
<polygon fill="midnightblue" stroke="midnightblue" points="257.54,-793.852 252.556,-784.503 250.622,-794.92 257.54,-793.852"/>
</g>
<!-- Node3009 -->
<g id="node19" class="node"><title>Node3009</title>
<a xlink:href="classokw_1_1core_1_1_e_n___o_k_w_not_allowed_value_exception___keywords___i_g_n_o_r_e.html#a19ef9656eaee897360a374103dad7e4d" target="_top" xlink:title="Prüft ob &quot;&quot;${IGNORE}${TCN}&quot; die Ausnahme okw.exceptions.OKWNotAllowedValueException auslöst...">
<polygon fill="white" stroke="black" points="376.5,-1092.5 376.5,-1139.5 555.5,-1139.5 555.5,-1092.5 376.5,-1092.5"/>
<text text-anchor="start" x="384.5" y="-1126.5" font-family="Helvetica,sans-Serif" font-size="10.00">okw.core.EN_OKWNotAllowed</text>
<text text-anchor="start" x="384.5" y="-1113.5" font-family="Helvetica,sans-Serif" font-size="10.00">ValueException_Keywords</text>
<text text-anchor="middle" x="466" y="-1100.5" font-family="Helvetica,sans-Serif" font-size="10.00">_IGNORE.tcVerifyIsActiveIGNORE2</text>
</a>
</g>
<!-- Node3001&#45;&gt;Node3009 -->
<g id="edge18" class="edge"><title>Node3001&#45;&gt;Node3009</title>
<path fill="none" stroke="midnightblue" d="M251.8,-794.847C255.067,-850.106 271.67,-1001.66 356,-1083 361.955,-1088.74 368.871,-1093.49 376.278,-1097.42"/>
<polygon fill="midnightblue" stroke="midnightblue" points="255.281,-794.389 251.285,-784.576 248.29,-794.739 255.281,-794.389"/>
</g>
<!-- Node3010 -->
<g id="node21" class="node"><title>Node3010</title>
<a xlink:href="classokw_1_1core_1_1_e_n___o_k_w_not_allowed_value_exception___test.html#a4bc6ac5b3060a464f3582a492918e527" target="_top" xlink:title="Prüft ob die Ausnahme OKWNotAllowedValueException durch die LFC&#45;VerifyIsActive ausgelöst wird...">
<polygon fill="white" stroke="black" points="365.5,-1014 365.5,-1074 566.5,-1074 566.5,-1014 365.5,-1014"/>
<text text-anchor="start" x="373.5" y="-1061" font-family="Helvetica,sans-Serif" font-size="10.00">okw.core.EN_OKWNotAllowed</text>
<text text-anchor="start" x="373.5" y="-1048" font-family="Helvetica,sans-Serif" font-size="10.00">ValueException_Test.TC</text>
<text text-anchor="start" x="373.5" y="-1035" font-family="Helvetica,sans-Serif" font-size="10.00">_VerifyIsActive_OKWFrameObjectMethod</text>
<text text-anchor="middle" x="466" y="-1022" font-family="Helvetica,sans-Serif" font-size="10.00">NotFoundException</text>
</a>
</g>
<!-- Node3001&#45;&gt;Node3010 -->
<g id="edge20" class="edge"><title>Node3001&#45;&gt;Node3010</title>
<path fill="none" stroke="midnightblue" d="M254.738,-794.668C263.882,-839.382 291.516,-945.831 356,-1005 359.508,-1008.22 363.3,-1011.18 367.292,-1013.89"/>
<polygon fill="midnightblue" stroke="midnightblue" points="258.143,-793.845 252.8,-784.696 251.272,-795.18 258.143,-793.845"/>
</g>
<!-- Node3011 -->
<g id="node23" class="node"><title>Node3011</title>
<a xlink:href="classokw_1_1_se_button_1_1_se_button___test.html#af6f533131697c1eb5d50be97a424d1b4" target="_top" xlink:title="Test des Schlüsselwortes VerifyIsActive für den GUI&#45;Adapter SeButton. ">
<polygon fill="white" stroke="black" points="400.5,-948.5 400.5,-995.5 531.5,-995.5 531.5,-948.5 400.5,-948.5"/>
<text text-anchor="start" x="408.5" y="-982.5" font-family="Helvetica,sans-Serif" font-size="10.00">okw.SeButton.SeButton</text>
<text text-anchor="start" x="408.5" y="-969.5" font-family="Helvetica,sans-Serif" font-size="10.00">_Test.tcVerifyIsActive</text>
<text text-anchor="middle" x="466" y="-956.5" font-family="Helvetica,sans-Serif" font-size="10.00">_ActiveYESExpectedYES</text>
</a>
</g>
<!-- Node3001&#45;&gt;Node3011 -->
<g id="edge22" class="edge"><title>Node3001&#45;&gt;Node3011</title>
<path fill="none" stroke="midnightblue" d="M258.405,-794.31C272.156,-829.174 304.961,-900.38 356,-939 368.958,-948.805 384.814,-955.712 400.41,-960.572"/>
<polygon fill="midnightblue" stroke="midnightblue" points="261.586,-792.827 254.75,-784.732 255.046,-795.323 261.586,-792.827"/>
</g>
<!-- Node3012 -->
<g id="node25" class="node"><title>Node3012</title>
<a xlink:href="classokw_1_1_se_button_1_1_se_button___test.html#aca027d8d97d7e5ebc5f3310ec6793cfc" target="_top" xlink:title="Test des Schlüsselwortes VerifyIsActive für den GUI&#45;Adapter SeButton. ">
<polygon fill="white" stroke="black" points="403,-882.5 403,-929.5 529,-929.5 529,-882.5 403,-882.5"/>
<text text-anchor="start" x="411" y="-916.5" font-family="Helvetica,sans-Serif" font-size="10.00">okw.SeButton.SeButton</text>
<text text-anchor="start" x="411" y="-903.5" font-family="Helvetica,sans-Serif" font-size="10.00">_Test.tcVerifyIsActive</text>
<text text-anchor="middle" x="466" y="-890.5" font-family="Helvetica,sans-Serif" font-size="10.00">_ActiveYESExpectedNO</text>
</a>
</g>
<!-- Node3001&#45;&gt;Node3012 -->
<g id="edge24" class="edge"><title>Node3001&#45;&gt;Node3012</title>
<path fill="none" stroke="midnightblue" d="M265.725,-792.355C284.459,-814.541 318.87,-851.557 356,-873 370.33,-881.276 386.931,-887.655 402.824,-892.496"/>
<polygon fill="midnightblue" stroke="midnightblue" points="268.412,-790.113 259.339,-784.642 263.02,-794.577 268.412,-790.113"/>
</g>
<!-- Node3013 -->
<g id="node27" class="node"><title>Node3013</title>
<a xlink:href="classokw_1_1_se_button_1_1_se_button___test.html#a1e7d78bb75456e86f187bb39783effb4" target="_top" xlink:title="Test des Schlüsselwortes VerifyIsActive für den GUI&#45;Adapter SeButton. ">
<polygon fill="white" stroke="black" points="405,-816.5 405,-863.5 527,-863.5 527,-816.5 405,-816.5"/>
<text text-anchor="start" x="413" y="-850.5" font-family="Helvetica,sans-Serif" font-size="10.00">okw.SeButton.SeButton</text>
<text text-anchor="start" x="413" y="-837.5" font-family="Helvetica,sans-Serif" font-size="10.00">_Test.tcVerifyIsActive</text>
<text text-anchor="middle" x="466" y="-824.5" font-family="Helvetica,sans-Serif" font-size="10.00">_ActiveNOExpectedNO</text>
</a>
</g>
<!-- Node3001&#45;&gt;Node3013 -->
<g id="edge26" class="edge"><title>Node3001&#45;&gt;Node3013</title>
<path fill="none" stroke="midnightblue" d="M293.666,-787.548C312.723,-793.563 335.468,-800.694 356,-807 371.819,-811.859 388.944,-817.036 404.864,-821.814"/>
<polygon fill="midnightblue" stroke="midnightblue" points="294.659,-784.191 284.069,-784.515 292.549,-790.866 294.659,-784.191"/>
</g>
<!-- Node3014 -->
<g id="node29" class="node"><title>Node3014</title>
<a xlink:href="classokw_1_1_se_button_1_1_se_button___test.html#adbb4363f6902d942176b226543b5cf6a" target="_top" xlink:title="Test des Schlüsselwortes VerifyIsActive für den GUI&#45;Adapter SeButton. ">
<polygon fill="white" stroke="black" points="403,-750.5 403,-797.5 529,-797.5 529,-750.5 403,-750.5"/>
<text text-anchor="start" x="411" y="-784.5" font-family="Helvetica,sans-Serif" font-size="10.00">okw.SeButton.SeButton</text>
<text text-anchor="start" x="411" y="-771.5" font-family="Helvetica,sans-Serif" font-size="10.00">_Test.tcVerifyIsActive</text>
<text text-anchor="middle" x="466" y="-758.5" font-family="Helvetica,sans-Serif" font-size="10.00">_ActiveNOExpectedYES</text>
</a>
</g>
<!-- Node3001&#45;&gt;Node3014 -->
<g id="edge28" class="edge"><title>Node3001&#45;&gt;Node3014</title>
<path fill="none" stroke="midnightblue" d="M330.307,-774C354.184,-774 380.058,-774 402.746,-774"/>
<polygon fill="midnightblue" stroke="midnightblue" points="330.211,-770.5 320.211,-774 330.211,-777.5 330.211,-770.5"/>
</g>
<!-- Node3015 -->
<g id="node31" class="node"><title>Node3015</title>
<a xlink:href="classokw_1_1_se_input_checkbox_1_1_se_input_checkbox___test.html#a702ffb63f0af2c995bd71ca884b0f408" target="_top" xlink:title="Prüft die SetFocusFunktion bei Textfelder mit dem Attribute &quot;ReadOnly&quot;. ">
<polygon fill="white" stroke="black" points="390,-698 390,-732 542,-732 542,-698 390,-698"/>
<text text-anchor="start" x="398" y="-719" font-family="Helvetica,sans-Serif" font-size="10.00">okw.SeInputCheckbox.SeInput</text>
<text text-anchor="middle" x="466" y="-706" font-family="Helvetica,sans-Serif" font-size="10.00">Checkbox_Test.tcSetFocus</text>
</a>
</g>
<!-- Node3001&#45;&gt;Node3015 -->
<g id="edge30" class="edge"><title>Node3001&#45;&gt;Node3015</title>
<path fill="none" stroke="midnightblue" d="M292.207,-760.29C311.487,-754.071 334.819,-746.823 356,-741 367.164,-737.931 379.024,-734.895 390.668,-732.041"/>
<polygon fill="midnightblue" stroke="midnightblue" points="290.956,-757.016 282.527,-763.435 293.119,-763.674 290.956,-757.016"/>
</g>
<!-- Node3016 -->
<g id="node33" class="node"><title>Node3016</title>
<a xlink:href="classokw_1_1_se_input_field_1_1_se_input_field___test.html#ab2da25dabf85279d19799e9fbcaea718" target="_top" xlink:title="Test des Schlüsselwortes &quot;VerifyValue( FN, ExpVal ) für SeInputText. ">
<polygon fill="white" stroke="black" points="399.5,-646 399.5,-680 532.5,-680 532.5,-646 399.5,-646"/>
<text text-anchor="start" x="407.5" y="-667" font-family="Helvetica,sans-Serif" font-size="10.00">okw.SeInputField.SeInput</text>
<text text-anchor="middle" x="466" y="-654" font-family="Helvetica,sans-Serif" font-size="10.00">Field_Test.tcVerifyCaption</text>
</a>
</g>
<!-- Node3001&#45;&gt;Node3016 -->
<g id="edge32" class="edge"><title>Node3001&#45;&gt;Node3016</title>
<path fill="none" stroke="midnightblue" d="M268.119,-755.961C287.588,-736.52 321.212,-706.076 356,-689 369.476,-682.385 384.721,-677.402 399.474,-673.666"/>
<polygon fill="midnightblue" stroke="midnightblue" points="265.417,-753.718 260.911,-763.307 270.413,-758.62 265.417,-753.718"/>
</g>
<!-- Node3017 -->
<g id="node35" class="node"><title>Node3017</title>
<a xlink:href="classokw_1_1_se_input_field_1_1_se_input_field___test.html#aa7612889d0a642c440c6a085e205ac8f" target="_top" xlink:title="okw.SeInputField.SeInput\lField_Test.tcSelect_OKWGUIObject\lNotFoundException">
<polygon fill="white" stroke="black" points="377.5,-580.5 377.5,-627.5 554.5,-627.5 554.5,-580.5 377.5,-580.5"/>
<text text-anchor="start" x="385.5" y="-614.5" font-family="Helvetica,sans-Serif" font-size="10.00">okw.SeInputField.SeInput</text>
<text text-anchor="start" x="385.5" y="-601.5" font-family="Helvetica,sans-Serif" font-size="10.00">Field_Test.tcSelect_OKWGUIObject</text>
<text text-anchor="middle" x="466" y="-588.5" font-family="Helvetica,sans-Serif" font-size="10.00">NotFoundException</text>
</a>
</g>
<!-- Node3001&#45;&gt;Node3017 -->
<g id="edge34" class="edge"><title>Node3001&#45;&gt;Node3017</title>
<path fill="none" stroke="midnightblue" d="M260.896,-754.231C276.837,-724.392 311.021,-668.048 356,-637 362.563,-632.469 369.761,-628.549 377.235,-625.159"/>
<polygon fill="midnightblue" stroke="midnightblue" points="257.71,-752.772 256.2,-763.259 263.92,-756.002 257.71,-752.772"/>
</g>
<!-- Node3018 -->
<g id="node37" class="node"><title>Node3018</title>
<a xlink:href="classokw_1_1_se_input_radio_1_1_se_input_radio___e_n___test.html#a103a3f8f0538a52349d5309f5cfc0a82" target="_top" xlink:title="Test des Schlüsselwortes VerifyIsActive für den GUI&#45;Adapter SeInputRadio. ">
<polygon fill="white" stroke="black" points="384,-514.5 384,-561.5 548,-561.5 548,-514.5 384,-514.5"/>
<text text-anchor="start" x="392" y="-548.5" font-family="Helvetica,sans-Serif" font-size="10.00">okw.SeInputRadio.SeInput</text>
<text text-anchor="start" x="392" y="-535.5" font-family="Helvetica,sans-Serif" font-size="10.00">Radio_EN_Test.tc_VerifyIsActive</text>
<text text-anchor="middle" x="466" y="-522.5" font-family="Helvetica,sans-Serif" font-size="10.00">_ActiveYESExpectedYES</text>
</a>
</g>
<!-- Node3001&#45;&gt;Node3018 -->
<g id="edge36" class="edge"><title>Node3001&#45;&gt;Node3018</title>
<path fill="none" stroke="midnightblue" d="M255.882,-753.399C266.663,-712.429 296.414,-620.425 356,-571 364.21,-564.19 373.793,-558.785 383.816,-554.495"/>
<polygon fill="midnightblue" stroke="midnightblue" points="252.434,-752.757 253.386,-763.309 259.222,-754.466 252.434,-752.757"/>
</g>
<!-- Node3019 -->
<g id="node39" class="node"><title>Node3019</title>
<a xlink:href="classokw_1_1_se_input_radio_1_1_se_input_radio___e_n___test.html#aeafdb24cf304342ae936e3f26fa9a6f8" target="_top" xlink:title="Test des Schlüsselwortes VerifyIsActive für den GUI&#45;Adapter SeInputRadio. ">
<polygon fill="white" stroke="black" points="384,-448.5 384,-495.5 548,-495.5 548,-448.5 384,-448.5"/>
<text text-anchor="start" x="392" y="-482.5" font-family="Helvetica,sans-Serif" font-size="10.00">okw.SeInputRadio.SeInput</text>
<text text-anchor="start" x="392" y="-469.5" font-family="Helvetica,sans-Serif" font-size="10.00">Radio_EN_Test.tc_VerifyIsActive</text>
<text text-anchor="middle" x="466" y="-456.5" font-family="Helvetica,sans-Serif" font-size="10.00">_ActiveYESExpectedNO</text>
</a>
</g>
<!-- Node3001&#45;&gt;Node3019 -->
<g id="edge38" class="edge"><title>Node3001&#45;&gt;Node3019</title>
<path fill="none" stroke="midnightblue" d="M253.004,-753.186C258.964,-702.938 281.13,-574.06 356,-505 364.061,-497.565 373.735,-491.801 383.958,-487.334"/>
<polygon fill="midnightblue" stroke="midnightblue" points="249.491,-753.112 251.889,-763.432 256.45,-753.869 249.491,-753.112"/>
</g>
<!-- Node3020 -->
<g id="node41" class="node"><title>Node3020</title>
<a xlink:href="classokw_1_1_se_input_radio_1_1_se_input_radio___e_n___test.html#a1d4ca06f67bb39c879f1c103dd8d2e65" target="_top" xlink:title="Test des Schlüsselwortes VerifyIsActive für den GUI&#45;Adapter SeInputRadio. ">
<polygon fill="white" stroke="black" points="384,-382.5 384,-429.5 548,-429.5 548,-382.5 384,-382.5"/>
<text text-anchor="start" x="392" y="-416.5" font-family="Helvetica,sans-Serif" font-size="10.00">okw.SeInputRadio.SeInput</text>
<text text-anchor="start" x="392" y="-403.5" font-family="Helvetica,sans-Serif" font-size="10.00">Radio_EN_Test.tc_VerifyIsActive</text>
<text text-anchor="middle" x="466" y="-390.5" font-family="Helvetica,sans-Serif" font-size="10.00">_ActiveNOExpectedNO</text>
</a>
</g>
<!-- Node3001&#45;&gt;Node3020 -->
<g id="edge40" class="edge"><title>Node3001&#45;&gt;Node3020</title>
<path fill="none" stroke="midnightblue" d="M254.869,-753.277C267.545,-687.451 309.681,-484.754 356,-439 363.872,-431.224 373.502,-425.268 383.756,-420.709"/>
<polygon fill="midnightblue" stroke="midnightblue" points="251.398,-752.793 252.969,-763.271 258.275,-754.1 251.398,-752.793"/>
</g>
<!-- Node3021 -->
<g id="node43" class="node"><title>Node3021</title>
<a xlink:href="classokw_1_1_se_input_radio_1_1_se_input_radio___e_n___test.html#ac58cbe6fdf4024220f5e0fa62fb4cdc2" target="_top" xlink:title="Test des Schlüsselwortes VerifyIsActive für den GUI&#45;Adapter SeInputRadio. ">
<polygon fill="white" stroke="black" points="384,-316.5 384,-363.5 548,-363.5 548,-316.5 384,-316.5"/>
<text text-anchor="start" x="392" y="-350.5" font-family="Helvetica,sans-Serif" font-size="10.00">okw.SeInputRadio.SeInput</text>
<text text-anchor="start" x="392" y="-337.5" font-family="Helvetica,sans-Serif" font-size="10.00">Radio_EN_Test.tc_VerifyIsActive</text>
<text text-anchor="middle" x="466" y="-324.5" font-family="Helvetica,sans-Serif" font-size="10.00">_ActiveNOExpectedYES</text>
</a>
</g>
<!-- Node3001&#45;&gt;Node3021 -->
<g id="edge42" class="edge"><title>Node3001&#45;&gt;Node3021</title>
<path fill="none" stroke="midnightblue" d="M253.744,-753.179C263.914,-679.032 301.687,-429.269 356,-373 363.823,-364.895 373.552,-358.76 383.963,-354.12"/>
<polygon fill="midnightblue" stroke="midnightblue" points="250.266,-752.782 252.398,-763.16 257.203,-753.718 250.266,-752.782"/>
</g>
<!-- Node3022 -->
<g id="node45" class="node"><title>Node3022</title>
<a xlink:href="classokw_1_1_se_link_1_1_se_link___e_n___test.html#a0d7cb7adb422a225193c319cbe82de54" target="_top" xlink:title="Prüft ob die VerifyIsActive die Ausnahme OKWFrameObjectMethodNotImplemented auslöst. ">
<polygon fill="white" stroke="black" points="401,-264 401,-298 531,-298 531,-264 401,-264"/>
<text text-anchor="start" x="409" y="-285" font-family="Helvetica,sans-Serif" font-size="10.00">okw.SeLink.SeLink_EN</text>
<text text-anchor="middle" x="466" y="-272" font-family="Helvetica,sans-Serif" font-size="10.00">_Test.tcVerifyIsActive_en</text>
</a>
</g>
<!-- Node3001&#45;&gt;Node3022 -->
<g id="edge44" class="edge"><title>Node3001&#45;&gt;Node3022</title>
<path fill="none" stroke="midnightblue" d="M252.768,-753.444C260.198,-671.86 291.536,-372.174 356,-307 367.937,-294.932 384.366,-288.051 400.888,-284.229"/>
<polygon fill="midnightblue" stroke="midnightblue" points="249.277,-753.19 251.877,-763.461 256.249,-753.811 249.277,-753.19"/>
</g>
<!-- Node3023 -->
<g id="node47" class="node"><title>Node3023</title>
<a xlink:href="classokw_1_1_se_radio_list_1_1_se_radio_list___test.html#a133028f77ffe440a68981a2f9758ef2d" target="_top" xlink:title="Prüft die Methode SeRadioList.IsActive(). ">
<polygon fill="white" stroke="black" points="388.5,-198.5 388.5,-245.5 543.5,-245.5 543.5,-198.5 388.5,-198.5"/>
<text text-anchor="start" x="396.5" y="-232.5" font-family="Helvetica,sans-Serif" font-size="10.00">okw.SeRadioList.SeRadioList</text>
<text text-anchor="start" x="396.5" y="-219.5" font-family="Helvetica,sans-Serif" font-size="10.00">_Test.tcVerifyIsActive_IsActive</text>
<text text-anchor="middle" x="466" y="-206.5" font-family="Helvetica,sans-Serif" font-size="10.00">YesExpectedYes</text>
</a>
</g>
<!-- Node3001&#45;&gt;Node3023 -->
<g id="edge46" class="edge"><title>Node3001&#45;&gt;Node3023</title>
<path fill="none" stroke="midnightblue" d="M252.403,-753.261C258.706,-666.099 287.154,-330.478 356,-255 364.734,-245.425 376.124,-238.585 388.258,-233.708"/>
<polygon fill="midnightblue" stroke="midnightblue" points="248.911,-753.027 251.701,-763.248 255.894,-753.518 248.911,-753.027"/>
</g>
<!-- Node3024 -->
<g id="node49" class="node"><title>Node3024</title>
<a xlink:href="classokw_1_1_se_radio_list_1_1_se_radio_list___test.html#a7339c15de6f1876fb0ae4fd47bb6b7da" target="_top" xlink:title="Prüft die Methode SeRadioList.IsActive(). ">
<polygon fill="white" stroke="black" points="388.5,-132.5 388.5,-179.5 543.5,-179.5 543.5,-132.5 388.5,-132.5"/>
<text text-anchor="start" x="396.5" y="-166.5" font-family="Helvetica,sans-Serif" font-size="10.00">okw.SeRadioList.SeRadioList</text>
<text text-anchor="start" x="396.5" y="-153.5" font-family="Helvetica,sans-Serif" font-size="10.00">_Test.tcVerifyIsActive_IsActive</text>
<text text-anchor="middle" x="466" y="-140.5" font-family="Helvetica,sans-Serif" font-size="10.00">NoExpectedNo</text>
</a>
</g>
<!-- Node3001&#45;&gt;Node3024 -->
<g id="edge48" class="edge"><title>Node3001&#45;&gt;Node3024</title>
<path fill="none" stroke="midnightblue" d="M251.896,-753.096C256.345,-658.966 279.012,-275.294 356,-189 364.694,-179.255 376.14,-172.337 388.361,-167.436"/>
<polygon fill="midnightblue" stroke="midnightblue" points="248.389,-753.172 251.432,-763.321 255.382,-753.49 248.389,-753.172"/>
</g>
<!-- Node3025 -->
<g id="node51" class="node"><title>Node3025</title>
<a xlink:href="classokw_1_1_se_radio_list_1_1_se_radio_list___test.html#a3e0a061c3f6659edab79f06915ce21cc" target="_top" xlink:title="Prüft die Methode SeRadioList.IsActive(). ">
<polygon fill="white" stroke="black" points="356,-66.5 356,-113.5 576,-113.5 576,-66.5 356,-66.5"/>
<text text-anchor="start" x="364" y="-100.5" font-family="Helvetica,sans-Serif" font-size="10.00">okw.SeRadioList.SeRadioList</text>
<text text-anchor="start" x="364" y="-87.5" font-family="Helvetica,sans-Serif" font-size="10.00">_Test.tcVerifyIsActive_IsActive</text>
<text text-anchor="middle" x="466" y="-74.5" font-family="Helvetica,sans-Serif" font-size="10.00">YesExpectedNo_OKWVerifyingFailsException</text>
</a>
</g>
<!-- Node3001&#45;&gt;Node3025 -->
<g id="edge50" class="edge"><title>Node3001&#45;&gt;Node3025</title>
<path fill="none" stroke="midnightblue" d="M251.482,-753.014C254.213,-652.39 270.812,-220.202 356,-123 359.022,-119.551 362.39,-116.456 366.016,-113.678"/>
<polygon fill="midnightblue" stroke="midnightblue" points="247.981,-753.046 251.225,-763.132 254.978,-753.224 247.981,-753.046"/>
</g>
<!-- Node3026 -->
<g id="node53" class="node"><title>Node3026</title>
<a xlink:href="classokw_1_1_se_radio_list_1_1_se_radio_list___test.html#aedf891f816ba5216beb96f6e160a384b" target="_top" xlink:title="Prüft die Methode SeRadioList.IsActive(). ">
<polygon fill="white" stroke="black" points="356,-0.5 356,-47.5 576,-47.5 576,-0.5 356,-0.5"/>
<text text-anchor="start" x="364" y="-34.5" font-family="Helvetica,sans-Serif" font-size="10.00">okw.SeRadioList.SeRadioList</text>
<text text-anchor="start" x="364" y="-21.5" font-family="Helvetica,sans-Serif" font-size="10.00">_Test.tcVerifyIsActive_IsActive</text>
<text text-anchor="middle" x="466" y="-8.5" font-family="Helvetica,sans-Serif" font-size="10.00">NoExpectedYes_OKWVerifyingFailsException</text>
</a>
</g>
<!-- Node3001&#45;&gt;Node3026 -->
<g id="edge52" class="edge"><title>Node3001&#45;&gt;Node3026</title>
<path fill="none" stroke="midnightblue" d="M252.7,-753.412C262.095,-641.718 308.945,-111.483 356,-57 358.997,-53.5294 362.344,-50.4161 365.953,-47.6239"/>
<polygon fill="midnightblue" stroke="midnightblue" points="249.21,-753.147 251.866,-763.403 256.186,-753.729 249.21,-753.147"/>
</g>
</g>
</svg>
        <g id="navigator" transform="translate(0 0)" fill="#404254">
                <rect fill="#f2f5e9" fill-opacity="0.5" stroke="#606060" stroke-width=".5" x="0" y="0" width="60" height="60"/>
                <use id="zoomplus" xlink:href="#zoomPlus" x="17" y="9" onmousedown="handleZoom(evt,'in')"/>
                <use id="zoomminus" xlink:href="#zoomMin" x="42" y="9" onmousedown="handleZoom(evt,'out')"/>
                <use id="reset" xlink:href="#resetDef" x="30" y="36" onmousedown="handleReset()"/>
                <g id="arrowUp" xlink:href="#dirArrow" transform="translate(30 24)" onmousedown="handlePan(0,-1)">
                  <use xlink:href="#rim" fill="#404040">
                        <set attributeName="fill" to="#808080" begin="arrowUp.mouseover" end="arrowUp.mouseout"/>
                  </use>
                  <path fill="none" stroke="white" stroke-width="1.5" d="M0,-3.0v7 M-2.5,-0.5L0,-3.0L2.5,-0.5"/>
                </g>
                <g id="arrowRight" xlink:href="#dirArrow" transform="rotate(90) translate(36 -43)" onmousedown="handlePan(1,0)">
                  <use xlink:href="#rim" fill="#404040">
                        <set attributeName="fill" to="#808080" begin="arrowRight.mouseover" end="arrowRight.mouseout"/>
                  </use>
                  <path fill="none" stroke="white" stroke-width="1.5" d="M0,-3.0v7 M-2.5,-0.5L0,-3.0L2.5,-0.5"/>
                </g>
                <g id="arrowDown" xlink:href="#dirArrow" transform="rotate(180) translate(-30 -48)" onmousedown="handlePan(0,1)">
                  <use xlink:href="#rim" fill="#404040">
                        <set attributeName="fill" to="#808080" begin="arrowDown.mouseover" end="arrowDown.mouseout"/>
                  </use>
                  <path fill="none" stroke="white" stroke-width="1.5" d="M0,-3.0v7 M-2.5,-0.5L0,-3.0L2.5,-0.5"/>
                </g>
                <g id="arrowLeft" xlink:href="#dirArrow" transform="rotate(270) translate(-36 17)" onmousedown="handlePan(-1,0)">
                  <use xlink:href="#rim" fill="#404040">
                        <set attributeName="fill" to="#808080" begin="arrowLeft.mouseover" end="arrowLeft.mouseout"/>
                  </use>
                  <path fill="none" stroke="white" stroke-width="1.5" d="M0,-3.0v7 M-2.5,-0.5L0,-3.0L2.5,-0.5"/>
                </g>
        </g>
        <svg viewBox="0 0 15 15" width="100%" height="30px" preserveAspectRatio="xMaxYMin meet">
         <g id="arrow_out" transform="scale(0.3 0.3)">
          <a xlink:href="classokw_1_1core_1_1_core_af9261f054d5a82396c678851ade66b1b_icgraph_org.svg" target="_base">
           <rect id="button" ry="5" rx="5" y="6" x="6" height="38" width="38"
                fill="#f2f5e9" fill-opacity="0.5" stroke="#606060" stroke-width="1.0"/>
           <path id="arrow"
             d="M 11.500037,31.436501 C 11.940474,20.09759 22.043105,11.32322 32.158766,21.979434 L 37.068811,17.246167 C 37.068811,17.246167 37.088388,32 37.088388,32 L 22.160133,31.978069 C 22.160133,31.978069 26.997745,27.140456 26.997745,27.140456 C 18.528582,18.264221 13.291696,25.230495 11.500037,31.436501 z"
             style="fill:#404040;"/>
          </a>
         </g>
        </svg>
</svg>
