<?xml version="1.0" encoding="UTF-8" standalone="no"?>
<!DOCTYPE svg PUBLIC "-//W3C//DTD SVG 1.1//EN"
 "http://www.w3.org/Graphics/SVG/1.1/DTD/svg11.dtd">
<!-- Generated by graphviz version 2.26.3 (20100126.1600)
 -->
<!-- Title: okw.core.EN.MemorizeValue Pages: 1 -->
<!--zoomable 174 -->
<svg id="main" version="1.1" xmlns="http://www.w3.org/2000/svg" xmlns:xlink="http://www.w3.org/1999/xlink" xml:space="preserve" onload="init(evt)">
<style type="text/css"><![CDATA[
.edge:hover path { stroke: red; }
.edge:hover polygon { stroke: red; fill: red; }
]]></style>
<script type="text/javascript"><![CDATA[
var edges = document.getElementsByTagName('g');
if (edges && edges.length) {
  for (var i=0;i<edges.length;i++) {
    if (edges[i].id.substr(0,4)=='edge') {
      edges[i].setAttribute('class','edge');
    }
  }
}
]]></script>
        <defs>
                <circle id="rim" cx="0" cy="0" r="7"/>
                <circle id="rim2" cx="0" cy="0" r="3.5"/>
                <g id="zoomPlus">
                        <use xlink:href="#rim" fill="#404040">
                                <set attributeName="fill" to="#808080" begin="zoomplus.mouseover" end="zoomplus.mouseout"/>
                        </use>
                        <path d="M-4,0h8M0,-4v8" fill="none" stroke="white" stroke-width="1.5" pointer-events="none"/>
                </g>
                <g id="zoomMin">
                        <use xlink:href="#rim" fill="#404040">
                                <set attributeName="fill" to="#808080" begin="zoomminus.mouseover" end="zoomminus.mouseout"/>
                        </use>
                        <path d="M-4,0h8" fill="none" stroke="white" stroke-width="1.5" pointer-events="none"/>
                </g>
                <g id="dirArrow">
                        <path fill="none" stroke="white" stroke-width="1.5" d="M0,-3.0v7 M-2.5,-0.5L0,-3.0L2.5,-0.5"/>
                </g>
               <g id="resetDef">
                       <use xlink:href="#rim2" fill="#404040">
                               <set attributeName="fill" to="#808080" begin="reset.mouseover" end="reset.mouseout"/>
                       </use>
               </g>
        </defs>

<script type="text/javascript">
var viewWidth = 942;
var viewHeight = 174;
var sectionId = 'dynsection-22';
</script>
<script xlink:href="svgpan.js"/>
<svg id="graph" class="graph">
<g id="viewport">
<title>okw.core.EN.MemorizeValue</title>
<polygon fill="white" stroke="white" points="-4,5 -4,-170 939,-170 939,5 -4,5"/>
<!-- Node203 -->
<g id="node1" class="node"><title>Node203</title>
<polygon fill="#bfbfbf" stroke="black" points="0,-98.5 0,-119.5 144,-119.5 144,-98.5 0,-98.5"/>
<text text-anchor="middle" x="72" y="-106.5" font-family="Helvetica,sans-Serif" font-size="10.00">okw.core.EN.MemorizeValue</text>
</g>
<!-- Node204 -->
<g id="node3" class="node"><title>Node204</title>
<a xlink:href="classokw_1_1core_1_1_core.html#ab4e0f723d27cb11c944ec4c82c426100" target="_top" xlink:title="Setzt die Sprache auf den gegebenen wert Language. ">
<polygon fill="white" stroke="black" points="186.5,-131.5 186.5,-152.5 325.5,-152.5 325.5,-131.5 186.5,-131.5"/>
<text text-anchor="middle" x="256" y="-139.5" font-family="Helvetica,sans-Serif" font-size="10.00">okw.core.Core.setLanguage</text>
</a>
</g>
<!-- Node203&#45;&gt;Node204 -->
<g id="edge2" class="edge"><title>Node203&#45;&gt;Node204</title>
<path fill="none" stroke="midnightblue" d="M130.725,-119.532C148.733,-122.762 168.708,-126.344 187.319,-129.682"/>
<polygon fill="midnightblue" stroke="midnightblue" points="186.741,-133.134 197.202,-131.455 187.977,-126.244 186.741,-133.134"/>
</g>
<!-- Node206 -->
<g id="node7" class="node"><title>Node206</title>
<a xlink:href="classokw_1_1core_1_1_core.html#ac8440162926bfc169ee483bd7f860117" target="_top" xlink:title="Merkt sich den Standartwert eines Objekts. ">
<polygon fill="white" stroke="black" points="180.5,-65.5 180.5,-86.5 331.5,-86.5 331.5,-65.5 180.5,-65.5"/>
<text text-anchor="middle" x="256" y="-73.5" font-family="Helvetica,sans-Serif" font-size="10.00">okw.core.Core.MemorizeValue</text>
</a>
</g>
<!-- Node203&#45;&gt;Node206 -->
<g id="edge6" class="edge"><title>Node203&#45;&gt;Node206</title>
<path fill="none" stroke="midnightblue" d="M130.725,-98.4679C148.733,-95.2381 168.708,-91.6557 187.319,-88.3178"/>
<polygon fill="midnightblue" stroke="midnightblue" points="187.977,-91.7557 197.202,-86.5453 186.741,-84.8656 187.977,-91.7557"/>
</g>
<!-- Node205 -->
<g id="node5" class="node"><title>Node205</title>
<a xlink:href="interfaceokw_1_1core_1_1_i_o_k_w___state.html#a866baa0bde08a47418f54d63bdb56097" target="_top" xlink:title="Interne Methode zum setzen der Sprache f체r die sprachabh채ngigen Ausgaben der Dokumentation (Log)...">
<polygon fill="white" stroke="black" points="368.5,-144.5 368.5,-165.5 541.5,-165.5 541.5,-144.5 368.5,-144.5"/>
<text text-anchor="middle" x="455" y="-152.5" font-family="Helvetica,sans-Serif" font-size="10.00">okw.core.IOKW_State.setLanguage</text>
</a>
</g>
<!-- Node204&#45;&gt;Node205 -->
<g id="edge4" class="edge"><title>Node204&#45;&gt;Node205</title>
<path fill="none" stroke="midnightblue" d="M325.601,-146.547C336.155,-147.236 347.205,-147.958 358.211,-148.677"/>
<polygon fill="midnightblue" stroke="midnightblue" points="358.083,-152.176 368.29,-149.336 358.54,-145.191 358.083,-152.176"/>
</g>
<!-- Node207 -->
<g id="node9" class="node"><title>Node207</title>
<a xlink:href="classokw_1_1log_1_1_logger___sngltn.html#a70ec25e200e00ecefc544e8fd371d2ef" target="_top" xlink:title="Ausgabe eines Schl체sselwortes. ">
<polygon fill="white" stroke="black" points="388,-92 388,-126 522,-126 522,-92 388,-92"/>
<text text-anchor="start" x="396" y="-113" font-family="Helvetica,sans-Serif" font-size="10.00">okw.log.Logger_Sngltn.Log</text>
<text text-anchor="middle" x="455" y="-100" font-family="Helvetica,sans-Serif" font-size="10.00">KeyWordStart</text>
</a>
</g>
<!-- Node206&#45;&gt;Node207 -->
<g id="edge8" class="edge"><title>Node206&#45;&gt;Node207</title>
<path fill="none" stroke="midnightblue" d="M319.512,-86.5321C338.11,-89.6162 358.646,-93.0217 377.986,-96.2289"/>
<polygon fill="midnightblue" stroke="midnightblue" points="377.537,-99.702 387.974,-97.8852 378.682,-92.7963 377.537,-99.702"/>
</g>
<!-- Node208 -->
<g id="node11" class="node"><title>Node208</title>
<a xlink:href="classokw_1_1_log_messenger.html#af225d1f037d47b3b085175c09d78bdd2" target="_top" xlink:title="Holt die Log&#45;Meldung f체r MethodeNmae/Textkey ohne weitere Parameter. ">
<polygon fill="white" stroke="black" points="375,-52.5 375,-73.5 535,-73.5 535,-52.5 375,-52.5"/>
<text text-anchor="middle" x="455" y="-60.5" font-family="Helvetica,sans-Serif" font-size="10.00">okw.LogMessenger.GetMessage</text>
</a>
</g>
<!-- Node206&#45;&gt;Node208 -->
<g id="edge10" class="edge"><title>Node206&#45;&gt;Node208</title>
<path fill="none" stroke="midnightblue" d="M331.517,-71.0667C342.377,-70.3573 353.641,-69.6214 364.751,-68.8957"/>
<polygon fill="midnightblue" stroke="midnightblue" points="365.144,-72.3776 374.894,-68.233 364.687,-65.3925 365.144,-72.3776"/>
</g>
<!-- Node211 -->
<g id="node17" class="node"><title>Node211</title>
<a xlink:href="interfaceokw_1_1core_1_1_i_o_k_w___state.html#aa48a3de07623a93fc0b4d68629dd0887" target="_top" xlink:title="Merkt sich den Standartwert eines Objekts. ">
<polygon fill="white" stroke="black" points="374.5,-0 374.5,-34 535.5,-34 535.5,-0 374.5,-0"/>
<text text-anchor="start" x="382.5" y="-21" font-family="Helvetica,sans-Serif" font-size="10.00">okw.core.IOKW_State.Memorize</text>
<text text-anchor="middle" x="455" y="-8" font-family="Helvetica,sans-Serif" font-size="10.00">Value</text>
</a>
</g>
<!-- Node206&#45;&gt;Node211 -->
<g id="edge16" class="edge"><title>Node206&#45;&gt;Node211</title>
<path fill="none" stroke="midnightblue" d="M291.577,-65.452C318.223,-57.552 355.475,-46.5073 387.685,-36.9578"/>
<polygon fill="midnightblue" stroke="midnightblue" points="388.909,-40.2455 397.501,-34.0473 386.919,-33.5343 388.909,-40.2455"/>
</g>
<!-- Node209 -->
<g id="node13" class="node"><title>Node209</title>
<a xlink:href="classokw_1_1_log_messenger.html#a530cd6ab82ec82a04206a2e976ec06e3" target="_top" xlink:title="Interne Kernfunktion holt die Log&#45;Meldung mit Platzhaltern aus der XML&#45;Datei. ">
<polygon fill="white" stroke="black" points="578.5,-52.5 578.5,-73.5 745.5,-73.5 745.5,-52.5 578.5,-52.5"/>
<text text-anchor="middle" x="662" y="-60.5" font-family="Helvetica,sans-Serif" font-size="10.00">okw.LogMessenger.ReadMessage</text>
</a>
</g>
<!-- Node208&#45;&gt;Node209 -->
<g id="edge12" class="edge"><title>Node208&#45;&gt;Node209</title>
<path fill="none" stroke="midnightblue" d="M535.032,-63C545.92,-63 557.173,-63 568.276,-63"/>
<polygon fill="midnightblue" stroke="midnightblue" points="568.415,-66.5001 578.415,-63 568.415,-59.5001 568.415,-66.5001"/>
</g>
<!-- Node210 -->
<g id="node15" class="node"><title>Node210</title>
<a xlink:href="classokw_1_1_o_k_w___xml_reader.html#ab920b5335a2e1429c14cc5f8e79f39eb" target="_top" xlink:title="Lies den TextContent eines Tag. ">
<polygon fill="white" stroke="black" points="782,-46 782,-80 934,-80 934,-46 782,-46"/>
<text text-anchor="start" x="790" y="-67" font-family="Helvetica,sans-Serif" font-size="10.00">okw.OKW_XmlReader.getText</text>
<text text-anchor="middle" x="858" y="-54" font-family="Helvetica,sans-Serif" font-size="10.00">ContentSingleValue</text>
</a>
</g>
<!-- Node209&#45;&gt;Node210 -->
<g id="edge14" class="edge"><title>Node209&#45;&gt;Node210</title>
<path fill="none" stroke="midnightblue" d="M745.69,-63C754.29,-63 763.041,-63 771.669,-63"/>
<polygon fill="midnightblue" stroke="midnightblue" points="771.725,-66.5001 781.725,-63 771.725,-59.5001 771.725,-66.5001"/>
</g>
</g>
</svg>
        <g id="navigator" transform="translate(0 0)" fill="#404254">
                <rect fill="#f2f5e9" fill-opacity="0.5" stroke="#606060" stroke-width=".5" x="0" y="0" width="60" height="60"/>
                <use id="zoomplus" xlink:href="#zoomPlus" x="17" y="9" onmousedown="handleZoom(evt,'in')"/>
                <use id="zoomminus" xlink:href="#zoomMin" x="42" y="9" onmousedown="handleZoom(evt,'out')"/>
                <use id="reset" xlink:href="#resetDef" x="30" y="36" onmousedown="handleReset()"/>
                <g id="arrowUp" xlink:href="#dirArrow" transform="translate(30 24)" onmousedown="handlePan(0,-1)">
                  <use xlink:href="#rim" fill="#404040">
                        <set attributeName="fill" to="#808080" begin="arrowUp.mouseover" end="arrowUp.mouseout"/>
                  </use>
                  <path fill="none" stroke="white" stroke-width="1.5" d="M0,-3.0v7 M-2.5,-0.5L0,-3.0L2.5,-0.5"/>
                </g>
                <g id="arrowRight" xlink:href="#dirArrow" transform="rotate(90) translate(36 -43)" onmousedown="handlePan(1,0)">
                  <use xlink:href="#rim" fill="#404040">
                        <set attributeName="fill" to="#808080" begin="arrowRight.mouseover" end="arrowRight.mouseout"/>
                  </use>
                  <path fill="none" stroke="white" stroke-width="1.5" d="M0,-3.0v7 M-2.5,-0.5L0,-3.0L2.5,-0.5"/>
                </g>
                <g id="arrowDown" xlink:href="#dirArrow" transform="rotate(180) translate(-30 -48)" onmousedown="handlePan(0,1)">
                  <use xlink:href="#rim" fill="#404040">
                        <set attributeName="fill" to="#808080" begin="arrowDown.mouseover" end="arrowDown.mouseout"/>
                  </use>
                  <path fill="none" stroke="white" stroke-width="1.5" d="M0,-3.0v7 M-2.5,-0.5L0,-3.0L2.5,-0.5"/>
                </g>
                <g id="arrowLeft" xlink:href="#dirArrow" transform="rotate(270) translate(-36 17)" onmousedown="handlePan(-1,0)">
                  <use xlink:href="#rim" fill="#404040">
                        <set attributeName="fill" to="#808080" begin="arrowLeft.mouseover" end="arrowLeft.mouseout"/>
                  </use>
                  <path fill="none" stroke="white" stroke-width="1.5" d="M0,-3.0v7 M-2.5,-0.5L0,-3.0L2.5,-0.5"/>
                </g>
        </g>
        <svg viewBox="0 0 15 15" width="100%" height="30px" preserveAspectRatio="xMaxYMin meet">
         <g id="arrow_out" transform="scale(0.3 0.3)">
          <a xlink:href="classokw_1_1core_1_1_e_n_a443ae129e7d12b082d0555c597d1425d_cgraph_org.svg" target="_base">
           <rect id="button" ry="5" rx="5" y="6" x="6" height="38" width="38"
                fill="#f2f5e9" fill-opacity="0.5" stroke="#606060" stroke-width="1.0"/>
           <path id="arrow"
             d="M 11.500037,31.436501 C 11.940474,20.09759 22.043105,11.32322 32.158766,21.979434 L 37.068811,17.246167 C 37.068811,17.246167 37.088388,32 37.088388,32 L 22.160133,31.978069 C 22.160133,31.978069 26.997745,27.140456 26.997745,27.140456 C 18.528582,18.264221 13.291696,25.230495 11.500037,31.436501 z"
             style="fill:#404040;"/>
          </a>
         </g>
        </svg>
</svg>
