<?xml version="1.0" encoding="UTF-8" standalone="no"?>
<!DOCTYPE svg PUBLIC "-//W3C//DTD SVG 1.1//EN"
 "http://www.w3.org/Graphics/SVG/1.1/DTD/svg11.dtd">
<!-- Generated by graphviz version 2.38.0 (20140413.2041)
 -->
<!-- Title: okw.core.EN.MemorizeCaption Pages: 1 -->
<svg width="992pt" height="166pt"
 viewBox="0.00 0.00 992.00 165.50" xmlns="http://www.w3.org/2000/svg" xmlns:xlink="http://www.w3.org/1999/xlink">
<g id="graph0" class="graph" transform="scale(1 1) rotate(0) translate(4 161.5)">
<title>okw.core.EN.MemorizeCaption</title>
<polygon fill="white" stroke="none" points="-4,4 -4,-161.5 988,-161.5 988,4 -4,4"/>
<!-- Node1090 -->
<g id="node1" class="node"><title>Node1090</title>
<g id="a_node1"><a xlink:title="Keine Beschreibung zu &quot;MemorizeCaption&quot; verfügbar.">
<polygon fill="#bfbfbf" stroke="black" points="0,-93 0,-112 161,-112 161,-93 0,-93"/>
<text text-anchor="middle" x="80.5" y="-100" font-family="Helvetica,sans-Serif" font-size="10.00">okw.core.EN.MemorizeCaption</text>
</a>
</g>
</g>
<!-- Node1091 -->
<g id="node2" class="node"><title>Node1091</title>
<g id="a_node2"><a xlink:href="classokw_1_1core_1_1_core.html#ab4e0f723d27cb11c944ec4c82c426100" target="_top" xlink:title="Setzt die Sprache auf den gegebenen wert Language.">
<polygon fill="white" stroke="black" points="207.5,-125 207.5,-144 356.5,-144 356.5,-125 207.5,-125"/>
<text text-anchor="middle" x="282" y="-132" font-family="Helvetica,sans-Serif" font-size="10.00">okw.core.Core.setLanguage</text>
</a>
</g>
</g>
<!-- Node1090&#45;&gt;Node1091 -->
<g id="edge1" class="edge"><title>Node1090&#45;&gt;Node1091</title>
<path fill="none" stroke="midnightblue" d="M140.816,-112.014C163.028,-115.577 188.459,-119.656 211.509,-123.354"/>
<polygon fill="midnightblue" stroke="midnightblue" points="211.139,-126.839 221.568,-124.967 212.248,-119.927 211.139,-126.839"/>
</g>
<!-- Node1093 -->
<g id="node4" class="node"><title>Node1093</title>
<g id="a_node4"><a xlink:href="classokw_1_1core_1_1_core.html#a45d00018ce652231985a88ca26d34da7" target="_top" xlink:title="Keine Beschreibung zu &quot;MemorizeCaption&quot; verfügbar.">
<polygon fill="white" stroke="black" points="197,-62 197,-81 367,-81 367,-62 197,-62"/>
<text text-anchor="middle" x="282" y="-69" font-family="Helvetica,sans-Serif" font-size="10.00">okw.core.Core.MemorizeCaption</text>
</a>
</g>
</g>
<!-- Node1090&#45;&gt;Node1093 -->
<g id="edge3" class="edge"><title>Node1090&#45;&gt;Node1093</title>
<path fill="none" stroke="midnightblue" d="M142.712,-92.9883C163.869,-89.7008 187.759,-85.9886 209.656,-82.586"/>
<polygon fill="midnightblue" stroke="midnightblue" points="210.216,-86.0412 219.56,-81.0471 209.141,-79.1242 210.216,-86.0412"/>
</g>
<!-- Node1092 -->
<g id="node3" class="node"><title>Node1092</title>
<g id="a_node3"><a xlink:href="interfaceokw_1_1core_1_1_i_o_k_w___state.html#a866baa0bde08a47418f54d63bdb56097" target="_top" xlink:title="Interne Methode zum setzen der Sprache für die sprachabhängigen Ausgaben der Dokumentation (Log).">
<polygon fill="white" stroke="black" points="403,-138 403,-157 585,-157 585,-138 403,-138"/>
<text text-anchor="middle" x="494" y="-145" font-family="Helvetica,sans-Serif" font-size="10.00">okw.core.IOKW_State.setLanguage</text>
</a>
</g>
</g>
<!-- Node1091&#45;&gt;Node1092 -->
<g id="edge2" class="edge"><title>Node1091&#45;&gt;Node1092</title>
<path fill="none" stroke="midnightblue" d="M356.743,-139.065C368.376,-139.785 380.573,-140.54 392.687,-141.29"/>
<polygon fill="midnightblue" stroke="midnightblue" points="392.631,-144.793 402.828,-141.918 393.064,-137.807 392.631,-144.793"/>
</g>
<!-- Node1094 -->
<g id="node5" class="node"><title>Node1094</title>
<g id="a_node5"><a xlink:href="classokw_1_1log_1_1_logger___sngltn.html#a70ec25e200e00ecefc544e8fd371d2ef" target="_top" xlink:title="Ausgabe eines Schlüsselwortes.">
<polygon fill="white" stroke="black" points="422.5,-88.5 422.5,-118.5 565.5,-118.5 565.5,-88.5 422.5,-88.5"/>
<text text-anchor="start" x="430.5" y="-106.5" font-family="Helvetica,sans-Serif" font-size="10.00">okw.log.Logger_Sngltn.Log</text>
<text text-anchor="middle" x="494" y="-95.5" font-family="Helvetica,sans-Serif" font-size="10.00">KeyWordStart</text>
</a>
</g>
</g>
<!-- Node1093&#45;&gt;Node1094 -->
<g id="edge4" class="edge"><title>Node1093&#45;&gt;Node1094</title>
<path fill="none" stroke="midnightblue" d="M345.438,-81.0144C366.407,-84.2097 390.103,-87.8204 412.271,-91.1984"/>
<polygon fill="midnightblue" stroke="midnightblue" points="411.92,-94.6853 422.333,-92.7318 412.975,-87.7652 411.92,-94.6853"/>
</g>
<!-- Node1095 -->
<g id="node6" class="node"><title>Node1095</title>
<g id="a_node6"><a xlink:href="classokw_1_1_log_messenger.html#af225d1f037d47b3b085175c09d78bdd2" target="_top" xlink:title="Holt die Log&#45;Meldung für MethodeNmae/Textkey ohne weitere Parameter.">
<polygon fill="white" stroke="black" points="409.5,-50 409.5,-69 578.5,-69 578.5,-50 409.5,-50"/>
<text text-anchor="middle" x="494" y="-57" font-family="Helvetica,sans-Serif" font-size="10.00">okw.LogMessenger.GetMessage</text>
</a>
</g>
</g>
<!-- Node1093&#45;&gt;Node1095 -->
<g id="edge5" class="edge"><title>Node1093&#45;&gt;Node1095</title>
<path fill="none" stroke="midnightblue" d="M367.205,-66.6883C377.755,-66.0854 388.596,-65.4659 399.28,-64.8554"/>
<polygon fill="midnightblue" stroke="midnightblue" points="399.676,-68.3386 409.46,-64.2737 399.277,-61.35 399.676,-68.3386"/>
</g>
<!-- Node1098 -->
<g id="node9" class="node"><title>Node1098</title>
<g id="a_node9"><a xlink:href="interfaceokw_1_1core_1_1_i_o_k_w___state.html#af8e1a17d61642cdb29d6c4e95200c275" target="_top" xlink:title="Keine Beschreibung zu &quot;MemorizeCaption&quot; verfügbar.">
<polygon fill="white" stroke="black" points="410.5,-0.5 410.5,-30.5 577.5,-30.5 577.5,-0.5 410.5,-0.5"/>
<text text-anchor="start" x="418.5" y="-18.5" font-family="Helvetica,sans-Serif" font-size="10.00">okw.core.IOKW_State.Memorize</text>
<text text-anchor="middle" x="494" y="-7.5" font-family="Helvetica,sans-Serif" font-size="10.00">Caption</text>
</a>
</g>
</g>
<!-- Node1093&#45;&gt;Node1098 -->
<g id="edge8" class="edge"><title>Node1093&#45;&gt;Node1098</title>
<path fill="none" stroke="midnightblue" d="M319.1,-61.8733C348.578,-54.0125 391.027,-42.6928 426.606,-33.2051"/>
<polygon fill="midnightblue" stroke="midnightblue" points="427.682,-36.5406 436.442,-30.5821 425.878,-29.777 427.682,-36.5406"/>
</g>
<!-- Node1096 -->
<g id="node7" class="node"><title>Node1096</title>
<g id="a_node7"><a xlink:href="classokw_1_1_log_messenger.html#a530cd6ab82ec82a04206a2e976ec06e3" target="_top" xlink:title="Interne Kernfunktion holt die Log&#45;Meldung mit Platzhaltern aus der XML&#45;Datei.">
<polygon fill="white" stroke="black" points="621,-50 621,-69 796,-69 796,-50 621,-50"/>
<text text-anchor="middle" x="708.5" y="-57" font-family="Helvetica,sans-Serif" font-size="10.00">okw.LogMessenger.ReadMessage</text>
</a>
</g>
</g>
<!-- Node1095&#45;&gt;Node1096 -->
<g id="edge6" class="edge"><title>Node1095&#45;&gt;Node1096</title>
<path fill="none" stroke="midnightblue" d="M578.681,-59.5C589.154,-59.5 599.935,-59.5 610.589,-59.5"/>
<polygon fill="midnightblue" stroke="midnightblue" points="610.751,-63.0001 620.751,-59.5 610.751,-56.0001 610.751,-63.0001"/>
</g>
<!-- Node1097 -->
<g id="node8" class="node"><title>Node1097</title>
<g id="a_node8"><a xlink:href="classokw_1_1_o_k_w___xml_reader.html#ab920b5335a2e1429c14cc5f8e79f39eb" target="_top" xlink:title="Lies den TextContent eines Tag.">
<polygon fill="white" stroke="black" points="832,-44.5 832,-74.5 984,-74.5 984,-44.5 832,-44.5"/>
<text text-anchor="start" x="840" y="-62.5" font-family="Helvetica,sans-Serif" font-size="10.00">okw.OKW_XmlReader.getText</text>
<text text-anchor="middle" x="908" y="-51.5" font-family="Helvetica,sans-Serif" font-size="10.00">ContentSingleValue</text>
</a>
</g>
</g>
<!-- Node1096&#45;&gt;Node1097 -->
<g id="edge7" class="edge"><title>Node1096&#45;&gt;Node1097</title>
<path fill="none" stroke="midnightblue" d="M796.126,-59.5C804.6,-59.5 813.195,-59.5 821.656,-59.5"/>
<polygon fill="midnightblue" stroke="midnightblue" points="821.893,-63.0001 831.893,-59.5 821.892,-56.0001 821.893,-63.0001"/>
</g>
</g>
</svg>
