<?xml version="1.0" encoding="UTF-8" standalone="no"?>
<!DOCTYPE svg PUBLIC "-//W3C//DTD SVG 1.1//EN"
 "http://www.w3.org/Graphics/SVG/1.1/DTD/svg11.dtd">
<!-- Generated by graphviz version 2.36.0 (20140111.2315)
 -->
<!-- Title: okw.gui.adapter.selenium.SeAnyChildWindow.Me Pages: 1 -->
<!--zoomable 126 -->
<svg id="main" version="1.1" xmlns="http://www.w3.org/2000/svg" xmlns:xlink="http://www.w3.org/1999/xlink" xml:space="preserve" onload="init(evt)">
<style type="text/css"><![CDATA[
.edge:hover path { stroke: red; }
.edge:hover polygon { stroke: red; fill: red; }
]]></style>
<script type="text/javascript"><![CDATA[
var edges = document.getElementsByTagName('g');
if (edges && edges.length) {
  for (var i=0;i<edges.length;i++) {
    if (edges[i].id.substr(0,4)=='edge') {
      edges[i].setAttribute('class','edge');
    }
  }
}
]]></script>
        <defs>
                <circle id="rim" cx="0" cy="0" r="7"/>
                <circle id="rim2" cx="0" cy="0" r="3.5"/>
                <g id="zoomPlus">
                        <use xlink:href="#rim" fill="#404040">
                                <set attributeName="fill" to="#808080" begin="zoomplus.mouseover" end="zoomplus.mouseout"/>
                        </use>
                        <path d="M-4,0h8M0,-4v8" fill="none" stroke="white" stroke-width="1.5" pointer-events="none"/>
                </g>
                <g id="zoomMin">
                        <use xlink:href="#rim" fill="#404040">
                                <set attributeName="fill" to="#808080" begin="zoomminus.mouseover" end="zoomminus.mouseout"/>
                        </use>
                        <path d="M-4,0h8" fill="none" stroke="white" stroke-width="1.5" pointer-events="none"/>
                </g>
                <g id="dirArrow">
                        <path fill="none" stroke="white" stroke-width="1.5" d="M0,-3.0v7 M-2.5,-0.5L0,-3.0L2.5,-0.5"/>
                </g>
               <g id="resetDef">
                       <use xlink:href="#rim2" fill="#404040">
                               <set attributeName="fill" to="#808080" begin="reset.mouseover" end="reset.mouseout"/>
                       </use>
               </g>
        </defs>

<script type="text/javascript">
var viewWidth = 750;
var viewHeight = 126;
var sectionId = 'dynsection-27';
</script>
<script xlink:href="svgpan.js"/>
<svg id="graph" class="graph">
<g id="viewport">
<title>okw.gui.adapter.selenium.SeAnyChildWindow.Me</title>
<polygon fill="white" stroke="none" points="-4,4 -4,-122 746,-122 746,4 -4,4"/>
<!-- Node312 -->
<g id="node1" class="node"><title>Node312</title>
<polygon fill="#bfbfbf" stroke="black" points="0.5,-39 0.5,-69 131.5,-69 131.5,-39 0.5,-39"/>
<text text-anchor="start" x="8.5" y="-57" font-family="Helvetica,sans-Serif" font-size="10.00">okw.gui.adapter.selenium.</text>
<text text-anchor="middle" x="66" y="-46" font-family="Helvetica,sans-Serif" font-size="10.00">SeAnyChildWindow.Me</text>
</g>
<!-- Node313 -->
<g id="node2" class="node"><title>Node313</title>
<g id="a_node2"><a xlink:href="classokw_1_1gui_1_1adapter_1_1selenium_1_1webdriver_1_1_se_driver.html#aee9e3f8a67f4ad1f8100a33ba71c926e" target="_top" xlink:title="Gibt die Instance für die einzige Instanz dieser Klasse zurück. ">
<polygon fill="white" stroke="black" points="168,-88 168,-118 344,-118 344,-88 168,-88"/>
<text text-anchor="start" x="176" y="-106" font-family="Helvetica,sans-Serif" font-size="10.00">okw.gui.adapter.selenium.webdriver.</text>
<text text-anchor="middle" x="256" y="-95" font-family="Helvetica,sans-Serif" font-size="10.00">SeDriver.getInstance</text>
</a>
</g>
</g>
<!-- Node312&#45;&gt;Node313 -->
<g id="edge1" class="edge"><title>Node312&#45;&gt;Node313</title>
<path fill="none" stroke="midnightblue" d="M124.684,-69.0346C144.534,-74.2083 166.937,-80.0475 187.499,-85.4066"/>
<polygon fill="midnightblue" stroke="midnightblue" points="186.866,-88.8585 197.425,-87.9938 188.631,-82.0848 186.866,-88.8585"/>
</g>
<!-- Node314 -->
<g id="node3" class="node"><title>Node314</title>
<g id="a_node3"><a xlink:href="classokw_1_1gui_1_1adapter_1_1selenium_1_1webdriver_1_1_se_driver.html#a6d879107786a94ebbdbd42b4ac6c6acf" target="_top" xlink:title="Ermittelt das Webelement mit der gegebenen frameID und dem gegebenen Locator. ">
<polygon fill="white" stroke="black" points="168,-39 168,-69 344,-69 344,-39 168,-39"/>
<text text-anchor="start" x="176" y="-57" font-family="Helvetica,sans-Serif" font-size="10.00">okw.gui.adapter.selenium.webdriver.</text>
<text text-anchor="middle" x="256" y="-46" font-family="Helvetica,sans-Serif" font-size="10.00">SeDriver.getElement</text>
</a>
</g>
</g>
<!-- Node312&#45;&gt;Node314 -->
<g id="edge2" class="edge"><title>Node312&#45;&gt;Node314</title>
<path fill="none" stroke="midnightblue" d="M131.699,-54C140.188,-54 149.031,-54 157.911,-54"/>
<polygon fill="midnightblue" stroke="midnightblue" points="157.935,-57.5001 167.935,-54 157.935,-50.5001 157.935,-57.5001"/>
</g>
<!-- Node318 -->
<g id="node7" class="node"><title>Node318</title>
<g id="a_node7"><a xlink:href="classokw_1_1gui_1_1_any_win_base.html#a9929f6fae1f4e2c20df79d32d5bc79db" target="_top" xlink:title="Holt den vollständig (rekursiv) aufgelösten (z.B. ">
<polygon fill="white" stroke="black" points="176.5,-0.5 176.5,-19.5 335.5,-19.5 335.5,-0.5 176.5,-0.5"/>
<text text-anchor="middle" x="256" y="-7.5" font-family="Helvetica,sans-Serif" font-size="10.00">okw.gui.AnyWinBase.getLocator</text>
</a>
</g>
</g>
<!-- Node312&#45;&gt;Node318 -->
<g id="edge6" class="edge"><title>Node312&#45;&gt;Node318</title>
<path fill="none" stroke="midnightblue" d="M126.482,-38.9865C140.107,-35.6283 154.541,-32.1347 168,-29 178.384,-26.5816 189.486,-24.0873 200.167,-21.7337"/>
<polygon fill="midnightblue" stroke="midnightblue" points="201.221,-25.0858 210.24,-19.5272 199.723,-18.2479 201.221,-25.0858"/>
</g>
<!-- Node315 -->
<g id="node4" class="node"><title>Node315</title>
<g id="a_node4"><a xlink:href="classokw_1_1gui_1_1adapter_1_1selenium_1_1webdriver_1_1_se_driver.html#a47eec72c911c05beb2127672daafb325" target="_top" xlink:title="Wechselt das aktuelle Frame auf das Frame mit der id=iframeID. ">
<polygon fill="white" stroke="black" points="380,-88 380,-118 556,-118 556,-88 380,-88"/>
<text text-anchor="start" x="388" y="-106" font-family="Helvetica,sans-Serif" font-size="10.00">okw.gui.adapter.selenium.webdriver.</text>
<text text-anchor="middle" x="468" y="-95" font-family="Helvetica,sans-Serif" font-size="10.00">SeDriver.swichToFrame</text>
</a>
</g>
</g>
<!-- Node314&#45;&gt;Node315 -->
<g id="edge3" class="edge"><title>Node314&#45;&gt;Node315</title>
<path fill="none" stroke="midnightblue" d="M321.434,-69.0346C344.01,-74.3024 369.543,-80.2601 392.85,-85.6984"/>
<polygon fill="midnightblue" stroke="midnightblue" points="392.154,-89.1299 402.688,-87.9938 393.745,-82.313 392.154,-89.1299"/>
</g>
<!-- Node317 -->
<g id="node6" class="node"><title>Node317</title>
<g id="a_node6"><a xlink:href="classokw_1_1log_1_1_logger___sngltn.html#a8ebceaddd6cc6963ddb8e08c72ea808c" target="_top" xlink:title="LogPrint Function: Prints the values of expressions to the results file. ">
<polygon fill="white" stroke="black" points="401,-39 401,-69 535,-69 535,-39 401,-39"/>
<text text-anchor="start" x="409" y="-57" font-family="Helvetica,sans-Serif" font-size="10.00">okw.log.Logger_Sngltn.Log</text>
<text text-anchor="middle" x="468" y="-46" font-family="Helvetica,sans-Serif" font-size="10.00">Print</text>
</a>
</g>
</g>
<!-- Node314&#45;&gt;Node317 -->
<g id="edge5" class="edge"><title>Node314&#45;&gt;Node317</title>
<path fill="none" stroke="midnightblue" d="M344.235,-54C359.617,-54 375.523,-54 390.58,-54"/>
<polygon fill="midnightblue" stroke="midnightblue" points="390.852,-57.5001 400.852,-54 390.852,-50.5001 390.852,-57.5001"/>
</g>
<!-- Node316 -->
<g id="node5" class="node"><title>Node316</title>
<g id="a_node5"><a xlink:href="classokw_1_1_o_k_w___helper.html#a3a7ba0f42b29adf70574830688e72e4a" target="_top" xlink:title="Prüft ob der gegeben String fpsStrin null oder leer (&quot;&quot;) ist. ">
<polygon fill="white" stroke="black" points="592.5,-88 592.5,-118 741.5,-118 741.5,-88 592.5,-88"/>
<text text-anchor="start" x="600.5" y="-106" font-family="Helvetica,sans-Serif" font-size="10.00">okw.OKW_Helper.isStringNull</text>
<text text-anchor="middle" x="667" y="-95" font-family="Helvetica,sans-Serif" font-size="10.00">OrEmpty</text>
</a>
</g>
</g>
<!-- Node315&#45;&gt;Node316 -->
<g id="edge4" class="edge"><title>Node315&#45;&gt;Node316</title>
<path fill="none" stroke="midnightblue" d="M556.267,-103C564.922,-103 573.694,-103 582.311,-103"/>
<polygon fill="midnightblue" stroke="midnightblue" points="582.34,-106.5 592.34,-103 582.34,-99.5001 582.34,-106.5"/>
</g>
<!-- Node319 -->
<g id="node8" class="node"><title>Node319</title>
<g id="a_node8"><a xlink:href="classokw_1_1gui_1_1_o_k_w_locator.html#adc74fc2125dd048dc1cb84e011f47ec8" target="_top" xlink:title="Holt den vollständig (rekursiv) aufgelösten (z.B. ">
<polygon fill="white" stroke="black" points="389,-0.5 389,-19.5 547,-19.5 547,-0.5 389,-0.5"/>
<text text-anchor="middle" x="468" y="-7.5" font-family="Helvetica,sans-Serif" font-size="10.00">okw.gui.OKWLocator.getLocator</text>
</a>
</g>
</g>
<!-- Node318&#45;&gt;Node319 -->
<g id="edge7" class="edge"><title>Node318&#45;&gt;Node319</title>
<path fill="none" stroke="midnightblue" d="M335.794,-10C349.748,-10 364.362,-10 378.561,-10"/>
<polygon fill="midnightblue" stroke="midnightblue" points="378.812,-13.5001 388.812,-10 378.812,-6.5001 378.812,-13.5001"/>
</g>
</g>
</svg>
        <g id="navigator" transform="translate(0 0)" fill="#404254">
                <rect fill="#f2f5e9" fill-opacity="0.5" stroke="#606060" stroke-width=".5" x="0" y="0" width="60" height="60"/>
                <use id="zoomplus" xlink:href="#zoomPlus" x="17" y="9" onmousedown="handleZoom(evt,'in')"/>
                <use id="zoomminus" xlink:href="#zoomMin" x="42" y="9" onmousedown="handleZoom(evt,'out')"/>
                <use id="reset" xlink:href="#resetDef" x="30" y="36" onmousedown="handleReset()"/>
                <g id="arrowUp" xlink:href="#dirArrow" transform="translate(30 24)" onmousedown="handlePan(0,-1)">
                  <use xlink:href="#rim" fill="#404040">
                        <set attributeName="fill" to="#808080" begin="arrowUp.mouseover" end="arrowUp.mouseout"/>
                  </use>
                  <path fill="none" stroke="white" stroke-width="1.5" d="M0,-3.0v7 M-2.5,-0.5L0,-3.0L2.5,-0.5"/>
                </g>
                <g id="arrowRight" xlink:href="#dirArrow" transform="rotate(90) translate(36 -43)" onmousedown="handlePan(1,0)">
                  <use xlink:href="#rim" fill="#404040">
                        <set attributeName="fill" to="#808080" begin="arrowRight.mouseover" end="arrowRight.mouseout"/>
                  </use>
                  <path fill="none" stroke="white" stroke-width="1.5" d="M0,-3.0v7 M-2.5,-0.5L0,-3.0L2.5,-0.5"/>
                </g>
                <g id="arrowDown" xlink:href="#dirArrow" transform="rotate(180) translate(-30 -48)" onmousedown="handlePan(0,1)">
                  <use xlink:href="#rim" fill="#404040">
                        <set attributeName="fill" to="#808080" begin="arrowDown.mouseover" end="arrowDown.mouseout"/>
                  </use>
                  <path fill="none" stroke="white" stroke-width="1.5" d="M0,-3.0v7 M-2.5,-0.5L0,-3.0L2.5,-0.5"/>
                </g>
                <g id="arrowLeft" xlink:href="#dirArrow" transform="rotate(270) translate(-36 17)" onmousedown="handlePan(-1,0)">
                  <use xlink:href="#rim" fill="#404040">
                        <set attributeName="fill" to="#808080" begin="arrowLeft.mouseover" end="arrowLeft.mouseout"/>
                  </use>
                  <path fill="none" stroke="white" stroke-width="1.5" d="M0,-3.0v7 M-2.5,-0.5L0,-3.0L2.5,-0.5"/>
                </g>
        </g>
        <svg viewBox="0 0 15 15" width="100%" height="30px" preserveAspectRatio="xMaxYMin meet">
         <g id="arrow_out" transform="scale(0.3 0.3)">
          <a xlink:href="classokw_1_1gui_1_1adapter_1_1selenium_1_1_se_any_child_window_a9a138af1fc6ff850d708d66f308a2525_cgraph_org.svg" target="_base">
           <rect id="button" ry="5" rx="5" y="6" x="6" height="38" width="38"
                fill="#f2f5e9" fill-opacity="0.5" stroke="#606060" stroke-width="1.0"/>
           <path id="arrow"
             d="M 11.500037,31.436501 C 11.940474,20.09759 22.043105,11.32322 32.158766,21.979434 L 37.068811,17.246167 C 37.068811,17.246167 37.088388,32 37.088388,32 L 22.160133,31.978069 C 22.160133,31.978069 26.997745,27.140456 26.997745,27.140456 C 18.528582,18.264221 13.291696,25.230495 11.500037,31.436501 z"
             style="fill:#404040;"/>
          </a>
         </g>
        </svg>
</svg>
