<?xml version="1.0" encoding="UTF-8" standalone="no"?>
<!DOCTYPE svg PUBLIC "-//W3C//DTD SVG 1.1//EN"
 "http://www.w3.org/Graphics/SVG/1.1/DTD/svg11.dtd">
<!-- Generated by graphviz version 2.26.3 (20100126.1600)
 -->
<!-- Title: okw.gui.frames.frmInternetExplorer Pages: 1 -->
<svg width="410pt" height="702pt"
 viewBox="0.00 0.00 410.00 702.00" xmlns="http://www.w3.org/2000/svg" xmlns:xlink="http://www.w3.org/1999/xlink">
<g id="graph1" class="graph" transform="scale(1 1) rotate(0) translate(4 698)">
<title>okw.gui.frames.frmInternetExplorer</title>
<polygon fill="white" stroke="white" points="-4,5 -4,-698 407,-698 407,5 -4,5"/>
<!-- Node0 -->
<g id="node1" class="node"><title>Node0</title>
<polygon fill="#bfbfbf" stroke="black" points="149,-1 149,-77 283,-77 283,-1 149,-1"/>
<text text-anchor="start" x="157" y="-64" font-family="Helvetica,sans-Serif" font-size="10.00">okw.gui.frames.frmInternet</text>
<text text-anchor="middle" x="216" y="-51" font-family="Helvetica,sans-Serif" font-size="10.00">Explorer</text>
<polyline fill="none" stroke="black" points="149,-43 283,-43 "/>
<text text-anchor="middle" x="216" y="-30" font-family="Helvetica,sans-Serif" font-size="10.00"> </text>
<polyline fill="none" stroke="black" points="149,-22 283,-22 "/>
<text text-anchor="middle" x="216" y="-9" font-family="Helvetica,sans-Serif" font-size="10.00"> </text>
</g>
<!-- Node1 -->
<g id="node2" class="node"><title>Node1</title>
<a xlink:href="classokw_1_1gui_1_1_any_window.html" target="_top" xlink:title="Description of AnyWin. ">
<polygon fill="white" stroke="black" points="152,-114.5 152,-333.5 280,-333.5 280,-114.5 152,-114.5"/>
<text text-anchor="middle" x="216" y="-320.5" font-family="Helvetica,sans-Serif" font-size="10.00">okw.gui.AnyWindow</text>
<polyline fill="none" stroke="black" points="152,-312.5 280,-312.5 "/>
<text text-anchor="middle" x="216" y="-299.5" font-family="Helvetica,sans-Serif" font-size="10.00"> </text>
<polyline fill="none" stroke="black" points="152,-291.5 280,-291.5 "/>
<text text-anchor="start" x="160" y="-278.5" font-family="Helvetica,sans-Serif" font-size="10.00">+ AnyWindow()</text>
<text text-anchor="start" x="160" y="-265.5" font-family="Helvetica,sans-Serif" font-size="10.00">+ AnyWindow()</text>
<text text-anchor="start" x="160" y="-252.5" font-family="Helvetica,sans-Serif" font-size="10.00">+ getExists()</text>
<text text-anchor="start" x="160" y="-239.5" font-family="Helvetica,sans-Serif" font-size="10.00">+ getCaption()</text>
<text text-anchor="start" x="160" y="-226.5" font-family="Helvetica,sans-Serif" font-size="10.00">+ getIsActive()</text>
<text text-anchor="start" x="160" y="-213.5" font-family="Helvetica,sans-Serif" font-size="10.00">+ TypeKeyWindow()</text>
<text text-anchor="start" x="160" y="-200.5" font-family="Helvetica,sans-Serif" font-size="10.00">+ SelectWindow()</text>
<text text-anchor="start" x="160" y="-187.5" font-family="Helvetica,sans-Serif" font-size="10.00">+ StartApp()</text>
<text text-anchor="start" x="160" y="-174.5" font-family="Helvetica,sans-Serif" font-size="10.00">+ StopApp()</text>
<text text-anchor="start" x="160" y="-161.5" font-family="Helvetica,sans-Serif" font-size="10.00">+ VerifyWindowExists()</text>
<text text-anchor="start" x="160" y="-148.5" font-family="Helvetica,sans-Serif" font-size="10.00">+ VerifyIsWindowActive()</text>
<text text-anchor="start" x="160" y="-135.5" font-family="Helvetica,sans-Serif" font-size="10.00">+ VerifyWindowCaption()</text>
<text text-anchor="start" x="160" y="-122.5" font-family="Helvetica,sans-Serif" font-size="10.00">+ WaitForMe()</text>
</a>
</g>
<!-- Node1&#45;&gt;Node0 -->
<g id="edge2" class="edge"><title>Node1&#45;&gt;Node0</title>
<path fill="none" stroke="midnightblue" d="M216,-104.133C216,-94.5589 216,-85.4146 216,-77.1638"/>
<polygon fill="none" stroke="midnightblue" points="212.5,-104.247 216,-114.247 219.5,-104.247 212.5,-104.247"/>
</g>
<!-- Node2 -->
<g id="node4" class="node"><title>Node2</title>
<a xlink:href="classokw_1_1gui_1_1_any_win_base.html" target="_top" xlink:title="Description of AnyWin. ">
<polygon fill="white" stroke="black" points="0,-370.5 0,-693.5 134,-693.5 134,-370.5 0,-370.5"/>
<text text-anchor="middle" x="67" y="-680.5" font-family="Helvetica,sans-Serif" font-size="10.00">okw.gui.AnyWinBase</text>
<polyline fill="none" stroke="black" points="0,-672.5 134,-672.5 "/>
<text text-anchor="start" x="8" y="-659.5" font-family="Helvetica,sans-Serif" font-size="10.00">~ myLogger</text>
<text text-anchor="start" x="8" y="-646.5" font-family="Helvetica,sans-Serif" font-size="10.00"># _locator</text>
<text text-anchor="start" x="8" y="-633.5" font-family="Helvetica,sans-Serif" font-size="10.00">&#45; myFN</text>
<text text-anchor="start" x="8" y="-620.5" font-family="Helvetica,sans-Serif" font-size="10.00">&#45; myKN</text>
<text text-anchor="start" x="8" y="-607.5" font-family="Helvetica,sans-Serif" font-size="10.00">&#45; myParentFN</text>
<polyline fill="none" stroke="black" points="0,-599.5 134,-599.5 "/>
<text text-anchor="start" x="8" y="-586.5" font-family="Helvetica,sans-Serif" font-size="10.00">+ getLocator()</text>
<text text-anchor="start" x="8" y="-573.5" font-family="Helvetica,sans-Serif" font-size="10.00">+ getLOCATOR()</text>
<text text-anchor="start" x="8" y="-560.5" font-family="Helvetica,sans-Serif" font-size="10.00">+ getExists()</text>
<text text-anchor="start" x="8" y="-547.5" font-family="Helvetica,sans-Serif" font-size="10.00">+ AnyWinBase()</text>
<text text-anchor="start" x="8" y="-534.5" font-family="Helvetica,sans-Serif" font-size="10.00">+ AnyWinBase()</text>
<text text-anchor="start" x="8" y="-521.5" font-family="Helvetica,sans-Serif" font-size="10.00">+ getFN()</text>
<text text-anchor="start" x="8" y="-508.5" font-family="Helvetica,sans-Serif" font-size="10.00">+ getKN()</text>
<text text-anchor="start" x="8" y="-495.5" font-family="Helvetica,sans-Serif" font-size="10.00">+ getParentFN()</text>
<text text-anchor="start" x="8" y="-482.5" font-family="Helvetica,sans-Serif" font-size="10.00">+ setFN()</text>
<text text-anchor="start" x="8" y="-469.5" font-family="Helvetica,sans-Serif" font-size="10.00">+ setKN()</text>
<text text-anchor="start" x="8" y="-456.5" font-family="Helvetica,sans-Serif" font-size="10.00">+ setParentFN()</text>
<text text-anchor="start" x="8" y="-443.5" font-family="Helvetica,sans-Serif" font-size="10.00"># LogFunctionStartDebug()</text>
<text text-anchor="start" x="8" y="-430.5" font-family="Helvetica,sans-Serif" font-size="10.00"># LogFunctionStartDebug()</text>
<text text-anchor="start" x="8" y="-417.5" font-family="Helvetica,sans-Serif" font-size="10.00"># LogFunctionEndDebug()</text>
<text text-anchor="start" x="8" y="-404.5" font-family="Helvetica,sans-Serif" font-size="10.00"># LogFunctionEndDebug()</text>
<text text-anchor="start" x="8" y="-391.5" font-family="Helvetica,sans-Serif" font-size="10.00"># LogFunctionEndDebug()</text>
<text text-anchor="start" x="8" y="-378.5" font-family="Helvetica,sans-Serif" font-size="10.00"># LogFunctionEndDebug()</text>
</a>
</g>
<!-- Node2&#45;&gt;Node1 -->
<g id="edge4" class="edge"><title>Node2&#45;&gt;Node1</title>
<path fill="none" stroke="midnightblue" d="M138.6,-379.108C140.076,-376.044 141.544,-373.005 143,-370 148.684,-358.268 154.682,-346.039 160.698,-333.869"/>
<polygon fill="none" stroke="midnightblue" points="135.327,-377.838 134.151,-388.367 141.637,-380.869 135.327,-377.838"/>
</g>
<!-- Node3 -->
<g id="node6" class="node"><title>Node3</title>
<a xlink:href="interfaceokw_1_1gui_1_1_i_g_u_i_window.html" target="_top" xlink:title="{okw.gui.IGUIWindow\n||+ getCaption()\l+ getExists()\l+ getIsActive()\l+ TypeKeyWindow()\l+ SelectWindow()\l+ StartApp()\l+ StopApp()\l+ VerifyWindowExists()\l+ VerifyIsWindowActive()\l+ VerifyWindowCaption()\l}">
<polygon fill="white" stroke="black" points="152,-442 152,-622 280,-622 280,-442 152,-442"/>
<text text-anchor="middle" x="216" y="-609" font-family="Helvetica,sans-Serif" font-size="10.00">okw.gui.IGUIWindow</text>
<polyline fill="none" stroke="black" points="152,-601 280,-601 "/>
<text text-anchor="middle" x="216" y="-588" font-family="Helvetica,sans-Serif" font-size="10.00"> </text>
<polyline fill="none" stroke="black" points="152,-580 280,-580 "/>
<text text-anchor="start" x="160" y="-567" font-family="Helvetica,sans-Serif" font-size="10.00">+ getCaption()</text>
<text text-anchor="start" x="160" y="-554" font-family="Helvetica,sans-Serif" font-size="10.00">+ getExists()</text>
<text text-anchor="start" x="160" y="-541" font-family="Helvetica,sans-Serif" font-size="10.00">+ getIsActive()</text>
<text text-anchor="start" x="160" y="-528" font-family="Helvetica,sans-Serif" font-size="10.00">+ TypeKeyWindow()</text>
<text text-anchor="start" x="160" y="-515" font-family="Helvetica,sans-Serif" font-size="10.00">+ SelectWindow()</text>
<text text-anchor="start" x="160" y="-502" font-family="Helvetica,sans-Serif" font-size="10.00">+ StartApp()</text>
<text text-anchor="start" x="160" y="-489" font-family="Helvetica,sans-Serif" font-size="10.00">+ StopApp()</text>
<text text-anchor="start" x="160" y="-476" font-family="Helvetica,sans-Serif" font-size="10.00">+ VerifyWindowExists()</text>
<text text-anchor="start" x="160" y="-463" font-family="Helvetica,sans-Serif" font-size="10.00">+ VerifyIsWindowActive()</text>
<text text-anchor="start" x="160" y="-450" font-family="Helvetica,sans-Serif" font-size="10.00">+ VerifyWindowCaption()</text>
</a>
</g>
<!-- Node3&#45;&gt;Node1 -->
<g id="edge6" class="edge"><title>Node3&#45;&gt;Node1</title>
<path fill="none" stroke="midnightblue" d="M216,-431.63C216,-400.314 216,-365.616 216,-333.695"/>
<polygon fill="none" stroke="midnightblue" points="212.5,-431.671 216,-441.671 219.5,-431.671 212.5,-431.671"/>
</g>
<!-- Node4 -->
<g id="node8" class="node"><title>Node4</title>
<a xlink:href="interfaceokw_1_1core_1_1_i_o_k_w___f_n.html" target="_top" xlink:title="{okw.core.IOKW_FN\n||+ setKN()\l+ setFN()\l+ setParentFN()\l+ getKN()\l+ getFN()\l+ getParentFN()\l}">
<polygon fill="white" stroke="black" points="297.5,-468 297.5,-596 402.5,-596 402.5,-468 297.5,-468"/>
<text text-anchor="middle" x="350" y="-583" font-family="Helvetica,sans-Serif" font-size="10.00">okw.core.IOKW_FN</text>
<polyline fill="none" stroke="black" points="297.5,-575 402.5,-575 "/>
<text text-anchor="middle" x="350" y="-562" font-family="Helvetica,sans-Serif" font-size="10.00"> </text>
<polyline fill="none" stroke="black" points="297.5,-554 402.5,-554 "/>
<text text-anchor="start" x="305.5" y="-541" font-family="Helvetica,sans-Serif" font-size="10.00">+ setKN()</text>
<text text-anchor="start" x="305.5" y="-528" font-family="Helvetica,sans-Serif" font-size="10.00">+ setFN()</text>
<text text-anchor="start" x="305.5" y="-515" font-family="Helvetica,sans-Serif" font-size="10.00">+ setParentFN()</text>
<text text-anchor="start" x="305.5" y="-502" font-family="Helvetica,sans-Serif" font-size="10.00">+ getKN()</text>
<text text-anchor="start" x="305.5" y="-489" font-family="Helvetica,sans-Serif" font-size="10.00">+ getFN()</text>
<text text-anchor="start" x="305.5" y="-476" font-family="Helvetica,sans-Serif" font-size="10.00">+ getParentFN()</text>
</a>
</g>
<!-- Node4&#45;&gt;Node1 -->
<g id="edge8" class="edge"><title>Node4&#45;&gt;Node1</title>
<path fill="none" stroke="midnightblue" d="M324.052,-458.225C313.763,-430.327 301.43,-398.453 289,-370 283.838,-358.184 278.205,-345.956 272.431,-333.836"/>
<polygon fill="none" stroke="midnightblue" points="320.876,-459.73 327.603,-467.915 327.449,-457.322 320.876,-459.73"/>
</g>
</g>
</svg>
