<?xml version="1.0" encoding="UTF-8" standalone="no"?>
<!DOCTYPE svg PUBLIC "-//W3C//DTD SVG 1.1//EN"
 "http://www.w3.org/Graphics/SVG/1.1/DTD/svg11.dtd">
<!-- Generated by graphviz version 2.36.0 (20140111.2315)
 -->
<!-- Title: okw.exceptions.OKWFrameObjectWindowNotSetException Pages: 1 -->
<svg width="180pt" height="204pt"
 viewBox="0.00 0.00 180.00 204.00" xmlns="http://www.w3.org/2000/svg" xmlns:xlink="http://www.w3.org/1999/xlink">
<g id="graph0" class="graph" transform="scale(1 1) rotate(0) translate(4 200)">
<title>okw.exceptions.OKWFrameObjectWindowNotSetException</title>
<polygon fill="white" stroke="none" points="-4,4 -4,-200 176,-200 176,4 -4,4"/>
<!-- Node2 -->
<g id="node1" class="node"><title>Node2</title>
<polygon fill="#bfbfbf" stroke="black" points="0,-0.5 0,-101.5 172,-101.5 172,-0.5 0,-0.5"/>
<text text-anchor="start" x="8" y="-89.5" font-family="Helvetica,sans-Serif" font-size="10.00">okw.exceptions.OKWFrameObject</text>
<text text-anchor="middle" x="86" y="-78.5" font-family="Helvetica,sans-Serif" font-size="10.00">WindowNotSetException</text>
<polyline fill="none" stroke="black" points="0,-71.5 172,-71.5 "/>
<text text-anchor="start" x="8" y="-59.5" font-family="Helvetica,sans-Serif" font-size="10.00">&#45; serialVersionUID</text>
<polyline fill="none" stroke="black" points="0,-52.5 172,-52.5 "/>
<text text-anchor="start" x="8" y="-40.5" font-family="Helvetica,sans-Serif" font-size="10.00">+ OKWFrameObjectWindowNotSet</text>
<text text-anchor="start" x="8" y="-29.5" font-family="Helvetica,sans-Serif" font-size="10.00">Exception()</text>
<text text-anchor="start" x="8" y="-18.5" font-family="Helvetica,sans-Serif" font-size="10.00">+ OKWFrameObjectWindowNotSet</text>
<text text-anchor="start" x="8" y="-7.5" font-family="Helvetica,sans-Serif" font-size="10.00">Exception()</text>
</g>
<!-- Node3 -->
<g id="node2" class="node"><title>Node3</title>
<polygon fill="white" stroke="#bfbfbf" points="37.5,-138.5 37.5,-195.5 134.5,-195.5 134.5,-138.5 37.5,-138.5"/>
<text text-anchor="middle" x="86" y="-183.5" font-family="Helvetica,sans-Serif" font-size="10.00">RuntimeException</text>
<polyline fill="none" stroke="#bfbfbf" points="37.5,-176.5 134.5,-176.5 "/>
<text text-anchor="middle" x="86" y="-164.5" font-family="Helvetica,sans-Serif" font-size="10.00"> </text>
<polyline fill="none" stroke="#bfbfbf" points="37.5,-157.5 134.5,-157.5 "/>
<text text-anchor="middle" x="86" y="-145.5" font-family="Helvetica,sans-Serif" font-size="10.00"> </text>
</g>
<!-- Node3&#45;&gt;Node2 -->
<g id="edge1" class="edge"><title>Node3&#45;&gt;Node2</title>
<path fill="none" stroke="midnightblue" d="M86,-128.354C86,-119.796 86,-110.578 86,-101.608"/>
<polygon fill="none" stroke="midnightblue" points="82.5001,-128.404 86,-138.404 89.5001,-128.404 82.5001,-128.404"/>
</g>
</g>
</svg>
