<?xml version="1.0" encoding="UTF-8" standalone="no"?>
<!DOCTYPE svg PUBLIC "-//W3C//DTD SVG 1.1//EN"
 "http://www.w3.org/Graphics/SVG/1.1/DTD/svg11.dtd">
<!-- Generated by graphviz version 2.26.3 (20100126.1600)
 -->
<!-- Title: okw.core.EN.VerifyTooltip Pages: 1 -->
<!--zoomable 1466 -->
<svg id="main" version="1.1" xmlns="http://www.w3.org/2000/svg" xmlns:xlink="http://www.w3.org/1999/xlink" xml:space="preserve" onload="init(evt)">
<style type="text/css"><![CDATA[
.edge:hover path { stroke: red; }
.edge:hover polygon { stroke: red; fill: red; }
]]></style>
<script type="text/javascript"><![CDATA[
var edges = document.getElementsByTagName('g');
if (edges && edges.length) {
  for (var i=0;i<edges.length;i++) {
    if (edges[i].id.substr(0,4)=='edge') {
      edges[i].setAttribute('class','edge');
    }
  }
}
]]></script>
        <defs>
                <circle id="rim" cx="0" cy="0" r="7"/>
                <circle id="rim2" cx="0" cy="0" r="3.5"/>
                <g id="zoomPlus">
                        <use xlink:href="#rim" fill="#404040">
                                <set attributeName="fill" to="#808080" begin="zoomplus.mouseover" end="zoomplus.mouseout"/>
                        </use>
                        <path d="M-4,0h8M0,-4v8" fill="none" stroke="white" stroke-width="1.5" pointer-events="none"/>
                </g>
                <g id="zoomMin">
                        <use xlink:href="#rim" fill="#404040">
                                <set attributeName="fill" to="#808080" begin="zoomminus.mouseover" end="zoomminus.mouseout"/>
                        </use>
                        <path d="M-4,0h8" fill="none" stroke="white" stroke-width="1.5" pointer-events="none"/>
                </g>
                <g id="dirArrow">
                        <path fill="none" stroke="white" stroke-width="1.5" d="M0,-3.0v7 M-2.5,-0.5L0,-3.0L2.5,-0.5"/>
                </g>
               <g id="resetDef">
                       <use xlink:href="#rim2" fill="#404040">
                               <set attributeName="fill" to="#808080" begin="reset.mouseover" end="reset.mouseout"/>
                       </use>
               </g>
        </defs>

<script type="text/javascript">
var viewWidth = 392;
var viewHeight = 1466;
var sectionId = 'dynsection-93';
</script>
<script xlink:href="svgpan.js"/>
<svg id="graph" class="graph">
<g id="viewport">
<title>okw.core.EN.VerifyTooltip</title>
<polygon fill="white" stroke="white" points="-4,5 -4,-1462 389,-1462 389,5 -4,5"/>
<!-- Node2642 -->
<g id="node1" class="node"><title>Node2642</title>
<polygon fill="#bfbfbf" stroke="black" points="0.5,-684.5 0.5,-705.5 131.5,-705.5 131.5,-684.5 0.5,-684.5"/>
<text text-anchor="middle" x="66" y="-692.5" font-family="Helvetica,sans-Serif" font-size="10.00">okw.core.EN.VerifyTooltip</text>
</g>
<!-- Node2643 -->
<g id="node3" class="node"><title>Node2643</title>
<a xlink:href="classokw_1_1core_1_1_e_n___keywords___a_n_t_l_r___test.html#a4ad606615476d86141bdb598f2c21666" target="_top" xlink:title="okw.core.EN_Keywords\l_ANTLR_Test.tc__VerifyTooltip\l_EnviromentValue">
<polygon fill="white" stroke="black" points="198,-1410.5 198,-1457.5 354,-1457.5 354,-1410.5 198,-1410.5"/>
<text text-anchor="start" x="206" y="-1444.5" font-family="Helvetica,sans-Serif" font-size="10.00">okw.core.EN_Keywords</text>
<text text-anchor="start" x="206" y="-1431.5" font-family="Helvetica,sans-Serif" font-size="10.00">_ANTLR_Test.tc__VerifyTooltip</text>
<text text-anchor="middle" x="276" y="-1418.5" font-family="Helvetica,sans-Serif" font-size="10.00">_EnviromentValue</text>
</a>
</g>
<!-- Node2642&#45;&gt;Node2643 -->
<g id="edge2" class="edge"><title>Node2642&#45;&gt;Node2643</title>
<path fill="none" stroke="midnightblue" d="M67.694,-715.953C76.8758,-827.375 121.964,-1347.32 168,-1401 175.977,-1410.3 186.496,-1417.03 197.841,-1421.88"/>
<polygon fill="midnightblue" stroke="midnightblue" points="71.1588,-715.379 66.8556,-705.697 64.1821,-715.949 71.1588,-715.379"/>
</g>
<!-- Node2644 -->
<g id="node5" class="node"><title>Node2644</title>
<a xlink:href="classokw_1_1core_1_1_e_n___keywords___a_n_t_l_r___test.html#af6fc2eaf63a00647e7cf20878a2b7536" target="_top" xlink:title="okw.core.EN_Keywords\l_ANTLR_Test.tc_VerifyTooltip\l_MemorizedValue">
<polygon fill="white" stroke="black" points="200.5,-1344.5 200.5,-1391.5 351.5,-1391.5 351.5,-1344.5 200.5,-1344.5"/>
<text text-anchor="start" x="208.5" y="-1378.5" font-family="Helvetica,sans-Serif" font-size="10.00">okw.core.EN_Keywords</text>
<text text-anchor="start" x="208.5" y="-1365.5" font-family="Helvetica,sans-Serif" font-size="10.00">_ANTLR_Test.tc_VerifyTooltip</text>
<text text-anchor="middle" x="276" y="-1352.5" font-family="Helvetica,sans-Serif" font-size="10.00">_MemorizedValue</text>
</a>
</g>
<!-- Node2642&#45;&gt;Node2644 -->
<g id="edge4" class="edge"><title>Node2642&#45;&gt;Node2644</title>
<path fill="none" stroke="midnightblue" d="M66.4498,-715.923C69.003,-815.355 84.6938,-1239.28 168,-1335 176.623,-1344.91 188.131,-1351.89 200.422,-1356.8"/>
<polygon fill="midnightblue" stroke="midnightblue" points="69.943,-715.592 66.2049,-705.679 62.945,-715.759 69.943,-715.592"/>
</g>
<!-- Node2645 -->
<g id="node7" class="node"><title>Node2645</title>
<a xlink:href="classokw_1_1core_1_1_e_n___keywords___d_e_l_e_t_e___test.html#aef1aa280938a881904e91fbb8db09a8b" target="_top" xlink:title="okw.core.EN_Keywords\l_DELETE_Test.tcVerifyTablecell\lValueWCM_DELETE_OKWNotAllowedValue\lException">
<polygon fill="white" stroke="black" points="168.5,-1266 168.5,-1326 383.5,-1326 383.5,-1266 168.5,-1266"/>
<text text-anchor="start" x="176.5" y="-1313" font-family="Helvetica,sans-Serif" font-size="10.00">okw.core.EN_Keywords</text>
<text text-anchor="start" x="176.5" y="-1300" font-family="Helvetica,sans-Serif" font-size="10.00">_DELETE_Test.tcVerifyTablecell</text>
<text text-anchor="start" x="176.5" y="-1287" font-family="Helvetica,sans-Serif" font-size="10.00">ValueWCM_DELETE_OKWNotAllowedValue</text>
<text text-anchor="middle" x="276" y="-1274" font-family="Helvetica,sans-Serif" font-size="10.00">Exception</text>
</a>
</g>
<!-- Node2642&#45;&gt;Node2645 -->
<g id="edge6" class="edge"><title>Node2642&#45;&gt;Node2645</title>
<path fill="none" stroke="midnightblue" d="M67.0587,-715.852C72.0999,-807.337 96.4683,-1172.4 168,-1257 170.703,-1260.2 173.689,-1263.13 176.894,-1265.83"/>
<polygon fill="midnightblue" stroke="midnightblue" points="70.5428,-715.458 66.5158,-705.658 63.5527,-715.83 70.5428,-715.458"/>
</g>
<!-- Node2646 -->
<g id="node9" class="node"><title>Node2646</title>
<a xlink:href="classokw_1_1core_1_1_e_n___keywords___empty___test.html#a9fc53dc3dc66074ac611851720cb9a94" target="_top" xlink:title="Prüft &quot;${EMPTY}&quot; für das Schlüsselwort VerifyValue(string,string) ">
<polygon fill="white" stroke="black" points="200,-1200.5 200,-1247.5 352,-1247.5 352,-1200.5 200,-1200.5"/>
<text text-anchor="start" x="208" y="-1234.5" font-family="Helvetica,sans-Serif" font-size="10.00">okw.core.EN_Keywords</text>
<text text-anchor="start" x="208" y="-1221.5" font-family="Helvetica,sans-Serif" font-size="10.00">_Empty_Test.tc_VerifyTooltip_</text>
<text text-anchor="middle" x="276" y="-1208.5" font-family="Helvetica,sans-Serif" font-size="10.00">Empty</text>
</a>
</g>
<!-- Node2642&#45;&gt;Node2646 -->
<g id="edge8" class="edge"><title>Node2642&#45;&gt;Node2646</title>
<path fill="none" stroke="midnightblue" d="M67.5022,-715.873C74.0177,-800.773 102.506,-1119.06 168,-1191 176.645,-1200.5 187.937,-1207.29 199.954,-1212.15"/>
<polygon fill="midnightblue" stroke="midnightblue" points="70.9769,-715.403 66.7415,-705.692 63.9964,-715.925 70.9769,-715.403"/>
</g>
<!-- Node2647 -->
<g id="node11" class="node"><title>Node2647</title>
<a xlink:href="classokw_1_1core_1_1_e_n___keywords___test.html#acd9fb68b19c937fd107640c6fd56338c" target="_top" xlink:title="&quot;Normaler&quot; Testfall für das Schlüsselwort VerifyCaption. ">
<polygon fill="white" stroke="black" points="215,-1148 215,-1182 337,-1182 337,-1148 215,-1148"/>
<text text-anchor="start" x="223" y="-1169" font-family="Helvetica,sans-Serif" font-size="10.00">okw.core.EN_Keywords</text>
<text text-anchor="middle" x="276" y="-1156" font-family="Helvetica,sans-Serif" font-size="10.00">_Test.tc_VerifyTooltip</text>
</a>
</g>
<!-- Node2642&#45;&gt;Node2647 -->
<g id="edge10" class="edge"><title>Node2642&#45;&gt;Node2647</title>
<path fill="none" stroke="midnightblue" d="M67.9353,-716.047C75.6818,-795.713 107.021,-1077.38 168,-1139 180.413,-1151.54 197.749,-1158.44 214.904,-1162.13"/>
<polygon fill="midnightblue" stroke="midnightblue" points="71.3928,-715.433 66.9629,-705.809 64.4242,-716.095 71.3928,-715.433"/>
</g>
<!-- Node2648 -->
<g id="node13" class="node"><title>Node2648</title>
<a xlink:href="classokw_1_1core_1_1_e_n___o_k_w_frame_object_child_not_found_exception___test.html#ac46576609538e5edf8dd2265dd8306c6" target="_top" xlink:title="Prüft ob die Ausnahme OKWFrameObjectChildNotFoundException durch die LFC&#45;VerifyValue ausgelöst wird...">
<polygon fill="white" stroke="black" points="188.5,-1070 188.5,-1130 363.5,-1130 363.5,-1070 188.5,-1070"/>
<text text-anchor="start" x="196.5" y="-1117" font-family="Helvetica,sans-Serif" font-size="10.00">okw.core.EN_OKWFrameObject</text>
<text text-anchor="start" x="196.5" y="-1104" font-family="Helvetica,sans-Serif" font-size="10.00">ChildNotFoundException</text>
<text text-anchor="start" x="196.5" y="-1091" font-family="Helvetica,sans-Serif" font-size="10.00">_Test.TC_VerifyTooltip_OKWFrame</text>
<text text-anchor="middle" x="276" y="-1078" font-family="Helvetica,sans-Serif" font-size="10.00">ObjectChildNotFoundException</text>
</a>
</g>
<!-- Node2642&#45;&gt;Node2648 -->
<g id="edge12" class="edge"><title>Node2642&#45;&gt;Node2648</title>
<path fill="none" stroke="midnightblue" d="M69.2205,-715.668C80.4229,-785.153 119.655,-1008.9 168,-1061 173.898,-1067.36 180.911,-1072.68 188.488,-1077.14"/>
<polygon fill="midnightblue" stroke="midnightblue" points="72.6393,-714.88 67.6134,-705.553 65.7261,-715.979 72.6393,-714.88"/>
</g>
<!-- Node2649 -->
<g id="node15" class="node"><title>Node2649</title>
<a xlink:href="classokw_1_1core_1_1_e_n___o_k_w_frame_object_method_not_implemented___test.html#a2d83a9bb5ad1bf7e685a32a558aaa0bc" target="_top" xlink:title="Prüft ob die Ausnahme OKWFrameObjectMethodNotImplemented von VerifyTooltip( FN, ExpVal ) ausgelöst wi...">
<polygon fill="white" stroke="black" points="179,-992 179,-1052 373,-1052 373,-992 179,-992"/>
<text text-anchor="start" x="187" y="-1039" font-family="Helvetica,sans-Serif" font-size="10.00">okw.core.EN_OKWFrameObject</text>
<text text-anchor="start" x="187" y="-1026" font-family="Helvetica,sans-Serif" font-size="10.00">MethodNotImplemented_Test.TC</text>
<text text-anchor="start" x="187" y="-1013" font-family="Helvetica,sans-Serif" font-size="10.00">_VerifyTooltip_OKWFrameObjectMethod</text>
<text text-anchor="middle" x="276" y="-1000" font-family="Helvetica,sans-Serif" font-size="10.00">NotImplemented</text>
</a>
</g>
<!-- Node2642&#45;&gt;Node2649 -->
<g id="edge14" class="edge"><title>Node2642&#45;&gt;Node2649</title>
<path fill="none" stroke="midnightblue" d="M67.4077,-715.583C72.0585,-767.643 91.3618,-905.889 168,-983 171.373,-986.393 175.062,-989.493 178.979,-992.325"/>
<polygon fill="midnightblue" stroke="midnightblue" points="70.8932,-715.261 66.6037,-705.574 63.9157,-715.822 70.8932,-715.261"/>
</g>
<!-- Node2650 -->
<g id="node17" class="node"><title>Node2650</title>
<a xlink:href="classokw_1_1core_1_1_e_n___o_k_w_not_allowed_value_exception___keywords___i_g_n_o_r_e.html#a4631339fd8d3fa1a2b5975e33bcf3f1d" target="_top" xlink:title="Prüft ob &quot;${IGNORE} &quot; die Ausnahme okw.exceptions.OKWNotAllowedValueException auslöst. ">
<polygon fill="white" stroke="black" points="189.5,-926.5 189.5,-973.5 362.5,-973.5 362.5,-926.5 189.5,-926.5"/>
<text text-anchor="start" x="197.5" y="-960.5" font-family="Helvetica,sans-Serif" font-size="10.00">okw.core.EN_OKWNotAllowed</text>
<text text-anchor="start" x="197.5" y="-947.5" font-family="Helvetica,sans-Serif" font-size="10.00">ValueException_Keywords</text>
<text text-anchor="middle" x="276" y="-934.5" font-family="Helvetica,sans-Serif" font-size="10.00">_IGNORE.tcVerifyTooltipIGNORE1</text>
</a>
</g>
<!-- Node2642&#45;&gt;Node2650 -->
<g id="edge16" class="edge"><title>Node2642&#45;&gt;Node2650</title>
<path fill="none" stroke="midnightblue" d="M69.6264,-715.655C78.3895,-759.378 104.838,-861.79 168,-917 174.347,-922.548 181.61,-927.164 189.3,-931.003"/>
<polygon fill="midnightblue" stroke="midnightblue" points="73.0293,-714.814 67.7275,-705.641 66.1519,-716.118 73.0293,-714.814"/>
</g>
<!-- Node2651 -->
<g id="node19" class="node"><title>Node2651</title>
<a xlink:href="classokw_1_1core_1_1_e_n___o_k_w_not_allowed_value_exception___keywords___i_g_n_o_r_e.html#a3fecf3a3667a64f92cc8abcdd772c8e5" target="_top" xlink:title="Prüft ob &quot;&quot;${IGNORE}${TCN}&quot; die Ausnahme okw.exceptions.OKWNotAllowedValueException auslöst...">
<polygon fill="white" stroke="black" points="189.5,-860.5 189.5,-907.5 362.5,-907.5 362.5,-860.5 189.5,-860.5"/>
<text text-anchor="start" x="197.5" y="-894.5" font-family="Helvetica,sans-Serif" font-size="10.00">okw.core.EN_OKWNotAllowed</text>
<text text-anchor="start" x="197.5" y="-881.5" font-family="Helvetica,sans-Serif" font-size="10.00">ValueException_Keywords</text>
<text text-anchor="middle" x="276" y="-868.5" font-family="Helvetica,sans-Serif" font-size="10.00">_IGNORE.tcVerifyTooltipIGNORE2</text>
</a>
</g>
<!-- Node2642&#45;&gt;Node2651 -->
<g id="edge18" class="edge"><title>Node2642&#45;&gt;Node2651</title>
<path fill="none" stroke="midnightblue" d="M73.7379,-715.085C87.5652,-748.326 119.67,-814.705 168,-851 174.506,-855.886 181.741,-860.055 189.297,-863.611"/>
<polygon fill="midnightblue" stroke="midnightblue" points="76.8753,-713.506 69.8934,-705.537 70.3819,-716.121 76.8753,-713.506"/>
</g>
<!-- Node2652 -->
<g id="node21" class="node"><title>Node2652</title>
<a xlink:href="classokw_1_1core_1_1_e_n___verify_tooltip___o_k_w_verifying_fails_exception___test.html#a4154573bd2215db32edeab3e4d3cd2c6" target="_top" xlink:title="Prüft, ob die Ausnahme OKWVerifyingFailsException bei einem Soll/Ist&#45;Vergleich ausgelöst wird...">
<polygon fill="white" stroke="black" points="186,-782 186,-842 366,-842 366,-782 186,-782"/>
<text text-anchor="start" x="194" y="-829" font-family="Helvetica,sans-Serif" font-size="10.00">okw.core.EN_VerifyTooltip</text>
<text text-anchor="start" x="194" y="-816" font-family="Helvetica,sans-Serif" font-size="10.00">_OKWVerifyingFailsException</text>
<text text-anchor="start" x="194" y="-803" font-family="Helvetica,sans-Serif" font-size="10.00">_Test.tc_VerifyTooltip_OKWVerifying</text>
<text text-anchor="middle" x="276" y="-790" font-family="Helvetica,sans-Serif" font-size="10.00">FailsException_SV01</text>
</a>
</g>
<!-- Node2642&#45;&gt;Node2652 -->
<g id="edge20" class="edge"><title>Node2642&#45;&gt;Node2652</title>
<path fill="none" stroke="midnightblue" d="M85.0198,-712.429C104.626,-729.672 136.668,-755.896 168,-773 173.774,-776.152 179.854,-779.14 186.066,-781.953"/>
<polygon fill="midnightblue" stroke="midnightblue" points="87.2077,-709.691 77.417,-705.642 82.5459,-714.912 87.2077,-709.691"/>
</g>
<!-- Node2653 -->
<g id="node23" class="node"><title>Node2653</title>
<a xlink:href="classokw_1_1core_1_1_e_n___verify_tooltip___o_k_w_verifying_fails_exception___test.html#a093e47d359d7d27c4bcf18be036d31c6" target="_top" xlink:title="Prüft, ob die Ausnahme OKWVerifyingFailsException bei einem Soll/Ist&#45;Vergleich ausgelöst wird...">
<polygon fill="white" stroke="black" points="186,-704 186,-764 366,-764 366,-704 186,-704"/>
<text text-anchor="start" x="194" y="-751" font-family="Helvetica,sans-Serif" font-size="10.00">okw.core.EN_VerifyTooltip</text>
<text text-anchor="start" x="194" y="-738" font-family="Helvetica,sans-Serif" font-size="10.00">_OKWVerifyingFailsException</text>
<text text-anchor="start" x="194" y="-725" font-family="Helvetica,sans-Serif" font-size="10.00">_Test.tc_VerifyTooltip_OKWVerifying</text>
<text text-anchor="middle" x="276" y="-712" font-family="Helvetica,sans-Serif" font-size="10.00">FailsException_SV02</text>
</a>
</g>
<!-- Node2642&#45;&gt;Node2653 -->
<g id="edge22" class="edge"><title>Node2642&#45;&gt;Node2653</title>
<path fill="none" stroke="midnightblue" d="M132.807,-707.407C149.622,-710.53 167.949,-713.933 185.703,-717.231"/>
<polygon fill="midnightblue" stroke="midnightblue" points="133.023,-703.887 122.552,-705.503 131.745,-710.77 133.023,-703.887"/>
</g>
<!-- Node2654 -->
<g id="node25" class="node"><title>Node2654</title>
<a xlink:href="classokw_1_1core_1_1_e_n___verify_tooltip___o_k_w_verifying_fails_exception___test.html#a5836eb0c73c157dd641ca7018f26b2c3" target="_top" xlink:title="Prüft, ob die Ausnahme OKWVerifyingFailsException bei einem Soll/Ist&#45;Vergleich ausgelöst wird...">
<polygon fill="white" stroke="black" points="186,-626 186,-686 366,-686 366,-626 186,-626"/>
<text text-anchor="start" x="194" y="-673" font-family="Helvetica,sans-Serif" font-size="10.00">okw.core.EN_VerifyTooltip</text>
<text text-anchor="start" x="194" y="-660" font-family="Helvetica,sans-Serif" font-size="10.00">_OKWVerifyingFailsException</text>
<text text-anchor="start" x="194" y="-647" font-family="Helvetica,sans-Serif" font-size="10.00">_Test.tc_VerifyTooltip_OKWVerifying</text>
<text text-anchor="middle" x="276" y="-634" font-family="Helvetica,sans-Serif" font-size="10.00">FailsException_SV03</text>
</a>
</g>
<!-- Node2642&#45;&gt;Node2654 -->
<g id="edge24" class="edge"><title>Node2642&#45;&gt;Node2654</title>
<path fill="none" stroke="midnightblue" d="M132.807,-682.593C149.622,-679.47 167.949,-676.067 185.703,-672.769"/>
<polygon fill="midnightblue" stroke="midnightblue" points="131.745,-679.23 122.552,-684.497 133.023,-686.113 131.745,-679.23"/>
</g>
<!-- Node2655 -->
<g id="node27" class="node"><title>Node2655</title>
<a xlink:href="classokw_1_1core_1_1_e_n___verify_tooltip___o_k_w_verifying_fails_exception___test.html#afd2d3f8ba38ae6d7cd04aecbd34d62e8" target="_top" xlink:title="Prüft, ob die Ausnahme OKWVerifyingFailsException bei einem Soll/Ist&#45;Vergleich ausgelöst wird...">
<polygon fill="white" stroke="black" points="186,-548 186,-608 366,-608 366,-548 186,-548"/>
<text text-anchor="start" x="194" y="-595" font-family="Helvetica,sans-Serif" font-size="10.00">okw.core.EN_VerifyTooltip</text>
<text text-anchor="start" x="194" y="-582" font-family="Helvetica,sans-Serif" font-size="10.00">_OKWVerifyingFailsException</text>
<text text-anchor="start" x="194" y="-569" font-family="Helvetica,sans-Serif" font-size="10.00">_Test.tc_VerifyTooltip_OKWVerifying</text>
<text text-anchor="middle" x="276" y="-556" font-family="Helvetica,sans-Serif" font-size="10.00">FailsException_MV01</text>
</a>
</g>
<!-- Node2642&#45;&gt;Node2655 -->
<g id="edge26" class="edge"><title>Node2642&#45;&gt;Node2655</title>
<path fill="none" stroke="midnightblue" d="M85.0198,-677.571C104.626,-660.328 136.668,-634.104 168,-617 173.774,-613.848 179.854,-610.86 186.066,-608.047"/>
<polygon fill="midnightblue" stroke="midnightblue" points="82.5459,-675.088 77.417,-684.358 87.2077,-680.309 82.5459,-675.088"/>
</g>
<!-- Node2656 -->
<g id="node29" class="node"><title>Node2656</title>
<a xlink:href="classokw_1_1core_1_1_e_n___verify_tooltip___o_k_w_verifying_fails_exception___test.html#a5c0d99347013a0d2de1b9687a6471364" target="_top" xlink:title="Prüft, ob die Ausnahme OKWVerifyingFailsException bei einem Soll/Ist&#45;Vergleich ausgelöst wird...">
<polygon fill="white" stroke="black" points="186,-470 186,-530 366,-530 366,-470 186,-470"/>
<text text-anchor="start" x="194" y="-517" font-family="Helvetica,sans-Serif" font-size="10.00">okw.core.EN_VerifyTooltip</text>
<text text-anchor="start" x="194" y="-504" font-family="Helvetica,sans-Serif" font-size="10.00">_OKWVerifyingFailsException</text>
<text text-anchor="start" x="194" y="-491" font-family="Helvetica,sans-Serif" font-size="10.00">_Test.tc_VerifyTooltip_OKWVerifying</text>
<text text-anchor="middle" x="276" y="-478" font-family="Helvetica,sans-Serif" font-size="10.00">FailsException_MV02</text>
</a>
</g>
<!-- Node2642&#45;&gt;Node2656 -->
<g id="edge28" class="edge"><title>Node2642&#45;&gt;Node2656</title>
<path fill="none" stroke="midnightblue" d="M74.1462,-674.699C88.3786,-641.686 120.821,-576.311 168,-539 173.473,-534.672 179.468,-530.798 185.74,-527.336"/>
<polygon fill="midnightblue" stroke="midnightblue" points="70.8005,-673.628 70.1695,-684.204 77.258,-676.33 70.8005,-673.628"/>
</g>
<!-- Node2657 -->
<g id="node31" class="node"><title>Node2657</title>
<a xlink:href="classokw_1_1core_1_1_e_n___verify_tooltip___o_k_w_verifying_fails_exception___test.html#aa8e11ade33902ea207796749753d42d8" target="_top" xlink:title="Prüft, ob die Ausnahme OKWVerifyingFailsException bei einem Soll/Ist&#45;Vergleich ausgelöst wird...">
<polygon fill="white" stroke="black" points="186,-392 186,-452 366,-452 366,-392 186,-392"/>
<text text-anchor="start" x="194" y="-439" font-family="Helvetica,sans-Serif" font-size="10.00">okw.core.EN_VerifyTooltip</text>
<text text-anchor="start" x="194" y="-426" font-family="Helvetica,sans-Serif" font-size="10.00">_OKWVerifyingFailsException</text>
<text text-anchor="start" x="194" y="-413" font-family="Helvetica,sans-Serif" font-size="10.00">_Test.tc_VerifyTooltip_OKWVerifying</text>
<text text-anchor="middle" x="276" y="-400" font-family="Helvetica,sans-Serif" font-size="10.00">FailsException_MV03</text>
</a>
</g>
<!-- Node2642&#45;&gt;Node2657 -->
<g id="edge30" class="edge"><title>Node2642&#45;&gt;Node2657</title>
<path fill="none" stroke="midnightblue" d="M69.3336,-674.419C77.6816,-629.393 103.62,-521.354 168,-461 173.381,-455.955 179.463,-451.554 185.93,-447.716"/>
<polygon fill="midnightblue" stroke="midnightblue" points="65.856,-673.988 67.5776,-684.442 72.751,-675.196 65.856,-673.988"/>
</g>
<!-- Node2658 -->
<g id="node33" class="node"><title>Node2658</title>
<a xlink:href="classokw_1_1_se_button_1_1_se_button___test.html#a3b575cc10f3d9838ef802eb64d8e3538" target="_top" xlink:title="Test des Schlüsselwortes VerifyToolTip für den GUI&#45;Adapter SeButton. ">
<polygon fill="white" stroke="black" points="215,-340 215,-374 337,-374 337,-340 215,-340"/>
<text text-anchor="start" x="223" y="-361" font-family="Helvetica,sans-Serif" font-size="10.00">okw.SeButton.SeButton</text>
<text text-anchor="middle" x="276" y="-348" font-family="Helvetica,sans-Serif" font-size="10.00">_Test.tcVerifyToolTip</text>
</a>
</g>
<!-- Node2642&#45;&gt;Node2658 -->
<g id="edge32" class="edge"><title>Node2642&#45;&gt;Node2658</title>
<path fill="none" stroke="midnightblue" d="M70.0245,-674.377C82.6943,-611.505 123.564,-424.028 168,-383 180.753,-371.226 197.887,-364.516 214.746,-360.767"/>
<polygon fill="midnightblue" stroke="midnightblue" points="66.5698,-673.805 68.0527,-684.296 73.4354,-675.17 66.5698,-673.805"/>
</g>
<!-- Node2659 -->
<g id="node35" class="node"><title>Node2659</title>
<a xlink:href="classokw_1_1_se_input_checkbox_1_1_se_input_checkbox___test.html#a702ffb63f0af2c995bd71ca884b0f408" target="_top" xlink:title="Prüft die SetFocusFunktion bei Textfelder mit dem Attribute &quot;ReadOnly&quot;. ">
<polygon fill="white" stroke="black" points="200,-288 200,-322 352,-322 352,-288 200,-288"/>
<text text-anchor="start" x="208" y="-309" font-family="Helvetica,sans-Serif" font-size="10.00">okw.SeInputCheckbox.SeInput</text>
<text text-anchor="middle" x="276" y="-296" font-family="Helvetica,sans-Serif" font-size="10.00">Checkbox_Test.tcSetFocus</text>
</a>
</g>
<!-- Node2642&#45;&gt;Node2659 -->
<g id="edge34" class="edge"><title>Node2642&#45;&gt;Node2659</title>
<path fill="none" stroke="midnightblue" d="M69.0273,-674.239C79.6086,-604.471 117.081,-380.071 168,-331 176.888,-322.435 188.081,-316.528 199.873,-312.484"/>
<polygon fill="midnightblue" stroke="midnightblue" points="65.5258,-673.99 67.5124,-684.396 72.4493,-675.022 65.5258,-673.99"/>
</g>
<!-- Node2660 -->
<g id="node37" class="node"><title>Node2660</title>
<a xlink:href="classokw_1_1_se_input_field_1_1_se_input_field___test.html#ab2da25dabf85279d19799e9fbcaea718" target="_top" xlink:title="Test des Schlüsselwortes &quot;VerifyValue( FN, ExpVal ) für SeInputText. ">
<polygon fill="white" stroke="black" points="209.5,-236 209.5,-270 342.5,-270 342.5,-236 209.5,-236"/>
<text text-anchor="start" x="217.5" y="-257" font-family="Helvetica,sans-Serif" font-size="10.00">okw.SeInputField.SeInput</text>
<text text-anchor="middle" x="276" y="-244" font-family="Helvetica,sans-Serif" font-size="10.00">Field_Test.tcVerifyCaption</text>
</a>
</g>
<!-- Node2642&#45;&gt;Node2660 -->
<g id="edge36" class="edge"><title>Node2642&#45;&gt;Node2660</title>
<path fill="none" stroke="midnightblue" d="M68.2436,-674.312C76.8925,-598.351 110.488,-336.27 168,-279 179.138,-267.909 194.13,-261.245 209.393,-257.313"/>
<polygon fill="midnightblue" stroke="midnightblue" points="64.7389,-674.159 67.109,-684.485 71.6958,-674.935 64.7389,-674.159"/>
</g>
<!-- Node2661 -->
<g id="node39" class="node"><title>Node2661</title>
<a xlink:href="classokw_1_1_se_input_field_1_1_se_input_field___test.html#aa7612889d0a642c440c6a085e205ac8f" target="_top" xlink:title="okw.SeInputField.SeInput\lField_Test.tcSelect_OKWGUIObject\lNotFoundException">
<polygon fill="white" stroke="black" points="187.5,-170.5 187.5,-217.5 364.5,-217.5 364.5,-170.5 187.5,-170.5"/>
<text text-anchor="start" x="195.5" y="-204.5" font-family="Helvetica,sans-Serif" font-size="10.00">okw.SeInputField.SeInput</text>
<text text-anchor="start" x="195.5" y="-191.5" font-family="Helvetica,sans-Serif" font-size="10.00">Field_Test.tcSelect_OKWGUIObject</text>
<text text-anchor="middle" x="276" y="-178.5" font-family="Helvetica,sans-Serif" font-size="10.00">NotFoundException</text>
</a>
</g>
<!-- Node2642&#45;&gt;Node2661 -->
<g id="edge38" class="edge"><title>Node2642&#45;&gt;Node2661</title>
<path fill="none" stroke="midnightblue" d="M67.7924,-673.993C75.1986,-591.945 105.982,-294.321 168,-227 173.579,-220.944 180.235,-215.986 187.463,-211.931"/>
<polygon fill="midnightblue" stroke="midnightblue" points="64.2938,-673.824 66.9017,-684.093 71.2667,-674.439 64.2938,-673.824"/>
</g>
<!-- Node2662 -->
<g id="node41" class="node"><title>Node2662</title>
<a xlink:href="classokw_1_1_se_input_radio_1_1_se_input_radio___e_n___test.html#a15d1be869a8007c4af24bb3d416bcd04" target="_top" xlink:title="Test des Schlüsselwortes VerifyToolTip für den GUI&#45;Adapter SeInputRadio. ">
<polygon fill="white" stroke="black" points="195.5,-118 195.5,-152 356.5,-152 356.5,-118 195.5,-118"/>
<text text-anchor="start" x="203.5" y="-139" font-family="Helvetica,sans-Serif" font-size="10.00">okw.SeInputRadio.SeInput</text>
<text text-anchor="middle" x="276" y="-126" font-family="Helvetica,sans-Serif" font-size="10.00">Radio_EN_Test.tc_VerifyToolTip</text>
</a>
</g>
<!-- Node2642&#45;&gt;Node2662 -->
<g id="edge40" class="edge"><title>Node2642&#45;&gt;Node2662</title>
<path fill="none" stroke="midnightblue" d="M67.0446,-674.149C71.9335,-585.014 95.4592,-237.072 168,-161 175.586,-153.044 185.149,-147.343 195.431,-143.285"/>
<polygon fill="midnightblue" stroke="midnightblue" points="63.539,-674.163 66.5065,-684.334 70.5293,-674.533 63.539,-674.163"/>
</g>
<!-- Node2663 -->
<g id="node43" class="node"><title>Node2663</title>
<a xlink:href="classokw_1_1_se_link_1_1_se_link___e_n___test.html#a1fad39475422a862685d82bc548203b8" target="_top" xlink:title="Prüft die Methode SeLink.VerifyExists. ">
<polygon fill="white" stroke="black" points="216,-52.5 216,-99.5 336,-99.5 336,-52.5 216,-52.5"/>
<text text-anchor="start" x="224" y="-86.5" font-family="Helvetica,sans-Serif" font-size="10.00">okw.SeLink.SeLink_EN</text>
<text text-anchor="start" x="224" y="-73.5" font-family="Helvetica,sans-Serif" font-size="10.00">_Test.TC_VerifyExists</text>
<text text-anchor="middle" x="276" y="-60.5" font-family="Helvetica,sans-Serif" font-size="10.00">_YES_NoObject</text>
</a>
</g>
<!-- Node2642&#45;&gt;Node2663 -->
<g id="edge42" class="edge"><title>Node2642&#45;&gt;Node2663</title>
<path fill="none" stroke="midnightblue" d="M66.7866,-674.075C70.7412,-579.848 91.3997,-195.759 168,-109 180.263,-95.1113 198.188,-86.9796 215.926,-82.2472"/>
<polygon fill="midnightblue" stroke="midnightblue" points="63.2797,-674.178 66.3761,-684.31 70.2741,-674.458 63.2797,-674.178"/>
</g>
<!-- Node2664 -->
<g id="node45" class="node"><title>Node2664</title>
<a xlink:href="classokw_1_1_se_radio_list_1_1_se_radio_list___test.html#ab83d307b3b1165aa9d82a7b0c667f6b8" target="_top" xlink:title="okw.SeRadioList.SeRadioList\l_Test.tcLogIsActive">
<polygon fill="white" stroke="black" points="202.5,-0 202.5,-34 349.5,-34 349.5,-0 202.5,-0"/>
<text text-anchor="start" x="210.5" y="-21" font-family="Helvetica,sans-Serif" font-size="10.00">okw.SeRadioList.SeRadioList</text>
<text text-anchor="middle" x="276" y="-8" font-family="Helvetica,sans-Serif" font-size="10.00">_Test.tcLogIsActive</text>
</a>
</g>
<!-- Node2642&#45;&gt;Node2664 -->
<g id="edge44" class="edge"><title>Node2642&#45;&gt;Node2664</title>
<path fill="none" stroke="midnightblue" d="M66.2628,-673.887C67.9585,-572.671 80.3172,-138.095 168,-43 177.151,-33.0751 189.373,-26.6339 202.302,-22.5134"/>
<polygon fill="midnightblue" stroke="midnightblue" points="62.7606,-674.015 66.1106,-684.066 69.7599,-674.119 62.7606,-674.015"/>
</g>
</g>
</svg>
        <g id="navigator" transform="translate(0 0)" fill="#404254">
                <rect fill="#f2f5e9" fill-opacity="0.5" stroke="#606060" stroke-width=".5" x="0" y="0" width="60" height="60"/>
                <use id="zoomplus" xlink:href="#zoomPlus" x="17" y="9" onmousedown="handleZoom(evt,'in')"/>
                <use id="zoomminus" xlink:href="#zoomMin" x="42" y="9" onmousedown="handleZoom(evt,'out')"/>
                <use id="reset" xlink:href="#resetDef" x="30" y="36" onmousedown="handleReset()"/>
                <g id="arrowUp" xlink:href="#dirArrow" transform="translate(30 24)" onmousedown="handlePan(0,-1)">
                  <use xlink:href="#rim" fill="#404040">
                        <set attributeName="fill" to="#808080" begin="arrowUp.mouseover" end="arrowUp.mouseout"/>
                  </use>
                  <path fill="none" stroke="white" stroke-width="1.5" d="M0,-3.0v7 M-2.5,-0.5L0,-3.0L2.5,-0.5"/>
                </g>
                <g id="arrowRight" xlink:href="#dirArrow" transform="rotate(90) translate(36 -43)" onmousedown="handlePan(1,0)">
                  <use xlink:href="#rim" fill="#404040">
                        <set attributeName="fill" to="#808080" begin="arrowRight.mouseover" end="arrowRight.mouseout"/>
                  </use>
                  <path fill="none" stroke="white" stroke-width="1.5" d="M0,-3.0v7 M-2.5,-0.5L0,-3.0L2.5,-0.5"/>
                </g>
                <g id="arrowDown" xlink:href="#dirArrow" transform="rotate(180) translate(-30 -48)" onmousedown="handlePan(0,1)">
                  <use xlink:href="#rim" fill="#404040">
                        <set attributeName="fill" to="#808080" begin="arrowDown.mouseover" end="arrowDown.mouseout"/>
                  </use>
                  <path fill="none" stroke="white" stroke-width="1.5" d="M0,-3.0v7 M-2.5,-0.5L0,-3.0L2.5,-0.5"/>
                </g>
                <g id="arrowLeft" xlink:href="#dirArrow" transform="rotate(270) translate(-36 17)" onmousedown="handlePan(-1,0)">
                  <use xlink:href="#rim" fill="#404040">
                        <set attributeName="fill" to="#808080" begin="arrowLeft.mouseover" end="arrowLeft.mouseout"/>
                  </use>
                  <path fill="none" stroke="white" stroke-width="1.5" d="M0,-3.0v7 M-2.5,-0.5L0,-3.0L2.5,-0.5"/>
                </g>
        </g>
        <svg viewBox="0 0 15 15" width="100%" height="30px" preserveAspectRatio="xMaxYMin meet">
         <g id="arrow_out" transform="scale(0.3 0.3)">
          <a xlink:href="classokw_1_1core_1_1_e_n_a7a19b4149e808ffc7fbaca9d0e6412b3_icgraph_org.svg" target="_base">
           <rect id="button" ry="5" rx="5" y="6" x="6" height="38" width="38"
                fill="#f2f5e9" fill-opacity="0.5" stroke="#606060" stroke-width="1.0"/>
           <path id="arrow"
             d="M 11.500037,31.436501 C 11.940474,20.09759 22.043105,11.32322 32.158766,21.979434 L 37.068811,17.246167 C 37.068811,17.246167 37.088388,32 37.088388,32 L 22.160133,31.978069 C 22.160133,31.978069 26.997745,27.140456 26.997745,27.140456 C 18.528582,18.264221 13.291696,25.230495 11.500037,31.436501 z"
             style="fill:#404040;"/>
          </a>
         </g>
        </svg>
</svg>
