<?xml version="1.0" encoding="UTF-8" standalone="no"?>
<!DOCTYPE svg PUBLIC "-//W3C//DTD SVG 1.1//EN"
 "http://www.w3.org/Graphics/SVG/1.1/DTD/svg11.dtd">
<!-- Generated by graphviz version 2.36.0 (20140111.2315)
 -->
<!-- Title: okw.core.EN.VerifyTooltip Pages: 1 -->
<!--zoomable 165 -->
<svg id="main" version="1.1" xmlns="http://www.w3.org/2000/svg" xmlns:xlink="http://www.w3.org/1999/xlink" xml:space="preserve" onload="init(evt)">
<style type="text/css"><![CDATA[
.edge:hover path { stroke: red; }
.edge:hover polygon { stroke: red; fill: red; }
]]></style>
<script type="text/javascript"><![CDATA[
var edges = document.getElementsByTagName('g');
if (edges && edges.length) {
  for (var i=0;i<edges.length;i++) {
    if (edges[i].id.substr(0,4)=='edge') {
      edges[i].setAttribute('class','edge');
    }
  }
}
]]></script>
        <defs>
                <circle id="rim" cx="0" cy="0" r="7"/>
                <circle id="rim2" cx="0" cy="0" r="3.5"/>
                <g id="zoomPlus">
                        <use xlink:href="#rim" fill="#404040">
                                <set attributeName="fill" to="#808080" begin="zoomplus.mouseover" end="zoomplus.mouseout"/>
                        </use>
                        <path d="M-4,0h8M0,-4v8" fill="none" stroke="white" stroke-width="1.5" pointer-events="none"/>
                </g>
                <g id="zoomMin">
                        <use xlink:href="#rim" fill="#404040">
                                <set attributeName="fill" to="#808080" begin="zoomminus.mouseover" end="zoomminus.mouseout"/>
                        </use>
                        <path d="M-4,0h8" fill="none" stroke="white" stroke-width="1.5" pointer-events="none"/>
                </g>
                <g id="dirArrow">
                        <path fill="none" stroke="white" stroke-width="1.5" d="M0,-3.0v7 M-2.5,-0.5L0,-3.0L2.5,-0.5"/>
                </g>
               <g id="resetDef">
                       <use xlink:href="#rim2" fill="#404040">
                               <set attributeName="fill" to="#808080" begin="reset.mouseover" end="reset.mouseout"/>
                       </use>
               </g>
        </defs>

<script type="text/javascript">
var viewWidth = 918;
var viewHeight = 165;
var sectionId = 'dynsection-103';
</script>
<script xlink:href="svgpan.js"/>
<svg id="graph" class="graph">
<g id="viewport">
<title>okw.core.EN.VerifyTooltip</title>
<polygon fill="white" stroke="none" points="-4,4 -4,-161 914,-161 914,4 -4,4"/>
<!-- Node3387 -->
<g id="node1" class="node"><title>Node3387</title>
<polygon fill="#bfbfbf" stroke="black" points="0.5,-92.5 0.5,-111.5 131.5,-111.5 131.5,-92.5 0.5,-92.5"/>
<text text-anchor="middle" x="66" y="-99.5" font-family="Helvetica,sans-Serif" font-size="10.00">okw.core.EN.VerifyTooltip</text>
</g>
<!-- Node3388 -->
<g id="node2" class="node"><title>Node3388</title>
<g id="a_node2"><a xlink:href="classokw_1_1core_1_1_core.html#ab4e0f723d27cb11c944ec4c82c426100" target="_top" xlink:title="Setzt die Sprache auf den gegebenen wert Language. ">
<polygon fill="white" stroke="black" points="168.5,-124.5 168.5,-143.5 307.5,-143.5 307.5,-124.5 168.5,-124.5"/>
<text text-anchor="middle" x="238" y="-131.5" font-family="Helvetica,sans-Serif" font-size="10.00">okw.core.Core.setLanguage</text>
</a>
</g>
</g>
<!-- Node3387&#45;&gt;Node3388 -->
<g id="edge1" class="edge"><title>Node3387&#45;&gt;Node3388</title>
<path fill="none" stroke="midnightblue" d="M117.545,-111.514C136.048,-114.997 157.173,-118.974 176.461,-122.604"/>
<polygon fill="midnightblue" stroke="midnightblue" points="175.881,-126.057 186.356,-124.467 177.176,-119.177 175.881,-126.057"/>
</g>
<!-- Node3390 -->
<g id="node4" class="node"><title>Node3390</title>
<g id="a_node4"><a xlink:href="classokw_1_1core_1_1_core.html#aa53c4a10dcd4eb1a6ae2c41eb9f23ee2" target="_top" xlink:title="Prüft den Tooltip&#45;Text eines Objektes. ">
<polygon fill="white" stroke="black" points="169,-61.5 169,-80.5 307,-80.5 307,-61.5 169,-61.5"/>
<text text-anchor="middle" x="238" y="-68.5" font-family="Helvetica,sans-Serif" font-size="10.00">okw.core.Core.VerifyTooltip</text>
</a>
</g>
</g>
<!-- Node3387&#45;&gt;Node3390 -->
<g id="edge3" class="edge"><title>Node3387&#45;&gt;Node3390</title>
<path fill="none" stroke="midnightblue" d="M119.393,-92.446C136.926,-89.2488 156.641,-85.6538 174.845,-82.3341"/>
<polygon fill="midnightblue" stroke="midnightblue" points="175.57,-85.7597 184.78,-80.5224 174.315,-78.8732 175.57,-85.7597"/>
</g>
<!-- Node3389 -->
<g id="node3" class="node"><title>Node3389</title>
<g id="a_node3"><a xlink:href="interfaceokw_1_1core_1_1_i_o_k_w___state.html#a866baa0bde08a47418f54d63bdb56097" target="_top" xlink:title="Interne Methode zum setzen der Sprache für die sprachabhängigen Ausgaben der Dokumentation (Log)...">
<polygon fill="white" stroke="black" points="344.5,-137.5 344.5,-156.5 517.5,-156.5 517.5,-137.5 344.5,-137.5"/>
<text text-anchor="middle" x="431" y="-144.5" font-family="Helvetica,sans-Serif" font-size="10.00">okw.core.IOKW_State.setLanguage</text>
</a>
</g>
</g>
<!-- Node3388&#45;&gt;Node3389 -->
<g id="edge2" class="edge"><title>Node3388&#45;&gt;Node3389</title>
<path fill="none" stroke="midnightblue" d="M307.686,-138.675C316.311,-139.262 325.254,-139.871 334.2,-140.48"/>
<polygon fill="midnightblue" stroke="midnightblue" points="334.071,-143.979 344.285,-141.166 334.546,-136.995 334.071,-143.979"/>
</g>
<!-- Node3391 -->
<g id="node5" class="node"><title>Node3391</title>
<g id="a_node5"><a xlink:href="classokw_1_1log_1_1_logger___sngltn.html#a70ec25e200e00ecefc544e8fd371d2ef" target="_top" xlink:title="Ausgabe eines Schlüsselwortes. ">
<polygon fill="white" stroke="black" points="364,-88 364,-118 498,-118 498,-88 364,-88"/>
<text text-anchor="start" x="372" y="-106" font-family="Helvetica,sans-Serif" font-size="10.00">okw.log.Logger_Sngltn.Log</text>
<text text-anchor="middle" x="431" y="-95" font-family="Helvetica,sans-Serif" font-size="10.00">KeyWordStart</text>
</a>
</g>
</g>
<!-- Node3390&#45;&gt;Node3391 -->
<g id="edge4" class="edge"><title>Node3390&#45;&gt;Node3391</title>
<path fill="none" stroke="midnightblue" d="M295.789,-80.5144C313.956,-83.558 334.372,-86.9785 353.694,-90.2158"/>
<polygon fill="midnightblue" stroke="midnightblue" points="353.24,-93.6884 363.681,-91.889 354.397,-86.7847 353.24,-93.6884"/>
</g>
<!-- Node3392 -->
<g id="node6" class="node"><title>Node3392</title>
<g id="a_node6"><a xlink:href="classokw_1_1_log_messenger.html#af225d1f037d47b3b085175c09d78bdd2" target="_top" xlink:title="Holt die Log&#45;Meldung für MethodeNmae/Textkey ohne weitere Parameter. ">
<polygon fill="white" stroke="black" points="351,-49.5 351,-68.5 511,-68.5 511,-49.5 351,-49.5"/>
<text text-anchor="middle" x="431" y="-56.5" font-family="Helvetica,sans-Serif" font-size="10.00">okw.LogMessenger.GetMessage</text>
</a>
</g>
</g>
<!-- Node3390&#45;&gt;Node3392 -->
<g id="edge5" class="edge"><title>Node3390&#45;&gt;Node3392</title>
<path fill="none" stroke="midnightblue" d="M307.146,-66.7185C317.974,-66.0383 329.313,-65.3259 340.541,-64.6205"/>
<polygon fill="midnightblue" stroke="midnightblue" points="341.042,-68.096 350.803,-63.9757 340.603,-61.1098 341.042,-68.096"/>
</g>
<!-- Node3395 -->
<g id="node9" class="node"><title>Node3395</title>
<g id="a_node9"><a xlink:href="interfaceokw_1_1core_1_1_i_o_k_w___state.html#a1490b97398a9c1f4da2a45ea683135d6" target="_top" xlink:title="Prüft den Tooltip&#45;Text eines Objektes. ">
<polygon fill="white" stroke="black" points="359.5,-0 359.5,-30 502.5,-30 502.5,-0 359.5,-0"/>
<text text-anchor="start" x="367.5" y="-18" font-family="Helvetica,sans-Serif" font-size="10.00">okw.core.IOKW_State.Verify</text>
<text text-anchor="middle" x="431" y="-7" font-family="Helvetica,sans-Serif" font-size="10.00">Tooltip</text>
</a>
</g>
</g>
<!-- Node3390&#45;&gt;Node3395 -->
<g id="edge8" class="edge"><title>Node3390&#45;&gt;Node3395</title>
<path fill="none" stroke="midnightblue" d="M271.158,-61.4679C291.935,-55.3187 319.558,-47.1607 344,-40 351.936,-37.6749 360.287,-35.2368 368.538,-32.833"/>
<polygon fill="midnightblue" stroke="midnightblue" points="369.523,-36.1916 378.146,-30.0358 367.566,-29.4706 369.523,-36.1916"/>
</g>
<!-- Node3393 -->
<g id="node7" class="node"><title>Node3393</title>
<g id="a_node7"><a xlink:href="classokw_1_1_log_messenger.html#a530cd6ab82ec82a04206a2e976ec06e3" target="_top" xlink:title="Interne Kernfunktion holt die Log&#45;Meldung mit Platzhaltern aus der XML&#45;Datei. ">
<polygon fill="white" stroke="black" points="554.5,-49.5 554.5,-68.5 721.5,-68.5 721.5,-49.5 554.5,-49.5"/>
<text text-anchor="middle" x="638" y="-56.5" font-family="Helvetica,sans-Serif" font-size="10.00">okw.LogMessenger.ReadMessage</text>
</a>
</g>
</g>
<!-- Node3392&#45;&gt;Node3393 -->
<g id="edge6" class="edge"><title>Node3392&#45;&gt;Node3393</title>
<path fill="none" stroke="midnightblue" d="M511.258,-59C522.041,-59 533.186,-59 544.181,-59"/>
<polygon fill="midnightblue" stroke="midnightblue" points="544.222,-62.5001 554.222,-59 544.222,-55.5001 544.222,-62.5001"/>
</g>
<!-- Node3394 -->
<g id="node8" class="node"><title>Node3394</title>
<g id="a_node8"><a xlink:href="classokw_1_1_o_k_w___xml_reader.html#ab920b5335a2e1429c14cc5f8e79f39eb" target="_top" xlink:title="Lies den TextContent eines Tag. ">
<polygon fill="white" stroke="black" points="758,-44 758,-74 910,-74 910,-44 758,-44"/>
<text text-anchor="start" x="766" y="-62" font-family="Helvetica,sans-Serif" font-size="10.00">okw.OKW_XmlReader.getText</text>
<text text-anchor="middle" x="834" y="-51" font-family="Helvetica,sans-Serif" font-size="10.00">ContentSingleValue</text>
</a>
</g>
</g>
<!-- Node3393&#45;&gt;Node3394 -->
<g id="edge7" class="edge"><title>Node3393&#45;&gt;Node3394</title>
<path fill="none" stroke="midnightblue" d="M721.555,-59C730.227,-59 739.057,-59 747.759,-59"/>
<polygon fill="midnightblue" stroke="midnightblue" points="747.899,-62.5001 757.899,-59 747.899,-55.5001 747.899,-62.5001"/>
</g>
</g>
</svg>
        <g id="navigator" transform="translate(0 0)" fill="#404254">
                <rect fill="#f2f5e9" fill-opacity="0.5" stroke="#606060" stroke-width=".5" x="0" y="0" width="60" height="60"/>
                <use id="zoomplus" xlink:href="#zoomPlus" x="17" y="9" onmousedown="handleZoom(evt,'in')"/>
                <use id="zoomminus" xlink:href="#zoomMin" x="42" y="9" onmousedown="handleZoom(evt,'out')"/>
                <use id="reset" xlink:href="#resetDef" x="30" y="36" onmousedown="handleReset()"/>
                <g id="arrowUp" xlink:href="#dirArrow" transform="translate(30 24)" onmousedown="handlePan(0,-1)">
                  <use xlink:href="#rim" fill="#404040">
                        <set attributeName="fill" to="#808080" begin="arrowUp.mouseover" end="arrowUp.mouseout"/>
                  </use>
                  <path fill="none" stroke="white" stroke-width="1.5" d="M0,-3.0v7 M-2.5,-0.5L0,-3.0L2.5,-0.5"/>
                </g>
                <g id="arrowRight" xlink:href="#dirArrow" transform="rotate(90) translate(36 -43)" onmousedown="handlePan(1,0)">
                  <use xlink:href="#rim" fill="#404040">
                        <set attributeName="fill" to="#808080" begin="arrowRight.mouseover" end="arrowRight.mouseout"/>
                  </use>
                  <path fill="none" stroke="white" stroke-width="1.5" d="M0,-3.0v7 M-2.5,-0.5L0,-3.0L2.5,-0.5"/>
                </g>
                <g id="arrowDown" xlink:href="#dirArrow" transform="rotate(180) translate(-30 -48)" onmousedown="handlePan(0,1)">
                  <use xlink:href="#rim" fill="#404040">
                        <set attributeName="fill" to="#808080" begin="arrowDown.mouseover" end="arrowDown.mouseout"/>
                  </use>
                  <path fill="none" stroke="white" stroke-width="1.5" d="M0,-3.0v7 M-2.5,-0.5L0,-3.0L2.5,-0.5"/>
                </g>
                <g id="arrowLeft" xlink:href="#dirArrow" transform="rotate(270) translate(-36 17)" onmousedown="handlePan(-1,0)">
                  <use xlink:href="#rim" fill="#404040">
                        <set attributeName="fill" to="#808080" begin="arrowLeft.mouseover" end="arrowLeft.mouseout"/>
                  </use>
                  <path fill="none" stroke="white" stroke-width="1.5" d="M0,-3.0v7 M-2.5,-0.5L0,-3.0L2.5,-0.5"/>
                </g>
        </g>
        <svg viewBox="0 0 15 15" width="100%" height="30px" preserveAspectRatio="xMaxYMin meet">
         <g id="arrow_out" transform="scale(0.3 0.3)">
          <a xlink:href="classokw_1_1core_1_1_e_n_a7a19b4149e808ffc7fbaca9d0e6412b3_cgraph_org.svg" target="_base">
           <rect id="button" ry="5" rx="5" y="6" x="6" height="38" width="38"
                fill="#f2f5e9" fill-opacity="0.5" stroke="#606060" stroke-width="1.0"/>
           <path id="arrow"
             d="M 11.500037,31.436501 C 11.940474,20.09759 22.043105,11.32322 32.158766,21.979434 L 37.068811,17.246167 C 37.068811,17.246167 37.088388,32 37.088388,32 L 22.160133,31.978069 C 22.160133,31.978069 26.997745,27.140456 26.997745,27.140456 C 18.528582,18.264221 13.291696,25.230495 11.500037,31.436501 z"
             style="fill:#404040;"/>
          </a>
         </g>
        </svg>
</svg>
