<?xml version="1.0" encoding="UTF-8" standalone="no"?>
<!DOCTYPE svg PUBLIC "-//W3C//DTD SVG 1.1//EN"
 "http://www.w3.org/Graphics/SVG/1.1/DTD/svg11.dtd">
<!-- Generated by graphviz version 2.38.0 (20140413.2041)
 -->
<!-- Title: okw.core.OKW_CurrentObject_Sngltn.TypeKeyWindow Pages: 1 -->
<svg width="349pt" height="39pt"
 viewBox="0.00 0.00 349.00 39.00" xmlns="http://www.w3.org/2000/svg" xmlns:xlink="http://www.w3.org/1999/xlink">
<g id="graph0" class="graph" transform="scale(1 1) rotate(0) translate(4 35)">
<title>okw.core.OKW_CurrentObject_Sngltn.TypeKeyWindow</title>
<polygon fill="white" stroke="none" points="-4,4 -4,-35 345,-35 345,4 -4,4"/>
<!-- Node273 -->
<g id="node1" class="node"><title>Node273</title>
<g id="a_node1"><a xlink:title="Ruft eine Methode TypeKeyWindow( Val ) des aktuellen Objektes via &quot;Latebound Function Call&quot; auf.">
<polygon fill="#bfbfbf" stroke="black" points="186,-0.5 186,-30.5 341,-30.5 341,-0.5 186,-0.5"/>
<text text-anchor="start" x="194" y="-18.5" font-family="Helvetica,sans-Serif" font-size="10.00">okw.core.OKW_CurrentObject</text>
<text text-anchor="middle" x="263.5" y="-7.5" font-family="Helvetica,sans-Serif" font-size="10.00">_Sngltn.TypeKeyWindow</text>
</a>
</g>
</g>
<!-- Node274 -->
<g id="node2" class="node"><title>Node274</title>
<g id="a_node2"><a xlink:href="classokw_1_1core_1_1_o_k.html#ad91da46f1631eed55757d42061543e86" target="_top" xlink:title="Tastatureingabe in ein bestimmtes Fensterobjekt.">
<polygon fill="white" stroke="black" points="-1.42109e-14,-6 -1.42109e-14,-25 150,-25 150,-6 -1.42109e-14,-6"/>
<text text-anchor="middle" x="75" y="-13" font-family="Helvetica,sans-Serif" font-size="10.00">okw.core.OK.TypeKeyWindow</text>
</a>
</g>
</g>
<!-- Node273&#45;&gt;Node274 -->
<g id="edge1" class="edge"><title>Node273&#45;&gt;Node274</title>
<path fill="none" stroke="midnightblue" d="M175.57,-15.5C167.11,-15.5 158.581,-15.5 150.262,-15.5"/>
<polygon fill="midnightblue" stroke="midnightblue" points="175.836,-19.0001 185.836,-15.5 175.836,-12.0001 175.836,-19.0001"/>
</g>
</g>
</svg>
