<?xml version="1.0" encoding="UTF-8" standalone="no"?>
<!DOCTYPE svg PUBLIC "-//W3C//DTD SVG 1.1//EN"
 "http://www.w3.org/Graphics/SVG/1.1/DTD/svg11.dtd">
<!-- Generated by graphviz version 2.38.0 (20140413.2041)
 -->
<!-- Title: okw.gui.adapter.selenium.SeAnyChildWindow.getCaption Pages: 1 -->
<svg width="1014pt" height="354pt"
 viewBox="0.00 0.00 1014.00 354.00" xmlns="http://www.w3.org/2000/svg" xmlns:xlink="http://www.w3.org/1999/xlink">
<g id="graph0" class="graph" transform="scale(1 1) rotate(0) translate(4 350)">
<title>okw.gui.adapter.selenium.SeAnyChildWindow.getCaption</title>
<polygon fill="white" stroke="none" points="-4,4 -4,-350 1010,-350 1010,4 -4,4"/>
<!-- Node26 -->
<g id="node1" class="node"><title>Node26</title>
<g id="a_node1"><a xlink:title="Ermittelt den textuellen Inhalt der Überschrift eines HTML&#45;Tags anhand des Attributee &quot;textContent&quot;.">
<polygon fill="#bfbfbf" stroke="black" points="0,-163.5 0,-193.5 161,-193.5 161,-163.5 0,-163.5"/>
<text text-anchor="start" x="8" y="-181.5" font-family="Helvetica,sans-Serif" font-size="10.00">okw.gui.adapter.selenium.</text>
<text text-anchor="middle" x="80.5" y="-170.5" font-family="Helvetica,sans-Serif" font-size="10.00">SeAnyChildWindow.getCaption</text>
</a>
</g>
</g>
<!-- Node27 -->
<g id="node2" class="node"><title>Node27</title>
<g id="a_node2"><a xlink:href="classokw_1_1gui_1_1_any_win_base.html#abaab572bdbed7b471f659d5dd8c76853" target="_top" xlink:title="Methode ruft die Methode Logger.Instance.LogFunctionStartDebug(fps_FunctionName), und erweitert den g...">
<polygon fill="white" stroke="black" points="197,-237.5 197,-267.5 370,-267.5 370,-237.5 197,-237.5"/>
<text text-anchor="start" x="205" y="-255.5" font-family="Helvetica,sans-Serif" font-size="10.00">okw.gui.AnyWinBase.LogFunction</text>
<text text-anchor="middle" x="283.5" y="-244.5" font-family="Helvetica,sans-Serif" font-size="10.00">StartDebug</text>
</a>
</g>
</g>
<!-- Node26&#45;&gt;Node27 -->
<g id="edge1" class="edge"><title>Node26&#45;&gt;Node27</title>
<path fill="none" stroke="midnightblue" d="M114.452,-193.694C137.339,-203.946 168.69,-217.395 197,-227.5 203.709,-229.895 210.772,-232.237 217.844,-234.468"/>
<polygon fill="midnightblue" stroke="midnightblue" points="216.874,-237.832 227.461,-237.437 218.938,-231.143 216.874,-237.832"/>
</g>
<!-- Node28 -->
<g id="node3" class="node"><title>Node28</title>
<g id="a_node3"><a xlink:href="classokw_1_1gui_1_1adapter_1_1selenium_1_1_se_any_child_window.html#a72faf4aa1717b4178fae1b0570ca9b28" target="_top" xlink:title="Wartet auf das Objekt Wenn kein Fenster gefunden wird,.">
<polygon fill="white" stroke="black" points="205,-188.5 205,-218.5 362,-218.5 362,-188.5 205,-188.5"/>
<text text-anchor="start" x="213" y="-206.5" font-family="Helvetica,sans-Serif" font-size="10.00">okw.gui.adapter.selenium.</text>
<text text-anchor="middle" x="283.5" y="-195.5" font-family="Helvetica,sans-Serif" font-size="10.00">SeAnyChildWindow.WaitForMe</text>
</a>
</g>
</g>
<!-- Node26&#45;&gt;Node28 -->
<g id="edge2" class="edge"><title>Node26&#45;&gt;Node28</title>
<path fill="none" stroke="midnightblue" d="M161.229,-188.417C172.222,-189.784 183.562,-191.194 194.691,-192.578"/>
<polygon fill="midnightblue" stroke="midnightblue" points="194.48,-196.079 204.836,-193.84 195.344,-189.133 194.48,-196.079"/>
</g>
<!-- Node37 -->
<g id="node12" class="node"><title>Node37</title>
<g id="a_node12"><a xlink:href="classokw_1_1gui_1_1adapter_1_1selenium_1_1_se_any_child_window.html#a9a138af1fc6ff850d708d66f308a2525" target="_top" xlink:title="Ermittelt aus dem gegebenen Locator das DOM&#45;Elelement, welches das Objekt representiert.">
<polygon fill="white" stroke="black" points="213.5,-139.5 213.5,-169.5 353.5,-169.5 353.5,-139.5 213.5,-139.5"/>
<text text-anchor="start" x="221.5" y="-157.5" font-family="Helvetica,sans-Serif" font-size="10.00">okw.gui.adapter.selenium.</text>
<text text-anchor="middle" x="283.5" y="-146.5" font-family="Helvetica,sans-Serif" font-size="10.00">SeAnyChildWindow.Me</text>
</a>
</g>
</g>
<!-- Node26&#45;&gt;Node37 -->
<g id="edge11" class="edge"><title>Node26&#45;&gt;Node37</title>
<path fill="none" stroke="midnightblue" d="M161.229,-168.98C175.076,-167.327 189.474,-165.608 203.306,-163.956"/>
<polygon fill="midnightblue" stroke="midnightblue" points="203.748,-167.428 213.263,-162.767 202.918,-160.477 203.748,-167.428"/>
</g>
<!-- Node43 -->
<g id="node18" class="node"><title>Node43</title>
<g id="a_node18"><a xlink:href="classokw_1_1gui_1_1_any_win_base.html#a51cf50ace21902b3a5359316f53a7f3e" target="_top" xlink:title="Methode ruft die Methode Logger.Instance.LogFunctionEndDebug() auf.">
<polygon fill="white" stroke="black" points="197,-90.5 197,-120.5 370,-120.5 370,-90.5 197,-90.5"/>
<text text-anchor="start" x="205" y="-108.5" font-family="Helvetica,sans-Serif" font-size="10.00">okw.gui.AnyWinBase.LogFunction</text>
<text text-anchor="middle" x="283.5" y="-97.5" font-family="Helvetica,sans-Serif" font-size="10.00">EndDebug</text>
</a>
</g>
</g>
<!-- Node26&#45;&gt;Node43 -->
<g id="edge19" class="edge"><title>Node26&#45;&gt;Node43</title>
<path fill="none" stroke="midnightblue" d="M113.921,-163.432C136.835,-153.108 168.431,-139.524 197,-129.5 202.919,-127.423 209.117,-125.4 215.354,-123.467"/>
<polygon fill="midnightblue" stroke="midnightblue" points="216.594,-126.748 225.155,-120.506 214.571,-120.047 216.594,-126.748"/>
</g>
<!-- Node29 -->
<g id="node4" class="node"><title>Node29</title>
<g id="a_node4"><a xlink:href="classokw_1_1log_1_1_logger___sngltn.html#ab4fc711bb4c754f251372ff3b14ab9c9" target="_top" xlink:title="Creates a new hierarchical level in the results file.">
<polygon fill="white" stroke="black" points="428.5,-315.5 428.5,-345.5 571.5,-345.5 571.5,-315.5 428.5,-315.5"/>
<text text-anchor="start" x="436.5" y="-333.5" font-family="Helvetica,sans-Serif" font-size="10.00">okw.log.Logger_Sngltn.Res</text>
<text text-anchor="middle" x="500" y="-322.5" font-family="Helvetica,sans-Serif" font-size="10.00">OpenList</text>
</a>
</g>
</g>
<!-- Node28&#45;&gt;Node29 -->
<g id="edge3" class="edge"><title>Node28&#45;&gt;Node29</title>
<path fill="none" stroke="midnightblue" d="M356.877,-218.67C361.574,-221.178 366.011,-224.099 370,-227.5 399.054,-252.272 376.81,-280.889 406,-305.5 409.972,-308.849 414.351,-311.754 418.978,-314.272"/>
<polygon fill="midnightblue" stroke="midnightblue" points="417.611,-317.498 428.143,-318.655 420.631,-311.183 417.611,-317.498"/>
</g>
<!-- Node30 -->
<g id="node5" class="node"><title>Node30</title>
<g id="a_node5"><a xlink:href="classokw_1_1log_1_1_logger___sngltn.html#a8ebceaddd6cc6963ddb8e08c72ea808c" target="_top" xlink:title="LogPrint Function: Prints the values of expressions to the results file.">
<polygon fill="white" stroke="black" points="652.5,-186.5 652.5,-216.5 795.5,-216.5 795.5,-186.5 652.5,-186.5"/>
<text text-anchor="start" x="660.5" y="-204.5" font-family="Helvetica,sans-Serif" font-size="10.00">okw.log.Logger_Sngltn.Log</text>
<text text-anchor="middle" x="724" y="-193.5" font-family="Helvetica,sans-Serif" font-size="10.00">Print</text>
</a>
</g>
</g>
<!-- Node28&#45;&gt;Node30 -->
<g id="edge4" class="edge"><title>Node28&#45;&gt;Node30</title>
<path fill="none" stroke="midnightblue" d="M362.138,-203.146C440.928,-202.787 562.365,-202.233 642.255,-201.868"/>
<polygon fill="midnightblue" stroke="midnightblue" points="642.287,-205.368 652.271,-201.823 642.255,-198.368 642.287,-205.368"/>
</g>
<!-- Node31 -->
<g id="node6" class="node"><title>Node31</title>
<g id="a_node6"><a xlink:href="classokw_1_1gui_1_1_any_win_base.html#a9929f6fae1f4e2c20df79d32d5bc79db" target="_top" xlink:title="Holt den vollständig (rekursiv) aufgelösten (z.B.">
<polygon fill="white" stroke="black" points="416.5,-151 416.5,-170 583.5,-170 583.5,-151 416.5,-151"/>
<text text-anchor="middle" x="500" y="-158" font-family="Helvetica,sans-Serif" font-size="10.00">okw.gui.AnyWinBase.getLocator</text>
</a>
</g>
</g>
<!-- Node28&#45;&gt;Node31 -->
<g id="edge5" class="edge"><title>Node28&#45;&gt;Node31</title>
<path fill="none" stroke="midnightblue" d="M359.522,-188.461C386.386,-183.075 416.224,-177.094 441.386,-172.05"/>
<polygon fill="midnightblue" stroke="midnightblue" points="442.383,-175.42 451.499,-170.022 441.007,-168.556 442.383,-175.42"/>
</g>
<!-- Node33 -->
<g id="node8" class="node"><title>Node33</title>
<g id="a_node8"><a xlink:href="classokw_1_1log_1_1_logger___sngltn.html#a9b54104f7e0b4c0a473877b19dfaed56" target="_top" xlink:title="Closes a hierarchical level in the results file that was opened with ResOpenList.">
<polygon fill="white" stroke="black" points="428.5,-227.5 428.5,-257.5 571.5,-257.5 571.5,-227.5 428.5,-227.5"/>
<text text-anchor="start" x="436.5" y="-245.5" font-family="Helvetica,sans-Serif" font-size="10.00">okw.log.Logger_Sngltn.Res</text>
<text text-anchor="middle" x="500" y="-234.5" font-family="Helvetica,sans-Serif" font-size="10.00">CloseList</text>
</a>
</g>
</g>
<!-- Node28&#45;&gt;Node33 -->
<g id="edge7" class="edge"><title>Node28&#45;&gt;Node33</title>
<path fill="none" stroke="midnightblue" d="M362.243,-217.635C380.452,-220.946 399.891,-224.48 418.229,-227.814"/>
<polygon fill="midnightblue" stroke="midnightblue" points="417.824,-231.298 428.289,-229.643 419.076,-224.411 417.824,-231.298"/>
</g>
<!-- Node34 -->
<g id="node9" class="node"><title>Node34</title>
<g id="a_node9"><a xlink:href="classokw_1_1_log_messenger.html#af225d1f037d47b3b085175c09d78bdd2" target="_top" xlink:title="Holt die Log&#45;Meldung für MethodeNmae/Textkey ohne weitere Parameter.">
<polygon fill="white" stroke="black" points="415.5,-277 415.5,-296 584.5,-296 584.5,-277 415.5,-277"/>
<text text-anchor="middle" x="500" y="-284" font-family="Helvetica,sans-Serif" font-size="10.00">okw.LogMessenger.GetMessage</text>
</a>
</g>
</g>
<!-- Node28&#45;&gt;Node34 -->
<g id="edge8" class="edge"><title>Node28&#45;&gt;Node34</title>
<path fill="none" stroke="midnightblue" d="M351.832,-218.505C358.18,-221.061 364.347,-224.038 370,-227.5 390.116,-239.82 385.513,-254.808 406,-266.5 410.751,-269.212 415.83,-271.556 421.072,-273.584"/>
<polygon fill="midnightblue" stroke="midnightblue" points="420.054,-276.935 430.648,-276.901 422.345,-270.321 420.054,-276.935"/>
</g>
<!-- Node32 -->
<g id="node7" class="node"><title>Node32</title>
<g id="a_node7"><a xlink:href="classokw_1_1gui_1_1_o_k_w_locator.html#adc74fc2125dd048dc1cb84e011f47ec8" target="_top" xlink:title="Holt den vollständig (rekursiv) aufgelösten (z.B.">
<polygon fill="white" stroke="black" points="641,-148 641,-167 807,-167 807,-148 641,-148"/>
<text text-anchor="middle" x="724" y="-155" font-family="Helvetica,sans-Serif" font-size="10.00">okw.gui.OKWLocator.getLocator</text>
</a>
</g>
</g>
<!-- Node31&#45;&gt;Node32 -->
<g id="edge6" class="edge"><title>Node31&#45;&gt;Node32</title>
<path fill="none" stroke="midnightblue" d="M583.665,-159.383C598.935,-159.177 614.971,-158.96 630.51,-158.75"/>
<polygon fill="midnightblue" stroke="midnightblue" points="630.684,-162.248 640.636,-158.613 630.59,-155.249 630.684,-162.248"/>
</g>
<!-- Node35 -->
<g id="node10" class="node"><title>Node35</title>
<g id="a_node10"><a xlink:href="classokw_1_1_log_messenger.html#a530cd6ab82ec82a04206a2e976ec06e3" target="_top" xlink:title="Interne Kernfunktion holt die Log&#45;Meldung mit Platzhaltern aus der XML&#45;Datei.">
<polygon fill="white" stroke="black" points="636.5,-277 636.5,-296 811.5,-296 811.5,-277 636.5,-277"/>
<text text-anchor="middle" x="724" y="-284" font-family="Helvetica,sans-Serif" font-size="10.00">okw.LogMessenger.ReadMessage</text>
</a>
</g>
</g>
<!-- Node34&#45;&gt;Node35 -->
<g id="edge9" class="edge"><title>Node34&#45;&gt;Node35</title>
<path fill="none" stroke="midnightblue" d="M584.612,-286.5C598.162,-286.5 612.293,-286.5 626.126,-286.5"/>
<polygon fill="midnightblue" stroke="midnightblue" points="626.134,-290 636.134,-286.5 626.134,-283 626.134,-290"/>
</g>
<!-- Node36 -->
<g id="node11" class="node"><title>Node36</title>
<g id="a_node11"><a xlink:href="classokw_1_1_o_k_w___xml_reader.html#ab920b5335a2e1429c14cc5f8e79f39eb" target="_top" xlink:title="Lies den TextContent eines Tag.">
<polygon fill="white" stroke="black" points="854,-271.5 854,-301.5 1006,-301.5 1006,-271.5 854,-271.5"/>
<text text-anchor="start" x="862" y="-289.5" font-family="Helvetica,sans-Serif" font-size="10.00">okw.OKW_XmlReader.getText</text>
<text text-anchor="middle" x="930" y="-278.5" font-family="Helvetica,sans-Serif" font-size="10.00">ContentSingleValue</text>
</a>
</g>
</g>
<!-- Node35&#45;&gt;Node36 -->
<g id="edge10" class="edge"><title>Node35&#45;&gt;Node36</title>
<path fill="none" stroke="midnightblue" d="M811.514,-286.5C822.213,-286.5 833.144,-286.5 843.821,-286.5"/>
<polygon fill="midnightblue" stroke="midnightblue" points="843.966,-290 853.966,-286.5 843.966,-283 843.966,-290"/>
</g>
<!-- Node37&#45;&gt;Node31 -->
<g id="edge18" class="edge"><title>Node37&#45;&gt;Node31</title>
<path fill="none" stroke="midnightblue" d="M353.55,-156.431C370.237,-156.898 388.344,-157.405 405.933,-157.897"/>
<polygon fill="midnightblue" stroke="midnightblue" points="406.121,-161.403 416.215,-158.184 406.317,-154.406 406.121,-161.403"/>
</g>
<!-- Node38 -->
<g id="node13" class="node"><title>Node38</title>
<g id="a_node13"><a xlink:href="classokw_1_1gui_1_1adapter_1_1selenium_1_1webdriver_1_1_se_driver.html#aee9e3f8a67f4ad1f8100a33ba71c926e" target="_top" xlink:title="Gibt die Instance für die einzige Instanz dieser Klasse zurück.">
<polygon fill="white" stroke="black" points="406,-101.5 406,-131.5 594,-131.5 594,-101.5 406,-101.5"/>
<text text-anchor="start" x="414" y="-119.5" font-family="Helvetica,sans-Serif" font-size="10.00">okw.gui.adapter.selenium.webdriver.</text>
<text text-anchor="middle" x="500" y="-108.5" font-family="Helvetica,sans-Serif" font-size="10.00">SeDriver.getInstance</text>
</a>
</g>
</g>
<!-- Node37&#45;&gt;Node38 -->
<g id="edge12" class="edge"><title>Node37&#45;&gt;Node38</title>
<path fill="none" stroke="midnightblue" d="M353.55,-142.267C369.726,-139.402 387.235,-136.3 404.313,-133.274"/>
<polygon fill="midnightblue" stroke="midnightblue" points="405.07,-136.695 414.306,-131.504 403.848,-129.802 405.07,-136.695"/>
</g>
<!-- Node39 -->
<g id="node14" class="node"><title>Node39</title>
<g id="a_node14"><a xlink:href="classokw_1_1gui_1_1adapter_1_1selenium_1_1webdriver_1_1_se_driver.html#a65a8400867355574525aa356a53d3ccf" target="_top" xlink:title="Ermittelt das Webelement mit der gegebenen frameID und dem gegebenen Locator.">
<polygon fill="white" stroke="black" points="406,-52.5 406,-82.5 594,-82.5 594,-52.5 406,-52.5"/>
<text text-anchor="start" x="414" y="-70.5" font-family="Helvetica,sans-Serif" font-size="10.00">okw.gui.adapter.selenium.webdriver.</text>
<text text-anchor="middle" x="500" y="-59.5" font-family="Helvetica,sans-Serif" font-size="10.00">SeDriver.getElement</text>
</a>
</g>
</g>
<!-- Node37&#45;&gt;Node39 -->
<g id="edge13" class="edge"><title>Node37&#45;&gt;Node39</title>
<path fill="none" stroke="midnightblue" d="M349.564,-139.472C356.7,-136.668 363.665,-133.37 370,-129.5 389.852,-117.371 385.957,-103.311 406,-91.5 409.037,-89.7104 412.207,-88.0526 415.466,-86.5172"/>
<polygon fill="midnightblue" stroke="midnightblue" points="417.035,-89.6533 424.856,-82.5061 414.285,-83.2161 417.035,-89.6533"/>
</g>
<!-- Node39&#45;&gt;Node30 -->
<g id="edge15" class="edge"><title>Node39&#45;&gt;Node30</title>
<path fill="none" stroke="midnightblue" d="M581.165,-82.7086C585.754,-85.2158 590.084,-88.1252 594,-91.5 625.076,-118.285 599.059,-149.559 630,-176.5 633.996,-179.979 638.427,-182.98 643.125,-185.567"/>
<polygon fill="midnightblue" stroke="midnightblue" points="641.915,-188.869 652.443,-190.051 644.95,-182.561 641.915,-188.869"/>
</g>
<!-- Node40 -->
<g id="node15" class="node"><title>Node40</title>
<g id="a_node15"><a xlink:href="classokw_1_1gui_1_1adapter_1_1selenium_1_1webdriver_1_1_se_driver.html#a47eec72c911c05beb2127672daafb325" target="_top" xlink:title="Wechselt das aktuelle Frame auf das Frame mit der id=iframeID.">
<polygon fill="white" stroke="black" points="630,-49.5 630,-79.5 818,-79.5 818,-49.5 630,-49.5"/>
<text text-anchor="start" x="638" y="-67.5" font-family="Helvetica,sans-Serif" font-size="10.00">okw.gui.adapter.selenium.webdriver.</text>
<text text-anchor="middle" x="724" y="-56.5" font-family="Helvetica,sans-Serif" font-size="10.00">SeDriver.swichToFrame</text>
</a>
</g>
</g>
<!-- Node39&#45;&gt;Node40 -->
<g id="edge14" class="edge"><title>Node39&#45;&gt;Node40</title>
<path fill="none" stroke="midnightblue" d="M594.183,-66.2408C602.535,-66.1279 611.024,-66.0132 619.456,-65.8992"/>
<polygon fill="midnightblue" stroke="midnightblue" points="619.748,-69.3957 629.7,-65.7608 619.653,-62.3964 619.748,-69.3957"/>
</g>
<!-- Node41 -->
<g id="node16" class="node"><title>Node41</title>
<g id="a_node16"><a xlink:href="classokw_1_1log_1_1_logger___sngltn.html#a2c15e9b2cd0c6266f4c67b8cb00d92e5" target="_top" xlink:title="LogWarning Function: Logs a warning to the results file.">
<polygon fill="white" stroke="black" points="652.5,-0.5 652.5,-30.5 795.5,-30.5 795.5,-0.5 652.5,-0.5"/>
<text text-anchor="start" x="660.5" y="-18.5" font-family="Helvetica,sans-Serif" font-size="10.00">okw.log.Logger_Sngltn.Log</text>
<text text-anchor="middle" x="724" y="-7.5" font-family="Helvetica,sans-Serif" font-size="10.00">Warning</text>
</a>
</g>
</g>
<!-- Node39&#45;&gt;Node41 -->
<g id="edge16" class="edge"><title>Node39&#45;&gt;Node41</title>
<path fill="none" stroke="midnightblue" d="M565.212,-52.4594C591.443,-46.3151 621.942,-39.1712 649.095,-32.8112"/>
<polygon fill="midnightblue" stroke="midnightblue" points="649.994,-36.1952 658.933,-30.5068 648.398,-29.3797 649.994,-36.1952"/>
</g>
<!-- Node42 -->
<g id="node17" class="node"><title>Node42</title>
<g id="a_node17"><a xlink:href="classokw_1_1log_1_1_logger___sngltn.html#a313f97c79ba4662d9daaf7f537dd02f4" target="_top" xlink:title="Loggt eine Nachricht.">
<polygon fill="white" stroke="black" points="652.5,-98.5 652.5,-128.5 795.5,-128.5 795.5,-98.5 652.5,-98.5"/>
<text text-anchor="start" x="660.5" y="-116.5" font-family="Helvetica,sans-Serif" font-size="10.00">okw.log.Logger_Sngltn.Log</text>
<text text-anchor="middle" x="724" y="-105.5" font-family="Helvetica,sans-Serif" font-size="10.00">PrintDebug</text>
</a>
</g>
</g>
<!-- Node39&#45;&gt;Node42 -->
<g id="edge17" class="edge"><title>Node39&#45;&gt;Node42</title>
<path fill="none" stroke="midnightblue" d="M573.691,-82.5621C595.722,-87.127 620.047,-92.1675 642.555,-96.8312"/>
<polygon fill="midnightblue" stroke="midnightblue" points="641.912,-100.272 652.415,-98.8742 643.333,-93.418 641.912,-100.272"/>
</g>
</g>
</svg>
