<?xml version="1.0" encoding="UTF-8" standalone="no"?>
<!DOCTYPE svg PUBLIC "-//W3C//DTD SVG 1.1//EN"
 "http://www.w3.org/Graphics/SVG/1.1/DTD/svg11.dtd">
<!-- Generated by graphviz version 2.26.3 (20100126.1600)
 -->
<!-- Title: okw.core.Core.LogHasFocus Pages: 1 -->
<svg width="740pt" height="134pt"
 viewBox="0.00 0.00 740.00 134.00" xmlns="http://www.w3.org/2000/svg" xmlns:xlink="http://www.w3.org/1999/xlink">
<g id="graph1" class="graph" transform="scale(1 1) rotate(0) translate(4 130)">
<title>okw.core.Core.LogHasFocus</title>
<polygon fill="white" stroke="white" points="-4,5 -4,-130 737,-130 737,5 -4,5"/>
<!-- Node722 -->
<g id="node1" class="node"><title>Node722</title>
<polygon fill="#bfbfbf" stroke="black" points="0,-52.5 0,-73.5 144,-73.5 144,-52.5 0,-52.5"/>
<text text-anchor="middle" x="72" y="-60.5" font-family="Helvetica,sans-Serif" font-size="10.00">okw.core.Core.LogHasFocus</text>
</g>
<!-- Node723 -->
<g id="node3" class="node"><title>Node723</title>
<a xlink:href="classokw_1_1log_1_1_logger___sngltn.html#a70ec25e200e00ecefc544e8fd371d2ef" target="_top" xlink:title="Ausgabe eines Schlüsselwortes. ">
<polygon fill="white" stroke="black" points="193,-92 193,-126 327,-126 327,-92 193,-92"/>
<text text-anchor="start" x="201" y="-113" font-family="Helvetica,sans-Serif" font-size="10.00">okw.log.Logger_Sngltn.Log</text>
<text text-anchor="middle" x="260" y="-100" font-family="Helvetica,sans-Serif" font-size="10.00">KeyWordStart</text>
</a>
</g>
<!-- Node722&#45;&gt;Node723 -->
<g id="edge2" class="edge"><title>Node722&#45;&gt;Node723</title>
<path fill="none" stroke="midnightblue" d="M115.131,-73.5533C135.24,-78.4737 159.794,-84.4816 182.933,-90.1432"/>
<polygon fill="midnightblue" stroke="midnightblue" points="182.2,-93.5671 192.746,-92.5442 183.864,-86.7677 182.2,-93.5671"/>
</g>
<!-- Node724 -->
<g id="node5" class="node"><title>Node724</title>
<a xlink:href="classokw_1_1_log_messenger.html#af225d1f037d47b3b085175c09d78bdd2" target="_top" xlink:title="Holt die Log&#45;Meldung für MethodeNmae/Textkey ohne weitere Parameter. ">
<polygon fill="white" stroke="black" points="180,-52.5 180,-73.5 340,-73.5 340,-52.5 180,-52.5"/>
<text text-anchor="middle" x="260" y="-60.5" font-family="Helvetica,sans-Serif" font-size="10.00">okw.LogMessenger.GetMessage</text>
</a>
</g>
<!-- Node722&#45;&gt;Node724 -->
<g id="edge4" class="edge"><title>Node722&#45;&gt;Node724</title>
<path fill="none" stroke="midnightblue" d="M144.148,-63C152.558,-63 161.215,-63 169.83,-63"/>
<polygon fill="midnightblue" stroke="midnightblue" points="169.905,-66.5001 179.905,-63 169.905,-59.5001 169.905,-66.5001"/>
</g>
<!-- Node727 -->
<g id="node11" class="node"><title>Node727</title>
<a xlink:href="interfaceokw_1_1core_1_1_i_o_k_w___state.html#a2f5401278066c4012e2f1e6691d619ee" target="_top" xlink:title="Dokumentiert den Fokus&#45;Status des gegebenen Objekts. ">
<polygon fill="white" stroke="black" points="184,-0 184,-34 336,-34 336,-0 184,-0"/>
<text text-anchor="start" x="192" y="-21" font-family="Helvetica,sans-Serif" font-size="10.00">okw.core.IOKW_State.LogHas</text>
<text text-anchor="middle" x="260" y="-8" font-family="Helvetica,sans-Serif" font-size="10.00">Focus</text>
</a>
</g>
<!-- Node722&#45;&gt;Node727 -->
<g id="edge10" class="edge"><title>Node722&#45;&gt;Node727</title>
<path fill="none" stroke="midnightblue" d="M115.131,-52.4467C134.49,-47.71 157.967,-41.9655 180.336,-36.4923"/>
<polygon fill="midnightblue" stroke="midnightblue" points="181.295,-39.861 190.176,-34.0845 179.631,-33.0616 181.295,-39.861"/>
</g>
<!-- Node725 -->
<g id="node7" class="node"><title>Node725</title>
<a xlink:href="classokw_1_1_log_messenger.html#a530cd6ab82ec82a04206a2e976ec06e3" target="_top" xlink:title="Interne Kernfunktion holt die Log&#45;Meldung mit Platzhaltern aus der XML&#45;Datei. ">
<polygon fill="white" stroke="black" points="376.5,-52.5 376.5,-73.5 543.5,-73.5 543.5,-52.5 376.5,-52.5"/>
<text text-anchor="middle" x="460" y="-60.5" font-family="Helvetica,sans-Serif" font-size="10.00">okw.LogMessenger.ReadMessage</text>
</a>
</g>
<!-- Node724&#45;&gt;Node725 -->
<g id="edge6" class="edge"><title>Node724&#45;&gt;Node725</title>
<path fill="none" stroke="midnightblue" d="M340.195,-63C348.709,-63 357.423,-63 366.075,-63"/>
<polygon fill="midnightblue" stroke="midnightblue" points="366.189,-66.5001 376.189,-63 366.189,-59.5001 366.189,-66.5001"/>
</g>
<!-- Node726 -->
<g id="node9" class="node"><title>Node726</title>
<a xlink:href="classokw_1_1_o_k_w___xml_reader.html#ab920b5335a2e1429c14cc5f8e79f39eb" target="_top" xlink:title="Lies den TextContent eines Tag. ">
<polygon fill="white" stroke="black" points="580,-46 580,-80 732,-80 732,-46 580,-46"/>
<text text-anchor="start" x="588" y="-67" font-family="Helvetica,sans-Serif" font-size="10.00">okw.OKW_XmlReader.getText</text>
<text text-anchor="middle" x="656" y="-54" font-family="Helvetica,sans-Serif" font-size="10.00">ContentSingleValue</text>
</a>
</g>
<!-- Node725&#45;&gt;Node726 -->
<g id="edge8" class="edge"><title>Node725&#45;&gt;Node726</title>
<path fill="none" stroke="midnightblue" d="M543.69,-63C552.29,-63 561.041,-63 569.669,-63"/>
<polygon fill="midnightblue" stroke="midnightblue" points="569.725,-66.5001 579.725,-63 569.725,-59.5001 569.725,-66.5001"/>
</g>
</g>
</svg>
