<?xml version="1.0" encoding="UTF-8" standalone="no"?>
<!DOCTYPE svg PUBLIC "-//W3C//DTD SVG 1.1//EN"
 "http://www.w3.org/Graphics/SVG/1.1/DTD/svg11.dtd">
<!-- Generated by graphviz version 2.26.3 (20100126.1600)
 -->
<!-- Title: okw.OKW_Const_Sngltn.YesNo2Boolean Pages: 1 -->
<svg width="450pt" height="294pt"
 viewBox="0.00 0.00 450.00 294.00" xmlns="http://www.w3.org/2000/svg" xmlns:xlink="http://www.w3.org/1999/xlink">
<g id="graph1" class="graph" transform="scale(1 1) rotate(0) translate(4 290)">
<title>okw.OKW_Const_Sngltn.YesNo2Boolean</title>
<polygon fill="white" stroke="white" points="-4,5 -4,-290 447,-290 447,5 -4,5"/>
<!-- Node352 -->
<g id="node1" class="node"><title>Node352</title>
<polygon fill="#bfbfbf" stroke="black" points="0,-155 0,-189 146,-189 146,-155 0,-155"/>
<text text-anchor="start" x="8" y="-176" font-family="Helvetica,sans-Serif" font-size="10.00">okw.OKW_Const_Sngltn.Yes</text>
<text text-anchor="middle" x="73" y="-163" font-family="Helvetica,sans-Serif" font-size="10.00">No2Boolean</text>
</g>
<!-- Node353 -->
<g id="node3" class="node"><title>Node353</title>
<a xlink:href="classokw_1_1core_1_1_o_k.html#a9785853231d70946dcbbfcd44b509c25" target="_top" xlink:title="Prüft, ob das gegebene Objekt existiert. ">
<polygon fill="white" stroke="black" points="247,-264.5 247,-285.5 377,-285.5 377,-264.5 247,-264.5"/>
<text text-anchor="middle" x="312" y="-272.5" font-family="Helvetica,sans-Serif" font-size="10.00">okw.core.OK.VerifyExists</text>
</a>
</g>
<!-- Node352&#45;&gt;Node353 -->
<g id="edge2" class="edge"><title>Node352&#45;&gt;Node353</title>
<path fill="none" stroke="midnightblue" d="M97.126,-196.128C117.821,-215.31 149.388,-241.146 182,-255 202.176,-263.571 225.502,-268.527 246.777,-271.373"/>
<polygon fill="midnightblue" stroke="midnightblue" points="99.4149,-193.476 89.7472,-189.141 94.602,-198.558 99.4149,-193.476"/>
</g>
<!-- Node354 -->
<g id="node5" class="node"><title>Node354</title>
<a xlink:href="classokw_1_1core_1_1_o_k.html#a4950117cbe9cd2b769ae529bbdc1f897" target="_top" xlink:title="Vergleicht den Fokus&#45;Zustand des gegebenen Objekts mit dem erwarteten Wert. ">
<polygon fill="white" stroke="black" points="238.5,-224.5 238.5,-245.5 385.5,-245.5 385.5,-224.5 238.5,-224.5"/>
<text text-anchor="middle" x="312" y="-232.5" font-family="Helvetica,sans-Serif" font-size="10.00">okw.core.OK.VerifyHasFocus</text>
</a>
</g>
<!-- Node352&#45;&gt;Node354 -->
<g id="edge4" class="edge"><title>Node352&#45;&gt;Node354</title>
<path fill="none" stroke="midnightblue" d="M119.474,-192.982C138.527,-200.882 161.001,-209.319 182,-215 199.965,-219.86 219.667,-223.652 238.179,-226.565"/>
<polygon fill="midnightblue" stroke="midnightblue" points="120.707,-189.703 110.133,-189.039 117.985,-196.152 120.707,-189.703"/>
</g>
<!-- Node355 -->
<g id="node7" class="node"><title>Node355</title>
<a xlink:href="classokw_1_1core_1_1_o_k.html#a071aec5319238e209cfc6f1434ea13e8" target="_top" xlink:title="copydoc IOKW_State::VerifyHasFocus(String,String) ">
<polygon fill="white" stroke="black" points="243,-184.5 243,-205.5 381,-205.5 381,-184.5 243,-184.5"/>
<text text-anchor="middle" x="312" y="-192.5" font-family="Helvetica,sans-Serif" font-size="10.00">okw.core.OK.VerifyIsActive</text>
</a>
</g>
<!-- Node352&#45;&gt;Node355 -->
<g id="edge6" class="edge"><title>Node352&#45;&gt;Node355</title>
<path fill="none" stroke="midnightblue" d="M156.258,-180.012C184.484,-182.729 215.691,-185.732 242.711,-188.332"/>
<polygon fill="midnightblue" stroke="midnightblue" points="156.296,-176.5 146.007,-179.026 155.625,-183.468 156.296,-176.5"/>
</g>
<!-- Node356 -->
<g id="node9" class="node"><title>Node356</title>
<a xlink:href="classokw_1_1gui_1_1adapter_1_1_all_methods___single_value.html#a8f05accdc25bb663a5187cf32453f6e7" target="_top" xlink:title="public String getFN() { return &quot;Rechner.All_MethodsObj&quot;; } ">
<polygon fill="white" stroke="black" points="243.5,-132 243.5,-166 380.5,-166 380.5,-132 243.5,-132"/>
<text text-anchor="start" x="251.5" y="-153" font-family="Helvetica,sans-Serif" font-size="10.00">okw.gui.adapter.AllMethods</text>
<text text-anchor="middle" x="312" y="-140" font-family="Helvetica,sans-Serif" font-size="10.00">_SingleValue.ClickOn</text>
</a>
</g>
<!-- Node352&#45;&gt;Node356 -->
<g id="edge8" class="edge"><title>Node352&#45;&gt;Node356</title>
<path fill="none" stroke="midnightblue" d="M156.304,-163.983C184.66,-161.254 216.018,-158.237 243.117,-155.629"/>
<polygon fill="midnightblue" stroke="midnightblue" points="155.625,-160.532 146.007,-164.974 156.296,-167.5 155.625,-160.532"/>
</g>
<!-- Node357 -->
<g id="node11" class="node"><title>Node357</title>
<a xlink:href="classokw_1_1_o_k_w___const_exception_test_1_1_o_k_w___const___test__.html#a89eb52d2a5a2e5881ede6a23e90dcb33" target="_top" xlink:title="Prüft, ob der sprachabhängige Hinweis zu der Exception &quot;OKWConst4InternalnameNotFoundException&quot; ausge...">
<polygon fill="white" stroke="black" points="182,-66.5 182,-113.5 442,-113.5 442,-66.5 182,-66.5"/>
<text text-anchor="start" x="190" y="-100.5" font-family="Helvetica,sans-Serif" font-size="10.00">okw.OKW_ConstExceptionTest.</text>
<text text-anchor="start" x="190" y="-87.5" font-family="Helvetica,sans-Serif" font-size="10.00">OKW_Const_Test_.tcGetConst4Internalname</text>
<text text-anchor="middle" x="312" y="-74.5" font-family="Helvetica,sans-Serif" font-size="10.00">_OKWConst4InternalnameNotFoundException_Msg_de</text>
</a>
</g>
<!-- Node352&#45;&gt;Node357 -->
<g id="edge10" class="edge"><title>Node352&#45;&gt;Node357</title>
<path fill="none" stroke="midnightblue" d="M115.816,-150.674C135.629,-141.348 159.676,-130.785 182,-123 191.564,-119.665 201.632,-116.51 211.755,-113.571"/>
<polygon fill="midnightblue" stroke="midnightblue" points="114.267,-147.535 106.745,-154.995 117.278,-153.854 114.267,-147.535"/>
</g>
<!-- Node358 -->
<g id="node13" class="node"><title>Node358</title>
<a xlink:href="classokw_1_1_o_k_w___const_exception_test_1_1_o_k_w___const___test__.html#ab3cf1dc02d69863f7db0015f9dad77a4" target="_top" xlink:title="Prüft ob ein Tippfehler eine OKWNotAllowedValueException&#45;Exception auslöst. ">
<polygon fill="white" stroke="black" points="210,-0.5 210,-47.5 414,-47.5 414,-0.5 210,-0.5"/>
<text text-anchor="start" x="218" y="-34.5" font-family="Helvetica,sans-Serif" font-size="10.00">okw.OKW_ConstExceptionTest.</text>
<text text-anchor="start" x="218" y="-21.5" font-family="Helvetica,sans-Serif" font-size="10.00">OKW_Const_Test_.tcYesNoToBoolean</text>
<text text-anchor="middle" x="312" y="-8.5" font-family="Helvetica,sans-Serif" font-size="10.00">_OKWNotAllowedValueException_Msg_en</text>
</a>
</g>
<!-- Node352&#45;&gt;Node358 -->
<g id="edge12" class="edge"><title>Node352&#45;&gt;Node358</title>
<path fill="none" stroke="midnightblue" d="M90.5264,-146.291C109.866,-119.913 143.412,-79.6292 182,-57 190.637,-51.9349 200.04,-47.6404 209.709,-44.0004"/>
<polygon fill="midnightblue" stroke="midnightblue" points="87.5096,-144.491 84.5257,-154.657 93.1979,-148.571 87.5096,-144.491"/>
</g>
</g>
</svg>
