<?xml version="1.0" encoding="UTF-8" standalone="no"?>
<!DOCTYPE svg PUBLIC "-//W3C//DTD SVG 1.1//EN"
 "http://www.w3.org/Graphics/SVG/1.1/DTD/svg11.dtd">
<!-- Generated by graphviz version 2.38.0 (20140413.2041)
 -->
<!-- Title: okw.gui.adapter.selenium.SeAnyWindow.setiFrameID Pages: 1 -->
<svg width="326pt" height="39pt"
 viewBox="0.00 0.00 326.00 39.00" xmlns="http://www.w3.org/2000/svg" xmlns:xlink="http://www.w3.org/1999/xlink">
<g id="graph0" class="graph" transform="scale(1 1) rotate(0) translate(4 35)">
<title>okw.gui.adapter.selenium.SeAnyWindow.setiFrameID</title>
<polygon fill="white" stroke="none" points="-4,4 -4,-35 322,-35 322,4 -4,4"/>
<!-- Node471 -->
<g id="node1" class="node"><title>Node471</title>
<g id="a_node1"><a xlink:title=" ">
<polygon fill="#bfbfbf" stroke="black" points="176,-0.5 176,-30.5 318,-30.5 318,-0.5 176,-0.5"/>
<text text-anchor="start" x="184" y="-18.5" font-family="Helvetica,sans-Serif" font-size="10.00">okw.gui.adapter.selenium.</text>
<text text-anchor="middle" x="247" y="-7.5" font-family="Helvetica,sans-Serif" font-size="10.00">SeAnyWindow.setiFrameID</text>
</a>
</g>
</g>
<!-- Node472 -->
<g id="node2" class="node"><title>Node472</title>
<g id="a_node2"><a xlink:href="classokw_1_1gui_1_1adapter_1_1selenium_1_1_se_any_window.html#a9fedc826b5c9cadaa01cdf3a6c28ce65" target="_top" xlink:title="Selenium/HTML Spezifischer setLocator(String,String,OKWLocator...) erweitert den setLocator(String,...">
<polygon fill="white" stroke="black" points="0,-0.5 0,-30.5 140,-30.5 140,-0.5 0,-0.5"/>
<text text-anchor="start" x="8" y="-18.5" font-family="Helvetica,sans-Serif" font-size="10.00">okw.gui.adapter.selenium.</text>
<text text-anchor="middle" x="70" y="-7.5" font-family="Helvetica,sans-Serif" font-size="10.00">SeAnyWindow.setLocator</text>
</a>
</g>
</g>
<!-- Node471&#45;&gt;Node472 -->
<g id="edge1" class="edge"><title>Node471&#45;&gt;Node472</title>
<path fill="none" stroke="midnightblue" d="M165.797,-15.5C157.196,-15.5 148.501,-15.5 140.047,-15.5"/>
<polygon fill="midnightblue" stroke="midnightblue" points="165.829,-19.0001 175.829,-15.5 165.829,-12.0001 165.829,-19.0001"/>
</g>
</g>
</svg>
