<?xml version="1.0" encoding="UTF-8" standalone="no"?>
<!DOCTYPE svg PUBLIC "-//W3C//DTD SVG 1.1//EN"
 "http://www.w3.org/Graphics/SVG/1.1/DTD/svg11.dtd">
<!-- Generated by graphviz version 2.38.0 (20140413.2041)
 -->
<!-- Title: okw.core.Core.TypeKeyWindow Pages: 1 -->
<svg width="771pt" height="127pt"
 viewBox="0.00 0.00 771.00 127.00" xmlns="http://www.w3.org/2000/svg" xmlns:xlink="http://www.w3.org/1999/xlink">
<g id="graph0" class="graph" transform="scale(1 1) rotate(0) translate(4 123)">
<title>okw.core.Core.TypeKeyWindow</title>
<polygon fill="white" stroke="none" points="-4,4 -4,-123 767,-123 767,4 -4,4"/>
<!-- Node3716 -->
<g id="node1" class="node"><title>Node3716</title>
<g id="a_node1"><a xlink:title="Tastatureingabe in ein bestimmtes Fensterobjekt.">
<polygon fill="#bfbfbf" stroke="black" points="0,-50 0,-69 159,-69 159,-50 0,-50"/>
<text text-anchor="middle" x="79.5" y="-57" font-family="Helvetica,sans-Serif" font-size="10.00">okw.core.Core.TypeKeyWindow</text>
</a>
</g>
</g>
<!-- Node3717 -->
<g id="node2" class="node"><title>Node3717</title>
<g id="a_node2"><a xlink:href="classokw_1_1log_1_1_logger___sngltn.html#a70ec25e200e00ecefc544e8fd371d2ef" target="_top" xlink:title="Ausgabe eines Schlüsselwortes.">
<polygon fill="white" stroke="black" points="208,-88.5 208,-118.5 351,-118.5 351,-88.5 208,-88.5"/>
<text text-anchor="start" x="216" y="-106.5" font-family="Helvetica,sans-Serif" font-size="10.00">okw.log.Logger_Sngltn.Log</text>
<text text-anchor="middle" x="279.5" y="-95.5" font-family="Helvetica,sans-Serif" font-size="10.00">KeyWordStart</text>
</a>
</g>
</g>
<!-- Node3716&#45;&gt;Node3717 -->
<g id="edge1" class="edge"><title>Node3716&#45;&gt;Node3717</title>
<path fill="none" stroke="midnightblue" d="M123.463,-69.0473C146.054,-74.0676 174.45,-80.3777 200.747,-86.2215"/>
<polygon fill="midnightblue" stroke="midnightblue" points="200.185,-89.6819 210.706,-88.4346 201.703,-82.8486 200.185,-89.6819"/>
</g>
<!-- Node3718 -->
<g id="node3" class="node"><title>Node3718</title>
<g id="a_node3"><a xlink:href="classokw_1_1_log_messenger.html#af225d1f037d47b3b085175c09d78bdd2" target="_top" xlink:title="Holt die Log&#45;Meldung für MethodeNmae/Textkey ohne weitere Parameter.">
<polygon fill="white" stroke="black" points="195,-50 195,-69 364,-69 364,-50 195,-50"/>
<text text-anchor="middle" x="279.5" y="-57" font-family="Helvetica,sans-Serif" font-size="10.00">okw.LogMessenger.GetMessage</text>
</a>
</g>
</g>
<!-- Node3716&#45;&gt;Node3718 -->
<g id="edge2" class="edge"><title>Node3716&#45;&gt;Node3718</title>
<path fill="none" stroke="midnightblue" d="M159.039,-59.5C167.498,-59.5 176.165,-59.5 184.779,-59.5"/>
<polygon fill="midnightblue" stroke="midnightblue" points="184.85,-63.0001 194.85,-59.5 184.85,-56.0001 184.85,-63.0001"/>
</g>
<!-- Node3721 -->
<g id="node6" class="node"><title>Node3721</title>
<g id="a_node6"><a xlink:href="interfaceokw_1_1core_1_1_i_o_k_w___state.html#a96f34e11f8d52127e6b6f39d3c15186b" target="_top" xlink:title="Tastatureingabe in ein bestimmtes Fensterobjekt.">
<polygon fill="white" stroke="black" points="209.5,-0.5 209.5,-30.5 349.5,-30.5 349.5,-0.5 209.5,-0.5"/>
<text text-anchor="start" x="217.5" y="-18.5" font-family="Helvetica,sans-Serif" font-size="10.00">okw.core.IOKW_State.Type</text>
<text text-anchor="middle" x="279.5" y="-7.5" font-family="Helvetica,sans-Serif" font-size="10.00">KeyWindow</text>
</a>
</g>
</g>
<!-- Node3716&#45;&gt;Node3721 -->
<g id="edge5" class="edge"><title>Node3716&#45;&gt;Node3721</title>
<path fill="none" stroke="midnightblue" d="M123.463,-49.9527C146.054,-44.9324 174.45,-38.6223 200.747,-32.7785"/>
<polygon fill="midnightblue" stroke="midnightblue" points="201.703,-36.1514 210.706,-30.5654 200.185,-29.3181 201.703,-36.1514"/>
</g>
<!-- Node3719 -->
<g id="node4" class="node"><title>Node3719</title>
<g id="a_node4"><a xlink:href="classokw_1_1_log_messenger.html#a530cd6ab82ec82a04206a2e976ec06e3" target="_top" xlink:title="Interne Kernfunktion holt die Log&#45;Meldung mit Platzhaltern aus der XML&#45;Datei.">
<polygon fill="white" stroke="black" points="400,-50 400,-69 575,-69 575,-50 400,-50"/>
<text text-anchor="middle" x="487.5" y="-57" font-family="Helvetica,sans-Serif" font-size="10.00">okw.LogMessenger.ReadMessage</text>
</a>
</g>
</g>
<!-- Node3718&#45;&gt;Node3719 -->
<g id="edge3" class="edge"><title>Node3718&#45;&gt;Node3719</title>
<path fill="none" stroke="midnightblue" d="M364.288,-59.5C372.603,-59.5 381.092,-59.5 389.526,-59.5"/>
<polygon fill="midnightblue" stroke="midnightblue" points="389.772,-63.0001 399.772,-59.5 389.772,-56.0001 389.772,-63.0001"/>
</g>
<!-- Node3720 -->
<g id="node5" class="node"><title>Node3720</title>
<g id="a_node5"><a xlink:href="classokw_1_1_o_k_w___xml_reader.html#ab920b5335a2e1429c14cc5f8e79f39eb" target="_top" xlink:title="Lies den TextContent eines Tag.">
<polygon fill="white" stroke="black" points="611,-44.5 611,-74.5 763,-74.5 763,-44.5 611,-44.5"/>
<text text-anchor="start" x="619" y="-62.5" font-family="Helvetica,sans-Serif" font-size="10.00">okw.OKW_XmlReader.getText</text>
<text text-anchor="middle" x="687" y="-51.5" font-family="Helvetica,sans-Serif" font-size="10.00">ContentSingleValue</text>
</a>
</g>
</g>
<!-- Node3719&#45;&gt;Node3720 -->
<g id="edge4" class="edge"><title>Node3719&#45;&gt;Node3720</title>
<path fill="none" stroke="midnightblue" d="M575.126,-59.5C583.6,-59.5 592.195,-59.5 600.656,-59.5"/>
<polygon fill="midnightblue" stroke="midnightblue" points="600.893,-63.0001 610.893,-59.5 600.892,-56.0001 600.893,-63.0001"/>
</g>
</g>
</svg>
