<?xml version="1.0" encoding="UTF-8" standalone="no"?>
<!DOCTYPE svg PUBLIC "-//W3C//DTD SVG 1.1//EN"
 "http://www.w3.org/Graphics/SVG/1.1/DTD/svg11.dtd">
<!-- Generated by graphviz version 2.36.0 (20140111.2315)
 -->
<!-- Title: okw.OKW_Const_Sngltn.ConcatSEP Pages: 1 -->
<svg width="396pt" height="279pt"
 viewBox="0.00 0.00 396.00 279.00" xmlns="http://www.w3.org/2000/svg" xmlns:xlink="http://www.w3.org/1999/xlink">
<g id="graph0" class="graph" transform="scale(1 1) rotate(0) translate(4 275)">
<title>okw.OKW_Const_Sngltn.ConcatSEP</title>
<polygon fill="white" stroke="none" points="-4,4 -4,-275 392,-275 392,4 -4,4"/>
<!-- Node94 -->
<g id="node1" class="node"><title>Node94</title>
<polygon fill="#bfbfbf" stroke="black" points="0.5,-131.5 0.5,-150.5 181.5,-150.5 181.5,-131.5 0.5,-131.5"/>
<text text-anchor="middle" x="91" y="-138.5" font-family="Helvetica,sans-Serif" font-size="10.00">okw.OKW_Const_Sngltn.ConcatSEP</text>
</g>
<!-- Node95 -->
<g id="node2" class="node"><title>Node95</title>
<g id="a_node2"><a xlink:href="classokw_1_1core_1_1_o_k.html#a661c650ca7824d1ea464d98b792ae712" target="_top" xlink:title="Keine Beschreibung zu &quot;MemorizeCaption&quot; verfügbar. ">
<polygon fill="white" stroke="black" points="226.5,-251.5 226.5,-270.5 379.5,-270.5 379.5,-251.5 226.5,-251.5"/>
<text text-anchor="middle" x="303" y="-258.5" font-family="Helvetica,sans-Serif" font-size="10.00">okw.core.OK.MemorizeCaption</text>
</a>
</g>
</g>
<!-- Node94&#45;&gt;Node95 -->
<g id="edge1" class="edge"><title>Node94&#45;&gt;Node95</title>
<path fill="none" stroke="midnightblue" d="M108.116,-158.063C130.556,-180.773 173.494,-220.552 218,-242 226.082,-245.895 234.989,-249.007 243.892,-251.491"/>
<polygon fill="midnightblue" stroke="midnightblue" points="110.542,-155.537 101.065,-150.801 105.519,-160.413 110.542,-155.537"/>
</g>
<!-- Node96 -->
<g id="node3" class="node"><title>Node96</title>
<g id="a_node3"><a xlink:href="classokw_1_1core_1_1_o_k.html#ad09ff6f6389ceb04f7ec338ea3c45e85" target="_top" xlink:title="Speirchert den aktuellen Wert der Etikette, und legt diesen unter fpsMemKeyName ab. ">
<polygon fill="white" stroke="black" points="231.5,-213.5 231.5,-232.5 374.5,-232.5 374.5,-213.5 231.5,-213.5"/>
<text text-anchor="middle" x="303" y="-220.5" font-family="Helvetica,sans-Serif" font-size="10.00">okw.core.OK.MemorizeLabel</text>
</a>
</g>
</g>
<!-- Node94&#45;&gt;Node96 -->
<g id="edge2" class="edge"><title>Node94&#45;&gt;Node96</title>
<path fill="none" stroke="midnightblue" d="M116.918,-155.721C141.781,-169.859 181.443,-190.943 218,-204 228.42,-207.722 239.834,-210.879 250.798,-213.488"/>
<polygon fill="midnightblue" stroke="midnightblue" points="118.563,-152.63 108.151,-150.674 115.071,-158.696 118.563,-152.63"/>
</g>
<!-- Node97 -->
<g id="node4" class="node"><title>Node97</title>
<g id="a_node4"><a xlink:href="classokw_1_1core_1_1_o_k.html#ac9744fdc26e9049a0d0fe48b1ae9d11c" target="_top" xlink:title="Speirchert den aktuellen Wert der Platzhalters, und legt diesen unter fpsMemKeyName ab...">
<polygon fill="white" stroke="black" points="218,-175.5 218,-194.5 388,-194.5 388,-175.5 218,-175.5"/>
<text text-anchor="middle" x="303" y="-182.5" font-family="Helvetica,sans-Serif" font-size="10.00">okw.core.OK.MemorizePlaceholder</text>
</a>
</g>
</g>
<!-- Node94&#45;&gt;Node97 -->
<g id="edge3" class="edge"><title>Node94&#45;&gt;Node97</title>
<path fill="none" stroke="midnightblue" d="M147.364,-152.6C181.403,-159.732 224.483,-168.758 256.522,-175.471"/>
<polygon fill="midnightblue" stroke="midnightblue" points="148.072,-149.173 137.567,-150.547 146.637,-156.024 148.072,-149.173"/>
</g>
<!-- Node98 -->
<g id="node5" class="node"><title>Node98</title>
<g id="a_node5"><a xlink:href="classokw_1_1core_1_1_o_k.html#a7e8652a632b073da02222ee6e5e88266" target="_top" xlink:title="Keine Beschreibung zu &quot;MemorizeSelectedValue&quot; verfügbar. ">
<polygon fill="white" stroke="black" points="224,-126 224,-156 382,-156 382,-126 224,-126"/>
<text text-anchor="start" x="232" y="-144" font-family="Helvetica,sans-Serif" font-size="10.00">okw.core.OK.MemorizeSelected</text>
<text text-anchor="middle" x="303" y="-133" font-family="Helvetica,sans-Serif" font-size="10.00">Value</text>
</a>
</g>
</g>
<!-- Node94&#45;&gt;Node98 -->
<g id="edge4" class="edge"><title>Node94&#45;&gt;Node98</title>
<path fill="none" stroke="midnightblue" d="M191.925,-141C202.661,-141 213.467,-141 223.895,-141"/>
<polygon fill="midnightblue" stroke="midnightblue" points="191.668,-137.5 181.668,-141 191.668,-144.5 191.668,-137.5"/>
</g>
<!-- Node99 -->
<g id="node6" class="node"><title>Node99</title>
<g id="a_node6"><a xlink:href="classokw_1_1core_1_1_o_k.html#ab7c819556f3b21faeea08fad5be32813" target="_top" xlink:title="Merkt sich den Wert der gegebenen Zelle in der Tabelle. throws Exception ">
<polygon fill="white" stroke="black" points="224,-77 224,-107 382,-107 382,-77 224,-77"/>
<text text-anchor="start" x="232" y="-95" font-family="Helvetica,sans-Serif" font-size="10.00">okw.core.OK.MemorizeTablecell</text>
<text text-anchor="middle" x="303" y="-84" font-family="Helvetica,sans-Serif" font-size="10.00">Value</text>
</a>
</g>
</g>
<!-- Node94&#45;&gt;Node99 -->
<g id="edge5" class="edge"><title>Node94&#45;&gt;Node99</title>
<path fill="none" stroke="midnightblue" d="M142.487,-129.22C170.98,-122.571 206.883,-114.194 237.409,-107.071"/>
<polygon fill="midnightblue" stroke="midnightblue" points="141.682,-125.813 132.739,-131.494 143.273,-132.63 141.682,-125.813"/>
</g>
<!-- Node100 -->
<g id="node7" class="node"><title>Node100</title>
<g id="a_node7"><a xlink:href="classokw_1_1core_1_1_o_k.html#aad3ff1b462da844ccc53d2e177fb1def" target="_top" xlink:title="Dokumentiert den Tooltip&#45;Text (Kurzinformation) des gegebenen Objekts. ">
<polygon fill="white" stroke="black" points="228.5,-38.5 228.5,-57.5 377.5,-57.5 377.5,-38.5 228.5,-38.5"/>
<text text-anchor="middle" x="303" y="-45.5" font-family="Helvetica,sans-Serif" font-size="10.00">okw.core.OK.MemorizeTooltip</text>
</a>
</g>
</g>
<!-- Node94&#45;&gt;Node100 -->
<g id="edge6" class="edge"><title>Node94&#45;&gt;Node100</title>
<path fill="none" stroke="midnightblue" d="M114.182,-125.455C138.587,-109.01 179.478,-83.3607 218,-68 228.444,-63.8356 239.978,-60.3947 251.067,-57.6108"/>
<polygon fill="midnightblue" stroke="midnightblue" points="111.958,-122.736 105.675,-131.267 115.906,-128.516 111.958,-122.736"/>
</g>
<!-- Node101 -->
<g id="node8" class="node"><title>Node101</title>
<g id="a_node8"><a xlink:href="classokw_1_1core_1_1_o_k.html#a2d93a84a57295418131d219a5887094d" target="_top" xlink:title="Merkt sich den Standartwert eines Objekts. ">
<polygon fill="white" stroke="black" points="231,-0.5 231,-19.5 375,-19.5 375,-0.5 231,-0.5"/>
<text text-anchor="middle" x="303" y="-7.5" font-family="Helvetica,sans-Serif" font-size="10.00">okw.core.OK.MemorizeValue</text>
</a>
</g>
</g>
<!-- Node94&#45;&gt;Node101 -->
<g id="edge7" class="edge"><title>Node94&#45;&gt;Node101</title>
<path fill="none" stroke="midnightblue" d="M106.403,-123.53C127.98,-98.563 171.191,-53.0455 218,-29 225.581,-25.1058 233.95,-22.0038 242.381,-19.5342"/>
<polygon fill="midnightblue" stroke="midnightblue" points="103.499,-121.543 99.7026,-131.435 108.838,-126.069 103.499,-121.543"/>
</g>
</g>
</svg>
