<?xml version="1.0" encoding="UTF-8" standalone="no"?>
<!DOCTYPE svg PUBLIC "-//W3C//DTD SVG 1.1//EN"
 "http://www.w3.org/Graphics/SVG/1.1/DTD/svg11.dtd">
<!-- Generated by graphviz version 2.36.0 (20140111.2315)
 -->
<!-- Title: okw.OKW_Const_Sngltn.ConcatSEP Pages: 1 -->
<svg width="742pt" height="111pt"
 viewBox="0.00 0.00 742.00 111.00" xmlns="http://www.w3.org/2000/svg" xmlns:xlink="http://www.w3.org/1999/xlink">
<g id="graph0" class="graph" transform="scale(1 1) rotate(0) translate(4 107)">
<title>okw.OKW_Const_Sngltn.ConcatSEP</title>
<polygon fill="white" stroke="none" points="-4,4 -4,-107 738,-107 738,4 -4,4"/>
<!-- Node88 -->
<g id="node1" class="node"><title>Node88</title>
<polygon fill="#bfbfbf" stroke="black" points="0.5,-53.5 0.5,-72.5 181.5,-72.5 181.5,-53.5 0.5,-53.5"/>
<text text-anchor="middle" x="91" y="-60.5" font-family="Helvetica,sans-Serif" font-size="10.00">okw.OKW_Const_Sngltn.ConcatSEP</text>
</g>
<!-- Node89 -->
<g id="node2" class="node"><title>Node89</title>
<g id="a_node2"><a xlink:href="classokw_1_1_o_k_w___helper.html#ac27bd4b709ec8ac0c87afb72ff7d12f9" target="_top" xlink:title="Wandelt List&lt;String&gt; in einen String um und trennt die Werte durch das vorgegebene Trennzeichen vonei...">
<polygon fill="white" stroke="black" points="219.5,-73 219.5,-103 362.5,-103 362.5,-73 219.5,-73"/>
<text text-anchor="start" x="227.5" y="-91" font-family="Helvetica,sans-Serif" font-size="10.00">okw.OKW_Helper.concatList</text>
<text text-anchor="middle" x="291" y="-80" font-family="Helvetica,sans-Serif" font-size="10.00">String</text>
</a>
</g>
</g>
<!-- Node88&#45;&gt;Node89 -->
<g id="edge1" class="edge"><title>Node88&#45;&gt;Node89</title>
<path fill="none" stroke="midnightblue" d="M167.42,-72.5227C181.139,-74.2549 195.499,-76.0681 209.362,-77.8184"/>
<polygon fill="midnightblue" stroke="midnightblue" points="208.992,-81.2994 219.352,-79.0798 209.869,-74.3546 208.992,-81.2994"/>
</g>
<!-- Node90 -->
<g id="node3" class="node"><title>Node90</title>
<g id="a_node3"><a xlink:href="classokw_1_1_o_k_w___const___sngltn.html#a02c05c79f7ea6e862a81a64ce23941fd" target="_top" xlink:title="Methode ermittelt f端r Internalname und der aktuell eingestellten Sprache den Wert f端r OKWConst...">
<polygon fill="white" stroke="black" points="218.5,-24 218.5,-54 363.5,-54 363.5,-24 218.5,-24"/>
<text text-anchor="start" x="226.5" y="-42" font-family="Helvetica,sans-Serif" font-size="10.00">okw.OKW_Const_Sngltn.Get</text>
<text text-anchor="middle" x="291" y="-31" font-family="Helvetica,sans-Serif" font-size="10.00">OKWConst4Internalname</text>
</a>
</g>
</g>
<!-- Node88&#45;&gt;Node90 -->
<g id="edge2" class="edge"><title>Node88&#45;&gt;Node90</title>
<path fill="none" stroke="midnightblue" d="M170.539,-53.4801C182.978,-51.9724 195.867,-50.4101 208.374,-48.8941"/>
<polygon fill="midnightblue" stroke="midnightblue" points="208.8,-52.3681 218.306,-47.6901 207.958,-45.419 208.8,-52.3681"/>
</g>
<!-- Node91 -->
<g id="node4" class="node"><title>Node91</title>
<g id="a_node4"><a xlink:href="classokw_1_1_o_k_w___const___sngltn.html#a51cde06bf07e855ba4d69ff36b9a27f7" target="_top" xlink:title="Methode ermittelt f端r Internalname und der aktuell eingestellten Sprache den Wert f端r Const...">
<polygon fill="white" stroke="black" points="400.5,-24 400.5,-54 545.5,-54 545.5,-24 400.5,-24"/>
<text text-anchor="start" x="408.5" y="-42" font-family="Helvetica,sans-Serif" font-size="10.00">okw.OKW_Const_Sngltn.Get</text>
<text text-anchor="middle" x="473" y="-31" font-family="Helvetica,sans-Serif" font-size="10.00">Const4Internalname</text>
</a>
</g>
</g>
<!-- Node90&#45;&gt;Node91 -->
<g id="edge3" class="edge"><title>Node90&#45;&gt;Node91</title>
<path fill="none" stroke="midnightblue" d="M363.658,-39C372.325,-39 381.23,-39 390.031,-39"/>
<polygon fill="midnightblue" stroke="midnightblue" points="390.295,-42.5001 400.295,-39 390.294,-35.5001 390.295,-42.5001"/>
</g>
<!-- Node92 -->
<g id="node5" class="node"><title>Node92</title>
<g id="a_node5"><a xlink:href="classokw_1_1log_1_1_logger___sngltn.html#a313f97c79ba4662d9daaf7f537dd02f4" target="_top" xlink:title="Loggt eine Nachricht. ">
<polygon fill="white" stroke="black" points="591,-49 591,-79 725,-79 725,-49 591,-49"/>
<text text-anchor="start" x="599" y="-67" font-family="Helvetica,sans-Serif" font-size="10.00">okw.log.Logger_Sngltn.Log</text>
<text text-anchor="middle" x="658" y="-56" font-family="Helvetica,sans-Serif" font-size="10.00">PrintDebug</text>
</a>
</g>
</g>
<!-- Node91&#45;&gt;Node92 -->
<g id="edge4" class="edge"><title>Node91&#45;&gt;Node92</title>
<path fill="none" stroke="midnightblue" d="M545.539,-48.7731C557.091,-50.3513 569.09,-51.9905 580.749,-53.5832"/>
<polygon fill="midnightblue" stroke="midnightblue" points="580.506,-57.0824 590.888,-54.9683 581.454,-50.1469 580.506,-57.0824"/>
</g>
<!-- Node93 -->
<g id="node6" class="node"><title>Node93</title>
<g id="a_node6"><a xlink:href="classokw_1_1_o_k_w___xml_reader.html#ab920b5335a2e1429c14cc5f8e79f39eb" target="_top" xlink:title="Lies den TextContent eines Tag. ">
<polygon fill="white" stroke="black" points="582,-0 582,-30 734,-30 734,-0 582,-0"/>
<text text-anchor="start" x="590" y="-18" font-family="Helvetica,sans-Serif" font-size="10.00">okw.OKW_XmlReader.getText</text>
<text text-anchor="middle" x="658" y="-7" font-family="Helvetica,sans-Serif" font-size="10.00">ContentSingleValue</text>
</a>
</g>
</g>
<!-- Node91&#45;&gt;Node93 -->
<g id="edge5" class="edge"><title>Node91&#45;&gt;Node93</title>
<path fill="none" stroke="midnightblue" d="M545.539,-29.6179C554.206,-28.4812 563.125,-27.3115 571.963,-26.1524"/>
<polygon fill="midnightblue" stroke="midnightblue" points="572.429,-29.6214 581.889,-24.8507 571.518,-22.6808 572.429,-29.6214"/>
</g>
</g>
</svg>
