<?xml version="1.0" encoding="UTF-8" standalone="no"?>
<!DOCTYPE svg PUBLIC "-//W3C//DTD SVG 1.1//EN"
 "http://www.w3.org/Graphics/SVG/1.1/DTD/svg11.dtd">
<!-- Generated by graphviz version 2.38.0 (20140413.2041)
 -->
<!-- Title: okw.core.Core.DoubleClickOn Pages: 1 -->
<!--zoomable 241 -->
<svg id="main" version="1.1" xmlns="http://www.w3.org/2000/svg" xmlns:xlink="http://www.w3.org/1999/xlink" xml:space="preserve" onload="init(evt)">
<style type="text/css"><![CDATA[
.edge:hover path { stroke: red; }
.edge:hover polygon { stroke: red; fill: red; }
]]></style>
<script type="text/javascript"><![CDATA[
var edges = document.getElementsByTagName('g');
if (edges && edges.length) {
  for (var i=0;i<edges.length;i++) {
    if (edges[i].id.substr(0,4)=='edge') {
      edges[i].setAttribute('class','edge');
    }
  }
}
]]></script>
        <defs>
                <circle id="rim" cx="0" cy="0" r="7"/>
                <circle id="rim2" cx="0" cy="0" r="3.5"/>
                <g id="zoomPlus">
                        <use xlink:href="#rim" fill="#404040">
                                <set attributeName="fill" to="#808080" begin="zoomplus.mouseover" end="zoomplus.mouseout"/>
                        </use>
                        <path d="M-4,0h8M0,-4v8" fill="none" stroke="white" stroke-width="1.5" pointer-events="none"/>
                </g>
                <g id="zoomMin">
                        <use xlink:href="#rim" fill="#404040">
                                <set attributeName="fill" to="#808080" begin="zoomminus.mouseover" end="zoomminus.mouseout"/>
                        </use>
                        <path d="M-4,0h8" fill="none" stroke="white" stroke-width="1.5" pointer-events="none"/>
                </g>
                <g id="dirArrow">
                        <path fill="none" stroke="white" stroke-width="1.5" d="M0,-3.0v7 M-2.5,-0.5L0,-3.0L2.5,-0.5"/>
                </g>
               <g id="resetDef">
                       <use xlink:href="#rim2" fill="#404040">
                               <set attributeName="fill" to="#808080" begin="reset.mouseover" end="reset.mouseout"/>
                       </use>
               </g>
        </defs>

<script type="text/javascript">
var viewWidth = 616;
var viewHeight = 241;
var sectionId = 'dynsection-9';
</script>
<script xlink:href="svgpan.js"/>
<svg id="graph" class="graph">
<g id="viewport">
<title>okw.core.Core.DoubleClickOn</title>
<polygon fill="white" stroke="none" points="-4,4 -4,-237 612,-237 612,4 -4,4"/>
<!-- Node781 -->
<g id="node1" class="node"><title>Node781</title>
<g id="a_node1"><a xlink:title="Führt ein Doppelklick auf das gegebene GUI&#45;Objekt aus.">
<polygon fill="#bfbfbf" stroke="black" points="453,-68 453,-87 608,-87 608,-68 453,-68"/>
<text text-anchor="middle" x="530.5" y="-75" font-family="Helvetica,sans-Serif" font-size="10.00">okw.core.Core.DoubleClickOn</text>
</a>
</g>
</g>
<!-- Node782 -->
<g id="node2" class="node"><title>Node782</title>
<g id="a_node2"><a xlink:href="classokw_1_1core_1_1_e_n.html#adc2ff15e947443e4a40121de9bfa036a" target="_top" xlink:title="Führt ein Doppelklick auf das gegebene GUI&#45;Objekt aus.">
<polygon fill="white" stroke="black" points="271,-93 271,-112 417,-112 417,-93 271,-93"/>
<text text-anchor="middle" x="344" y="-100" font-family="Helvetica,sans-Serif" font-size="10.00">okw.core.EN.DoubleClickOn</text>
</a>
</g>
</g>
<!-- Node781&#45;&gt;Node782 -->
<g id="edge1" class="edge"><title>Node781&#45;&gt;Node782</title>
<path fill="none" stroke="midnightblue" d="M449.021,-88.405C437.82,-89.9227 426.384,-91.4723 415.388,-92.9623"/>
<polygon fill="midnightblue" stroke="midnightblue" points="449.783,-91.8339 459.222,-87.0227 448.843,-84.8973 449.783,-91.8339"/>
</g>
<!-- Node787 -->
<g id="node7" class="node"><title>Node787</title>
<g id="a_node7"><a xlink:href="classokw_1_1core_1_1_current_object___test.html#ab0c36cf24c3d1499774026d1b172ae2c" target="_top" xlink:title="Testziel: Prüft den Aufruf der Methode DoubleClickOn( &quot;FN&quot; ) im ChildObject.">
<polygon fill="white" stroke="black" points="280,-33 280,-74 408,-74 408,-33 280,-33"/>
<text text-anchor="start" x="288" y="-62" font-family="Helvetica,sans-Serif" font-size="10.00">okw.core.CurrentObject</text>
<text text-anchor="start" x="288" y="-51" font-family="Helvetica,sans-Serif" font-size="10.00">_Test.tc_DoubleClickOn</text>
<text text-anchor="middle" x="344" y="-40" font-family="Helvetica,sans-Serif" font-size="10.00">_ChildObject</text>
</a>
</g>
</g>
<!-- Node781&#45;&gt;Node787 -->
<g id="edge6" class="edge"><title>Node781&#45;&gt;Node787</title>
<path fill="none" stroke="midnightblue" d="M446.17,-66.6603C433.434,-65.0036 420.47,-63.3172 408.259,-61.7289"/>
<polygon fill="midnightblue" stroke="midnightblue" points="445.948,-70.1608 456.316,-67.9801 446.851,-63.2193 445.948,-70.1608"/>
</g>
<!-- Node783 -->
<g id="node3" class="node"><title>Node783</title>
<g id="a_node3"><a xlink:href="classokw_1_1core_1_1_e_n___o_k_w_frame_object_child_not_found_exception___test.html#ad165e477549c4bf24fa9d42e4cf5c927" target="_top" xlink:title="Prüft ob die Ausnahme OKWFrameObjectChildNotFoundException durch DoubleClickOn() ausgelöst wird,...">
<polygon fill="white" stroke="black" points="25.5,-180.5 25.5,-232.5 209.5,-232.5 209.5,-180.5 25.5,-180.5"/>
<text text-anchor="start" x="33.5" y="-220.5" font-family="Helvetica,sans-Serif" font-size="10.00">okw.core.EN_OKWFrameObject</text>
<text text-anchor="start" x="33.5" y="-209.5" font-family="Helvetica,sans-Serif" font-size="10.00">ChildNotFoundException</text>
<text text-anchor="start" x="33.5" y="-198.5" font-family="Helvetica,sans-Serif" font-size="10.00">_Test.tc_DoubleClickOn_OKWFrame</text>
<text text-anchor="middle" x="117.5" y="-187.5" font-family="Helvetica,sans-Serif" font-size="10.00">ObjectChildNotFoundException</text>
</a>
</g>
</g>
<!-- Node782&#45;&gt;Node783 -->
<g id="edge2" class="edge"><title>Node782&#45;&gt;Node783</title>
<path fill="none" stroke="midnightblue" d="M322.182,-118.285C301.135,-133.63 267.205,-156.723 235,-171.5 226.938,-175.199 218.386,-178.627 209.721,-181.772"/>
<polygon fill="midnightblue" stroke="midnightblue" points="324.411,-120.99 330.371,-112.23 320.249,-115.361 324.411,-120.99"/>
</g>
<!-- Node784 -->
<g id="node4" class="node"><title>Node784</title>
<g id="a_node4"><a xlink:href="classokw_1_1core_1_1_e_n___o_k_w_frame_object_method_not_implemented___test.html#ad7eb79bf7a39002a83a5d1d452cda82b" target="_top" xlink:title="Prüft ob die Ausnahme OKWFrameObjectMethodNotImplemented von DoubleClickOn() ausgelöst wird.">
<polygon fill="white" stroke="black" points="10,-109.5 10,-161.5 225,-161.5 225,-109.5 10,-109.5"/>
<text text-anchor="start" x="18" y="-149.5" font-family="Helvetica,sans-Serif" font-size="10.00">okw.core.EN_OKWFrameObject</text>
<text text-anchor="start" x="18" y="-138.5" font-family="Helvetica,sans-Serif" font-size="10.00">MethodNotImplemented_Test.tc</text>
<text text-anchor="start" x="18" y="-127.5" font-family="Helvetica,sans-Serif" font-size="10.00">_DoubleClickOn_OKWFrameObjectMethod</text>
<text text-anchor="middle" x="117.5" y="-116.5" font-family="Helvetica,sans-Serif" font-size="10.00">NotImplemented</text>
</a>
</g>
</g>
<!-- Node782&#45;&gt;Node784 -->
<g id="edge3" class="edge"><title>Node782&#45;&gt;Node784</title>
<path fill="none" stroke="midnightblue" d="M268.471,-113.455C254.652,-115.487 239.97,-117.645 225.408,-119.785"/>
<polygon fill="midnightblue" stroke="midnightblue" points="268.982,-116.918 278.366,-112.001 267.964,-109.992 268.982,-116.918"/>
</g>
<!-- Node785 -->
<g id="node5" class="node"><title>Node785</title>
<g id="a_node5"><a xlink:href="classokw_1_1_se_input_radio_1_1_se_input_radio___e_n___test.html#a3861906b92c8a0c2565d223cfb906e2c" target="_top" xlink:title="Test des Schlüsselwortes DoubleClickOn() für den GUI&#45;Adapter SeInputRadio.">
<polygon fill="white" stroke="black" points="0,-49 0,-90 235,-90 235,-49 0,-49"/>
<text text-anchor="start" x="8" y="-78" font-family="Helvetica,sans-Serif" font-size="10.00">okw.SeInputRadio.SeInput</text>
<text text-anchor="start" x="8" y="-67" font-family="Helvetica,sans-Serif" font-size="10.00">Radio_EN_Test.tc_DoubleClick</text>
<text text-anchor="middle" x="117.5" y="-56" font-family="Helvetica,sans-Serif" font-size="10.00">On_OKWFrameObjectMethodNotImplemented</text>
</a>
</g>
</g>
<!-- Node782&#45;&gt;Node785 -->
<g id="edge4" class="edge"><title>Node782&#45;&gt;Node785</title>
<path fill="none" stroke="midnightblue" d="M268.298,-91.5193C257.617,-89.9492 246.423,-88.3038 235.17,-86.6497"/>
<polygon fill="midnightblue" stroke="midnightblue" points="267.964,-95.0077 278.366,-92.9993 268.982,-88.0821 267.964,-95.0077"/>
</g>
<!-- Node786 -->
<g id="node6" class="node"><title>Node786</title>
<g id="a_node6"><a xlink:href="classokw_1_1_se_link_1_1_se_link___e_n___test.html#ad3983f34eec0e46d9d2ce79c7f1bbf83" target="_top" xlink:title="Prüft ob die DoubleClickOn die Ausnahme OKWFrameObjectMethodNotImplemented auslöst.">
<polygon fill="white" stroke="black" points="48,-0.5 48,-30.5 187,-30.5 187,-0.5 48,-0.5"/>
<text text-anchor="start" x="56" y="-18.5" font-family="Helvetica,sans-Serif" font-size="10.00">okw.SeLink.SeLink_EN</text>
<text text-anchor="middle" x="117.5" y="-7.5" font-family="Helvetica,sans-Serif" font-size="10.00">_Test.tcDoubleClickOn_en</text>
</a>
</g>
</g>
<!-- Node782&#45;&gt;Node786 -->
<g id="edge5" class="edge"><title>Node782&#45;&gt;Node786</title>
<path fill="none" stroke="midnightblue" d="M281.079,-88.9965C277.567,-87.3676 274.177,-85.5433 271,-83.5 249.749,-69.8325 256.618,-52.5798 235,-39.5 220.6,-30.7877 203.562,-25.1902 187.024,-21.6073"/>
<polygon fill="midnightblue" stroke="midnightblue" points="280.02,-92.344 290.602,-92.8673 282.656,-85.8593 280.02,-92.344"/>
</g>
</g>
</svg>
        <g id="navigator" transform="translate(0 0)" fill="#404254">
                <rect fill="#f2f5e9" fill-opacity="0.5" stroke="#606060" stroke-width=".5" x="0" y="0" width="60" height="60"/>
                <use id="zoomplus" xlink:href="#zoomPlus" x="17" y="9" onmousedown="handleZoom(evt,'in')"/>
                <use id="zoomminus" xlink:href="#zoomMin" x="42" y="9" onmousedown="handleZoom(evt,'out')"/>
                <use id="reset" xlink:href="#resetDef" x="30" y="36" onmousedown="handleReset()"/>
                <g id="arrowUp" xlink:href="#dirArrow" transform="translate(30 24)" onmousedown="handlePan(0,-1)">
                  <use xlink:href="#rim" fill="#404040">
                        <set attributeName="fill" to="#808080" begin="arrowUp.mouseover" end="arrowUp.mouseout"/>
                  </use>
                  <path fill="none" stroke="white" stroke-width="1.5" d="M0,-3.0v7 M-2.5,-0.5L0,-3.0L2.5,-0.5"/>
                </g>
                <g id="arrowRight" xlink:href="#dirArrow" transform="rotate(90) translate(36 -43)" onmousedown="handlePan(1,0)">
                  <use xlink:href="#rim" fill="#404040">
                        <set attributeName="fill" to="#808080" begin="arrowRight.mouseover" end="arrowRight.mouseout"/>
                  </use>
                  <path fill="none" stroke="white" stroke-width="1.5" d="M0,-3.0v7 M-2.5,-0.5L0,-3.0L2.5,-0.5"/>
                </g>
                <g id="arrowDown" xlink:href="#dirArrow" transform="rotate(180) translate(-30 -48)" onmousedown="handlePan(0,1)">
                  <use xlink:href="#rim" fill="#404040">
                        <set attributeName="fill" to="#808080" begin="arrowDown.mouseover" end="arrowDown.mouseout"/>
                  </use>
                  <path fill="none" stroke="white" stroke-width="1.5" d="M0,-3.0v7 M-2.5,-0.5L0,-3.0L2.5,-0.5"/>
                </g>
                <g id="arrowLeft" xlink:href="#dirArrow" transform="rotate(270) translate(-36 17)" onmousedown="handlePan(-1,0)">
                  <use xlink:href="#rim" fill="#404040">
                        <set attributeName="fill" to="#808080" begin="arrowLeft.mouseover" end="arrowLeft.mouseout"/>
                  </use>
                  <path fill="none" stroke="white" stroke-width="1.5" d="M0,-3.0v7 M-2.5,-0.5L0,-3.0L2.5,-0.5"/>
                </g>
        </g>
        <svg viewBox="0 0 15 15" width="100%" height="30px" preserveAspectRatio="xMaxYMin meet">
         <g id="arrow_out" transform="scale(0.3 0.3)">
          <a xlink:href="classokw_1_1core_1_1_core_ac282376df171a9d2d62bfe2f5a624cb2_icgraph_org.svg" target="_base">
           <rect id="button" ry="5" rx="5" y="6" x="6" height="38" width="38"
                fill="#f2f5e9" fill-opacity="0.5" stroke="#606060" stroke-width="1.0"/>
           <path id="arrow"
             d="M 11.500037,31.436501 C 11.940474,20.09759 22.043105,11.32322 32.158766,21.979434 L 37.068811,17.246167 C 37.068811,17.246167 37.088388,32 37.088388,32 L 22.160133,31.978069 C 22.160133,31.978069 26.997745,27.140456 26.997745,27.140456 C 18.528582,18.264221 13.291696,25.230495 11.500037,31.436501 z"
             style="fill:#404040;"/>
          </a>
         </g>
        </svg>
</svg>
