<?xml version="1.0" encoding="UTF-8" standalone="no"?>
<!DOCTYPE svg PUBLIC "-//W3C//DTD SVG 1.1//EN"
 "http://www.w3.org/Graphics/SVG/1.1/DTD/svg11.dtd">
<!-- Generated by graphviz version 2.36.0 (20140111.2315)
 -->
<!-- Title: okw.gui.adapter.selenium.SeInputCheckbox.getIsSelected Pages: 1 -->
<svg width="980pt" height="136pt"
 viewBox="0.00 0.00 980.00 136.00" xmlns="http://www.w3.org/2000/svg" xmlns:xlink="http://www.w3.org/1999/xlink">
<g id="graph0" class="graph" transform="scale(1 1) rotate(0) translate(4 132)">
<title>okw.gui.adapter.selenium.SeInputCheckbox.getIsSelected</title>
<polygon fill="white" stroke="none" points="-4,4 -4,-132 976,-132 976,4 -4,4"/>
<!-- Node28 -->
<g id="node1" class="node"><title>Node28</title>
<polygon fill="#bfbfbf" stroke="black" points="0,-49 0,-79 158,-79 158,-49 0,-49"/>
<text text-anchor="start" x="8" y="-67" font-family="Helvetica,sans-Serif" font-size="10.00">okw.gui.adapter.selenium.</text>
<text text-anchor="middle" x="79" y="-56" font-family="Helvetica,sans-Serif" font-size="10.00">SeInputCheckbox.getIsSelected</text>
</g>
<!-- Node29 -->
<g id="node2" class="node"><title>Node29</title>
<g id="a_node2"><a xlink:href="classokw_1_1gui_1_1_any_win_base.html#abaab572bdbed7b471f659d5dd8c76853" target="_top" xlink:title="Diese Methode ruft die Methode Logger.Instance.LogFunctionStartDebug(fps_FunctionName), und erweitert den gegebenen Methodenname in fps_FunctionName mit this.GetType().FullName um den Klassenbezeichner. ">
<polygon fill="white" stroke="black" points="194.5,-98 194.5,-128 361.5,-128 361.5,-98 194.5,-98"/>
<text text-anchor="start" x="202.5" y="-116" font-family="Helvetica,sans-Serif" font-size="10.00">okw.gui.AnyWinBase.LogFunction</text>
<text text-anchor="middle" x="278" y="-105" font-family="Helvetica,sans-Serif" font-size="10.00">StartDebug</text>
</a>
</g>
</g>
<!-- Node28&#45;&gt;Node29 -->
<g id="edge1" class="edge"><title>Node28&#45;&gt;Node29</title>
<path fill="none" stroke="midnightblue" d="M140.445,-79.0346C161.435,-84.2554 185.149,-90.1537 206.854,-95.5526"/>
<polygon fill="midnightblue" stroke="midnightblue" points="206.12,-98.9765 216.669,-97.9938 207.81,-92.1835 206.12,-98.9765"/>
</g>
<!-- Node30 -->
<g id="node3" class="node"><title>Node30</title>
<g id="a_node3"><a xlink:href="classokw_1_1gui_1_1adapter_1_1selenium_1_1_se_any_child_window.html#a9a138af1fc6ff850d708d66f308a2525" target="_top" xlink:title="Ermittelt aus dem gegebenen Locator das DOM&#45;Elelement, welches das Objekt representiert. ">
<polygon fill="white" stroke="black" points="212.5,-49 212.5,-79 343.5,-79 343.5,-49 212.5,-49"/>
<text text-anchor="start" x="220.5" y="-67" font-family="Helvetica,sans-Serif" font-size="10.00">okw.gui.adapter.selenium.</text>
<text text-anchor="middle" x="278" y="-56" font-family="Helvetica,sans-Serif" font-size="10.00">SeAnyChildWindow.Me</text>
</a>
</g>
</g>
<!-- Node28&#45;&gt;Node30 -->
<g id="edge2" class="edge"><title>Node28&#45;&gt;Node30</title>
<path fill="none" stroke="midnightblue" d="M158.143,-64C172.579,-64 187.625,-64 201.966,-64"/>
<polygon fill="midnightblue" stroke="midnightblue" points="202.265,-67.5001 212.265,-64 202.265,-60.5001 202.265,-67.5001"/>
</g>
<!-- Node38 -->
<g id="node11" class="node"><title>Node38</title>
<g id="a_node11"><a xlink:href="classokw_1_1gui_1_1_any_win_base.html#a51cf50ace21902b3a5359316f53a7f3e" target="_top" xlink:title="Methode ruft die Methode Logger.Instance.LogFunctionEndDebug() auf. ">
<polygon fill="white" stroke="black" points="194.5,-0 194.5,-30 361.5,-30 361.5,-0 194.5,-0"/>
<text text-anchor="start" x="202.5" y="-18" font-family="Helvetica,sans-Serif" font-size="10.00">okw.gui.AnyWinBase.LogFunction</text>
<text text-anchor="middle" x="278" y="-7" font-family="Helvetica,sans-Serif" font-size="10.00">EndDebug</text>
</a>
</g>
</g>
<!-- Node28&#45;&gt;Node38 -->
<g id="edge10" class="edge"><title>Node28&#45;&gt;Node38</title>
<path fill="none" stroke="midnightblue" d="M140.445,-48.9654C161.435,-43.7446 185.149,-37.8463 206.854,-32.4474"/>
<polygon fill="midnightblue" stroke="midnightblue" points="207.81,-35.8165 216.669,-30.0062 206.12,-29.0235 207.81,-35.8165"/>
</g>
<!-- Node31 -->
<g id="node4" class="node"><title>Node31</title>
<g id="a_node4"><a xlink:href="classokw_1_1gui_1_1adapter_1_1selenium_1_1webdriver_1_1_se_driver.html#aee9e3f8a67f4ad1f8100a33ba71c926e" target="_top" xlink:title="Gibt die Instance für die einzige Instanz dieser Klasse zurück. ">
<polygon fill="white" stroke="black" points="398,-98 398,-128 574,-128 574,-98 398,-98"/>
<text text-anchor="start" x="406" y="-116" font-family="Helvetica,sans-Serif" font-size="10.00">okw.gui.adapter.selenium.webdriver.</text>
<text text-anchor="middle" x="486" y="-105" font-family="Helvetica,sans-Serif" font-size="10.00">SeDriver.getInstance</text>
</a>
</g>
</g>
<!-- Node30&#45;&gt;Node31 -->
<g id="edge3" class="edge"><title>Node30&#45;&gt;Node31</title>
<path fill="none" stroke="midnightblue" d="M342.207,-79.0346C364.254,-84.2789 389.176,-90.2069 411.956,-95.6255"/>
<polygon fill="midnightblue" stroke="midnightblue" points="411.374,-99.0847 421.913,-97.9938 412.994,-92.2747 411.374,-99.0847"/>
</g>
<!-- Node32 -->
<g id="node5" class="node"><title>Node32</title>
<g id="a_node5"><a xlink:href="classokw_1_1gui_1_1adapter_1_1selenium_1_1webdriver_1_1_se_driver.html#a6d879107786a94ebbdbd42b4ac6c6acf" target="_top" xlink:title="Ermittelt das Webelement mit der gegebenen frameID und dem gegebenen Locator. ">
<polygon fill="white" stroke="black" points="398,-49 398,-79 574,-79 574,-49 398,-49"/>
<text text-anchor="start" x="406" y="-67" font-family="Helvetica,sans-Serif" font-size="10.00">okw.gui.adapter.selenium.webdriver.</text>
<text text-anchor="middle" x="486" y="-56" font-family="Helvetica,sans-Serif" font-size="10.00">SeDriver.getElement</text>
</a>
</g>
</g>
<!-- Node30&#45;&gt;Node32 -->
<g id="edge4" class="edge"><title>Node30&#45;&gt;Node32</title>
<path fill="none" stroke="midnightblue" d="M343.614,-64C357.612,-64 372.712,-64 387.654,-64"/>
<polygon fill="midnightblue" stroke="midnightblue" points="387.957,-67.5001 397.957,-64 387.957,-60.5001 387.957,-67.5001"/>
</g>
<!-- Node36 -->
<g id="node9" class="node"><title>Node36</title>
<g id="a_node9"><a xlink:href="classokw_1_1gui_1_1_any_win_base.html#a9929f6fae1f4e2c20df79d32d5bc79db" target="_top" xlink:title="Holt den vollständig (rekursiv) aufgelösten (z.B. ">
<polygon fill="white" stroke="black" points="406.5,-10.5 406.5,-29.5 565.5,-29.5 565.5,-10.5 406.5,-10.5"/>
<text text-anchor="middle" x="486" y="-17.5" font-family="Helvetica,sans-Serif" font-size="10.00">okw.gui.AnyWinBase.getLocator</text>
</a>
</g>
</g>
<!-- Node30&#45;&gt;Node36 -->
<g id="edge8" class="edge"><title>Node30&#45;&gt;Node36</title>
<path fill="none" stroke="midnightblue" d="M343.614,-50.1988C371.55,-44.232 403.882,-37.3262 430.571,-31.6257"/>
<polygon fill="midnightblue" stroke="midnightblue" points="431.454,-35.0161 440.502,-29.5044 429.992,-28.1705 431.454,-35.0161"/>
</g>
<!-- Node33 -->
<g id="node6" class="node"><title>Node33</title>
<g id="a_node6"><a xlink:href="classokw_1_1gui_1_1adapter_1_1selenium_1_1webdriver_1_1_se_driver.html#a47eec72c911c05beb2127672daafb325" target="_top" xlink:title="Wechselt das aktuelle Frame auf das Frame mit der id=iframeID. ">
<polygon fill="white" stroke="black" points="610,-98 610,-128 786,-128 786,-98 610,-98"/>
<text text-anchor="start" x="618" y="-116" font-family="Helvetica,sans-Serif" font-size="10.00">okw.gui.adapter.selenium.webdriver.</text>
<text text-anchor="middle" x="698" y="-105" font-family="Helvetica,sans-Serif" font-size="10.00">SeDriver.swichToFrame</text>
</a>
</g>
</g>
<!-- Node32&#45;&gt;Node33 -->
<g id="edge5" class="edge"><title>Node32&#45;&gt;Node33</title>
<path fill="none" stroke="midnightblue" d="M551.434,-79.0346C574.01,-84.3024 599.543,-90.2601 622.85,-95.6984"/>
<polygon fill="midnightblue" stroke="midnightblue" points="622.154,-99.1299 632.688,-97.9938 623.745,-92.313 622.154,-99.1299"/>
</g>
<!-- Node35 -->
<g id="node8" class="node"><title>Node35</title>
<g id="a_node8"><a xlink:href="classokw_1_1log_1_1_logger___sngltn.html#a8ebceaddd6cc6963ddb8e08c72ea808c" target="_top" xlink:title="LogPrint Function: Prints the values of expressions to the results file. ">
<polygon fill="white" stroke="black" points="631,-49 631,-79 765,-79 765,-49 631,-49"/>
<text text-anchor="start" x="639" y="-67" font-family="Helvetica,sans-Serif" font-size="10.00">okw.log.Logger_Sngltn.Log</text>
<text text-anchor="middle" x="698" y="-56" font-family="Helvetica,sans-Serif" font-size="10.00">Print</text>
</a>
</g>
</g>
<!-- Node32&#45;&gt;Node35 -->
<g id="edge7" class="edge"><title>Node32&#45;&gt;Node35</title>
<path fill="none" stroke="midnightblue" d="M574.235,-64C589.617,-64 605.523,-64 620.58,-64"/>
<polygon fill="midnightblue" stroke="midnightblue" points="620.852,-67.5001 630.852,-64 620.852,-60.5001 620.852,-67.5001"/>
</g>
<!-- Node34 -->
<g id="node7" class="node"><title>Node34</title>
<g id="a_node7"><a xlink:href="classokw_1_1_o_k_w___helper.html#a3a7ba0f42b29adf70574830688e72e4a" target="_top" xlink:title="Prüft ob der gegeben String fpsStrin null oder leer (&quot;&quot;) ist. ">
<polygon fill="white" stroke="black" points="822.5,-98 822.5,-128 971.5,-128 971.5,-98 822.5,-98"/>
<text text-anchor="start" x="830.5" y="-116" font-family="Helvetica,sans-Serif" font-size="10.00">okw.OKW_Helper.isStringNull</text>
<text text-anchor="middle" x="897" y="-105" font-family="Helvetica,sans-Serif" font-size="10.00">OrEmpty</text>
</a>
</g>
</g>
<!-- Node33&#45;&gt;Node34 -->
<g id="edge6" class="edge"><title>Node33&#45;&gt;Node34</title>
<path fill="none" stroke="midnightblue" d="M786.267,-113C794.922,-113 803.694,-113 812.311,-113"/>
<polygon fill="midnightblue" stroke="midnightblue" points="812.34,-116.5 822.34,-113 812.34,-109.5 812.34,-116.5"/>
</g>
<!-- Node37 -->
<g id="node10" class="node"><title>Node37</title>
<g id="a_node10"><a xlink:href="classokw_1_1gui_1_1_o_k_w_locator.html#adc74fc2125dd048dc1cb84e011f47ec8" target="_top" xlink:title="Holt den vollständig (rekursiv) aufgelösten (z.B. ">
<polygon fill="white" stroke="black" points="619,-10.5 619,-29.5 777,-29.5 777,-10.5 619,-10.5"/>
<text text-anchor="middle" x="698" y="-17.5" font-family="Helvetica,sans-Serif" font-size="10.00">okw.gui.OKWLocator.getLocator</text>
</a>
</g>
</g>
<!-- Node36&#45;&gt;Node37 -->
<g id="edge9" class="edge"><title>Node36&#45;&gt;Node37</title>
<path fill="none" stroke="midnightblue" d="M565.794,-20C579.748,-20 594.362,-20 608.561,-20"/>
<polygon fill="midnightblue" stroke="midnightblue" points="608.812,-23.5001 618.812,-20 608.812,-16.5001 608.812,-23.5001"/>
</g>
</g>
</svg>
