<?xml version="1.0" encoding="UTF-8" standalone="no"?>
<!DOCTYPE svg PUBLIC "-//W3C//DTD SVG 1.1//EN"
 "http://www.w3.org/Graphics/SVG/1.1/DTD/svg11.dtd">
<!-- Generated by graphviz version 2.26.3 (20100126.1600)
 -->
<!-- Title: okw.core.EN_OKWNotAllowedValueException_Keywords_IGNORE.tcTypeKeyTablecellIGNORE1 Pages: 1 -->
<!--zoomable 318 -->
<svg id="main" version="1.1" xmlns="http://www.w3.org/2000/svg" xmlns:xlink="http://www.w3.org/1999/xlink" xml:space="preserve" onload="init(evt)">
<style type="text/css"><![CDATA[
.edge:hover path { stroke: red; }
.edge:hover polygon { stroke: red; fill: red; }
]]></style>
<script type="text/javascript"><![CDATA[
var edges = document.getElementsByTagName('g');
if (edges && edges.length) {
  for (var i=0;i<edges.length;i++) {
    if (edges[i].id.substr(0,4)=='edge') {
      edges[i].setAttribute('class','edge');
    }
  }
}
]]></script>
        <defs>
                <circle id="rim" cx="0" cy="0" r="7"/>
                <circle id="rim2" cx="0" cy="0" r="3.5"/>
                <g id="zoomPlus">
                        <use xlink:href="#rim" fill="#404040">
                                <set attributeName="fill" to="#808080" begin="zoomplus.mouseover" end="zoomplus.mouseout"/>
                        </use>
                        <path d="M-4,0h8M0,-4v8" fill="none" stroke="white" stroke-width="1.5" pointer-events="none"/>
                </g>
                <g id="zoomMin">
                        <use xlink:href="#rim" fill="#404040">
                                <set attributeName="fill" to="#808080" begin="zoomminus.mouseover" end="zoomminus.mouseout"/>
                        </use>
                        <path d="M-4,0h8" fill="none" stroke="white" stroke-width="1.5" pointer-events="none"/>
                </g>
                <g id="dirArrow">
                        <path fill="none" stroke="white" stroke-width="1.5" d="M0,-3.0v7 M-2.5,-0.5L0,-3.0L2.5,-0.5"/>
                </g>
               <g id="resetDef">
                       <use xlink:href="#rim2" fill="#404040">
                               <set attributeName="fill" to="#808080" begin="reset.mouseover" end="reset.mouseout"/>
                       </use>
               </g>
        </defs>

<script type="text/javascript">
var viewWidth = 1196;
var viewHeight = 318;
var sectionId = 'dynsection-29';
</script>
<script xlink:href="svgpan.js"/>
<svg id="graph" class="graph">
<g id="viewport">
<title>okw.core.EN_OKWNotAllowedValueException_Keywords_IGNORE.tcTypeKeyTablecellIGNORE1</title>
<polygon fill="white" stroke="white" points="-4,5 -4,-314 1193,-314 1193,5 -4,5"/>
<!-- Node504 -->
<g id="node1" class="node"><title>Node504</title>
<polygon fill="#bfbfbf" stroke="black" points="0,-110.5 0,-157.5 196,-157.5 196,-110.5 0,-110.5"/>
<text text-anchor="start" x="8" y="-144.5" font-family="Helvetica,sans-Serif" font-size="10.00">okw.core.EN_OKWNotAllowed</text>
<text text-anchor="start" x="8" y="-131.5" font-family="Helvetica,sans-Serif" font-size="10.00">ValueException_Keywords</text>
<text text-anchor="middle" x="98" y="-118.5" font-family="Helvetica,sans-Serif" font-size="10.00">_IGNORE.tcTypeKeyTablecellIGNORE1</text>
</g>
<!-- Node505 -->
<g id="node3" class="node"><title>Node505</title>
<a xlink:href="classokw_1_1core_1_1_e_n.html#aef613b0a3e6bb8a9623984db145cae69" target="_top" xlink:title="Markiert den Anfang eines neuen Testfalls. ">
<polygon fill="white" stroke="black" points="249.5,-83.5 249.5,-104.5 370.5,-104.5 370.5,-83.5 249.5,-83.5"/>
<text text-anchor="middle" x="310" y="-91.5" font-family="Helvetica,sans-Serif" font-size="10.00">okw.core.EN.BeginTest</text>
</a>
</g>
<!-- Node504&#45;&gt;Node505 -->
<g id="edge2" class="edge"><title>Node504&#45;&gt;Node505</title>
<path fill="none" stroke="midnightblue" d="M196.242,-115.464C212.591,-112.379 229.186,-109.248 244.463,-106.366"/>
<polygon fill="midnightblue" stroke="midnightblue" points="245.118,-109.804 254.295,-104.51 243.82,-102.925 245.118,-109.804"/>
</g>
<!-- Node511 -->
<g id="node15" class="node"><title>Node511</title>
<a xlink:href="classokw_1_1core_1_1_e_n.html#a2b61c2b39a9cfdbdfd25fe0e3d43785b" target="_top" xlink:title="Setzt den Kontext auf das gegebene Fenster. ">
<polygon fill="white" stroke="black" points="240,-163.5 240,-184.5 380,-184.5 380,-163.5 240,-163.5"/>
<text text-anchor="middle" x="310" y="-171.5" font-family="Helvetica,sans-Serif" font-size="10.00">okw.core.EN.SelectWindow</text>
</a>
</g>
<!-- Node504&#45;&gt;Node511 -->
<g id="edge14" class="edge"><title>Node504&#45;&gt;Node511</title>
<path fill="none" stroke="midnightblue" d="M196.242,-152.536C212.591,-155.621 229.186,-158.752 244.463,-161.634"/>
<polygon fill="midnightblue" stroke="midnightblue" points="243.82,-165.075 254.295,-163.49 245.118,-158.196 243.82,-165.075"/>
</g>
<!-- Node518 -->
<g id="node30" class="node"><title>Node518</title>
<a xlink:href="classokw_1_1core_1_1_e_n.html#a926f4e3a2113f58c84aea75a36ff1c6b" target="_top" xlink:title="Eingabe von Daten in eine gegebene Tabellenzelle über die Tastatur. ">
<polygon fill="white" stroke="black" points="232.5,-123.5 232.5,-144.5 387.5,-144.5 387.5,-123.5 232.5,-123.5"/>
<text text-anchor="middle" x="310" y="-131.5" font-family="Helvetica,sans-Serif" font-size="10.00">okw.core.EN.TypeKeyTablecell</text>
</a>
</g>
<!-- Node504&#45;&gt;Node518 -->
<g id="edge30" class="edge"><title>Node504&#45;&gt;Node518</title>
<path fill="none" stroke="midnightblue" d="M196.242,-134C204.962,-134 213.751,-134 222.373,-134"/>
<polygon fill="midnightblue" stroke="midnightblue" points="222.404,-137.5 232.404,-134 222.404,-130.5 222.404,-137.5"/>
</g>
<!-- Node506 -->
<g id="node5" class="node"><title>Node506</title>
<a xlink:href="classokw_1_1core_1_1_core.html#ab4e0f723d27cb11c944ec4c82c426100" target="_top" xlink:title="Setzt die Sprache auf den gegebenen wert Language. ">
<polygon fill="white" stroke="black" points="435.5,-103.5 435.5,-124.5 574.5,-124.5 574.5,-103.5 435.5,-103.5"/>
<text text-anchor="middle" x="505" y="-111.5" font-family="Helvetica,sans-Serif" font-size="10.00">okw.core.Core.setLanguage</text>
</a>
</g>
<!-- Node505&#45;&gt;Node506 -->
<g id="edge4" class="edge"><title>Node505&#45;&gt;Node506</title>
<path fill="none" stroke="midnightblue" d="M370.63,-100.218C387.893,-101.989 406.965,-103.945 425.184,-105.814"/>
<polygon fill="midnightblue" stroke="midnightblue" points="424.896,-109.302 435.201,-106.841 425.61,-102.339 424.896,-109.302"/>
</g>
<!-- Node508 -->
<g id="node9" class="node"><title>Node508</title>
<a xlink:href="classokw_1_1core_1_1_core.html#acfefe92468c9eb9e951846372726c4d8" target="_top" xlink:title="Markiert den Anfang eines neuen Testfalls. ">
<polygon fill="white" stroke="black" points="441,-52.5 441,-73.5 569,-73.5 569,-52.5 441,-52.5"/>
<text text-anchor="middle" x="505" y="-60.5" font-family="Helvetica,sans-Serif" font-size="10.00">okw.core.Core.BeginTest</text>
</a>
</g>
<!-- Node505&#45;&gt;Node508 -->
<g id="edge8" class="edge"><title>Node505&#45;&gt;Node508</title>
<path fill="none" stroke="midnightblue" d="M370.63,-84.3613C389.663,-81.3356 410.895,-77.9603 430.758,-74.8025"/>
<polygon fill="midnightblue" stroke="midnightblue" points="431.365,-78.2501 440.692,-73.2234 430.266,-71.3369 431.365,-78.2501"/>
</g>
<!-- Node507 -->
<g id="node7" class="node"><title>Node507</title>
<a xlink:href="interfaceokw_1_1core_1_1_i_o_k_w___state.html#a866baa0bde08a47418f54d63bdb56097" target="_top" xlink:title="Interne Methode zum setzen der Sprache für die sprachabhängigen Ausgaben der Dokumentation (Log)...">
<polygon fill="white" stroke="black" points="622.5,-92.5 622.5,-113.5 795.5,-113.5 795.5,-92.5 622.5,-92.5"/>
<text text-anchor="middle" x="709" y="-100.5" font-family="Helvetica,sans-Serif" font-size="10.00">okw.core.IOKW_State.setLanguage</text>
</a>
</g>
<!-- Node506&#45;&gt;Node507 -->
<g id="edge6" class="edge"><title>Node506&#45;&gt;Node507</title>
<path fill="none" stroke="midnightblue" d="M574.635,-110.245C586.748,-109.592 599.541,-108.902 612.225,-108.218"/>
<polygon fill="midnightblue" stroke="midnightblue" points="612.563,-111.705 622.36,-107.672 612.186,-104.715 612.563,-111.705"/>
</g>
<!-- Node509 -->
<g id="node11" class="node"><title>Node509</title>
<a xlink:href="classokw_1_1log_1_1_logger___sngltn.html#a60f4ad59db847ae61df928f9920f3deb" target="_top" xlink:title="Ausgabe des Testfalls. ">
<polygon fill="white" stroke="black" points="642,-0 642,-34 776,-34 776,-0 642,-0"/>
<text text-anchor="start" x="650" y="-21" font-family="Helvetica,sans-Serif" font-size="10.00">okw.log.Logger_Sngltn.Log</text>
<text text-anchor="middle" x="709" y="-8" font-family="Helvetica,sans-Serif" font-size="10.00">TestcaseStart</text>
</a>
</g>
<!-- Node508&#45;&gt;Node509 -->
<g id="edge10" class="edge"><title>Node508&#45;&gt;Node509</title>
<path fill="none" stroke="midnightblue" d="M551.802,-52.4467C575.584,-47.0841 605.095,-40.4297 632.102,-34.3398"/>
<polygon fill="midnightblue" stroke="midnightblue" points="632.938,-37.7391 641.924,-32.1251 631.399,-30.9106 632.938,-37.7391"/>
</g>
<!-- Node510 -->
<g id="node13" class="node"><title>Node510</title>
<a xlink:href="interfaceokw_1_1core_1_1_i_o_k_w___state.html#ae5480ddb1fc37eade5d899d335bc4b13" target="_top" xlink:title="Markiert den Anfang eines neuen Testfalls. ">
<polygon fill="white" stroke="black" points="628,-52.5 628,-73.5 790,-73.5 790,-52.5 628,-52.5"/>
<text text-anchor="middle" x="709" y="-60.5" font-family="Helvetica,sans-Serif" font-size="10.00">okw.core.IOKW_State.BeginTest</text>
</a>
</g>
<!-- Node508&#45;&gt;Node510 -->
<g id="edge12" class="edge"><title>Node508&#45;&gt;Node510</title>
<path fill="none" stroke="midnightblue" d="M569.267,-63C584.645,-63 601.355,-63 617.695,-63"/>
<polygon fill="midnightblue" stroke="midnightblue" points="617.805,-66.5001 627.805,-63 617.805,-59.5001 617.805,-66.5001"/>
</g>
<!-- Node511&#45;&gt;Node506 -->
<g id="edge16" class="edge"><title>Node511&#45;&gt;Node506</title>
<path fill="none" stroke="midnightblue" d="M353.487,-163.493C364.774,-160.59 376.882,-157.32 388,-154 414.339,-146.134 443.602,-136.129 466.273,-128.093"/>
<polygon fill="midnightblue" stroke="midnightblue" points="467.632,-131.325 475.874,-124.668 465.28,-124.732 467.632,-131.325"/>
</g>
<!-- Node512 -->
<g id="node18" class="node"><title>Node512</title>
<a xlink:href="classokw_1_1core_1_1_core.html#a6a68660eb5e34965522896e2a5c48314" target="_top" xlink:title="Setzt den Kontext auf das gegebene Fenster. ">
<polygon fill="white" stroke="black" points="432,-213.5 432,-234.5 578,-234.5 578,-213.5 432,-213.5"/>
<text text-anchor="middle" x="505" y="-221.5" font-family="Helvetica,sans-Serif" font-size="10.00">okw.core.Core.SelectWindow</text>
</a>
</g>
<!-- Node511&#45;&gt;Node512 -->
<g id="edge18" class="edge"><title>Node511&#45;&gt;Node512</title>
<path fill="none" stroke="midnightblue" d="M351.354,-184.604C381.316,-192.286 422.008,-202.72 453.988,-210.92"/>
<polygon fill="midnightblue" stroke="midnightblue" points="453.484,-214.404 464.04,-213.497 455.223,-207.623 453.484,-214.404"/>
</g>
<!-- Node513 -->
<g id="node20" class="node"><title>Node513</title>
<a xlink:href="classokw_1_1log_1_1_logger___sngltn.html#a70ec25e200e00ecefc544e8fd371d2ef" target="_top" xlink:title="Ausgabe eines Schlüsselwortes. ">
<polygon fill="white" stroke="black" points="642,-184 642,-218 776,-218 776,-184 642,-184"/>
<text text-anchor="start" x="650" y="-205" font-family="Helvetica,sans-Serif" font-size="10.00">okw.log.Logger_Sngltn.Log</text>
<text text-anchor="middle" x="709" y="-192" font-family="Helvetica,sans-Serif" font-size="10.00">KeyWordStart</text>
</a>
</g>
<!-- Node512&#45;&gt;Node513 -->
<g id="edge20" class="edge"><title>Node512&#45;&gt;Node513</title>
<path fill="none" stroke="midnightblue" d="M578.072,-215.761C595.466,-213.8 614.084,-211.701 631.661,-209.72"/>
<polygon fill="midnightblue" stroke="midnightblue" points="632.329,-213.167 641.874,-208.568 631.545,-206.211 632.329,-213.167"/>
</g>
<!-- Node514 -->
<g id="node22" class="node"><title>Node514</title>
<a xlink:href="classokw_1_1_log_messenger.html#af225d1f037d47b3b085175c09d78bdd2" target="_top" xlink:title="Holt die Log&#45;Meldung für MethodeNmae/Textkey ohne weitere Parameter. ">
<polygon fill="white" stroke="black" points="629,-236.5 629,-257.5 789,-257.5 789,-236.5 629,-236.5"/>
<text text-anchor="middle" x="709" y="-244.5" font-family="Helvetica,sans-Serif" font-size="10.00">okw.LogMessenger.GetMessage</text>
</a>
</g>
<!-- Node512&#45;&gt;Node514 -->
<g id="edge22" class="edge"><title>Node512&#45;&gt;Node514</title>
<path fill="none" stroke="midnightblue" d="M578.072,-232.239C591.192,-233.718 605.007,-235.275 618.547,-236.802"/>
<polygon fill="midnightblue" stroke="midnightblue" points="618.502,-240.319 628.831,-237.961 619.286,-233.363 618.502,-240.319"/>
</g>
<!-- Node517 -->
<g id="node28" class="node"><title>Node517</title>
<a xlink:href="interfaceokw_1_1core_1_1_i_o_k_w___state.html#ad4fc9610ed5b1176590a45b55e6ac7f0" target="_top" xlink:title="Setzt den Kontext auf das gegebene Fenster. ">
<polygon fill="white" stroke="black" points="636,-276 636,-310 782,-310 782,-276 636,-276"/>
<text text-anchor="start" x="644" y="-297" font-family="Helvetica,sans-Serif" font-size="10.00">okw.core.IOKW_State.Select</text>
<text text-anchor="middle" x="709" y="-284" font-family="Helvetica,sans-Serif" font-size="10.00">Window</text>
</a>
</g>
<!-- Node512&#45;&gt;Node517 -->
<g id="edge28" class="edge"><title>Node512&#45;&gt;Node517</title>
<path fill="none" stroke="midnightblue" d="M532.254,-234.559C555.86,-243.574 590.995,-256.68 622,-267 627.89,-268.96 634.025,-270.933 640.193,-272.867"/>
<polygon fill="midnightblue" stroke="midnightblue" points="639.291,-276.252 649.879,-275.868 641.363,-269.565 639.291,-276.252"/>
</g>
<!-- Node515 -->
<g id="node24" class="node"><title>Node515</title>
<a xlink:href="classokw_1_1_log_messenger.html#a530cd6ab82ec82a04206a2e976ec06e3" target="_top" xlink:title="Interne Kernfunktion holt die Log&#45;Meldung mit Platzhaltern aus der XML&#45;Datei. ">
<polygon fill="white" stroke="black" points="832.5,-236.5 832.5,-257.5 999.5,-257.5 999.5,-236.5 832.5,-236.5"/>
<text text-anchor="middle" x="916" y="-244.5" font-family="Helvetica,sans-Serif" font-size="10.00">okw.LogMessenger.ReadMessage</text>
</a>
</g>
<!-- Node514&#45;&gt;Node515 -->
<g id="edge24" class="edge"><title>Node514&#45;&gt;Node515</title>
<path fill="none" stroke="midnightblue" d="M789.032,-247C799.92,-247 811.173,-247 822.276,-247"/>
<polygon fill="midnightblue" stroke="midnightblue" points="822.415,-250.5 832.415,-247 822.415,-243.5 822.415,-250.5"/>
</g>
<!-- Node516 -->
<g id="node26" class="node"><title>Node516</title>
<a xlink:href="classokw_1_1_o_k_w___xml_reader.html#ab920b5335a2e1429c14cc5f8e79f39eb" target="_top" xlink:title="Lies den TextContent eines Tag. ">
<polygon fill="white" stroke="black" points="1036,-230 1036,-264 1188,-264 1188,-230 1036,-230"/>
<text text-anchor="start" x="1044" y="-251" font-family="Helvetica,sans-Serif" font-size="10.00">okw.OKW_XmlReader.getText</text>
<text text-anchor="middle" x="1112" y="-238" font-family="Helvetica,sans-Serif" font-size="10.00">ContentSingleValue</text>
</a>
</g>
<!-- Node515&#45;&gt;Node516 -->
<g id="edge26" class="edge"><title>Node515&#45;&gt;Node516</title>
<path fill="none" stroke="midnightblue" d="M999.69,-247C1008.29,-247 1017.04,-247 1025.67,-247"/>
<polygon fill="midnightblue" stroke="midnightblue" points="1025.72,-250.5 1035.72,-247 1025.72,-243.5 1025.72,-250.5"/>
</g>
<!-- Node518&#45;&gt;Node506 -->
<g id="edge32" class="edge"><title>Node518&#45;&gt;Node506</title>
<path fill="none" stroke="midnightblue" d="M387.629,-126.038C399.91,-124.778 412.63,-123.474 424.964,-122.209"/>
<polygon fill="midnightblue" stroke="midnightblue" points="425.625,-125.659 435.216,-121.157 424.911,-118.696 425.625,-125.659"/>
</g>
<!-- Node519 -->
<g id="node33" class="node"><title>Node519</title>
<a xlink:href="classokw_1_1core_1_1_core.html#a86cffd624c6b0a94074479b6fe3260de" target="_top" xlink:title="Eingabe von Daten in eine gegebene Tabellenzelle über die Tastatur. ">
<polygon fill="white" stroke="black" points="424.5,-155.5 424.5,-176.5 585.5,-176.5 585.5,-155.5 424.5,-155.5"/>
<text text-anchor="middle" x="505" y="-163.5" font-family="Helvetica,sans-Serif" font-size="10.00">okw.core.Core.TypeKeyTablecell</text>
</a>
</g>
<!-- Node518&#45;&gt;Node519 -->
<g id="edge34" class="edge"><title>Node518&#45;&gt;Node519</title>
<path fill="none" stroke="midnightblue" d="M374.12,-144.522C392.281,-147.502 412.198,-150.771 430.895,-153.839"/>
<polygon fill="midnightblue" stroke="midnightblue" points="430.406,-157.306 440.841,-155.471 431.54,-150.398 430.406,-157.306"/>
</g>
<!-- Node519&#45;&gt;Node513 -->
<g id="edge36" class="edge"><title>Node519&#45;&gt;Node513</title>
<path fill="none" stroke="midnightblue" d="M566.207,-176.501C586.774,-180.03 609.991,-184.013 631.633,-187.726"/>
<polygon fill="midnightblue" stroke="midnightblue" points="631.333,-191.226 641.781,-189.467 632.517,-184.327 631.333,-191.226"/>
</g>
<!-- Node519&#45;&gt;Node514 -->
<g id="edge38" class="edge"><title>Node519&#45;&gt;Node514</title>
<path fill="none" stroke="midnightblue" d="M529.512,-176.501C545.794,-183.718 567.498,-193.806 586,-204 602.63,-213.162 604.492,-219.655 622,-227 627.909,-229.479 634.178,-231.679 640.537,-233.625"/>
<polygon fill="midnightblue" stroke="midnightblue" points="639.989,-237.108 650.566,-236.478 641.905,-230.375 639.989,-237.108"/>
</g>
<!-- Node520 -->
<g id="node37" class="node"><title>Node520</title>
<a xlink:href="interfaceokw_1_1core_1_1_i_o_k_w___state.html#a402e4109c56f7be77debccb2132e4e27" target="_top" xlink:title="Eingabe von Daten in eine gegebene Tabellenzelle über die Tastatur. ">
<polygon fill="white" stroke="black" points="639,-132 639,-166 779,-166 779,-132 639,-132"/>
<text text-anchor="start" x="647" y="-153" font-family="Helvetica,sans-Serif" font-size="10.00">okw.core.IOKW_State.Type</text>
<text text-anchor="middle" x="709" y="-140" font-family="Helvetica,sans-Serif" font-size="10.00">KeyTablecell</text>
</a>
</g>
<!-- Node519&#45;&gt;Node520 -->
<g id="edge40" class="edge"><title>Node519&#45;&gt;Node520</title>
<path fill="none" stroke="midnightblue" d="M585.626,-159.281C599.786,-158.101 614.521,-156.873 628.672,-155.694"/>
<polygon fill="midnightblue" stroke="midnightblue" points="629.182,-159.164 638.857,-154.845 628.601,-152.188 629.182,-159.164"/>
</g>
</g>
</svg>
        <g id="navigator" transform="translate(0 0)" fill="#404254">
                <rect fill="#f2f5e9" fill-opacity="0.5" stroke="#606060" stroke-width=".5" x="0" y="0" width="60" height="60"/>
                <use id="zoomplus" xlink:href="#zoomPlus" x="17" y="9" onmousedown="handleZoom(evt,'in')"/>
                <use id="zoomminus" xlink:href="#zoomMin" x="42" y="9" onmousedown="handleZoom(evt,'out')"/>
                <use id="reset" xlink:href="#resetDef" x="30" y="36" onmousedown="handleReset()"/>
                <g id="arrowUp" xlink:href="#dirArrow" transform="translate(30 24)" onmousedown="handlePan(0,-1)">
                  <use xlink:href="#rim" fill="#404040">
                        <set attributeName="fill" to="#808080" begin="arrowUp.mouseover" end="arrowUp.mouseout"/>
                  </use>
                  <path fill="none" stroke="white" stroke-width="1.5" d="M0,-3.0v7 M-2.5,-0.5L0,-3.0L2.5,-0.5"/>
                </g>
                <g id="arrowRight" xlink:href="#dirArrow" transform="rotate(90) translate(36 -43)" onmousedown="handlePan(1,0)">
                  <use xlink:href="#rim" fill="#404040">
                        <set attributeName="fill" to="#808080" begin="arrowRight.mouseover" end="arrowRight.mouseout"/>
                  </use>
                  <path fill="none" stroke="white" stroke-width="1.5" d="M0,-3.0v7 M-2.5,-0.5L0,-3.0L2.5,-0.5"/>
                </g>
                <g id="arrowDown" xlink:href="#dirArrow" transform="rotate(180) translate(-30 -48)" onmousedown="handlePan(0,1)">
                  <use xlink:href="#rim" fill="#404040">
                        <set attributeName="fill" to="#808080" begin="arrowDown.mouseover" end="arrowDown.mouseout"/>
                  </use>
                  <path fill="none" stroke="white" stroke-width="1.5" d="M0,-3.0v7 M-2.5,-0.5L0,-3.0L2.5,-0.5"/>
                </g>
                <g id="arrowLeft" xlink:href="#dirArrow" transform="rotate(270) translate(-36 17)" onmousedown="handlePan(-1,0)">
                  <use xlink:href="#rim" fill="#404040">
                        <set attributeName="fill" to="#808080" begin="arrowLeft.mouseover" end="arrowLeft.mouseout"/>
                  </use>
                  <path fill="none" stroke="white" stroke-width="1.5" d="M0,-3.0v7 M-2.5,-0.5L0,-3.0L2.5,-0.5"/>
                </g>
        </g>
        <svg viewBox="0 0 15 15" width="100%" height="30px" preserveAspectRatio="xMaxYMin meet">
         <g id="arrow_out" transform="scale(0.3 0.3)">
          <a xlink:href="classokw_1_1core_1_1_e_n___o_k_w_not_allowed_value_exception___keywords___i_g_n_o_r_e_a929cfa83f7d891858fe5f4a2da81e63d_cgraph_org.svg" target="_base">
           <rect id="button" ry="5" rx="5" y="6" x="6" height="38" width="38"
                fill="#f2f5e9" fill-opacity="0.5" stroke="#606060" stroke-width="1.0"/>
           <path id="arrow"
             d="M 11.500037,31.436501 C 11.940474,20.09759 22.043105,11.32322 32.158766,21.979434 L 37.068811,17.246167 C 37.068811,17.246167 37.088388,32 37.088388,32 L 22.160133,31.978069 C 22.160133,31.978069 26.997745,27.140456 26.997745,27.140456 C 18.528582,18.264221 13.291696,25.230495 11.500037,31.436501 z"
             style="fill:#404040;"/>
          </a>
         </g>
        </svg>
</svg>
