<?xml version="1.0" encoding="UTF-8" standalone="no"?>
<!DOCTYPE svg PUBLIC "-//W3C//DTD SVG 1.1//EN"
 "http://www.w3.org/Graphics/SVG/1.1/DTD/svg11.dtd">
<!-- Generated by graphviz version 2.36.0 (20140111.2315)
 -->
<!-- Title: okw.OKW_Helper Pages: 1 -->
<!--zoomable 924 -->
<svg id="main" version="1.1" xmlns="http://www.w3.org/2000/svg" xmlns:xlink="http://www.w3.org/1999/xlink" xml:space="preserve" onload="init(evt)">
<style type="text/css"><![CDATA[
.edge:hover path { stroke: red; }
.edge:hover polygon { stroke: red; fill: red; }
]]></style>
<script type="text/javascript"><![CDATA[
var edges = document.getElementsByTagName('g');
if (edges && edges.length) {
  for (var i=0;i<edges.length;i++) {
    if (edges[i].id.substr(0,4)=='edge') {
      edges[i].setAttribute('class','edge');
    }
  }
}
]]></script>
        <defs>
                <circle id="rim" cx="0" cy="0" r="7"/>
                <circle id="rim2" cx="0" cy="0" r="3.5"/>
                <g id="zoomPlus">
                        <use xlink:href="#rim" fill="#404040">
                                <set attributeName="fill" to="#808080" begin="zoomplus.mouseover" end="zoomplus.mouseout"/>
                        </use>
                        <path d="M-4,0h8M0,-4v8" fill="none" stroke="white" stroke-width="1.5" pointer-events="none"/>
                </g>
                <g id="zoomMin">
                        <use xlink:href="#rim" fill="#404040">
                                <set attributeName="fill" to="#808080" begin="zoomminus.mouseover" end="zoomminus.mouseout"/>
                        </use>
                        <path d="M-4,0h8" fill="none" stroke="white" stroke-width="1.5" pointer-events="none"/>
                </g>
                <g id="dirArrow">
                        <path fill="none" stroke="white" stroke-width="1.5" d="M0,-3.0v7 M-2.5,-0.5L0,-3.0L2.5,-0.5"/>
                </g>
               <g id="resetDef">
                       <use xlink:href="#rim2" fill="#404040">
                               <set attributeName="fill" to="#808080" begin="reset.mouseover" end="reset.mouseout"/>
                       </use>
               </g>
        </defs>

<script type="text/javascript">
var viewWidth = 581;
var viewHeight = 924;
var sectionId = 'dynsection-0';
</script>
<script xlink:href="svgpan.js"/>
<svg id="graph" class="graph">
<g id="viewport">
<title>okw.OKW_Helper</title>
<polygon fill="white" stroke="none" points="-4,4 -4,-920 577,-920 577,4 -4,4"/>
<!-- Node1 -->
<g id="node1" class="node"><title>Node1</title>
<polygon fill="#bfbfbf" stroke="black" points="300,-1 300,-201 464,-201 464,-1 300,-1"/>
<text text-anchor="middle" x="382" y="-189" font-family="Helvetica,sans-Serif" font-size="10.00">okw.OKW_Helper</text>
<polyline fill="none" stroke="black" points="300,-182 464,-182 "/>
<text text-anchor="middle" x="382" y="-170" font-family="Helvetica,sans-Serif" font-size="10.00"> </text>
<polyline fill="none" stroke="black" points="300,-163 464,-163 "/>
<text text-anchor="start" x="308" y="-151" font-family="Helvetica,sans-Serif" font-size="10.00">+ Boolean2String()</text>
<text text-anchor="start" x="308" y="-140" font-family="Helvetica,sans-Serif" font-size="10.00">+ getLeftFromDelimiterNumber()</text>
<text text-anchor="start" x="308" y="-129" font-family="Helvetica,sans-Serif" font-size="10.00">+ getRightFromDelimiterNumber()</text>
<text text-anchor="start" x="308" y="-118" font-family="Helvetica,sans-Serif" font-size="10.00">+ compareListString()</text>
<text text-anchor="start" x="308" y="-107" font-family="Helvetica,sans-Serif" font-size="10.00">+ concatListString()</text>
<text text-anchor="start" x="308" y="-96" font-family="Helvetica,sans-Serif" font-size="10.00">+ matchString()</text>
<text text-anchor="start" x="308" y="-85" font-family="Helvetica,sans-Serif" font-size="10.00">+ matchStrIgnoreCase()</text>
<text text-anchor="start" x="308" y="-74" font-family="Helvetica,sans-Serif" font-size="10.00">+ removeBeginEndQuotations()</text>
<text text-anchor="start" x="308" y="-63" font-family="Helvetica,sans-Serif" font-size="10.00">+ StringArray2ListStr()</text>
<text text-anchor="start" x="308" y="-52" font-family="Helvetica,sans-Serif" font-size="10.00">+ String2Boolean()</text>
<text text-anchor="start" x="308" y="-41" font-family="Helvetica,sans-Serif" font-size="10.00">+ splitString()</text>
<text text-anchor="start" x="308" y="-30" font-family="Helvetica,sans-Serif" font-size="10.00">+ repeatString()</text>
<text text-anchor="start" x="308" y="-19" font-family="Helvetica,sans-Serif" font-size="10.00">+ repeatString()</text>
<text text-anchor="start" x="308" y="-8" font-family="Helvetica,sans-Serif" font-size="10.00">+ isStringNullOrEmpty()</text>
</g>
<!-- Node2 -->
<g id="node2" class="node"><title>Node2</title>
<g id="a_node2"><a xlink:href="classokw_1_1_log_messenger.html" target="_top" xlink:title="LogMessenger liest Log&#45;Meldungen sprachspezifisch für die im Konstruktor gegeben Klasse aus der Zugeh...">
<polygon fill="white" stroke="black" points="243.5,-399 243.5,-511 344.5,-511 344.5,-399 243.5,-399"/>
<text text-anchor="middle" x="294" y="-499" font-family="Helvetica,sans-Serif" font-size="10.00">okw.LogMessenger</text>
<polyline fill="none" stroke="black" points="243.5,-492 344.5,-492 "/>
<text text-anchor="start" x="251.5" y="-480" font-family="Helvetica,sans-Serif" font-size="10.00">&#45; cvsClassName</text>
<polyline fill="none" stroke="black" points="243.5,-473 344.5,-473 "/>
<text text-anchor="start" x="251.5" y="-461" font-family="Helvetica,sans-Serif" font-size="10.00">+ LogMessenger()</text>
<text text-anchor="start" x="251.5" y="-450" font-family="Helvetica,sans-Serif" font-size="10.00">+ GetMessage()</text>
<text text-anchor="start" x="251.5" y="-439" font-family="Helvetica,sans-Serif" font-size="10.00">+ GetMessage()</text>
<text text-anchor="start" x="251.5" y="-428" font-family="Helvetica,sans-Serif" font-size="10.00">+ GetMessage()</text>
<text text-anchor="start" x="251.5" y="-417" font-family="Helvetica,sans-Serif" font-size="10.00">+ GetMessage()</text>
<text text-anchor="start" x="251.5" y="-406" font-family="Helvetica,sans-Serif" font-size="10.00">&#45; ReadMessage()</text>
</a>
</g>
</g>
<!-- Node2&#45;&gt;Node1 -->
<g id="edge1" class="edge"><title>Node2&#45;&gt;Node1</title>
<path fill="none" stroke="#404040" d="M307.847,-398.613C320.261,-348.958 338.844,-274.623 354.302,-212.793"/>
<polygon fill="none" stroke="#404040" points="354.339,-212.646 351.913,-205.855 357.249,-201.004 359.674,-207.795 354.339,-212.646"/>
<text text-anchor="middle" x="362" y="-223.5" font-family="Helvetica,sans-Serif" font-size="10.00"> &#45;LM</text>
</g>
<!-- Node3 -->
<g id="node3" class="node"><title>Node3</title>
<g id="a_node3"><a xlink:href="classokw_1_1_o_k_w___xml_reader.html" target="_top" xlink:title="{okw.OKW_XmlReader\n||+ getXMLFile()\l+ OKW_XmlReader()\l+ getTextContentSingleValue()\l+ getTextContentAsList()\l&#45; Init()\l}">
<polygon fill="white" stroke="black" points="207.5,-708.5 207.5,-809.5 358.5,-809.5 358.5,-708.5 207.5,-708.5"/>
<text text-anchor="middle" x="283" y="-797.5" font-family="Helvetica,sans-Serif" font-size="10.00">okw.OKW_XmlReader</text>
<polyline fill="none" stroke="black" points="207.5,-790.5 358.5,-790.5 "/>
<text text-anchor="middle" x="283" y="-778.5" font-family="Helvetica,sans-Serif" font-size="10.00"> </text>
<polyline fill="none" stroke="black" points="207.5,-771.5 358.5,-771.5 "/>
<text text-anchor="start" x="215.5" y="-759.5" font-family="Helvetica,sans-Serif" font-size="10.00">+ getXMLFile()</text>
<text text-anchor="start" x="215.5" y="-748.5" font-family="Helvetica,sans-Serif" font-size="10.00">+ OKW_XmlReader()</text>
<text text-anchor="start" x="215.5" y="-737.5" font-family="Helvetica,sans-Serif" font-size="10.00">+ getTextContentSingleValue()</text>
<text text-anchor="start" x="215.5" y="-726.5" font-family="Helvetica,sans-Serif" font-size="10.00">+ getTextContentAsList()</text>
<text text-anchor="start" x="215.5" y="-715.5" font-family="Helvetica,sans-Serif" font-size="10.00">&#45; Init()</text>
</a>
</g>
</g>
<!-- Node3&#45;&gt;Node2 -->
<g id="edge2" class="edge"><title>Node3&#45;&gt;Node2</title>
<path fill="none" stroke="#404040" d="M284.804,-708.469C286.64,-658.064 289.499,-579.583 291.541,-523.508"/>
<polygon fill="none" stroke="#404040" points="291.553,-523.183 287.774,-517.041 291.99,-511.191 295.769,-517.333 291.553,-523.183"/>
<text text-anchor="middle" x="320.5" y="-681.5" font-family="Helvetica,sans-Serif" font-size="10.00"> &#45;myXmlReader</text>
</g>
<!-- Node4 -->
<g id="node4" class="node"><title>Node4</title>
<polygon fill="white" stroke="#bfbfbf" points="-0.5,-858.5 -0.5,-915.5 70.5,-915.5 70.5,-858.5 -0.5,-858.5"/>
<text text-anchor="middle" x="35" y="-903.5" font-family="Helvetica,sans-Serif" font-size="10.00">ClassLoader</text>
<polyline fill="none" stroke="#bfbfbf" points="-0.5,-896.5 70.5,-896.5 "/>
<text text-anchor="middle" x="35" y="-884.5" font-family="Helvetica,sans-Serif" font-size="10.00"> </text>
<polyline fill="none" stroke="#bfbfbf" points="-0.5,-877.5 70.5,-877.5 "/>
<text text-anchor="middle" x="35" y="-865.5" font-family="Helvetica,sans-Serif" font-size="10.00"> </text>
</g>
<!-- Node4&#45;&gt;Node3 -->
<g id="edge3" class="edge"><title>Node4&#45;&gt;Node3</title>
<path fill="none" stroke="midnightblue" d="M79.821,-857.723C126.317,-832.118 170.758,-810.657 207.31,-793.747"/>
<polygon fill="none" stroke="midnightblue" points="77.8528,-854.812 70.8072,-862.725 81.2494,-860.933 77.8528,-854.812"/>
</g>
<!-- Node5 -->
<g id="node5" class="node"><title>Node5</title>
<polygon fill="white" stroke="#bfbfbf" points="88.5,-858.5 88.5,-915.5 213.5,-915.5 213.5,-858.5 88.5,-858.5"/>
<text text-anchor="middle" x="151" y="-903.5" font-family="Helvetica,sans-Serif" font-size="10.00">DocumentBuilderFactory</text>
<polyline fill="none" stroke="#bfbfbf" points="88.5,-896.5 213.5,-896.5 "/>
<text text-anchor="middle" x="151" y="-884.5" font-family="Helvetica,sans-Serif" font-size="10.00"> </text>
<polyline fill="none" stroke="#bfbfbf" points="88.5,-877.5 213.5,-877.5 "/>
<text text-anchor="middle" x="151" y="-865.5" font-family="Helvetica,sans-Serif" font-size="10.00"> </text>
</g>
<!-- Node5&#45;&gt;Node3 -->
<g id="edge4" class="edge"><title>Node5&#45;&gt;Node3</title>
<path fill="none" stroke="#404040" d="M161.18,-858.499C165.869,-848.191 172.157,-836.844 180,-828 185.397,-821.914 191.458,-816.138 197.868,-810.714"/>
<polygon fill="none" stroke="#404040" points="198.105,-810.524 200.288,-803.651 207.471,-803.022 205.288,-809.895 198.105,-810.524"/>
<text text-anchor="middle" x="212" y="-831.5" font-family="Helvetica,sans-Serif" font-size="10.00"> &#45;mydbFactory</text>
</g>
<!-- Node6 -->
<g id="node6" class="node"><title>Node6</title>
<polygon fill="white" stroke="#bfbfbf" points="231,-858.5 231,-915.5 275,-915.5 275,-858.5 231,-858.5"/>
<text text-anchor="middle" x="253" y="-903.5" font-family="Helvetica,sans-Serif" font-size="10.00">XPath</text>
<polyline fill="none" stroke="#bfbfbf" points="231,-896.5 275,-896.5 "/>
<text text-anchor="middle" x="253" y="-884.5" font-family="Helvetica,sans-Serif" font-size="10.00"> </text>
<polyline fill="none" stroke="#bfbfbf" points="231,-877.5 275,-877.5 "/>
<text text-anchor="middle" x="253" y="-865.5" font-family="Helvetica,sans-Serif" font-size="10.00"> </text>
</g>
<!-- Node6&#45;&gt;Node3 -->
<g id="edge5" class="edge"><title>Node6&#45;&gt;Node3</title>
<path fill="none" stroke="#404040" d="M247.742,-858.286C246.782,-848.602 246.704,-837.725 249,-828 249.546,-825.688 250.183,-823.364 250.896,-821.043"/>
<polygon fill="none" stroke="#404040" points="250.979,-820.812 249.233,-813.815 255.02,-809.513 256.766,-816.51 250.979,-820.812"/>
<text text-anchor="middle" x="272.5" y="-831.5" font-family="Helvetica,sans-Serif" font-size="10.00"> &#45;myXPath</text>
</g>
<!-- Node7 -->
<g id="node7" class="node"><title>Node7</title>
<polygon fill="white" stroke="#bfbfbf" points="297.5,-858.5 297.5,-915.5 334.5,-915.5 334.5,-858.5 297.5,-858.5"/>
<text text-anchor="middle" x="316" y="-903.5" font-family="Helvetica,sans-Serif" font-size="10.00">Path</text>
<polyline fill="none" stroke="#bfbfbf" points="297.5,-896.5 334.5,-896.5 "/>
<text text-anchor="middle" x="316" y="-884.5" font-family="Helvetica,sans-Serif" font-size="10.00"> </text>
<polyline fill="none" stroke="#bfbfbf" points="297.5,-877.5 334.5,-877.5 "/>
<text text-anchor="middle" x="316" y="-865.5" font-family="Helvetica,sans-Serif" font-size="10.00"> </text>
</g>
<!-- Node7&#45;&gt;Node3 -->
<g id="edge6" class="edge"><title>Node7&#45;&gt;Node3</title>
<path fill="none" stroke="#404040" d="M308.758,-858.349C305.896,-847.423 302.485,-834.399 299.097,-821.462"/>
<polygon fill="none" stroke="#404040" points="299.049,-821.276 293.659,-816.486 296.008,-809.668 301.398,-814.459 299.049,-821.276"/>
<text text-anchor="middle" x="332" y="-831.5" font-family="Helvetica,sans-Serif" font-size="10.00"> &#45;myXMLFile</text>
</g>
<!-- Node8 -->
<g id="node8" class="node"><title>Node8</title>
<polygon fill="white" stroke="#bfbfbf" points="353,-858.5 353,-915.5 445,-915.5 445,-858.5 353,-858.5"/>
<text text-anchor="middle" x="399" y="-903.5" font-family="Helvetica,sans-Serif" font-size="10.00">DocumentBuilder</text>
<polyline fill="none" stroke="#bfbfbf" points="353,-896.5 445,-896.5 "/>
<text text-anchor="middle" x="399" y="-884.5" font-family="Helvetica,sans-Serif" font-size="10.00"> </text>
<polyline fill="none" stroke="#bfbfbf" points="353,-877.5 445,-877.5 "/>
<text text-anchor="middle" x="399" y="-865.5" font-family="Helvetica,sans-Serif" font-size="10.00"> </text>
</g>
<!-- Node8&#45;&gt;Node3 -->
<g id="edge7" class="edge"><title>Node8&#45;&gt;Node3</title>
<path fill="none" stroke="#404040" d="M384.877,-858.476C379.079,-848.392 371.875,-837.205 364,-828 361.147,-824.665 358.12,-821.359 354.977,-818.107"/>
<polygon fill="none" stroke="#404040" points="354.952,-818.083 347.874,-816.704 346.425,-809.64 353.503,-811.019 354.952,-818.083"/>
<text text-anchor="middle" x="401.5" y="-831.5" font-family="Helvetica,sans-Serif" font-size="10.00"> &#45;mydBuilder</text>
</g>
<!-- Node9 -->
<g id="node9" class="node"><title>Node9</title>
<polygon fill="white" stroke="#bfbfbf" points="463,-858.5 463,-915.5 525,-915.5 525,-858.5 463,-858.5"/>
<text text-anchor="middle" x="494" y="-903.5" font-family="Helvetica,sans-Serif" font-size="10.00">Document</text>
<polyline fill="none" stroke="#bfbfbf" points="463,-896.5 525,-896.5 "/>
<text text-anchor="middle" x="494" y="-884.5" font-family="Helvetica,sans-Serif" font-size="10.00"> </text>
<polyline fill="none" stroke="#bfbfbf" points="463,-877.5 525,-877.5 "/>
<text text-anchor="middle" x="494" y="-865.5" font-family="Helvetica,sans-Serif" font-size="10.00"> </text>
</g>
<!-- Node9&#45;&gt;Node3 -->
<g id="edge8" class="edge"><title>Node9&#45;&gt;Node3</title>
<path fill="none" stroke="#404040" d="M470.485,-858.326C459.995,-847.496 446.876,-835.821 433,-828 409.513,-814.763 397.789,-820.192 370.012,-810.655"/>
<polygon fill="none" stroke="#404040" points="369.709,-810.538 362.668,-812.097 358.522,-806.197 365.562,-804.638 369.709,-810.538"/>
<text text-anchor="middle" x="493.5" y="-831.5" font-family="Helvetica,sans-Serif" font-size="10.00"> &#45;myXMLDocument</text>
</g>
<!-- Node10 -->
<g id="node10" class="node"><title>Node10</title>
<g id="a_node10"><a xlink:href="classokw_1_1log_1_1_logger___sngltn.html" target="_top" xlink:title="{okw.log.Logger_Sngltn\n|&#45; cvbDebugMode\l|+ getDebugMode()\l+ setDebugMode()\l+ addLogger()\l+ reset()\l+ LogError()\l+ LogException()\l+ LogFunctionEnd()\l+ LogFunctionEnd()\l+ LogFunctionEnd()\l+ LogFunctionEnd()\l+ LogFunctionEndDebug()\l+ LogFunctionEndDebug()\l+ LogFunctionEndDebug()\l+ LogFunctionEndDebug()\l+ LogFunctionStart()\l+ LogFunctionStartDebug()\l+ LogKeyWordEnd()\l+ LogSequenceEnd()\l+ LogTestcaseEnd()\l+ LogKeyWordStart()\l+ LogSequenceStart()\l+ LogTestcaseStart()\l+ LogPass()\l+ LogPrint()\l+ LogPrintDebug()\l+ LogWarning()\l+ ResCloseList()\l+ ResCloseListDebug()\l+ ResOpenList()\l+ ResOpenListDebug()\l+ getInstance()\l+ init()\l&#45; Logger_Sngltn()\l}">
<polygon fill="white" stroke="black" points="377,-250.5 377,-659.5 511,-659.5 511,-250.5 377,-250.5"/>
<text text-anchor="middle" x="444" y="-647.5" font-family="Helvetica,sans-Serif" font-size="10.00">okw.log.Logger_Sngltn</text>
<polyline fill="none" stroke="black" points="377,-640.5 511,-640.5 "/>
<text text-anchor="start" x="385" y="-628.5" font-family="Helvetica,sans-Serif" font-size="10.00">&#45; cvbDebugMode</text>
<polyline fill="none" stroke="black" points="377,-621.5 511,-621.5 "/>
<text text-anchor="start" x="385" y="-609.5" font-family="Helvetica,sans-Serif" font-size="10.00">+ getDebugMode()</text>
<text text-anchor="start" x="385" y="-598.5" font-family="Helvetica,sans-Serif" font-size="10.00">+ setDebugMode()</text>
<text text-anchor="start" x="385" y="-587.5" font-family="Helvetica,sans-Serif" font-size="10.00">+ addLogger()</text>
<text text-anchor="start" x="385" y="-576.5" font-family="Helvetica,sans-Serif" font-size="10.00">+ reset()</text>
<text text-anchor="start" x="385" y="-565.5" font-family="Helvetica,sans-Serif" font-size="10.00">+ LogError()</text>
<text text-anchor="start" x="385" y="-554.5" font-family="Helvetica,sans-Serif" font-size="10.00">+ LogException()</text>
<text text-anchor="start" x="385" y="-543.5" font-family="Helvetica,sans-Serif" font-size="10.00">+ LogFunctionEnd()</text>
<text text-anchor="start" x="385" y="-532.5" font-family="Helvetica,sans-Serif" font-size="10.00">+ LogFunctionEnd()</text>
<text text-anchor="start" x="385" y="-521.5" font-family="Helvetica,sans-Serif" font-size="10.00">+ LogFunctionEnd()</text>
<text text-anchor="start" x="385" y="-510.5" font-family="Helvetica,sans-Serif" font-size="10.00">+ LogFunctionEnd()</text>
<text text-anchor="start" x="385" y="-499.5" font-family="Helvetica,sans-Serif" font-size="10.00">+ LogFunctionEndDebug()</text>
<text text-anchor="start" x="385" y="-488.5" font-family="Helvetica,sans-Serif" font-size="10.00">+ LogFunctionEndDebug()</text>
<text text-anchor="start" x="385" y="-477.5" font-family="Helvetica,sans-Serif" font-size="10.00">+ LogFunctionEndDebug()</text>
<text text-anchor="start" x="385" y="-466.5" font-family="Helvetica,sans-Serif" font-size="10.00">+ LogFunctionEndDebug()</text>
<text text-anchor="start" x="385" y="-455.5" font-family="Helvetica,sans-Serif" font-size="10.00">+ LogFunctionStart()</text>
<text text-anchor="start" x="385" y="-444.5" font-family="Helvetica,sans-Serif" font-size="10.00">+ LogFunctionStartDebug()</text>
<text text-anchor="start" x="385" y="-433.5" font-family="Helvetica,sans-Serif" font-size="10.00">+ LogKeyWordEnd()</text>
<text text-anchor="start" x="385" y="-422.5" font-family="Helvetica,sans-Serif" font-size="10.00">+ LogSequenceEnd()</text>
<text text-anchor="start" x="385" y="-411.5" font-family="Helvetica,sans-Serif" font-size="10.00">+ LogTestcaseEnd()</text>
<text text-anchor="start" x="385" y="-400.5" font-family="Helvetica,sans-Serif" font-size="10.00">+ LogKeyWordStart()</text>
<text text-anchor="start" x="385" y="-389.5" font-family="Helvetica,sans-Serif" font-size="10.00">+ LogSequenceStart()</text>
<text text-anchor="start" x="385" y="-378.5" font-family="Helvetica,sans-Serif" font-size="10.00">+ LogTestcaseStart()</text>
<text text-anchor="start" x="385" y="-367.5" font-family="Helvetica,sans-Serif" font-size="10.00">+ LogPass()</text>
<text text-anchor="start" x="385" y="-356.5" font-family="Helvetica,sans-Serif" font-size="10.00">+ LogPrint()</text>
<text text-anchor="start" x="385" y="-345.5" font-family="Helvetica,sans-Serif" font-size="10.00">+ LogPrintDebug()</text>
<text text-anchor="start" x="385" y="-334.5" font-family="Helvetica,sans-Serif" font-size="10.00">+ LogWarning()</text>
<text text-anchor="start" x="385" y="-323.5" font-family="Helvetica,sans-Serif" font-size="10.00">+ ResCloseList()</text>
<text text-anchor="start" x="385" y="-312.5" font-family="Helvetica,sans-Serif" font-size="10.00">+ ResCloseListDebug()</text>
<text text-anchor="start" x="385" y="-301.5" font-family="Helvetica,sans-Serif" font-size="10.00">+ ResOpenList()</text>
<text text-anchor="start" x="385" y="-290.5" font-family="Helvetica,sans-Serif" font-size="10.00">+ ResOpenListDebug()</text>
<text text-anchor="start" x="385" y="-279.5" font-family="Helvetica,sans-Serif" font-size="10.00">+ getInstance()</text>
<text text-anchor="start" x="385" y="-268.5" font-family="Helvetica,sans-Serif" font-size="10.00">+ init()</text>
<text text-anchor="start" x="385" y="-257.5" font-family="Helvetica,sans-Serif" font-size="10.00">&#45; Logger_Sngltn()</text>
</a>
</g>
</g>
<!-- Node10&#45;&gt;Node1 -->
<g id="edge9" class="edge"><title>Node10&#45;&gt;Node1</title>
<path fill="none" stroke="#404040" d="M408.114,-250.259C405.885,-237.602 403.69,-225.142 401.577,-213.148"/>
<polygon fill="none" stroke="#404040" points="401.576,-213.138 396.595,-207.923 399.494,-201.32 404.474,-206.535 401.576,-213.138"/>
<text text-anchor="middle" x="415" y="-223.5" font-family="Helvetica,sans-Serif" font-size="10.00"> &#45;Log</text>
</g>
<!-- Node10&#45;&gt;Node10 -->
<g id="edge11" class="edge"><title>Node10&#45;&gt;Node10</title>
<path fill="none" stroke="#404040" d="M511.337,-494.178C521.84,-488.321 529,-475.262 529,-455 529,-441.387 525.768,-431.025 520.461,-423.914"/>
<polygon fill="none" stroke="#404040" points="520.315,-423.784 513.172,-422.796 511.337,-415.822 518.48,-416.81 520.315,-423.784"/>
<text text-anchor="middle" x="551" y="-452.5" font-family="Helvetica,sans-Serif" font-size="10.00"> &#45;Instance</text>
</g>
<!-- Node11 -->
<g id="node11" class="node"><title>Node11</title>
<polygon fill="white" stroke="#bfbfbf" points="376.5,-730.5 376.5,-787.5 519.5,-787.5 519.5,-730.5 376.5,-730.5"/>
<text text-anchor="middle" x="448" y="-775.5" font-family="Helvetica,sans-Serif" font-size="10.00">ArrayList&lt; okw.log.ILogger &gt;</text>
<polyline fill="none" stroke="#bfbfbf" points="376.5,-768.5 519.5,-768.5 "/>
<text text-anchor="middle" x="448" y="-756.5" font-family="Helvetica,sans-Serif" font-size="10.00"> </text>
<polyline fill="none" stroke="#bfbfbf" points="376.5,-749.5 519.5,-749.5 "/>
<text text-anchor="middle" x="448" y="-737.5" font-family="Helvetica,sans-Serif" font-size="10.00"> </text>
</g>
<!-- Node11&#45;&gt;Node10 -->
<g id="edge10" class="edge"><title>Node11&#45;&gt;Node10</title>
<path fill="none" stroke="#404040" d="M447.634,-730.399C447.433,-715.209 447.163,-694.819 446.861,-671.977"/>
<polygon fill="none" stroke="#404040" points="446.859,-671.822 442.78,-665.876 446.7,-659.823 450.779,-665.77 446.859,-671.822"/>
<text text-anchor="middle" x="474" y="-681.5" font-family="Helvetica,sans-Serif" font-size="10.00"> &#45;LoggerList</text>
</g>
</g>
</svg>
        <g id="navigator" transform="translate(0 0)" fill="#404254">
                <rect fill="#f2f5e9" fill-opacity="0.5" stroke="#606060" stroke-width=".5" x="0" y="0" width="60" height="60"/>
                <use id="zoomplus" xlink:href="#zoomPlus" x="17" y="9" onmousedown="handleZoom(evt,'in')"/>
                <use id="zoomminus" xlink:href="#zoomMin" x="42" y="9" onmousedown="handleZoom(evt,'out')"/>
                <use id="reset" xlink:href="#resetDef" x="30" y="36" onmousedown="handleReset()"/>
                <g id="arrowUp" xlink:href="#dirArrow" transform="translate(30 24)" onmousedown="handlePan(0,-1)">
                  <use xlink:href="#rim" fill="#404040">
                        <set attributeName="fill" to="#808080" begin="arrowUp.mouseover" end="arrowUp.mouseout"/>
                  </use>
                  <path fill="none" stroke="white" stroke-width="1.5" d="M0,-3.0v7 M-2.5,-0.5L0,-3.0L2.5,-0.5"/>
                </g>
                <g id="arrowRight" xlink:href="#dirArrow" transform="rotate(90) translate(36 -43)" onmousedown="handlePan(1,0)">
                  <use xlink:href="#rim" fill="#404040">
                        <set attributeName="fill" to="#808080" begin="arrowRight.mouseover" end="arrowRight.mouseout"/>
                  </use>
                  <path fill="none" stroke="white" stroke-width="1.5" d="M0,-3.0v7 M-2.5,-0.5L0,-3.0L2.5,-0.5"/>
                </g>
                <g id="arrowDown" xlink:href="#dirArrow" transform="rotate(180) translate(-30 -48)" onmousedown="handlePan(0,1)">
                  <use xlink:href="#rim" fill="#404040">
                        <set attributeName="fill" to="#808080" begin="arrowDown.mouseover" end="arrowDown.mouseout"/>
                  </use>
                  <path fill="none" stroke="white" stroke-width="1.5" d="M0,-3.0v7 M-2.5,-0.5L0,-3.0L2.5,-0.5"/>
                </g>
                <g id="arrowLeft" xlink:href="#dirArrow" transform="rotate(270) translate(-36 17)" onmousedown="handlePan(-1,0)">
                  <use xlink:href="#rim" fill="#404040">
                        <set attributeName="fill" to="#808080" begin="arrowLeft.mouseover" end="arrowLeft.mouseout"/>
                  </use>
                  <path fill="none" stroke="white" stroke-width="1.5" d="M0,-3.0v7 M-2.5,-0.5L0,-3.0L2.5,-0.5"/>
                </g>
        </g>
        <svg viewBox="0 0 15 15" width="100%" height="30px" preserveAspectRatio="xMaxYMin meet">
         <g id="arrow_out" transform="scale(0.3 0.3)">
          <a xlink:href="classokw_1_1_o_k_w___helper__coll__graph_org.svg" target="_base">
           <rect id="button" ry="5" rx="5" y="6" x="6" height="38" width="38"
                fill="#f2f5e9" fill-opacity="0.5" stroke="#606060" stroke-width="1.0"/>
           <path id="arrow"
             d="M 11.500037,31.436501 C 11.940474,20.09759 22.043105,11.32322 32.158766,21.979434 L 37.068811,17.246167 C 37.068811,17.246167 37.088388,32 37.088388,32 L 22.160133,31.978069 C 22.160133,31.978069 26.997745,27.140456 26.997745,27.140456 C 18.528582,18.264221 13.291696,25.230495 11.500037,31.436501 z"
             style="fill:#404040;"/>
          </a>
         </g>
        </svg>
</svg>
