<?xml version="1.0" encoding="UTF-8" standalone="no"?>
<!DOCTYPE svg PUBLIC "-//W3C//DTD SVG 1.1//EN"
 "http://www.w3.org/Graphics/SVG/1.1/DTD/svg11.dtd">
<!-- Generated by graphviz version 2.36.0 (20140111.2315)
 -->
<!-- Title: okw.gui.adapter.selenium.SeAnyChildWindow.getPlaceholder Pages: 1 -->
<svg width="400pt" height="38pt"
 viewBox="0.00 0.00 400.00 38.00" xmlns="http://www.w3.org/2000/svg" xmlns:xlink="http://www.w3.org/1999/xlink">
<g id="graph0" class="graph" transform="scale(1 1) rotate(0) translate(4 34)">
<title>okw.gui.adapter.selenium.SeAnyChildWindow.getPlaceholder</title>
<polygon fill="white" stroke="none" points="-4,4 -4,-34 396,-34 396,4 -4,4"/>
<!-- Node141 -->
<g id="node1" class="node"><title>Node141</title>
<polygon fill="#bfbfbf" stroke="black" points="0.5,-0 0.5,-30 171.5,-30 171.5,-0 0.5,-0"/>
<text text-anchor="start" x="8.5" y="-18" font-family="Helvetica,sans-Serif" font-size="10.00">okw.gui.adapter.selenium.</text>
<text text-anchor="middle" x="86" y="-7" font-family="Helvetica,sans-Serif" font-size="10.00">SeAnyChildWindow.getPlaceholder</text>
</g>
<!-- Node142 -->
<g id="node2" class="node"><title>Node142</title>
<g id="a_node2"><a xlink:href="classokw_1_1gui_1_1adapter_1_1selenium_1_1_se_any_child_window.html#a7de2c60c39d707eff1e8253f893b7a6b" target="_top" xlink:title="Ermittelt den Text&#45;Inhalt des Platzhalter für VerifyPlaceholder(). ">
<polygon fill="white" stroke="black" points="208.5,-0 208.5,-30 391.5,-30 391.5,-0 208.5,-0"/>
<text text-anchor="start" x="216.5" y="-18" font-family="Helvetica,sans-Serif" font-size="10.00">okw.gui.adapter.selenium.</text>
<text text-anchor="middle" x="300" y="-7" font-family="Helvetica,sans-Serif" font-size="10.00">SeAnyChildWindow.VerifyPlaceholder</text>
</a>
</g>
</g>
<!-- Node141&#45;&gt;Node142 -->
<g id="edge1" class="edge"><title>Node141&#45;&gt;Node142</title>
<path fill="none" stroke="midnightblue" d="M181.898,-15C190.636,-15 199.475,-15 208.175,-15"/>
<polygon fill="midnightblue" stroke="midnightblue" points="181.702,-11.5001 171.702,-15 181.702,-18.5001 181.702,-11.5001"/>
</g>
</g>
</svg>
