<?xml version="1.0" encoding="UTF-8" standalone="no"?>
<!DOCTYPE svg PUBLIC "-//W3C//DTD SVG 1.1//EN"
 "http://www.w3.org/Graphics/SVG/1.1/DTD/svg11.dtd">
<!-- Generated by graphviz version 2.38.0 (20140413.2041)
 -->
<!-- Title: okw.core.EN.VerifyTooltip Pages: 1 -->
<!--zoomable 166 -->
<svg id="main" version="1.1" xmlns="http://www.w3.org/2000/svg" xmlns:xlink="http://www.w3.org/1999/xlink" xml:space="preserve" onload="init(evt)">
<style type="text/css"><![CDATA[
.edge:hover path { stroke: red; }
.edge:hover polygon { stroke: red; fill: red; }
]]></style>
<script type="text/javascript"><![CDATA[
var edges = document.getElementsByTagName('g');
if (edges && edges.length) {
  for (var i=0;i<edges.length;i++) {
    if (edges[i].id.substr(0,4)=='edge') {
      edges[i].setAttribute('class','edge');
    }
  }
}
]]></script>
        <defs>
                <circle id="rim" cx="0" cy="0" r="7"/>
                <circle id="rim2" cx="0" cy="0" r="3.5"/>
                <g id="zoomPlus">
                        <use xlink:href="#rim" fill="#404040">
                                <set attributeName="fill" to="#808080" begin="zoomplus.mouseover" end="zoomplus.mouseout"/>
                        </use>
                        <path d="M-4,0h8M0,-4v8" fill="none" stroke="white" stroke-width="1.5" pointer-events="none"/>
                </g>
                <g id="zoomMin">
                        <use xlink:href="#rim" fill="#404040">
                                <set attributeName="fill" to="#808080" begin="zoomminus.mouseover" end="zoomminus.mouseout"/>
                        </use>
                        <path d="M-4,0h8" fill="none" stroke="white" stroke-width="1.5" pointer-events="none"/>
                </g>
                <g id="dirArrow">
                        <path fill="none" stroke="white" stroke-width="1.5" d="M0,-3.0v7 M-2.5,-0.5L0,-3.0L2.5,-0.5"/>
                </g>
               <g id="resetDef">
                       <use xlink:href="#rim2" fill="#404040">
                               <set attributeName="fill" to="#808080" begin="reset.mouseover" end="reset.mouseout"/>
                       </use>
               </g>
        </defs>

<script type="text/javascript">
var viewWidth = 944;
var viewHeight = 166;
var sectionId = 'dynsection-104';
</script>
<script xlink:href="svgpan.js"/>
<svg id="graph" class="graph">
<g id="viewport">
<title>okw.core.EN.VerifyTooltip</title>
<polygon fill="white" stroke="none" points="-4,4 -4,-161.5 940,-161.5 940,4 -4,4"/>
<!-- Node3425 -->
<g id="node1" class="node"><title>Node3425</title>
<g id="a_node1"><a xlink:title="Prüft den Tooltip&#45;Text eines Objektes.">
<polygon fill="#bfbfbf" stroke="black" points="0,-93 0,-112 134,-112 134,-93 0,-93"/>
<text text-anchor="middle" x="67" y="-100" font-family="Helvetica,sans-Serif" font-size="10.00">okw.core.EN.VerifyTooltip</text>
</a>
</g>
</g>
<!-- Node3426 -->
<g id="node2" class="node"><title>Node3426</title>
<g id="a_node2"><a xlink:href="classokw_1_1core_1_1_core.html#ab4e0f723d27cb11c944ec4c82c426100" target="_top" xlink:title="Setzt die Sprache auf den gegebenen wert Language.">
<polygon fill="white" stroke="black" points="170,-125 170,-144 319,-144 319,-125 170,-125"/>
<text text-anchor="middle" x="244.5" y="-132" font-family="Helvetica,sans-Serif" font-size="10.00">okw.core.Core.setLanguage</text>
</a>
</g>
</g>
<!-- Node3425&#45;&gt;Node3426 -->
<g id="edge1" class="edge"><title>Node3425&#45;&gt;Node3426</title>
<path fill="none" stroke="midnightblue" d="M120.181,-112.014C139.37,-115.513 161.29,-119.51 181.276,-123.154"/>
<polygon fill="midnightblue" stroke="midnightblue" points="180.752,-126.616 191.217,-124.967 182.007,-119.73 180.752,-126.616"/>
</g>
<!-- Node3428 -->
<g id="node4" class="node"><title>Node3428</title>
<g id="a_node4"><a xlink:href="classokw_1_1core_1_1_core.html#aa53c4a10dcd4eb1a6ae2c41eb9f23ee2" target="_top" xlink:title="Prüft den Tooltip&#45;Text eines Objektes.">
<polygon fill="white" stroke="black" points="173,-62 173,-81 316,-81 316,-62 173,-62"/>
<text text-anchor="middle" x="244.5" y="-69" font-family="Helvetica,sans-Serif" font-size="10.00">okw.core.Core.VerifyTooltip</text>
</a>
</g>
</g>
<!-- Node3425&#45;&gt;Node3428 -->
<g id="edge3" class="edge"><title>Node3425&#45;&gt;Node3428</title>
<path fill="none" stroke="midnightblue" d="M122.088,-92.946C140.272,-89.734 160.729,-86.1205 179.595,-82.788"/>
<polygon fill="midnightblue" stroke="midnightblue" points="180.352,-86.2086 189.591,-81.0224 179.134,-79.3153 180.352,-86.2086"/>
</g>
<!-- Node3427 -->
<g id="node3" class="node"><title>Node3427</title>
<g id="a_node3"><a xlink:href="interfaceokw_1_1core_1_1_i_o_k_w___state.html#a866baa0bde08a47418f54d63bdb56097" target="_top" xlink:title="Interne Methode zum setzen der Sprache für die sprachabhängigen Ausgaben der Dokumentation (Log).">
<polygon fill="white" stroke="black" points="355,-138 355,-157 537,-157 537,-138 355,-138"/>
<text text-anchor="middle" x="446" y="-145" font-family="Helvetica,sans-Serif" font-size="10.00">okw.core.IOKW_State.setLanguage</text>
</a>
</g>
</g>
<!-- Node3426&#45;&gt;Node3427 -->
<g id="edge2" class="edge"><title>Node3426&#45;&gt;Node3427</title>
<path fill="none" stroke="midnightblue" d="M319.22,-139.304C327.517,-139.844 336.072,-140.402 344.633,-140.96"/>
<polygon fill="midnightblue" stroke="midnightblue" points="344.465,-144.456 354.671,-141.614 344.92,-137.471 344.465,-144.456"/>
</g>
<!-- Node3429 -->
<g id="node5" class="node"><title>Node3429</title>
<g id="a_node5"><a xlink:href="classokw_1_1log_1_1_logger___sngltn.html#a70ec25e200e00ecefc544e8fd371d2ef" target="_top" xlink:title="Ausgabe eines Schlüsselwortes.">
<polygon fill="white" stroke="black" points="374.5,-88.5 374.5,-118.5 517.5,-118.5 517.5,-88.5 374.5,-88.5"/>
<text text-anchor="start" x="382.5" y="-106.5" font-family="Helvetica,sans-Serif" font-size="10.00">okw.log.Logger_Sngltn.Log</text>
<text text-anchor="middle" x="446" y="-95.5" font-family="Helvetica,sans-Serif" font-size="10.00">KeyWordStart</text>
</a>
</g>
</g>
<!-- Node3428&#45;&gt;Node3429 -->
<g id="edge4" class="edge"><title>Node3428&#45;&gt;Node3429</title>
<path fill="none" stroke="midnightblue" d="M304.816,-81.0144C323.485,-84.0089 344.429,-87.3683 364.321,-90.559"/>
<polygon fill="midnightblue" stroke="midnightblue" points="363.869,-94.0312 374.297,-92.1592 364.978,-87.1196 363.869,-94.0312"/>
</g>
<!-- Node3430 -->
<g id="node6" class="node"><title>Node3430</title>
<g id="a_node6"><a xlink:href="classokw_1_1_log_messenger.html#af225d1f037d47b3b085175c09d78bdd2" target="_top" xlink:title="Holt die Log&#45;Meldung für MethodeNmae/Textkey ohne weitere Parameter.">
<polygon fill="white" stroke="black" points="361.5,-50 361.5,-69 530.5,-69 530.5,-50 361.5,-50"/>
<text text-anchor="middle" x="446" y="-57" font-family="Helvetica,sans-Serif" font-size="10.00">okw.LogMessenger.GetMessage</text>
</a>
</g>
</g>
<!-- Node3428&#45;&gt;Node3430 -->
<g id="edge5" class="edge"><title>Node3428&#45;&gt;Node3430</title>
<path fill="none" stroke="midnightblue" d="M316.117,-67.2524C327.387,-66.5745 339.201,-65.8638 350.911,-65.1595"/>
<polygon fill="midnightblue" stroke="midnightblue" points="351.387,-68.6373 361.158,-64.5431 350.966,-61.6499 351.387,-68.6373"/>
</g>
<!-- Node3433 -->
<g id="node9" class="node"><title>Node3433</title>
<g id="a_node9"><a xlink:href="interfaceokw_1_1core_1_1_i_o_k_w___state.html#a1490b97398a9c1f4da2a45ea683135d6" target="_top" xlink:title="Prüft den Tooltip&#45;Text eines Objektes.">
<polygon fill="white" stroke="black" points="373,-0.5 373,-30.5 519,-30.5 519,-0.5 373,-0.5"/>
<text text-anchor="start" x="381" y="-18.5" font-family="Helvetica,sans-Serif" font-size="10.00">okw.core.IOKW_State.Verify</text>
<text text-anchor="middle" x="446" y="-7.5" font-family="Helvetica,sans-Serif" font-size="10.00">Tooltip</text>
</a>
</g>
</g>
<!-- Node3428&#45;&gt;Node3433 -->
<g id="edge8" class="edge"><title>Node3428&#45;&gt;Node3433</title>
<path fill="none" stroke="midnightblue" d="M279.035,-61.9598C300.702,-55.8074 329.508,-47.6489 355,-40.5 363.395,-38.1457 372.234,-35.6776 380.959,-33.2473"/>
<polygon fill="midnightblue" stroke="midnightblue" points="382.037,-36.5803 390.733,-30.5275 380.161,-29.8366 382.037,-36.5803"/>
</g>
<!-- Node3431 -->
<g id="node7" class="node"><title>Node3431</title>
<g id="a_node7"><a xlink:href="classokw_1_1_log_messenger.html#a530cd6ab82ec82a04206a2e976ec06e3" target="_top" xlink:title="Interne Kernfunktion holt die Log&#45;Meldung mit Platzhaltern aus der XML&#45;Datei.">
<polygon fill="white" stroke="black" points="573,-50 573,-69 748,-69 748,-50 573,-50"/>
<text text-anchor="middle" x="660.5" y="-57" font-family="Helvetica,sans-Serif" font-size="10.00">okw.LogMessenger.ReadMessage</text>
</a>
</g>
</g>
<!-- Node3430&#45;&gt;Node3431 -->
<g id="edge6" class="edge"><title>Node3430&#45;&gt;Node3431</title>
<path fill="none" stroke="midnightblue" d="M530.681,-59.5C541.154,-59.5 551.935,-59.5 562.589,-59.5"/>
<polygon fill="midnightblue" stroke="midnightblue" points="562.751,-63.0001 572.751,-59.5 562.751,-56.0001 562.751,-63.0001"/>
</g>
<!-- Node3432 -->
<g id="node8" class="node"><title>Node3432</title>
<g id="a_node8"><a xlink:href="classokw_1_1_o_k_w___xml_reader.html#ab920b5335a2e1429c14cc5f8e79f39eb" target="_top" xlink:title="Lies den TextContent eines Tag.">
<polygon fill="white" stroke="black" points="784,-44.5 784,-74.5 936,-74.5 936,-44.5 784,-44.5"/>
<text text-anchor="start" x="792" y="-62.5" font-family="Helvetica,sans-Serif" font-size="10.00">okw.OKW_XmlReader.getText</text>
<text text-anchor="middle" x="860" y="-51.5" font-family="Helvetica,sans-Serif" font-size="10.00">ContentSingleValue</text>
</a>
</g>
</g>
<!-- Node3431&#45;&gt;Node3432 -->
<g id="edge7" class="edge"><title>Node3431&#45;&gt;Node3432</title>
<path fill="none" stroke="midnightblue" d="M748.126,-59.5C756.6,-59.5 765.195,-59.5 773.656,-59.5"/>
<polygon fill="midnightblue" stroke="midnightblue" points="773.893,-63.0001 783.893,-59.5 773.892,-56.0001 773.893,-63.0001"/>
</g>
</g>
</svg>
        <g id="navigator" transform="translate(0 0)" fill="#404254">
                <rect fill="#f2f5e9" fill-opacity="0.5" stroke="#606060" stroke-width=".5" x="0" y="0" width="60" height="60"/>
                <use id="zoomplus" xlink:href="#zoomPlus" x="17" y="9" onmousedown="handleZoom(evt,'in')"/>
                <use id="zoomminus" xlink:href="#zoomMin" x="42" y="9" onmousedown="handleZoom(evt,'out')"/>
                <use id="reset" xlink:href="#resetDef" x="30" y="36" onmousedown="handleReset()"/>
                <g id="arrowUp" xlink:href="#dirArrow" transform="translate(30 24)" onmousedown="handlePan(0,-1)">
                  <use xlink:href="#rim" fill="#404040">
                        <set attributeName="fill" to="#808080" begin="arrowUp.mouseover" end="arrowUp.mouseout"/>
                  </use>
                  <path fill="none" stroke="white" stroke-width="1.5" d="M0,-3.0v7 M-2.5,-0.5L0,-3.0L2.5,-0.5"/>
                </g>
                <g id="arrowRight" xlink:href="#dirArrow" transform="rotate(90) translate(36 -43)" onmousedown="handlePan(1,0)">
                  <use xlink:href="#rim" fill="#404040">
                        <set attributeName="fill" to="#808080" begin="arrowRight.mouseover" end="arrowRight.mouseout"/>
                  </use>
                  <path fill="none" stroke="white" stroke-width="1.5" d="M0,-3.0v7 M-2.5,-0.5L0,-3.0L2.5,-0.5"/>
                </g>
                <g id="arrowDown" xlink:href="#dirArrow" transform="rotate(180) translate(-30 -48)" onmousedown="handlePan(0,1)">
                  <use xlink:href="#rim" fill="#404040">
                        <set attributeName="fill" to="#808080" begin="arrowDown.mouseover" end="arrowDown.mouseout"/>
                  </use>
                  <path fill="none" stroke="white" stroke-width="1.5" d="M0,-3.0v7 M-2.5,-0.5L0,-3.0L2.5,-0.5"/>
                </g>
                <g id="arrowLeft" xlink:href="#dirArrow" transform="rotate(270) translate(-36 17)" onmousedown="handlePan(-1,0)">
                  <use xlink:href="#rim" fill="#404040">
                        <set attributeName="fill" to="#808080" begin="arrowLeft.mouseover" end="arrowLeft.mouseout"/>
                  </use>
                  <path fill="none" stroke="white" stroke-width="1.5" d="M0,-3.0v7 M-2.5,-0.5L0,-3.0L2.5,-0.5"/>
                </g>
        </g>
        <svg viewBox="0 0 15 15" width="100%" height="30px" preserveAspectRatio="xMaxYMin meet">
         <g id="arrow_out" transform="scale(0.3 0.3)">
          <a xlink:href="classokw_1_1core_1_1_e_n_a7a19b4149e808ffc7fbaca9d0e6412b3_cgraph_org.svg" target="_base">
           <rect id="button" ry="5" rx="5" y="6" x="6" height="38" width="38"
                fill="#f2f5e9" fill-opacity="0.5" stroke="#606060" stroke-width="1.0"/>
           <path id="arrow"
             d="M 11.500037,31.436501 C 11.940474,20.09759 22.043105,11.32322 32.158766,21.979434 L 37.068811,17.246167 C 37.068811,17.246167 37.088388,32 37.088388,32 L 22.160133,31.978069 C 22.160133,31.978069 26.997745,27.140456 26.997745,27.140456 C 18.528582,18.264221 13.291696,25.230495 11.500037,31.436501 z"
             style="fill:#404040;"/>
          </a>
         </g>
        </svg>
</svg>
