<?xml version="1.0" encoding="UTF-8" standalone="no"?>
<!DOCTYPE svg PUBLIC "-//W3C//DTD SVG 1.1//EN"
 "http://www.w3.org/Graphics/SVG/1.1/DTD/svg11.dtd">
<!-- Generated by graphviz version 2.36.0 (20140111.2315)
 -->
<!-- Title: okw.core.Core.ClickOn Pages: 1 -->
<svg width="598pt" height="659pt"
 viewBox="0.00 0.00 598.00 659.00" xmlns="http://www.w3.org/2000/svg" xmlns:xlink="http://www.w3.org/1999/xlink">
<g id="graph0" class="graph" transform="scale(1 1) rotate(0) translate(4 655)">
<title>okw.core.Core.ClickOn</title>
<polygon fill="white" stroke="none" points="-4,4 -4,-655 594,-655 594,4 -4,4"/>
<!-- Node714 -->
<g id="node1" class="node"><title>Node714</title>
<polygon fill="#bfbfbf" stroke="black" points="0.5,-201.5 0.5,-220.5 119.5,-220.5 119.5,-201.5 0.5,-201.5"/>
<text text-anchor="middle" x="60" y="-208.5" font-family="Helvetica,sans-Serif" font-size="10.00">okw.core.Core.ClickOn</text>
</g>
<!-- Node715 -->
<g id="node2" class="node"><title>Node715</title>
<g id="a_node2"><a xlink:href="classokw_1_1core_1_1_e_n.html#aa0ea62b29e5e216241a5b757797f83bf" target="_top" xlink:title="Klickt auf das gegebene Objekt. ">
<polygon fill="white" stroke="black" points="175,-299.5 175,-318.5 287,-318.5 287,-299.5 175,-299.5"/>
<text text-anchor="middle" x="231" y="-306.5" font-family="Helvetica,sans-Serif" font-size="10.00">okw.core.EN.ClickOn</text>
</a>
</g>
</g>
<!-- Node714&#45;&gt;Node715 -->
<g id="edge1" class="edge"><title>Node714&#45;&gt;Node715</title>
<path fill="none" stroke="midnightblue" d="M77.2502,-228.085C95.0076,-245.793 125.072,-273.067 156,-289 164.281,-293.266 173.567,-296.695 182.688,-299.425"/>
<polygon fill="midnightblue" stroke="midnightblue" points="79.5014,-225.382 69.9986,-220.697 74.5057,-230.286 79.5014,-225.382"/>
</g>
<!-- Node729 -->
<g id="node16" class="node"><title>Node729</title>
<g id="a_node16"><a xlink:href="classokw_1_1core_1_1_current_object___test.html#a2fe4ea5049e633182621aea87f5c2a8f" target="_top" xlink:title="Testziel: Prüft den Aufruf der Methode ClickOn( &quot;FN&quot; ) im ChildObject. ">
<polygon fill="white" stroke="black" points="156.5,-250 156.5,-280 305.5,-280 305.5,-250 156.5,-250"/>
<text text-anchor="start" x="164.5" y="-268" font-family="Helvetica,sans-Serif" font-size="10.00">okw.core.CurrentObject</text>
<text text-anchor="middle" x="231" y="-257" font-family="Helvetica,sans-Serif" font-size="10.00">_Test.tc_ClickOn_ChildObject</text>
</a>
</g>
</g>
<!-- Node714&#45;&gt;Node729 -->
<g id="edge15" class="edge"><title>Node714&#45;&gt;Node729</title>
<path fill="none" stroke="midnightblue" d="M100.562,-223.641C125.194,-231.512 157.01,-241.678 182.934,-249.961"/>
<polygon fill="midnightblue" stroke="midnightblue" points="101.416,-220.24 90.8248,-220.53 99.285,-226.907 101.416,-220.24"/>
</g>
<!-- Node730 -->
<g id="node17" class="node"><title>Node730</title>
<g id="a_node17"><a xlink:href="classokw_1_1core_1_1_current_object___test.html#a6ba92c08d267a77ce11c133769c9b1b9" target="_top" xlink:title="Ts the c_ select_ child object_ with out_ value. ">
<polygon fill="white" stroke="black" points="157.5,-190.5 157.5,-231.5 304.5,-231.5 304.5,-190.5 157.5,-190.5"/>
<text text-anchor="start" x="165.5" y="-219.5" font-family="Helvetica,sans-Serif" font-size="10.00">okw.core.CurrentObject</text>
<text text-anchor="start" x="165.5" y="-208.5" font-family="Helvetica,sans-Serif" font-size="10.00">_Test.TC_Select_ChildObject</text>
<text text-anchor="middle" x="231" y="-197.5" font-family="Helvetica,sans-Serif" font-size="10.00">_WithOut_Value</text>
</a>
</g>
</g>
<!-- Node714&#45;&gt;Node730 -->
<g id="edge16" class="edge"><title>Node714&#45;&gt;Node730</title>
<path fill="none" stroke="midnightblue" d="M129.799,-211C138.918,-211 148.291,-211 157.471,-211"/>
<polygon fill="midnightblue" stroke="midnightblue" points="129.634,-207.5 119.634,-211 129.634,-214.5 129.634,-207.5"/>
</g>
<!-- Node731 -->
<g id="node18" class="node"><title>Node731</title>
<g id="a_node18"><a xlink:href="classokw_1_1gui_1_1adapter_1_1selenium_1_1_se_input_radio.html#a7dce83be09a4af05f50b0e74aa9d27f7" target="_top" xlink:title="Ein SeInputButton IstkeinMenüobject! &#45;&gt; OKWFrameObjectMethodNotImplemented Auslösen! ...">
<polygon fill="white" stroke="black" points="165.5,-142 165.5,-172 296.5,-172 296.5,-142 165.5,-142"/>
<text text-anchor="start" x="173.5" y="-160" font-family="Helvetica,sans-Serif" font-size="10.00">okw.gui.adapter.selenium.</text>
<text text-anchor="middle" x="231" y="-149" font-family="Helvetica,sans-Serif" font-size="10.00">SeInputRadio.SetValue</text>
</a>
</g>
</g>
<!-- Node714&#45;&gt;Node731 -->
<g id="edge17" class="edge"><title>Node714&#45;&gt;Node731</title>
<path fill="none" stroke="midnightblue" d="M100.562,-198.359C125.194,-190.488 157.01,-180.322 182.934,-172.039"/>
<polygon fill="midnightblue" stroke="midnightblue" points="99.285,-195.093 90.8248,-201.47 101.416,-201.76 99.285,-195.093"/>
</g>
<!-- Node732 -->
<g id="node19" class="node"><title>Node732</title>
<g id="a_node19"><a xlink:href="classokw_1_1gui_1_1adapter_1_1selenium_1_1_se_radio_list.html#a793c9fd7670b1d77ee48996f7b287807" target="_top" xlink:title="Konstruktor der Klasse. ">
<polygon fill="white" stroke="black" points="165.5,-93 165.5,-123 296.5,-123 296.5,-93 165.5,-93"/>
<text text-anchor="start" x="173.5" y="-111" font-family="Helvetica,sans-Serif" font-size="10.00">okw.gui.adapter.selenium.</text>
<text text-anchor="middle" x="231" y="-100" font-family="Helvetica,sans-Serif" font-size="10.00">SeRadioList.SeRadioList</text>
</a>
</g>
</g>
<!-- Node714&#45;&gt;Node732 -->
<g id="edge18" class="edge"><title>Node714&#45;&gt;Node732</title>
<path fill="none" stroke="midnightblue" d="M77.3687,-193.989C95.2251,-176.299 125.371,-148.878 156,-132 162.033,-128.676 168.599,-125.723 175.246,-123.127"/>
<polygon fill="midnightblue" stroke="midnightblue" points="74.6202,-191.79 70.0717,-201.359 79.5946,-196.715 74.6202,-191.79"/>
</g>
<!-- Node716 -->
<g id="node3" class="node"><title>Node716</title>
<g id="a_node3"><a xlink:href="classokw_1_1core_1_1_e_n___o_k_w_frame_object_child_not_found_exception___test.html#ab400c3e29f8f6bd9f0e70df363ea5f35" target="_top" xlink:title="Prüft ob die Ausnahme OKWFrameObjectChildNotFoundException durch ClickOn ausgelöst wird...">
<polygon fill="white" stroke="black" points="374,-599 374,-651 558,-651 558,-599 374,-599"/>
<text text-anchor="start" x="382" y="-639" font-family="Helvetica,sans-Serif" font-size="10.00">okw.core.EN_OKWFrameObject</text>
<text text-anchor="start" x="382" y="-628" font-family="Helvetica,sans-Serif" font-size="10.00">ChildNotFoundException</text>
<text text-anchor="start" x="382" y="-617" font-family="Helvetica,sans-Serif" font-size="10.00">_Test.TC_ClickOn_OKWFrameObject</text>
<text text-anchor="middle" x="466" y="-606" font-family="Helvetica,sans-Serif" font-size="10.00">ChildNotFoundException</text>
</a>
</g>
</g>
<!-- Node715&#45;&gt;Node716 -->
<g id="edge2" class="edge"><title>Node715&#45;&gt;Node716</title>
<path fill="none" stroke="midnightblue" d="M233.961,-328.836C240.052,-379.647 263.258,-515.563 342,-588 351.19,-596.455 362.246,-602.981 373.91,-608.018"/>
<polygon fill="midnightblue" stroke="midnightblue" points="237.405,-328.138 232.83,-318.581 230.447,-328.905 237.405,-328.138"/>
</g>
<!-- Node717 -->
<g id="node4" class="node"><title>Node717</title>
<g id="a_node4"><a xlink:href="classokw_1_1core_1_1_e_n___o_k_w_frame_object_method_not_implemented___test.html#a15c8a86e8cbeaf7d85283b979976bcad" target="_top" xlink:title="Prüft ob die Ausnahme OKWFrameObjectMethodNotImplemented von ClickOn() ausgelöst wird. ">
<polygon fill="white" stroke="black" points="342.5,-538.5 342.5,-579.5 589.5,-579.5 589.5,-538.5 342.5,-538.5"/>
<text text-anchor="start" x="350.5" y="-567.5" font-family="Helvetica,sans-Serif" font-size="10.00">okw.core.EN_OKWFrameObject</text>
<text text-anchor="start" x="350.5" y="-556.5" font-family="Helvetica,sans-Serif" font-size="10.00">MethodNotImplemented_Test.tc</text>
<text text-anchor="middle" x="466" y="-545.5" font-family="Helvetica,sans-Serif" font-size="10.00">_ClickOn_OKWFrameObjectMethodNotImplemented</text>
</a>
</g>
</g>
<!-- Node715&#45;&gt;Node717 -->
<g id="edge3" class="edge"><title>Node715&#45;&gt;Node717</title>
<path fill="none" stroke="midnightblue" d="M235.958,-328.577C245.76,-371.819 275.353,-475.852 342,-529 346.468,-532.563 351.297,-535.712 356.368,-538.494"/>
<polygon fill="midnightblue" stroke="midnightblue" points="239.366,-327.777 233.837,-318.739 232.523,-329.252 239.366,-327.777"/>
</g>
<!-- Node718 -->
<g id="node5" class="node"><title>Node718</title>
<g id="a_node5"><a xlink:href="classbrowser_1_1_frm_browser_base___test.html#a89cb7ef0c50ef2010d3e5dafa639e54a" target="_top" xlink:title="Testet das Schlüsselwort VerifyValueWCM( FN ) für das Virtuelle&#45;GUI&#45;Adapter URL Prüfen. ">
<polygon fill="white" stroke="black" points="401,-490 401,-520 531,-520 531,-490 401,-490"/>
<text text-anchor="start" x="409" y="-508" font-family="Helvetica,sans-Serif" font-size="10.00">browser.FrmBrowserBase</text>
<text text-anchor="middle" x="466" y="-497" font-family="Helvetica,sans-Serif" font-size="10.00">_Test.tcMAXIMIZE</text>
</a>
</g>
</g>
<!-- Node715&#45;&gt;Node718 -->
<g id="edge4" class="edge"><title>Node715&#45;&gt;Node718</title>
<path fill="none" stroke="midnightblue" d="M238.672,-328.475C252.109,-364.582 286.02,-441.715 342,-480 359.177,-491.748 380.656,-498.21 400.836,-501.694"/>
<polygon fill="midnightblue" stroke="midnightblue" points="241.828,-326.906 235.157,-318.674 235.239,-329.269 241.828,-326.906"/>
</g>
<!-- Node719 -->
<g id="node6" class="node"><title>Node719</title>
<g id="a_node6"><a xlink:href="classokw_1_1_se_b_a_c_k_1_1_se_b_a_c_k___e_n___test.html#a0e32291310df90adbd08934a4dafd595" target="_top" xlink:title="Testet die Implementierung des Schlüsselwortes ClickOn( FN ) für Klasse SeBACK . ">
<polygon fill="white" stroke="black" points="396,-441 396,-471 536,-471 536,-441 396,-441"/>
<text text-anchor="start" x="404" y="-459" font-family="Helvetica,sans-Serif" font-size="10.00">okw.SeBACK.SeBACK_EN</text>
<text text-anchor="middle" x="466" y="-448" font-family="Helvetica,sans-Serif" font-size="10.00">_Test.tcClickOn</text>
</a>
</g>
</g>
<!-- Node715&#45;&gt;Node719 -->
<g id="edge5" class="edge"><title>Node715&#45;&gt;Node719</title>
<path fill="none" stroke="midnightblue" d="M243.079,-327.422C260.509,-354.688 297.027,-405.322 342,-431 358.274,-440.292 377.495,-446.162 395.847,-449.861"/>
<polygon fill="midnightblue" stroke="midnightblue" points="245.986,-325.468 237.728,-318.831 240.044,-329.17 245.986,-325.468"/>
</g>
<!-- Node720 -->
<g id="node7" class="node"><title>Node720</title>
<g id="a_node7"><a xlink:href="classokw_1_1_se_browser_child_1_1_se_browser_child___e_n___test.html#a4703e5b03d257da4cbf1be9964e2d96b" target="_top" xlink:title="Prüft ob bei nicht vorhandenem Browserchild die Exception &quot;&quot; ausgelöst wird. ">
<polygon fill="white" stroke="black" points="373,-392 373,-422 559,-422 559,-392 373,-392"/>
<text text-anchor="start" x="381" y="-410" font-family="Helvetica,sans-Serif" font-size="10.00">okw.SeBrowserChild.SeBrowser</text>
<text text-anchor="middle" x="466" y="-399" font-family="Helvetica,sans-Serif" font-size="10.00">Child_EN_Test.tcBrowserChild_BACK</text>
</a>
</g>
</g>
<!-- Node715&#45;&gt;Node720 -->
<g id="edge6" class="edge"><title>Node715&#45;&gt;Node720</title>
<path fill="none" stroke="midnightblue" d="M251.157,-325.088C272.127,-341.854 307.391,-367.644 342,-382 351.762,-386.049 362.24,-389.462 372.812,-392.333"/>
<polygon fill="midnightblue" stroke="midnightblue" points="253.308,-322.325 243.343,-318.725 248.888,-327.754 253.308,-322.325"/>
</g>
<!-- Node721 -->
<g id="node8" class="node"><title>Node721</title>
<g id="a_node8"><a xlink:href="classokw_1_1_se_button_1_1_se_button___e_n___test.html#a98abeffc57ddad13d3ec78817622ec1b" target="_top" xlink:title="Test des Schlüsselwortes ClickOn für den GUI&#45;Adapter SeButton. ">
<polygon fill="white" stroke="black" points="405,-343 405,-373 527,-373 527,-343 405,-343"/>
<text text-anchor="start" x="413" y="-361" font-family="Helvetica,sans-Serif" font-size="10.00">okw.SeButton.SeButton</text>
<text text-anchor="middle" x="466" y="-350" font-family="Helvetica,sans-Serif" font-size="10.00">_EN_Test.tcClickOn</text>
</a>
</g>
</g>
<!-- Node715&#45;&gt;Node721 -->
<g id="edge7" class="edge"><title>Node715&#45;&gt;Node721</title>
<path fill="none" stroke="midnightblue" d="M284.867,-320.695C302.972,-324.657 323.361,-329.073 342,-333 362.47,-337.313 384.884,-341.907 404.906,-345.965"/>
<polygon fill="midnightblue" stroke="midnightblue" points="285.586,-317.27 275.069,-318.546 284.087,-324.107 285.586,-317.27"/>
</g>
<!-- Node722 -->
<g id="node9" class="node"><title>Node722</title>
<g id="a_node9"><a xlink:href="classokw_1_1_se_input_checkbox_1_1_se_input_checkbox___e_n___test.html#ad572d5badb79741c496835cbb5c2d6df" target="_top" xlink:title="Prüft die SetFocusFunktion bei Textfelder mit dem Attribute &quot;ReadOnly&quot;. ">
<polygon fill="white" stroke="black" points="387,-294 387,-324 545,-324 545,-294 387,-294"/>
<text text-anchor="start" x="395" y="-312" font-family="Helvetica,sans-Serif" font-size="10.00">okw.SeInputCheckbox.SeInput</text>
<text text-anchor="middle" x="466" y="-301" font-family="Helvetica,sans-Serif" font-size="10.00">Checkbox_EN_Test.tcSetFocus</text>
</a>
</g>
</g>
<!-- Node715&#45;&gt;Node722 -->
<g id="edge8" class="edge"><title>Node715&#45;&gt;Node722</title>
<path fill="none" stroke="midnightblue" d="M297.228,-309C325.039,-309 357.721,-309 386.814,-309"/>
<polygon fill="midnightblue" stroke="midnightblue" points="297.218,-305.5 287.218,-309 297.218,-312.5 297.218,-305.5"/>
</g>
<!-- Node723 -->
<g id="node10" class="node"><title>Node723</title>
<g id="a_node10"><a xlink:href="classokw_1_1_se_input_field_1_1_se_input_field___e_n___test.html#a5860a514b07b6bf715c17dd674d0f384" target="_top" xlink:title="Testet das Schlüsselwort ClickOn( FN ) eines SeInputField Prüfen. ">
<polygon fill="white" stroke="black" points="401.5,-245 401.5,-275 530.5,-275 530.5,-245 401.5,-245"/>
<text text-anchor="start" x="409.5" y="-263" font-family="Helvetica,sans-Serif" font-size="10.00">okw.SeInputField.SeInput</text>
<text text-anchor="middle" x="466" y="-252" font-family="Helvetica,sans-Serif" font-size="10.00">Field_EN_Test.tcClickOn</text>
</a>
</g>
</g>
<!-- Node715&#45;&gt;Node723 -->
<g id="edge9" class="edge"><title>Node715&#45;&gt;Node723</title>
<path fill="none" stroke="midnightblue" d="M282.464,-297.189C301.14,-292.907 322.509,-288.115 342,-284 361.265,-279.932 382.281,-275.741 401.402,-272.022"/>
<polygon fill="midnightblue" stroke="midnightblue" points="281.641,-293.786 272.681,-299.44 283.211,-300.608 281.641,-293.786"/>
</g>
<!-- Node724 -->
<g id="node11" class="node"><title>Node724</title>
<g id="a_node11"><a xlink:href="classokw_1_1_se_input_field_1_1_se_input_field___e_n___test.html#a60d79636eacaede185bf8ae403e862b8" target="_top" xlink:title="Test des Schlüsselwortes &quot;VerifyValueWCM( FN, ExpValu ) für SeInputText. ">
<polygon fill="white" stroke="black" points="381.5,-196 381.5,-226 550.5,-226 550.5,-196 381.5,-196"/>
<text text-anchor="start" x="389.5" y="-214" font-family="Helvetica,sans-Serif" font-size="10.00">okw.SeInputField.SeInput</text>
<text text-anchor="middle" x="466" y="-203" font-family="Helvetica,sans-Serif" font-size="10.00">Field_EN_Test.tcVerifyValueWCM</text>
</a>
</g>
</g>
<!-- Node715&#45;&gt;Node724 -->
<g id="edge10" class="edge"><title>Node715&#45;&gt;Node724</title>
<path fill="none" stroke="midnightblue" d="M295.062,-295.48C298.91,-293.595 302.596,-291.447 306,-289 329.419,-272.161 317.996,-250.994 342,-235 353.769,-227.158 367.491,-221.752 381.416,-218.049"/>
<polygon fill="midnightblue" stroke="midnightblue" points="293.667,-292.27 285.847,-299.419 296.418,-298.707 293.667,-292.27"/>
</g>
<!-- Node725 -->
<g id="node12" class="node"><title>Node725</title>
<g id="a_node12"><a xlink:href="classokw_1_1_se_input_radio_1_1_se_input_radio___e_n___test.html#af95992ddbd303a44c3b1137243ec4463" target="_top" xlink:title="Test des Schlüsselwortes ClickOn() für den GUI&#45;Adapter SeInputRadio. ">
<polygon fill="white" stroke="black" points="397,-147 397,-177 535,-177 535,-147 397,-147"/>
<text text-anchor="start" x="405" y="-165" font-family="Helvetica,sans-Serif" font-size="10.00">okw.SeInputRadio.SeInput</text>
<text text-anchor="middle" x="466" y="-154" font-family="Helvetica,sans-Serif" font-size="10.00">Radio_EN_Test.tc_ClickOn</text>
</a>
</g>
</g>
<!-- Node715&#45;&gt;Node725 -->
<g id="edge11" class="edge"><title>Node715&#45;&gt;Node725</title>
<path fill="none" stroke="midnightblue" d="M296.328,-296.133C299.805,-294.088 303.069,-291.726 306,-289 341.507,-255.971 305.339,-217.743 342,-186 357.132,-172.898 377.274,-166.113 396.87,-162.797"/>
<polygon fill="midnightblue" stroke="midnightblue" points="294.722,-293.023 287.309,-300.593 297.825,-299.298 294.722,-293.023"/>
</g>
<!-- Node726 -->
<g id="node13" class="node"><title>Node726</title>
<g id="a_node13"><a xlink:href="classokw_1_1_se_input_radio_1_1_se_input_radio___e_n___test.html#a110e82fd5d9309ebf617febe21ef358d" target="_top" xlink:title="Test des Schlüsselwortes VerifyValueWCM für den GUI&#45;Adapter SeInputRadio. ">
<polygon fill="white" stroke="black" points="376.5,-98 376.5,-128 555.5,-128 555.5,-98 376.5,-98"/>
<text text-anchor="start" x="384.5" y="-116" font-family="Helvetica,sans-Serif" font-size="10.00">okw.SeInputRadio.SeInput</text>
<text text-anchor="middle" x="466" y="-105" font-family="Helvetica,sans-Serif" font-size="10.00">Radio_EN_Test.tc_VerifyValueWCM</text>
</a>
</g>
</g>
<!-- Node715&#45;&gt;Node726 -->
<g id="edge12" class="edge"><title>Node715&#45;&gt;Node726</title>
<path fill="none" stroke="midnightblue" d="M295.992,-296.897C299.644,-294.675 303.031,-292.064 306,-289 354.314,-239.145 291.941,-185.103 342,-137 351.57,-127.804 363.562,-121.628 376.28,-117.555"/>
<polygon fill="midnightblue" stroke="midnightblue" points="294.407,-293.776 287.058,-301.408 297.562,-300.025 294.407,-293.776"/>
</g>
<!-- Node727 -->
<g id="node14" class="node"><title>Node727</title>
<g id="a_node14"><a xlink:href="classokw_1_1_se_input_radio_1_1_se_input_radio___e_n___test.html#a764e3f90123eb747d81f597d472711c3" target="_top" xlink:title="Test des Schlüsselwortes VerifyValueREGX für den GUI&#45;Adapter SeInputRadio. ">
<polygon fill="white" stroke="black" points="375,-49 375,-79 557,-79 557,-49 375,-49"/>
<text text-anchor="start" x="383" y="-67" font-family="Helvetica,sans-Serif" font-size="10.00">okw.SeInputRadio.SeInput</text>
<text text-anchor="middle" x="466" y="-56" font-family="Helvetica,sans-Serif" font-size="10.00">Radio_EN_Test.tc_VerifyValueREGX</text>
</a>
</g>
</g>
<!-- Node715&#45;&gt;Node727 -->
<g id="edge13" class="edge"><title>Node715&#45;&gt;Node727</title>
<path fill="none" stroke="midnightblue" d="M296.489,-296.893C299.979,-294.667 303.197,-292.058 306,-289 367.331,-222.105 278.325,-152.668 342,-88 351.083,-78.7757 362.588,-72.5428 374.899,-68.409"/>
<polygon fill="midnightblue" stroke="midnightblue" points="294.582,-293.94 287.335,-301.669 297.82,-300.146 294.582,-293.94"/>
</g>
<!-- Node728 -->
<g id="node15" class="node"><title>Node728</title>
<g id="a_node15"><a xlink:href="classokw_1_1_se_m_a_x_i_m_i_z_e_1_1_se_m_a_x_i_m_i_z_e___e_n___test.html#ac88123f46efca3d9d52e597e0c3f9876" target="_top" xlink:title="Testet die Implementierung des Schlüsselworte ClickOn( FN ) in der Klasse SeMAXSIZE ...">
<polygon fill="white" stroke="black" points="385,-0 385,-30 547,-30 547,-0 385,-0"/>
<text text-anchor="start" x="393" y="-18" font-family="Helvetica,sans-Serif" font-size="10.00">okw.SeMAXIMIZE.SeMAXIMIZE</text>
<text text-anchor="middle" x="466" y="-7" font-family="Helvetica,sans-Serif" font-size="10.00">_EN_Test.tcClickOn</text>
</a>
</g>
</g>
<!-- Node715&#45;&gt;Node728 -->
<g id="edge14" class="edge"><title>Node715&#45;&gt;Node728</title>
<path fill="none" stroke="midnightblue" d="M296.125,-297.315C299.774,-294.997 303.121,-292.25 306,-289 380.435,-204.97 264.618,-120.325 342,-39 353.398,-27.021 368.869,-20.0393 384.99,-16.1435"/>
<polygon fill="midnightblue" stroke="midnightblue" points="294.4,-294.267 287.141,-301.984 297.628,-300.478 294.4,-294.267"/>
</g>
</g>
</svg>
