<?xml version="1.0" encoding="UTF-8" standalone="no"?>
<!DOCTYPE svg PUBLIC "-//W3C//DTD SVG 1.1//EN"
 "http://www.w3.org/Graphics/SVG/1.1/DTD/svg11.dtd">
<!-- Generated by graphviz version 2.26.3 (20100126.1600)
 -->
<!-- Title: okw.gui.adapter.selenium.SeInputCheckbox.unchecking Pages: 1 -->
<svg width="330pt" height="94pt"
 viewBox="0.00 0.00 330.00 94.00" xmlns="http://www.w3.org/2000/svg" xmlns:xlink="http://www.w3.org/1999/xlink">
<g id="graph1" class="graph" transform="scale(1 1) rotate(0) translate(4 90)">
<title>okw.gui.adapter.selenium.SeInputCheckbox.unchecking</title>
<polygon fill="white" stroke="white" points="-4,5 -4,-90 327,-90 327,5 -4,5"/>
<!-- Node133 -->
<g id="node1" class="node"><title>Node133</title>
<polygon fill="#bfbfbf" stroke="black" points="0.5,-26 0.5,-60 147.5,-60 147.5,-26 0.5,-26"/>
<text text-anchor="start" x="8.5" y="-47" font-family="Helvetica,sans-Serif" font-size="10.00">okw.gui.adapter.selenium.</text>
<text text-anchor="middle" x="74" y="-34" font-family="Helvetica,sans-Serif" font-size="10.00">SeInputCheckbox.unchecking</text>
</g>
<!-- Node134 -->
<g id="node3" class="node"><title>Node134</title>
<a xlink:href="classokw_1_1gui_1_1adapter_1_1selenium_1_1_se_input_checkbox.html#ae11a49c881f65456d65abd1b3ddf8de7" target="_top" xlink:title="okw.gui.adapter.selenium.\lSeInputCheckbox.SetValue">
<polygon fill="white" stroke="black" points="184.5,-52 184.5,-86 321.5,-86 321.5,-52 184.5,-52"/>
<text text-anchor="start" x="192.5" y="-73" font-family="Helvetica,sans-Serif" font-size="10.00">okw.gui.adapter.selenium.</text>
<text text-anchor="middle" x="253" y="-60" font-family="Helvetica,sans-Serif" font-size="10.00">SeInputCheckbox.SetValue</text>
</a>
</g>
<!-- Node133&#45;&gt;Node134 -->
<g id="edge2" class="edge"><title>Node133&#45;&gt;Node134</title>
<path fill="none" stroke="midnightblue" d="M157.619,-55.1458C166.557,-56.444 175.573,-57.7536 184.309,-59.0225"/>
<polygon fill="midnightblue" stroke="midnightblue" points="157.98,-51.6616 147.581,-53.6878 156.974,-58.5889 157.98,-51.6616"/>
</g>
<!-- Node135 -->
<g id="node5" class="node"><title>Node135</title>
<a xlink:href="classokw_1_1gui_1_1adapter_1_1selenium_1_1_se_input_checkbox.html#a37d7733b7807cf4daade07461a506146" target="_top" xlink:title="Erlaubte Werte sind sprachabhängig CHECKED/UNCHECKED. ">
<polygon fill="white" stroke="black" points="187.5,-0 187.5,-34 318.5,-34 318.5,-0 187.5,-0"/>
<text text-anchor="start" x="195.5" y="-21" font-family="Helvetica,sans-Serif" font-size="10.00">okw.gui.adapter.selenium.</text>
<text text-anchor="middle" x="253" y="-8" font-family="Helvetica,sans-Serif" font-size="10.00">SeInputCheckbox.Select</text>
</a>
</g>
<!-- Node133&#45;&gt;Node135 -->
<g id="edge4" class="edge"><title>Node133&#45;&gt;Node135</title>
<path fill="none" stroke="midnightblue" d="M157.56,-30.8628C167.591,-29.4058 177.721,-27.9343 187.445,-26.5219"/>
<polygon fill="midnightblue" stroke="midnightblue" points="156.974,-27.4111 147.581,-32.3122 157.98,-34.3384 156.974,-27.4111"/>
</g>
</g>
</svg>
