<?xml version="1.0" encoding="UTF-8" standalone="no"?>
<!DOCTYPE svg PUBLIC "-//W3C//DTD SVG 1.1//EN"
 "http://www.w3.org/Graphics/SVG/1.1/DTD/svg11.dtd">
<!-- Generated by graphviz version 2.26.3 (20100126.1600)
 -->
<!-- Title: okw.core.OK.SelectWindow Pages: 1 -->
<svg width="1306pt" height="326pt"
 viewBox="0.00 0.00 1306.00 326.00" xmlns="http://www.w3.org/2000/svg" xmlns:xlink="http://www.w3.org/1999/xlink">
<g id="graph1" class="graph" transform="scale(1 1) rotate(0) translate(4 322)">
<title>okw.core.OK.SelectWindow</title>
<polygon fill="white" stroke="white" points="-4,5 -4,-322 1303,-322 1303,5 -4,5"/>
<!-- Node649 -->
<g id="node1" class="node"><title>Node649</title>
<polygon fill="#bfbfbf" stroke="black" points="0,-162.5 0,-183.5 140,-183.5 140,-162.5 0,-162.5"/>
<text text-anchor="middle" x="70" y="-170.5" font-family="Helvetica,sans-Serif" font-size="10.00">okw.core.OK.SelectWindow</text>
</g>
<!-- Node650 -->
<g id="node3" class="node"><title>Node650</title>
<a xlink:href="classokw_1_1core_1_1_o_k_w___current_object___sngltn.html#ad11e643efb1fe66ee4b6e5d4ea58ad24" target="_top" xlink:title="Hier wird der Kontext auf ein Fenster gesetzt. ">
<polygon fill="white" stroke="black" points="176.5,-186 176.5,-220 325.5,-220 325.5,-186 176.5,-186"/>
<text text-anchor="start" x="184.5" y="-207" font-family="Helvetica,sans-Serif" font-size="10.00">okw.core.OKW_CurrentObject</text>
<text text-anchor="middle" x="251" y="-194" font-family="Helvetica,sans-Serif" font-size="10.00">_Sngltn.setWindowName</text>
</a>
</g>
<!-- Node649&#45;&gt;Node650 -->
<g id="edge2" class="edge"><title>Node649&#45;&gt;Node650</title>
<path fill="none" stroke="midnightblue" d="M133.559,-183.535C144.166,-185.293 155.315,-187.141 166.348,-188.969"/>
<polygon fill="midnightblue" stroke="midnightblue" points="165.992,-192.458 176.429,-190.64 167.136,-185.552 165.992,-192.458"/>
</g>
<!-- Node658 -->
<g id="node21" class="node"><title>Node658</title>
<a xlink:href="classokw_1_1core_1_1_o_k.html#a5a6db6a457bcb71c893f5d4eb615b2b7" target="_top" xlink:title="Zentrale Exception&#45;Behandlung. ">
<polygon fill="white" stroke="black" points="362.5,-103.5 362.5,-124.5 511.5,-124.5 511.5,-103.5 362.5,-103.5"/>
<text text-anchor="middle" x="437" y="-111.5" font-family="Helvetica,sans-Serif" font-size="10.00">okw.core.OK.handleException</text>
</a>
</g>
<!-- Node649&#45;&gt;Node658 -->
<g id="edge22" class="edge"><title>Node649&#45;&gt;Node658</title>
<path fill="none" stroke="midnightblue" d="M135.612,-162.452C199.054,-152.253 295.096,-136.813 361.641,-126.115"/>
<polygon fill="midnightblue" stroke="midnightblue" points="362.33,-129.549 371.647,-124.506 361.218,-122.638 362.33,-129.549"/>
</g>
<!-- Node651 -->
<g id="node5" class="node"><title>Node651</title>
<a xlink:href="classokw_1_1core_1_1_o_k_w___current_object___sngltn.html#a51204f2563ba8defb737da6653705819" target="_top" xlink:title="Methode aktualisert zwei Werte: ">
<polygon fill="white" stroke="black" points="362.5,-194 362.5,-228 511.5,-228 511.5,-194 362.5,-194"/>
<text text-anchor="start" x="370.5" y="-215" font-family="Helvetica,sans-Serif" font-size="10.00">okw.core.OKW_CurrentObject</text>
<text text-anchor="middle" x="437" y="-202" font-family="Helvetica,sans-Serif" font-size="10.00">_Sngltn.updateObject</text>
</a>
</g>
<!-- Node650&#45;&gt;Node651 -->
<g id="edge4" class="edge"><title>Node650&#45;&gt;Node651</title>
<path fill="none" stroke="midnightblue" d="M325.582,-206.208C334.393,-206.587 343.435,-206.976 352.373,-207.36"/>
<polygon fill="midnightblue" stroke="midnightblue" points="352.26,-210.858 362.402,-207.791 352.561,-203.865 352.26,-210.858"/>
</g>
<!-- Node652 -->
<g id="node7" class="node"><title>Node652</title>
<a xlink:href="classokw_1_1_frame_object_dictionary___sngltn.html#aeec07d71cbebe71ec3ec4d27e86d6c5c" target="_top" xlink:title="Die Methode liefert das Frame&#45;Object des gegebenen FN eines Fensterobjektes zurück. ">
<polygon fill="white" stroke="black" points="548.5,-194 548.5,-228 709.5,-228 709.5,-194 548.5,-194"/>
<text text-anchor="start" x="556.5" y="-215" font-family="Helvetica,sans-Serif" font-size="10.00">okw.FrameObjectDictionary</text>
<text text-anchor="middle" x="629" y="-202" font-family="Helvetica,sans-Serif" font-size="10.00">_Sngltn.getParentObjectByName</text>
</a>
</g>
<!-- Node651&#45;&gt;Node652 -->
<g id="edge6" class="edge"><title>Node651&#45;&gt;Node652</title>
<path fill="none" stroke="midnightblue" d="M511.507,-211C520.315,-211 529.376,-211 538.375,-211"/>
<polygon fill="midnightblue" stroke="midnightblue" points="538.491,-214.5 548.491,-211 538.491,-207.5 538.491,-214.5"/>
</g>
<!-- Node657 -->
<g id="node17" class="node"><title>Node657</title>
<a xlink:href="classokw_1_1_frame_object_dictionary___sngltn.html#a0a71734828093357dfc88b5fa242e361" target="_top" xlink:title="Die Methode liefert das Objekt des gegebenen Kindobjekttests zurück. ">
<polygon fill="white" stroke="black" points="551.5,-284 551.5,-318 706.5,-318 706.5,-284 551.5,-284"/>
<text text-anchor="start" x="559.5" y="-305" font-family="Helvetica,sans-Serif" font-size="10.00">okw.FrameObjectDictionary</text>
<text text-anchor="middle" x="629" y="-292" font-family="Helvetica,sans-Serif" font-size="10.00">_Sngltn.getChildObjectByName</text>
</a>
</g>
<!-- Node651&#45;&gt;Node657 -->
<g id="edge16" class="edge"><title>Node651&#45;&gt;Node657</title>
<path fill="none" stroke="midnightblue" d="M466.65,-228.044C488.726,-240.416 519.793,-257.165 548,-270 555.683,-273.496 563.886,-276.948 572.012,-280.207"/>
<polygon fill="midnightblue" stroke="midnightblue" points="570.894,-283.528 581.481,-283.935 573.459,-277.015 570.894,-283.528"/>
</g>
<!-- Node653 -->
<g id="node9" class="node"><title>Node653</title>
<a xlink:href="classokw_1_1log_1_1_logger___sngltn.html#a313f97c79ba4662d9daaf7f537dd02f4" target="_top" xlink:title="Loggt eine Nachricht. ">
<polygon fill="white" stroke="black" points="759,-239 759,-273 893,-273 893,-239 759,-239"/>
<text text-anchor="start" x="767" y="-260" font-family="Helvetica,sans-Serif" font-size="10.00">okw.log.Logger_Sngltn.Log</text>
<text text-anchor="middle" x="826" y="-247" font-family="Helvetica,sans-Serif" font-size="10.00">PrintDebug</text>
</a>
</g>
<!-- Node652&#45;&gt;Node653 -->
<g id="edge8" class="edge"><title>Node652&#45;&gt;Node653</title>
<path fill="none" stroke="midnightblue" d="M703.477,-228.013C718.262,-231.39 733.815,-234.942 748.691,-238.341"/>
<polygon fill="midnightblue" stroke="midnightblue" points="748.336,-241.85 758.864,-240.664 749.895,-235.025 748.336,-241.85"/>
</g>
<!-- Node654 -->
<g id="node11" class="node"><title>Node654</title>
<a xlink:href="classokw_1_1_log_messenger.html#af225d1f037d47b3b085175c09d78bdd2" target="_top" xlink:title="Holt die Log&#45;Meldung für MethodeNmae/Textkey ohne weitere Parameter. ">
<polygon fill="white" stroke="black" points="746,-199.5 746,-220.5 906,-220.5 906,-199.5 746,-199.5"/>
<text text-anchor="middle" x="826" y="-207.5" font-family="Helvetica,sans-Serif" font-size="10.00">okw.LogMessenger.GetMessage</text>
</a>
</g>
<!-- Node652&#45;&gt;Node654 -->
<g id="edge10" class="edge"><title>Node652&#45;&gt;Node654</title>
<path fill="none" stroke="midnightblue" d="M709.696,-210.59C718.25,-210.547 726.989,-210.503 735.643,-210.459"/>
<polygon fill="midnightblue" stroke="midnightblue" points="735.766,-213.958 745.748,-210.407 735.731,-206.958 735.766,-213.958"/>
</g>
<!-- Node655 -->
<g id="node13" class="node"><title>Node655</title>
<a xlink:href="classokw_1_1_log_messenger.html#a530cd6ab82ec82a04206a2e976ec06e3" target="_top" xlink:title="Interne Kernfunktion holt die Log&#45;Meldung mit Platzhaltern aus der XML&#45;Datei. ">
<polygon fill="white" stroke="black" points="942.5,-199.5 942.5,-220.5 1109.5,-220.5 1109.5,-199.5 942.5,-199.5"/>
<text text-anchor="middle" x="1026" y="-207.5" font-family="Helvetica,sans-Serif" font-size="10.00">okw.LogMessenger.ReadMessage</text>
</a>
</g>
<!-- Node654&#45;&gt;Node655 -->
<g id="edge12" class="edge"><title>Node654&#45;&gt;Node655</title>
<path fill="none" stroke="midnightblue" d="M906.195,-210C914.709,-210 923.423,-210 932.075,-210"/>
<polygon fill="midnightblue" stroke="midnightblue" points="932.189,-213.5 942.189,-210 932.189,-206.5 932.189,-213.5"/>
</g>
<!-- Node656 -->
<g id="node15" class="node"><title>Node656</title>
<a xlink:href="classokw_1_1_o_k_w___xml_reader.html#ab920b5335a2e1429c14cc5f8e79f39eb" target="_top" xlink:title="Lies den TextContent eines Tag. ">
<polygon fill="white" stroke="black" points="1146,-193 1146,-227 1298,-227 1298,-193 1146,-193"/>
<text text-anchor="start" x="1154" y="-214" font-family="Helvetica,sans-Serif" font-size="10.00">okw.OKW_XmlReader.getText</text>
<text text-anchor="middle" x="1222" y="-201" font-family="Helvetica,sans-Serif" font-size="10.00">ContentSingleValue</text>
</a>
</g>
<!-- Node655&#45;&gt;Node656 -->
<g id="edge14" class="edge"><title>Node655&#45;&gt;Node656</title>
<path fill="none" stroke="midnightblue" d="M1109.69,-210C1118.29,-210 1127.04,-210 1135.67,-210"/>
<polygon fill="midnightblue" stroke="midnightblue" points="1135.72,-213.5 1145.72,-210 1135.72,-206.5 1135.72,-213.5"/>
</g>
<!-- Node657&#45;&gt;Node653 -->
<g id="edge18" class="edge"><title>Node657&#45;&gt;Node653</title>
<path fill="none" stroke="midnightblue" d="M703.477,-283.987C718.262,-280.61 733.815,-277.058 748.691,-273.659"/>
<polygon fill="midnightblue" stroke="midnightblue" points="749.895,-276.975 758.864,-271.336 748.336,-270.15 749.895,-276.975"/>
</g>
<!-- Node657&#45;&gt;Node654 -->
<g id="edge20" class="edge"><title>Node657&#45;&gt;Node654</title>
<path fill="none" stroke="midnightblue" d="M652.513,-283.801C675.367,-267.812 711.572,-244.362 746,-230 751.81,-227.577 757.983,-225.396 764.225,-223.445"/>
<polygon fill="midnightblue" stroke="midnightblue" points="765.433,-226.738 774.046,-220.569 763.466,-220.021 765.433,-226.738"/>
</g>
<!-- Node658&#45;&gt;Node653 -->
<g id="edge28" class="edge"><title>Node658&#45;&gt;Node653</title>
<path fill="none" stroke="midnightblue" d="M449.711,-124.589C465.278,-137.87 492.034,-161.732 512,-185 530.305,-206.332 523.561,-223.113 548,-237 608.932,-271.625 689.928,-273.146 748.767,-267.942"/>
<polygon fill="midnightblue" stroke="midnightblue" points="749.131,-271.423 758.748,-266.976 748.457,-264.455 749.131,-271.423"/>
</g>
<!-- Node659 -->
<g id="node23" class="node"><title>Node659</title>
<a xlink:href="classokw_1_1log_1_1_logger___sngltn.html#a8ebceaddd6cc6963ddb8e08c72ea808c" target="_top" xlink:title="LogPrint Function: Prints the values of expressions to the results file. ">
<polygon fill="white" stroke="black" points="759,-40 759,-74 893,-74 893,-40 759,-40"/>
<text text-anchor="start" x="767" y="-61" font-family="Helvetica,sans-Serif" font-size="10.00">okw.log.Logger_Sngltn.Log</text>
<text text-anchor="middle" x="826" y="-48" font-family="Helvetica,sans-Serif" font-size="10.00">Print</text>
</a>
</g>
<!-- Node658&#45;&gt;Node659 -->
<g id="edge24" class="edge"><title>Node658&#45;&gt;Node659</title>
<path fill="none" stroke="midnightblue" d="M466.745,-103.363C488.868,-95.894 519.952,-86.3228 548,-81 615.096,-68.2668 692.599,-62.2794 748.7,-59.4697"/>
<polygon fill="midnightblue" stroke="midnightblue" points="749.098,-62.9548 758.919,-58.9811 748.763,-55.9628 749.098,-62.9548"/>
</g>
<!-- Node660 -->
<g id="node25" class="node"><title>Node660</title>
<a xlink:href="classokw_1_1log_1_1_logger___sngltn.html#aa29d396a2b9df1ac57079d777c548181" target="_top" xlink:title="LogException Function: Logs a Script Exception to the results file. ">
<polygon fill="white" stroke="black" points="562,-0 562,-34 696,-34 696,-0 562,-0"/>
<text text-anchor="start" x="570" y="-21" font-family="Helvetica,sans-Serif" font-size="10.00">okw.log.Logger_Sngltn.Log</text>
<text text-anchor="middle" x="629" y="-8" font-family="Helvetica,sans-Serif" font-size="10.00">Exception</text>
</a>
</g>
<!-- Node658&#45;&gt;Node660 -->
<g id="edge26" class="edge"><title>Node658&#45;&gt;Node660</title>
<path fill="none" stroke="midnightblue" d="M452.7,-103.495C473.784,-89.6632 512.688,-65.1004 548,-48 555.322,-44.4541 563.162,-41.0241 570.974,-37.819"/>
<polygon fill="midnightblue" stroke="midnightblue" points="572.468,-40.9912 580.454,-34.0283 569.869,-34.4916 572.468,-40.9912"/>
</g>
<!-- Node661 -->
<g id="node28" class="node"><title>Node661</title>
<a xlink:href="classokw_1_1core_1_1_o_k_w___current_object___sngltn.html#a01b48f2c86a2f91909143ee9063dfd86" target="_top" xlink:title="Methode gibt alle wichtigen Informationen zum aktuellen Objekt aus. ">
<polygon fill="white" stroke="black" points="554.5,-90 554.5,-124 703.5,-124 703.5,-90 554.5,-90"/>
<text text-anchor="start" x="562.5" y="-111" font-family="Helvetica,sans-Serif" font-size="10.00">okw.core.OKW_CurrentObject</text>
<text text-anchor="middle" x="629" y="-98" font-family="Helvetica,sans-Serif" font-size="10.00">_Sngltn.LogObjectData</text>
</a>
</g>
<!-- Node658&#45;&gt;Node661 -->
<g id="edge30" class="edge"><title>Node658&#45;&gt;Node661</title>
<path fill="none" stroke="midnightblue" d="M511.507,-111.284C522.131,-110.896 533.126,-110.495 543.933,-110.101"/>
<polygon fill="midnightblue" stroke="midnightblue" points="544.353,-113.589 554.219,-109.726 544.098,-106.593 544.353,-113.589"/>
</g>
<!-- Node664 -->
<g id="node36" class="node"><title>Node664</title>
<a xlink:href="classokw_1_1core_1_1_core.html#aafe6e3d88e810dabf350b37058d4af97" target="_top" xlink:title="Setter zum Setzen des aktuellen Zustandes. ">
<polygon fill="white" stroke="black" points="563.5,-142 563.5,-176 694.5,-176 694.5,-142 563.5,-142"/>
<text text-anchor="start" x="571.5" y="-163" font-family="Helvetica,sans-Serif" font-size="10.00">okw.core.Core.SetCurrent</text>
<text text-anchor="middle" x="629" y="-150" font-family="Helvetica,sans-Serif" font-size="10.00">State</text>
</a>
</g>
<!-- Node658&#45;&gt;Node664 -->
<g id="edge40" class="edge"><title>Node658&#45;&gt;Node664</title>
<path fill="none" stroke="midnightblue" d="M482.015,-124.551C503.252,-129.528 529.179,-135.604 553.31,-141.26"/>
<polygon fill="midnightblue" stroke="midnightblue" points="552.631,-144.696 563.166,-143.57 554.228,-137.88 552.631,-144.696"/>
</g>
<!-- Node661&#45;&gt;Node654 -->
<g id="edge36" class="edge"><title>Node661&#45;&gt;Node654</title>
<path fill="none" stroke="midnightblue" d="M695.432,-124.095C700.587,-126.668 705.521,-129.618 710,-133 733.02,-150.38 722.716,-169.975 746,-187 750.447,-190.252 755.345,-193.046 760.459,-195.445"/>
<polygon fill="midnightblue" stroke="midnightblue" points="759.271,-198.742 769.848,-199.352 761.961,-192.279 759.271,-198.742"/>
</g>
<!-- Node661&#45;&gt;Node659 -->
<g id="edge34" class="edge"><title>Node661&#45;&gt;Node659</title>
<path fill="none" stroke="midnightblue" d="M696.245,-89.9327C713.11,-85.6522 731.339,-81.0257 748.653,-76.6313"/>
<polygon fill="midnightblue" stroke="midnightblue" points="749.892,-79.9278 758.724,-74.0752 748.17,-73.1429 749.892,-79.9278"/>
</g>
<!-- Node662 -->
<g id="node30" class="node"><title>Node662</title>
<a xlink:href="classokw_1_1log_1_1_logger___sngltn.html#ab4fc711bb4c754f251372ff3b14ab9c9" target="_top" xlink:title="Creates a new hierarchical level in the results file. ">
<polygon fill="white" stroke="black" points="757.5,-144 757.5,-178 894.5,-178 894.5,-144 757.5,-144"/>
<text text-anchor="start" x="765.5" y="-165" font-family="Helvetica,sans-Serif" font-size="10.00">okw.log.Logger_Sngltn.Res</text>
<text text-anchor="middle" x="826" y="-152" font-family="Helvetica,sans-Serif" font-size="10.00">OpenList</text>
</a>
</g>
<!-- Node661&#45;&gt;Node662 -->
<g id="edge32" class="edge"><title>Node661&#45;&gt;Node662</title>
<path fill="none" stroke="midnightblue" d="M691.062,-124.012C711.118,-129.51 733.522,-135.651 754.221,-141.325"/>
<polygon fill="midnightblue" stroke="midnightblue" points="753.342,-144.713 763.912,-143.981 755.193,-137.962 753.342,-144.713"/>
</g>
<!-- Node663 -->
<g id="node34" class="node"><title>Node663</title>
<a xlink:href="classokw_1_1log_1_1_logger___sngltn.html#a9b54104f7e0b4c0a473877b19dfaed56" target="_top" xlink:title="Closes a hierarchical level in the results file that was opened with ResOpenList. ...">
<polygon fill="white" stroke="black" points="757.5,-92 757.5,-126 894.5,-126 894.5,-92 757.5,-92"/>
<text text-anchor="start" x="765.5" y="-113" font-family="Helvetica,sans-Serif" font-size="10.00">okw.log.Logger_Sngltn.Res</text>
<text text-anchor="middle" x="826" y="-100" font-family="Helvetica,sans-Serif" font-size="10.00">CloseList</text>
</a>
</g>
<!-- Node661&#45;&gt;Node663 -->
<g id="edge38" class="edge"><title>Node661&#45;&gt;Node663</title>
<path fill="none" stroke="midnightblue" d="M703.758,-107.759C717.947,-107.903 732.836,-108.054 747.147,-108.199"/>
<polygon fill="midnightblue" stroke="midnightblue" points="747.413,-111.702 757.448,-108.304 747.484,-104.703 747.413,-111.702"/>
</g>
</g>
</svg>
