<?xml version="1.0" encoding="UTF-8" standalone="no"?>
<!DOCTYPE svg PUBLIC "-//W3C//DTD SVG 1.1//EN"
 "http://www.w3.org/Graphics/SVG/1.1/DTD/svg11.dtd">
<!-- Generated by graphviz version 2.38.0 (20140413.2041)
 -->
<!-- Title: okw.OKW_Const_Sngltn.SplitVSEP Pages: 1 -->
<!--zoomable 102 -->
<svg id="main" version="1.1" xmlns="http://www.w3.org/2000/svg" xmlns:xlink="http://www.w3.org/1999/xlink" xml:space="preserve" onload="init(evt)">
<style type="text/css"><![CDATA[
.edge:hover path { stroke: red; }
.edge:hover polygon { stroke: red; fill: red; }
]]></style>
<script type="text/javascript"><![CDATA[
var edges = document.getElementsByTagName('g');
if (edges && edges.length) {
  for (var i=0;i<edges.length;i++) {
    if (edges[i].id.substr(0,4)=='edge') {
      edges[i].setAttribute('class','edge');
    }
  }
}
]]></script>
        <defs>
                <circle id="rim" cx="0" cy="0" r="7"/>
                <circle id="rim2" cx="0" cy="0" r="3.5"/>
                <g id="zoomPlus">
                        <use xlink:href="#rim" fill="#404040">
                                <set attributeName="fill" to="#808080" begin="zoomplus.mouseover" end="zoomplus.mouseout"/>
                        </use>
                        <path d="M-4,0h8M0,-4v8" fill="none" stroke="white" stroke-width="1.5" pointer-events="none"/>
                </g>
                <g id="zoomMin">
                        <use xlink:href="#rim" fill="#404040">
                                <set attributeName="fill" to="#808080" begin="zoomminus.mouseover" end="zoomminus.mouseout"/>
                        </use>
                        <path d="M-4,0h8" fill="none" stroke="white" stroke-width="1.5" pointer-events="none"/>
                </g>
                <g id="dirArrow">
                        <path fill="none" stroke="white" stroke-width="1.5" d="M0,-3.0v7 M-2.5,-0.5L0,-3.0L2.5,-0.5"/>
                </g>
               <g id="resetDef">
                       <use xlink:href="#rim2" fill="#404040">
                               <set attributeName="fill" to="#808080" begin="reset.mouseover" end="reset.mouseout"/>
                       </use>
               </g>
        </defs>

<script type="text/javascript">
var viewWidth = 741;
var viewHeight = 102;
var sectionId = 'dynsection-15';
</script>
<script xlink:href="svgpan.js"/>
<svg id="graph" class="graph">
<g id="viewport">
<title>okw.OKW_Const_Sngltn.SplitVSEP</title>
<polygon fill="white" stroke="none" points="-4,4 -4,-97.5 737,-97.5 737,4 -4,4"/>
<!-- Node345 -->
<g id="node1" class="node"><title>Node345</title>
<g id="a_node1"><a xlink:title="Methode trennt einen String und wandelt diesen in einen ListString um.">
<polygon fill="#bfbfbf" stroke="black" points="0,-52 0,-71 177,-71 177,-52 0,-52"/>
<text text-anchor="middle" x="88.5" y="-59" font-family="Helvetica,sans-Serif" font-size="10.00">okw.OKW_Const_Sngltn.SplitVSEP</text>
</a>
</g>
</g>
<!-- Node346 -->
<g id="node2" class="node"><title>Node346</title>
<g id="a_node2"><a xlink:href="classokw_1_1_o_k_w___helper.html#a268ba5b6db697acd241f3ebea12c4194" target="_top" xlink:title="Splittet einen String am angegebenen Separator auf.">
<polygon fill="white" stroke="black" points="214,-74 214,-93 360,-93 360,-74 214,-74"/>
<text text-anchor="middle" x="287" y="-81" font-family="Helvetica,sans-Serif" font-size="10.00">okw.OKW_Helper.splitString</text>
</a>
</g>
</g>
<!-- Node345&#45;&gt;Node346 -->
<g id="edge1" class="edge"><title>Node345&#45;&gt;Node346</title>
<path fill="none" stroke="midnightblue" d="M174.545,-71.0216C184.245,-72.1075 194.119,-73.2131 203.781,-74.2949"/>
<polygon fill="midnightblue" stroke="midnightblue" points="203.43,-77.7773 213.757,-75.4117 204.209,-70.8207 203.43,-77.7773"/>
</g>
<!-- Node347 -->
<g id="node3" class="node"><title>Node347</title>
<g id="a_node3"><a xlink:href="classokw_1_1_o_k_w___const___sngltn.html#a02c05c79f7ea6e862a81a64ce23941fd" target="_top" xlink:title="Methode ermittelt f端r Internalname und der aktuell eingestellten Sprache den Wert f端r OKWConst.">
<polygon fill="white" stroke="black" points="213,-24.5 213,-54.5 361,-54.5 361,-24.5 213,-24.5"/>
<text text-anchor="start" x="221" y="-42.5" font-family="Helvetica,sans-Serif" font-size="10.00">okw.OKW_Const_Sngltn.Get</text>
<text text-anchor="middle" x="287" y="-31.5" font-family="Helvetica,sans-Serif" font-size="10.00">OKWConst4Internalname</text>
</a>
</g>
</g>
<!-- Node345&#45;&gt;Node347 -->
<g id="edge2" class="edge"><title>Node345&#45;&gt;Node347</title>
<path fill="none" stroke="midnightblue" d="M174.545,-51.9784C183.914,-50.9295 193.446,-49.8622 202.793,-48.8158"/>
<polygon fill="midnightblue" stroke="midnightblue" points="203.296,-52.2814 212.845,-47.6904 202.517,-45.3249 203.296,-52.2814"/>
</g>
<!-- Node348 -->
<g id="node4" class="node"><title>Node348</title>
<g id="a_node4"><a xlink:href="classokw_1_1_o_k_w___const___sngltn.html#a51cde06bf07e855ba4d69ff36b9a27f7" target="_top" xlink:title="Methode ermittelt f端r Internalname und der aktuell eingestellten Sprache den Wert f端r Const.">
<polygon fill="white" stroke="black" points="397,-24.5 397,-54.5 545,-54.5 545,-24.5 397,-24.5"/>
<text text-anchor="start" x="405" y="-42.5" font-family="Helvetica,sans-Serif" font-size="10.00">okw.OKW_Const_Sngltn.Get</text>
<text text-anchor="middle" x="471" y="-31.5" font-family="Helvetica,sans-Serif" font-size="10.00">Const4Internalname</text>
</a>
</g>
</g>
<!-- Node347&#45;&gt;Node348 -->
<g id="edge3" class="edge"><title>Node347&#45;&gt;Node348</title>
<path fill="none" stroke="midnightblue" d="M361.24,-39.5C369.596,-39.5 378.161,-39.5 386.636,-39.5"/>
<polygon fill="midnightblue" stroke="midnightblue" points="386.91,-43.0001 396.91,-39.5 386.91,-36.0001 386.91,-43.0001"/>
</g>
<!-- Node349 -->
<g id="node5" class="node"><title>Node349</title>
<g id="a_node5"><a xlink:href="classokw_1_1log_1_1_logger___sngltn.html#a313f97c79ba4662d9daaf7f537dd02f4" target="_top" xlink:title="Loggt eine Nachricht.">
<polygon fill="white" stroke="black" points="585.5,-49.5 585.5,-79.5 728.5,-79.5 728.5,-49.5 585.5,-49.5"/>
<text text-anchor="start" x="593.5" y="-67.5" font-family="Helvetica,sans-Serif" font-size="10.00">okw.log.Logger_Sngltn.Log</text>
<text text-anchor="middle" x="657" y="-56.5" font-family="Helvetica,sans-Serif" font-size="10.00">PrintDebug</text>
</a>
</g>
</g>
<!-- Node348&#45;&gt;Node349 -->
<g id="edge4" class="edge"><title>Node348&#45;&gt;Node349</title>
<path fill="none" stroke="midnightblue" d="M545.25,-49.4525C555.172,-50.8005 565.397,-52.1899 575.438,-53.5541"/>
<polygon fill="midnightblue" stroke="midnightblue" points="575.019,-57.0292 585.399,-54.9075 575.962,-50.093 575.019,-57.0292"/>
</g>
<!-- Node350 -->
<g id="node6" class="node"><title>Node350</title>
<g id="a_node6"><a xlink:href="classokw_1_1_o_k_w___xml_reader.html#ab920b5335a2e1429c14cc5f8e79f39eb" target="_top" xlink:title="Lies den TextContent eines Tag.">
<polygon fill="white" stroke="black" points="581,-0.5 581,-30.5 733,-30.5 733,-0.5 581,-0.5"/>
<text text-anchor="start" x="589" y="-18.5" font-family="Helvetica,sans-Serif" font-size="10.00">okw.OKW_XmlReader.getText</text>
<text text-anchor="middle" x="657" y="-7.5" font-family="Helvetica,sans-Serif" font-size="10.00">ContentSingleValue</text>
</a>
</g>
</g>
<!-- Node348&#45;&gt;Node350 -->
<g id="edge5" class="edge"><title>Node348&#45;&gt;Node350</title>
<path fill="none" stroke="midnightblue" d="M545.25,-29.9456C553.678,-28.8463 562.325,-27.7185 570.892,-26.6011"/>
<polygon fill="midnightblue" stroke="midnightblue" points="571.43,-30.0605 580.894,-25.2965 570.525,-23.1193 571.43,-30.0605"/>
</g>
</g>
</svg>
        <g id="navigator" transform="translate(0 0)" fill="#404254">
                <rect fill="#f2f5e9" fill-opacity="0.5" stroke="#606060" stroke-width=".5" x="0" y="0" width="60" height="60"/>
                <use id="zoomplus" xlink:href="#zoomPlus" x="17" y="9" onmousedown="handleZoom(evt,'in')"/>
                <use id="zoomminus" xlink:href="#zoomMin" x="42" y="9" onmousedown="handleZoom(evt,'out')"/>
                <use id="reset" xlink:href="#resetDef" x="30" y="36" onmousedown="handleReset()"/>
                <g id="arrowUp" xlink:href="#dirArrow" transform="translate(30 24)" onmousedown="handlePan(0,-1)">
                  <use xlink:href="#rim" fill="#404040">
                        <set attributeName="fill" to="#808080" begin="arrowUp.mouseover" end="arrowUp.mouseout"/>
                  </use>
                  <path fill="none" stroke="white" stroke-width="1.5" d="M0,-3.0v7 M-2.5,-0.5L0,-3.0L2.5,-0.5"/>
                </g>
                <g id="arrowRight" xlink:href="#dirArrow" transform="rotate(90) translate(36 -43)" onmousedown="handlePan(1,0)">
                  <use xlink:href="#rim" fill="#404040">
                        <set attributeName="fill" to="#808080" begin="arrowRight.mouseover" end="arrowRight.mouseout"/>
                  </use>
                  <path fill="none" stroke="white" stroke-width="1.5" d="M0,-3.0v7 M-2.5,-0.5L0,-3.0L2.5,-0.5"/>
                </g>
                <g id="arrowDown" xlink:href="#dirArrow" transform="rotate(180) translate(-30 -48)" onmousedown="handlePan(0,1)">
                  <use xlink:href="#rim" fill="#404040">
                        <set attributeName="fill" to="#808080" begin="arrowDown.mouseover" end="arrowDown.mouseout"/>
                  </use>
                  <path fill="none" stroke="white" stroke-width="1.5" d="M0,-3.0v7 M-2.5,-0.5L0,-3.0L2.5,-0.5"/>
                </g>
                <g id="arrowLeft" xlink:href="#dirArrow" transform="rotate(270) translate(-36 17)" onmousedown="handlePan(-1,0)">
                  <use xlink:href="#rim" fill="#404040">
                        <set attributeName="fill" to="#808080" begin="arrowLeft.mouseover" end="arrowLeft.mouseout"/>
                  </use>
                  <path fill="none" stroke="white" stroke-width="1.5" d="M0,-3.0v7 M-2.5,-0.5L0,-3.0L2.5,-0.5"/>
                </g>
        </g>
        <svg viewBox="0 0 15 15" width="100%" height="30px" preserveAspectRatio="xMaxYMin meet">
         <g id="arrow_out" transform="scale(0.3 0.3)">
          <a xlink:href="classokw_1_1_o_k_w___const___sngltn_af0f3854ebde20c9198c0d99b0de28d5c_cgraph_org.svg" target="_base">
           <rect id="button" ry="5" rx="5" y="6" x="6" height="38" width="38"
                fill="#f2f5e9" fill-opacity="0.5" stroke="#606060" stroke-width="1.0"/>
           <path id="arrow"
             d="M 11.500037,31.436501 C 11.940474,20.09759 22.043105,11.32322 32.158766,21.979434 L 37.068811,17.246167 C 37.068811,17.246167 37.088388,32 37.088388,32 L 22.160133,31.978069 C 22.160133,31.978069 26.997745,27.140456 26.997745,27.140456 C 18.528582,18.264221 13.291696,25.230495 11.500037,31.436501 z"
             style="fill:#404040;"/>
          </a>
         </g>
        </svg>
</svg>
