<?xml version="1.0" encoding="UTF-8" standalone="no"?>
<!DOCTYPE svg PUBLIC "-//W3C//DTD SVG 1.1//EN"
 "http://www.w3.org/Graphics/SVG/1.1/DTD/svg11.dtd">
<!-- Generated by graphviz version 2.26.3 (20100126.1600)
 -->
<!-- Title: okw.log.Log2Console.BlankBefore Pages: 1 -->
<svg width="792pt" height="454pt"
 viewBox="0.00 0.00 792.00 454.00" xmlns="http://www.w3.org/2000/svg" xmlns:xlink="http://www.w3.org/1999/xlink">
<g id="graph1" class="graph" transform="scale(1 1) rotate(0) translate(4 450)">
<title>okw.log.Log2Console.BlankBefore</title>
<polygon fill="white" stroke="white" points="-4,5 -4,-450 789,-450 789,5 -4,5"/>
<!-- Node2 -->
<g id="node1" class="node"><title>Node2</title>
<polygon fill="#bfbfbf" stroke="black" points="0,-137 0,-171 138,-171 138,-137 0,-137"/>
<text text-anchor="start" x="8" y="-158" font-family="Helvetica,sans-Serif" font-size="10.00">okw.log.Log2Console.Blank</text>
<text text-anchor="middle" x="69" y="-145" font-family="Helvetica,sans-Serif" font-size="10.00">Before</text>
</g>
<!-- Node3 -->
<g id="node3" class="node"><title>Node3</title>
<a xlink:href="classokw_1_1log_1_1_log2_console.html#ae43e369c8f55c561cdd911cda4f97031" target="_top" xlink:title="Method resets . ">
<polygon fill="white" stroke="black" points="193.5,-143.5 193.5,-164.5 328.5,-164.5 328.5,-143.5 193.5,-143.5"/>
<text text-anchor="middle" x="261" y="-151.5" font-family="Helvetica,sans-Serif" font-size="10.00">okw.log.Log2Console.reset</text>
</a>
</g>
<!-- Node2&#45;&gt;Node3 -->
<g id="edge2" class="edge"><title>Node2&#45;&gt;Node3</title>
<path fill="none" stroke="midnightblue" d="M148.27,-154C163.195,-154 178.676,-154 193.21,-154"/>
<polygon fill="midnightblue" stroke="midnightblue" points="148.045,-150.5 138.045,-154 148.045,-157.5 148.045,-150.5"/>
</g>
<!-- Node5 -->
<g id="node7" class="node"><title>Node5</title>
<a xlink:href="classokw_1_1log_1_1_log2_console.html#ab2120d2a3c68dc03a6a62d02570bfbd6" target="_top" xlink:title="ResCloseList: Closes the outline level. ">
<polygon fill="white" stroke="black" points="174.5,-286.5 174.5,-307.5 347.5,-307.5 347.5,-286.5 174.5,-286.5"/>
<text text-anchor="middle" x="261" y="-294.5" font-family="Helvetica,sans-Serif" font-size="10.00">okw.log.Log2Console.ResCloseList</text>
</a>
</g>
<!-- Node2&#45;&gt;Node5 -->
<g id="edge6" class="edge"><title>Node2&#45;&gt;Node5</title>
<path fill="none" stroke="midnightblue" d="M100.401,-177.387C142.524,-208.76 215.603,-263.189 246.521,-286.216"/>
<polygon fill="midnightblue" stroke="midnightblue" points="102.27,-174.415 92.1597,-171.249 98.0891,-180.029 102.27,-174.415"/>
</g>
<!-- Node14 -->
<g id="node25" class="node"><title>Node14</title>
<a xlink:href="classokw_1_1log_1_1_log2_console.html#af99ba81cf4d8e14d5fe19070f12ae5cb" target="_top" xlink:title="LogFunctionStartDebug: Opens a debug outline level with the . ">
<polygon fill="white" stroke="black" points="176,-98.5 176,-119.5 346,-119.5 346,-98.5 176,-98.5"/>
<text text-anchor="middle" x="261" y="-106.5" font-family="Helvetica,sans-Serif" font-size="10.00">okw.log.Log2Console.ResOpenList</text>
</a>
</g>
<!-- Node2&#45;&gt;Node14 -->
<g id="edge24" class="edge"><title>Node2&#45;&gt;Node14</title>
<path fill="none" stroke="midnightblue" d="M147.92,-135.503C171.197,-130.048 195.858,-124.268 216.19,-119.502"/>
<polygon fill="midnightblue" stroke="midnightblue" points="146.983,-132.128 138.045,-137.818 148.58,-138.943 146.983,-132.128"/>
</g>
<!-- Node4 -->
<g id="node5" class="node"><title>Node4</title>
<a xlink:href="classokw_1_1log_1_1_log2_console.html#ab54c67895506d0e6786be1b7c4f1ac78" target="_top" xlink:title="LogTestcaseStart: ">
<polygon fill="white" stroke="black" points="612,-133 612,-167 782,-167 782,-133 612,-133"/>
<text text-anchor="start" x="620" y="-154" font-family="Helvetica,sans-Serif" font-size="10.00">okw.log.Log2Console.LogTestcase</text>
<text text-anchor="middle" x="697" y="-141" font-family="Helvetica,sans-Serif" font-size="10.00">Start</text>
</a>
</g>
<!-- Node3&#45;&gt;Node4 -->
<g id="edge4" class="edge"><title>Node3&#45;&gt;Node4</title>
<path fill="none" stroke="midnightblue" d="M338.741,-153.287C415.546,-152.582 532.719,-151.507 611.964,-150.78"/>
<polygon fill="midnightblue" stroke="midnightblue" points="338.614,-149.788 328.647,-153.379 338.678,-156.787 338.614,-149.788"/>
</g>
<!-- Node6 -->
<g id="node9" class="node"><title>Node6</title>
<a xlink:href="classokw_1_1log_1_1_log2_console.html#ae5d97f0d2c5d086474b811f700e97eb1" target="_top" xlink:title="LogFunctionEnd: ">
<polygon fill="white" stroke="black" points="387,-418.5 387,-439.5 571,-439.5 571,-418.5 387,-418.5"/>
<text text-anchor="middle" x="479" y="-426.5" font-family="Helvetica,sans-Serif" font-size="10.00">okw.log.Log2Console.LogFunctionEnd</text>
</a>
</g>
<!-- Node5&#45;&gt;Node6 -->
<g id="edge8" class="edge"><title>Node5&#45;&gt;Node6</title>
<path fill="none" stroke="midnightblue" d="M275.592,-315.38C296.7,-340.635 338.266,-385.593 384,-409 391.502,-412.84 399.697,-415.942 408.029,-418.449"/>
<polygon fill="midnightblue" stroke="midnightblue" points="278.287,-313.147 269.241,-307.63 272.872,-317.583 278.287,-313.147"/>
</g>
<!-- Node8 -->
<g id="node13" class="node"><title>Node8</title>
<a xlink:href="classokw_1_1log_1_1_log2_console.html#a06fc14df2dcb5b2b28b65b2a5ca07e25" target="_top" xlink:title="okw.log.Log2Console.LogFunction\lStart">
<polygon fill="white" stroke="black" points="395.5,-182 395.5,-216 562.5,-216 562.5,-182 395.5,-182"/>
<text text-anchor="start" x="403.5" y="-203" font-family="Helvetica,sans-Serif" font-size="10.00">okw.log.Log2Console.LogFunction</text>
<text text-anchor="middle" x="479" y="-190" font-family="Helvetica,sans-Serif" font-size="10.00">Start</text>
</a>
</g>
<!-- Node5&#45;&gt;Node8 -->
<g id="edge12" class="edge"><title>Node5&#45;&gt;Node8</title>
<path fill="none" stroke="midnightblue" d="M284.7,-280.58C308.776,-264.525 347.599,-240.32 384,-225 391.802,-221.717 400.138,-218.731 408.511,-216.05"/>
<polygon fill="midnightblue" stroke="midnightblue" points="282.56,-277.802 276.231,-286.299 286.477,-283.603 282.56,-277.802"/>
</g>
<!-- Node10 -->
<g id="node17" class="node"><title>Node10</title>
<a xlink:href="classokw_1_1log_1_1_log2_console.html#a0cfb34192c7f33171638dcde05db6a99" target="_top" xlink:title="LogKeyWordEnd: ">
<polygon fill="white" stroke="black" points="406,-366 406,-400 552,-400 552,-366 406,-366"/>
<text text-anchor="start" x="414" y="-387" font-family="Helvetica,sans-Serif" font-size="10.00">okw.log.Log2Console.LogKey</text>
<text text-anchor="middle" x="479" y="-374" font-family="Helvetica,sans-Serif" font-size="10.00">WordEnd</text>
</a>
</g>
<!-- Node5&#45;&gt;Node10 -->
<g id="edge16" class="edge"><title>Node5&#45;&gt;Node10</title>
<path fill="none" stroke="midnightblue" d="M289.179,-312.625C313.687,-325.754 350.438,-344.348 384,-357 392.56,-360.227 401.692,-363.241 410.782,-365.989"/>
<polygon fill="midnightblue" stroke="midnightblue" points="290.562,-309.394 280.102,-307.712 287.23,-315.55 290.562,-309.394"/>
</g>
<!-- Node11 -->
<g id="node19" class="node"><title>Node11</title>
<a xlink:href="classokw_1_1log_1_1_log2_console.html#a3d7f0164c5d9db37f32b9678b96bd2af" target="_top" xlink:title="LogTestcaseEnd: ">
<polygon fill="white" stroke="black" points="385.5,-326.5 385.5,-347.5 572.5,-347.5 572.5,-326.5 385.5,-326.5"/>
<text text-anchor="middle" x="479" y="-334.5" font-family="Helvetica,sans-Serif" font-size="10.00">okw.log.Log2Console.LogTestcaseEnd</text>
</a>
</g>
<!-- Node5&#45;&gt;Node11 -->
<g id="edge18" class="edge"><title>Node5&#45;&gt;Node11</title>
<path fill="none" stroke="midnightblue" d="M328.224,-309.335C358.161,-314.828 393.053,-321.23 421.728,-326.491"/>
<polygon fill="midnightblue" stroke="midnightblue" points="328.744,-305.872 318.277,-307.51 327.481,-312.757 328.744,-305.872"/>
</g>
<!-- Node12 -->
<g id="node21" class="node"><title>Node12</title>
<a xlink:href="classokw_1_1log_1_1_log2_console.html#a6adb44f183bebb3b2251c595e933e5f7" target="_top" xlink:title="LogSequenceEnd: ">
<polygon fill="white" stroke="black" points="384,-286.5 384,-307.5 574,-307.5 574,-286.5 384,-286.5"/>
<text text-anchor="middle" x="479" y="-294.5" font-family="Helvetica,sans-Serif" font-size="10.00">okw.log.Log2Console.LogSequenceEnd</text>
</a>
</g>
<!-- Node5&#45;&gt;Node12 -->
<g id="edge20" class="edge"><title>Node5&#45;&gt;Node12</title>
<path fill="none" stroke="midnightblue" d="M357.878,-297C366.527,-297 375.279,-297 383.912,-297"/>
<polygon fill="midnightblue" stroke="midnightblue" points="357.786,-293.5 347.786,-297 357.786,-300.5 357.786,-293.5"/>
</g>
<!-- Node13 -->
<g id="node23" class="node"><title>Node13</title>
<a xlink:href="classokw_1_1log_1_1_log2_console.html#a5f0ef403d1d3c2c093b2a8b0d6ded070" target="_top" xlink:title="ResCloseListDebug: ">
<polygon fill="white" stroke="black" points="400.5,-234 400.5,-268 557.5,-268 557.5,-234 400.5,-234"/>
<text text-anchor="start" x="408.5" y="-255" font-family="Helvetica,sans-Serif" font-size="10.00">okw.log.Log2Console.ResClose</text>
<text text-anchor="middle" x="479" y="-242" font-family="Helvetica,sans-Serif" font-size="10.00">ListDebug</text>
</a>
</g>
<!-- Node5&#45;&gt;Node13 -->
<g id="edge22" class="edge"><title>Node5&#45;&gt;Node13</title>
<path fill="none" stroke="midnightblue" d="M320.877,-284.365C345.357,-279.2 374.018,-273.152 400.165,-267.635"/>
<polygon fill="midnightblue" stroke="midnightblue" points="320.076,-280.957 311.014,-286.447 321.521,-287.807 320.076,-280.957"/>
</g>
<!-- Node7 -->
<g id="node11" class="node"><title>Node7</title>
<a xlink:href="classokw_1_1log_1_1_log2_console.html#a02a98178389196a6ac48021d5b116d7d" target="_top" xlink:title="LogFunctionEndDebug: ">
<polygon fill="white" stroke="black" points="613.5,-412 613.5,-446 780.5,-446 780.5,-412 613.5,-412"/>
<text text-anchor="start" x="621.5" y="-433" font-family="Helvetica,sans-Serif" font-size="10.00">okw.log.Log2Console.LogFunction</text>
<text text-anchor="middle" x="697" y="-420" font-family="Helvetica,sans-Serif" font-size="10.00">EndDebug</text>
</a>
</g>
<!-- Node6&#45;&gt;Node7 -->
<g id="edge10" class="edge"><title>Node6&#45;&gt;Node7</title>
<path fill="none" stroke="midnightblue" d="M581.32,-429C591.984,-429 602.734,-429 613.159,-429"/>
<polygon fill="midnightblue" stroke="midnightblue" points="581.136,-425.5 571.136,-429 581.136,-432.5 581.136,-425.5"/>
</g>
<!-- Node9 -->
<g id="node15" class="node"><title>Node9</title>
<a xlink:href="classokw_1_1log_1_1_log2_console.html#ae12be755a9da04599d329cfece22b1ef" target="_top" xlink:title="okw.log.Log2Console.LogFunction\lStartDebug">
<polygon fill="white" stroke="black" points="613.5,-185 613.5,-219 780.5,-219 780.5,-185 613.5,-185"/>
<text text-anchor="start" x="621.5" y="-206" font-family="Helvetica,sans-Serif" font-size="10.00">okw.log.Log2Console.LogFunction</text>
<text text-anchor="middle" x="697" y="-193" font-family="Helvetica,sans-Serif" font-size="10.00">StartDebug</text>
</a>
</g>
<!-- Node8&#45;&gt;Node9 -->
<g id="edge14" class="edge"><title>Node8&#45;&gt;Node9</title>
<path fill="none" stroke="midnightblue" d="M572.847,-200.291C586.265,-200.476 599.995,-200.665 613.203,-200.847"/>
<polygon fill="midnightblue" stroke="midnightblue" points="572.708,-196.789 562.661,-200.151 572.612,-203.789 572.708,-196.789"/>
</g>
<!-- Node14&#45;&gt;Node8 -->
<g id="edge28" class="edge"><title>Node14&#45;&gt;Node8</title>
<path fill="none" stroke="midnightblue" d="M313.484,-122.422C324.987,-125.822 337.009,-129.734 348,-134 383.503,-147.779 422.376,-167.726 448.481,-181.883"/>
<polygon fill="midnightblue" stroke="midnightblue" points="314.125,-118.964 303.548,-119.569 312.194,-125.693 314.125,-118.964"/>
</g>
<!-- Node15 -->
<g id="node27" class="node"><title>Node15</title>
<a xlink:href="classokw_1_1log_1_1_log2_console.html#a2d42361222359da106d531084f9d283e" target="_top" xlink:title="LogFunctionEnd(String): ">
<polygon fill="white" stroke="black" points="387,-52.5 387,-73.5 571,-73.5 571,-52.5 387,-52.5"/>
<text text-anchor="middle" x="479" y="-60.5" font-family="Helvetica,sans-Serif" font-size="10.00">okw.log.Log2Console.LogFunctionEnd</text>
</a>
</g>
<!-- Node14&#45;&gt;Node15 -->
<g id="edge26" class="edge"><title>Node14&#45;&gt;Node15</title>
<path fill="none" stroke="midnightblue" d="M320.639,-96.3831C340.764,-92.1284 363.356,-87.355 384,-83 398.513,-79.9385 414.273,-76.6185 428.709,-73.5795"/>
<polygon fill="midnightblue" stroke="midnightblue" points="319.731,-92.9977 310.671,-98.4907 321.179,-99.8462 319.731,-92.9977"/>
</g>
<!-- Node16 -->
<g id="node30" class="node"><title>Node16</title>
<a xlink:href="classokw_1_1log_1_1_log2_console.html#a6c848745fc8facac542f043f4bfce4bc" target="_top" xlink:title="okw.log.Log2Console.LogKey\lWordStart">
<polygon fill="white" stroke="black" points="406,-92 406,-126 552,-126 552,-92 406,-92"/>
<text text-anchor="start" x="414" y="-113" font-family="Helvetica,sans-Serif" font-size="10.00">okw.log.Log2Console.LogKey</text>
<text text-anchor="middle" x="479" y="-100" font-family="Helvetica,sans-Serif" font-size="10.00">WordStart</text>
</a>
</g>
<!-- Node14&#45;&gt;Node16 -->
<g id="edge30" class="edge"><title>Node14&#45;&gt;Node16</title>
<path fill="none" stroke="midnightblue" d="M356.464,-109C373.024,-109 390.008,-109 405.854,-109"/>
<polygon fill="midnightblue" stroke="midnightblue" points="356.221,-105.5 346.221,-109 356.221,-112.5 356.221,-105.5"/>
</g>
<!-- Node18 -->
<g id="node35" class="node"><title>Node18</title>
<a xlink:href="classokw_1_1log_1_1_log2_console.html#adea657f55b624397c13bfbf94f2a6d6a" target="_top" xlink:title="LogFunctionStartDebug: Opens a debug outline level with the . ">
<polygon fill="white" stroke="black" points="401.5,-0 401.5,-34 556.5,-34 556.5,-0 401.5,-0"/>
<text text-anchor="start" x="409.5" y="-21" font-family="Helvetica,sans-Serif" font-size="10.00">okw.log.Log2Console.ResOpen</text>
<text text-anchor="middle" x="479" y="-8" font-family="Helvetica,sans-Serif" font-size="10.00">ListDebug</text>
</a>
</g>
<!-- Node14&#45;&gt;Node18 -->
<g id="edge36" class="edge"><title>Node14&#45;&gt;Node18</title>
<path fill="none" stroke="midnightblue" d="M286.54,-93.0891C310.865,-78.4757 348.875,-57.0218 384,-43 392.179,-39.7351 400.911,-36.7316 409.644,-34.0164"/>
<polygon fill="midnightblue" stroke="midnightblue" points="284.651,-90.1414 277.923,-98.3251 288.286,-96.1237 284.651,-90.1414"/>
</g>
<!-- Node16&#45;&gt;Node4 -->
<g id="edge32" class="edge"><title>Node16&#45;&gt;Node4</title>
<path fill="none" stroke="midnightblue" d="M562.216,-124.651C578.499,-127.713 595.597,-130.929 611.939,-134.002"/>
<polygon fill="midnightblue" stroke="midnightblue" points="562.672,-121.175 552.197,-122.766 561.378,-128.055 562.672,-121.175"/>
</g>
<!-- Node17 -->
<g id="node33" class="node"><title>Node17</title>
<a xlink:href="classokw_1_1log_1_1_log2_console.html#a9ec829b2c64f226a7de1d6a8c0ec468f" target="_top" xlink:title="okw.log.Log2Console.LogSequence\lStart">
<polygon fill="white" stroke="black" points="610.5,-81 610.5,-115 783.5,-115 783.5,-81 610.5,-81"/>
<text text-anchor="start" x="618.5" y="-102" font-family="Helvetica,sans-Serif" font-size="10.00">okw.log.Log2Console.LogSequence</text>
<text text-anchor="middle" x="697" y="-89" font-family="Helvetica,sans-Serif" font-size="10.00">Start</text>
</a>
</g>
<!-- Node16&#45;&gt;Node17 -->
<g id="edge34" class="edge"><title>Node16&#45;&gt;Node17</title>
<path fill="none" stroke="midnightblue" d="M562.404,-104.792C578.123,-103.998 594.595,-103.167 610.409,-102.369"/>
<polygon fill="midnightblue" stroke="midnightblue" points="562.008,-101.307 552.197,-105.307 562.361,-108.298 562.008,-101.307"/>
</g>
</g>
</svg>
