<?xml version="1.0" encoding="UTF-8" standalone="no"?>
<!DOCTYPE svg PUBLIC "-//W3C//DTD SVG 1.1//EN"
 "http://www.w3.org/Graphics/SVG/1.1/DTD/svg11.dtd">
<!-- Generated by graphviz version 2.38.0 (20140413.2041)
 -->
<!-- Title: okw.gui.adapter.selenium.SeAnyWindow.getLabel Pages: 1 -->
<svg width="801pt" height="297pt"
 viewBox="0.00 0.00 801.00 296.50" xmlns="http://www.w3.org/2000/svg" xmlns:xlink="http://www.w3.org/1999/xlink">
<g id="graph0" class="graph" transform="scale(1 1) rotate(0) translate(4 292.5)">
<title>okw.gui.adapter.selenium.SeAnyWindow.getLabel</title>
<polygon fill="white" stroke="none" points="-4,4 -4,-292.5 797,-292.5 797,4 -4,4"/>
<!-- Node113 -->
<g id="node1" class="node"><title>Node113</title>
<g id="a_node1"><a xlink:title="Ermittelt den textuellen Inhalt des Labels.">
<polygon fill="#bfbfbf" stroke="black" points="0,-148.5 0,-178.5 140,-178.5 140,-148.5 0,-148.5"/>
<text text-anchor="start" x="8" y="-166.5" font-family="Helvetica,sans-Serif" font-size="10.00">okw.gui.adapter.selenium.</text>
<text text-anchor="middle" x="70" y="-155.5" font-family="Helvetica,sans-Serif" font-size="10.00">SeAnyWindow.getLabel</text>
</a>
</g>
</g>
<!-- Node114 -->
<g id="node2" class="node"><title>Node114</title>
<g id="a_node2"><a xlink:href="classokw_1_1gui_1_1adapter_1_1selenium_1_1_se_any_window.html#ad806d20bf0e42d47e0aa5282532d3230" target="_top" xlink:title="Prüft die Existenz des aktuellen Objektes.">
<polygon fill="white" stroke="black" points="190.5,-126.5 190.5,-156.5 330.5,-156.5 330.5,-126.5 190.5,-126.5"/>
<text text-anchor="start" x="198.5" y="-144.5" font-family="Helvetica,sans-Serif" font-size="10.00">okw.gui.adapter.selenium.</text>
<text text-anchor="middle" x="260.5" y="-133.5" font-family="Helvetica,sans-Serif" font-size="10.00">SeAnyWindow.getExists</text>
</a>
</g>
</g>
<!-- Node113&#45;&gt;Node114 -->
<g id="edge1" class="edge"><title>Node113&#45;&gt;Node114</title>
<path fill="none" stroke="midnightblue" d="M140.12,-155.433C153.182,-153.908 166.939,-152.303 180.283,-150.746"/>
<polygon fill="midnightblue" stroke="midnightblue" points="180.861,-154.202 190.388,-149.566 180.05,-147.249 180.861,-154.202"/>
</g>
<!-- Node117 -->
<g id="node5" class="node"><title>Node117</title>
<g id="a_node5"><a xlink:href="classokw_1_1gui_1_1adapter_1_1selenium_1_1webdriver_1_1_se_driver.html#aee9e3f8a67f4ad1f8100a33ba71c926e" target="_top" xlink:title="Gibt die Instance für die einzige Instanz dieser Klasse zurück.">
<polygon fill="white" stroke="black" points="381,-170.5 381,-200.5 569,-200.5 569,-170.5 381,-170.5"/>
<text text-anchor="start" x="389" y="-188.5" font-family="Helvetica,sans-Serif" font-size="10.00">okw.gui.adapter.selenium.webdriver.</text>
<text text-anchor="middle" x="475" y="-177.5" font-family="Helvetica,sans-Serif" font-size="10.00">SeDriver.getInstance</text>
</a>
</g>
</g>
<!-- Node113&#45;&gt;Node117 -->
<g id="edge20" class="edge"><title>Node113&#45;&gt;Node117</title>
<path fill="none" stroke="midnightblue" d="M140.278,-167.282C203.684,-170.743 298.364,-175.912 370.698,-179.861"/>
<polygon fill="midnightblue" stroke="midnightblue" points="370.575,-183.359 380.751,-180.409 370.956,-176.369 370.575,-183.359"/>
</g>
<!-- Node122 -->
<g id="node10" class="node"><title>Node122</title>
<g id="a_node10"><a xlink:href="classokw_1_1_log_messenger.html#af225d1f037d47b3b085175c09d78bdd2" target="_top" xlink:title="Holt die Log&#45;Meldung für MethodeNmae/Textkey ohne weitere Parameter.">
<polygon fill="white" stroke="black" points="176,-47 176,-66 345,-66 345,-47 176,-47"/>
<text text-anchor="middle" x="260.5" y="-54" font-family="Helvetica,sans-Serif" font-size="10.00">okw.LogMessenger.GetMessage</text>
</a>
</g>
</g>
<!-- Node113&#45;&gt;Node122 -->
<g id="edge9" class="edge"><title>Node113&#45;&gt;Node122</title>
<path fill="none" stroke="midnightblue" d="M97.6076,-148.396C133.754,-127.879 197.954,-91.436 233.685,-71.1539"/>
<polygon fill="midnightblue" stroke="midnightblue" points="235.572,-74.107 242.541,-66.1266 232.117,-68.0194 235.572,-74.107"/>
</g>
<!-- Node125 -->
<g id="node13" class="node"><title>Node125</title>
<g id="a_node13"><a xlink:href="classokw_1_1gui_1_1adapter_1_1selenium_1_1_se_any_window.html#a8b42bf27f4660b4807375a57fa9de815" target="_top" xlink:title="Ermittelt aus dem gegebenen Locator das DOM&#45;Elelement, welches das Objekt representiert.">
<polygon fill="white" stroke="black" points="190.5,-216.5 190.5,-246.5 330.5,-246.5 330.5,-216.5 190.5,-216.5"/>
<text text-anchor="start" x="198.5" y="-234.5" font-family="Helvetica,sans-Serif" font-size="10.00">okw.gui.adapter.selenium.</text>
<text text-anchor="middle" x="260.5" y="-223.5" font-family="Helvetica,sans-Serif" font-size="10.00">SeAnyWindow.Me</text>
</a>
</g>
</g>
<!-- Node113&#45;&gt;Node125 -->
<g id="edge12" class="edge"><title>Node113&#45;&gt;Node125</title>
<path fill="none" stroke="midnightblue" d="M112.834,-178.591C141.021,-188.76 178.38,-202.236 208.337,-213.043"/>
<polygon fill="midnightblue" stroke="midnightblue" points="207.188,-216.35 217.783,-216.451 209.564,-209.765 207.188,-216.35"/>
</g>
<!-- Node115 -->
<g id="node3" class="node"><title>Node115</title>
<g id="a_node3"><a xlink:href="classokw_1_1gui_1_1_any_win_base.html#a9929f6fae1f4e2c20df79d32d5bc79db" target="_top" xlink:title="Holt den vollständig (rekursiv) aufgelösten (z.B.">
<polygon fill="white" stroke="black" points="391.5,-269 391.5,-288 558.5,-288 558.5,-269 391.5,-269"/>
<text text-anchor="middle" x="475" y="-276" font-family="Helvetica,sans-Serif" font-size="10.00">okw.gui.AnyWinBase.getLocator</text>
</a>
</g>
</g>
<!-- Node114&#45;&gt;Node115 -->
<g id="edge2" class="edge"><title>Node114&#45;&gt;Node115</title>
<path fill="none" stroke="midnightblue" d="M284.659,-156.647C302.341,-168.863 326.698,-187.145 345,-206.5 364.313,-226.924 357.62,-242.895 381,-258.5 384.732,-260.991 388.72,-263.179 392.867,-265.099"/>
<polygon fill="midnightblue" stroke="midnightblue" points="391.581,-268.355 402.162,-268.891 394.225,-261.873 391.581,-268.355"/>
</g>
<!-- Node114&#45;&gt;Node117 -->
<g id="edge4" class="edge"><title>Node114&#45;&gt;Node117</title>
<path fill="none" stroke="midnightblue" d="M330.786,-155.846C350.162,-159.858 371.41,-164.258 391.47,-168.412"/>
<polygon fill="midnightblue" stroke="midnightblue" points="391.019,-171.892 401.521,-170.493 392.439,-165.038 391.019,-171.892"/>
</g>
<!-- Node118 -->
<g id="node6" class="node"><title>Node118</title>
<g id="a_node6"><a xlink:href="classokw_1_1gui_1_1adapter_1_1selenium_1_1webdriver_1_1_se_driver.html#af543e038c32b2dccdbf08f36bcc6ad3f" target="_top" xlink:title="Ermittelt das Webelement mit der gegebenen frameID und dem gegebenen Locator.">
<polygon fill="white" stroke="black" points="381,-82.5 381,-112.5 569,-112.5 569,-82.5 381,-82.5"/>
<text text-anchor="start" x="389" y="-100.5" font-family="Helvetica,sans-Serif" font-size="10.00">okw.gui.adapter.selenium.webdriver.</text>
<text text-anchor="middle" x="475" y="-89.5" font-family="Helvetica,sans-Serif" font-size="10.00">SeDriver.getElements</text>
</a>
</g>
</g>
<!-- Node114&#45;&gt;Node118 -->
<g id="edge5" class="edge"><title>Node114&#45;&gt;Node118</title>
<path fill="none" stroke="midnightblue" d="M330.786,-127.154C350.162,-123.142 371.41,-118.742 391.47,-114.588"/>
<polygon fill="midnightblue" stroke="midnightblue" points="392.439,-117.962 401.521,-112.507 391.019,-111.108 392.439,-117.962"/>
</g>
<!-- Node120 -->
<g id="node8" class="node"><title>Node120</title>
<g id="a_node8"><a xlink:href="classokw_1_1log_1_1_logger___sngltn.html#a2c15e9b2cd0c6266f4c67b8cb00d92e5" target="_top" xlink:title="LogWarning Function: Logs a warning to the results file.">
<polygon fill="white" stroke="black" points="627.5,-167.5 627.5,-197.5 770.5,-197.5 770.5,-167.5 627.5,-167.5"/>
<text text-anchor="start" x="635.5" y="-185.5" font-family="Helvetica,sans-Serif" font-size="10.00">okw.log.Logger_Sngltn.Log</text>
<text text-anchor="middle" x="699" y="-174.5" font-family="Helvetica,sans-Serif" font-size="10.00">Warning</text>
</a>
</g>
</g>
<!-- Node114&#45;&gt;Node120 -->
<g id="edge7" class="edge"><title>Node114&#45;&gt;Node120</title>
<path fill="none" stroke="midnightblue" d="M330.689,-143.655C393.134,-146.104 487.442,-151.053 569,-160.5 584.551,-162.301 601.076,-164.727 616.925,-167.31"/>
<polygon fill="midnightblue" stroke="midnightblue" points="616.786,-170.835 627.225,-169.025 617.936,-163.93 616.786,-170.835"/>
</g>
<!-- Node121 -->
<g id="node9" class="node"><title>Node121</title>
<g id="a_node9"><a xlink:href="classokw_1_1log_1_1_logger___sngltn.html#a313f97c79ba4662d9daaf7f537dd02f4" target="_top" xlink:title="Loggt eine Nachricht.">
<polygon fill="white" stroke="black" points="627.5,-52.5 627.5,-82.5 770.5,-82.5 770.5,-52.5 627.5,-52.5"/>
<text text-anchor="start" x="635.5" y="-70.5" font-family="Helvetica,sans-Serif" font-size="10.00">okw.log.Logger_Sngltn.Log</text>
<text text-anchor="middle" x="699" y="-59.5" font-family="Helvetica,sans-Serif" font-size="10.00">PrintDebug</text>
</a>
</g>
</g>
<!-- Node114&#45;&gt;Node121 -->
<g id="edge8" class="edge"><title>Node114&#45;&gt;Node121</title>
<path fill="none" stroke="midnightblue" d="M280.402,-126.447C302.866,-109.588 342.208,-83.2238 381,-72.5 459.054,-50.9225 552.097,-52.4956 617.117,-57.7362"/>
<polygon fill="midnightblue" stroke="midnightblue" points="617.044,-61.2425 627.305,-58.6057 617.639,-54.2679 617.044,-61.2425"/>
</g>
<!-- Node116 -->
<g id="node4" class="node"><title>Node116</title>
<g id="a_node4"><a xlink:href="classokw_1_1gui_1_1_o_k_w_locator.html#adc74fc2125dd048dc1cb84e011f47ec8" target="_top" xlink:title="Holt den vollständig (rekursiv) aufgelösten (z.B.">
<polygon fill="white" stroke="black" points="616,-269 616,-288 782,-288 782,-269 616,-269"/>
<text text-anchor="middle" x="699" y="-276" font-family="Helvetica,sans-Serif" font-size="10.00">okw.gui.OKWLocator.getLocator</text>
</a>
</g>
</g>
<!-- Node115&#45;&gt;Node116 -->
<g id="edge3" class="edge"><title>Node115&#45;&gt;Node116</title>
<path fill="none" stroke="midnightblue" d="M558.665,-278.5C573.935,-278.5 589.971,-278.5 605.51,-278.5"/>
<polygon fill="midnightblue" stroke="midnightblue" points="605.636,-282 615.636,-278.5 605.636,-275 605.636,-282"/>
</g>
<!-- Node119 -->
<g id="node7" class="node"><title>Node119</title>
<g id="a_node7"><a xlink:href="classokw_1_1gui_1_1adapter_1_1selenium_1_1webdriver_1_1_se_driver.html#a47eec72c911c05beb2127672daafb325" target="_top" xlink:title="Wechselt das aktuelle Frame auf das Frame mit der id=iframeID.">
<polygon fill="white" stroke="black" points="605,-112.5 605,-142.5 793,-142.5 793,-112.5 605,-112.5"/>
<text text-anchor="start" x="613" y="-130.5" font-family="Helvetica,sans-Serif" font-size="10.00">okw.gui.adapter.selenium.webdriver.</text>
<text text-anchor="middle" x="699" y="-119.5" font-family="Helvetica,sans-Serif" font-size="10.00">SeDriver.swichToFrame</text>
</a>
</g>
</g>
<!-- Node118&#45;&gt;Node119 -->
<g id="edge6" class="edge"><title>Node118&#45;&gt;Node119</title>
<path fill="none" stroke="midnightblue" d="M569.183,-110.092C577.626,-111.233 586.211,-112.393 594.734,-113.545"/>
<polygon fill="midnightblue" stroke="midnightblue" points="594.321,-117.021 604.7,-114.892 595.258,-110.084 594.321,-117.021"/>
</g>
<!-- Node123 -->
<g id="node11" class="node"><title>Node123</title>
<g id="a_node11"><a xlink:href="classokw_1_1_log_messenger.html#a530cd6ab82ec82a04206a2e976ec06e3" target="_top" xlink:title="Interne Kernfunktion holt die Log&#45;Meldung mit Platzhaltern aus der XML&#45;Datei.">
<polygon fill="white" stroke="black" points="387.5,-6 387.5,-25 562.5,-25 562.5,-6 387.5,-6"/>
<text text-anchor="middle" x="475" y="-13" font-family="Helvetica,sans-Serif" font-size="10.00">okw.LogMessenger.ReadMessage</text>
</a>
</g>
</g>
<!-- Node122&#45;&gt;Node123 -->
<g id="edge10" class="edge"><title>Node122&#45;&gt;Node123</title>
<path fill="none" stroke="midnightblue" d="M310.786,-46.9907C341.786,-41.0095 381.972,-33.256 414.711,-26.9393"/>
<polygon fill="midnightblue" stroke="midnightblue" points="415.458,-30.3598 424.614,-25.0286 414.132,-23.4866 415.458,-30.3598"/>
</g>
<!-- Node124 -->
<g id="node12" class="node"><title>Node124</title>
<g id="a_node12"><a xlink:href="classokw_1_1_o_k_w___xml_reader.html#ab920b5335a2e1429c14cc5f8e79f39eb" target="_top" xlink:title="Lies den TextContent eines Tag.">
<polygon fill="white" stroke="black" points="623,-0.5 623,-30.5 775,-30.5 775,-0.5 623,-0.5"/>
<text text-anchor="start" x="631" y="-18.5" font-family="Helvetica,sans-Serif" font-size="10.00">okw.OKW_XmlReader.getText</text>
<text text-anchor="middle" x="699" y="-7.5" font-family="Helvetica,sans-Serif" font-size="10.00">ContentSingleValue</text>
</a>
</g>
</g>
<!-- Node123&#45;&gt;Node124 -->
<g id="edge11" class="edge"><title>Node123&#45;&gt;Node124</title>
<path fill="none" stroke="midnightblue" d="M562.785,-15.5C579.2,-15.5 596.359,-15.5 612.727,-15.5"/>
<polygon fill="midnightblue" stroke="midnightblue" points="612.803,-19.0001 622.803,-15.5 612.803,-12.0001 612.803,-19.0001"/>
</g>
<!-- Node125&#45;&gt;Node115 -->
<g id="edge19" class="edge"><title>Node125&#45;&gt;Node115</title>
<path fill="none" stroke="midnightblue" d="M327.529,-246.548C344.914,-250.474 363.657,-254.676 381,-258.5 393.344,-261.222 406.62,-264.104 419.167,-266.807"/>
<polygon fill="midnightblue" stroke="midnightblue" points="418.529,-270.25 429.042,-268.93 420.001,-263.406 418.529,-270.25"/>
</g>
<!-- Node125&#45;&gt;Node117 -->
<g id="edge13" class="edge"><title>Node125&#45;&gt;Node117</title>
<path fill="none" stroke="midnightblue" d="M330.786,-216.502C351.175,-212.088 373.638,-207.225 394.608,-202.686"/>
<polygon fill="midnightblue" stroke="midnightblue" points="395.411,-206.093 404.444,-200.557 393.93,-199.252 395.411,-206.093"/>
</g>
<!-- Node126 -->
<g id="node14" class="node"><title>Node126</title>
<g id="a_node14"><a xlink:href="classokw_1_1gui_1_1adapter_1_1selenium_1_1webdriver_1_1_se_driver.html#a65a8400867355574525aa356a53d3ccf" target="_top" xlink:title="Ermittelt das Webelement mit der gegebenen frameID und dem gegebenen Locator.">
<polygon fill="white" stroke="black" points="381,-219.5 381,-249.5 569,-249.5 569,-219.5 381,-219.5"/>
<text text-anchor="start" x="389" y="-237.5" font-family="Helvetica,sans-Serif" font-size="10.00">okw.gui.adapter.selenium.webdriver.</text>
<text text-anchor="middle" x="475" y="-226.5" font-family="Helvetica,sans-Serif" font-size="10.00">SeDriver.getElement</text>
</a>
</g>
</g>
<!-- Node125&#45;&gt;Node126 -->
<g id="edge14" class="edge"><title>Node125&#45;&gt;Node126</title>
<path fill="none" stroke="midnightblue" d="M330.786,-232.478C343.526,-232.658 357.076,-232.849 370.566,-233.04"/>
<polygon fill="midnightblue" stroke="midnightblue" points="370.806,-236.543 380.855,-233.185 370.905,-229.544 370.806,-236.543"/>
</g>
<!-- Node126&#45;&gt;Node119 -->
<g id="edge15" class="edge"><title>Node126&#45;&gt;Node119</title>
<path fill="none" stroke="midnightblue" d="M551.223,-219.369C557.505,-216.612 563.534,-213.353 569,-209.5 591.976,-193.307 582.431,-174.256 605,-157.5 610.491,-153.423 616.559,-149.886 622.886,-146.821"/>
<polygon fill="midnightblue" stroke="midnightblue" points="624.572,-149.902 632.303,-142.658 621.742,-143.5 624.572,-149.902"/>
</g>
<!-- Node126&#45;&gt;Node120 -->
<g id="edge17" class="edge"><title>Node126&#45;&gt;Node120</title>
<path fill="none" stroke="midnightblue" d="M540.212,-219.459C566.443,-213.315 596.942,-206.171 624.095,-199.811"/>
<polygon fill="midnightblue" stroke="midnightblue" points="624.994,-203.195 633.933,-197.507 623.398,-196.38 624.994,-203.195"/>
</g>
<!-- Node126&#45;&gt;Node121 -->
<g id="edge18" class="edge"><title>Node126&#45;&gt;Node121</title>
<path fill="none" stroke="midnightblue" d="M555.17,-219.489C560.176,-216.693 564.858,-213.393 569,-209.5 605.561,-175.137 570.154,-138.601 605,-102.5 610.942,-96.3442 618.072,-91.2599 625.706,-87.063"/>
<polygon fill="midnightblue" stroke="midnightblue" points="627.45,-90.1054 634.86,-82.5328 624.345,-83.8317 627.45,-90.1054"/>
</g>
<!-- Node127 -->
<g id="node15" class="node"><title>Node127</title>
<g id="a_node15"><a xlink:href="classokw_1_1log_1_1_logger___sngltn.html#a8ebceaddd6cc6963ddb8e08c72ea808c" target="_top" xlink:title="LogPrint Function: Prints the values of expressions to the results file.">
<polygon fill="white" stroke="black" points="627.5,-219.5 627.5,-249.5 770.5,-249.5 770.5,-219.5 627.5,-219.5"/>
<text text-anchor="start" x="635.5" y="-237.5" font-family="Helvetica,sans-Serif" font-size="10.00">okw.log.Logger_Sngltn.Log</text>
<text text-anchor="middle" x="699" y="-226.5" font-family="Helvetica,sans-Serif" font-size="10.00">Print</text>
</a>
</g>
</g>
<!-- Node126&#45;&gt;Node127 -->
<g id="edge16" class="edge"><title>Node126&#45;&gt;Node127</title>
<path fill="none" stroke="midnightblue" d="M569.183,-234.5C585.146,-234.5 601.614,-234.5 617.22,-234.5"/>
<polygon fill="midnightblue" stroke="midnightblue" points="617.336,-238 627.336,-234.5 617.336,-231 617.336,-238"/>
</g>
</g>
</svg>
