<?xml version="1.0" encoding="UTF-8" standalone="no"?>
<!DOCTYPE svg PUBLIC "-//W3C//DTD SVG 1.1//EN"
 "http://www.w3.org/Graphics/SVG/1.1/DTD/svg11.dtd">
<!-- Generated by graphviz version 2.26.3 (20100126.1600)
 -->
<!-- Title: okw.gui.adapter.selenium.SeAnyWindow.getHasFocus Pages: 1 -->
<svg width="940pt" height="336pt"
 viewBox="0.00 0.00 940.00 336.00" xmlns="http://www.w3.org/2000/svg" xmlns:xlink="http://www.w3.org/1999/xlink">
<g id="graph1" class="graph" transform="scale(1 1) rotate(0) translate(4 332)">
<title>okw.gui.adapter.selenium.SeAnyWindow.getHasFocus</title>
<polygon fill="white" stroke="white" points="-4,5 -4,-332 937,-332 937,5 -4,5"/>
<!-- Node80 -->
<g id="node1" class="node"><title>Node80</title>
<polygon fill="#bfbfbf" stroke="black" points="0.5,-196 0.5,-230 143.5,-230 143.5,-196 0.5,-196"/>
<text text-anchor="start" x="8.5" y="-217" font-family="Helvetica,sans-Serif" font-size="10.00">okw.gui.adapter.selenium.</text>
<text text-anchor="middle" x="72" y="-204" font-family="Helvetica,sans-Serif" font-size="10.00">SeAnyWindow.getHasFocus</text>
</g>
<!-- Node81 -->
<g id="node3" class="node"><title>Node81</title>
<a xlink:href="classokw_1_1gui_1_1_any_win_base.html#abaab572bdbed7b471f659d5dd8c76853" target="_top" xlink:title="Diese Methode ruft die Methode Logger.Instance.LogFunctionStartDebug(fps_FunctionName), und erweitert den gegebenen Methodenname in fps_FunctionName mit this.GetType().FullName um den Klassenbezeichner. ">
<polygon fill="white" stroke="black" points="180.5,-293 180.5,-327 347.5,-327 347.5,-293 180.5,-293"/>
<text text-anchor="start" x="188.5" y="-314" font-family="Helvetica,sans-Serif" font-size="10.00">okw.gui.AnyWinBase.LogFunction</text>
<text text-anchor="middle" x="264" y="-301" font-family="Helvetica,sans-Serif" font-size="10.00">StartDebug</text>
</a>
</g>
<!-- Node80&#45;&gt;Node81 -->
<g id="edge2" class="edge"><title>Node80&#45;&gt;Node81</title>
<path fill="none" stroke="midnightblue" d="M94.0722,-230.2C115.163,-245.965 148.342,-269.063 180,-284 183.991,-285.883 188.151,-287.672 192.393,-289.365"/>
<polygon fill="midnightblue" stroke="midnightblue" points="191.18,-292.648 201.771,-292.915 193.658,-286.102 191.18,-292.648"/>
</g>
<!-- Node82 -->
<g id="node5" class="node"><title>Node82</title>
<a xlink:href="classokw_1_1gui_1_1adapter_1_1selenium_1_1_se_any_window.html#ad806d20bf0e42d47e0aa5282532d3230" target="_top" xlink:title="Prüft die Existenz des aktuellen Objektes. ">
<polygon fill="white" stroke="black" points="198.5,-150 198.5,-184 329.5,-184 329.5,-150 198.5,-150"/>
<text text-anchor="start" x="206.5" y="-171" font-family="Helvetica,sans-Serif" font-size="10.00">okw.gui.adapter.selenium.</text>
<text text-anchor="middle" x="264" y="-158" font-family="Helvetica,sans-Serif" font-size="10.00">SeAnyWindow.getExists</text>
</a>
</g>
<!-- Node80&#45;&gt;Node82 -->
<g id="edge4" class="edge"><title>Node80&#45;&gt;Node82</title>
<path fill="none" stroke="midnightblue" d="M143.221,-195.937C157.875,-192.426 173.356,-188.717 188.166,-185.168"/>
<polygon fill="midnightblue" stroke="midnightblue" points="189.385,-188.476 198.294,-182.742 187.754,-181.668 189.385,-188.476"/>
</g>
<!-- Node85 -->
<g id="node11" class="node"><title>Node85</title>
<a xlink:href="classokw_1_1gui_1_1adapter_1_1selenium_1_1_se_driver.html#acb82765e99981ecc210e7599bbc2c639" target="_top" xlink:title="Gibt die Instance für die einzige Instanz dieser Klasse zurück. ">
<polygon fill="white" stroke="black" points="402.5,-242 402.5,-276 533.5,-276 533.5,-242 402.5,-242"/>
<text text-anchor="start" x="410.5" y="-263" font-family="Helvetica,sans-Serif" font-size="10.00">okw.gui.adapter.selenium.</text>
<text text-anchor="middle" x="468" y="-250" font-family="Helvetica,sans-Serif" font-size="10.00">SeDriver.getInstance</text>
</a>
</g>
<!-- Node80&#45;&gt;Node85 -->
<g id="edge28" class="edge"><title>Node80&#45;&gt;Node85</title>
<path fill="none" stroke="midnightblue" d="M143.513,-214.93C199.421,-217.16 278.969,-221.918 348,-232 362.421,-234.106 377.682,-237.008 392.31,-240.133"/>
<polygon fill="midnightblue" stroke="midnightblue" points="391.801,-243.604 402.318,-242.324 393.298,-236.766 391.801,-243.604"/>
</g>
<!-- Node91 -->
<g id="node23" class="node"><title>Node91</title>
<a xlink:href="classokw_1_1_log_messenger.html#af225d1f037d47b3b085175c09d78bdd2" target="_top" xlink:title="Holt die Log&#45;Meldung für MethodeNmae/Textkey ohne weitere Parameter. ">
<polygon fill="white" stroke="black" points="184,-58.5 184,-79.5 344,-79.5 344,-58.5 184,-58.5"/>
<text text-anchor="middle" x="264" y="-66.5" font-family="Helvetica,sans-Serif" font-size="10.00">okw.LogMessenger.GetMessage</text>
</a>
</g>
<!-- Node80&#45;&gt;Node91 -->
<g id="edge22" class="edge"><title>Node80&#45;&gt;Node91</title>
<path fill="none" stroke="midnightblue" d="M94.7789,-195.916C131.931,-168.052 205.105,-113.171 241.848,-85.614"/>
<polygon fill="midnightblue" stroke="midnightblue" points="244.045,-88.3413 249.945,-79.5413 239.845,-82.7413 244.045,-88.3413"/>
</g>
<!-- Node94 -->
<g id="node30" class="node"><title>Node94</title>
<a xlink:href="classokw_1_1gui_1_1adapter_1_1selenium_1_1_se_any_window.html#a8b42bf27f4660b4807375a57fa9de815" target="_top" xlink:title="Ermittelt aus dem gegebenen Locator das DOM&#45;Elelement, welches das Objekt representiert. ">
<polygon fill="white" stroke="black" points="198.5,-241 198.5,-275 329.5,-275 329.5,-241 198.5,-241"/>
<text text-anchor="start" x="206.5" y="-262" font-family="Helvetica,sans-Serif" font-size="10.00">okw.gui.adapter.selenium.</text>
<text text-anchor="middle" x="264" y="-249" font-family="Helvetica,sans-Serif" font-size="10.00">SeAnyWindow.Me</text>
</a>
</g>
<!-- Node80&#45;&gt;Node94 -->
<g id="edge30" class="edge"><title>Node80&#45;&gt;Node94</title>
<path fill="none" stroke="midnightblue" d="M143.767,-229.82C158.306,-233.228 173.638,-236.821 188.308,-240.26"/>
<polygon fill="midnightblue" stroke="midnightblue" points="187.805,-243.737 198.34,-242.611 189.402,-236.921 187.805,-243.737"/>
</g>
<!-- Node83 -->
<g id="node7" class="node"><title>Node83</title>
<a xlink:href="classokw_1_1gui_1_1_any_win_base.html#a9929f6fae1f4e2c20df79d32d5bc79db" target="_top" xlink:title="Holt den vollständig (rekursiv) aufgelösten (z.B. ">
<polygon fill="white" stroke="black" points="388.5,-202.5 388.5,-223.5 547.5,-223.5 547.5,-202.5 388.5,-202.5"/>
<text text-anchor="middle" x="468" y="-210.5" font-family="Helvetica,sans-Serif" font-size="10.00">okw.gui.AnyWinBase.getLocator</text>
</a>
</g>
<!-- Node82&#45;&gt;Node83 -->
<g id="edge6" class="edge"><title>Node82&#45;&gt;Node83</title>
<path fill="none" stroke="midnightblue" d="M329.67,-181.808C355.993,-187.744 386.03,-194.517 411.374,-200.231"/>
<polygon fill="midnightblue" stroke="midnightblue" points="410.673,-203.661 421.198,-202.447 412.213,-196.833 410.673,-203.661"/>
</g>
<!-- Node82&#45;&gt;Node85 -->
<g id="edge10" class="edge"><title>Node82&#45;&gt;Node85</title>
<path fill="none" stroke="midnightblue" d="M318.382,-184.117C328.573,-188.314 338.879,-193.277 348,-199 366.642,-210.698 364.995,-221.903 384,-233 386.834,-234.655 389.785,-236.215 392.813,-237.685"/>
<polygon fill="midnightblue" stroke="midnightblue" points="391.529,-240.945 402.087,-241.829 394.384,-234.554 391.529,-240.945"/>
</g>
<!-- Node86 -->
<g id="node13" class="node"><title>Node86</title>
<a xlink:href="classokw_1_1gui_1_1adapter_1_1selenium_1_1_se_driver.html#ae71e420f6619b67bb69ca8d70455d807" target="_top" xlink:title="Ermittelt das Webelement mit der gegebenen frameID und dem gegebenen Locator. ">
<polygon fill="white" stroke="black" points="402.5,-150 402.5,-184 533.5,-184 533.5,-150 402.5,-150"/>
<text text-anchor="start" x="410.5" y="-171" font-family="Helvetica,sans-Serif" font-size="10.00">okw.gui.adapter.selenium.</text>
<text text-anchor="middle" x="468" y="-158" font-family="Helvetica,sans-Serif" font-size="10.00">SeDriver.getElements</text>
</a>
</g>
<!-- Node82&#45;&gt;Node86 -->
<g id="edge12" class="edge"><title>Node82&#45;&gt;Node86</title>
<path fill="none" stroke="midnightblue" d="M329.67,-167C349.598,-167 371.655,-167 392.192,-167"/>
<polygon fill="midnightblue" stroke="midnightblue" points="392.453,-170.5 402.453,-167 392.453,-163.5 392.453,-170.5"/>
</g>
<!-- Node89 -->
<g id="node19" class="node"><title>Node89</title>
<a xlink:href="classokw_1_1log_1_1_logger___sngltn.html#a2c15e9b2cd0c6266f4c67b8cb00d92e5" target="_top" xlink:title="LogWarning Function: Logs a warning to the results file. ">
<polygon fill="white" stroke="black" points="401,-46 401,-80 535,-80 535,-46 401,-46"/>
<text text-anchor="start" x="409" y="-67" font-family="Helvetica,sans-Serif" font-size="10.00">okw.log.Logger_Sngltn.Log</text>
<text text-anchor="middle" x="468" y="-54" font-family="Helvetica,sans-Serif" font-size="10.00">Warning</text>
</a>
</g>
<!-- Node82&#45;&gt;Node89 -->
<g id="edge18" class="edge"><title>Node82&#45;&gt;Node89</title>
<path fill="none" stroke="midnightblue" d="M286.346,-149.762C309.652,-132.451 347.776,-105.977 384,-89 387.996,-87.1273 392.16,-85.346 396.404,-83.6594"/>
<polygon fill="midnightblue" stroke="midnightblue" points="397.667,-86.924 405.787,-80.1195 395.196,-80.3745 397.667,-86.924"/>
</g>
<!-- Node90 -->
<g id="node21" class="node"><title>Node90</title>
<a xlink:href="classokw_1_1log_1_1_logger___sngltn.html#a313f97c79ba4662d9daaf7f537dd02f4" target="_top" xlink:title="Loggt eine Nachricht. ">
<polygon fill="white" stroke="black" points="401,-98 401,-132 535,-132 535,-98 401,-98"/>
<text text-anchor="start" x="409" y="-119" font-family="Helvetica,sans-Serif" font-size="10.00">okw.log.Logger_Sngltn.Log</text>
<text text-anchor="middle" x="468" y="-106" font-family="Helvetica,sans-Serif" font-size="10.00">PrintDebug</text>
</a>
</g>
<!-- Node82&#45;&gt;Node90 -->
<g id="edge20" class="edge"><title>Node82&#45;&gt;Node90</title>
<path fill="none" stroke="midnightblue" d="M329.67,-150.261C349.289,-145.26 370.97,-139.733 391.234,-134.568"/>
<polygon fill="midnightblue" stroke="midnightblue" points="392.227,-137.927 401.053,-132.065 390.498,-131.144 392.227,-137.927"/>
</g>
<!-- Node84 -->
<g id="node9" class="node"><title>Node84</title>
<a xlink:href="classokw_1_1gui_1_1_o_k_w_locator.html#adc74fc2125dd048dc1cb84e011f47ec8" target="_top" xlink:title="Holt den vollständig (rekursiv) aufgelösten (z.B. ">
<polygon fill="white" stroke="black" points="588,-202.5 588,-223.5 746,-223.5 746,-202.5 588,-202.5"/>
<text text-anchor="middle" x="667" y="-210.5" font-family="Helvetica,sans-Serif" font-size="10.00">okw.gui.OKWLocator.getLocator</text>
</a>
</g>
<!-- Node83&#45;&gt;Node84 -->
<g id="edge8" class="edge"><title>Node83&#45;&gt;Node84</title>
<path fill="none" stroke="midnightblue" d="M547.508,-213C557.495,-213 567.762,-213 577.885,-213"/>
<polygon fill="midnightblue" stroke="midnightblue" points="577.943,-216.5 587.943,-213 577.943,-209.5 577.943,-216.5"/>
</g>
<!-- Node87 -->
<g id="node15" class="node"><title>Node87</title>
<a xlink:href="classokw_1_1gui_1_1adapter_1_1selenium_1_1_se_driver.html#a502a7d54c1a8b80424cd42a4e168a191" target="_top" xlink:title="Wechselt das aktuelle Frame auf das Frame mit der id=iframeID. ">
<polygon fill="white" stroke="black" points="601.5,-242 601.5,-276 732.5,-276 732.5,-242 601.5,-242"/>
<text text-anchor="start" x="609.5" y="-263" font-family="Helvetica,sans-Serif" font-size="10.00">okw.gui.adapter.selenium.</text>
<text text-anchor="middle" x="667" y="-250" font-family="Helvetica,sans-Serif" font-size="10.00">SeDriver.swichToFrame</text>
</a>
</g>
<!-- Node86&#45;&gt;Node87 -->
<g id="edge14" class="edge"><title>Node86&#45;&gt;Node87</title>
<path fill="none" stroke="midnightblue" d="M533.767,-183.513C540.147,-186.237 546.342,-189.381 552,-193 572.148,-205.888 567.967,-219.933 588,-233 590.438,-234.59 592.981,-236.091 595.599,-237.507"/>
<polygon fill="midnightblue" stroke="midnightblue" points="594.22,-240.729 604.738,-241.999 597.307,-234.446 594.22,-240.729"/>
</g>
<!-- Node88 -->
<g id="node17" class="node"><title>Node88</title>
<a xlink:href="classokw_1_1_o_k_w___helper.html#a3a7ba0f42b29adf70574830688e72e4a" target="_top" xlink:title="Prüft ob der gegeben String fpsStrin null oder leer (&quot;&quot;) ist. ">
<polygon fill="white" stroke="black" points="782.5,-242 782.5,-276 931.5,-276 931.5,-242 782.5,-242"/>
<text text-anchor="start" x="790.5" y="-263" font-family="Helvetica,sans-Serif" font-size="10.00">okw.OKW_Helper.isStringNull</text>
<text text-anchor="middle" x="857" y="-250" font-family="Helvetica,sans-Serif" font-size="10.00">OrEmpty</text>
</a>
</g>
<!-- Node87&#45;&gt;Node88 -->
<g id="edge16" class="edge"><title>Node87&#45;&gt;Node88</title>
<path fill="none" stroke="midnightblue" d="M732.653,-259C745.389,-259 758.905,-259 772.155,-259"/>
<polygon fill="midnightblue" stroke="midnightblue" points="772.218,-262.5 782.218,-259 772.217,-255.5 772.218,-262.5"/>
</g>
<!-- Node92 -->
<g id="node25" class="node"><title>Node92</title>
<a xlink:href="classokw_1_1_log_messenger.html#a530cd6ab82ec82a04206a2e976ec06e3" target="_top" xlink:title="Interne Kernfunktion holt die Log&#45;Meldung mit Platzhaltern aus der XML&#45;Datei. ">
<polygon fill="white" stroke="black" points="384.5,-6.5 384.5,-27.5 551.5,-27.5 551.5,-6.5 384.5,-6.5"/>
<text text-anchor="middle" x="468" y="-14.5" font-family="Helvetica,sans-Serif" font-size="10.00">okw.LogMessenger.ReadMessage</text>
</a>
</g>
<!-- Node91&#45;&gt;Node92 -->
<g id="edge24" class="edge"><title>Node91&#45;&gt;Node92</title>
<path fill="none" stroke="midnightblue" d="M302.572,-58.4322C326.067,-52.0653 356.718,-43.8842 384,-37 393.278,-34.6589 403.151,-32.242 412.746,-29.9325"/>
<polygon fill="midnightblue" stroke="midnightblue" points="413.697,-33.3038 422.607,-27.5723 412.067,-26.4961 413.697,-33.3038"/>
</g>
<!-- Node93 -->
<g id="node27" class="node"><title>Node93</title>
<a xlink:href="classokw_1_1_o_k_w___xml_reader.html#ab920b5335a2e1429c14cc5f8e79f39eb" target="_top" xlink:title="Lies den TextContent eines Tag. ">
<polygon fill="white" stroke="black" points="591,-0 591,-34 743,-34 743,-0 591,-0"/>
<text text-anchor="start" x="599" y="-21" font-family="Helvetica,sans-Serif" font-size="10.00">okw.OKW_XmlReader.getText</text>
<text text-anchor="middle" x="667" y="-8" font-family="Helvetica,sans-Serif" font-size="10.00">ContentSingleValue</text>
</a>
</g>
<!-- Node92&#45;&gt;Node93 -->
<g id="edge26" class="edge"><title>Node92&#45;&gt;Node93</title>
<path fill="none" stroke="midnightblue" d="M551.529,-17C561.239,-17 571.157,-17 580.901,-17"/>
<polygon fill="midnightblue" stroke="midnightblue" points="580.975,-20.5001 590.975,-17 580.975,-13.5001 580.975,-20.5001"/>
</g>
<!-- Node94&#45;&gt;Node83 -->
<g id="edge40" class="edge"><title>Node94&#45;&gt;Node83</title>
<path fill="none" stroke="midnightblue" d="M329.67,-243.514C355.57,-237.801 385.065,-231.295 410.147,-225.762"/>
<polygon fill="midnightblue" stroke="midnightblue" points="411.23,-229.107 420.242,-223.535 409.722,-222.271 411.23,-229.107"/>
</g>
<!-- Node94&#45;&gt;Node85 -->
<g id="edge32" class="edge"><title>Node94&#45;&gt;Node85</title>
<path fill="none" stroke="midnightblue" d="M329.67,-258.322C349.598,-258.42 371.655,-258.528 392.192,-258.628"/>
<polygon fill="midnightblue" stroke="midnightblue" points="392.436,-262.13 402.453,-258.679 392.471,-255.13 392.436,-262.13"/>
</g>
<!-- Node95 -->
<g id="node33" class="node"><title>Node95</title>
<a xlink:href="classokw_1_1gui_1_1adapter_1_1selenium_1_1_se_driver.html#ae08fe1cf4c694bb3a4dfb1f1837b26bc" target="_top" xlink:title="Ermittelt das Webelement mit der gegebenen frameID und dem gegebenen Locator. ">
<polygon fill="white" stroke="black" points="402.5,-294 402.5,-328 533.5,-328 533.5,-294 402.5,-294"/>
<text text-anchor="start" x="410.5" y="-315" font-family="Helvetica,sans-Serif" font-size="10.00">okw.gui.adapter.selenium.</text>
<text text-anchor="middle" x="468" y="-302" font-family="Helvetica,sans-Serif" font-size="10.00">SeDriver.getElement</text>
</a>
</g>
<!-- Node94&#45;&gt;Node95 -->
<g id="edge34" class="edge"><title>Node94&#45;&gt;Node95</title>
<path fill="none" stroke="midnightblue" d="M329.67,-275.061C349.78,-280.286 372.058,-286.074 392.754,-291.451"/>
<polygon fill="midnightblue" stroke="midnightblue" points="391.894,-294.844 402.453,-293.971 393.655,-288.069 391.894,-294.844"/>
</g>
<!-- Node95&#45;&gt;Node87 -->
<g id="edge36" class="edge"><title>Node95&#45;&gt;Node87</title>
<path fill="none" stroke="midnightblue" d="M533.16,-293.973C551.972,-289.058 572.651,-283.654 592.01,-278.595"/>
<polygon fill="midnightblue" stroke="midnightblue" points="592.903,-281.98 601.694,-276.065 591.134,-275.207 592.903,-281.98"/>
</g>
<!-- Node96 -->
<g id="node36" class="node"><title>Node96</title>
<a xlink:href="classokw_1_1log_1_1_logger___sngltn.html#a8ebceaddd6cc6963ddb8e08c72ea808c" target="_top" xlink:title="LogPrint Function: Prints the values of expressions to the results file. ">
<polygon fill="white" stroke="black" points="600,-294 600,-328 734,-328 734,-294 600,-294"/>
<text text-anchor="start" x="608" y="-315" font-family="Helvetica,sans-Serif" font-size="10.00">okw.log.Logger_Sngltn.Log</text>
<text text-anchor="middle" x="667" y="-302" font-family="Helvetica,sans-Serif" font-size="10.00">Print</text>
</a>
</g>
<!-- Node95&#45;&gt;Node96 -->
<g id="edge38" class="edge"><title>Node95&#45;&gt;Node96</title>
<path fill="none" stroke="midnightblue" d="M533.712,-311C551.67,-311 571.294,-311 589.829,-311"/>
<polygon fill="midnightblue" stroke="midnightblue" points="589.996,-314.5 599.996,-311 589.996,-307.5 589.996,-314.5"/>
</g>
</g>
</svg>
