<?xml version="1.0" encoding="UTF-8" standalone="no"?>
<!DOCTYPE svg PUBLIC "-//W3C//DTD SVG 1.1//EN"
 "http://www.w3.org/Graphics/SVG/1.1/DTD/svg11.dtd">
<!-- Generated by graphviz version 2.26.3 (20100126.1600)
 -->
<!-- Title: okw.log.Log2Console.LogFunctionStart Pages: 1 -->
<!--zoomable 100 -->
<svg id="main" version="1.1" xmlns="http://www.w3.org/2000/svg" xmlns:xlink="http://www.w3.org/1999/xlink" xml:space="preserve" onload="init(evt)">
<style type="text/css"><![CDATA[
.edge:hover path { stroke: red; }
.edge:hover polygon { stroke: red; fill: red; }
]]></style>
<script type="text/javascript"><![CDATA[
var edges = document.getElementsByTagName('g');
if (edges && edges.length) {
  for (var i=0;i<edges.length;i++) {
    if (edges[i].id.substr(0,4)=='edge') {
      edges[i].setAttribute('class','edge');
    }
  }
}
]]></script>
        <defs>
                <circle id="rim" cx="0" cy="0" r="7"/>
                <circle id="rim2" cx="0" cy="0" r="3.5"/>
                <g id="zoomPlus">
                        <use xlink:href="#rim" fill="#404040">
                                <set attributeName="fill" to="#808080" begin="zoomplus.mouseover" end="zoomplus.mouseout"/>
                        </use>
                        <path d="M-4,0h8M0,-4v8" fill="none" stroke="white" stroke-width="1.5" pointer-events="none"/>
                </g>
                <g id="zoomMin">
                        <use xlink:href="#rim" fill="#404040">
                                <set attributeName="fill" to="#808080" begin="zoomminus.mouseover" end="zoomminus.mouseout"/>
                        </use>
                        <path d="M-4,0h8" fill="none" stroke="white" stroke-width="1.5" pointer-events="none"/>
                </g>
                <g id="dirArrow">
                        <path fill="none" stroke="white" stroke-width="1.5" d="M0,-3.0v7 M-2.5,-0.5L0,-3.0L2.5,-0.5"/>
                </g>
               <g id="resetDef">
                       <use xlink:href="#rim2" fill="#404040">
                               <set attributeName="fill" to="#808080" begin="reset.mouseover" end="reset.mouseout"/>
                       </use>
               </g>
        </defs>

<script type="text/javascript">
var viewWidth = 760;
var viewHeight = 100;
var sectionId = 'dynsection-14';
</script>
<script xlink:href="svgpan.js"/>
<svg id="graph" class="graph">
<g id="viewport">
<title>okw.log.Log2Console.LogFunctionStart</title>
<polygon fill="white" stroke="white" points="-4,5 -4,-96 757,-96 757,5 -4,5"/>
<!-- Node80 -->
<g id="node1" class="node"><title>Node80</title>
<polygon fill="#bfbfbf" stroke="black" points="0.5,-34 0.5,-68 167.5,-68 167.5,-34 0.5,-34"/>
<text text-anchor="start" x="8.5" y="-55" font-family="Helvetica,sans-Serif" font-size="10.00">okw.log.Log2Console.LogFunction</text>
<text text-anchor="middle" x="84" y="-42" font-family="Helvetica,sans-Serif" font-size="10.00">Start</text>
</g>
<!-- Node81 -->
<g id="node3" class="node"><title>Node81</title>
<a xlink:href="classokw_1_1log_1_1_log2_console.html#af99ba81cf4d8e14d5fe19070f12ae5cb" target="_top" xlink:title="LogFunctionStartDebug: Opens a debug outline level with the . ">
<polygon fill="white" stroke="black" points="206,-40.5 206,-61.5 376,-61.5 376,-40.5 206,-40.5"/>
<text text-anchor="middle" x="291" y="-48.5" font-family="Helvetica,sans-Serif" font-size="10.00">okw.log.Log2Console.ResOpenList</text>
</a>
</g>
<!-- Node80&#45;&gt;Node81 -->
<g id="edge2" class="edge"><title>Node80&#45;&gt;Node81</title>
<path fill="none" stroke="midnightblue" d="M167.598,-51C176.827,-51 186.276,-51 195.635,-51"/>
<polygon fill="midnightblue" stroke="midnightblue" points="195.741,-54.5001 205.741,-51 195.741,-47.5001 195.741,-54.5001"/>
</g>
<!-- Node82 -->
<g id="node5" class="node"><title>Node82</title>
<a xlink:href="classokw_1_1log_1_1_log2_console.html#a76c2788140c26471575dfa92c118d1dc" target="_top" xlink:title="LogPrint: Prints the given message to the results. ">
<polygon fill="white" stroke="black" points="414.5,-70.5 414.5,-91.5 563.5,-91.5 563.5,-70.5 414.5,-70.5"/>
<text text-anchor="middle" x="489" y="-78.5" font-family="Helvetica,sans-Serif" font-size="10.00">okw.log.Log2Console.LogPrint</text>
</a>
</g>
<!-- Node80&#45;&gt;Node82 -->
<g id="edge10" class="edge"><title>Node80&#45;&gt;Node82</title>
<path fill="none" stroke="midnightblue" d="M167.737,-66.3831C179.87,-68.1959 192.232,-69.8179 204,-71 271.151,-77.7451 347.597,-80.1423 404.399,-80.9095"/>
<polygon fill="midnightblue" stroke="midnightblue" points="404.37,-84.4093 414.412,-81.0306 404.455,-77.4098 404.37,-84.4093"/>
</g>
<!-- Node85 -->
<g id="node12" class="node"><title>Node85</title>
<a xlink:href="classokw_1_1log_1_1_log2_console.html#ab2120d2a3c68dc03a6a62d02570bfbd6" target="_top" xlink:title="ResCloseList: Closes the outline level. ">
<polygon fill="white" stroke="black" points="204.5,-0.5 204.5,-21.5 377.5,-21.5 377.5,-0.5 204.5,-0.5"/>
<text text-anchor="middle" x="291" y="-8.5" font-family="Helvetica,sans-Serif" font-size="10.00">okw.log.Log2Console.ResCloseList</text>
</a>
</g>
<!-- Node80&#45;&gt;Node85 -->
<g id="edge12" class="edge"><title>Node80&#45;&gt;Node85</title>
<path fill="none" stroke="midnightblue" d="M167.598,-34.8458C187.287,-31.0412 207.974,-27.0438 226.662,-23.4324"/>
<polygon fill="midnightblue" stroke="midnightblue" points="227.373,-26.8599 236.528,-21.5261 226.045,-19.987 227.373,-26.8599"/>
</g>
<!-- Node81&#45;&gt;Node82 -->
<g id="edge4" class="edge"><title>Node81&#45;&gt;Node82</title>
<path fill="none" stroke="midnightblue" d="M360.529,-61.5347C376.401,-63.9395 393.384,-66.5128 409.633,-68.9747"/>
<polygon fill="midnightblue" stroke="midnightblue" points="409.227,-72.453 419.638,-70.4907 410.276,-65.532 409.227,-72.453"/>
</g>
<!-- Node83 -->
<g id="node7" class="node"><title>Node83</title>
<a xlink:href="classokw_1_1log_1_1_log2_console.html#a418e8bba5b89f56ddaf2fea089dd24b2" target="_top" xlink:title="Erzeugt die Einrücktiefe für die Console&#45;Ausgabe. ">
<polygon fill="white" stroke="black" points="417.5,-10 417.5,-44 560.5,-44 560.5,-10 417.5,-10"/>
<text text-anchor="start" x="425.5" y="-31" font-family="Helvetica,sans-Serif" font-size="10.00">okw.log.Log2Console.Blanks</text>
<text text-anchor="middle" x="489" y="-18" font-family="Helvetica,sans-Serif" font-size="10.00">Before</text>
</a>
</g>
<!-- Node81&#45;&gt;Node83 -->
<g id="edge6" class="edge"><title>Node81&#45;&gt;Node83</title>
<path fill="none" stroke="midnightblue" d="M376.119,-40.6826C386.417,-39.4343 396.919,-38.1613 407.168,-36.919"/>
<polygon fill="midnightblue" stroke="midnightblue" points="407.81,-40.3669 417.316,-35.6889 406.968,-33.4178 407.81,-40.3669"/>
</g>
<!-- Node84 -->
<g id="node9" class="node"><title>Node84</title>
<a xlink:href="classokw_1_1_o_k_w___helper.html#ab5e676787808ed174e603c1e3bfcd176" target="_top" xlink:title="okw.OKW_Helper.repeatString">
<polygon fill="white" stroke="black" points="600.5,-16.5 600.5,-37.5 751.5,-37.5 751.5,-16.5 600.5,-16.5"/>
<text text-anchor="middle" x="676" y="-24.5" font-family="Helvetica,sans-Serif" font-size="10.00">okw.OKW_Helper.repeatString</text>
</a>
</g>
<!-- Node83&#45;&gt;Node84 -->
<g id="edge8" class="edge"><title>Node83&#45;&gt;Node84</title>
<path fill="none" stroke="midnightblue" d="M560.764,-27C570.396,-27 580.354,-27 590.197,-27"/>
<polygon fill="midnightblue" stroke="midnightblue" points="590.395,-30.5001 600.395,-27 590.395,-23.5001 590.395,-30.5001"/>
</g>
<!-- Node85&#45;&gt;Node83 -->
<g id="edge14" class="edge"><title>Node85&#45;&gt;Node83</title>
<path fill="none" stroke="midnightblue" d="M377.558,-17.9946C387.443,-18.7934 397.497,-19.6058 407.317,-20.3993"/>
<polygon fill="midnightblue" stroke="midnightblue" points="407.198,-23.9011 417.447,-21.218 407.762,-16.9238 407.198,-23.9011"/>
</g>
</g>
</svg>
        <g id="navigator" transform="translate(0 0)" fill="#404254">
                <rect fill="#f2f5e9" fill-opacity="0.5" stroke="#606060" stroke-width=".5" x="0" y="0" width="60" height="60"/>
                <use id="zoomplus" xlink:href="#zoomPlus" x="17" y="9" onmousedown="handleZoom(evt,'in')"/>
                <use id="zoomminus" xlink:href="#zoomMin" x="42" y="9" onmousedown="handleZoom(evt,'out')"/>
                <use id="reset" xlink:href="#resetDef" x="30" y="36" onmousedown="handleReset()"/>
                <g id="arrowUp" xlink:href="#dirArrow" transform="translate(30 24)" onmousedown="handlePan(0,-1)">
                  <use xlink:href="#rim" fill="#404040">
                        <set attributeName="fill" to="#808080" begin="arrowUp.mouseover" end="arrowUp.mouseout"/>
                  </use>
                  <path fill="none" stroke="white" stroke-width="1.5" d="M0,-3.0v7 M-2.5,-0.5L0,-3.0L2.5,-0.5"/>
                </g>
                <g id="arrowRight" xlink:href="#dirArrow" transform="rotate(90) translate(36 -43)" onmousedown="handlePan(1,0)">
                  <use xlink:href="#rim" fill="#404040">
                        <set attributeName="fill" to="#808080" begin="arrowRight.mouseover" end="arrowRight.mouseout"/>
                  </use>
                  <path fill="none" stroke="white" stroke-width="1.5" d="M0,-3.0v7 M-2.5,-0.5L0,-3.0L2.5,-0.5"/>
                </g>
                <g id="arrowDown" xlink:href="#dirArrow" transform="rotate(180) translate(-30 -48)" onmousedown="handlePan(0,1)">
                  <use xlink:href="#rim" fill="#404040">
                        <set attributeName="fill" to="#808080" begin="arrowDown.mouseover" end="arrowDown.mouseout"/>
                  </use>
                  <path fill="none" stroke="white" stroke-width="1.5" d="M0,-3.0v7 M-2.5,-0.5L0,-3.0L2.5,-0.5"/>
                </g>
                <g id="arrowLeft" xlink:href="#dirArrow" transform="rotate(270) translate(-36 17)" onmousedown="handlePan(-1,0)">
                  <use xlink:href="#rim" fill="#404040">
                        <set attributeName="fill" to="#808080" begin="arrowLeft.mouseover" end="arrowLeft.mouseout"/>
                  </use>
                  <path fill="none" stroke="white" stroke-width="1.5" d="M0,-3.0v7 M-2.5,-0.5L0,-3.0L2.5,-0.5"/>
                </g>
        </g>
        <svg viewBox="0 0 15 15" width="100%" height="30px" preserveAspectRatio="xMaxYMin meet">
         <g id="arrow_out" transform="scale(0.3 0.3)">
          <a xlink:href="classokw_1_1log_1_1_log2_console_a06fc14df2dcb5b2b28b65b2a5ca07e25_cgraph_org.svg" target="_base">
           <rect id="button" ry="5" rx="5" y="6" x="6" height="38" width="38"
                fill="#f2f5e9" fill-opacity="0.5" stroke="#606060" stroke-width="1.0"/>
           <path id="arrow"
             d="M 11.500037,31.436501 C 11.940474,20.09759 22.043105,11.32322 32.158766,21.979434 L 37.068811,17.246167 C 37.068811,17.246167 37.088388,32 37.088388,32 L 22.160133,31.978069 C 22.160133,31.978069 26.997745,27.140456 26.997745,27.140456 C 18.528582,18.264221 13.291696,25.230495 11.500037,31.436501 z"
             style="fill:#404040;"/>
          </a>
         </g>
        </svg>
</svg>
