<?xml version="1.0" encoding="UTF-8" standalone="no"?>
<!DOCTYPE svg PUBLIC "-//W3C//DTD SVG 1.1//EN"
 "http://www.w3.org/Graphics/SVG/1.1/DTD/svg11.dtd">
<!-- Generated by graphviz version 2.26.3 (20100126.1600)
 -->
<!-- Title: okw.core.Core.MemorizeExists Pages: 1 -->
<svg width="584pt" height="448pt"
 viewBox="0.00 0.00 584.00 448.00" xmlns="http://www.w3.org/2000/svg" xmlns:xlink="http://www.w3.org/1999/xlink">
<g id="graph1" class="graph" transform="scale(1 1) rotate(0) translate(4 444)">
<title>okw.core.Core.MemorizeExists</title>
<polygon fill="white" stroke="white" points="-4,5 -4,-444 581,-444 581,5 -4,5"/>
<!-- Node836 -->
<g id="node1" class="node"><title>Node836</title>
<polygon fill="#bfbfbf" stroke="black" points="0,-161.5 0,-182.5 154,-182.5 154,-161.5 0,-161.5"/>
<text text-anchor="middle" x="77" y="-169.5" font-family="Helvetica,sans-Serif" font-size="10.00">okw.core.Core.MemorizeExists</text>
</g>
<!-- Node837 -->
<g id="node3" class="node"><title>Node837</title>
<a xlink:href="classokw_1_1core_1_1_e_n.html#ade0e99fc98003c07a04465301c0ed1ce" target="_top" xlink:title="Merkt sich den aktuell existierenden Zustand des Objekts. ">
<polygon fill="white" stroke="black" points="190.5,-188.5 190.5,-209.5 337.5,-209.5 337.5,-188.5 190.5,-188.5"/>
<text text-anchor="middle" x="264" y="-196.5" font-family="Helvetica,sans-Serif" font-size="10.00">okw.core.EN.MemorizeExists</text>
</a>
</g>
<!-- Node836&#45;&gt;Node837 -->
<g id="edge2" class="edge"><title>Node836&#45;&gt;Node837</title>
<path fill="none" stroke="midnightblue" d="M159.76,-183.949C170.187,-185.455 180.796,-186.987 191.057,-188.468"/>
<polygon fill="midnightblue" stroke="midnightblue" points="160.232,-180.481 149.835,-182.516 159.232,-187.409 160.232,-180.481"/>
</g>
<!-- Node846 -->
<g id="node21" class="node"><title>Node846</title>
<a xlink:href="classokw_1_1core_1_1_current_object___test.html#aba4fbe7950a69a7ef19d8c74441645ff" target="_top" xlink:title="Testziel: Prüft den Aufruf der Methode MemorizeExists( FN, MemKey ) im ChildObject. ">
<polygon fill="white" stroke="black" points="200,-122.5 200,-169.5 328,-169.5 328,-122.5 200,-122.5"/>
<text text-anchor="start" x="208" y="-156.5" font-family="Helvetica,sans-Serif" font-size="10.00">okw.core.CurrentObject</text>
<text text-anchor="start" x="208" y="-143.5" font-family="Helvetica,sans-Serif" font-size="10.00">_Test.tc_MemorizeExists</text>
<text text-anchor="middle" x="264" y="-130.5" font-family="Helvetica,sans-Serif" font-size="10.00">_ChildObject</text>
</a>
</g>
<!-- Node836&#45;&gt;Node846 -->
<g id="edge20" class="edge"><title>Node836&#45;&gt;Node846</title>
<path fill="none" stroke="midnightblue" d="M162.54,-160.107C175.106,-158.36 187.866,-156.585 199.902,-154.912"/>
<polygon fill="midnightblue" stroke="midnightblue" points="161.944,-156.656 152.521,-161.5 162.908,-163.589 161.944,-156.656"/>
</g>
<!-- Node838 -->
<g id="node5" class="node"><title>Node838</title>
<a xlink:href="classokw_1_1core_1_1_e_n___o_k_w_not_allowed_value_exception___keywords___i_g_n_o_r_e.html#a2d5e744cebcad10df3e1f28a5162e35c" target="_top" xlink:title="Prüft ob &quot;${IGNORE} &quot; die Ausnahme okw.exceptions.OKWNotAllowedValueException auslöst. ">
<polygon fill="white" stroke="black" points="381,-392.5 381,-439.5 569,-439.5 569,-392.5 381,-392.5"/>
<text text-anchor="start" x="389" y="-426.5" font-family="Helvetica,sans-Serif" font-size="10.00">okw.core.EN_OKWNotAllowed</text>
<text text-anchor="start" x="389" y="-413.5" font-family="Helvetica,sans-Serif" font-size="10.00">ValueException_Keywords</text>
<text text-anchor="middle" x="475" y="-400.5" font-family="Helvetica,sans-Serif" font-size="10.00">_IGNORE.tcMemorizeExistsIGNORE1</text>
</a>
</g>
<!-- Node837&#45;&gt;Node838 -->
<g id="edge4" class="edge"><title>Node837&#45;&gt;Node838</title>
<path fill="none" stroke="midnightblue" d="M270.709,-219.364C284.191,-257.168 318.15,-338.398 374,-383 378.324,-386.453 383.022,-389.551 387.947,-392.328"/>
<polygon fill="midnightblue" stroke="midnightblue" points="273.882,-217.828 267.314,-209.515 267.264,-220.11 273.882,-217.828"/>
</g>
<!-- Node839 -->
<g id="node7" class="node"><title>Node839</title>
<a xlink:href="classokw_1_1core_1_1_e_n___o_k_w_not_allowed_value_exception___keywords___i_g_n_o_r_e.html#af21c77e154bcd9e77b13bcf568e92060" target="_top" xlink:title="Prüft ob &quot;&quot;${IGNORE}${TCN}&quot; die Ausnahme okw.exceptions.OKWNotAllowedValueException auslöst...">
<polygon fill="white" stroke="black" points="381,-326.5 381,-373.5 569,-373.5 569,-326.5 381,-326.5"/>
<text text-anchor="start" x="389" y="-360.5" font-family="Helvetica,sans-Serif" font-size="10.00">okw.core.EN_OKWNotAllowed</text>
<text text-anchor="start" x="389" y="-347.5" font-family="Helvetica,sans-Serif" font-size="10.00">ValueException_Keywords</text>
<text text-anchor="middle" x="475" y="-334.5" font-family="Helvetica,sans-Serif" font-size="10.00">_IGNORE.tcMemorizeExistsIGNORE2</text>
</a>
</g>
<!-- Node837&#45;&gt;Node839 -->
<g id="edge6" class="edge"><title>Node837&#45;&gt;Node839</title>
<path fill="none" stroke="midnightblue" d="M276.986,-218.104C295.578,-244.068 332.188,-290.31 374,-317 379.442,-320.474 385.284,-323.615 391.315,-326.449"/>
<polygon fill="midnightblue" stroke="midnightblue" points="279.791,-216.008 271.183,-209.832 274.061,-220.028 279.791,-216.008"/>
</g>
<!-- Node840 -->
<g id="node9" class="node"><title>Node840</title>
<a xlink:href="classokw_1_1core_1_1_e_n___o_k_w_not_allowed_value_exception___keywords___i_g_n_o_r_e.html#a90c645249c15192fc5dca1370bb1307e" target="_top" xlink:title="Prüft ob &quot;&quot;${IGNORE}${TCN}&quot; die Ausnahme okw.exceptions.OKWNotAllowedValueException auslöst...">
<polygon fill="white" stroke="black" points="374.5,-260.5 374.5,-307.5 575.5,-307.5 575.5,-260.5 374.5,-260.5"/>
<text text-anchor="start" x="382.5" y="-294.5" font-family="Helvetica,sans-Serif" font-size="10.00">okw.core.EN_OKWNotAllowed</text>
<text text-anchor="start" x="382.5" y="-281.5" font-family="Helvetica,sans-Serif" font-size="10.00">ValueException_Keywords</text>
<text text-anchor="middle" x="475" y="-268.5" font-family="Helvetica,sans-Serif" font-size="10.00">_IGNORE.tcVerifyTooltipREGXIGNORE2</text>
</a>
</g>
<!-- Node837&#45;&gt;Node840 -->
<g id="edge8" class="edge"><title>Node837&#45;&gt;Node840</title>
<path fill="none" stroke="midnightblue" d="M293.438,-214.157C315.339,-225.127 346.132,-239.911 374,-251 382.141,-254.239 390.739,-257.413 399.343,-260.433"/>
<polygon fill="midnightblue" stroke="midnightblue" points="294.842,-210.945 284.337,-209.562 291.686,-217.193 294.842,-210.945"/>
</g>
<!-- Node841 -->
<g id="node11" class="node"><title>Node841</title>
<a xlink:href="classokw_1_1_se_button_1_1_se_button___test.html#a1c8ec78ff5de03c99b9fe33b7cbeb937" target="_top" xlink:title="Test des Schlüsselwortes MemorizeExists für den GUI&#45;Adapter SeButton. ">
<polygon fill="white" stroke="black" points="413.5,-208 413.5,-242 536.5,-242 536.5,-208 413.5,-208"/>
<text text-anchor="start" x="421.5" y="-229" font-family="Helvetica,sans-Serif" font-size="10.00">okw.SeButton.SeButton</text>
<text text-anchor="middle" x="475" y="-216" font-family="Helvetica,sans-Serif" font-size="10.00">_Test.tcMemorizeExists</text>
</a>
</g>
<!-- Node837&#45;&gt;Node841 -->
<g id="edge10" class="edge"><title>Node837&#45;&gt;Node841</title>
<path fill="none" stroke="midnightblue" d="M347.481,-209.287C369.436,-211.992 392.723,-214.862 413.305,-217.398"/>
<polygon fill="midnightblue" stroke="midnightblue" points="347.854,-205.806 337.501,-208.057 346.998,-212.754 347.854,-205.806"/>
</g>
<!-- Node842 -->
<g id="node13" class="node"><title>Node842</title>
<a xlink:href="classokw_1_1_se_input_checkbox_1_1_se_input_checkbox___test.html#ab2b8a392207fda9435fb0fb0b8311706" target="_top" xlink:title="Logget ob ein vorhandenes objekt existiert. ">
<polygon fill="white" stroke="black" points="391.5,-156 391.5,-190 558.5,-190 558.5,-156 391.5,-156"/>
<text text-anchor="start" x="399.5" y="-177" font-family="Helvetica,sans-Serif" font-size="10.00">okw.SeInputCheckbox.SeInput</text>
<text text-anchor="middle" x="475" y="-164" font-family="Helvetica,sans-Serif" font-size="10.00">Checkbox_Test.tcMemorizeExists</text>
</a>
</g>
<!-- Node837&#45;&gt;Node842 -->
<g id="edge12" class="edge"><title>Node837&#45;&gt;Node842</title>
<path fill="none" stroke="midnightblue" d="M347.806,-188.673C362.115,-186.91 376.98,-185.078 391.286,-183.315"/>
<polygon fill="midnightblue" stroke="midnightblue" points="346.998,-185.246 337.501,-189.943 347.854,-192.194 346.998,-185.246"/>
</g>
<!-- Node843 -->
<g id="node15" class="node"><title>Node843</title>
<a xlink:href="classokw_1_1_se_input_field_1_1_se_input_field___test.html#a968f21a0956be92b5dc6d0ef135e76d2" target="_top" xlink:title="Teste das Schlüsselwort MemorizeExists( FN, MemKey ) eines SeInputText Prüfen. ">
<polygon fill="white" stroke="black" points="390,-104 390,-138 560,-138 560,-104 390,-104"/>
<text text-anchor="start" x="398" y="-125" font-family="Helvetica,sans-Serif" font-size="10.00">okw.SeInputField.SeInput</text>
<text text-anchor="middle" x="475" y="-112" font-family="Helvetica,sans-Serif" font-size="10.00">Field_Test.TC_MemorizeExists_en</text>
</a>
</g>
<!-- Node837&#45;&gt;Node843 -->
<g id="edge14" class="edge"><title>Node837&#45;&gt;Node843</title>
<path fill="none" stroke="midnightblue" d="M324.826,-185.064C329.385,-183.267 333.829,-181.253 338,-179 356.835,-168.825 355.105,-157.062 374,-147 380.393,-143.596 387.254,-140.621 394.28,-138.024"/>
<polygon fill="midnightblue" stroke="midnightblue" points="323.591,-181.788 315.356,-188.455 325.951,-188.379 323.591,-181.788"/>
</g>
<!-- Node844 -->
<g id="node17" class="node"><title>Node844</title>
<a xlink:href="classokw_1_1_se_input_radio_1_1_se_input_radio___e_n___test.html#a4088c6ed9fe447694f55b854d4e26e7b" target="_top" xlink:title="Test des Schlüsselwortes MemorizeExists für den GUI&#45;Adapter SeInputRadio. ">
<polygon fill="white" stroke="black" points="388.5,-52 388.5,-86 561.5,-86 561.5,-52 388.5,-52"/>
<text text-anchor="start" x="396.5" y="-73" font-family="Helvetica,sans-Serif" font-size="10.00">okw.SeInputRadio.SeInput</text>
<text text-anchor="middle" x="475" y="-60" font-family="Helvetica,sans-Serif" font-size="10.00">Radio_EN_Test.tc_MemorizeExists</text>
</a>
</g>
<!-- Node837&#45;&gt;Node844 -->
<g id="edge16" class="edge"><title>Node837&#45;&gt;Node844</title>
<path fill="none" stroke="midnightblue" d="M332.305,-183.327C334.297,-181.999 336.204,-180.559 338,-179 368.672,-152.373 343.169,-121.443 374,-95 378.398,-91.2279 383.275,-87.9927 388.442,-85.2189"/>
<polygon fill="midnightblue" stroke="midnightblue" points="330.122,-180.537 323.096,-188.467 333.534,-186.649 330.122,-180.537"/>
</g>
<!-- Node845 -->
<g id="node19" class="node"><title>Node845</title>
<a xlink:href="classokw_1_1_se_link_1_1_se_link___e_n___test.html#ad01a36c9b258f69ec17ebba1b0f85eac" target="_top" xlink:title="Prüft die Methode SeLink.MemorizeToolTip. ">
<polygon fill="white" stroke="black" points="400.5,-0 400.5,-34 549.5,-34 549.5,-0 400.5,-0"/>
<text text-anchor="start" x="408.5" y="-21" font-family="Helvetica,sans-Serif" font-size="10.00">okw.SeLink.SeLink_EN</text>
<text text-anchor="middle" x="475" y="-8" font-family="Helvetica,sans-Serif" font-size="10.00">_Test.TC_MemorizeExists_en</text>
</a>
</g>
<!-- Node837&#45;&gt;Node845 -->
<g id="edge18" class="edge"><title>Node837&#45;&gt;Node845</title>
<path fill="none" stroke="midnightblue" d="M333.916,-182.652C335.344,-181.513 336.709,-180.297 338,-179 382.098,-134.673 329.637,-87.0618 374,-43 381.387,-35.6633 390.551,-30.3107 400.321,-26.4211"/>
<polygon fill="midnightblue" stroke="midnightblue" points="331.598,-179.984 325.126,-188.372 335.417,-185.851 331.598,-179.984"/>
</g>
</g>
</svg>
