<?xml version="1.0" encoding="UTF-8" standalone="no"?>
<!DOCTYPE svg PUBLIC "-//W3C//DTD SVG 1.1//EN"
 "http://www.w3.org/Graphics/SVG/1.1/DTD/svg11.dtd">
<!-- Generated by graphviz version 2.26.3 (20100126.1600)
 -->
<!-- Title: okw.gui.adapter.selenium.SeAnyChildWindow.MemorizeValue Pages: 1 -->
<!--zoomable 316 -->
<svg id="main" version="1.1" xmlns="http://www.w3.org/2000/svg" xmlns:xlink="http://www.w3.org/1999/xlink" xml:space="preserve" onload="init(evt)">
<style type="text/css"><![CDATA[
.edge:hover path { stroke: red; }
.edge:hover polygon { stroke: red; fill: red; }
]]></style>
<script type="text/javascript"><![CDATA[
var edges = document.getElementsByTagName('g');
if (edges && edges.length) {
  for (var i=0;i<edges.length;i++) {
    if (edges[i].id.substr(0,4)=='edge') {
      edges[i].setAttribute('class','edge');
    }
  }
}
]]></script>
        <defs>
                <circle id="rim" cx="0" cy="0" r="7"/>
                <circle id="rim2" cx="0" cy="0" r="3.5"/>
                <g id="zoomPlus">
                        <use xlink:href="#rim" fill="#404040">
                                <set attributeName="fill" to="#808080" begin="zoomplus.mouseover" end="zoomplus.mouseout"/>
                        </use>
                        <path d="M-4,0h8M0,-4v8" fill="none" stroke="white" stroke-width="1.5" pointer-events="none"/>
                </g>
                <g id="zoomMin">
                        <use xlink:href="#rim" fill="#404040">
                                <set attributeName="fill" to="#808080" begin="zoomminus.mouseover" end="zoomminus.mouseout"/>
                        </use>
                        <path d="M-4,0h8" fill="none" stroke="white" stroke-width="1.5" pointer-events="none"/>
                </g>
                <g id="dirArrow">
                        <path fill="none" stroke="white" stroke-width="1.5" d="M0,-3.0v7 M-2.5,-0.5L0,-3.0L2.5,-0.5"/>
                </g>
               <g id="resetDef">
                       <use xlink:href="#rim2" fill="#404040">
                               <set attributeName="fill" to="#808080" begin="reset.mouseover" end="reset.mouseout"/>
                       </use>
               </g>
        </defs>

<script type="text/javascript">
var viewWidth = 1156;
var viewHeight = 316;
var sectionId = 'dynsection-33';
</script>
<script xlink:href="svgpan.js"/>
<svg id="graph" class="graph">
<g id="viewport">
<title>okw.gui.adapter.selenium.SeAnyChildWindow.MemorizeValue</title>
<polygon fill="white" stroke="white" points="-4,5 -4,-312 1153,-312 1153,5 -4,5"/>
<!-- Node458 -->
<g id="node1" class="node"><title>Node458</title>
<polygon fill="#bfbfbf" stroke="black" points="0,-106 0,-140 174,-140 174,-106 0,-106"/>
<text text-anchor="start" x="8" y="-127" font-family="Helvetica,sans-Serif" font-size="10.00">okw.gui.adapter.selenium.</text>
<text text-anchor="middle" x="87" y="-114" font-family="Helvetica,sans-Serif" font-size="10.00">SeAnyChildWindow.MemorizeValue</text>
</g>
<!-- Node459 -->
<g id="node3" class="node"><title>Node459</title>
<a xlink:href="classokw_1_1gui_1_1_any_win_base.html#abaab572bdbed7b471f659d5dd8c76853" target="_top" xlink:title="Diese Methode ruft die Methode Logger.Instance.LogFunctionStartDebug(fps_FunctionName), und erweitert den gegebenen Methodenname in fps_FunctionName mit this.GetType().FullName um den Klassenbezeichner. ">
<polygon fill="white" stroke="black" points="392.5,-195 392.5,-229 559.5,-229 559.5,-195 392.5,-195"/>
<text text-anchor="start" x="400.5" y="-216" font-family="Helvetica,sans-Serif" font-size="10.00">okw.gui.AnyWinBase.LogFunction</text>
<text text-anchor="middle" x="476" y="-203" font-family="Helvetica,sans-Serif" font-size="10.00">StartDebug</text>
</a>
</g>
<!-- Node458&#45;&gt;Node459 -->
<g id="edge2" class="edge"><title>Node458&#45;&gt;Node459</title>
<path fill="none" stroke="midnightblue" d="M161.543,-140.055C227.252,-155.089 322.929,-176.979 391.47,-192.66"/>
<polygon fill="midnightblue" stroke="midnightblue" points="390.85,-196.109 401.379,-194.927 392.411,-189.285 390.85,-196.109"/>
</g>
<!-- Node460 -->
<g id="node5" class="node"><title>Node460</title>
<a xlink:href="classokw_1_1gui_1_1adapter_1_1selenium_1_1_se_any_child_window.html#a2fcad47248d5e447d9b3cb29a933b8df" target="_top" xlink:title="Liest den aktuellen Wert/Text aus dem HTML&#45;Tag. ">
<polygon fill="white" stroke="black" points="210.5,-106 210.5,-140 355.5,-140 355.5,-106 210.5,-106"/>
<text text-anchor="start" x="218.5" y="-127" font-family="Helvetica,sans-Serif" font-size="10.00">okw.gui.adapter.selenium.</text>
<text text-anchor="middle" x="283" y="-114" font-family="Helvetica,sans-Serif" font-size="10.00">SeAnyChildWindow.getValue</text>
</a>
</g>
<!-- Node458&#45;&gt;Node460 -->
<g id="edge4" class="edge"><title>Node458&#45;&gt;Node460</title>
<path fill="none" stroke="midnightblue" d="M174.11,-123C182.781,-123 191.567,-123 200.193,-123"/>
<polygon fill="midnightblue" stroke="midnightblue" points="200.228,-126.5 210.228,-123 200.228,-119.5 200.228,-126.5"/>
</g>
<!-- Node475 -->
<g id="node38" class="node"><title>Node475</title>
<a xlink:href="classokw_1_1gui_1_1_any_win_base.html#a51cf50ace21902b3a5359316f53a7f3e" target="_top" xlink:title="Methode ruft die Methode Logger.Instance.LogFunctionEndDebug() auf. ">
<polygon fill="white" stroke="black" points="392.5,-39 392.5,-73 559.5,-73 559.5,-39 392.5,-39"/>
<text text-anchor="start" x="400.5" y="-60" font-family="Helvetica,sans-Serif" font-size="10.00">okw.gui.AnyWinBase.LogFunction</text>
<text text-anchor="middle" x="476" y="-47" font-family="Helvetica,sans-Serif" font-size="10.00">EndDebug</text>
</a>
</g>
<!-- Node458&#45;&gt;Node475 -->
<g id="edge42" class="edge"><title>Node458&#45;&gt;Node475</title>
<path fill="none" stroke="midnightblue" d="M164.295,-105.979C179.421,-102.841 195.185,-99.7054 210,-97 266.99,-86.5928 331.171,-76.6493 382.21,-69.1615"/>
<polygon fill="midnightblue" stroke="midnightblue" points="382.847,-72.6057 392.237,-67.6973 381.836,-65.6791 382.847,-72.6057"/>
</g>
<!-- Node460&#45;&gt;Node459 -->
<g id="edge6" class="edge"><title>Node460&#45;&gt;Node459</title>
<path fill="none" stroke="midnightblue" d="M309.005,-140.259C330.56,-154.011 362.36,-173.043 392,-186 396.402,-187.924 400.991,-189.768 405.654,-191.523"/>
<polygon fill="midnightblue" stroke="midnightblue" points="404.701,-194.9 415.295,-194.995 407.073,-188.314 404.701,-194.9"/>
</g>
<!-- Node461 -->
<g id="node8" class="node"><title>Node461</title>
<a xlink:href="classokw_1_1gui_1_1adapter_1_1selenium_1_1_se_any_child_window.html#a72faf4aa1717b4178fae1b0570ca9b28" target="_top" xlink:title="Wartet auf das Objekt Wenn kein Fenster gefunden wird,. ">
<polygon fill="white" stroke="black" points="398.5,-143 398.5,-177 553.5,-177 553.5,-143 398.5,-143"/>
<text text-anchor="start" x="406.5" y="-164" font-family="Helvetica,sans-Serif" font-size="10.00">okw.gui.adapter.selenium.</text>
<text text-anchor="middle" x="476" y="-151" font-family="Helvetica,sans-Serif" font-size="10.00">SeAnyChildWindow.WaitForMe</text>
</a>
</g>
<!-- Node460&#45;&gt;Node461 -->
<g id="edge8" class="edge"><title>Node460&#45;&gt;Node461</title>
<path fill="none" stroke="midnightblue" d="M355.69,-136.935C366.325,-138.974 377.372,-141.092 388.269,-143.181"/>
<polygon fill="midnightblue" stroke="midnightblue" points="387.737,-146.643 398.218,-145.088 389.055,-139.768 387.737,-146.643"/>
</g>
<!-- Node470 -->
<g id="node26" class="node"><title>Node470</title>
<a xlink:href="classokw_1_1gui_1_1adapter_1_1selenium_1_1_se_any_child_window.html#a9a138af1fc6ff850d708d66f308a2525" target="_top" xlink:title="Ermittelt aus dem gegebenen Locator das DOM&#45;Elelement, welches das Objekt representiert. ">
<polygon fill="white" stroke="black" points="410.5,-91 410.5,-125 541.5,-125 541.5,-91 410.5,-91"/>
<text text-anchor="start" x="418.5" y="-112" font-family="Helvetica,sans-Serif" font-size="10.00">okw.gui.adapter.selenium.</text>
<text text-anchor="middle" x="476" y="-99" font-family="Helvetica,sans-Serif" font-size="10.00">SeAnyChildWindow.Me</text>
</a>
</g>
<!-- Node460&#45;&gt;Node470 -->
<g id="edge26" class="edge"><title>Node460&#45;&gt;Node470</title>
<path fill="none" stroke="midnightblue" d="M355.69,-117.351C370.276,-116.217 385.635,-115.023 400.32,-113.882"/>
<polygon fill="midnightblue" stroke="midnightblue" points="400.662,-117.366 410.36,-113.102 400.119,-110.387 400.662,-117.366"/>
</g>
<!-- Node460&#45;&gt;Node475 -->
<g id="edge40" class="edge"><title>Node460&#45;&gt;Node475</title>
<path fill="none" stroke="midnightblue" d="M326.541,-105.943C346.405,-98.337 370.291,-89.4354 392,-82 397.644,-80.067 403.522,-78.1183 409.431,-76.2038"/>
<polygon fill="midnightblue" stroke="midnightblue" points="410.913,-79.4046 419.37,-73.0227 408.779,-72.7377 410.913,-79.4046"/>
</g>
<!-- Node462 -->
<g id="node10" class="node"><title>Node462</title>
<a xlink:href="classokw_1_1log_1_1_logger___sngltn.html#ab4fc711bb4c754f251372ff3b14ab9c9" target="_top" xlink:title="Creates a new hierarchical level in the results file. ">
<polygon fill="white" stroke="black" points="607.5,-274 607.5,-308 744.5,-308 744.5,-274 607.5,-274"/>
<text text-anchor="start" x="615.5" y="-295" font-family="Helvetica,sans-Serif" font-size="10.00">okw.log.Logger_Sngltn.Res</text>
<text text-anchor="middle" x="676" y="-282" font-family="Helvetica,sans-Serif" font-size="10.00">OpenList</text>
</a>
</g>
<!-- Node461&#45;&gt;Node462 -->
<g id="edge10" class="edge"><title>Node461&#45;&gt;Node462</title>
<path fill="none" stroke="midnightblue" d="M547.158,-177.01C551.761,-179.594 556.104,-182.571 560,-186 588.965,-211.491 567.215,-239.306 596,-265 597.311,-266.17 598.675,-267.288 600.085,-268.355"/>
<polygon fill="midnightblue" stroke="midnightblue" points="598.32,-271.383 608.603,-273.935 602.156,-265.527 598.32,-271.383"/>
</g>
<!-- Node463 -->
<g id="node12" class="node"><title>Node463</title>
<a xlink:href="classokw_1_1log_1_1_logger___sngltn.html#a8ebceaddd6cc6963ddb8e08c72ea808c" target="_top" xlink:title="LogPrint Function: Prints the values of expressions to the results file. ">
<polygon fill="white" stroke="black" points="809,-140 809,-174 943,-174 943,-140 809,-140"/>
<text text-anchor="start" x="817" y="-161" font-family="Helvetica,sans-Serif" font-size="10.00">okw.log.Logger_Sngltn.Log</text>
<text text-anchor="middle" x="876" y="-148" font-family="Helvetica,sans-Serif" font-size="10.00">Print</text>
</a>
</g>
<!-- Node461&#45;&gt;Node463 -->
<g id="edge12" class="edge"><title>Node461&#45;&gt;Node463</title>
<path fill="none" stroke="midnightblue" d="M553.598,-159.418C624.299,-158.888 728.159,-158.109 798.751,-157.579"/>
<polygon fill="midnightblue" stroke="midnightblue" points="798.943,-161.078 808.916,-157.503 798.89,-154.078 798.943,-161.078"/>
</g>
<!-- Node464 -->
<g id="node14" class="node"><title>Node464</title>
<a xlink:href="classokw_1_1gui_1_1_any_win_base.html#a9929f6fae1f4e2c20df79d32d5bc79db" target="_top" xlink:title="Holt den vollständig (rekursiv) aufgelösten (z.B. ">
<polygon fill="white" stroke="black" points="596.5,-104.5 596.5,-125.5 755.5,-125.5 755.5,-104.5 596.5,-104.5"/>
<text text-anchor="middle" x="676" y="-112.5" font-family="Helvetica,sans-Serif" font-size="10.00">okw.gui.AnyWinBase.getLocator</text>
</a>
</g>
<!-- Node461&#45;&gt;Node464 -->
<g id="edge14" class="edge"><title>Node461&#45;&gt;Node464</title>
<path fill="none" stroke="midnightblue" d="M551.611,-142.987C574.148,-137.917 598.445,-132.45 619.533,-127.705"/>
<polygon fill="midnightblue" stroke="midnightblue" points="620.303,-131.12 629.29,-125.51 618.766,-124.29 620.303,-131.12"/>
</g>
<!-- Node466 -->
<g id="node18" class="node"><title>Node466</title>
<a xlink:href="classokw_1_1log_1_1_logger___sngltn.html#a9b54104f7e0b4c0a473877b19dfaed56" target="_top" xlink:title="Closes a hierarchical level in the results file that was opened with ResOpenList. ...">
<polygon fill="white" stroke="black" points="607.5,-182 607.5,-216 744.5,-216 744.5,-182 607.5,-182"/>
<text text-anchor="start" x="615.5" y="-203" font-family="Helvetica,sans-Serif" font-size="10.00">okw.log.Logger_Sngltn.Res</text>
<text text-anchor="middle" x="676" y="-190" font-family="Helvetica,sans-Serif" font-size="10.00">CloseList</text>
</a>
</g>
<!-- Node461&#45;&gt;Node466 -->
<g id="edge18" class="edge"><title>Node461&#45;&gt;Node466</title>
<path fill="none" stroke="midnightblue" d="M553.611,-175.134C567.975,-177.935 582.988,-180.863 597.381,-183.669"/>
<polygon fill="midnightblue" stroke="midnightblue" points="596.746,-187.111 607.231,-185.59 598.086,-180.241 596.746,-187.111"/>
</g>
<!-- Node467 -->
<g id="node20" class="node"><title>Node467</title>
<a xlink:href="classokw_1_1_log_messenger.html#af225d1f037d47b3b085175c09d78bdd2" target="_top" xlink:title="Holt die Log&#45;Meldung für MethodeNmae/Textkey ohne weitere Parameter. ">
<polygon fill="white" stroke="black" points="596,-234.5 596,-255.5 756,-255.5 756,-234.5 596,-234.5"/>
<text text-anchor="middle" x="676" y="-242.5" font-family="Helvetica,sans-Serif" font-size="10.00">okw.LogMessenger.GetMessage</text>
</a>
</g>
<!-- Node461&#45;&gt;Node467 -->
<g id="edge20" class="edge"><title>Node461&#45;&gt;Node467</title>
<path fill="none" stroke="midnightblue" d="M543.025,-177.147C548.954,-179.724 554.706,-182.661 560,-186 579.951,-198.586 575.709,-212.97 596,-225 599.602,-227.136 603.425,-229.044 607.372,-230.75"/>
<polygon fill="midnightblue" stroke="midnightblue" points="606.171,-234.038 616.76,-234.373 608.691,-227.507 606.171,-234.038"/>
</g>
<!-- Node465 -->
<g id="node16" class="node"><title>Node465</title>
<a xlink:href="classokw_1_1gui_1_1_o_k_w_locator.html#adc74fc2125dd048dc1cb84e011f47ec8" target="_top" xlink:title="Holt den vollständig (rekursiv) aufgelösten (z.B. ">
<polygon fill="white" stroke="black" points="797,-100.5 797,-121.5 955,-121.5 955,-100.5 797,-100.5"/>
<text text-anchor="middle" x="876" y="-108.5" font-family="Helvetica,sans-Serif" font-size="10.00">okw.gui.OKWLocator.getLocator</text>
</a>
</g>
<!-- Node464&#45;&gt;Node465 -->
<g id="edge16" class="edge"><title>Node464&#45;&gt;Node465</title>
<path fill="none" stroke="midnightblue" d="M755.62,-113.408C765.832,-113.203 776.341,-112.993 786.695,-112.786"/>
<polygon fill="midnightblue" stroke="midnightblue" points="787.053,-116.28 796.981,-112.58 786.912,-109.281 787.053,-116.28"/>
</g>
<!-- Node468 -->
<g id="node22" class="node"><title>Node468</title>
<a xlink:href="classokw_1_1_log_messenger.html#a530cd6ab82ec82a04206a2e976ec06e3" target="_top" xlink:title="Interne Kernfunktion holt die Log&#45;Meldung mit Platzhaltern aus der XML&#45;Datei. ">
<polygon fill="white" stroke="black" points="792.5,-234.5 792.5,-255.5 959.5,-255.5 959.5,-234.5 792.5,-234.5"/>
<text text-anchor="middle" x="876" y="-242.5" font-family="Helvetica,sans-Serif" font-size="10.00">okw.LogMessenger.ReadMessage</text>
</a>
</g>
<!-- Node467&#45;&gt;Node468 -->
<g id="edge22" class="edge"><title>Node467&#45;&gt;Node468</title>
<path fill="none" stroke="midnightblue" d="M756.195,-245C764.709,-245 773.423,-245 782.075,-245"/>
<polygon fill="midnightblue" stroke="midnightblue" points="782.189,-248.5 792.189,-245 782.189,-241.5 782.189,-248.5"/>
</g>
<!-- Node469 -->
<g id="node24" class="node"><title>Node469</title>
<a xlink:href="classokw_1_1_o_k_w___xml_reader.html#ab920b5335a2e1429c14cc5f8e79f39eb" target="_top" xlink:title="Lies den TextContent eines Tag. ">
<polygon fill="white" stroke="black" points="996,-228 996,-262 1148,-262 1148,-228 996,-228"/>
<text text-anchor="start" x="1004" y="-249" font-family="Helvetica,sans-Serif" font-size="10.00">okw.OKW_XmlReader.getText</text>
<text text-anchor="middle" x="1072" y="-236" font-family="Helvetica,sans-Serif" font-size="10.00">ContentSingleValue</text>
</a>
</g>
<!-- Node468&#45;&gt;Node469 -->
<g id="edge24" class="edge"><title>Node468&#45;&gt;Node469</title>
<path fill="none" stroke="midnightblue" d="M959.69,-245C968.29,-245 977.041,-245 985.669,-245"/>
<polygon fill="midnightblue" stroke="midnightblue" points="985.725,-248.5 995.725,-245 985.725,-241.5 985.725,-248.5"/>
</g>
<!-- Node470&#45;&gt;Node464 -->
<g id="edge38" class="edge"><title>Node470&#45;&gt;Node464</title>
<path fill="none" stroke="midnightblue" d="M541.764,-110.302C555.918,-110.797 571.112,-111.329 586.006,-111.85"/>
<polygon fill="midnightblue" stroke="midnightblue" points="586.137,-115.357 596.254,-112.209 586.382,-108.361 586.137,-115.357"/>
</g>
<!-- Node471 -->
<g id="node28" class="node"><title>Node471</title>
<a xlink:href="classokw_1_1gui_1_1adapter_1_1selenium_1_1_se_driver.html#acb82765e99981ecc210e7599bbc2c639" target="_top" xlink:title="Gibt die Instance für die einzige Instanz dieser Klasse zurück. ">
<polygon fill="white" stroke="black" points="610.5,-0 610.5,-34 741.5,-34 741.5,-0 610.5,-0"/>
<text text-anchor="start" x="618.5" y="-21" font-family="Helvetica,sans-Serif" font-size="10.00">okw.gui.adapter.selenium.</text>
<text text-anchor="middle" x="676" y="-8" font-family="Helvetica,sans-Serif" font-size="10.00">SeDriver.getInstance</text>
</a>
</g>
<!-- Node470&#45;&gt;Node471 -->
<g id="edge28" class="edge"><title>Node470&#45;&gt;Node471</title>
<path fill="none" stroke="midnightblue" d="M541.721,-91.4133C548.109,-88.7037 554.319,-85.5838 560,-82 579.951,-69.4144 576.138,-55.7255 596,-43 598.561,-41.3591 601.235,-39.8131 603.987,-38.3574"/>
<polygon fill="midnightblue" stroke="midnightblue" points="605.51,-41.5087 612.994,-34.0101 602.467,-35.2045 605.51,-41.5087"/>
</g>
<!-- Node472 -->
<g id="node30" class="node"><title>Node472</title>
<a xlink:href="classokw_1_1gui_1_1adapter_1_1selenium_1_1_se_driver.html#ae08fe1cf4c694bb3a4dfb1f1837b26bc" target="_top" xlink:title="Ermittelt das Webelement mit der gegebenen frameID und dem gegebenen Locator. ">
<polygon fill="white" stroke="black" points="610.5,-52 610.5,-86 741.5,-86 741.5,-52 610.5,-52"/>
<text text-anchor="start" x="618.5" y="-73" font-family="Helvetica,sans-Serif" font-size="10.00">okw.gui.adapter.selenium.</text>
<text text-anchor="middle" x="676" y="-60" font-family="Helvetica,sans-Serif" font-size="10.00">SeDriver.getElement</text>
</a>
</g>
<!-- Node470&#45;&gt;Node472 -->
<g id="edge30" class="edge"><title>Node470&#45;&gt;Node472</title>
<path fill="none" stroke="midnightblue" d="M541.764,-95.1759C560.476,-91.5271 581.007,-87.5237 600.26,-83.7692"/>
<polygon fill="midnightblue" stroke="midnightblue" points="601.051,-87.1811 610.196,-81.8318 599.711,-80.3105 601.051,-87.1811"/>
</g>
<!-- Node472&#45;&gt;Node463 -->
<g id="edge36" class="edge"><title>Node472&#45;&gt;Node463</title>
<path fill="none" stroke="midnightblue" d="M738.451,-86.0519C744.563,-88.6708 750.521,-91.6424 756,-95 775.293,-106.823 772.625,-119.312 792,-131 794.81,-132.695 797.741,-134.289 800.753,-135.787"/>
<polygon fill="midnightblue" stroke="midnightblue" points="799.436,-139.033 809.987,-139.996 802.339,-132.664 799.436,-139.033"/>
</g>
<!-- Node473 -->
<g id="node32" class="node"><title>Node473</title>
<a xlink:href="classokw_1_1gui_1_1adapter_1_1selenium_1_1_se_driver.html#a502a7d54c1a8b80424cd42a4e168a191" target="_top" xlink:title="Wechselt das aktuelle Frame auf das Frame mit der id=iframeID. ">
<polygon fill="white" stroke="black" points="810.5,-48 810.5,-82 941.5,-82 941.5,-48 810.5,-48"/>
<text text-anchor="start" x="818.5" y="-69" font-family="Helvetica,sans-Serif" font-size="10.00">okw.gui.adapter.selenium.</text>
<text text-anchor="middle" x="876" y="-56" font-family="Helvetica,sans-Serif" font-size="10.00">SeDriver.swichToFrame</text>
</a>
</g>
<!-- Node472&#45;&gt;Node473 -->
<g id="edge32" class="edge"><title>Node472&#45;&gt;Node473</title>
<path fill="none" stroke="midnightblue" d="M741.764,-67.6847C760.39,-67.3122 780.819,-66.9036 799.995,-66.5201"/>
<polygon fill="midnightblue" stroke="midnightblue" points="800.268,-70.0154 810.196,-66.3161 800.128,-63.0168 800.268,-70.0154"/>
</g>
<!-- Node474 -->
<g id="node34" class="node"><title>Node474</title>
<a xlink:href="classokw_1_1_o_k_w___helper.html#a3a7ba0f42b29adf70574830688e72e4a" target="_top" xlink:title="Prüft ob der gegeben String fpsStrin null oder leer (&quot;&quot;) ist. ">
<polygon fill="white" stroke="black" points="997.5,-48 997.5,-82 1146.5,-82 1146.5,-48 997.5,-48"/>
<text text-anchor="start" x="1005.5" y="-69" font-family="Helvetica,sans-Serif" font-size="10.00">okw.OKW_Helper.isStringNull</text>
<text text-anchor="middle" x="1072" y="-56" font-family="Helvetica,sans-Serif" font-size="10.00">OrEmpty</text>
</a>
</g>
<!-- Node473&#45;&gt;Node474 -->
<g id="edge34" class="edge"><title>Node473&#45;&gt;Node474</title>
<path fill="none" stroke="midnightblue" d="M941.538,-65C956.235,-65 972.031,-65 987.381,-65"/>
<polygon fill="midnightblue" stroke="midnightblue" points="987.387,-68.5001 997.387,-65 987.387,-61.5001 987.387,-68.5001"/>
</g>
</g>
</svg>
        <g id="navigator" transform="translate(0 0)" fill="#404254">
                <rect fill="#f2f5e9" fill-opacity="0.5" stroke="#606060" stroke-width=".5" x="0" y="0" width="60" height="60"/>
                <use id="zoomplus" xlink:href="#zoomPlus" x="17" y="9" onmousedown="handleZoom(evt,'in')"/>
                <use id="zoomminus" xlink:href="#zoomMin" x="42" y="9" onmousedown="handleZoom(evt,'out')"/>
                <use id="reset" xlink:href="#resetDef" x="30" y="36" onmousedown="handleReset()"/>
                <g id="arrowUp" xlink:href="#dirArrow" transform="translate(30 24)" onmousedown="handlePan(0,-1)">
                  <use xlink:href="#rim" fill="#404040">
                        <set attributeName="fill" to="#808080" begin="arrowUp.mouseover" end="arrowUp.mouseout"/>
                  </use>
                  <path fill="none" stroke="white" stroke-width="1.5" d="M0,-3.0v7 M-2.5,-0.5L0,-3.0L2.5,-0.5"/>
                </g>
                <g id="arrowRight" xlink:href="#dirArrow" transform="rotate(90) translate(36 -43)" onmousedown="handlePan(1,0)">
                  <use xlink:href="#rim" fill="#404040">
                        <set attributeName="fill" to="#808080" begin="arrowRight.mouseover" end="arrowRight.mouseout"/>
                  </use>
                  <path fill="none" stroke="white" stroke-width="1.5" d="M0,-3.0v7 M-2.5,-0.5L0,-3.0L2.5,-0.5"/>
                </g>
                <g id="arrowDown" xlink:href="#dirArrow" transform="rotate(180) translate(-30 -48)" onmousedown="handlePan(0,1)">
                  <use xlink:href="#rim" fill="#404040">
                        <set attributeName="fill" to="#808080" begin="arrowDown.mouseover" end="arrowDown.mouseout"/>
                  </use>
                  <path fill="none" stroke="white" stroke-width="1.5" d="M0,-3.0v7 M-2.5,-0.5L0,-3.0L2.5,-0.5"/>
                </g>
                <g id="arrowLeft" xlink:href="#dirArrow" transform="rotate(270) translate(-36 17)" onmousedown="handlePan(-1,0)">
                  <use xlink:href="#rim" fill="#404040">
                        <set attributeName="fill" to="#808080" begin="arrowLeft.mouseover" end="arrowLeft.mouseout"/>
                  </use>
                  <path fill="none" stroke="white" stroke-width="1.5" d="M0,-3.0v7 M-2.5,-0.5L0,-3.0L2.5,-0.5"/>
                </g>
        </g>
        <svg viewBox="0 0 15 15" width="100%" height="30px" preserveAspectRatio="xMaxYMin meet">
         <g id="arrow_out" transform="scale(0.3 0.3)">
          <a xlink:href="classokw_1_1gui_1_1adapter_1_1selenium_1_1_se_any_child_window_a34e6e2cd7b15f0e05c4272941d3248cf_cgraph_org.svg" target="_base">
           <rect id="button" ry="5" rx="5" y="6" x="6" height="38" width="38"
                fill="#f2f5e9" fill-opacity="0.5" stroke="#606060" stroke-width="1.0"/>
           <path id="arrow"
             d="M 11.500037,31.436501 C 11.940474,20.09759 22.043105,11.32322 32.158766,21.979434 L 37.068811,17.246167 C 37.068811,17.246167 37.088388,32 37.088388,32 L 22.160133,31.978069 C 22.160133,31.978069 26.997745,27.140456 26.997745,27.140456 C 18.528582,18.264221 13.291696,25.230495 11.500037,31.436501 z"
             style="fill:#404040;"/>
          </a>
         </g>
        </svg>
</svg>
