<?xml version="1.0" encoding="UTF-8" standalone="no"?>
<!DOCTYPE svg PUBLIC "-//W3C//DTD SVG 1.1//EN"
 "http://www.w3.org/Graphics/SVG/1.1/DTD/svg11.dtd">
<!-- Generated by graphviz version 2.26.3 (20100126.1600)
 -->
<!-- Title: okw.core.Core.MemorizeIsActive Pages: 1 -->
<svg width="568pt" height="528pt"
 viewBox="0.00 0.00 568.00 528.00" xmlns="http://www.w3.org/2000/svg" xmlns:xlink="http://www.w3.org/1999/xlink">
<g id="graph1" class="graph" transform="scale(1 1) rotate(0) translate(4 524)">
<title>okw.core.Core.MemorizeIsActive</title>
<polygon fill="white" stroke="white" points="-4,5 -4,-524 565,-524 565,5 -4,5"/>
<!-- Node867 -->
<g id="node1" class="node"><title>Node867</title>
<polygon fill="#bfbfbf" stroke="black" points="0,-195 0,-229 134,-229 134,-195 0,-195"/>
<text text-anchor="start" x="8" y="-216" font-family="Helvetica,sans-Serif" font-size="10.00">okw.core.Core.MemorizeIs</text>
<text text-anchor="middle" x="67" y="-203" font-family="Helvetica,sans-Serif" font-size="10.00">Active</text>
</g>
<!-- Node868 -->
<g id="node3" class="node"><title>Node868</title>
<a xlink:href="classokw_1_1core_1_1_e_n.html#a935b5a215e8176e6abda9bc268f107f4" target="_top" xlink:title="Merkt sich den Zustand des gegebenen Objekts. ">
<polygon fill="white" stroke="black" points="170.5,-228.5 170.5,-249.5 325.5,-249.5 325.5,-228.5 170.5,-228.5"/>
<text text-anchor="middle" x="248" y="-236.5" font-family="Helvetica,sans-Serif" font-size="10.00">okw.core.EN.MemorizeIsActive</text>
</a>
</g>
<!-- Node867&#45;&gt;Node868 -->
<g id="edge2" class="edge"><title>Node867&#45;&gt;Node868</title>
<path fill="none" stroke="midnightblue" d="M144.158,-223.51C155.17,-225.152 166.451,-226.835 177.33,-228.458"/>
<polygon fill="midnightblue" stroke="midnightblue" points="144.547,-220.029 134.141,-222.015 143.515,-226.953 144.547,-220.029"/>
</g>
<!-- Node878 -->
<g id="node23" class="node"><title>Node878</title>
<a xlink:href="classokw_1_1core_1_1_current_object___test.html#a071092391826959809ec74f3c4d2ec59" target="_top" xlink:title="Testziel: Prüft den Aufruf der Methode MemorizeIsActive( FN, MemKey ) im ChildObject. ">
<polygon fill="white" stroke="black" points="179.5,-162.5 179.5,-209.5 316.5,-209.5 316.5,-162.5 179.5,-162.5"/>
<text text-anchor="start" x="187.5" y="-196.5" font-family="Helvetica,sans-Serif" font-size="10.00">okw.core.CurrentObject</text>
<text text-anchor="start" x="187.5" y="-183.5" font-family="Helvetica,sans-Serif" font-size="10.00">_Test.tc_MemorizeIsActive</text>
<text text-anchor="middle" x="248" y="-170.5" font-family="Helvetica,sans-Serif" font-size="10.00">_ChildObject</text>
</a>
</g>
<!-- Node867&#45;&gt;Node878 -->
<g id="edge22" class="edge"><title>Node867&#45;&gt;Node878</title>
<path fill="none" stroke="midnightblue" d="M144.31,-200.895C155.993,-199.216 167.975,-197.495 179.456,-195.846"/>
<polygon fill="midnightblue" stroke="midnightblue" points="143.541,-197.469 134.141,-202.356 144.537,-204.398 143.541,-197.469"/>
</g>
<!-- Node869 -->
<g id="node5" class="node"><title>Node869</title>
<a xlink:href="classokw_1_1core_1_1_e_n___keywords___i_g_n_o_r_e___test.html#a1b5d924dc382fe974ce129c19249d5f0" target="_top" xlink:title="okw.core.EN_Keywords\l_IGNORE_Test.TC_MemorizeIsActive\l_IGNORE">
<polygon fill="white" stroke="black" points="367.5,-472.5 367.5,-519.5 554.5,-519.5 554.5,-472.5 367.5,-472.5"/>
<text text-anchor="start" x="375.5" y="-506.5" font-family="Helvetica,sans-Serif" font-size="10.00">okw.core.EN_Keywords</text>
<text text-anchor="start" x="375.5" y="-493.5" font-family="Helvetica,sans-Serif" font-size="10.00">_IGNORE_Test.TC_MemorizeIsActive</text>
<text text-anchor="middle" x="461" y="-480.5" font-family="Helvetica,sans-Serif" font-size="10.00">_IGNORE</text>
</a>
</g>
<!-- Node868&#45;&gt;Node869 -->
<g id="edge4" class="edge"><title>Node868&#45;&gt;Node869</title>
<path fill="none" stroke="midnightblue" d="M252.787,-259.468C264.072,-303.245 296.462,-406.567 362,-463 365.981,-466.428 370.331,-469.503 374.915,-472.261"/>
<polygon fill="midnightblue" stroke="midnightblue" points="256.166,-258.552 250.365,-249.686 249.371,-260.234 256.166,-258.552"/>
</g>
<!-- Node870 -->
<g id="node7" class="node"><title>Node870</title>
<a xlink:href="classokw_1_1core_1_1_e_n___keywords___i_g_n_o_r_e___test.html#a70e3024dfc57199124c8219e76691602" target="_top" xlink:title="okw.core.EN_Keywords\l_IGNORE_Test.TC_MemorizeIsActive\l_IGNORE_StringEmpty">
<polygon fill="white" stroke="black" points="367.5,-406.5 367.5,-453.5 554.5,-453.5 554.5,-406.5 367.5,-406.5"/>
<text text-anchor="start" x="375.5" y="-440.5" font-family="Helvetica,sans-Serif" font-size="10.00">okw.core.EN_Keywords</text>
<text text-anchor="start" x="375.5" y="-427.5" font-family="Helvetica,sans-Serif" font-size="10.00">_IGNORE_Test.TC_MemorizeIsActive</text>
<text text-anchor="middle" x="461" y="-414.5" font-family="Helvetica,sans-Serif" font-size="10.00">_IGNORE_StringEmpty</text>
</a>
</g>
<!-- Node868&#45;&gt;Node870 -->
<g id="edge6" class="edge"><title>Node868&#45;&gt;Node870</title>
<path fill="none" stroke="midnightblue" d="M257.117,-258.766C273.459,-292.076 310.868,-359.424 362,-397 366.672,-400.433 371.722,-403.524 376.984,-406.304"/>
<polygon fill="midnightblue" stroke="midnightblue" points="260.201,-257.104 252.73,-249.592 253.886,-260.124 260.201,-257.104"/>
</g>
<!-- Node871 -->
<g id="node9" class="node"><title>Node871</title>
<a xlink:href="classokw_1_1core_1_1_e_n___o_k_w_not_allowed_value_exception___keywords___i_g_n_o_r_e.html#a6e44ea6f8c45474e652babb6966c380f" target="_top" xlink:title="Prüft ob &quot;${IGNORE} &quot; die Ausnahme okw.exceptions.OKWNotAllowedValueException auslöst. ">
<polygon fill="white" stroke="black" points="362.5,-340.5 362.5,-387.5 559.5,-387.5 559.5,-340.5 362.5,-340.5"/>
<text text-anchor="start" x="370.5" y="-374.5" font-family="Helvetica,sans-Serif" font-size="10.00">okw.core.EN_OKWNotAllowed</text>
<text text-anchor="start" x="370.5" y="-361.5" font-family="Helvetica,sans-Serif" font-size="10.00">ValueException_Keywords</text>
<text text-anchor="middle" x="461" y="-348.5" font-family="Helvetica,sans-Serif" font-size="10.00">_IGNORE.tcMemorizeIsActiveIGNORE1</text>
</a>
</g>
<!-- Node868&#45;&gt;Node871 -->
<g id="edge8" class="edge"><title>Node868&#45;&gt;Node871</title>
<path fill="none" stroke="midnightblue" d="M265.681,-256.699C286.919,-277.098 324.405,-310.443 362,-331 368.279,-334.433 374.977,-337.593 381.816,-340.481"/>
<polygon fill="midnightblue" stroke="midnightblue" points="267.973,-254.046 258.371,-249.569 263.086,-259.057 267.973,-254.046"/>
</g>
<!-- Node872 -->
<g id="node11" class="node"><title>Node872</title>
<a xlink:href="classokw_1_1core_1_1_e_n___o_k_w_not_allowed_value_exception___keywords___i_g_n_o_r_e.html#aecc232a734bfeaf3b7e1ca88028c6122" target="_top" xlink:title="Prüft ob &quot;&quot;${IGNORE}${TCN}&quot; die Ausnahme okw.exceptions.OKWNotAllowedValueException auslöst...">
<polygon fill="white" stroke="black" points="362.5,-274.5 362.5,-321.5 559.5,-321.5 559.5,-274.5 362.5,-274.5"/>
<text text-anchor="start" x="370.5" y="-308.5" font-family="Helvetica,sans-Serif" font-size="10.00">okw.core.EN_OKWNotAllowed</text>
<text text-anchor="start" x="370.5" y="-295.5" font-family="Helvetica,sans-Serif" font-size="10.00">ValueException_Keywords</text>
<text text-anchor="middle" x="461" y="-282.5" font-family="Helvetica,sans-Serif" font-size="10.00">_IGNORE.tcMemorizeIsActiveIGNORE2</text>
</a>
</g>
<!-- Node868&#45;&gt;Node872 -->
<g id="edge10" class="edge"><title>Node868&#45;&gt;Node872</title>
<path fill="none" stroke="midnightblue" d="M295.846,-252.253C319.484,-258.801 348.724,-266.9 376.001,-274.456"/>
<polygon fill="midnightblue" stroke="midnightblue" points="296.652,-248.845 286.08,-249.548 294.783,-255.591 296.652,-248.845"/>
</g>
<!-- Node873 -->
<g id="node13" class="node"><title>Node873</title>
<a xlink:href="classokw_1_1_se_input_checkbox_1_1_se_input_checkbox___test.html#a702ffb63f0af2c995bd71ca884b0f408" target="_top" xlink:title="Prüft die SetFocusFunktion bei Textfelder mit dem Attribute &quot;ReadOnly&quot;. ">
<polygon fill="white" stroke="black" points="385,-222 385,-256 537,-256 537,-222 385,-222"/>
<text text-anchor="start" x="393" y="-243" font-family="Helvetica,sans-Serif" font-size="10.00">okw.SeInputCheckbox.SeInput</text>
<text text-anchor="middle" x="461" y="-230" font-family="Helvetica,sans-Serif" font-size="10.00">Checkbox_Test.tcSetFocus</text>
</a>
</g>
<!-- Node868&#45;&gt;Node873 -->
<g id="edge12" class="edge"><title>Node868&#45;&gt;Node873</title>
<path fill="none" stroke="midnightblue" d="M335.606,-239C351.988,-239 368.986,-239 384.982,-239"/>
<polygon fill="midnightblue" stroke="midnightblue" points="335.5,-235.5 325.5,-239 335.5,-242.5 335.5,-235.5"/>
</g>
<!-- Node874 -->
<g id="node15" class="node"><title>Node874</title>
<a xlink:href="classokw_1_1_se_input_field_1_1_se_input_field___test.html#a47dccb1226e59298b732ce75379b95cb" target="_top" xlink:title="Teste das Schlüsselwort MemorizeIsActive( FN, MemKey ) eines SeInputText Prüfen. ">
<polygon fill="white" stroke="black" points="377,-170 377,-204 545,-204 545,-170 377,-170"/>
<text text-anchor="start" x="385" y="-191" font-family="Helvetica,sans-Serif" font-size="10.00">okw.SeInputField.SeInput</text>
<text text-anchor="middle" x="461" y="-178" font-family="Helvetica,sans-Serif" font-size="10.00">Field_Test.tcMemorizeIsActive_en</text>
</a>
</g>
<!-- Node868&#45;&gt;Node874 -->
<g id="edge14" class="edge"><title>Node868&#45;&gt;Node874</title>
<path fill="none" stroke="midnightblue" d="M300.844,-226.099C328.115,-219.441 361.739,-211.233 391.127,-204.058"/>
<polygon fill="midnightblue" stroke="midnightblue" points="299.988,-222.705 291.104,-228.477 301.649,-229.505 299.988,-222.705"/>
</g>
<!-- Node875 -->
<g id="node17" class="node"><title>Node875</title>
<a xlink:href="classokw_1_1_se_input_field_1_1_se_input_field___test.html#aa7612889d0a642c440c6a085e205ac8f" target="_top" xlink:title="okw.SeInputField.SeInput\lField_Test.tcSelect_OKWGUIObject\lNotFoundException">
<polygon fill="white" stroke="black" points="372.5,-104.5 372.5,-151.5 549.5,-151.5 549.5,-104.5 372.5,-104.5"/>
<text text-anchor="start" x="380.5" y="-138.5" font-family="Helvetica,sans-Serif" font-size="10.00">okw.SeInputField.SeInput</text>
<text text-anchor="start" x="380.5" y="-125.5" font-family="Helvetica,sans-Serif" font-size="10.00">Field_Test.tcSelect_OKWGUIObject</text>
<text text-anchor="middle" x="461" y="-112.5" font-family="Helvetica,sans-Serif" font-size="10.00">NotFoundException</text>
</a>
</g>
<!-- Node868&#45;&gt;Node875 -->
<g id="edge16" class="edge"><title>Node868&#45;&gt;Node875</title>
<path fill="none" stroke="midnightblue" d="M318.051,-224.037C320.824,-222.517 323.489,-220.843 326,-219 350.459,-201.048 338.191,-179.805 362,-161 366.407,-157.519 371.199,-154.397 376.217,-151.598"/>
<polygon fill="midnightblue" stroke="midnightblue" points="316.418,-220.937 308.884,-228.386 319.419,-227.262 316.418,-220.937"/>
</g>
<!-- Node876 -->
<g id="node19" class="node"><title>Node876</title>
<a xlink:href="classokw_1_1_se_input_radio_1_1_se_input_radio___e_n___test.html#a7810904e1268bdaf14922ba950527c06" target="_top" xlink:title="Test des Schlüsselwortes MemorizeIsActive für den GUI&#45;Adapter SeInputRadio. ">
<polygon fill="white" stroke="black" points="370,-52 370,-86 552,-86 552,-52 370,-52"/>
<text text-anchor="start" x="378" y="-73" font-family="Helvetica,sans-Serif" font-size="10.00">okw.SeInputRadio.SeInput</text>
<text text-anchor="middle" x="461" y="-60" font-family="Helvetica,sans-Serif" font-size="10.00">Radio_EN_Test.tc_MemorizeIsActive</text>
</a>
</g>
<!-- Node868&#45;&gt;Node876 -->
<g id="edge18" class="edge"><title>Node868&#45;&gt;Node876</title>
<path fill="none" stroke="midnightblue" d="M321.349,-222.983C322.977,-221.748 324.532,-220.423 326,-219 367.214,-179.067 320.903,-135.053 362,-95 365.436,-91.6512 369.249,-88.7196 373.32,-86.1544"/>
<polygon fill="midnightblue" stroke="midnightblue" points="319.286,-220.146 312.681,-228.429 323.01,-226.073 319.286,-220.146"/>
</g>
<!-- Node877 -->
<g id="node21" class="node"><title>Node877</title>
<a xlink:href="classokw_1_1_se_link_1_1_se_link___e_n___test.html#a6790e3a557b34eef479a3306c331bc46" target="_top" xlink:title="Prüft ob die VerifyIsActive die Ausnahme OKWFrameObjectMethodNotImplemented auslöst. ">
<polygon fill="white" stroke="black" points="387.5,-0 387.5,-34 534.5,-34 534.5,-0 387.5,-0"/>
<text text-anchor="start" x="395.5" y="-21" font-family="Helvetica,sans-Serif" font-size="10.00">okw.SeLink.SeLink_EN</text>
<text text-anchor="middle" x="461" y="-8" font-family="Helvetica,sans-Serif" font-size="10.00">_Test.tcMemorizeIsActive_en</text>
</a>
</g>
<!-- Node868&#45;&gt;Node877 -->
<g id="edge20" class="edge"><title>Node868&#45;&gt;Node877</title>
<path fill="none" stroke="midnightblue" d="M322.12,-222.632C323.477,-221.497 324.774,-220.288 326,-219 381.05,-161.171 307.119,-100.989 362,-43 368.962,-35.6432 377.732,-30.2735 387.16,-26.3707"/>
<polygon fill="midnightblue" stroke="midnightblue" points="320.029,-219.822 313.753,-228.358 323.982,-225.599 320.029,-219.822"/>
</g>
</g>
</svg>
