<?xml version="1.0" encoding="UTF-8" standalone="no"?>
<!DOCTYPE svg PUBLIC "-//W3C//DTD SVG 1.1//EN"
 "http://www.w3.org/Graphics/SVG/1.1/DTD/svg11.dtd">
<!-- Generated by graphviz version 2.38.0 (20140413.2041)
 -->
<!-- Title: okw.gui.adapter.selenium.SeAnyWindow.VerifyTooltip Pages: 1 -->
<!--zoomable 318 -->
<svg id="main" version="1.1" xmlns="http://www.w3.org/2000/svg" xmlns:xlink="http://www.w3.org/1999/xlink" xml:space="preserve" onload="init(evt)">
<style type="text/css"><![CDATA[
.edge:hover path { stroke: red; }
.edge:hover polygon { stroke: red; fill: red; }
]]></style>
<script type="text/javascript"><![CDATA[
var edges = document.getElementsByTagName('g');
if (edges && edges.length) {
  for (var i=0;i<edges.length;i++) {
    if (edges[i].id.substr(0,4)=='edge') {
      edges[i].setAttribute('class','edge');
    }
  }
}
]]></script>
        <defs>
                <circle id="rim" cx="0" cy="0" r="7"/>
                <circle id="rim2" cx="0" cy="0" r="3.5"/>
                <g id="zoomPlus">
                        <use xlink:href="#rim" fill="#404040">
                                <set attributeName="fill" to="#808080" begin="zoomplus.mouseover" end="zoomplus.mouseout"/>
                        </use>
                        <path d="M-4,0h8M0,-4v8" fill="none" stroke="white" stroke-width="1.5" pointer-events="none"/>
                </g>
                <g id="zoomMin">
                        <use xlink:href="#rim" fill="#404040">
                                <set attributeName="fill" to="#808080" begin="zoomminus.mouseover" end="zoomminus.mouseout"/>
                        </use>
                        <path d="M-4,0h8" fill="none" stroke="white" stroke-width="1.5" pointer-events="none"/>
                </g>
                <g id="dirArrow">
                        <path fill="none" stroke="white" stroke-width="1.5" d="M0,-3.0v7 M-2.5,-0.5L0,-3.0L2.5,-0.5"/>
                </g>
               <g id="resetDef">
                       <use xlink:href="#rim2" fill="#404040">
                               <set attributeName="fill" to="#808080" begin="reset.mouseover" end="reset.mouseout"/>
                       </use>
               </g>
        </defs>

<script type="text/javascript">
var viewWidth = 978;
var viewHeight = 318;
var sectionId = 'dynsection-42';
</script>
<script xlink:href="svgpan.js"/>
<svg id="graph" class="graph">
<g id="viewport">
<title>okw.gui.adapter.selenium.SeAnyWindow.VerifyTooltip</title>
<polygon fill="white" stroke="none" points="-4,4 -4,-314 974,-314 974,4 -4,4"/>
<!-- Node560 -->
<g id="node1" class="node"><title>Node560</title>
<g id="a_node1"><a xlink:title="Ermittelt den textuellen Inhalt des ToolTips für Prüfewert.">
<polygon fill="#bfbfbf" stroke="black" points="0,-142.5 0,-172.5 141,-172.5 141,-142.5 0,-142.5"/>
<text text-anchor="start" x="8" y="-160.5" font-family="Helvetica,sans-Serif" font-size="10.00">okw.gui.adapter.selenium.</text>
<text text-anchor="middle" x="70.5" y="-149.5" font-family="Helvetica,sans-Serif" font-size="10.00">SeAnyWindow.VerifyTooltip</text>
</a>
</g>
</g>
<!-- Node561 -->
<g id="node2" class="node"><title>Node561</title>
<g id="a_node2"><a xlink:href="classokw_1_1gui_1_1adapter_1_1selenium_1_1_se_any_window.html#afb3aa055dd6f2604bf484a9c44f77909" target="_top" xlink:title="Ermittelt den textuellen Inhalt des ToolTips.">
<polygon fill="white" stroke="black" points="177,-142.5 177,-172.5 317,-172.5 317,-142.5 177,-142.5"/>
<text text-anchor="start" x="185" y="-160.5" font-family="Helvetica,sans-Serif" font-size="10.00">okw.gui.adapter.selenium.</text>
<text text-anchor="middle" x="247" y="-149.5" font-family="Helvetica,sans-Serif" font-size="10.00">SeAnyWindow.getTooltip</text>
</a>
</g>
</g>
<!-- Node560&#45;&gt;Node561 -->
<g id="edge1" class="edge"><title>Node560&#45;&gt;Node561</title>
<path fill="none" stroke="midnightblue" d="M141.219,-157.5C149.68,-157.5 158.37,-157.5 166.954,-157.5"/>
<polygon fill="midnightblue" stroke="midnightblue" points="166.961,-161 176.961,-157.5 166.961,-154 166.961,-161"/>
</g>
<!-- Node562 -->
<g id="node3" class="node"><title>Node562</title>
<g id="a_node3"><a xlink:href="classokw_1_1gui_1_1adapter_1_1selenium_1_1_se_any_window.html#ad806d20bf0e42d47e0aa5282532d3230" target="_top" xlink:title="Prüft die Existenz des aktuellen Objektes.">
<polygon fill="white" stroke="black" points="367.5,-142.5 367.5,-172.5 507.5,-172.5 507.5,-142.5 367.5,-142.5"/>
<text text-anchor="start" x="375.5" y="-160.5" font-family="Helvetica,sans-Serif" font-size="10.00">okw.gui.adapter.selenium.</text>
<text text-anchor="middle" x="437.5" y="-149.5" font-family="Helvetica,sans-Serif" font-size="10.00">SeAnyWindow.getExists</text>
</a>
</g>
</g>
<!-- Node561&#45;&gt;Node562 -->
<g id="edge2" class="edge"><title>Node561&#45;&gt;Node562</title>
<path fill="none" stroke="midnightblue" d="M317.12,-157.5C330.182,-157.5 343.939,-157.5 357.283,-157.5"/>
<polygon fill="midnightblue" stroke="midnightblue" points="357.388,-161 367.388,-157.5 357.388,-154 357.388,-161"/>
</g>
<!-- Node570 -->
<g id="node11" class="node"><title>Node570</title>
<g id="a_node11"><a xlink:href="classokw_1_1_log_messenger.html#af225d1f037d47b3b085175c09d78bdd2" target="_top" xlink:title="Holt die Log&#45;Meldung für MethodeNmae/Textkey ohne weitere Parameter.">
<polygon fill="white" stroke="black" points="353,-55 353,-74 522,-74 522,-55 353,-55"/>
<text text-anchor="middle" x="437.5" y="-62" font-family="Helvetica,sans-Serif" font-size="10.00">okw.LogMessenger.GetMessage</text>
</a>
</g>
</g>
<!-- Node561&#45;&gt;Node570 -->
<g id="edge10" class="edge"><title>Node561&#45;&gt;Node570</title>
<path fill="none" stroke="midnightblue" d="M278.705,-142.351C314.465,-124.708 373.068,-95.7955 407.9,-78.6102"/>
<polygon fill="midnightblue" stroke="midnightblue" points="409.636,-81.6565 417.056,-74.0932 406.539,-75.379 409.636,-81.6565"/>
</g>
<!-- Node573 -->
<g id="node14" class="node"><title>Node573</title>
<g id="a_node14"><a xlink:href="classokw_1_1gui_1_1adapter_1_1selenium_1_1_se_any_window.html#a8b42bf27f4660b4807375a57fa9de815" target="_top" xlink:title="Ermittelt aus dem gegebenen Locator das DOM&#45;Elelement, welches das Objekt representiert.">
<polygon fill="white" stroke="black" points="367.5,-210.5 367.5,-240.5 507.5,-240.5 507.5,-210.5 367.5,-210.5"/>
<text text-anchor="start" x="375.5" y="-228.5" font-family="Helvetica,sans-Serif" font-size="10.00">okw.gui.adapter.selenium.</text>
<text text-anchor="middle" x="437.5" y="-217.5" font-family="Helvetica,sans-Serif" font-size="10.00">SeAnyWindow.Me</text>
</a>
</g>
</g>
<!-- Node561&#45;&gt;Node573 -->
<g id="edge13" class="edge"><title>Node561&#45;&gt;Node573</title>
<path fill="none" stroke="midnightblue" d="M289.834,-172.591C318.021,-182.76 355.38,-196.236 385.337,-207.043"/>
<polygon fill="midnightblue" stroke="midnightblue" points="384.188,-210.35 394.783,-210.451 386.564,-203.765 384.188,-210.35"/>
</g>
<!-- Node563 -->
<g id="node4" class="node"><title>Node563</title>
<g id="a_node4"><a xlink:href="classokw_1_1gui_1_1_any_win_base.html#a9929f6fae1f4e2c20df79d32d5bc79db" target="_top" xlink:title="Holt den vollständig (rekursiv) aufgelösten (z.B.">
<polygon fill="white" stroke="black" points="568.5,-192 568.5,-211 735.5,-211 735.5,-192 568.5,-192"/>
<text text-anchor="middle" x="652" y="-199" font-family="Helvetica,sans-Serif" font-size="10.00">okw.gui.AnyWinBase.getLocator</text>
</a>
</g>
</g>
<!-- Node562&#45;&gt;Node563 -->
<g id="edge3" class="edge"><title>Node562&#45;&gt;Node563</title>
<path fill="none" stroke="midnightblue" d="M507.682,-172.031C524.168,-175.478 541.706,-179.131 558,-182.5 569.725,-184.924 582.286,-187.503 594.264,-189.953"/>
<polygon fill="midnightblue" stroke="midnightblue" points="593.658,-193.402 604.157,-191.975 595.06,-186.543 593.658,-193.402"/>
</g>
<!-- Node565 -->
<g id="node6" class="node"><title>Node565</title>
<g id="a_node6"><a xlink:href="classokw_1_1gui_1_1adapter_1_1selenium_1_1webdriver_1_1_se_driver.html#aee9e3f8a67f4ad1f8100a33ba71c926e" target="_top" xlink:title="Gibt die Instance für die einzige Instanz dieser Klasse zurück.">
<polygon fill="white" stroke="black" points="558,-230.5 558,-260.5 746,-260.5 746,-230.5 558,-230.5"/>
<text text-anchor="start" x="566" y="-248.5" font-family="Helvetica,sans-Serif" font-size="10.00">okw.gui.adapter.selenium.webdriver.</text>
<text text-anchor="middle" x="652" y="-237.5" font-family="Helvetica,sans-Serif" font-size="10.00">SeDriver.getInstance</text>
</a>
</g>
</g>
<!-- Node562&#45;&gt;Node565 -->
<g id="edge5" class="edge"><title>Node562&#45;&gt;Node565</title>
<path fill="none" stroke="midnightblue" d="M467.1,-172.565C483.224,-181.06 503.738,-191.869 522,-201.5 538.003,-209.939 541.16,-213.888 558,-220.5 564.274,-222.963 570.878,-225.27 577.552,-227.41"/>
<polygon fill="midnightblue" stroke="midnightblue" points="576.765,-230.829 587.352,-230.423 578.822,-224.138 576.765,-230.829"/>
</g>
<!-- Node566 -->
<g id="node7" class="node"><title>Node566</title>
<g id="a_node7"><a xlink:href="classokw_1_1gui_1_1adapter_1_1selenium_1_1webdriver_1_1_se_driver.html#a3505c2c7aba67399be71f26d15489839" target="_top" xlink:title="Ermittelt das Webelement mit der gegebenen frameID und dem gegebenen Locator.">
<polygon fill="white" stroke="black" points="558,-142.5 558,-172.5 746,-172.5 746,-142.5 558,-142.5"/>
<text text-anchor="start" x="566" y="-160.5" font-family="Helvetica,sans-Serif" font-size="10.00">okw.gui.adapter.selenium.webdriver.</text>
<text text-anchor="middle" x="652" y="-149.5" font-family="Helvetica,sans-Serif" font-size="10.00">SeDriver.getElements</text>
</a>
</g>
</g>
<!-- Node562&#45;&gt;Node566 -->
<g id="edge6" class="edge"><title>Node562&#45;&gt;Node566</title>
<path fill="none" stroke="midnightblue" d="M507.786,-157.5C520.526,-157.5 534.076,-157.5 547.566,-157.5"/>
<polygon fill="midnightblue" stroke="midnightblue" points="547.855,-161 557.855,-157.5 547.855,-154 547.855,-161"/>
</g>
<!-- Node568 -->
<g id="node9" class="node"><title>Node568</title>
<g id="a_node9"><a xlink:href="classokw_1_1log_1_1_logger___sngltn.html#a2c15e9b2cd0c6266f4c67b8cb00d92e5" target="_top" xlink:title="LogWarning Function: Logs a warning to the results file.">
<polygon fill="white" stroke="black" points="580.5,-44.5 580.5,-74.5 723.5,-74.5 723.5,-44.5 580.5,-44.5"/>
<text text-anchor="start" x="588.5" y="-62.5" font-family="Helvetica,sans-Serif" font-size="10.00">okw.log.Logger_Sngltn.Log</text>
<text text-anchor="middle" x="652" y="-51.5" font-family="Helvetica,sans-Serif" font-size="10.00">Warning</text>
</a>
</g>
</g>
<!-- Node562&#45;&gt;Node568 -->
<g id="edge8" class="edge"><title>Node562&#45;&gt;Node568</title>
<path fill="none" stroke="midnightblue" d="M458.611,-142.39C481.559,-125.798 520.745,-99.405 558,-83.5 562.766,-81.4652 567.745,-79.5708 572.816,-77.8126"/>
<polygon fill="midnightblue" stroke="midnightblue" points="574.231,-81.0325 582.648,-74.5984 572.056,-74.379 574.231,-81.0325"/>
</g>
<!-- Node569 -->
<g id="node10" class="node"><title>Node569</title>
<g id="a_node10"><a xlink:href="classokw_1_1log_1_1_logger___sngltn.html#a313f97c79ba4662d9daaf7f537dd02f4" target="_top" xlink:title="Loggt eine Nachricht.">
<polygon fill="white" stroke="black" points="580.5,-93.5 580.5,-123.5 723.5,-123.5 723.5,-93.5 580.5,-93.5"/>
<text text-anchor="start" x="588.5" y="-111.5" font-family="Helvetica,sans-Serif" font-size="10.00">okw.log.Logger_Sngltn.Log</text>
<text text-anchor="middle" x="652" y="-100.5" font-family="Helvetica,sans-Serif" font-size="10.00">PrintDebug</text>
</a>
</g>
</g>
<!-- Node562&#45;&gt;Node569 -->
<g id="edge9" class="edge"><title>Node562&#45;&gt;Node569</title>
<path fill="none" stroke="midnightblue" d="M503.701,-142.465C526.546,-137.198 552.383,-131.24 575.968,-125.802"/>
<polygon fill="midnightblue" stroke="midnightblue" points="576.964,-129.164 585.922,-123.506 575.391,-122.343 576.964,-129.164"/>
</g>
<!-- Node564 -->
<g id="node5" class="node"><title>Node564</title>
<g id="a_node5"><a xlink:href="classokw_1_1gui_1_1_o_k_w_locator.html#adc74fc2125dd048dc1cb84e011f47ec8" target="_top" xlink:title="Holt den vollständig (rekursiv) aufgelösten (z.B.">
<polygon fill="white" stroke="black" points="793,-192 793,-211 959,-211 959,-192 793,-192"/>
<text text-anchor="middle" x="876" y="-199" font-family="Helvetica,sans-Serif" font-size="10.00">okw.gui.OKWLocator.getLocator</text>
</a>
</g>
</g>
<!-- Node563&#45;&gt;Node564 -->
<g id="edge4" class="edge"><title>Node563&#45;&gt;Node564</title>
<path fill="none" stroke="midnightblue" d="M735.665,-201.5C750.935,-201.5 766.971,-201.5 782.51,-201.5"/>
<polygon fill="midnightblue" stroke="midnightblue" points="782.636,-205 792.636,-201.5 782.636,-198 782.636,-205"/>
</g>
<!-- Node567 -->
<g id="node8" class="node"><title>Node567</title>
<g id="a_node8"><a xlink:href="classokw_1_1gui_1_1adapter_1_1selenium_1_1webdriver_1_1_se_driver.html#a47eec72c911c05beb2127672daafb325" target="_top" xlink:title="Wechselt das aktuelle Frame auf das Frame mit der id=iframeID.">
<polygon fill="white" stroke="black" points="782,-230.5 782,-260.5 970,-260.5 970,-230.5 782,-230.5"/>
<text text-anchor="start" x="790" y="-248.5" font-family="Helvetica,sans-Serif" font-size="10.00">okw.gui.adapter.selenium.webdriver.</text>
<text text-anchor="middle" x="876" y="-237.5" font-family="Helvetica,sans-Serif" font-size="10.00">SeDriver.swichToFrame</text>
</a>
</g>
</g>
<!-- Node566&#45;&gt;Node567 -->
<g id="edge7" class="edge"><title>Node566&#45;&gt;Node567</title>
<path fill="none" stroke="midnightblue" d="M725.219,-172.604C732.473,-175.378 739.537,-178.648 746,-182.5 765.984,-194.411 762.016,-208.589 782,-220.5 785.635,-222.667 789.461,-224.65 793.404,-226.463"/>
<polygon fill="midnightblue" stroke="midnightblue" points="792.206,-229.756 802.781,-230.396 794.913,-223.301 792.206,-229.756"/>
</g>
<!-- Node571 -->
<g id="node12" class="node"><title>Node571</title>
<g id="a_node12"><a xlink:href="classokw_1_1_log_messenger.html#a530cd6ab82ec82a04206a2e976ec06e3" target="_top" xlink:title="Interne Kernfunktion holt die Log&#45;Meldung mit Platzhaltern aus der XML&#45;Datei.">
<polygon fill="white" stroke="black" points="564.5,-6 564.5,-25 739.5,-25 739.5,-6 564.5,-6"/>
<text text-anchor="middle" x="652" y="-13" font-family="Helvetica,sans-Serif" font-size="10.00">okw.LogMessenger.ReadMessage</text>
</a>
</g>
</g>
<!-- Node570&#45;&gt;Node571 -->
<g id="edge11" class="edge"><title>Node570&#45;&gt;Node571</title>
<path fill="none" stroke="midnightblue" d="M474.746,-54.9554C498.386,-48.8405 529.947,-40.8836 558,-34.5 569.061,-31.983 580.898,-29.4459 592.293,-27.0814"/>
<polygon fill="midnightblue" stroke="midnightblue" points="593.073,-30.4945 602.163,-25.0528 591.663,-23.6378 593.073,-30.4945"/>
</g>
<!-- Node572 -->
<g id="node13" class="node"><title>Node572</title>
<g id="a_node13"><a xlink:href="classokw_1_1_o_k_w___xml_reader.html#ab920b5335a2e1429c14cc5f8e79f39eb" target="_top" xlink:title="Lies den TextContent eines Tag.">
<polygon fill="white" stroke="black" points="800,-0.5 800,-30.5 952,-30.5 952,-0.5 800,-0.5"/>
<text text-anchor="start" x="808" y="-18.5" font-family="Helvetica,sans-Serif" font-size="10.00">okw.OKW_XmlReader.getText</text>
<text text-anchor="middle" x="876" y="-7.5" font-family="Helvetica,sans-Serif" font-size="10.00">ContentSingleValue</text>
</a>
</g>
</g>
<!-- Node571&#45;&gt;Node572 -->
<g id="edge12" class="edge"><title>Node571&#45;&gt;Node572</title>
<path fill="none" stroke="midnightblue" d="M739.785,-15.5C756.2,-15.5 773.359,-15.5 789.727,-15.5"/>
<polygon fill="midnightblue" stroke="midnightblue" points="789.803,-19.0001 799.803,-15.5 789.803,-12.0001 789.803,-19.0001"/>
</g>
<!-- Node573&#45;&gt;Node563 -->
<g id="edge18" class="edge"><title>Node573&#45;&gt;Node563</title>
<path fill="none" stroke="midnightblue" d="M507.786,-217.675C523.986,-215.845 541.495,-213.868 558.523,-211.944"/>
<polygon fill="midnightblue" stroke="midnightblue" points="558.937,-215.42 568.481,-210.82 558.151,-208.464 558.937,-215.42"/>
</g>
<!-- Node573&#45;&gt;Node565 -->
<g id="edge14" class="edge"><title>Node573&#45;&gt;Node565</title>
<path fill="none" stroke="midnightblue" d="M507.786,-232.021C520.526,-233.22 534.076,-234.495 547.566,-235.765"/>
<polygon fill="midnightblue" stroke="midnightblue" points="547.571,-239.281 557.855,-236.733 548.227,-232.312 547.571,-239.281"/>
</g>
<!-- Node574 -->
<g id="node15" class="node"><title>Node574</title>
<g id="a_node15"><a xlink:href="classokw_1_1gui_1_1adapter_1_1selenium_1_1webdriver_1_1_se_driver.html#a6d879107786a94ebbdbd42b4ac6c6acf" target="_top" xlink:title="Ermittelt das Webelement mit der gegebenen frameID und dem gegebenen Locator.">
<polygon fill="white" stroke="black" points="558,-279.5 558,-309.5 746,-309.5 746,-279.5 558,-279.5"/>
<text text-anchor="start" x="566" y="-297.5" font-family="Helvetica,sans-Serif" font-size="10.00">okw.gui.adapter.selenium.webdriver.</text>
<text text-anchor="middle" x="652" y="-286.5" font-family="Helvetica,sans-Serif" font-size="10.00">SeDriver.getElement</text>
</a>
</g>
</g>
<!-- Node573&#45;&gt;Node574 -->
<g id="edge15" class="edge"><title>Node573&#45;&gt;Node574</title>
<path fill="none" stroke="midnightblue" d="M475.282,-240.524C498.732,-249.809 529.888,-261.608 558,-270.5 564.777,-272.644 571.875,-274.739 579,-276.742"/>
<polygon fill="midnightblue" stroke="midnightblue" points="578.134,-280.134 588.705,-279.413 579.992,-273.385 578.134,-280.134"/>
</g>
<!-- Node574&#45;&gt;Node567 -->
<g id="edge16" class="edge"><title>Node574&#45;&gt;Node567</title>
<path fill="none" stroke="midnightblue" d="M721.116,-279.465C745.089,-274.174 772.215,-268.187 796.943,-262.729"/>
<polygon fill="midnightblue" stroke="midnightblue" points="798.002,-266.079 807.013,-260.506 796.493,-259.244 798.002,-266.079"/>
</g>
<!-- Node575 -->
<g id="node16" class="node"><title>Node575</title>
<g id="a_node16"><a xlink:href="classokw_1_1log_1_1_logger___sngltn.html#a8ebceaddd6cc6963ddb8e08c72ea808c" target="_top" xlink:title="LogPrint Function: Prints the values of expressions to the results file.">
<polygon fill="white" stroke="black" points="804.5,-279.5 804.5,-309.5 947.5,-309.5 947.5,-279.5 804.5,-279.5"/>
<text text-anchor="start" x="812.5" y="-297.5" font-family="Helvetica,sans-Serif" font-size="10.00">okw.log.Logger_Sngltn.Log</text>
<text text-anchor="middle" x="876" y="-286.5" font-family="Helvetica,sans-Serif" font-size="10.00">Print</text>
</a>
</g>
</g>
<!-- Node574&#45;&gt;Node575 -->
<g id="edge17" class="edge"><title>Node574&#45;&gt;Node575</title>
<path fill="none" stroke="midnightblue" d="M746.183,-294.5C762.146,-294.5 778.614,-294.5 794.22,-294.5"/>
<polygon fill="midnightblue" stroke="midnightblue" points="794.336,-298 804.336,-294.5 794.336,-291 794.336,-298"/>
</g>
</g>
</svg>
        <g id="navigator" transform="translate(0 0)" fill="#404254">
                <rect fill="#f2f5e9" fill-opacity="0.5" stroke="#606060" stroke-width=".5" x="0" y="0" width="60" height="60"/>
                <use id="zoomplus" xlink:href="#zoomPlus" x="17" y="9" onmousedown="handleZoom(evt,'in')"/>
                <use id="zoomminus" xlink:href="#zoomMin" x="42" y="9" onmousedown="handleZoom(evt,'out')"/>
                <use id="reset" xlink:href="#resetDef" x="30" y="36" onmousedown="handleReset()"/>
                <g id="arrowUp" xlink:href="#dirArrow" transform="translate(30 24)" onmousedown="handlePan(0,-1)">
                  <use xlink:href="#rim" fill="#404040">
                        <set attributeName="fill" to="#808080" begin="arrowUp.mouseover" end="arrowUp.mouseout"/>
                  </use>
                  <path fill="none" stroke="white" stroke-width="1.5" d="M0,-3.0v7 M-2.5,-0.5L0,-3.0L2.5,-0.5"/>
                </g>
                <g id="arrowRight" xlink:href="#dirArrow" transform="rotate(90) translate(36 -43)" onmousedown="handlePan(1,0)">
                  <use xlink:href="#rim" fill="#404040">
                        <set attributeName="fill" to="#808080" begin="arrowRight.mouseover" end="arrowRight.mouseout"/>
                  </use>
                  <path fill="none" stroke="white" stroke-width="1.5" d="M0,-3.0v7 M-2.5,-0.5L0,-3.0L2.5,-0.5"/>
                </g>
                <g id="arrowDown" xlink:href="#dirArrow" transform="rotate(180) translate(-30 -48)" onmousedown="handlePan(0,1)">
                  <use xlink:href="#rim" fill="#404040">
                        <set attributeName="fill" to="#808080" begin="arrowDown.mouseover" end="arrowDown.mouseout"/>
                  </use>
                  <path fill="none" stroke="white" stroke-width="1.5" d="M0,-3.0v7 M-2.5,-0.5L0,-3.0L2.5,-0.5"/>
                </g>
                <g id="arrowLeft" xlink:href="#dirArrow" transform="rotate(270) translate(-36 17)" onmousedown="handlePan(-1,0)">
                  <use xlink:href="#rim" fill="#404040">
                        <set attributeName="fill" to="#808080" begin="arrowLeft.mouseover" end="arrowLeft.mouseout"/>
                  </use>
                  <path fill="none" stroke="white" stroke-width="1.5" d="M0,-3.0v7 M-2.5,-0.5L0,-3.0L2.5,-0.5"/>
                </g>
        </g>
        <svg viewBox="0 0 15 15" width="100%" height="30px" preserveAspectRatio="xMaxYMin meet">
         <g id="arrow_out" transform="scale(0.3 0.3)">
          <a xlink:href="classokw_1_1gui_1_1adapter_1_1selenium_1_1_se_any_window_a6cf810f4712e4e7892f47722dd57a6f2_cgraph_org.svg" target="_base">
           <rect id="button" ry="5" rx="5" y="6" x="6" height="38" width="38"
                fill="#f2f5e9" fill-opacity="0.5" stroke="#606060" stroke-width="1.0"/>
           <path id="arrow"
             d="M 11.500037,31.436501 C 11.940474,20.09759 22.043105,11.32322 32.158766,21.979434 L 37.068811,17.246167 C 37.068811,17.246167 37.088388,32 37.088388,32 L 22.160133,31.978069 C 22.160133,31.978069 26.997745,27.140456 26.997745,27.140456 C 18.528582,18.264221 13.291696,25.230495 11.500037,31.436501 z"
             style="fill:#404040;"/>
          </a>
         </g>
        </svg>
</svg>
