<?xml version="1.0" encoding="UTF-8" standalone="no"?>
<!DOCTYPE svg PUBLIC "-//W3C//DTD SVG 1.1//EN"
 "http://www.w3.org/Graphics/SVG/1.1/DTD/svg11.dtd">
<!-- Generated by graphviz version 2.36.0 (20140111.2315)
 -->
<!-- Title: okw.core.Core.VerifyValueREGX Pages: 1 -->
<!--zoomable 1638 -->
<svg id="main" version="1.1" xmlns="http://www.w3.org/2000/svg" xmlns:xlink="http://www.w3.org/1999/xlink" xml:space="preserve" onload="init(evt)">
<style type="text/css"><![CDATA[
.edge:hover path { stroke: red; }
.edge:hover polygon { stroke: red; fill: red; }
]]></style>
<script type="text/javascript"><![CDATA[
var edges = document.getElementsByTagName('g');
if (edges && edges.length) {
  for (var i=0;i<edges.length;i++) {
    if (edges[i].id.substr(0,4)=='edge') {
      edges[i].setAttribute('class','edge');
    }
  }
}
]]></script>
        <defs>
                <circle id="rim" cx="0" cy="0" r="7"/>
                <circle id="rim2" cx="0" cy="0" r="3.5"/>
                <g id="zoomPlus">
                        <use xlink:href="#rim" fill="#404040">
                                <set attributeName="fill" to="#808080" begin="zoomplus.mouseover" end="zoomplus.mouseout"/>
                        </use>
                        <path d="M-4,0h8M0,-4v8" fill="none" stroke="white" stroke-width="1.5" pointer-events="none"/>
                </g>
                <g id="zoomMin">
                        <use xlink:href="#rim" fill="#404040">
                                <set attributeName="fill" to="#808080" begin="zoomminus.mouseover" end="zoomminus.mouseout"/>
                        </use>
                        <path d="M-4,0h8" fill="none" stroke="white" stroke-width="1.5" pointer-events="none"/>
                </g>
                <g id="dirArrow">
                        <path fill="none" stroke="white" stroke-width="1.5" d="M0,-3.0v7 M-2.5,-0.5L0,-3.0L2.5,-0.5"/>
                </g>
               <g id="resetDef">
                       <use xlink:href="#rim2" fill="#404040">
                               <set attributeName="fill" to="#808080" begin="reset.mouseover" end="reset.mouseout"/>
                       </use>
               </g>
        </defs>

<script type="text/javascript">
var viewWidth = 622;
var viewHeight = 1638;
var sectionId = 'dynsection-121';
</script>
<script xlink:href="svgpan.js"/>
<svg id="graph" class="graph">
<g id="viewport">
<title>okw.core.Core.VerifyValueREGX</title>
<polygon fill="white" stroke="none" points="-4,4 -4,-1634 618,-1634 618,4 -4,4"/>
<!-- Node3720 -->
<g id="node1" class="node"><title>Node3720</title>
<polygon fill="#bfbfbf" stroke="black" points="0,-803.5 0,-822.5 162,-822.5 162,-803.5 0,-803.5"/>
<text text-anchor="middle" x="81" y="-810.5" font-family="Helvetica,sans-Serif" font-size="10.00">okw.core.Core.VerifyValueREGX</text>
</g>
<!-- Node3721 -->
<g id="node2" class="node"><title>Node3721</title>
<g id="a_node2"><a xlink:href="classokw_1_1core_1_1_e_n.html#ab906dfd1631d44567755a94585333973" target="_top" xlink:title="Prüft den Standardwert eines Objektes (in den meisten Fällen ist dies der angezeigte Text)...">
<polygon fill="white" stroke="black" points="198.5,-803.5 198.5,-822.5 353.5,-822.5 353.5,-803.5 198.5,-803.5"/>
<text text-anchor="middle" x="276" y="-810.5" font-family="Helvetica,sans-Serif" font-size="10.00">okw.core.EN.VerifyValueREGX</text>
</a>
</g>
</g>
<!-- Node3720&#45;&gt;Node3721 -->
<g id="edge1" class="edge"><title>Node3720&#45;&gt;Node3721</title>
<path fill="none" stroke="midnightblue" d="M172.375,-813C181.106,-813 189.905,-813 198.483,-813"/>
<polygon fill="midnightblue" stroke="midnightblue" points="172.173,-809.5 162.173,-813 172.173,-816.5 172.173,-809.5"/>
</g>
<!-- Node3722 -->
<g id="node3" class="node"><title>Node3722</title>
<g id="a_node3"><a xlink:href="classokw_1_1core_1_1_e_n___keywords___a_n_t_l_r___test.html#ab63d377a1eedcf2ca8e7591678151037" target="_top" xlink:title="okw.core.EN_Keywords\l_ANTLR_Test.tc__VerifyValue\lREGX_EnviromentVar">
<polygon fill="white" stroke="black" points="426,-1588.5 426,-1629.5 578,-1629.5 578,-1588.5 426,-1588.5"/>
<text text-anchor="start" x="434" y="-1617.5" font-family="Helvetica,sans-Serif" font-size="10.00">okw.core.EN_Keywords</text>
<text text-anchor="start" x="434" y="-1606.5" font-family="Helvetica,sans-Serif" font-size="10.00">_ANTLR_Test.tc__VerifyValue</text>
<text text-anchor="middle" x="502" y="-1595.5" font-family="Helvetica,sans-Serif" font-size="10.00">REGX_EnviromentVar</text>
</a>
</g>
</g>
<!-- Node3721&#45;&gt;Node3722 -->
<g id="edge2" class="edge"><title>Node3721&#45;&gt;Node3722</title>
<path fill="none" stroke="midnightblue" d="M277.111,-832.672C278.123,-940.85 288.278,-1462.62 390,-1578 399.461,-1588.73 412.295,-1595.89 425.881,-1600.63"/>
<polygon fill="midnightblue" stroke="midnightblue" points="280.61,-832.507 277.033,-822.534 273.611,-832.561 280.61,-832.507"/>
</g>
<!-- Node3723 -->
<g id="node4" class="node"><title>Node3723</title>
<g id="a_node4"><a xlink:href="classokw_1_1core_1_1_e_n___keywords___a_n_t_l_r___test.html#a1d46f5f62a325650f18b0f9f2fa5fe32" target="_top" xlink:title="okw.core.EN_Keywords\l_ANTLR_Test.tc__VerifyValue\lWCM_EnviromentVar">
<polygon fill="white" stroke="black" points="426,-1528.5 426,-1569.5 578,-1569.5 578,-1528.5 426,-1528.5"/>
<text text-anchor="start" x="434" y="-1557.5" font-family="Helvetica,sans-Serif" font-size="10.00">okw.core.EN_Keywords</text>
<text text-anchor="start" x="434" y="-1546.5" font-family="Helvetica,sans-Serif" font-size="10.00">_ANTLR_Test.tc__VerifyValue</text>
<text text-anchor="middle" x="502" y="-1535.5" font-family="Helvetica,sans-Serif" font-size="10.00">WCM_EnviromentVar</text>
</a>
</g>
</g>
<!-- Node3721&#45;&gt;Node3723 -->
<g id="edge3" class="edge"><title>Node3721&#45;&gt;Node3723</title>
<path fill="none" stroke="midnightblue" d="M277.391,-833.049C279.822,-936.879 296.015,-1412.7 390,-1518 399.526,-1528.67 412.39,-1535.8 425.984,-1540.53"/>
<polygon fill="midnightblue" stroke="midnightblue" points="280.884,-832.667 277.168,-822.745 273.886,-832.818 280.884,-832.667"/>
</g>
<!-- Node3724 -->
<g id="node5" class="node"><title>Node3724</title>
<g id="a_node5"><a xlink:href="classokw_1_1core_1_1_e_n___keywords___a_n_t_l_r___test.html#a4606d2338ceb754feed01d1fa66ab48c" target="_top" xlink:title="okw.core.EN_Keywords\l_ANTLR_Test.tc_VerifyValueREGX\l_MemorizedValue">
<polygon fill="white" stroke="black" points="414.5,-1468.5 414.5,-1509.5 589.5,-1509.5 589.5,-1468.5 414.5,-1468.5"/>
<text text-anchor="start" x="422.5" y="-1497.5" font-family="Helvetica,sans-Serif" font-size="10.00">okw.core.EN_Keywords</text>
<text text-anchor="start" x="422.5" y="-1486.5" font-family="Helvetica,sans-Serif" font-size="10.00">_ANTLR_Test.tc_VerifyValueREGX</text>
<text text-anchor="middle" x="502" y="-1475.5" font-family="Helvetica,sans-Serif" font-size="10.00">_MemorizedValue</text>
</a>
</g>
</g>
<!-- Node3721&#45;&gt;Node3724 -->
<g id="edge4" class="edge"><title>Node3721&#45;&gt;Node3724</title>
<path fill="none" stroke="midnightblue" d="M277.711,-832.879C281.618,-930.977 303.561,-1362.56 390,-1458 396.783,-1465.49 405.209,-1471.23 414.366,-1475.62"/>
<polygon fill="midnightblue" stroke="midnightblue" points="281.207,-832.697 277.329,-822.837 274.212,-832.963 281.207,-832.697"/>
</g>
<!-- Node3725 -->
<g id="node6" class="node"><title>Node3725</title>
<g id="a_node6"><a xlink:href="classokw_1_1core_1_1_e_n___keywords___d_e_l_e_t_e___test.html#aef1aa280938a881904e91fbb8db09a8b" target="_top" xlink:title="okw.core.EN_Keywords\l_DELETE_Test.tcVerifyTablecell\lValueWCM_DELETE_OKWNotAllowedValue\lException">
<polygon fill="white" stroke="black" points="394.5,-1397 394.5,-1449 609.5,-1449 609.5,-1397 394.5,-1397"/>
<text text-anchor="start" x="402.5" y="-1437" font-family="Helvetica,sans-Serif" font-size="10.00">okw.core.EN_Keywords</text>
<text text-anchor="start" x="402.5" y="-1426" font-family="Helvetica,sans-Serif" font-size="10.00">_DELETE_Test.tcVerifyTablecell</text>
<text text-anchor="start" x="402.5" y="-1415" font-family="Helvetica,sans-Serif" font-size="10.00">ValueWCM_DELETE_OKWNotAllowedValue</text>
<text text-anchor="middle" x="502" y="-1404" font-family="Helvetica,sans-Serif" font-size="10.00">Exception</text>
</a>
</g>
</g>
<!-- Node3721&#45;&gt;Node3725 -->
<g id="edge5" class="edge"><title>Node3721&#45;&gt;Node3725</title>
<path fill="none" stroke="midnightblue" d="M278.264,-832.548C284.487,-923.033 314.663,-1300.43 390,-1386 393.49,-1389.96 397.416,-1393.5 401.653,-1396.67"/>
<polygon fill="midnightblue" stroke="midnightblue" points="281.755,-832.302 277.595,-822.558 274.771,-832.769 281.755,-832.302"/>
</g>
<!-- Node3726 -->
<g id="node7" class="node"><title>Node3726</title>
<g id="a_node7"><a xlink:href="classokw_1_1core_1_1_e_n___keywords___empty___test.html#a3733decdbe7e325d682d41d9596244d1" target="_top" xlink:title="Prüft &quot;${EMPTY}&quot; für das Schlüsselwort VerifyValue(string,string) ">
<polygon fill="white" stroke="black" points="414,-1336.5 414,-1377.5 590,-1377.5 590,-1336.5 414,-1336.5"/>
<text text-anchor="start" x="422" y="-1365.5" font-family="Helvetica,sans-Serif" font-size="10.00">okw.core.EN_Keywords</text>
<text text-anchor="start" x="422" y="-1354.5" font-family="Helvetica,sans-Serif" font-size="10.00">_Empty_Test.tc_VerifyValueREGX_</text>
<text text-anchor="middle" x="502" y="-1343.5" font-family="Helvetica,sans-Serif" font-size="10.00">Empty</text>
</a>
</g>
</g>
<!-- Node3721&#45;&gt;Node3726 -->
<g id="edge6" class="edge"><title>Node3721&#45;&gt;Node3726</title>
<path fill="none" stroke="midnightblue" d="M278.669,-833.021C286.202,-918.686 319.773,-1253.35 390,-1327 396.75,-1334.08 404.983,-1339.55 413.883,-1343.76"/>
<polygon fill="midnightblue" stroke="midnightblue" points="282.137,-832.5 277.794,-822.836 275.162,-833.099 282.137,-832.5"/>
</g>
<!-- Node3727 -->
<g id="node8" class="node"><title>Node3727</title>
<g id="a_node8"><a xlink:href="classokw_1_1core_1_1_e_n___keywords___test.html#a127181ab50ff5fc92ad8dc5d5ecc66f4" target="_top" xlink:title="okw.core.EN_Keywords\l_Test.tc_VerifyValueREGX">
<polygon fill="white" stroke="black" points="433.5,-1288 433.5,-1318 570.5,-1318 570.5,-1288 433.5,-1288"/>
<text text-anchor="start" x="441.5" y="-1306" font-family="Helvetica,sans-Serif" font-size="10.00">okw.core.EN_Keywords</text>
<text text-anchor="middle" x="502" y="-1295" font-family="Helvetica,sans-Serif" font-size="10.00">_Test.tc_VerifyValueREGX</text>
</a>
</g>
</g>
<!-- Node3721&#45;&gt;Node3727 -->
<g id="edge7" class="edge"><title>Node3721&#45;&gt;Node3727</title>
<path fill="none" stroke="midnightblue" d="M279.073,-832.953C287.846,-913.518 324.504,-1213.6 390,-1278 401.691,-1289.5 417.469,-1296.16 433.455,-1299.93"/>
<polygon fill="midnightblue" stroke="midnightblue" points="282.522,-832.285 277.981,-822.713 275.562,-833.028 282.522,-832.285"/>
</g>
<!-- Node3728 -->
<g id="node9" class="node"><title>Node3728</title>
<g id="a_node9"><a xlink:href="classokw_1_1core_1_1_e_n___keywords___test.html#a98fccde7dbc4b3f7770e7acac0ed8b30" target="_top" xlink:title="okw.core.EN_Keywords\l_Test.tc_VerifyValueREGX\l_MultipleValues">
<polygon fill="white" stroke="black" points="433.5,-1228.5 433.5,-1269.5 570.5,-1269.5 570.5,-1228.5 433.5,-1228.5"/>
<text text-anchor="start" x="441.5" y="-1257.5" font-family="Helvetica,sans-Serif" font-size="10.00">okw.core.EN_Keywords</text>
<text text-anchor="start" x="441.5" y="-1246.5" font-family="Helvetica,sans-Serif" font-size="10.00">_Test.tc_VerifyValueREGX</text>
<text text-anchor="middle" x="502" y="-1235.5" font-family="Helvetica,sans-Serif" font-size="10.00">_MultipleValues</text>
</a>
</g>
</g>
<!-- Node3721&#45;&gt;Node3728 -->
<g id="edge8" class="edge"><title>Node3721&#45;&gt;Node3728</title>
<path fill="none" stroke="midnightblue" d="M276.22,-832.645C274.77,-897.54 279.235,-1107.21 390,-1218 401.671,-1229.67 417.347,-1237.04 433.235,-1241.67"/>
<polygon fill="midnightblue" stroke="midnightblue" points="279.721,-832.675 276.524,-822.574 272.724,-832.464 279.721,-832.675"/>
</g>
<!-- Node3729 -->
<g id="node10" class="node"><title>Node3729</title>
<g id="a_node10"><a xlink:href="classokw_1_1core_1_1_e_n___o_k_w_frame_object_child_not_found_exception___test.html#a3ce915e27e00719101106ce7a153b0ab" target="_top" xlink:title="Prüft ob die Ausnahme OKWFrameObjectChildNotFoundException durch die LFC&#45;VerifyValue ausgelöst wird...">
<polygon fill="white" stroke="black" points="396.5,-1157 396.5,-1209 607.5,-1209 607.5,-1157 396.5,-1157"/>
<text text-anchor="start" x="404.5" y="-1197" font-family="Helvetica,sans-Serif" font-size="10.00">okw.core.EN_OKWFrameObject</text>
<text text-anchor="start" x="404.5" y="-1186" font-family="Helvetica,sans-Serif" font-size="10.00">ChildNotFoundException</text>
<text text-anchor="start" x="404.5" y="-1175" font-family="Helvetica,sans-Serif" font-size="10.00">_Test.TC_VerifyValueREGX</text>
<text text-anchor="middle" x="502" y="-1164" font-family="Helvetica,sans-Serif" font-size="10.00">_OKWFrameObjectChildNotFoundException</text>
</a>
</g>
</g>
<!-- Node3721&#45;&gt;Node3729 -->
<g id="edge9" class="edge"><title>Node3721&#45;&gt;Node3729</title>
<path fill="none" stroke="midnightblue" d="M277.773,-832.703C281.083,-889.739 298.516,-1056.66 390,-1147 393.676,-1150.63 397.721,-1153.89 402.025,-1156.83"/>
<polygon fill="midnightblue" stroke="midnightblue" points="281.26,-832.355 277.27,-822.54 274.268,-832.701 281.26,-832.355"/>
</g>
<!-- Node3730 -->
<g id="node11" class="node"><title>Node3730</title>
<g id="a_node11"><a xlink:href="classokw_1_1core_1_1_e_n___o_k_w_frame_object_method_not_implemented___test.html#a5eb78b9e1cab928e96403c3c852a2071" target="_top" xlink:title="Prüft ob die Ausnahme OKWFrameObjectMethodNotImplemented von VerifyValueREGX( FN, ExpVal ) ausgelöst ...">
<polygon fill="white" stroke="black" points="393,-1086 393,-1138 611,-1138 611,-1086 393,-1086"/>
<text text-anchor="start" x="401" y="-1126" font-family="Helvetica,sans-Serif" font-size="10.00">okw.core.EN_OKWFrameObject</text>
<text text-anchor="start" x="401" y="-1115" font-family="Helvetica,sans-Serif" font-size="10.00">MethodNotImplemented_Test.TC</text>
<text text-anchor="start" x="401" y="-1104" font-family="Helvetica,sans-Serif" font-size="10.00">_VerifyValueREGX_OKWFrameObjectMethod</text>
<text text-anchor="middle" x="502" y="-1093" font-family="Helvetica,sans-Serif" font-size="10.00">NotImplemented</text>
</a>
</g>
</g>
<!-- Node3721&#45;&gt;Node3730 -->
<g id="edge10" class="edge"><title>Node3721&#45;&gt;Node3730</title>
<path fill="none" stroke="midnightblue" d="M279.804,-832.595C287.774,-881.076 315.037,-1007.65 390,-1076 394.042,-1079.69 398.466,-1082.99 403.147,-1085.96"/>
<polygon fill="midnightblue" stroke="midnightblue" points="283.232,-831.858 278.245,-822.51 276.314,-832.928 283.232,-831.858"/>
</g>
<!-- Node3731 -->
<g id="node12" class="node"><title>Node3731</title>
<g id="a_node12"><a xlink:href="classokw_1_1core_1_1_e_n___o_k_w_frame_object_method_not_implemented___test.html#a890bfe99856736c93fa7a145222c7067" target="_top" xlink:title="Prüft ob die Ausnahme OKWFrameObjectMethodNotImplemented von VerifySelectedValueREGX( FN...">
<polygon fill="white" stroke="black" points="390,-1015 390,-1067 614,-1067 614,-1015 390,-1015"/>
<text text-anchor="start" x="398" y="-1055" font-family="Helvetica,sans-Serif" font-size="10.00">okw.core.EN_OKWFrameObject</text>
<text text-anchor="start" x="398" y="-1044" font-family="Helvetica,sans-Serif" font-size="10.00">MethodNotImplemented_Test.TC</text>
<text text-anchor="start" x="398" y="-1033" font-family="Helvetica,sans-Serif" font-size="10.00">_VerifySelectedValueREGX_OKWFrameObject</text>
<text text-anchor="middle" x="502" y="-1022" font-family="Helvetica,sans-Serif" font-size="10.00">MethodNotImplemented</text>
</a>
</g>
</g>
<!-- Node3721&#45;&gt;Node3731 -->
<g id="edge11" class="edge"><title>Node3721&#45;&gt;Node3731</title>
<path fill="none" stroke="midnightblue" d="M283.279,-832.461C296.657,-870.889 331.609,-956.863 390,-1004 395.058,-1008.08 400.586,-1011.72 406.387,-1014.97"/>
<polygon fill="midnightblue" stroke="midnightblue" points="286.452,-830.916 279.946,-822.554 279.818,-833.148 286.452,-830.916"/>
</g>
<!-- Node3732 -->
<g id="node13" class="node"><title>Node3732</title>
<g id="a_node13"><a xlink:href="classokw_1_1core_1_1_e_n___o_k_w_not_allowed_value_exception___keywords___i_g_n_o_r_e.html#a4a37e106ab45259f5299c19e63e39463" target="_top" xlink:title="Prüft ob &quot;${IGNORE} &quot; die Ausnahme okw.exceptions.OKWNotAllowedValueException auslöst. ">
<polygon fill="white" stroke="black" points="403.5,-954.5 403.5,-995.5 600.5,-995.5 600.5,-954.5 403.5,-954.5"/>
<text text-anchor="start" x="411.5" y="-983.5" font-family="Helvetica,sans-Serif" font-size="10.00">okw.core.EN_OKWNotAllowed</text>
<text text-anchor="start" x="411.5" y="-972.5" font-family="Helvetica,sans-Serif" font-size="10.00">ValueException_Keywords</text>
<text text-anchor="middle" x="502" y="-961.5" font-family="Helvetica,sans-Serif" font-size="10.00">_IGNORE.tcVerifyValueREGXIGNORE1</text>
</a>
</g>
</g>
<!-- Node3721&#45;&gt;Node3732 -->
<g id="edge12" class="edge"><title>Node3721&#45;&gt;Node3732</title>
<path fill="none" stroke="midnightblue" d="M287.895,-831.518C305.637,-860.032 343.502,-914.478 390,-944 396.25,-947.968 403.012,-951.437 410.007,-954.467"/>
<polygon fill="midnightblue" stroke="midnightblue" points="290.66,-829.327 282.478,-822.596 284.677,-832.961 290.66,-829.327"/>
</g>
<!-- Node3733 -->
<g id="node14" class="node"><title>Node3733</title>
<g id="a_node14"><a xlink:href="classokw_1_1core_1_1_e_n___o_k_w_not_allowed_value_exception___keywords___i_g_n_o_r_e.html#a4a5bdff5f376e81e39f8dc0aaeb3f724" target="_top" xlink:title="Prüft ob &quot;&quot;${IGNORE}${TCN}&quot; die Ausnahme okw.exceptions.OKWNotAllowedValueException auslöst...">
<polygon fill="white" stroke="black" points="403.5,-894.5 403.5,-935.5 600.5,-935.5 600.5,-894.5 403.5,-894.5"/>
<text text-anchor="start" x="411.5" y="-923.5" font-family="Helvetica,sans-Serif" font-size="10.00">okw.core.EN_OKWNotAllowed</text>
<text text-anchor="start" x="411.5" y="-912.5" font-family="Helvetica,sans-Serif" font-size="10.00">ValueException_Keywords</text>
<text text-anchor="middle" x="502" y="-901.5" font-family="Helvetica,sans-Serif" font-size="10.00">_IGNORE.tcVerifyValueREGXIGNORE2</text>
</a>
</g>
</g>
<!-- Node3721&#45;&gt;Node3733 -->
<g id="edge13" class="edge"><title>Node3721&#45;&gt;Node3733</title>
<path fill="none" stroke="midnightblue" d="M297.749,-828.627C319.669,-844.497 355.737,-868.836 390,-884 398.691,-887.846 407.978,-891.333 417.341,-894.46"/>
<polygon fill="midnightblue" stroke="midnightblue" points="299.668,-825.694 289.536,-822.595 295.525,-831.336 299.668,-825.694"/>
</g>
<!-- Node3734 -->
<g id="node15" class="node"><title>Node3734</title>
<g id="a_node15"><a xlink:href="classokw_1_1core_1_1_e_n___verify_label___o_k_w_verifying_fails_exception___test.html#ade3b028cbdd0306128db5312e57d0c62" target="_top" xlink:title="Prüft, ob die Ausnahme OKWVerifyingFailsException bei einem Soll/Ist&#45;Vergleich ausgelöst wird...">
<polygon fill="white" stroke="black" points="397.5,-823 397.5,-875 606.5,-875 606.5,-823 397.5,-823"/>
<text text-anchor="start" x="405.5" y="-863" font-family="Helvetica,sans-Serif" font-size="10.00">okw.core.EN_VerifyLabel</text>
<text text-anchor="start" x="405.5" y="-852" font-family="Helvetica,sans-Serif" font-size="10.00">_OKWVerifyingFailsException</text>
<text text-anchor="start" x="405.5" y="-841" font-family="Helvetica,sans-Serif" font-size="10.00">_Test.TC_VerifyValueREGX_OKWVerifying</text>
<text text-anchor="middle" x="502" y="-830" font-family="Helvetica,sans-Serif" font-size="10.00">FailsException_SV01</text>
</a>
</g>
</g>
<!-- Node3721&#45;&gt;Node3734 -->
<g id="edge14" class="edge"><title>Node3721&#45;&gt;Node3734</title>
<path fill="none" stroke="midnightblue" d="M346.051,-824.097C362.276,-826.705 379.918,-829.54 397.293,-832.333"/>
<polygon fill="midnightblue" stroke="midnightblue" points="346.575,-820.637 336.146,-822.506 345.464,-827.548 346.575,-820.637"/>
</g>
<!-- Node3735 -->
<g id="node16" class="node"><title>Node3735</title>
<g id="a_node16"><a xlink:href="classokw_1_1core_1_1_e_n___verify_value___o_k_w_verifying_fails_exception___test.html#a426e16becde4daeae2052ef41f2e4735" target="_top" xlink:title="Prüft, ob die Ausnahme OKWVerifyingFailsException bei einem Soll/Ist&#45;Vergleich ausgelöst wird...">
<polygon fill="white" stroke="black" points="397.5,-752 397.5,-804 606.5,-804 606.5,-752 397.5,-752"/>
<text text-anchor="start" x="405.5" y="-792" font-family="Helvetica,sans-Serif" font-size="10.00">okw.core.EN_VerifyValue</text>
<text text-anchor="start" x="405.5" y="-781" font-family="Helvetica,sans-Serif" font-size="10.00">_OKWVerifyingFailsException</text>
<text text-anchor="start" x="405.5" y="-770" font-family="Helvetica,sans-Serif" font-size="10.00">_Test.TC_VerifyValueREGX_OKWVerifying</text>
<text text-anchor="middle" x="502" y="-759" font-family="Helvetica,sans-Serif" font-size="10.00">FailsException_SV01</text>
</a>
</g>
</g>
<!-- Node3721&#45;&gt;Node3735 -->
<g id="edge15" class="edge"><title>Node3721&#45;&gt;Node3735</title>
<path fill="none" stroke="midnightblue" d="M348.041,-801.9C363.75,-799.445 380.705,-796.796 397.41,-794.186"/>
<polygon fill="midnightblue" stroke="midnightblue" points="347.253,-798.48 337.913,-803.482 348.334,-805.397 347.253,-798.48"/>
</g>
<!-- Node3736 -->
<g id="node17" class="node"><title>Node3736</title>
<g id="a_node17"><a xlink:href="classokw_1_1core_1_1_e_n___verify_value___o_k_w_verifying_fails_exception___test.html#acedf0dca81c60920bba95b1bf8aa8e46" target="_top" xlink:title="Prüft, ob die Ausnahme OKWVerifyingFailsException bei einem Soll/Ist&#45;Vergleich ausgelöst wird...">
<polygon fill="white" stroke="black" points="397.5,-681 397.5,-733 606.5,-733 606.5,-681 397.5,-681"/>
<text text-anchor="start" x="405.5" y="-721" font-family="Helvetica,sans-Serif" font-size="10.00">okw.core.EN_VerifyValue</text>
<text text-anchor="start" x="405.5" y="-710" font-family="Helvetica,sans-Serif" font-size="10.00">_OKWVerifyingFailsException</text>
<text text-anchor="start" x="405.5" y="-699" font-family="Helvetica,sans-Serif" font-size="10.00">_Test.TC_VerifyValueREGX_OKWVerifying</text>
<text text-anchor="middle" x="502" y="-688" font-family="Helvetica,sans-Serif" font-size="10.00">FailsException_SV02</text>
</a>
</g>
</g>
<!-- Node3721&#45;&gt;Node3736 -->
<g id="edge16" class="edge"><title>Node3721&#45;&gt;Node3736</title>
<path fill="none" stroke="midnightblue" d="M298.638,-797.392C320.753,-781.98 356.51,-758.527 390,-743 397.628,-739.464 405.699,-736.128 413.87,-733.021"/>
<polygon fill="midnightblue" stroke="midnightblue" points="296.47,-794.638 290.315,-803.263 300.505,-800.359 296.47,-794.638"/>
</g>
<!-- Node3737 -->
<g id="node18" class="node"><title>Node3737</title>
<g id="a_node18"><a xlink:href="classokw_1_1core_1_1_e_n___verify_value___o_k_w_verifying_fails_exception___test.html#ac3fcfe22d0a438f10c894d59eea29c97" target="_top" xlink:title="Prüft, ob die Ausnahme OKWVerifyingFailsException bei einem Soll/Ist&#45;Vergleich ausgelöst wird...">
<polygon fill="white" stroke="black" points="397.5,-610 397.5,-662 606.5,-662 606.5,-610 397.5,-610"/>
<text text-anchor="start" x="405.5" y="-650" font-family="Helvetica,sans-Serif" font-size="10.00">okw.core.EN_VerifyValue</text>
<text text-anchor="start" x="405.5" y="-639" font-family="Helvetica,sans-Serif" font-size="10.00">_OKWVerifyingFailsException</text>
<text text-anchor="start" x="405.5" y="-628" font-family="Helvetica,sans-Serif" font-size="10.00">_Test.TC_VerifyValueREGX_OKWVerifying</text>
<text text-anchor="middle" x="502" y="-617" font-family="Helvetica,sans-Serif" font-size="10.00">FailsException_SV03</text>
</a>
</g>
</g>
<!-- Node3721&#45;&gt;Node3737 -->
<g id="edge17" class="edge"><title>Node3721&#45;&gt;Node3737</title>
<path fill="none" stroke="midnightblue" d="M287.213,-794.128C304.468,-763.978 342.226,-704.994 390,-672 395.251,-668.374 400.89,-665.094 406.743,-662.132"/>
<polygon fill="midnightblue" stroke="midnightblue" points="283.984,-792.731 282.163,-803.168 290.095,-796.145 283.984,-792.731"/>
</g>
<!-- Node3738 -->
<g id="node19" class="node"><title>Node3738</title>
<g id="a_node19"><a xlink:href="classokw_1_1core_1_1_e_n___verify_value___o_k_w_verifying_fails_exception___test.html#adcd7b7d96c323eced4fe225eb4177920" target="_top" xlink:title="Prüft, ob die Ausnahme OKWVerifyingFailsException bei einem Soll/Ist&#45;Vergleich ausgelöst wird...">
<polygon fill="white" stroke="black" points="397.5,-539 397.5,-591 606.5,-591 606.5,-539 397.5,-539"/>
<text text-anchor="start" x="405.5" y="-579" font-family="Helvetica,sans-Serif" font-size="10.00">okw.core.EN_VerifyValue</text>
<text text-anchor="start" x="405.5" y="-568" font-family="Helvetica,sans-Serif" font-size="10.00">_OKWVerifyingFailsException</text>
<text text-anchor="start" x="405.5" y="-557" font-family="Helvetica,sans-Serif" font-size="10.00">_Test.TC_VerifyValueREGX_OKWVerifying</text>
<text text-anchor="middle" x="502" y="-546" font-family="Helvetica,sans-Serif" font-size="10.00">FailsException_MV01</text>
</a>
</g>
</g>
<!-- Node3721&#45;&gt;Node3738 -->
<g id="edge18" class="edge"><title>Node3721&#45;&gt;Node3738</title>
<path fill="none" stroke="midnightblue" d="M281.975,-793.628C293.625,-752.128 326.608,-654.108 390,-601 394.348,-597.357 399.073,-594.081 404.04,-591.134"/>
<polygon fill="midnightblue" stroke="midnightblue" points="278.584,-792.761 279.356,-803.327 285.342,-794.585 278.584,-792.761"/>
</g>
<!-- Node3739 -->
<g id="node20" class="node"><title>Node3739</title>
<g id="a_node20"><a xlink:href="classokw_1_1core_1_1_e_n___verify_value___o_k_w_verifying_fails_exception___test.html#acca2ff4746fe3d713bb820b56ef06c39" target="_top" xlink:title="Prüft, ob die Ausnahme OKWVerifyingFailsException bei einem Soll/Ist&#45;Vergleich ausgelöst wird...">
<polygon fill="white" stroke="black" points="397.5,-468 397.5,-520 606.5,-520 606.5,-468 397.5,-468"/>
<text text-anchor="start" x="405.5" y="-508" font-family="Helvetica,sans-Serif" font-size="10.00">okw.core.EN_VerifyValue</text>
<text text-anchor="start" x="405.5" y="-497" font-family="Helvetica,sans-Serif" font-size="10.00">_OKWVerifyingFailsException</text>
<text text-anchor="start" x="405.5" y="-486" font-family="Helvetica,sans-Serif" font-size="10.00">_Test.TC_VerifyValueREGX_OKWVerifying</text>
<text text-anchor="middle" x="502" y="-475" font-family="Helvetica,sans-Serif" font-size="10.00">FailsException_MV02</text>
</a>
</g>
</g>
<!-- Node3721&#45;&gt;Node3739 -->
<g id="edge19" class="edge"><title>Node3721&#45;&gt;Node3739</title>
<path fill="none" stroke="midnightblue" d="M279.149,-793.297C285.765,-742.238 310.456,-604.439 390,-530 393.92,-526.332 398.218,-523.037 402.773,-520.078"/>
<polygon fill="midnightblue" stroke="midnightblue" points="275.661,-792.982 277.942,-803.329 282.611,-793.818 275.661,-792.982"/>
</g>
<!-- Node3740 -->
<g id="node21" class="node"><title>Node3740</title>
<g id="a_node21"><a xlink:href="classokw_1_1core_1_1_e_n___verify_value___o_k_w_verifying_fails_exception___test.html#a0328bcfab7669758c43d9b1e7f00d29b" target="_top" xlink:title="Prüft, ob die Ausnahme OKWVerifyingFailsException bei einem Soll/Ist&#45;Vergleich ausgelöst wird...">
<polygon fill="white" stroke="black" points="397.5,-397 397.5,-449 606.5,-449 606.5,-397 397.5,-397"/>
<text text-anchor="start" x="405.5" y="-437" font-family="Helvetica,sans-Serif" font-size="10.00">okw.core.EN_VerifyValue</text>
<text text-anchor="start" x="405.5" y="-426" font-family="Helvetica,sans-Serif" font-size="10.00">_OKWVerifyingFailsException</text>
<text text-anchor="start" x="405.5" y="-415" font-family="Helvetica,sans-Serif" font-size="10.00">_Test.TC_VerifyValueREGX_OKWVerifying</text>
<text text-anchor="middle" x="502" y="-404" font-family="Helvetica,sans-Serif" font-size="10.00">FailsException_MV03</text>
</a>
</g>
</g>
<!-- Node3721&#45;&gt;Node3740 -->
<g id="edge20" class="edge"><title>Node3721&#45;&gt;Node3740</title>
<path fill="none" stroke="midnightblue" d="M277.347,-792.921C279.483,-733.297 293.998,-555.448 390,-459 393.644,-455.339 397.664,-452.049 401.948,-449.095"/>
<polygon fill="midnightblue" stroke="midnightblue" points="273.841,-793.118 277.065,-803.21 280.838,-793.31 273.841,-793.118"/>
</g>
<!-- Node3741 -->
<g id="node22" class="node"><title>Node3741</title>
<g id="a_node22"><a xlink:href="classokw_1_1core_1_1_e_n___verify_value___o_k_w_verifying_fails_exception___test.html#a37bca28b78ed8238b8d03f07f7ef8271" target="_top" xlink:title="Prüft, ob die Ausnahme OKWVerifyingFailsException bei einem Soll/Ist&#45;Vergleich ausgelöst wird...">
<polygon fill="white" stroke="black" points="397.5,-326 397.5,-378 606.5,-378 606.5,-326 397.5,-326"/>
<text text-anchor="start" x="405.5" y="-366" font-family="Helvetica,sans-Serif" font-size="10.00">okw.core.EN_VerifyValue</text>
<text text-anchor="start" x="405.5" y="-355" font-family="Helvetica,sans-Serif" font-size="10.00">_OKWVerifyingFailsException</text>
<text text-anchor="start" x="405.5" y="-344" font-family="Helvetica,sans-Serif" font-size="10.00">_Test.TC_VerifyValueREGX_OKWVerifying</text>
<text text-anchor="middle" x="502" y="-333" font-family="Helvetica,sans-Serif" font-size="10.00">FailsException_MV04</text>
</a>
</g>
</g>
<!-- Node3721&#45;&gt;Node3741 -->
<g id="edge21" class="edge"><title>Node3721&#45;&gt;Node3741</title>
<path fill="none" stroke="midnightblue" d="M279.689,-793.481C290.406,-718.333 332.306,-448.882 390,-388 393.484,-384.324 397.346,-381.022 401.479,-378.057"/>
<polygon fill="midnightblue" stroke="midnightblue" points="276.212,-793.074 278.287,-803.464 283.144,-794.047 276.212,-793.074"/>
</g>
<!-- Node3742 -->
<g id="node23" class="node"><title>Node3742</title>
<g id="a_node23"><a xlink:href="classokw_1_1_se_b_a_c_k_1_1_se_b_a_c_k___e_n___test.html#a48ba4519b5e2ba6ccded234c1168e954" target="_top" xlink:title="Test des Schlüsselwortes &quot;VerifyValueREGX( FN, ExpValu ) für SeBACK. ">
<polygon fill="white" stroke="black" points="399,-265.5 399,-306.5 605,-306.5 605,-265.5 399,-265.5"/>
<text text-anchor="start" x="407" y="-294.5" font-family="Helvetica,sans-Serif" font-size="10.00">okw.SeBACK.SeBACK_EN</text>
<text text-anchor="start" x="407" y="-283.5" font-family="Helvetica,sans-Serif" font-size="10.00">_Test.tcVerifyValueREGX</text>
<text text-anchor="middle" x="502" y="-272.5" font-family="Helvetica,sans-Serif" font-size="10.00">_OKWFrameObjectMethodNotImplemented</text>
</a>
</g>
</g>
<!-- Node3721&#45;&gt;Node3742 -->
<g id="edge22" class="edge"><title>Node3721&#45;&gt;Node3742</title>
<path fill="none" stroke="midnightblue" d="M278.841,-793.152C286.97,-709.669 322.29,-388.065 390,-317 393.727,-313.089 397.902,-309.658 402.389,-306.649"/>
<polygon fill="midnightblue" stroke="midnightblue" points="275.356,-792.82 277.891,-803.108 282.325,-793.485 275.356,-792.82"/>
</g>
<!-- Node3743 -->
<g id="node24" class="node"><title>Node3743</title>
<g id="a_node24"><a xlink:href="classokw_1_1_se_button_1_1_se_button___e_n___test.html#a18c46e1f369c60dd8f67b9103bc04370" target="_top" xlink:title="Test des Schlüsselwortes VerifyValueREGX für den GUI&#45;Adapter SeButton. ">
<polygon fill="white" stroke="black" points="399,-205.5 399,-246.5 605,-246.5 605,-205.5 399,-205.5"/>
<text text-anchor="start" x="407" y="-234.5" font-family="Helvetica,sans-Serif" font-size="10.00">okw.SeButton.SeButton</text>
<text text-anchor="start" x="407" y="-223.5" font-family="Helvetica,sans-Serif" font-size="10.00">_EN_Test.tcVerifyValueREGX</text>
<text text-anchor="middle" x="502" y="-212.5" font-family="Helvetica,sans-Serif" font-size="10.00">_OKWFrameObjectMethodNotImplemented</text>
</a>
</g>
</g>
<!-- Node3721&#45;&gt;Node3743 -->
<g id="edge23" class="edge"><title>Node3721&#45;&gt;Node3743</title>
<path fill="none" stroke="midnightblue" d="M278.297,-793.054C284.535,-703.17 314.33,-336.659 390,-256 393.278,-252.506 396.917,-249.403 400.82,-246.65"/>
<polygon fill="midnightblue" stroke="midnightblue" points="274.791,-793.019 277.61,-803.232 281.775,-793.49 274.791,-793.019"/>
</g>
<!-- Node3744 -->
<g id="node25" class="node"><title>Node3744</title>
<g id="a_node25"><a xlink:href="classokw_1_1_se_input_field_1_1_se_input_field___e_n___test.html#a60d79636eacaede185bf8ae403e862b8" target="_top" xlink:title="Test des Schlüsselwortes &quot;VerifyValueWCM( FN, ExpValu ) für SeInputText. ">
<polygon fill="white" stroke="black" points="417.5,-157 417.5,-187 586.5,-187 586.5,-157 417.5,-157"/>
<text text-anchor="start" x="425.5" y="-175" font-family="Helvetica,sans-Serif" font-size="10.00">okw.SeInputField.SeInput</text>
<text text-anchor="middle" x="502" y="-164" font-family="Helvetica,sans-Serif" font-size="10.00">Field_EN_Test.tcVerifyValueWCM</text>
</a>
</g>
</g>
<!-- Node3721&#45;&gt;Node3744 -->
<g id="edge24" class="edge"><title>Node3721&#45;&gt;Node3744</title>
<path fill="none" stroke="midnightblue" d="M277.774,-792.979C281.901,-696.923 304.448,-284.316 390,-196 397.613,-188.14 407.143,-182.561 417.4,-178.642"/>
<polygon fill="midnightblue" stroke="midnightblue" points="274.273,-792.946 277.359,-803.081 281.267,-793.233 274.273,-792.946"/>
</g>
<!-- Node3745 -->
<g id="node26" class="node"><title>Node3745</title>
<g id="a_node26"><a xlink:href="classokw_1_1_se_link_1_1_se_link___e_n___test.html#ad88f4d017f1a55ad12f9ffc5ed0ab336" target="_top" xlink:title="Prüft die Methode SeLink.MemorizeToolTip. ">
<polygon fill="white" stroke="black" points="425,-108 425,-138 579,-138 579,-108 425,-108"/>
<text text-anchor="start" x="433" y="-126" font-family="Helvetica,sans-Serif" font-size="10.00">okw.SeLink.SeLink_EN</text>
<text text-anchor="middle" x="502" y="-115" font-family="Helvetica,sans-Serif" font-size="10.00">_Test.TC_MemorizeToolTip_en</text>
</a>
</g>
</g>
<!-- Node3721&#45;&gt;Node3745 -->
<g id="edge25" class="edge"><title>Node3721&#45;&gt;Node3745</title>
<path fill="none" stroke="midnightblue" d="M277.501,-793.061C280.43,-692.768 298.543,-244.458 390,-148 399.378,-138.109 411.765,-131.734 424.856,-127.698"/>
<polygon fill="midnightblue" stroke="midnightblue" points="273.995,-793.202 277.22,-803.294 280.993,-793.393 273.995,-793.202"/>
</g>
<!-- Node3746 -->
<g id="node27" class="node"><title>Node3746</title>
<g id="a_node27"><a xlink:href="classokw_1_1_se_m_a_x_i_m_i_z_e_1_1_se_m_a_x_i_m_i_z_e___e_n___test.html#a8912b2d48731267d84fda3659335561c" target="_top" xlink:title="Test des Schlüsselwortes &quot;VerifyValueREGX( FN, ExpValu ) für SeMAXIMIZE. ">
<polygon fill="white" stroke="black" points="421,-59 421,-89 583,-89 583,-59 421,-59"/>
<text text-anchor="start" x="429" y="-77" font-family="Helvetica,sans-Serif" font-size="10.00">okw.SeMAXIMIZE.SeMAXIMIZE</text>
<text text-anchor="middle" x="502" y="-66" font-family="Helvetica,sans-Serif" font-size="10.00">_EN_Test.tcVerifyValueREGX</text>
</a>
</g>
</g>
<!-- Node3721&#45;&gt;Node3746 -->
<g id="edge26" class="edge"><title>Node3721&#45;&gt;Node3746</title>
<path fill="none" stroke="midnightblue" d="M277.249,-792.927C278.968,-687.994 292.171,-203.359 390,-99 398.376,-90.0649 409.206,-83.9914 420.809,-79.9174"/>
<polygon fill="midnightblue" stroke="midnightblue" points="273.747,-793.037 277.1,-803.088 280.746,-793.14 273.747,-793.037"/>
</g>
<!-- Node3747 -->
<g id="node28" class="node"><title>Node3747</title>
<g id="a_node28"><a xlink:href="classokw_1_1_se_radio_list_1_1_se_radio_list___e_n___test.html#a6867860868e8cc03d7c683740c2876bd" target="_top" xlink:title="Prüft die Methode SeRadioList.MemorizeLabel. ">
<polygon fill="white" stroke="black" points="403,0.5 403,-40.5 601,-40.5 601,0.5 403,0.5"/>
<text text-anchor="start" x="411" y="-28.5" font-family="Helvetica,sans-Serif" font-size="10.00">okw.SeRadioList.SeRadioList</text>
<text text-anchor="start" x="411" y="-17.5" font-family="Helvetica,sans-Serif" font-size="10.00">_EN_Test.tcMemorizeLabel</text>
<text text-anchor="middle" x="502" y="-6.5" font-family="Helvetica,sans-Serif" font-size="10.00">_Empty_OKWNotAllowedValueException</text>
</a>
</g>
</g>
<!-- Node3721&#45;&gt;Node3747 -->
<g id="edge27" class="edge"><title>Node3721&#45;&gt;Node3747</title>
<path fill="none" stroke="midnightblue" d="M277.103,-793.365C278.072,-685.392 288.035,-164.644 390,-50 393.715,-45.8235 397.945,-42.2017 402.533,-39.0632"/>
<polygon fill="midnightblue" stroke="midnightblue" points="273.603,-793.458 277.029,-803.484 280.603,-793.509 273.603,-793.458"/>
</g>
</g>
</svg>
        <g id="navigator" transform="translate(0 0)" fill="#404254">
                <rect fill="#f2f5e9" fill-opacity="0.5" stroke="#606060" stroke-width=".5" x="0" y="0" width="60" height="60"/>
                <use id="zoomplus" xlink:href="#zoomPlus" x="17" y="9" onmousedown="handleZoom(evt,'in')"/>
                <use id="zoomminus" xlink:href="#zoomMin" x="42" y="9" onmousedown="handleZoom(evt,'out')"/>
                <use id="reset" xlink:href="#resetDef" x="30" y="36" onmousedown="handleReset()"/>
                <g id="arrowUp" xlink:href="#dirArrow" transform="translate(30 24)" onmousedown="handlePan(0,-1)">
                  <use xlink:href="#rim" fill="#404040">
                        <set attributeName="fill" to="#808080" begin="arrowUp.mouseover" end="arrowUp.mouseout"/>
                  </use>
                  <path fill="none" stroke="white" stroke-width="1.5" d="M0,-3.0v7 M-2.5,-0.5L0,-3.0L2.5,-0.5"/>
                </g>
                <g id="arrowRight" xlink:href="#dirArrow" transform="rotate(90) translate(36 -43)" onmousedown="handlePan(1,0)">
                  <use xlink:href="#rim" fill="#404040">
                        <set attributeName="fill" to="#808080" begin="arrowRight.mouseover" end="arrowRight.mouseout"/>
                  </use>
                  <path fill="none" stroke="white" stroke-width="1.5" d="M0,-3.0v7 M-2.5,-0.5L0,-3.0L2.5,-0.5"/>
                </g>
                <g id="arrowDown" xlink:href="#dirArrow" transform="rotate(180) translate(-30 -48)" onmousedown="handlePan(0,1)">
                  <use xlink:href="#rim" fill="#404040">
                        <set attributeName="fill" to="#808080" begin="arrowDown.mouseover" end="arrowDown.mouseout"/>
                  </use>
                  <path fill="none" stroke="white" stroke-width="1.5" d="M0,-3.0v7 M-2.5,-0.5L0,-3.0L2.5,-0.5"/>
                </g>
                <g id="arrowLeft" xlink:href="#dirArrow" transform="rotate(270) translate(-36 17)" onmousedown="handlePan(-1,0)">
                  <use xlink:href="#rim" fill="#404040">
                        <set attributeName="fill" to="#808080" begin="arrowLeft.mouseover" end="arrowLeft.mouseout"/>
                  </use>
                  <path fill="none" stroke="white" stroke-width="1.5" d="M0,-3.0v7 M-2.5,-0.5L0,-3.0L2.5,-0.5"/>
                </g>
        </g>
        <svg viewBox="0 0 15 15" width="100%" height="30px" preserveAspectRatio="xMaxYMin meet">
         <g id="arrow_out" transform="scale(0.3 0.3)">
          <a xlink:href="classokw_1_1core_1_1_core_a19e8df9600c470e8b1ae1fe31c36f50a_icgraph_org.svg" target="_base">
           <rect id="button" ry="5" rx="5" y="6" x="6" height="38" width="38"
                fill="#f2f5e9" fill-opacity="0.5" stroke="#606060" stroke-width="1.0"/>
           <path id="arrow"
             d="M 11.500037,31.436501 C 11.940474,20.09759 22.043105,11.32322 32.158766,21.979434 L 37.068811,17.246167 C 37.068811,17.246167 37.088388,32 37.088388,32 L 22.160133,31.978069 C 22.160133,31.978069 26.997745,27.140456 26.997745,27.140456 C 18.528582,18.264221 13.291696,25.230495 11.500037,31.436501 z"
             style="fill:#404040;"/>
          </a>
         </g>
        </svg>
</svg>
