<?xml version="1.0" encoding="UTF-8" standalone="no"?>
<!DOCTYPE svg PUBLIC "-//W3C//DTD SVG 1.1//EN"
 "http://www.w3.org/Graphics/SVG/1.1/DTD/svg11.dtd">
<!-- Generated by graphviz version 2.38.0 (20140413.2041)
 -->
<!-- Title: okw.core.OK.VerifyValueWCM Pages: 1 -->
<svg width="1388pt" height="789pt"
 viewBox="0.00 0.00 1388.00 789.21" xmlns="http://www.w3.org/2000/svg" xmlns:xlink="http://www.w3.org/1999/xlink">
<g id="graph0" class="graph" transform="scale(1 1) rotate(0) translate(4 785.213)">
<title>okw.core.OK.VerifyValueWCM</title>
<polygon fill="white" stroke="none" points="-4,4 -4,-785.213 1384,-785.213 1384,4 -4,4"/>
<!-- Node1711 -->
<g id="node1" class="node"><title>Node1711</title>
<g id="a_node1"><a xlink:title="Prüft den Standardwert eines Objektes (in den meisten Fällen ist dies der angezeigte Text).">
<polygon fill="#bfbfbf" stroke="black" points="0,-412.213 0,-431.213 153,-431.213 153,-412.213 0,-412.213"/>
<text text-anchor="middle" x="76.5" y="-419.213" font-family="Helvetica,sans-Serif" font-size="10.00">okw.core.OK.VerifyValueWCM</text>
</a>
</g>
</g>
<!-- Node1712 -->
<g id="node2" class="node"><title>Node1712</title>
<g id="a_node2"><a xlink:href="classokw_1_1_o_k_w___const___sngltn.html#afdb8f095b58cbd870dbb8eb353e3b0bf" target="_top" xlink:title="Holt die einzige Instanz dieser Klasse.">
<polygon fill="white" stroke="black" points="201,-746.713 201,-776.713 347,-776.713 347,-746.713 201,-746.713"/>
<text text-anchor="start" x="209" y="-764.713" font-family="Helvetica,sans-Serif" font-size="10.00">okw.OKW_Const_Sngltn.get</text>
<text text-anchor="middle" x="274" y="-753.713" font-family="Helvetica,sans-Serif" font-size="10.00">Instance</text>
</a>
</g>
</g>
<!-- Node1711&#45;&gt;Node1712 -->
<g id="edge1" class="edge"><title>Node1711&#45;&gt;Node1712</title>
<path fill="none" stroke="midnightblue" d="M78.2394,-431.411C81.9034,-472.871 101.62,-637.204 189,-727.713 194.455,-733.363 200.977,-738.103 207.942,-742.072"/>
<polygon fill="midnightblue" stroke="midnightblue" points="206.46,-745.245 216.955,-746.698 209.657,-739.018 206.46,-745.245"/>
</g>
<!-- Node1714 -->
<g id="node4" class="node"><title>Node1714</title>
<g id="a_node4"><a xlink:href="classokw_1_1_o_k_w___const___sngltn.html#a02c05c79f7ea6e862a81a64ce23941fd" target="_top" xlink:title="Methode ermittelt für Internalname und der aktuell eingestellten Sprache den Wert für OKWConst.">
<polygon fill="white" stroke="black" points="406.5,-701.713 406.5,-731.713 554.5,-731.713 554.5,-701.713 406.5,-701.713"/>
<text text-anchor="start" x="414.5" y="-719.713" font-family="Helvetica,sans-Serif" font-size="10.00">okw.OKW_Const_Sngltn.Get</text>
<text text-anchor="middle" x="480.5" y="-708.713" font-family="Helvetica,sans-Serif" font-size="10.00">OKWConst4Internalname</text>
</a>
</g>
</g>
<!-- Node1711&#45;&gt;Node1714 -->
<g id="edge3" class="edge"><title>Node1711&#45;&gt;Node1714</title>
<path fill="none" stroke="midnightblue" d="M78.0726,-431.213C81.0299,-470.989 98.1934,-625.155 189,-691.713 248.076,-735.013 333.176,-737.352 396.009,-731.2"/>
<polygon fill="midnightblue" stroke="midnightblue" points="396.717,-734.645 406.287,-730.1 395.971,-727.685 396.717,-734.645"/>
</g>
<!-- Node1716 -->
<g id="node6" class="node"><title>Node1716</title>
<g id="a_node6"><a xlink:href="classokw_1_1log_1_1_logger___sngltn.html#a313f97c79ba4662d9daaf7f537dd02f4" target="_top" xlink:title="Loggt eine Nachricht.">
<polygon fill="white" stroke="black" points="825,-581.713 825,-611.713 968,-611.713 968,-581.713 825,-581.713"/>
<text text-anchor="start" x="833" y="-599.713" font-family="Helvetica,sans-Serif" font-size="10.00">okw.log.Logger_Sngltn.Log</text>
<text text-anchor="middle" x="896.5" y="-588.713" font-family="Helvetica,sans-Serif" font-size="10.00">PrintDebug</text>
</a>
</g>
</g>
<!-- Node1711&#45;&gt;Node1716 -->
<g id="edge7" class="edge"><title>Node1711&#45;&gt;Node1716</title>
<path fill="none" stroke="midnightblue" d="M86.5705,-431.236C104.648,-449.804 147.05,-491.332 189,-517.713 273.578,-570.9 297.888,-584.224 395,-607.713 559.683,-647.544 607.399,-637.476 776,-620.713 791.201,-619.201 807.33,-616.634 822.657,-613.726"/>
<polygon fill="midnightblue" stroke="midnightblue" points="823.457,-617.136 832.595,-611.774 822.108,-610.267 823.457,-617.136"/>
</g>
<!-- Node1718 -->
<g id="node8" class="node"><title>Node1718</title>
<g id="a_node8"><a xlink:href="classokw_1_1_log_messenger.html#af225d1f037d47b3b085175c09d78bdd2" target="_top" xlink:title="Holt die Log&#45;Meldung für MethodeNmae/Textkey ohne weitere Parameter.">
<polygon fill="white" stroke="black" points="812,-472.213 812,-491.213 981,-491.213 981,-472.213 812,-472.213"/>
<text text-anchor="middle" x="896.5" y="-479.213" font-family="Helvetica,sans-Serif" font-size="10.00">okw.LogMessenger.GetMessage</text>
</a>
</g>
</g>
<!-- Node1711&#45;&gt;Node1718 -->
<g id="edge8" class="edge"><title>Node1711&#45;&gt;Node1718</title>
<path fill="none" stroke="midnightblue" d="M79.3337,-412.021C86.8293,-374.562 118.165,-237.043 189,-150.713 302.083,-12.8919 391.583,23.1804 566,-13.7126 665.867,-34.8365 707.838,-30.7294 776,-106.713 872.876,-214.703 891.258,-401.507 894.711,-462.115"/>
<polygon fill="midnightblue" stroke="midnightblue" points="891.22,-462.391 895.21,-472.206 898.212,-462.045 891.22,-462.391"/>
</g>
<!-- Node1720 -->
<g id="node10" class="node"><title>Node1720</title>
<g id="a_node10"><a xlink:href="classokw_1_1_o_k_w___const___sngltn.html#a3851ae4f27e2ae512749767b86b3fc13" target="_top" xlink:title="Methode trennt einen String und wandelt diesen in einen ListString um.">
<polygon fill="white" stroke="black" points="189,-663.213 189,-682.213 359,-682.213 359,-663.213 189,-663.213"/>
<text text-anchor="middle" x="274" y="-670.213" font-family="Helvetica,sans-Serif" font-size="10.00">okw.OKW_Const_Sngltn.SplitSEP</text>
</a>
</g>
</g>
<!-- Node1711&#45;&gt;Node1720 -->
<g id="edge11" class="edge"><title>Node1711&#45;&gt;Node1720</title>
<path fill="none" stroke="midnightblue" d="M79.385,-431.658C86.6116,-466.99 115.898,-587.605 189,-648.713 193.964,-652.862 199.606,-656.295 205.562,-659.135"/>
<polygon fill="midnightblue" stroke="midnightblue" points="204.551,-662.506 215.127,-663.127 207.247,-656.046 204.551,-662.506"/>
</g>
<!-- Node1722 -->
<g id="node12" class="node"><title>Node1722</title>
<g id="a_node12"><a xlink:href="classokw_1_1parser_1_1_parser.html#a46afb901847316c744413ce473ecada3" target="_top" xlink:title="Parst einen _List&amp;lt string&amp;gt, ersetzt die Parser&#45;Schlüsslewörter durch Werte.">
<polygon fill="white" stroke="black" points="202.5,-431.213 202.5,-450.213 345.5,-450.213 345.5,-431.213 202.5,-431.213"/>
<text text-anchor="middle" x="274" y="-438.213" font-family="Helvetica,sans-Serif" font-size="10.00">okw.parser.Parser.ParseMe</text>
</a>
</g>
</g>
<!-- Node1711&#45;&gt;Node1722 -->
<g id="edge14" class="edge"><title>Node1711&#45;&gt;Node1722</title>
<path fill="none" stroke="midnightblue" d="M153.085,-429.058C165.888,-430.303 179.226,-431.599 192.156,-432.856"/>
<polygon fill="midnightblue" stroke="midnightblue" points="192.129,-436.369 202.421,-433.853 192.807,-429.402 192.129,-436.369"/>
</g>
<!-- Node1723 -->
<g id="node13" class="node"><title>Node1723</title>
<g id="a_node13"><a xlink:href="classokw_1_1core_1_1_o_k_w___current_object___sngltn.html#a461fa1ff29f4bc4a9798707ea7b71849" target="_top" xlink:title="Setzt das Kindobjekt.">
<polygon fill="white" stroke="black" points="196.5,-478.713 196.5,-508.713 351.5,-508.713 351.5,-478.713 196.5,-478.713"/>
<text text-anchor="start" x="204.5" y="-496.713" font-family="Helvetica,sans-Serif" font-size="10.00">okw.core.OKW_CurrentObject</text>
<text text-anchor="middle" x="274" y="-485.713" font-family="Helvetica,sans-Serif" font-size="10.00">_Sngltn.setChildName</text>
</a>
</g>
</g>
<!-- Node1711&#45;&gt;Node1723 -->
<g id="edge15" class="edge"><title>Node1711&#45;&gt;Node1723</title>
<path fill="none" stroke="midnightblue" d="M103.461,-431.274C133.719,-442.417 184.429,-461.093 222.523,-475.123"/>
<polygon fill="midnightblue" stroke="midnightblue" points="221.323,-478.41 231.916,-478.582 223.742,-471.842 221.323,-478.41"/>
</g>
<!-- Node1729 -->
<g id="node19" class="node"><title>Node1729</title>
<g id="a_node19"><a xlink:href="classokw_1_1core_1_1_o_k_w___current_object___sngltn.html#a8a957bc040b9487a21adb41a52c56fd4" target="_top" xlink:title="Ermittelt den ObjektNamen des aktuellen Objektes.">
<polygon fill="white" stroke="black" points="196.5,-343.713 196.5,-373.713 351.5,-373.713 351.5,-343.713 196.5,-343.713"/>
<text text-anchor="start" x="204.5" y="-361.713" font-family="Helvetica,sans-Serif" font-size="10.00">okw.core.OKW_CurrentObject</text>
<text text-anchor="middle" x="274" y="-350.713" font-family="Helvetica,sans-Serif" font-size="10.00">_Sngltn.getObjectFN</text>
</a>
</g>
</g>
<!-- Node1711&#45;&gt;Node1729 -->
<g id="edge27" class="edge"><title>Node1711&#45;&gt;Node1729</title>
<path fill="none" stroke="midnightblue" d="M104.439,-412.201C126.961,-404.329 159.97,-392.975 189,-383.713 196.338,-381.371 204.059,-378.978 211.724,-376.645"/>
<polygon fill="midnightblue" stroke="midnightblue" points="212.81,-379.974 221.371,-373.731 210.786,-373.273 212.81,-379.974"/>
</g>
<!-- Node1730 -->
<g id="node20" class="node"><title>Node1730</title>
<g id="a_node20"><a xlink:href="interfaceokw_1_1_o_k_w.html#a2cd796f2ddf0f9928ef52cd01435bed7" target="_top" xlink:title="TimeOut in Sekunden [s] für das Schlüsselwort VerifyValue.">
<polygon fill="white" stroke="black" points="208.5,-305.213 208.5,-324.213 339.5,-324.213 339.5,-305.213 208.5,-305.213"/>
<text text-anchor="middle" x="274" y="-312.213" font-family="Helvetica,sans-Serif" font-size="10.00">okw.OKW.VerifyValue_TO</text>
</a>
</g>
</g>
<!-- Node1711&#45;&gt;Node1730 -->
<g id="edge28" class="edge"><title>Node1711&#45;&gt;Node1730</title>
<path fill="none" stroke="midnightblue" d="M86.6305,-412.072C104.485,-393.819 146.047,-354.213 189,-333.713 194.187,-331.237 199.709,-329.077 205.351,-327.193"/>
<polygon fill="midnightblue" stroke="midnightblue" points="206.373,-330.54 214.917,-324.276 204.331,-323.844 206.373,-330.54"/>
</g>
<!-- Node1731 -->
<g id="node21" class="node"><title>Node1731</title>
<g id="a_node21"><a xlink:href="interfaceokw_1_1_o_k_w.html#a6d2799929ca6c0ecd3ebd0e2003a96b1" target="_top" xlink:title="Polling Time in [ms] für das Schlüsselwort VerifyValue.">
<polygon fill="white" stroke="black" points="209,-267.213 209,-286.213 339,-286.213 339,-267.213 209,-267.213"/>
<text text-anchor="middle" x="274" y="-274.213" font-family="Helvetica,sans-Serif" font-size="10.00">okw.OKW.VerifyValue_PT</text>
</a>
</g>
</g>
<!-- Node1711&#45;&gt;Node1731 -->
<g id="edge29" class="edge"><title>Node1711&#45;&gt;Node1731</title>
<path fill="none" stroke="midnightblue" d="M83.085,-411.985C97.3638,-388.054 137.72,-326.063 189,-295.713 192.691,-293.528 196.61,-291.594 200.659,-289.883"/>
<polygon fill="midnightblue" stroke="midnightblue" points="202.156,-293.06 210.297,-286.279 199.705,-286.503 202.156,-293.06"/>
</g>
<!-- Node1732 -->
<g id="node22" class="node"><title>Node1732</title>
<g id="a_node22"><a xlink:href="classokw_1_1core_1_1_o_k.html#a127f0328e514d1b9f8bc1a972269ecfc" target="_top" xlink:title=" ">
<polygon fill="white" stroke="black" points="211,-393.213 211,-412.213 337,-412.213 337,-393.213 211,-393.213"/>
<text text-anchor="middle" x="274" y="-400.213" font-family="Helvetica,sans-Serif" font-size="10.00">okw.core.OK.verifyWCM</text>
</a>
</g>
</g>
<!-- Node1711&#45;&gt;Node1732 -->
<g id="edge30" class="edge"><title>Node1711&#45;&gt;Node1732</title>
<path fill="none" stroke="midnightblue" d="M153.085,-414.367C168.775,-412.842 185.268,-411.239 200.831,-409.726"/>
<polygon fill="midnightblue" stroke="midnightblue" points="201.291,-413.198 210.905,-408.747 200.614,-406.231 201.291,-413.198"/>
</g>
<!-- Node1736 -->
<g id="node26" class="node"><title>Node1736</title>
<g id="a_node26"><a xlink:href="classokw_1_1core_1_1_o_k.html#a5a6db6a457bcb71c893f5d4eb615b2b7" target="_top" xlink:title="Zentrale Exception&#45;Behandlung.">
<polygon fill="white" stroke="black" points="196,-160.213 196,-179.213 352,-179.213 352,-160.213 196,-160.213"/>
<text text-anchor="middle" x="274" y="-167.213" font-family="Helvetica,sans-Serif" font-size="10.00">okw.core.OK.handleException</text>
</a>
</g>
</g>
<!-- Node1711&#45;&gt;Node1736 -->
<g id="edge34" class="edge"><title>Node1711&#45;&gt;Node1736</title>
<path fill="none" stroke="midnightblue" d="M83.268,-412.08C98.9516,-386.16 144.208,-313.146 189,-257.713 210.296,-231.357 237.889,-203.475 255.524,-186.329"/>
<polygon fill="midnightblue" stroke="midnightblue" points="258.096,-188.711 262.867,-179.252 253.238,-183.671 258.096,-188.711"/>
</g>
<!-- Node1713 -->
<g id="node3" class="node"><title>Node1713</title>
<g id="a_node3"><a xlink:href="classokw_1_1_o_k_w___const___sngltn.html#a8404c43fc549df30d37c369c7d6e89ae" target="_top" xlink:title="Privater Konstruktor ohne Parameter im Entwurfsmuster Singelton initialisiert die Klasse OKW_Const.">
<polygon fill="white" stroke="black" points="404.5,-750.713 404.5,-780.713 556.5,-780.713 556.5,-750.713 404.5,-750.713"/>
<text text-anchor="start" x="412.5" y="-768.713" font-family="Helvetica,sans-Serif" font-size="10.00">okw.OKW_Const_Sngltn.OKW</text>
<text text-anchor="middle" x="480.5" y="-757.713" font-family="Helvetica,sans-Serif" font-size="10.00">_Const_Sngltn</text>
</a>
</g>
</g>
<!-- Node1712&#45;&gt;Node1713 -->
<g id="edge2" class="edge"><title>Node1712&#45;&gt;Node1713</title>
<path fill="none" stroke="midnightblue" d="M347.099,-763.123C362.286,-763.42 378.448,-763.736 394.071,-764.042"/>
<polygon fill="midnightblue" stroke="midnightblue" points="394.178,-767.544 404.244,-764.241 394.315,-760.546 394.178,-767.544"/>
</g>
<!-- Node1715 -->
<g id="node5" class="node"><title>Node1715</title>
<g id="a_node5"><a xlink:href="classokw_1_1_o_k_w___const___sngltn.html#a51cde06bf07e855ba4d69ff36b9a27f7" target="_top" xlink:title="Methode ermittelt für Internalname und der aktuell eingestellten Sprache den Wert für Const.">
<polygon fill="white" stroke="black" points="615,-663.713 615,-693.713 763,-693.713 763,-663.713 615,-663.713"/>
<text text-anchor="start" x="623" y="-681.713" font-family="Helvetica,sans-Serif" font-size="10.00">okw.OKW_Const_Sngltn.Get</text>
<text text-anchor="middle" x="689" y="-670.713" font-family="Helvetica,sans-Serif" font-size="10.00">Const4Internalname</text>
</a>
</g>
</g>
<!-- Node1714&#45;&gt;Node1715 -->
<g id="edge4" class="edge"><title>Node1714&#45;&gt;Node1715</title>
<path fill="none" stroke="midnightblue" d="M554.595,-703.262C570.736,-700.291 587.956,-697.123 604.476,-694.083"/>
<polygon fill="midnightblue" stroke="midnightblue" points="605.454,-697.461 614.655,-692.209 604.187,-690.577 605.454,-697.461"/>
</g>
<!-- Node1715&#45;&gt;Node1716 -->
<g id="edge5" class="edge"><title>Node1715&#45;&gt;Node1716</title>
<path fill="none" stroke="midnightblue" d="M735.313,-663.617C748.507,-659.03 762.894,-653.842 776,-648.713 801.995,-638.539 830.689,-626.094 853.443,-615.93"/>
<polygon fill="midnightblue" stroke="midnightblue" points="855.117,-619.015 862.806,-611.727 852.25,-612.629 855.117,-619.015"/>
</g>
<!-- Node1717 -->
<g id="node7" class="node"><title>Node1717</title>
<g id="a_node7"><a xlink:href="classokw_1_1_o_k_w___xml_reader.html#ab920b5335a2e1429c14cc5f8e79f39eb" target="_top" xlink:title="Lies den TextContent eines Tag.">
<polygon fill="white" stroke="black" points="1228,-590.713 1228,-620.713 1380,-620.713 1380,-590.713 1228,-590.713"/>
<text text-anchor="start" x="1236" y="-608.713" font-family="Helvetica,sans-Serif" font-size="10.00">okw.OKW_XmlReader.getText</text>
<text text-anchor="middle" x="1304" y="-597.713" font-family="Helvetica,sans-Serif" font-size="10.00">ContentSingleValue</text>
</a>
</g>
</g>
<!-- Node1715&#45;&gt;Node1717 -->
<g id="edge6" class="edge"><title>Node1715&#45;&gt;Node1717</title>
<path fill="none" stroke="midnightblue" d="M763.03,-670.016C876.972,-656.447 1096.51,-630.303 1217.6,-615.882"/>
<polygon fill="midnightblue" stroke="midnightblue" points="1218.06,-619.352 1227.58,-614.694 1217.24,-612.401 1218.06,-619.352"/>
</g>
<!-- Node1719 -->
<g id="node9" class="node"><title>Node1719</title>
<g id="a_node9"><a xlink:href="classokw_1_1_log_messenger.html#a530cd6ab82ec82a04206a2e976ec06e3" target="_top" xlink:title="Interne Kernfunktion holt die Log&#45;Meldung mit Platzhaltern aus der XML&#45;Datei.">
<polygon fill="white" stroke="black" points="1017,-542.213 1017,-561.213 1192,-561.213 1192,-542.213 1017,-542.213"/>
<text text-anchor="middle" x="1104.5" y="-549.213" font-family="Helvetica,sans-Serif" font-size="10.00">okw.LogMessenger.ReadMessage</text>
</a>
</g>
</g>
<!-- Node1718&#45;&gt;Node1719 -->
<g id="edge9" class="edge"><title>Node1718&#45;&gt;Node1719</title>
<path fill="none" stroke="midnightblue" d="M925.711,-491.299C962.053,-503.648 1025.35,-525.155 1065.79,-538.898"/>
<polygon fill="midnightblue" stroke="midnightblue" points="1064.71,-542.226 1075.3,-542.13 1066.96,-535.599 1064.71,-542.226"/>
</g>
<!-- Node1719&#45;&gt;Node1717 -->
<g id="edge10" class="edge"><title>Node1719&#45;&gt;Node1717</title>
<path fill="none" stroke="midnightblue" d="M1140.35,-561.242C1167.35,-568.624 1205.51,-579.057 1238.09,-587.964"/>
<polygon fill="midnightblue" stroke="midnightblue" points="1237.43,-591.412 1248,-590.674 1239.27,-584.66 1237.43,-591.412"/>
</g>
<!-- Node1720&#45;&gt;Node1714 -->
<g id="edge13" class="edge"><title>Node1720&#45;&gt;Node1714</title>
<path fill="none" stroke="midnightblue" d="M319.373,-682.26C342.809,-687.302 372.293,-693.646 399.553,-699.511"/>
<polygon fill="midnightblue" stroke="midnightblue" points="398.968,-702.965 409.48,-701.647 400.44,-696.122 398.968,-702.965"/>
</g>
<!-- Node1721 -->
<g id="node11" class="node"><title>Node1721</title>
<g id="a_node11"><a xlink:href="classokw_1_1_o_k_w___helper.html#a268ba5b6db697acd241f3ebea12c4194" target="_top" xlink:title="Splittet einen String am angegebenen Separator auf.">
<polygon fill="white" stroke="black" points="407.5,-663.213 407.5,-682.213 553.5,-682.213 553.5,-663.213 407.5,-663.213"/>
<text text-anchor="middle" x="480.5" y="-670.213" font-family="Helvetica,sans-Serif" font-size="10.00">okw.OKW_Helper.splitString</text>
</a>
</g>
</g>
<!-- Node1720&#45;&gt;Node1721 -->
<g id="edge12" class="edge"><title>Node1720&#45;&gt;Node1721</title>
<path fill="none" stroke="midnightblue" d="M359.063,-672.713C371.543,-672.713 384.396,-672.713 396.846,-672.713"/>
<polygon fill="midnightblue" stroke="midnightblue" points="397.192,-676.213 407.192,-672.713 397.192,-669.213 397.192,-676.213"/>
</g>
<!-- Node1723&#45;&gt;Node1716 -->
<g id="edge16" class="edge"><title>Node1723&#45;&gt;Node1716</title>
<path fill="none" stroke="midnightblue" d="M290.403,-509.016C311.766,-529.095 352.576,-563.449 395,-577.713 536.64,-625.333 713.654,-617.582 814.725,-607.34"/>
<polygon fill="midnightblue" stroke="midnightblue" points="815.284,-610.801 824.865,-606.278 814.555,-603.839 815.284,-610.801"/>
</g>
<!-- Node1723&#45;&gt;Node1718 -->
<g id="edge17" class="edge"><title>Node1723&#45;&gt;Node1718</title>
<path fill="none" stroke="midnightblue" d="M351.686,-482.686C366.05,-481.031 380.96,-479.587 395,-478.713 536.491,-469.904 700.914,-473.541 801.574,-477.338"/>
<polygon fill="midnightblue" stroke="midnightblue" points="801.589,-480.841 811.716,-477.73 801.859,-473.847 801.589,-480.841"/>
</g>
<!-- Node1724 -->
<g id="node14" class="node"><title>Node1724</title>
<g id="a_node14"><a xlink:href="classokw_1_1_o_k_w___helper.html#a3a7ba0f42b29adf70574830688e72e4a" target="_top" xlink:title="Prüft ob der gegeben String fpsStrin null oder leer (&quot;&quot;) ist.">
<polygon fill="white" stroke="black" points="404.5,-537.713 404.5,-567.713 556.5,-567.713 556.5,-537.713 404.5,-537.713"/>
<text text-anchor="start" x="412.5" y="-555.713" font-family="Helvetica,sans-Serif" font-size="10.00">okw.OKW_Helper.isStringNull</text>
<text text-anchor="middle" x="480.5" y="-544.713" font-family="Helvetica,sans-Serif" font-size="10.00">OrEmpty</text>
</a>
</g>
</g>
<!-- Node1723&#45;&gt;Node1724 -->
<g id="edge18" class="edge"><title>Node1723&#45;&gt;Node1724</title>
<path fill="none" stroke="midnightblue" d="M327.133,-508.753C354.656,-516.694 388.614,-526.491 417.482,-534.82"/>
<polygon fill="midnightblue" stroke="midnightblue" points="416.884,-538.29 427.462,-537.699 418.824,-531.564 416.884,-538.29"/>
</g>
<!-- Node1725 -->
<g id="node15" class="node"><title>Node1725</title>
<g id="a_node15"><a xlink:href="classokw_1_1log_1_1_logger___sngltn.html#a8ebceaddd6cc6963ddb8e08c72ea808c" target="_top" xlink:title="LogPrint Function: Prints the values of expressions to the results file.">
<polygon fill="white" stroke="black" points="617.5,-253.713 617.5,-283.713 760.5,-283.713 760.5,-253.713 617.5,-253.713"/>
<text text-anchor="start" x="625.5" y="-271.713" font-family="Helvetica,sans-Serif" font-size="10.00">okw.log.Logger_Sngltn.Log</text>
<text text-anchor="middle" x="689" y="-260.713" font-family="Helvetica,sans-Serif" font-size="10.00">Print</text>
</a>
</g>
</g>
<!-- Node1723&#45;&gt;Node1725 -->
<g id="edge19" class="edge"><title>Node1723&#45;&gt;Node1725</title>
<path fill="none" stroke="midnightblue" d="M312.439,-478.596C346.062,-465.043 390.784,-447.079 395,-445.713 469.548,-421.55 498.756,-442.956 566,-402.713 612.973,-374.6 652.453,-322.798 672.926,-292.497"/>
<polygon fill="midnightblue" stroke="midnightblue" points="676.058,-294.105 678.656,-283.834 670.22,-290.243 676.058,-294.105"/>
</g>
<!-- Node1726 -->
<g id="node16" class="node"><title>Node1726</title>
<g id="a_node16"><a xlink:href="classokw_1_1core_1_1_o_k_w___current_object___sngltn.html#a51204f2563ba8defb737da6653705819" target="_top" xlink:title="Methode aktualisert zwei Werte:">
<polygon fill="white" stroke="black" points="403,-488.713 403,-518.713 558,-518.713 558,-488.713 403,-488.713"/>
<text text-anchor="start" x="411" y="-506.713" font-family="Helvetica,sans-Serif" font-size="10.00">okw.core.OKW_CurrentObject</text>
<text text-anchor="middle" x="480.5" y="-495.713" font-family="Helvetica,sans-Serif" font-size="10.00">_Sngltn.updateObject</text>
</a>
</g>
</g>
<!-- Node1723&#45;&gt;Node1726 -->
<g id="edge20" class="edge"><title>Node1723&#45;&gt;Node1726</title>
<path fill="none" stroke="midnightblue" d="M351.73,-497.465C365.006,-498.114 378.896,-498.793 392.423,-499.455"/>
<polygon fill="midnightblue" stroke="midnightblue" points="392.521,-502.963 402.68,-499.956 392.863,-495.972 392.521,-502.963"/>
</g>
<!-- Node1727 -->
<g id="node17" class="node"><title>Node1727</title>
<g id="a_node17"><a xlink:href="classokw_1_1_frame_object_dictionary___sngltn.html#aeec07d71cbebe71ec3ec4d27e86d6c5c" target="_top" xlink:title="Die Methode liefert das Frame&#45;Object des gegebenen FN eines Fensterobjektes zurück.">
<polygon fill="white" stroke="black" points="602,-537.713 602,-567.713 776,-567.713 776,-537.713 602,-537.713"/>
<text text-anchor="start" x="610" y="-555.713" font-family="Helvetica,sans-Serif" font-size="10.00">okw.FrameObjectDictionary</text>
<text text-anchor="middle" x="689" y="-544.713" font-family="Helvetica,sans-Serif" font-size="10.00">_Sngltn.getParentObjectByName</text>
</a>
</g>
</g>
<!-- Node1726&#45;&gt;Node1727 -->
<g id="edge21" class="edge"><title>Node1726&#45;&gt;Node1727</title>
<path fill="none" stroke="midnightblue" d="M544.86,-518.747C566.961,-523.991 591.943,-529.919 614.779,-535.338"/>
<polygon fill="midnightblue" stroke="midnightblue" points="614.222,-538.803 624.76,-537.706 615.838,-531.992 614.222,-538.803"/>
</g>
<!-- Node1728 -->
<g id="node18" class="node"><title>Node1728</title>
<g id="a_node18"><a xlink:href="classokw_1_1_frame_object_dictionary___sngltn.html#a0a71734828093357dfc88b5fa242e361" target="_top" xlink:title="Die Methode liefert das Objekt des gegebenen Kindobjekttests zurück.">
<polygon fill="white" stroke="black" points="605.5,-488.713 605.5,-518.713 772.5,-518.713 772.5,-488.713 605.5,-488.713"/>
<text text-anchor="start" x="613.5" y="-506.713" font-family="Helvetica,sans-Serif" font-size="10.00">okw.FrameObjectDictionary</text>
<text text-anchor="middle" x="689" y="-495.713" font-family="Helvetica,sans-Serif" font-size="10.00">_Sngltn.getChildObjectByName</text>
</a>
</g>
</g>
<!-- Node1726&#45;&gt;Node1728 -->
<g id="edge24" class="edge"><title>Node1726&#45;&gt;Node1728</title>
<path fill="none" stroke="midnightblue" d="M558.1,-503.713C570.116,-503.713 582.649,-503.713 594.985,-503.713"/>
<polygon fill="midnightblue" stroke="midnightblue" points="595.285,-507.213 605.285,-503.713 595.285,-500.213 595.285,-507.213"/>
</g>
<!-- Node1727&#45;&gt;Node1716 -->
<g id="edge22" class="edge"><title>Node1727&#45;&gt;Node1716</title>
<path fill="none" stroke="midnightblue" d="M760.147,-567.732C777.904,-571.534 797.11,-575.646 815.321,-579.545"/>
<polygon fill="midnightblue" stroke="midnightblue" points="814.81,-583.015 825.321,-581.686 816.275,-576.17 814.81,-583.015"/>
</g>
<!-- Node1727&#45;&gt;Node1718 -->
<g id="edge23" class="edge"><title>Node1727&#45;&gt;Node1718</title>
<path fill="none" stroke="midnightblue" d="M744.351,-537.669C754.9,-534.536 765.834,-531.14 776,-527.713 805.809,-517.663 839.175,-504.669 863.058,-495.055"/>
<polygon fill="midnightblue" stroke="midnightblue" points="864.4,-498.288 872.356,-491.291 861.773,-491.8 864.4,-498.288"/>
</g>
<!-- Node1728&#45;&gt;Node1716 -->
<g id="edge25" class="edge"><title>Node1728&#45;&gt;Node1716</title>
<path fill="none" stroke="midnightblue" d="M748.932,-518.846C758.119,-521.775 767.408,-525.079 776,-528.713 807.191,-541.904 840.513,-561.36 864.024,-576.084"/>
<polygon fill="midnightblue" stroke="midnightblue" points="862.209,-579.078 872.529,-581.473 865.955,-573.165 862.209,-579.078"/>
</g>
<!-- Node1728&#45;&gt;Node1718 -->
<g id="edge26" class="edge"><title>Node1728&#45;&gt;Node1718</title>
<path fill="none" stroke="midnightblue" d="M772.696,-494.859C782.298,-493.831 792.143,-492.777 801.878,-491.735"/>
<polygon fill="midnightblue" stroke="midnightblue" points="802.398,-495.2 811.969,-490.655 801.653,-488.24 802.398,-495.2"/>
</g>
<!-- Node1733 -->
<g id="node23" class="node"><title>Node1733</title>
<g id="a_node23"><a xlink:href="classokw_1_1_o_k_w___time_out.html#adf7b9cc33db065c1f284bb5db2227b51" target="_top" xlink:title="Anzahl der berechnetten Zyklen.">
<polygon fill="white" stroke="black" points="395,-374.213 395,-393.213 566,-393.213 566,-374.213 395,-374.213"/>
<text text-anchor="middle" x="480.5" y="-381.213" font-family="Helvetica,sans-Serif" font-size="10.00">okw.OKW_TimeOut.getMaxCount</text>
</a>
</g>
</g>
<!-- Node1732&#45;&gt;Node1733 -->
<g id="edge31" class="edge"><title>Node1732&#45;&gt;Node1733</title>
<path fill="none" stroke="midnightblue" d="M337.19,-396.935C352.273,-395.533 368.738,-394.003 384.944,-392.498"/>
<polygon fill="midnightblue" stroke="midnightblue" points="385.353,-395.975 394.986,-391.565 384.705,-389.005 385.353,-395.975"/>
</g>
<!-- Node1734 -->
<g id="node24" class="node"><title>Node1734</title>
<g id="a_node24"><a xlink:href="classokw_1_1core_1_1_matcher.html#a771af5fda0717ef20d2bc1866357eaa9" target="_top" xlink:title=" ">
<polygon fill="white" stroke="black" points="409.5,-324.713 409.5,-354.713 551.5,-354.713 551.5,-324.713 409.5,-324.713"/>
<text text-anchor="start" x="417.5" y="-342.713" font-family="Helvetica,sans-Serif" font-size="10.00">okw.core.Matcher.Wildcard</text>
<text text-anchor="middle" x="480.5" y="-331.713" font-family="Helvetica,sans-Serif" font-size="10.00">Match</text>
</a>
</g>
</g>
<!-- Node1732&#45;&gt;Node1734 -->
<g id="edge32" class="edge"><title>Node1732&#45;&gt;Node1734</title>
<path fill="none" stroke="midnightblue" d="M323.536,-393.162C335.299,-390.3 347.729,-386.81 359,-382.713 375.812,-376.601 378.359,-371.275 395,-364.713 400.977,-362.355 407.268,-360.098 413.608,-357.973"/>
<polygon fill="midnightblue" stroke="midnightblue" points="415.139,-361.156 423.574,-354.745 412.982,-354.497 415.139,-361.156"/>
</g>
<!-- Node1735 -->
<g id="node25" class="node"><title>Node1735</title>
<g id="a_node25"><a xlink:href="classokw_1_1_o_k_w___time_out.html#ab7142e5e6adc82f308a70177c71ced2c" target="_top" xlink:title="Wartezeit zwischen zwei Pollings in [ms].">
<polygon fill="white" stroke="black" points="413.5,-286.213 413.5,-305.213 547.5,-305.213 547.5,-286.213 413.5,-286.213"/>
<text text-anchor="middle" x="480.5" y="-293.213" font-family="Helvetica,sans-Serif" font-size="10.00">okw.OKW_TimeOut.getPT</text>
</a>
</g>
</g>
<!-- Node1732&#45;&gt;Node1735 -->
<g id="edge33" class="edge"><title>Node1732&#45;&gt;Node1735</title>
<path fill="none" stroke="midnightblue" d="M337.408,-394.263C345.161,-391.423 352.599,-387.668 359,-382.713 386.039,-361.778 367.829,-335.477 395,-314.713 397.834,-312.547 400.868,-310.62 404.041,-308.905"/>
<polygon fill="midnightblue" stroke="midnightblue" points="405.697,-311.995 413.299,-304.614 402.754,-305.644 405.697,-311.995"/>
</g>
<!-- Node1736&#45;&gt;Node1725 -->
<g id="edge35" class="edge"><title>Node1736&#45;&gt;Node1725</title>
<path fill="none" stroke="midnightblue" d="M287.837,-179.38C308.935,-194.694 352.818,-224.178 395,-237.713 464.409,-259.983 547.336,-267.065 607.224,-268.968"/>
<polygon fill="midnightblue" stroke="midnightblue" points="607.286,-272.471 617.379,-269.248 607.479,-265.473 607.286,-272.471"/>
</g>
<!-- Node1737 -->
<g id="node27" class="node"><title>Node1737</title>
<g id="a_node27"><a xlink:href="classokw_1_1log_1_1_logger___sngltn.html#aa29d396a2b9df1ac57079d777c548181" target="_top" xlink:title="LogException Function: Logs a Script Exception to the results file.">
<polygon fill="white" stroke="black" points="409,-23.7126 409,-53.7126 552,-53.7126 552,-23.7126 409,-23.7126"/>
<text text-anchor="start" x="417" y="-41.7126" font-family="Helvetica,sans-Serif" font-size="10.00">okw.log.Logger_Sngltn.Log</text>
<text text-anchor="middle" x="480.5" y="-30.7126" font-family="Helvetica,sans-Serif" font-size="10.00">Exception</text>
</a>
</g>
</g>
<!-- Node1736&#45;&gt;Node1737 -->
<g id="edge36" class="edge"><title>Node1736&#45;&gt;Node1737</title>
<path fill="none" stroke="midnightblue" d="M282.958,-160.139C300.81,-139.281 346.32,-89.4627 395,-62.7126 398.266,-60.9178 401.679,-59.247 405.18,-57.6928"/>
<polygon fill="midnightblue" stroke="midnightblue" points="406.677,-60.8623 414.616,-53.8462 404.034,-54.3802 406.677,-60.8623"/>
</g>
<!-- Node1738 -->
<g id="node28" class="node"><title>Node1738</title>
<g id="a_node28"><a xlink:href="classokw_1_1log_1_1_logger___sngltn.html#ab4fc711bb4c754f251372ff3b14ab9c9" target="_top" xlink:title="Creates a new hierarchical level in the results file.">
<polygon fill="white" stroke="black" points="617.5,-165.713 617.5,-195.713 760.5,-195.713 760.5,-165.713 617.5,-165.713"/>
<text text-anchor="start" x="625.5" y="-183.713" font-family="Helvetica,sans-Serif" font-size="10.00">okw.log.Logger_Sngltn.Res</text>
<text text-anchor="middle" x="689" y="-172.713" font-family="Helvetica,sans-Serif" font-size="10.00">OpenList</text>
</a>
</g>
</g>
<!-- Node1736&#45;&gt;Node1738 -->
<g id="edge37" class="edge"><title>Node1736&#45;&gt;Node1738</title>
<path fill="none" stroke="midnightblue" d="M352.198,-171.769C424.89,-173.705 533.353,-176.594 607.199,-178.56"/>
<polygon fill="midnightblue" stroke="midnightblue" points="607.293,-182.064 617.382,-178.832 607.479,-175.067 607.293,-182.064"/>
</g>
<!-- Node1739 -->
<g id="node29" class="node"><title>Node1739</title>
<g id="a_node29"><a xlink:href="classokw_1_1log_1_1_logger___sngltn.html#a9b54104f7e0b4c0a473877b19dfaed56" target="_top" xlink:title="Closes a hierarchical level in the results file that was opened with ResOpenList.">
<polygon fill="white" stroke="black" points="617.5,-116.713 617.5,-146.713 760.5,-146.713 760.5,-116.713 617.5,-116.713"/>
<text text-anchor="start" x="625.5" y="-134.713" font-family="Helvetica,sans-Serif" font-size="10.00">okw.log.Logger_Sngltn.Res</text>
<text text-anchor="middle" x="689" y="-123.713" font-family="Helvetica,sans-Serif" font-size="10.00">CloseList</text>
</a>
</g>
</g>
<!-- Node1736&#45;&gt;Node1739 -->
<g id="edge38" class="edge"><title>Node1736&#45;&gt;Node1739</title>
<path fill="none" stroke="midnightblue" d="M352.198,-162.61C424.89,-155.921 533.353,-145.942 607.199,-139.147"/>
<polygon fill="midnightblue" stroke="midnightblue" points="607.745,-142.612 617.382,-138.21 607.104,-135.641 607.745,-142.612"/>
</g>
<!-- Node1740 -->
<g id="node30" class="node"><title>Node1740</title>
<g id="a_node30"><a xlink:href="classokw_1_1core_1_1_o_k_w___current_object___sngltn.html#a01b48f2c86a2f91909143ee9063dfd86" target="_top" xlink:title="Methode gibt alle wichtigen Informationen zum aktuellen Objekt aus.">
<polygon fill="white" stroke="black" points="403,-198.713 403,-228.713 558,-228.713 558,-198.713 403,-198.713"/>
<text text-anchor="start" x="411" y="-216.713" font-family="Helvetica,sans-Serif" font-size="10.00">okw.core.OKW_CurrentObject</text>
<text text-anchor="middle" x="480.5" y="-205.713" font-family="Helvetica,sans-Serif" font-size="10.00">_Sngltn.LogObjectData</text>
</a>
</g>
</g>
<!-- Node1736&#45;&gt;Node1740 -->
<g id="edge39" class="edge"><title>Node1736&#45;&gt;Node1740</title>
<path fill="none" stroke="midnightblue" d="M319.373,-179.26C342.809,-184.302 372.293,-190.646 399.553,-196.511"/>
<polygon fill="midnightblue" stroke="midnightblue" points="398.968,-199.965 409.48,-198.647 400.44,-193.122 398.968,-199.965"/>
</g>
<!-- Node1741 -->
<g id="node31" class="node"><title>Node1741</title>
<g id="a_node31"><a xlink:href="classokw_1_1core_1_1_core.html#aafe6e3d88e810dabf350b37058d4af97" target="_top" xlink:title="Setter zum Setzen des aktuellen Zustandes.">
<polygon fill="white" stroke="black" points="411,-72.7126 411,-102.713 550,-102.713 550,-72.7126 411,-72.7126"/>
<text text-anchor="start" x="419" y="-90.7126" font-family="Helvetica,sans-Serif" font-size="10.00">okw.core.Core.SetCurrent</text>
<text text-anchor="middle" x="480.5" y="-79.7126" font-family="Helvetica,sans-Serif" font-size="10.00">State</text>
</a>
</g>
</g>
<!-- Node1736&#45;&gt;Node1741 -->
<g id="edge44" class="edge"><title>Node1736&#45;&gt;Node1741</title>
<path fill="none" stroke="midnightblue" d="M296.062,-160.07C319.884,-149.284 359.929,-131.519 395,-117.713 404.879,-113.823 415.492,-109.877 425.747,-106.18"/>
<polygon fill="midnightblue" stroke="midnightblue" points="427.192,-109.381 435.433,-102.722 424.838,-102.788 427.192,-109.381"/>
</g>
<!-- Node1740&#45;&gt;Node1718 -->
<g id="edge42" class="edge"><title>Node1740&#45;&gt;Node1718</title>
<path fill="none" stroke="midnightblue" d="M558.295,-213.33C633.567,-214.385 741.831,-220.16 776,-243.713 853.195,-296.921 883.075,-415.166 892.162,-462.03"/>
<polygon fill="midnightblue" stroke="midnightblue" points="888.76,-462.882 894.001,-472.09 895.646,-461.624 888.76,-462.882"/>
</g>
<!-- Node1740&#45;&gt;Node1725 -->
<g id="edge41" class="edge"><title>Node1740&#45;&gt;Node1725</title>
<path fill="none" stroke="midnightblue" d="M537.927,-228.742C563.878,-235.653 594.835,-243.899 621.873,-251.1"/>
<polygon fill="midnightblue" stroke="midnightblue" points="621.077,-254.51 631.641,-253.702 622.879,-247.746 621.077,-254.51"/>
</g>
<!-- Node1740&#45;&gt;Node1738 -->
<g id="edge40" class="edge"><title>Node1740&#45;&gt;Node1738</title>
<path fill="none" stroke="midnightblue" d="M558.1,-201.471C574.163,-198.904 591.151,-196.19 607.358,-193.6"/>
<polygon fill="midnightblue" stroke="midnightblue" points="608.01,-197.04 617.332,-192.006 606.905,-190.128 608.01,-197.04"/>
</g>
<!-- Node1740&#45;&gt;Node1739 -->
<g id="edge43" class="edge"><title>Node1740&#45;&gt;Node1739</title>
<path fill="none" stroke="midnightblue" d="M509.129,-198.684C533.165,-186.033 569.194,-168.075 602,-155.713 607.483,-153.647 613.221,-151.667 619.02,-149.795"/>
<polygon fill="midnightblue" stroke="midnightblue" points="620.296,-153.063 628.802,-146.747 618.214,-146.38 620.296,-153.063"/>
</g>
</g>
</svg>
