<?xml version="1.0" encoding="UTF-8" standalone="no"?>
<!DOCTYPE svg PUBLIC "-//W3C//DTD SVG 1.1//EN"
 "http://www.w3.org/Graphics/SVG/1.1/DTD/svg11.dtd">
<!-- Generated by graphviz version 2.38.0 (20140413.2041)
 -->
<!-- Title: okw.gui.adapter.selenium.SeAnyChildWindow.SetFocus Pages: 1 -->
<!--zoomable 302 -->
<svg id="main" version="1.1" xmlns="http://www.w3.org/2000/svg" xmlns:xlink="http://www.w3.org/1999/xlink" xml:space="preserve" onload="init(evt)">
<style type="text/css"><![CDATA[
.edge:hover path { stroke: red; }
.edge:hover polygon { stroke: red; fill: red; }
]]></style>
<script type="text/javascript"><![CDATA[
var edges = document.getElementsByTagName('g');
if (edges && edges.length) {
  for (var i=0;i<edges.length;i++) {
    if (edges[i].id.substr(0,4)=='edge') {
      edges[i].setAttribute('class','edge');
    }
  }
}
]]></script>
        <defs>
                <circle id="rim" cx="0" cy="0" r="7"/>
                <circle id="rim2" cx="0" cy="0" r="3.5"/>
                <g id="zoomPlus">
                        <use xlink:href="#rim" fill="#404040">
                                <set attributeName="fill" to="#808080" begin="zoomplus.mouseover" end="zoomplus.mouseout"/>
                        </use>
                        <path d="M-4,0h8M0,-4v8" fill="none" stroke="white" stroke-width="1.5" pointer-events="none"/>
                </g>
                <g id="zoomMin">
                        <use xlink:href="#rim" fill="#404040">
                                <set attributeName="fill" to="#808080" begin="zoomminus.mouseover" end="zoomminus.mouseout"/>
                        </use>
                        <path d="M-4,0h8" fill="none" stroke="white" stroke-width="1.5" pointer-events="none"/>
                </g>
                <g id="dirArrow">
                        <path fill="none" stroke="white" stroke-width="1.5" d="M0,-3.0v7 M-2.5,-0.5L0,-3.0L2.5,-0.5"/>
                </g>
               <g id="resetDef">
                       <use xlink:href="#rim2" fill="#404040">
                               <set attributeName="fill" to="#808080" begin="reset.mouseover" end="reset.mouseout"/>
                       </use>
               </g>
        </defs>

<script type="text/javascript">
var viewWidth = 1005;
var viewHeight = 302;
var sectionId = 'dynsection-40';
</script>
<script xlink:href="svgpan.js"/>
<svg id="graph" class="graph">
<g id="viewport">
<title>okw.gui.adapter.selenium.SeAnyChildWindow.SetFocus</title>
<polygon fill="white" stroke="none" points="-4,4 -4,-298 1001,-298 1001,4 -4,4"/>
<!-- Node515 -->
<g id="node1" class="node"><title>Node515</title>
<g id="a_node1"><a xlink:title="Setzt den Focus auf das Objekt.">
<polygon fill="#bfbfbf" stroke="black" points="0,-112.5 0,-142.5 152,-142.5 152,-112.5 0,-112.5"/>
<text text-anchor="start" x="8" y="-130.5" font-family="Helvetica,sans-Serif" font-size="10.00">okw.gui.adapter.selenium.</text>
<text text-anchor="middle" x="76" y="-119.5" font-family="Helvetica,sans-Serif" font-size="10.00">SeAnyChildWindow.SetFocus</text>
</a>
</g>
</g>
<!-- Node516 -->
<g id="node2" class="node"><title>Node516</title>
<g id="a_node2"><a xlink:href="classokw_1_1gui_1_1_any_win_base.html#abaab572bdbed7b471f659d5dd8c76853" target="_top" xlink:title="Diese Methode ruft die Methode Logger.Instance.LogFunctionStartDebug(fps_FunctionName),...">
<polygon fill="white" stroke="black" points="188,-186.5 188,-216.5 361,-216.5 361,-186.5 188,-186.5"/>
<text text-anchor="start" x="196" y="-204.5" font-family="Helvetica,sans-Serif" font-size="10.00">okw.gui.AnyWinBase.LogFunction</text>
<text text-anchor="middle" x="274.5" y="-193.5" font-family="Helvetica,sans-Serif" font-size="10.00">StartDebug</text>
</a>
</g>
</g>
<!-- Node515&#45;&gt;Node516 -->
<g id="edge1" class="edge"><title>Node515&#45;&gt;Node516</title>
<path fill="none" stroke="midnightblue" d="M108.128,-142.557C130.135,-152.874 160.496,-166.457 188,-176.5 194.442,-178.852 201.217,-181.14 208.018,-183.314"/>
<polygon fill="midnightblue" stroke="midnightblue" points="207.374,-186.779 217.963,-186.414 209.457,-180.097 207.374,-186.779"/>
</g>
<!-- Node517 -->
<g id="node3" class="node"><title>Node517</title>
<g id="a_node3"><a xlink:href="classokw_1_1gui_1_1adapter_1_1selenium_1_1_se_any_child_window.html#a72faf4aa1717b4178fae1b0570ca9b28" target="_top" xlink:title="Wartet auf das Objekt Wenn kein Fenster gefunden wird,.">
<polygon fill="white" stroke="black" points="196,-137.5 196,-167.5 353,-167.5 353,-137.5 196,-137.5"/>
<text text-anchor="start" x="204" y="-155.5" font-family="Helvetica,sans-Serif" font-size="10.00">okw.gui.adapter.selenium.</text>
<text text-anchor="middle" x="274.5" y="-144.5" font-family="Helvetica,sans-Serif" font-size="10.00">SeAnyChildWindow.WaitForMe</text>
</a>
</g>
</g>
<!-- Node515&#45;&gt;Node517 -->
<g id="edge2" class="edge"><title>Node515&#45;&gt;Node517</title>
<path fill="none" stroke="midnightblue" d="M152.129,-137.058C163.079,-138.452 174.435,-139.896 185.61,-141.318"/>
<polygon fill="midnightblue" stroke="midnightblue" points="185.443,-144.825 195.805,-142.615 186.327,-137.881 185.443,-144.825"/>
</g>
<!-- Node526 -->
<g id="node12" class="node"><title>Node526</title>
<g id="a_node12"><a xlink:href="classokw_1_1gui_1_1adapter_1_1selenium_1_1_se_any_child_window.html#a9a138af1fc6ff850d708d66f308a2525" target="_top" xlink:title="Ermittelt aus dem gegebenen Locator das DOM&#45;Elelement, welches das Objekt representiert.">
<polygon fill="white" stroke="black" points="204.5,-88.5 204.5,-118.5 344.5,-118.5 344.5,-88.5 204.5,-88.5"/>
<text text-anchor="start" x="212.5" y="-106.5" font-family="Helvetica,sans-Serif" font-size="10.00">okw.gui.adapter.selenium.</text>
<text text-anchor="middle" x="274.5" y="-95.5" font-family="Helvetica,sans-Serif" font-size="10.00">SeAnyChildWindow.Me</text>
</a>
</g>
</g>
<!-- Node515&#45;&gt;Node526 -->
<g id="edge11" class="edge"><title>Node515&#45;&gt;Node526</title>
<path fill="none" stroke="midnightblue" d="M152.129,-118.324C165.904,-116.641 180.322,-114.88 194.214,-113.184"/>
<polygon fill="midnightblue" stroke="midnightblue" points="194.718,-116.648 204.22,-111.962 193.87,-109.7 194.718,-116.648"/>
</g>
<!-- Node530 -->
<g id="node16" class="node"><title>Node530</title>
<g id="a_node16"><a xlink:href="classokw_1_1gui_1_1_any_win_base.html#a51cf50ace21902b3a5359316f53a7f3e" target="_top" xlink:title="Methode ruft die Methode Logger.Instance.LogFunctionEndDebug() auf.">
<polygon fill="white" stroke="black" points="188,-39.5 188,-69.5 361,-69.5 361,-39.5 188,-39.5"/>
<text text-anchor="start" x="196" y="-57.5" font-family="Helvetica,sans-Serif" font-size="10.00">okw.gui.AnyWinBase.LogFunction</text>
<text text-anchor="middle" x="274.5" y="-46.5" font-family="Helvetica,sans-Serif" font-size="10.00">EndDebug</text>
</a>
</g>
</g>
<!-- Node515&#45;&gt;Node530 -->
<g id="edge17" class="edge"><title>Node515&#45;&gt;Node530</title>
<path fill="none" stroke="midnightblue" d="M108.095,-112.35C130.086,-101.99 160.442,-88.3939 188,-78.5 193.809,-76.4145 199.892,-74.3944 206.021,-72.4703"/>
<polygon fill="midnightblue" stroke="midnightblue" points="207.114,-75.796 215.657,-69.5299 205.071,-69.1007 207.114,-75.796"/>
</g>
<!-- Node518 -->
<g id="node4" class="node"><title>Node518</title>
<g id="a_node4"><a xlink:href="classokw_1_1log_1_1_logger___sngltn.html#ab4fc711bb4c754f251372ff3b14ab9c9" target="_top" xlink:title="Creates a new hierarchical level in the results file.">
<polygon fill="white" stroke="black" points="419.5,-263.5 419.5,-293.5 562.5,-293.5 562.5,-263.5 419.5,-263.5"/>
<text text-anchor="start" x="427.5" y="-281.5" font-family="Helvetica,sans-Serif" font-size="10.00">okw.log.Logger_Sngltn.Res</text>
<text text-anchor="middle" x="491" y="-270.5" font-family="Helvetica,sans-Serif" font-size="10.00">OpenList</text>
</a>
</g>
</g>
<!-- Node517&#45;&gt;Node518 -->
<g id="edge3" class="edge"><title>Node517&#45;&gt;Node518</title>
<path fill="none" stroke="midnightblue" d="M347.858,-167.692C352.559,-170.195 357.003,-173.109 361,-176.5 389.807,-200.94 368.058,-229.22 397,-253.5 400.981,-256.84 405.365,-259.737 409.998,-262.25"/>
<polygon fill="midnightblue" stroke="midnightblue" points="408.636,-265.478 419.169,-266.624 411.65,-259.16 408.636,-265.478"/>
</g>
<!-- Node519 -->
<g id="node5" class="node"><title>Node519</title>
<g id="a_node5"><a xlink:href="classokw_1_1log_1_1_logger___sngltn.html#a8ebceaddd6cc6963ddb8e08c72ea808c" target="_top" xlink:title="LogPrint Function: Prints the values of expressions to the results file.">
<polygon fill="white" stroke="black" points="643.5,-134.5 643.5,-164.5 786.5,-164.5 786.5,-134.5 643.5,-134.5"/>
<text text-anchor="start" x="651.5" y="-152.5" font-family="Helvetica,sans-Serif" font-size="10.00">okw.log.Logger_Sngltn.Log</text>
<text text-anchor="middle" x="715" y="-141.5" font-family="Helvetica,sans-Serif" font-size="10.00">Print</text>
</a>
</g>
</g>
<!-- Node517&#45;&gt;Node519 -->
<g id="edge4" class="edge"><title>Node517&#45;&gt;Node519</title>
<path fill="none" stroke="midnightblue" d="M353.138,-151.969C431.928,-151.43 553.365,-150.599 633.255,-150.052"/>
<polygon fill="midnightblue" stroke="midnightblue" points="633.295,-153.552 643.271,-149.984 633.247,-146.552 633.295,-153.552"/>
</g>
<!-- Node520 -->
<g id="node6" class="node"><title>Node520</title>
<g id="a_node6"><a xlink:href="classokw_1_1gui_1_1_any_win_base.html#a9929f6fae1f4e2c20df79d32d5bc79db" target="_top" xlink:title="Holt den vollständig (rekursiv) aufgelösten (z.B.">
<polygon fill="white" stroke="black" points="407.5,-99 407.5,-118 574.5,-118 574.5,-99 407.5,-99"/>
<text text-anchor="middle" x="491" y="-106" font-family="Helvetica,sans-Serif" font-size="10.00">okw.gui.AnyWinBase.getLocator</text>
</a>
</g>
</g>
<!-- Node517&#45;&gt;Node520 -->
<g id="edge5" class="edge"><title>Node517&#45;&gt;Node520</title>
<path fill="none" stroke="midnightblue" d="M348.719,-137.481C376.469,-131.788 407.61,-125.401 433.579,-120.074"/>
<polygon fill="midnightblue" stroke="midnightblue" points="434.534,-123.451 443.627,-118.012 433.128,-116.593 434.534,-123.451"/>
</g>
<!-- Node522 -->
<g id="node8" class="node"><title>Node522</title>
<g id="a_node8"><a xlink:href="classokw_1_1log_1_1_logger___sngltn.html#a9b54104f7e0b4c0a473877b19dfaed56" target="_top" xlink:title="Closes a hierarchical level in the results file that was opened with ResOpenList.">
<polygon fill="white" stroke="black" points="419.5,-175.5 419.5,-205.5 562.5,-205.5 562.5,-175.5 419.5,-175.5"/>
<text text-anchor="start" x="427.5" y="-193.5" font-family="Helvetica,sans-Serif" font-size="10.00">okw.log.Logger_Sngltn.Res</text>
<text text-anchor="middle" x="491" y="-182.5" font-family="Helvetica,sans-Serif" font-size="10.00">CloseList</text>
</a>
</g>
</g>
<!-- Node517&#45;&gt;Node522 -->
<g id="edge7" class="edge"><title>Node517&#45;&gt;Node522</title>
<path fill="none" stroke="midnightblue" d="M353.243,-166.273C371.452,-169.498 390.891,-172.942 409.229,-176.191"/>
<polygon fill="midnightblue" stroke="midnightblue" points="408.831,-179.675 419.289,-177.973 410.053,-172.782 408.831,-179.675"/>
</g>
<!-- Node523 -->
<g id="node9" class="node"><title>Node523</title>
<g id="a_node9"><a xlink:href="classokw_1_1_log_messenger.html#af225d1f037d47b3b085175c09d78bdd2" target="_top" xlink:title="Holt die Log&#45;Meldung für MethodeNmae/Textkey ohne weitere Parameter.">
<polygon fill="white" stroke="black" points="406.5,-225 406.5,-244 575.5,-244 575.5,-225 406.5,-225"/>
<text text-anchor="middle" x="491" y="-232" font-family="Helvetica,sans-Serif" font-size="10.00">okw.LogMessenger.GetMessage</text>
</a>
</g>
</g>
<!-- Node517&#45;&gt;Node523 -->
<g id="edge8" class="edge"><title>Node517&#45;&gt;Node523</title>
<path fill="none" stroke="midnightblue" d="M342.786,-167.581C349.143,-170.122 355.324,-173.074 361,-176.5 380.918,-188.522 376.72,-203.1 397,-214.5 401.859,-217.231 407.053,-219.59 412.409,-221.627"/>
<polygon fill="midnightblue" stroke="midnightblue" points="411.594,-225.047 422.189,-224.957 413.851,-218.421 411.594,-225.047"/>
</g>
<!-- Node521 -->
<g id="node7" class="node"><title>Node521</title>
<g id="a_node7"><a xlink:href="classokw_1_1gui_1_1_o_k_w_locator.html#adc74fc2125dd048dc1cb84e011f47ec8" target="_top" xlink:title="Holt den vollständig (rekursiv) aufgelösten (z.B.">
<polygon fill="white" stroke="black" points="632,-96 632,-115 798,-115 798,-96 632,-96"/>
<text text-anchor="middle" x="715" y="-103" font-family="Helvetica,sans-Serif" font-size="10.00">okw.gui.OKWLocator.getLocator</text>
</a>
</g>
</g>
<!-- Node520&#45;&gt;Node521 -->
<g id="edge6" class="edge"><title>Node520&#45;&gt;Node521</title>
<path fill="none" stroke="midnightblue" d="M574.665,-107.383C589.935,-107.177 605.971,-106.96 621.51,-106.75"/>
<polygon fill="midnightblue" stroke="midnightblue" points="621.684,-110.248 631.636,-106.613 621.59,-103.249 621.684,-110.248"/>
</g>
<!-- Node524 -->
<g id="node10" class="node"><title>Node524</title>
<g id="a_node10"><a xlink:href="classokw_1_1_log_messenger.html#a530cd6ab82ec82a04206a2e976ec06e3" target="_top" xlink:title="Interne Kernfunktion holt die Log&#45;Meldung mit Platzhaltern aus der XML&#45;Datei.">
<polygon fill="white" stroke="black" points="627.5,-225 627.5,-244 802.5,-244 802.5,-225 627.5,-225"/>
<text text-anchor="middle" x="715" y="-232" font-family="Helvetica,sans-Serif" font-size="10.00">okw.LogMessenger.ReadMessage</text>
</a>
</g>
</g>
<!-- Node523&#45;&gt;Node524 -->
<g id="edge9" class="edge"><title>Node523&#45;&gt;Node524</title>
<path fill="none" stroke="midnightblue" d="M575.612,-234.5C589.162,-234.5 603.293,-234.5 617.126,-234.5"/>
<polygon fill="midnightblue" stroke="midnightblue" points="617.134,-238 627.134,-234.5 617.134,-231 617.134,-238"/>
</g>
<!-- Node525 -->
<g id="node11" class="node"><title>Node525</title>
<g id="a_node11"><a xlink:href="classokw_1_1_o_k_w___xml_reader.html#ab920b5335a2e1429c14cc5f8e79f39eb" target="_top" xlink:title="Lies den TextContent eines Tag.">
<polygon fill="white" stroke="black" points="845,-219.5 845,-249.5 997,-249.5 997,-219.5 845,-219.5"/>
<text text-anchor="start" x="853" y="-237.5" font-family="Helvetica,sans-Serif" font-size="10.00">okw.OKW_XmlReader.getText</text>
<text text-anchor="middle" x="921" y="-226.5" font-family="Helvetica,sans-Serif" font-size="10.00">ContentSingleValue</text>
</a>
</g>
</g>
<!-- Node524&#45;&gt;Node525 -->
<g id="edge10" class="edge"><title>Node524&#45;&gt;Node525</title>
<path fill="none" stroke="midnightblue" d="M802.514,-234.5C813.213,-234.5 824.144,-234.5 834.821,-234.5"/>
<polygon fill="midnightblue" stroke="midnightblue" points="834.966,-238 844.966,-234.5 834.966,-231 834.966,-238"/>
</g>
<!-- Node526&#45;&gt;Node520 -->
<g id="edge16" class="edge"><title>Node526&#45;&gt;Node520</title>
<path fill="none" stroke="midnightblue" d="M344.55,-105.11C361.237,-105.499 379.344,-105.921 396.933,-106.331"/>
<polygon fill="midnightblue" stroke="midnightblue" points="397.136,-109.836 407.215,-106.57 397.299,-102.838 397.136,-109.836"/>
</g>
<!-- Node527 -->
<g id="node13" class="node"><title>Node527</title>
<g id="a_node13"><a xlink:href="classokw_1_1gui_1_1adapter_1_1selenium_1_1webdriver_1_1_se_driver.html#aee9e3f8a67f4ad1f8100a33ba71c926e" target="_top" xlink:title="Gibt die Instance für die einzige Instanz dieser Klasse zurück.">
<polygon fill="white" stroke="black" points="397,-0.5 397,-30.5 585,-30.5 585,-0.5 397,-0.5"/>
<text text-anchor="start" x="405" y="-18.5" font-family="Helvetica,sans-Serif" font-size="10.00">okw.gui.adapter.selenium.webdriver.</text>
<text text-anchor="middle" x="491" y="-7.5" font-family="Helvetica,sans-Serif" font-size="10.00">SeDriver.getInstance</text>
</a>
</g>
</g>
<!-- Node526&#45;&gt;Node527 -->
<g id="edge12" class="edge"><title>Node526&#45;&gt;Node527</title>
<path fill="none" stroke="midnightblue" d="M341.059,-88.3763C348.031,-85.5959 354.822,-82.3297 361,-78.5 381.049,-66.0715 376.755,-51.6071 397,-39.5 399.862,-37.7883 402.845,-36.1976 405.912,-34.7194"/>
<polygon fill="midnightblue" stroke="midnightblue" points="407.56,-37.819 415.328,-30.6139 404.762,-31.4023 407.56,-37.819"/>
</g>
<!-- Node528 -->
<g id="node14" class="node"><title>Node528</title>
<g id="a_node14"><a xlink:href="classokw_1_1gui_1_1adapter_1_1selenium_1_1webdriver_1_1_se_driver.html#a6d879107786a94ebbdbd42b4ac6c6acf" target="_top" xlink:title="Ermittelt das Webelement mit der gegebenen frameID und dem gegebenen Locator.">
<polygon fill="white" stroke="black" points="397,-49.5 397,-79.5 585,-79.5 585,-49.5 397,-49.5"/>
<text text-anchor="start" x="405" y="-67.5" font-family="Helvetica,sans-Serif" font-size="10.00">okw.gui.adapter.selenium.webdriver.</text>
<text text-anchor="middle" x="491" y="-56.5" font-family="Helvetica,sans-Serif" font-size="10.00">SeDriver.getElement</text>
</a>
</g>
</g>
<!-- Node526&#45;&gt;Node528 -->
<g id="edge13" class="edge"><title>Node526&#45;&gt;Node528</title>
<path fill="none" stroke="midnightblue" d="M344.55,-90.9455C361.237,-87.9114 379.344,-84.6192 396.933,-81.4212"/>
<polygon fill="midnightblue" stroke="midnightblue" points="398.002,-84.7843 407.215,-79.5518 396.75,-77.8972 398.002,-84.7843"/>
</g>
<!-- Node528&#45;&gt;Node519 -->
<g id="edge15" class="edge"><title>Node528&#45;&gt;Node519</title>
<path fill="none" stroke="midnightblue" d="M563.088,-79.5157C570.711,-82.3159 578.169,-85.6163 585,-89.5 604.399,-100.529 601.601,-113.471 621,-124.5 625.142,-126.855 629.515,-128.996 634.015,-130.94"/>
<polygon fill="midnightblue" stroke="midnightblue" points="632.813,-134.229 643.399,-134.662 635.394,-127.722 632.813,-134.229"/>
</g>
<!-- Node529 -->
<g id="node15" class="node"><title>Node529</title>
<g id="a_node15"><a xlink:href="classokw_1_1gui_1_1adapter_1_1selenium_1_1webdriver_1_1_se_driver.html#a47eec72c911c05beb2127672daafb325" target="_top" xlink:title="Wechselt das aktuelle Frame auf das Frame mit der id=iframeID.">
<polygon fill="white" stroke="black" points="621,-46.5 621,-76.5 809,-76.5 809,-46.5 621,-46.5"/>
<text text-anchor="start" x="629" y="-64.5" font-family="Helvetica,sans-Serif" font-size="10.00">okw.gui.adapter.selenium.webdriver.</text>
<text text-anchor="middle" x="715" y="-53.5" font-family="Helvetica,sans-Serif" font-size="10.00">SeDriver.swichToFrame</text>
</a>
</g>
</g>
<!-- Node528&#45;&gt;Node529 -->
<g id="edge14" class="edge"><title>Node528&#45;&gt;Node529</title>
<path fill="none" stroke="midnightblue" d="M585.183,-63.2408C593.535,-63.1279 602.024,-63.0132 610.456,-62.8992"/>
<polygon fill="midnightblue" stroke="midnightblue" points="610.748,-66.3957 620.7,-62.7608 610.653,-59.3964 610.748,-66.3957"/>
</g>
</g>
</svg>
        <g id="navigator" transform="translate(0 0)" fill="#404254">
                <rect fill="#f2f5e9" fill-opacity="0.5" stroke="#606060" stroke-width=".5" x="0" y="0" width="60" height="60"/>
                <use id="zoomplus" xlink:href="#zoomPlus" x="17" y="9" onmousedown="handleZoom(evt,'in')"/>
                <use id="zoomminus" xlink:href="#zoomMin" x="42" y="9" onmousedown="handleZoom(evt,'out')"/>
                <use id="reset" xlink:href="#resetDef" x="30" y="36" onmousedown="handleReset()"/>
                <g id="arrowUp" xlink:href="#dirArrow" transform="translate(30 24)" onmousedown="handlePan(0,-1)">
                  <use xlink:href="#rim" fill="#404040">
                        <set attributeName="fill" to="#808080" begin="arrowUp.mouseover" end="arrowUp.mouseout"/>
                  </use>
                  <path fill="none" stroke="white" stroke-width="1.5" d="M0,-3.0v7 M-2.5,-0.5L0,-3.0L2.5,-0.5"/>
                </g>
                <g id="arrowRight" xlink:href="#dirArrow" transform="rotate(90) translate(36 -43)" onmousedown="handlePan(1,0)">
                  <use xlink:href="#rim" fill="#404040">
                        <set attributeName="fill" to="#808080" begin="arrowRight.mouseover" end="arrowRight.mouseout"/>
                  </use>
                  <path fill="none" stroke="white" stroke-width="1.5" d="M0,-3.0v7 M-2.5,-0.5L0,-3.0L2.5,-0.5"/>
                </g>
                <g id="arrowDown" xlink:href="#dirArrow" transform="rotate(180) translate(-30 -48)" onmousedown="handlePan(0,1)">
                  <use xlink:href="#rim" fill="#404040">
                        <set attributeName="fill" to="#808080" begin="arrowDown.mouseover" end="arrowDown.mouseout"/>
                  </use>
                  <path fill="none" stroke="white" stroke-width="1.5" d="M0,-3.0v7 M-2.5,-0.5L0,-3.0L2.5,-0.5"/>
                </g>
                <g id="arrowLeft" xlink:href="#dirArrow" transform="rotate(270) translate(-36 17)" onmousedown="handlePan(-1,0)">
                  <use xlink:href="#rim" fill="#404040">
                        <set attributeName="fill" to="#808080" begin="arrowLeft.mouseover" end="arrowLeft.mouseout"/>
                  </use>
                  <path fill="none" stroke="white" stroke-width="1.5" d="M0,-3.0v7 M-2.5,-0.5L0,-3.0L2.5,-0.5"/>
                </g>
        </g>
        <svg viewBox="0 0 15 15" width="100%" height="30px" preserveAspectRatio="xMaxYMin meet">
         <g id="arrow_out" transform="scale(0.3 0.3)">
          <a xlink:href="classokw_1_1gui_1_1adapter_1_1selenium_1_1_se_any_child_window_a0b446a5c7e2e308a3e03450f5a31e510_cgraph_org.svg" target="_base">
           <rect id="button" ry="5" rx="5" y="6" x="6" height="38" width="38"
                fill="#f2f5e9" fill-opacity="0.5" stroke="#606060" stroke-width="1.0"/>
           <path id="arrow"
             d="M 11.500037,31.436501 C 11.940474,20.09759 22.043105,11.32322 32.158766,21.979434 L 37.068811,17.246167 C 37.068811,17.246167 37.088388,32 37.088388,32 L 22.160133,31.978069 C 22.160133,31.978069 26.997745,27.140456 26.997745,27.140456 C 18.528582,18.264221 13.291696,25.230495 11.500037,31.436501 z"
             style="fill:#404040;"/>
          </a>
         </g>
        </svg>
</svg>
