<?xml version="1.0" encoding="UTF-8" standalone="no"?>
<!DOCTYPE svg PUBLIC "-//W3C//DTD SVG 1.1//EN"
 "http://www.w3.org/Graphics/SVG/1.1/DTD/svg11.dtd">
<!-- Generated by graphviz version 2.26.3 (20100126.1600)
 -->
<!-- Title: okw.core.EN.VerifyLabel Pages: 1 -->
<!--zoomable 174 -->
<svg id="main" version="1.1" xmlns="http://www.w3.org/2000/svg" xmlns:xlink="http://www.w3.org/1999/xlink" xml:space="preserve" onload="init(evt)">
<style type="text/css"><![CDATA[
.edge:hover path { stroke: red; }
.edge:hover polygon { stroke: red; fill: red; }
]]></style>
<script type="text/javascript"><![CDATA[
var edges = document.getElementsByTagName('g');
if (edges && edges.length) {
  for (var i=0;i<edges.length;i++) {
    if (edges[i].id.substr(0,4)=='edge') {
      edges[i].setAttribute('class','edge');
    }
  }
}
]]></script>
        <defs>
                <circle id="rim" cx="0" cy="0" r="7"/>
                <circle id="rim2" cx="0" cy="0" r="3.5"/>
                <g id="zoomPlus">
                        <use xlink:href="#rim" fill="#404040">
                                <set attributeName="fill" to="#808080" begin="zoomplus.mouseover" end="zoomplus.mouseout"/>
                        </use>
                        <path d="M-4,0h8M0,-4v8" fill="none" stroke="white" stroke-width="1.5" pointer-events="none"/>
                </g>
                <g id="zoomMin">
                        <use xlink:href="#rim" fill="#404040">
                                <set attributeName="fill" to="#808080" begin="zoomminus.mouseover" end="zoomminus.mouseout"/>
                        </use>
                        <path d="M-4,0h8" fill="none" stroke="white" stroke-width="1.5" pointer-events="none"/>
                </g>
                <g id="dirArrow">
                        <path fill="none" stroke="white" stroke-width="1.5" d="M0,-3.0v7 M-2.5,-0.5L0,-3.0L2.5,-0.5"/>
                </g>
               <g id="resetDef">
                       <use xlink:href="#rim2" fill="#404040">
                               <set attributeName="fill" to="#808080" begin="reset.mouseover" end="reset.mouseout"/>
                       </use>
               </g>
        </defs>

<script type="text/javascript">
var viewWidth = 912;
var viewHeight = 174;
var sectionId = 'dynsection-74';
</script>
<script xlink:href="svgpan.js"/>
<svg id="graph" class="graph">
<g id="viewport">
<title>okw.core.EN.VerifyLabel</title>
<polygon fill="white" stroke="white" points="-4,5 -4,-170 909,-170 909,5 -4,5"/>
<!-- Node2385 -->
<g id="node1" class="node"><title>Node2385</title>
<polygon fill="#bfbfbf" stroke="black" points="0.5,-98.5 0.5,-119.5 125.5,-119.5 125.5,-98.5 0.5,-98.5"/>
<text text-anchor="middle" x="63" y="-106.5" font-family="Helvetica,sans-Serif" font-size="10.00">okw.core.EN.VerifyLabel</text>
</g>
<!-- Node2386 -->
<g id="node3" class="node"><title>Node2386</title>
<a xlink:href="classokw_1_1core_1_1_core.html#ab4e0f723d27cb11c944ec4c82c426100" target="_top" xlink:title="Setzt die Sprache auf den gegebenen wert Language. ">
<polygon fill="white" stroke="black" points="162.5,-131.5 162.5,-152.5 301.5,-152.5 301.5,-131.5 162.5,-131.5"/>
<text text-anchor="middle" x="232" y="-139.5" font-family="Helvetica,sans-Serif" font-size="10.00">okw.core.Core.setLanguage</text>
</a>
</g>
<!-- Node2385&#45;&gt;Node2386 -->
<g id="edge2" class="edge"><title>Node2385&#45;&gt;Node2386</title>
<path fill="none" stroke="midnightblue" d="M116.937,-119.532C133.097,-122.688 150.979,-126.179 167.734,-129.451"/>
<polygon fill="midnightblue" stroke="midnightblue" points="167.51,-132.973 177.995,-131.455 168.852,-126.103 167.51,-132.973"/>
</g>
<!-- Node2388 -->
<g id="node7" class="node"><title>Node2388</title>
<a xlink:href="classokw_1_1core_1_1_core.html#a278a288682afcbfad17e90df17e3c53d" target="_top" xlink:title="Überprüft die Beschreibung des Objektes. ">
<polygon fill="white" stroke="black" points="166,-65.5 166,-86.5 298,-86.5 298,-65.5 166,-65.5"/>
<text text-anchor="middle" x="232" y="-73.5" font-family="Helvetica,sans-Serif" font-size="10.00">okw.core.Core.VerifyLabel</text>
</a>
</g>
<!-- Node2385&#45;&gt;Node2388 -->
<g id="edge6" class="edge"><title>Node2385&#45;&gt;Node2388</title>
<path fill="none" stroke="midnightblue" d="M116.937,-98.4679C133.097,-95.3125 150.979,-91.8206 167.734,-88.5489"/>
<polygon fill="midnightblue" stroke="midnightblue" points="168.852,-91.8969 177.995,-86.5453 167.51,-85.0267 168.852,-91.8969"/>
</g>
<!-- Node2387 -->
<g id="node5" class="node"><title>Node2387</title>
<a xlink:href="interfaceokw_1_1core_1_1_i_o_k_w___state.html#a866baa0bde08a47418f54d63bdb56097" target="_top" xlink:title="Interne Methode zum setzen der Sprache für die sprachabhängigen Ausgaben der Dokumentation (Log)...">
<polygon fill="white" stroke="black" points="338.5,-144.5 338.5,-165.5 511.5,-165.5 511.5,-144.5 338.5,-144.5"/>
<text text-anchor="middle" x="425" y="-152.5" font-family="Helvetica,sans-Serif" font-size="10.00">okw.core.IOKW_State.setLanguage</text>
</a>
</g>
<!-- Node2386&#45;&gt;Node2387 -->
<g id="edge4" class="edge"><title>Node2386&#45;&gt;Node2387</title>
<path fill="none" stroke="midnightblue" d="M301.677,-146.693C310.307,-147.275 319.247,-147.877 328.191,-148.479"/>
<polygon fill="midnightblue" stroke="midnightblue" points="328.061,-151.978 338.274,-149.158 328.532,-144.994 328.061,-151.978"/>
</g>
<!-- Node2389 -->
<g id="node9" class="node"><title>Node2389</title>
<a xlink:href="classokw_1_1log_1_1_logger___sngltn.html#a70ec25e200e00ecefc544e8fd371d2ef" target="_top" xlink:title="Ausgabe eines Schlüsselwortes. ">
<polygon fill="white" stroke="black" points="358,-92 358,-126 492,-126 492,-92 358,-92"/>
<text text-anchor="start" x="366" y="-113" font-family="Helvetica,sans-Serif" font-size="10.00">okw.log.Logger_Sngltn.Log</text>
<text text-anchor="middle" x="425" y="-100" font-family="Helvetica,sans-Serif" font-size="10.00">KeyWordStart</text>
</a>
</g>
<!-- Node2388&#45;&gt;Node2389 -->
<g id="edge8" class="edge"><title>Node2388&#45;&gt;Node2389</title>
<path fill="none" stroke="midnightblue" d="M293.597,-86.5321C310.91,-89.4924 329.955,-92.7488 348.044,-95.8418"/>
<polygon fill="midnightblue" stroke="midnightblue" points="347.531,-99.3048 357.978,-97.5403 348.711,-92.4049 347.531,-99.3048"/>
</g>
<!-- Node2390 -->
<g id="node11" class="node"><title>Node2390</title>
<a xlink:href="classokw_1_1_log_messenger.html#af225d1f037d47b3b085175c09d78bdd2" target="_top" xlink:title="Holt die Log&#45;Meldung für MethodeNmae/Textkey ohne weitere Parameter. ">
<polygon fill="white" stroke="black" points="345,-52.5 345,-73.5 505,-73.5 505,-52.5 345,-52.5"/>
<text text-anchor="middle" x="425" y="-60.5" font-family="Helvetica,sans-Serif" font-size="10.00">okw.LogMessenger.GetMessage</text>
</a>
</g>
<!-- Node2388&#45;&gt;Node2390 -->
<g id="edge10" class="edge"><title>Node2388&#45;&gt;Node2390</title>
<path fill="none" stroke="midnightblue" d="M298.15,-71.5443C309.914,-70.7519 322.349,-69.9143 334.65,-69.0858"/>
<polygon fill="midnightblue" stroke="midnightblue" points="335.191,-72.5573 344.933,-68.3931 334.72,-65.5732 335.191,-72.5573"/>
</g>
<!-- Node2393 -->
<g id="node17" class="node"><title>Node2393</title>
<a xlink:href="interfaceokw_1_1core_1_1_i_o_k_w___state.html#a39449615efcf006fddf5389238470efc" target="_top" xlink:title="Überprüft die Beschreibung des Objektes. ">
<polygon fill="white" stroke="black" points="353.5,-0 353.5,-34 496.5,-34 496.5,-0 353.5,-0"/>
<text text-anchor="start" x="361.5" y="-21" font-family="Helvetica,sans-Serif" font-size="10.00">okw.core.IOKW_State.Verify</text>
<text text-anchor="middle" x="425" y="-8" font-family="Helvetica,sans-Serif" font-size="10.00">Label</text>
</a>
</g>
<!-- Node2388&#45;&gt;Node2393 -->
<g id="edge16" class="edge"><title>Node2388&#45;&gt;Node2393</title>
<path fill="none" stroke="midnightblue" d="M265.388,-65.4985C286.244,-58.9655 313.666,-50.4238 338,-43 344.382,-41.0529 351.033,-39.0389 357.688,-37.0333"/>
<polygon fill="midnightblue" stroke="midnightblue" points="358.842,-40.341 367.411,-34.1097 356.827,-33.6375 358.842,-40.341"/>
</g>
<!-- Node2391 -->
<g id="node13" class="node"><title>Node2391</title>
<a xlink:href="classokw_1_1_log_messenger.html#a530cd6ab82ec82a04206a2e976ec06e3" target="_top" xlink:title="Interne Kernfunktion holt die Log&#45;Meldung mit Platzhaltern aus der XML&#45;Datei. ">
<polygon fill="white" stroke="black" points="548.5,-52.5 548.5,-73.5 715.5,-73.5 715.5,-52.5 548.5,-52.5"/>
<text text-anchor="middle" x="632" y="-60.5" font-family="Helvetica,sans-Serif" font-size="10.00">okw.LogMessenger.ReadMessage</text>
</a>
</g>
<!-- Node2390&#45;&gt;Node2391 -->
<g id="edge12" class="edge"><title>Node2390&#45;&gt;Node2391</title>
<path fill="none" stroke="midnightblue" d="M505.032,-63C515.92,-63 527.173,-63 538.276,-63"/>
<polygon fill="midnightblue" stroke="midnightblue" points="538.415,-66.5001 548.415,-63 538.415,-59.5001 538.415,-66.5001"/>
</g>
<!-- Node2392 -->
<g id="node15" class="node"><title>Node2392</title>
<a xlink:href="classokw_1_1_o_k_w___xml_reader.html#ab920b5335a2e1429c14cc5f8e79f39eb" target="_top" xlink:title="Lies den TextContent eines Tag. ">
<polygon fill="white" stroke="black" points="752,-46 752,-80 904,-80 904,-46 752,-46"/>
<text text-anchor="start" x="760" y="-67" font-family="Helvetica,sans-Serif" font-size="10.00">okw.OKW_XmlReader.getText</text>
<text text-anchor="middle" x="828" y="-54" font-family="Helvetica,sans-Serif" font-size="10.00">ContentSingleValue</text>
</a>
</g>
<!-- Node2391&#45;&gt;Node2392 -->
<g id="edge14" class="edge"><title>Node2391&#45;&gt;Node2392</title>
<path fill="none" stroke="midnightblue" d="M715.69,-63C724.29,-63 733.041,-63 741.669,-63"/>
<polygon fill="midnightblue" stroke="midnightblue" points="741.725,-66.5001 751.725,-63 741.725,-59.5001 741.725,-66.5001"/>
</g>
</g>
</svg>
        <g id="navigator" transform="translate(0 0)" fill="#404254">
                <rect fill="#f2f5e9" fill-opacity="0.5" stroke="#606060" stroke-width=".5" x="0" y="0" width="60" height="60"/>
                <use id="zoomplus" xlink:href="#zoomPlus" x="17" y="9" onmousedown="handleZoom(evt,'in')"/>
                <use id="zoomminus" xlink:href="#zoomMin" x="42" y="9" onmousedown="handleZoom(evt,'out')"/>
                <use id="reset" xlink:href="#resetDef" x="30" y="36" onmousedown="handleReset()"/>
                <g id="arrowUp" xlink:href="#dirArrow" transform="translate(30 24)" onmousedown="handlePan(0,-1)">
                  <use xlink:href="#rim" fill="#404040">
                        <set attributeName="fill" to="#808080" begin="arrowUp.mouseover" end="arrowUp.mouseout"/>
                  </use>
                  <path fill="none" stroke="white" stroke-width="1.5" d="M0,-3.0v7 M-2.5,-0.5L0,-3.0L2.5,-0.5"/>
                </g>
                <g id="arrowRight" xlink:href="#dirArrow" transform="rotate(90) translate(36 -43)" onmousedown="handlePan(1,0)">
                  <use xlink:href="#rim" fill="#404040">
                        <set attributeName="fill" to="#808080" begin="arrowRight.mouseover" end="arrowRight.mouseout"/>
                  </use>
                  <path fill="none" stroke="white" stroke-width="1.5" d="M0,-3.0v7 M-2.5,-0.5L0,-3.0L2.5,-0.5"/>
                </g>
                <g id="arrowDown" xlink:href="#dirArrow" transform="rotate(180) translate(-30 -48)" onmousedown="handlePan(0,1)">
                  <use xlink:href="#rim" fill="#404040">
                        <set attributeName="fill" to="#808080" begin="arrowDown.mouseover" end="arrowDown.mouseout"/>
                  </use>
                  <path fill="none" stroke="white" stroke-width="1.5" d="M0,-3.0v7 M-2.5,-0.5L0,-3.0L2.5,-0.5"/>
                </g>
                <g id="arrowLeft" xlink:href="#dirArrow" transform="rotate(270) translate(-36 17)" onmousedown="handlePan(-1,0)">
                  <use xlink:href="#rim" fill="#404040">
                        <set attributeName="fill" to="#808080" begin="arrowLeft.mouseover" end="arrowLeft.mouseout"/>
                  </use>
                  <path fill="none" stroke="white" stroke-width="1.5" d="M0,-3.0v7 M-2.5,-0.5L0,-3.0L2.5,-0.5"/>
                </g>
        </g>
        <svg viewBox="0 0 15 15" width="100%" height="30px" preserveAspectRatio="xMaxYMin meet">
         <g id="arrow_out" transform="scale(0.3 0.3)">
          <a xlink:href="classokw_1_1core_1_1_e_n_a81fa4af81b53e8e8fc2274e3767b9dce_cgraph_org.svg" target="_base">
           <rect id="button" ry="5" rx="5" y="6" x="6" height="38" width="38"
                fill="#f2f5e9" fill-opacity="0.5" stroke="#606060" stroke-width="1.0"/>
           <path id="arrow"
             d="M 11.500037,31.436501 C 11.940474,20.09759 22.043105,11.32322 32.158766,21.979434 L 37.068811,17.246167 C 37.068811,17.246167 37.088388,32 37.088388,32 L 22.160133,31.978069 C 22.160133,31.978069 26.997745,27.140456 26.997745,27.140456 C 18.528582,18.264221 13.291696,25.230495 11.500037,31.436501 z"
             style="fill:#404040;"/>
          </a>
         </g>
        </svg>
</svg>
