<?xml version="1.0" encoding="UTF-8" standalone="no"?>
<!DOCTYPE svg PUBLIC "-//W3C//DTD SVG 1.1//EN"
 "http://www.w3.org/Graphics/SVG/1.1/DTD/svg11.dtd">
<!-- Generated by graphviz version 2.26.3 (20100126.1600)
 -->
<!-- Title: okw.core.Core.SelectWindow Pages: 1 -->
<svg width="742pt" height="134pt"
 viewBox="0.00 0.00 742.00 134.00" xmlns="http://www.w3.org/2000/svg" xmlns:xlink="http://www.w3.org/1999/xlink">
<g id="graph1" class="graph" transform="scale(1 1) rotate(0) translate(4 130)">
<title>okw.core.Core.SelectWindow</title>
<polygon fill="white" stroke="white" points="-4,5 -4,-130 739,-130 739,5 -4,5"/>
<!-- Node222 -->
<g id="node1" class="node"><title>Node222</title>
<polygon fill="#bfbfbf" stroke="black" points="0,-52.5 0,-73.5 146,-73.5 146,-52.5 0,-52.5"/>
<text text-anchor="middle" x="73" y="-60.5" font-family="Helvetica,sans-Serif" font-size="10.00">okw.core.Core.SelectWindow</text>
</g>
<!-- Node223 -->
<g id="node3" class="node"><title>Node223</title>
<a xlink:href="classokw_1_1log_1_1_logger___sngltn.html#a70ec25e200e00ecefc544e8fd371d2ef" target="_top" xlink:title="Ausgabe eines Schlüsselwortes. ">
<polygon fill="white" stroke="black" points="195,-92 195,-126 329,-126 329,-92 195,-92"/>
<text text-anchor="start" x="203" y="-113" font-family="Helvetica,sans-Serif" font-size="10.00">okw.log.Logger_Sngltn.Log</text>
<text text-anchor="middle" x="262" y="-100" font-family="Helvetica,sans-Serif" font-size="10.00">KeyWordStart</text>
</a>
</g>
<!-- Node222&#45;&gt;Node223 -->
<g id="edge2" class="edge"><title>Node222&#45;&gt;Node223</title>
<path fill="none" stroke="midnightblue" d="M116.36,-73.5533C136.672,-78.4969 161.494,-84.5383 184.852,-90.2233"/>
<polygon fill="midnightblue" stroke="midnightblue" points="184.211,-93.6694 194.755,-92.6336 185.867,-86.868 184.211,-93.6694"/>
</g>
<!-- Node224 -->
<g id="node5" class="node"><title>Node224</title>
<a xlink:href="classokw_1_1_log_messenger.html#af225d1f037d47b3b085175c09d78bdd2" target="_top" xlink:title="Holt die Log&#45;Meldung für MethodeNmae/Textkey ohne weitere Parameter. ">
<polygon fill="white" stroke="black" points="182,-52.5 182,-73.5 342,-73.5 342,-52.5 182,-52.5"/>
<text text-anchor="middle" x="262" y="-60.5" font-family="Helvetica,sans-Serif" font-size="10.00">okw.LogMessenger.GetMessage</text>
</a>
</g>
<!-- Node222&#45;&gt;Node224 -->
<g id="edge4" class="edge"><title>Node222&#45;&gt;Node224</title>
<path fill="none" stroke="midnightblue" d="M146.072,-63C154.509,-63 163.186,-63 171.815,-63"/>
<polygon fill="midnightblue" stroke="midnightblue" points="171.906,-66.5001 181.906,-63 171.906,-59.5001 171.906,-66.5001"/>
</g>
<!-- Node227 -->
<g id="node11" class="node"><title>Node227</title>
<a xlink:href="interfaceokw_1_1core_1_1_i_o_k_w___state.html#ad4fc9610ed5b1176590a45b55e6ac7f0" target="_top" xlink:title="Setzt den Kontext auf das gegebene Fenster. ">
<polygon fill="white" stroke="black" points="189,-0 189,-34 335,-34 335,-0 189,-0"/>
<text text-anchor="start" x="197" y="-21" font-family="Helvetica,sans-Serif" font-size="10.00">okw.core.IOKW_State.Select</text>
<text text-anchor="middle" x="262" y="-8" font-family="Helvetica,sans-Serif" font-size="10.00">Window</text>
</a>
</g>
<!-- Node222&#45;&gt;Node227 -->
<g id="edge10" class="edge"><title>Node222&#45;&gt;Node227</title>
<path fill="none" stroke="midnightblue" d="M116.36,-52.4467C135.822,-47.71 159.424,-41.9655 181.912,-36.4923"/>
<polygon fill="midnightblue" stroke="midnightblue" points="182.916,-39.8502 191.805,-34.0845 181.261,-33.0487 182.916,-39.8502"/>
</g>
<!-- Node225 -->
<g id="node7" class="node"><title>Node225</title>
<a xlink:href="classokw_1_1_log_messenger.html#a530cd6ab82ec82a04206a2e976ec06e3" target="_top" xlink:title="Interne Kernfunktion holt die Log&#45;Meldung mit Platzhaltern aus der XML&#45;Datei. ">
<polygon fill="white" stroke="black" points="378.5,-52.5 378.5,-73.5 545.5,-73.5 545.5,-52.5 378.5,-52.5"/>
<text text-anchor="middle" x="462" y="-60.5" font-family="Helvetica,sans-Serif" font-size="10.00">okw.LogMessenger.ReadMessage</text>
</a>
</g>
<!-- Node224&#45;&gt;Node225 -->
<g id="edge6" class="edge"><title>Node224&#45;&gt;Node225</title>
<path fill="none" stroke="midnightblue" d="M342.195,-63C350.709,-63 359.423,-63 368.075,-63"/>
<polygon fill="midnightblue" stroke="midnightblue" points="368.189,-66.5001 378.189,-63 368.189,-59.5001 368.189,-66.5001"/>
</g>
<!-- Node226 -->
<g id="node9" class="node"><title>Node226</title>
<a xlink:href="classokw_1_1_o_k_w___xml_reader.html#ab920b5335a2e1429c14cc5f8e79f39eb" target="_top" xlink:title="Lies den TextContent eines Tag. ">
<polygon fill="white" stroke="black" points="582,-46 582,-80 734,-80 734,-46 582,-46"/>
<text text-anchor="start" x="590" y="-67" font-family="Helvetica,sans-Serif" font-size="10.00">okw.OKW_XmlReader.getText</text>
<text text-anchor="middle" x="658" y="-54" font-family="Helvetica,sans-Serif" font-size="10.00">ContentSingleValue</text>
</a>
</g>
<!-- Node225&#45;&gt;Node226 -->
<g id="edge8" class="edge"><title>Node225&#45;&gt;Node226</title>
<path fill="none" stroke="midnightblue" d="M545.69,-63C554.29,-63 563.041,-63 571.669,-63"/>
<polygon fill="midnightblue" stroke="midnightblue" points="571.725,-66.5001 581.725,-63 571.725,-59.5001 571.725,-66.5001"/>
</g>
</g>
</svg>
