<?xml version="1.0" encoding="UTF-8" standalone="no"?>
<!DOCTYPE svg PUBLIC "-//W3C//DTD SVG 1.1//EN"
 "http://www.w3.org/Graphics/SVG/1.1/DTD/svg11.dtd">
<!-- Generated by graphviz version 2.26.3 (20100126.1600)
 -->
<!-- Title: okw.exceptions.OKWMessageNotFoundException Pages: 1 -->
<svg width="190pt" height="198pt"
 viewBox="0.00 0.00 190.00 198.00" xmlns="http://www.w3.org/2000/svg" xmlns:xlink="http://www.w3.org/1999/xlink">
<g id="graph1" class="graph" transform="scale(1 1) rotate(0) translate(4 194)">
<title>okw.exceptions.OKWMessageNotFoundException</title>
<polygon fill="white" stroke="white" points="-4,5 -4,-194 187,-194 187,5 -4,5"/>
<!-- Node0 -->
<g id="node1" class="node"><title>Node0</title>
<polygon fill="#bfbfbf" stroke="black" points="0,-0.5 0,-89.5 182,-89.5 182,-0.5 0,-0.5"/>
<text text-anchor="start" x="8" y="-76.5" font-family="Helvetica,sans-Serif" font-size="10.00">okw.exceptions.OKWMessage</text>
<text text-anchor="middle" x="91" y="-63.5" font-family="Helvetica,sans-Serif" font-size="10.00">NotFoundException</text>
<polyline fill="none" stroke="black" points="0,-55.5 182,-55.5 "/>
<text text-anchor="start" x="8" y="-42.5" font-family="Helvetica,sans-Serif" font-size="10.00">&#45; serialVersionUID</text>
<polyline fill="none" stroke="black" points="0,-34.5 182,-34.5 "/>
<text text-anchor="start" x="8" y="-21.5" font-family="Helvetica,sans-Serif" font-size="10.00">+ OKWMessageNotFoundException()</text>
<text text-anchor="start" x="8" y="-8.5" font-family="Helvetica,sans-Serif" font-size="10.00">+ OKWMessageNotFoundException()</text>
</g>
<!-- Node1 -->
<g id="node2" class="node"><title>Node1</title>
<polygon fill="white" stroke="#bfbfbf" points="42.5,-126.5 42.5,-189.5 139.5,-189.5 139.5,-126.5 42.5,-126.5"/>
<text text-anchor="middle" x="91" y="-176.5" font-family="Helvetica,sans-Serif" font-size="10.00">RuntimeException</text>
<polyline fill="none" stroke="#bfbfbf" points="42.5,-168.5 139.5,-168.5 "/>
<text text-anchor="middle" x="91" y="-155.5" font-family="Helvetica,sans-Serif" font-size="10.00"> </text>
<polyline fill="none" stroke="#bfbfbf" points="42.5,-147.5 139.5,-147.5 "/>
<text text-anchor="middle" x="91" y="-134.5" font-family="Helvetica,sans-Serif" font-size="10.00"> </text>
</g>
<!-- Node1&#45;&gt;Node0 -->
<g id="edge2" class="edge"><title>Node1&#45;&gt;Node0</title>
<path fill="none" stroke="midnightblue" d="M91,-116.015C91,-107.403 91,-98.3072 91,-89.6061"/>
<polygon fill="none" stroke="midnightblue" points="87.5001,-116.222 91,-126.222 94.5001,-116.223 87.5001,-116.222"/>
</g>
</g>
</svg>
