<?xml version="1.0" encoding="UTF-8" standalone="no"?>
<!DOCTYPE svg PUBLIC "-//W3C//DTD SVG 1.1//EN"
 "http://www.w3.org/Graphics/SVG/1.1/DTD/svg11.dtd">
<!-- Generated by graphviz version 2.26.3 (20100126.1600)
 -->
<!-- Title: okw.core.Core.VerifySelectedValue Pages: 1 -->
<!--zoomable 1062 -->
<svg id="main" version="1.1" xmlns="http://www.w3.org/2000/svg" xmlns:xlink="http://www.w3.org/1999/xlink" xml:space="preserve" onload="init(evt)">
<style type="text/css"><![CDATA[
.edge:hover path { stroke: red; }
.edge:hover polygon { stroke: red; fill: red; }
]]></style>
<script type="text/javascript"><![CDATA[
var edges = document.getElementsByTagName('g');
if (edges && edges.length) {
  for (var i=0;i<edges.length;i++) {
    if (edges[i].id.substr(0,4)=='edge') {
      edges[i].setAttribute('class','edge');
    }
  }
}
]]></script>
        <defs>
                <circle id="rim" cx="0" cy="0" r="7"/>
                <circle id="rim2" cx="0" cy="0" r="3.5"/>
                <g id="zoomPlus">
                        <use xlink:href="#rim" fill="#404040">
                                <set attributeName="fill" to="#808080" begin="zoomplus.mouseover" end="zoomplus.mouseout"/>
                        </use>
                        <path d="M-4,0h8M0,-4v8" fill="none" stroke="white" stroke-width="1.5" pointer-events="none"/>
                </g>
                <g id="zoomMin">
                        <use xlink:href="#rim" fill="#404040">
                                <set attributeName="fill" to="#808080" begin="zoomminus.mouseover" end="zoomminus.mouseout"/>
                        </use>
                        <path d="M-4,0h8" fill="none" stroke="white" stroke-width="1.5" pointer-events="none"/>
                </g>
                <g id="dirArrow">
                        <path fill="none" stroke="white" stroke-width="1.5" d="M0,-3.0v7 M-2.5,-0.5L0,-3.0L2.5,-0.5"/>
                </g>
               <g id="resetDef">
                       <use xlink:href="#rim2" fill="#404040">
                               <set attributeName="fill" to="#808080" begin="reset.mouseover" end="reset.mouseout"/>
                       </use>
               </g>
        </defs>

<script type="text/javascript">
var viewWidth = 580;
var viewHeight = 1062;
var sectionId = 'dynsection-99';
</script>
<script xlink:href="svgpan.js"/>
<svg id="graph" class="graph">
<g id="viewport">
<title>okw.core.Core.VerifySelectedValue</title>
<polygon fill="white" stroke="white" points="-4,5 -4,-1058 577,-1058 577,5 -4,5"/>
<!-- Node2817 -->
<g id="node1" class="node"><title>Node2817</title>
<polygon fill="#bfbfbf" stroke="black" points="0.5,-541 0.5,-575 147.5,-575 147.5,-541 0.5,-541"/>
<text text-anchor="start" x="8.5" y="-562" font-family="Helvetica,sans-Serif" font-size="10.00">okw.core.Core.VerifySelected</text>
<text text-anchor="middle" x="74" y="-549" font-family="Helvetica,sans-Serif" font-size="10.00">Value</text>
</g>
<!-- Node2818 -->
<g id="node3" class="node"><title>Node2818</title>
<a xlink:href="classokw_1_1core_1_1_e_n.html#a535232918db76d11b92e1c00d24e228b" target="_top" xlink:title="Vergleicht den ausgewählten Wert des gegebenen Listenobjekts mit dem erwarteten Wert. ">
<polygon fill="white" stroke="black" points="184,-541 184,-575 324,-575 324,-541 184,-541"/>
<text text-anchor="start" x="192" y="-562" font-family="Helvetica,sans-Serif" font-size="10.00">okw.core.EN.VerifySelected</text>
<text text-anchor="middle" x="254" y="-549" font-family="Helvetica,sans-Serif" font-size="10.00">Value</text>
</a>
</g>
<!-- Node2817&#45;&gt;Node2818 -->
<g id="edge2" class="edge"><title>Node2817&#45;&gt;Node2818</title>
<path fill="none" stroke="midnightblue" d="M157.882,-558C166.576,-558 175.345,-558 183.865,-558"/>
<polygon fill="midnightblue" stroke="midnightblue" points="157.732,-554.5 147.732,-558 157.732,-561.5 157.732,-554.5"/>
</g>
<!-- Node2819 -->
<g id="node5" class="node"><title>Node2819</title>
<a xlink:href="classokw_1_1core_1_1_e_n___keywords___a_n_t_l_r___test.html#a4a3c50b3260d3b7e3218e073177ab15e" target="_top" xlink:title="okw.core.EN_Keywords\l_ANTLR_Test.tc__VerifySelected\lValue_EnviromentValue">
<polygon fill="white" stroke="black" points="383.5,-1006.5 383.5,-1053.5 548.5,-1053.5 548.5,-1006.5 383.5,-1006.5"/>
<text text-anchor="start" x="391.5" y="-1040.5" font-family="Helvetica,sans-Serif" font-size="10.00">okw.core.EN_Keywords</text>
<text text-anchor="start" x="391.5" y="-1027.5" font-family="Helvetica,sans-Serif" font-size="10.00">_ANTLR_Test.tc__VerifySelected</text>
<text text-anchor="middle" x="466" y="-1014.5" font-family="Helvetica,sans-Serif" font-size="10.00">Value_EnviromentValue</text>
</a>
</g>
<!-- Node2818&#45;&gt;Node2819 -->
<g id="edge4" class="edge"><title>Node2818&#45;&gt;Node2819</title>
<path fill="none" stroke="midnightblue" d="M257.08,-585.384C267.313,-671.697 302.801,-935.964 360,-997 366.59,-1004.03 374.649,-1009.58 383.352,-1013.94"/>
<polygon fill="midnightblue" stroke="midnightblue" points="260.541,-584.843 255.906,-575.315 253.588,-585.653 260.541,-584.843"/>
</g>
<!-- Node2820 -->
<g id="node7" class="node"><title>Node2820</title>
<a xlink:href="classokw_1_1core_1_1_e_n___keywords___a_n_t_l_r___test.html#a2e571d88e1e787c667895a18569f0ca7" target="_top" xlink:title="okw.core.EN_Keywords\l_ANTLR_Test.tc_VerifySelected\lValue_MemorizedValue">
<polygon fill="white" stroke="black" points="386,-940.5 386,-987.5 546,-987.5 546,-940.5 386,-940.5"/>
<text text-anchor="start" x="394" y="-974.5" font-family="Helvetica,sans-Serif" font-size="10.00">okw.core.EN_Keywords</text>
<text text-anchor="start" x="394" y="-961.5" font-family="Helvetica,sans-Serif" font-size="10.00">_ANTLR_Test.tc_VerifySelected</text>
<text text-anchor="middle" x="466" y="-948.5" font-family="Helvetica,sans-Serif" font-size="10.00">Value_MemorizedValue</text>
</a>
</g>
<!-- Node2818&#45;&gt;Node2820 -->
<g id="edge6" class="edge"><title>Node2818&#45;&gt;Node2820</title>
<path fill="none" stroke="midnightblue" d="M258.322,-585.297C271.07,-662.568 310.728,-880.484 360,-931 367.335,-938.52 376.35,-944.333 385.999,-948.826"/>
<polygon fill="midnightblue" stroke="midnightblue" points="261.766,-584.667 256.704,-575.36 254.857,-585.792 261.766,-584.667"/>
</g>
<!-- Node2821 -->
<g id="node9" class="node"><title>Node2821</title>
<a xlink:href="classokw_1_1core_1_1_e_n___keywords___d_e_l_e_t_e___test.html#a0e62a17933f21dc8c45b22def98ac192" target="_top" xlink:title="okw.core.EN_Keywords\l_DELETE_Test.tcSelectMenu\l_Value_MV_DELETE_EmptyString">
<polygon fill="white" stroke="black" points="381,-874.5 381,-921.5 551,-921.5 551,-874.5 381,-874.5"/>
<text text-anchor="start" x="389" y="-908.5" font-family="Helvetica,sans-Serif" font-size="10.00">okw.core.EN_Keywords</text>
<text text-anchor="start" x="389" y="-895.5" font-family="Helvetica,sans-Serif" font-size="10.00">_DELETE_Test.tcSelectMenu</text>
<text text-anchor="middle" x="466" y="-882.5" font-family="Helvetica,sans-Serif" font-size="10.00">_Value_MV_DELETE_EmptyString</text>
</a>
</g>
<!-- Node2818&#45;&gt;Node2821 -->
<g id="edge8" class="edge"><title>Node2818&#45;&gt;Node2821</title>
<path fill="none" stroke="midnightblue" d="M255.437,-585.167C260.057,-644.551 279.406,-786.84 360,-865 366.088,-870.904 373.214,-875.753 380.843,-879.736"/>
<polygon fill="midnightblue" stroke="midnightblue" points="258.921,-584.811 254.735,-575.078 251.938,-585.297 258.921,-584.811"/>
</g>
<!-- Node2822 -->
<g id="node11" class="node"><title>Node2822</title>
<a xlink:href="classokw_1_1core_1_1_e_n___keywords___empty___test.html#a762d53bca89c6648f77cb3186c4740c6" target="_top" xlink:title="Prüft &quot;${EMPTY}&quot; für das Schlüsslewort VerifySelectedValue(strng,string) ">
<polygon fill="white" stroke="black" points="388.5,-808.5 388.5,-855.5 543.5,-855.5 543.5,-808.5 388.5,-808.5"/>
<text text-anchor="start" x="396.5" y="-842.5" font-family="Helvetica,sans-Serif" font-size="10.00">okw.core.EN_Keywords</text>
<text text-anchor="start" x="396.5" y="-829.5" font-family="Helvetica,sans-Serif" font-size="10.00">_Empty_Test.tc_VerifySelected</text>
<text text-anchor="middle" x="466" y="-816.5" font-family="Helvetica,sans-Serif" font-size="10.00">Value_Empty</text>
</a>
</g>
<!-- Node2818&#45;&gt;Node2822 -->
<g id="edge10" class="edge"><title>Node2818&#45;&gt;Node2822</title>
<path fill="none" stroke="midnightblue" d="M258.371,-585.119C267.805,-634.81 294.738,-740.7 360,-799 368.193,-806.319 377.993,-812.015 388.277,-816.448"/>
<polygon fill="midnightblue" stroke="midnightblue" points="261.789,-584.349 256.569,-575.129 254.9,-585.592 261.789,-584.349"/>
</g>
<!-- Node2823 -->
<g id="node13" class="node"><title>Node2823</title>
<a xlink:href="classokw_1_1core_1_1_e_n___keywords___test.html#a3b46cf578ee7fdc21a81fa090865badd" target="_top" xlink:title="okw.core.EN_Keywords\l_Test.tc_VerifySelectedValue">
<polygon fill="white" stroke="black" points="393,-756 393,-790 539,-790 539,-756 393,-756"/>
<text text-anchor="start" x="401" y="-777" font-family="Helvetica,sans-Serif" font-size="10.00">okw.core.EN_Keywords</text>
<text text-anchor="middle" x="466" y="-764" font-family="Helvetica,sans-Serif" font-size="10.00">_Test.tc_VerifySelectedValue</text>
</a>
</g>
<!-- Node2818&#45;&gt;Node2823 -->
<g id="edge12" class="edge"><title>Node2818&#45;&gt;Node2823</title>
<path fill="none" stroke="midnightblue" d="M261.477,-584.868C274.427,-626.266 305.061,-705.227 360,-747 369.653,-754.34 381.105,-759.635 392.852,-763.449"/>
<polygon fill="midnightblue" stroke="midnightblue" points="264.799,-583.762 258.562,-575.198 258.097,-585.782 264.799,-583.762"/>
</g>
<!-- Node2824 -->
<g id="node15" class="node"><title>Node2824</title>
<a xlink:href="classokw_1_1core_1_1_e_n___o_k_w_frame_object_child_not_found_exception___test.html#afa42441d0abafeb5fb1e91a373434802" target="_top" xlink:title="Prüft ob die Ausnahme OKWFrameObjectChildNotFoundException durch die VerifySelected ausgelöst wird...">
<polygon fill="white" stroke="black" points="360.5,-678 360.5,-738 571.5,-738 571.5,-678 360.5,-678"/>
<text text-anchor="start" x="368.5" y="-725" font-family="Helvetica,sans-Serif" font-size="10.00">okw.core.EN_OKWFrameObject</text>
<text text-anchor="start" x="368.5" y="-712" font-family="Helvetica,sans-Serif" font-size="10.00">ChildNotFoundException</text>
<text text-anchor="start" x="368.5" y="-699" font-family="Helvetica,sans-Serif" font-size="10.00">_Test.TC_VerifySelectedValue</text>
<text text-anchor="middle" x="466" y="-686" font-family="Helvetica,sans-Serif" font-size="10.00">_OKWFrameObjectChildNotFoundException</text>
</a>
</g>
<!-- Node2818&#45;&gt;Node2824 -->
<g id="edge14" class="edge"><title>Node2818&#45;&gt;Node2824</title>
<path fill="none" stroke="midnightblue" d="M272.781,-583.618C292.17,-608.466 324.522,-645.731 360,-669 364.837,-672.172 369.967,-675.132 375.258,-677.885"/>
<polygon fill="midnightblue" stroke="midnightblue" points="275.338,-581.201 266.479,-575.39 269.781,-585.457 275.338,-581.201"/>
</g>
<!-- Node2825 -->
<g id="node17" class="node"><title>Node2825</title>
<a xlink:href="classokw_1_1core_1_1_e_n___o_k_w_frame_object_method_not_implemented___test.html#af4ff493b3f95375ba46e655d45c15df7" target="_top" xlink:title="Prüft ob die Ausnahme OKWFrameObjectMethodNotImplemented von VerifySelectedValue( FN...">
<polygon fill="white" stroke="black" points="368,-600 368,-660 564,-660 564,-600 368,-600"/>
<text text-anchor="start" x="376" y="-647" font-family="Helvetica,sans-Serif" font-size="10.00">okw.core.EN_OKWFrameObject</text>
<text text-anchor="start" x="376" y="-634" font-family="Helvetica,sans-Serif" font-size="10.00">MethodNotImplemented_Test.TC</text>
<text text-anchor="start" x="376" y="-621" font-family="Helvetica,sans-Serif" font-size="10.00">_VerifySelectedValue_OKWFrameObject</text>
<text text-anchor="middle" x="466" y="-608" font-family="Helvetica,sans-Serif" font-size="10.00">MethodNotImplemented</text>
</a>
</g>
<!-- Node2818&#45;&gt;Node2825 -->
<g id="edge16" class="edge"><title>Node2818&#45;&gt;Node2825</title>
<path fill="none" stroke="midnightblue" d="M313.735,-578.287C333.547,-585.016 356.041,-592.655 377.544,-599.958"/>
<polygon fill="midnightblue" stroke="midnightblue" points="314.835,-574.965 304.241,-575.063 312.584,-581.593 314.835,-574.965"/>
</g>
<!-- Node2826 -->
<g id="node19" class="node"><title>Node2826</title>
<a xlink:href="classokw_1_1core_1_1_e_n___o_k_w_not_allowed_value_exception___keywords___i_g_n_o_r_e.html#aa1091fdbff7395059c1f764ffcba24fc" target="_top" xlink:title="Prüft ob &quot;${IGNORE} &quot; die Ausnahme okw.exceptions.OKWNotAllowedValueException auslöst. ">
<polygon fill="white" stroke="black" points="363,-534.5 363,-581.5 569,-581.5 569,-534.5 363,-534.5"/>
<text text-anchor="start" x="371" y="-568.5" font-family="Helvetica,sans-Serif" font-size="10.00">okw.core.EN_OKWNotAllowed</text>
<text text-anchor="start" x="371" y="-555.5" font-family="Helvetica,sans-Serif" font-size="10.00">ValueException_Keywords</text>
<text text-anchor="middle" x="466" y="-542.5" font-family="Helvetica,sans-Serif" font-size="10.00">_IGNORE.tcVerifySelectedValueIGNORE1</text>
</a>
</g>
<!-- Node2818&#45;&gt;Node2826 -->
<g id="edge18" class="edge"><title>Node2818&#45;&gt;Node2826</title>
<path fill="none" stroke="midnightblue" d="M334.047,-558C343.42,-558 353.082,-558 362.713,-558"/>
<polygon fill="midnightblue" stroke="midnightblue" points="334.004,-554.5 324.004,-558 334.004,-561.5 334.004,-554.5"/>
</g>
<!-- Node2827 -->
<g id="node21" class="node"><title>Node2827</title>
<a xlink:href="classokw_1_1core_1_1_e_n___o_k_w_not_allowed_value_exception___keywords___i_g_n_o_r_e.html#a88284aecd0833ca5766d472ffee13a6b" target="_top" xlink:title="Prüft ob &quot;&quot;${IGNORE}${TCN}&quot; die Ausnahme okw.exceptions.OKWNotAllowedValueException auslöst...">
<polygon fill="white" stroke="black" points="363,-468.5 363,-515.5 569,-515.5 569,-468.5 363,-468.5"/>
<text text-anchor="start" x="371" y="-502.5" font-family="Helvetica,sans-Serif" font-size="10.00">okw.core.EN_OKWNotAllowed</text>
<text text-anchor="start" x="371" y="-489.5" font-family="Helvetica,sans-Serif" font-size="10.00">ValueException_Keywords</text>
<text text-anchor="middle" x="466" y="-476.5" font-family="Helvetica,sans-Serif" font-size="10.00">_IGNORE.tcVerifySelectedValueIGNORE2</text>
</a>
</g>
<!-- Node2818&#45;&gt;Node2827 -->
<g id="edge20" class="edge"><title>Node2818&#45;&gt;Node2827</title>
<path fill="none" stroke="midnightblue" d="M318.683,-537.863C341.26,-530.834 366.802,-522.883 390.201,-515.598"/>
<polygon fill="midnightblue" stroke="midnightblue" points="317.379,-534.603 308.871,-540.918 319.459,-541.287 317.379,-534.603"/>
</g>
<!-- Node2828 -->
<g id="node23" class="node"><title>Node2828</title>
<a xlink:href="classokw_1_1core_1_1_e_n___verify_selected_value___o_k_w_verifying_fails_exception___test.html#aba63ded3310097f2974ddde223902277" target="_top" xlink:title="Prüft, ob die Ausnahme OKWVerifyingFailsException bei einem Soll/Ist&#45;Vergleich ausgelöst wird...">
<polygon fill="white" stroke="black" points="377,-390 377,-450 555,-450 555,-390 377,-390"/>
<text text-anchor="start" x="385" y="-437" font-family="Helvetica,sans-Serif" font-size="10.00">okw.core.EN_VerifySelected</text>
<text text-anchor="start" x="385" y="-424" font-family="Helvetica,sans-Serif" font-size="10.00">Value_OKWVerifyingFailsException</text>
<text text-anchor="start" x="385" y="-411" font-family="Helvetica,sans-Serif" font-size="10.00">_Test.TC_VerifySelectedValue</text>
<text text-anchor="middle" x="466" y="-398" font-family="Helvetica,sans-Serif" font-size="10.00">_OKWVerifyingFailsException_SV01</text>
</a>
</g>
<!-- Node2818&#45;&gt;Node2828 -->
<g id="edge22" class="edge"><title>Node2818&#45;&gt;Node2828</title>
<path fill="none" stroke="midnightblue" d="M275.317,-533.091C295.295,-511.06 326.962,-479.342 360,-459 365.343,-455.71 371.007,-452.633 376.827,-449.768"/>
<polygon fill="midnightblue" stroke="midnightblue" points="272.548,-530.938 268.504,-540.731 277.772,-535.597 272.548,-530.938"/>
</g>
<!-- Node2829 -->
<g id="node25" class="node"><title>Node2829</title>
<a xlink:href="classokw_1_1core_1_1_e_n___verify_selected_value___o_k_w_verifying_fails_exception___test.html#a0cb77b88d7248a689abc429f6d64fa28" target="_top" xlink:title="Prüft, ob die Ausnahme OKWVerifyingFailsException bei einem Soll/Ist&#45;Vergleich ausgelöst wird...">
<polygon fill="white" stroke="black" points="377,-312 377,-372 555,-372 555,-312 377,-312"/>
<text text-anchor="start" x="385" y="-359" font-family="Helvetica,sans-Serif" font-size="10.00">okw.core.EN_VerifySelected</text>
<text text-anchor="start" x="385" y="-346" font-family="Helvetica,sans-Serif" font-size="10.00">Value_OKWVerifyingFailsException</text>
<text text-anchor="start" x="385" y="-333" font-family="Helvetica,sans-Serif" font-size="10.00">_Test.TC_VerifySelectedValue</text>
<text text-anchor="middle" x="466" y="-320" font-family="Helvetica,sans-Serif" font-size="10.00">_OKWVerifyingFailsException_SV02</text>
</a>
</g>
<!-- Node2818&#45;&gt;Node2829 -->
<g id="edge24" class="edge"><title>Node2818&#45;&gt;Node2829</title>
<path fill="none" stroke="midnightblue" d="M263.372,-531.288C278.145,-492.867 310.374,-422.115 360,-381 365.209,-376.684 370.94,-372.823 376.956,-369.373"/>
<polygon fill="midnightblue" stroke="midnightblue" points="260.051,-530.177 259.83,-540.77 266.608,-532.627 260.051,-530.177"/>
</g>
<!-- Node2830 -->
<g id="node27" class="node"><title>Node2830</title>
<a xlink:href="classokw_1_1core_1_1_e_n___verify_selected_value___o_k_w_verifying_fails_exception___test.html#a924a5b61977c15ffe9cdb5ead808034c" target="_top" xlink:title="Prüft, ob die Ausnahme OKWVerifyingFailsException bei einem Soll/Ist&#45;Vergleich ausgelöst wird...">
<polygon fill="white" stroke="black" points="377,-234 377,-294 555,-294 555,-234 377,-234"/>
<text text-anchor="start" x="385" y="-281" font-family="Helvetica,sans-Serif" font-size="10.00">okw.core.EN_VerifySelected</text>
<text text-anchor="start" x="385" y="-268" font-family="Helvetica,sans-Serif" font-size="10.00">Value_OKWVerifyingFailsException</text>
<text text-anchor="start" x="385" y="-255" font-family="Helvetica,sans-Serif" font-size="10.00">_Test.TC_VerifySelectedValue</text>
<text text-anchor="middle" x="466" y="-242" font-family="Helvetica,sans-Serif" font-size="10.00">_OKWVerifyingFailsException_SV03</text>
</a>
</g>
<!-- Node2818&#45;&gt;Node2830 -->
<g id="edge26" class="edge"><title>Node2818&#45;&gt;Node2830</title>
<path fill="none" stroke="midnightblue" d="M257.998,-530.739C266.947,-479.218 293.304,-366.99 360,-303 365.094,-298.113 370.851,-293.829 376.985,-290.075"/>
<polygon fill="midnightblue" stroke="midnightblue" points="254.517,-530.337 256.344,-540.773 261.424,-531.475 254.517,-530.337"/>
</g>
<!-- Node2831 -->
<g id="node29" class="node"><title>Node2831</title>
<a xlink:href="classokw_1_1core_1_1_e_n___verify_selected_value___o_k_w_verifying_fails_exception___test.html#abef57ed3f025bf0dc58224d554057386" target="_top" xlink:title="Prüft, ob die Ausnahme OKWVerifyingFailsException bei einem Soll/Ist&#45;Vergleich ausgelöst wird...">
<polygon fill="white" stroke="black" points="376.5,-156 376.5,-216 555.5,-216 555.5,-156 376.5,-156"/>
<text text-anchor="start" x="384.5" y="-203" font-family="Helvetica,sans-Serif" font-size="10.00">okw.core.EN_VerifySelected</text>
<text text-anchor="start" x="384.5" y="-190" font-family="Helvetica,sans-Serif" font-size="10.00">Value_OKWVerifyingFailsException</text>
<text text-anchor="start" x="384.5" y="-177" font-family="Helvetica,sans-Serif" font-size="10.00">_Test.TC_VerifySelectedValue</text>
<text text-anchor="middle" x="466" y="-164" font-family="Helvetica,sans-Serif" font-size="10.00">_OKWVerifyingFailsException_MV01</text>
</a>
</g>
<!-- Node2818&#45;&gt;Node2831 -->
<g id="edge28" class="edge"><title>Node2818&#45;&gt;Node2831</title>
<path fill="none" stroke="midnightblue" d="M259.419,-530.934C274.128,-459.874 316.619,-270.35 360,-225 364.744,-220.041 370.172,-215.708 376.009,-211.924"/>
<polygon fill="midnightblue" stroke="midnightblue" points="255.954,-530.407 257.377,-540.906 262.812,-531.811 255.954,-530.407"/>
</g>
<!-- Node2832 -->
<g id="node31" class="node"><title>Node2832</title>
<a xlink:href="classokw_1_1core_1_1_e_n___verify_selected_value___o_k_w_verifying_fails_exception___test.html#a2355a61765ba3c7b913da782d649f99e" target="_top" xlink:title="Prüft, ob die Ausnahme OKWVerifyingFailsException bei einem Soll/Ist&#45;Vergleich ausgelöst wird...">
<polygon fill="white" stroke="black" points="376.5,-78 376.5,-138 555.5,-138 555.5,-78 376.5,-78"/>
<text text-anchor="start" x="384.5" y="-125" font-family="Helvetica,sans-Serif" font-size="10.00">okw.core.EN_VerifySelected</text>
<text text-anchor="start" x="384.5" y="-112" font-family="Helvetica,sans-Serif" font-size="10.00">Value_OKWVerifyingFailsException</text>
<text text-anchor="start" x="384.5" y="-99" font-family="Helvetica,sans-Serif" font-size="10.00">_Test.TC_VerifySelectedValue</text>
<text text-anchor="middle" x="466" y="-86" font-family="Helvetica,sans-Serif" font-size="10.00">_OKWVerifyingFailsException_MV02</text>
</a>
</g>
<!-- Node2818&#45;&gt;Node2832 -->
<g id="edge30" class="edge"><title>Node2818&#45;&gt;Node2832</title>
<path fill="none" stroke="midnightblue" d="M257.677,-530.863C269.3,-448.732 307.606,-204.923 360,-147 364.735,-141.765 370.235,-137.231 376.191,-133.304"/>
<polygon fill="midnightblue" stroke="midnightblue" points="254.19,-530.528 256.274,-540.916 261.122,-531.496 254.19,-530.528"/>
</g>
<!-- Node2833 -->
<g id="node33" class="node"><title>Node2833</title>
<a xlink:href="classokw_1_1core_1_1_e_n___verify_selected_value___o_k_w_verifying_fails_exception___test.html#ae186ccc49a6722562a5b1c36477837d9" target="_top" xlink:title="Prüft, ob die Ausnahme OKWVerifyingFailsException bei einem Soll/Ist&#45;Vergleich ausgelöst wird...">
<polygon fill="white" stroke="black" points="376.5,-0 376.5,-60 555.5,-60 555.5,-0 376.5,-0"/>
<text text-anchor="start" x="384.5" y="-47" font-family="Helvetica,sans-Serif" font-size="10.00">okw.core.EN_VerifySelected</text>
<text text-anchor="start" x="384.5" y="-34" font-family="Helvetica,sans-Serif" font-size="10.00">Value_OKWVerifyingFailsException</text>
<text text-anchor="start" x="384.5" y="-21" font-family="Helvetica,sans-Serif" font-size="10.00">_Test.TC_VerifySelectedValue</text>
<text text-anchor="middle" x="466" y="-8" font-family="Helvetica,sans-Serif" font-size="10.00">_OKWVerifyingFailsException_MV03</text>
</a>
</g>
<!-- Node2818&#45;&gt;Node2833 -->
<g id="edge32" class="edge"><title>Node2818&#45;&gt;Node2833</title>
<path fill="none" stroke="midnightblue" d="M256.479,-530.755C265.38,-438.5 298.508,-139.7 360,-69 364.761,-63.5257 370.361,-58.8191 376.456,-54.7726"/>
<polygon fill="midnightblue" stroke="midnightblue" points="252.972,-530.667 255.513,-540.953 259.94,-531.327 252.972,-530.667"/>
</g>
</g>
</svg>
        <g id="navigator" transform="translate(0 0)" fill="#404254">
                <rect fill="#f2f5e9" fill-opacity="0.5" stroke="#606060" stroke-width=".5" x="0" y="0" width="60" height="60"/>
                <use id="zoomplus" xlink:href="#zoomPlus" x="17" y="9" onmousedown="handleZoom(evt,'in')"/>
                <use id="zoomminus" xlink:href="#zoomMin" x="42" y="9" onmousedown="handleZoom(evt,'out')"/>
                <use id="reset" xlink:href="#resetDef" x="30" y="36" onmousedown="handleReset()"/>
                <g id="arrowUp" xlink:href="#dirArrow" transform="translate(30 24)" onmousedown="handlePan(0,-1)">
                  <use xlink:href="#rim" fill="#404040">
                        <set attributeName="fill" to="#808080" begin="arrowUp.mouseover" end="arrowUp.mouseout"/>
                  </use>
                  <path fill="none" stroke="white" stroke-width="1.5" d="M0,-3.0v7 M-2.5,-0.5L0,-3.0L2.5,-0.5"/>
                </g>
                <g id="arrowRight" xlink:href="#dirArrow" transform="rotate(90) translate(36 -43)" onmousedown="handlePan(1,0)">
                  <use xlink:href="#rim" fill="#404040">
                        <set attributeName="fill" to="#808080" begin="arrowRight.mouseover" end="arrowRight.mouseout"/>
                  </use>
                  <path fill="none" stroke="white" stroke-width="1.5" d="M0,-3.0v7 M-2.5,-0.5L0,-3.0L2.5,-0.5"/>
                </g>
                <g id="arrowDown" xlink:href="#dirArrow" transform="rotate(180) translate(-30 -48)" onmousedown="handlePan(0,1)">
                  <use xlink:href="#rim" fill="#404040">
                        <set attributeName="fill" to="#808080" begin="arrowDown.mouseover" end="arrowDown.mouseout"/>
                  </use>
                  <path fill="none" stroke="white" stroke-width="1.5" d="M0,-3.0v7 M-2.5,-0.5L0,-3.0L2.5,-0.5"/>
                </g>
                <g id="arrowLeft" xlink:href="#dirArrow" transform="rotate(270) translate(-36 17)" onmousedown="handlePan(-1,0)">
                  <use xlink:href="#rim" fill="#404040">
                        <set attributeName="fill" to="#808080" begin="arrowLeft.mouseover" end="arrowLeft.mouseout"/>
                  </use>
                  <path fill="none" stroke="white" stroke-width="1.5" d="M0,-3.0v7 M-2.5,-0.5L0,-3.0L2.5,-0.5"/>
                </g>
        </g>
        <svg viewBox="0 0 15 15" width="100%" height="30px" preserveAspectRatio="xMaxYMin meet">
         <g id="arrow_out" transform="scale(0.3 0.3)">
          <a xlink:href="classokw_1_1core_1_1_core_ab243fc4ed28faf2ee9e7cd3123b8f13c_icgraph_org.svg" target="_base">
           <rect id="button" ry="5" rx="5" y="6" x="6" height="38" width="38"
                fill="#f2f5e9" fill-opacity="0.5" stroke="#606060" stroke-width="1.0"/>
           <path id="arrow"
             d="M 11.500037,31.436501 C 11.940474,20.09759 22.043105,11.32322 32.158766,21.979434 L 37.068811,17.246167 C 37.068811,17.246167 37.088388,32 37.088388,32 L 22.160133,31.978069 C 22.160133,31.978069 26.997745,27.140456 26.997745,27.140456 C 18.528582,18.264221 13.291696,25.230495 11.500037,31.436501 z"
             style="fill:#404040;"/>
          </a>
         </g>
        </svg>
</svg>
