<?xml version="1.0" encoding="UTF-8" standalone="no"?>
<!DOCTYPE svg PUBLIC "-//W3C//DTD SVG 1.1//EN"
 "http://www.w3.org/Graphics/SVG/1.1/DTD/svg11.dtd">
<!-- Generated by graphviz version 2.38.0 (20140413.2041)
 -->
<!-- Title: okw.core.Core.VerifyTooltipREGX Pages: 1 -->
<svg width="634pt" height="1306pt"
 viewBox="0.00 0.00 634.00 1305.50" xmlns="http://www.w3.org/2000/svg" xmlns:xlink="http://www.w3.org/1999/xlink">
<g id="graph0" class="graph" transform="scale(1 1) rotate(0) translate(4 1301.5)">
<title>okw.core.Core.VerifyTooltipREGX</title>
<polygon fill="white" stroke="none" points="-4,4 -4,-1301.5 630,-1301.5 630,4 -4,4"/>
<!-- Node4323 -->
<g id="node1" class="node"><title>Node4323</title>
<g id="a_node1"><a xlink:title="Prüft den Standardwert eines Objektes (in den meisten Fällen ist dies der angezeigte Text).">
<polygon fill="#bfbfbf" stroke="black" points="458,-650 458,-669 626,-669 626,-650 458,-650"/>
<text text-anchor="middle" x="542" y="-657" font-family="Helvetica,sans-Serif" font-size="10.00">okw.core.Core.VerifyTooltipREGX</text>
</a>
</g>
</g>
<!-- Node4324 -->
<g id="node2" class="node"><title>Node4324</title>
<g id="a_node2"><a xlink:href="classokw_1_1core_1_1_e_n.html#a1611d27707a732b6f22f301898e530cd" target="_top" xlink:title="Prüft den Standardwert eines Objektes (in den meisten Fällen ist dies der angezeigte Text).">
<polygon fill="white" stroke="black" points="263,-650 263,-669 422,-669 422,-650 263,-650"/>
<text text-anchor="middle" x="342.5" y="-657" font-family="Helvetica,sans-Serif" font-size="10.00">okw.core.EN.VerifyTooltipREGX</text>
</a>
</g>
</g>
<!-- Node4323&#45;&gt;Node4324 -->
<g id="edge1" class="edge"><title>Node4323&#45;&gt;Node4324</title>
<path fill="none" stroke="midnightblue" d="M447.796,-659.5C439.226,-659.5 430.6,-659.5 422.178,-659.5"/>
<polygon fill="midnightblue" stroke="midnightblue" points="447.815,-663 457.815,-659.5 447.815,-656 447.815,-663"/>
</g>
<!-- Node4325 -->
<g id="node3" class="node"><title>Node4325</title>
<g id="a_node3"><a xlink:href="classokw_1_1core_1_1_e_n___keywords___a_n_t_l_r___test.html#a3c08398cfde67e880e73bddc6e70f93f" target="_top" xlink:title=" ">
<polygon fill="white" stroke="black" points="36,-1256 36,-1297 191,-1297 191,-1256 36,-1256"/>
<text text-anchor="start" x="44" y="-1285" font-family="Helvetica,sans-Serif" font-size="10.00">okw.core.EN_Keywords</text>
<text text-anchor="start" x="44" y="-1274" font-family="Helvetica,sans-Serif" font-size="10.00">_ANTLR_Test.tc__VerifyTooltip</text>
<text text-anchor="middle" x="113.5" y="-1263" font-family="Helvetica,sans-Serif" font-size="10.00">REGX_EnviromentVar</text>
</a>
</g>
</g>
<!-- Node4324&#45;&gt;Node4325 -->
<g id="edge2" class="edge"><title>Node4324&#45;&gt;Node4325</title>
<path fill="none" stroke="midnightblue" d="M340.386,-679.346C334.789,-772.001 306.782,-1161.1 227,-1246.5 217.34,-1256.84 204.552,-1263.77 191.068,-1268.38"/>
<polygon fill="midnightblue" stroke="midnightblue" points="343.881,-679.531 340.971,-669.343 336.893,-679.122 343.881,-679.531"/>
</g>
<!-- Node4326 -->
<g id="node4" class="node"><title>Node4326</title>
<g id="a_node4"><a xlink:href="classokw_1_1core_1_1_e_n___keywords___a_n_t_l_r___test.html#a8163acc71309a9fd84fe13b35f4b56c2" target="_top" xlink:title=" ">
<polygon fill="white" stroke="black" points="36,-1196 36,-1237 191,-1237 191,-1196 36,-1196"/>
<text text-anchor="start" x="44" y="-1225" font-family="Helvetica,sans-Serif" font-size="10.00">okw.core.EN_Keywords</text>
<text text-anchor="start" x="44" y="-1214" font-family="Helvetica,sans-Serif" font-size="10.00">_ANTLR_Test.tc__VerifyTooltip</text>
<text text-anchor="middle" x="113.5" y="-1203" font-family="Helvetica,sans-Serif" font-size="10.00">WCM_EnviromentVar</text>
</a>
</g>
</g>
<!-- Node4324&#45;&gt;Node4326 -->
<g id="edge3" class="edge"><title>Node4324&#45;&gt;Node4326</title>
<path fill="none" stroke="midnightblue" d="M339.922,-679.203C332.605,-765.699 299.227,-1110.82 227,-1186.5 217.301,-1196.66 204.576,-1203.52 191.184,-1208.11"/>
<polygon fill="midnightblue" stroke="midnightblue" points="343.416,-679.419 340.751,-669.165 336.44,-678.843 343.416,-679.419"/>
</g>
<!-- Node4327 -->
<g id="node5" class="node"><title>Node4327</title>
<g id="a_node5"><a xlink:href="classokw_1_1core_1_1_e_n___keywords___a_n_t_l_r___test.html#a506e1580da5910a4b1694699db081588" target="_top" xlink:title=" ">
<polygon fill="white" stroke="black" points="38.5,-1136 38.5,-1177 188.5,-1177 188.5,-1136 38.5,-1136"/>
<text text-anchor="start" x="46.5" y="-1165" font-family="Helvetica,sans-Serif" font-size="10.00">okw.core.EN_Keywords</text>
<text text-anchor="start" x="46.5" y="-1154" font-family="Helvetica,sans-Serif" font-size="10.00">_ANTLR_Test.tc_VerifyTooltip</text>
<text text-anchor="middle" x="113.5" y="-1143" font-family="Helvetica,sans-Serif" font-size="10.00">REGX_MemorizedValue</text>
</a>
</g>
</g>
<!-- Node4324&#45;&gt;Node4327 -->
<g id="edge4" class="edge"><title>Node4324&#45;&gt;Node4327</title>
<path fill="none" stroke="midnightblue" d="M339.301,-679.469C330.03,-760.112 291.601,-1060.58 227,-1126.5 216.601,-1137.11 202.9,-1144.1 188.649,-1148.68"/>
<polygon fill="midnightblue" stroke="midnightblue" points="342.814,-679.55 340.457,-669.22 335.858,-678.765 342.814,-679.55"/>
</g>
<!-- Node4328 -->
<g id="node6" class="node"><title>Node4328</title>
<g id="a_node6"><a xlink:href="classokw_1_1core_1_1_e_n___keywords___empty___test.html#a9a5d099321b3771660606104fcdca687" target="_top" xlink:title="Prüft &quot;${EMPTY}&quot; für das Schlüsselwort VerifyValue(string,string)">
<polygon fill="white" stroke="black" points="38.5,-1076 38.5,-1117 188.5,-1117 188.5,-1076 38.5,-1076"/>
<text text-anchor="start" x="46.5" y="-1105" font-family="Helvetica,sans-Serif" font-size="10.00">okw.core.EN_Keywords</text>
<text text-anchor="start" x="46.5" y="-1094" font-family="Helvetica,sans-Serif" font-size="10.00">_Empty_Test.tc_VerifyTooltip</text>
<text text-anchor="middle" x="113.5" y="-1083" font-family="Helvetica,sans-Serif" font-size="10.00">REGX_Empty</text>
</a>
</g>
</g>
<!-- Node4324&#45;&gt;Node4328 -->
<g id="edge5" class="edge"><title>Node4324&#45;&gt;Node4328</title>
<path fill="none" stroke="midnightblue" d="M342.283,-679.298C343.732,-744.687 339.149,-955.87 227,-1066.5 216.495,-1076.86 202.833,-1083.75 188.669,-1088.31"/>
<polygon fill="midnightblue" stroke="midnightblue" points="345.777,-679.04 341.979,-669.149 338.78,-679.25 345.777,-679.04"/>
</g>
<!-- Node4329 -->
<g id="node7" class="node"><title>Node4329</title>
<g id="a_node7"><a xlink:href="classokw_1_1core_1_1_e_n___keywords___i_g_n_o_r_e___test.html#a20f3ee244b7bbb234bed5b2e8ab7811c" target="_top" xlink:title=" ">
<polygon fill="white" stroke="black" points="38,-1016 38,-1057 189,-1057 189,-1016 38,-1016"/>
<text text-anchor="start" x="46" y="-1045" font-family="Helvetica,sans-Serif" font-size="10.00">okw.core.EN_Keywords</text>
<text text-anchor="start" x="46" y="-1034" font-family="Helvetica,sans-Serif" font-size="10.00">_IGNORE_Test.tcVerifyTooltip</text>
<text text-anchor="middle" x="113.5" y="-1023" font-family="Helvetica,sans-Serif" font-size="10.00">REGX_IGNORE</text>
</a>
</g>
</g>
<!-- Node4324&#45;&gt;Node4329 -->
<g id="edge6" class="edge"><title>Node4324&#45;&gt;Node4329</title>
<path fill="none" stroke="midnightblue" d="M341.153,-679.434C339.003,-738.58 324.33,-914.668 227,-1006.5 216.488,-1016.42 203.072,-1023.14 189.194,-1027.67"/>
<polygon fill="midnightblue" stroke="midnightblue" points="344.658,-679.317 341.437,-669.223 337.66,-679.122 344.658,-679.317"/>
</g>
<!-- Node4330 -->
<g id="node8" class="node"><title>Node4330</title>
<g id="a_node8"><a xlink:href="classokw_1_1core_1_1_e_n___keywords___i_g_n_o_r_e___test.html#a0e832d37692f2a6dd0126e1b149158cc" target="_top" xlink:title=" ">
<polygon fill="white" stroke="black" points="38,-956 38,-997 189,-997 189,-956 38,-956"/>
<text text-anchor="start" x="46" y="-985" font-family="Helvetica,sans-Serif" font-size="10.00">okw.core.EN_Keywords</text>
<text text-anchor="start" x="46" y="-974" font-family="Helvetica,sans-Serif" font-size="10.00">_IGNORE_Test.tcVerifyTooltip</text>
<text text-anchor="middle" x="113.5" y="-963" font-family="Helvetica,sans-Serif" font-size="10.00">REGX_IGNORE_EmptyString</text>
</a>
</g>
</g>
<!-- Node4324&#45;&gt;Node4330 -->
<g id="edge7" class="edge"><title>Node4324&#45;&gt;Node4330</title>
<path fill="none" stroke="midnightblue" d="M339.654,-679.483C333.715,-731.85 310.318,-874.079 227,-947.5 216.256,-956.968 202.818,-963.415 189.007,-967.788"/>
<polygon fill="midnightblue" stroke="midnightblue" points="343.168,-679.52 340.72,-669.212 336.206,-678.797 343.168,-679.52"/>
</g>
<!-- Node4331 -->
<g id="node9" class="node"><title>Node4331</title>
<g id="a_node9"><a xlink:href="classokw_1_1core_1_1_e_n___keywords___test.html#a4d7892135a93d12285182124b2f2b068" target="_top" xlink:title="&quot;Normaler&quot; Testfall für das Schlüsselwort VerifyTooltipREGX.">
<polygon fill="white" stroke="black" points="43.5,-907.5 43.5,-937.5 183.5,-937.5 183.5,-907.5 43.5,-907.5"/>
<text text-anchor="start" x="51.5" y="-925.5" font-family="Helvetica,sans-Serif" font-size="10.00">okw.core.EN_Keywords</text>
<text text-anchor="middle" x="113.5" y="-914.5" font-family="Helvetica,sans-Serif" font-size="10.00">_Test.tc_VerifyTooltipREGX</text>
</a>
</g>
</g>
<!-- Node4324&#45;&gt;Node4331 -->
<g id="edge8" class="edge"><title>Node4324&#45;&gt;Node4331</title>
<path fill="none" stroke="midnightblue" d="M338.154,-679.023C329.184,-725.071 300.129,-840.907 227,-898.5 214.605,-908.261 199.147,-914.284 183.697,-917.945"/>
<polygon fill="midnightblue" stroke="midnightblue" points="341.607,-679.596 339.977,-669.128 334.723,-678.328 341.607,-679.596"/>
</g>
<!-- Node4332 -->
<g id="node10" class="node"><title>Node4332</title>
<g id="a_node10"><a xlink:href="classokw_1_1core_1_1_e_n___o_k_w_frame_object_child_not_found_exception___test.html#a67ef75467aa8833b654650e5e04334ad" target="_top" xlink:title="Prüft ob die Ausnahme OKWFrameObjectChildNotFoundException durch die LFC&#45;VerifyValue ausgelöst wird,...">
<polygon fill="white" stroke="black" points="3,-836.5 3,-888.5 224,-888.5 224,-836.5 3,-836.5"/>
<text text-anchor="start" x="11" y="-876.5" font-family="Helvetica,sans-Serif" font-size="10.00">okw.core.EN_OKWFrameObject</text>
<text text-anchor="start" x="11" y="-865.5" font-family="Helvetica,sans-Serif" font-size="10.00">ChildNotFoundException</text>
<text text-anchor="start" x="11" y="-854.5" font-family="Helvetica,sans-Serif" font-size="10.00">_Test.TC_VerifyTooltipREGX</text>
<text text-anchor="middle" x="113.5" y="-843.5" font-family="Helvetica,sans-Serif" font-size="10.00">_OKWFrameObjectChildNotFoundException</text>
</a>
</g>
</g>
<!-- Node4324&#45;&gt;Node4332 -->
<g id="edge9" class="edge"><title>Node4324&#45;&gt;Node4332</title>
<path fill="none" stroke="midnightblue" d="M333.637,-678.616C318.341,-713.448 281.253,-787.351 227,-827.5 222.561,-830.785 217.806,-833.767 212.853,-836.472"/>
<polygon fill="midnightblue" stroke="midnightblue" points="336.974,-679.713 337.679,-669.141 330.536,-676.966 336.974,-679.713"/>
</g>
<!-- Node4333 -->
<g id="node11" class="node"><title>Node4333</title>
<g id="a_node11"><a xlink:href="classokw_1_1core_1_1_e_n___o_k_w_frame_object_method_not_implemented___test.html#a49e5ae8942fd79351ba9c34a591c9138" target="_top" xlink:title="Prüft ob die Ausnahme OKWFrameObjectMethodNotImplemented von VerifyTooltipREGX( FN,...">
<polygon fill="white" stroke="black" points="0,-765.5 0,-817.5 227,-817.5 227,-765.5 0,-765.5"/>
<text text-anchor="start" x="8" y="-805.5" font-family="Helvetica,sans-Serif" font-size="10.00">okw.core.EN_OKWFrameObject</text>
<text text-anchor="start" x="8" y="-794.5" font-family="Helvetica,sans-Serif" font-size="10.00">MethodNotImplemented_Test.TC</text>
<text text-anchor="start" x="8" y="-783.5" font-family="Helvetica,sans-Serif" font-size="10.00">_VerifyTooltipREGX_OKWFrameObjectMethod</text>
<text text-anchor="middle" x="113.5" y="-772.5" font-family="Helvetica,sans-Serif" font-size="10.00">NotImplemented</text>
</a>
</g>
</g>
<!-- Node4324&#45;&gt;Node4333 -->
<g id="edge10" class="edge"><title>Node4324&#45;&gt;Node4333</title>
<path fill="none" stroke="midnightblue" d="M325.559,-676.432C304.736,-697.65 266.283,-733.849 227,-755.5 220.445,-759.113 213.472,-762.427 206.333,-765.455"/>
<polygon fill="midnightblue" stroke="midnightblue" points="328.214,-678.721 332.641,-669.095 323.178,-673.859 328.214,-678.721"/>
</g>
<!-- Node4334 -->
<g id="node12" class="node"><title>Node4334</title>
<g id="a_node12"><a xlink:href="classokw_1_1core_1_1_e_n___o_k_w_not_allowed_value_exception___keywords___i_g_n_o_r_e.html#af13d5214a6e6b66e5d02bbb83902ac90" target="_top" xlink:title="Prüft ob &quot;${IGNORE} &quot; die Ausnahme okw.exceptions.OKWNotAllowedValueException auslöst.">
<polygon fill="white" stroke="black" points="16,-705 16,-746 211,-746 211,-705 16,-705"/>
<text text-anchor="start" x="24" y="-734" font-family="Helvetica,sans-Serif" font-size="10.00">okw.core.EN_OKWNotAllowed</text>
<text text-anchor="start" x="24" y="-723" font-family="Helvetica,sans-Serif" font-size="10.00">ValueException_Keywords</text>
<text text-anchor="middle" x="113.5" y="-712" font-family="Helvetica,sans-Serif" font-size="10.00">_IGNORE.tcVerifyTooltipREGXIGNORE1</text>
</a>
</g>
</g>
<!-- Node4324&#45;&gt;Node4334 -->
<g id="edge11" class="edge"><title>Node4324&#45;&gt;Node4334</title>
<path fill="none" stroke="midnightblue" d="M302.734,-672.155C280.618,-679.257 252.336,-688.143 227,-695.5 216.129,-698.657 204.631,-701.868 193.301,-704.959"/>
<polygon fill="midnightblue" stroke="midnightblue" points="303.986,-675.429 312.429,-669.029 301.838,-668.767 303.986,-675.429"/>
</g>
<!-- Node4335 -->
<g id="node13" class="node"><title>Node4335</title>
<g id="a_node13"><a xlink:href="classokw_1_1core_1_1_e_n___verify_tooltip___o_k_w_verifying_fails_exception___test.html#a8ccb583551050c262693fffd9a2ee910" target="_top" xlink:title="Prüft, ob die Ausnahme OKWVerifyingFailsException bei einem Soll/Ist&#45;Vergleich ausgelöst wird.">
<polygon fill="white" stroke="black" points="22.5,-633.5 22.5,-685.5 204.5,-685.5 204.5,-633.5 22.5,-633.5"/>
<text text-anchor="start" x="30.5" y="-673.5" font-family="Helvetica,sans-Serif" font-size="10.00">okw.core.EN_VerifyTooltip</text>
<text text-anchor="start" x="30.5" y="-662.5" font-family="Helvetica,sans-Serif" font-size="10.00">_OKWVerifyingFailsException</text>
<text text-anchor="start" x="30.5" y="-651.5" font-family="Helvetica,sans-Serif" font-size="10.00">_Test.tc_VerifyTooltipREGX</text>
<text text-anchor="middle" x="113.5" y="-640.5" font-family="Helvetica,sans-Serif" font-size="10.00">_OKWVerifyingFailsException_SV01</text>
</a>
</g>
</g>
<!-- Node4324&#45;&gt;Node4335 -->
<g id="edge12" class="edge"><title>Node4324&#45;&gt;Node4335</title>
<path fill="none" stroke="midnightblue" d="M252.544,-659.5C236.859,-659.5 220.516,-659.5 204.795,-659.5"/>
<polygon fill="midnightblue" stroke="midnightblue" points="252.744,-663 262.743,-659.5 252.743,-656 252.744,-663"/>
</g>
<!-- Node4336 -->
<g id="node14" class="node"><title>Node4336</title>
<g id="a_node14"><a xlink:href="classokw_1_1core_1_1_e_n___verify_tooltip___o_k_w_verifying_fails_exception___test.html#afcc7ba99a1d101171e6a7bc321cb21b2" target="_top" xlink:title="Prüft, ob die Ausnahme OKWVerifyingFailsException bei einem Soll/Ist&#45;Vergleich ausgelöst wird.">
<polygon fill="white" stroke="black" points="22.5,-562.5 22.5,-614.5 204.5,-614.5 204.5,-562.5 22.5,-562.5"/>
<text text-anchor="start" x="30.5" y="-602.5" font-family="Helvetica,sans-Serif" font-size="10.00">okw.core.EN_VerifyTooltip</text>
<text text-anchor="start" x="30.5" y="-591.5" font-family="Helvetica,sans-Serif" font-size="10.00">_OKWVerifyingFailsException</text>
<text text-anchor="start" x="30.5" y="-580.5" font-family="Helvetica,sans-Serif" font-size="10.00">_Test.tc_VerifyTooltipREGX</text>
<text text-anchor="middle" x="113.5" y="-569.5" font-family="Helvetica,sans-Serif" font-size="10.00">_OKWVerifyingFailsException_SV02</text>
</a>
</g>
</g>
<!-- Node4324&#45;&gt;Node4336 -->
<g id="edge13" class="edge"><title>Node4324&#45;&gt;Node4336</title>
<path fill="none" stroke="midnightblue" d="M301.232,-646.905C272.589,-637.946 233.088,-625.591 197.79,-614.551"/>
<polygon fill="midnightblue" stroke="midnightblue" points="300.297,-650.28 310.886,-649.925 302.387,-643.599 300.297,-650.28"/>
</g>
<!-- Node4337 -->
<g id="node15" class="node"><title>Node4337</title>
<g id="a_node15"><a xlink:href="classokw_1_1core_1_1_e_n___verify_tooltip___o_k_w_verifying_fails_exception___test.html#ad05a50cec878061c929927d5fbb1faa5" target="_top" xlink:title="Prüft, ob die Ausnahme OKWVerifyingFailsException bei einem Soll/Ist&#45;Vergleich ausgelöst wird.">
<polygon fill="white" stroke="black" points="22.5,-491.5 22.5,-543.5 204.5,-543.5 204.5,-491.5 22.5,-491.5"/>
<text text-anchor="start" x="30.5" y="-531.5" font-family="Helvetica,sans-Serif" font-size="10.00">okw.core.EN_VerifyTooltip</text>
<text text-anchor="start" x="30.5" y="-520.5" font-family="Helvetica,sans-Serif" font-size="10.00">_OKWVerifyingFailsException</text>
<text text-anchor="start" x="30.5" y="-509.5" font-family="Helvetica,sans-Serif" font-size="10.00">_Test.tc_VerifyTooltipREGX</text>
<text text-anchor="middle" x="113.5" y="-498.5" font-family="Helvetica,sans-Serif" font-size="10.00">_OKWVerifyingFailsException_SV03</text>
</a>
</g>
</g>
<!-- Node4324&#45;&gt;Node4337 -->
<g id="edge14" class="edge"><title>Node4324&#45;&gt;Node4337</title>
<path fill="none" stroke="midnightblue" d="M327.125,-642.092C307.006,-618.782 268.257,-577.579 227,-553.5 220.004,-549.417 212.489,-545.737 204.781,-542.433"/>
<polygon fill="midnightblue" stroke="midnightblue" points="324.528,-644.441 333.665,-649.806 329.868,-639.915 324.528,-644.441"/>
</g>
<!-- Node4338 -->
<g id="node16" class="node"><title>Node4338</title>
<g id="a_node16"><a xlink:href="classokw_1_1core_1_1_e_n___verify_tooltip___o_k_w_verifying_fails_exception___test.html#a622d9041c01e568cd522598e5547d6c8" target="_top" xlink:title="Prüft, ob die Ausnahme OKWVerifyingFailsException bei einem Soll/Ist&#45;Vergleich ausgelöst wird.">
<polygon fill="white" stroke="black" points="22,-420.5 22,-472.5 205,-472.5 205,-420.5 22,-420.5"/>
<text text-anchor="start" x="30" y="-460.5" font-family="Helvetica,sans-Serif" font-size="10.00">okw.core.EN_VerifyTooltip</text>
<text text-anchor="start" x="30" y="-449.5" font-family="Helvetica,sans-Serif" font-size="10.00">_OKWVerifyingFailsException</text>
<text text-anchor="start" x="30" y="-438.5" font-family="Helvetica,sans-Serif" font-size="10.00">_Test.tc_VerifyTooltipREGX</text>
<text text-anchor="middle" x="113.5" y="-427.5" font-family="Helvetica,sans-Serif" font-size="10.00">_OKWVerifyingFailsException_MV01</text>
</a>
</g>
</g>
<!-- Node4324&#45;&gt;Node4338 -->
<g id="edge15" class="edge"><title>Node4324&#45;&gt;Node4338</title>
<path fill="none" stroke="midnightblue" d="M334.291,-640.39C319.671,-604.191 283.082,-525.414 227,-482.5 220.323,-477.391 212.899,-472.994 205.138,-469.214"/>
<polygon fill="midnightblue" stroke="midnightblue" points="331.068,-641.757 337.976,-649.79 337.585,-639.202 331.068,-641.757"/>
</g>
<!-- Node4339 -->
<g id="node17" class="node"><title>Node4339</title>
<g id="a_node17"><a xlink:href="classokw_1_1core_1_1_e_n___verify_tooltip___o_k_w_verifying_fails_exception___test.html#a63f1162487835d82d6a7308badb692b0" target="_top" xlink:title="Prüft, ob die Ausnahme OKWVerifyingFailsException bei einem Soll/Ist&#45;Vergleich ausgelöst wird.">
<polygon fill="white" stroke="black" points="22,-349.5 22,-401.5 205,-401.5 205,-349.5 22,-349.5"/>
<text text-anchor="start" x="30" y="-389.5" font-family="Helvetica,sans-Serif" font-size="10.00">okw.core.EN_VerifyTooltip</text>
<text text-anchor="start" x="30" y="-378.5" font-family="Helvetica,sans-Serif" font-size="10.00">_OKWVerifyingFailsException</text>
<text text-anchor="start" x="30" y="-367.5" font-family="Helvetica,sans-Serif" font-size="10.00">_Test.tc_VerifyTooltipREGX</text>
<text text-anchor="middle" x="113.5" y="-356.5" font-family="Helvetica,sans-Serif" font-size="10.00">_OKWVerifyingFailsException_MV02</text>
</a>
</g>
</g>
<!-- Node4324&#45;&gt;Node4339 -->
<g id="edge16" class="edge"><title>Node4324&#45;&gt;Node4339</title>
<path fill="none" stroke="midnightblue" d="M337.989,-639.742C328.66,-593.05 298.88,-475.052 227,-411.5 220.471,-405.727 213.009,-400.879 205.103,-396.807"/>
<polygon fill="midnightblue" stroke="midnightblue" points="334.589,-640.595 339.892,-649.767 341.466,-639.29 334.589,-640.595"/>
</g>
<!-- Node4340 -->
<g id="node18" class="node"><title>Node4340</title>
<g id="a_node18"><a xlink:href="classokw_1_1core_1_1_e_n___verify_tooltip___o_k_w_verifying_fails_exception___test.html#a01d6227fa82539ae2d360217d9b97c16" target="_top" xlink:title="Prüft, ob die Ausnahme OKWVerifyingFailsException bei einem Soll/Ist&#45;Vergleich ausgelöst wird.">
<polygon fill="white" stroke="black" points="22,-278.5 22,-330.5 205,-330.5 205,-278.5 22,-278.5"/>
<text text-anchor="start" x="30" y="-318.5" font-family="Helvetica,sans-Serif" font-size="10.00">okw.core.EN_VerifyTooltip</text>
<text text-anchor="start" x="30" y="-307.5" font-family="Helvetica,sans-Serif" font-size="10.00">_OKWVerifyingFailsException</text>
<text text-anchor="start" x="30" y="-296.5" font-family="Helvetica,sans-Serif" font-size="10.00">_Test.tc_VerifyTooltipREGX</text>
<text text-anchor="middle" x="113.5" y="-285.5" font-family="Helvetica,sans-Serif" font-size="10.00">_OKWVerifyingFailsException_MV03</text>
</a>
</g>
</g>
<!-- Node4324&#45;&gt;Node4340 -->
<g id="edge17" class="edge"><title>Node4324&#45;&gt;Node4340</title>
<path fill="none" stroke="midnightblue" d="M340.262,-639.557C335.732,-583.969 315.319,-425.788 227,-340.5 220.583,-334.303 213.099,-329.173 205.095,-324.926"/>
<polygon fill="midnightblue" stroke="midnightblue" points="336.791,-640.078 341.006,-649.798 343.772,-639.571 336.791,-640.078"/>
</g>
<!-- Node4341 -->
<g id="node19" class="node"><title>Node4341</title>
<g id="a_node19"><a xlink:href="classokw_1_1core_1_1_e_n___verify_tooltip___o_k_w_verifying_fails_exception___test.html#a367215d5ebe740d537634f2417cc18a4" target="_top" xlink:title="Prüft, ob die Ausnahme OKWVerifyingFailsException bei einem Soll/Ist&#45;Vergleich ausgelöst wird.">
<polygon fill="white" stroke="black" points="22,-207.5 22,-259.5 205,-259.5 205,-207.5 22,-207.5"/>
<text text-anchor="start" x="30" y="-247.5" font-family="Helvetica,sans-Serif" font-size="10.00">okw.core.EN_VerifyTooltip</text>
<text text-anchor="start" x="30" y="-236.5" font-family="Helvetica,sans-Serif" font-size="10.00">_OKWVerifyingFailsException</text>
<text text-anchor="start" x="30" y="-225.5" font-family="Helvetica,sans-Serif" font-size="10.00">_Test.tc_VerifyTooltipREGX</text>
<text text-anchor="middle" x="113.5" y="-214.5" font-family="Helvetica,sans-Serif" font-size="10.00">_OKWVerifyingFailsException_MV04</text>
</a>
</g>
</g>
<!-- Node4324&#45;&gt;Node4341 -->
<g id="edge18" class="edge"><title>Node4324&#45;&gt;Node4341</title>
<path fill="none" stroke="midnightblue" d="M341.781,-639.495C341.557,-576.046 332.104,-377.173 227,-269.5 220.697,-263.043 213.238,-257.742 205.205,-253.391"/>
<polygon fill="midnightblue" stroke="midnightblue" points="338.28,-639.698 341.737,-649.713 345.28,-639.729 338.28,-639.698"/>
</g>
<!-- Node4342 -->
<g id="node20" class="node"><title>Node4342</title>
<g id="a_node20"><a xlink:href="classokw_1_1_se_b_a_c_k_1_1_se_b_a_c_k___e_n___test.html#aa506d0f636702c7813812ae0d60744b2" target="_top" xlink:title="Test des Schlüsselwortes &quot;VerifyTooltipREGX( FN, ExpVal ) für SeBACK.">
<polygon fill="white" stroke="black" points="3,-147 3,-188 224,-188 224,-147 3,-147"/>
<text text-anchor="start" x="11" y="-176" font-family="Helvetica,sans-Serif" font-size="10.00">okw.SeBACK.SeBACK_EN</text>
<text text-anchor="start" x="11" y="-165" font-family="Helvetica,sans-Serif" font-size="10.00">_Test.tcVerifyTooltipREGX</text>
<text text-anchor="middle" x="113.5" y="-154" font-family="Helvetica,sans-Serif" font-size="10.00">_OKWFrameObjectMethodNotImplemented</text>
</a>
</g>
</g>
<!-- Node4324&#45;&gt;Node4342 -->
<g id="edge19" class="edge"><title>Node4324&#45;&gt;Node4342</title>
<path fill="none" stroke="midnightblue" d="M339.248,-639.799C329.769,-560.239 290.647,-263.787 227,-198.5 223.182,-194.583 218.917,-191.148 214.344,-188.136"/>
<polygon fill="midnightblue" stroke="midnightblue" points="335.792,-640.385 340.43,-649.911 342.745,-639.572 335.792,-640.385"/>
</g>
<!-- Node4343 -->
<g id="node21" class="node"><title>Node4343</title>
<g id="a_node21"><a xlink:href="classokw_1_1_se_button_1_1_se_button___e_n___test.html#af883e7b19c2d512497658feee9d89547" target="_top" xlink:title="Test des Schlüsselwortes VerifyToolTip für den GUI&#45;Adapter SeButton.">
<polygon fill="white" stroke="black" points="36,-98.5 36,-128.5 191,-128.5 191,-98.5 36,-98.5"/>
<text text-anchor="start" x="44" y="-116.5" font-family="Helvetica,sans-Serif" font-size="10.00">okw.SeButton.SeButton</text>
<text text-anchor="middle" x="113.5" y="-105.5" font-family="Helvetica,sans-Serif" font-size="10.00">_EN_Test.tcVerifyToolTipREGX</text>
</a>
</g>
</g>
<!-- Node4324&#45;&gt;Node4343 -->
<g id="edge20" class="edge"><title>Node4324&#45;&gt;Node4343</title>
<path fill="none" stroke="midnightblue" d="M339.984,-639.893C332.932,-553.833 300.513,-210.592 227,-137.5 217.228,-127.784 204.551,-121.562 191.245,-117.657"/>
<polygon fill="midnightblue" stroke="midnightblue" points="336.497,-640.192 340.782,-649.882 343.475,-639.635 336.497,-640.192"/>
</g>
<!-- Node4344 -->
<g id="node22" class="node"><title>Node4344</title>
<g id="a_node22"><a xlink:href="classokw_1_1_se_input_radio_1_1_se_input_radio___e_n___test.html#ada3de30a068faa7cd81830fa5a0746b6" target="_top" xlink:title="Test des Schlüsselwortes VerifyToolTip für den GUI&#45;Adapter SeInputRadio.">
<polygon fill="white" stroke="black" points="20.5,-49.5 20.5,-79.5 206.5,-79.5 206.5,-49.5 20.5,-49.5"/>
<text text-anchor="start" x="28.5" y="-67.5" font-family="Helvetica,sans-Serif" font-size="10.00">okw.SeInputRadio.SeInput</text>
<text text-anchor="middle" x="113.5" y="-56.5" font-family="Helvetica,sans-Serif" font-size="10.00">Radio_EN_Test.tc_VerifyToolTipREGX</text>
</a>
</g>
</g>
<!-- Node4324&#45;&gt;Node4344 -->
<g id="edge21" class="edge"><title>Node4324&#45;&gt;Node4344</title>
<path fill="none" stroke="midnightblue" d="M340.357,-639.875C334.665,-549.057 306.427,-170.567 227,-89.5 221.119,-83.4976 214.14,-78.7919 206.581,-75.1189"/>
<polygon fill="midnightblue" stroke="midnightblue" points="336.866,-640.133 340.965,-649.903 343.853,-639.709 336.866,-640.133"/>
</g>
<!-- Node4345 -->
<g id="node23" class="node"><title>Node4345</title>
<g id="a_node23"><a xlink:href="classokw_1_1_se_m_a_x_i_m_i_z_e_1_1_se_m_a_x_i_m_i_z_e___e_n___test.html#a46e1acccc2e73bfcdb10fb80d0446b61" target="_top" xlink:title="Test des Schlüsselwortes &quot;VerifyTooltipREGX( FN, ExpVal ) für SeMAXIMIZE.">
<polygon fill="white" stroke="black" points="33.5,-0.5 33.5,-30.5 193.5,-30.5 193.5,-0.5 33.5,-0.5"/>
<text text-anchor="start" x="41.5" y="-18.5" font-family="Helvetica,sans-Serif" font-size="10.00">okw.SeMAXIMIZE.SeMAXIMIZE</text>
<text text-anchor="middle" x="113.5" y="-7.5" font-family="Helvetica,sans-Serif" font-size="10.00">_EN_Test.tcVerifyTooltipREGX</text>
</a>
</g>
</g>
<!-- Node4324&#45;&gt;Node4345 -->
<g id="edge22" class="edge"><title>Node4324&#45;&gt;Node4345</title>
<path fill="none" stroke="midnightblue" d="M340.674,-639.422C336.296,-543.093 312.681,-129.301 227,-40.5 217.901,-31.0691 206.093,-24.8276 193.558,-20.7608"/>
<polygon fill="midnightblue" stroke="midnightblue" points="337.183,-639.715 341.115,-649.553 344.176,-639.41 337.183,-639.715"/>
</g>
</g>
</svg>
