<?xml version="1.0" encoding="UTF-8" standalone="no"?>
<!DOCTYPE svg PUBLIC "-//W3C//DTD SVG 1.1//EN"
 "http://www.w3.org/Graphics/SVG/1.1/DTD/svg11.dtd">
<!-- Generated by graphviz version 2.36.0 (20140111.2315)
 -->
<!-- Title: okw.core.EN_OKWNotAllowedValueException_Keywords_IGNORE.tcVerifyExistsIGNORE2 Pages: 1 -->
<svg width="1140pt" height="301pt"
 viewBox="0.00 0.00 1140.00 301.00" xmlns="http://www.w3.org/2000/svg" xmlns:xlink="http://www.w3.org/1999/xlink">
<g id="graph0" class="graph" transform="scale(1 1) rotate(0) translate(4 297)">
<title>okw.core.EN_OKWNotAllowedValueException_Keywords_IGNORE.tcVerifyExistsIGNORE2</title>
<polygon fill="white" stroke="none" points="-4,4 -4,-297 1136,-297 1136,4 -4,4"/>
<!-- Node702 -->
<g id="node1" class="node"><title>Node702</title>
<polygon fill="#bfbfbf" stroke="black" points="0.5,-106.5 0.5,-147.5 171.5,-147.5 171.5,-106.5 0.5,-106.5"/>
<text text-anchor="start" x="8.5" y="-135.5" font-family="Helvetica,sans-Serif" font-size="10.00">okw.core.EN_OKWNotAllowed</text>
<text text-anchor="start" x="8.5" y="-124.5" font-family="Helvetica,sans-Serif" font-size="10.00">ValueException_Keywords</text>
<text text-anchor="middle" x="86" y="-113.5" font-family="Helvetica,sans-Serif" font-size="10.00">_IGNORE.tcVerifyExistsIGNORE2</text>
</g>
<!-- Node703 -->
<g id="node2" class="node"><title>Node703</title>
<g id="a_node2"><a xlink:href="classokw_1_1core_1_1_e_n.html#aef613b0a3e6bb8a9623984db145cae69" target="_top" xlink:title="Markiert den Anfang eines neuen Testfalls. ">
<polygon fill="white" stroke="black" points="217.5,-79.5 217.5,-98.5 338.5,-98.5 338.5,-79.5 217.5,-79.5"/>
<text text-anchor="middle" x="278" y="-86.5" font-family="Helvetica,sans-Serif" font-size="10.00">okw.core.EN.BeginTest</text>
</a>
</g>
</g>
<!-- Node702&#45;&gt;Node703 -->
<g id="edge1" class="edge"><title>Node702&#45;&gt;Node703</title>
<path fill="none" stroke="midnightblue" d="M171.72,-110.056C187.801,-106.84 204.279,-103.544 219.283,-100.543"/>
<polygon fill="midnightblue" stroke="midnightblue" points="220.292,-103.911 229.411,-98.5178 218.919,-97.047 220.292,-103.911"/>
</g>
<!-- Node709 -->
<g id="node8" class="node"><title>Node709</title>
<g id="a_node8"><a xlink:href="classokw_1_1core_1_1_e_n.html#a2b61c2b39a9cfdbdfd25fe0e3d43785b" target="_top" xlink:title="Setzt den Kontext auf das gegebene Fenster. ">
<polygon fill="white" stroke="black" points="208,-155.5 208,-174.5 348,-174.5 348,-155.5 208,-155.5"/>
<text text-anchor="middle" x="278" y="-162.5" font-family="Helvetica,sans-Serif" font-size="10.00">okw.core.EN.SelectWindow</text>
</a>
</g>
</g>
<!-- Node702&#45;&gt;Node709 -->
<g id="edge7" class="edge"><title>Node702&#45;&gt;Node709</title>
<path fill="none" stroke="midnightblue" d="M171.72,-143.944C187.801,-147.16 204.279,-150.456 219.283,-153.457"/>
<polygon fill="midnightblue" stroke="midnightblue" points="218.919,-156.953 229.411,-155.482 220.292,-150.089 218.919,-156.953"/>
</g>
<!-- Node716 -->
<g id="node15" class="node"><title>Node716</title>
<g id="a_node15"><a xlink:href="classokw_1_1core_1_1_e_n.html#afbdb32a44d83abbf58222e5920004f28" target="_top" xlink:title="Prüft, ob das gegebene Objekt existiert. ">
<polygon fill="white" stroke="black" points="213,-117.5 213,-136.5 343,-136.5 343,-117.5 213,-117.5"/>
<text text-anchor="middle" x="278" y="-124.5" font-family="Helvetica,sans-Serif" font-size="10.00">okw.core.EN.VerifyExists</text>
</a>
</g>
</g>
<!-- Node702&#45;&gt;Node716 -->
<g id="edge15" class="edge"><title>Node702&#45;&gt;Node716</title>
<path fill="none" stroke="midnightblue" d="M171.72,-127C182.111,-127 192.667,-127 202.885,-127"/>
<polygon fill="midnightblue" stroke="midnightblue" points="202.971,-130.5 212.971,-127 202.971,-123.5 202.971,-130.5"/>
</g>
<!-- Node704 -->
<g id="node3" class="node"><title>Node704</title>
<g id="a_node3"><a xlink:href="classokw_1_1core_1_1_core.html#ab4e0f723d27cb11c944ec4c82c426100" target="_top" xlink:title="Setzt die Sprache auf den gegebenen wert Language. ">
<polygon fill="white" stroke="black" points="387.5,-98.5 387.5,-117.5 526.5,-117.5 526.5,-98.5 387.5,-98.5"/>
<text text-anchor="middle" x="457" y="-105.5" font-family="Helvetica,sans-Serif" font-size="10.00">okw.core.Core.setLanguage</text>
</a>
</g>
</g>
<!-- Node703&#45;&gt;Node704 -->
<g id="edge2" class="edge"><title>Node703&#45;&gt;Node704</title>
<path fill="none" stroke="midnightblue" d="M338.924,-95.4325C351.19,-96.7492 364.277,-98.154 377.092,-99.5296"/>
<polygon fill="midnightblue" stroke="midnightblue" points="376.974,-103.037 387.29,-100.624 377.721,-96.0769 376.974,-103.037"/>
</g>
<!-- Node706 -->
<g id="node5" class="node"><title>Node706</title>
<g id="a_node5"><a xlink:href="classokw_1_1core_1_1_core.html#acfefe92468c9eb9e951846372726c4d8" target="_top" xlink:title="Markiert den Anfang eines neuen Testfalls. ">
<polygon fill="white" stroke="black" points="393,-49.5 393,-68.5 521,-68.5 521,-49.5 393,-49.5"/>
<text text-anchor="middle" x="457" y="-56.5" font-family="Helvetica,sans-Serif" font-size="10.00">okw.core.Core.BeginTest</text>
</a>
</g>
</g>
<!-- Node703&#45;&gt;Node706 -->
<g id="edge4" class="edge"><title>Node703&#45;&gt;Node706</title>
<path fill="none" stroke="midnightblue" d="M335.491,-79.4253C352.659,-76.5154 371.685,-73.2907 389.451,-70.2795"/>
<polygon fill="midnightblue" stroke="midnightblue" points="390.468,-73.6571 399.742,-68.5352 389.298,-66.7556 390.468,-73.6571"/>
</g>
<!-- Node705 -->
<g id="node4" class="node"><title>Node705</title>
<g id="a_node4"><a xlink:href="interfaceokw_1_1core_1_1_i_o_k_w___state.html#a866baa0bde08a47418f54d63bdb56097" target="_top" xlink:title="Interne Methode zum setzen der Sprache für die sprachabhängigen Ausgaben der Dokumentation (Log)...">
<polygon fill="white" stroke="black" points="566.5,-87.5 566.5,-106.5 739.5,-106.5 739.5,-87.5 566.5,-87.5"/>
<text text-anchor="middle" x="653" y="-94.5" font-family="Helvetica,sans-Serif" font-size="10.00">okw.core.IOKW_State.setLanguage</text>
</a>
</g>
</g>
<!-- Node704&#45;&gt;Node705 -->
<g id="edge3" class="edge"><title>Node704&#45;&gt;Node705</title>
<path fill="none" stroke="midnightblue" d="M526.67,-104.106C536.317,-103.559 546.373,-102.989 556.409,-102.42"/>
<polygon fill="midnightblue" stroke="midnightblue" points="556.637,-105.913 566.422,-101.852 556.24,-98.9241 556.637,-105.913"/>
</g>
<!-- Node707 -->
<g id="node6" class="node"><title>Node707</title>
<g id="a_node6"><a xlink:href="classokw_1_1log_1_1_logger___sngltn.html#a60f4ad59db847ae61df928f9920f3deb" target="_top" xlink:title="Ausgabe des Testfalls. ">
<polygon fill="white" stroke="black" points="586,-0 586,-30 720,-30 720,-0 586,-0"/>
<text text-anchor="start" x="594" y="-18" font-family="Helvetica,sans-Serif" font-size="10.00">okw.log.Logger_Sngltn.Log</text>
<text text-anchor="middle" x="653" y="-7" font-family="Helvetica,sans-Serif" font-size="10.00">TestcaseStart</text>
</a>
</g>
</g>
<!-- Node706&#45;&gt;Node707 -->
<g id="edge5" class="edge"><title>Node706&#45;&gt;Node707</title>
<path fill="none" stroke="midnightblue" d="M500.095,-49.4527C522.329,-44.41 550.3,-38.0659 576.162,-32.2003"/>
<polygon fill="midnightblue" stroke="midnightblue" points="576.976,-35.6046 585.955,-29.9794 575.428,-28.778 576.976,-35.6046"/>
</g>
<!-- Node708 -->
<g id="node7" class="node"><title>Node708</title>
<g id="a_node7"><a xlink:href="interfaceokw_1_1core_1_1_i_o_k_w___state.html#ae5480ddb1fc37eade5d899d335bc4b13" target="_top" xlink:title="Markiert den Anfang eines neuen Testfalls. ">
<polygon fill="white" stroke="black" points="572,-49.5 572,-68.5 734,-68.5 734,-49.5 572,-49.5"/>
<text text-anchor="middle" x="653" y="-56.5" font-family="Helvetica,sans-Serif" font-size="10.00">okw.core.IOKW_State.BeginTest</text>
</a>
</g>
</g>
<!-- Node706&#45;&gt;Node708 -->
<g id="edge6" class="edge"><title>Node706&#45;&gt;Node708</title>
<path fill="none" stroke="midnightblue" d="M521.254,-59C534.119,-59 547.888,-59 561.486,-59"/>
<polygon fill="midnightblue" stroke="midnightblue" points="561.834,-62.5001 571.834,-59 561.834,-55.5001 561.834,-62.5001"/>
</g>
<!-- Node709&#45;&gt;Node704 -->
<g id="edge8" class="edge"><title>Node709&#45;&gt;Node704</title>
<path fill="none" stroke="midnightblue" d="M315.664,-155.414C326.152,-152.534 337.566,-149.268 348,-146 372.562,-138.307 399.909,-128.674 420.939,-121.032"/>
<polygon fill="midnightblue" stroke="midnightblue" points="422.229,-124.287 430.419,-117.566 419.825,-117.713 422.229,-124.287"/>
</g>
<!-- Node710 -->
<g id="node9" class="node"><title>Node710</title>
<g id="a_node9"><a xlink:href="classokw_1_1core_1_1_core.html#a6a68660eb5e34965522896e2a5c48314" target="_top" xlink:title="Setzt den Kontext auf das gegebene Fenster. ">
<polygon fill="white" stroke="black" points="384,-202.5 384,-221.5 530,-221.5 530,-202.5 384,-202.5"/>
<text text-anchor="middle" x="457" y="-209.5" font-family="Helvetica,sans-Serif" font-size="10.00">okw.core.Core.SelectWindow</text>
</a>
</g>
</g>
<!-- Node709&#45;&gt;Node710 -->
<g id="edge9" class="edge"><title>Node709&#45;&gt;Node710</title>
<path fill="none" stroke="midnightblue" d="M314.819,-174.511C342.318,-181.813 380.486,-191.948 410.205,-199.84"/>
<polygon fill="midnightblue" stroke="midnightblue" points="409.368,-203.239 419.931,-202.422 411.165,-196.473 409.368,-203.239"/>
</g>
<!-- Node711 -->
<g id="node10" class="node"><title>Node711</title>
<g id="a_node10"><a xlink:href="classokw_1_1log_1_1_logger___sngltn.html#a70ec25e200e00ecefc544e8fd371d2ef" target="_top" xlink:title="Ausgabe eines Schlüsselwortes. ">
<polygon fill="white" stroke="black" points="586,-175 586,-205 720,-205 720,-175 586,-175"/>
<text text-anchor="start" x="594" y="-193" font-family="Helvetica,sans-Serif" font-size="10.00">okw.log.Logger_Sngltn.Log</text>
<text text-anchor="middle" x="653" y="-182" font-family="Helvetica,sans-Serif" font-size="10.00">KeyWordStart</text>
</a>
</g>
</g>
<!-- Node710&#45;&gt;Node711 -->
<g id="edge10" class="edge"><title>Node710&#45;&gt;Node711</title>
<path fill="none" stroke="midnightblue" d="M530.238,-203.808C545.031,-202.131 560.647,-200.36 575.58,-198.666"/>
<polygon fill="midnightblue" stroke="midnightblue" points="576.25,-202.113 585.792,-197.508 575.461,-195.157 576.25,-202.113"/>
</g>
<!-- Node712 -->
<g id="node11" class="node"><title>Node712</title>
<g id="a_node11"><a xlink:href="classokw_1_1_log_messenger.html#af225d1f037d47b3b085175c09d78bdd2" target="_top" xlink:title="Holt die Log&#45;Meldung für MethodeNmae/Textkey ohne weitere Parameter. ">
<polygon fill="white" stroke="black" points="573,-224.5 573,-243.5 733,-243.5 733,-224.5 573,-224.5"/>
<text text-anchor="middle" x="653" y="-231.5" font-family="Helvetica,sans-Serif" font-size="10.00">okw.LogMessenger.GetMessage</text>
</a>
</g>
</g>
<!-- Node710&#45;&gt;Node712 -->
<g id="edge11" class="edge"><title>Node710&#45;&gt;Node712</title>
<path fill="none" stroke="midnightblue" d="M530.238,-220.192C540.878,-221.399 551.944,-222.653 562.876,-223.893"/>
<polygon fill="midnightblue" stroke="midnightblue" points="562.53,-227.376 572.861,-225.025 563.319,-220.421 562.53,-227.376"/>
</g>
<!-- Node715 -->
<g id="node14" class="node"><title>Node715</title>
<g id="a_node14"><a xlink:href="interfaceokw_1_1core_1_1_i_o_k_w___state.html#ad4fc9610ed5b1176590a45b55e6ac7f0" target="_top" xlink:title="Setzt den Kontext auf das gegebene Fenster. ">
<polygon fill="white" stroke="black" points="580,-263 580,-293 726,-293 726,-263 580,-263"/>
<text text-anchor="start" x="588" y="-281" font-family="Helvetica,sans-Serif" font-size="10.00">okw.core.IOKW_State.Select</text>
<text text-anchor="middle" x="653" y="-270" font-family="Helvetica,sans-Serif" font-size="10.00">Window</text>
</a>
</g>
</g>
<!-- Node710&#45;&gt;Node715 -->
<g id="edge14" class="edge"><title>Node710&#45;&gt;Node715</title>
<path fill="none" stroke="midnightblue" d="M481.401,-221.504C503.146,-230.187 536.52,-243.137 566,-253 573.074,-255.367 580.517,-257.725 587.943,-259.994"/>
<polygon fill="midnightblue" stroke="midnightblue" points="587.077,-263.388 597.661,-262.918 589.094,-256.685 587.077,-263.388"/>
</g>
<!-- Node713 -->
<g id="node12" class="node"><title>Node713</title>
<g id="a_node12"><a xlink:href="classokw_1_1_log_messenger.html#a530cd6ab82ec82a04206a2e976ec06e3" target="_top" xlink:title="Interne Kernfunktion holt die Log&#45;Meldung mit Platzhaltern aus der XML&#45;Datei. ">
<polygon fill="white" stroke="black" points="776.5,-224.5 776.5,-243.5 943.5,-243.5 943.5,-224.5 776.5,-224.5"/>
<text text-anchor="middle" x="860" y="-231.5" font-family="Helvetica,sans-Serif" font-size="10.00">okw.LogMessenger.ReadMessage</text>
</a>
</g>
</g>
<!-- Node712&#45;&gt;Node713 -->
<g id="edge12" class="edge"><title>Node712&#45;&gt;Node713</title>
<path fill="none" stroke="midnightblue" d="M733.258,-234C744.041,-234 755.186,-234 766.181,-234"/>
<polygon fill="midnightblue" stroke="midnightblue" points="766.222,-237.5 776.222,-234 766.222,-230.5 766.222,-237.5"/>
</g>
<!-- Node714 -->
<g id="node13" class="node"><title>Node714</title>
<g id="a_node13"><a xlink:href="classokw_1_1_o_k_w___xml_reader.html#ab920b5335a2e1429c14cc5f8e79f39eb" target="_top" xlink:title="Lies den TextContent eines Tag. ">
<polygon fill="white" stroke="black" points="980,-219 980,-249 1132,-249 1132,-219 980,-219"/>
<text text-anchor="start" x="988" y="-237" font-family="Helvetica,sans-Serif" font-size="10.00">okw.OKW_XmlReader.getText</text>
<text text-anchor="middle" x="1056" y="-226" font-family="Helvetica,sans-Serif" font-size="10.00">ContentSingleValue</text>
</a>
</g>
</g>
<!-- Node713&#45;&gt;Node714 -->
<g id="edge13" class="edge"><title>Node713&#45;&gt;Node714</title>
<path fill="none" stroke="midnightblue" d="M943.555,-234C952.227,-234 961.057,-234 969.759,-234"/>
<polygon fill="midnightblue" stroke="midnightblue" points="969.899,-237.5 979.899,-234 969.899,-230.5 969.899,-237.5"/>
</g>
<!-- Node716&#45;&gt;Node704 -->
<g id="edge16" class="edge"><title>Node716&#45;&gt;Node704</title>
<path fill="none" stroke="midnightblue" d="M343.151,-120.114C354.247,-118.923 365.896,-117.672 377.323,-116.446"/>
<polygon fill="midnightblue" stroke="midnightblue" points="377.72,-119.923 387.29,-115.376 376.973,-112.963 377.72,-119.923"/>
</g>
<!-- Node717 -->
<g id="node16" class="node"><title>Node717</title>
<g id="a_node16"><a xlink:href="classokw_1_1core_1_1_core.html#a47af0e08b2bde199fc5d10dee040ac1b" target="_top" xlink:title="Prüft, ob das gegebene Objekt existiert. ">
<polygon fill="white" stroke="black" points="388.5,-147.5 388.5,-166.5 525.5,-166.5 525.5,-147.5 388.5,-147.5"/>
<text text-anchor="middle" x="457" y="-154.5" font-family="Helvetica,sans-Serif" font-size="10.00">okw.core.Core.VerifyExists</text>
</a>
</g>
</g>
<!-- Node716&#45;&gt;Node717 -->
<g id="edge17" class="edge"><title>Node716&#45;&gt;Node717</title>
<path fill="none" stroke="midnightblue" d="M335.491,-136.575C352.659,-139.485 371.685,-142.709 389.451,-145.721"/>
<polygon fill="midnightblue" stroke="midnightblue" points="389.298,-149.244 399.742,-147.465 390.468,-142.343 389.298,-149.244"/>
</g>
<!-- Node717&#45;&gt;Node711 -->
<g id="edge18" class="edge"><title>Node717&#45;&gt;Node711</title>
<path fill="none" stroke="midnightblue" d="M513.853,-166.501C533.188,-169.79 555.201,-173.534 575.884,-177.052"/>
<polygon fill="midnightblue" stroke="midnightblue" points="575.467,-180.532 585.913,-178.758 576.641,-173.631 575.467,-180.532"/>
</g>
<!-- Node717&#45;&gt;Node712 -->
<g id="edge19" class="edge"><title>Node717&#45;&gt;Node712</title>
<path fill="none" stroke="midnightblue" d="M478.042,-166.591C492.586,-173.656 512.668,-183.624 530,-193 546.292,-201.813 548.786,-207.159 566,-214 573.494,-216.978 581.54,-219.577 589.595,-221.827"/>
<polygon fill="midnightblue" stroke="midnightblue" points="588.826,-225.244 599.387,-224.4 590.605,-218.473 588.826,-225.244"/>
</g>
<!-- Node718 -->
<g id="node17" class="node"><title>Node718</title>
<g id="a_node17"><a xlink:href="interfaceokw_1_1core_1_1_i_o_k_w___state.html#aac781d7e7b1f3ea4ca2d138733f7f2f6" target="_top" xlink:title="Prüft, ob das gegebene Objekt existiert. ">
<polygon fill="white" stroke="black" points="581.5,-126 581.5,-156 724.5,-156 724.5,-126 581.5,-126"/>
<text text-anchor="start" x="589.5" y="-144" font-family="Helvetica,sans-Serif" font-size="10.00">okw.core.IOKW_State.Verify</text>
<text text-anchor="middle" x="653" y="-133" font-family="Helvetica,sans-Serif" font-size="10.00">Exists</text>
</a>
</g>
</g>
<!-- Node717&#45;&gt;Node718 -->
<g id="edge20" class="edge"><title>Node717&#45;&gt;Node718</title>
<path fill="none" stroke="midnightblue" d="M525.579,-151.426C540.239,-150.217 555.89,-148.927 571.007,-147.68"/>
<polygon fill="midnightblue" stroke="midnightblue" points="571.69,-151.135 581.368,-146.825 571.114,-144.159 571.69,-151.135"/>
</g>
</g>
</svg>
