<?xml version="1.0" encoding="UTF-8" standalone="no"?>
<!DOCTYPE svg PUBLIC "-//W3C//DTD SVG 1.1//EN"
 "http://www.w3.org/Graphics/SVG/1.1/DTD/svg11.dtd">
<!-- Generated by graphviz version 2.38.0 (20140413.2041)
 -->
<!-- Title: okw.gui.adapter.selenium.SeAnyWindow.getLabel Pages: 1 -->
<svg width="342pt" height="137pt"
 viewBox="0.00 0.00 342.00 137.00" xmlns="http://www.w3.org/2000/svg" xmlns:xlink="http://www.w3.org/1999/xlink">
<g id="graph0" class="graph" transform="scale(1 1) rotate(0) translate(4 133)">
<title>okw.gui.adapter.selenium.SeAnyWindow.getLabel</title>
<polygon fill="white" stroke="none" points="-4,4 -4,-133 338,-133 338,4 -4,4"/>
<!-- Node128 -->
<g id="node1" class="node"><title>Node128</title>
<g id="a_node1"><a xlink:title="Ermittelt den textuellen Inhalt des Labels.">
<polygon fill="#bfbfbf" stroke="black" points="194,-49.5 194,-79.5 334,-79.5 334,-49.5 194,-49.5"/>
<text text-anchor="start" x="202" y="-67.5" font-family="Helvetica,sans-Serif" font-size="10.00">okw.gui.adapter.selenium.</text>
<text text-anchor="middle" x="264" y="-56.5" font-family="Helvetica,sans-Serif" font-size="10.00">SeAnyWindow.getLabel</text>
</a>
</g>
</g>
<!-- Node129 -->
<g id="node2" class="node"><title>Node129</title>
<g id="a_node2"><a xlink:href="classokw_1_1gui_1_1adapter_1_1selenium_1_1_se_any_window.html#a7d9329528a1de239d3f545dbc4ab3349" target="_top" xlink:title="Logt den textuellen Inhalt des Labels eines Objektes.">
<polygon fill="white" stroke="black" points="9,-98.5 9,-128.5 149,-128.5 149,-98.5 9,-98.5"/>
<text text-anchor="start" x="17" y="-116.5" font-family="Helvetica,sans-Serif" font-size="10.00">okw.gui.adapter.selenium.</text>
<text text-anchor="middle" x="79" y="-105.5" font-family="Helvetica,sans-Serif" font-size="10.00">SeAnyWindow.LogLabel</text>
</a>
</g>
</g>
<!-- Node128&#45;&gt;Node129 -->
<g id="edge1" class="edge"><title>Node128&#45;&gt;Node129</title>
<path fill="none" stroke="midnightblue" d="M196.715,-82.2485C176.881,-87.5591 155.333,-93.3288 136.213,-98.4484"/>
<polygon fill="midnightblue" stroke="midnightblue" points="197.846,-85.5689 206.601,-79.6014 196.036,-78.8071 197.846,-85.5689"/>
</g>
<!-- Node130 -->
<g id="node3" class="node"><title>Node130</title>
<g id="a_node3"><a xlink:href="classokw_1_1gui_1_1adapter_1_1selenium_1_1_se_any_window.html#a26e0e12d54e793e6cb084161d22d173e" target="_top" xlink:title="Ermittelt den textuellen Inhalt des Labels f端r das Schl端sselwort MerkeWert.">
<polygon fill="white" stroke="black" points="-1.42109e-14,-49.5 -1.42109e-14,-79.5 158,-79.5 158,-49.5 -1.42109e-14,-49.5"/>
<text text-anchor="start" x="8" y="-67.5" font-family="Helvetica,sans-Serif" font-size="10.00">okw.gui.adapter.selenium.</text>
<text text-anchor="middle" x="79" y="-56.5" font-family="Helvetica,sans-Serif" font-size="10.00">SeAnyWindow.MemorizeLabel</text>
</a>
</g>
</g>
<!-- Node128&#45;&gt;Node130 -->
<g id="edge2" class="edge"><title>Node128&#45;&gt;Node130</title>
<path fill="none" stroke="midnightblue" d="M183.613,-64.5C175.175,-64.5 166.598,-64.5 158.175,-64.5"/>
<polygon fill="midnightblue" stroke="midnightblue" points="183.816,-68.0001 193.816,-64.5 183.816,-61.0001 183.816,-68.0001"/>
</g>
<!-- Node131 -->
<g id="node4" class="node"><title>Node131</title>
<g id="a_node4"><a xlink:href="classokw_1_1gui_1_1adapter_1_1selenium_1_1_se_any_window.html#af43e390e1ff415edf0f712ccad4c60e7" target="_top" xlink:title="Ermittelt den textuellen Inhalt des Labels f端r Pr端fewert.">
<polygon fill="white" stroke="black" points="9,-0.5 9,-30.5 149,-30.5 149,-0.5 9,-0.5"/>
<text text-anchor="start" x="17" y="-18.5" font-family="Helvetica,sans-Serif" font-size="10.00">okw.gui.adapter.selenium.</text>
<text text-anchor="middle" x="79" y="-7.5" font-family="Helvetica,sans-Serif" font-size="10.00">SeAnyWindow.VerifyLabel</text>
</a>
</g>
</g>
<!-- Node128&#45;&gt;Node131 -->
<g id="edge3" class="edge"><title>Node128&#45;&gt;Node131</title>
<path fill="none" stroke="midnightblue" d="M196.715,-46.7515C176.881,-41.4409 155.333,-35.6712 136.213,-30.5516"/>
<polygon fill="midnightblue" stroke="midnightblue" points="196.036,-50.1929 206.601,-49.3986 197.846,-43.4311 196.036,-50.1929"/>
</g>
</g>
</svg>
