<?xml version="1.0" encoding="UTF-8" standalone="no"?>
<!DOCTYPE svg PUBLIC "-//W3C//DTD SVG 1.1//EN"
 "http://www.w3.org/Graphics/SVG/1.1/DTD/svg11.dtd">
<!-- Generated by graphviz version 2.26.3 (20100126.1600)
 -->
<!-- Title: okw.core.EN_OKWNotAllowedValueException_Keywords_IGNORE.tcVerifyTooltipWCMIGNORE2 Pages: 1 -->
<!--zoomable 318 -->
<svg id="main" version="1.1" xmlns="http://www.w3.org/2000/svg" xmlns:xlink="http://www.w3.org/1999/xlink" xml:space="preserve" onload="init(evt)">
<style type="text/css"><![CDATA[
.edge:hover path { stroke: red; }
.edge:hover polygon { stroke: red; fill: red; }
]]></style>
<script type="text/javascript"><![CDATA[
var edges = document.getElementsByTagName('g');
if (edges && edges.length) {
  for (var i=0;i<edges.length;i++) {
    if (edges[i].id.substr(0,4)=='edge') {
      edges[i].setAttribute('class','edge');
    }
  }
}
]]></script>
        <defs>
                <circle id="rim" cx="0" cy="0" r="7"/>
                <circle id="rim2" cx="0" cy="0" r="3.5"/>
                <g id="zoomPlus">
                        <use xlink:href="#rim" fill="#404040">
                                <set attributeName="fill" to="#808080" begin="zoomplus.mouseover" end="zoomplus.mouseout"/>
                        </use>
                        <path d="M-4,0h8M0,-4v8" fill="none" stroke="white" stroke-width="1.5" pointer-events="none"/>
                </g>
                <g id="zoomMin">
                        <use xlink:href="#rim" fill="#404040">
                                <set attributeName="fill" to="#808080" begin="zoomminus.mouseover" end="zoomminus.mouseout"/>
                        </use>
                        <path d="M-4,0h8" fill="none" stroke="white" stroke-width="1.5" pointer-events="none"/>
                </g>
                <g id="dirArrow">
                        <path fill="none" stroke="white" stroke-width="1.5" d="M0,-3.0v7 M-2.5,-0.5L0,-3.0L2.5,-0.5"/>
                </g>
               <g id="resetDef">
                       <use xlink:href="#rim2" fill="#404040">
                               <set attributeName="fill" to="#808080" begin="reset.mouseover" end="reset.mouseout"/>
                       </use>
               </g>
        </defs>

<script type="text/javascript">
var viewWidth = 1202;
var viewHeight = 318;
var sectionId = 'dynsection-66';
</script>
<script xlink:href="svgpan.js"/>
<svg id="graph" class="graph">
<g id="viewport">
<title>okw.core.EN_OKWNotAllowedValueException_Keywords_IGNORE.tcVerifyTooltipWCMIGNORE2</title>
<polygon fill="white" stroke="white" points="-4,5 -4,-314 1199,-314 1199,5 -4,5"/>
<!-- Node1162 -->
<g id="node1" class="node"><title>Node1162</title>
<polygon fill="#bfbfbf" stroke="black" points="0,-110.5 0,-157.5 198,-157.5 198,-110.5 0,-110.5"/>
<text text-anchor="start" x="8" y="-144.5" font-family="Helvetica,sans-Serif" font-size="10.00">okw.core.EN_OKWNotAllowed</text>
<text text-anchor="start" x="8" y="-131.5" font-family="Helvetica,sans-Serif" font-size="10.00">ValueException_Keywords</text>
<text text-anchor="middle" x="99" y="-118.5" font-family="Helvetica,sans-Serif" font-size="10.00">_IGNORE.tcVerifyTooltipWCMIGNORE2</text>
</g>
<!-- Node1163 -->
<g id="node3" class="node"><title>Node1163</title>
<a xlink:href="classokw_1_1core_1_1_e_n.html#aef613b0a3e6bb8a9623984db145cae69" target="_top" xlink:title="Markiert den Anfang eines neuen Testfalls. ">
<polygon fill="white" stroke="black" points="252.5,-83.5 252.5,-104.5 373.5,-104.5 373.5,-83.5 252.5,-83.5"/>
<text text-anchor="middle" x="313" y="-91.5" font-family="Helvetica,sans-Serif" font-size="10.00">okw.core.EN.BeginTest</text>
</a>
</g>
<!-- Node1162&#45;&gt;Node1163 -->
<g id="edge2" class="edge"><title>Node1162&#45;&gt;Node1163</title>
<path fill="none" stroke="midnightblue" d="M198.169,-115.464C214.672,-112.379 231.424,-109.248 246.844,-106.366"/>
<polygon fill="midnightblue" stroke="midnightblue" points="247.583,-109.788 256.77,-104.51 246.297,-102.907 247.583,-109.788"/>
</g>
<!-- Node1169 -->
<g id="node15" class="node"><title>Node1169</title>
<a xlink:href="classokw_1_1core_1_1_e_n.html#a2b61c2b39a9cfdbdfd25fe0e3d43785b" target="_top" xlink:title="Setzt den Kontext auf das gegebene Fenster. ">
<polygon fill="white" stroke="black" points="243,-163.5 243,-184.5 383,-184.5 383,-163.5 243,-163.5"/>
<text text-anchor="middle" x="313" y="-171.5" font-family="Helvetica,sans-Serif" font-size="10.00">okw.core.EN.SelectWindow</text>
</a>
</g>
<!-- Node1162&#45;&gt;Node1169 -->
<g id="edge14" class="edge"><title>Node1162&#45;&gt;Node1169</title>
<path fill="none" stroke="midnightblue" d="M198.169,-152.536C214.672,-155.621 231.424,-158.752 246.844,-161.634"/>
<polygon fill="midnightblue" stroke="midnightblue" points="246.297,-165.093 256.77,-163.49 247.583,-158.212 246.297,-165.093"/>
</g>
<!-- Node1176 -->
<g id="node30" class="node"><title>Node1176</title>
<a xlink:href="classokw_1_1core_1_1_e_n.html#aab0f2e51f9be09e36fbd27a5c8c88511" target="_top" xlink:title="Prüft den Tooltip&#45;Text eines Objektes (in den meisten Fällen ist dies der angezeigte Text)...">
<polygon fill="white" stroke="black" points="234.5,-123.5 234.5,-144.5 391.5,-144.5 391.5,-123.5 234.5,-123.5"/>
<text text-anchor="middle" x="313" y="-131.5" font-family="Helvetica,sans-Serif" font-size="10.00">okw.core.EN.VerifyTooltipWCM</text>
</a>
</g>
<!-- Node1162&#45;&gt;Node1176 -->
<g id="edge30" class="edge"><title>Node1162&#45;&gt;Node1176</title>
<path fill="none" stroke="midnightblue" d="M198.169,-134C206.892,-134 215.685,-134 224.313,-134"/>
<polygon fill="midnightblue" stroke="midnightblue" points="224.353,-137.5 234.353,-134 224.353,-130.5 224.353,-137.5"/>
</g>
<!-- Node1164 -->
<g id="node5" class="node"><title>Node1164</title>
<a xlink:href="classokw_1_1core_1_1_core.html#ab4e0f723d27cb11c944ec4c82c426100" target="_top" xlink:title="Setzt die Sprache auf den gegebenen wert Language. ">
<polygon fill="white" stroke="black" points="440.5,-103.5 440.5,-124.5 579.5,-124.5 579.5,-103.5 440.5,-103.5"/>
<text text-anchor="middle" x="510" y="-111.5" font-family="Helvetica,sans-Serif" font-size="10.00">okw.core.Core.setLanguage</text>
</a>
</g>
<!-- Node1163&#45;&gt;Node1164 -->
<g id="edge4" class="edge"><title>Node1163&#45;&gt;Node1164</title>
<path fill="none" stroke="midnightblue" d="M373.714,-100.164C391.538,-101.973 411.309,-103.981 430.136,-105.892"/>
<polygon fill="midnightblue" stroke="midnightblue" points="429.877,-109.384 440.179,-106.912 430.584,-102.419 429.877,-109.384"/>
</g>
<!-- Node1166 -->
<g id="node9" class="node"><title>Node1166</title>
<a xlink:href="classokw_1_1core_1_1_core.html#acfefe92468c9eb9e951846372726c4d8" target="_top" xlink:title="Markiert den Anfang eines neuen Testfalls. ">
<polygon fill="white" stroke="black" points="446,-52.5 446,-73.5 574,-73.5 574,-52.5 446,-52.5"/>
<text text-anchor="middle" x="510" y="-60.5" font-family="Helvetica,sans-Serif" font-size="10.00">okw.core.Core.BeginTest</text>
</a>
</g>
<!-- Node1163&#45;&gt;Node1166 -->
<g id="edge8" class="edge"><title>Node1163&#45;&gt;Node1166</title>
<path fill="none" stroke="midnightblue" d="M373.714,-84.446C393.339,-81.3578 415.323,-77.8983 435.811,-74.6744"/>
<polygon fill="midnightblue" stroke="midnightblue" points="436.397,-78.1254 445.731,-73.1134 435.309,-71.2105 436.397,-78.1254"/>
</g>
<!-- Node1165 -->
<g id="node7" class="node"><title>Node1165</title>
<a xlink:href="interfaceokw_1_1core_1_1_i_o_k_w___state.html#a866baa0bde08a47418f54d63bdb56097" target="_top" xlink:title="Interne Methode zum setzen der Sprache für die sprachabhängigen Ausgaben der Dokumentation (Log)...">
<polygon fill="white" stroke="black" points="628.5,-92.5 628.5,-113.5 801.5,-113.5 801.5,-92.5 628.5,-92.5"/>
<text text-anchor="middle" x="715" y="-100.5" font-family="Helvetica,sans-Serif" font-size="10.00">okw.core.IOKW_State.setLanguage</text>
</a>
</g>
<!-- Node1164&#45;&gt;Node1165 -->
<g id="edge6" class="edge"><title>Node1164&#45;&gt;Node1165</title>
<path fill="none" stroke="midnightblue" d="M579.69,-110.261C592.054,-109.597 605.131,-108.895 618.088,-108.2"/>
<polygon fill="midnightblue" stroke="midnightblue" points="618.64,-111.676 628.438,-107.645 618.265,-104.686 618.64,-111.676"/>
</g>
<!-- Node1167 -->
<g id="node11" class="node"><title>Node1167</title>
<a xlink:href="classokw_1_1log_1_1_logger___sngltn.html#a60f4ad59db847ae61df928f9920f3deb" target="_top" xlink:title="Ausgabe des Testfalls. ">
<polygon fill="white" stroke="black" points="648,-0 648,-34 782,-34 782,-0 648,-0"/>
<text text-anchor="start" x="656" y="-21" font-family="Helvetica,sans-Serif" font-size="10.00">okw.log.Logger_Sngltn.Log</text>
<text text-anchor="middle" x="715" y="-8" font-family="Helvetica,sans-Serif" font-size="10.00">TestcaseStart</text>
</a>
</g>
<!-- Node1166&#45;&gt;Node1167 -->
<g id="edge10" class="edge"><title>Node1166&#45;&gt;Node1167</title>
<path fill="none" stroke="midnightblue" d="M557.031,-52.4467C581.035,-47.0604 610.847,-40.371 638.084,-34.2593"/>
<polygon fill="midnightblue" stroke="midnightblue" points="638.995,-37.6419 647.986,-32.0372 637.462,-30.8117 638.995,-37.6419"/>
</g>
<!-- Node1168 -->
<g id="node13" class="node"><title>Node1168</title>
<a xlink:href="interfaceokw_1_1core_1_1_i_o_k_w___state.html#ae5480ddb1fc37eade5d899d335bc4b13" target="_top" xlink:title="Markiert den Anfang eines neuen Testfalls. ">
<polygon fill="white" stroke="black" points="634,-52.5 634,-73.5 796,-73.5 796,-52.5 634,-52.5"/>
<text text-anchor="middle" x="715" y="-60.5" font-family="Helvetica,sans-Serif" font-size="10.00">okw.core.IOKW_State.BeginTest</text>
</a>
</g>
<!-- Node1166&#45;&gt;Node1168 -->
<g id="edge12" class="edge"><title>Node1166&#45;&gt;Node1168</title>
<path fill="none" stroke="midnightblue" d="M574.02,-63C589.683,-63 606.749,-63 623.425,-63"/>
<polygon fill="midnightblue" stroke="midnightblue" points="623.741,-66.5001 633.741,-63 623.741,-59.5001 623.741,-66.5001"/>
</g>
<!-- Node1169&#45;&gt;Node1164 -->
<g id="edge16" class="edge"><title>Node1169&#45;&gt;Node1164</title>
<path fill="none" stroke="midnightblue" d="M357.457,-163.399C368.771,-160.522 380.874,-157.288 392,-154 418.744,-146.095 448.477,-136.008 471.407,-127.941"/>
<polygon fill="midnightblue" stroke="midnightblue" points="472.85,-131.143 481.108,-124.505 470.513,-124.544 472.85,-131.143"/>
</g>
<!-- Node1170 -->
<g id="node18" class="node"><title>Node1170</title>
<a xlink:href="classokw_1_1core_1_1_core.html#a6a68660eb5e34965522896e2a5c48314" target="_top" xlink:title="Setzt den Kontext auf das gegebene Fenster. ">
<polygon fill="white" stroke="black" points="437,-213.5 437,-234.5 583,-234.5 583,-213.5 437,-213.5"/>
<text text-anchor="middle" x="510" y="-221.5" font-family="Helvetica,sans-Serif" font-size="10.00">okw.core.Core.SelectWindow</text>
</a>
</g>
<!-- Node1169&#45;&gt;Node1170 -->
<g id="edge18" class="edge"><title>Node1169&#45;&gt;Node1170</title>
<path fill="none" stroke="midnightblue" d="M354.779,-184.604C385.178,-192.319 426.512,-202.81 458.883,-211.026"/>
<polygon fill="midnightblue" stroke="midnightblue" points="458.066,-214.43 468.62,-213.497 459.788,-207.645 458.066,-214.43"/>
</g>
<!-- Node1171 -->
<g id="node20" class="node"><title>Node1171</title>
<a xlink:href="classokw_1_1log_1_1_logger___sngltn.html#a70ec25e200e00ecefc544e8fd371d2ef" target="_top" xlink:title="Ausgabe eines Schlüsselwortes. ">
<polygon fill="white" stroke="black" points="648,-184 648,-218 782,-218 782,-184 648,-184"/>
<text text-anchor="start" x="656" y="-205" font-family="Helvetica,sans-Serif" font-size="10.00">okw.log.Logger_Sngltn.Log</text>
<text text-anchor="middle" x="715" y="-192" font-family="Helvetica,sans-Serif" font-size="10.00">KeyWordStart</text>
</a>
</g>
<!-- Node1170&#45;&gt;Node1171 -->
<g id="edge20" class="edge"><title>Node1170&#45;&gt;Node1171</title>
<path fill="none" stroke="midnightblue" d="M583.141,-215.794C600.732,-213.82 619.582,-211.705 637.369,-209.71"/>
<polygon fill="midnightblue" stroke="midnightblue" points="638.153,-213.144 647.701,-208.551 637.373,-206.188 638.153,-213.144"/>
</g>
<!-- Node1172 -->
<g id="node22" class="node"><title>Node1172</title>
<a xlink:href="classokw_1_1_log_messenger.html#af225d1f037d47b3b085175c09d78bdd2" target="_top" xlink:title="Holt die Log&#45;Meldung für MethodeNmae/Textkey ohne weitere Parameter. ">
<polygon fill="white" stroke="black" points="635,-236.5 635,-257.5 795,-257.5 795,-236.5 635,-236.5"/>
<text text-anchor="middle" x="715" y="-244.5" font-family="Helvetica,sans-Serif" font-size="10.00">okw.LogMessenger.GetMessage</text>
</a>
</g>
<!-- Node1170&#45;&gt;Node1172 -->
<g id="edge22" class="edge"><title>Node1170&#45;&gt;Node1172</title>
<path fill="none" stroke="midnightblue" d="M583.141,-232.206C596.651,-233.722 610.903,-235.321 624.846,-236.885"/>
<polygon fill="midnightblue" stroke="midnightblue" points="624.601,-240.38 634.929,-238.016 625.381,-233.423 624.601,-240.38"/>
</g>
<!-- Node1175 -->
<g id="node28" class="node"><title>Node1175</title>
<a xlink:href="interfaceokw_1_1core_1_1_i_o_k_w___state.html#ad4fc9610ed5b1176590a45b55e6ac7f0" target="_top" xlink:title="Setzt den Kontext auf das gegebene Fenster. ">
<polygon fill="white" stroke="black" points="642,-276 642,-310 788,-310 788,-276 642,-276"/>
<text text-anchor="start" x="650" y="-297" font-family="Helvetica,sans-Serif" font-size="10.00">okw.core.IOKW_State.Select</text>
<text text-anchor="middle" x="715" y="-284" font-family="Helvetica,sans-Serif" font-size="10.00">Window</text>
</a>
</g>
<!-- Node1170&#45;&gt;Node1175 -->
<g id="edge28" class="edge"><title>Node1170&#45;&gt;Node1175</title>
<path fill="none" stroke="midnightblue" d="M537.496,-234.542C561.308,-243.546 596.747,-256.646 628,-267 633.99,-268.985 640.235,-270.984 646.507,-272.946"/>
<polygon fill="midnightblue" stroke="midnightblue" points="645.766,-276.38 656.354,-275.989 647.833,-269.692 645.766,-276.38"/>
</g>
<!-- Node1173 -->
<g id="node24" class="node"><title>Node1173</title>
<a xlink:href="classokw_1_1_log_messenger.html#a530cd6ab82ec82a04206a2e976ec06e3" target="_top" xlink:title="Interne Kernfunktion holt die Log&#45;Meldung mit Platzhaltern aus der XML&#45;Datei. ">
<polygon fill="white" stroke="black" points="838.5,-236.5 838.5,-257.5 1005.5,-257.5 1005.5,-236.5 838.5,-236.5"/>
<text text-anchor="middle" x="922" y="-244.5" font-family="Helvetica,sans-Serif" font-size="10.00">okw.LogMessenger.ReadMessage</text>
</a>
</g>
<!-- Node1172&#45;&gt;Node1173 -->
<g id="edge24" class="edge"><title>Node1172&#45;&gt;Node1173</title>
<path fill="none" stroke="midnightblue" d="M795.032,-247C805.92,-247 817.173,-247 828.276,-247"/>
<polygon fill="midnightblue" stroke="midnightblue" points="828.415,-250.5 838.415,-247 828.415,-243.5 828.415,-250.5"/>
</g>
<!-- Node1174 -->
<g id="node26" class="node"><title>Node1174</title>
<a xlink:href="classokw_1_1_o_k_w___xml_reader.html#ab920b5335a2e1429c14cc5f8e79f39eb" target="_top" xlink:title="Lies den TextContent eines Tag. ">
<polygon fill="white" stroke="black" points="1042,-230 1042,-264 1194,-264 1194,-230 1042,-230"/>
<text text-anchor="start" x="1050" y="-251" font-family="Helvetica,sans-Serif" font-size="10.00">okw.OKW_XmlReader.getText</text>
<text text-anchor="middle" x="1118" y="-238" font-family="Helvetica,sans-Serif" font-size="10.00">ContentSingleValue</text>
</a>
</g>
<!-- Node1173&#45;&gt;Node1174 -->
<g id="edge26" class="edge"><title>Node1173&#45;&gt;Node1174</title>
<path fill="none" stroke="midnightblue" d="M1005.69,-247C1014.29,-247 1023.04,-247 1031.67,-247"/>
<polygon fill="midnightblue" stroke="midnightblue" points="1031.72,-250.5 1041.72,-247 1031.72,-243.5 1031.72,-250.5"/>
</g>
<!-- Node1176&#45;&gt;Node1164 -->
<g id="edge32" class="edge"><title>Node1176&#45;&gt;Node1164</title>
<path fill="none" stroke="midnightblue" d="M391.709,-126.009C404.394,-124.721 417.535,-123.387 430.245,-122.097"/>
<polygon fill="midnightblue" stroke="midnightblue" points="430.732,-125.566 440.328,-121.073 430.025,-118.601 430.732,-125.566"/>
</g>
<!-- Node1177 -->
<g id="node33" class="node"><title>Node1177</title>
<a xlink:href="classokw_1_1core_1_1_core.html#a160aacb0d6817770fde1faeaf6749af3" target="_top" xlink:title="Prüft den Tooltip&#45;Text eines Objektes (in den meisten Fällen ist dies der angezeigte Text)...">
<polygon fill="white" stroke="black" points="428,-155.5 428,-176.5 592,-176.5 592,-155.5 428,-155.5"/>
<text text-anchor="middle" x="510" y="-163.5" font-family="Helvetica,sans-Serif" font-size="10.00">okw.core.Core.VerifyTooltipWCM</text>
</a>
</g>
<!-- Node1176&#45;&gt;Node1177 -->
<g id="edge34" class="edge"><title>Node1176&#45;&gt;Node1177</title>
<path fill="none" stroke="midnightblue" d="M377.778,-144.522C396.125,-147.502 416.246,-150.771 435.135,-153.839"/>
<polygon fill="midnightblue" stroke="midnightblue" points="434.751,-157.323 445.183,-155.471 435.874,-150.413 434.751,-157.323"/>
</g>
<!-- Node1177&#45;&gt;Node1171 -->
<g id="edge36" class="edge"><title>Node1177&#45;&gt;Node1171</title>
<path fill="none" stroke="midnightblue" d="M571.507,-176.501C592.371,-180.063 615.948,-184.089 637.872,-187.832"/>
<polygon fill="midnightblue" stroke="midnightblue" points="637.367,-191.296 647.813,-189.529 638.545,-184.396 637.367,-191.296"/>
</g>
<!-- Node1177&#45;&gt;Node1172 -->
<g id="edge38" class="edge"><title>Node1177&#45;&gt;Node1172</title>
<path fill="none" stroke="midnightblue" d="M535.19,-176.621C551.636,-183.811 573.424,-193.822 592,-204 608.651,-213.123 610.492,-219.655 628,-227 633.909,-229.479 640.178,-231.679 646.537,-233.625"/>
<polygon fill="midnightblue" stroke="midnightblue" points="645.989,-237.108 656.566,-236.478 647.905,-230.375 645.989,-237.108"/>
</g>
<!-- Node1178 -->
<g id="node37" class="node"><title>Node1178</title>
<a xlink:href="interfaceokw_1_1core_1_1_i_o_k_w___state.html#a5eeafdd7f415970cddcec31fa642da02" target="_top" xlink:title="Prüft den Tooltip&#45;Text eines Objektes (in den meisten Fällen ist dies der angezeigte Text)...">
<polygon fill="white" stroke="black" points="643.5,-132 643.5,-166 786.5,-166 786.5,-132 643.5,-132"/>
<text text-anchor="start" x="651.5" y="-153" font-family="Helvetica,sans-Serif" font-size="10.00">okw.core.IOKW_State.Verify</text>
<text text-anchor="middle" x="715" y="-140" font-family="Helvetica,sans-Serif" font-size="10.00">TooltipWCM</text>
</a>
</g>
<!-- Node1177&#45;&gt;Node1178 -->
<g id="edge40" class="edge"><title>Node1177&#45;&gt;Node1178</title>
<path fill="none" stroke="midnightblue" d="M592.2,-159.183C605.692,-158.065 619.674,-156.905 633.157,-155.787"/>
<polygon fill="midnightblue" stroke="midnightblue" points="633.678,-159.256 643.355,-154.941 633.1,-152.28 633.678,-159.256"/>
</g>
</g>
</svg>
        <g id="navigator" transform="translate(0 0)" fill="#404254">
                <rect fill="#f2f5e9" fill-opacity="0.5" stroke="#606060" stroke-width=".5" x="0" y="0" width="60" height="60"/>
                <use id="zoomplus" xlink:href="#zoomPlus" x="17" y="9" onmousedown="handleZoom(evt,'in')"/>
                <use id="zoomminus" xlink:href="#zoomMin" x="42" y="9" onmousedown="handleZoom(evt,'out')"/>
                <use id="reset" xlink:href="#resetDef" x="30" y="36" onmousedown="handleReset()"/>
                <g id="arrowUp" xlink:href="#dirArrow" transform="translate(30 24)" onmousedown="handlePan(0,-1)">
                  <use xlink:href="#rim" fill="#404040">
                        <set attributeName="fill" to="#808080" begin="arrowUp.mouseover" end="arrowUp.mouseout"/>
                  </use>
                  <path fill="none" stroke="white" stroke-width="1.5" d="M0,-3.0v7 M-2.5,-0.5L0,-3.0L2.5,-0.5"/>
                </g>
                <g id="arrowRight" xlink:href="#dirArrow" transform="rotate(90) translate(36 -43)" onmousedown="handlePan(1,0)">
                  <use xlink:href="#rim" fill="#404040">
                        <set attributeName="fill" to="#808080" begin="arrowRight.mouseover" end="arrowRight.mouseout"/>
                  </use>
                  <path fill="none" stroke="white" stroke-width="1.5" d="M0,-3.0v7 M-2.5,-0.5L0,-3.0L2.5,-0.5"/>
                </g>
                <g id="arrowDown" xlink:href="#dirArrow" transform="rotate(180) translate(-30 -48)" onmousedown="handlePan(0,1)">
                  <use xlink:href="#rim" fill="#404040">
                        <set attributeName="fill" to="#808080" begin="arrowDown.mouseover" end="arrowDown.mouseout"/>
                  </use>
                  <path fill="none" stroke="white" stroke-width="1.5" d="M0,-3.0v7 M-2.5,-0.5L0,-3.0L2.5,-0.5"/>
                </g>
                <g id="arrowLeft" xlink:href="#dirArrow" transform="rotate(270) translate(-36 17)" onmousedown="handlePan(-1,0)">
                  <use xlink:href="#rim" fill="#404040">
                        <set attributeName="fill" to="#808080" begin="arrowLeft.mouseover" end="arrowLeft.mouseout"/>
                  </use>
                  <path fill="none" stroke="white" stroke-width="1.5" d="M0,-3.0v7 M-2.5,-0.5L0,-3.0L2.5,-0.5"/>
                </g>
        </g>
        <svg viewBox="0 0 15 15" width="100%" height="30px" preserveAspectRatio="xMaxYMin meet">
         <g id="arrow_out" transform="scale(0.3 0.3)">
          <a xlink:href="classokw_1_1core_1_1_e_n___o_k_w_not_allowed_value_exception___keywords___i_g_n_o_r_e_a4394b4307a86029d7054bf86bb88bbd8_cgraph_org.svg" target="_base">
           <rect id="button" ry="5" rx="5" y="6" x="6" height="38" width="38"
                fill="#f2f5e9" fill-opacity="0.5" stroke="#606060" stroke-width="1.0"/>
           <path id="arrow"
             d="M 11.500037,31.436501 C 11.940474,20.09759 22.043105,11.32322 32.158766,21.979434 L 37.068811,17.246167 C 37.068811,17.246167 37.088388,32 37.088388,32 L 22.160133,31.978069 C 22.160133,31.978069 26.997745,27.140456 26.997745,27.140456 C 18.528582,18.264221 13.291696,25.230495 11.500037,31.436501 z"
             style="fill:#404040;"/>
          </a>
         </g>
        </svg>
</svg>
