<?xml version="1.0" encoding="UTF-8" standalone="no"?>
<!DOCTYPE svg PUBLIC "-//W3C//DTD SVG 1.1//EN"
 "http://www.w3.org/Graphics/SVG/1.1/DTD/svg11.dtd">
<!-- Generated by graphviz version 2.38.0 (20140413.2041)
 -->
<!-- Title: okw.FrameObjectDictionary_Sngltn.frameScan Pages: 1 -->
<svg width="967pt" height="401pt"
 viewBox="0.00 0.00 967.00 401.00" xmlns="http://www.w3.org/2000/svg" xmlns:xlink="http://www.w3.org/1999/xlink">
<g id="graph0" class="graph" transform="scale(1 1) rotate(0) translate(4 397)">
<title>okw.FrameObjectDictionary_Sngltn.frameScan</title>
<polygon fill="white" stroke="none" points="-4,4 -4,-397 963,-397 963,4 -4,4"/>
<!-- Node2 -->
<g id="node1" class="node"><title>Node2</title>
<g id="a_node1"><a xlink:title="Liefert die Instanz der Klasse.">
<polygon fill="#bfbfbf" stroke="black" points="0,-181.5 0,-211.5 146,-211.5 146,-181.5 0,-181.5"/>
<text text-anchor="start" x="8" y="-199.5" font-family="Helvetica,sans-Serif" font-size="10.00">okw.FrameObjectDictionary</text>
<text text-anchor="middle" x="73" y="-188.5" font-family="Helvetica,sans-Serif" font-size="10.00">_Sngltn.frameScan</text>
</a>
</g>
</g>
<!-- Node3 -->
<g id="node2" class="node"><title>Node3</title>
<g id="a_node2"><a xlink:href="classokw_1_1log_1_1_logger___sngltn.html#ab4fc711bb4c754f251372ff3b14ab9c9" target="_top" xlink:title="Creates a new hierarchical level in the results file.">
<polygon fill="white" stroke="black" points="197,-362.5 197,-392.5 340,-392.5 340,-362.5 197,-362.5"/>
<text text-anchor="start" x="205" y="-380.5" font-family="Helvetica,sans-Serif" font-size="10.00">okw.log.Logger_Sngltn.Res</text>
<text text-anchor="middle" x="268.5" y="-369.5" font-family="Helvetica,sans-Serif" font-size="10.00">OpenList</text>
</a>
</g>
</g>
<!-- Node2&#45;&gt;Node3 -->
<g id="edge1" class="edge"><title>Node2&#45;&gt;Node3</title>
<path fill="none" stroke="midnightblue" d="M80.1187,-211.631C93.6115,-243.05 128.992,-315.581 182,-353.5 184.085,-354.991 186.259,-356.39 188.503,-357.702"/>
<polygon fill="midnightblue" stroke="midnightblue" points="186.97,-360.849 197.458,-362.345 190.191,-354.635 186.97,-360.849"/>
</g>
<!-- Node4 -->
<g id="node3" class="node"><title>Node4</title>
<g id="a_node3"><a xlink:href="classokw_1_1_frame_object_dictionary___sngltn.html#adb3f31a2a073d4093f801a4422529dea" target="_top" xlink:title="Methode erstellt eine Liste aller OKWGUI&#45;Rahmenklassen (Frame class), die in der aktuell ausgeführten...">
<polygon fill="white" stroke="black" points="182,-313.5 182,-343.5 355,-343.5 355,-313.5 182,-313.5"/>
<text text-anchor="start" x="190" y="-331.5" font-family="Helvetica,sans-Serif" font-size="10.00">okw.FrameObjectDictionary</text>
<text text-anchor="middle" x="268.5" y="-320.5" font-family="Helvetica,sans-Serif" font-size="10.00">_Sngltn.getListOfOKWGuiClasses</text>
</a>
</g>
</g>
<!-- Node2&#45;&gt;Node4 -->
<g id="edge2" class="edge"><title>Node2&#45;&gt;Node4</title>
<path fill="none" stroke="midnightblue" d="M86.4215,-211.746C105.067,-233.733 142.354,-274.348 182,-298.5 188.877,-302.689 196.422,-306.403 204.093,-309.663"/>
<polygon fill="midnightblue" stroke="midnightblue" points="202.892,-312.952 213.476,-313.417 205.492,-306.453 202.892,-312.952"/>
</g>
<!-- Node5 -->
<g id="node4" class="node"><title>Node5</title>
<g id="a_node4"><a xlink:href="classokw_1_1_o_k_w___get_java_class.html#a10701221abeade4716d492e8db29a877" target="_top" xlink:title="Die Methode erzeugt eine Instanz der Rahmenklasse (frame class) mit dem in &#39;fps_ParentClassName&#39; gege...">
<polygon fill="white" stroke="black" points="188.5,-225.5 188.5,-255.5 348.5,-255.5 348.5,-225.5 188.5,-225.5"/>
<text text-anchor="start" x="196.5" y="-243.5" font-family="Helvetica,sans-Serif" font-size="10.00">okw.OKW_GetJavaClass.create</text>
<text text-anchor="middle" x="268.5" y="-232.5" font-family="Helvetica,sans-Serif" font-size="10.00">InstanceByType</text>
</a>
</g>
</g>
<!-- Node2&#45;&gt;Node5 -->
<g id="edge3" class="edge"><title>Node2&#45;&gt;Node5</title>
<path fill="none" stroke="midnightblue" d="M140.051,-211.519C156.616,-215.286 174.521,-219.357 191.527,-223.224"/>
<polygon fill="midnightblue" stroke="midnightblue" points="190.892,-226.669 201.419,-225.474 192.444,-219.844 190.892,-226.669"/>
</g>
<!-- Node6 -->
<g id="node5" class="node"><title>Node6</title>
<g id="a_node5"><a xlink:href="classokw_1_1log_1_1_logger___sngltn.html#a313f97c79ba4662d9daaf7f537dd02f4" target="_top" xlink:title="Loggt eine Nachricht.">
<polygon fill="white" stroke="black" points="404,-247.5 404,-277.5 547,-277.5 547,-247.5 404,-247.5"/>
<text text-anchor="start" x="412" y="-265.5" font-family="Helvetica,sans-Serif" font-size="10.00">okw.log.Logger_Sngltn.Log</text>
<text text-anchor="middle" x="475.5" y="-254.5" font-family="Helvetica,sans-Serif" font-size="10.00">PrintDebug</text>
</a>
</g>
</g>
<!-- Node2&#45;&gt;Node6 -->
<g id="edge11" class="edge"><title>Node2&#45;&gt;Node6</title>
<path fill="none" stroke="midnightblue" d="M90.7923,-211.638C110.821,-228.577 146.12,-255.017 182,-265.5 251.351,-285.762 333.957,-282.577 393.667,-275.748"/>
<polygon fill="midnightblue" stroke="midnightblue" points="394.283,-279.199 403.793,-274.53 393.447,-272.249 394.283,-279.199"/>
</g>
<!-- Node7 -->
<g id="node6" class="node"><title>Node7</title>
<g id="a_node6"><a xlink:href="classokw_1_1_log_messenger.html#af225d1f037d47b3b085175c09d78bdd2" target="_top" xlink:title="Holt die Log&#45;Meldung für MethodeNmae/Textkey ohne weitere Parameter.">
<polygon fill="white" stroke="black" points="391,-198 391,-217 560,-217 560,-198 391,-198"/>
<text text-anchor="middle" x="475.5" y="-205" font-family="Helvetica,sans-Serif" font-size="10.00">okw.LogMessenger.GetMessage</text>
</a>
</g>
</g>
<!-- Node2&#45;&gt;Node7 -->
<g id="edge12" class="edge"><title>Node2&#45;&gt;Node7</title>
<path fill="none" stroke="midnightblue" d="M146.064,-198.479C211.64,-200.28 308.855,-202.95 380.513,-204.919"/>
<polygon fill="midnightblue" stroke="midnightblue" points="380.801,-208.428 390.893,-205.204 380.993,-201.43 380.801,-208.428"/>
</g>
<!-- Node10 -->
<g id="node9" class="node"><title>Node10</title>
<g id="a_node9"><a xlink:href="classokw_1_1_frame_object_dictionary___sngltn.html#a39e2832f14f2822d2365007804aebba1" target="_top" xlink:title="Holt die Referenz auf die Annotation des gegebenen Objektes.">
<polygon fill="white" stroke="black" points="194.5,-137.5 194.5,-167.5 342.5,-167.5 342.5,-137.5 194.5,-137.5"/>
<text text-anchor="start" x="202.5" y="-155.5" font-family="Helvetica,sans-Serif" font-size="10.00">okw.FrameObjectDictionary</text>
<text text-anchor="middle" x="268.5" y="-144.5" font-family="Helvetica,sans-Serif" font-size="10.00">_Sngltn.getOKWFromObjekt</text>
</a>
</g>
</g>
<!-- Node2&#45;&gt;Node10 -->
<g id="edge8" class="edge"><title>Node2&#45;&gt;Node10</title>
<path fill="none" stroke="midnightblue" d="M140.051,-181.481C156.616,-177.714 174.521,-173.643 191.527,-169.776"/>
<polygon fill="midnightblue" stroke="midnightblue" points="192.444,-173.156 201.419,-167.526 190.892,-166.331 192.444,-173.156"/>
</g>
<!-- Node11 -->
<g id="node10" class="node"><title>Node11</title>
<g id="a_node10"><a xlink:href="interfaceokw_1_1_o_k_w.html#a95f6a6c8976dbbc79a8765a36e3545ff" target="_top" xlink:title="FN des GUI&#45;Objektes.">
<polygon fill="white" stroke="black" points="231.5,-99 231.5,-118 305.5,-118 305.5,-99 231.5,-99"/>
<text text-anchor="middle" x="268.5" y="-106" font-family="Helvetica,sans-Serif" font-size="10.00">okw.OKW.FN</text>
</a>
</g>
</g>
<!-- Node2&#45;&gt;Node11 -->
<g id="edge9" class="edge"><title>Node2&#45;&gt;Node11</title>
<path fill="none" stroke="midnightblue" d="M93.5946,-181.327C114.43,-165.895 148.881,-142.341 182,-128.5 194.319,-123.352 208.217,-119.385 221.171,-116.394"/>
<polygon fill="midnightblue" stroke="midnightblue" points="222.276,-119.736 231.31,-114.201 220.796,-112.894 222.276,-119.736"/>
</g>
<!-- Node12 -->
<g id="node11" class="node"><title>Node12</title>
<g id="a_node11"><a xlink:href="classokw_1_1log_1_1_logger___sngltn.html#a8ebceaddd6cc6963ddb8e08c72ea808c" target="_top" xlink:title="LogPrint Function: Prints the values of expressions to the results file.">
<polygon fill="white" stroke="black" points="197,-49.5 197,-79.5 340,-79.5 340,-49.5 197,-49.5"/>
<text text-anchor="start" x="205" y="-67.5" font-family="Helvetica,sans-Serif" font-size="10.00">okw.log.Logger_Sngltn.Log</text>
<text text-anchor="middle" x="268.5" y="-56.5" font-family="Helvetica,sans-Serif" font-size="10.00">Print</text>
</a>
</g>
</g>
<!-- Node2&#45;&gt;Node12 -->
<g id="edge10" class="edge"><title>Node2&#45;&gt;Node12</title>
<path fill="none" stroke="midnightblue" d="M85.1867,-181.343C103.081,-158.165 140.389,-114.026 182,-89.5 185.672,-87.3355 189.545,-85.3473 193.532,-83.5225"/>
<polygon fill="midnightblue" stroke="midnightblue" points="195.132,-86.6471 203.003,-79.5552 192.427,-80.1906 195.132,-86.6471"/>
</g>
<!-- Node13 -->
<g id="node12" class="node"><title>Node13</title>
<g id="a_node12"><a xlink:href="classokw_1_1log_1_1_logger___sngltn.html#a9b54104f7e0b4c0a473877b19dfaed56" target="_top" xlink:title="Closes a hierarchical level in the results file that was opened with ResOpenList.">
<polygon fill="white" stroke="black" points="197,-0.5 197,-30.5 340,-30.5 340,-0.5 197,-0.5"/>
<text text-anchor="start" x="205" y="-18.5" font-family="Helvetica,sans-Serif" font-size="10.00">okw.log.Logger_Sngltn.Res</text>
<text text-anchor="middle" x="268.5" y="-7.5" font-family="Helvetica,sans-Serif" font-size="10.00">CloseList</text>
</a>
</g>
</g>
<!-- Node2&#45;&gt;Node13 -->
<g id="edge13" class="edge"><title>Node2&#45;&gt;Node13</title>
<path fill="none" stroke="midnightblue" d="M80.3877,-181.033C94.1469,-149.648 129.636,-78.2684 182,-40.5 184.697,-38.5549 187.544,-36.7602 190.496,-35.1043"/>
<polygon fill="midnightblue" stroke="midnightblue" points="192.247,-38.1424 199.628,-30.5417 189.118,-31.8805 192.247,-38.1424"/>
</g>
<!-- Node5&#45;&gt;Node6 -->
<g id="edge4" class="edge"><title>Node5&#45;&gt;Node6</title>
<path fill="none" stroke="midnightblue" d="M348.758,-249.006C363.497,-250.587 378.912,-252.242 393.697,-253.828"/>
<polygon fill="midnightblue" stroke="midnightblue" points="393.499,-257.327 403.815,-254.914 394.246,-250.367 393.499,-257.327"/>
</g>
<!-- Node5&#45;&gt;Node7 -->
<g id="edge5" class="edge"><title>Node5&#45;&gt;Node7</title>
<path fill="none" stroke="midnightblue" d="M348.758,-227.741C367.486,-224.727 387.307,-221.536 405.537,-218.601"/>
<polygon fill="midnightblue" stroke="midnightblue" points="406.167,-222.045 415.484,-217 405.055,-215.134 406.167,-222.045"/>
</g>
<!-- Node8 -->
<g id="node7" class="node"><title>Node8</title>
<g id="a_node7"><a xlink:href="classokw_1_1_log_messenger.html#a530cd6ab82ec82a04206a2e976ec06e3" target="_top" xlink:title="Interne Kernfunktion holt die Log&#45;Meldung mit Platzhaltern aus der XML&#45;Datei.">
<polygon fill="white" stroke="black" points="596,-198 596,-217 771,-217 771,-198 596,-198"/>
<text text-anchor="middle" x="683.5" y="-205" font-family="Helvetica,sans-Serif" font-size="10.00">okw.LogMessenger.ReadMessage</text>
</a>
</g>
</g>
<!-- Node7&#45;&gt;Node8 -->
<g id="edge6" class="edge"><title>Node7&#45;&gt;Node8</title>
<path fill="none" stroke="midnightblue" d="M560.288,-207.5C568.603,-207.5 577.092,-207.5 585.526,-207.5"/>
<polygon fill="midnightblue" stroke="midnightblue" points="585.772,-211 595.772,-207.5 585.772,-204 585.772,-211"/>
</g>
<!-- Node9 -->
<g id="node8" class="node"><title>Node9</title>
<g id="a_node8"><a xlink:href="classokw_1_1_o_k_w___xml_reader.html#ab920b5335a2e1429c14cc5f8e79f39eb" target="_top" xlink:title="Lies den TextContent eines Tag.">
<polygon fill="white" stroke="black" points="807,-192.5 807,-222.5 959,-222.5 959,-192.5 807,-192.5"/>
<text text-anchor="start" x="815" y="-210.5" font-family="Helvetica,sans-Serif" font-size="10.00">okw.OKW_XmlReader.getText</text>
<text text-anchor="middle" x="883" y="-199.5" font-family="Helvetica,sans-Serif" font-size="10.00">ContentSingleValue</text>
</a>
</g>
</g>
<!-- Node8&#45;&gt;Node9 -->
<g id="edge7" class="edge"><title>Node8&#45;&gt;Node9</title>
<path fill="none" stroke="midnightblue" d="M771.126,-207.5C779.6,-207.5 788.195,-207.5 796.656,-207.5"/>
<polygon fill="midnightblue" stroke="midnightblue" points="796.893,-211 806.893,-207.5 796.892,-204 796.893,-211"/>
</g>
</g>
</svg>
