<?xml version="1.0" encoding="UTF-8" standalone="no"?>
<!DOCTYPE svg PUBLIC "-//W3C//DTD SVG 1.1//EN"
 "http://www.w3.org/Graphics/SVG/1.1/DTD/svg11.dtd">
<!-- Generated by graphviz version 2.36.0 (20140111.2315)
 -->
<!-- Title: okw.core.EN.VerifyValueREGX Pages: 1 -->
<!--zoomable 165 -->
<svg id="main" version="1.1" xmlns="http://www.w3.org/2000/svg" xmlns:xlink="http://www.w3.org/1999/xlink" xml:space="preserve" onload="init(evt)">
<style type="text/css"><![CDATA[
.edge:hover path { stroke: red; }
.edge:hover polygon { stroke: red; fill: red; }
]]></style>
<script type="text/javascript"><![CDATA[
var edges = document.getElementsByTagName('g');
if (edges && edges.length) {
  for (var i=0;i<edges.length;i++) {
    if (edges[i].id.substr(0,4)=='edge') {
      edges[i].setAttribute('class','edge');
    }
  }
}
]]></script>
        <defs>
                <circle id="rim" cx="0" cy="0" r="7"/>
                <circle id="rim2" cx="0" cy="0" r="3.5"/>
                <g id="zoomPlus">
                        <use xlink:href="#rim" fill="#404040">
                                <set attributeName="fill" to="#808080" begin="zoomplus.mouseover" end="zoomplus.mouseout"/>
                        </use>
                        <path d="M-4,0h8M0,-4v8" fill="none" stroke="white" stroke-width="1.5" pointer-events="none"/>
                </g>
                <g id="zoomMin">
                        <use xlink:href="#rim" fill="#404040">
                                <set attributeName="fill" to="#808080" begin="zoomminus.mouseover" end="zoomminus.mouseout"/>
                        </use>
                        <path d="M-4,0h8" fill="none" stroke="white" stroke-width="1.5" pointer-events="none"/>
                </g>
                <g id="dirArrow">
                        <path fill="none" stroke="white" stroke-width="1.5" d="M0,-3.0v7 M-2.5,-0.5L0,-3.0L2.5,-0.5"/>
                </g>
               <g id="resetDef">
                       <use xlink:href="#rim2" fill="#404040">
                               <set attributeName="fill" to="#808080" begin="reset.mouseover" end="reset.mouseout"/>
                       </use>
               </g>
        </defs>

<script type="text/javascript">
var viewWidth = 964;
var viewHeight = 165;
var sectionId = 'dynsection-111';
</script>
<script xlink:href="svgpan.js"/>
<svg id="graph" class="graph">
<g id="viewport">
<title>okw.core.EN.VerifyValueREGX</title>
<polygon fill="white" stroke="none" points="-4,4 -4,-161 960,-161 960,4 -4,4"/>
<!-- Node3554 -->
<g id="node1" class="node"><title>Node3554</title>
<polygon fill="#bfbfbf" stroke="black" points="0.5,-92.5 0.5,-111.5 155.5,-111.5 155.5,-92.5 0.5,-92.5"/>
<text text-anchor="middle" x="78" y="-99.5" font-family="Helvetica,sans-Serif" font-size="10.00">okw.core.EN.VerifyValueREGX</text>
</g>
<!-- Node3555 -->
<g id="node2" class="node"><title>Node3555</title>
<g id="a_node2"><a xlink:href="classokw_1_1core_1_1_core.html#ab4e0f723d27cb11c944ec4c82c426100" target="_top" xlink:title="Setzt die Sprache auf den gegebenen wert Language. ">
<polygon fill="white" stroke="black" points="203.5,-124.5 203.5,-143.5 342.5,-143.5 342.5,-124.5 203.5,-124.5"/>
<text text-anchor="middle" x="273" y="-131.5" font-family="Helvetica,sans-Serif" font-size="10.00">okw.core.Core.setLanguage</text>
</a>
</g>
</g>
<!-- Node3554&#45;&gt;Node3555 -->
<g id="edge1" class="edge"><title>Node3554&#45;&gt;Node3555</title>
<path fill="none" stroke="midnightblue" d="M136.384,-111.514C157.775,-115.061 182.254,-119.12 204.473,-122.804"/>
<polygon fill="midnightblue" stroke="midnightblue" points="204.066,-126.284 214.504,-124.467 205.211,-119.378 204.066,-126.284"/>
</g>
<!-- Node3557 -->
<g id="node4" class="node"><title>Node3557</title>
<g id="a_node4"><a xlink:href="classokw_1_1core_1_1_core.html#a19e8df9600c470e8b1ae1fe31c36f50a" target="_top" xlink:title="Prüft den Standardwert eines Objektes (in den meisten Fällen ist dies der angezeigte Text)...">
<polygon fill="white" stroke="black" points="192,-61.5 192,-80.5 354,-80.5 354,-61.5 192,-61.5"/>
<text text-anchor="middle" x="273" y="-68.5" font-family="Helvetica,sans-Serif" font-size="10.00">okw.core.Core.VerifyValueREGX</text>
</a>
</g>
</g>
<!-- Node3554&#45;&gt;Node3557 -->
<g id="edge3" class="edge"><title>Node3554&#45;&gt;Node3557</title>
<path fill="none" stroke="midnightblue" d="M138.218,-92.4883C158.501,-89.2304 181.38,-85.5555 202.407,-82.1781"/>
<polygon fill="midnightblue" stroke="midnightblue" points="203.243,-85.5888 212.562,-80.5471 202.133,-78.6774 203.243,-85.5888"/>
</g>
<!-- Node3556 -->
<g id="node3" class="node"><title>Node3556</title>
<g id="a_node3"><a xlink:href="interfaceokw_1_1core_1_1_i_o_k_w___state.html#a866baa0bde08a47418f54d63bdb56097" target="_top" xlink:title="Interne Methode zum setzen der Sprache für die sprachabhängigen Ausgaben der Dokumentation (Log)...">
<polygon fill="white" stroke="black" points="390.5,-137.5 390.5,-156.5 563.5,-156.5 563.5,-137.5 390.5,-137.5"/>
<text text-anchor="middle" x="477" y="-144.5" font-family="Helvetica,sans-Serif" font-size="10.00">okw.core.IOKW_State.setLanguage</text>
</a>
</g>
</g>
<!-- Node3555&#45;&gt;Node3556 -->
<g id="edge2" class="edge"><title>Node3555&#45;&gt;Node3556</title>
<path fill="none" stroke="midnightblue" d="M342.67,-138.419C354.763,-139.198 367.548,-140.02 380.223,-140.836"/>
<polygon fill="midnightblue" stroke="midnightblue" points="380.145,-144.338 390.349,-141.488 380.594,-137.353 380.145,-144.338"/>
</g>
<!-- Node3558 -->
<g id="node5" class="node"><title>Node3558</title>
<g id="a_node5"><a xlink:href="classokw_1_1log_1_1_logger___sngltn.html#a70ec25e200e00ecefc544e8fd371d2ef" target="_top" xlink:title="Ausgabe eines Schlüsselwortes. ">
<polygon fill="white" stroke="black" points="410,-88 410,-118 544,-118 544,-88 410,-88"/>
<text text-anchor="start" x="418" y="-106" font-family="Helvetica,sans-Serif" font-size="10.00">okw.log.Logger_Sngltn.Log</text>
<text text-anchor="middle" x="477" y="-95" font-family="Helvetica,sans-Serif" font-size="10.00">KeyWordStart</text>
</a>
</g>
</g>
<!-- Node3557&#45;&gt;Node3558 -->
<g id="edge4" class="edge"><title>Node3557&#45;&gt;Node3558</title>
<path fill="none" stroke="midnightblue" d="M334.06,-80.5144C354.641,-83.7748 377.953,-87.4678 399.648,-90.9047"/>
<polygon fill="midnightblue" stroke="midnightblue" points="399.393,-94.4078 409.817,-92.5156 400.488,-87.494 399.393,-94.4078"/>
</g>
<!-- Node3559 -->
<g id="node6" class="node"><title>Node3559</title>
<g id="a_node6"><a xlink:href="classokw_1_1_log_messenger.html#af225d1f037d47b3b085175c09d78bdd2" target="_top" xlink:title="Holt die Log&#45;Meldung für MethodeNmae/Textkey ohne weitere Parameter. ">
<polygon fill="white" stroke="black" points="397,-49.5 397,-68.5 557,-68.5 557,-49.5 397,-49.5"/>
<text text-anchor="middle" x="477" y="-56.5" font-family="Helvetica,sans-Serif" font-size="10.00">okw.LogMessenger.GetMessage</text>
</a>
</g>
</g>
<!-- Node3557&#45;&gt;Node3559 -->
<g id="edge5" class="edge"><title>Node3557&#45;&gt;Node3559</title>
<path fill="none" stroke="midnightblue" d="M354.126,-66.24C364.81,-65.6053 375.821,-64.9512 386.65,-64.3079"/>
<polygon fill="midnightblue" stroke="midnightblue" points="387.186,-67.7823 396.961,-63.6954 386.771,-60.7946 387.186,-67.7823"/>
</g>
<!-- Node3562 -->
<g id="node9" class="node"><title>Node3562</title>
<g id="a_node9"><a xlink:href="interfaceokw_1_1core_1_1_i_o_k_w___state.html#a36827474765ec238f21d94609fcec76a" target="_top" xlink:title="Prüft den Standardwert eines Objektes (in den meisten Fällen ist dies der angezeigte Text)...">
<polygon fill="white" stroke="black" points="405.5,-0 405.5,-30 548.5,-30 548.5,-0 405.5,-0"/>
<text text-anchor="start" x="413.5" y="-18" font-family="Helvetica,sans-Serif" font-size="10.00">okw.core.IOKW_State.Verify</text>
<text text-anchor="middle" x="477" y="-7" font-family="Helvetica,sans-Serif" font-size="10.00">ValueREGX</text>
</a>
</g>
</g>
<!-- Node3557&#45;&gt;Node3562 -->
<g id="edge8" class="edge"><title>Node3557&#45;&gt;Node3562</title>
<path fill="none" stroke="midnightblue" d="M308.725,-61.3733C336.959,-53.5461 377.563,-42.2894 411.696,-32.8268"/>
<polygon fill="midnightblue" stroke="midnightblue" points="412.895,-36.1265 421.597,-30.0821 411.025,-29.3809 412.895,-36.1265"/>
</g>
<!-- Node3560 -->
<g id="node7" class="node"><title>Node3560</title>
<g id="a_node7"><a xlink:href="classokw_1_1_log_messenger.html#a530cd6ab82ec82a04206a2e976ec06e3" target="_top" xlink:title="Interne Kernfunktion holt die Log&#45;Meldung mit Platzhaltern aus der XML&#45;Datei. ">
<polygon fill="white" stroke="black" points="600.5,-49.5 600.5,-68.5 767.5,-68.5 767.5,-49.5 600.5,-49.5"/>
<text text-anchor="middle" x="684" y="-56.5" font-family="Helvetica,sans-Serif" font-size="10.00">okw.LogMessenger.ReadMessage</text>
</a>
</g>
</g>
<!-- Node3559&#45;&gt;Node3560 -->
<g id="edge6" class="edge"><title>Node3559&#45;&gt;Node3560</title>
<path fill="none" stroke="midnightblue" d="M557.258,-59C568.041,-59 579.186,-59 590.181,-59"/>
<polygon fill="midnightblue" stroke="midnightblue" points="590.222,-62.5001 600.222,-59 590.222,-55.5001 590.222,-62.5001"/>
</g>
<!-- Node3561 -->
<g id="node8" class="node"><title>Node3561</title>
<g id="a_node8"><a xlink:href="classokw_1_1_o_k_w___xml_reader.html#ab920b5335a2e1429c14cc5f8e79f39eb" target="_top" xlink:title="Lies den TextContent eines Tag. ">
<polygon fill="white" stroke="black" points="804,-44 804,-74 956,-74 956,-44 804,-44"/>
<text text-anchor="start" x="812" y="-62" font-family="Helvetica,sans-Serif" font-size="10.00">okw.OKW_XmlReader.getText</text>
<text text-anchor="middle" x="880" y="-51" font-family="Helvetica,sans-Serif" font-size="10.00">ContentSingleValue</text>
</a>
</g>
</g>
<!-- Node3560&#45;&gt;Node3561 -->
<g id="edge7" class="edge"><title>Node3560&#45;&gt;Node3561</title>
<path fill="none" stroke="midnightblue" d="M767.555,-59C776.227,-59 785.057,-59 793.759,-59"/>
<polygon fill="midnightblue" stroke="midnightblue" points="793.899,-62.5001 803.899,-59 793.899,-55.5001 793.899,-62.5001"/>
</g>
</g>
</svg>
        <g id="navigator" transform="translate(0 0)" fill="#404254">
                <rect fill="#f2f5e9" fill-opacity="0.5" stroke="#606060" stroke-width=".5" x="0" y="0" width="60" height="60"/>
                <use id="zoomplus" xlink:href="#zoomPlus" x="17" y="9" onmousedown="handleZoom(evt,'in')"/>
                <use id="zoomminus" xlink:href="#zoomMin" x="42" y="9" onmousedown="handleZoom(evt,'out')"/>
                <use id="reset" xlink:href="#resetDef" x="30" y="36" onmousedown="handleReset()"/>
                <g id="arrowUp" xlink:href="#dirArrow" transform="translate(30 24)" onmousedown="handlePan(0,-1)">
                  <use xlink:href="#rim" fill="#404040">
                        <set attributeName="fill" to="#808080" begin="arrowUp.mouseover" end="arrowUp.mouseout"/>
                  </use>
                  <path fill="none" stroke="white" stroke-width="1.5" d="M0,-3.0v7 M-2.5,-0.5L0,-3.0L2.5,-0.5"/>
                </g>
                <g id="arrowRight" xlink:href="#dirArrow" transform="rotate(90) translate(36 -43)" onmousedown="handlePan(1,0)">
                  <use xlink:href="#rim" fill="#404040">
                        <set attributeName="fill" to="#808080" begin="arrowRight.mouseover" end="arrowRight.mouseout"/>
                  </use>
                  <path fill="none" stroke="white" stroke-width="1.5" d="M0,-3.0v7 M-2.5,-0.5L0,-3.0L2.5,-0.5"/>
                </g>
                <g id="arrowDown" xlink:href="#dirArrow" transform="rotate(180) translate(-30 -48)" onmousedown="handlePan(0,1)">
                  <use xlink:href="#rim" fill="#404040">
                        <set attributeName="fill" to="#808080" begin="arrowDown.mouseover" end="arrowDown.mouseout"/>
                  </use>
                  <path fill="none" stroke="white" stroke-width="1.5" d="M0,-3.0v7 M-2.5,-0.5L0,-3.0L2.5,-0.5"/>
                </g>
                <g id="arrowLeft" xlink:href="#dirArrow" transform="rotate(270) translate(-36 17)" onmousedown="handlePan(-1,0)">
                  <use xlink:href="#rim" fill="#404040">
                        <set attributeName="fill" to="#808080" begin="arrowLeft.mouseover" end="arrowLeft.mouseout"/>
                  </use>
                  <path fill="none" stroke="white" stroke-width="1.5" d="M0,-3.0v7 M-2.5,-0.5L0,-3.0L2.5,-0.5"/>
                </g>
        </g>
        <svg viewBox="0 0 15 15" width="100%" height="30px" preserveAspectRatio="xMaxYMin meet">
         <g id="arrow_out" transform="scale(0.3 0.3)">
          <a xlink:href="classokw_1_1core_1_1_e_n_ab906dfd1631d44567755a94585333973_cgraph_org.svg" target="_base">
           <rect id="button" ry="5" rx="5" y="6" x="6" height="38" width="38"
                fill="#f2f5e9" fill-opacity="0.5" stroke="#606060" stroke-width="1.0"/>
           <path id="arrow"
             d="M 11.500037,31.436501 C 11.940474,20.09759 22.043105,11.32322 32.158766,21.979434 L 37.068811,17.246167 C 37.068811,17.246167 37.088388,32 37.088388,32 L 22.160133,31.978069 C 22.160133,31.978069 26.997745,27.140456 26.997745,27.140456 C 18.528582,18.264221 13.291696,25.230495 11.500037,31.436501 z"
             style="fill:#404040;"/>
          </a>
         </g>
        </svg>
</svg>
