<?xml version="1.0" encoding="UTF-8" standalone="no"?>
<!DOCTYPE svg PUBLIC "-//W3C//DTD SVG 1.1//EN"
 "http://www.w3.org/Graphics/SVG/1.1/DTD/svg11.dtd">
<!-- Generated by graphviz version 2.36.0 (20140111.2315)
 -->
<!-- Title: okw.core.OK.LogValue Pages: 1 -->
<!--zoomable 472 -->
<svg id="main" version="1.1" xmlns="http://www.w3.org/2000/svg" xmlns:xlink="http://www.w3.org/1999/xlink" xml:space="preserve" onload="init(evt)">
<style type="text/css"><![CDATA[
.edge:hover path { stroke: red; }
.edge:hover polygon { stroke: red; fill: red; }
]]></style>
<script type="text/javascript"><![CDATA[
var edges = document.getElementsByTagName('g');
if (edges && edges.length) {
  for (var i=0;i<edges.length;i++) {
    if (edges[i].id.substr(0,4)=='edge') {
      edges[i].setAttribute('class','edge');
    }
  }
}
]]></script>
        <defs>
                <circle id="rim" cx="0" cy="0" r="7"/>
                <circle id="rim2" cx="0" cy="0" r="3.5"/>
                <g id="zoomPlus">
                        <use xlink:href="#rim" fill="#404040">
                                <set attributeName="fill" to="#808080" begin="zoomplus.mouseover" end="zoomplus.mouseout"/>
                        </use>
                        <path d="M-4,0h8M0,-4v8" fill="none" stroke="white" stroke-width="1.5" pointer-events="none"/>
                </g>
                <g id="zoomMin">
                        <use xlink:href="#rim" fill="#404040">
                                <set attributeName="fill" to="#808080" begin="zoomminus.mouseover" end="zoomminus.mouseout"/>
                        </use>
                        <path d="M-4,0h8" fill="none" stroke="white" stroke-width="1.5" pointer-events="none"/>
                </g>
                <g id="dirArrow">
                        <path fill="none" stroke="white" stroke-width="1.5" d="M0,-3.0v7 M-2.5,-0.5L0,-3.0L2.5,-0.5"/>
                </g>
               <g id="resetDef">
                       <use xlink:href="#rim2" fill="#404040">
                               <set attributeName="fill" to="#808080" begin="reset.mouseover" end="reset.mouseout"/>
                       </use>
               </g>
        </defs>

<script type="text/javascript">
var viewWidth = 1284;
var viewHeight = 472;
var sectionId = 'dynsection-16';
</script>
<script xlink:href="svgpan.js"/>
<svg id="graph" class="graph">
<g id="viewport">
<title>okw.core.OK.LogValue</title>
<polygon fill="white" stroke="none" points="-4,4 -4,-467.808 1280,-467.808 1280,4 -4,4"/>
<!-- Node313 -->
<g id="node1" class="node"><title>Node313</title>
<polygon fill="#bfbfbf" stroke="black" points="0.5,-232.528 0.5,-251.528 117.5,-251.528 117.5,-232.528 0.5,-232.528"/>
<text text-anchor="middle" x="59" y="-239.528" font-family="Helvetica,sans-Serif" font-size="10.00">okw.core.OK.LogValue</text>
</g>
<!-- Node314 -->
<g id="node2" class="node"><title>Node314</title>
<g id="a_node2"><a xlink:href="classokw_1_1core_1_1_o_k_w___current_object___sngltn.html#a461fa1ff29f4bc4a9798707ea7b71849" target="_top" xlink:title="Setzt das Kindobjekt. ">
<polygon fill="white" stroke="black" points="154.5,-347.028 154.5,-377.028 303.5,-377.028 303.5,-347.028 154.5,-347.028"/>
<text text-anchor="start" x="162.5" y="-365.028" font-family="Helvetica,sans-Serif" font-size="10.00">okw.core.OKW_CurrentObject</text>
<text text-anchor="middle" x="229" y="-354.028" font-family="Helvetica,sans-Serif" font-size="10.00">_Sngltn.setChildName</text>
</a>
</g>
</g>
<!-- Node313&#45;&gt;Node314 -->
<g id="edge1" class="edge"><title>Node313&#45;&gt;Node314</title>
<path fill="none" stroke="midnightblue" d="M73.4642,-251.645C100.496,-270.954 161.92,-314.828 198.668,-341.076"/>
<polygon fill="midnightblue" stroke="midnightblue" points="196.828,-344.063 207,-347.028 200.896,-338.367 196.828,-344.063"/>
</g>
<!-- Node323 -->
<g id="node11" class="node"><title>Node323</title>
<g id="a_node11"><a xlink:href="classokw_1_1log_1_1_logger___sngltn.html#ab4fc711bb4c754f251372ff3b14ab9c9" target="_top" xlink:title="Creates a new hierarchical level in the results file. ">
<polygon fill="white" stroke="black" points="538.5,-259.028 538.5,-289.028 675.5,-289.028 675.5,-259.028 538.5,-259.028"/>
<text text-anchor="start" x="546.5" y="-277.028" font-family="Helvetica,sans-Serif" font-size="10.00">okw.log.Logger_Sngltn.Res</text>
<text text-anchor="middle" x="607" y="-266.028" font-family="Helvetica,sans-Serif" font-size="10.00">OpenList</text>
</a>
</g>
</g>
<!-- Node313&#45;&gt;Node323 -->
<g id="edge14" class="edge"><title>Node313&#45;&gt;Node323</title>
<path fill="none" stroke="midnightblue" d="M117.631,-247.956C129.642,-249.076 142.228,-250.165 154,-251.028 285.104,-260.635 437.895,-267.508 528.034,-271.118"/>
<polygon fill="midnightblue" stroke="midnightblue" points="528.04,-274.621 538.171,-271.521 528.318,-267.627 528.04,-274.621"/>
</g>
<!-- Node324 -->
<g id="node12" class="node"><title>Node324</title>
<g id="a_node12"><a xlink:href="classokw_1_1log_1_1_logger___sngltn.html#a8ebceaddd6cc6963ddb8e08c72ea808c" target="_top" xlink:title="LogPrint Function: Prints the values of expressions to the results file. ">
<polygon fill="white" stroke="black" points="540,-90.0281 540,-120.028 674,-120.028 674,-90.0281 540,-90.0281"/>
<text text-anchor="start" x="548" y="-108.028" font-family="Helvetica,sans-Serif" font-size="10.00">okw.log.Logger_Sngltn.Log</text>
<text text-anchor="middle" x="607" y="-97.0281" font-family="Helvetica,sans-Serif" font-size="10.00">Print</text>
</a>
</g>
</g>
<!-- Node313&#45;&gt;Node324 -->
<g id="edge15" class="edge"><title>Node313&#45;&gt;Node324</title>
<path fill="none" stroke="midnightblue" d="M64.2441,-232.468C75.4459,-208.264 108.129,-143.938 154,-108.028 223.799,-53.3851 252.863,-52.3048 340,-36.0281 405.533,-23.7868 425.719,-18.355 490,-36.0281 523.658,-45.2818 557.424,-67.1305 579.775,-83.7825"/>
<polygon fill="midnightblue" stroke="midnightblue" points="577.685,-86.5902 587.758,-89.873 581.931,-81.0248 577.685,-86.5902"/>
</g>
<!-- Node325 -->
<g id="node13" class="node"><title>Node325</title>
<g id="a_node13"><a xlink:href="classokw_1_1log_1_1_logger___sngltn.html#a9b54104f7e0b4c0a473877b19dfaed56" target="_top" xlink:title="Closes a hierarchical level in the results file that was opened with ResOpenList. ...">
<polygon fill="white" stroke="black" points="538.5,-210.028 538.5,-240.028 675.5,-240.028 675.5,-210.028 538.5,-210.028"/>
<text text-anchor="start" x="546.5" y="-228.028" font-family="Helvetica,sans-Serif" font-size="10.00">okw.log.Logger_Sngltn.Res</text>
<text text-anchor="middle" x="607" y="-217.028" font-family="Helvetica,sans-Serif" font-size="10.00">CloseList</text>
</a>
</g>
</g>
<!-- Node313&#45;&gt;Node325 -->
<g id="edge16" class="edge"><title>Node313&#45;&gt;Node325</title>
<path fill="none" stroke="midnightblue" d="M117.657,-240.233C216.278,-237.162 417.422,-230.9 528.314,-227.447"/>
<polygon fill="midnightblue" stroke="midnightblue" points="528.544,-230.942 538.43,-227.132 528.326,-223.945 528.544,-230.942"/>
</g>
<!-- Node326 -->
<g id="node14" class="node"><title>Node326</title>
<g id="a_node14"><a xlink:href="classokw_1_1core_1_1_o_k.html#a5a6db6a457bcb71c893f5d4eb615b2b7" target="_top" xlink:title="Zentrale Exception&#45;Behandlung. ">
<polygon fill="white" stroke="black" points="154.5,-117.528 154.5,-136.528 303.5,-136.528 303.5,-117.528 154.5,-117.528"/>
<text text-anchor="middle" x="229" y="-124.528" font-family="Helvetica,sans-Serif" font-size="10.00">okw.core.OK.handleException</text>
</a>
</g>
</g>
<!-- Node313&#45;&gt;Node326 -->
<g id="edge17" class="edge"><title>Node313&#45;&gt;Node326</title>
<path fill="none" stroke="midnightblue" d="M74.0346,-232.421C102.992,-212.599 169.603,-167.002 204.966,-142.795"/>
<polygon fill="midnightblue" stroke="midnightblue" points="207.374,-145.388 213.649,-136.852 203.42,-139.612 207.374,-145.388"/>
</g>
<!-- Node315 -->
<g id="node3" class="node"><title>Node315</title>
<g id="a_node3"><a xlink:href="classokw_1_1log_1_1_logger___sngltn.html#a313f97c79ba4662d9daaf7f537dd02f4" target="_top" xlink:title="Loggt eine Nachricht. ">
<polygon fill="white" stroke="black" points="737,-315.028 737,-345.028 871,-345.028 871,-315.028 737,-315.028"/>
<text text-anchor="start" x="745" y="-333.028" font-family="Helvetica,sans-Serif" font-size="10.00">okw.log.Logger_Sngltn.Log</text>
<text text-anchor="middle" x="804" y="-322.028" font-family="Helvetica,sans-Serif" font-size="10.00">PrintDebug</text>
</a>
</g>
</g>
<!-- Node314&#45;&gt;Node315 -->
<g id="edge2" class="edge"><title>Node314&#45;&gt;Node315</title>
<path fill="none" stroke="midnightblue" d="M285.848,-346.968C303.082,-342.963 322.208,-339.161 340,-337.028 475.407,-320.797 634.668,-323.004 726.709,-326.339"/>
<polygon fill="midnightblue" stroke="midnightblue" points="726.647,-329.839 736.772,-326.718 726.911,-322.844 726.647,-329.839"/>
</g>
<!-- Node316 -->
<g id="node4" class="node"><title>Node316</title>
<g id="a_node4"><a xlink:href="classokw_1_1_log_messenger.html#af225d1f037d47b3b085175c09d78bdd2" target="_top" xlink:title="Holt die Log&#45;Meldung f端r MethodeNmae/Textkey ohne weitere Parameter. ">
<polygon fill="white" stroke="black" points="724,-376.528 724,-395.528 884,-395.528 884,-376.528 724,-376.528"/>
<text text-anchor="middle" x="804" y="-383.528" font-family="Helvetica,sans-Serif" font-size="10.00">okw.LogMessenger.GetMessage</text>
</a>
</g>
</g>
<!-- Node314&#45;&gt;Node316 -->
<g id="edge3" class="edge"><title>Node314&#45;&gt;Node316</title>
<path fill="none" stroke="midnightblue" d="M245.917,-377.084C266.002,-394.941 302.477,-423.71 340,-435.028 488.077,-479.692 536.459,-465.967 688,-435.028 720.374,-428.419 754.916,-412.339 777.597,-400.392"/>
<polygon fill="midnightblue" stroke="midnightblue" points="779.409,-403.391 786.55,-395.565 776.087,-397.23 779.409,-403.391"/>
</g>
<!-- Node319 -->
<g id="node7" class="node"><title>Node319</title>
<g id="a_node7"><a xlink:href="classokw_1_1_o_k_w___helper.html#a3a7ba0f42b29adf70574830688e72e4a" target="_top" xlink:title="Pr端ft ob der gegeben String fpsStrin null oder leer (&quot;&quot;) ist. ">
<polygon fill="white" stroke="black" points="340.5,-347.028 340.5,-377.028 489.5,-377.028 489.5,-347.028 340.5,-347.028"/>
<text text-anchor="start" x="348.5" y="-365.028" font-family="Helvetica,sans-Serif" font-size="10.00">okw.OKW_Helper.isStringNull</text>
<text text-anchor="middle" x="415" y="-354.028" font-family="Helvetica,sans-Serif" font-size="10.00">OrEmpty</text>
</a>
</g>
</g>
<!-- Node314&#45;&gt;Node319 -->
<g id="edge6" class="edge"><title>Node314&#45;&gt;Node319</title>
<path fill="none" stroke="midnightblue" d="M303.515,-362.028C312.315,-362.028 321.351,-362.028 330.281,-362.028"/>
<polygon fill="midnightblue" stroke="midnightblue" points="330.302,-365.528 340.302,-362.028 330.302,-358.528 330.302,-365.528"/>
</g>
<!-- Node320 -->
<g id="node8" class="node"><title>Node320</title>
<g id="a_node8"><a xlink:href="classokw_1_1core_1_1_o_k_w___current_object___sngltn.html#a51204f2563ba8defb737da6653705819" target="_top" xlink:title="Methode aktualisert zwei Werte: ">
<polygon fill="white" stroke="black" points="340.5,-396.028 340.5,-426.028 489.5,-426.028 489.5,-396.028 340.5,-396.028"/>
<text text-anchor="start" x="348.5" y="-414.028" font-family="Helvetica,sans-Serif" font-size="10.00">okw.core.OKW_CurrentObject</text>
<text text-anchor="middle" x="415" y="-403.028" font-family="Helvetica,sans-Serif" font-size="10.00">_Sngltn.updateObject</text>
</a>
</g>
</g>
<!-- Node314&#45;&gt;Node320 -->
<g id="edge7" class="edge"><title>Node314&#45;&gt;Node320</title>
<path fill="none" stroke="midnightblue" d="M286.457,-377.063C305.884,-382.236 327.811,-388.076 347.935,-393.435"/>
<polygon fill="midnightblue" stroke="midnightblue" points="347.086,-396.831 357.65,-396.022 348.888,-390.066 347.086,-396.831"/>
</g>
<!-- Node317 -->
<g id="node5" class="node"><title>Node317</title>
<g id="a_node5"><a xlink:href="classokw_1_1_log_messenger.html#a530cd6ab82ec82a04206a2e976ec06e3" target="_top" xlink:title="Interne Kernfunktion holt die Log&#45;Meldung mit Platzhaltern aus der XML&#45;Datei. ">
<polygon fill="white" stroke="black" points="920.5,-376.528 920.5,-395.528 1087.5,-395.528 1087.5,-376.528 920.5,-376.528"/>
<text text-anchor="middle" x="1004" y="-383.528" font-family="Helvetica,sans-Serif" font-size="10.00">okw.LogMessenger.ReadMessage</text>
</a>
</g>
</g>
<!-- Node316&#45;&gt;Node317 -->
<g id="edge4" class="edge"><title>Node316&#45;&gt;Node317</title>
<path fill="none" stroke="midnightblue" d="M884.108,-386.028C892.702,-386.028 901.505,-386.028 910.242,-386.028"/>
<polygon fill="midnightblue" stroke="midnightblue" points="910.452,-389.528 920.452,-386.028 910.452,-382.528 910.452,-389.528"/>
</g>
<!-- Node318 -->
<g id="node6" class="node"><title>Node318</title>
<g id="a_node6"><a xlink:href="classokw_1_1_o_k_w___xml_reader.html#ab920b5335a2e1429c14cc5f8e79f39eb" target="_top" xlink:title="Lies den TextContent eines Tag. ">
<polygon fill="white" stroke="black" points="1124,-371.028 1124,-401.028 1276,-401.028 1276,-371.028 1124,-371.028"/>
<text text-anchor="start" x="1132" y="-389.028" font-family="Helvetica,sans-Serif" font-size="10.00">okw.OKW_XmlReader.getText</text>
<text text-anchor="middle" x="1200" y="-378.028" font-family="Helvetica,sans-Serif" font-size="10.00">ContentSingleValue</text>
</a>
</g>
</g>
<!-- Node317&#45;&gt;Node318 -->
<g id="edge5" class="edge"><title>Node317&#45;&gt;Node318</title>
<path fill="none" stroke="midnightblue" d="M1087.55,-386.028C1096.23,-386.028 1105.06,-386.028 1113.76,-386.028"/>
<polygon fill="midnightblue" stroke="midnightblue" points="1113.9,-389.528 1123.9,-386.028 1113.9,-382.528 1113.9,-389.528"/>
</g>
<!-- Node321 -->
<g id="node9" class="node"><title>Node321</title>
<g id="a_node9"><a xlink:href="classokw_1_1_frame_object_dictionary___sngltn.html#aeec07d71cbebe71ec3ec4d27e86d6c5c" target="_top" xlink:title="Die Methode liefert das Frame&#45;Object des gegebenen FN eines Fensterobjektes zur端ck. ">
<polygon fill="white" stroke="black" points="526.5,-347.028 526.5,-377.028 687.5,-377.028 687.5,-347.028 526.5,-347.028"/>
<text text-anchor="start" x="534.5" y="-365.028" font-family="Helvetica,sans-Serif" font-size="10.00">okw.FrameObjectDictionary</text>
<text text-anchor="middle" x="607" y="-354.028" font-family="Helvetica,sans-Serif" font-size="10.00">_Sngltn.getParentObjectByName</text>
</a>
</g>
</g>
<!-- Node320&#45;&gt;Node321 -->
<g id="edge8" class="edge"><title>Node320&#45;&gt;Node321</title>
<path fill="none" stroke="midnightblue" d="M474.297,-395.993C494.45,-390.796 517.206,-384.927 538.064,-379.548"/>
<polygon fill="midnightblue" stroke="midnightblue" points="539.004,-382.921 547.813,-377.034 537.256,-376.142 539.004,-382.921"/>
</g>
<!-- Node322 -->
<g id="node10" class="node"><title>Node322</title>
<g id="a_node10"><a xlink:href="classokw_1_1_frame_object_dictionary___sngltn.html#a0a71734828093357dfc88b5fa242e361" target="_top" xlink:title="Die Methode liefert das Objekt des gegebenen Kindobjekttests zur端ck. ">
<polygon fill="white" stroke="black" points="529.5,-396.028 529.5,-426.028 684.5,-426.028 684.5,-396.028 529.5,-396.028"/>
<text text-anchor="start" x="537.5" y="-414.028" font-family="Helvetica,sans-Serif" font-size="10.00">okw.FrameObjectDictionary</text>
<text text-anchor="middle" x="607" y="-403.028" font-family="Helvetica,sans-Serif" font-size="10.00">_Sngltn.getChildObjectByName</text>
</a>
</g>
</g>
<!-- Node320&#45;&gt;Node322 -->
<g id="edge11" class="edge"><title>Node320&#45;&gt;Node322</title>
<path fill="none" stroke="midnightblue" d="M489.731,-411.028C499.408,-411.028 509.396,-411.028 519.264,-411.028"/>
<polygon fill="midnightblue" stroke="midnightblue" points="519.486,-414.528 529.486,-411.028 519.486,-407.528 519.486,-414.528"/>
</g>
<!-- Node321&#45;&gt;Node315 -->
<g id="edge9" class="edge"><title>Node321&#45;&gt;Node315</title>
<path fill="none" stroke="midnightblue" d="M687.595,-348.966C700.475,-346.853 713.787,-344.668 726.589,-342.567"/>
<polygon fill="midnightblue" stroke="midnightblue" points="727.428,-345.976 736.729,-340.903 726.295,-339.069 727.428,-345.976"/>
</g>
<!-- Node321&#45;&gt;Node316 -->
<g id="edge10" class="edge"><title>Node321&#45;&gt;Node316</title>
<path fill="none" stroke="midnightblue" d="M687.595,-371.824C696.798,-372.957 706.222,-374.117 715.523,-375.262"/>
<polygon fill="midnightblue" stroke="midnightblue" points="715.198,-378.748 725.551,-376.496 716.053,-371.8 715.198,-378.748"/>
</g>
<!-- Node322&#45;&gt;Node315 -->
<g id="edge12" class="edge"><title>Node322&#45;&gt;Node315</title>
<path fill="none" stroke="midnightblue" d="M660.99,-395.971C670.102,-392.956 679.402,-389.605 688,-386.028 704.704,-379.079 707.804,-375.089 724,-367.028 735.768,-361.171 748.638,-355.032 760.509,-349.476"/>
<polygon fill="midnightblue" stroke="midnightblue" points="762.188,-352.555 769.776,-345.161 759.233,-346.209 762.188,-352.555"/>
</g>
<!-- Node322&#45;&gt;Node316 -->
<g id="edge13" class="edge"><title>Node322&#45;&gt;Node316</title>
<path fill="none" stroke="midnightblue" d="M684.509,-401.219C695.62,-399.795 707.111,-398.321 718.37,-396.878"/>
<polygon fill="midnightblue" stroke="midnightblue" points="719.153,-400.306 728.627,-395.563 718.263,-393.363 719.153,-400.306"/>
</g>
<!-- Node326&#45;&gt;Node315 -->
<g id="edge20" class="edge"><title>Node326&#45;&gt;Node315</title>
<path fill="none" stroke="midnightblue" d="M237.515,-117.391C253.685,-97.5399 294.06,-52.5675 340,-36.0281 486.681,16.7805 566.696,17.8981 688,-80.0281 760.728,-138.74 789.46,-253.726 798.965,-304.682"/>
<polygon fill="midnightblue" stroke="midnightblue" points="795.569,-305.579 800.757,-314.817 802.462,-304.361 795.569,-305.579"/>
</g>
<!-- Node326&#45;&gt;Node324 -->
<g id="edge18" class="edge"><title>Node326&#45;&gt;Node324</title>
<path fill="none" stroke="midnightblue" d="M303.837,-122.708C369.003,-118.895 463.621,-113.359 529.557,-109.501"/>
<polygon fill="midnightblue" stroke="midnightblue" points="530.106,-112.975 539.884,-108.897 529.697,-105.987 530.106,-112.975"/>
</g>
<!-- Node327 -->
<g id="node15" class="node"><title>Node327</title>
<g id="a_node15"><a xlink:href="classokw_1_1log_1_1_logger___sngltn.html#aa29d396a2b9df1ac57079d777c548181" target="_top" xlink:title="LogException Function: Logs a Script Exception to the results file. ">
<polygon fill="white" stroke="black" points="348,-134.028 348,-164.028 482,-164.028 482,-134.028 348,-134.028"/>
<text text-anchor="start" x="356" y="-152.028" font-family="Helvetica,sans-Serif" font-size="10.00">okw.log.Logger_Sngltn.Log</text>
<text text-anchor="middle" x="415" y="-141.028" font-family="Helvetica,sans-Serif" font-size="10.00">Exception</text>
</a>
</g>
</g>
<!-- Node326&#45;&gt;Node327 -->
<g id="edge19" class="edge"><title>Node326&#45;&gt;Node327</title>
<path fill="none" stroke="midnightblue" d="M303.515,-135.818C314.704,-137.156 326.274,-138.539 337.525,-139.884"/>
<polygon fill="midnightblue" stroke="midnightblue" points="337.403,-143.395 347.747,-141.107 338.234,-136.444 337.403,-143.395"/>
</g>
<!-- Node328 -->
<g id="node16" class="node"><title>Node328</title>
<g id="a_node16"><a xlink:href="classokw_1_1core_1_1_o_k_w___current_object___sngltn.html#a01b48f2c86a2f91909143ee9063dfd86" target="_top" xlink:title="Methode gibt alle wichtigen Informationen zum aktuellen Objekt aus. ">
<polygon fill="white" stroke="black" points="340.5,-183.028 340.5,-213.028 489.5,-213.028 489.5,-183.028 340.5,-183.028"/>
<text text-anchor="start" x="348.5" y="-201.028" font-family="Helvetica,sans-Serif" font-size="10.00">okw.core.OKW_CurrentObject</text>
<text text-anchor="middle" x="415" y="-190.028" font-family="Helvetica,sans-Serif" font-size="10.00">_Sngltn.LogObjectData</text>
</a>
</g>
</g>
<!-- Node326&#45;&gt;Node328 -->
<g id="edge21" class="edge"><title>Node326&#45;&gt;Node328</title>
<path fill="none" stroke="midnightblue" d="M251.733,-136.648C273.792,-146.287 309.014,-161.332 340,-173.028 345.828,-175.228 351.947,-177.443 358.065,-179.598"/>
<polygon fill="midnightblue" stroke="midnightblue" points="357.042,-182.948 367.637,-182.922 359.339,-176.335 357.042,-182.948"/>
</g>
<!-- Node329 -->
<g id="node17" class="node"><title>Node329</title>
<g id="a_node17"><a xlink:href="classokw_1_1core_1_1_core.html#aafe6e3d88e810dabf350b37058d4af97" target="_top" xlink:title="Setter zum Setzen des aktuellen Zustandes. ">
<polygon fill="white" stroke="black" points="349.5,-46.0281 349.5,-76.0281 480.5,-76.0281 480.5,-46.0281 349.5,-46.0281"/>
<text text-anchor="start" x="357.5" y="-64.0281" font-family="Helvetica,sans-Serif" font-size="10.00">okw.core.Core.SetCurrent</text>
<text text-anchor="middle" x="415" y="-53.0281" font-family="Helvetica,sans-Serif" font-size="10.00">State</text>
</a>
</g>
</g>
<!-- Node326&#45;&gt;Node329 -->
<g id="edge26" class="edge"><title>Node326&#45;&gt;Node329</title>
<path fill="none" stroke="midnightblue" d="M256.755,-117.431C284.36,-107.529 328.112,-91.8356 362.465,-79.5136"/>
<polygon fill="midnightblue" stroke="midnightblue" points="363.652,-82.8061 371.883,-76.1352 361.289,-76.2171 363.652,-82.8061"/>
</g>
<!-- Node328&#45;&gt;Node316 -->
<g id="edge24" class="edge"><title>Node328&#45;&gt;Node316</title>
<path fill="none" stroke="midnightblue" d="M461.071,-183.006C520.042,-166.444 623.443,-148.434 688,-200.028 742.908,-243.911 678.301,-300.622 724,-354.028 730.853,-362.037 740.009,-368.067 749.656,-372.598"/>
<polygon fill="midnightblue" stroke="midnightblue" points="748.42,-375.875 758.996,-376.5 751.118,-369.416 748.42,-375.875"/>
</g>
<!-- Node328&#45;&gt;Node323 -->
<g id="edge22" class="edge"><title>Node328&#45;&gt;Node323</title>
<path fill="none" stroke="midnightblue" d="M445.888,-213.184C467.755,-223.951 498.312,-238.336 526,-249.028 531.968,-251.333 538.247,-253.583 544.552,-255.73"/>
<polygon fill="midnightblue" stroke="midnightblue" points="543.849,-259.185 554.443,-259.012 546.053,-252.541 543.849,-259.185"/>
</g>
<!-- Node328&#45;&gt;Node324 -->
<g id="edge23" class="edge"><title>Node328&#45;&gt;Node324</title>
<path fill="none" stroke="midnightblue" d="M465.113,-183.013C473.531,-179.994 482.104,-176.63 490,-173.028 519.812,-159.428 551.806,-140.298 574.627,-125.791"/>
<polygon fill="midnightblue" stroke="midnightblue" points="576.681,-128.632 583.203,-120.283 572.898,-122.742 576.681,-128.632"/>
</g>
<!-- Node328&#45;&gt;Node325 -->
<g id="edge25" class="edge"><title>Node328&#45;&gt;Node325</title>
<path fill="none" stroke="midnightblue" d="M489.731,-208.506C502.324,-210.295 515.443,-212.159 528.139,-213.964"/>
<polygon fill="midnightblue" stroke="midnightblue" points="527.82,-217.453 538.213,-215.395 528.805,-210.523 527.82,-217.453"/>
</g>
</g>
</svg>
        <g id="navigator" transform="translate(0 0)" fill="#404254">
                <rect fill="#f2f5e9" fill-opacity="0.5" stroke="#606060" stroke-width=".5" x="0" y="0" width="60" height="60"/>
                <use id="zoomplus" xlink:href="#zoomPlus" x="17" y="9" onmousedown="handleZoom(evt,'in')"/>
                <use id="zoomminus" xlink:href="#zoomMin" x="42" y="9" onmousedown="handleZoom(evt,'out')"/>
                <use id="reset" xlink:href="#resetDef" x="30" y="36" onmousedown="handleReset()"/>
                <g id="arrowUp" xlink:href="#dirArrow" transform="translate(30 24)" onmousedown="handlePan(0,-1)">
                  <use xlink:href="#rim" fill="#404040">
                        <set attributeName="fill" to="#808080" begin="arrowUp.mouseover" end="arrowUp.mouseout"/>
                  </use>
                  <path fill="none" stroke="white" stroke-width="1.5" d="M0,-3.0v7 M-2.5,-0.5L0,-3.0L2.5,-0.5"/>
                </g>
                <g id="arrowRight" xlink:href="#dirArrow" transform="rotate(90) translate(36 -43)" onmousedown="handlePan(1,0)">
                  <use xlink:href="#rim" fill="#404040">
                        <set attributeName="fill" to="#808080" begin="arrowRight.mouseover" end="arrowRight.mouseout"/>
                  </use>
                  <path fill="none" stroke="white" stroke-width="1.5" d="M0,-3.0v7 M-2.5,-0.5L0,-3.0L2.5,-0.5"/>
                </g>
                <g id="arrowDown" xlink:href="#dirArrow" transform="rotate(180) translate(-30 -48)" onmousedown="handlePan(0,1)">
                  <use xlink:href="#rim" fill="#404040">
                        <set attributeName="fill" to="#808080" begin="arrowDown.mouseover" end="arrowDown.mouseout"/>
                  </use>
                  <path fill="none" stroke="white" stroke-width="1.5" d="M0,-3.0v7 M-2.5,-0.5L0,-3.0L2.5,-0.5"/>
                </g>
                <g id="arrowLeft" xlink:href="#dirArrow" transform="rotate(270) translate(-36 17)" onmousedown="handlePan(-1,0)">
                  <use xlink:href="#rim" fill="#404040">
                        <set attributeName="fill" to="#808080" begin="arrowLeft.mouseover" end="arrowLeft.mouseout"/>
                  </use>
                  <path fill="none" stroke="white" stroke-width="1.5" d="M0,-3.0v7 M-2.5,-0.5L0,-3.0L2.5,-0.5"/>
                </g>
        </g>
        <svg viewBox="0 0 15 15" width="100%" height="30px" preserveAspectRatio="xMaxYMin meet">
         <g id="arrow_out" transform="scale(0.3 0.3)">
          <a xlink:href="classokw_1_1core_1_1_o_k_ad13df6f48f816f5d075efe045907527d_cgraph_org.svg" target="_base">
           <rect id="button" ry="5" rx="5" y="6" x="6" height="38" width="38"
                fill="#f2f5e9" fill-opacity="0.5" stroke="#606060" stroke-width="1.0"/>
           <path id="arrow"
             d="M 11.500037,31.436501 C 11.940474,20.09759 22.043105,11.32322 32.158766,21.979434 L 37.068811,17.246167 C 37.068811,17.246167 37.088388,32 37.088388,32 L 22.160133,31.978069 C 22.160133,31.978069 26.997745,27.140456 26.997745,27.140456 C 18.528582,18.264221 13.291696,25.230495 11.500037,31.436501 z"
             style="fill:#404040;"/>
          </a>
         </g>
        </svg>
</svg>
