<?xml version="1.0" encoding="UTF-8" standalone="no"?>
<!DOCTYPE svg PUBLIC "-//W3C//DTD SVG 1.1//EN"
 "http://www.w3.org/Graphics/SVG/1.1/DTD/svg11.dtd">
<!-- Generated by graphviz version 2.38.0 (20140413.2041)
 -->
<!-- Title: okw.gui.adapter.selenium.SeAnyChildWindow.getTooltip Pages: 1 -->
<svg width="1007pt" height="302pt"
 viewBox="0.00 0.00 1007.00 302.00" xmlns="http://www.w3.org/2000/svg" xmlns:xlink="http://www.w3.org/1999/xlink">
<g id="graph0" class="graph" transform="scale(1 1) rotate(0) translate(4 298)">
<title>okw.gui.adapter.selenium.SeAnyChildWindow.getTooltip</title>
<polygon fill="white" stroke="none" points="-4,4 -4,-298 1003,-298 1003,4 -4,4"/>
<!-- Node119 -->
<g id="node1" class="node"><title>Node119</title>
<g id="a_node1"><a xlink:title="Ermittelt den textuellen Inhalt des ToolTips.">
<polygon fill="#bfbfbf" stroke="black" points="0,-112.5 0,-142.5 154,-142.5 154,-112.5 0,-112.5"/>
<text text-anchor="start" x="8" y="-130.5" font-family="Helvetica,sans-Serif" font-size="10.00">okw.gui.adapter.selenium.</text>
<text text-anchor="middle" x="77" y="-119.5" font-family="Helvetica,sans-Serif" font-size="10.00">SeAnyChildWindow.getTooltip</text>
</a>
</g>
</g>
<!-- Node120 -->
<g id="node2" class="node"><title>Node120</title>
<g id="a_node2"><a xlink:href="classokw_1_1gui_1_1_any_win_base.html#abaab572bdbed7b471f659d5dd8c76853" target="_top" xlink:title="Diese Methode ruft die Methode Logger.Instance.LogFunctionStartDebug(fps_FunctionName),...">
<polygon fill="white" stroke="black" points="190,-186.5 190,-216.5 363,-216.5 363,-186.5 190,-186.5"/>
<text text-anchor="start" x="198" y="-204.5" font-family="Helvetica,sans-Serif" font-size="10.00">okw.gui.AnyWinBase.LogFunction</text>
<text text-anchor="middle" x="276.5" y="-193.5" font-family="Helvetica,sans-Serif" font-size="10.00">StartDebug</text>
</a>
</g>
</g>
<!-- Node119&#45;&gt;Node120 -->
<g id="edge1" class="edge"><title>Node119&#45;&gt;Node120</title>
<path fill="none" stroke="midnightblue" d="M109.423,-142.538C131.635,-152.847 162.272,-166.427 190,-176.5 196.446,-178.841 203.224,-181.122 210.026,-183.292"/>
<polygon fill="midnightblue" stroke="midnightblue" points="209.384,-186.758 219.972,-186.387 211.464,-180.074 209.384,-186.758"/>
</g>
<!-- Node121 -->
<g id="node3" class="node"><title>Node121</title>
<g id="a_node3"><a xlink:href="classokw_1_1gui_1_1adapter_1_1selenium_1_1_se_any_child_window.html#a72faf4aa1717b4178fae1b0570ca9b28" target="_top" xlink:title="Wartet auf das Objekt Wenn kein Fenster gefunden wird,.">
<polygon fill="white" stroke="black" points="198,-137.5 198,-167.5 355,-167.5 355,-137.5 198,-137.5"/>
<text text-anchor="start" x="206" y="-155.5" font-family="Helvetica,sans-Serif" font-size="10.00">okw.gui.adapter.selenium.</text>
<text text-anchor="middle" x="276.5" y="-144.5" font-family="Helvetica,sans-Serif" font-size="10.00">SeAnyChildWindow.WaitForMe</text>
</a>
</g>
</g>
<!-- Node119&#45;&gt;Node121 -->
<g id="edge2" class="edge"><title>Node119&#45;&gt;Node121</title>
<path fill="none" stroke="midnightblue" d="M154.076,-137.13C165.058,-138.52 176.436,-139.96 187.625,-141.377"/>
<polygon fill="midnightblue" stroke="midnightblue" points="187.47,-144.885 197.83,-142.668 188.349,-137.94 187.47,-144.885"/>
</g>
<!-- Node130 -->
<g id="node12" class="node"><title>Node130</title>
<g id="a_node12"><a xlink:href="classokw_1_1gui_1_1adapter_1_1selenium_1_1_se_any_child_window.html#a9a138af1fc6ff850d708d66f308a2525" target="_top" xlink:title="Ermittelt aus dem gegebenen Locator das DOM&#45;Elelement, welches das Objekt representiert.">
<polygon fill="white" stroke="black" points="206.5,-88.5 206.5,-118.5 346.5,-118.5 346.5,-88.5 206.5,-88.5"/>
<text text-anchor="start" x="214.5" y="-106.5" font-family="Helvetica,sans-Serif" font-size="10.00">okw.gui.adapter.selenium.</text>
<text text-anchor="middle" x="276.5" y="-95.5" font-family="Helvetica,sans-Serif" font-size="10.00">SeAnyChildWindow.Me</text>
</a>
</g>
</g>
<!-- Node119&#45;&gt;Node130 -->
<g id="edge11" class="edge"><title>Node119&#45;&gt;Node130</title>
<path fill="none" stroke="midnightblue" d="M154.076,-118.255C167.892,-116.576 182.334,-114.821 196.238,-113.132"/>
<polygon fill="midnightblue" stroke="midnightblue" points="196.747,-116.596 206.252,-111.915 195.903,-109.647 196.747,-116.596"/>
</g>
<!-- Node134 -->
<g id="node16" class="node"><title>Node134</title>
<g id="a_node16"><a xlink:href="classokw_1_1gui_1_1_any_win_base.html#a51cf50ace21902b3a5359316f53a7f3e" target="_top" xlink:title="Methode ruft die Methode Logger.Instance.LogFunctionEndDebug() auf.">
<polygon fill="white" stroke="black" points="190,-39.5 190,-69.5 363,-69.5 363,-39.5 190,-39.5"/>
<text text-anchor="start" x="198" y="-57.5" font-family="Helvetica,sans-Serif" font-size="10.00">okw.gui.AnyWinBase.LogFunction</text>
<text text-anchor="middle" x="276.5" y="-46.5" font-family="Helvetica,sans-Serif" font-size="10.00">EndDebug</text>
</a>
</g>
</g>
<!-- Node119&#45;&gt;Node134 -->
<g id="edge17" class="edge"><title>Node119&#45;&gt;Node134</title>
<path fill="none" stroke="midnightblue" d="M109.39,-112.368C131.586,-102.016 162.218,-88.4226 190,-78.5 195.812,-76.4241 201.897,-74.4106 208.028,-72.4907"/>
<polygon fill="midnightblue" stroke="midnightblue" points="209.12,-75.817 217.666,-69.5553 207.081,-69.1206 209.12,-75.817"/>
</g>
<!-- Node122 -->
<g id="node4" class="node"><title>Node122</title>
<g id="a_node4"><a xlink:href="classokw_1_1log_1_1_logger___sngltn.html#ab4fc711bb4c754f251372ff3b14ab9c9" target="_top" xlink:title="Creates a new hierarchical level in the results file.">
<polygon fill="white" stroke="black" points="421.5,-263.5 421.5,-293.5 564.5,-293.5 564.5,-263.5 421.5,-263.5"/>
<text text-anchor="start" x="429.5" y="-281.5" font-family="Helvetica,sans-Serif" font-size="10.00">okw.log.Logger_Sngltn.Res</text>
<text text-anchor="middle" x="493" y="-270.5" font-family="Helvetica,sans-Serif" font-size="10.00">OpenList</text>
</a>
</g>
</g>
<!-- Node121&#45;&gt;Node122 -->
<g id="edge3" class="edge"><title>Node121&#45;&gt;Node122</title>
<path fill="none" stroke="midnightblue" d="M349.858,-167.692C354.559,-170.195 359.003,-173.109 363,-176.5 391.807,-200.94 370.058,-229.22 399,-253.5 402.981,-256.84 407.365,-259.737 411.998,-262.25"/>
<polygon fill="midnightblue" stroke="midnightblue" points="410.636,-265.478 421.169,-266.624 413.65,-259.16 410.636,-265.478"/>
</g>
<!-- Node123 -->
<g id="node5" class="node"><title>Node123</title>
<g id="a_node5"><a xlink:href="classokw_1_1log_1_1_logger___sngltn.html#a8ebceaddd6cc6963ddb8e08c72ea808c" target="_top" xlink:title="LogPrint Function: Prints the values of expressions to the results file.">
<polygon fill="white" stroke="black" points="645.5,-134.5 645.5,-164.5 788.5,-164.5 788.5,-134.5 645.5,-134.5"/>
<text text-anchor="start" x="653.5" y="-152.5" font-family="Helvetica,sans-Serif" font-size="10.00">okw.log.Logger_Sngltn.Log</text>
<text text-anchor="middle" x="717" y="-141.5" font-family="Helvetica,sans-Serif" font-size="10.00">Print</text>
</a>
</g>
</g>
<!-- Node121&#45;&gt;Node123 -->
<g id="edge4" class="edge"><title>Node121&#45;&gt;Node123</title>
<path fill="none" stroke="midnightblue" d="M355.138,-151.969C433.928,-151.43 555.365,-150.599 635.255,-150.052"/>
<polygon fill="midnightblue" stroke="midnightblue" points="635.295,-153.552 645.271,-149.984 635.247,-146.552 635.295,-153.552"/>
</g>
<!-- Node124 -->
<g id="node6" class="node"><title>Node124</title>
<g id="a_node6"><a xlink:href="classokw_1_1gui_1_1_any_win_base.html#a9929f6fae1f4e2c20df79d32d5bc79db" target="_top" xlink:title="Holt den vollständig (rekursiv) aufgelösten (z.B.">
<polygon fill="white" stroke="black" points="409.5,-99 409.5,-118 576.5,-118 576.5,-99 409.5,-99"/>
<text text-anchor="middle" x="493" y="-106" font-family="Helvetica,sans-Serif" font-size="10.00">okw.gui.AnyWinBase.getLocator</text>
</a>
</g>
</g>
<!-- Node121&#45;&gt;Node124 -->
<g id="edge5" class="edge"><title>Node121&#45;&gt;Node124</title>
<path fill="none" stroke="midnightblue" d="M350.719,-137.481C378.469,-131.788 409.61,-125.401 435.579,-120.074"/>
<polygon fill="midnightblue" stroke="midnightblue" points="436.534,-123.451 445.627,-118.012 435.128,-116.593 436.534,-123.451"/>
</g>
<!-- Node126 -->
<g id="node8" class="node"><title>Node126</title>
<g id="a_node8"><a xlink:href="classokw_1_1log_1_1_logger___sngltn.html#a9b54104f7e0b4c0a473877b19dfaed56" target="_top" xlink:title="Closes a hierarchical level in the results file that was opened with ResOpenList.">
<polygon fill="white" stroke="black" points="421.5,-175.5 421.5,-205.5 564.5,-205.5 564.5,-175.5 421.5,-175.5"/>
<text text-anchor="start" x="429.5" y="-193.5" font-family="Helvetica,sans-Serif" font-size="10.00">okw.log.Logger_Sngltn.Res</text>
<text text-anchor="middle" x="493" y="-182.5" font-family="Helvetica,sans-Serif" font-size="10.00">CloseList</text>
</a>
</g>
</g>
<!-- Node121&#45;&gt;Node126 -->
<g id="edge7" class="edge"><title>Node121&#45;&gt;Node126</title>
<path fill="none" stroke="midnightblue" d="M355.243,-166.273C373.452,-169.498 392.891,-172.942 411.229,-176.191"/>
<polygon fill="midnightblue" stroke="midnightblue" points="410.831,-179.675 421.289,-177.973 412.053,-172.782 410.831,-179.675"/>
</g>
<!-- Node127 -->
<g id="node9" class="node"><title>Node127</title>
<g id="a_node9"><a xlink:href="classokw_1_1_log_messenger.html#af225d1f037d47b3b085175c09d78bdd2" target="_top" xlink:title="Holt die Log&#45;Meldung für MethodeNmae/Textkey ohne weitere Parameter.">
<polygon fill="white" stroke="black" points="408.5,-225 408.5,-244 577.5,-244 577.5,-225 408.5,-225"/>
<text text-anchor="middle" x="493" y="-232" font-family="Helvetica,sans-Serif" font-size="10.00">okw.LogMessenger.GetMessage</text>
</a>
</g>
</g>
<!-- Node121&#45;&gt;Node127 -->
<g id="edge8" class="edge"><title>Node121&#45;&gt;Node127</title>
<path fill="none" stroke="midnightblue" d="M344.786,-167.581C351.143,-170.122 357.324,-173.074 363,-176.5 382.918,-188.522 378.72,-203.1 399,-214.5 403.859,-217.231 409.053,-219.59 414.409,-221.627"/>
<polygon fill="midnightblue" stroke="midnightblue" points="413.594,-225.047 424.189,-224.957 415.851,-218.421 413.594,-225.047"/>
</g>
<!-- Node125 -->
<g id="node7" class="node"><title>Node125</title>
<g id="a_node7"><a xlink:href="classokw_1_1gui_1_1_o_k_w_locator.html#adc74fc2125dd048dc1cb84e011f47ec8" target="_top" xlink:title="Holt den vollständig (rekursiv) aufgelösten (z.B.">
<polygon fill="white" stroke="black" points="634,-96 634,-115 800,-115 800,-96 634,-96"/>
<text text-anchor="middle" x="717" y="-103" font-family="Helvetica,sans-Serif" font-size="10.00">okw.gui.OKWLocator.getLocator</text>
</a>
</g>
</g>
<!-- Node124&#45;&gt;Node125 -->
<g id="edge6" class="edge"><title>Node124&#45;&gt;Node125</title>
<path fill="none" stroke="midnightblue" d="M576.665,-107.383C591.935,-107.177 607.971,-106.96 623.51,-106.75"/>
<polygon fill="midnightblue" stroke="midnightblue" points="623.684,-110.248 633.636,-106.613 623.59,-103.249 623.684,-110.248"/>
</g>
<!-- Node128 -->
<g id="node10" class="node"><title>Node128</title>
<g id="a_node10"><a xlink:href="classokw_1_1_log_messenger.html#a530cd6ab82ec82a04206a2e976ec06e3" target="_top" xlink:title="Interne Kernfunktion holt die Log&#45;Meldung mit Platzhaltern aus der XML&#45;Datei.">
<polygon fill="white" stroke="black" points="629.5,-225 629.5,-244 804.5,-244 804.5,-225 629.5,-225"/>
<text text-anchor="middle" x="717" y="-232" font-family="Helvetica,sans-Serif" font-size="10.00">okw.LogMessenger.ReadMessage</text>
</a>
</g>
</g>
<!-- Node127&#45;&gt;Node128 -->
<g id="edge9" class="edge"><title>Node127&#45;&gt;Node128</title>
<path fill="none" stroke="midnightblue" d="M577.612,-234.5C591.162,-234.5 605.293,-234.5 619.126,-234.5"/>
<polygon fill="midnightblue" stroke="midnightblue" points="619.134,-238 629.134,-234.5 619.134,-231 619.134,-238"/>
</g>
<!-- Node129 -->
<g id="node11" class="node"><title>Node129</title>
<g id="a_node11"><a xlink:href="classokw_1_1_o_k_w___xml_reader.html#ab920b5335a2e1429c14cc5f8e79f39eb" target="_top" xlink:title="Lies den TextContent eines Tag.">
<polygon fill="white" stroke="black" points="847,-219.5 847,-249.5 999,-249.5 999,-219.5 847,-219.5"/>
<text text-anchor="start" x="855" y="-237.5" font-family="Helvetica,sans-Serif" font-size="10.00">okw.OKW_XmlReader.getText</text>
<text text-anchor="middle" x="923" y="-226.5" font-family="Helvetica,sans-Serif" font-size="10.00">ContentSingleValue</text>
</a>
</g>
</g>
<!-- Node128&#45;&gt;Node129 -->
<g id="edge10" class="edge"><title>Node128&#45;&gt;Node129</title>
<path fill="none" stroke="midnightblue" d="M804.514,-234.5C815.213,-234.5 826.144,-234.5 836.821,-234.5"/>
<polygon fill="midnightblue" stroke="midnightblue" points="836.966,-238 846.966,-234.5 836.966,-231 836.966,-238"/>
</g>
<!-- Node130&#45;&gt;Node124 -->
<g id="edge16" class="edge"><title>Node130&#45;&gt;Node124</title>
<path fill="none" stroke="midnightblue" d="M346.55,-105.11C363.237,-105.499 381.344,-105.921 398.933,-106.331"/>
<polygon fill="midnightblue" stroke="midnightblue" points="399.136,-109.836 409.215,-106.57 399.299,-102.838 399.136,-109.836"/>
</g>
<!-- Node131 -->
<g id="node13" class="node"><title>Node131</title>
<g id="a_node13"><a xlink:href="classokw_1_1gui_1_1adapter_1_1selenium_1_1webdriver_1_1_se_driver.html#aee9e3f8a67f4ad1f8100a33ba71c926e" target="_top" xlink:title="Gibt die Instance für die einzige Instanz dieser Klasse zurück.">
<polygon fill="white" stroke="black" points="399,-0.5 399,-30.5 587,-30.5 587,-0.5 399,-0.5"/>
<text text-anchor="start" x="407" y="-18.5" font-family="Helvetica,sans-Serif" font-size="10.00">okw.gui.adapter.selenium.webdriver.</text>
<text text-anchor="middle" x="493" y="-7.5" font-family="Helvetica,sans-Serif" font-size="10.00">SeDriver.getInstance</text>
</a>
</g>
</g>
<!-- Node130&#45;&gt;Node131 -->
<g id="edge12" class="edge"><title>Node130&#45;&gt;Node131</title>
<path fill="none" stroke="midnightblue" d="M343.059,-88.3763C350.031,-85.5959 356.822,-82.3297 363,-78.5 383.049,-66.0715 378.755,-51.6071 399,-39.5 401.862,-37.7883 404.845,-36.1976 407.912,-34.7194"/>
<polygon fill="midnightblue" stroke="midnightblue" points="409.56,-37.819 417.328,-30.6139 406.762,-31.4023 409.56,-37.819"/>
</g>
<!-- Node132 -->
<g id="node14" class="node"><title>Node132</title>
<g id="a_node14"><a xlink:href="classokw_1_1gui_1_1adapter_1_1selenium_1_1webdriver_1_1_se_driver.html#a6d879107786a94ebbdbd42b4ac6c6acf" target="_top" xlink:title="Ermittelt das Webelement mit der gegebenen frameID und dem gegebenen Locator.">
<polygon fill="white" stroke="black" points="399,-49.5 399,-79.5 587,-79.5 587,-49.5 399,-49.5"/>
<text text-anchor="start" x="407" y="-67.5" font-family="Helvetica,sans-Serif" font-size="10.00">okw.gui.adapter.selenium.webdriver.</text>
<text text-anchor="middle" x="493" y="-56.5" font-family="Helvetica,sans-Serif" font-size="10.00">SeDriver.getElement</text>
</a>
</g>
</g>
<!-- Node130&#45;&gt;Node132 -->
<g id="edge13" class="edge"><title>Node130&#45;&gt;Node132</title>
<path fill="none" stroke="midnightblue" d="M346.55,-90.9455C363.237,-87.9114 381.344,-84.6192 398.933,-81.4212"/>
<polygon fill="midnightblue" stroke="midnightblue" points="400.002,-84.7843 409.215,-79.5518 398.75,-77.8972 400.002,-84.7843"/>
</g>
<!-- Node132&#45;&gt;Node123 -->
<g id="edge15" class="edge"><title>Node132&#45;&gt;Node123</title>
<path fill="none" stroke="midnightblue" d="M565.088,-79.5157C572.711,-82.3159 580.169,-85.6163 587,-89.5 606.399,-100.529 603.601,-113.471 623,-124.5 627.142,-126.855 631.515,-128.996 636.015,-130.94"/>
<polygon fill="midnightblue" stroke="midnightblue" points="634.813,-134.229 645.399,-134.662 637.394,-127.722 634.813,-134.229"/>
</g>
<!-- Node133 -->
<g id="node15" class="node"><title>Node133</title>
<g id="a_node15"><a xlink:href="classokw_1_1gui_1_1adapter_1_1selenium_1_1webdriver_1_1_se_driver.html#a47eec72c911c05beb2127672daafb325" target="_top" xlink:title="Wechselt das aktuelle Frame auf das Frame mit der id=iframeID.">
<polygon fill="white" stroke="black" points="623,-46.5 623,-76.5 811,-76.5 811,-46.5 623,-46.5"/>
<text text-anchor="start" x="631" y="-64.5" font-family="Helvetica,sans-Serif" font-size="10.00">okw.gui.adapter.selenium.webdriver.</text>
<text text-anchor="middle" x="717" y="-53.5" font-family="Helvetica,sans-Serif" font-size="10.00">SeDriver.swichToFrame</text>
</a>
</g>
</g>
<!-- Node132&#45;&gt;Node133 -->
<g id="edge14" class="edge"><title>Node132&#45;&gt;Node133</title>
<path fill="none" stroke="midnightblue" d="M587.183,-63.2408C595.535,-63.1279 604.024,-63.0132 612.456,-62.8992"/>
<polygon fill="midnightblue" stroke="midnightblue" points="612.748,-66.3957 622.7,-62.7608 612.653,-59.3964 612.748,-66.3957"/>
</g>
</g>
</svg>
