<?xml version="1.0" encoding="UTF-8" standalone="no"?>
<!DOCTYPE svg PUBLIC "-//W3C//DTD SVG 1.1//EN"
 "http://www.w3.org/Graphics/SVG/1.1/DTD/svg11.dtd">
<!-- Generated by graphviz version 2.38.0 (20140413.2041)
 -->
<!-- Title: okw.gui.adapter.selenium.SeAnyWindow.getLabel Pages: 1 -->
<svg width="801pt" height="318pt"
 viewBox="0.00 0.00 801.00 318.00" xmlns="http://www.w3.org/2000/svg" xmlns:xlink="http://www.w3.org/1999/xlink">
<g id="graph0" class="graph" transform="scale(1 1) rotate(0) translate(4 314)">
<title>okw.gui.adapter.selenium.SeAnyWindow.getLabel</title>
<polygon fill="white" stroke="none" points="-4,4 -4,-314 797,-314 797,4 -4,4"/>
<!-- Node113 -->
<g id="node1" class="node"><title>Node113</title>
<g id="a_node1"><a xlink:title="Ermittelt den textuellen Inhalt des Labels.">
<polygon fill="#bfbfbf" stroke="black" points="0,-163.5 0,-193.5 140,-193.5 140,-163.5 0,-163.5"/>
<text text-anchor="start" x="8" y="-181.5" font-family="Helvetica,sans-Serif" font-size="10.00">okw.gui.adapter.selenium.</text>
<text text-anchor="middle" x="70" y="-170.5" font-family="Helvetica,sans-Serif" font-size="10.00">SeAnyWindow.getLabel</text>
</a>
</g>
</g>
<!-- Node114 -->
<g id="node2" class="node"><title>Node114</title>
<g id="a_node2"><a xlink:href="classokw_1_1gui_1_1adapter_1_1selenium_1_1_se_any_window.html#ad806d20bf0e42d47e0aa5282532d3230" target="_top" xlink:title="Prüft die Existenz des aktuellen Objektes.">
<polygon fill="white" stroke="black" points="190.5,-139.5 190.5,-169.5 330.5,-169.5 330.5,-139.5 190.5,-139.5"/>
<text text-anchor="start" x="198.5" y="-157.5" font-family="Helvetica,sans-Serif" font-size="10.00">okw.gui.adapter.selenium.</text>
<text text-anchor="middle" x="260.5" y="-146.5" font-family="Helvetica,sans-Serif" font-size="10.00">SeAnyWindow.getExists</text>
</a>
</g>
</g>
<!-- Node113&#45;&gt;Node114 -->
<g id="edge1" class="edge"><title>Node113&#45;&gt;Node114</title>
<path fill="none" stroke="midnightblue" d="M140.12,-169.7C153.182,-168.036 166.939,-166.285 180.283,-164.586"/>
<polygon fill="midnightblue" stroke="midnightblue" points="180.91,-168.034 190.388,-163.299 180.026,-161.09 180.91,-168.034"/>
</g>
<!-- Node117 -->
<g id="node5" class="node"><title>Node117</title>
<g id="a_node5"><a xlink:href="classokw_1_1gui_1_1adapter_1_1selenium_1_1webdriver_1_1_se_driver.html#aee9e3f8a67f4ad1f8100a33ba71c926e" target="_top" xlink:title="Gibt die Instance für die einzige Instanz dieser Klasse zurück.">
<polygon fill="white" stroke="black" points="381,-230.5 381,-260.5 569,-260.5 569,-230.5 381,-230.5"/>
<text text-anchor="start" x="389" y="-248.5" font-family="Helvetica,sans-Serif" font-size="10.00">okw.gui.adapter.selenium.webdriver.</text>
<text text-anchor="middle" x="475" y="-237.5" font-family="Helvetica,sans-Serif" font-size="10.00">SeDriver.getInstance</text>
</a>
</g>
</g>
<!-- Node113&#45;&gt;Node117 -->
<g id="edge18" class="edge"><title>Node113&#45;&gt;Node117</title>
<path fill="none" stroke="midnightblue" d="M95.8392,-193.73C116.481,-205.534 147.052,-221.087 176,-228.5 239.34,-244.721 312.633,-249.082 370.682,-249.333"/>
<polygon fill="midnightblue" stroke="midnightblue" points="370.967,-252.833 380.968,-249.336 370.969,-245.833 370.967,-252.833"/>
</g>
<!-- Node122 -->
<g id="node10" class="node"><title>Node122</title>
<g id="a_node10"><a xlink:href="classokw_1_1_log_messenger.html#af225d1f037d47b3b085175c09d78bdd2" target="_top" xlink:title="Holt die Log&#45;Meldung für MethodeNmae/Textkey ohne weitere Parameter.">
<polygon fill="white" stroke="black" points="176,-54 176,-73 345,-73 345,-54 176,-54"/>
<text text-anchor="middle" x="260.5" y="-61" font-family="Helvetica,sans-Serif" font-size="10.00">okw.LogMessenger.GetMessage</text>
</a>
</g>
</g>
<!-- Node113&#45;&gt;Node122 -->
<g id="edge9" class="edge"><title>Node113&#45;&gt;Node122</title>
<path fill="none" stroke="midnightblue" d="M95.6431,-163.466C131.737,-141.446 198.603,-100.652 234.755,-78.5965"/>
<polygon fill="midnightblue" stroke="midnightblue" points="236.953,-81.3554 243.667,-73.1594 233.307,-75.3797 236.953,-81.3554"/>
</g>
<!-- Node125 -->
<g id="node13" class="node"><title>Node125</title>
<g id="a_node13"><a xlink:href="classokw_1_1gui_1_1adapter_1_1selenium_1_1_se_any_window.html#a8b42bf27f4660b4807375a57fa9de815" target="_top" xlink:title="Ermittelt aus dem gegebenen Locator das DOM&#45;Elelement, welches das Objekt representiert.">
<polygon fill="white" stroke="black" points="190.5,-188.5 190.5,-218.5 330.5,-218.5 330.5,-188.5 190.5,-188.5"/>
<text text-anchor="start" x="198.5" y="-206.5" font-family="Helvetica,sans-Serif" font-size="10.00">okw.gui.adapter.selenium.</text>
<text text-anchor="middle" x="260.5" y="-195.5" font-family="Helvetica,sans-Serif" font-size="10.00">SeAnyWindow.Me</text>
</a>
</g>
</g>
<!-- Node113&#45;&gt;Node125 -->
<g id="edge12" class="edge"><title>Node113&#45;&gt;Node125</title>
<path fill="none" stroke="midnightblue" d="M140.12,-187.667C153.182,-189.399 166.939,-191.224 180.283,-192.994"/>
<polygon fill="midnightblue" stroke="midnightblue" points="180.015,-196.489 190.388,-194.334 180.935,-189.55 180.015,-196.489"/>
</g>
<!-- Node115 -->
<g id="node3" class="node"><title>Node115</title>
<g id="a_node3"><a xlink:href="classokw_1_1gui_1_1_any_win_base.html#a9929f6fae1f4e2c20df79d32d5bc79db" target="_top" xlink:title="Holt den vollständig (rekursiv) aufgelösten (z.B.">
<polygon fill="white" stroke="black" points="391.5,-192 391.5,-211 558.5,-211 558.5,-192 391.5,-192"/>
<text text-anchor="middle" x="475" y="-199" font-family="Helvetica,sans-Serif" font-size="10.00">okw.gui.AnyWinBase.getLocator</text>
</a>
</g>
</g>
<!-- Node114&#45;&gt;Node115 -->
<g id="edge2" class="edge"><title>Node114&#45;&gt;Node115</title>
<path fill="none" stroke="midnightblue" d="M324.063,-169.515C342.388,-173.817 362.476,-178.438 381,-182.5 392.329,-184.984 404.459,-187.538 416.092,-189.937"/>
<polygon fill="midnightblue" stroke="midnightblue" points="415.656,-193.42 426.155,-191.998 417.061,-186.562 415.656,-193.42"/>
</g>
<!-- Node114&#45;&gt;Node117 -->
<g id="edge4" class="edge"><title>Node114&#45;&gt;Node117</title>
<path fill="none" stroke="midnightblue" d="M325.621,-169.6C332.412,-172.385 339.014,-175.659 345,-179.5 365.408,-192.598 360.408,-207.692 381,-220.5 384.416,-222.625 388.012,-224.571 391.723,-226.353"/>
<polygon fill="midnightblue" stroke="midnightblue" points="390.583,-229.674 401.149,-230.455 393.376,-223.256 390.583,-229.674"/>
</g>
<!-- Node118 -->
<g id="node6" class="node"><title>Node118</title>
<g id="a_node6"><a xlink:href="classokw_1_1gui_1_1adapter_1_1selenium_1_1webdriver_1_1_se_driver.html#a3505c2c7aba67399be71f26d15489839" target="_top" xlink:title="Ermittelt das Webelement mit der gegebenen frameID und dem gegebenen Locator.">
<polygon fill="white" stroke="black" points="381,-142.5 381,-172.5 569,-172.5 569,-142.5 381,-142.5"/>
<text text-anchor="start" x="389" y="-160.5" font-family="Helvetica,sans-Serif" font-size="10.00">okw.gui.adapter.selenium.webdriver.</text>
<text text-anchor="middle" x="475" y="-149.5" font-family="Helvetica,sans-Serif" font-size="10.00">SeDriver.getElements</text>
</a>
</g>
</g>
<!-- Node114&#45;&gt;Node118 -->
<g id="edge5" class="edge"><title>Node114&#45;&gt;Node118</title>
<path fill="none" stroke="midnightblue" d="M330.786,-155.478C343.526,-155.658 357.076,-155.849 370.566,-156.04"/>
<polygon fill="midnightblue" stroke="midnightblue" points="370.806,-159.543 380.855,-156.185 370.905,-152.544 370.806,-159.543"/>
</g>
<!-- Node120 -->
<g id="node8" class="node"><title>Node120</title>
<g id="a_node8"><a xlink:href="classokw_1_1log_1_1_logger___sngltn.html#a2c15e9b2cd0c6266f4c67b8cb00d92e5" target="_top" xlink:title="LogWarning Function: Logs a warning to the results file.">
<polygon fill="white" stroke="black" points="403.5,-44.5 403.5,-74.5 546.5,-74.5 546.5,-44.5 403.5,-44.5"/>
<text text-anchor="start" x="411.5" y="-62.5" font-family="Helvetica,sans-Serif" font-size="10.00">okw.log.Logger_Sngltn.Log</text>
<text text-anchor="middle" x="475" y="-51.5" font-family="Helvetica,sans-Serif" font-size="10.00">Warning</text>
</a>
</g>
</g>
<!-- Node114&#45;&gt;Node120 -->
<g id="edge7" class="edge"><title>Node114&#45;&gt;Node120</title>
<path fill="none" stroke="midnightblue" d="M282.55,-139.473C305.695,-123.567 344.461,-98.7049 381,-83.5 386.003,-81.418 391.235,-79.4778 396.557,-77.6769"/>
<polygon fill="midnightblue" stroke="midnightblue" points="397.749,-80.9705 406.203,-74.5854 395.612,-74.3045 397.749,-80.9705"/>
</g>
<!-- Node121 -->
<g id="node9" class="node"><title>Node121</title>
<g id="a_node9"><a xlink:href="classokw_1_1log_1_1_logger___sngltn.html#a313f97c79ba4662d9daaf7f537dd02f4" target="_top" xlink:title="Loggt eine Nachricht.">
<polygon fill="white" stroke="black" points="403.5,-93.5 403.5,-123.5 546.5,-123.5 546.5,-93.5 403.5,-93.5"/>
<text text-anchor="start" x="411.5" y="-111.5" font-family="Helvetica,sans-Serif" font-size="10.00">okw.log.Logger_Sngltn.Log</text>
<text text-anchor="middle" x="475" y="-100.5" font-family="Helvetica,sans-Serif" font-size="10.00">PrintDebug</text>
</a>
</g>
</g>
<!-- Node114&#45;&gt;Node121 -->
<g id="edge8" class="edge"><title>Node114&#45;&gt;Node121</title>
<path fill="none" stroke="midnightblue" d="M330.786,-139.502C351.175,-135.088 373.638,-130.225 394.608,-125.686"/>
<polygon fill="midnightblue" stroke="midnightblue" points="395.411,-129.093 404.444,-123.557 393.93,-122.252 395.411,-129.093"/>
</g>
<!-- Node116 -->
<g id="node4" class="node"><title>Node116</title>
<g id="a_node4"><a xlink:href="classokw_1_1gui_1_1_o_k_w_locator.html#adc74fc2125dd048dc1cb84e011f47ec8" target="_top" xlink:title="Holt den vollständig (rekursiv) aufgelösten (z.B.">
<polygon fill="white" stroke="black" points="616,-192 616,-211 782,-211 782,-192 616,-192"/>
<text text-anchor="middle" x="699" y="-199" font-family="Helvetica,sans-Serif" font-size="10.00">okw.gui.OKWLocator.getLocator</text>
</a>
</g>
</g>
<!-- Node115&#45;&gt;Node116 -->
<g id="edge3" class="edge"><title>Node115&#45;&gt;Node116</title>
<path fill="none" stroke="midnightblue" d="M558.665,-201.5C573.935,-201.5 589.971,-201.5 605.51,-201.5"/>
<polygon fill="midnightblue" stroke="midnightblue" points="605.636,-205 615.636,-201.5 605.636,-198 605.636,-205"/>
</g>
<!-- Node119 -->
<g id="node7" class="node"><title>Node119</title>
<g id="a_node7"><a xlink:href="classokw_1_1gui_1_1adapter_1_1selenium_1_1webdriver_1_1_se_driver.html#a47eec72c911c05beb2127672daafb325" target="_top" xlink:title="Wechselt das aktuelle Frame auf das Frame mit der id=iframeID.">
<polygon fill="white" stroke="black" points="605,-230.5 605,-260.5 793,-260.5 793,-230.5 605,-230.5"/>
<text text-anchor="start" x="613" y="-248.5" font-family="Helvetica,sans-Serif" font-size="10.00">okw.gui.adapter.selenium.webdriver.</text>
<text text-anchor="middle" x="699" y="-237.5" font-family="Helvetica,sans-Serif" font-size="10.00">SeDriver.swichToFrame</text>
</a>
</g>
</g>
<!-- Node118&#45;&gt;Node119 -->
<g id="edge6" class="edge"><title>Node118&#45;&gt;Node119</title>
<path fill="none" stroke="midnightblue" d="M548.219,-172.604C555.473,-175.378 562.537,-178.648 569,-182.5 588.984,-194.411 585.016,-208.589 605,-220.5 608.635,-222.667 612.461,-224.65 616.404,-226.463"/>
<polygon fill="midnightblue" stroke="midnightblue" points="615.206,-229.756 625.781,-230.396 617.913,-223.301 615.206,-229.756"/>
</g>
<!-- Node123 -->
<g id="node11" class="node"><title>Node123</title>
<g id="a_node11"><a xlink:href="classokw_1_1_log_messenger.html#a530cd6ab82ec82a04206a2e976ec06e3" target="_top" xlink:title="Interne Kernfunktion holt die Log&#45;Meldung mit Platzhaltern aus der XML&#45;Datei.">
<polygon fill="white" stroke="black" points="387.5,-6 387.5,-25 562.5,-25 562.5,-6 387.5,-6"/>
<text text-anchor="middle" x="475" y="-13" font-family="Helvetica,sans-Serif" font-size="10.00">okw.LogMessenger.ReadMessage</text>
</a>
</g>
</g>
<!-- Node122&#45;&gt;Node123 -->
<g id="edge10" class="edge"><title>Node122&#45;&gt;Node123</title>
<path fill="none" stroke="midnightblue" d="M299.36,-53.9377C322.82,-48.1056 353.602,-40.621 381,-34.5 392.195,-31.9989 404.178,-29.4531 415.693,-27.072"/>
<polygon fill="midnightblue" stroke="midnightblue" points="416.567,-30.4656 425.66,-25.027 415.16,-23.6084 416.567,-30.4656"/>
</g>
<!-- Node124 -->
<g id="node12" class="node"><title>Node124</title>
<g id="a_node12"><a xlink:href="classokw_1_1_o_k_w___xml_reader.html#ab920b5335a2e1429c14cc5f8e79f39eb" target="_top" xlink:title="Lies den TextContent eines Tag.">
<polygon fill="white" stroke="black" points="623,-0.5 623,-30.5 775,-30.5 775,-0.5 623,-0.5"/>
<text text-anchor="start" x="631" y="-18.5" font-family="Helvetica,sans-Serif" font-size="10.00">okw.OKW_XmlReader.getText</text>
<text text-anchor="middle" x="699" y="-7.5" font-family="Helvetica,sans-Serif" font-size="10.00">ContentSingleValue</text>
</a>
</g>
</g>
<!-- Node123&#45;&gt;Node124 -->
<g id="edge11" class="edge"><title>Node123&#45;&gt;Node124</title>
<path fill="none" stroke="midnightblue" d="M562.785,-15.5C579.2,-15.5 596.359,-15.5 612.727,-15.5"/>
<polygon fill="midnightblue" stroke="midnightblue" points="612.803,-19.0001 622.803,-15.5 612.803,-12.0001 612.803,-19.0001"/>
</g>
<!-- Node125&#45;&gt;Node115 -->
<g id="edge17" class="edge"><title>Node125&#45;&gt;Node115</title>
<path fill="none" stroke="midnightblue" d="M330.786,-202.848C346.834,-202.697 364.167,-202.534 381.046,-202.375"/>
<polygon fill="midnightblue" stroke="midnightblue" points="381.514,-205.871 391.481,-202.277 381.448,-198.871 381.514,-205.871"/>
</g>
<!-- Node125&#45;&gt;Node117 -->
<g id="edge13" class="edge"><title>Node125&#45;&gt;Node117</title>
<path fill="none" stroke="midnightblue" d="M330.786,-217.194C349.042,-220.802 368.96,-224.739 387.981,-228.499"/>
<polygon fill="midnightblue" stroke="midnightblue" points="387.343,-231.94 397.832,-230.446 388.7,-225.073 387.343,-231.94"/>
</g>
<!-- Node126 -->
<g id="node14" class="node"><title>Node126</title>
<g id="a_node14"><a xlink:href="classokw_1_1gui_1_1adapter_1_1selenium_1_1webdriver_1_1_se_driver.html#a6d879107786a94ebbdbd42b4ac6c6acf" target="_top" xlink:title="Ermittelt das Webelement mit der gegebenen frameID und dem gegebenen Locator.">
<polygon fill="white" stroke="black" points="381,-279.5 381,-309.5 569,-309.5 569,-279.5 381,-279.5"/>
<text text-anchor="start" x="389" y="-297.5" font-family="Helvetica,sans-Serif" font-size="10.00">okw.gui.adapter.selenium.webdriver.</text>
<text text-anchor="middle" x="475" y="-286.5" font-family="Helvetica,sans-Serif" font-size="10.00">SeDriver.getElement</text>
</a>
</g>
</g>
<!-- Node125&#45;&gt;Node126 -->
<g id="edge14" class="edge"><title>Node125&#45;&gt;Node126</title>
<path fill="none" stroke="midnightblue" d="M284.412,-218.718C307.833,-233.694 345.684,-256.322 381,-270.5 386.126,-272.558 391.482,-274.485 396.924,-276.281"/>
<polygon fill="midnightblue" stroke="midnightblue" points="396.19,-279.719 406.779,-279.371 398.284,-273.039 396.19,-279.719"/>
</g>
<!-- Node126&#45;&gt;Node119 -->
<g id="edge15" class="edge"><title>Node126&#45;&gt;Node119</title>
<path fill="none" stroke="midnightblue" d="M544.116,-279.465C568.089,-274.174 595.215,-268.187 619.943,-262.729"/>
<polygon fill="midnightblue" stroke="midnightblue" points="621.002,-266.079 630.013,-260.506 619.493,-259.244 621.002,-266.079"/>
</g>
<!-- Node127 -->
<g id="node15" class="node"><title>Node127</title>
<g id="a_node15"><a xlink:href="classokw_1_1log_1_1_logger___sngltn.html#a8ebceaddd6cc6963ddb8e08c72ea808c" target="_top" xlink:title="LogPrint Function: Prints the values of expressions to the results file.">
<polygon fill="white" stroke="black" points="627.5,-279.5 627.5,-309.5 770.5,-309.5 770.5,-279.5 627.5,-279.5"/>
<text text-anchor="start" x="635.5" y="-297.5" font-family="Helvetica,sans-Serif" font-size="10.00">okw.log.Logger_Sngltn.Log</text>
<text text-anchor="middle" x="699" y="-286.5" font-family="Helvetica,sans-Serif" font-size="10.00">Print</text>
</a>
</g>
</g>
<!-- Node126&#45;&gt;Node127 -->
<g id="edge16" class="edge"><title>Node126&#45;&gt;Node127</title>
<path fill="none" stroke="midnightblue" d="M569.183,-294.5C585.146,-294.5 601.614,-294.5 617.22,-294.5"/>
<polygon fill="midnightblue" stroke="midnightblue" points="617.336,-298 627.336,-294.5 617.336,-291 617.336,-298"/>
</g>
</g>
</svg>
