<?xml version="1.0" encoding="UTF-8" standalone="no"?>
<!DOCTYPE svg PUBLIC "-//W3C//DTD SVG 1.1//EN"
 "http://www.w3.org/Graphics/SVG/1.1/DTD/svg11.dtd">
<!-- Generated by graphviz version 2.26.3 (20100126.1600)
 -->
<!-- Title: okw.core.EN_OKWNotAllowedValueException_Keywords_IGNORE.tcVerifyTablecellValueIGNORE1 Pages: 1 -->
<svg width="1180pt" height="318pt"
 viewBox="0.00 0.00 1180.00 318.00" xmlns="http://www.w3.org/2000/svg" xmlns:xlink="http://www.w3.org/1999/xlink">
<g id="graph1" class="graph" transform="scale(1 1) rotate(0) translate(4 314)">
<title>okw.core.EN_OKWNotAllowedValueException_Keywords_IGNORE.tcVerifyTablecellValueIGNORE1</title>
<polygon fill="white" stroke="white" points="-4,5 -4,-314 1177,-314 1177,5 -4,5"/>
<!-- Node968 -->
<g id="node1" class="node"><title>Node968</title>
<polygon fill="#bfbfbf" stroke="black" points="0.5,-106.5 0.5,-153.5 207.5,-153.5 207.5,-106.5 0.5,-106.5"/>
<text text-anchor="start" x="8.5" y="-140.5" font-family="Helvetica,sans-Serif" font-size="10.00">okw.core.EN_OKWNotAllowed</text>
<text text-anchor="start" x="8.5" y="-127.5" font-family="Helvetica,sans-Serif" font-size="10.00">ValueException_Keywords</text>
<text text-anchor="middle" x="104" y="-114.5" font-family="Helvetica,sans-Serif" font-size="10.00">_IGNORE.tcVerifyTablecellValueIGNORE1</text>
</g>
<!-- Node969 -->
<g id="node3" class="node"><title>Node969</title>
<a xlink:href="classokw_1_1core_1_1_e_n.html#aef613b0a3e6bb8a9623984db145cae69" target="_top" xlink:title="Markiert den Anfang eines neuen Testfalls. ">
<polygon fill="white" stroke="black" points="254.5,-73.5 254.5,-94.5 375.5,-94.5 375.5,-73.5 254.5,-73.5"/>
<text text-anchor="middle" x="315" y="-81.5" font-family="Helvetica,sans-Serif" font-size="10.00">okw.core.EN.BeginTest</text>
</a>
</g>
<!-- Node968&#45;&gt;Node969 -->
<g id="edge2" class="edge"><title>Node968&#45;&gt;Node969</title>
<path fill="none" stroke="midnightblue" d="M207.646,-107.404C224.573,-103.714 241.565,-100.01 256.876,-96.6716"/>
<polygon fill="midnightblue" stroke="midnightblue" points="257.652,-100.085 266.677,-94.5348 256.161,-93.2453 257.652,-100.085"/>
</g>
<!-- Node975 -->
<g id="node15" class="node"><title>Node975</title>
<a xlink:href="classokw_1_1core_1_1_e_n.html#a2b61c2b39a9cfdbdfd25fe0e3d43785b" target="_top" xlink:title="Setzt den Kontext auf das gegebene Fenster. ">
<polygon fill="white" stroke="black" points="245,-165.5 245,-186.5 385,-186.5 385,-165.5 245,-165.5"/>
<text text-anchor="middle" x="315" y="-173.5" font-family="Helvetica,sans-Serif" font-size="10.00">okw.core.EN.SelectWindow</text>
</a>
</g>
<!-- Node968&#45;&gt;Node975 -->
<g id="edge14" class="edge"><title>Node968&#45;&gt;Node975</title>
<path fill="none" stroke="midnightblue" d="M207.646,-152.596C224.573,-156.286 241.565,-159.99 256.876,-163.328"/>
<polygon fill="midnightblue" stroke="midnightblue" points="256.161,-166.755 266.677,-165.465 257.652,-159.915 256.161,-166.755"/>
</g>
<!-- Node982 -->
<g id="node30" class="node"><title>Node982</title>
<a xlink:href="classokw_1_1core_1_1_e_n.html#a67331a9d3f88e0c7c8a593730683c2c6" target="_top" xlink:title="Vergleicht den Inhalt der gegebenen Tabellenzelle mit dem erwarteten Wert. ">
<polygon fill="white" stroke="black" points="244.5,-113 244.5,-147 385.5,-147 385.5,-113 244.5,-113"/>
<text text-anchor="start" x="252.5" y="-134" font-family="Helvetica,sans-Serif" font-size="10.00">okw.core.EN.VerifyTablecell</text>
<text text-anchor="middle" x="315" y="-121" font-family="Helvetica,sans-Serif" font-size="10.00">Value</text>
</a>
</g>
<!-- Node968&#45;&gt;Node982 -->
<g id="edge30" class="edge"><title>Node968&#45;&gt;Node982</title>
<path fill="none" stroke="midnightblue" d="M207.646,-130C216.56,-130 225.491,-130 234.186,-130"/>
<polygon fill="midnightblue" stroke="midnightblue" points="234.269,-133.5 244.269,-130 234.269,-126.5 234.269,-133.5"/>
</g>
<!-- Node970 -->
<g id="node5" class="node"><title>Node970</title>
<a xlink:href="classokw_1_1core_1_1_core.html#ab4e0f723d27cb11c944ec4c82c426100" target="_top" xlink:title="Setzt die Sprache auf den gegebenen wert Language. ">
<polygon fill="white" stroke="black" points="426.5,-95.5 426.5,-116.5 565.5,-116.5 565.5,-95.5 426.5,-95.5"/>
<text text-anchor="middle" x="496" y="-103.5" font-family="Helvetica,sans-Serif" font-size="10.00">okw.core.Core.setLanguage</text>
</a>
</g>
<!-- Node969&#45;&gt;Node970 -->
<g id="edge4" class="edge"><title>Node969&#45;&gt;Node970</title>
<path fill="none" stroke="midnightblue" d="M375.522,-91.3563C388.671,-92.9545 402.772,-94.6684 416.527,-96.3403"/>
<polygon fill="midnightblue" stroke="midnightblue" points="416.115,-99.8159 426.464,-97.5481 416.959,-92.867 416.115,-99.8159"/>
</g>
<!-- Node972 -->
<g id="node9" class="node"><title>Node972</title>
<a xlink:href="classokw_1_1core_1_1_core.html#acfefe92468c9eb9e951846372726c4d8" target="_top" xlink:title="Markiert den Anfang eines neuen Testfalls. ">
<polygon fill="white" stroke="black" points="432,-52.5 432,-73.5 560,-73.5 560,-52.5 432,-52.5"/>
<text text-anchor="middle" x="496" y="-60.5" font-family="Helvetica,sans-Serif" font-size="10.00">okw.core.Core.BeginTest</text>
</a>
</g>
<!-- Node969&#45;&gt;Node972 -->
<g id="edge8" class="edge"><title>Node969&#45;&gt;Node972</title>
<path fill="none" stroke="midnightblue" d="M375.522,-76.9781C390.359,-75.2566 406.409,-73.3946 421.807,-71.6081"/>
<polygon fill="midnightblue" stroke="midnightblue" points="422.282,-75.0765 431.812,-70.4472 421.475,-68.1231 422.282,-75.0765"/>
</g>
<!-- Node971 -->
<g id="node7" class="node"><title>Node971</title>
<a xlink:href="interfaceokw_1_1core_1_1_i_o_k_w___state.html#a866baa0bde08a47418f54d63bdb56097" target="_top" xlink:title="Interne Methode zum setzen der Sprache f체r die sprachabh채ngigen Ausgaben der Dokumentation (Log)...">
<polygon fill="white" stroke="black" points="606.5,-92.5 606.5,-113.5 779.5,-113.5 779.5,-92.5 606.5,-92.5"/>
<text text-anchor="middle" x="693" y="-100.5" font-family="Helvetica,sans-Serif" font-size="10.00">okw.core.IOKW_State.setLanguage</text>
</a>
</g>
<!-- Node970&#45;&gt;Node971 -->
<g id="edge6" class="edge"><title>Node970&#45;&gt;Node971</title>
<path fill="none" stroke="midnightblue" d="M565.732,-104.938C575.611,-104.788 585.913,-104.631 596.19,-104.474"/>
<polygon fill="midnightblue" stroke="midnightblue" points="596.497,-107.97 606.442,-104.318 596.39,-100.971 596.497,-107.97"/>
</g>
<!-- Node973 -->
<g id="node11" class="node"><title>Node973</title>
<a xlink:href="classokw_1_1log_1_1_logger___sngltn.html#a60f4ad59db847ae61df928f9920f3deb" target="_top" xlink:title="Ausgabe des Testfalls. ">
<polygon fill="white" stroke="black" points="626,-0 626,-34 760,-34 760,-0 626,-0"/>
<text text-anchor="start" x="634" y="-21" font-family="Helvetica,sans-Serif" font-size="10.00">okw.log.Logger_Sngltn.Log</text>
<text text-anchor="middle" x="693" y="-8" font-family="Helvetica,sans-Serif" font-size="10.00">TestcaseStart</text>
</a>
</g>
<!-- Node972&#45;&gt;Node973 -->
<g id="edge10" class="edge"><title>Node972&#45;&gt;Node973</title>
<path fill="none" stroke="midnightblue" d="M541.196,-52.4467C563.359,-47.2716 590.673,-40.8935 615.996,-34.9807"/>
<polygon fill="midnightblue" stroke="midnightblue" points="617.016,-38.3367 625.958,-32.6545 615.424,-31.5201 617.016,-38.3367"/>
</g>
<!-- Node974 -->
<g id="node13" class="node"><title>Node974</title>
<a xlink:href="interfaceokw_1_1core_1_1_i_o_k_w___state.html#ae5480ddb1fc37eade5d899d335bc4b13" target="_top" xlink:title="Markiert den Anfang eines neuen Testfalls. ">
<polygon fill="white" stroke="black" points="612,-52.5 612,-73.5 774,-73.5 774,-52.5 612,-52.5"/>
<text text-anchor="middle" x="693" y="-60.5" font-family="Helvetica,sans-Serif" font-size="10.00">okw.core.IOKW_State.BeginTest</text>
</a>
</g>
<!-- Node972&#45;&gt;Node974 -->
<g id="edge12" class="edge"><title>Node972&#45;&gt;Node974</title>
<path fill="none" stroke="midnightblue" d="M560.233,-63C573.514,-63 587.746,-63 601.779,-63"/>
<polygon fill="midnightblue" stroke="midnightblue" points="601.946,-66.5001 611.946,-63 601.946,-59.5001 601.946,-66.5001"/>
</g>
<!-- Node975&#45;&gt;Node970 -->
<g id="edge16" class="edge"><title>Node975&#45;&gt;Node970</title>
<path fill="none" stroke="midnightblue" d="M356.637,-165.415C366.363,-162.628 376.619,-159.431 386,-156 413.802,-145.833 444.378,-131.681 466.222,-121.028"/>
<polygon fill="midnightblue" stroke="midnightblue" points="467.884,-124.111 475.308,-116.552 464.791,-117.831 467.884,-124.111"/>
</g>
<!-- Node976 -->
<g id="node18" class="node"><title>Node976</title>
<a xlink:href="classokw_1_1core_1_1_core.html#a6a68660eb5e34965522896e2a5c48314" target="_top" xlink:title="Setzt den Kontext auf das gegebene Fenster. ">
<polygon fill="white" stroke="black" points="423,-213.5 423,-234.5 569,-234.5 569,-213.5 423,-213.5"/>
<text text-anchor="middle" x="496" y="-221.5" font-family="Helvetica,sans-Serif" font-size="10.00">okw.core.Core.SelectWindow</text>
</a>
</g>
<!-- Node975&#45;&gt;Node976 -->
<g id="edge18" class="edge"><title>Node975&#45;&gt;Node976</title>
<path fill="none" stroke="midnightblue" d="M354.721,-186.534C381.717,-193.693 417.625,-203.215 446.484,-210.869"/>
<polygon fill="midnightblue" stroke="midnightblue" points="445.808,-214.31 456.371,-213.491 447.603,-207.544 445.808,-214.31"/>
</g>
<!-- Node977 -->
<g id="node20" class="node"><title>Node977</title>
<a xlink:href="classokw_1_1log_1_1_logger___sngltn.html#a70ec25e200e00ecefc544e8fd371d2ef" target="_top" xlink:title="Ausgabe eines Schl체sselwortes. ">
<polygon fill="white" stroke="black" points="626,-184 626,-218 760,-218 760,-184 626,-184"/>
<text text-anchor="start" x="634" y="-205" font-family="Helvetica,sans-Serif" font-size="10.00">okw.log.Logger_Sngltn.Log</text>
<text text-anchor="middle" x="693" y="-192" font-family="Helvetica,sans-Serif" font-size="10.00">KeyWordStart</text>
</a>
</g>
<!-- Node976&#45;&gt;Node977 -->
<g id="edge20" class="edge"><title>Node976&#45;&gt;Node977</title>
<path fill="none" stroke="midnightblue" d="M569.076,-215.468C584.346,-213.686 600.491,-211.801 615.902,-210.001"/>
<polygon fill="midnightblue" stroke="midnightblue" points="616.38,-213.469 625.906,-208.833 615.568,-206.517 616.38,-213.469"/>
</g>
<!-- Node978 -->
<g id="node22" class="node"><title>Node978</title>
<a xlink:href="classokw_1_1_log_messenger.html#af225d1f037d47b3b085175c09d78bdd2" target="_top" xlink:title="Holt die Log&#45;Meldung f체r MethodeNmae/Textkey ohne weitere Parameter. ">
<polygon fill="white" stroke="black" points="613,-236.5 613,-257.5 773,-257.5 773,-236.5 613,-236.5"/>
<text text-anchor="middle" x="693" y="-244.5" font-family="Helvetica,sans-Serif" font-size="10.00">okw.LogMessenger.GetMessage</text>
</a>
</g>
<!-- Node976&#45;&gt;Node978 -->
<g id="edge22" class="edge"><title>Node976&#45;&gt;Node978</title>
<path fill="none" stroke="midnightblue" d="M569.076,-232.532C579.974,-233.804 591.319,-235.129 602.524,-236.437"/>
<polygon fill="midnightblue" stroke="midnightblue" points="602.42,-239.948 612.758,-237.632 603.232,-232.996 602.42,-239.948"/>
</g>
<!-- Node981 -->
<g id="node28" class="node"><title>Node981</title>
<a xlink:href="interfaceokw_1_1core_1_1_i_o_k_w___state.html#ad4fc9610ed5b1176590a45b55e6ac7f0" target="_top" xlink:title="Setzt den Kontext auf das gegebene Fenster. ">
<polygon fill="white" stroke="black" points="620,-276 620,-310 766,-310 766,-276 620,-276"/>
<text text-anchor="start" x="628" y="-297" font-family="Helvetica,sans-Serif" font-size="10.00">okw.core.IOKW_State.Select</text>
<text text-anchor="middle" x="693" y="-284" font-family="Helvetica,sans-Serif" font-size="10.00">Window</text>
</a>
</g>
<!-- Node976&#45;&gt;Node981 -->
<g id="edge28" class="edge"><title>Node976&#45;&gt;Node981</title>
<path fill="none" stroke="midnightblue" d="M521.122,-234.501C543.277,-243.599 576.53,-256.856 606,-267 611.634,-268.939 617.501,-270.873 623.409,-272.76"/>
<polygon fill="midnightblue" stroke="midnightblue" points="622.768,-276.227 633.357,-275.885 624.865,-269.549 622.768,-276.227"/>
</g>
<!-- Node979 -->
<g id="node24" class="node"><title>Node979</title>
<a xlink:href="classokw_1_1_log_messenger.html#a530cd6ab82ec82a04206a2e976ec06e3" target="_top" xlink:title="Interne Kernfunktion holt die Log&#45;Meldung mit Platzhaltern aus der XML&#45;Datei. ">
<polygon fill="white" stroke="black" points="816.5,-236.5 816.5,-257.5 983.5,-257.5 983.5,-236.5 816.5,-236.5"/>
<text text-anchor="middle" x="900" y="-244.5" font-family="Helvetica,sans-Serif" font-size="10.00">okw.LogMessenger.ReadMessage</text>
</a>
</g>
<!-- Node978&#45;&gt;Node979 -->
<g id="edge24" class="edge"><title>Node978&#45;&gt;Node979</title>
<path fill="none" stroke="midnightblue" d="M773.032,-247C783.92,-247 795.173,-247 806.276,-247"/>
<polygon fill="midnightblue" stroke="midnightblue" points="806.415,-250.5 816.415,-247 806.415,-243.5 806.415,-250.5"/>
</g>
<!-- Node980 -->
<g id="node26" class="node"><title>Node980</title>
<a xlink:href="classokw_1_1_o_k_w___xml_reader.html#ab920b5335a2e1429c14cc5f8e79f39eb" target="_top" xlink:title="Lies den TextContent eines Tag. ">
<polygon fill="white" stroke="black" points="1020,-230 1020,-264 1172,-264 1172,-230 1020,-230"/>
<text text-anchor="start" x="1028" y="-251" font-family="Helvetica,sans-Serif" font-size="10.00">okw.OKW_XmlReader.getText</text>
<text text-anchor="middle" x="1096" y="-238" font-family="Helvetica,sans-Serif" font-size="10.00">ContentSingleValue</text>
</a>
</g>
<!-- Node979&#45;&gt;Node980 -->
<g id="edge26" class="edge"><title>Node979&#45;&gt;Node980</title>
<path fill="none" stroke="midnightblue" d="M983.69,-247C992.29,-247 1001.04,-247 1009.67,-247"/>
<polygon fill="midnightblue" stroke="midnightblue" points="1009.72,-250.5 1019.72,-247 1009.72,-243.5 1009.72,-250.5"/>
</g>
<!-- Node982&#45;&gt;Node970 -->
<g id="edge32" class="edge"><title>Node982&#45;&gt;Node970</title>
<path fill="none" stroke="midnightblue" d="M385.757,-120.618C395.796,-119.287 406.176,-117.91 416.369,-116.559"/>
<polygon fill="midnightblue" stroke="midnightblue" points="417.027,-120.002 426.48,-115.218 416.107,-113.063 417.027,-120.002"/>
</g>
<!-- Node983 -->
<g id="node33" class="node"><title>Node983</title>
<a xlink:href="classokw_1_1core_1_1_core.html#ad15cc0817387e5b6db0ae8b11619226f" target="_top" xlink:title="Vergleicht den Inhalt der gegebenen Tabellenzelle mit dem erwarteten Wert. ">
<polygon fill="white" stroke="black" points="422,-158 422,-192 570,-192 570,-158 422,-158"/>
<text text-anchor="start" x="430" y="-179" font-family="Helvetica,sans-Serif" font-size="10.00">okw.core.Core.VerifyTablecell</text>
<text text-anchor="middle" x="496" y="-166" font-family="Helvetica,sans-Serif" font-size="10.00">Value</text>
</a>
</g>
<!-- Node982&#45;&gt;Node983 -->
<g id="edge34" class="edge"><title>Node982&#45;&gt;Node983</title>
<path fill="none" stroke="midnightblue" d="M383.428,-147.013C394.578,-149.785 406.204,-152.675 417.571,-155.501"/>
<polygon fill="midnightblue" stroke="midnightblue" points="416.926,-158.947 427.475,-157.963 418.615,-152.154 416.926,-158.947"/>
</g>
<!-- Node983&#45;&gt;Node977 -->
<g id="edge36" class="edge"><title>Node983&#45;&gt;Node977</title>
<path fill="none" stroke="midnightblue" d="M570.197,-184.792C585.085,-186.757 600.763,-188.827 615.751,-190.805"/>
<polygon fill="midnightblue" stroke="midnightblue" points="615.628,-194.319 626,-192.157 616.544,-187.379 615.628,-194.319"/>
</g>
<!-- Node983&#45;&gt;Node978 -->
<g id="edge38" class="edge"><title>Node983&#45;&gt;Node978</title>
<path fill="none" stroke="midnightblue" d="M543.582,-192.06C552.498,-195.7 561.639,-199.742 570,-204 586.919,-212.616 588.492,-219.655 606,-227 611.909,-229.479 618.178,-231.679 624.537,-233.625"/>
<polygon fill="midnightblue" stroke="midnightblue" points="623.989,-237.108 634.566,-236.478 625.905,-230.375 623.989,-237.108"/>
</g>
<!-- Node984 -->
<g id="node37" class="node"><title>Node984</title>
<a xlink:href="interfaceokw_1_1core_1_1_i_o_k_w___state.html#a08f78760818a6ad5c1fd14640de3d3b1" target="_top" xlink:title="Vergleicht den Inhalt der gegebenen Tabellenzelle mit dem erwarteten Wert. ">
<polygon fill="white" stroke="black" points="621.5,-132 621.5,-166 764.5,-166 764.5,-132 621.5,-132"/>
<text text-anchor="start" x="629.5" y="-153" font-family="Helvetica,sans-Serif" font-size="10.00">okw.core.IOKW_State.Verify</text>
<text text-anchor="middle" x="693" y="-140" font-family="Helvetica,sans-Serif" font-size="10.00">TablecellValue</text>
</a>
</g>
<!-- Node983&#45;&gt;Node984 -->
<g id="edge40" class="edge"><title>Node983&#45;&gt;Node984</title>
<path fill="none" stroke="midnightblue" d="M570.197,-165.208C583.581,-163.441 597.605,-161.59 611.192,-159.797"/>
<polygon fill="midnightblue" stroke="midnightblue" points="612.023,-163.218 621.479,-158.439 611.107,-156.278 612.023,-163.218"/>
</g>
</g>
</svg>
