<?xml version="1.0" encoding="UTF-8" standalone="no"?>
<!DOCTYPE svg PUBLIC "-//W3C//DTD SVG 1.1//EN"
 "http://www.w3.org/Graphics/SVG/1.1/DTD/svg11.dtd">
<!-- Generated by graphviz version 2.36.0 (20140111.2315)
 -->
<!-- Title: okw.gui.adapter.selenium.SeLink Pages: 1 -->
<svg width="936pt" height="1794pt"
 viewBox="0.00 0.00 936.00 1794.00" xmlns="http://www.w3.org/2000/svg" xmlns:xlink="http://www.w3.org/1999/xlink">
<g id="graph0" class="graph" transform="scale(1 1) rotate(0) translate(4 1790)">
<title>okw.gui.adapter.selenium.SeLink</title>
<polygon fill="white" stroke="none" points="-4,4 -4,-1790 932,-1790 932,4 -4,4"/>
<!-- Node6 -->
<g id="node1" class="node"><title>Node6</title>
<polygon fill="#bfbfbf" stroke="black" points="221.5,-1 221.5,-113 352.5,-113 352.5,-1 221.5,-1"/>
<text text-anchor="start" x="229.5" y="-101" font-family="Helvetica,sans-Serif" font-size="10.00">okw.gui.adapter.selenium.</text>
<text text-anchor="middle" x="287" y="-90" font-family="Helvetica,sans-Serif" font-size="10.00">SeLink</text>
<polyline fill="none" stroke="black" points="221.5,-83 352.5,-83 "/>
<text text-anchor="middle" x="287" y="-71" font-family="Helvetica,sans-Serif" font-size="10.00"> </text>
<polyline fill="none" stroke="black" points="221.5,-64 352.5,-64 "/>
<text text-anchor="start" x="229.5" y="-52" font-family="Helvetica,sans-Serif" font-size="10.00">+ SeLink()</text>
<text text-anchor="start" x="229.5" y="-41" font-family="Helvetica,sans-Serif" font-size="10.00">+ SeLink()</text>
<text text-anchor="start" x="229.5" y="-30" font-family="Helvetica,sans-Serif" font-size="10.00">+ getIsActive()</text>
<text text-anchor="start" x="229.5" y="-19" font-family="Helvetica,sans-Serif" font-size="10.00">+ getValue()</text>
<text text-anchor="start" x="229.5" y="-8" font-family="Helvetica,sans-Serif" font-size="10.00">+ TypeKey()</text>
</g>
<!-- Node7 -->
<g id="node2" class="node"><title>Node7</title>
<g id="a_node2"><a xlink:href="classokw_1_1gui_1_1adapter_1_1selenium_1_1_se_any_child_window.html" target="_top" xlink:title="{okw.gui.adapter.selenium.\lSeAnyChildWindow\n|# iframeID\l|+ getIframeID()\l+ setIframeID()\l+ SeAnyChildWindow()\l+ SeAnyChildWindow()\l+ ClickOn()\l+ getCaption()\l+ getExists()\l+ getHasFocus()\l+ getIsActive()\l+ getLabel()\l+ getTooltip()\l+ getValue()\l+ LogCaption()\l+ LogExists()\l+ LogHasFocus()\l+ LogIsActive()\l+ LogLabel()\l+ LogTooltip()\l+ LogValue()\l+ Me()\lund 22 mehr ...\l}">
<polygon fill="white" stroke="black" points="221.5,-153 221.5,-441 352.5,-441 352.5,-153 221.5,-153"/>
<text text-anchor="start" x="229.5" y="-429" font-family="Helvetica,sans-Serif" font-size="10.00">okw.gui.adapter.selenium.</text>
<text text-anchor="middle" x="287" y="-418" font-family="Helvetica,sans-Serif" font-size="10.00">SeAnyChildWindow</text>
<polyline fill="none" stroke="black" points="221.5,-411 352.5,-411 "/>
<text text-anchor="start" x="229.5" y="-399" font-family="Helvetica,sans-Serif" font-size="10.00"># iframeID</text>
<polyline fill="none" stroke="black" points="221.5,-392 352.5,-392 "/>
<text text-anchor="start" x="229.5" y="-380" font-family="Helvetica,sans-Serif" font-size="10.00">+ getIframeID()</text>
<text text-anchor="start" x="229.5" y="-369" font-family="Helvetica,sans-Serif" font-size="10.00">+ setIframeID()</text>
<text text-anchor="start" x="229.5" y="-358" font-family="Helvetica,sans-Serif" font-size="10.00">+ SeAnyChildWindow()</text>
<text text-anchor="start" x="229.5" y="-347" font-family="Helvetica,sans-Serif" font-size="10.00">+ SeAnyChildWindow()</text>
<text text-anchor="start" x="229.5" y="-336" font-family="Helvetica,sans-Serif" font-size="10.00">+ ClickOn()</text>
<text text-anchor="start" x="229.5" y="-325" font-family="Helvetica,sans-Serif" font-size="10.00">+ getCaption()</text>
<text text-anchor="start" x="229.5" y="-314" font-family="Helvetica,sans-Serif" font-size="10.00">+ getExists()</text>
<text text-anchor="start" x="229.5" y="-303" font-family="Helvetica,sans-Serif" font-size="10.00">+ getHasFocus()</text>
<text text-anchor="start" x="229.5" y="-292" font-family="Helvetica,sans-Serif" font-size="10.00">+ getIsActive()</text>
<text text-anchor="start" x="229.5" y="-281" font-family="Helvetica,sans-Serif" font-size="10.00">+ getLabel()</text>
<text text-anchor="start" x="229.5" y="-270" font-family="Helvetica,sans-Serif" font-size="10.00">+ getTooltip()</text>
<text text-anchor="start" x="229.5" y="-259" font-family="Helvetica,sans-Serif" font-size="10.00">+ getValue()</text>
<text text-anchor="start" x="229.5" y="-248" font-family="Helvetica,sans-Serif" font-size="10.00">+ LogCaption()</text>
<text text-anchor="start" x="229.5" y="-237" font-family="Helvetica,sans-Serif" font-size="10.00">+ LogExists()</text>
<text text-anchor="start" x="229.5" y="-226" font-family="Helvetica,sans-Serif" font-size="10.00">+ LogHasFocus()</text>
<text text-anchor="start" x="229.5" y="-215" font-family="Helvetica,sans-Serif" font-size="10.00">+ LogIsActive()</text>
<text text-anchor="start" x="229.5" y="-204" font-family="Helvetica,sans-Serif" font-size="10.00">+ LogLabel()</text>
<text text-anchor="start" x="229.5" y="-193" font-family="Helvetica,sans-Serif" font-size="10.00">+ LogTooltip()</text>
<text text-anchor="start" x="229.5" y="-182" font-family="Helvetica,sans-Serif" font-size="10.00">+ LogValue()</text>
<text text-anchor="start" x="229.5" y="-171" font-family="Helvetica,sans-Serif" font-size="10.00">+ Me()</text>
<text text-anchor="start" x="229.5" y="-160" font-family="Helvetica,sans-Serif" font-size="10.00">und 22 mehr ...</text>
</a>
</g>
</g>
<!-- Node7&#45;&gt;Node6 -->
<g id="edge1" class="edge"><title>Node7&#45;&gt;Node6</title>
<path fill="none" stroke="midnightblue" d="M287,-142.684C287,-132.298 287,-122.293 287,-113.025"/>
<polygon fill="none" stroke="midnightblue" points="283.5,-142.748 287,-152.748 290.5,-142.748 283.5,-142.748"/>
</g>
<!-- Node8 -->
<g id="node3" class="node"><title>Node8</title>
<g id="a_node3"><a xlink:href="classokw_1_1gui_1_1_any_childwindow.html" target="_top" xlink:title="Description of AnyWin. ">
<polygon fill="white" stroke="black" points="224,-490.5 224,-767.5 350,-767.5 350,-490.5 224,-490.5"/>
<text text-anchor="middle" x="287" y="-755.5" font-family="Helvetica,sans-Serif" font-size="10.00">okw.gui.AnyChildwindow</text>
<polyline fill="none" stroke="black" points="224,-748.5 350,-748.5 "/>
<text text-anchor="middle" x="287" y="-736.5" font-family="Helvetica,sans-Serif" font-size="10.00"> </text>
<polyline fill="none" stroke="black" points="224,-729.5 350,-729.5 "/>
<text text-anchor="start" x="232" y="-717.5" font-family="Helvetica,sans-Serif" font-size="10.00">+ getExists()</text>
<text text-anchor="start" x="232" y="-706.5" font-family="Helvetica,sans-Serif" font-size="10.00">+ getHasFocus()</text>
<text text-anchor="start" x="232" y="-695.5" font-family="Helvetica,sans-Serif" font-size="10.00">+ getIsActive()</text>
<text text-anchor="start" x="232" y="-684.5" font-family="Helvetica,sans-Serif" font-size="10.00">+ getCaption()</text>
<text text-anchor="start" x="232" y="-673.5" font-family="Helvetica,sans-Serif" font-size="10.00">+ getTooltip()</text>
<text text-anchor="start" x="232" y="-662.5" font-family="Helvetica,sans-Serif" font-size="10.00">+ getLabel()</text>
<text text-anchor="start" x="232" y="-651.5" font-family="Helvetica,sans-Serif" font-size="10.00">+ getValue()</text>
<text text-anchor="start" x="232" y="-640.5" font-family="Helvetica,sans-Serif" font-size="10.00">+ ClickOn()</text>
<text text-anchor="start" x="232" y="-629.5" font-family="Helvetica,sans-Serif" font-size="10.00">+ DoubleClickOn()</text>
<text text-anchor="start" x="232" y="-618.5" font-family="Helvetica,sans-Serif" font-size="10.00">+ LogCaption()</text>
<text text-anchor="start" x="232" y="-607.5" font-family="Helvetica,sans-Serif" font-size="10.00">+ LogExists()</text>
<text text-anchor="start" x="232" y="-596.5" font-family="Helvetica,sans-Serif" font-size="10.00">+ LogHasFocus()</text>
<text text-anchor="start" x="232" y="-585.5" font-family="Helvetica,sans-Serif" font-size="10.00">+ LogIsActive()</text>
<text text-anchor="start" x="232" y="-574.5" font-family="Helvetica,sans-Serif" font-size="10.00">+ LogLabel()</text>
<text text-anchor="start" x="232" y="-563.5" font-family="Helvetica,sans-Serif" font-size="10.00">+ LogSelected()</text>
<text text-anchor="start" x="232" y="-552.5" font-family="Helvetica,sans-Serif" font-size="10.00">+ LogTablecellValue()</text>
<text text-anchor="start" x="232" y="-541.5" font-family="Helvetica,sans-Serif" font-size="10.00">+ LogTooltip()</text>
<text text-anchor="start" x="232" y="-530.5" font-family="Helvetica,sans-Serif" font-size="10.00">+ LogValue()</text>
<text text-anchor="start" x="232" y="-519.5" font-family="Helvetica,sans-Serif" font-size="10.00">+ MemorizeCaption()</text>
<text text-anchor="start" x="232" y="-508.5" font-family="Helvetica,sans-Serif" font-size="10.00">+ MemorizeExists()</text>
<text text-anchor="start" x="232" y="-497.5" font-family="Helvetica,sans-Serif" font-size="10.00">und 26 mehr ...</text>
</a>
</g>
</g>
<!-- Node8&#45;&gt;Node7 -->
<g id="edge2" class="edge"><title>Node8&#45;&gt;Node7</title>
<path fill="none" stroke="midnightblue" d="M287,-480.101C287,-467.164 287,-454.085 287,-441.187"/>
<polygon fill="none" stroke="midnightblue" points="283.5,-480.44 287,-490.44 290.5,-480.44 283.5,-480.44"/>
</g>
<!-- Node9 -->
<g id="node4" class="node"><title>Node9</title>
<g id="a_node4"><a xlink:href="classokw_1_1gui_1_1_any_win_base.html" target="_top" xlink:title="Description of AnyWin. ">
<polygon fill="white" stroke="black" points="108,-827.5 108,-1082.5 242,-1082.5 242,-827.5 108,-827.5"/>
<text text-anchor="middle" x="175" y="-1070.5" font-family="Helvetica,sans-Serif" font-size="10.00">okw.gui.AnyWinBase</text>
<polyline fill="none" stroke="black" points="108,-1063.5 242,-1063.5 "/>
<text text-anchor="start" x="116" y="-1051.5" font-family="Helvetica,sans-Serif" font-size="10.00">&#45; myFN</text>
<text text-anchor="start" x="116" y="-1040.5" font-family="Helvetica,sans-Serif" font-size="10.00">&#45; myKN</text>
<text text-anchor="start" x="116" y="-1029.5" font-family="Helvetica,sans-Serif" font-size="10.00">&#45; myParentFN</text>
<polyline fill="none" stroke="black" points="108,-1022.5 242,-1022.5 "/>
<text text-anchor="start" x="116" y="-1010.5" font-family="Helvetica,sans-Serif" font-size="10.00">+ getLocator()</text>
<text text-anchor="start" x="116" y="-999.5" font-family="Helvetica,sans-Serif" font-size="10.00">+ getLOCATOR()</text>
<text text-anchor="start" x="116" y="-988.5" font-family="Helvetica,sans-Serif" font-size="10.00">+ getExists()</text>
<text text-anchor="start" x="116" y="-977.5" font-family="Helvetica,sans-Serif" font-size="10.00">+ AnyWinBase()</text>
<text text-anchor="start" x="116" y="-966.5" font-family="Helvetica,sans-Serif" font-size="10.00">+ AnyWinBase()</text>
<text text-anchor="start" x="116" y="-955.5" font-family="Helvetica,sans-Serif" font-size="10.00">+ getFN()</text>
<text text-anchor="start" x="116" y="-944.5" font-family="Helvetica,sans-Serif" font-size="10.00">+ getKN()</text>
<text text-anchor="start" x="116" y="-933.5" font-family="Helvetica,sans-Serif" font-size="10.00">+ getParentFN()</text>
<text text-anchor="start" x="116" y="-922.5" font-family="Helvetica,sans-Serif" font-size="10.00">+ setFN()</text>
<text text-anchor="start" x="116" y="-911.5" font-family="Helvetica,sans-Serif" font-size="10.00">+ setKN()</text>
<text text-anchor="start" x="116" y="-900.5" font-family="Helvetica,sans-Serif" font-size="10.00">+ setParentFN()</text>
<text text-anchor="start" x="116" y="-889.5" font-family="Helvetica,sans-Serif" font-size="10.00"># LogFunctionStartDebug()</text>
<text text-anchor="start" x="116" y="-878.5" font-family="Helvetica,sans-Serif" font-size="10.00"># LogFunctionStartDebug()</text>
<text text-anchor="start" x="116" y="-867.5" font-family="Helvetica,sans-Serif" font-size="10.00"># LogFunctionEndDebug()</text>
<text text-anchor="start" x="116" y="-856.5" font-family="Helvetica,sans-Serif" font-size="10.00"># LogFunctionEndDebug()</text>
<text text-anchor="start" x="116" y="-845.5" font-family="Helvetica,sans-Serif" font-size="10.00"># LogFunctionEndDebug()</text>
<text text-anchor="start" x="116" y="-834.5" font-family="Helvetica,sans-Serif" font-size="10.00"># LogFunctionEndDebug()</text>
</a>
</g>
</g>
<!-- Node9&#45;&gt;Node8 -->
<g id="edge3" class="edge"><title>Node9&#45;&gt;Node8</title>
<path fill="none" stroke="midnightblue" d="M222.139,-817.635C227.865,-801.069 233.719,-784.136 239.451,-767.552"/>
<polygon fill="none" stroke="midnightblue" points="218.743,-816.746 218.783,-827.341 225.358,-819.033 218.743,-816.746"/>
</g>
<!-- Node10 -->
<g id="node5" class="node"><title>Node10</title>
<g id="a_node5"><a xlink:href="classokw_1_1gui_1_1_o_k_w_locator.html" target="_top" xlink:title="Description of OKWLocator. ">
<polygon fill="white" stroke="black" points="206,-1142.5 206,-1221.5 316,-1221.5 316,-1142.5 206,-1142.5"/>
<text text-anchor="middle" x="261" y="-1209.5" font-family="Helvetica,sans-Serif" font-size="10.00">okw.gui.OKWLocator</text>
<polyline fill="none" stroke="black" points="206,-1202.5 316,-1202.5 "/>
<text text-anchor="start" x="214" y="-1190.5" font-family="Helvetica,sans-Serif" font-size="10.00">&#45; _locator</text>
<polyline fill="none" stroke="black" points="206,-1183.5 316,-1183.5 "/>
<text text-anchor="start" x="214" y="-1171.5" font-family="Helvetica,sans-Serif" font-size="10.00">+ OKWLocator()</text>
<text text-anchor="start" x="214" y="-1160.5" font-family="Helvetica,sans-Serif" font-size="10.00">+ getLocator()</text>
<text text-anchor="start" x="214" y="-1149.5" font-family="Helvetica,sans-Serif" font-size="10.00">+ setLocator()</text>
</a>
</g>
</g>
<!-- Node10&#45;&gt;Node9 -->
<g id="edge4" class="edge"><title>Node10&#45;&gt;Node9</title>
<path fill="none" stroke="#404040" d="M246.216,-1142.32C240.898,-1128.41 234.548,-1111.79 227.863,-1094.3"/>
<polygon fill="none" stroke="#404040" points="227.713,-1093.91 221.834,-1089.73 223.428,-1082.7 229.307,-1086.88 227.713,-1093.91"/>
<text text-anchor="middle" x="259.5" y="-1115.5" font-family="Helvetica,sans-Serif" font-size="10.00"> #_locator</text>
</g>
<!-- Node10&#45;&gt;Node10 -->
<g id="edge5" class="edge"><title>Node10&#45;&gt;Node10</title>
<path fill="none" stroke="#404040" d="M316.073,-1193.43C326.574,-1192.06 334,-1188.25 334,-1182 334,-1178.48 331.65,-1175.74 327.726,-1173.77"/>
<polygon fill="none" stroke="#404040" points="327.646,-1173.75 320.801,-1176.02 316.073,-1170.57 322.918,-1168.3 327.646,-1173.75"/>
<text text-anchor="middle" x="361.5" y="-1179.5" font-family="Helvetica,sans-Serif" font-size="10.00"> &#45;_Locatoren</text>
</g>
<!-- Node11 -->
<g id="node6" class="node"><title>Node11</title>
<g id="a_node6"><a xlink:href="classokw_1_1log_1_1_logger___sngltn.html" target="_top" xlink:title="{okw.log.Logger_Sngltn\n|&#45; cvbDebugMode\l|+ getDebugMode()\l+ setDebugMode()\l+ addLogger()\l+ reset()\l+ LogError()\l+ LogException()\l+ LogFunctionEnd()\l+ LogFunctionEnd()\l+ LogFunctionEnd()\l+ LogFunctionEnd()\l+ LogFunctionEndDebug()\l+ LogFunctionEndDebug()\l+ LogFunctionEndDebug()\l+ LogFunctionEndDebug()\l+ LogFunctionStart()\l+ LogFunctionStartDebug()\l+ LogKeyWordEnd()\l+ LogSequenceEnd()\l+ LogTestcaseEnd()\l+ LogKeyWordStart()\l+ LogSequenceStart()\l+ LogTestcaseStart()\l+ LogPass()\l+ LogPrint()\l+ LogPrintDebug()\l+ LogWarning()\l+ ResCloseList()\l+ ResCloseListDebug()\l+ ResOpenList()\l+ ResOpenListDebug()\l+ getInstance()\l+ init()\l&#45; Logger_Sngltn()\l}">
<polygon fill="white" stroke="black" points="41,-1270.5 41,-1679.5 175,-1679.5 175,-1270.5 41,-1270.5"/>
<text text-anchor="middle" x="108" y="-1667.5" font-family="Helvetica,sans-Serif" font-size="10.00">okw.log.Logger_Sngltn</text>
<polyline fill="none" stroke="black" points="41,-1660.5 175,-1660.5 "/>
<text text-anchor="start" x="49" y="-1648.5" font-family="Helvetica,sans-Serif" font-size="10.00">&#45; cvbDebugMode</text>
<polyline fill="none" stroke="black" points="41,-1641.5 175,-1641.5 "/>
<text text-anchor="start" x="49" y="-1629.5" font-family="Helvetica,sans-Serif" font-size="10.00">+ getDebugMode()</text>
<text text-anchor="start" x="49" y="-1618.5" font-family="Helvetica,sans-Serif" font-size="10.00">+ setDebugMode()</text>
<text text-anchor="start" x="49" y="-1607.5" font-family="Helvetica,sans-Serif" font-size="10.00">+ addLogger()</text>
<text text-anchor="start" x="49" y="-1596.5" font-family="Helvetica,sans-Serif" font-size="10.00">+ reset()</text>
<text text-anchor="start" x="49" y="-1585.5" font-family="Helvetica,sans-Serif" font-size="10.00">+ LogError()</text>
<text text-anchor="start" x="49" y="-1574.5" font-family="Helvetica,sans-Serif" font-size="10.00">+ LogException()</text>
<text text-anchor="start" x="49" y="-1563.5" font-family="Helvetica,sans-Serif" font-size="10.00">+ LogFunctionEnd()</text>
<text text-anchor="start" x="49" y="-1552.5" font-family="Helvetica,sans-Serif" font-size="10.00">+ LogFunctionEnd()</text>
<text text-anchor="start" x="49" y="-1541.5" font-family="Helvetica,sans-Serif" font-size="10.00">+ LogFunctionEnd()</text>
<text text-anchor="start" x="49" y="-1530.5" font-family="Helvetica,sans-Serif" font-size="10.00">+ LogFunctionEnd()</text>
<text text-anchor="start" x="49" y="-1519.5" font-family="Helvetica,sans-Serif" font-size="10.00">+ LogFunctionEndDebug()</text>
<text text-anchor="start" x="49" y="-1508.5" font-family="Helvetica,sans-Serif" font-size="10.00">+ LogFunctionEndDebug()</text>
<text text-anchor="start" x="49" y="-1497.5" font-family="Helvetica,sans-Serif" font-size="10.00">+ LogFunctionEndDebug()</text>
<text text-anchor="start" x="49" y="-1486.5" font-family="Helvetica,sans-Serif" font-size="10.00">+ LogFunctionEndDebug()</text>
<text text-anchor="start" x="49" y="-1475.5" font-family="Helvetica,sans-Serif" font-size="10.00">+ LogFunctionStart()</text>
<text text-anchor="start" x="49" y="-1464.5" font-family="Helvetica,sans-Serif" font-size="10.00">+ LogFunctionStartDebug()</text>
<text text-anchor="start" x="49" y="-1453.5" font-family="Helvetica,sans-Serif" font-size="10.00">+ LogKeyWordEnd()</text>
<text text-anchor="start" x="49" y="-1442.5" font-family="Helvetica,sans-Serif" font-size="10.00">+ LogSequenceEnd()</text>
<text text-anchor="start" x="49" y="-1431.5" font-family="Helvetica,sans-Serif" font-size="10.00">+ LogTestcaseEnd()</text>
<text text-anchor="start" x="49" y="-1420.5" font-family="Helvetica,sans-Serif" font-size="10.00">+ LogKeyWordStart()</text>
<text text-anchor="start" x="49" y="-1409.5" font-family="Helvetica,sans-Serif" font-size="10.00">+ LogSequenceStart()</text>
<text text-anchor="start" x="49" y="-1398.5" font-family="Helvetica,sans-Serif" font-size="10.00">+ LogTestcaseStart()</text>
<text text-anchor="start" x="49" y="-1387.5" font-family="Helvetica,sans-Serif" font-size="10.00">+ LogPass()</text>
<text text-anchor="start" x="49" y="-1376.5" font-family="Helvetica,sans-Serif" font-size="10.00">+ LogPrint()</text>
<text text-anchor="start" x="49" y="-1365.5" font-family="Helvetica,sans-Serif" font-size="10.00">+ LogPrintDebug()</text>
<text text-anchor="start" x="49" y="-1354.5" font-family="Helvetica,sans-Serif" font-size="10.00">+ LogWarning()</text>
<text text-anchor="start" x="49" y="-1343.5" font-family="Helvetica,sans-Serif" font-size="10.00">+ ResCloseList()</text>
<text text-anchor="start" x="49" y="-1332.5" font-family="Helvetica,sans-Serif" font-size="10.00">+ ResCloseListDebug()</text>
<text text-anchor="start" x="49" y="-1321.5" font-family="Helvetica,sans-Serif" font-size="10.00">+ ResOpenList()</text>
<text text-anchor="start" x="49" y="-1310.5" font-family="Helvetica,sans-Serif" font-size="10.00">+ ResOpenListDebug()</text>
<text text-anchor="start" x="49" y="-1299.5" font-family="Helvetica,sans-Serif" font-size="10.00">+ getInstance()</text>
<text text-anchor="start" x="49" y="-1288.5" font-family="Helvetica,sans-Serif" font-size="10.00">+ init()</text>
<text text-anchor="start" x="49" y="-1277.5" font-family="Helvetica,sans-Serif" font-size="10.00">&#45; Logger_Sngltn()</text>
</a>
</g>
</g>
<!-- Node11&#45;&gt;Node7 -->
<g id="edge21" class="edge"><title>Node11&#45;&gt;Node7</title>
<path fill="none" stroke="#404040" d="M40.9842,-1351.97C18.9556,-1301.24 0,-1240.79 0,-1183 0,-1183 0,-1183 0,-628 0,-499.223 125.974,-396.232 211.001,-341.385"/>
<polygon fill="none" stroke="#404040" points="211.026,-341.369 213.947,-334.776 221.156,-334.936 218.236,-341.53 211.026,-341.369"/>
<text text-anchor="middle" x="26" y="-952.5" font-family="Helvetica,sans-Serif" font-size="10.00"> #MyLogger</text>
</g>
<!-- Node11&#45;&gt;Node8 -->
<g id="edge12" class="edge"><title>Node11&#45;&gt;Node8</title>
<path fill="none" stroke="#404040" d="M87.2609,-1270.26C74.0179,-1107.77 65.0091,-894.81 99,-816 122.954,-760.46 172.04,-712.826 214.049,-679.67"/>
<polygon fill="none" stroke="#404040" points="214.229,-679.53 216.528,-672.695 223.721,-672.188 221.422,-679.023 214.229,-679.53"/>
<text text-anchor="middle" x="104" y="-1115.5" font-family="Helvetica,sans-Serif" font-size="10.00"> ~myLogger</text>
</g>
<!-- Node11&#45;&gt;Node9 -->
<g id="edge9" class="edge"><title>Node11&#45;&gt;Node9</title>
<path fill="none" stroke="#404040" d="M129.127,-1270.14C133.968,-1227.74 139.361,-1183.37 145,-1142 147.085,-1126.7 149.422,-1110.71 151.846,-1094.82"/>
<polygon fill="none" stroke="#404040" points="151.887,-1094.55 148.847,-1088.01 153.715,-1082.69 156.754,-1089.23 151.887,-1094.55"/>
<text text-anchor="middle" x="171" y="-1179.5" font-family="Helvetica,sans-Serif" font-size="10.00"> ~myLogger</text>
</g>
<!-- Node11&#45;&gt;Node10 -->
<g id="edge6" class="edge"><title>Node11&#45;&gt;Node10</title>
<path fill="none" stroke="#404040" d="M175.108,-1346.36C196.368,-1305.93 218.61,-1263.62 235.132,-1232.2"/>
<polygon fill="none" stroke="#404040" points="235.143,-1232.18 234.394,-1225.01 240.727,-1221.56 241.475,-1228.73 235.143,-1232.18"/>
<text text-anchor="middle" x="252.5" y="-1243.5" font-family="Helvetica,sans-Serif" font-size="10.00"> &#45;myLogger</text>
</g>
<!-- Node11&#45;&gt;Node11 -->
<g id="edge8" class="edge"><title>Node11&#45;&gt;Node11</title>
<path fill="none" stroke="#404040" d="M175.337,-1514.18C185.84,-1508.32 193,-1495.26 193,-1475 193,-1461.39 189.768,-1451.02 184.461,-1443.91"/>
<polygon fill="none" stroke="#404040" points="184.315,-1443.78 177.172,-1442.8 175.337,-1435.82 182.48,-1436.81 184.315,-1443.78"/>
<text text-anchor="middle" x="215" y="-1472.5" font-family="Helvetica,sans-Serif" font-size="10.00"> &#45;Instance</text>
</g>
<!-- Node12 -->
<g id="node7" class="node"><title>Node12</title>
<polygon fill="white" stroke="#bfbfbf" points="36.5,-1728.5 36.5,-1785.5 179.5,-1785.5 179.5,-1728.5 36.5,-1728.5"/>
<text text-anchor="middle" x="108" y="-1773.5" font-family="Helvetica,sans-Serif" font-size="10.00">ArrayList&lt; okw.log.ILogger &gt;</text>
<polyline fill="none" stroke="#bfbfbf" points="36.5,-1766.5 179.5,-1766.5 "/>
<text text-anchor="middle" x="108" y="-1754.5" font-family="Helvetica,sans-Serif" font-size="10.00"> </text>
<polyline fill="none" stroke="#bfbfbf" points="36.5,-1747.5 179.5,-1747.5 "/>
<text text-anchor="middle" x="108" y="-1735.5" font-family="Helvetica,sans-Serif" font-size="10.00"> </text>
</g>
<!-- Node12&#45;&gt;Node11 -->
<g id="edge7" class="edge"><title>Node12&#45;&gt;Node11</title>
<path fill="none" stroke="#404040" d="M108,-1728.39C108,-1718.2 108,-1705.7 108,-1691.78"/>
<polygon fill="none" stroke="#404040" points="108,-1691.76 104,-1685.76 108,-1679.76 112,-1685.76 108,-1691.76"/>
<text text-anchor="middle" x="134" y="-1701.5" font-family="Helvetica,sans-Serif" font-size="10.00"> &#45;LoggerList</text>
</g>
<!-- Node13 -->
<g id="node8" class="node"><title>Node13</title>
<g id="a_node8"><a xlink:href="interfaceokw_1_1gui_1_1_i_g_u_i_childwindow.html" target="_top" xlink:title="{okw.gui.IGUIChildwindow\n||+ getCaption()\l+ getExists()\l+ getHasFocus()\l+ getIsActive()\l+ getLabel()\l+ getTooltip()\l+ getValue()\l+ ClickOn()\l+ DoubleClickOn()\l+ LogCaption()\l+ LogExists()\l+ LogHasFocus()\l+ LogIsActive()\l+ LogLabel()\l+ LogSelected()\l+ LogTablecellValue()\l+ LogTooltip()\l+ LogValue()\l+ MemorizeCaption()\l+ MemorizeExists()\lund 23 mehr ...\l}">
<polygon fill="white" stroke="black" points="260,-816.5 260,-1093.5 390,-1093.5 390,-816.5 260,-816.5"/>
<text text-anchor="middle" x="325" y="-1081.5" font-family="Helvetica,sans-Serif" font-size="10.00">okw.gui.IGUIChildwindow</text>
<polyline fill="none" stroke="black" points="260,-1074.5 390,-1074.5 "/>
<text text-anchor="middle" x="325" y="-1062.5" font-family="Helvetica,sans-Serif" font-size="10.00"> </text>
<polyline fill="none" stroke="black" points="260,-1055.5 390,-1055.5 "/>
<text text-anchor="start" x="268" y="-1043.5" font-family="Helvetica,sans-Serif" font-size="10.00">+ getCaption()</text>
<text text-anchor="start" x="268" y="-1032.5" font-family="Helvetica,sans-Serif" font-size="10.00">+ getExists()</text>
<text text-anchor="start" x="268" y="-1021.5" font-family="Helvetica,sans-Serif" font-size="10.00">+ getHasFocus()</text>
<text text-anchor="start" x="268" y="-1010.5" font-family="Helvetica,sans-Serif" font-size="10.00">+ getIsActive()</text>
<text text-anchor="start" x="268" y="-999.5" font-family="Helvetica,sans-Serif" font-size="10.00">+ getLabel()</text>
<text text-anchor="start" x="268" y="-988.5" font-family="Helvetica,sans-Serif" font-size="10.00">+ getTooltip()</text>
<text text-anchor="start" x="268" y="-977.5" font-family="Helvetica,sans-Serif" font-size="10.00">+ getValue()</text>
<text text-anchor="start" x="268" y="-966.5" font-family="Helvetica,sans-Serif" font-size="10.00">+ ClickOn()</text>
<text text-anchor="start" x="268" y="-955.5" font-family="Helvetica,sans-Serif" font-size="10.00">+ DoubleClickOn()</text>
<text text-anchor="start" x="268" y="-944.5" font-family="Helvetica,sans-Serif" font-size="10.00">+ LogCaption()</text>
<text text-anchor="start" x="268" y="-933.5" font-family="Helvetica,sans-Serif" font-size="10.00">+ LogExists()</text>
<text text-anchor="start" x="268" y="-922.5" font-family="Helvetica,sans-Serif" font-size="10.00">+ LogHasFocus()</text>
<text text-anchor="start" x="268" y="-911.5" font-family="Helvetica,sans-Serif" font-size="10.00">+ LogIsActive()</text>
<text text-anchor="start" x="268" y="-900.5" font-family="Helvetica,sans-Serif" font-size="10.00">+ LogLabel()</text>
<text text-anchor="start" x="268" y="-889.5" font-family="Helvetica,sans-Serif" font-size="10.00">+ LogSelected()</text>
<text text-anchor="start" x="268" y="-878.5" font-family="Helvetica,sans-Serif" font-size="10.00">+ LogTablecellValue()</text>
<text text-anchor="start" x="268" y="-867.5" font-family="Helvetica,sans-Serif" font-size="10.00">+ LogTooltip()</text>
<text text-anchor="start" x="268" y="-856.5" font-family="Helvetica,sans-Serif" font-size="10.00">+ LogValue()</text>
<text text-anchor="start" x="268" y="-845.5" font-family="Helvetica,sans-Serif" font-size="10.00">+ MemorizeCaption()</text>
<text text-anchor="start" x="268" y="-834.5" font-family="Helvetica,sans-Serif" font-size="10.00">+ MemorizeExists()</text>
<text text-anchor="start" x="268" y="-823.5" font-family="Helvetica,sans-Serif" font-size="10.00">und 23 mehr ...</text>
</a>
</g>
</g>
<!-- Node13&#45;&gt;Node8 -->
<g id="edge10" class="edge"><title>Node13&#45;&gt;Node8</title>
<path fill="none" stroke="midnightblue" d="M307.636,-805.952C306.144,-793.228 304.638,-780.389 303.156,-767.751"/>
<polygon fill="none" stroke="midnightblue" points="304.188,-806.601 308.829,-816.125 311.141,-805.785 304.188,-806.601"/>
</g>
<!-- Node14 -->
<g id="node9" class="node"><title>Node14</title>
<g id="a_node9"><a xlink:href="interfaceokw_1_1core_1_1_i_o_k_w___f_n.html" target="_top" xlink:title="{okw.core.IOKW_FN\n||+ setKN()\l+ setFN()\l+ setParentFN()\l+ getKN()\l+ getFN()\l+ getParentFN()\l}">
<polygon fill="white" stroke="black" points="408.5,-899 408.5,-1011 513.5,-1011 513.5,-899 408.5,-899"/>
<text text-anchor="middle" x="461" y="-999" font-family="Helvetica,sans-Serif" font-size="10.00">okw.core.IOKW_FN</text>
<polyline fill="none" stroke="black" points="408.5,-992 513.5,-992 "/>
<text text-anchor="middle" x="461" y="-980" font-family="Helvetica,sans-Serif" font-size="10.00"> </text>
<polyline fill="none" stroke="black" points="408.5,-973 513.5,-973 "/>
<text text-anchor="start" x="416.5" y="-961" font-family="Helvetica,sans-Serif" font-size="10.00">+ setKN()</text>
<text text-anchor="start" x="416.5" y="-950" font-family="Helvetica,sans-Serif" font-size="10.00">+ setFN()</text>
<text text-anchor="start" x="416.5" y="-939" font-family="Helvetica,sans-Serif" font-size="10.00">+ setParentFN()</text>
<text text-anchor="start" x="416.5" y="-928" font-family="Helvetica,sans-Serif" font-size="10.00">+ getKN()</text>
<text text-anchor="start" x="416.5" y="-917" font-family="Helvetica,sans-Serif" font-size="10.00">+ getFN()</text>
<text text-anchor="start" x="416.5" y="-906" font-family="Helvetica,sans-Serif" font-size="10.00">+ getParentFN()</text>
</a>
</g>
</g>
<!-- Node14&#45;&gt;Node8 -->
<g id="edge11" class="edge"><title>Node14&#45;&gt;Node8</title>
<path fill="none" stroke="midnightblue" d="M434.024,-889.705C423.672,-866.216 411.364,-839.626 399,-816 384.144,-787.612 366.806,-757.57 350.272,-730.102"/>
<polygon fill="none" stroke="midnightblue" points="430.824,-891.122 438.039,-898.88 437.237,-888.316 430.824,-891.122"/>
</g>
<!-- Node15 -->
<g id="node10" class="node"><title>Node15</title>
<g id="a_node10"><a xlink:href="classokw_1_1_log_messenger.html" target="_top" xlink:title="LogMessenger liest Log&#45;Meldungen sprachspezifisch für die im Konstruktor gegeben Klasse aus der Zugeh...">
<polygon fill="white" stroke="black" points="444.5,-573 444.5,-685 545.5,-685 545.5,-573 444.5,-573"/>
<text text-anchor="middle" x="495" y="-673" font-family="Helvetica,sans-Serif" font-size="10.00">okw.LogMessenger</text>
<polyline fill="none" stroke="black" points="444.5,-666 545.5,-666 "/>
<text text-anchor="start" x="452.5" y="-654" font-family="Helvetica,sans-Serif" font-size="10.00">&#45; cvsClassName</text>
<polyline fill="none" stroke="black" points="444.5,-647 545.5,-647 "/>
<text text-anchor="start" x="452.5" y="-635" font-family="Helvetica,sans-Serif" font-size="10.00">+ LogMessenger()</text>
<text text-anchor="start" x="452.5" y="-624" font-family="Helvetica,sans-Serif" font-size="10.00">+ GetMessage()</text>
<text text-anchor="start" x="452.5" y="-613" font-family="Helvetica,sans-Serif" font-size="10.00">+ GetMessage()</text>
<text text-anchor="start" x="452.5" y="-602" font-family="Helvetica,sans-Serif" font-size="10.00">+ GetMessage()</text>
<text text-anchor="start" x="452.5" y="-591" font-family="Helvetica,sans-Serif" font-size="10.00">+ GetMessage()</text>
<text text-anchor="start" x="452.5" y="-580" font-family="Helvetica,sans-Serif" font-size="10.00">&#45; ReadMessage()</text>
</a>
</g>
</g>
<!-- Node15&#45;&gt;Node7 -->
<g id="edge13" class="edge"><title>Node15&#45;&gt;Node7</title>
<path fill="none" stroke="#404040" d="M460.185,-572.765C432.698,-529.155 393.409,-466.822 359.199,-412.547"/>
<polygon fill="none" stroke="#404040" points="359.052,-412.313 352.468,-409.37 352.653,-402.161 359.236,-405.104 359.052,-412.313"/>
<text text-anchor="middle" x="402" y="-463.5" font-family="Helvetica,sans-Serif" font-size="10.00"> #LM</text>
</g>
<!-- Node16 -->
<g id="node11" class="node"><title>Node16</title>
<g id="a_node11"><a xlink:href="classokw_1_1_o_k_w___xml_reader.html" target="_top" xlink:title="{okw.OKW_XmlReader\n||+ getXMLFile()\l+ OKW_XmlReader()\l+ getTextContentSingleValue()\l+ getTextContentAsList()\l&#45; Init()\l}">
<polygon fill="white" stroke="black" points="574.5,-904.5 574.5,-1005.5 725.5,-1005.5 725.5,-904.5 574.5,-904.5"/>
<text text-anchor="middle" x="650" y="-993.5" font-family="Helvetica,sans-Serif" font-size="10.00">okw.OKW_XmlReader</text>
<polyline fill="none" stroke="black" points="574.5,-986.5 725.5,-986.5 "/>
<text text-anchor="middle" x="650" y="-974.5" font-family="Helvetica,sans-Serif" font-size="10.00"> </text>
<polyline fill="none" stroke="black" points="574.5,-967.5 725.5,-967.5 "/>
<text text-anchor="start" x="582.5" y="-955.5" font-family="Helvetica,sans-Serif" font-size="10.00">+ getXMLFile()</text>
<text text-anchor="start" x="582.5" y="-944.5" font-family="Helvetica,sans-Serif" font-size="10.00">+ OKW_XmlReader()</text>
<text text-anchor="start" x="582.5" y="-933.5" font-family="Helvetica,sans-Serif" font-size="10.00">+ getTextContentSingleValue()</text>
<text text-anchor="start" x="582.5" y="-922.5" font-family="Helvetica,sans-Serif" font-size="10.00">+ getTextContentAsList()</text>
<text text-anchor="start" x="582.5" y="-911.5" font-family="Helvetica,sans-Serif" font-size="10.00">&#45; Init()</text>
</a>
</g>
</g>
<!-- Node16&#45;&gt;Node15 -->
<g id="edge14" class="edge"><title>Node16&#45;&gt;Node15</title>
<path fill="none" stroke="#404040" d="M626.29,-904.439C599.665,-848.783 556.326,-758.191 526.782,-696.435"/>
<polygon fill="none" stroke="#404040" points="526.612,-696.079 520.414,-692.393 521.433,-685.254 527.631,-688.941 526.612,-696.079"/>
<text text-anchor="middle" x="607.5" y="-789.5" font-family="Helvetica,sans-Serif" font-size="10.00"> &#45;myXmlReader</text>
</g>
<!-- Node17 -->
<g id="node12" class="node"><title>Node17</title>
<polygon fill="white" stroke="#bfbfbf" points="407.5,-1153.5 407.5,-1210.5 478.5,-1210.5 478.5,-1153.5 407.5,-1153.5"/>
<text text-anchor="middle" x="443" y="-1198.5" font-family="Helvetica,sans-Serif" font-size="10.00">ClassLoader</text>
<polyline fill="none" stroke="#bfbfbf" points="407.5,-1191.5 478.5,-1191.5 "/>
<text text-anchor="middle" x="443" y="-1179.5" font-family="Helvetica,sans-Serif" font-size="10.00"> </text>
<polyline fill="none" stroke="#bfbfbf" points="407.5,-1172.5 478.5,-1172.5 "/>
<text text-anchor="middle" x="443" y="-1160.5" font-family="Helvetica,sans-Serif" font-size="10.00"> </text>
</g>
<!-- Node17&#45;&gt;Node16 -->
<g id="edge15" class="edge"><title>Node17&#45;&gt;Node16</title>
<path fill="none" stroke="midnightblue" d="M475.452,-1145.73C510.107,-1108.06 565.301,-1048.06 604.333,-1005.64"/>
<polygon fill="none" stroke="midnightblue" points="472.577,-1143.68 468.382,-1153.41 477.729,-1148.42 472.577,-1143.68"/>
</g>
<!-- Node18 -->
<g id="node13" class="node"><title>Node18</title>
<polygon fill="white" stroke="#bfbfbf" points="496.5,-1153.5 496.5,-1210.5 621.5,-1210.5 621.5,-1153.5 496.5,-1153.5"/>
<text text-anchor="middle" x="559" y="-1198.5" font-family="Helvetica,sans-Serif" font-size="10.00">DocumentBuilderFactory</text>
<polyline fill="none" stroke="#bfbfbf" points="496.5,-1191.5 621.5,-1191.5 "/>
<text text-anchor="middle" x="559" y="-1179.5" font-family="Helvetica,sans-Serif" font-size="10.00"> </text>
<polyline fill="none" stroke="#bfbfbf" points="496.5,-1172.5 621.5,-1172.5 "/>
<text text-anchor="middle" x="559" y="-1160.5" font-family="Helvetica,sans-Serif" font-size="10.00"> </text>
</g>
<!-- Node18&#45;&gt;Node16 -->
<g id="edge16" class="edge"><title>Node18&#45;&gt;Node16</title>
<path fill="none" stroke="#404040" d="M568.132,-1153.3C572.437,-1140.64 577.769,-1125.48 583,-1112 595.333,-1080.22 610.197,-1045.32 622.787,-1016.6"/>
<polygon fill="none" stroke="#404040" points="622.834,-1016.49 621.591,-1009.39 627.67,-1005.51 628.913,-1012.61 622.834,-1016.49"/>
<text text-anchor="middle" x="615" y="-1115.5" font-family="Helvetica,sans-Serif" font-size="10.00"> &#45;mydbFactory</text>
</g>
<!-- Node19 -->
<g id="node14" class="node"><title>Node19</title>
<polygon fill="white" stroke="#bfbfbf" points="639,-1153.5 639,-1210.5 683,-1210.5 683,-1153.5 639,-1153.5"/>
<text text-anchor="middle" x="661" y="-1198.5" font-family="Helvetica,sans-Serif" font-size="10.00">XPath</text>
<polyline fill="none" stroke="#bfbfbf" points="639,-1191.5 683,-1191.5 "/>
<text text-anchor="middle" x="661" y="-1179.5" font-family="Helvetica,sans-Serif" font-size="10.00"> </text>
<polyline fill="none" stroke="#bfbfbf" points="639,-1172.5 683,-1172.5 "/>
<text text-anchor="middle" x="661" y="-1160.5" font-family="Helvetica,sans-Serif" font-size="10.00"> </text>
</g>
<!-- Node19&#45;&gt;Node16 -->
<g id="edge17" class="edge"><title>Node19&#45;&gt;Node16</title>
<path fill="none" stroke="#404040" d="M655.178,-1153.29C653.488,-1144.02 651.865,-1133.61 651,-1124 647.848,-1088.99 647.441,-1049.72 647.895,-1017.95"/>
<polygon fill="none" stroke="#404040" points="647.899,-1017.72 644.008,-1011.65 648.116,-1005.72 652.007,-1011.8 647.899,-1017.72"/>
<text text-anchor="middle" x="674.5" y="-1115.5" font-family="Helvetica,sans-Serif" font-size="10.00"> &#45;myXPath</text>
</g>
<!-- Node20 -->
<g id="node15" class="node"><title>Node20</title>
<polygon fill="white" stroke="#bfbfbf" points="701.5,-1153.5 701.5,-1210.5 738.5,-1210.5 738.5,-1153.5 701.5,-1153.5"/>
<text text-anchor="middle" x="720" y="-1198.5" font-family="Helvetica,sans-Serif" font-size="10.00">Path</text>
<polyline fill="none" stroke="#bfbfbf" points="701.5,-1191.5 738.5,-1191.5 "/>
<text text-anchor="middle" x="720" y="-1179.5" font-family="Helvetica,sans-Serif" font-size="10.00"> </text>
<polyline fill="none" stroke="#bfbfbf" points="701.5,-1172.5 738.5,-1172.5 "/>
<text text-anchor="middle" x="720" y="-1160.5" font-family="Helvetica,sans-Serif" font-size="10.00"> </text>
</g>
<!-- Node20&#45;&gt;Node16 -->
<g id="edge18" class="edge"><title>Node20&#45;&gt;Node16</title>
<path fill="none" stroke="#404040" d="M711.417,-1153.41C700.927,-1119.69 682.869,-1061.65 669.041,-1017.2"/>
<polygon fill="none" stroke="#404040" points="669.008,-1017.1 663.406,-1012.56 665.443,-1005.64 671.045,-1010.18 669.008,-1017.1"/>
<text text-anchor="middle" x="730" y="-1115.5" font-family="Helvetica,sans-Serif" font-size="10.00"> &#45;myXMLFile</text>
</g>
<!-- Node21 -->
<g id="node16" class="node"><title>Node21</title>
<polygon fill="white" stroke="#bfbfbf" points="757,-1153.5 757,-1210.5 849,-1210.5 849,-1153.5 757,-1153.5"/>
<text text-anchor="middle" x="803" y="-1198.5" font-family="Helvetica,sans-Serif" font-size="10.00">DocumentBuilder</text>
<polyline fill="none" stroke="#bfbfbf" points="757,-1191.5 849,-1191.5 "/>
<text text-anchor="middle" x="803" y="-1179.5" font-family="Helvetica,sans-Serif" font-size="10.00"> </text>
<polyline fill="none" stroke="#bfbfbf" points="757,-1172.5 849,-1172.5 "/>
<text text-anchor="middle" x="803" y="-1160.5" font-family="Helvetica,sans-Serif" font-size="10.00"> </text>
</g>
<!-- Node21&#45;&gt;Node16 -->
<g id="edge19" class="edge"><title>Node21&#45;&gt;Node16</title>
<path fill="none" stroke="#404040" d="M787.373,-1153.47C779.939,-1140.7 770.774,-1125.41 762,-1112 740.772,-1079.56 715.718,-1044.4 694.696,-1015.69"/>
<polygon fill="none" stroke="#404040" points="694.547,-1015.48 687.771,-1013.02 687.441,-1005.81 694.217,-1008.28 694.547,-1015.48"/>
<text text-anchor="middle" x="797.5" y="-1115.5" font-family="Helvetica,sans-Serif" font-size="10.00"> &#45;mydBuilder</text>
</g>
<!-- Node22 -->
<g id="node17" class="node"><title>Node22</title>
<polygon fill="white" stroke="#bfbfbf" points="867,-1153.5 867,-1210.5 929,-1210.5 929,-1153.5 867,-1153.5"/>
<text text-anchor="middle" x="898" y="-1198.5" font-family="Helvetica,sans-Serif" font-size="10.00">Document</text>
<polyline fill="none" stroke="#bfbfbf" points="867,-1191.5 929,-1191.5 "/>
<text text-anchor="middle" x="898" y="-1179.5" font-family="Helvetica,sans-Serif" font-size="10.00"> </text>
<polyline fill="none" stroke="#bfbfbf" points="867,-1172.5 929,-1172.5 "/>
<text text-anchor="middle" x="898" y="-1160.5" font-family="Helvetica,sans-Serif" font-size="10.00"> </text>
</g>
<!-- Node22&#45;&gt;Node16 -->
<g id="edge20" class="edge"><title>Node22&#45;&gt;Node16</title>
<path fill="none" stroke="#404040" d="M871.222,-1153.36C858.61,-1140.57 843.24,-1125.3 829,-1112 793.197,-1078.57 752.065,-1042.56 718.265,-1013.58"/>
<polygon fill="none" stroke="#404040" points="718.054,-1013.4 710.895,-1012.53 708.937,-1005.59 716.096,-1006.46 718.054,-1013.4"/>
<text text-anchor="middle" x="883.5" y="-1115.5" font-family="Helvetica,sans-Serif" font-size="10.00"> &#45;myXMLDocument</text>
</g>
</g>
</svg>
