<?xml version="1.0" encoding="UTF-8" standalone="no"?>
<!DOCTYPE svg PUBLIC "-//W3C//DTD SVG 1.1//EN"
 "http://www.w3.org/Graphics/SVG/1.1/DTD/svg11.dtd">
<!-- Generated by graphviz version 2.26.3 (20100126.1600)
 -->
<!-- Title: okw.core.EN.VerifySelectedValueWCM Pages: 1 -->
<svg width="934pt" height="128pt"
 viewBox="0.00 0.00 934.00 128.00" xmlns="http://www.w3.org/2000/svg" xmlns:xlink="http://www.w3.org/1999/xlink">
<g id="graph1" class="graph" transform="scale(1 1) rotate(0) translate(4 124)">
<title>okw.core.EN.VerifySelectedValueWCM</title>
<polygon fill="white" stroke="white" points="-4,5 -4,-124 931,-124 931,5 -4,5"/>
<!-- Node472 -->
<g id="node1" class="node"><title>Node472</title>
<polygon fill="#bfbfbf" stroke="black" points="0,-69 0,-103 140,-103 140,-69 0,-69"/>
<text text-anchor="start" x="8" y="-90" font-family="Helvetica,sans-Serif" font-size="10.00">okw.core.EN.VerifySelected</text>
<text text-anchor="middle" x="70" y="-77" font-family="Helvetica,sans-Serif" font-size="10.00">ValueWCM</text>
</g>
<!-- Node473 -->
<g id="node3" class="node"><title>Node473</title>
<a xlink:href="classokw_1_1core_1_1_core.html#ab4e0f723d27cb11c944ec4c82c426100" target="_top" xlink:title="Setzt die Sprache auf den gegebenen wert Language. ">
<polygon fill="white" stroke="black" points="180.5,-98.5 180.5,-119.5 319.5,-119.5 319.5,-98.5 180.5,-98.5"/>
<text text-anchor="middle" x="250" y="-106.5" font-family="Helvetica,sans-Serif" font-size="10.00">okw.core.Core.setLanguage</text>
</a>
</g>
<!-- Node472&#45;&gt;Node473 -->
<g id="edge2" class="edge"><title>Node472&#45;&gt;Node473</title>
<path fill="none" stroke="midnightblue" d="M140.108,-94.9583C150.029,-96.2259 160.289,-97.5369 170.373,-98.8254"/>
<polygon fill="midnightblue" stroke="midnightblue" points="170.016,-102.308 180.379,-100.104 170.903,-95.3647 170.016,-102.308"/>
</g>
<!-- Node475 -->
<g id="node7" class="node"><title>Node475</title>
<a xlink:href="classokw_1_1core_1_1_core.html#ad0ff49c39bbe4fdc3477df1527bf7c58" target="_top" xlink:title="okw.core.Core.VerifySelected\lValueWCM">
<polygon fill="white" stroke="black" points="176.5,-46 176.5,-80 323.5,-80 323.5,-46 176.5,-46"/>
<text text-anchor="start" x="184.5" y="-67" font-family="Helvetica,sans-Serif" font-size="10.00">okw.core.Core.VerifySelected</text>
<text text-anchor="middle" x="250" y="-54" font-family="Helvetica,sans-Serif" font-size="10.00">ValueWCM</text>
</a>
</g>
<!-- Node472&#45;&gt;Node475 -->
<g id="edge6" class="edge"><title>Node472&#45;&gt;Node475</title>
<path fill="none" stroke="midnightblue" d="M140.108,-77.0417C148.622,-75.9538 157.386,-74.834 166.074,-73.7238"/>
<polygon fill="midnightblue" stroke="midnightblue" points="166.743,-77.1669 176.219,-72.4276 165.856,-70.2234 166.743,-77.1669"/>
</g>
<!-- Node474 -->
<g id="node5" class="node"><title>Node474</title>
<a xlink:href="interfaceokw_1_1core_1_1_i_o_k_w___state.html#a866baa0bde08a47418f54d63bdb56097" target="_top" xlink:title="Interne Methode zum setzen der Sprache f체r die sprachabh채ngigen Ausgaben der Dokumentation (Log)...">
<polygon fill="white" stroke="black" points="360.5,-98.5 360.5,-119.5 533.5,-119.5 533.5,-98.5 360.5,-98.5"/>
<text text-anchor="middle" x="447" y="-106.5" font-family="Helvetica,sans-Serif" font-size="10.00">okw.core.IOKW_State.setLanguage</text>
</a>
</g>
<!-- Node473&#45;&gt;Node474 -->
<g id="edge4" class="edge"><title>Node473&#45;&gt;Node474</title>
<path fill="none" stroke="midnightblue" d="M319.732,-109C329.611,-109 339.913,-109 350.19,-109"/>
<polygon fill="midnightblue" stroke="midnightblue" points="350.442,-112.5 360.442,-109 350.442,-105.5 350.442,-112.5"/>
</g>
<!-- Node476 -->
<g id="node9" class="node"><title>Node476</title>
<a xlink:href="classokw_1_1log_1_1_logger___sngltn.html#a70ec25e200e00ecefc544e8fd371d2ef" target="_top" xlink:title="Ausgabe eines Schl체sselwortes. ">
<polygon fill="white" stroke="black" points="380,-46 380,-80 514,-80 514,-46 380,-46"/>
<text text-anchor="start" x="388" y="-67" font-family="Helvetica,sans-Serif" font-size="10.00">okw.log.Logger_Sngltn.Log</text>
<text text-anchor="middle" x="447" y="-54" font-family="Helvetica,sans-Serif" font-size="10.00">KeyWordStart</text>
</a>
</g>
<!-- Node475&#45;&gt;Node476 -->
<g id="edge8" class="edge"><title>Node475&#45;&gt;Node476</title>
<path fill="none" stroke="midnightblue" d="M323.636,-63C338.642,-63 354.473,-63 369.605,-63"/>
<polygon fill="midnightblue" stroke="midnightblue" points="369.952,-66.5001 379.952,-63 369.952,-59.5001 369.952,-66.5001"/>
</g>
<!-- Node477 -->
<g id="node11" class="node"><title>Node477</title>
<a xlink:href="classokw_1_1_log_messenger.html#af225d1f037d47b3b085175c09d78bdd2" target="_top" xlink:title="Holt die Log&#45;Meldung f체r MethodeNmae/Textkey ohne weitere Parameter. ">
<polygon fill="white" stroke="black" points="367,-6.5 367,-27.5 527,-27.5 527,-6.5 367,-6.5"/>
<text text-anchor="middle" x="447" y="-14.5" font-family="Helvetica,sans-Serif" font-size="10.00">okw.LogMessenger.GetMessage</text>
</a>
</g>
<!-- Node475&#45;&gt;Node477 -->
<g id="edge10" class="edge"><title>Node475&#45;&gt;Node477</title>
<path fill="none" stroke="midnightblue" d="M321.877,-45.9438C334.575,-42.9497 347.673,-39.8736 360,-37 370.065,-34.6535 380.791,-32.1724 391.149,-29.7859"/>
<polygon fill="midnightblue" stroke="midnightblue" points="391.973,-33.1878 400.934,-27.5344 390.403,-26.366 391.973,-33.1878"/>
</g>
<!-- Node478 -->
<g id="node13" class="node"><title>Node478</title>
<a xlink:href="classokw_1_1_log_messenger.html#a530cd6ab82ec82a04206a2e976ec06e3" target="_top" xlink:title="Interne Kernfunktion holt die Log&#45;Meldung mit Platzhaltern aus der XML&#45;Datei. ">
<polygon fill="white" stroke="black" points="570.5,-6.5 570.5,-27.5 737.5,-27.5 737.5,-6.5 570.5,-6.5"/>
<text text-anchor="middle" x="654" y="-14.5" font-family="Helvetica,sans-Serif" font-size="10.00">okw.LogMessenger.ReadMessage</text>
</a>
</g>
<!-- Node477&#45;&gt;Node478 -->
<g id="edge12" class="edge"><title>Node477&#45;&gt;Node478</title>
<path fill="none" stroke="midnightblue" d="M527.032,-17C537.92,-17 549.173,-17 560.276,-17"/>
<polygon fill="midnightblue" stroke="midnightblue" points="560.415,-20.5001 570.415,-17 560.415,-13.5001 560.415,-20.5001"/>
</g>
<!-- Node479 -->
<g id="node15" class="node"><title>Node479</title>
<a xlink:href="classokw_1_1_o_k_w___xml_reader.html#ab920b5335a2e1429c14cc5f8e79f39eb" target="_top" xlink:title="Lies den TextContent eines Tag. ">
<polygon fill="white" stroke="black" points="774,-0 774,-34 926,-34 926,-0 774,-0"/>
<text text-anchor="start" x="782" y="-21" font-family="Helvetica,sans-Serif" font-size="10.00">okw.OKW_XmlReader.getText</text>
<text text-anchor="middle" x="850" y="-8" font-family="Helvetica,sans-Serif" font-size="10.00">ContentSingleValue</text>
</a>
</g>
<!-- Node478&#45;&gt;Node479 -->
<g id="edge14" class="edge"><title>Node478&#45;&gt;Node479</title>
<path fill="none" stroke="midnightblue" d="M737.69,-17C746.29,-17 755.041,-17 763.669,-17"/>
<polygon fill="midnightblue" stroke="midnightblue" points="763.725,-20.5001 773.725,-17 763.725,-13.5001 763.725,-20.5001"/>
</g>
</g>
</svg>
