<?xml version="1.0" encoding="UTF-8" standalone="no"?>
<!DOCTYPE svg PUBLIC "-//W3C//DTD SVG 1.1//EN"
 "http://www.w3.org/Graphics/SVG/1.1/DTD/svg11.dtd">
<!-- Generated by graphviz version 2.38.0 (20140413.2041)
 -->
<!-- Title: okw.gui.adapter.selenium.SeAnyChildWindow.MemorizeValue Pages: 1 -->
<!--zoomable 302 -->
<svg id="main" version="1.1" xmlns="http://www.w3.org/2000/svg" xmlns:xlink="http://www.w3.org/1999/xlink" xml:space="preserve" onload="init(evt)">
<style type="text/css"><![CDATA[
.edge:hover path { stroke: red; }
.edge:hover polygon { stroke: red; fill: red; }
]]></style>
<script type="text/javascript"><![CDATA[
var edges = document.getElementsByTagName('g');
if (edges && edges.length) {
  for (var i=0;i<edges.length;i++) {
    if (edges[i].id.substr(0,4)=='edge') {
      edges[i].setAttribute('class','edge');
    }
  }
}
]]></script>
        <defs>
                <circle id="rim" cx="0" cy="0" r="7"/>
                <circle id="rim2" cx="0" cy="0" r="3.5"/>
                <g id="zoomPlus">
                        <use xlink:href="#rim" fill="#404040">
                                <set attributeName="fill" to="#808080" begin="zoomplus.mouseover" end="zoomplus.mouseout"/>
                        </use>
                        <path d="M-4,0h8M0,-4v8" fill="none" stroke="white" stroke-width="1.5" pointer-events="none"/>
                </g>
                <g id="zoomMin">
                        <use xlink:href="#rim" fill="#404040">
                                <set attributeName="fill" to="#808080" begin="zoomminus.mouseover" end="zoomminus.mouseout"/>
                        </use>
                        <path d="M-4,0h8" fill="none" stroke="white" stroke-width="1.5" pointer-events="none"/>
                </g>
                <g id="dirArrow">
                        <path fill="none" stroke="white" stroke-width="1.5" d="M0,-3.0v7 M-2.5,-0.5L0,-3.0L2.5,-0.5"/>
                </g>
               <g id="resetDef">
                       <use xlink:href="#rim2" fill="#404040">
                               <set attributeName="fill" to="#808080" begin="reset.mouseover" end="reset.mouseout"/>
                       </use>
               </g>
        </defs>

<script type="text/javascript">
var viewWidth = 1221;
var viewHeight = 302;
var sectionId = 'dynsection-35';
</script>
<script xlink:href="svgpan.js"/>
<svg id="graph" class="graph">
<g id="viewport">
<title>okw.gui.adapter.selenium.SeAnyChildWindow.MemorizeValue</title>
<polygon fill="white" stroke="none" points="-4,4 -4,-298 1217,-298 1217,4 -4,4"/>
<!-- Node465 -->
<g id="node1" class="node"><title>Node465</title>
<g id="a_node1"><a xlink:title="Das ist die GUI&#45;Adapter Methode, die durch das Schlüsselwort refMemorizeValue aufgerufen wird.">
<polygon fill="#bfbfbf" stroke="black" points="0,-100.5 0,-130.5 182,-130.5 182,-100.5 0,-100.5"/>
<text text-anchor="start" x="8" y="-118.5" font-family="Helvetica,sans-Serif" font-size="10.00">okw.gui.adapter.selenium.</text>
<text text-anchor="middle" x="91" y="-107.5" font-family="Helvetica,sans-Serif" font-size="10.00">SeAnyChildWindow.MemorizeValue</text>
</a>
</g>
</g>
<!-- Node466 -->
<g id="node2" class="node"><title>Node466</title>
<g id="a_node2"><a xlink:href="classokw_1_1gui_1_1_any_win_base.html#abaab572bdbed7b471f659d5dd8c76853" target="_top" xlink:title="Diese Methode ruft die Methode Logger.Instance.LogFunctionStartDebug(fps_FunctionName),...">
<polygon fill="white" stroke="black" points="404,-185.5 404,-215.5 577,-215.5 577,-185.5 404,-185.5"/>
<text text-anchor="start" x="412" y="-203.5" font-family="Helvetica,sans-Serif" font-size="10.00">okw.gui.AnyWinBase.LogFunction</text>
<text text-anchor="middle" x="490.5" y="-192.5" font-family="Helvetica,sans-Serif" font-size="10.00">StartDebug</text>
</a>
</g>
</g>
<!-- Node465&#45;&gt;Node466 -->
<g id="edge1" class="edge"><title>Node465&#45;&gt;Node466</title>
<path fill="none" stroke="midnightblue" d="M162.15,-130.501C231.226,-145.271 336.62,-167.809 409.054,-183.298"/>
<polygon fill="midnightblue" stroke="midnightblue" points="408.538,-186.767 419.049,-185.435 410.002,-179.921 408.538,-186.767"/>
</g>
<!-- Node467 -->
<g id="node3" class="node"><title>Node467</title>
<g id="a_node3"><a xlink:href="classokw_1_1gui_1_1adapter_1_1selenium_1_1_se_any_child_window.html#a2fcad47248d5e447d9b3cb29a933b8df" target="_top" xlink:title="Liest den aktuellen sichtbaren Wert/Text des HTML&#45;Tags aus.">
<polygon fill="white" stroke="black" points="218,-100.5 218,-130.5 368,-130.5 368,-100.5 218,-100.5"/>
<text text-anchor="start" x="226" y="-118.5" font-family="Helvetica,sans-Serif" font-size="10.00">okw.gui.adapter.selenium.</text>
<text text-anchor="middle" x="293" y="-107.5" font-family="Helvetica,sans-Serif" font-size="10.00">SeAnyChildWindow.getValue</text>
</a>
</g>
</g>
<!-- Node465&#45;&gt;Node467 -->
<g id="edge2" class="edge"><title>Node465&#45;&gt;Node467</title>
<path fill="none" stroke="midnightblue" d="M182.054,-115.5C190.531,-115.5 199.104,-115.5 207.526,-115.5"/>
<polygon fill="midnightblue" stroke="midnightblue" points="207.708,-119 217.708,-115.5 207.708,-112 207.708,-119"/>
</g>
<!-- Node481 -->
<g id="node17" class="node"><title>Node481</title>
<g id="a_node17"><a xlink:href="classokw_1_1gui_1_1_any_win_base.html#a51cf50ace21902b3a5359316f53a7f3e" target="_top" xlink:title="Methode ruft die Methode Logger.Instance.LogFunctionEndDebug() auf.">
<polygon fill="white" stroke="black" points="404,-38.5 404,-68.5 577,-68.5 577,-38.5 404,-38.5"/>
<text text-anchor="start" x="412" y="-56.5" font-family="Helvetica,sans-Serif" font-size="10.00">okw.gui.AnyWinBase.LogFunction</text>
<text text-anchor="middle" x="490.5" y="-45.5" font-family="Helvetica,sans-Serif" font-size="10.00">EndDebug</text>
</a>
</g>
</g>
<!-- Node465&#45;&gt;Node481 -->
<g id="edge20" class="edge"><title>Node465&#45;&gt;Node481</title>
<path fill="none" stroke="midnightblue" d="M163.825,-100.47C181.5,-96.9867 200.403,-93.442 218,-90.5 276.063,-80.7924 341.434,-71.8242 393.479,-65.1489"/>
<polygon fill="midnightblue" stroke="midnightblue" points="394.227,-68.5819 403.704,-63.8448 393.342,-61.6381 394.227,-68.5819"/>
</g>
<!-- Node467&#45;&gt;Node466 -->
<g id="edge3" class="edge"><title>Node467&#45;&gt;Node466</title>
<path fill="none" stroke="midnightblue" d="M318.154,-130.649C339.957,-143.839 373.241,-162.788 404,-175.5 409.815,-177.903 415.942,-180.174 422.134,-182.294"/>
<polygon fill="midnightblue" stroke="midnightblue" points="421.29,-185.701 431.883,-185.498 423.476,-179.051 421.29,-185.701"/>
</g>
<!-- Node468 -->
<g id="node4" class="node"><title>Node468</title>
<g id="a_node4"><a xlink:href="classokw_1_1gui_1_1adapter_1_1selenium_1_1_se_any_child_window.html#a72faf4aa1717b4178fae1b0570ca9b28" target="_top" xlink:title="Wartet auf das Objekt Wenn kein Fenster gefunden wird,.">
<polygon fill="white" stroke="black" points="412,-136.5 412,-166.5 569,-166.5 569,-136.5 412,-136.5"/>
<text text-anchor="start" x="420" y="-154.5" font-family="Helvetica,sans-Serif" font-size="10.00">okw.gui.adapter.selenium.</text>
<text text-anchor="middle" x="490.5" y="-143.5" font-family="Helvetica,sans-Serif" font-size="10.00">SeAnyChildWindow.WaitForMe</text>
</a>
</g>
</g>
<!-- Node467&#45;&gt;Node468 -->
<g id="edge4" class="edge"><title>Node467&#45;&gt;Node468</title>
<path fill="none" stroke="midnightblue" d="M368.189,-129.161C379.217,-131.192 390.67,-133.301 401.941,-135.377"/>
<polygon fill="midnightblue" stroke="midnightblue" points="401.315,-138.82 411.783,-137.189 402.583,-131.936 401.315,-138.82"/>
</g>
<!-- Node477 -->
<g id="node13" class="node"><title>Node477</title>
<g id="a_node13"><a xlink:href="classokw_1_1gui_1_1adapter_1_1selenium_1_1_se_any_child_window.html#a9a138af1fc6ff850d708d66f308a2525" target="_top" xlink:title="Ermittelt aus dem gegebenen Locator das DOM&#45;Elelement, welches das Objekt representiert.">
<polygon fill="white" stroke="black" points="420.5,-87.5 420.5,-117.5 560.5,-117.5 560.5,-87.5 420.5,-87.5"/>
<text text-anchor="start" x="428.5" y="-105.5" font-family="Helvetica,sans-Serif" font-size="10.00">okw.gui.adapter.selenium.</text>
<text text-anchor="middle" x="490.5" y="-94.5" font-family="Helvetica,sans-Serif" font-size="10.00">SeAnyChildWindow.Me</text>
</a>
</g>
</g>
<!-- Node467&#45;&gt;Node477 -->
<g id="edge13" class="edge"><title>Node467&#45;&gt;Node477</title>
<path fill="none" stroke="midnightblue" d="M368.189,-110.567C381.922,-109.653 396.316,-108.696 410.194,-107.774"/>
<polygon fill="midnightblue" stroke="midnightblue" points="410.447,-111.265 420.192,-107.109 409.982,-104.28 410.447,-111.265"/>
</g>
<!-- Node467&#45;&gt;Node481 -->
<g id="edge19" class="edge"><title>Node467&#45;&gt;Node481</title>
<path fill="none" stroke="midnightblue" d="M335.596,-100.482C356.097,-93.2467 381.246,-84.6171 404,-77.5 410.525,-75.4591 417.355,-73.4052 424.188,-71.4039"/>
<polygon fill="midnightblue" stroke="midnightblue" points="425.534,-74.6583 434.167,-68.5172 423.588,-67.934 425.534,-74.6583"/>
</g>
<!-- Node469 -->
<g id="node5" class="node"><title>Node469</title>
<g id="a_node5"><a xlink:href="classokw_1_1log_1_1_logger___sngltn.html#ab4fc711bb4c754f251372ff3b14ab9c9" target="_top" xlink:title="Creates a new hierarchical level in the results file.">
<polygon fill="white" stroke="black" points="635.5,-263.5 635.5,-293.5 778.5,-293.5 778.5,-263.5 635.5,-263.5"/>
<text text-anchor="start" x="643.5" y="-281.5" font-family="Helvetica,sans-Serif" font-size="10.00">okw.log.Logger_Sngltn.Res</text>
<text text-anchor="middle" x="707" y="-270.5" font-family="Helvetica,sans-Serif" font-size="10.00">OpenList</text>
</a>
</g>
</g>
<!-- Node468&#45;&gt;Node469 -->
<g id="edge5" class="edge"><title>Node468&#45;&gt;Node469</title>
<path fill="none" stroke="midnightblue" d="M563.877,-166.67C568.574,-169.178 573.011,-172.099 577,-175.5 606.054,-200.272 583.81,-228.889 613,-253.5 616.972,-256.849 621.351,-259.754 625.978,-262.272"/>
<polygon fill="midnightblue" stroke="midnightblue" points="624.611,-265.498 635.143,-266.655 627.631,-259.183 624.611,-265.498"/>
</g>
<!-- Node470 -->
<g id="node6" class="node"><title>Node470</title>
<g id="a_node6"><a xlink:href="classokw_1_1log_1_1_logger___sngltn.html#a8ebceaddd6cc6963ddb8e08c72ea808c" target="_top" xlink:title="LogPrint Function: Prints the values of expressions to the results file.">
<polygon fill="white" stroke="black" points="859.5,-134.5 859.5,-164.5 1002.5,-164.5 1002.5,-134.5 859.5,-134.5"/>
<text text-anchor="start" x="867.5" y="-152.5" font-family="Helvetica,sans-Serif" font-size="10.00">okw.log.Logger_Sngltn.Log</text>
<text text-anchor="middle" x="931" y="-141.5" font-family="Helvetica,sans-Serif" font-size="10.00">Print</text>
</a>
</g>
</g>
<!-- Node468&#45;&gt;Node470 -->
<g id="edge6" class="edge"><title>Node468&#45;&gt;Node470</title>
<path fill="none" stroke="midnightblue" d="M569.138,-151.146C647.928,-150.787 769.365,-150.233 849.255,-149.868"/>
<polygon fill="midnightblue" stroke="midnightblue" points="849.287,-153.368 859.271,-149.823 849.255,-146.368 849.287,-153.368"/>
</g>
<!-- Node471 -->
<g id="node7" class="node"><title>Node471</title>
<g id="a_node7"><a xlink:href="classokw_1_1gui_1_1_any_win_base.html#a9929f6fae1f4e2c20df79d32d5bc79db" target="_top" xlink:title="Holt den vollständig (rekursiv) aufgelösten (z.B.">
<polygon fill="white" stroke="black" points="623.5,-99 623.5,-118 790.5,-118 790.5,-99 623.5,-99"/>
<text text-anchor="middle" x="707" y="-106" font-family="Helvetica,sans-Serif" font-size="10.00">okw.gui.AnyWinBase.getLocator</text>
</a>
</g>
</g>
<!-- Node468&#45;&gt;Node471 -->
<g id="edge7" class="edge"><title>Node468&#45;&gt;Node471</title>
<path fill="none" stroke="midnightblue" d="M566.522,-136.461C593.386,-131.075 623.224,-125.094 648.386,-120.05"/>
<polygon fill="midnightblue" stroke="midnightblue" points="649.383,-123.42 658.499,-118.022 648.007,-116.556 649.383,-123.42"/>
</g>
<!-- Node473 -->
<g id="node9" class="node"><title>Node473</title>
<g id="a_node9"><a xlink:href="classokw_1_1log_1_1_logger___sngltn.html#a9b54104f7e0b4c0a473877b19dfaed56" target="_top" xlink:title="Closes a hierarchical level in the results file that was opened with ResOpenList.">
<polygon fill="white" stroke="black" points="635.5,-175.5 635.5,-205.5 778.5,-205.5 778.5,-175.5 635.5,-175.5"/>
<text text-anchor="start" x="643.5" y="-193.5" font-family="Helvetica,sans-Serif" font-size="10.00">okw.log.Logger_Sngltn.Res</text>
<text text-anchor="middle" x="707" y="-182.5" font-family="Helvetica,sans-Serif" font-size="10.00">CloseList</text>
</a>
</g>
</g>
<!-- Node468&#45;&gt;Node473 -->
<g id="edge9" class="edge"><title>Node468&#45;&gt;Node473</title>
<path fill="none" stroke="midnightblue" d="M569.243,-165.635C587.452,-168.946 606.891,-172.48 625.229,-175.814"/>
<polygon fill="midnightblue" stroke="midnightblue" points="624.824,-179.298 635.289,-177.643 626.076,-172.411 624.824,-179.298"/>
</g>
<!-- Node474 -->
<g id="node10" class="node"><title>Node474</title>
<g id="a_node10"><a xlink:href="classokw_1_1_log_messenger.html#af225d1f037d47b3b085175c09d78bdd2" target="_top" xlink:title="Holt die Log&#45;Meldung für MethodeNmae/Textkey ohne weitere Parameter.">
<polygon fill="white" stroke="black" points="622.5,-225 622.5,-244 791.5,-244 791.5,-225 622.5,-225"/>
<text text-anchor="middle" x="707" y="-232" font-family="Helvetica,sans-Serif" font-size="10.00">okw.LogMessenger.GetMessage</text>
</a>
</g>
</g>
<!-- Node468&#45;&gt;Node474 -->
<g id="edge10" class="edge"><title>Node468&#45;&gt;Node474</title>
<path fill="none" stroke="midnightblue" d="M558.832,-166.505C565.18,-169.061 571.347,-172.038 577,-175.5 597.116,-187.82 592.513,-202.808 613,-214.5 617.751,-217.212 622.83,-219.556 628.072,-221.584"/>
<polygon fill="midnightblue" stroke="midnightblue" points="627.054,-224.935 637.648,-224.901 629.345,-218.321 627.054,-224.935"/>
</g>
<!-- Node472 -->
<g id="node8" class="node"><title>Node472</title>
<g id="a_node8"><a xlink:href="classokw_1_1gui_1_1_o_k_w_locator.html#adc74fc2125dd048dc1cb84e011f47ec8" target="_top" xlink:title="Holt den vollständig (rekursiv) aufgelösten (z.B.">
<polygon fill="white" stroke="black" points="848,-96 848,-115 1014,-115 1014,-96 848,-96"/>
<text text-anchor="middle" x="931" y="-103" font-family="Helvetica,sans-Serif" font-size="10.00">okw.gui.OKWLocator.getLocator</text>
</a>
</g>
</g>
<!-- Node471&#45;&gt;Node472 -->
<g id="edge8" class="edge"><title>Node471&#45;&gt;Node472</title>
<path fill="none" stroke="midnightblue" d="M790.665,-107.383C805.935,-107.177 821.971,-106.96 837.51,-106.75"/>
<polygon fill="midnightblue" stroke="midnightblue" points="837.684,-110.248 847.636,-106.613 837.59,-103.249 837.684,-110.248"/>
</g>
<!-- Node475 -->
<g id="node11" class="node"><title>Node475</title>
<g id="a_node11"><a xlink:href="classokw_1_1_log_messenger.html#a530cd6ab82ec82a04206a2e976ec06e3" target="_top" xlink:title="Interne Kernfunktion holt die Log&#45;Meldung mit Platzhaltern aus der XML&#45;Datei.">
<polygon fill="white" stroke="black" points="843.5,-225 843.5,-244 1018.5,-244 1018.5,-225 843.5,-225"/>
<text text-anchor="middle" x="931" y="-232" font-family="Helvetica,sans-Serif" font-size="10.00">okw.LogMessenger.ReadMessage</text>
</a>
</g>
</g>
<!-- Node474&#45;&gt;Node475 -->
<g id="edge11" class="edge"><title>Node474&#45;&gt;Node475</title>
<path fill="none" stroke="midnightblue" d="M791.612,-234.5C805.162,-234.5 819.293,-234.5 833.126,-234.5"/>
<polygon fill="midnightblue" stroke="midnightblue" points="833.134,-238 843.134,-234.5 833.134,-231 833.134,-238"/>
</g>
<!-- Node476 -->
<g id="node12" class="node"><title>Node476</title>
<g id="a_node12"><a xlink:href="classokw_1_1_o_k_w___xml_reader.html#ab920b5335a2e1429c14cc5f8e79f39eb" target="_top" xlink:title="Lies den TextContent eines Tag.">
<polygon fill="white" stroke="black" points="1061,-219.5 1061,-249.5 1213,-249.5 1213,-219.5 1061,-219.5"/>
<text text-anchor="start" x="1069" y="-237.5" font-family="Helvetica,sans-Serif" font-size="10.00">okw.OKW_XmlReader.getText</text>
<text text-anchor="middle" x="1137" y="-226.5" font-family="Helvetica,sans-Serif" font-size="10.00">ContentSingleValue</text>
</a>
</g>
</g>
<!-- Node475&#45;&gt;Node476 -->
<g id="edge12" class="edge"><title>Node475&#45;&gt;Node476</title>
<path fill="none" stroke="midnightblue" d="M1018.51,-234.5C1029.21,-234.5 1040.14,-234.5 1050.82,-234.5"/>
<polygon fill="midnightblue" stroke="midnightblue" points="1050.97,-238 1060.97,-234.5 1050.97,-231 1050.97,-238"/>
</g>
<!-- Node477&#45;&gt;Node471 -->
<g id="edge18" class="edge"><title>Node477&#45;&gt;Node471</title>
<path fill="none" stroke="midnightblue" d="M560.55,-104.431C577.237,-104.898 595.344,-105.405 612.933,-105.897"/>
<polygon fill="midnightblue" stroke="midnightblue" points="613.121,-109.403 623.215,-106.184 613.317,-102.406 613.121,-109.403"/>
</g>
<!-- Node478 -->
<g id="node14" class="node"><title>Node478</title>
<g id="a_node14"><a xlink:href="classokw_1_1gui_1_1adapter_1_1selenium_1_1webdriver_1_1_se_driver.html#aee9e3f8a67f4ad1f8100a33ba71c926e" target="_top" xlink:title="Gibt die Instance für die einzige Instanz dieser Klasse zurück.">
<polygon fill="white" stroke="black" points="613,-0.5 613,-30.5 801,-30.5 801,-0.5 613,-0.5"/>
<text text-anchor="start" x="621" y="-18.5" font-family="Helvetica,sans-Serif" font-size="10.00">okw.gui.adapter.selenium.webdriver.</text>
<text text-anchor="middle" x="707" y="-7.5" font-family="Helvetica,sans-Serif" font-size="10.00">SeDriver.getInstance</text>
</a>
</g>
</g>
<!-- Node477&#45;&gt;Node478 -->
<g id="edge14" class="edge"><title>Node477&#45;&gt;Node478</title>
<path fill="none" stroke="midnightblue" d="M556.564,-87.472C563.7,-84.668 570.665,-81.3702 577,-77.5 596.852,-65.3709 592.957,-51.3108 613,-39.5 616.037,-37.7104 619.207,-36.0526 622.466,-34.5172"/>
<polygon fill="midnightblue" stroke="midnightblue" points="624.035,-37.6533 631.856,-30.5061 621.285,-31.2161 624.035,-37.6533"/>
</g>
<!-- Node479 -->
<g id="node15" class="node"><title>Node479</title>
<g id="a_node15"><a xlink:href="classokw_1_1gui_1_1adapter_1_1selenium_1_1webdriver_1_1_se_driver.html#a6d879107786a94ebbdbd42b4ac6c6acf" target="_top" xlink:title="Ermittelt das Webelement mit der gegebenen frameID und dem gegebenen Locator.">
<polygon fill="white" stroke="black" points="613,-49.5 613,-79.5 801,-79.5 801,-49.5 613,-49.5"/>
<text text-anchor="start" x="621" y="-67.5" font-family="Helvetica,sans-Serif" font-size="10.00">okw.gui.adapter.selenium.webdriver.</text>
<text text-anchor="middle" x="707" y="-56.5" font-family="Helvetica,sans-Serif" font-size="10.00">SeDriver.getElement</text>
</a>
</g>
</g>
<!-- Node477&#45;&gt;Node479 -->
<g id="edge15" class="edge"><title>Node477&#45;&gt;Node479</title>
<path fill="none" stroke="midnightblue" d="M560.55,-90.2674C576.726,-87.4018 594.235,-84.2999 611.313,-81.2743"/>
<polygon fill="midnightblue" stroke="midnightblue" points="612.07,-84.6949 621.306,-79.5041 610.848,-77.8023 612.07,-84.6949"/>
</g>
<!-- Node479&#45;&gt;Node470 -->
<g id="edge17" class="edge"><title>Node479&#45;&gt;Node470</title>
<path fill="none" stroke="midnightblue" d="M779.088,-79.5157C786.711,-82.3159 794.169,-85.6163 801,-89.5 820.399,-100.529 817.601,-113.471 837,-124.5 841.142,-126.855 845.515,-128.996 850.015,-130.94"/>
<polygon fill="midnightblue" stroke="midnightblue" points="848.813,-134.229 859.399,-134.662 851.394,-127.722 848.813,-134.229"/>
</g>
<!-- Node480 -->
<g id="node16" class="node"><title>Node480</title>
<g id="a_node16"><a xlink:href="classokw_1_1gui_1_1adapter_1_1selenium_1_1webdriver_1_1_se_driver.html#a47eec72c911c05beb2127672daafb325" target="_top" xlink:title="Wechselt das aktuelle Frame auf das Frame mit der id=iframeID.">
<polygon fill="white" stroke="black" points="837,-46.5 837,-76.5 1025,-76.5 1025,-46.5 837,-46.5"/>
<text text-anchor="start" x="845" y="-64.5" font-family="Helvetica,sans-Serif" font-size="10.00">okw.gui.adapter.selenium.webdriver.</text>
<text text-anchor="middle" x="931" y="-53.5" font-family="Helvetica,sans-Serif" font-size="10.00">SeDriver.swichToFrame</text>
</a>
</g>
</g>
<!-- Node479&#45;&gt;Node480 -->
<g id="edge16" class="edge"><title>Node479&#45;&gt;Node480</title>
<path fill="none" stroke="midnightblue" d="M801.183,-63.2408C809.535,-63.1279 818.024,-63.0132 826.456,-62.8992"/>
<polygon fill="midnightblue" stroke="midnightblue" points="826.748,-66.3957 836.7,-62.7608 826.653,-59.3964 826.748,-66.3957"/>
</g>
</g>
</svg>
        <g id="navigator" transform="translate(0 0)" fill="#404254">
                <rect fill="#f2f5e9" fill-opacity="0.5" stroke="#606060" stroke-width=".5" x="0" y="0" width="60" height="60"/>
                <use id="zoomplus" xlink:href="#zoomPlus" x="17" y="9" onmousedown="handleZoom(evt,'in')"/>
                <use id="zoomminus" xlink:href="#zoomMin" x="42" y="9" onmousedown="handleZoom(evt,'out')"/>
                <use id="reset" xlink:href="#resetDef" x="30" y="36" onmousedown="handleReset()"/>
                <g id="arrowUp" xlink:href="#dirArrow" transform="translate(30 24)" onmousedown="handlePan(0,-1)">
                  <use xlink:href="#rim" fill="#404040">
                        <set attributeName="fill" to="#808080" begin="arrowUp.mouseover" end="arrowUp.mouseout"/>
                  </use>
                  <path fill="none" stroke="white" stroke-width="1.5" d="M0,-3.0v7 M-2.5,-0.5L0,-3.0L2.5,-0.5"/>
                </g>
                <g id="arrowRight" xlink:href="#dirArrow" transform="rotate(90) translate(36 -43)" onmousedown="handlePan(1,0)">
                  <use xlink:href="#rim" fill="#404040">
                        <set attributeName="fill" to="#808080" begin="arrowRight.mouseover" end="arrowRight.mouseout"/>
                  </use>
                  <path fill="none" stroke="white" stroke-width="1.5" d="M0,-3.0v7 M-2.5,-0.5L0,-3.0L2.5,-0.5"/>
                </g>
                <g id="arrowDown" xlink:href="#dirArrow" transform="rotate(180) translate(-30 -48)" onmousedown="handlePan(0,1)">
                  <use xlink:href="#rim" fill="#404040">
                        <set attributeName="fill" to="#808080" begin="arrowDown.mouseover" end="arrowDown.mouseout"/>
                  </use>
                  <path fill="none" stroke="white" stroke-width="1.5" d="M0,-3.0v7 M-2.5,-0.5L0,-3.0L2.5,-0.5"/>
                </g>
                <g id="arrowLeft" xlink:href="#dirArrow" transform="rotate(270) translate(-36 17)" onmousedown="handlePan(-1,0)">
                  <use xlink:href="#rim" fill="#404040">
                        <set attributeName="fill" to="#808080" begin="arrowLeft.mouseover" end="arrowLeft.mouseout"/>
                  </use>
                  <path fill="none" stroke="white" stroke-width="1.5" d="M0,-3.0v7 M-2.5,-0.5L0,-3.0L2.5,-0.5"/>
                </g>
        </g>
        <svg viewBox="0 0 15 15" width="100%" height="30px" preserveAspectRatio="xMaxYMin meet">
         <g id="arrow_out" transform="scale(0.3 0.3)">
          <a xlink:href="classokw_1_1gui_1_1adapter_1_1selenium_1_1_se_any_child_window_a34e6e2cd7b15f0e05c4272941d3248cf_cgraph_org.svg" target="_base">
           <rect id="button" ry="5" rx="5" y="6" x="6" height="38" width="38"
                fill="#f2f5e9" fill-opacity="0.5" stroke="#606060" stroke-width="1.0"/>
           <path id="arrow"
             d="M 11.500037,31.436501 C 11.940474,20.09759 22.043105,11.32322 32.158766,21.979434 L 37.068811,17.246167 C 37.068811,17.246167 37.088388,32 37.088388,32 L 22.160133,31.978069 C 22.160133,31.978069 26.997745,27.140456 26.997745,27.140456 C 18.528582,18.264221 13.291696,25.230495 11.500037,31.436501 z"
             style="fill:#404040;"/>
          </a>
         </g>
        </svg>
</svg>
