<?xml version="1.0" encoding="UTF-8" standalone="no"?>
<!DOCTYPE svg PUBLIC "-//W3C//DTD SVG 1.1//EN"
 "http://www.w3.org/Graphics/SVG/1.1/DTD/svg11.dtd">
<!-- Generated by graphviz version 2.38.0 (20140413.2041)
 -->
<!-- Title: okw.OKW_FileHelper.deleteFiles Pages: 1 -->
<svg width="342pt" height="39pt"
 viewBox="0.00 0.00 342.00 39.00" xmlns="http://www.w3.org/2000/svg" xmlns:xlink="http://www.w3.org/1999/xlink">
<g id="graph0" class="graph" transform="scale(1 1) rotate(0) translate(4 35)">
<title>okw.OKW_FileHelper.deleteFiles</title>
<polygon fill="white" stroke="none" points="-4,4 -4,-35 338,-35 338,4 -4,4"/>
<!-- Node24 -->
<g id="node1" class="node"><title>Node24</title>
<g id="a_node1"><a xlink:title="Löscht alle Dateien im gegebenen Verzeichniss Rekursive.">
<polygon fill="#bfbfbf" stroke="black" points="0,-0.5 0,-30.5 143,-30.5 143,-0.5 0,-0.5"/>
<text text-anchor="start" x="8" y="-18.5" font-family="Helvetica,sans-Serif" font-size="10.00">okw.OKW_FileHelper.delete</text>
<text text-anchor="middle" x="71.5" y="-7.5" font-family="Helvetica,sans-Serif" font-size="10.00">Files</text>
</a>
</g>
</g>
<!-- Node25 -->
<g id="node2" class="node"><title>Node25</title>
<g id="a_node2"><a xlink:href="classokw_1_1_o_k_w___file_helper.html#a4feaa905b7b878f286058a06a81f3ce2" target="_top" xlink:title="Prüft, ob die gegebene fpsPaFiNa Datei existiert.">
<polygon fill="white" stroke="black" points="179,-0.5 179,-30.5 334,-30.5 334,-0.5 179,-0.5"/>
<text text-anchor="start" x="187" y="-18.5" font-family="Helvetica,sans-Serif" font-size="10.00">okw.OKW_FileHelper.directory</text>
<text text-anchor="middle" x="256.5" y="-7.5" font-family="Helvetica,sans-Serif" font-size="10.00">Exists</text>
</a>
</g>
</g>
<!-- Node24&#45;&gt;Node25 -->
<g id="edge1" class="edge"><title>Node24&#45;&gt;Node25</title>
<path fill="none" stroke="midnightblue" d="M143.253,-15.5C151.638,-15.5 160.269,-15.5 168.844,-15.5"/>
<polygon fill="midnightblue" stroke="midnightblue" points="168.865,-19.0001 178.865,-15.5 168.865,-12.0001 168.865,-19.0001"/>
</g>
</g>
</svg>
