<?xml version="1.0" encoding="UTF-8" standalone="no"?>
<!DOCTYPE svg PUBLIC "-//W3C//DTD SVG 1.1//EN"
 "http://www.w3.org/Graphics/SVG/1.1/DTD/svg11.dtd">
<!-- Generated by graphviz version 2.36.0 (20140111.2315)
 -->
<!-- Title: Grafische Darstellung der Klassenhierarchie Pages: 1 -->
<svg width="310pt" height="185pt"
 viewBox="0.00 0.00 310.00 185.00" xmlns="http://www.w3.org/2000/svg" xmlns:xlink="http://www.w3.org/1999/xlink">
<g id="graph0" class="graph" transform="scale(1 1) rotate(0) translate(4 181)">
<title>Grafische Darstellung der Klassenhierarchie</title>
<polygon fill="white" stroke="none" points="-4,4 -4,-181 306,-181 306,4 -4,4"/>
<!-- Node0 -->
<g id="node1" class="node"><title>Node0</title>
<g id="a_node1"><a xlink:href="classokw_1_1calculator_1_1_calculator___e_n___test.html" target="_top" xlink:title="okw.calculator.Calculator\l_EN_Test">
<polygon fill="white" stroke="black" points="0.5,-73 0.5,-103 127.5,-103 127.5,-73 0.5,-73"/>
<text text-anchor="start" x="8.5" y="-91" font-family="Helvetica,sans-Serif" font-size="10.00">okw.calculator.Calculator</text>
<text text-anchor="middle" x="64" y="-80" font-family="Helvetica,sans-Serif" font-size="10.00">_EN_Test</text>
</a>
</g>
</g>
<!-- Node1 -->
<g id="node2" class="node"><title>Node1</title>
<g id="a_node2"><a xlink:href="classokw_1_1calculator_1_1_calculator___e_n___chrom___test.html" target="_top" xlink:title="okw.calculator.Calculator\l_EN_Chrom_Test">
<polygon fill="white" stroke="black" points="169.5,-147 169.5,-177 296.5,-177 296.5,-147 169.5,-147"/>
<text text-anchor="start" x="177.5" y="-165" font-family="Helvetica,sans-Serif" font-size="10.00">okw.calculator.Calculator</text>
<text text-anchor="middle" x="233" y="-154" font-family="Helvetica,sans-Serif" font-size="10.00">_EN_Chrom_Test</text>
</a>
</g>
</g>
<!-- Node0&#45;&gt;Node1 -->
<g id="edge1" class="edge"><title>Node0&#45;&gt;Node1</title>
<path fill="none" stroke="midnightblue" d="M102.54,-107.766C120.859,-117.106 143.351,-128.124 164,-137 171.974,-140.427 180.589,-143.823 188.921,-146.956"/>
<polygon fill="midnightblue" stroke="midnightblue" points="104.135,-104.651 93.6408,-103.195 100.936,-110.877 104.135,-104.651"/>
</g>
<!-- Node2 -->
<g id="node3" class="node"><title>Node2</title>
<g id="a_node3"><a xlink:href="classokw_1_1calculator_1_1_calculator___e_n___firefox___test.html" target="_top" xlink:title="okw.calculator.Calculator\l_EN_Firefox_Test">
<polygon fill="white" stroke="black" points="169.5,-98 169.5,-128 296.5,-128 296.5,-98 169.5,-98"/>
<text text-anchor="start" x="177.5" y="-116" font-family="Helvetica,sans-Serif" font-size="10.00">okw.calculator.Calculator</text>
<text text-anchor="middle" x="233" y="-105" font-family="Helvetica,sans-Serif" font-size="10.00">_EN_Firefox_Test</text>
</a>
</g>
</g>
<!-- Node0&#45;&gt;Node2 -->
<g id="edge2" class="edge"><title>Node0&#45;&gt;Node2</title>
<path fill="none" stroke="midnightblue" d="M137.661,-98.8774C148.191,-100.454 158.955,-102.065 169.267,-103.609"/>
<polygon fill="midnightblue" stroke="midnightblue" points="138.068,-95.3994 127.66,-97.3802 137.031,-102.322 138.068,-95.3994"/>
</g>
<!-- Node3 -->
<g id="node4" class="node"><title>Node3</title>
<g id="a_node4"><a xlink:href="classokw_1_1calculator_1_1_calculator___e_n___h_t_m_l_unit_driver___test.html" target="_top" xlink:title="okw.calculator.Calculator\l_EN_HTMLUnitDriver_Test">
<polygon fill="white" stroke="black" points="164.5,-49 164.5,-79 301.5,-79 301.5,-49 164.5,-49"/>
<text text-anchor="start" x="172.5" y="-67" font-family="Helvetica,sans-Serif" font-size="10.00">okw.calculator.Calculator</text>
<text text-anchor="middle" x="233" y="-56" font-family="Helvetica,sans-Serif" font-size="10.00">_EN_HTMLUnitDriver_Test</text>
</a>
</g>
</g>
<!-- Node0&#45;&gt;Node3 -->
<g id="edge3" class="edge"><title>Node0&#45;&gt;Node3</title>
<path fill="none" stroke="midnightblue" d="M137.568,-77.571C146.426,-76.298 155.451,-75.001 164.236,-73.7386"/>
<polygon fill="midnightblue" stroke="midnightblue" points="137.06,-74.108 127.66,-78.995 138.056,-81.0368 137.06,-74.108"/>
</g>
<!-- Node4 -->
<g id="node5" class="node"><title>Node4</title>
<g id="a_node5"><a xlink:href="classokw_1_1calculator_1_1_calculator___e_n___safari___test.html" target="_top" xlink:title="okw.calculator.Calculator\l_EN_Safari_Test">
<polygon fill="white" stroke="black" points="169.5,-0 169.5,-30 296.5,-30 296.5,-0 169.5,-0"/>
<text text-anchor="start" x="177.5" y="-18" font-family="Helvetica,sans-Serif" font-size="10.00">okw.calculator.Calculator</text>
<text text-anchor="middle" x="233" y="-7" font-family="Helvetica,sans-Serif" font-size="10.00">_EN_Safari_Test</text>
</a>
</g>
</g>
<!-- Node0&#45;&gt;Node4 -->
<g id="edge4" class="edge"><title>Node0&#45;&gt;Node4</title>
<path fill="none" stroke="midnightblue" d="M103.233,-68.3669C121.441,-59.3004 143.641,-48.6528 164,-40 171.987,-36.6052 180.609,-33.2243 188.943,-30.0963"/>
<polygon fill="midnightblue" stroke="midnightblue" points="101.475,-65.3329 94.1058,-72.9451 104.614,-71.5899 101.475,-65.3329"/>
</g>
</g>
</svg>
