<?xml version="1.0" encoding="UTF-8" standalone="no"?>
<!DOCTYPE svg PUBLIC "-//W3C//DTD SVG 1.1//EN"
 "http://www.w3.org/Graphics/SVG/1.1/DTD/svg11.dtd">
<!-- Generated by graphviz version 2.38.0 (20140413.2041)
 -->
<!-- Title: Grafische Darstellung der Klassenhierarchie Pages: 1 -->
<svg width="360pt" height="137pt"
 viewBox="0.00 0.00 360.00 137.00" xmlns="http://www.w3.org/2000/svg" xmlns:xlink="http://www.w3.org/1999/xlink">
<g id="graph0" class="graph" transform="scale(1 1) rotate(0) translate(4 133)">
<title>Grafische Darstellung der Klassenhierarchie</title>
<polygon fill="white" stroke="none" points="-4,4 -4,-133 356,-133 356,4 -4,4"/>
<!-- Node0 -->
<g id="node1" class="node"><title>Node0</title>
<g id="a_node1"><a xlink:href="classokw_1_1_se_input_button_1_1_se_input_button___e_n___test.html" target="_top" xlink:title="Basisklasse für Test des GUI&#45;Adapters SeInputButton.">
<polygon fill="white" stroke="black" points="0,-49.5 0,-79.5 146,-79.5 146,-49.5 0,-49.5"/>
<text text-anchor="start" x="8" y="-67.5" font-family="Helvetica,sans-Serif" font-size="10.00">okw.SeInputButton.SeInput</text>
<text text-anchor="middle" x="73" y="-56.5" font-family="Helvetica,sans-Serif" font-size="10.00">Button_EN_Test</text>
</a>
</g>
</g>
<!-- Node1 -->
<g id="node2" class="node"><title>Node1</title>
<g id="a_node2"><a xlink:href="classokw_1_1_se_input_button_1_1_se_input_button___e_n___chrome___test.html" target="_top" xlink:title=" ">
<polygon fill="white" stroke="black" points="194,-98.5 194,-128.5 340,-128.5 340,-98.5 194,-98.5"/>
<text text-anchor="start" x="202" y="-116.5" font-family="Helvetica,sans-Serif" font-size="10.00">okw.SeInputButton.SeInput</text>
<text text-anchor="middle" x="267" y="-105.5" font-family="Helvetica,sans-Serif" font-size="10.00">Button_EN_Chrome_Test</text>
</a>
</g>
</g>
<!-- Node0&#45;&gt;Node1 -->
<g id="edge1" class="edge"><title>Node0&#45;&gt;Node1</title>
<path fill="none" stroke="midnightblue" d="M142.767,-82.0498C163.851,-87.4306 186.845,-93.299 207.2,-98.4938"/>
<polygon fill="midnightblue" stroke="midnightblue" points="143.466,-78.6162 132.911,-79.5346 141.735,-85.3988 143.466,-78.6162"/>
</g>
<!-- Node2 -->
<g id="node3" class="node"><title>Node2</title>
<g id="a_node3"><a xlink:href="classokw_1_1_se_input_button_1_1_se_input_button___e_n___firefox___test.html" target="_top" xlink:title=" ">
<polygon fill="white" stroke="black" points="194,-49.5 194,-79.5 340,-79.5 340,-49.5 194,-49.5"/>
<text text-anchor="start" x="202" y="-67.5" font-family="Helvetica,sans-Serif" font-size="10.00">okw.SeInputButton.SeInput</text>
<text text-anchor="middle" x="267" y="-56.5" font-family="Helvetica,sans-Serif" font-size="10.00">Button_EN_Firefox_Test</text>
</a>
</g>
</g>
<!-- Node0&#45;&gt;Node2 -->
<g id="edge2" class="edge"><title>Node0&#45;&gt;Node2</title>
<path fill="none" stroke="midnightblue" d="M156.042,-64.5C168.623,-64.5 181.531,-64.5 193.876,-64.5"/>
<polygon fill="midnightblue" stroke="midnightblue" points="156.04,-61.0001 146.04,-64.5 156.04,-68.0001 156.04,-61.0001"/>
</g>
<!-- Node3 -->
<g id="node4" class="node"><title>Node3</title>
<g id="a_node4"><a xlink:href="classokw_1_1_se_input_button_1_1_se_input_button___e_n___h_t_m_l_unit_driver___test.html" target="_top" xlink:title=" ">
<polygon fill="white" stroke="black" points="182,-0.5 182,-30.5 352,-30.5 352,-0.5 182,-0.5"/>
<text text-anchor="start" x="190" y="-18.5" font-family="Helvetica,sans-Serif" font-size="10.00">okw.SeInputButton.SeInput</text>
<text text-anchor="middle" x="267" y="-7.5" font-family="Helvetica,sans-Serif" font-size="10.00">Button_EN_HTMLUnitDriver_Test</text>
</a>
</g>
</g>
<!-- Node0&#45;&gt;Node3 -->
<g id="edge3" class="edge"><title>Node0&#45;&gt;Node3</title>
<path fill="none" stroke="midnightblue" d="M142.767,-46.9502C163.851,-41.5694 186.845,-35.701 207.2,-30.5062"/>
<polygon fill="midnightblue" stroke="midnightblue" points="141.735,-43.6012 132.911,-49.4654 143.466,-50.3838 141.735,-43.6012"/>
</g>
</g>
</svg>
