<?xml version="1.0" encoding="UTF-8" standalone="no"?>
<!DOCTYPE svg PUBLIC "-//W3C//DTD SVG 1.1//EN"
 "http://www.w3.org/Graphics/SVG/1.1/DTD/svg11.dtd">
<!-- Generated by graphviz version 2.36.0 (20140111.2315)
 -->
<!-- Title: Grafische Darstellung der Klassenhierarchie Pages: 1 -->
<svg width="328pt" height="136pt"
 viewBox="0.00 0.00 328.00 136.00" xmlns="http://www.w3.org/2000/svg" xmlns:xlink="http://www.w3.org/1999/xlink">
<g id="graph0" class="graph" transform="scale(1 1) rotate(0) translate(4 132)">
<title>Grafische Darstellung der Klassenhierarchie</title>
<polygon fill="white" stroke="none" points="-4,4 -4,-132 324,-132 324,4 -4,4"/>
<!-- Node0 -->
<g id="node1" class="node"><title>Node0</title>
<g id="a_node1"><a xlink:href="classokw_1_1_se_textarea_1_1_se_textarea___e_n___test.html" target="_top" xlink:title="okw.SeTextarea.SeTextarea\l_EN_Test">
<polygon fill="white" stroke="black" points="0.5,-49 0.5,-79 141.5,-79 141.5,-49 0.5,-49"/>
<text text-anchor="start" x="8.5" y="-67" font-family="Helvetica,sans-Serif" font-size="10.00">okw.SeTextarea.SeTextarea</text>
<text text-anchor="middle" x="71" y="-56" font-family="Helvetica,sans-Serif" font-size="10.00">_EN_Test</text>
</a>
</g>
</g>
<!-- Node1 -->
<g id="node2" class="node"><title>Node1</title>
<g id="a_node2"><a xlink:href="classokw_1_1_se_textarea_1_1_se_textarea___e_n___chrome___test.html" target="_top" xlink:title="okw.SeTextarea.SeTextarea\l_EN_Chrome_Test">
<polygon fill="white" stroke="black" points="178.5,-98 178.5,-128 319.5,-128 319.5,-98 178.5,-98"/>
<text text-anchor="start" x="186.5" y="-116" font-family="Helvetica,sans-Serif" font-size="10.00">okw.SeTextarea.SeTextarea</text>
<text text-anchor="middle" x="249" y="-105" font-family="Helvetica,sans-Serif" font-size="10.00">_EN_Chrome_Test</text>
</a>
</g>
</g>
<!-- Node0&#45;&gt;Node1 -->
<g id="edge1" class="edge"><title>Node0&#45;&gt;Node1</title>
<path fill="none" stroke="midnightblue" d="M136.011,-81.8212C155.014,-87.1118 175.632,-92.8522 193.937,-97.9484"/>
<polygon fill="midnightblue" stroke="midnightblue" points="136.814,-78.4118 126.242,-79.1014 134.937,-85.1554 136.814,-78.4118"/>
</g>
<!-- Node2 -->
<g id="node3" class="node"><title>Node2</title>
<g id="a_node3"><a xlink:href="classokw_1_1_se_textarea_1_1_se_textarea___e_n___firefox___test.html" target="_top" xlink:title="okw.SeTextarea.SeTextarea\l_EN_Firefox_Test">
<polygon fill="white" stroke="black" points="178.5,-49 178.5,-79 319.5,-79 319.5,-49 178.5,-49"/>
<text text-anchor="start" x="186.5" y="-67" font-family="Helvetica,sans-Serif" font-size="10.00">okw.SeTextarea.SeTextarea</text>
<text text-anchor="middle" x="249" y="-56" font-family="Helvetica,sans-Serif" font-size="10.00">_EN_Firefox_Test</text>
</a>
</g>
</g>
<!-- Node0&#45;&gt;Node2 -->
<g id="edge2" class="edge"><title>Node0&#45;&gt;Node2</title>
<path fill="none" stroke="midnightblue" d="M151.581,-64C160.518,-64 169.571,-64 178.369,-64"/>
<polygon fill="midnightblue" stroke="midnightblue" points="151.56,-60.5001 141.56,-64 151.56,-67.5001 151.56,-60.5001"/>
</g>
<!-- Node3 -->
<g id="node4" class="node"><title>Node3</title>
<g id="a_node4"><a xlink:href="classokw_1_1_se_textarea_1_1_se_textarea___e_n___h_t_m_l_unit_driver___test.html" target="_top" xlink:title="okw.SeTextarea.SeTextarea\l_EN_HTMLUnitDriver_Test">
<polygon fill="white" stroke="black" points="178.5,-0 178.5,-30 319.5,-30 319.5,-0 178.5,-0"/>
<text text-anchor="start" x="186.5" y="-18" font-family="Helvetica,sans-Serif" font-size="10.00">okw.SeTextarea.SeTextarea</text>
<text text-anchor="middle" x="249" y="-7" font-family="Helvetica,sans-Serif" font-size="10.00">_EN_HTMLUnitDriver_Test</text>
</a>
</g>
</g>
<!-- Node0&#45;&gt;Node3 -->
<g id="edge3" class="edge"><title>Node0&#45;&gt;Node3</title>
<path fill="none" stroke="midnightblue" d="M136.011,-46.1788C155.014,-40.8882 175.632,-35.1478 193.937,-30.0516"/>
<polygon fill="midnightblue" stroke="midnightblue" points="134.937,-42.8446 126.242,-48.8986 136.814,-49.5882 134.937,-42.8446"/>
</g>
</g>
</svg>
