<?xml version="1.0" encoding="UTF-8" standalone="no"?>
<!DOCTYPE svg PUBLIC "-//W3C//DTD SVG 1.1//EN"
 "http://www.w3.org/Graphics/SVG/1.1/DTD/svg11.dtd">
<!-- Generated by graphviz version 2.36.0 (20140111.2315)
 -->
<!-- Title: Grafische Darstellung der Klassenhierarchie Pages: 1 -->
<svg width="422pt" height="77pt"
 viewBox="0.00 0.00 422.00 77.00" xmlns="http://www.w3.org/2000/svg" xmlns:xlink="http://www.w3.org/1999/xlink">
<g id="graph0" class="graph" transform="scale(1 1) rotate(0) translate(4 73)">
<title>Grafische Darstellung der Klassenhierarchie</title>
<polygon fill="white" stroke="none" points="-4,4 -4,-73 418,-73 418,4 -4,4"/>
<!-- Node247 -->
<g id="node1" class="node"><title>Node247</title>
<polygon fill="white" stroke="#bfbfbf" points="126,-49.5 126,-68.5 252,-68.5 252,-49.5 126,-49.5"/>
<text text-anchor="middle" x="189" y="-56.5" font-family="Helvetica,sans-Serif" font-size="10.00">AbstractParseTreeVisitor</text>
</g>
<!-- Node1 -->
<g id="node2" class="node"><title>Node1</title>
<g id="a_node2"><a xlink:href="classokw_1_1parser_1_1antlr4_1_1_o_k_w___parser_base_visitor.html" target="_top" xlink:title="This class provides an empty implementation of OKW_ParserVisitor, which can be extended to create a v...">
<polygon fill="white" stroke="black" points="288.5,-22 288.5,-52 413.5,-52 413.5,-22 288.5,-22"/>
<text text-anchor="start" x="296.5" y="-40" font-family="Helvetica,sans-Serif" font-size="10.00">okw.parser.antlr4.OKW</text>
<text text-anchor="middle" x="351" y="-29" font-family="Helvetica,sans-Serif" font-size="10.00">_ParserBaseVisitor&lt; T &gt;</text>
</a>
</g>
</g>
<!-- Node247&#45;&gt;Node1 -->
<g id="edge1" class="edge"><title>Node247&#45;&gt;Node1</title>
<path fill="none" stroke="midnightblue" d="M262.417,-49.0426C271.088,-47.8503 279.879,-46.6416 288.378,-45.4731"/>
<polygon fill="midnightblue" stroke="midnightblue" points="261.748,-45.6016 252.318,-50.4312 262.702,-52.5363 261.748,-45.6016"/>
</g>
<!-- Node242 -->
<g id="node3" class="node"><title>Node242</title>
<polygon fill="white" stroke="#bfbfbf" points="0.5,-5.5 0.5,-24.5 89.5,-24.5 89.5,-5.5 0.5,-5.5"/>
<text text-anchor="middle" x="45" y="-12.5" font-family="Helvetica,sans-Serif" font-size="10.00">ParseTreeVisitor</text>
</g>
<!-- Node0 -->
<g id="node4" class="node"><title>Node0</title>
<g id="a_node4"><a xlink:href="interfaceokw_1_1parser_1_1antlr4_1_1_o_k_w___parser_visitor.html" target="_top" xlink:title="This interface defines a complete generic visitor for a parse tree produced by OKW_Parser. ">
<polygon fill="white" stroke="black" points="129.5,-0 129.5,-30 248.5,-30 248.5,-0 129.5,-0"/>
<text text-anchor="start" x="137.5" y="-18" font-family="Helvetica,sans-Serif" font-size="10.00">okw.parser.antlr4.OKW</text>
<text text-anchor="middle" x="189" y="-7" font-family="Helvetica,sans-Serif" font-size="10.00">_ParserVisitor&lt; T &gt;</text>
</a>
</g>
</g>
<!-- Node242&#45;&gt;Node0 -->
<g id="edge2" class="edge"><title>Node242&#45;&gt;Node0</title>
<path fill="none" stroke="midnightblue" d="M100.011,-15C109.648,-15 119.729,-15 129.486,-15"/>
<polygon fill="midnightblue" stroke="midnightblue" points="99.7634,-11.5001 89.7634,-15 99.7633,-18.5001 99.7634,-11.5001"/>
</g>
<!-- Node0&#45;&gt;Node1 -->
<g id="edge3" class="edge"><title>Node0&#45;&gt;Node1</title>
<path fill="none" stroke="midnightblue" d="M258.806,-24.4609C268.638,-25.8127 278.699,-27.1962 288.381,-28.5274"/>
<polygon fill="midnightblue" stroke="midnightblue" points="259.053,-20.962 248.67,-23.0671 258.1,-27.8967 259.053,-20.962"/>
</g>
</g>
</svg>
