<?xml version="1.0" encoding="UTF-8" standalone="no"?>
<!DOCTYPE svg PUBLIC "-//W3C//DTD SVG 1.1//EN"
 "http://www.w3.org/Graphics/SVG/1.1/DTD/svg11.dtd">
<!-- Generated by graphviz version 2.26.3 (20100126.1600)
 -->
<!-- Title: Grafische Darstellung der Klassenhierarchie Pages: 1 -->
<svg width="328pt" height="146pt"
 viewBox="0.00 0.00 328.00 146.00" xmlns="http://www.w3.org/2000/svg" xmlns:xlink="http://www.w3.org/1999/xlink">
<g id="graph1" class="graph" transform="scale(1 1) rotate(0) translate(4 142)">
<title>Grafische Darstellung der Klassenhierarchie</title>
<polygon fill="white" stroke="white" points="-4,5 -4,-142 325,-142 325,5 -4,5"/>
<!-- Node0 -->
<g id="node1" class="node"><title>Node0</title>
<a xlink:href="classokw_1_1_se_input_button_1_1_se_input_button___e_n___test.html" target="_top" xlink:title="Basisklasse für Test des GUI&#45;Adapters SeInputButton. ">
<polygon fill="white" stroke="black" points="0.5,-52 0.5,-86 137.5,-86 137.5,-52 0.5,-52"/>
<text text-anchor="start" x="8.5" y="-73" font-family="Helvetica,sans-Serif" font-size="10.00">okw.SeInputButton.SeInput</text>
<text text-anchor="middle" x="69" y="-60" font-family="Helvetica,sans-Serif" font-size="10.00">Button_EN_Test</text>
</a>
</g>
<!-- Node1 -->
<g id="node3" class="node"><title>Node1</title>
<a xlink:href="classokw_1_1_se_input_button_1_1_se_input_button___e_n___chrome___test.html" target="_top" xlink:title="okw.SeInputButton.SeInput\lButton_EN_Chrome_Test">
<polygon fill="white" stroke="black" points="178.5,-104 178.5,-138 315.5,-138 315.5,-104 178.5,-104"/>
<text text-anchor="start" x="186.5" y="-125" font-family="Helvetica,sans-Serif" font-size="10.00">okw.SeInputButton.SeInput</text>
<text text-anchor="middle" x="247" y="-112" font-family="Helvetica,sans-Serif" font-size="10.00">Button_EN_Chrome_Test</text>
</a>
</g>
<!-- Node0&#45;&gt;Node1 -->
<g id="edge2" class="edge"><title>Node0&#45;&gt;Node1</title>
<path fill="none" stroke="midnightblue" d="M137.129,-88.9029C154.095,-93.8593 172.134,-99.129 188.585,-103.935"/>
<polygon fill="midnightblue" stroke="midnightblue" points="137.864,-85.4714 127.284,-86.0267 135.901,-92.1905 137.864,-85.4714"/>
</g>
<!-- Node2 -->
<g id="node5" class="node"><title>Node2</title>
<a xlink:href="classokw_1_1_se_input_button_1_1_se_input_button___e_n___firefox___test.html" target="_top" xlink:title="okw.SeInputButton.SeInput\lButton_EN_Firefox_Test">
<polygon fill="white" stroke="black" points="178.5,-52 178.5,-86 315.5,-86 315.5,-52 178.5,-52"/>
<text text-anchor="start" x="186.5" y="-73" font-family="Helvetica,sans-Serif" font-size="10.00">okw.SeInputButton.SeInput</text>
<text text-anchor="middle" x="247" y="-60" font-family="Helvetica,sans-Serif" font-size="10.00">Button_EN_Firefox_Test</text>
</a>
</g>
<!-- Node0&#45;&gt;Node2 -->
<g id="edge4" class="edge"><title>Node0&#45;&gt;Node2</title>
<path fill="none" stroke="midnightblue" d="M147.73,-69C157.977,-69 168.408,-69 178.47,-69"/>
<polygon fill="midnightblue" stroke="midnightblue" points="147.565,-65.5001 137.565,-69 147.565,-72.5001 147.565,-65.5001"/>
</g>
<!-- Node3 -->
<g id="node7" class="node"><title>Node3</title>
<a xlink:href="classokw_1_1_se_input_button_1_1_se_input_button___h_t_m_l_unit_driver___test.html" target="_top" xlink:title="okw.SeInputButton.SeInput\lButton_HTMLUnitDriver_Test">
<polygon fill="white" stroke="black" points="174,-0 174,-34 320,-34 320,-0 174,-0"/>
<text text-anchor="start" x="182" y="-21" font-family="Helvetica,sans-Serif" font-size="10.00">okw.SeInputButton.SeInput</text>
<text text-anchor="middle" x="247" y="-8" font-family="Helvetica,sans-Serif" font-size="10.00">Button_HTMLUnitDriver_Test</text>
</a>
</g>
<!-- Node0&#45;&gt;Node3 -->
<g id="edge6" class="edge"><title>Node0&#45;&gt;Node3</title>
<path fill="none" stroke="midnightblue" d="M137.129,-49.0971C154.095,-44.1407 172.134,-38.871 188.585,-34.065"/>
<polygon fill="midnightblue" stroke="midnightblue" points="135.901,-45.8095 127.284,-51.9733 137.864,-52.5286 135.901,-45.8095"/>
</g>
</g>
</svg>
