<?xml version="1.0" encoding="UTF-8" standalone="no"?>
<!DOCTYPE svg PUBLIC "-//W3C//DTD SVG 1.1//EN"
 "http://www.w3.org/Graphics/SVG/1.1/DTD/svg11.dtd">
<!-- Generated by graphviz version 2.26.3 (20100126.1600)
 -->
<!-- Title: okw.core.IOKW_State.VerifyHasFocus Pages: 1 -->
<svg width="526pt" height="42pt"
 viewBox="0.00 0.00 526.00 42.00" xmlns="http://www.w3.org/2000/svg" xmlns:xlink="http://www.w3.org/1999/xlink">
<g id="graph1" class="graph" transform="scale(1 1) rotate(0) translate(4 38)">
<title>okw.core.IOKW_State.VerifyHasFocus</title>
<polygon fill="white" stroke="white" points="-4,5 -4,-38 523,-38 523,5 -4,5"/>
<!-- Node228 -->
<g id="node1" class="node"><title>Node228</title>
<polygon fill="#bfbfbf" stroke="black" points="0.5,-0 0.5,-34 143.5,-34 143.5,-0 0.5,-0"/>
<text text-anchor="start" x="8.5" y="-21" font-family="Helvetica,sans-Serif" font-size="10.00">okw.core.IOKW_State.Verify</text>
<text text-anchor="middle" x="72" y="-8" font-family="Helvetica,sans-Serif" font-size="10.00">HasFocus</text>
</g>
<!-- Node229 -->
<g id="node3" class="node"><title>Node229</title>
<a xlink:href="classokw_1_1core_1_1_core.html#ade5d877223a28ce11b57c8b94ab1a2eb" target="_top" xlink:title="Vergleicht den Fokus&#45;Zustand des gegebenen Objekts mit dem erwarteten Wert. ">
<polygon fill="white" stroke="black" points="180,-6.5 180,-27.5 334,-27.5 334,-6.5 180,-6.5"/>
<text text-anchor="middle" x="257" y="-14.5" font-family="Helvetica,sans-Serif" font-size="10.00">okw.core.Core.VerifyHasFocus</text>
</a>
</g>
<!-- Node228&#45;&gt;Node229 -->
<g id="edge2" class="edge"><title>Node228&#45;&gt;Node229</title>
<path fill="none" stroke="midnightblue" d="M153.66,-17C162.36,-17 171.19,-17 179.836,-17"/>
<polygon fill="midnightblue" stroke="midnightblue" points="153.526,-13.5001 143.526,-17 153.526,-20.5001 153.526,-13.5001"/>
</g>
<!-- Node230 -->
<g id="node5" class="node"><title>Node230</title>
<a xlink:href="classokw_1_1core_1_1_e_n.html#a4f454838a66107f968f9d50241180804" target="_top" xlink:title="Vergleicht den Fokus&#45;Zustand des gegebenen Objekts mit dem erwarteten Wert. ">
<polygon fill="white" stroke="black" points="370.5,-6.5 370.5,-27.5 517.5,-27.5 517.5,-6.5 370.5,-6.5"/>
<text text-anchor="middle" x="444" y="-14.5" font-family="Helvetica,sans-Serif" font-size="10.00">okw.core.EN.VerifyHasFocus</text>
</a>
</g>
<!-- Node229&#45;&gt;Node230 -->
<g id="edge4" class="edge"><title>Node229&#45;&gt;Node230</title>
<path fill="none" stroke="midnightblue" d="M344.311,-17C353.019,-17 361.799,-17 370.346,-17"/>
<polygon fill="midnightblue" stroke="midnightblue" points="344.14,-13.5001 334.14,-17 344.14,-20.5001 344.14,-13.5001"/>
</g>
</g>
</svg>
