<?xml version="1.0" encoding="UTF-8" standalone="no"?>
<!DOCTYPE svg PUBLIC "-//W3C//DTD SVG 1.1//EN"
 "http://www.w3.org/Graphics/SVG/1.1/DTD/svg11.dtd">
<!-- Generated by graphviz version 2.36.0 (20140111.2315)
 -->
<!-- Title: okw.core.IOKW_State.TypeKeyWindow Pages: 1 -->
<svg width="688pt" height="38pt"
 viewBox="0.00 0.00 688.00 38.00" xmlns="http://www.w3.org/2000/svg" xmlns:xlink="http://www.w3.org/1999/xlink">
<g id="graph0" class="graph" transform="scale(1 1) rotate(0) translate(4 34)">
<title>okw.core.IOKW_State.TypeKeyWindow</title>
<polygon fill="white" stroke="none" points="-4,4 -4,-34 684,-34 684,4 -4,4"/>
<!-- Node3425 -->
<g id="node1" class="node"><title>Node3425</title>
<polygon fill="#bfbfbf" stroke="black" points="0,-0 0,-30 140,-30 140,-0 0,-0"/>
<text text-anchor="start" x="8" y="-18" font-family="Helvetica,sans-Serif" font-size="10.00">okw.core.IOKW_State.Type</text>
<text text-anchor="middle" x="70" y="-7" font-family="Helvetica,sans-Serif" font-size="10.00">KeyWindow</text>
</g>
<!-- Node3426 -->
<g id="node2" class="node"><title>Node3426</title>
<g id="a_node2"><a xlink:href="classokw_1_1core_1_1_core.html#acfdd78869f2151c68f7cc9e4b8acd890" target="_top" xlink:title="Tastatureingabe in ein bestimmtes Fensterobjekt. ">
<polygon fill="white" stroke="black" points="176,-5.5 176,-24.5 334,-24.5 334,-5.5 176,-5.5"/>
<text text-anchor="middle" x="255" y="-12.5" font-family="Helvetica,sans-Serif" font-size="10.00">okw.core.Core.TypeKeyWindow</text>
</a>
</g>
</g>
<!-- Node3425&#45;&gt;Node3426 -->
<g id="edge1" class="edge"><title>Node3425&#45;&gt;Node3426</title>
<path fill="none" stroke="midnightblue" d="M150.387,-15C158.825,-15 167.402,-15 175.825,-15"/>
<polygon fill="midnightblue" stroke="midnightblue" points="150.184,-11.5001 140.184,-15 150.184,-18.5001 150.184,-11.5001"/>
</g>
<!-- Node3427 -->
<g id="node3" class="node"><title>Node3427</title>
<g id="a_node3"><a xlink:href="classokw_1_1core_1_1_e_n.html#a26a7f06e28d3827614961408314625c7" target="_top" xlink:title="Tastatureingabe in ein bestimmtes Fensterobjekt. ">
<polygon fill="white" stroke="black" points="370.5,-5.5 370.5,-24.5 521.5,-24.5 521.5,-5.5 370.5,-5.5"/>
<text text-anchor="middle" x="446" y="-12.5" font-family="Helvetica,sans-Serif" font-size="10.00">okw.core.EN.TypeKeyWindow</text>
</a>
</g>
</g>
<!-- Node3426&#45;&gt;Node3427 -->
<g id="edge2" class="edge"><title>Node3426&#45;&gt;Node3427</title>
<path fill="none" stroke="midnightblue" d="M344.416,-15C353.129,-15 361.911,-15 370.464,-15"/>
<polygon fill="midnightblue" stroke="midnightblue" points="344.238,-11.5001 334.238,-15 344.238,-18.5001 344.238,-11.5001"/>
</g>
<!-- Node3428 -->
<g id="node4" class="node"><title>Node3428</title>
<g id="a_node4"><a xlink:href="classokw_1_1core_1_1_e_n___keywords___test.html#aa18345af1dd86689b4a74a48a64aac9b" target="_top" xlink:title="okw.core.EN_Keywords\l_Test.tc_SetValue_SV">
<polygon fill="white" stroke="black" points="558,-0 558,-30 680,-30 680,-0 558,-0"/>
<text text-anchor="start" x="566" y="-18" font-family="Helvetica,sans-Serif" font-size="10.00">okw.core.EN_Keywords</text>
<text text-anchor="middle" x="619" y="-7" font-family="Helvetica,sans-Serif" font-size="10.00">_Test.tc_SetValue_SV</text>
</a>
</g>
</g>
<!-- Node3427&#45;&gt;Node3428 -->
<g id="edge3" class="edge"><title>Node3427&#45;&gt;Node3428</title>
<path fill="none" stroke="midnightblue" d="M531.52,-15C540.413,-15 549.32,-15 557.856,-15"/>
<polygon fill="midnightblue" stroke="midnightblue" points="531.506,-11.5001 521.506,-15 531.506,-18.5001 531.506,-11.5001"/>
</g>
</g>
</svg>
