<?xml version="1.0" encoding="UTF-8" standalone="no"?>
<!DOCTYPE svg PUBLIC "-//W3C//DTD SVG 1.1//EN"
 "http://www.w3.org/Graphics/SVG/1.1/DTD/svg11.dtd">
<!-- Generated by graphviz version 2.38.0 (20140413.2041)
 -->
<!-- Title: okw.core.IOKW_State.VerifyHasFocus Pages: 1 -->
<!--zoomable 890 -->
<svg id="main" version="1.1" xmlns="http://www.w3.org/2000/svg" xmlns:xlink="http://www.w3.org/1999/xlink" xml:space="preserve" onload="init(evt)">
<style type="text/css"><![CDATA[
.edge:hover path { stroke: red; }
.edge:hover polygon { stroke: red; fill: red; }
]]></style>
<script type="text/javascript"><![CDATA[
var edges = document.getElementsByTagName('g');
if (edges && edges.length) {
  for (var i=0;i<edges.length;i++) {
    if (edges[i].id.substr(0,4)=='edge') {
      edges[i].setAttribute('class','edge');
    }
  }
}
]]></script>
        <defs>
                <circle id="rim" cx="0" cy="0" r="7"/>
                <circle id="rim2" cx="0" cy="0" r="3.5"/>
                <g id="zoomPlus">
                        <use xlink:href="#rim" fill="#404040">
                                <set attributeName="fill" to="#808080" begin="zoomplus.mouseover" end="zoomplus.mouseout"/>
                        </use>
                        <path d="M-4,0h8M0,-4v8" fill="none" stroke="white" stroke-width="1.5" pointer-events="none"/>
                </g>
                <g id="zoomMin">
                        <use xlink:href="#rim" fill="#404040">
                                <set attributeName="fill" to="#808080" begin="zoomminus.mouseover" end="zoomminus.mouseout"/>
                        </use>
                        <path d="M-4,0h8" fill="none" stroke="white" stroke-width="1.5" pointer-events="none"/>
                </g>
                <g id="dirArrow">
                        <path fill="none" stroke="white" stroke-width="1.5" d="M0,-3.0v7 M-2.5,-0.5L0,-3.0L2.5,-0.5"/>
                </g>
               <g id="resetDef">
                       <use xlink:href="#rim2" fill="#404040">
                               <set attributeName="fill" to="#808080" begin="reset.mouseover" end="reset.mouseout"/>
                       </use>
               </g>
        </defs>

<script type="text/javascript">
var viewWidth = 792;
var viewHeight = 890;
var sectionId = 'dynsection-48';
</script>
<script xlink:href="svgpan.js"/>
<svg id="graph" class="graph">
<g id="viewport">
<title>okw.core.IOKW_State.VerifyHasFocus</title>
<polygon fill="white" stroke="none" points="-4,4 -4,-885.5 788,-885.5 788,4 -4,4"/>
<!-- Node3596 -->
<g id="node1" class="node"><title>Node3596</title>
<g id="a_node1"><a xlink:title="Vergleicht den Fokus&#45;Zustand des gegebenen Objekts mit dem erwarteten Wert.">
<polygon fill="#bfbfbf" stroke="black" points="638,-396.5 638,-426.5 784,-426.5 784,-396.5 638,-396.5"/>
<text text-anchor="start" x="646" y="-414.5" font-family="Helvetica,sans-Serif" font-size="10.00">okw.core.IOKW_State.Verify</text>
<text text-anchor="middle" x="711" y="-403.5" font-family="Helvetica,sans-Serif" font-size="10.00">HasFocus</text>
</a>
</g>
</g>
<!-- Node3597 -->
<g id="node2" class="node"><title>Node3597</title>
<g id="a_node2"><a xlink:href="classokw_1_1core_1_1_core.html#ade5d877223a28ce11b57c8b94ab1a2eb" target="_top" xlink:title="Vergleicht den Fokus&#45;Zustand des gegebenen Objekts mit dem erwarteten Wert.">
<polygon fill="white" stroke="black" points="443,-402 443,-421 602,-421 602,-402 443,-402"/>
<text text-anchor="middle" x="522.5" y="-409" font-family="Helvetica,sans-Serif" font-size="10.00">okw.core.Core.VerifyHasFocus</text>
</a>
</g>
</g>
<!-- Node3596&#45;&gt;Node3597 -->
<g id="edge1" class="edge"><title>Node3596&#45;&gt;Node3597</title>
<path fill="none" stroke="midnightblue" d="M627.663,-411.5C619.21,-411.5 610.636,-411.5 602.223,-411.5"/>
<polygon fill="midnightblue" stroke="midnightblue" points="627.894,-415 637.894,-411.5 627.894,-408 627.894,-415"/>
</g>
<!-- Node3598 -->
<g id="node3" class="node"><title>Node3598</title>
<g id="a_node3"><a xlink:href="classokw_1_1core_1_1_e_n.html#a4f454838a66107f968f9d50241180804" target="_top" xlink:title="Vergleicht den Fokus&#45;Zustand des gegebenen Objekts mit dem erwarteten Wert.">
<polygon fill="white" stroke="black" points="257,-402 257,-421 407,-421 407,-402 257,-402"/>
<text text-anchor="middle" x="332" y="-409" font-family="Helvetica,sans-Serif" font-size="10.00">okw.core.EN.VerifyHasFocus</text>
</a>
</g>
</g>
<!-- Node3597&#45;&gt;Node3598 -->
<g id="edge2" class="edge"><title>Node3597&#45;&gt;Node3598</title>
<path fill="none" stroke="midnightblue" d="M432.888,-411.5C424.3,-411.5 415.65,-411.5 407.223,-411.5"/>
<polygon fill="midnightblue" stroke="midnightblue" points="432.924,-415 442.924,-411.5 432.924,-408 432.924,-415"/>
</g>
<!-- Node3599 -->
<g id="node4" class="node"><title>Node3599</title>
<g id="a_node4"><a xlink:href="classokw_1_1core_1_1_e_n___keywords___a_n_t_l_r___test.html#a1e9e874c23e82fb5e08b5be8ac3b277b" target="_top" xlink:title=" ">
<polygon fill="white" stroke="black" points="27,-840 27,-881 194,-881 194,-840 27,-840"/>
<text text-anchor="start" x="35" y="-869" font-family="Helvetica,sans-Serif" font-size="10.00">okw.core.EN_Keywords</text>
<text text-anchor="start" x="35" y="-858" font-family="Helvetica,sans-Serif" font-size="10.00">_ANTLR_Test.tc_VerifyHasFocus</text>
<text text-anchor="middle" x="110.5" y="-847" font-family="Helvetica,sans-Serif" font-size="10.00">_MemorizedValue</text>
</a>
</g>
</g>
<!-- Node3598&#45;&gt;Node3599 -->
<g id="edge3" class="edge"><title>Node3598&#45;&gt;Node3599</title>
<path fill="none" stroke="midnightblue" d="M328.435,-431.307C318.332,-506.349 278.985,-771.892 221,-830.5 213.445,-838.137 204.143,-843.881 194.182,-848.194"/>
<polygon fill="midnightblue" stroke="midnightblue" points="331.915,-431.683 329.758,-421.31 324.976,-430.764 331.915,-431.683"/>
</g>
<!-- Node3600 -->
<g id="node5" class="node"><title>Node3600</title>
<g id="a_node5"><a xlink:href="classokw_1_1core_1_1_e_n___keywords___i_g_n_o_r_e___test.html#ac84a47f3fe50e5913d0823f8f0ade37b" target="_top" xlink:title=" ">
<polygon fill="white" stroke="black" points="27,-780 27,-821 194,-821 194,-780 27,-780"/>
<text text-anchor="start" x="35" y="-809" font-family="Helvetica,sans-Serif" font-size="10.00">okw.core.EN_Keywords</text>
<text text-anchor="start" x="35" y="-798" font-family="Helvetica,sans-Serif" font-size="10.00">_IGNORE_Test.tcVerifyHasFocus</text>
<text text-anchor="middle" x="110.5" y="-787" font-family="Helvetica,sans-Serif" font-size="10.00">_IGNORE</text>
</a>
</g>
</g>
<!-- Node3598&#45;&gt;Node3600 -->
<g id="edge4" class="edge"><title>Node3598&#45;&gt;Node3600</title>
<path fill="none" stroke="midnightblue" d="M331.156,-431.271C330.511,-491.481 320.098,-674.323 221,-770.5 213.362,-777.913 204.074,-783.533 194.172,-787.788"/>
<polygon fill="midnightblue" stroke="midnightblue" points="334.656,-431.222 331.18,-421.214 327.656,-431.205 334.656,-431.222"/>
</g>
<!-- Node3601 -->
<g id="node6" class="node"><title>Node3601</title>
<g id="a_node6"><a xlink:href="classokw_1_1core_1_1_e_n___keywords___i_g_n_o_r_e___test.html#a174ab6d9595b080fb0fc24f39013953d" target="_top" xlink:title=" ">
<polygon fill="white" stroke="black" points="27,-720 27,-761 194,-761 194,-720 27,-720"/>
<text text-anchor="start" x="35" y="-749" font-family="Helvetica,sans-Serif" font-size="10.00">okw.core.EN_Keywords</text>
<text text-anchor="start" x="35" y="-738" font-family="Helvetica,sans-Serif" font-size="10.00">_IGNORE_Test.tcVerifyHasFocus</text>
<text text-anchor="middle" x="110.5" y="-727" font-family="Helvetica,sans-Serif" font-size="10.00">_IGNORE_EmptyString</text>
</a>
</g>
</g>
<!-- Node3598&#45;&gt;Node3601 -->
<g id="edge5" class="edge"><title>Node3598&#45;&gt;Node3601</title>
<path fill="none" stroke="midnightblue" d="M329.74,-431.433C325.259,-484.947 305.449,-632.95 221,-710.5 213.233,-717.633 203.93,-723.094 194.072,-727.272"/>
<polygon fill="midnightblue" stroke="midnightblue" points="333.247,-431.476 330.499,-421.244 326.266,-430.957 333.247,-431.476"/>
</g>
<!-- Node3602 -->
<g id="node7" class="node"><title>Node3602</title>
<g id="a_node7"><a xlink:href="classokw_1_1core_1_1_e_n___o_k_w_frame_object_child_not_found_exception___test.html#accde9e37f35a723ff58d1a5aab600067" target="_top" xlink:title="Prüft ob die Ausnahme OKWFrameObjectChildNotFoundException durch die LFC&#45;VerifyHasFocus ausgelöst wir...">
<polygon fill="white" stroke="black" points="-1.42109e-14,-648.5 -1.42109e-14,-700.5 221,-700.5 221,-648.5 -1.42109e-14,-648.5"/>
<text text-anchor="start" x="8" y="-688.5" font-family="Helvetica,sans-Serif" font-size="10.00">okw.core.EN_OKWFrameObject</text>
<text text-anchor="start" x="8" y="-677.5" font-family="Helvetica,sans-Serif" font-size="10.00">ChildNotFoundException</text>
<text text-anchor="start" x="8" y="-666.5" font-family="Helvetica,sans-Serif" font-size="10.00">_Test.TC_VerifyHasFocus</text>
<text text-anchor="middle" x="110.5" y="-655.5" font-family="Helvetica,sans-Serif" font-size="10.00">_OKWFrameObjectChildNotFoundException</text>
</a>
</g>
</g>
<!-- Node3598&#45;&gt;Node3602 -->
<g id="edge6" class="edge"><title>Node3598&#45;&gt;Node3602</title>
<path fill="none" stroke="midnightblue" d="M326.981,-431.431C317.056,-475.52 287.228,-581.959 221,-639.5 217.234,-642.772 213.158,-645.739 208.871,-648.43"/>
<polygon fill="midnightblue" stroke="midnightblue" points="330.456,-431.919 329.132,-421.407 323.612,-430.451 330.456,-431.919"/>
</g>
<!-- Node3603 -->
<g id="node8" class="node"><title>Node3603</title>
<g id="a_node8"><a xlink:href="classokw_1_1core_1_1_e_n___o_k_w_frame_object_method_not_implemented___test.html#a954cf6fe8bb3a8345e98b805e8e0d605" target="_top" xlink:title="Prüft ob die Ausnahme OKWFrameObjectMethodNotImplemented von VerifyHasFocus( FN, ExpVal ) ausgelöst w...">
<polygon fill="white" stroke="black" points="1.5,-577.5 1.5,-629.5 219.5,-629.5 219.5,-577.5 1.5,-577.5"/>
<text text-anchor="start" x="9.5" y="-617.5" font-family="Helvetica,sans-Serif" font-size="10.00">okw.core.EN_OKWFrameObject</text>
<text text-anchor="start" x="9.5" y="-606.5" font-family="Helvetica,sans-Serif" font-size="10.00">MethodNotImplemented_Test.TC</text>
<text text-anchor="start" x="9.5" y="-595.5" font-family="Helvetica,sans-Serif" font-size="10.00">_VerifyHasFocus_OKWFrameObjectMethod</text>
<text text-anchor="middle" x="110.5" y="-584.5" font-family="Helvetica,sans-Serif" font-size="10.00">NotImplemented</text>
</a>
</g>
</g>
<!-- Node3598&#45;&gt;Node3603 -->
<g id="edge7" class="edge"><title>Node3598&#45;&gt;Node3603</title>
<path fill="none" stroke="midnightblue" d="M322.585,-430.52C307.153,-463.259 271.235,-530.321 221,-567.5 216.094,-571.131 210.803,-574.408 205.288,-577.363"/>
<polygon fill="midnightblue" stroke="midnightblue" points="325.882,-431.726 326.868,-421.177 319.519,-428.809 325.882,-431.726"/>
</g>
<!-- Node3604 -->
<g id="node9" class="node"><title>Node3604</title>
<g id="a_node9"><a xlink:href="classokw_1_1core_1_1_e_n___o_k_w_not_allowed_value_exception___keywords___i_g_n_o_r_e.html#aa0551025a8e4ae75bc8daa6b786c98fe" target="_top" xlink:title="Prüft ob &quot;${IGNORE} &quot; die Ausnahme okw.exceptions.OKWNotAllowedValueException auslöst.">
<polygon fill="white" stroke="black" points="17.5,-517 17.5,-558 203.5,-558 203.5,-517 17.5,-517"/>
<text text-anchor="start" x="25.5" y="-546" font-family="Helvetica,sans-Serif" font-size="10.00">okw.core.EN_OKWNotAllowed</text>
<text text-anchor="start" x="25.5" y="-535" font-family="Helvetica,sans-Serif" font-size="10.00">ValueException_Keywords</text>
<text text-anchor="middle" x="110.5" y="-524" font-family="Helvetica,sans-Serif" font-size="10.00">_IGNORE.tcVerifyHasFocusIGNORE1</text>
</a>
</g>
</g>
<!-- Node3598&#45;&gt;Node3604 -->
<g id="edge8" class="edge"><title>Node3598&#45;&gt;Node3604</title>
<path fill="none" stroke="midnightblue" d="M315.963,-428.726C296.252,-450.253 259.62,-486.778 221,-507.5 214.4,-511.041 207.347,-514.192 200.12,-516.991"/>
<polygon fill="midnightblue" stroke="midnightblue" points="318.579,-431.052 322.658,-421.274 313.372,-426.374 318.579,-431.052"/>
</g>
<!-- Node3605 -->
<g id="node10" class="node"><title>Node3605</title>
<g id="a_node10"><a xlink:href="classokw_1_1core_1_1_e_n___o_k_w_not_allowed_value_exception___keywords___i_g_n_o_r_e.html#a4ec48b2ca00929af8a035f5c2cb7f460" target="_top" xlink:title="Prüft ob &quot;&quot;${IGNORE}${TCN}&quot; die Ausnahme okw.exceptions.OKWNotAllowedValueException auslöst.">
<polygon fill="white" stroke="black" points="17.5,-457 17.5,-498 203.5,-498 203.5,-457 17.5,-457"/>
<text text-anchor="start" x="25.5" y="-486" font-family="Helvetica,sans-Serif" font-size="10.00">okw.core.EN_OKWNotAllowed</text>
<text text-anchor="start" x="25.5" y="-475" font-family="Helvetica,sans-Serif" font-size="10.00">ValueException_Keywords</text>
<text text-anchor="middle" x="110.5" y="-464" font-family="Helvetica,sans-Serif" font-size="10.00">_IGNORE.tcVerifyHasFocusIGNORE2</text>
</a>
</g>
</g>
<!-- Node3598&#45;&gt;Node3605 -->
<g id="edge9" class="edge"><title>Node3598&#45;&gt;Node3605</title>
<path fill="none" stroke="midnightblue" d="M293.489,-424.28C272.291,-431.375 245.255,-440.213 221,-447.5 210.429,-450.676 199.242,-453.898 188.216,-456.994"/>
<polygon fill="midnightblue" stroke="midnightblue" points="294.724,-427.557 303.088,-421.053 292.494,-420.922 294.724,-427.557"/>
</g>
<!-- Node3606 -->
<g id="node11" class="node"><title>Node3606</title>
<g id="a_node11"><a xlink:href="classokw_1_1core_1_1_e_n___o_k_w_not_allowed_value_exception___test.html#af9ff54b7355bb2e377364fe0577c1702" target="_top" xlink:title="Prüft ob die Ausnahme OKWNotAllowedValueException durch die LFC&#45;VerifyIsActive ausgelöst wird,...">
<polygon fill="white" stroke="black" points="10,-385.5 10,-437.5 211,-437.5 211,-385.5 10,-385.5"/>
<text text-anchor="start" x="18" y="-425.5" font-family="Helvetica,sans-Serif" font-size="10.00">okw.core.EN_OKWNotAllowed</text>
<text text-anchor="start" x="18" y="-414.5" font-family="Helvetica,sans-Serif" font-size="10.00">ValueException_Test.TC</text>
<text text-anchor="start" x="18" y="-403.5" font-family="Helvetica,sans-Serif" font-size="10.00">_VerifyHasFocus_OKWNotAllowedValue</text>
<text text-anchor="middle" x="110.5" y="-392.5" font-family="Helvetica,sans-Serif" font-size="10.00">Exception</text>
</a>
</g>
</g>
<!-- Node3598&#45;&gt;Node3606 -->
<g id="edge10" class="edge"><title>Node3598&#45;&gt;Node3606</title>
<path fill="none" stroke="midnightblue" d="M246.878,-411.5C235.232,-411.5 223.177,-411.5 211.281,-411.5"/>
<polygon fill="midnightblue" stroke="midnightblue" points="246.993,-415 256.993,-411.5 246.993,-408 246.993,-415"/>
</g>
<!-- Node3607 -->
<g id="node12" class="node"><title>Node3607</title>
<g id="a_node12"><a xlink:href="classokw_1_1core_1_1_e_n___o_k_w_not_allowed_value_exception___test.html#a8661a7390fb1ae3f098994e184b1d1a3" target="_top" xlink:title="Prüft ob die Ausnahme OKWNotAllowedValueException durch die LFC&#45;VerifyIsActive ausgelöst wird,...">
<polygon fill="white" stroke="black" points="10,-314.5 10,-366.5 211,-366.5 211,-314.5 10,-314.5"/>
<text text-anchor="start" x="18" y="-354.5" font-family="Helvetica,sans-Serif" font-size="10.00">okw.core.EN_OKWNotAllowed</text>
<text text-anchor="start" x="18" y="-343.5" font-family="Helvetica,sans-Serif" font-size="10.00">ValueException_Test.TC</text>
<text text-anchor="start" x="18" y="-332.5" font-family="Helvetica,sans-Serif" font-size="10.00">_VerifyHasFocus_OKWNotAllowedValue</text>
<text text-anchor="middle" x="110.5" y="-321.5" font-family="Helvetica,sans-Serif" font-size="10.00">Exception_2</text>
</a>
</g>
</g>
<!-- Node3598&#45;&gt;Node3607 -->
<g id="edge11" class="edge"><title>Node3598&#45;&gt;Node3607</title>
<path fill="none" stroke="midnightblue" d="M291.699,-398.788C264.032,-389.839 226.021,-377.543 192.038,-366.551"/>
<polygon fill="midnightblue" stroke="midnightblue" points="290.805,-402.177 301.397,-401.925 292.96,-395.517 290.805,-402.177"/>
</g>
<!-- Node3608 -->
<g id="node13" class="node"><title>Node3608</title>
<g id="a_node13"><a xlink:href="classokw_1_1_se_b_a_c_k_1_1_se_b_a_c_k___e_n___test.html#a52737f5e3f7608f068acfa38d37f869c" target="_top" xlink:title="Test des Schlüsselwortes &quot;VerifyHasFocus( FN, ExpVal ) für SeBACK.">
<polygon fill="white" stroke="black" points="42,-265.5 42,-295.5 179,-295.5 179,-265.5 42,-265.5"/>
<text text-anchor="start" x="50" y="-283.5" font-family="Helvetica,sans-Serif" font-size="10.00">okw.SeBACK.SeBACK_EN</text>
<text text-anchor="middle" x="110.5" y="-272.5" font-family="Helvetica,sans-Serif" font-size="10.00">_Test.tcVerifyHasFocus</text>
</a>
</g>
</g>
<!-- Node3598&#45;&gt;Node3608 -->
<g id="edge12" class="edge"><title>Node3598&#45;&gt;Node3608</title>
<path fill="none" stroke="midnightblue" d="M317.663,-393.605C298.844,-369.694 262.166,-327.758 221,-305.5 208.135,-298.544 193.41,-293.518 179.019,-289.888"/>
<polygon fill="midnightblue" stroke="midnightblue" points="315.102,-396.016 323.973,-401.808 320.65,-391.748 315.102,-396.016"/>
</g>
<!-- Node3609 -->
<g id="node14" class="node"><title>Node3609</title>
<g id="a_node14"><a xlink:href="classokw_1_1_se_button_1_1_se_button___e_n___test.html#aae80c3c05016ea5b9f387ee64c1efd1f" target="_top" xlink:title="Test des Schlüsselwortes SetFocus und VerifyHasFocus für den GUI&#45;Adapter SeButton.">
<polygon fill="white" stroke="black" points="27.5,-206 27.5,-247 193.5,-247 193.5,-206 27.5,-206"/>
<text text-anchor="start" x="35.5" y="-235" font-family="Helvetica,sans-Serif" font-size="10.00">okw.SeButton.SeButton</text>
<text text-anchor="start" x="35.5" y="-224" font-family="Helvetica,sans-Serif" font-size="10.00">_EN_Test.tcSetFocus_VerifyHas</text>
<text text-anchor="middle" x="110.5" y="-213" font-family="Helvetica,sans-Serif" font-size="10.00">Focus</text>
</a>
</g>
</g>
<!-- Node3598&#45;&gt;Node3609 -->
<g id="edge13" class="edge"><title>Node3598&#45;&gt;Node3609</title>
<path fill="none" stroke="midnightblue" d="M322.742,-392.339C307.549,-359.406 271.989,-292.175 221,-256.5 212.683,-250.681 203.28,-245.988 193.566,-242.205"/>
<polygon fill="midnightblue" stroke="midnightblue" points="319.671,-394.046 326.952,-401.743 326.06,-391.185 319.671,-394.046"/>
</g>
<!-- Node3610 -->
<g id="node15" class="node"><title>Node3610</title>
<g id="a_node15"><a xlink:href="classokw_1_1_se_input_checkbox_1_1_se_input_checkbox___e_n___test.html#ad572d5badb79741c496835cbb5c2d6df" target="_top" xlink:title="Prüft die SetFocusFunktion bei Textfelder mit dem Attribute &quot;ReadOnly&quot;.">
<polygon fill="white" stroke="black" points="29.5,-157.5 29.5,-187.5 191.5,-187.5 191.5,-157.5 29.5,-157.5"/>
<text text-anchor="start" x="37.5" y="-175.5" font-family="Helvetica,sans-Serif" font-size="10.00">okw.SeInputCheckbox.SeInput</text>
<text text-anchor="middle" x="110.5" y="-164.5" font-family="Helvetica,sans-Serif" font-size="10.00">Checkbox_EN_Test.tcSetFocus</text>
</a>
</g>
</g>
<!-- Node3598&#45;&gt;Node3610 -->
<g id="edge14" class="edge"><title>Node3598&#45;&gt;Node3610</title>
<path fill="none" stroke="midnightblue" d="M326.926,-391.976C316.953,-349.308 287.143,-247.498 221,-196.5 212.369,-189.845 202.274,-184.954 191.769,-181.372"/>
<polygon fill="midnightblue" stroke="midnightblue" points="323.549,-392.916 329.136,-401.919 330.383,-391.398 323.549,-392.916"/>
</g>
<!-- Node3611 -->
<g id="node16" class="node"><title>Node3611</title>
<g id="a_node16"><a xlink:href="classokw_1_1_se_input_field_1_1_se_input_field___e_n___test.html#a5860a514b07b6bf715c17dd674d0f384" target="_top" xlink:title="Testet das Schlüsselwort ClickOn( FN ) eines SeInputField Prüfen.">
<polygon fill="white" stroke="black" points="43.5,-108.5 43.5,-138.5 177.5,-138.5 177.5,-108.5 43.5,-108.5"/>
<text text-anchor="start" x="51.5" y="-126.5" font-family="Helvetica,sans-Serif" font-size="10.00">okw.SeInputField.SeInput</text>
<text text-anchor="middle" x="110.5" y="-115.5" font-family="Helvetica,sans-Serif" font-size="10.00">Field_EN_Test.tcClickOn</text>
</a>
</g>
</g>
<!-- Node3598&#45;&gt;Node3611 -->
<g id="edge15" class="edge"><title>Node3598&#45;&gt;Node3611</title>
<path fill="none" stroke="midnightblue" d="M328.844,-391.811C322.367,-342.63 298.465,-213.69 221,-148.5 208.766,-138.205 193.135,-131.94 177.538,-128.179"/>
<polygon fill="midnightblue" stroke="midnightblue" points="325.375,-392.28 330.058,-401.784 332.324,-391.434 325.375,-392.28"/>
</g>
<!-- Node3612 -->
<g id="node17" class="node"><title>Node3612</title>
<g id="a_node17"><a xlink:href="classokw_1_1_se_input_radio_1_1_se_input_radio___e_n___test.html#a5a2f61f430cbec8b8c1aa6b1cd96d9e0" target="_top" xlink:title="Test des Schlüsselwortes SetFocus und VerifyHasFocus für den GUI&#45;Adapter SeInputRadio.">
<polygon fill="white" stroke="black" points="21.5,-49 21.5,-90 199.5,-90 199.5,-49 21.5,-49"/>
<text text-anchor="start" x="29.5" y="-78" font-family="Helvetica,sans-Serif" font-size="10.00">okw.SeInputRadio.SeInput</text>
<text text-anchor="start" x="29.5" y="-67" font-family="Helvetica,sans-Serif" font-size="10.00">Radio_EN_Test.tc_VerifyHasFocus</text>
<text text-anchor="middle" x="110.5" y="-56" font-family="Helvetica,sans-Serif" font-size="10.00">_UnsupportedOperationException</text>
</a>
</g>
</g>
<!-- Node3598&#45;&gt;Node3612 -->
<g id="edge16" class="edge"><title>Node3598&#45;&gt;Node3612</title>
<path fill="none" stroke="midnightblue" d="M330.105,-391.814C326.521,-336.975 308.718,-181.156 221,-99.5 214.724,-93.6578 207.419,-88.9348 199.617,-85.1194"/>
<polygon fill="midnightblue" stroke="midnightblue" points="326.618,-392.133 330.674,-401.92 333.607,-391.739 326.618,-392.133"/>
</g>
<!-- Node3613 -->
<g id="node18" class="node"><title>Node3613</title>
<g id="a_node18"><a xlink:href="classokw_1_1_se_m_a_x_i_m_i_z_e_1_1_se_m_a_x_i_m_i_z_e___e_n___test.html#a679c1ff71be98214ad57930417dfb7b7" target="_top" xlink:title="Test des Schlüsselwortes &quot;VerifyHasFocus( FN, ExpVal ) für SeMAXIMIZE.">
<polygon fill="white" stroke="black" points="30.5,-0.5 30.5,-30.5 190.5,-30.5 190.5,-0.5 30.5,-0.5"/>
<text text-anchor="start" x="38.5" y="-18.5" font-family="Helvetica,sans-Serif" font-size="10.00">okw.SeMAXIMIZE.SeMAXIMIZE</text>
<text text-anchor="middle" x="110.5" y="-7.5" font-family="Helvetica,sans-Serif" font-size="10.00">_EN_Test.tcVerifyHasFocus</text>
</a>
</g>
</g>
<!-- Node3598&#45;&gt;Node3613 -->
<g id="edge17" class="edge"><title>Node3598&#45;&gt;Node3613</title>
<path fill="none" stroke="midnightblue" d="M331.622,-391.625C332.413,-329.472 325.902,-137.134 221,-39.5 212.452,-31.5445 201.896,-25.9998 190.743,-22.1729"/>
<polygon fill="midnightblue" stroke="midnightblue" points="328.116,-391.887 331.403,-401.959 335.115,-392.036 328.116,-391.887"/>
</g>
</g>
</svg>
        <g id="navigator" transform="translate(0 0)" fill="#404254">
                <rect fill="#f2f5e9" fill-opacity="0.5" stroke="#606060" stroke-width=".5" x="0" y="0" width="60" height="60"/>
                <use id="zoomplus" xlink:href="#zoomPlus" x="17" y="9" onmousedown="handleZoom(evt,'in')"/>
                <use id="zoomminus" xlink:href="#zoomMin" x="42" y="9" onmousedown="handleZoom(evt,'out')"/>
                <use id="reset" xlink:href="#resetDef" x="30" y="36" onmousedown="handleReset()"/>
                <g id="arrowUp" xlink:href="#dirArrow" transform="translate(30 24)" onmousedown="handlePan(0,-1)">
                  <use xlink:href="#rim" fill="#404040">
                        <set attributeName="fill" to="#808080" begin="arrowUp.mouseover" end="arrowUp.mouseout"/>
                  </use>
                  <path fill="none" stroke="white" stroke-width="1.5" d="M0,-3.0v7 M-2.5,-0.5L0,-3.0L2.5,-0.5"/>
                </g>
                <g id="arrowRight" xlink:href="#dirArrow" transform="rotate(90) translate(36 -43)" onmousedown="handlePan(1,0)">
                  <use xlink:href="#rim" fill="#404040">
                        <set attributeName="fill" to="#808080" begin="arrowRight.mouseover" end="arrowRight.mouseout"/>
                  </use>
                  <path fill="none" stroke="white" stroke-width="1.5" d="M0,-3.0v7 M-2.5,-0.5L0,-3.0L2.5,-0.5"/>
                </g>
                <g id="arrowDown" xlink:href="#dirArrow" transform="rotate(180) translate(-30 -48)" onmousedown="handlePan(0,1)">
                  <use xlink:href="#rim" fill="#404040">
                        <set attributeName="fill" to="#808080" begin="arrowDown.mouseover" end="arrowDown.mouseout"/>
                  </use>
                  <path fill="none" stroke="white" stroke-width="1.5" d="M0,-3.0v7 M-2.5,-0.5L0,-3.0L2.5,-0.5"/>
                </g>
                <g id="arrowLeft" xlink:href="#dirArrow" transform="rotate(270) translate(-36 17)" onmousedown="handlePan(-1,0)">
                  <use xlink:href="#rim" fill="#404040">
                        <set attributeName="fill" to="#808080" begin="arrowLeft.mouseover" end="arrowLeft.mouseout"/>
                  </use>
                  <path fill="none" stroke="white" stroke-width="1.5" d="M0,-3.0v7 M-2.5,-0.5L0,-3.0L2.5,-0.5"/>
                </g>
        </g>
        <svg viewBox="0 0 15 15" width="100%" height="30px" preserveAspectRatio="xMaxYMin meet">
         <g id="arrow_out" transform="scale(0.3 0.3)">
          <a xlink:href="interfaceokw_1_1core_1_1_i_o_k_w___state_a40877cd2c0183c22aa695cf4973ce37c_icgraph_org.svg" target="_base">
           <rect id="button" ry="5" rx="5" y="6" x="6" height="38" width="38"
                fill="#f2f5e9" fill-opacity="0.5" stroke="#606060" stroke-width="1.0"/>
           <path id="arrow"
             d="M 11.500037,31.436501 C 11.940474,20.09759 22.043105,11.32322 32.158766,21.979434 L 37.068811,17.246167 C 37.068811,17.246167 37.088388,32 37.088388,32 L 22.160133,31.978069 C 22.160133,31.978069 26.997745,27.140456 26.997745,27.140456 C 18.528582,18.264221 13.291696,25.230495 11.500037,31.436501 z"
             style="fill:#404040;"/>
          </a>
         </g>
        </svg>
</svg>
