<?xml version="1.0" encoding="UTF-8" standalone="no"?>
<!DOCTYPE svg PUBLIC "-//W3C//DTD SVG 1.1//EN"
 "http://www.w3.org/Graphics/SVG/1.1/DTD/svg11.dtd">
<!-- Generated by graphviz version 2.26.3 (20100126.1600)
 -->
<!-- Title: okw.core.IOKW_State.VerifyCaptionWCM Pages: 1 -->
<!--zoomable 1256 -->
<svg id="main" version="1.1" xmlns="http://www.w3.org/2000/svg" xmlns:xlink="http://www.w3.org/1999/xlink" xml:space="preserve" onload="init(evt)">
<style type="text/css"><![CDATA[
.edge:hover path { stroke: red; }
.edge:hover polygon { stroke: red; fill: red; }
]]></style>
<script type="text/javascript"><![CDATA[
var edges = document.getElementsByTagName('g');
if (edges && edges.length) {
  for (var i=0;i<edges.length;i++) {
    if (edges[i].id.substr(0,4)=='edge') {
      edges[i].setAttribute('class','edge');
    }
  }
}
]]></script>
        <defs>
                <circle id="rim" cx="0" cy="0" r="7"/>
                <circle id="rim2" cx="0" cy="0" r="3.5"/>
                <g id="zoomPlus">
                        <use xlink:href="#rim" fill="#404040">
                                <set attributeName="fill" to="#808080" begin="zoomplus.mouseover" end="zoomplus.mouseout"/>
                        </use>
                        <path d="M-4,0h8M0,-4v8" fill="none" stroke="white" stroke-width="1.5" pointer-events="none"/>
                </g>
                <g id="zoomMin">
                        <use xlink:href="#rim" fill="#404040">
                                <set attributeName="fill" to="#808080" begin="zoomminus.mouseover" end="zoomminus.mouseout"/>
                        </use>
                        <path d="M-4,0h8" fill="none" stroke="white" stroke-width="1.5" pointer-events="none"/>
                </g>
                <g id="dirArrow">
                        <path fill="none" stroke="white" stroke-width="1.5" d="M0,-3.0v7 M-2.5,-0.5L0,-3.0L2.5,-0.5"/>
                </g>
               <g id="resetDef">
                       <use xlink:href="#rim2" fill="#404040">
                               <set attributeName="fill" to="#808080" begin="reset.mouseover" end="reset.mouseout"/>
                       </use>
               </g>
        </defs>

<script type="text/javascript">
var viewWidth = 814;
var viewHeight = 1256;
var sectionId = 'dynsection-40';
</script>
<script xlink:href="svgpan.js"/>
<svg id="graph" class="graph">
<g id="viewport">
<title>okw.core.IOKW_State.VerifyCaptionWCM</title>
<polygon fill="white" stroke="white" points="-4,5 -4,-1252 811,-1252 811,5 -4,5"/>
<!-- Node2380 -->
<g id="node1" class="node"><title>Node2380</title>
<polygon fill="#bfbfbf" stroke="black" points="0.5,-624 0.5,-658 143.5,-658 143.5,-624 0.5,-624"/>
<text text-anchor="start" x="8.5" y="-645" font-family="Helvetica,sans-Serif" font-size="10.00">okw.core.IOKW_State.Verify</text>
<text text-anchor="middle" x="72" y="-632" font-family="Helvetica,sans-Serif" font-size="10.00">CaptionWCM</text>
</g>
<!-- Node2381 -->
<g id="node3" class="node"><title>Node2381</title>
<a xlink:href="classokw_1_1core_1_1_core.html#a1dc3f5a21cba756cd6448f88280342ec" target="_top" xlink:title="Überprüft die Überschrift des Objektes. ">
<polygon fill="white" stroke="black" points="180,-630.5 180,-651.5 348,-651.5 348,-630.5 180,-630.5"/>
<text text-anchor="middle" x="264" y="-638.5" font-family="Helvetica,sans-Serif" font-size="10.00">okw.core.Core.VerifyCaptionWCM</text>
</a>
</g>
<!-- Node2380&#45;&gt;Node2381 -->
<g id="edge2" class="edge"><title>Node2380&#45;&gt;Node2381</title>
<path fill="none" stroke="midnightblue" d="M154.038,-641C162.534,-641 171.179,-641 179.7,-641"/>
<polygon fill="midnightblue" stroke="midnightblue" points="153.767,-637.5 143.767,-641 153.767,-644.5 153.767,-637.5"/>
</g>
<!-- Node2382 -->
<g id="node5" class="node"><title>Node2382</title>
<a xlink:href="classokw_1_1core_1_1_e_n.html#a5a742184bc524f6b6dceec7cef27a951" target="_top" xlink:title="Überprüft die Überschrift des Objektes. ">
<polygon fill="white" stroke="black" points="384.5,-630.5 384.5,-651.5 545.5,-651.5 545.5,-630.5 384.5,-630.5"/>
<text text-anchor="middle" x="465" y="-638.5" font-family="Helvetica,sans-Serif" font-size="10.00">okw.core.EN.VerifyCaptionWCM</text>
</a>
</g>
<!-- Node2381&#45;&gt;Node2382 -->
<g id="edge4" class="edge"><title>Node2381&#45;&gt;Node2382</title>
<path fill="none" stroke="midnightblue" d="M358.304,-641C367.054,-641 375.867,-641 384.476,-641"/>
<polygon fill="midnightblue" stroke="midnightblue" points="358.078,-637.5 348.077,-641 358.077,-644.5 358.078,-637.5"/>
</g>
<!-- Node2383 -->
<g id="node7" class="node"><title>Node2383</title>
<a xlink:href="classokw_1_1core_1_1_e_n___keywords___a_n_t_l_r___test.html#a3f7653664be8e4b3d0394146907c0f53" target="_top" xlink:title="okw.core.EN_Keywords\l_ANTLR_Test.tc_VerifyCaption\lWCM_MemorizedValue">
<polygon fill="white" stroke="black" points="616.5,-1200.5 616.5,-1247.5 771.5,-1247.5 771.5,-1200.5 616.5,-1200.5"/>
<text text-anchor="start" x="624.5" y="-1234.5" font-family="Helvetica,sans-Serif" font-size="10.00">okw.core.EN_Keywords</text>
<text text-anchor="start" x="624.5" y="-1221.5" font-family="Helvetica,sans-Serif" font-size="10.00">_ANTLR_Test.tc_VerifyCaption</text>
<text text-anchor="middle" x="694" y="-1208.5" font-family="Helvetica,sans-Serif" font-size="10.00">WCM_MemorizedValue</text>
</a>
</g>
<!-- Node2382&#45;&gt;Node2383 -->
<g id="edge6" class="edge"><title>Node2382&#45;&gt;Node2383</title>
<path fill="none" stroke="midnightblue" d="M466.6,-661.54C474.02,-751.641 507.902,-1110.97 582,-1191 591.296,-1201.04 603.476,-1208.08 616.374,-1213"/>
<polygon fill="midnightblue" stroke="midnightblue" points="470.083,-661.187 465.792,-651.5 463.106,-661.749 470.083,-661.187"/>
</g>
<!-- Node2384 -->
<g id="node9" class="node"><title>Node2384</title>
<a xlink:href="classokw_1_1core_1_1_e_n___keywords___d_e_l_e_t_e___test.html#a0e62a17933f21dc8c45b22def98ac192" target="_top" xlink:title="okw.core.EN_Keywords\l_DELETE_Test.tcSelectMenu\l_Value_MV_DELETE_EmptyString">
<polygon fill="white" stroke="black" points="609,-1134.5 609,-1181.5 779,-1181.5 779,-1134.5 609,-1134.5"/>
<text text-anchor="start" x="617" y="-1168.5" font-family="Helvetica,sans-Serif" font-size="10.00">okw.core.EN_Keywords</text>
<text text-anchor="start" x="617" y="-1155.5" font-family="Helvetica,sans-Serif" font-size="10.00">_DELETE_Test.tcSelectMenu</text>
<text text-anchor="middle" x="694" y="-1142.5" font-family="Helvetica,sans-Serif" font-size="10.00">_Value_MV_DELETE_EmptyString</text>
</a>
</g>
<!-- Node2382&#45;&gt;Node2384 -->
<g id="edge8" class="edge"><title>Node2382&#45;&gt;Node2384</title>
<path fill="none" stroke="midnightblue" d="M467.289,-661.959C476.851,-745.802 516.186,-1055.85 582,-1125 589.547,-1132.93 598.893,-1138.98 608.944,-1143.6"/>
<polygon fill="midnightblue" stroke="midnightblue" points="470.752,-661.425 466.16,-651.877 463.795,-662.204 470.752,-661.425"/>
</g>
<!-- Node2385 -->
<g id="node11" class="node"><title>Node2385</title>
<a xlink:href="classokw_1_1core_1_1_e_n___keywords___empty___test.html#ac82eb938b9d084ce33a1a01938d107ab" target="_top" xlink:title="Prüft &quot;${EMPTY}&quot; für das Schlüsslewort VerifyCaptionWCM(strng,string) ">
<polygon fill="white" stroke="black" points="618.5,-1068.5 618.5,-1115.5 769.5,-1115.5 769.5,-1068.5 618.5,-1068.5"/>
<text text-anchor="start" x="626.5" y="-1102.5" font-family="Helvetica,sans-Serif" font-size="10.00">okw.core.EN_Keywords</text>
<text text-anchor="start" x="626.5" y="-1089.5" font-family="Helvetica,sans-Serif" font-size="10.00">_Empty_Test.tc_VerifyCaption</text>
<text text-anchor="middle" x="694" y="-1076.5" font-family="Helvetica,sans-Serif" font-size="10.00">WCM_Empty</text>
</a>
</g>
<!-- Node2382&#45;&gt;Node2385 -->
<g id="edge10" class="edge"><title>Node2382&#45;&gt;Node2385</title>
<path fill="none" stroke="midnightblue" d="M468.108,-661.722C479.912,-737.817 524.237,-1000.44 582,-1059 591.965,-1069.1 604.854,-1076.15 618.324,-1081.05"/>
<polygon fill="midnightblue" stroke="midnightblue" points="471.521,-660.887 466.549,-651.531 464.601,-661.945 471.521,-660.887"/>
</g>
<!-- Node2386 -->
<g id="node13" class="node"><title>Node2386</title>
<a xlink:href="classokw_1_1core_1_1_e_n___keywords___test.html#aca6116a857a85d06d4da58ab2c04815b" target="_top" xlink:title="&quot;Normaler&quot; Testfall für das Schlüsselwort VerifyCaptionWCM(String, String). ">
<polygon fill="white" stroke="black" points="622.5,-1016 622.5,-1050 765.5,-1050 765.5,-1016 622.5,-1016"/>
<text text-anchor="start" x="630.5" y="-1037" font-family="Helvetica,sans-Serif" font-size="10.00">okw.core.EN_Keywords</text>
<text text-anchor="middle" x="694" y="-1024" font-family="Helvetica,sans-Serif" font-size="10.00">_Test.tc_VerifyCaptionWCM</text>
</a>
</g>
<!-- Node2382&#45;&gt;Node2386 -->
<g id="edge12" class="edge"><title>Node2382&#45;&gt;Node2386</title>
<path fill="none" stroke="midnightblue" d="M468.89,-661.922C482.368,-732.223 529.149,-958.281 582,-1007 593.154,-1017.28 607.557,-1023.75 622.296,-1027.76"/>
<polygon fill="midnightblue" stroke="midnightblue" points="472.251,-660.861 466.953,-651.686 465.373,-662.163 472.251,-660.861"/>
</g>
<!-- Node2387 -->
<g id="node15" class="node"><title>Node2387</title>
<a xlink:href="classokw_1_1core_1_1_e_n___o_k_w_frame_object_child_not_found_exception___test.html#a2f33777396a3c4be3fe6bc1c5d7e3cfa" target="_top" xlink:title="Prüft ob die Ausnahme OKWFrameObjectChildNotFoundException durch die LFC&#45;VerifyCaption ausgelöst wird...">
<polygon fill="white" stroke="black" points="588.5,-938 588.5,-998 799.5,-998 799.5,-938 588.5,-938"/>
<text text-anchor="start" x="596.5" y="-985" font-family="Helvetica,sans-Serif" font-size="10.00">okw.core.EN_OKWFrameObject</text>
<text text-anchor="start" x="596.5" y="-972" font-family="Helvetica,sans-Serif" font-size="10.00">ChildNotFoundException</text>
<text text-anchor="start" x="596.5" y="-959" font-family="Helvetica,sans-Serif" font-size="10.00">_Test.TC_VerifyCaptionWCM</text>
<text text-anchor="middle" x="694" y="-946" font-family="Helvetica,sans-Serif" font-size="10.00">_OKWFrameObjectChildNotFoundException</text>
</a>
</g>
<!-- Node2382&#45;&gt;Node2387 -->
<g id="edge14" class="edge"><title>Node2382&#45;&gt;Node2387</title>
<path fill="none" stroke="midnightblue" d="M467.537,-661.691C475.032,-714.004 501.823,-852.796 582,-929 585.433,-932.262 589.152,-935.253 593.08,-937.996"/>
<polygon fill="midnightblue" stroke="midnightblue" points="470.985,-661.076 466.185,-651.631 464.048,-662.009 470.985,-661.076"/>
</g>
<!-- Node2388 -->
<g id="node17" class="node"><title>Node2388</title>
<a xlink:href="classokw_1_1core_1_1_e_n___o_k_w_frame_object_method_not_implemented___test.html#a9be70f215bf6c8aa4697061e34c255ae" target="_top" xlink:title="Prüft ob die Ausnahme OKWFrameObjectMethodNotImplemented von VerifyCaptionWCM( FN, ExpVal ) ausgelöst wird. ">
<polygon fill="white" stroke="black" points="582,-860 582,-920 806,-920 806,-860 582,-860"/>
<text text-anchor="start" x="590" y="-907" font-family="Helvetica,sans-Serif" font-size="10.00">okw.core.EN_OKWFrameObject</text>
<text text-anchor="start" x="590" y="-894" font-family="Helvetica,sans-Serif" font-size="10.00">MethodNotImplemented_Test.TC</text>
<text text-anchor="start" x="590" y="-881" font-family="Helvetica,sans-Serif" font-size="10.00">_VerifyCaptionWCM_OKWFrameObjectMethod</text>
<text text-anchor="middle" x="694" y="-868" font-family="Helvetica,sans-Serif" font-size="10.00">NotImplemented</text>
</a>
</g>
<!-- Node2382&#45;&gt;Node2388 -->
<g id="edge16" class="edge"><title>Node2382&#45;&gt;Node2388</title>
<path fill="none" stroke="midnightblue" d="M470.959,-661.564C484.08,-703.291 519.39,-798.394 582,-851 585.862,-854.245 590.011,-857.226 594.356,-859.964"/>
<polygon fill="midnightblue" stroke="midnightblue" points="474.291,-660.493 468.033,-651.944 467.594,-662.53 474.291,-660.493"/>
</g>
<!-- Node2389 -->
<g id="node19" class="node"><title>Node2389</title>
<a xlink:href="classokw_1_1core_1_1_e_n___o_k_w_not_allowed_value_exception___keywords___i_g_n_o_r_e.html#a10ebae61f1265eb4a0a7b5a597daf90c" target="_top" xlink:title="Prüft ob &quot;${IGNORE} &quot; die Ausnahme okw.exceptions.OKWNotAllowedValueException auslöst. ">
<polygon fill="white" stroke="black" points="592.5,-794.5 592.5,-841.5 795.5,-841.5 795.5,-794.5 592.5,-794.5"/>
<text text-anchor="start" x="600.5" y="-828.5" font-family="Helvetica,sans-Serif" font-size="10.00">okw.core.EN_OKWNotAllowed</text>
<text text-anchor="start" x="600.5" y="-815.5" font-family="Helvetica,sans-Serif" font-size="10.00">ValueException_Keywords</text>
<text text-anchor="middle" x="694" y="-802.5" font-family="Helvetica,sans-Serif" font-size="10.00">_IGNORE.tcVerifyCaptionWCMIGNORE1</text>
</a>
</g>
<!-- Node2382&#45;&gt;Node2389 -->
<g id="edge18" class="edge"><title>Node2382&#45;&gt;Node2389</title>
<path fill="none" stroke="midnightblue" d="M475.567,-660.473C493.395,-691.489 532.406,-751.972 582,-785 587.23,-788.483 592.836,-791.607 598.65,-794.406"/>
<polygon fill="midnightblue" stroke="midnightblue" points="478.483,-658.517 470.536,-651.51 472.379,-661.944 478.483,-658.517"/>
</g>
<!-- Node2390 -->
<g id="node21" class="node"><title>Node2390</title>
<a xlink:href="classokw_1_1core_1_1_e_n___o_k_w_not_allowed_value_exception___keywords___i_g_n_o_r_e.html#aaeeb4627ca538eddece9dca8eb06770d" target="_top" xlink:title="Prüft ob &quot;&quot;${IGNORE}${TCN}&quot; die Ausnahme okw.exceptions.OKWNotAllowedValueException auslöst...">
<polygon fill="white" stroke="black" points="592.5,-728.5 592.5,-775.5 795.5,-775.5 795.5,-728.5 592.5,-728.5"/>
<text text-anchor="start" x="600.5" y="-762.5" font-family="Helvetica,sans-Serif" font-size="10.00">okw.core.EN_OKWNotAllowed</text>
<text text-anchor="start" x="600.5" y="-749.5" font-family="Helvetica,sans-Serif" font-size="10.00">ValueException_Keywords</text>
<text text-anchor="middle" x="694" y="-736.5" font-family="Helvetica,sans-Serif" font-size="10.00">_IGNORE.tcVerifyCaptionWCMIGNORE2</text>
</a>
</g>
<!-- Node2382&#45;&gt;Node2390 -->
<g id="edge20" class="edge"><title>Node2382&#45;&gt;Node2390</title>
<path fill="none" stroke="midnightblue" d="M486.065,-657.912C508.635,-675.321 546.076,-702.207 582,-719 589.345,-722.434 597.13,-725.6 605.037,-728.499"/>
<polygon fill="midnightblue" stroke="midnightblue" points="487.935,-654.93 477.902,-651.525 483.622,-660.444 487.935,-654.93"/>
</g>
<!-- Node2391 -->
<g id="node23" class="node"><title>Node2391</title>
<a xlink:href="classokw_1_1core_1_1_e_n___verify_caption___o_k_w_verifying_fails_exception___test.html#a8cc1d187afe88707bb2a7876f5be1c21" target="_top" xlink:title="Prüft, ob die Ausnahme OKWVerifyingFailsException bei einem Soll/Ist&#45;Vergleich ausgelöst wird...">
<polygon fill="white" stroke="black" points="591,-650 591,-710 797,-710 797,-650 591,-650"/>
<text text-anchor="start" x="599" y="-697" font-family="Helvetica,sans-Serif" font-size="10.00">okw.core.EN_VerifyCaption</text>
<text text-anchor="start" x="599" y="-684" font-family="Helvetica,sans-Serif" font-size="10.00">_OKWVerifyingFailsException</text>
<text text-anchor="start" x="599" y="-671" font-family="Helvetica,sans-Serif" font-size="10.00">_Test.TC_VerifyValueWCM_OKWVerifying</text>
<text text-anchor="middle" x="694" y="-658" font-family="Helvetica,sans-Serif" font-size="10.00">FailsException_M01</text>
</a>
</g>
<!-- Node2382&#45;&gt;Node2391 -->
<g id="edge22" class="edge"><title>Node2382&#45;&gt;Node2391</title>
<path fill="none" stroke="midnightblue" d="M536.586,-653.192C553.75,-656.115 572.417,-659.294 590.7,-662.407"/>
<polygon fill="midnightblue" stroke="midnightblue" points="537.115,-649.731 526.669,-651.503 535.939,-656.632 537.115,-649.731"/>
</g>
<!-- Node2392 -->
<g id="node25" class="node"><title>Node2392</title>
<a xlink:href="classokw_1_1core_1_1_e_n___verify_caption___o_k_w_verifying_fails_exception___test.html#a1a49eeaabaff023f4e38f069f1df0e44" target="_top" xlink:title="Prüft, ob die Ausnahme OKWVerifyingFailsException bei einem Soll/Ist&#45;Vergleich ausgelöst wird...">
<polygon fill="white" stroke="black" points="591,-572 591,-632 797,-632 797,-572 591,-572"/>
<text text-anchor="start" x="599" y="-619" font-family="Helvetica,sans-Serif" font-size="10.00">okw.core.EN_VerifyCaption</text>
<text text-anchor="start" x="599" y="-606" font-family="Helvetica,sans-Serif" font-size="10.00">_OKWVerifyingFailsException</text>
<text text-anchor="start" x="599" y="-593" font-family="Helvetica,sans-Serif" font-size="10.00">_Test.TC_VerifyValueWCM_OKWVerifying</text>
<text text-anchor="middle" x="694" y="-580" font-family="Helvetica,sans-Serif" font-size="10.00">FailsException_SV01</text>
</a>
</g>
<!-- Node2382&#45;&gt;Node2392 -->
<g id="edge24" class="edge"><title>Node2382&#45;&gt;Node2392</title>
<path fill="none" stroke="midnightblue" d="M536.586,-628.808C553.75,-625.885 572.417,-622.706 590.7,-619.593"/>
<polygon fill="midnightblue" stroke="midnightblue" points="535.939,-625.368 526.669,-630.497 537.115,-632.269 535.939,-625.368"/>
</g>
<!-- Node2393 -->
<g id="node27" class="node"><title>Node2393</title>
<a xlink:href="classokw_1_1core_1_1_e_n___verify_caption___o_k_w_verifying_fails_exception___test.html#aa004ba87f7110d5b2801b72526fb7c89" target="_top" xlink:title="Prüft, ob die Ausnahme OKWVerifyingFailsException bei einem Soll/Ist&#45;Vergleich ausgelöst wird...">
<polygon fill="white" stroke="black" points="591,-494 591,-554 797,-554 797,-494 591,-494"/>
<text text-anchor="start" x="599" y="-541" font-family="Helvetica,sans-Serif" font-size="10.00">okw.core.EN_VerifyCaption</text>
<text text-anchor="start" x="599" y="-528" font-family="Helvetica,sans-Serif" font-size="10.00">_OKWVerifyingFailsException</text>
<text text-anchor="start" x="599" y="-515" font-family="Helvetica,sans-Serif" font-size="10.00">_Test.TC_VerifyValueWCM_OKWVerifying</text>
<text text-anchor="middle" x="694" y="-502" font-family="Helvetica,sans-Serif" font-size="10.00">FailsException_SV02</text>
</a>
</g>
<!-- Node2382&#45;&gt;Node2393 -->
<g id="edge26" class="edge"><title>Node2382&#45;&gt;Node2393</title>
<path fill="none" stroke="midnightblue" d="M486.605,-624.156C509.349,-607.023 546.687,-580.564 582,-563 588.268,-559.882 594.847,-556.905 601.543,-554.086"/>
<polygon fill="midnightblue" stroke="midnightblue" points="484.188,-621.597 478.358,-630.443 488.432,-627.164 484.188,-621.597"/>
</g>
<!-- Node2394 -->
<g id="node29" class="node"><title>Node2394</title>
<a xlink:href="classokw_1_1core_1_1_e_n___verify_caption___o_k_w_verifying_fails_exception___test.html#aad2a41a5043e034dedc7dd20a1ca6b34" target="_top" xlink:title="Prüft, ob die Ausnahme OKWVerifyingFailsException bei einem Soll/Ist&#45;Vergleich ausgelöst wird...">
<polygon fill="white" stroke="black" points="591,-416 591,-476 797,-476 797,-416 591,-416"/>
<text text-anchor="start" x="599" y="-463" font-family="Helvetica,sans-Serif" font-size="10.00">okw.core.EN_VerifyCaption</text>
<text text-anchor="start" x="599" y="-450" font-family="Helvetica,sans-Serif" font-size="10.00">_OKWVerifyingFailsException</text>
<text text-anchor="start" x="599" y="-437" font-family="Helvetica,sans-Serif" font-size="10.00">_Test.TC_VerifyValueWCM_OKWVerifying</text>
<text text-anchor="middle" x="694" y="-424" font-family="Helvetica,sans-Serif" font-size="10.00">FailsException_SV03</text>
</a>
</g>
<!-- Node2382&#45;&gt;Node2394 -->
<g id="edge28" class="edge"><title>Node2382&#45;&gt;Node2394</title>
<path fill="none" stroke="midnightblue" d="M474.865,-621.087C492.149,-588.157 530.976,-522.296 582,-485 586.405,-481.78 591.098,-478.809 595.973,-476.07"/>
<polygon fill="midnightblue" stroke="midnightblue" points="471.65,-619.686 470.203,-630.181 477.879,-622.879 471.65,-619.686"/>
</g>
<!-- Node2395 -->
<g id="node31" class="node"><title>Node2395</title>
<a xlink:href="classokw_1_1core_1_1_e_n___verify_caption___o_k_w_verifying_fails_exception___test.html#a075f383b9504d4dcfdd9a119b326f555" target="_top" xlink:title="Prüft, ob die Ausnahme OKWVerifyingFailsException bei einem Soll/Ist&#45;Vergleich ausgelöst wird...">
<polygon fill="white" stroke="black" points="591,-338 591,-398 797,-398 797,-338 591,-338"/>
<text text-anchor="start" x="599" y="-385" font-family="Helvetica,sans-Serif" font-size="10.00">okw.core.EN_VerifyCaption</text>
<text text-anchor="start" x="599" y="-372" font-family="Helvetica,sans-Serif" font-size="10.00">_OKWVerifyingFailsException</text>
<text text-anchor="start" x="599" y="-359" font-family="Helvetica,sans-Serif" font-size="10.00">_Test.TC_VerifyValueWCM_OKWVerifying</text>
<text text-anchor="middle" x="694" y="-346" font-family="Helvetica,sans-Serif" font-size="10.00">FailsException_MV01</text>
</a>
</g>
<!-- Node2382&#45;&gt;Node2395 -->
<g id="edge30" class="edge"><title>Node2382&#45;&gt;Node2395</title>
<path fill="none" stroke="midnightblue" d="M469.629,-620.611C480.889,-575.567 513.927,-466.839 582,-407 585.634,-403.805 589.545,-400.869 593.651,-398.17"/>
<polygon fill="midnightblue" stroke="midnightblue" points="466.212,-619.85 467.28,-630.391 473.018,-621.485 466.212,-619.85"/>
</g>
<!-- Node2396 -->
<g id="node33" class="node"><title>Node2396</title>
<a xlink:href="classokw_1_1core_1_1_e_n___verify_caption___o_k_w_verifying_fails_exception___test.html#a1aef1b61e6cd841a9182ba47e70da344" target="_top" xlink:title="Prüft, ob die Ausnahme OKWVerifyingFailsException bei einem Soll/Ist&#45;Vergleich ausgelöst wird...">
<polygon fill="white" stroke="black" points="591,-260 591,-320 797,-320 797,-260 591,-260"/>
<text text-anchor="start" x="599" y="-307" font-family="Helvetica,sans-Serif" font-size="10.00">okw.core.EN_VerifyCaption</text>
<text text-anchor="start" x="599" y="-294" font-family="Helvetica,sans-Serif" font-size="10.00">_OKWVerifyingFailsException</text>
<text text-anchor="start" x="599" y="-281" font-family="Helvetica,sans-Serif" font-size="10.00">_Test.TC_VerifyValueWCM_OKWVerifying</text>
<text text-anchor="middle" x="694" y="-268" font-family="Helvetica,sans-Serif" font-size="10.00">FailsException_MV02</text>
</a>
</g>
<!-- Node2382&#45;&gt;Node2396 -->
<g id="edge32" class="edge"><title>Node2382&#45;&gt;Node2396</title>
<path fill="none" stroke="midnightblue" d="M466.82,-620.112C472.754,-564.714 496.414,-412.582 582,-329 585.314,-325.763 588.911,-322.794 592.715,-320.071"/>
<polygon fill="midnightblue" stroke="midnightblue" points="463.303,-620.111 465.807,-630.406 470.27,-620.797 463.303,-620.111"/>
</g>
<!-- Node2397 -->
<g id="node35" class="node"><title>Node2397</title>
<a xlink:href="classokw_1_1core_1_1_e_n___verify_caption___o_k_w_verifying_fails_exception___test.html#a2fae4661915ae888e081b0c8b417c3d3" target="_top" xlink:title="Prüft, ob die Ausnahme OKWVerifyingFailsException bei einem Soll/Ist&#45;Vergleich ausgelöst wird...">
<polygon fill="white" stroke="black" points="591,-182 591,-242 797,-242 797,-182 591,-182"/>
<text text-anchor="start" x="599" y="-229" font-family="Helvetica,sans-Serif" font-size="10.00">okw.core.EN_VerifyCaption</text>
<text text-anchor="start" x="599" y="-216" font-family="Helvetica,sans-Serif" font-size="10.00">_OKWVerifyingFailsException</text>
<text text-anchor="start" x="599" y="-203" font-family="Helvetica,sans-Serif" font-size="10.00">_Test.TC_VerifyValueWCM_OKWVerifying</text>
<text text-anchor="middle" x="694" y="-190" font-family="Helvetica,sans-Serif" font-size="10.00">FailsException_MV03</text>
</a>
</g>
<!-- Node2382&#45;&gt;Node2397 -->
<g id="edge34" class="edge"><title>Node2382&#45;&gt;Node2397</title>
<path fill="none" stroke="midnightblue" d="M468.645,-620.358C481.818,-547.874 528.987,-306.377 582,-251 584.99,-247.877 588.243,-245.003 591.696,-242.36"/>
<polygon fill="midnightblue" stroke="midnightblue" points="465.149,-620.024 466.827,-630.485 472.039,-621.261 465.149,-620.024"/>
</g>
<!-- Node2398 -->
<g id="node37" class="node"><title>Node2398</title>
<a xlink:href="classokw_1_1core_1_1_e_n___verify_caption___o_k_w_verifying_fails_exception___test.html#a3648e7fa9a7555faef5220b3447f504c" target="_top" xlink:title="Prüft, ob die Ausnahme OKWVerifyingFailsException bei einem Soll/Ist&#45;Vergleich ausgelöst wird...">
<polygon fill="white" stroke="black" points="591,-104 591,-164 797,-164 797,-104 591,-104"/>
<text text-anchor="start" x="599" y="-151" font-family="Helvetica,sans-Serif" font-size="10.00">okw.core.EN_VerifyCaption</text>
<text text-anchor="start" x="599" y="-138" font-family="Helvetica,sans-Serif" font-size="10.00">_OKWVerifyingFailsException</text>
<text text-anchor="start" x="599" y="-125" font-family="Helvetica,sans-Serif" font-size="10.00">_Test.TC_VerifyValueWCM_OKWVerifying</text>
<text text-anchor="middle" x="694" y="-112" font-family="Helvetica,sans-Serif" font-size="10.00">FailsException_MV04</text>
</a>
</g>
<!-- Node2382&#45;&gt;Node2398 -->
<g id="edge36" class="edge"><title>Node2382&#45;&gt;Node2398</title>
<path fill="none" stroke="midnightblue" d="M467.583,-620.036C478.06,-538.15 519.816,-241.055 582,-173 584.917,-169.808 588.108,-166.877 591.51,-164.186"/>
<polygon fill="midnightblue" stroke="midnightblue" points="464.091,-619.757 466.313,-630.116 471.036,-620.631 464.091,-619.757"/>
</g>
<!-- Node2399 -->
<g id="node39" class="node"><title>Node2399</title>
<a xlink:href="classokw_1_1_se_input_radio_1_1_se_input_radio___e_n___test.html#a2c9d933ce3a2e74d316cfe0b96626a58" target="_top" xlink:title="Test des Schlüsselwortes VerifyCaptionWCM für den GUI&#45;Adapter SeInputRadio. ">
<polygon fill="white" stroke="black" points="600,-52 600,-86 788,-86 788,-52 600,-52"/>
<text text-anchor="start" x="608" y="-73" font-family="Helvetica,sans-Serif" font-size="10.00">okw.SeInputRadio.SeInput</text>
<text text-anchor="middle" x="694" y="-60" font-family="Helvetica,sans-Serif" font-size="10.00">Radio_EN_Test.tc_VerifyCaptionWCM</text>
</a>
</g>
<!-- Node2382&#45;&gt;Node2399 -->
<g id="edge38" class="edge"><title>Node2382&#45;&gt;Node2399</title>
<path fill="none" stroke="midnightblue" d="M466.557,-619.919C473.693,-529.064 506.232,-172.067 582,-95 587.248,-89.6621 593.362,-85.3301 599.975,-81.8239"/>
<polygon fill="midnightblue" stroke="midnightblue" points="463.053,-619.835 465.779,-630.073 470.033,-620.37 463.053,-619.835"/>
</g>
<!-- Node2400 -->
<g id="node41" class="node"><title>Node2400</title>
<a xlink:href="classokw_1_1_se_link_1_1_se_link___e_n___test.html#ad88f4d017f1a55ad12f9ffc5ed0ab336" target="_top" xlink:title="Prüft die Methode SeLink.MemorizeToolTip. ">
<polygon fill="white" stroke="black" points="617,-0 617,-34 771,-34 771,-0 617,-0"/>
<text text-anchor="start" x="625" y="-21" font-family="Helvetica,sans-Serif" font-size="10.00">okw.SeLink.SeLink_EN</text>
<text text-anchor="middle" x="694" y="-8" font-family="Helvetica,sans-Serif" font-size="10.00">_Test.TC_MemorizeToolTip_en</text>
</a>
</g>
<!-- Node2382&#45;&gt;Node2400 -->
<g id="edge40" class="edge"><title>Node2382&#45;&gt;Node2400</title>
<path fill="none" stroke="midnightblue" d="M466.105,-620.405C471.633,-525.178 499.379,-128.555 582,-43 591.429,-33.2359 603.752,-26.8245 616.765,-22.6736"/>
<polygon fill="midnightblue" stroke="midnightblue" points="462.605,-620.302 465.539,-630.483 469.594,-620.695 462.605,-620.302"/>
</g>
</g>
</svg>
        <g id="navigator" transform="translate(0 0)" fill="#404254">
                <rect fill="#f2f5e9" fill-opacity="0.5" stroke="#606060" stroke-width=".5" x="0" y="0" width="60" height="60"/>
                <use id="zoomplus" xlink:href="#zoomPlus" x="17" y="9" onmousedown="handleZoom(evt,'in')"/>
                <use id="zoomminus" xlink:href="#zoomMin" x="42" y="9" onmousedown="handleZoom(evt,'out')"/>
                <use id="reset" xlink:href="#resetDef" x="30" y="36" onmousedown="handleReset()"/>
                <g id="arrowUp" xlink:href="#dirArrow" transform="translate(30 24)" onmousedown="handlePan(0,-1)">
                  <use xlink:href="#rim" fill="#404040">
                        <set attributeName="fill" to="#808080" begin="arrowUp.mouseover" end="arrowUp.mouseout"/>
                  </use>
                  <path fill="none" stroke="white" stroke-width="1.5" d="M0,-3.0v7 M-2.5,-0.5L0,-3.0L2.5,-0.5"/>
                </g>
                <g id="arrowRight" xlink:href="#dirArrow" transform="rotate(90) translate(36 -43)" onmousedown="handlePan(1,0)">
                  <use xlink:href="#rim" fill="#404040">
                        <set attributeName="fill" to="#808080" begin="arrowRight.mouseover" end="arrowRight.mouseout"/>
                  </use>
                  <path fill="none" stroke="white" stroke-width="1.5" d="M0,-3.0v7 M-2.5,-0.5L0,-3.0L2.5,-0.5"/>
                </g>
                <g id="arrowDown" xlink:href="#dirArrow" transform="rotate(180) translate(-30 -48)" onmousedown="handlePan(0,1)">
                  <use xlink:href="#rim" fill="#404040">
                        <set attributeName="fill" to="#808080" begin="arrowDown.mouseover" end="arrowDown.mouseout"/>
                  </use>
                  <path fill="none" stroke="white" stroke-width="1.5" d="M0,-3.0v7 M-2.5,-0.5L0,-3.0L2.5,-0.5"/>
                </g>
                <g id="arrowLeft" xlink:href="#dirArrow" transform="rotate(270) translate(-36 17)" onmousedown="handlePan(-1,0)">
                  <use xlink:href="#rim" fill="#404040">
                        <set attributeName="fill" to="#808080" begin="arrowLeft.mouseover" end="arrowLeft.mouseout"/>
                  </use>
                  <path fill="none" stroke="white" stroke-width="1.5" d="M0,-3.0v7 M-2.5,-0.5L0,-3.0L2.5,-0.5"/>
                </g>
        </g>
        <svg viewBox="0 0 15 15" width="100%" height="30px" preserveAspectRatio="xMaxYMin meet">
         <g id="arrow_out" transform="scale(0.3 0.3)">
          <a xlink:href="interfaceokw_1_1core_1_1_i_o_k_w___state_a8f08ab9f441773a456ea6a0f87f2967f_icgraph_org.svg" target="_base">
           <rect id="button" ry="5" rx="5" y="6" x="6" height="38" width="38"
                fill="#f2f5e9" fill-opacity="0.5" stroke="#606060" stroke-width="1.0"/>
           <path id="arrow"
             d="M 11.500037,31.436501 C 11.940474,20.09759 22.043105,11.32322 32.158766,21.979434 L 37.068811,17.246167 C 37.068811,17.246167 37.088388,32 37.088388,32 L 22.160133,31.978069 C 22.160133,31.978069 26.997745,27.140456 26.997745,27.140456 C 18.528582,18.264221 13.291696,25.230495 11.500037,31.436501 z"
             style="fill:#404040;"/>
          </a>
         </g>
        </svg>
</svg>
