<?xml version="1.0" encoding="UTF-8" standalone="no"?>
<!DOCTYPE svg PUBLIC "-//W3C//DTD SVG 1.1//EN"
 "http://www.w3.org/Graphics/SVG/1.1/DTD/svg11.dtd">
<!-- Generated by graphviz version 2.26.3 (20100126.1600)
 -->
<!-- Title: okw.core.IOKW_State.MemorizeTooltip Pages: 1 -->
<svg width="774pt" height="514pt"
 viewBox="0.00 0.00 774.00 514.00" xmlns="http://www.w3.org/2000/svg" xmlns:xlink="http://www.w3.org/1999/xlink">
<g id="graph1" class="graph" transform="scale(1 1) rotate(0) translate(4 510)">
<title>okw.core.IOKW_State.MemorizeTooltip</title>
<polygon fill="white" stroke="white" points="-4,5 -4,-510 771,-510 771,5 -4,5"/>
<!-- Node748 -->
<g id="node1" class="node"><title>Node748</title>
<polygon fill="#bfbfbf" stroke="black" points="0.5,-209 0.5,-243 161.5,-243 161.5,-209 0.5,-209"/>
<text text-anchor="start" x="8.5" y="-230" font-family="Helvetica,sans-Serif" font-size="10.00">okw.core.IOKW_State.Memorize</text>
<text text-anchor="middle" x="81" y="-217" font-family="Helvetica,sans-Serif" font-size="10.00">Tooltip</text>
</g>
<!-- Node749 -->
<g id="node3" class="node"><title>Node749</title>
<a xlink:href="classokw_1_1core_1_1_core.html#a394fc596a02f7af416f4505a788301c1" target="_top" xlink:title="Dokumentiert den Tooltip&#45;Text (Kurzinformation) des gegebenen Objekts. ">
<polygon fill="white" stroke="black" points="198.5,-215.5 198.5,-236.5 353.5,-236.5 353.5,-215.5 198.5,-215.5"/>
<text text-anchor="middle" x="276" y="-223.5" font-family="Helvetica,sans-Serif" font-size="10.00">okw.core.Core.MemorizeTooltip</text>
</a>
</g>
<!-- Node748&#45;&gt;Node749 -->
<g id="edge2" class="edge"><title>Node748&#45;&gt;Node749</title>
<path fill="none" stroke="midnightblue" d="M171.756,-226C180.687,-226 189.693,-226 198.473,-226"/>
<polygon fill="midnightblue" stroke="midnightblue" points="171.722,-222.5 161.722,-226 171.722,-229.5 171.722,-222.5"/>
</g>
<!-- Node750 -->
<g id="node5" class="node"><title>Node750</title>
<a xlink:href="classokw_1_1core_1_1_e_n.html#ac3baf8611adc749803c55cdd0aaf2c01" target="_top" xlink:title="Dokumentiert den Tooltip&#45;Text (Kurzinformation) des gegebenen Objekts. ">
<polygon fill="white" stroke="black" points="390.5,-242.5 390.5,-263.5 539.5,-263.5 539.5,-242.5 390.5,-242.5"/>
<text text-anchor="middle" x="465" y="-250.5" font-family="Helvetica,sans-Serif" font-size="10.00">okw.core.EN.MemorizeTooltip</text>
</a>
</g>
<!-- Node749&#45;&gt;Node750 -->
<g id="edge4" class="edge"><title>Node749&#45;&gt;Node750</title>
<path fill="none" stroke="midnightblue" d="M359.645,-237.949C370.184,-239.455 380.906,-240.987 391.276,-242.468"/>
<polygon fill="midnightblue" stroke="midnightblue" points="360.008,-234.466 349.614,-236.516 359.018,-241.395 360.008,-234.466"/>
</g>
<!-- Node760 -->
<g id="node25" class="node"><title>Node760</title>
<a xlink:href="classokw_1_1core_1_1_current_object___test.html#a8f8f5284afc1ad9c42422239a21202d3" target="_top" xlink:title="Testziel: Prüft den Aufruf der Methode MemorizeTooltip( FN, MemKey ) im ChildObject. ">
<polygon fill="white" stroke="black" points="400,-176.5 400,-223.5 530,-223.5 530,-176.5 400,-176.5"/>
<text text-anchor="start" x="408" y="-210.5" font-family="Helvetica,sans-Serif" font-size="10.00">okw.core.CurrentObject</text>
<text text-anchor="start" x="408" y="-197.5" font-family="Helvetica,sans-Serif" font-size="10.00">_Test.tc_MemorizeTooltip</text>
<text text-anchor="middle" x="465" y="-184.5" font-family="Helvetica,sans-Serif" font-size="10.00">_ChildObject</text>
</a>
</g>
<!-- Node749&#45;&gt;Node760 -->
<g id="edge24" class="edge"><title>Node749&#45;&gt;Node760</title>
<path fill="none" stroke="midnightblue" d="M362.389,-214.116C375.007,-212.38 387.82,-210.617 399.918,-208.953"/>
<polygon fill="midnightblue" stroke="midnightblue" points="361.758,-210.669 352.329,-215.5 362.712,-217.604 361.758,-210.669"/>
</g>
<!-- Node751 -->
<g id="node7" class="node"><title>Node751</title>
<a xlink:href="classokw_1_1core_1_1_e_n___o_k_w_not_allowed_value_exception___keywords___i_g_n_o_r_e.html#a06035280715d3165c7d36bd6cb226724" target="_top" xlink:title="Prüft ob &quot;${IGNORE} &quot; die Ausnahme okw.exceptions.OKWNotAllowedValueException auslöst. ">
<polygon fill="white" stroke="black" points="576,-458.5 576,-505.5 766,-505.5 766,-458.5 576,-458.5"/>
<text text-anchor="start" x="584" y="-492.5" font-family="Helvetica,sans-Serif" font-size="10.00">okw.core.EN_OKWNotAllowed</text>
<text text-anchor="start" x="584" y="-479.5" font-family="Helvetica,sans-Serif" font-size="10.00">ValueException_Keywords</text>
<text text-anchor="middle" x="671" y="-466.5" font-family="Helvetica,sans-Serif" font-size="10.00">_IGNORE.tcMemorizeTooltipIGNORE1</text>
</a>
</g>
<!-- Node750&#45;&gt;Node751 -->
<g id="edge6" class="edge"><title>Node750&#45;&gt;Node751</title>
<path fill="none" stroke="midnightblue" d="M471.086,-273.253C483.961,-312.735 517.669,-400.373 576,-449 580.157,-452.466 584.701,-455.576 589.476,-458.366"/>
<polygon fill="midnightblue" stroke="midnightblue" points="474.411,-272.16 468.067,-263.675 467.735,-274.265 474.411,-272.16"/>
</g>
<!-- Node752 -->
<g id="node9" class="node"><title>Node752</title>
<a xlink:href="classokw_1_1core_1_1_e_n___o_k_w_not_allowed_value_exception___keywords___i_g_n_o_r_e.html#a302a83a0ef7e26e6cf791fc49ffd5b45" target="_top" xlink:title="Prüft ob &quot;&quot;${IGNORE}${TCN}&quot; die Ausnahme okw.exceptions.OKWNotAllowedValueException auslöst...">
<polygon fill="white" stroke="black" points="576,-392.5 576,-439.5 766,-439.5 766,-392.5 576,-392.5"/>
<text text-anchor="start" x="584" y="-426.5" font-family="Helvetica,sans-Serif" font-size="10.00">okw.core.EN_OKWNotAllowed</text>
<text text-anchor="start" x="584" y="-413.5" font-family="Helvetica,sans-Serif" font-size="10.00">ValueException_Keywords</text>
<text text-anchor="middle" x="671" y="-400.5" font-family="Helvetica,sans-Serif" font-size="10.00">_IGNORE.tcMemorizeTooltipIGNORE2</text>
</a>
</g>
<!-- Node750&#45;&gt;Node752 -->
<g id="edge8" class="edge"><title>Node750&#45;&gt;Node752</title>
<path fill="none" stroke="midnightblue" d="M476.701,-272.329C494.691,-300.503 531.744,-352.774 576,-383 581.046,-386.446 586.489,-389.567 592.124,-392.387"/>
<polygon fill="midnightblue" stroke="midnightblue" points="479.616,-270.389 471.348,-263.765 473.68,-274.1 479.616,-270.389"/>
</g>
<!-- Node753 -->
<g id="node11" class="node"><title>Node753</title>
<a xlink:href="classokw_1_1_se_input_checkbox_1_1_se_input_checkbox___test.html#a7d713e4b57b1260397fb9fd379e8fe63" target="_top" xlink:title="Speichert ob ein vorhandenes objekt existiert. ">
<polygon fill="white" stroke="black" points="586.5,-340 586.5,-374 755.5,-374 755.5,-340 586.5,-340"/>
<text text-anchor="start" x="594.5" y="-361" font-family="Helvetica,sans-Serif" font-size="10.00">okw.SeInputCheckbox.SeInput</text>
<text text-anchor="middle" x="671" y="-348" font-family="Helvetica,sans-Serif" font-size="10.00">Checkbox_Test.tcMemorizeTooltip</text>
</a>
</g>
<!-- Node750&#45;&gt;Node753 -->
<g id="edge10" class="edge"><title>Node750&#45;&gt;Node753</title>
<path fill="none" stroke="midnightblue" d="M484.771,-270.113C506.006,-287.688 541.383,-314.71 576,-331 583.117,-334.349 590.744,-337.334 598.467,-339.978"/>
<polygon fill="midnightblue" stroke="midnightblue" points="487.003,-267.417 477.097,-263.66 482.498,-272.775 487.003,-267.417"/>
</g>
<!-- Node754 -->
<g id="node13" class="node"><title>Node754</title>
<a xlink:href="classokw_1_1_se_input_checkbox_1_1_se_input_checkbox___test.html#a702ffb63f0af2c995bd71ca884b0f408" target="_top" xlink:title="Prüft die SetFocusFunktion bei Textfelder mit dem Attribute &quot;ReadOnly&quot;. ">
<polygon fill="white" stroke="black" points="595,-288 595,-322 747,-322 747,-288 595,-288"/>
<text text-anchor="start" x="603" y="-309" font-family="Helvetica,sans-Serif" font-size="10.00">okw.SeInputCheckbox.SeInput</text>
<text text-anchor="middle" x="671" y="-296" font-family="Helvetica,sans-Serif" font-size="10.00">Checkbox_Test.tcSetFocus</text>
</a>
</g>
<!-- Node750&#45;&gt;Node754 -->
<g id="edge12" class="edge"><title>Node750&#45;&gt;Node754</title>
<path fill="none" stroke="midnightblue" d="M516.455,-265.989C542.767,-272.63 575.126,-280.799 603.423,-287.942"/>
<polygon fill="midnightblue" stroke="midnightblue" points="517.24,-262.577 506.687,-263.523 515.526,-269.364 517.24,-262.577"/>
</g>
<!-- Node755 -->
<g id="node15" class="node"><title>Node755</title>
<a xlink:href="classokw_1_1_se_input_field_1_1_se_input_field___test.html#a42834606dd9c61942a422a853a1a847c" target="_top" xlink:title="Teste das Schlüsselwort MemorizeTooltip( FN, MemKey ) eines SeInputText Prüfen. ">
<polygon fill="white" stroke="black" points="596.5,-236 596.5,-270 745.5,-270 745.5,-236 596.5,-236"/>
<text text-anchor="start" x="604.5" y="-257" font-family="Helvetica,sans-Serif" font-size="10.00">okw.SeInputField.SeInput</text>
<text text-anchor="middle" x="671" y="-244" font-family="Helvetica,sans-Serif" font-size="10.00">Field_Test.tcMemorizeToolTip</text>
</a>
</g>
<!-- Node750&#45;&gt;Node755 -->
<g id="edge14" class="edge"><title>Node750&#45;&gt;Node755</title>
<path fill="none" stroke="midnightblue" d="M549.705,-253C565.135,-253 581.131,-253 596.247,-253"/>
<polygon fill="midnightblue" stroke="midnightblue" points="549.662,-249.5 539.662,-253 549.662,-256.5 549.662,-249.5"/>
</g>
<!-- Node756 -->
<g id="node17" class="node"><title>Node756</title>
<a xlink:href="classokw_1_1_se_input_field_1_1_se_input_field___test.html#aa7612889d0a642c440c6a085e205ac8f" target="_top" xlink:title="okw.SeInputField.SeInput\lField_Test.tcSelect_OKWGUIObject\lNotFoundException">
<polygon fill="white" stroke="black" points="582.5,-170.5 582.5,-217.5 759.5,-217.5 759.5,-170.5 582.5,-170.5"/>
<text text-anchor="start" x="590.5" y="-204.5" font-family="Helvetica,sans-Serif" font-size="10.00">okw.SeInputField.SeInput</text>
<text text-anchor="start" x="590.5" y="-191.5" font-family="Helvetica,sans-Serif" font-size="10.00">Field_Test.tcSelect_OKWGUIObject</text>
<text text-anchor="middle" x="671" y="-178.5" font-family="Helvetica,sans-Serif" font-size="10.00">NotFoundException</text>
</a>
</g>
<!-- Node750&#45;&gt;Node756 -->
<g id="edge16" class="edge"><title>Node750&#45;&gt;Node756</title>
<path fill="none" stroke="midnightblue" d="M515.427,-239.766C523.65,-237.547 532.07,-235.237 540,-233 557.243,-228.135 575.709,-222.748 593.178,-217.569"/>
<polygon fill="midnightblue" stroke="midnightblue" points="514.291,-236.447 505.539,-242.418 516.104,-243.208 514.291,-236.447"/>
</g>
<!-- Node757 -->
<g id="node19" class="node"><title>Node757</title>
<a xlink:href="classokw_1_1_se_input_radio_1_1_se_input_radio___e_n___test.html#a7b83c595bca49f4d2a2d73f59d20a3cc" target="_top" xlink:title="Test des Schlüsselwortes MemorizeTooltip für den GUI&#45;Adapter SeInputRadio. ">
<polygon fill="white" stroke="black" points="583.5,-118 583.5,-152 758.5,-152 758.5,-118 583.5,-118"/>
<text text-anchor="start" x="591.5" y="-139" font-family="Helvetica,sans-Serif" font-size="10.00">okw.SeInputRadio.SeInput</text>
<text text-anchor="middle" x="671" y="-126" font-family="Helvetica,sans-Serif" font-size="10.00">Radio_EN_Test.tc_MemorizeTooltip</text>
</a>
</g>
<!-- Node750&#45;&gt;Node757 -->
<g id="edge18" class="edge"><title>Node750&#45;&gt;Node757</title>
<path fill="none" stroke="midnightblue" d="M533.481,-237.622C535.76,-236.213 537.944,-234.676 540,-233 567.732,-210.396 548.342,-183.695 576,-161 580.098,-157.637 584.596,-154.708 589.338,-152.156"/>
<polygon fill="midnightblue" stroke="midnightblue" points="531.513,-234.701 524.283,-242.445 534.764,-240.9 531.513,-234.701"/>
</g>
<!-- Node758 -->
<g id="node21" class="node"><title>Node758</title>
<a xlink:href="classokw_1_1_se_link_1_1_se_link___e_n___test.html#ad88f4d017f1a55ad12f9ffc5ed0ab336" target="_top" xlink:title="Prüft die Methode SeLink.MemorizeToolTip. ">
<polygon fill="white" stroke="black" points="594,-66 594,-100 748,-100 748,-66 594,-66"/>
<text text-anchor="start" x="602" y="-87" font-family="Helvetica,sans-Serif" font-size="10.00">okw.SeLink.SeLink_EN</text>
<text text-anchor="middle" x="671" y="-74" font-family="Helvetica,sans-Serif" font-size="10.00">_Test.TC_MemorizeToolTip_en</text>
</a>
</g>
<!-- Node750&#45;&gt;Node758 -->
<g id="edge20" class="edge"><title>Node750&#45;&gt;Node758</title>
<path fill="none" stroke="midnightblue" d="M535.416,-236.956C537.022,-235.73 538.555,-234.414 540,-233 581.021,-192.869 535.11,-149.265 576,-109 581.117,-103.961 587.113,-99.8755 593.56,-96.5664"/>
<polygon fill="midnightblue" stroke="midnightblue" points="533.438,-234.066 526.85,-242.363 537.174,-239.985 533.438,-234.066"/>
</g>
<!-- Node759 -->
<g id="node23" class="node"><title>Node759</title>
<a xlink:href="classokw_1_1_se_radio_list_1_1_se_radio_list___test.html#a570eb3cf73952fbe534422dd7abc1449" target="_top" xlink:title="Prüft die Methode SeRadioList.MemorizeLabel. ">
<polygon fill="white" stroke="black" points="589,-0.5 589,-47.5 753,-47.5 753,-0.5 589,-0.5"/>
<text text-anchor="start" x="597" y="-34.5" font-family="Helvetica,sans-Serif" font-size="10.00">okw.SeRadioList.SeRadioList</text>
<text text-anchor="start" x="597" y="-21.5" font-family="Helvetica,sans-Serif" font-size="10.00">_Test.tcMemorizeLabel_Empty</text>
<text text-anchor="middle" x="671" y="-8.5" font-family="Helvetica,sans-Serif" font-size="10.00">_OKWNotAllowedValueException</text>
</a>
</g>
<!-- Node750&#45;&gt;Node759 -->
<g id="edge22" class="edge"><title>Node750&#45;&gt;Node759</title>
<path fill="none" stroke="midnightblue" d="M536.066,-236.7C537.445,-235.546 538.761,-234.314 540,-233 594.772,-174.907 523.407,-117.072 576,-57 579.795,-52.6649 584.191,-48.8992 588.969,-45.6279"/>
<polygon fill="midnightblue" stroke="midnightblue" points="533.842,-233.979 527.537,-242.494 537.776,-239.77 533.842,-233.979"/>
</g>
</g>
</svg>
