<?xml version="1.0" encoding="UTF-8" standalone="no"?>
<!DOCTYPE svg PUBLIC "-//W3C//DTD SVG 1.1//EN"
 "http://www.w3.org/Graphics/SVG/1.1/DTD/svg11.dtd">
<!-- Generated by graphviz version 2.36.0 (20140111.2315)
 -->
<!-- Title: okw.core.IOKW_State.VerifyLabel Pages: 1 -->
<svg width="722pt" height="1549pt"
 viewBox="0.00 0.00 722.00 1549.00" xmlns="http://www.w3.org/2000/svg" xmlns:xlink="http://www.w3.org/1999/xlink">
<g id="graph0" class="graph" transform="scale(1 1) rotate(0) translate(4 1545)">
<title>okw.core.IOKW_State.VerifyLabel</title>
<polygon fill="white" stroke="none" points="-4,4 -4,-1545 718,-1545 718,4 -4,4"/>
<!-- Node3534 -->
<g id="node1" class="node"><title>Node3534</title>
<polygon fill="#bfbfbf" stroke="black" points="0.5,-710 0.5,-740 143.5,-740 143.5,-710 0.5,-710"/>
<text text-anchor="start" x="8.5" y="-728" font-family="Helvetica,sans-Serif" font-size="10.00">okw.core.IOKW_State.Verify</text>
<text text-anchor="middle" x="72" y="-717" font-family="Helvetica,sans-Serif" font-size="10.00">Label</text>
</g>
<!-- Node3535 -->
<g id="node2" class="node"><title>Node3535</title>
<g id="a_node2"><a xlink:href="classokw_1_1core_1_1_core.html#a278a288682afcbfad17e90df17e3c53d" target="_top" xlink:title="Überprüft die Beschreibung des Objektes. ">
<polygon fill="white" stroke="black" points="180,-715.5 180,-734.5 312,-734.5 312,-715.5 180,-715.5"/>
<text text-anchor="middle" x="246" y="-722.5" font-family="Helvetica,sans-Serif" font-size="10.00">okw.core.Core.VerifyLabel</text>
</a>
</g>
</g>
<!-- Node3534&#45;&gt;Node3535 -->
<g id="edge1" class="edge"><title>Node3534&#45;&gt;Node3535</title>
<path fill="none" stroke="midnightblue" d="M154.019,-725C162.638,-725 171.324,-725 179.729,-725"/>
<polygon fill="midnightblue" stroke="midnightblue" points="153.952,-721.5 143.952,-725 153.952,-728.5 153.952,-721.5"/>
</g>
<!-- Node3536 -->
<g id="node3" class="node"><title>Node3536</title>
<g id="a_node3"><a xlink:href="classokw_1_1core_1_1_e_n.html#a81fa4af81b53e8e8fc2274e3767b9dce" target="_top" xlink:title="Überprüft die Beschreibung des Objektes. ">
<polygon fill="white" stroke="black" points="348.5,-715.5 348.5,-734.5 473.5,-734.5 473.5,-715.5 348.5,-715.5"/>
<text text-anchor="middle" x="411" y="-722.5" font-family="Helvetica,sans-Serif" font-size="10.00">okw.core.EN.VerifyLabel</text>
</a>
</g>
</g>
<!-- Node3535&#45;&gt;Node3536 -->
<g id="edge2" class="edge"><title>Node3535&#45;&gt;Node3536</title>
<path fill="none" stroke="midnightblue" d="M322.462,-725C331.125,-725 339.879,-725 348.329,-725"/>
<polygon fill="midnightblue" stroke="midnightblue" points="322.359,-721.5 312.359,-725 322.359,-728.5 322.359,-721.5"/>
</g>
<!-- Node3537 -->
<g id="node4" class="node"><title>Node3537</title>
<g id="a_node4"><a xlink:href="classokw_1_1core_1_1_e_n___keywords___a_n_t_l_r___test.html#aa3552e4c8cbb84244d0a93a3db442d80" target="_top" xlink:title="okw.core.EN_Keywords\l_ANTLR_Test.tc_VerifyLabel\l_MemorizedValue">
<polygon fill="white" stroke="black" points="539.5,-1499.5 539.5,-1540.5 684.5,-1540.5 684.5,-1499.5 539.5,-1499.5"/>
<text text-anchor="start" x="547.5" y="-1528.5" font-family="Helvetica,sans-Serif" font-size="10.00">okw.core.EN_Keywords</text>
<text text-anchor="start" x="547.5" y="-1517.5" font-family="Helvetica,sans-Serif" font-size="10.00">_ANTLR_Test.tc_VerifyLabel</text>
<text text-anchor="middle" x="612" y="-1506.5" font-family="Helvetica,sans-Serif" font-size="10.00">_MemorizedValue</text>
</a>
</g>
</g>
<!-- Node3536&#45;&gt;Node3537 -->
<g id="edge3" class="edge"><title>Node3536&#45;&gt;Node3537</title>
<path fill="none" stroke="midnightblue" d="M411.746,-744.925C410.768,-853.372 411.366,-1371.97 510,-1489 517.742,-1498.19 528.135,-1504.7 539.314,-1509.31"/>
<polygon fill="midnightblue" stroke="midnightblue" points="415.248,-744.78 411.855,-734.743 408.248,-744.705 415.248,-744.78"/>
</g>
<!-- Node3538 -->
<g id="node5" class="node"><title>Node3538</title>
<g id="a_node5"><a xlink:href="classokw_1_1core_1_1_e_n___keywords___d_e_l_e_t_e___test.html#a0e62a17933f21dc8c45b22def98ac192" target="_top" xlink:title="okw.core.EN_Keywords\l_DELETE_Test.tcSelectMenu\l_Value_MV_DELETE_EmptyString">
<polygon fill="white" stroke="black" points="527,-1439.5 527,-1480.5 697,-1480.5 697,-1439.5 527,-1439.5"/>
<text text-anchor="start" x="535" y="-1468.5" font-family="Helvetica,sans-Serif" font-size="10.00">okw.core.EN_Keywords</text>
<text text-anchor="start" x="535" y="-1457.5" font-family="Helvetica,sans-Serif" font-size="10.00">_DELETE_Test.tcSelectMenu</text>
<text text-anchor="middle" x="612" y="-1446.5" font-family="Helvetica,sans-Serif" font-size="10.00">_Value_MV_DELETE_EmptyString</text>
</a>
</g>
</g>
<!-- Node3536&#45;&gt;Node3538 -->
<g id="edge4" class="edge"><title>Node3536&#45;&gt;Node3538</title>
<path fill="none" stroke="midnightblue" d="M411.988,-744.955C412.324,-848.304 418.877,-1322.05 510,-1429 514.758,-1434.58 520.495,-1439.18 526.789,-1442.96"/>
<polygon fill="midnightblue" stroke="midnightblue" points="415.487,-744.693 411.972,-734.698 408.487,-744.704 415.487,-744.693"/>
</g>
<!-- Node3539 -->
<g id="node6" class="node"><title>Node3539</title>
<g id="a_node6"><a xlink:href="classokw_1_1core_1_1_e_n___keywords___empty___test.html#a795ebffbf7497fe2f858f8edaabe4892" target="_top" xlink:title="Prüft &quot;${EMPTY}&quot; für das Schlüsslewort VerifyLabel(strng,string) ">
<polygon fill="white" stroke="black" points="539,-1379.5 539,-1420.5 685,-1420.5 685,-1379.5 539,-1379.5"/>
<text text-anchor="start" x="547" y="-1408.5" font-family="Helvetica,sans-Serif" font-size="10.00">okw.core.EN_Keywords</text>
<text text-anchor="start" x="547" y="-1397.5" font-family="Helvetica,sans-Serif" font-size="10.00">_Empty_Test.tc_VerifyLabel_</text>
<text text-anchor="middle" x="612" y="-1386.5" font-family="Helvetica,sans-Serif" font-size="10.00">Empty</text>
</a>
</g>
</g>
<!-- Node3536&#45;&gt;Node3539 -->
<g id="edge5" class="edge"><title>Node3536&#45;&gt;Node3539</title>
<path fill="none" stroke="midnightblue" d="M412.275,-745.08C414.021,-843.279 426.394,-1272.12 510,-1369 517.73,-1377.96 527.976,-1384.37 538.98,-1388.95"/>
<polygon fill="midnightblue" stroke="midnightblue" points="415.77,-744.731 412.111,-734.788 408.771,-744.843 415.77,-744.731"/>
</g>
<!-- Node3540 -->
<g id="node7" class="node"><title>Node3540</title>
<g id="a_node7"><a xlink:href="classokw_1_1core_1_1_e_n___keywords___i_g_n_o_r_e___test.html#ab1a949e15601bc0b261d34c106f9427d" target="_top" xlink:title="okw.core.EN_Keywords\l_IGNORE_Test.tcVerifyLabel\l_IGNORE_EmptyString">
<polygon fill="white" stroke="black" points="539,-1319.5 539,-1360.5 685,-1360.5 685,-1319.5 539,-1319.5"/>
<text text-anchor="start" x="547" y="-1348.5" font-family="Helvetica,sans-Serif" font-size="10.00">okw.core.EN_Keywords</text>
<text text-anchor="start" x="547" y="-1337.5" font-family="Helvetica,sans-Serif" font-size="10.00">_IGNORE_Test.tcVerifyLabel</text>
<text text-anchor="middle" x="612" y="-1326.5" font-family="Helvetica,sans-Serif" font-size="10.00">_IGNORE_EmptyString</text>
</a>
</g>
</g>
<!-- Node3536&#45;&gt;Node3540 -->
<g id="edge6" class="edge"><title>Node3536&#45;&gt;Node3540</title>
<path fill="none" stroke="midnightblue" d="M412.615,-744.936C415.854,-837.213 433.81,-1222.07 510,-1309 517.737,-1317.83 527.918,-1324.18 538.838,-1328.74"/>
<polygon fill="midnightblue" stroke="midnightblue" points="416.106,-744.626 412.276,-734.747 409.11,-744.858 416.106,-744.626"/>
</g>
<!-- Node3541 -->
<g id="node8" class="node"><title>Node3541</title>
<g id="a_node8"><a xlink:href="classokw_1_1core_1_1_e_n___keywords___i_g_n_o_r_e___test.html#a7874d22533bab9ebe68c087d9f00e716" target="_top" xlink:title="okw.core.EN_Keywords\l_IGNORE_Test.tcVerifyLabel\l_IGNORE">
<polygon fill="white" stroke="black" points="539,-1259.5 539,-1300.5 685,-1300.5 685,-1259.5 539,-1259.5"/>
<text text-anchor="start" x="547" y="-1288.5" font-family="Helvetica,sans-Serif" font-size="10.00">okw.core.EN_Keywords</text>
<text text-anchor="start" x="547" y="-1277.5" font-family="Helvetica,sans-Serif" font-size="10.00">_IGNORE_Test.tcVerifyLabel</text>
<text text-anchor="middle" x="612" y="-1266.5" font-family="Helvetica,sans-Serif" font-size="10.00">_IGNORE</text>
</a>
</g>
</g>
<!-- Node3536&#45;&gt;Node3541 -->
<g id="edge7" class="edge"><title>Node3536&#45;&gt;Node3541</title>
<path fill="none" stroke="midnightblue" d="M413.001,-744.816C417.748,-831.094 440.729,-1173.11 510,-1250 517.774,-1258.63 527.906,-1264.82 538.748,-1269.26"/>
<polygon fill="midnightblue" stroke="midnightblue" points="416.483,-744.391 412.459,-734.59 409.493,-744.761 416.483,-744.391"/>
</g>
<!-- Node3542 -->
<g id="node9" class="node"><title>Node3542</title>
<g id="a_node9"><a xlink:href="classokw_1_1core_1_1_e_n___keywords___test.html#afdc4701233a4a1befffba818235fb52e" target="_top" xlink:title="&quot;Normaler&quot; Testfall für das Schlüsselwort EN.VerifyLabel(String,String). ">
<polygon fill="white" stroke="black" points="551,-1211 551,-1241 673,-1241 673,-1211 551,-1211"/>
<text text-anchor="start" x="559" y="-1229" font-family="Helvetica,sans-Serif" font-size="10.00">okw.core.EN_Keywords</text>
<text text-anchor="middle" x="612" y="-1218" font-family="Helvetica,sans-Serif" font-size="10.00">_Test.tc_VerifyLabel</text>
</a>
</g>
</g>
<!-- Node3536&#45;&gt;Node3542 -->
<g id="edge8" class="edge"><title>Node3536&#45;&gt;Node3542</title>
<path fill="none" stroke="midnightblue" d="M413.324,-744.822C419.158,-826.212 445.218,-1133.6 510,-1201 520.765,-1212.2 535.696,-1218.7 550.778,-1222.39"/>
<polygon fill="midnightblue" stroke="midnightblue" points="416.792,-744.243 412.608,-734.509 409.809,-744.728 416.792,-744.243"/>
</g>
<!-- Node3543 -->
<g id="node10" class="node"><title>Node3543</title>
<g id="a_node10"><a xlink:href="classokw_1_1core_1_1_e_n___o_k_w_frame_object_child_not_found_exception___test.html#a493b5450b4158a150ea3cc0a7164085e" target="_top" xlink:title="Prüft ob die Ausnahme OKWFrameObjectChildNotFoundException durch die LFC&#45;VerifyCaption ausgelöst wird...">
<polygon fill="white" stroke="black" points="513.5,-1140 513.5,-1192 710.5,-1192 710.5,-1140 513.5,-1140"/>
<text text-anchor="start" x="521.5" y="-1180" font-family="Helvetica,sans-Serif" font-size="10.00">okw.core.EN_OKWFrameObject</text>
<text text-anchor="start" x="521.5" y="-1169" font-family="Helvetica,sans-Serif" font-size="10.00">ChildNotFoundException</text>
<text text-anchor="start" x="521.5" y="-1158" font-family="Helvetica,sans-Serif" font-size="10.00">_Test.TC_VerifyLabel_OKWFrameObject</text>
<text text-anchor="middle" x="612" y="-1147" font-family="Helvetica,sans-Serif" font-size="10.00">ChildNotFoundException</text>
</a>
</g>
</g>
<!-- Node3536&#45;&gt;Node3543 -->
<g id="edge9" class="edge"><title>Node3536&#45;&gt;Node3543</title>
<path fill="none" stroke="midnightblue" d="M414.311,-744.924C423.173,-818.17 457.168,-1071.31 510,-1130 513.238,-1133.6 516.86,-1136.84 520.755,-1139.75"/>
<polygon fill="midnightblue" stroke="midnightblue" points="417.76,-744.288 413.105,-734.771 410.809,-745.114 417.76,-744.288"/>
</g>
<!-- Node3544 -->
<g id="node11" class="node"><title>Node3544</title>
<g id="a_node11"><a xlink:href="classokw_1_1core_1_1_e_n___o_k_w_frame_object_method_not_implemented___test.html#a2dfff1dd9eb94603406b43bf461cc341" target="_top" xlink:title="Prüft ob die Ausnahme OKWFrameObjectMethodNotImplemented von VerifyCaption( FN, ExpVal ) ausgelöst wi...">
<polygon fill="white" stroke="black" points="510,-1069 510,-1121 714,-1121 714,-1069 510,-1069"/>
<text text-anchor="start" x="518" y="-1109" font-family="Helvetica,sans-Serif" font-size="10.00">okw.core.EN_OKWFrameObject</text>
<text text-anchor="start" x="518" y="-1098" font-family="Helvetica,sans-Serif" font-size="10.00">MethodNotImplemented_Test.TC</text>
<text text-anchor="start" x="518" y="-1087" font-family="Helvetica,sans-Serif" font-size="10.00">_VerifyLabel_OKWFrameObjectMethodNot</text>
<text text-anchor="middle" x="612" y="-1076" font-family="Helvetica,sans-Serif" font-size="10.00">Implemented</text>
</a>
</g>
</g>
<!-- Node3536&#45;&gt;Node3544 -->
<g id="edge10" class="edge"><title>Node3536&#45;&gt;Node3544</title>
<path fill="none" stroke="midnightblue" d="M411.98,-744.8C413,-801.42 423.645,-965.847 510,-1058 513.831,-1062.09 518.151,-1065.73 522.793,-1068.96"/>
<polygon fill="midnightblue" stroke="midnightblue" points="415.479,-744.658 411.884,-734.691 408.479,-744.724 415.479,-744.658"/>
</g>
<!-- Node3545 -->
<g id="node12" class="node"><title>Node3545</title>
<g id="a_node12"><a xlink:href="classokw_1_1core_1_1_e_n___o_k_w_not_allowed_value_exception___keywords___i_g_n_o_r_e.html#af0539040232d96a34805011c128e0bad" target="_top" xlink:title="Prüft ob &quot;${IGNORE} &quot; die Ausnahme okw.exceptions.OKWNotAllowedValueException auslöst. ">
<polygon fill="white" stroke="black" points="528.5,-1008.5 528.5,-1049.5 695.5,-1049.5 695.5,-1008.5 528.5,-1008.5"/>
<text text-anchor="start" x="536.5" y="-1037.5" font-family="Helvetica,sans-Serif" font-size="10.00">okw.core.EN_OKWNotAllowed</text>
<text text-anchor="start" x="536.5" y="-1026.5" font-family="Helvetica,sans-Serif" font-size="10.00">ValueException_Keywords</text>
<text text-anchor="middle" x="612" y="-1015.5" font-family="Helvetica,sans-Serif" font-size="10.00">_IGNORE.tcVerifyLabelIGNORE1</text>
</a>
</g>
</g>
<!-- Node3536&#45;&gt;Node3545 -->
<g id="edge11" class="edge"><title>Node3536&#45;&gt;Node3545</title>
<path fill="none" stroke="midnightblue" d="M413.224,-744.681C417.395,-794.506 435.304,-926.723 510,-998 515.441,-1003.19 521.729,-1007.52 528.455,-1011.12"/>
<polygon fill="midnightblue" stroke="midnightblue" points="416.707,-744.32 412.48,-734.605 409.726,-744.836 416.707,-744.32"/>
</g>
<!-- Node3546 -->
<g id="node13" class="node"><title>Node3546</title>
<g id="a_node13"><a xlink:href="classokw_1_1core_1_1_e_n___o_k_w_not_allowed_value_exception___keywords___i_g_n_o_r_e.html#a2c83a1a7cabe15d8e97851304d2c0b6b" target="_top" xlink:title="Prüft ob &quot;&quot;${IGNORE}${TCN}&quot; die Ausnahme okw.exceptions.OKWNotAllowedValueException auslöst...">
<polygon fill="white" stroke="black" points="528.5,-948.5 528.5,-989.5 695.5,-989.5 695.5,-948.5 528.5,-948.5"/>
<text text-anchor="start" x="536.5" y="-977.5" font-family="Helvetica,sans-Serif" font-size="10.00">okw.core.EN_OKWNotAllowed</text>
<text text-anchor="start" x="536.5" y="-966.5" font-family="Helvetica,sans-Serif" font-size="10.00">ValueException_Keywords</text>
<text text-anchor="middle" x="612" y="-955.5" font-family="Helvetica,sans-Serif" font-size="10.00">_IGNORE.tcVerifyLabelIGNORE2</text>
</a>
</g>
</g>
<!-- Node3536&#45;&gt;Node3546 -->
<g id="edge12" class="edge"><title>Node3536&#45;&gt;Node3546</title>
<path fill="none" stroke="midnightblue" d="M415.488,-744.764C423.924,-786.677 449.381,-884.973 510,-938 515.522,-942.831 521.785,-946.908 528.421,-950.351"/>
<polygon fill="midnightblue" stroke="midnightblue" points="418.888,-743.907 413.583,-734.736 412.011,-745.213 418.888,-743.907"/>
</g>
<!-- Node3547 -->
<g id="node14" class="node"><title>Node3547</title>
<g id="a_node14"><a xlink:href="classokw_1_1core_1_1_e_n___verify_label___o_k_w_verifying_fails_exception___test.html#aa9c548ebb444ae8b8b8424e1bf76e8bc" target="_top" xlink:title="Prüft, ob die Ausnahme OKWVerifyingFailsException bei einem Soll/Ist&#45;Vergleich ausgelöst wird...">
<polygon fill="white" stroke="black" points="512,-877 512,-929 712,-929 712,-877 512,-877"/>
<text text-anchor="start" x="520" y="-917" font-family="Helvetica,sans-Serif" font-size="10.00">okw.core.EN_VerifyLabel</text>
<text text-anchor="start" x="520" y="-906" font-family="Helvetica,sans-Serif" font-size="10.00">_OKWVerifyingFailsException</text>
<text text-anchor="start" x="520" y="-895" font-family="Helvetica,sans-Serif" font-size="10.00">_Test.TC_VerifyLabel_OKWVerifyingFails</text>
<text text-anchor="middle" x="612" y="-884" font-family="Helvetica,sans-Serif" font-size="10.00">Exception_SV01</text>
</a>
</g>
</g>
<!-- Node3536&#45;&gt;Node3547 -->
<g id="edge13" class="edge"><title>Node3536&#45;&gt;Node3547</title>
<path fill="none" stroke="midnightblue" d="M420.456,-744.281C434.685,-774.594 466.211,-833.396 510,-867 514.726,-870.627 519.848,-873.909 525.194,-876.877"/>
<polygon fill="midnightblue" stroke="midnightblue" points="423.484,-742.485 416.153,-734.836 417.114,-745.387 423.484,-742.485"/>
</g>
<!-- Node3548 -->
<g id="node15" class="node"><title>Node3548</title>
<g id="a_node15"><a xlink:href="classokw_1_1core_1_1_e_n___verify_label___o_k_w_verifying_fails_exception___test.html#a4eb90d484ffa394f32c424cfbcd0c67e" target="_top" xlink:title="Prüft, ob die Ausnahme OKWVerifyingFailsException bei einem Soll/Ist&#45;Vergleich ausgelöst wird...">
<polygon fill="white" stroke="black" points="512,-806 512,-858 712,-858 712,-806 512,-806"/>
<text text-anchor="start" x="520" y="-846" font-family="Helvetica,sans-Serif" font-size="10.00">okw.core.EN_VerifyLabel</text>
<text text-anchor="start" x="520" y="-835" font-family="Helvetica,sans-Serif" font-size="10.00">_OKWVerifyingFailsException</text>
<text text-anchor="start" x="520" y="-824" font-family="Helvetica,sans-Serif" font-size="10.00">_Test.TC_VerifyLabel_OKWVerifyingFails</text>
<text text-anchor="middle" x="612" y="-813" font-family="Helvetica,sans-Serif" font-size="10.00">Exception_SV02</text>
</a>
</g>
</g>
<!-- Node3536&#45;&gt;Node3548 -->
<g id="edge14" class="edge"><title>Node3536&#45;&gt;Node3548</title>
<path fill="none" stroke="midnightblue" d="M430.926,-741.242C449.914,-756.907 480.499,-780.465 510,-796 516.753,-799.556 523.934,-802.897 531.232,-805.999"/>
<polygon fill="midnightblue" stroke="midnightblue" points="432.977,-738.394 423.063,-734.657 428.482,-743.761 432.977,-738.394"/>
</g>
<!-- Node3549 -->
<g id="node16" class="node"><title>Node3549</title>
<g id="a_node16"><a xlink:href="classokw_1_1core_1_1_e_n___verify_label___o_k_w_verifying_fails_exception___test.html#a565740187d2c414e2d316bc8dd8c6dd9" target="_top" xlink:title="Prüft, ob die Ausnahme OKWVerifyingFailsException bei einem Soll/Ist&#45;Vergleich ausgelöst wird...">
<polygon fill="white" stroke="black" points="512,-735 512,-787 712,-787 712,-735 512,-735"/>
<text text-anchor="start" x="520" y="-775" font-family="Helvetica,sans-Serif" font-size="10.00">okw.core.EN_VerifyLabel</text>
<text text-anchor="start" x="520" y="-764" font-family="Helvetica,sans-Serif" font-size="10.00">_OKWVerifyingFailsException</text>
<text text-anchor="start" x="520" y="-753" font-family="Helvetica,sans-Serif" font-size="10.00">_Test.TC_VerifyLabel_OKWVerifyingFails</text>
<text text-anchor="middle" x="612" y="-742" font-family="Helvetica,sans-Serif" font-size="10.00">Exception_SV03</text>
</a>
</g>
</g>
<!-- Node3536&#45;&gt;Node3549 -->
<g id="edge15" class="edge"><title>Node3536&#45;&gt;Node3549</title>
<path fill="none" stroke="midnightblue" d="M474.735,-736.349C486.591,-738.494 499.258,-740.785 511.915,-743.075"/>
<polygon fill="midnightblue" stroke="midnightblue" points="475.009,-732.842 464.545,-734.506 473.762,-739.73 475.009,-732.842"/>
</g>
<!-- Node3550 -->
<g id="node17" class="node"><title>Node3550</title>
<g id="a_node17"><a xlink:href="classokw_1_1core_1_1_e_n___verify_label___o_k_w_verifying_fails_exception___test.html#a54103277312a054fa96bbde85360bf31" target="_top" xlink:title="Prüft, ob die Ausnahme OKWVerifyingFailsException bei einem Soll/Ist&#45;Vergleich ausgelöst wird...">
<polygon fill="white" stroke="black" points="512,-664 512,-716 712,-716 712,-664 512,-664"/>
<text text-anchor="start" x="520" y="-704" font-family="Helvetica,sans-Serif" font-size="10.00">okw.core.EN_VerifyLabel</text>
<text text-anchor="start" x="520" y="-693" font-family="Helvetica,sans-Serif" font-size="10.00">_OKWVerifyingFailsException</text>
<text text-anchor="start" x="520" y="-682" font-family="Helvetica,sans-Serif" font-size="10.00">_Test.TC_VerifyLabel_OKWVerifyingFails</text>
<text text-anchor="middle" x="612" y="-671" font-family="Helvetica,sans-Serif" font-size="10.00">Exception_MV01</text>
</a>
</g>
</g>
<!-- Node3536&#45;&gt;Node3550 -->
<g id="edge16" class="edge"><title>Node3536&#45;&gt;Node3550</title>
<path fill="none" stroke="midnightblue" d="M476.305,-713.69C487.638,-711.697 499.67,-709.581 511.698,-707.465"/>
<polygon fill="midnightblue" stroke="midnightblue" points="475.357,-710.303 466.115,-715.482 476.57,-717.197 475.357,-710.303"/>
</g>
<!-- Node3551 -->
<g id="node18" class="node"><title>Node3551</title>
<g id="a_node18"><a xlink:href="classokw_1_1core_1_1_e_n___verify_label___o_k_w_verifying_fails_exception___test.html#a654fcf5b8ce2d08403175440d9fb8eaa" target="_top" xlink:title="Prüft, ob die Ausnahme OKWVerifyingFailsException bei einem Soll/Ist&#45;Vergleich ausgelöst wird...">
<polygon fill="white" stroke="black" points="512,-593 512,-645 712,-645 712,-593 512,-593"/>
<text text-anchor="start" x="520" y="-633" font-family="Helvetica,sans-Serif" font-size="10.00">okw.core.EN_VerifyLabel</text>
<text text-anchor="start" x="520" y="-622" font-family="Helvetica,sans-Serif" font-size="10.00">_OKWVerifyingFailsException</text>
<text text-anchor="start" x="520" y="-611" font-family="Helvetica,sans-Serif" font-size="10.00">_Test.TC_VerifyLabel_OKWVerifyingFails</text>
<text text-anchor="middle" x="612" y="-600" font-family="Helvetica,sans-Serif" font-size="10.00">Exception_MV02</text>
</a>
</g>
</g>
<!-- Node3536&#45;&gt;Node3551 -->
<g id="edge17" class="edge"><title>Node3536&#45;&gt;Node3551</title>
<path fill="none" stroke="midnightblue" d="M430.965,-709.006C449.983,-693.577 480.589,-670.361 510,-655 516.765,-651.467 523.954,-648.142 531.257,-645.049"/>
<polygon fill="midnightblue" stroke="midnightblue" points="428.584,-706.433 423.088,-715.491 433.033,-711.837 428.584,-706.433"/>
</g>
<!-- Node3552 -->
<g id="node19" class="node"><title>Node3552</title>
<g id="a_node19"><a xlink:href="classokw_1_1core_1_1_e_n___verify_label___o_k_w_verifying_fails_exception___test.html#a39444df808b6cb73af9c88c373aceb4c" target="_top" xlink:title="Prüft, ob die Ausnahme OKWVerifyingFailsException bei einem Soll/Ist&#45;Vergleich ausgelöst wird...">
<polygon fill="white" stroke="black" points="512,-522 512,-574 712,-574 712,-522 512,-522"/>
<text text-anchor="start" x="520" y="-562" font-family="Helvetica,sans-Serif" font-size="10.00">okw.core.EN_VerifyLabel</text>
<text text-anchor="start" x="520" y="-551" font-family="Helvetica,sans-Serif" font-size="10.00">_OKWVerifyingFailsException</text>
<text text-anchor="start" x="520" y="-540" font-family="Helvetica,sans-Serif" font-size="10.00">_Test.TC_VerifyLabel_OKWVerifyingFails</text>
<text text-anchor="middle" x="612" y="-529" font-family="Helvetica,sans-Serif" font-size="10.00">Exception_MV03</text>
</a>
</g>
</g>
<!-- Node3536&#45;&gt;Node3552 -->
<g id="edge18" class="edge"><title>Node3536&#45;&gt;Node3552</title>
<path fill="none" stroke="midnightblue" d="M420.492,-705.856C434.771,-675.758 466.365,-617.372 510,-584 514.806,-580.325 520.019,-577.002 525.459,-574.003"/>
<polygon fill="midnightblue" stroke="midnightblue" points="417.177,-704.687 416.172,-715.234 423.535,-707.616 417.177,-704.687"/>
</g>
<!-- Node3553 -->
<g id="node20" class="node"><title>Node3553</title>
<g id="a_node20"><a xlink:href="classokw_1_1_se_b_a_c_k_1_1_se_b_a_c_k___e_n___test.html#a0489148f137597023eeb8e2494ec4a62" target="_top" xlink:title="Test des Schlüsselwortes &quot;VerifyLabel( FN, ExpVal ) für SeBACK. ">
<polygon fill="white" stroke="black" points="533,-461.5 533,-502.5 691,-502.5 691,-461.5 533,-461.5"/>
<text text-anchor="start" x="541" y="-490.5" font-family="Helvetica,sans-Serif" font-size="10.00">okw.SeBACK.SeBACK_EN</text>
<text text-anchor="start" x="541" y="-479.5" font-family="Helvetica,sans-Serif" font-size="10.00">_Test.tcVerifyLabel_OKWFrame</text>
<text text-anchor="middle" x="612" y="-468.5" font-family="Helvetica,sans-Serif" font-size="10.00">ObjectMethodNotImplemented</text>
</a>
</g>
</g>
<!-- Node3536&#45;&gt;Node3553 -->
<g id="edge19" class="edge"><title>Node3536&#45;&gt;Node3553</title>
<path fill="none" stroke="midnightblue" d="M415.517,-705.327C424.009,-663.608 449.568,-565.768 510,-513 516.77,-507.089 524.649,-502.304 532.963,-498.433"/>
<polygon fill="midnightblue" stroke="midnightblue" points="412.049,-704.828 413.598,-715.309 418.923,-706.15 412.049,-704.828"/>
</g>
<!-- Node3554 -->
<g id="node21" class="node"><title>Node3554</title>
<g id="a_node21"><a xlink:href="classokw_1_1_se_button_1_1_se_button___e_n___test.html#a5b37608bfe96e5127f4c26f0d91ea047" target="_top" xlink:title="Test des Schlüsselwortes VerifyLabel für den GUI&#45;Adapter SeButton. ">
<polygon fill="white" stroke="black" points="551,-413 551,-443 673,-443 673,-413 551,-413"/>
<text text-anchor="start" x="559" y="-431" font-family="Helvetica,sans-Serif" font-size="10.00">okw.SeButton.SeButton</text>
<text text-anchor="middle" x="612" y="-420" font-family="Helvetica,sans-Serif" font-size="10.00">_EN_Test.tcVerifyLabel</text>
</a>
</g>
</g>
<!-- Node3536&#45;&gt;Node3554 -->
<g id="edge20" class="edge"><title>Node3536&#45;&gt;Node3554</title>
<path fill="none" stroke="midnightblue" d="M412.956,-705.028C416.495,-654.52 433.044,-520.831 510,-452 521.284,-441.907 536.037,-435.854 550.768,-432.276"/>
<polygon fill="midnightblue" stroke="midnightblue" points="409.448,-705.055 412.343,-715.247 416.435,-705.474 409.448,-705.055"/>
</g>
<!-- Node3555 -->
<g id="node22" class="node"><title>Node3555</title>
<g id="a_node22"><a xlink:href="classokw_1_1_se_input_checkbox_1_1_se_input_checkbox___e_n___test.html#ad572d5badb79741c496835cbb5c2d6df" target="_top" xlink:title="Prüft die SetFocusFunktion bei Textfelder mit dem Attribute &quot;ReadOnly&quot;. ">
<polygon fill="white" stroke="black" points="533,-364 533,-394 691,-394 691,-364 533,-364"/>
<text text-anchor="start" x="541" y="-382" font-family="Helvetica,sans-Serif" font-size="10.00">okw.SeInputCheckbox.SeInput</text>
<text text-anchor="middle" x="612" y="-371" font-family="Helvetica,sans-Serif" font-size="10.00">Checkbox_EN_Test.tcSetFocus</text>
</a>
</g>
</g>
<!-- Node3536&#45;&gt;Node3555 -->
<g id="edge21" class="edge"><title>Node3536&#45;&gt;Node3555</title>
<path fill="none" stroke="midnightblue" d="M411.758,-705.085C412.214,-648.905 421.556,-487.821 510,-404 516.556,-397.787 524.403,-393.047 532.788,-389.442"/>
<polygon fill="midnightblue" stroke="midnightblue" points="408.258,-705.42 411.77,-715.416 415.258,-705.411 408.258,-705.42"/>
</g>
<!-- Node3556 -->
<g id="node23" class="node"><title>Node3556</title>
<g id="a_node23"><a xlink:href="classokw_1_1_se_input_field_1_1_se_input_field___e_n___test.html#ae53870fceec3a7c1814df3175f1926f0" target="_top" xlink:title="Testet ob das Schlüsselwort VerifyLabel( FN, ExpVal ) der Klasse SeInputText implementiert ist...">
<polygon fill="white" stroke="black" points="541,-315 541,-345 683,-345 683,-315 541,-315"/>
<text text-anchor="start" x="549" y="-333" font-family="Helvetica,sans-Serif" font-size="10.00">okw.SeInputField.SeInput</text>
<text text-anchor="middle" x="612" y="-322" font-family="Helvetica,sans-Serif" font-size="10.00">Field_EN_Test.tcVerifyLabel</text>
</a>
</g>
</g>
<!-- Node3536&#45;&gt;Node3556 -->
<g id="edge22" class="edge"><title>Node3536&#45;&gt;Node3556</title>
<path fill="none" stroke="midnightblue" d="M414.562,-705.303C423.95,-636.098 458.623,-405.548 510,-355 518.563,-346.575 529.492,-340.84 540.981,-336.967"/>
<polygon fill="midnightblue" stroke="midnightblue" points="411.081,-704.927 413.23,-715.302 418.02,-705.851 411.081,-704.927"/>
</g>
<!-- Node3557 -->
<g id="node24" class="node"><title>Node3557</title>
<g id="a_node24"><a xlink:href="classokw_1_1_se_input_field_1_1_se_input_field___e_n___test.html#a9dcd93d3338372dbb93aaa6065990df9" target="_top" xlink:title="Prüft, ob die Methode VerifyLabel bei einer Soll/Ist Abweichung die Ausnahme OKWVerifyingFailsExcepti...">
<polygon fill="white" stroke="black" points="537.5,-255.5 537.5,-296.5 686.5,-296.5 686.5,-255.5 537.5,-255.5"/>
<text text-anchor="start" x="545.5" y="-284.5" font-family="Helvetica,sans-Serif" font-size="10.00">okw.SeInputField.SeInput</text>
<text text-anchor="start" x="545.5" y="-273.5" font-family="Helvetica,sans-Serif" font-size="10.00">Field_EN_Test.tcVerifyLabel</text>
<text text-anchor="middle" x="612" y="-262.5" font-family="Helvetica,sans-Serif" font-size="10.00">_OKWVerifyingFailsException</text>
</a>
</g>
</g>
<!-- Node3536&#45;&gt;Node3557 -->
<g id="edge23" class="edge"><title>Node3536&#45;&gt;Node3557</title>
<path fill="none" stroke="midnightblue" d="M414.006,-705.254C421.99,-630.433 453.824,-365.59 510,-306 517.528,-298.014 527.076,-292.123 537.283,-287.785"/>
<polygon fill="midnightblue" stroke="midnightblue" points="410.523,-704.912 412.965,-715.221 417.485,-705.639 410.523,-704.912"/>
</g>
<!-- Node3558 -->
<g id="node25" class="node"><title>Node3558</title>
<g id="a_node25"><a xlink:href="classokw_1_1_se_input_field_1_1_se_input_field___e_n___test.html#a27d58cefa1bfc6754c9183baf8d6a41b" target="_top" xlink:title="okw.SeInputField.SeInput\lField_EN_Test.tcSelect\l_OKWGUIObjectNotFoundException">
<polygon fill="white" stroke="black" points="522.5,-195.5 522.5,-236.5 701.5,-236.5 701.5,-195.5 522.5,-195.5"/>
<text text-anchor="start" x="530.5" y="-224.5" font-family="Helvetica,sans-Serif" font-size="10.00">okw.SeInputField.SeInput</text>
<text text-anchor="start" x="530.5" y="-213.5" font-family="Helvetica,sans-Serif" font-size="10.00">Field_EN_Test.tcSelect</text>
<text text-anchor="middle" x="612" y="-202.5" font-family="Helvetica,sans-Serif" font-size="10.00">_OKWGUIObjectNotFoundException</text>
</a>
</g>
</g>
<!-- Node3536&#45;&gt;Node3558 -->
<g id="edge24" class="edge"><title>Node3536&#45;&gt;Node3558</title>
<path fill="none" stroke="midnightblue" d="M413.39,-705.134C419.488,-623.555 446.449,-315.33 510,-246 513.584,-242.09 517.653,-238.68 522.05,-235.708"/>
<polygon fill="midnightblue" stroke="midnightblue" points="409.873,-705.244 412.64,-715.471 416.855,-705.75 409.873,-705.244"/>
</g>
<!-- Node3559 -->
<g id="node26" class="node"><title>Node3559</title>
<g id="a_node26"><a xlink:href="classokw_1_1_se_input_radio_1_1_se_input_radio___e_n___test.html#a81be33e9d18a367ce8cb4079eeaa2430" target="_top" xlink:title="Test des Schlüsselwortes VerifyLabel für den GUI&#45;Adapter SeInputRadio. ">
<polygon fill="white" stroke="black" points="536,-147 536,-177 688,-177 688,-147 536,-147"/>
<text text-anchor="start" x="544" y="-165" font-family="Helvetica,sans-Serif" font-size="10.00">okw.SeInputRadio.SeInput</text>
<text text-anchor="middle" x="612" y="-154" font-family="Helvetica,sans-Serif" font-size="10.00">Radio_EN_Test.tc_VerifyLabel</text>
</a>
</g>
</g>
<!-- Node3536&#45;&gt;Node3559 -->
<g id="edge25" class="edge"><title>Node3536&#45;&gt;Node3559</title>
<path fill="none" stroke="midnightblue" d="M412.792,-705.105C416.702,-617.033 436.816,-263.204 510,-186 517.129,-178.479 526.152,-173.126 535.857,-169.346"/>
<polygon fill="midnightblue" stroke="midnightblue" points="409.294,-704.969 412.368,-715.109 416.288,-705.266 409.294,-704.969"/>
</g>
<!-- Node3560 -->
<g id="node27" class="node"><title>Node3560</title>
<g id="a_node27"><a xlink:href="classokw_1_1_se_link_1_1_se_link___e_n___test.html#ad88f4d017f1a55ad12f9ffc5ed0ab336" target="_top" xlink:title="Prüft die Methode SeLink.MemorizeToolTip. ">
<polygon fill="white" stroke="black" points="535,-98 535,-128 689,-128 689,-98 535,-98"/>
<text text-anchor="start" x="543" y="-116" font-family="Helvetica,sans-Serif" font-size="10.00">okw.SeLink.SeLink_EN</text>
<text text-anchor="middle" x="612" y="-105" font-family="Helvetica,sans-Serif" font-size="10.00">_Test.TC_MemorizeToolTip_en</text>
</a>
</g>
</g>
<!-- Node3536&#45;&gt;Node3560 -->
<g id="edge26" class="edge"><title>Node3536&#45;&gt;Node3560</title>
<path fill="none" stroke="midnightblue" d="M412.486,-705.152C415.159,-612.486 431.004,-223.344 510,-138 516.871,-130.576 525.57,-125.204 534.967,-121.341"/>
<polygon fill="midnightblue" stroke="midnightblue" points="408.987,-705.065 412.216,-715.156 415.984,-705.254 408.987,-705.065"/>
</g>
<!-- Node3561 -->
<g id="node28" class="node"><title>Node3561</title>
<g id="a_node28"><a xlink:href="classokw_1_1_se_m_a_x_i_m_i_z_e_1_1_se_m_a_x_i_m_i_z_e___e_n___test.html#a666809f3bf993c5fa549135f707ed199" target="_top" xlink:title="Test des Schlüsselwortes &quot;VerifyLabel( FN, ExpVal ) für SeMAXIMIZE. ">
<polygon fill="white" stroke="black" points="531,-49 531,-79 693,-79 693,-49 531,-49"/>
<text text-anchor="start" x="539" y="-67" font-family="Helvetica,sans-Serif" font-size="10.00">okw.SeMAXIMIZE.SeMAXIMIZE</text>
<text text-anchor="middle" x="612" y="-56" font-family="Helvetica,sans-Serif" font-size="10.00">_EN_Test.tcVerifyLabel</text>
</a>
</g>
</g>
<!-- Node3536&#45;&gt;Node3561 -->
<g id="edge27" class="edge"><title>Node3536&#45;&gt;Node3561</title>
<path fill="none" stroke="midnightblue" d="M412.207,-705.074C413.631,-607.641 424.714,-182.307 510,-89 515.85,-82.6 523.057,-77.7211 530.906,-74.0179"/>
<polygon fill="midnightblue" stroke="midnightblue" points="408.705,-705.242 412.077,-715.286 415.704,-705.331 408.705,-705.242"/>
</g>
<!-- Node3562 -->
<g id="node29" class="node"><title>Node3562</title>
<g id="a_node29"><a xlink:href="classokw_1_1_se_radio_list_1_1_se_radio_list___e_n___test.html#a4ba84c588853824c99cd27c7d8dfb86e" target="_top" xlink:title="okw.SeRadioList.SeRadioList\l_EN_Test.tcLogIsActive">
<polygon fill="white" stroke="black" points="538.5,-0 538.5,-30 685.5,-30 685.5,-0 538.5,-0"/>
<text text-anchor="start" x="546.5" y="-18" font-family="Helvetica,sans-Serif" font-size="10.00">okw.SeRadioList.SeRadioList</text>
<text text-anchor="middle" x="612" y="-7" font-family="Helvetica,sans-Serif" font-size="10.00">_EN_Test.tcLogIsActive</text>
</a>
</g>
</g>
<!-- Node3536&#45;&gt;Node3562 -->
<g id="edge28" class="edge"><title>Node3536&#45;&gt;Node3562</title>
<path fill="none" stroke="midnightblue" d="M411.966,-704.843C412.213,-602.492 418.453,-141.247 510,-40 517.633,-31.5587 527.625,-25.7581 538.354,-21.8096"/>
<polygon fill="midnightblue" stroke="midnightblue" points="408.466,-705.034 411.96,-715.036 415.466,-705.038 408.466,-705.034"/>
</g>
</g>
</svg>
