<?xml version="1.0" encoding="UTF-8" standalone="no"?>
<!DOCTYPE svg PUBLIC "-//W3C//DTD SVG 1.1//EN"
 "http://www.w3.org/Graphics/SVG/1.1/DTD/svg11.dtd">
<!-- Generated by graphviz version 2.38.0 (20140413.2041)
 -->
<!-- Title: okw.OKW.VerifyTablecellValue_TO Pages: 1 -->
<svg width="358pt" height="137pt"
 viewBox="0.00 0.00 358.00 137.00" xmlns="http://www.w3.org/2000/svg" xmlns:xlink="http://www.w3.org/1999/xlink">
<g id="graph0" class="graph" transform="scale(1 1) rotate(0) translate(4 133)">
<title>okw.OKW.VerifyTablecellValue_TO</title>
<polygon fill="white" stroke="none" points="-4,4 -4,-133 354,-133 354,4 -4,4"/>
<!-- Node74 -->
<g id="node1" class="node"><title>Node74</title>
<g id="a_node1"><a xlink:title="TimeOut in Sekunden [s] für das Schlüsselwort VerifyTablecellValue.">
<polygon fill="#bfbfbf" stroke="black" points="179,-55 179,-74 350,-74 350,-55 179,-55"/>
<text text-anchor="middle" x="264.5" y="-62" font-family="Helvetica,sans-Serif" font-size="10.00">okw.OKW.VerifyTablecellValue_TO</text>
</a>
</g>
</g>
<!-- Node75 -->
<g id="node2" class="node"><title>Node75</title>
<g id="a_node2"><a xlink:href="classokw_1_1core_1_1_o_k.html#a3548a5a8ddfbf7f84bfe18ba200e1b35" target="_top" xlink:title="Vergleicht den Inhalt der gegebenen Tabellenzelle mit dem erwarteten Wert.">
<polygon fill="white" stroke="black" points="0,-98.5 0,-128.5 143,-128.5 143,-98.5 0,-98.5"/>
<text text-anchor="start" x="8" y="-116.5" font-family="Helvetica,sans-Serif" font-size="10.00">okw.core.OK.VerifyTablecell</text>
<text text-anchor="middle" x="71.5" y="-105.5" font-family="Helvetica,sans-Serif" font-size="10.00">Value</text>
</a>
</g>
</g>
<!-- Node74&#45;&gt;Node75 -->
<g id="edge1" class="edge"><title>Node74&#45;&gt;Node75</title>
<path fill="none" stroke="midnightblue" d="M216.328,-76.6018C190.577,-83.208 158.461,-91.4471 131.113,-98.463"/>
<polygon fill="midnightblue" stroke="midnightblue" points="217.403,-79.9393 226.22,-74.064 215.664,-73.1588 217.403,-79.9393"/>
</g>
<!-- Node76 -->
<g id="node3" class="node"><title>Node76</title>
<g id="a_node3"><a xlink:href="classokw_1_1core_1_1_o_k.html#a30fc98c4004c99e3e37047deac6ad16f" target="_top" xlink:title="Vergleicht den Inhalt der gegebenen Tabellenzelle mit dem erwarteten Wert.">
<polygon fill="white" stroke="black" points="0,-49.5 0,-79.5 143,-79.5 143,-49.5 0,-49.5"/>
<text text-anchor="start" x="8" y="-67.5" font-family="Helvetica,sans-Serif" font-size="10.00">okw.core.OK.VerifyTablecell</text>
<text text-anchor="middle" x="71.5" y="-56.5" font-family="Helvetica,sans-Serif" font-size="10.00">ValueWCM</text>
</a>
</g>
</g>
<!-- Node74&#45;&gt;Node76 -->
<g id="edge2" class="edge"><title>Node74&#45;&gt;Node76</title>
<path fill="none" stroke="midnightblue" d="M168.75,-64.5C160.093,-64.5 151.429,-64.5 143.041,-64.5"/>
<polygon fill="midnightblue" stroke="midnightblue" points="168.891,-68.0001 178.891,-64.5 168.89,-61.0001 168.891,-68.0001"/>
</g>
<!-- Node77 -->
<g id="node4" class="node"><title>Node77</title>
<g id="a_node4"><a xlink:href="classokw_1_1core_1_1_o_k.html#a84abe8cdf2426bde23d357c89a6822a6" target="_top" xlink:title="Vergleicht den Inhalt der gegebenen Tabellenzelle mit dem erwarteten Wert.">
<polygon fill="white" stroke="black" points="0,-0.5 0,-30.5 143,-30.5 143,-0.5 0,-0.5"/>
<text text-anchor="start" x="8" y="-18.5" font-family="Helvetica,sans-Serif" font-size="10.00">okw.core.OK.VerifyTablecell</text>
<text text-anchor="middle" x="71.5" y="-7.5" font-family="Helvetica,sans-Serif" font-size="10.00">ValueREGX</text>
</a>
</g>
</g>
<!-- Node74&#45;&gt;Node77 -->
<g id="edge3" class="edge"><title>Node74&#45;&gt;Node77</title>
<path fill="none" stroke="midnightblue" d="M216.328,-52.3982C190.577,-45.792 158.461,-37.5529 131.113,-30.537"/>
<polygon fill="midnightblue" stroke="midnightblue" points="215.664,-55.8412 226.22,-54.936 217.403,-49.0607 215.664,-55.8412"/>
</g>
</g>
</svg>
