<?xml version="1.0" encoding="UTF-8" standalone="no"?>
<!DOCTYPE svg PUBLIC "-//W3C//DTD SVG 1.1//EN"
 "http://www.w3.org/Graphics/SVG/1.1/DTD/svg11.dtd">
<!-- Generated by graphviz version 2.26.3 (20100126.1600)
 -->
<!-- Title: okw.core.IOKW_State.VerifyCaptionWCM Pages: 1 -->
<svg width="554pt" height="42pt"
 viewBox="0.00 0.00 554.00 42.00" xmlns="http://www.w3.org/2000/svg" xmlns:xlink="http://www.w3.org/1999/xlink">
<g id="graph1" class="graph" transform="scale(1 1) rotate(0) translate(4 38)">
<title>okw.core.IOKW_State.VerifyCaptionWCM</title>
<polygon fill="white" stroke="white" points="-4,5 -4,-38 551,-38 551,5 -4,5"/>
<!-- Node212 -->
<g id="node1" class="node"><title>Node212</title>
<polygon fill="#bfbfbf" stroke="black" points="0.5,-0 0.5,-34 143.5,-34 143.5,-0 0.5,-0"/>
<text text-anchor="start" x="8.5" y="-21" font-family="Helvetica,sans-Serif" font-size="10.00">okw.core.IOKW_State.Verify</text>
<text text-anchor="middle" x="72" y="-8" font-family="Helvetica,sans-Serif" font-size="10.00">CaptionWCM</text>
</g>
<!-- Node213 -->
<g id="node3" class="node"><title>Node213</title>
<a xlink:href="classokw_1_1core_1_1_core.html#a1dc3f5a21cba756cd6448f88280342ec" target="_top" xlink:title="Überprüft die Überschrift des Objektes. ">
<polygon fill="white" stroke="black" points="180,-6.5 180,-27.5 348,-27.5 348,-6.5 180,-6.5"/>
<text text-anchor="middle" x="264" y="-14.5" font-family="Helvetica,sans-Serif" font-size="10.00">okw.core.Core.VerifyCaptionWCM</text>
</a>
</g>
<!-- Node212&#45;&gt;Node213 -->
<g id="edge2" class="edge"><title>Node212&#45;&gt;Node213</title>
<path fill="none" stroke="midnightblue" d="M154.038,-17C162.534,-17 171.179,-17 179.7,-17"/>
<polygon fill="midnightblue" stroke="midnightblue" points="153.767,-13.5001 143.767,-17 153.767,-20.5001 153.767,-13.5001"/>
</g>
<!-- Node214 -->
<g id="node5" class="node"><title>Node214</title>
<a xlink:href="classokw_1_1core_1_1_e_n.html#a5a742184bc524f6b6dceec7cef27a951" target="_top" xlink:title="Überprüft die Überschrift des Objektes. ">
<polygon fill="white" stroke="black" points="384.5,-6.5 384.5,-27.5 545.5,-27.5 545.5,-6.5 384.5,-6.5"/>
<text text-anchor="middle" x="465" y="-14.5" font-family="Helvetica,sans-Serif" font-size="10.00">okw.core.EN.VerifyCaptionWCM</text>
</a>
</g>
<!-- Node213&#45;&gt;Node214 -->
<g id="edge4" class="edge"><title>Node213&#45;&gt;Node214</title>
<path fill="none" stroke="midnightblue" d="M358.304,-17C367.054,-17 375.867,-17 384.476,-17"/>
<polygon fill="midnightblue" stroke="midnightblue" points="358.078,-13.5001 348.077,-17 358.077,-20.5001 358.078,-13.5001"/>
</g>
</g>
</svg>
