<?xml version="1.0" encoding="UTF-8" standalone="no"?>
<!DOCTYPE svg PUBLIC "-//W3C//DTD SVG 1.1//EN"
 "http://www.w3.org/Graphics/SVG/1.1/DTD/svg11.dtd">
<!-- Generated by graphviz version 2.36.0 (20140111.2315)
 -->
<!-- Title: okw.OKW.VerifyCaption_PT Pages: 1 -->
<svg width="350pt" height="104pt"
 viewBox="0.00 0.00 350.00 104.00" xmlns="http://www.w3.org/2000/svg" xmlns:xlink="http://www.w3.org/1999/xlink">
<g id="graph0" class="graph" transform="scale(1 1) rotate(0) translate(4 100)">
<title>okw.OKW.VerifyCaption_PT</title>
<polygon fill="white" stroke="none" points="-4,4 -4,-100 346,-100 346,4 -4,4"/>
<!-- Node6 -->
<g id="node1" class="node"><title>Node6</title>
<polygon fill="#bfbfbf" stroke="black" points="0,-38.5 0,-57.5 142,-57.5 142,-38.5 0,-38.5"/>
<text text-anchor="middle" x="71" y="-45.5" font-family="Helvetica,sans-Serif" font-size="10.00">okw.OKW.VerifyCaption_PT</text>
</g>
<!-- Node7 -->
<g id="node2" class="node"><title>Node7</title>
<g id="a_node2"><a xlink:href="classokw_1_1core_1_1_o_k.html#afe1a1b392d59c5ceef93ed6d0cfd2e01" target="_top" xlink:title="Prüft den Standardwert eines Objektes (in den meisten Fällen ist dies der angezeigte Text)...">
<polygon fill="white" stroke="black" points="192,-76.5 192,-95.5 328,-95.5 328,-76.5 192,-76.5"/>
<text text-anchor="middle" x="260" y="-83.5" font-family="Helvetica,sans-Serif" font-size="10.00">okw.core.OK.VerifyCaption</text>
</a>
</g>
</g>
<!-- Node6&#45;&gt;Node7 -->
<g id="edge1" class="edge"><title>Node6&#45;&gt;Node7</title>
<path fill="none" stroke="midnightblue" d="M129.131,-59.6095C155.727,-65.014 186.973,-71.3635 212.151,-76.4799"/>
<polygon fill="midnightblue" stroke="midnightblue" points="129.685,-56.1506 119.188,-57.589 128.291,-63.0104 129.685,-56.1506"/>
</g>
<!-- Node8 -->
<g id="node3" class="node"><title>Node8</title>
<g id="a_node3"><a xlink:href="classokw_1_1core_1_1_o_k.html#a461f7511030e7975fe983b2509527529" target="_top" xlink:title="Prüft den Standardwert eines Objektes (in den meisten Fällen ist dies der angezeigte Text)...">
<polygon fill="white" stroke="black" points="179.5,-38.5 179.5,-57.5 340.5,-57.5 340.5,-38.5 179.5,-38.5"/>
<text text-anchor="middle" x="260" y="-45.5" font-family="Helvetica,sans-Serif" font-size="10.00">okw.core.OK.VerifyCaptionWCM</text>
</a>
</g>
</g>
<!-- Node6&#45;&gt;Node8 -->
<g id="edge2" class="edge"><title>Node6&#45;&gt;Node8</title>
<path fill="none" stroke="midnightblue" d="M152.218,-48C161.202,-48 170.353,-48 179.33,-48"/>
<polygon fill="midnightblue" stroke="midnightblue" points="152.164,-44.5001 142.164,-48 152.164,-51.5001 152.164,-44.5001"/>
</g>
<!-- Node9 -->
<g id="node4" class="node"><title>Node9</title>
<g id="a_node4"><a xlink:href="classokw_1_1core_1_1_o_k.html#a7b0869a2a6df63be61899963dc35d768" target="_top" xlink:title="Überprüft die Überschrift des Objektes. ">
<polygon fill="white" stroke="black" points="178,-0.5 178,-19.5 342,-19.5 342,-0.5 178,-0.5"/>
<text text-anchor="middle" x="260" y="-7.5" font-family="Helvetica,sans-Serif" font-size="10.00">okw.core.OK.VerifyCaptionREGX</text>
</a>
</g>
</g>
<!-- Node6&#45;&gt;Node9 -->
<g id="edge3" class="edge"><title>Node6&#45;&gt;Node9</title>
<path fill="none" stroke="midnightblue" d="M129.131,-36.3905C155.727,-30.986 186.973,-24.6365 212.151,-19.5201"/>
<polygon fill="midnightblue" stroke="midnightblue" points="128.291,-32.9896 119.188,-38.411 129.685,-39.8494 128.291,-32.9896"/>
</g>
</g>
</svg>
