<?xml version="1.0" encoding="UTF-8" standalone="no"?>
<!DOCTYPE svg PUBLIC "-//W3C//DTD SVG 1.1//EN"
 "http://www.w3.org/Graphics/SVG/1.1/DTD/svg11.dtd">
<!-- Generated by graphviz version 2.26.3 (20100126.1600)
 -->
<!-- Title: okw.core.IOKW_State.VerifyValueREGX Pages: 1 -->
<svg width="802pt" height="1742pt"
 viewBox="0.00 0.00 802.00 1742.00" xmlns="http://www.w3.org/2000/svg" xmlns:xlink="http://www.w3.org/1999/xlink">
<g id="graph1" class="graph" transform="scale(1 1) rotate(0) translate(4 1738)">
<title>okw.core.IOKW_State.VerifyValueREGX</title>
<polygon fill="white" stroke="white" points="-4,5 -4,-1738 799,-1738 799,5 -4,5"/>
<!-- Node2988 -->
<g id="node1" class="node"><title>Node2988</title>
<polygon fill="#bfbfbf" stroke="black" points="0.5,-867 0.5,-901 143.5,-901 143.5,-867 0.5,-867"/>
<text text-anchor="start" x="8.5" y="-888" font-family="Helvetica,sans-Serif" font-size="10.00">okw.core.IOKW_State.Verify</text>
<text text-anchor="middle" x="72" y="-875" font-family="Helvetica,sans-Serif" font-size="10.00">ValueREGX</text>
</g>
<!-- Node2989 -->
<g id="node3" class="node"><title>Node2989</title>
<a xlink:href="classokw_1_1core_1_1_core.html#a19e8df9600c470e8b1ae1fe31c36f50a" target="_top" xlink:title="Prüft den Standardwert eines Objektes (in den meisten Fällen ist dies der angezeigte Text)...">
<polygon fill="white" stroke="black" points="180,-873.5 180,-894.5 342,-894.5 342,-873.5 180,-873.5"/>
<text text-anchor="middle" x="261" y="-881.5" font-family="Helvetica,sans-Serif" font-size="10.00">okw.core.Core.VerifyValueREGX</text>
</a>
</g>
<!-- Node2988&#45;&gt;Node2989 -->
<g id="edge2" class="edge"><title>Node2988&#45;&gt;Node2989</title>
<path fill="none" stroke="midnightblue" d="M153.781,-884C162.42,-884 171.205,-884 179.837,-884"/>
<polygon fill="midnightblue" stroke="midnightblue" points="153.722,-880.5 143.722,-884 153.722,-887.5 153.722,-880.5"/>
</g>
<!-- Node2990 -->
<g id="node5" class="node"><title>Node2990</title>
<a xlink:href="classokw_1_1core_1_1_e_n.html#ab906dfd1631d44567755a94585333973" target="_top" xlink:title="Prüft den Standardwert eines Objektes (in den meisten Fällen ist dies der angezeigte Text)...">
<polygon fill="white" stroke="black" points="378.5,-873.5 378.5,-894.5 533.5,-894.5 533.5,-873.5 378.5,-873.5"/>
<text text-anchor="middle" x="456" y="-881.5" font-family="Helvetica,sans-Serif" font-size="10.00">okw.core.EN.VerifyValueREGX</text>
</a>
</g>
<!-- Node2989&#45;&gt;Node2990 -->
<g id="edge4" class="edge"><title>Node2989&#45;&gt;Node2990</title>
<path fill="none" stroke="midnightblue" d="M352.222,-884C360.967,-884 369.78,-884 378.378,-884"/>
<polygon fill="midnightblue" stroke="midnightblue" points="352.004,-880.5 342.003,-884 352.003,-887.5 352.004,-880.5"/>
</g>
<!-- Node2991 -->
<g id="node7" class="node"><title>Node2991</title>
<a xlink:href="classokw_1_1core_1_1_e_n___keywords___a_n_t_l_r___test.html#ab63d377a1eedcf2ca8e7591678151037" target="_top" xlink:title="okw.core.EN_Keywords\l_ANTLR_Test.tc__VerifyValue\lREGX_EnviromentVar">
<polygon fill="white" stroke="black" points="606,-1686.5 606,-1733.5 758,-1733.5 758,-1686.5 606,-1686.5"/>
<text text-anchor="start" x="614" y="-1720.5" font-family="Helvetica,sans-Serif" font-size="10.00">okw.core.EN_Keywords</text>
<text text-anchor="start" x="614" y="-1707.5" font-family="Helvetica,sans-Serif" font-size="10.00">_ANTLR_Test.tc__VerifyValue</text>
<text text-anchor="middle" x="682" y="-1694.5" font-family="Helvetica,sans-Serif" font-size="10.00">REGX_EnviromentVar</text>
</a>
</g>
<!-- Node2990&#45;&gt;Node2991 -->
<g id="edge6" class="edge"><title>Node2990&#45;&gt;Node2991</title>
<path fill="none" stroke="midnightblue" d="M457.658,-904.869C467.309,-1024.16 517.636,-1616.51 570,-1677 579.42,-1687.88 592.23,-1695.27 605.824,-1700.26"/>
<polygon fill="midnightblue" stroke="midnightblue" points="461.12,-904.251 456.831,-894.563 454.142,-904.811 461.12,-904.251"/>
</g>
<!-- Node2992 -->
<g id="node9" class="node"><title>Node2992</title>
<a xlink:href="classokw_1_1core_1_1_e_n___keywords___a_n_t_l_r___test.html#a1d46f5f62a325650f18b0f9f2fa5fe32" target="_top" xlink:title="okw.core.EN_Keywords\l_ANTLR_Test.tc__VerifyValue\lWCM_EnviromentVar">
<polygon fill="white" stroke="black" points="606,-1620.5 606,-1667.5 758,-1667.5 758,-1620.5 606,-1620.5"/>
<text text-anchor="start" x="614" y="-1654.5" font-family="Helvetica,sans-Serif" font-size="10.00">okw.core.EN_Keywords</text>
<text text-anchor="start" x="614" y="-1641.5" font-family="Helvetica,sans-Serif" font-size="10.00">_ANTLR_Test.tc__VerifyValue</text>
<text text-anchor="middle" x="682" y="-1628.5" font-family="Helvetica,sans-Serif" font-size="10.00">WCM_EnviromentVar</text>
</a>
</g>
<!-- Node2990&#45;&gt;Node2992 -->
<g id="edge8" class="edge"><title>Node2990&#45;&gt;Node2992</title>
<path fill="none" stroke="midnightblue" d="M456.356,-904.675C458.609,-1011.66 474.101,-1501.64 570,-1611 579.489,-1621.82 592.33,-1629.18 605.933,-1634.16"/>
<polygon fill="midnightblue" stroke="midnightblue" points="459.852,-904.473 456.159,-894.543 452.854,-904.609 459.852,-904.473"/>
</g>
<!-- Node2993 -->
<g id="node11" class="node"><title>Node2993</title>
<a xlink:href="classokw_1_1core_1_1_e_n___keywords___a_n_t_l_r___test.html#a4606d2338ceb754feed01d1fa66ab48c" target="_top" xlink:title="okw.core.EN_Keywords\l_ANTLR_Test.tc_VerifyValueREGX\l_MemorizedValue">
<polygon fill="white" stroke="black" points="594.5,-1554.5 594.5,-1601.5 769.5,-1601.5 769.5,-1554.5 594.5,-1554.5"/>
<text text-anchor="start" x="602.5" y="-1588.5" font-family="Helvetica,sans-Serif" font-size="10.00">okw.core.EN_Keywords</text>
<text text-anchor="start" x="602.5" y="-1575.5" font-family="Helvetica,sans-Serif" font-size="10.00">_ANTLR_Test.tc_VerifyValueREGX</text>
<text text-anchor="middle" x="682" y="-1562.5" font-family="Helvetica,sans-Serif" font-size="10.00">_MemorizedValue</text>
</a>
</g>
<!-- Node2990&#45;&gt;Node2993 -->
<g id="edge10" class="edge"><title>Node2990&#45;&gt;Node2993</title>
<path fill="none" stroke="midnightblue" d="M456.71,-904.68C460.589,-1005.72 482.382,-1446.6 570,-1545 576.74,-1552.57 585.12,-1558.44 594.242,-1562.99"/>
<polygon fill="midnightblue" stroke="midnightblue" points="460.203,-904.416 456.339,-894.551 453.207,-904.673 460.203,-904.416"/>
</g>
<!-- Node2994 -->
<g id="node13" class="node"><title>Node2994</title>
<a xlink:href="classokw_1_1core_1_1_e_n___keywords___d_e_l_e_t_e___test.html#aef1aa280938a881904e91fbb8db09a8b" target="_top" xlink:title="okw.core.EN_Keywords\l_DELETE_Test.tcVerifyTablecell\lValueWCM_DELETE_OKWNotAllowedValue\lException">
<polygon fill="white" stroke="black" points="574.5,-1476 574.5,-1536 789.5,-1536 789.5,-1476 574.5,-1476"/>
<text text-anchor="start" x="582.5" y="-1523" font-family="Helvetica,sans-Serif" font-size="10.00">okw.core.EN_Keywords</text>
<text text-anchor="start" x="582.5" y="-1510" font-family="Helvetica,sans-Serif" font-size="10.00">_DELETE_Test.tcVerifyTablecell</text>
<text text-anchor="start" x="582.5" y="-1497" font-family="Helvetica,sans-Serif" font-size="10.00">ValueWCM_DELETE_OKWNotAllowedValue</text>
<text text-anchor="middle" x="682" y="-1484" font-family="Helvetica,sans-Serif" font-size="10.00">Exception</text>
</a>
</g>
<!-- Node2990&#45;&gt;Node2994 -->
<g id="edge12" class="edge"><title>Node2990&#45;&gt;Node2994</title>
<path fill="none" stroke="midnightblue" d="M457.338,-904.771C463.758,-998.311 494.272,-1379.68 570,-1467 572.698,-1470.11 575.658,-1472.97 578.823,-1475.61"/>
<polygon fill="midnightblue" stroke="midnightblue" points="460.818,-904.355 456.659,-894.611 453.834,-904.822 460.818,-904.355"/>
</g>
<!-- Node2995 -->
<g id="node15" class="node"><title>Node2995</title>
<a xlink:href="classokw_1_1core_1_1_e_n___keywords___empty___test.html#a3733decdbe7e325d682d41d9596244d1" target="_top" xlink:title="Prüft &quot;${EMPTY}&quot; für das Schlüsselwort VerifyValue(string,string) ">
<polygon fill="white" stroke="black" points="594,-1410.5 594,-1457.5 770,-1457.5 770,-1410.5 594,-1410.5"/>
<text text-anchor="start" x="602" y="-1444.5" font-family="Helvetica,sans-Serif" font-size="10.00">okw.core.EN_Keywords</text>
<text text-anchor="start" x="602" y="-1431.5" font-family="Helvetica,sans-Serif" font-size="10.00">_Empty_Test.tc_VerifyValueREGX_</text>
<text text-anchor="middle" x="682" y="-1418.5" font-family="Helvetica,sans-Serif" font-size="10.00">Empty</text>
</a>
</g>
<!-- Node2990&#45;&gt;Node2995 -->
<g id="edge14" class="edge"><title>Node2990&#45;&gt;Node2995</title>
<path fill="none" stroke="midnightblue" d="M457.812,-904.951C465.775,-992.298 500.399,-1326.38 570,-1401 576.706,-1408.19 584.891,-1413.84 593.754,-1418.27"/>
<polygon fill="midnightblue" stroke="midnightblue" points="461.275,-904.374 456.9,-894.724 454.303,-904.996 461.275,-904.374"/>
</g>
<!-- Node2996 -->
<g id="node17" class="node"><title>Node2996</title>
<a xlink:href="classokw_1_1core_1_1_e_n___keywords___i_g_n_o_r_e___test.html#a3da43bfe4151c037920383bfc1d642b2" target="_top" xlink:title="okw.core.EN_Keywords\l_IGNORE_Test.TC_VerifyValue\lREGX_IGNORE">
<polygon fill="white" stroke="black" points="603,-1344.5 603,-1391.5 761,-1391.5 761,-1344.5 603,-1344.5"/>
<text text-anchor="start" x="611" y="-1378.5" font-family="Helvetica,sans-Serif" font-size="10.00">okw.core.EN_Keywords</text>
<text text-anchor="start" x="611" y="-1365.5" font-family="Helvetica,sans-Serif" font-size="10.00">_IGNORE_Test.TC_VerifyValue</text>
<text text-anchor="middle" x="682" y="-1352.5" font-family="Helvetica,sans-Serif" font-size="10.00">REGX_IGNORE</text>
</a>
</g>
<!-- Node2990&#45;&gt;Node2996 -->
<g id="edge16" class="edge"><title>Node2990&#45;&gt;Node2996</title>
<path fill="none" stroke="midnightblue" d="M458.517,-904.78C468.599,-984.712 508.503,-1271.06 570,-1335 579.063,-1344.42 590.67,-1351.19 602.962,-1356.05"/>
<polygon fill="midnightblue" stroke="midnightblue" points="461.951,-904.03 457.247,-894.536 455.004,-904.891 461.951,-904.03"/>
</g>
<!-- Node2997 -->
<g id="node19" class="node"><title>Node2997</title>
<a xlink:href="classokw_1_1core_1_1_e_n___keywords___i_g_n_o_r_e___test.html#a1250f3a90a33b9b648f5b8edede89587" target="_top" xlink:title="okw.core.EN_Keywords\l_IGNORE_Test.TC_VerifyValue\lREGX_IGNORE_EmptyString">
<polygon fill="white" stroke="black" points="603,-1278.5 603,-1325.5 761,-1325.5 761,-1278.5 603,-1278.5"/>
<text text-anchor="start" x="611" y="-1312.5" font-family="Helvetica,sans-Serif" font-size="10.00">okw.core.EN_Keywords</text>
<text text-anchor="start" x="611" y="-1299.5" font-family="Helvetica,sans-Serif" font-size="10.00">_IGNORE_Test.TC_VerifyValue</text>
<text text-anchor="middle" x="682" y="-1286.5" font-family="Helvetica,sans-Serif" font-size="10.00">REGX_IGNORE_EmptyString</text>
</a>
</g>
<!-- Node2990&#45;&gt;Node2997 -->
<g id="edge18" class="edge"><title>Node2990&#45;&gt;Node2997</title>
<path fill="none" stroke="midnightblue" d="M459.505,-904.939C472.021,-977.36 516.625,-1215.7 570,-1269 579.18,-1278.17 590.77,-1284.81 602.991,-1289.63"/>
<polygon fill="midnightblue" stroke="midnightblue" points="462.906,-904.064 457.775,-894.794 456.006,-905.24 462.906,-904.064"/>
</g>
<!-- Node2998 -->
<g id="node21" class="node"><title>Node2998</title>
<a xlink:href="classokw_1_1core_1_1_e_n___keywords___test.html#a127181ab50ff5fc92ad8dc5d5ecc66f4" target="_top" xlink:title="okw.core.EN_Keywords\l_Test.tc_VerifyValueREGX">
<polygon fill="white" stroke="black" points="613.5,-1226 613.5,-1260 750.5,-1260 750.5,-1226 613.5,-1226"/>
<text text-anchor="start" x="621.5" y="-1247" font-family="Helvetica,sans-Serif" font-size="10.00">okw.core.EN_Keywords</text>
<text text-anchor="middle" x="682" y="-1234" font-family="Helvetica,sans-Serif" font-size="10.00">_Test.tc_VerifyValueREGX</text>
</a>
</g>
<!-- Node2990&#45;&gt;Node2998 -->
<g id="edge20" class="edge"><title>Node2990&#45;&gt;Node2998</title>
<path fill="none" stroke="midnightblue" d="M460.352,-904.741C474.574,-970.605 521.557,-1173.25 570,-1217 582,-1227.84 597.618,-1234.42 613.365,-1238.35"/>
<polygon fill="midnightblue" stroke="midnightblue" points="463.728,-903.79 458.218,-894.741 456.882,-905.251 463.728,-903.79"/>
</g>
<!-- Node2999 -->
<g id="node23" class="node"><title>Node2999</title>
<a xlink:href="classokw_1_1core_1_1_e_n___keywords___test.html#a98fccde7dbc4b3f7770e7acac0ed8b30" target="_top" xlink:title="okw.core.EN_Keywords\l_Test.tc_VerifyValueREGX\l_MultipleValues">
<polygon fill="white" stroke="black" points="613.5,-1160.5 613.5,-1207.5 750.5,-1207.5 750.5,-1160.5 613.5,-1160.5"/>
<text text-anchor="start" x="621.5" y="-1194.5" font-family="Helvetica,sans-Serif" font-size="10.00">okw.core.EN_Keywords</text>
<text text-anchor="start" x="621.5" y="-1181.5" font-family="Helvetica,sans-Serif" font-size="10.00">_Test.tc_VerifyValueREGX</text>
<text text-anchor="middle" x="682" y="-1168.5" font-family="Helvetica,sans-Serif" font-size="10.00">_MultipleValues</text>
</a>
</g>
<!-- Node2990&#45;&gt;Node2999 -->
<g id="edge22" class="edge"><title>Node2990&#45;&gt;Node2999</title>
<path fill="none" stroke="midnightblue" d="M458.784,-904.722C466.614,-954.737 493.479,-1082.95 570,-1151 582.194,-1161.84 597.793,-1169.13 613.451,-1174.03"/>
<polygon fill="midnightblue" stroke="midnightblue" points="462.203,-903.909 457.287,-894.523 455.277,-904.926 462.203,-903.909"/>
</g>
<!-- Node3000 -->
<g id="node25" class="node"><title>Node3000</title>
<a xlink:href="classokw_1_1core_1_1_e_n___o_k_w_frame_object_child_not_found_exception___test.html#a3ce915e27e00719101106ce7a153b0ab" target="_top" xlink:title="Prüft ob die Ausnahme OKWFrameObjectChildNotFoundException durch die LFC&#45;VerifyValue ausgelöst wird...">
<polygon fill="white" stroke="black" points="576.5,-1082 576.5,-1142 787.5,-1142 787.5,-1082 576.5,-1082"/>
<text text-anchor="start" x="584.5" y="-1129" font-family="Helvetica,sans-Serif" font-size="10.00">okw.core.EN_OKWFrameObject</text>
<text text-anchor="start" x="584.5" y="-1116" font-family="Helvetica,sans-Serif" font-size="10.00">ChildNotFoundException</text>
<text text-anchor="start" x="584.5" y="-1103" font-family="Helvetica,sans-Serif" font-size="10.00">_Test.TC_VerifyValueREGX</text>
<text text-anchor="middle" x="682" y="-1090" font-family="Helvetica,sans-Serif" font-size="10.00">_OKWFrameObjectChildNotFoundException</text>
</a>
</g>
<!-- Node2990&#45;&gt;Node3000 -->
<g id="edge24" class="edge"><title>Node2990&#45;&gt;Node3000</title>
<path fill="none" stroke="midnightblue" d="M462.908,-904.319C476.986,-942.76 512.606,-1026.44 570,-1073 573.997,-1076.24 578.282,-1079.22 582.76,-1081.96"/>
<polygon fill="midnightblue" stroke="midnightblue" points="466.153,-902.997 459.509,-894.745 459.557,-905.34 466.153,-902.997"/>
</g>
<!-- Node3001 -->
<g id="node27" class="node"><title>Node3001</title>
<a xlink:href="classokw_1_1core_1_1_e_n___o_k_w_frame_object_method_not_implemented___test.html#a5eb78b9e1cab928e96403c3c852a2071" target="_top" xlink:title="Prüft ob die Ausnahme OKWFrameObjectMethodNotImplemented von VerifyValueREGX( FN, ExpVal ) ausgelöst ...">
<polygon fill="white" stroke="black" points="573,-1004 573,-1064 791,-1064 791,-1004 573,-1004"/>
<text text-anchor="start" x="581" y="-1051" font-family="Helvetica,sans-Serif" font-size="10.00">okw.core.EN_OKWFrameObject</text>
<text text-anchor="start" x="581" y="-1038" font-family="Helvetica,sans-Serif" font-size="10.00">MethodNotImplemented_Test.TC</text>
<text text-anchor="start" x="581" y="-1025" font-family="Helvetica,sans-Serif" font-size="10.00">_VerifyValueREGX_OKWFrameObjectMethod</text>
<text text-anchor="middle" x="682" y="-1012" font-family="Helvetica,sans-Serif" font-size="10.00">NotImplemented</text>
</a>
</g>
<!-- Node2990&#45;&gt;Node3001 -->
<g id="edge26" class="edge"><title>Node2990&#45;&gt;Node3001</title>
<path fill="none" stroke="midnightblue" d="M470.553,-902.536C490.562,-926.887 528.801,-969.538 570,-995 575.167,-998.193 580.63,-1001.17 586.253,-1003.93"/>
<polygon fill="midnightblue" stroke="midnightblue" points="473.267,-900.325 464.261,-894.743 467.821,-904.722 473.267,-900.325"/>
</g>
<!-- Node3002 -->
<g id="node29" class="node"><title>Node3002</title>
<a xlink:href="classokw_1_1core_1_1_e_n___o_k_w_frame_object_method_not_implemented___test.html#a890bfe99856736c93fa7a145222c7067" target="_top" xlink:title="Prüft ob die Ausnahme OKWFrameObjectMethodNotImplemented von VerifySelectedValueREGX( FN...">
<polygon fill="white" stroke="black" points="570,-926 570,-986 794,-986 794,-926 570,-926"/>
<text text-anchor="start" x="578" y="-973" font-family="Helvetica,sans-Serif" font-size="10.00">okw.core.EN_OKWFrameObject</text>
<text text-anchor="start" x="578" y="-960" font-family="Helvetica,sans-Serif" font-size="10.00">MethodNotImplemented_Test.TC</text>
<text text-anchor="start" x="578" y="-947" font-family="Helvetica,sans-Serif" font-size="10.00">_VerifySelectedValueREGX_OKWFrameObject</text>
<text text-anchor="middle" x="682" y="-934" font-family="Helvetica,sans-Serif" font-size="10.00">MethodNotImplemented</text>
</a>
</g>
<!-- Node2990&#45;&gt;Node3002 -->
<g id="edge28" class="edge"><title>Node2990&#45;&gt;Node3002</title>
<path fill="none" stroke="midnightblue" d="M498.901,-897.668C523.958,-905.65 556.614,-916.054 587.399,-925.862"/>
<polygon fill="midnightblue" stroke="midnightblue" points="499.938,-894.325 489.347,-894.624 497.813,-900.994 499.938,-894.325"/>
</g>
<!-- Node3003 -->
<g id="node31" class="node"><title>Node3003</title>
<a xlink:href="classokw_1_1core_1_1_e_n___o_k_w_not_allowed_value_exception___keywords___i_g_n_o_r_e.html#a4a37e106ab45259f5299c19e63e39463" target="_top" xlink:title="Prüft ob &quot;${IGNORE} &quot; die Ausnahme okw.exceptions.OKWNotAllowedValueException auslöst. ">
<polygon fill="white" stroke="black" points="583.5,-860.5 583.5,-907.5 780.5,-907.5 780.5,-860.5 583.5,-860.5"/>
<text text-anchor="start" x="591.5" y="-894.5" font-family="Helvetica,sans-Serif" font-size="10.00">okw.core.EN_OKWNotAllowed</text>
<text text-anchor="start" x="591.5" y="-881.5" font-family="Helvetica,sans-Serif" font-size="10.00">ValueException_Keywords</text>
<text text-anchor="middle" x="682" y="-868.5" font-family="Helvetica,sans-Serif" font-size="10.00">_IGNORE.tcVerifyValueREGXIGNORE1</text>
</a>
</g>
<!-- Node2990&#45;&gt;Node3003 -->
<g id="edge30" class="edge"><title>Node2990&#45;&gt;Node3003</title>
<path fill="none" stroke="midnightblue" d="M544.002,-884C556.891,-884 570.237,-884 583.323,-884"/>
<polygon fill="midnightblue" stroke="midnightblue" points="543.776,-880.5 533.776,-884 543.776,-887.5 543.776,-880.5"/>
</g>
<!-- Node3004 -->
<g id="node33" class="node"><title>Node3004</title>
<a xlink:href="classokw_1_1core_1_1_e_n___o_k_w_not_allowed_value_exception___keywords___i_g_n_o_r_e.html#a4a5bdff5f376e81e39f8dc0aaeb3f724" target="_top" xlink:title="Prüft ob &quot;&quot;${IGNORE}${TCN}&quot; die Ausnahme okw.exceptions.OKWNotAllowedValueException auslöst...">
<polygon fill="white" stroke="black" points="583.5,-794.5 583.5,-841.5 780.5,-841.5 780.5,-794.5 583.5,-794.5"/>
<text text-anchor="start" x="591.5" y="-828.5" font-family="Helvetica,sans-Serif" font-size="10.00">okw.core.EN_OKWNotAllowed</text>
<text text-anchor="start" x="591.5" y="-815.5" font-family="Helvetica,sans-Serif" font-size="10.00">ValueException_Keywords</text>
<text text-anchor="middle" x="682" y="-802.5" font-family="Helvetica,sans-Serif" font-size="10.00">_IGNORE.tcVerifyValueREGXIGNORE2</text>
</a>
</g>
<!-- Node2990&#45;&gt;Node3004 -->
<g id="edge32" class="edge"><title>Node2990&#45;&gt;Node3004</title>
<path fill="none" stroke="midnightblue" d="M501.743,-870.641C530.237,-862.32 567.699,-851.38 601.086,-841.63"/>
<polygon fill="midnightblue" stroke="midnightblue" points="500.678,-867.306 492.06,-873.469 502.64,-874.025 500.678,-867.306"/>
</g>
<!-- Node3005 -->
<g id="node35" class="node"><title>Node3005</title>
<a xlink:href="classokw_1_1core_1_1_e_n___verify_label___o_k_w_verifying_fails_exception___test.html#ade3b028cbdd0306128db5312e57d0c62" target="_top" xlink:title="Prüft, ob die Ausnahme OKWVerifyingFailsException bei einem Soll/Ist&#45;Vergleich ausgelöst wird...">
<polygon fill="white" stroke="black" points="577.5,-716 577.5,-776 786.5,-776 786.5,-716 577.5,-716"/>
<text text-anchor="start" x="585.5" y="-763" font-family="Helvetica,sans-Serif" font-size="10.00">okw.core.EN_VerifyLabel</text>
<text text-anchor="start" x="585.5" y="-750" font-family="Helvetica,sans-Serif" font-size="10.00">_OKWVerifyingFailsException</text>
<text text-anchor="start" x="585.5" y="-737" font-family="Helvetica,sans-Serif" font-size="10.00">_Test.TC_VerifyValueREGX_OKWVerifying</text>
<text text-anchor="middle" x="682" y="-724" font-family="Helvetica,sans-Serif" font-size="10.00">FailsException_SV01</text>
</a>
</g>
<!-- Node2990&#45;&gt;Node3005 -->
<g id="edge34" class="edge"><title>Node2990&#45;&gt;Node3005</title>
<path fill="none" stroke="midnightblue" d="M472.53,-865.937C493.379,-844.093 531.215,-807.47 570,-785 575.523,-781.8 581.351,-778.804 587.328,-776.008"/>
<polygon fill="midnightblue" stroke="midnightblue" points="469.944,-863.577 465.647,-873.262 475.046,-868.371 469.944,-863.577"/>
</g>
<!-- Node3006 -->
<g id="node37" class="node"><title>Node3006</title>
<a xlink:href="classokw_1_1core_1_1_e_n___verify_value___o_k_w_verifying_fails_exception___test.html#a426e16becde4daeae2052ef41f2e4735" target="_top" xlink:title="Prüft, ob die Ausnahme OKWVerifyingFailsException bei einem Soll/Ist&#45;Vergleich ausgelöst wird...">
<polygon fill="white" stroke="black" points="577.5,-638 577.5,-698 786.5,-698 786.5,-638 577.5,-638"/>
<text text-anchor="start" x="585.5" y="-685" font-family="Helvetica,sans-Serif" font-size="10.00">okw.core.EN_VerifyValue</text>
<text text-anchor="start" x="585.5" y="-672" font-family="Helvetica,sans-Serif" font-size="10.00">_OKWVerifyingFailsException</text>
<text text-anchor="start" x="585.5" y="-659" font-family="Helvetica,sans-Serif" font-size="10.00">_Test.TC_VerifyValueREGX_OKWVerifying</text>
<text text-anchor="middle" x="682" y="-646" font-family="Helvetica,sans-Serif" font-size="10.00">FailsException_SV01</text>
</a>
</g>
<!-- Node2990&#45;&gt;Node3006 -->
<g id="edge36" class="edge"><title>Node2990&#45;&gt;Node3006</title>
<path fill="none" stroke="midnightblue" d="M463.89,-863.466C478.981,-826.827 515.366,-750.004 570,-707 574.126,-703.753 578.541,-700.765 583.146,-698.018"/>
<polygon fill="midnightblue" stroke="midnightblue" points="460.513,-862.486 460.047,-873.07 467.012,-865.086 460.513,-862.486"/>
</g>
<!-- Node3007 -->
<g id="node39" class="node"><title>Node3007</title>
<a xlink:href="classokw_1_1core_1_1_e_n___verify_value___o_k_w_verifying_fails_exception___test.html#acedf0dca81c60920bba95b1bf8aa8e46" target="_top" xlink:title="Prüft, ob die Ausnahme OKWVerifyingFailsException bei einem Soll/Ist&#45;Vergleich ausgelöst wird...">
<polygon fill="white" stroke="black" points="577.5,-560 577.5,-620 786.5,-620 786.5,-560 577.5,-560"/>
<text text-anchor="start" x="585.5" y="-607" font-family="Helvetica,sans-Serif" font-size="10.00">okw.core.EN_VerifyValue</text>
<text text-anchor="start" x="585.5" y="-594" font-family="Helvetica,sans-Serif" font-size="10.00">_OKWVerifyingFailsException</text>
<text text-anchor="start" x="585.5" y="-581" font-family="Helvetica,sans-Serif" font-size="10.00">_Test.TC_VerifyValueREGX_OKWVerifying</text>
<text text-anchor="middle" x="682" y="-568" font-family="Helvetica,sans-Serif" font-size="10.00">FailsException_SV02</text>
</a>
</g>
<!-- Node2990&#45;&gt;Node3007 -->
<g id="edge38" class="edge"><title>Node2990&#45;&gt;Node3007</title>
<path fill="none" stroke="midnightblue" d="M459.533,-863.132C468.767,-814.951 498.073,-695.038 570,-629 573.488,-625.797 577.254,-622.855 581.219,-620.153"/>
<polygon fill="midnightblue" stroke="midnightblue" points="456.035,-862.807 457.688,-873.273 462.922,-864.061 456.035,-862.807"/>
</g>
<!-- Node3008 -->
<g id="node41" class="node"><title>Node3008</title>
<a xlink:href="classokw_1_1core_1_1_e_n___verify_value___o_k_w_verifying_fails_exception___test.html#ac3fcfe22d0a438f10c894d59eea29c97" target="_top" xlink:title="Prüft, ob die Ausnahme OKWVerifyingFailsException bei einem Soll/Ist&#45;Vergleich ausgelöst wird...">
<polygon fill="white" stroke="black" points="577.5,-482 577.5,-542 786.5,-542 786.5,-482 577.5,-482"/>
<text text-anchor="start" x="585.5" y="-529" font-family="Helvetica,sans-Serif" font-size="10.00">okw.core.EN_VerifyValue</text>
<text text-anchor="start" x="585.5" y="-516" font-family="Helvetica,sans-Serif" font-size="10.00">_OKWVerifyingFailsException</text>
<text text-anchor="start" x="585.5" y="-503" font-family="Helvetica,sans-Serif" font-size="10.00">_Test.TC_VerifyValueREGX_OKWVerifying</text>
<text text-anchor="middle" x="682" y="-490" font-family="Helvetica,sans-Serif" font-size="10.00">FailsException_SV03</text>
</a>
</g>
<!-- Node2990&#45;&gt;Node3008 -->
<g id="edge40" class="edge"><title>Node2990&#45;&gt;Node3008</title>
<path fill="none" stroke="midnightblue" d="M457.032,-863.268C461.019,-805.557 480.106,-641.367 570,-551 573.195,-547.789 576.667,-544.841 580.347,-542.136"/>
<polygon fill="midnightblue" stroke="midnightblue" points="453.533,-863.143 456.42,-873.337 460.52,-863.568 453.533,-863.143"/>
</g>
<!-- Node3009 -->
<g id="node43" class="node"><title>Node3009</title>
<a xlink:href="classokw_1_1core_1_1_e_n___verify_value___o_k_w_verifying_fails_exception___test.html#adcd7b7d96c323eced4fe225eb4177920" target="_top" xlink:title="Prüft, ob die Ausnahme OKWVerifyingFailsException bei einem Soll/Ist&#45;Vergleich ausgelöst wird...">
<polygon fill="white" stroke="black" points="577.5,-404 577.5,-464 786.5,-464 786.5,-404 577.5,-404"/>
<text text-anchor="start" x="585.5" y="-451" font-family="Helvetica,sans-Serif" font-size="10.00">okw.core.EN_VerifyValue</text>
<text text-anchor="start" x="585.5" y="-438" font-family="Helvetica,sans-Serif" font-size="10.00">_OKWVerifyingFailsException</text>
<text text-anchor="start" x="585.5" y="-425" font-family="Helvetica,sans-Serif" font-size="10.00">_Test.TC_VerifyValueREGX_OKWVerifying</text>
<text text-anchor="middle" x="682" y="-412" font-family="Helvetica,sans-Serif" font-size="10.00">FailsException_MV01</text>
</a>
</g>
<!-- Node2990&#45;&gt;Node3009 -->
<g id="edge42" class="edge"><title>Node2990&#45;&gt;Node3009</title>
<path fill="none" stroke="midnightblue" d="M459.17,-863.226C471.017,-788.094 514.844,-531.834 570,-473 572.957,-469.846 576.183,-466.946 579.613,-464.281"/>
<polygon fill="midnightblue" stroke="midnightblue" points="455.68,-862.894 457.602,-873.313 462.597,-863.97 455.68,-862.894"/>
</g>
<!-- Node3010 -->
<g id="node45" class="node"><title>Node3010</title>
<a xlink:href="classokw_1_1core_1_1_e_n___verify_value___o_k_w_verifying_fails_exception___test.html#acca2ff4746fe3d713bb820b56ef06c39" target="_top" xlink:title="Prüft, ob die Ausnahme OKWVerifyingFailsException bei einem Soll/Ist&#45;Vergleich ausgelöst wird...">
<polygon fill="white" stroke="black" points="577.5,-326 577.5,-386 786.5,-386 786.5,-326 577.5,-326"/>
<text text-anchor="start" x="585.5" y="-373" font-family="Helvetica,sans-Serif" font-size="10.00">okw.core.EN_VerifyValue</text>
<text text-anchor="start" x="585.5" y="-360" font-family="Helvetica,sans-Serif" font-size="10.00">_OKWVerifyingFailsException</text>
<text text-anchor="start" x="585.5" y="-347" font-family="Helvetica,sans-Serif" font-size="10.00">_Test.TC_VerifyValueREGX_OKWVerifying</text>
<text text-anchor="middle" x="682" y="-334" font-family="Helvetica,sans-Serif" font-size="10.00">FailsException_MV02</text>
</a>
</g>
<!-- Node2990&#45;&gt;Node3010 -->
<g id="edge44" class="edge"><title>Node2990&#45;&gt;Node3010</title>
<path fill="none" stroke="midnightblue" d="M458.158,-863.466C467.317,-779.939 505.498,-466.732 570,-395 572.891,-391.785 576.061,-388.835 579.446,-386.128"/>
<polygon fill="midnightblue" stroke="midnightblue" points="454.67,-863.165 457.079,-873.482 461.63,-863.915 454.67,-863.165"/>
</g>
<!-- Node3011 -->
<g id="node47" class="node"><title>Node3011</title>
<a xlink:href="classokw_1_1core_1_1_e_n___verify_value___o_k_w_verifying_fails_exception___test.html#a0328bcfab7669758c43d9b1e7f00d29b" target="_top" xlink:title="Prüft, ob die Ausnahme OKWVerifyingFailsException bei einem Soll/Ist&#45;Vergleich ausgelöst wird...">
<polygon fill="white" stroke="black" points="577.5,-248 577.5,-308 786.5,-308 786.5,-248 577.5,-248"/>
<text text-anchor="start" x="585.5" y="-295" font-family="Helvetica,sans-Serif" font-size="10.00">okw.core.EN_VerifyValue</text>
<text text-anchor="start" x="585.5" y="-282" font-family="Helvetica,sans-Serif" font-size="10.00">_OKWVerifyingFailsException</text>
<text text-anchor="start" x="585.5" y="-269" font-family="Helvetica,sans-Serif" font-size="10.00">_Test.TC_VerifyValueREGX_OKWVerifying</text>
<text text-anchor="middle" x="682" y="-256" font-family="Helvetica,sans-Serif" font-size="10.00">FailsException_MV03</text>
</a>
</g>
<!-- Node2990&#45;&gt;Node3011 -->
<g id="edge46" class="edge"><title>Node2990&#45;&gt;Node3011</title>
<path fill="none" stroke="midnightblue" d="M457.464,-863.206C464.337,-771.212 496.205,-401.638 570,-317 572.841,-313.741 575.97,-310.754 579.321,-308.017"/>
<polygon fill="midnightblue" stroke="midnightblue" points="453.97,-862.999 456.734,-873.227 460.952,-863.508 453.97,-862.999"/>
</g>
<!-- Node3012 -->
<g id="node49" class="node"><title>Node3012</title>
<a xlink:href="classokw_1_1core_1_1_e_n___verify_value___o_k_w_verifying_fails_exception___test.html#a37bca28b78ed8238b8d03f07f7ef8271" target="_top" xlink:title="Prüft, ob die Ausnahme OKWVerifyingFailsException bei einem Soll/Ist&#45;Vergleich ausgelöst wird...">
<polygon fill="white" stroke="black" points="577.5,-170 577.5,-230 786.5,-230 786.5,-170 577.5,-170"/>
<text text-anchor="start" x="585.5" y="-217" font-family="Helvetica,sans-Serif" font-size="10.00">okw.core.EN_VerifyValue</text>
<text text-anchor="start" x="585.5" y="-204" font-family="Helvetica,sans-Serif" font-size="10.00">_OKWVerifyingFailsException</text>
<text text-anchor="start" x="585.5" y="-191" font-family="Helvetica,sans-Serif" font-size="10.00">_Test.TC_VerifyValueREGX_OKWVerifying</text>
<text text-anchor="middle" x="682" y="-178" font-family="Helvetica,sans-Serif" font-size="10.00">FailsException_MV04</text>
</a>
</g>
<!-- Node2990&#45;&gt;Node3012 -->
<g id="edge48" class="edge"><title>Node2990&#45;&gt;Node3012</title>
<path fill="none" stroke="midnightblue" d="M456.911,-863.267C461.674,-763.852 486.772,-336.751 570,-239 572.67,-235.865 575.606,-232.981 578.75,-230.329"/>
<polygon fill="midnightblue" stroke="midnightblue" points="453.414,-863.113 456.448,-873.264 460.407,-863.436 453.414,-863.113"/>
</g>
<!-- Node3013 -->
<g id="node51" class="node"><title>Node3013</title>
<a xlink:href="classokw_1_1_se_input_field_1_1_se_input_field___test.html#a2255b938a8b8fb3779c49ec9ee68edd5" target="_top" xlink:title="Test des Schlüsselwortes &quot;VerifyValueWCM( FN, ExpValu ) für SeInputText. ">
<polygon fill="white" stroke="black" points="607.5,-118 607.5,-152 756.5,-152 756.5,-118 607.5,-118"/>
<text text-anchor="start" x="615.5" y="-139" font-family="Helvetica,sans-Serif" font-size="10.00">okw.SeInputField.SeInput</text>
<text text-anchor="middle" x="682" y="-126" font-family="Helvetica,sans-Serif" font-size="10.00">Field_Test.tcVerifyValueWCM</text>
</a>
</g>
<!-- Node2990&#45;&gt;Node3013 -->
<g id="edge50" class="edge"><title>Node2990&#45;&gt;Node3013</title>
<path fill="none" stroke="midnightblue" d="M456.258,-863.334C458.019,-756.412 471.434,-266.901 570,-161 579.928,-150.333 593.301,-143.636 607.347,-139.511"/>
<polygon fill="midnightblue" stroke="midnightblue" points="452.756,-863.41 456.108,-873.461 459.756,-863.514 452.756,-863.41"/>
</g>
<!-- Node3014 -->
<g id="node53" class="node"><title>Node3014</title>
<a xlink:href="classokw_1_1_se_link_1_1_se_link___e_n___test.html#ad88f4d017f1a55ad12f9ffc5ed0ab336" target="_top" xlink:title="Prüft die Methode SeLink.MemorizeToolTip. ">
<polygon fill="white" stroke="black" points="605,-66 605,-100 759,-100 759,-66 605,-66"/>
<text text-anchor="start" x="613" y="-87" font-family="Helvetica,sans-Serif" font-size="10.00">okw.SeLink.SeLink_EN</text>
<text text-anchor="middle" x="682" y="-74" font-family="Helvetica,sans-Serif" font-size="10.00">_Test.TC_MemorizeToolTip_en</text>
</a>
</g>
<!-- Node2990&#45;&gt;Node3014 -->
<g id="edge52" class="edge"><title>Node2990&#45;&gt;Node3014</title>
<path fill="none" stroke="midnightblue" d="M457.669,-863.186C467.285,-745.48 517.056,-166.477 570,-109 579.332,-98.8694 591.769,-92.3111 604.961,-88.1352"/>
<polygon fill="midnightblue" stroke="midnightblue" points="454.162,-863.123 456.843,-873.374 461.139,-863.689 454.162,-863.123"/>
</g>
<!-- Node3015 -->
<g id="node55" class="node"><title>Node3015</title>
<a xlink:href="classokw_1_1_se_radio_list_1_1_se_radio_list___test.html#a570eb3cf73952fbe534422dd7abc1449" target="_top" xlink:title="Prüft die Methode SeRadioList.MemorizeLabel. ">
<polygon fill="white" stroke="black" points="600,-0.5 600,-47.5 764,-47.5 764,-0.5 600,-0.5"/>
<text text-anchor="start" x="608" y="-34.5" font-family="Helvetica,sans-Serif" font-size="10.00">okw.SeRadioList.SeRadioList</text>
<text text-anchor="start" x="608" y="-21.5" font-family="Helvetica,sans-Serif" font-size="10.00">_Test.tcMemorizeLabel_Empty</text>
<text text-anchor="middle" x="682" y="-8.5" font-family="Helvetica,sans-Serif" font-size="10.00">_OKWNotAllowedValueException</text>
</a>
</g>
<!-- Node2990&#45;&gt;Node3015 -->
<g id="edge54" class="edge"><title>Node2990&#45;&gt;Node3015</title>
<path fill="none" stroke="midnightblue" d="M457.539,-863.002C466.7,-740.399 515.506,-120.32 570,-57 578,-47.7045 588.474,-40.9595 599.806,-36.0786"/>
<polygon fill="midnightblue" stroke="midnightblue" points="454.026,-863.047 456.777,-873.279 461.007,-863.565 454.026,-863.047"/>
</g>
</g>
</svg>
