<?xml version="1.0" encoding="UTF-8" standalone="no"?>
<!DOCTYPE svg PUBLIC "-//W3C//DTD SVG 1.1//EN"
 "http://www.w3.org/Graphics/SVG/1.1/DTD/svg11.dtd">
<!-- Generated by graphviz version 2.26.3 (20100126.1600)
 -->
<!-- Title: okw.core.IOKW_State.MemorizeTablecellValue Pages: 1 -->
<!--zoomable 278 -->
<svg id="main" version="1.1" xmlns="http://www.w3.org/2000/svg" xmlns:xlink="http://www.w3.org/1999/xlink" xml:space="preserve" onload="init(evt)">
<style type="text/css"><![CDATA[
.edge:hover path { stroke: red; }
.edge:hover polygon { stroke: red; fill: red; }
]]></style>
<script type="text/javascript"><![CDATA[
var edges = document.getElementsByTagName('g');
if (edges && edges.length) {
  for (var i=0;i<edges.length;i++) {
    if (edges[i].id.substr(0,4)=='edge') {
      edges[i].setAttribute('class','edge');
    }
  }
}
]]></script>
        <defs>
                <circle id="rim" cx="0" cy="0" r="7"/>
                <circle id="rim2" cx="0" cy="0" r="3.5"/>
                <g id="zoomPlus">
                        <use xlink:href="#rim" fill="#404040">
                                <set attributeName="fill" to="#808080" begin="zoomplus.mouseover" end="zoomplus.mouseout"/>
                        </use>
                        <path d="M-4,0h8M0,-4v8" fill="none" stroke="white" stroke-width="1.5" pointer-events="none"/>
                </g>
                <g id="zoomMin">
                        <use xlink:href="#rim" fill="#404040">
                                <set attributeName="fill" to="#808080" begin="zoomminus.mouseover" end="zoomminus.mouseout"/>
                        </use>
                        <path d="M-4,0h8" fill="none" stroke="white" stroke-width="1.5" pointer-events="none"/>
                </g>
                <g id="dirArrow">
                        <path fill="none" stroke="white" stroke-width="1.5" d="M0,-3.0v7 M-2.5,-0.5L0,-3.0L2.5,-0.5"/>
                </g>
               <g id="resetDef">
                       <use xlink:href="#rim2" fill="#404040">
                               <set attributeName="fill" to="#808080" begin="reset.mouseover" end="reset.mouseout"/>
                       </use>
               </g>
        </defs>

<script type="text/javascript">
var viewWidth = 798;
var viewHeight = 278;
var sectionId = 'dynsection-22';
</script>
<script xlink:href="svgpan.js"/>
<svg id="graph" class="graph">
<g id="viewport">
<title>okw.core.IOKW_State.MemorizeTablecellValue</title>
<polygon fill="white" stroke="white" points="-4,5 -4,-274 795,-274 795,5 -4,5"/>
<!-- Node828 -->
<g id="node1" class="node"><title>Node828</title>
<polygon fill="#bfbfbf" stroke="black" points="0.5,-97 0.5,-131 161.5,-131 161.5,-97 0.5,-97"/>
<text text-anchor="start" x="8.5" y="-118" font-family="Helvetica,sans-Serif" font-size="10.00">okw.core.IOKW_State.Memorize</text>
<text text-anchor="middle" x="81" y="-105" font-family="Helvetica,sans-Serif" font-size="10.00">TablecellValue</text>
</g>
<!-- Node829 -->
<g id="node3" class="node"><title>Node829</title>
<a xlink:href="classokw_1_1core_1_1_core.html#a67a1a2afd49b3f0e696f86e78a599c4b" target="_top" xlink:title="Merkt sich den Wert der gegebenen Zelle in der Tabelle. ">
<polygon fill="white" stroke="black" points="198.5,-97 198.5,-131 363.5,-131 363.5,-97 198.5,-97"/>
<text text-anchor="start" x="206.5" y="-118" font-family="Helvetica,sans-Serif" font-size="10.00">okw.core.Core.MemorizeTablecell</text>
<text text-anchor="middle" x="281" y="-105" font-family="Helvetica,sans-Serif" font-size="10.00">Value</text>
</a>
</g>
<!-- Node828&#45;&gt;Node829 -->
<g id="edge2" class="edge"><title>Node828&#45;&gt;Node829</title>
<path fill="none" stroke="midnightblue" d="M172,-114C180.764,-114 189.62,-114 198.298,-114"/>
<polygon fill="midnightblue" stroke="midnightblue" points="171.771,-110.5 161.771,-114 171.771,-117.5 171.771,-110.5"/>
</g>
<!-- Node830 -->
<g id="node5" class="node"><title>Node830</title>
<a xlink:href="classokw_1_1core_1_1_e_n.html#a69ca65f068665ec7e458d9701bb826ff" target="_top" xlink:title="Merkt sich den Wert der gegebenen Zelle in der Tabelle. ">
<polygon fill="white" stroke="black" points="403,-127 403,-161 561,-161 561,-127 403,-127"/>
<text text-anchor="start" x="411" y="-148" font-family="Helvetica,sans-Serif" font-size="10.00">okw.core.EN.MemorizeTablecell</text>
<text text-anchor="middle" x="482" y="-135" font-family="Helvetica,sans-Serif" font-size="10.00">Value</text>
</a>
</g>
<!-- Node829&#45;&gt;Node830 -->
<g id="edge4" class="edge"><title>Node829&#45;&gt;Node830</title>
<path fill="none" stroke="midnightblue" d="M373.741,-127.842C383.497,-129.298 393.352,-130.769 402.934,-132.199"/>
<polygon fill="midnightblue" stroke="midnightblue" points="374.032,-124.347 363.625,-126.332 372.998,-131.27 374.032,-124.347"/>
</g>
<!-- Node835 -->
<g id="node15" class="node"><title>Node835</title>
<a xlink:href="classokw_1_1core_1_1_current_object___test.html#aefef14ea88c3a0d237d4d94d6e60967e" target="_top" xlink:title="Testziel: Prüft den Aufruf der Methode MemorizeSelectedValue( FN, MemKey ) im ChildObject. ">
<polygon fill="white" stroke="black" points="400,-61.5 400,-108.5 564,-108.5 564,-61.5 400,-61.5"/>
<text text-anchor="start" x="408" y="-95.5" font-family="Helvetica,sans-Serif" font-size="10.00">okw.core.CurrentObject</text>
<text text-anchor="start" x="408" y="-82.5" font-family="Helvetica,sans-Serif" font-size="10.00">_Test.tc_MemorizeTablecellValue</text>
<text text-anchor="middle" x="482" y="-69.5" font-family="Helvetica,sans-Serif" font-size="10.00">Value_ChildObject</text>
</a>
</g>
<!-- Node829&#45;&gt;Node835 -->
<g id="edge14" class="edge"><title>Node829&#45;&gt;Node835</title>
<path fill="none" stroke="midnightblue" d="M373.741,-100.619C382.402,-99.3699 391.14,-98.1092 399.696,-96.8747"/>
<polygon fill="midnightblue" stroke="midnightblue" points="373.022,-97.1868 363.625,-102.079 374.022,-104.115 373.022,-97.1868"/>
</g>
<!-- Node831 -->
<g id="node7" class="node"><title>Node831</title>
<a xlink:href="classokw_1_1core_1_1_e_n___keywords___i_g_n_o_r_e___test.html#a20949f2b29cb54a93410b2070e8d249e" target="_top" xlink:title="okw.core.EN_Keywords\l_IGNORE_Test.TC_MemorizeTablecell\lValue_IGNORE">
<polygon fill="white" stroke="black" points="600,-222.5 600,-269.5 790,-269.5 790,-222.5 600,-222.5"/>
<text text-anchor="start" x="608" y="-256.5" font-family="Helvetica,sans-Serif" font-size="10.00">okw.core.EN_Keywords</text>
<text text-anchor="start" x="608" y="-243.5" font-family="Helvetica,sans-Serif" font-size="10.00">_IGNORE_Test.TC_MemorizeTablecell</text>
<text text-anchor="middle" x="695" y="-230.5" font-family="Helvetica,sans-Serif" font-size="10.00">Value_IGNORE</text>
</a>
</g>
<!-- Node830&#45;&gt;Node831 -->
<g id="edge6" class="edge"><title>Node830&#45;&gt;Node831</title>
<path fill="none" stroke="midnightblue" d="M516.627,-166.665C539.646,-181.12 570.887,-199.587 600,-213 607.215,-216.324 614.867,-219.509 622.571,-222.499"/>
<polygon fill="midnightblue" stroke="midnightblue" points="518.239,-163.543 507.919,-161.143 514.49,-169.454 518.239,-163.543"/>
</g>
<!-- Node832 -->
<g id="node9" class="node"><title>Node832</title>
<a xlink:href="classokw_1_1core_1_1_e_n___keywords___i_g_n_o_r_e___test.html#ac7967e74d2ef690fa5d402e9369730f5" target="_top" xlink:title="okw.core.EN_Keywords\l_IGNORE_Test.TC_MemorizeTablecell\lValue_IGNORE_StringEmpty">
<polygon fill="white" stroke="black" points="600,-156.5 600,-203.5 790,-203.5 790,-156.5 600,-156.5"/>
<text text-anchor="start" x="608" y="-190.5" font-family="Helvetica,sans-Serif" font-size="10.00">okw.core.EN_Keywords</text>
<text text-anchor="start" x="608" y="-177.5" font-family="Helvetica,sans-Serif" font-size="10.00">_IGNORE_Test.TC_MemorizeTablecell</text>
<text text-anchor="middle" x="695" y="-164.5" font-family="Helvetica,sans-Serif" font-size="10.00">Value_IGNORE_StringEmpty</text>
</a>
</g>
<!-- Node830&#45;&gt;Node832 -->
<g id="edge8" class="edge"><title>Node830&#45;&gt;Node832</title>
<path fill="none" stroke="midnightblue" d="M570.906,-159.026C580.483,-160.645 590.255,-162.297 599.9,-163.927"/>
<polygon fill="midnightblue" stroke="midnightblue" points="571.454,-155.569 561.011,-157.354 570.288,-162.472 571.454,-155.569"/>
</g>
<!-- Node833 -->
<g id="node11" class="node"><title>Node833</title>
<a xlink:href="classokw_1_1core_1_1_e_n___o_k_w_not_allowed_value_exception___keywords___i_g_n_o_r_e.html#a8c28a77c8241c9b46584fccb2fc480b1" target="_top" xlink:title="Prüft ob &quot;${IGNORE} &quot; die Ausnahme okw.exceptions.OKWNotAllowedValueException auslöst. ">
<polygon fill="white" stroke="black" points="605.5,-78 605.5,-138 784.5,-138 784.5,-78 605.5,-78"/>
<text text-anchor="start" x="613.5" y="-125" font-family="Helvetica,sans-Serif" font-size="10.00">okw.core.EN_OKWNotAllowed</text>
<text text-anchor="start" x="613.5" y="-112" font-family="Helvetica,sans-Serif" font-size="10.00">ValueException_Keywords</text>
<text text-anchor="start" x="613.5" y="-99" font-family="Helvetica,sans-Serif" font-size="10.00">_IGNORE.tcMemorizeTablecellValue</text>
<text text-anchor="middle" x="695" y="-86" font-family="Helvetica,sans-Serif" font-size="10.00">IGNORE1</text>
</a>
</g>
<!-- Node830&#45;&gt;Node833 -->
<g id="edge10" class="edge"><title>Node830&#45;&gt;Node833</title>
<path fill="none" stroke="midnightblue" d="M570.926,-128.97C582.305,-127.047 593.96,-125.077 605.35,-123.152"/>
<polygon fill="midnightblue" stroke="midnightblue" points="570.288,-125.528 561.011,-130.646 571.454,-132.431 570.288,-125.528"/>
</g>
<!-- Node834 -->
<g id="node13" class="node"><title>Node834</title>
<a xlink:href="classokw_1_1core_1_1_e_n___o_k_w_not_allowed_value_exception___keywords___i_g_n_o_r_e.html#a5661983ff87090109557ad06f0ad2301" target="_top" xlink:title="Prüft ob &quot;&quot;${IGNORE}${TCN}&quot; die Ausnahme okw.exceptions.OKWNotAllowedValueException auslöst...">
<polygon fill="white" stroke="black" points="605.5,-0 605.5,-60 784.5,-60 784.5,-0 605.5,-0"/>
<text text-anchor="start" x="613.5" y="-47" font-family="Helvetica,sans-Serif" font-size="10.00">okw.core.EN_OKWNotAllowed</text>
<text text-anchor="start" x="613.5" y="-34" font-family="Helvetica,sans-Serif" font-size="10.00">ValueException_Keywords</text>
<text text-anchor="start" x="613.5" y="-21" font-family="Helvetica,sans-Serif" font-size="10.00">_IGNORE.tcMemorizeTablecellValue</text>
<text text-anchor="middle" x="695" y="-8" font-family="Helvetica,sans-Serif" font-size="10.00">IGNORE2</text>
</a>
</g>
<!-- Node830&#45;&gt;Node834 -->
<g id="edge12" class="edge"><title>Node830&#45;&gt;Node834</title>
<path fill="none" stroke="midnightblue" d="M557.544,-122.212C559.77,-120.887 561.929,-119.485 564,-118 585.961,-102.252 578.707,-85.6401 600,-69 604.074,-65.8163 608.444,-62.8534 612.991,-60.1022"/>
<polygon fill="midnightblue" stroke="midnightblue" points="555.846,-119.151 548.668,-126.943 559.139,-125.328 555.846,-119.151"/>
</g>
</g>
</svg>
        <g id="navigator" transform="translate(0 0)" fill="#404254">
                <rect fill="#f2f5e9" fill-opacity="0.5" stroke="#606060" stroke-width=".5" x="0" y="0" width="60" height="60"/>
                <use id="zoomplus" xlink:href="#zoomPlus" x="17" y="9" onmousedown="handleZoom(evt,'in')"/>
                <use id="zoomminus" xlink:href="#zoomMin" x="42" y="9" onmousedown="handleZoom(evt,'out')"/>
                <use id="reset" xlink:href="#resetDef" x="30" y="36" onmousedown="handleReset()"/>
                <g id="arrowUp" xlink:href="#dirArrow" transform="translate(30 24)" onmousedown="handlePan(0,-1)">
                  <use xlink:href="#rim" fill="#404040">
                        <set attributeName="fill" to="#808080" begin="arrowUp.mouseover" end="arrowUp.mouseout"/>
                  </use>
                  <path fill="none" stroke="white" stroke-width="1.5" d="M0,-3.0v7 M-2.5,-0.5L0,-3.0L2.5,-0.5"/>
                </g>
                <g id="arrowRight" xlink:href="#dirArrow" transform="rotate(90) translate(36 -43)" onmousedown="handlePan(1,0)">
                  <use xlink:href="#rim" fill="#404040">
                        <set attributeName="fill" to="#808080" begin="arrowRight.mouseover" end="arrowRight.mouseout"/>
                  </use>
                  <path fill="none" stroke="white" stroke-width="1.5" d="M0,-3.0v7 M-2.5,-0.5L0,-3.0L2.5,-0.5"/>
                </g>
                <g id="arrowDown" xlink:href="#dirArrow" transform="rotate(180) translate(-30 -48)" onmousedown="handlePan(0,1)">
                  <use xlink:href="#rim" fill="#404040">
                        <set attributeName="fill" to="#808080" begin="arrowDown.mouseover" end="arrowDown.mouseout"/>
                  </use>
                  <path fill="none" stroke="white" stroke-width="1.5" d="M0,-3.0v7 M-2.5,-0.5L0,-3.0L2.5,-0.5"/>
                </g>
                <g id="arrowLeft" xlink:href="#dirArrow" transform="rotate(270) translate(-36 17)" onmousedown="handlePan(-1,0)">
                  <use xlink:href="#rim" fill="#404040">
                        <set attributeName="fill" to="#808080" begin="arrowLeft.mouseover" end="arrowLeft.mouseout"/>
                  </use>
                  <path fill="none" stroke="white" stroke-width="1.5" d="M0,-3.0v7 M-2.5,-0.5L0,-3.0L2.5,-0.5"/>
                </g>
        </g>
        <svg viewBox="0 0 15 15" width="100%" height="30px" preserveAspectRatio="xMaxYMin meet">
         <g id="arrow_out" transform="scale(0.3 0.3)">
          <a xlink:href="interfaceokw_1_1core_1_1_i_o_k_w___state_a663c898d044034490098c92870bce082_icgraph_org.svg" target="_base">
           <rect id="button" ry="5" rx="5" y="6" x="6" height="38" width="38"
                fill="#f2f5e9" fill-opacity="0.5" stroke="#606060" stroke-width="1.0"/>
           <path id="arrow"
             d="M 11.500037,31.436501 C 11.940474,20.09759 22.043105,11.32322 32.158766,21.979434 L 37.068811,17.246167 C 37.068811,17.246167 37.088388,32 37.088388,32 L 22.160133,31.978069 C 22.160133,31.978069 26.997745,27.140456 26.997745,27.140456 C 18.528582,18.264221 13.291696,25.230495 11.500037,31.436501 z"
             style="fill:#404040;"/>
          </a>
         </g>
        </svg>
</svg>
