<?xml version="1.0" encoding="UTF-8" standalone="no"?>
<!DOCTYPE svg PUBLIC "-//W3C//DTD SVG 1.1//EN"
 "http://www.w3.org/Graphics/SVG/1.1/DTD/svg11.dtd">
<!-- Generated by graphviz version 2.36.0 (20140111.2315)
 -->
<!-- Title: okw.core.IOKW_State.VerifyValueWCM Pages: 1 -->
<!--zoomable 1811 -->
<svg id="main" version="1.1" xmlns="http://www.w3.org/2000/svg" xmlns:xlink="http://www.w3.org/1999/xlink" xml:space="preserve" onload="init(evt)">
<style type="text/css"><![CDATA[
.edge:hover path { stroke: red; }
.edge:hover polygon { stroke: red; fill: red; }
]]></style>
<script type="text/javascript"><![CDATA[
var edges = document.getElementsByTagName('g');
if (edges && edges.length) {
  for (var i=0;i<edges.length;i++) {
    if (edges[i].id.substr(0,4)=='edge') {
      edges[i].setAttribute('class','edge');
    }
  }
}
]]></script>
        <defs>
                <circle id="rim" cx="0" cy="0" r="7"/>
                <circle id="rim2" cx="0" cy="0" r="3.5"/>
                <g id="zoomPlus">
                        <use xlink:href="#rim" fill="#404040">
                                <set attributeName="fill" to="#808080" begin="zoomplus.mouseover" end="zoomplus.mouseout"/>
                        </use>
                        <path d="M-4,0h8M0,-4v8" fill="none" stroke="white" stroke-width="1.5" pointer-events="none"/>
                </g>
                <g id="zoomMin">
                        <use xlink:href="#rim" fill="#404040">
                                <set attributeName="fill" to="#808080" begin="zoomminus.mouseover" end="zoomminus.mouseout"/>
                        </use>
                        <path d="M-4,0h8" fill="none" stroke="white" stroke-width="1.5" pointer-events="none"/>
                </g>
                <g id="dirArrow">
                        <path fill="none" stroke="white" stroke-width="1.5" d="M0,-3.0v7 M-2.5,-0.5L0,-3.0L2.5,-0.5"/>
                </g>
               <g id="resetDef">
                       <use xlink:href="#rim2" fill="#404040">
                               <set attributeName="fill" to="#808080" begin="reset.mouseover" end="reset.mouseout"/>
                       </use>
               </g>
        </defs>

<script type="text/javascript">
var viewWidth = 788;
var viewHeight = 1811;
var sectionId = 'dynsection-67';
</script>
<script xlink:href="svgpan.js"/>
<svg id="graph" class="graph">
<g id="viewport">
<title>okw.core.IOKW_State.VerifyValueWCM</title>
<polygon fill="white" stroke="none" points="-4,4 -4,-1807 784,-1807 784,4 -4,4"/>
<!-- Node3982 -->
<g id="node1" class="node"><title>Node3982</title>
<polygon fill="#bfbfbf" stroke="black" points="0.5,-829 0.5,-859 143.5,-859 143.5,-829 0.5,-829"/>
<text text-anchor="start" x="8.5" y="-847" font-family="Helvetica,sans-Serif" font-size="10.00">okw.core.IOKW_State.Verify</text>
<text text-anchor="middle" x="72" y="-836" font-family="Helvetica,sans-Serif" font-size="10.00">ValueWCM</text>
</g>
<!-- Node3983 -->
<g id="node2" class="node"><title>Node3983</title>
<g id="a_node2"><a xlink:href="classokw_1_1core_1_1_core.html#aaf9b78aa2200f60eb453331116e53704" target="_top" xlink:title="Prüft den Standardwert eines Objektes (in den meisten Fällen ist dies der angezeigte Text)...">
<polygon fill="white" stroke="black" points="180.5,-834.5 180.5,-853.5 339.5,-853.5 339.5,-834.5 180.5,-834.5"/>
<text text-anchor="middle" x="260" y="-841.5" font-family="Helvetica,sans-Serif" font-size="10.00">okw.core.Core.VerifyValueWCM</text>
</a>
</g>
</g>
<!-- Node3982&#45;&gt;Node3983 -->
<g id="edge1" class="edge"><title>Node3982&#45;&gt;Node3983</title>
<path fill="none" stroke="midnightblue" d="M153.836,-844C162.644,-844 171.599,-844 180.38,-844"/>
<polygon fill="midnightblue" stroke="midnightblue" points="153.584,-840.5 143.584,-844 153.584,-847.5 153.584,-840.5"/>
</g>
<!-- Node3984 -->
<g id="node3" class="node"><title>Node3984</title>
<g id="a_node3"><a xlink:href="classokw_1_1core_1_1_e_n.html#acae40ba869cd9f7f36a967050f52c515" target="_top" xlink:title="Prüft den Standardwert eines Objektes (in den meisten Fällen ist dies der angezeigte Text)...">
<polygon fill="white" stroke="black" points="376,-834.5 376,-853.5 528,-853.5 528,-834.5 376,-834.5"/>
<text text-anchor="middle" x="452" y="-841.5" font-family="Helvetica,sans-Serif" font-size="10.00">okw.core.EN.VerifyValueWCM</text>
</a>
</g>
</g>
<!-- Node3983&#45;&gt;Node3984 -->
<g id="edge2" class="edge"><title>Node3983&#45;&gt;Node3984</title>
<path fill="none" stroke="midnightblue" d="M349.797,-844C358.481,-844 367.235,-844 375.766,-844"/>
<polygon fill="midnightblue" stroke="midnightblue" points="349.652,-840.5 339.652,-844 349.652,-847.5 349.652,-840.5"/>
</g>
<!-- Node3985 -->
<g id="node4" class="node"><title>Node3985</title>
<g id="a_node4"><a xlink:href="classokw_1_1core_1_1_e_n___keywords___a_n_t_l_r___test.html#af439c47a1f9b1e2547e659db69fec77a" target="_top" xlink:title="okw.core.EN_Keywords\l_ANTLR_Test.tc_VerifyValueWCM\l_MemorizedValue">
<polygon fill="white" stroke="black" points="586,-1761.5 586,-1802.5 758,-1802.5 758,-1761.5 586,-1761.5"/>
<text text-anchor="start" x="594" y="-1790.5" font-family="Helvetica,sans-Serif" font-size="10.00">okw.core.EN_Keywords</text>
<text text-anchor="start" x="594" y="-1779.5" font-family="Helvetica,sans-Serif" font-size="10.00">_ANTLR_Test.tc_VerifyValueWCM</text>
<text text-anchor="middle" x="672" y="-1768.5" font-family="Helvetica,sans-Serif" font-size="10.00">_MemorizedValue</text>
</a>
</g>
</g>
<!-- Node3984&#45;&gt;Node3985 -->
<g id="edge3" class="edge"><title>Node3984&#45;&gt;Node3985</title>
<path fill="none" stroke="midnightblue" d="M454.124,-863.764C461.472,-990.034 504.227,-1680.79 564,-1751 570.018,-1758.07 577.541,-1763.58 585.793,-1767.86"/>
<polygon fill="midnightblue" stroke="midnightblue" points="457.609,-863.407 453.54,-853.625 450.621,-863.809 457.609,-863.407"/>
</g>
<!-- Node3986 -->
<g id="node5" class="node"><title>Node3986</title>
<g id="a_node5"><a xlink:href="classokw_1_1core_1_1_e_n___keywords___d_e_l_e_t_e___test.html#aef1aa280938a881904e91fbb8db09a8b" target="_top" xlink:title="okw.core.EN_Keywords\l_DELETE_Test.tcVerifyTablecell\lValueWCM_DELETE_OKWNotAllowedValue\lException">
<polygon fill="white" stroke="black" points="564.5,-1690 564.5,-1742 779.5,-1742 779.5,-1690 564.5,-1690"/>
<text text-anchor="start" x="572.5" y="-1730" font-family="Helvetica,sans-Serif" font-size="10.00">okw.core.EN_Keywords</text>
<text text-anchor="start" x="572.5" y="-1719" font-family="Helvetica,sans-Serif" font-size="10.00">_DELETE_Test.tcVerifyTablecell</text>
<text text-anchor="start" x="572.5" y="-1708" font-family="Helvetica,sans-Serif" font-size="10.00">ValueWCM_DELETE_OKWNotAllowedValue</text>
<text text-anchor="middle" x="672" y="-1697" font-family="Helvetica,sans-Serif" font-size="10.00">Exception</text>
</a>
</g>
</g>
<!-- Node3984&#45;&gt;Node3986 -->
<g id="edge4" class="edge"><title>Node3984&#45;&gt;Node3986</title>
<path fill="none" stroke="midnightblue" d="M452.91,-863.555C452.775,-976.858 457.44,-1548.57 564,-1679 567.233,-1682.96 570.914,-1686.49 574.917,-1689.65"/>
<polygon fill="midnightblue" stroke="midnightblue" points="456.41,-863.55 452.937,-853.54 449.41,-863.531 456.41,-863.55"/>
</g>
<!-- Node3987 -->
<g id="node6" class="node"><title>Node3987</title>
<g id="a_node6"><a xlink:href="classokw_1_1core_1_1_e_n___keywords___empty___test.html#a083f77bd6fdf453e5fa50fd6795f48b3" target="_top" xlink:title="Prüft &quot;${EMPTY}&quot; für das Schlüsselwort VerifyValue(string,string) ">
<polygon fill="white" stroke="black" points="585.5,-1629.5 585.5,-1670.5 758.5,-1670.5 758.5,-1629.5 585.5,-1629.5"/>
<text text-anchor="start" x="593.5" y="-1658.5" font-family="Helvetica,sans-Serif" font-size="10.00">okw.core.EN_Keywords</text>
<text text-anchor="start" x="593.5" y="-1647.5" font-family="Helvetica,sans-Serif" font-size="10.00">_Empty_Test.tc_VerifyValueWCM_</text>
<text text-anchor="middle" x="672" y="-1636.5" font-family="Helvetica,sans-Serif" font-size="10.00">Empty</text>
</a>
</g>
</g>
<!-- Node3984&#45;&gt;Node3987 -->
<g id="edge5" class="edge"><title>Node3984&#45;&gt;Node3987</title>
<path fill="none" stroke="midnightblue" d="M453.036,-863.908C453.633,-973.386 461.837,-1501.46 564,-1619 569.963,-1625.86 577.343,-1631.25 585.419,-1635.47"/>
<polygon fill="midnightblue" stroke="midnightblue" points="456.535,-863.635 452.996,-853.648 449.535,-863.662 456.535,-863.635"/>
</g>
<!-- Node3988 -->
<g id="node7" class="node"><title>Node3988</title>
<g id="a_node7"><a xlink:href="classokw_1_1core_1_1_e_n___keywords___i_g_n_o_r_e___test.html#ab46495c8f2ff4a81cc3e3dd046ed183f" target="_top" xlink:title="okw.core.EN_Keywords\l_IGNORE_Test.tcVerifyValueWCM\l_IGNORE">
<polygon fill="white" stroke="black" points="585.5,-1569.5 585.5,-1610.5 758.5,-1610.5 758.5,-1569.5 585.5,-1569.5"/>
<text text-anchor="start" x="593.5" y="-1598.5" font-family="Helvetica,sans-Serif" font-size="10.00">okw.core.EN_Keywords</text>
<text text-anchor="start" x="593.5" y="-1587.5" font-family="Helvetica,sans-Serif" font-size="10.00">_IGNORE_Test.tcVerifyValueWCM</text>
<text text-anchor="middle" x="672" y="-1576.5" font-family="Helvetica,sans-Serif" font-size="10.00">_IGNORE</text>
</a>
</g>
</g>
<!-- Node3984&#45;&gt;Node3988 -->
<g id="edge6" class="edge"><title>Node3984&#45;&gt;Node3988</title>
<path fill="none" stroke="midnightblue" d="M453.3,-863.993C455.27,-968.523 469.44,-1451.49 564,-1559 570.003,-1565.83 577.409,-1571.19 585.5,-1575.4"/>
<polygon fill="midnightblue" stroke="midnightblue" points="456.798,-863.811 453.126,-853.872 449.799,-863.931 456.798,-863.811"/>
</g>
<!-- Node3989 -->
<g id="node8" class="node"><title>Node3989</title>
<g id="a_node8"><a xlink:href="classokw_1_1core_1_1_e_n___keywords___i_g_n_o_r_e___test.html#a05ff212c6bf1e12b085e2eb47820379a" target="_top" xlink:title="okw.core.EN_Keywords\l_IGNORE_Test.tcVerifyValueWCM\l_IGNORE_EmptyString">
<polygon fill="white" stroke="black" points="585.5,-1509.5 585.5,-1550.5 758.5,-1550.5 758.5,-1509.5 585.5,-1509.5"/>
<text text-anchor="start" x="593.5" y="-1538.5" font-family="Helvetica,sans-Serif" font-size="10.00">okw.core.EN_Keywords</text>
<text text-anchor="start" x="593.5" y="-1527.5" font-family="Helvetica,sans-Serif" font-size="10.00">_IGNORE_Test.tcVerifyValueWCM</text>
<text text-anchor="middle" x="672" y="-1516.5" font-family="Helvetica,sans-Serif" font-size="10.00">_IGNORE_EmptyString</text>
</a>
</g>
</g>
<!-- Node3984&#45;&gt;Node3989 -->
<g id="edge7" class="edge"><title>Node3984&#45;&gt;Node3989</title>
<path fill="none" stroke="midnightblue" d="M453.575,-863.58C456.858,-962.078 476.321,-1402.52 564,-1500 569.999,-1506.67 577.35,-1511.91 585.362,-1516.01"/>
<polygon fill="midnightblue" stroke="midnightblue" points="457.071,-863.415 453.258,-853.531 450.075,-863.636 457.071,-863.415"/>
</g>
<!-- Node3990 -->
<g id="node9" class="node"><title>Node3990</title>
<g id="a_node9"><a xlink:href="classokw_1_1core_1_1_e_n___keywords___test.html#a58b68d3cc96183dd2ca9a4eee78fc409" target="_top" xlink:title="okw.core.EN_Keywords\l_Test.tc_VerifyValueWCM">
<polygon fill="white" stroke="black" points="605,-1461 605,-1491 739,-1491 739,-1461 605,-1461"/>
<text text-anchor="start" x="613" y="-1479" font-family="Helvetica,sans-Serif" font-size="10.00">okw.core.EN_Keywords</text>
<text text-anchor="middle" x="672" y="-1468" font-family="Helvetica,sans-Serif" font-size="10.00">_Test.tc_VerifyValueWCM</text>
</a>
</g>
</g>
<!-- Node3984&#45;&gt;Node3990 -->
<g id="edge8" class="edge"><title>Node3984&#45;&gt;Node3990</title>
<path fill="none" stroke="midnightblue" d="M453.799,-863.956C458.005,-958.854 480.659,-1363.5 564,-1451 574.789,-1462.33 589.644,-1468.96 604.854,-1472.75"/>
<polygon fill="midnightblue" stroke="midnightblue" points="457.286,-863.586 453.366,-853.744 450.293,-863.883 457.286,-863.586"/>
</g>
<!-- Node3991 -->
<g id="node10" class="node"><title>Node3991</title>
<g id="a_node10"><a xlink:href="classokw_1_1core_1_1_e_n___keywords___test.html#ab12d01ec6e1714261c26aef0c2a40df6" target="_top" xlink:title="okw.core.EN_Keywords\l_Test.tc_VerifyValueWCM\l_MultipleValues">
<polygon fill="white" stroke="black" points="605,-1401.5 605,-1442.5 739,-1442.5 739,-1401.5 605,-1401.5"/>
<text text-anchor="start" x="613" y="-1430.5" font-family="Helvetica,sans-Serif" font-size="10.00">okw.core.EN_Keywords</text>
<text text-anchor="start" x="613" y="-1419.5" font-family="Helvetica,sans-Serif" font-size="10.00">_Test.tc_VerifyValueWCM</text>
<text text-anchor="middle" x="672" y="-1408.5" font-family="Helvetica,sans-Serif" font-size="10.00">_MultipleValues</text>
</a>
</g>
</g>
<!-- Node3984&#45;&gt;Node3991 -->
<g id="edge9" class="edge"><title>Node3984&#45;&gt;Node3991</title>
<path fill="none" stroke="midnightblue" d="M454.308,-863.557C460.584,-951.692 490.403,-1311.12 564,-1391 574.746,-1402.66 589.586,-1410.04 604.795,-1414.67"/>
<polygon fill="midnightblue" stroke="midnightblue" points="457.799,-863.312 453.616,-853.578 450.816,-863.796 457.799,-863.312"/>
</g>
<!-- Node3992 -->
<g id="node11" class="node"><title>Node3992</title>
<g id="a_node11"><a xlink:href="classokw_1_1core_1_1_e_n___o_k_w_frame_object_child_not_found_exception___test.html#aaef560ba92da037187a978233be33a08" target="_top" xlink:title="Prüft ob die Ausnahme OKWFrameObjectChildNotFoundException durch die LFC&#45;VerifyValue ausgelöst wird...">
<polygon fill="white" stroke="black" points="566.5,-1330 566.5,-1382 777.5,-1382 777.5,-1330 566.5,-1330"/>
<text text-anchor="start" x="574.5" y="-1370" font-family="Helvetica,sans-Serif" font-size="10.00">okw.core.EN_OKWFrameObject</text>
<text text-anchor="start" x="574.5" y="-1359" font-family="Helvetica,sans-Serif" font-size="10.00">ChildNotFoundException</text>
<text text-anchor="start" x="574.5" y="-1348" font-family="Helvetica,sans-Serif" font-size="10.00">_Test.TC_VerifyValueWCM</text>
<text text-anchor="middle" x="672" y="-1337" font-family="Helvetica,sans-Serif" font-size="10.00">_OKWFrameObjectChildNotFoundException</text>
</a>
</g>
</g>
<!-- Node3984&#45;&gt;Node3992 -->
<g id="edge10" class="edge"><title>Node3984&#45;&gt;Node3992</title>
<path fill="none" stroke="midnightblue" d="M455.106,-864.229C463.991,-945.941 500.9,-1250.57 564,-1320 567.296,-1323.63 570.968,-1326.89 574.912,-1329.82"/>
<polygon fill="midnightblue" stroke="midnightblue" points="458.539,-863.418 453.998,-853.846 451.579,-864.16 458.539,-863.418"/>
</g>
<!-- Node3993 -->
<g id="node12" class="node"><title>Node3993</title>
<g id="a_node12"><a xlink:href="classokw_1_1core_1_1_e_n___o_k_w_frame_object_method_not_implemented___test.html#a871f31309255e4dc9807870b6decb789" target="_top" xlink:title="Prüft ob die Ausnahme OKWFrameObjectMethodNotImplemented von VerifyValueWCM( FN, ExpVal ) ausgelöst w...">
<polygon fill="white" stroke="black" points="564.5,-1259 564.5,-1311 779.5,-1311 779.5,-1259 564.5,-1259"/>
<text text-anchor="start" x="572.5" y="-1299" font-family="Helvetica,sans-Serif" font-size="10.00">okw.core.EN_OKWFrameObject</text>
<text text-anchor="start" x="572.5" y="-1288" font-family="Helvetica,sans-Serif" font-size="10.00">MethodNotImplemented_Test.TC</text>
<text text-anchor="start" x="572.5" y="-1277" font-family="Helvetica,sans-Serif" font-size="10.00">_VerifyValueWCM_OKWFrameObjectMethod</text>
<text text-anchor="middle" x="672" y="-1266" font-family="Helvetica,sans-Serif" font-size="10.00">NotImplemented</text>
</a>
</g>
</g>
<!-- Node3984&#45;&gt;Node3993 -->
<g id="edge11" class="edge"><title>Node3984&#45;&gt;Node3993</title>
<path fill="none" stroke="midnightblue" d="M452.389,-863.755C451.499,-928.147 457.484,-1134.35 564,-1248 567.764,-1252.02 571.984,-1255.6 576.516,-1258.79"/>
<polygon fill="midnightblue" stroke="midnightblue" points="455.889,-863.813 452.604,-853.741 448.89,-863.663 455.889,-863.813"/>
</g>
<!-- Node3994 -->
<g id="node13" class="node"><title>Node3994</title>
<g id="a_node13"><a xlink:href="classokw_1_1core_1_1_e_n___o_k_w_not_allowed_value_exception___keywords___i_g_n_o_r_e.html#a76b5e8a6ab3e32e9d1eaab7c95be1c77" target="_top" xlink:title="Prüft ob &quot;${IGNORE} &quot; die Ausnahme okw.exceptions.OKWNotAllowedValueException auslöst. ">
<polygon fill="white" stroke="black" points="575,-1198.5 575,-1239.5 769,-1239.5 769,-1198.5 575,-1198.5"/>
<text text-anchor="start" x="583" y="-1227.5" font-family="Helvetica,sans-Serif" font-size="10.00">okw.core.EN_OKWNotAllowed</text>
<text text-anchor="start" x="583" y="-1216.5" font-family="Helvetica,sans-Serif" font-size="10.00">ValueException_Keywords</text>
<text text-anchor="middle" x="672" y="-1205.5" font-family="Helvetica,sans-Serif" font-size="10.00">_IGNORE.tcVerifyValueWCMIGNORE1</text>
</a>
</g>
</g>
<!-- Node3984&#45;&gt;Node3994 -->
<g id="edge12" class="edge"><title>Node3984&#45;&gt;Node3994</title>
<path fill="none" stroke="midnightblue" d="M453.276,-863.655C455.193,-921.994 468.999,-1095.82 564,-1188 568.025,-1191.91 572.512,-1195.32 577.303,-1198.32"/>
<polygon fill="midnightblue" stroke="midnightblue" points="456.774,-863.498 453.031,-853.586 449.776,-863.668 456.774,-863.498"/>
</g>
<!-- Node3995 -->
<g id="node14" class="node"><title>Node3995</title>
<g id="a_node14"><a xlink:href="classokw_1_1core_1_1_e_n___o_k_w_not_allowed_value_exception___keywords___i_g_n_o_r_e.html#ae440a39281c24ab0e3d2b613f2a6e287" target="_top" xlink:title="Prüft ob &quot;&quot;${IGNORE}${TCN}&quot; die Ausnahme okw.exceptions.OKWNotAllowedValueException auslöst...">
<polygon fill="white" stroke="black" points="575,-1138.5 575,-1179.5 769,-1179.5 769,-1138.5 575,-1138.5"/>
<text text-anchor="start" x="583" y="-1167.5" font-family="Helvetica,sans-Serif" font-size="10.00">okw.core.EN_OKWNotAllowed</text>
<text text-anchor="start" x="583" y="-1156.5" font-family="Helvetica,sans-Serif" font-size="10.00">ValueException_Keywords</text>
<text text-anchor="middle" x="672" y="-1145.5" font-family="Helvetica,sans-Serif" font-size="10.00">_IGNORE.tcVerifyValueWCMIGNORE2</text>
</a>
</g>
</g>
<!-- Node3984&#45;&gt;Node3995 -->
<g id="edge13" class="edge"><title>Node3984&#45;&gt;Node3995</title>
<path fill="none" stroke="midnightblue" d="M454.801,-863.561C460.584,-914.849 483.324,-1054.32 564,-1128 568.356,-1131.98 573.192,-1135.45 578.333,-1138.47"/>
<polygon fill="midnightblue" stroke="midnightblue" points="458.271,-863.091 453.762,-853.504 451.308,-863.811 458.271,-863.091"/>
</g>
<!-- Node3996 -->
<g id="node15" class="node"><title>Node3996</title>
<g id="a_node15"><a xlink:href="classokw_1_1core_1_1_e_n___verify_value___o_k_w_verifying_fails_exception___test.html#a5165c970a18d108df0ba9f08900643b7" target="_top" xlink:title="Prüft, ob die Ausnahme OKWVerifyingFailsException bei einem Soll/Ist&#45;Vergleich ausgelöst wird...">
<polygon fill="white" stroke="black" points="569,-1067 569,-1119 775,-1119 775,-1067 569,-1067"/>
<text text-anchor="start" x="577" y="-1107" font-family="Helvetica,sans-Serif" font-size="10.00">okw.core.EN_VerifyValue</text>
<text text-anchor="start" x="577" y="-1096" font-family="Helvetica,sans-Serif" font-size="10.00">_OKWVerifyingFailsException</text>
<text text-anchor="start" x="577" y="-1085" font-family="Helvetica,sans-Serif" font-size="10.00">_Test.TC_VerifyValueWCM_OKWVerifying</text>
<text text-anchor="middle" x="672" y="-1074" font-family="Helvetica,sans-Serif" font-size="10.00">FailsException_M01</text>
</a>
</g>
</g>
<!-- Node3984&#45;&gt;Node3996 -->
<g id="edge14" class="edge"><title>Node3984&#45;&gt;Node3996</title>
<path fill="none" stroke="midnightblue" d="M457.8,-863.406C469.075,-904.989 501.161,-1003.26 564,-1057 568.32,-1060.69 573.034,-1064.01 577.998,-1066.99"/>
<polygon fill="midnightblue" stroke="midnightblue" points="461.177,-862.483 455.269,-853.688 454.403,-864.247 461.177,-862.483"/>
</g>
<!-- Node3997 -->
<g id="node16" class="node"><title>Node3997</title>
<g id="a_node16"><a xlink:href="classokw_1_1core_1_1_e_n___verify_value___o_k_w_verifying_fails_exception___test.html#ab209defc88377a7a63754e3ab513c6f3" target="_top" xlink:title="Prüft, ob die Ausnahme OKWVerifyingFailsException bei einem Soll/Ist&#45;Vergleich ausgelöst wird...">
<polygon fill="white" stroke="black" points="569,-996 569,-1048 775,-1048 775,-996 569,-996"/>
<text text-anchor="start" x="577" y="-1036" font-family="Helvetica,sans-Serif" font-size="10.00">okw.core.EN_VerifyValue</text>
<text text-anchor="start" x="577" y="-1025" font-family="Helvetica,sans-Serif" font-size="10.00">_OKWVerifyingFailsException</text>
<text text-anchor="start" x="577" y="-1014" font-family="Helvetica,sans-Serif" font-size="10.00">_Test.TC_VerifyValueWCM_OKWVerifying</text>
<text text-anchor="middle" x="672" y="-1003" font-family="Helvetica,sans-Serif" font-size="10.00">FailsException_SV01</text>
</a>
</g>
</g>
<!-- Node3984&#45;&gt;Node3997 -->
<g id="edge15" class="edge"><title>Node3984&#45;&gt;Node3997</title>
<path fill="none" stroke="midnightblue" d="M462.71,-862.514C479.434,-892.666 516.5,-952.38 564,-986 569.119,-989.623 574.631,-992.903 580.356,-995.869"/>
<polygon fill="midnightblue" stroke="midnightblue" points="465.67,-860.631 457.832,-853.503 459.514,-863.963 465.67,-860.631"/>
</g>
<!-- Node3998 -->
<g id="node17" class="node"><title>Node3998</title>
<g id="a_node17"><a xlink:href="classokw_1_1core_1_1_e_n___verify_value___o_k_w_verifying_fails_exception___test.html#ae6c3f62c653a07e74ebaa8c4fb132fc6" target="_top" xlink:title="Prüft, ob die Ausnahme OKWVerifyingFailsException bei einem Soll/Ist&#45;Vergleich ausgelöst wird...">
<polygon fill="white" stroke="black" points="569,-925 569,-977 775,-977 775,-925 569,-925"/>
<text text-anchor="start" x="577" y="-965" font-family="Helvetica,sans-Serif" font-size="10.00">okw.core.EN_VerifyValue</text>
<text text-anchor="start" x="577" y="-954" font-family="Helvetica,sans-Serif" font-size="10.00">_OKWVerifyingFailsException</text>
<text text-anchor="start" x="577" y="-943" font-family="Helvetica,sans-Serif" font-size="10.00">_Test.TC_VerifyValueWCM_OKWVerifying</text>
<text text-anchor="middle" x="672" y="-932" font-family="Helvetica,sans-Serif" font-size="10.00">FailsException_SV02</text>
</a>
</g>
</g>
<!-- Node3984&#45;&gt;Node3998 -->
<g id="edge16" class="edge"><title>Node3984&#45;&gt;Node3998</title>
<path fill="none" stroke="midnightblue" d="M473.855,-859.548C495.516,-875.155 530.818,-899.102 564,-915 571.335,-918.515 579.104,-921.836 586.974,-924.934"/>
<polygon fill="midnightblue" stroke="midnightblue" points="475.862,-856.68 465.72,-853.615 471.738,-862.335 475.862,-856.68"/>
</g>
<!-- Node3999 -->
<g id="node18" class="node"><title>Node3999</title>
<g id="a_node18"><a xlink:href="classokw_1_1core_1_1_e_n___verify_value___o_k_w_verifying_fails_exception___test.html#ad16f9e8ca5ae70fe54f92c611a3329f2" target="_top" xlink:title="Prüft, ob die Ausnahme OKWVerifyingFailsException bei einem Soll/Ist&#45;Vergleich ausgelöst wird...">
<polygon fill="white" stroke="black" points="569,-854 569,-906 775,-906 775,-854 569,-854"/>
<text text-anchor="start" x="577" y="-894" font-family="Helvetica,sans-Serif" font-size="10.00">okw.core.EN_VerifyValue</text>
<text text-anchor="start" x="577" y="-883" font-family="Helvetica,sans-Serif" font-size="10.00">_OKWVerifyingFailsException</text>
<text text-anchor="start" x="577" y="-872" font-family="Helvetica,sans-Serif" font-size="10.00">_Test.TC_VerifyValueWCM_OKWVerifying</text>
<text text-anchor="middle" x="672" y="-861" font-family="Helvetica,sans-Serif" font-size="10.00">FailsException_SV03</text>
</a>
</g>
</g>
<!-- Node3984&#45;&gt;Node3999 -->
<g id="edge17" class="edge"><title>Node3984&#45;&gt;Node3999</title>
<path fill="none" stroke="midnightblue" d="M520.435,-855.136C535.767,-857.668 552.388,-860.413 568.803,-863.123"/>
<polygon fill="midnightblue" stroke="midnightblue" points="520.999,-851.682 510.562,-853.506 519.858,-858.588 520.999,-851.682"/>
</g>
<!-- Node4000 -->
<g id="node19" class="node"><title>Node4000</title>
<g id="a_node19"><a xlink:href="classokw_1_1core_1_1_e_n___verify_value___o_k_w_verifying_fails_exception___test.html#a03f8b2e374e6d6a4a5f387d7fb29986a" target="_top" xlink:title="Prüft, ob die Ausnahme OKWVerifyingFailsException bei einem Soll/Ist&#45;Vergleich ausgelöst wird...">
<polygon fill="white" stroke="black" points="569,-783 569,-835 775,-835 775,-783 569,-783"/>
<text text-anchor="start" x="577" y="-823" font-family="Helvetica,sans-Serif" font-size="10.00">okw.core.EN_VerifyValue</text>
<text text-anchor="start" x="577" y="-812" font-family="Helvetica,sans-Serif" font-size="10.00">_OKWVerifyingFailsException</text>
<text text-anchor="start" x="577" y="-801" font-family="Helvetica,sans-Serif" font-size="10.00">_Test.TC_VerifyValueWCM_OKWVerifying</text>
<text text-anchor="middle" x="672" y="-790" font-family="Helvetica,sans-Serif" font-size="10.00">FailsException_MV01</text>
</a>
</g>
</g>
<!-- Node3984&#45;&gt;Node4000 -->
<g id="edge18" class="edge"><title>Node3984&#45;&gt;Node4000</title>
<path fill="none" stroke="midnightblue" d="M522.353,-832.865C537.187,-830.484 553.155,-827.92 568.928,-825.388"/>
<polygon fill="midnightblue" stroke="midnightblue" points="521.6,-829.441 512.282,-834.482 522.71,-836.353 521.6,-829.441"/>
</g>
<!-- Node4001 -->
<g id="node20" class="node"><title>Node4001</title>
<g id="a_node20"><a xlink:href="classokw_1_1core_1_1_e_n___verify_value___o_k_w_verifying_fails_exception___test.html#a883a6ebbb1ca9b7bb63fbe8bf8b60092" target="_top" xlink:title="Prüft, ob die Ausnahme OKWVerifyingFailsException bei einem Soll/Ist&#45;Vergleich ausgelöst wird...">
<polygon fill="white" stroke="black" points="569,-712 569,-764 775,-764 775,-712 569,-712"/>
<text text-anchor="start" x="577" y="-752" font-family="Helvetica,sans-Serif" font-size="10.00">okw.core.EN_VerifyValue</text>
<text text-anchor="start" x="577" y="-741" font-family="Helvetica,sans-Serif" font-size="10.00">_OKWVerifyingFailsException</text>
<text text-anchor="start" x="577" y="-730" font-family="Helvetica,sans-Serif" font-size="10.00">_Test.TC_VerifyValueWCM_OKWVerifying</text>
<text text-anchor="middle" x="672" y="-719" font-family="Helvetica,sans-Serif" font-size="10.00">FailsException_MV02</text>
</a>
</g>
</g>
<!-- Node3984&#45;&gt;Node4001 -->
<g id="edge19" class="edge"><title>Node3984&#45;&gt;Node4001</title>
<path fill="none" stroke="midnightblue" d="M474.247,-828.441C495.964,-813.066 531.084,-789.641 564,-774 571.435,-770.467 579.311,-767.124 587.282,-764.004"/>
<polygon fill="midnightblue" stroke="midnightblue" points="472.165,-825.626 466.074,-834.295 476.242,-831.317 472.165,-825.626"/>
</g>
<!-- Node4002 -->
<g id="node21" class="node"><title>Node4002</title>
<g id="a_node21"><a xlink:href="classokw_1_1core_1_1_e_n___verify_value___o_k_w_verifying_fails_exception___test.html#ab7fac13fbe8c938942c1469eb9038903" target="_top" xlink:title="Prüft, ob die Ausnahme OKWVerifyingFailsException bei einem Soll/Ist&#45;Vergleich ausgelöst wird...">
<polygon fill="white" stroke="black" points="569,-641 569,-693 775,-693 775,-641 569,-641"/>
<text text-anchor="start" x="577" y="-681" font-family="Helvetica,sans-Serif" font-size="10.00">okw.core.EN_VerifyValue</text>
<text text-anchor="start" x="577" y="-670" font-family="Helvetica,sans-Serif" font-size="10.00">_OKWVerifyingFailsException</text>
<text text-anchor="start" x="577" y="-659" font-family="Helvetica,sans-Serif" font-size="10.00">_Test.TC_VerifyValueWCM_OKWVerifying</text>
<text text-anchor="middle" x="672" y="-648" font-family="Helvetica,sans-Serif" font-size="10.00">FailsException_MV03</text>
</a>
</g>
</g>
<!-- Node3984&#45;&gt;Node4002 -->
<g id="edge20" class="edge"><title>Node3984&#45;&gt;Node4002</title>
<path fill="none" stroke="midnightblue" d="M462.988,-825.182C479.875,-795.109 516.879,-736.231 564,-703 569.206,-699.329 574.814,-696.01 580.639,-693.012"/>
<polygon fill="midnightblue" stroke="midnightblue" points="459.784,-823.746 458.047,-834.198 465.922,-827.111 459.784,-823.746"/>
</g>
<!-- Node4003 -->
<g id="node22" class="node"><title>Node4003</title>
<g id="a_node22"><a xlink:href="classokw_1_1core_1_1_e_n___verify_value___o_k_w_verifying_fails_exception___test.html#abbf11b28d6f4eee6538d5ecebe6544c6" target="_top" xlink:title="Prüft, ob die Ausnahme OKWVerifyingFailsException bei einem Soll/Ist&#45;Vergleich ausgelöst wird...">
<polygon fill="white" stroke="black" points="569,-570 569,-622 775,-622 775,-570 569,-570"/>
<text text-anchor="start" x="577" y="-610" font-family="Helvetica,sans-Serif" font-size="10.00">okw.core.EN_VerifyValue</text>
<text text-anchor="start" x="577" y="-599" font-family="Helvetica,sans-Serif" font-size="10.00">_OKWVerifyingFailsException</text>
<text text-anchor="start" x="577" y="-588" font-family="Helvetica,sans-Serif" font-size="10.00">_Test.TC_VerifyValueWCM_OKWVerifying</text>
<text text-anchor="middle" x="672" y="-577" font-family="Helvetica,sans-Serif" font-size="10.00">FailsException_MV04</text>
</a>
</g>
</g>
<!-- Node3984&#45;&gt;Node4003 -->
<g id="edge21" class="edge"><title>Node3984&#45;&gt;Node4003</title>
<path fill="none" stroke="midnightblue" d="M457.828,-824.685C469.156,-783.294 501.341,-685.477 564,-632 568.323,-628.31 573.04,-624.994 578.006,-622.015"/>
<polygon fill="midnightblue" stroke="midnightblue" points="454.443,-823.795 455.284,-834.357 461.212,-825.576 454.443,-823.795"/>
</g>
<!-- Node4004 -->
<g id="node23" class="node"><title>Node4004</title>
<g id="a_node23"><a xlink:href="classbrowser_1_1_frm_browser_base___test.html#ad01c53c3708838d512938da461830fd9" target="_top" xlink:title="Testet das Schlüsselwort VerifyValueWCM( FN ) für das Virtuelle&#45;GUI&#45;Adapter URL Prüfen. ">
<polygon fill="white" stroke="black" points="607,-521 607,-551 737,-551 737,-521 607,-521"/>
<text text-anchor="start" x="615" y="-539" font-family="Helvetica,sans-Serif" font-size="10.00">browser.FrmBrowserBase</text>
<text text-anchor="middle" x="672" y="-528" font-family="Helvetica,sans-Serif" font-size="10.00">_Test.tcURL_VerifyValue</text>
</a>
</g>
</g>
<!-- Node3984&#45;&gt;Node4004 -->
<g id="edge22" class="edge"><title>Node3984&#45;&gt;Node4004</title>
<path fill="none" stroke="midnightblue" d="M454.61,-824.266C459.927,-772.567 481.628,-632.271 564,-561 575.974,-550.64 591.431,-544.37 606.854,-540.626"/>
<polygon fill="midnightblue" stroke="midnightblue" points="451.108,-824.126 453.665,-834.407 458.077,-824.775 451.108,-824.126"/>
</g>
<!-- Node4005 -->
<g id="node24" class="node"><title>Node4005</title>
<g id="a_node24"><a xlink:href="classbrowser_1_1_frm_browser_base___test.html#a5e58bf20d8282c9d70074171013081fc" target="_top" xlink:title="Testet das Schlüsselwort VerifyValueWCM( FN ) für das Virtuelle&#45;GUI&#45;Adapter URL Prüfen. ">
<polygon fill="white" stroke="black" points="595,-472 595,-502 749,-502 749,-472 595,-472"/>
<text text-anchor="start" x="603" y="-490" font-family="Helvetica,sans-Serif" font-size="10.00">browser.FrmBrowserBase</text>
<text text-anchor="middle" x="672" y="-479" font-family="Helvetica,sans-Serif" font-size="10.00">_Test.tcURL_VerifyValueWCM</text>
</a>
</g>
</g>
<!-- Node3984&#45;&gt;Node4005 -->
<g id="edge23" class="edge"><title>Node3984&#45;&gt;Node4005</title>
<path fill="none" stroke="midnightblue" d="M453.324,-824.044C455.396,-766.343 469.637,-597.96 564,-512 572.744,-504.035 583.528,-498.462 594.852,-494.589"/>
<polygon fill="midnightblue" stroke="midnightblue" points="449.818,-824.24 453.047,-834.331 456.815,-824.428 449.818,-824.24"/>
</g>
<!-- Node4006 -->
<g id="node25" class="node"><title>Node4006</title>
<g id="a_node25"><a xlink:href="classokw_1_1_se_b_a_c_k_1_1_se_b_a_c_k___e_n___test.html#a2a157b68191b8519ea32fe39a1a04b4b" target="_top" xlink:title="Test des Schlüsselwortes &quot;VerifyValueWCM( FN, ExpValu ) für SeBACK. ">
<polygon fill="white" stroke="black" points="569,-412.5 569,-453.5 775,-453.5 775,-412.5 569,-412.5"/>
<text text-anchor="start" x="577" y="-441.5" font-family="Helvetica,sans-Serif" font-size="10.00">okw.SeBACK.SeBACK_EN</text>
<text text-anchor="start" x="577" y="-430.5" font-family="Helvetica,sans-Serif" font-size="10.00">_Test.tcVerifyValueWCM</text>
<text text-anchor="middle" x="672" y="-419.5" font-family="Helvetica,sans-Serif" font-size="10.00">_OKWFrameObjectMethodNotImplemented</text>
</a>
</g>
</g>
<!-- Node3984&#45;&gt;Node4006 -->
<g id="edge24" class="edge"><title>Node3984&#45;&gt;Node4006</title>
<path fill="none" stroke="midnightblue" d="M452.517,-824.303C452.106,-761.858 459.597,-566.35 564,-463 567.565,-459.471 571.509,-456.35 575.719,-453.589"/>
<polygon fill="midnightblue" stroke="midnightblue" points="449.018,-824.414 452.664,-834.362 456.017,-824.311 449.018,-824.414"/>
</g>
<!-- Node4007 -->
<g id="node26" class="node"><title>Node4007</title>
<g id="a_node26"><a xlink:href="classokw_1_1_se_button_1_1_se_button___e_n___test.html#a71a7ee883da39945857e9d251bd4eaa6" target="_top" xlink:title="Test des Schlüsselwortes VerifyValueWCM für den GUI&#45;Adapter SeButton. ">
<polygon fill="white" stroke="black" points="569,-352.5 569,-393.5 775,-393.5 775,-352.5 569,-352.5"/>
<text text-anchor="start" x="577" y="-381.5" font-family="Helvetica,sans-Serif" font-size="10.00">okw.SeButton.SeButton</text>
<text text-anchor="start" x="577" y="-370.5" font-family="Helvetica,sans-Serif" font-size="10.00">_EN_Test.tcVerifyValueWCM</text>
<text text-anchor="middle" x="672" y="-359.5" font-family="Helvetica,sans-Serif" font-size="10.00">_OKWFrameObjectMethodNotImplemented</text>
</a>
</g>
</g>
<!-- Node3984&#45;&gt;Node4007 -->
<g id="edge25" class="edge"><title>Node3984&#45;&gt;Node4007</title>
<path fill="none" stroke="midnightblue" d="M455.348,-824.189C464.917,-746.692 503.365,-465.281 564,-403 567.365,-399.544 571.092,-396.477 575.08,-393.756"/>
<polygon fill="midnightblue" stroke="midnightblue" points="451.833,-824.106 454.104,-834.455 458.782,-824.949 451.833,-824.106"/>
</g>
<!-- Node4008 -->
<g id="node27" class="node"><title>Node4008</title>
<g id="a_node27"><a xlink:href="classokw_1_1_se_input_field_1_1_se_input_field___e_n___test.html#a60d79636eacaede185bf8ae403e862b8" target="_top" xlink:title="Test des Schlüsselwortes &quot;VerifyValueWCM( FN, ExpValu ) für SeInputText. ">
<polygon fill="white" stroke="black" points="587.5,-304 587.5,-334 756.5,-334 756.5,-304 587.5,-304"/>
<text text-anchor="start" x="595.5" y="-322" font-family="Helvetica,sans-Serif" font-size="10.00">okw.SeInputField.SeInput</text>
<text text-anchor="middle" x="672" y="-311" font-family="Helvetica,sans-Serif" font-size="10.00">Field_EN_Test.tcVerifyValueWCM</text>
</a>
</g>
</g>
<!-- Node3984&#45;&gt;Node4008 -->
<g id="edge26" class="edge"><title>Node3984&#45;&gt;Node4008</title>
<path fill="none" stroke="midnightblue" d="M454.584,-824.408C461.757,-740.59 493.928,-413.256 564,-343 570.655,-336.328 578.737,-331.338 587.445,-327.631"/>
<polygon fill="midnightblue" stroke="midnightblue" points="451.096,-824.118 453.752,-834.374 458.072,-824.7 451.096,-824.118"/>
</g>
<!-- Node4009 -->
<g id="node28" class="node"><title>Node4009</title>
<g id="a_node28"><a xlink:href="classokw_1_1_se_input_radio_1_1_se_input_radio___e_n___test.html#a110e82fd5d9309ebf617febe21ef358d" target="_top" xlink:title="Test des Schlüsselwortes VerifyValueWCM für den GUI&#45;Adapter SeInputRadio. ">
<polygon fill="white" stroke="black" points="582.5,-255 582.5,-285 761.5,-285 761.5,-255 582.5,-255"/>
<text text-anchor="start" x="590.5" y="-273" font-family="Helvetica,sans-Serif" font-size="10.00">okw.SeInputRadio.SeInput</text>
<text text-anchor="middle" x="672" y="-262" font-family="Helvetica,sans-Serif" font-size="10.00">Radio_EN_Test.tc_VerifyValueWCM</text>
</a>
</g>
</g>
<!-- Node3984&#45;&gt;Node4009 -->
<g id="edge27" class="edge"><title>Node3984&#45;&gt;Node4009</title>
<path fill="none" stroke="midnightblue" d="M454.201,-824.281C460.011,-735.429 488.095,-373.219 564,-295 569.314,-289.524 575.58,-285.149 582.37,-281.664"/>
<polygon fill="midnightblue" stroke="midnightblue" points="450.703,-824.141 453.563,-834.342 457.689,-824.584 450.703,-824.141"/>
</g>
<!-- Node4010 -->
<g id="node29" class="node"><title>Node4010</title>
<g id="a_node29"><a xlink:href="classokw_1_1_se_input_radio_1_1_se_input_radio___e_n___test.html#a764e3f90123eb747d81f597d472711c3" target="_top" xlink:title="Test des Schlüsselwortes VerifyValueREGX für den GUI&#45;Adapter SeInputRadio. ">
<polygon fill="white" stroke="black" points="581,-206 581,-236 763,-236 763,-206 581,-206"/>
<text text-anchor="start" x="589" y="-224" font-family="Helvetica,sans-Serif" font-size="10.00">okw.SeInputRadio.SeInput</text>
<text text-anchor="middle" x="672" y="-213" font-family="Helvetica,sans-Serif" font-size="10.00">Radio_EN_Test.tc_VerifyValueREGX</text>
</a>
</g>
</g>
<!-- Node3984&#45;&gt;Node4010 -->
<g id="edge28" class="edge"><title>Node3984&#45;&gt;Node4010</title>
<path fill="none" stroke="midnightblue" d="M453.844,-824.337C458.262,-730.833 481.74,-332.134 564,-246 568.875,-240.896 574.576,-236.744 580.762,-233.377"/>
<polygon fill="midnightblue" stroke="midnightblue" points="450.345,-824.251 453.388,-834.399 457.338,-824.568 450.345,-824.251"/>
</g>
<!-- Node4011 -->
<g id="node30" class="node"><title>Node4011</title>
<g id="a_node30"><a xlink:href="classokw_1_1_se_link_1_1_se_link___e_n___test.html#ade5477cb18a1aaf96deb62f11f8a69c0" target="_top" xlink:title="Tooltip eines Textfeldes Prüfen. ">
<polygon fill="white" stroke="black" points="608.5,-157 608.5,-187 735.5,-187 735.5,-157 608.5,-157"/>
<text text-anchor="start" x="616.5" y="-175" font-family="Helvetica,sans-Serif" font-size="10.00">okw.SeLink.SeLink_EN</text>
<text text-anchor="middle" x="672" y="-164" font-family="Helvetica,sans-Serif" font-size="10.00">_Test.TC_LogToolTip_en</text>
</a>
</g>
</g>
<!-- Node3984&#45;&gt;Node4011 -->
<g id="edge29" class="edge"><title>Node3984&#45;&gt;Node4011</title>
<path fill="none" stroke="midnightblue" d="M453.555,-823.988C456.706,-725.247 475.484,-290.957 564,-197 575.577,-184.711 591.937,-177.932 608.39,-174.32"/>
<polygon fill="midnightblue" stroke="midnightblue" points="450.053,-823.996 453.251,-834.097 457.05,-824.207 450.053,-823.996"/>
</g>
<!-- Node4012 -->
<g id="node31" class="node"><title>Node4012</title>
<g id="a_node31"><a xlink:href="classokw_1_1_se_link_1_1_se_link___e_n___test.html#ad88f4d017f1a55ad12f9ffc5ed0ab336" target="_top" xlink:title="Prüft die Methode SeLink.MemorizeToolTip. ">
<polygon fill="white" stroke="black" points="595,-108 595,-138 749,-138 749,-108 595,-108"/>
<text text-anchor="start" x="603" y="-126" font-family="Helvetica,sans-Serif" font-size="10.00">okw.SeLink.SeLink_EN</text>
<text text-anchor="middle" x="672" y="-115" font-family="Helvetica,sans-Serif" font-size="10.00">_Test.TC_MemorizeToolTip_en</text>
</a>
</g>
</g>
<!-- Node3984&#45;&gt;Node4012 -->
<g id="edge30" class="edge"><title>Node3984&#45;&gt;Node4012</title>
<path fill="none" stroke="midnightblue" d="M453.289,-824.134C455.194,-721.264 469.062,-249.968 564,-148 572.32,-139.064 583.167,-133.034 594.758,-129.015"/>
<polygon fill="midnightblue" stroke="midnightblue" points="449.786,-824.286 453.118,-834.344 456.785,-824.404 449.786,-824.286"/>
</g>
<!-- Node4013 -->
<g id="node32" class="node"><title>Node4013</title>
<g id="a_node32"><a xlink:href="classokw_1_1_se_m_a_x_i_m_i_z_e_1_1_se_m_a_x_i_m_i_z_e___e_n___test.html#a4537459b68f3c017780affedb4dc8bc8" target="_top" xlink:title="Test des Schlüsselwortes &quot;VerifyValueWCM( FN, ExpValu ) für SeMAXIMIZE. ">
<polygon fill="white" stroke="black" points="591,-59 591,-89 753,-89 753,-59 591,-59"/>
<text text-anchor="start" x="599" y="-77" font-family="Helvetica,sans-Serif" font-size="10.00">okw.SeMAXIMIZE.SeMAXIMIZE</text>
<text text-anchor="middle" x="672" y="-66" font-family="Helvetica,sans-Serif" font-size="10.00">_EN_Test.tcVerifyValueWCM</text>
</a>
</g>
</g>
<!-- Node3984&#45;&gt;Node4013 -->
<g id="edge31" class="edge"><title>Node3984&#45;&gt;Node4013</title>
<path fill="none" stroke="midnightblue" d="M453.061,-824.097C453.802,-716.888 462.68,-208.947 564,-99 571.369,-91.0038 580.761,-85.329 590.91,-81.3383"/>
<polygon fill="midnightblue" stroke="midnightblue" points="449.561,-824.163 453.008,-834.181 456.56,-824.199 449.561,-824.163"/>
</g>
<!-- Node4014 -->
<g id="node33" class="node"><title>Node4014</title>
<g id="a_node33"><a xlink:href="classokw_1_1_se_radio_list_1_1_se_radio_list___e_n___test.html#a6867860868e8cc03d7c683740c2876bd" target="_top" xlink:title="Prüft die Methode SeRadioList.MemorizeLabel. ">
<polygon fill="white" stroke="black" points="573,0.5 573,-40.5 771,-40.5 771,0.5 573,0.5"/>
<text text-anchor="start" x="581" y="-28.5" font-family="Helvetica,sans-Serif" font-size="10.00">okw.SeRadioList.SeRadioList</text>
<text text-anchor="start" x="581" y="-17.5" font-family="Helvetica,sans-Serif" font-size="10.00">_EN_Test.tcMemorizeLabel</text>
<text text-anchor="middle" x="672" y="-6.5" font-family="Helvetica,sans-Serif" font-size="10.00">_Empty_OKWNotAllowedValueException</text>
</a>
</g>
</g>
<!-- Node3984&#45;&gt;Node4014 -->
<g id="edge32" class="edge"><title>Node3984&#45;&gt;Node4014</title>
<path fill="none" stroke="midnightblue" d="M452.943,-824.283C453.027,-713.61 458.848,-170.334 564,-50 567.047,-46.5134 570.463,-43.4168 574.152,-40.6678"/>
<polygon fill="midnightblue" stroke="midnightblue" points="449.443,-824.372 452.952,-834.369 456.443,-824.366 449.443,-824.372"/>
</g>
</g>
</svg>
        <g id="navigator" transform="translate(0 0)" fill="#404254">
                <rect fill="#f2f5e9" fill-opacity="0.5" stroke="#606060" stroke-width=".5" x="0" y="0" width="60" height="60"/>
                <use id="zoomplus" xlink:href="#zoomPlus" x="17" y="9" onmousedown="handleZoom(evt,'in')"/>
                <use id="zoomminus" xlink:href="#zoomMin" x="42" y="9" onmousedown="handleZoom(evt,'out')"/>
                <use id="reset" xlink:href="#resetDef" x="30" y="36" onmousedown="handleReset()"/>
                <g id="arrowUp" xlink:href="#dirArrow" transform="translate(30 24)" onmousedown="handlePan(0,-1)">
                  <use xlink:href="#rim" fill="#404040">
                        <set attributeName="fill" to="#808080" begin="arrowUp.mouseover" end="arrowUp.mouseout"/>
                  </use>
                  <path fill="none" stroke="white" stroke-width="1.5" d="M0,-3.0v7 M-2.5,-0.5L0,-3.0L2.5,-0.5"/>
                </g>
                <g id="arrowRight" xlink:href="#dirArrow" transform="rotate(90) translate(36 -43)" onmousedown="handlePan(1,0)">
                  <use xlink:href="#rim" fill="#404040">
                        <set attributeName="fill" to="#808080" begin="arrowRight.mouseover" end="arrowRight.mouseout"/>
                  </use>
                  <path fill="none" stroke="white" stroke-width="1.5" d="M0,-3.0v7 M-2.5,-0.5L0,-3.0L2.5,-0.5"/>
                </g>
                <g id="arrowDown" xlink:href="#dirArrow" transform="rotate(180) translate(-30 -48)" onmousedown="handlePan(0,1)">
                  <use xlink:href="#rim" fill="#404040">
                        <set attributeName="fill" to="#808080" begin="arrowDown.mouseover" end="arrowDown.mouseout"/>
                  </use>
                  <path fill="none" stroke="white" stroke-width="1.5" d="M0,-3.0v7 M-2.5,-0.5L0,-3.0L2.5,-0.5"/>
                </g>
                <g id="arrowLeft" xlink:href="#dirArrow" transform="rotate(270) translate(-36 17)" onmousedown="handlePan(-1,0)">
                  <use xlink:href="#rim" fill="#404040">
                        <set attributeName="fill" to="#808080" begin="arrowLeft.mouseover" end="arrowLeft.mouseout"/>
                  </use>
                  <path fill="none" stroke="white" stroke-width="1.5" d="M0,-3.0v7 M-2.5,-0.5L0,-3.0L2.5,-0.5"/>
                </g>
        </g>
        <svg viewBox="0 0 15 15" width="100%" height="30px" preserveAspectRatio="xMaxYMin meet">
         <g id="arrow_out" transform="scale(0.3 0.3)">
          <a xlink:href="interfaceokw_1_1core_1_1_i_o_k_w___state_afb81a5b87f50e267a98ed3902297b420_icgraph_org.svg" target="_base">
           <rect id="button" ry="5" rx="5" y="6" x="6" height="38" width="38"
                fill="#f2f5e9" fill-opacity="0.5" stroke="#606060" stroke-width="1.0"/>
           <path id="arrow"
             d="M 11.500037,31.436501 C 11.940474,20.09759 22.043105,11.32322 32.158766,21.979434 L 37.068811,17.246167 C 37.068811,17.246167 37.088388,32 37.088388,32 L 22.160133,31.978069 C 22.160133,31.978069 26.997745,27.140456 26.997745,27.140456 C 18.528582,18.264221 13.291696,25.230495 11.500037,31.436501 z"
             style="fill:#404040;"/>
          </a>
         </g>
        </svg>
</svg>
