<?xml version="1.0" encoding="UTF-8" standalone="no"?>
<!DOCTYPE svg PUBLIC "-//W3C//DTD SVG 1.1//EN"
 "http://www.w3.org/Graphics/SVG/1.1/DTD/svg11.dtd">
<!-- Generated by graphviz version 2.26.3 (20100126.1600)
 -->
<!-- Title: okw.core.IOKW_State.VerifyValueWCM Pages: 1 -->
<svg width="788pt" height="1622pt"
 viewBox="0.00 0.00 788.00 1622.00" xmlns="http://www.w3.org/2000/svg" xmlns:xlink="http://www.w3.org/1999/xlink">
<g id="graph1" class="graph" transform="scale(1 1) rotate(0) translate(4 1618)">
<title>okw.core.IOKW_State.VerifyValueWCM</title>
<polygon fill="white" stroke="white" points="-4,5 -4,-1618 785,-1618 785,5 -4,5"/>
<!-- Node3036 -->
<g id="node1" class="node"><title>Node3036</title>
<polygon fill="#bfbfbf" stroke="black" points="0.5,-756 0.5,-790 143.5,-790 143.5,-756 0.5,-756"/>
<text text-anchor="start" x="8.5" y="-777" font-family="Helvetica,sans-Serif" font-size="10.00">okw.core.IOKW_State.Verify</text>
<text text-anchor="middle" x="72" y="-764" font-family="Helvetica,sans-Serif" font-size="10.00">ValueWCM</text>
</g>
<!-- Node3037 -->
<g id="node3" class="node"><title>Node3037</title>
<a xlink:href="classokw_1_1core_1_1_core.html#aaf9b78aa2200f60eb453331116e53704" target="_top" xlink:title="Prüft den Standardwert eines Objektes (in den meisten Fällen ist dies der angezeigte Text)...">
<polygon fill="white" stroke="black" points="180.5,-762.5 180.5,-783.5 339.5,-783.5 339.5,-762.5 180.5,-762.5"/>
<text text-anchor="middle" x="260" y="-770.5" font-family="Helvetica,sans-Serif" font-size="10.00">okw.core.Core.VerifyValueWCM</text>
</a>
</g>
<!-- Node3036&#45;&gt;Node3037 -->
<g id="edge2" class="edge"><title>Node3036&#45;&gt;Node3037</title>
<path fill="none" stroke="midnightblue" d="M153.872,-773C162.685,-773 171.643,-773 180.429,-773"/>
<polygon fill="midnightblue" stroke="midnightblue" points="153.611,-769.5 143.611,-773 153.611,-776.5 153.611,-769.5"/>
</g>
<!-- Node3038 -->
<g id="node5" class="node"><title>Node3038</title>
<a xlink:href="classokw_1_1core_1_1_e_n.html#acae40ba869cd9f7f36a967050f52c515" target="_top" xlink:title="Prüft den Standardwert eines Objektes (in den meisten Fällen ist dies der angezeigte Text)...">
<polygon fill="white" stroke="black" points="376,-762.5 376,-783.5 528,-783.5 528,-762.5 376,-762.5"/>
<text text-anchor="middle" x="452" y="-770.5" font-family="Helvetica,sans-Serif" font-size="10.00">okw.core.EN.VerifyValueWCM</text>
</a>
</g>
<!-- Node3037&#45;&gt;Node3038 -->
<g id="edge4" class="edge"><title>Node3037&#45;&gt;Node3038</title>
<path fill="none" stroke="midnightblue" d="M349.906,-773C358.593,-773 367.346,-773 375.88,-773"/>
<polygon fill="midnightblue" stroke="midnightblue" points="349.757,-769.5 339.757,-773 349.757,-776.5 349.757,-769.5"/>
</g>
<!-- Node3039 -->
<g id="node7" class="node"><title>Node3039</title>
<a xlink:href="classokw_1_1core_1_1_e_n___keywords___a_n_t_l_r___test.html#af439c47a1f9b1e2547e659db69fec77a" target="_top" xlink:title="okw.core.EN_Keywords\l_ANTLR_Test.tc_VerifyValueWCM\l_MemorizedValue">
<polygon fill="white" stroke="black" points="586,-1566.5 586,-1613.5 758,-1613.5 758,-1566.5 586,-1566.5"/>
<text text-anchor="start" x="594" y="-1600.5" font-family="Helvetica,sans-Serif" font-size="10.00">okw.core.EN_Keywords</text>
<text text-anchor="start" x="594" y="-1587.5" font-family="Helvetica,sans-Serif" font-size="10.00">_ANTLR_Test.tc_VerifyValueWCM</text>
<text text-anchor="middle" x="672" y="-1574.5" font-family="Helvetica,sans-Serif" font-size="10.00">_MemorizedValue</text>
</a>
</g>
<!-- Node3038&#45;&gt;Node3039 -->
<g id="edge6" class="edge"><title>Node3038&#45;&gt;Node3039</title>
<path fill="none" stroke="midnightblue" d="M453.659,-793.997C463.217,-912.747 512.617,-1496.99 564,-1557 570.057,-1564.07 577.584,-1569.66 585.828,-1574.06"/>
<polygon fill="midnightblue" stroke="midnightblue" points="457.123,-793.409 452.838,-783.72 450.146,-793.967 457.123,-793.409"/>
</g>
<!-- Node3040 -->
<g id="node9" class="node"><title>Node3040</title>
<a xlink:href="classokw_1_1core_1_1_e_n___keywords___d_e_l_e_t_e___test.html#aef1aa280938a881904e91fbb8db09a8b" target="_top" xlink:title="okw.core.EN_Keywords\l_DELETE_Test.tcVerifyTablecell\lValueWCM_DELETE_OKWNotAllowedValue\lException">
<polygon fill="white" stroke="black" points="564.5,-1488 564.5,-1548 779.5,-1548 779.5,-1488 564.5,-1488"/>
<text text-anchor="start" x="572.5" y="-1535" font-family="Helvetica,sans-Serif" font-size="10.00">okw.core.EN_Keywords</text>
<text text-anchor="start" x="572.5" y="-1522" font-family="Helvetica,sans-Serif" font-size="10.00">_DELETE_Test.tcVerifyTablecell</text>
<text text-anchor="start" x="572.5" y="-1509" font-family="Helvetica,sans-Serif" font-size="10.00">ValueWCM_DELETE_OKWNotAllowedValue</text>
<text text-anchor="middle" x="672" y="-1496" font-family="Helvetica,sans-Serif" font-size="10.00">Exception</text>
</a>
</g>
<!-- Node3038&#45;&gt;Node3040 -->
<g id="edge8" class="edge"><title>Node3038&#45;&gt;Node3040</title>
<path fill="none" stroke="midnightblue" d="M452.531,-793.96C455.606,-899.335 474.257,-1370.44 564,-1479 566.667,-1482.23 569.624,-1485.19 572.804,-1487.9"/>
<polygon fill="midnightblue" stroke="midnightblue" points="456.023,-793.59 452.248,-783.69 449.025,-793.783 456.023,-793.59"/>
</g>
<!-- Node3041 -->
<g id="node11" class="node"><title>Node3041</title>
<a xlink:href="classokw_1_1core_1_1_e_n___keywords___empty___test.html#a083f77bd6fdf453e5fa50fd6795f48b3" target="_top" xlink:title="Prüft &quot;${EMPTY}&quot; für das Schlüsselwort VerifyValue(string,string) ">
<polygon fill="white" stroke="black" points="585.5,-1422.5 585.5,-1469.5 758.5,-1469.5 758.5,-1422.5 585.5,-1422.5"/>
<text text-anchor="start" x="593.5" y="-1456.5" font-family="Helvetica,sans-Serif" font-size="10.00">okw.core.EN_Keywords</text>
<text text-anchor="start" x="593.5" y="-1443.5" font-family="Helvetica,sans-Serif" font-size="10.00">_Empty_Test.tc_VerifyValueWCM_</text>
<text text-anchor="middle" x="672" y="-1430.5" font-family="Helvetica,sans-Serif" font-size="10.00">Empty</text>
</a>
</g>
<!-- Node3038&#45;&gt;Node3041 -->
<g id="edge10" class="edge"><title>Node3038&#45;&gt;Node3041</title>
<path fill="none" stroke="midnightblue" d="M452.8,-793.939C457.016,-893.448 479.755,-1317.67 564,-1413 569.972,-1419.76 577.285,-1425.15 585.264,-1429.46"/>
<polygon fill="midnightblue" stroke="midnightblue" points="456.287,-793.537 452.384,-783.687 449.293,-793.821 456.287,-793.537"/>
</g>
<!-- Node3042 -->
<g id="node13" class="node"><title>Node3042</title>
<a xlink:href="classokw_1_1core_1_1_e_n___keywords___test.html#a58b68d3cc96183dd2ca9a4eee78fc409" target="_top" xlink:title="okw.core.EN_Keywords\l_Test.tc_VerifyValueWCM">
<polygon fill="white" stroke="black" points="605,-1370 605,-1404 739,-1404 739,-1370 605,-1370"/>
<text text-anchor="start" x="613" y="-1391" font-family="Helvetica,sans-Serif" font-size="10.00">okw.core.EN_Keywords</text>
<text text-anchor="middle" x="672" y="-1378" font-family="Helvetica,sans-Serif" font-size="10.00">_Test.tc_VerifyValueWCM</text>
</a>
</g>
<!-- Node3038&#45;&gt;Node3042 -->
<g id="edge12" class="edge"><title>Node3038&#45;&gt;Node3042</title>
<path fill="none" stroke="midnightblue" d="M453.023,-793.835C458.089,-888.439 483.564,-1276.61 564,-1361 574.844,-1372.38 589.73,-1379.15 604.984,-1383.09"/>
<polygon fill="midnightblue" stroke="midnightblue" points="456.515,-793.599 452.504,-783.793 449.525,-793.96 456.515,-793.599"/>
</g>
<!-- Node3043 -->
<g id="node15" class="node"><title>Node3043</title>
<a xlink:href="classokw_1_1core_1_1_e_n___keywords___test.html#ab12d01ec6e1714261c26aef0c2a40df6" target="_top" xlink:title="okw.core.EN_Keywords\l_Test.tc_VerifyValueWCM\l_MultipleValues">
<polygon fill="white" stroke="black" points="605,-1304.5 605,-1351.5 739,-1351.5 739,-1304.5 605,-1304.5"/>
<text text-anchor="start" x="613" y="-1338.5" font-family="Helvetica,sans-Serif" font-size="10.00">okw.core.EN_Keywords</text>
<text text-anchor="start" x="613" y="-1325.5" font-family="Helvetica,sans-Serif" font-size="10.00">_Test.tc_VerifyValueWCM</text>
<text text-anchor="middle" x="672" y="-1312.5" font-family="Helvetica,sans-Serif" font-size="10.00">_MultipleValues</text>
</a>
</g>
<!-- Node3038&#45;&gt;Node3043 -->
<g id="edge14" class="edge"><title>Node3038&#45;&gt;Node3043</title>
<path fill="none" stroke="midnightblue" d="M453.693,-793.861C461.214,-881.536 494.334,-1219.13 564,-1295 574.807,-1306.77 589.679,-1314.39 604.933,-1319.31"/>
<polygon fill="midnightblue" stroke="midnightblue" points="457.175,-793.488 452.851,-783.815 450.199,-794.073 457.175,-793.488"/>
</g>
<!-- Node3044 -->
<g id="node17" class="node"><title>Node3044</title>
<a xlink:href="classokw_1_1core_1_1_e_n___o_k_w_frame_object_child_not_found_exception___test.html#aaef560ba92da037187a978233be33a08" target="_top" xlink:title="Prüft ob die Ausnahme OKWFrameObjectChildNotFoundException durch die LFC&#45;VerifyValue ausgelöst wird...">
<polygon fill="white" stroke="black" points="566.5,-1226 566.5,-1286 777.5,-1286 777.5,-1226 566.5,-1226"/>
<text text-anchor="start" x="574.5" y="-1273" font-family="Helvetica,sans-Serif" font-size="10.00">okw.core.EN_OKWFrameObject</text>
<text text-anchor="start" x="574.5" y="-1260" font-family="Helvetica,sans-Serif" font-size="10.00">ChildNotFoundException</text>
<text text-anchor="start" x="574.5" y="-1247" font-family="Helvetica,sans-Serif" font-size="10.00">_Test.TC_VerifyValueWCM</text>
<text text-anchor="middle" x="672" y="-1234" font-family="Helvetica,sans-Serif" font-size="10.00">_OKWFrameObjectChildNotFoundException</text>
</a>
</g>
<!-- Node3038&#45;&gt;Node3044 -->
<g id="edge16" class="edge"><title>Node3038&#45;&gt;Node3044</title>
<path fill="none" stroke="midnightblue" d="M454.65,-793.862C465.068,-872.856 505.523,-1152.4 564,-1217 566.943,-1220.25 570.178,-1223.23 573.633,-1225.96"/>
<polygon fill="midnightblue" stroke="midnightblue" points="458.091,-793.178 453.333,-783.712 451.149,-794.079 458.091,-793.178"/>
</g>
<!-- Node3045 -->
<g id="node19" class="node"><title>Node3045</title>
<a xlink:href="classokw_1_1core_1_1_e_n___o_k_w_frame_object_method_not_implemented___test.html#a871f31309255e4dc9807870b6decb789" target="_top" xlink:title="Prüft ob die Ausnahme OKWFrameObjectMethodNotImplemented von VerifyValueWCM( FN, ExpVal ) ausgelöst w...">
<polygon fill="white" stroke="black" points="564.5,-1148 564.5,-1208 779.5,-1208 779.5,-1148 564.5,-1148"/>
<text text-anchor="start" x="572.5" y="-1195" font-family="Helvetica,sans-Serif" font-size="10.00">okw.core.EN_OKWFrameObject</text>
<text text-anchor="start" x="572.5" y="-1182" font-family="Helvetica,sans-Serif" font-size="10.00">MethodNotImplemented_Test.TC</text>
<text text-anchor="start" x="572.5" y="-1169" font-family="Helvetica,sans-Serif" font-size="10.00">_VerifyValueWCM_OKWFrameObjectMethod</text>
<text text-anchor="middle" x="672" y="-1156" font-family="Helvetica,sans-Serif" font-size="10.00">NotImplemented</text>
</a>
</g>
<!-- Node3038&#45;&gt;Node3045 -->
<g id="edge18" class="edge"><title>Node3038&#45;&gt;Node3045</title>
<path fill="none" stroke="midnightblue" d="M455.816,-793.685C469.016,-863.227 514.641,-1087.13 564,-1139 567.023,-1142.18 570.325,-1145.1 573.834,-1147.78"/>
<polygon fill="midnightblue" stroke="midnightblue" points="459.201,-792.746 453.918,-783.563 452.321,-794.036 459.201,-792.746"/>
</g>
<!-- Node3046 -->
<g id="node21" class="node"><title>Node3046</title>
<a xlink:href="classokw_1_1core_1_1_e_n___o_k_w_not_allowed_value_exception___keywords___i_g_n_o_r_e.html#a76b5e8a6ab3e32e9d1eaab7c95be1c77" target="_top" xlink:title="Prüft ob &quot;${IGNORE} &quot; die Ausnahme okw.exceptions.OKWNotAllowedValueException auslöst. ">
<polygon fill="white" stroke="black" points="575,-1082.5 575,-1129.5 769,-1129.5 769,-1082.5 575,-1082.5"/>
<text text-anchor="start" x="583" y="-1116.5" font-family="Helvetica,sans-Serif" font-size="10.00">okw.core.EN_OKWNotAllowed</text>
<text text-anchor="start" x="583" y="-1103.5" font-family="Helvetica,sans-Serif" font-size="10.00">ValueException_Keywords</text>
<text text-anchor="middle" x="672" y="-1090.5" font-family="Helvetica,sans-Serif" font-size="10.00">_IGNORE.tcVerifyValueWCMIGNORE1</text>
</a>
</g>
<!-- Node3038&#45;&gt;Node3046 -->
<g id="edge20" class="edge"><title>Node3038&#45;&gt;Node3046</title>
<path fill="none" stroke="midnightblue" d="M453.579,-793.625C458.83,-847.624 480.465,-994.392 564,-1073 567.712,-1076.49 571.785,-1079.62 576.105,-1082.41"/>
<polygon fill="midnightblue" stroke="midnightblue" points="457.057,-793.221 452.691,-783.568 450.084,-793.837 457.057,-793.221"/>
</g>
<!-- Node3047 -->
<g id="node23" class="node"><title>Node3047</title>
<a xlink:href="classokw_1_1core_1_1_e_n___o_k_w_not_allowed_value_exception___keywords___i_g_n_o_r_e.html#ae440a39281c24ab0e3d2b613f2a6e287" target="_top" xlink:title="Prüft ob &quot;&quot;${IGNORE}${TCN}&quot; die Ausnahme okw.exceptions.OKWNotAllowedValueException auslöst...">
<polygon fill="white" stroke="black" points="575,-1016.5 575,-1063.5 769,-1063.5 769,-1016.5 575,-1016.5"/>
<text text-anchor="start" x="583" y="-1050.5" font-family="Helvetica,sans-Serif" font-size="10.00">okw.core.EN_OKWNotAllowed</text>
<text text-anchor="start" x="583" y="-1037.5" font-family="Helvetica,sans-Serif" font-size="10.00">ValueException_Keywords</text>
<text text-anchor="middle" x="672" y="-1024.5" font-family="Helvetica,sans-Serif" font-size="10.00">_IGNORE.tcVerifyValueWCMIGNORE2</text>
</a>
</g>
<!-- Node3038&#45;&gt;Node3047 -->
<g id="edge22" class="edge"><title>Node3038&#45;&gt;Node3047</title>
<path fill="none" stroke="midnightblue" d="M455.998,-793.568C465.902,-838.973 495.871,-948.386 564,-1007 568.087,-1010.52 572.542,-1013.66 577.24,-1016.46"/>
<polygon fill="midnightblue" stroke="midnightblue" points="459.41,-792.784 453.947,-783.706 452.557,-794.21 459.41,-792.784"/>
</g>
<!-- Node3048 -->
<g id="node25" class="node"><title>Node3048</title>
<a xlink:href="classokw_1_1core_1_1_e_n___verify_value___o_k_w_verifying_fails_exception___test.html#a5165c970a18d108df0ba9f08900643b7" target="_top" xlink:title="Prüft, ob die Ausnahme OKWVerifyingFailsException bei einem Soll/Ist&#45;Vergleich ausgelöst wird...">
<polygon fill="white" stroke="black" points="569,-938 569,-998 775,-998 775,-938 569,-938"/>
<text text-anchor="start" x="577" y="-985" font-family="Helvetica,sans-Serif" font-size="10.00">okw.core.EN_VerifyValue</text>
<text text-anchor="start" x="577" y="-972" font-family="Helvetica,sans-Serif" font-size="10.00">_OKWVerifyingFailsException</text>
<text text-anchor="start" x="577" y="-959" font-family="Helvetica,sans-Serif" font-size="10.00">_Test.TC_VerifyValueWCM_OKWVerifying</text>
<text text-anchor="middle" x="672" y="-946" font-family="Helvetica,sans-Serif" font-size="10.00">FailsException_M01</text>
</a>
</g>
<!-- Node3038&#45;&gt;Node3048 -->
<g id="edge24" class="edge"><title>Node3038&#45;&gt;Node3048</title>
<path fill="none" stroke="midnightblue" d="M461.266,-792.86C477.552,-825.713 514.349,-891.464 564,-929 568.214,-932.186 572.713,-935.13 577.393,-937.848"/>
<polygon fill="midnightblue" stroke="midnightblue" points="464.383,-791.267 456.879,-783.788 458.082,-794.314 464.383,-791.267"/>
</g>
<!-- Node3049 -->
<g id="node27" class="node"><title>Node3049</title>
<a xlink:href="classokw_1_1core_1_1_e_n___verify_value___o_k_w_verifying_fails_exception___test.html#ab209defc88377a7a63754e3ab513c6f3" target="_top" xlink:title="Prüft, ob die Ausnahme OKWVerifyingFailsException bei einem Soll/Ist&#45;Vergleich ausgelöst wird...">
<polygon fill="white" stroke="black" points="569,-860 569,-920 775,-920 775,-860 569,-860"/>
<text text-anchor="start" x="577" y="-907" font-family="Helvetica,sans-Serif" font-size="10.00">okw.core.EN_VerifyValue</text>
<text text-anchor="start" x="577" y="-894" font-family="Helvetica,sans-Serif" font-size="10.00">_OKWVerifyingFailsException</text>
<text text-anchor="start" x="577" y="-881" font-family="Helvetica,sans-Serif" font-size="10.00">_Test.TC_VerifyValueWCM_OKWVerifying</text>
<text text-anchor="middle" x="672" y="-868" font-family="Helvetica,sans-Serif" font-size="10.00">FailsException_SV01</text>
</a>
</g>
<!-- Node3038&#45;&gt;Node3049 -->
<g id="edge26" class="edge"><title>Node3038&#45;&gt;Node3049</title>
<path fill="none" stroke="midnightblue" d="M472.601,-789.833C494.309,-806.957 530,-833.41 564,-851 570.02,-854.114 576.346,-857.09 582.79,-859.907"/>
<polygon fill="midnightblue" stroke="midnightblue" points="474.731,-787.055 464.733,-783.55 470.363,-792.525 474.731,-787.055"/>
</g>
<!-- Node3050 -->
<g id="node29" class="node"><title>Node3050</title>
<a xlink:href="classokw_1_1core_1_1_e_n___verify_value___o_k_w_verifying_fails_exception___test.html#ae6c3f62c653a07e74ebaa8c4fb132fc6" target="_top" xlink:title="Prüft, ob die Ausnahme OKWVerifyingFailsException bei einem Soll/Ist&#45;Vergleich ausgelöst wird...">
<polygon fill="white" stroke="black" points="569,-782 569,-842 775,-842 775,-782 569,-782"/>
<text text-anchor="start" x="577" y="-829" font-family="Helvetica,sans-Serif" font-size="10.00">okw.core.EN_VerifyValue</text>
<text text-anchor="start" x="577" y="-816" font-family="Helvetica,sans-Serif" font-size="10.00">_OKWVerifyingFailsException</text>
<text text-anchor="start" x="577" y="-803" font-family="Helvetica,sans-Serif" font-size="10.00">_Test.TC_VerifyValueWCM_OKWVerifying</text>
<text text-anchor="middle" x="672" y="-790" font-family="Helvetica,sans-Serif" font-size="10.00">FailsException_SV02</text>
</a>
</g>
<!-- Node3038&#45;&gt;Node3050 -->
<g id="edge28" class="edge"><title>Node3038&#45;&gt;Node3050</title>
<path fill="none" stroke="midnightblue" d="M521.491,-785.319C536.587,-787.995 552.867,-790.881 568.947,-793.732"/>
<polygon fill="midnightblue" stroke="midnightblue" points="521.703,-781.802 511.245,-783.503 520.481,-788.694 521.703,-781.802"/>
</g>
<!-- Node3051 -->
<g id="node31" class="node"><title>Node3051</title>
<a xlink:href="classokw_1_1core_1_1_e_n___verify_value___o_k_w_verifying_fails_exception___test.html#ad16f9e8ca5ae70fe54f92c611a3329f2" target="_top" xlink:title="Prüft, ob die Ausnahme OKWVerifyingFailsException bei einem Soll/Ist&#45;Vergleich ausgelöst wird...">
<polygon fill="white" stroke="black" points="569,-704 569,-764 775,-764 775,-704 569,-704"/>
<text text-anchor="start" x="577" y="-751" font-family="Helvetica,sans-Serif" font-size="10.00">okw.core.EN_VerifyValue</text>
<text text-anchor="start" x="577" y="-738" font-family="Helvetica,sans-Serif" font-size="10.00">_OKWVerifyingFailsException</text>
<text text-anchor="start" x="577" y="-725" font-family="Helvetica,sans-Serif" font-size="10.00">_Test.TC_VerifyValueWCM_OKWVerifying</text>
<text text-anchor="middle" x="672" y="-712" font-family="Helvetica,sans-Serif" font-size="10.00">FailsException_SV03</text>
</a>
</g>
<!-- Node3038&#45;&gt;Node3051 -->
<g id="edge30" class="edge"><title>Node3038&#45;&gt;Node3051</title>
<path fill="none" stroke="midnightblue" d="M521.491,-760.681C536.587,-758.005 552.867,-755.119 568.947,-752.268"/>
<polygon fill="midnightblue" stroke="midnightblue" points="520.481,-757.306 511.245,-762.497 521.703,-764.198 520.481,-757.306"/>
</g>
<!-- Node3052 -->
<g id="node33" class="node"><title>Node3052</title>
<a xlink:href="classokw_1_1core_1_1_e_n___verify_value___o_k_w_verifying_fails_exception___test.html#a03f8b2e374e6d6a4a5f387d7fb29986a" target="_top" xlink:title="Prüft, ob die Ausnahme OKWVerifyingFailsException bei einem Soll/Ist&#45;Vergleich ausgelöst wird...">
<polygon fill="white" stroke="black" points="569,-626 569,-686 775,-686 775,-626 569,-626"/>
<text text-anchor="start" x="577" y="-673" font-family="Helvetica,sans-Serif" font-size="10.00">okw.core.EN_VerifyValue</text>
<text text-anchor="start" x="577" y="-660" font-family="Helvetica,sans-Serif" font-size="10.00">_OKWVerifyingFailsException</text>
<text text-anchor="start" x="577" y="-647" font-family="Helvetica,sans-Serif" font-size="10.00">_Test.TC_VerifyValueWCM_OKWVerifying</text>
<text text-anchor="middle" x="672" y="-634" font-family="Helvetica,sans-Serif" font-size="10.00">FailsException_MV01</text>
</a>
</g>
<!-- Node3038&#45;&gt;Node3052 -->
<g id="edge32" class="edge"><title>Node3038&#45;&gt;Node3052</title>
<path fill="none" stroke="midnightblue" d="M472.601,-756.167C494.309,-739.043 530,-712.59 564,-695 570.02,-691.886 576.346,-688.91 582.79,-686.093"/>
<polygon fill="midnightblue" stroke="midnightblue" points="470.363,-753.475 464.733,-762.45 474.731,-758.945 470.363,-753.475"/>
</g>
<!-- Node3053 -->
<g id="node35" class="node"><title>Node3053</title>
<a xlink:href="classokw_1_1core_1_1_e_n___verify_value___o_k_w_verifying_fails_exception___test.html#a883a6ebbb1ca9b7bb63fbe8bf8b60092" target="_top" xlink:title="Prüft, ob die Ausnahme OKWVerifyingFailsException bei einem Soll/Ist&#45;Vergleich ausgelöst wird...">
<polygon fill="white" stroke="black" points="569,-548 569,-608 775,-608 775,-548 569,-548"/>
<text text-anchor="start" x="577" y="-595" font-family="Helvetica,sans-Serif" font-size="10.00">okw.core.EN_VerifyValue</text>
<text text-anchor="start" x="577" y="-582" font-family="Helvetica,sans-Serif" font-size="10.00">_OKWVerifyingFailsException</text>
<text text-anchor="start" x="577" y="-569" font-family="Helvetica,sans-Serif" font-size="10.00">_Test.TC_VerifyValueWCM_OKWVerifying</text>
<text text-anchor="middle" x="672" y="-556" font-family="Helvetica,sans-Serif" font-size="10.00">FailsException_MV02</text>
</a>
</g>
<!-- Node3038&#45;&gt;Node3053 -->
<g id="edge34" class="edge"><title>Node3038&#45;&gt;Node3053</title>
<path fill="none" stroke="midnightblue" d="M461.266,-753.14C477.552,-720.287 514.349,-654.536 564,-617 568.214,-613.814 572.713,-610.87 577.393,-608.152"/>
<polygon fill="midnightblue" stroke="midnightblue" points="458.082,-751.686 456.879,-762.212 464.383,-754.733 458.082,-751.686"/>
</g>
<!-- Node3054 -->
<g id="node37" class="node"><title>Node3054</title>
<a xlink:href="classokw_1_1core_1_1_e_n___verify_value___o_k_w_verifying_fails_exception___test.html#ab7fac13fbe8c938942c1469eb9038903" target="_top" xlink:title="Prüft, ob die Ausnahme OKWVerifyingFailsException bei einem Soll/Ist&#45;Vergleich ausgelöst wird...">
<polygon fill="white" stroke="black" points="569,-470 569,-530 775,-530 775,-470 569,-470"/>
<text text-anchor="start" x="577" y="-517" font-family="Helvetica,sans-Serif" font-size="10.00">okw.core.EN_VerifyValue</text>
<text text-anchor="start" x="577" y="-504" font-family="Helvetica,sans-Serif" font-size="10.00">_OKWVerifyingFailsException</text>
<text text-anchor="start" x="577" y="-491" font-family="Helvetica,sans-Serif" font-size="10.00">_Test.TC_VerifyValueWCM_OKWVerifying</text>
<text text-anchor="middle" x="672" y="-478" font-family="Helvetica,sans-Serif" font-size="10.00">FailsException_MV03</text>
</a>
</g>
<!-- Node3038&#45;&gt;Node3054 -->
<g id="edge36" class="edge"><title>Node3038&#45;&gt;Node3054</title>
<path fill="none" stroke="midnightblue" d="M456.281,-752.392C466.688,-707.312 497.498,-599.171 564,-539 567.548,-535.79 571.379,-532.839 575.411,-530.127"/>
<polygon fill="midnightblue" stroke="midnightblue" points="452.804,-751.908 454.065,-762.427 459.639,-753.417 452.804,-751.908"/>
</g>
<!-- Node3055 -->
<g id="node39" class="node"><title>Node3055</title>
<a xlink:href="classokw_1_1core_1_1_e_n___verify_value___o_k_w_verifying_fails_exception___test.html#abbf11b28d6f4eee6538d5ecebe6544c6" target="_top" xlink:title="Prüft, ob die Ausnahme OKWVerifyingFailsException bei einem Soll/Ist&#45;Vergleich ausgelöst wird...">
<polygon fill="white" stroke="black" points="569,-392 569,-452 775,-452 775,-392 569,-392"/>
<text text-anchor="start" x="577" y="-439" font-family="Helvetica,sans-Serif" font-size="10.00">okw.core.EN_VerifyValue</text>
<text text-anchor="start" x="577" y="-426" font-family="Helvetica,sans-Serif" font-size="10.00">_OKWVerifyingFailsException</text>
<text text-anchor="start" x="577" y="-413" font-family="Helvetica,sans-Serif" font-size="10.00">_Test.TC_VerifyValueWCM_OKWVerifying</text>
<text text-anchor="middle" x="672" y="-400" font-family="Helvetica,sans-Serif" font-size="10.00">FailsException_MV04</text>
</a>
</g>
<!-- Node3038&#45;&gt;Node3055 -->
<g id="edge38" class="edge"><title>Node3038&#45;&gt;Node3055</title>
<path fill="none" stroke="midnightblue" d="M453.505,-752.184C458.598,-696.964 479.927,-545.232 564,-461 567.239,-457.755 570.768,-454.778 574.508,-452.047"/>
<polygon fill="midnightblue" stroke="midnightblue" points="449.992,-752.187 452.648,-762.444 456.968,-752.77 449.992,-752.187"/>
</g>
<!-- Node3056 -->
<g id="node41" class="node"><title>Node3056</title>
<a xlink:href="classokw_1_1_se_button_1_1_se_button___test.html#ae0a44da94ba300ea3c7baf5bf1a72f8f" target="_top" xlink:title="Test des Schlüsselwortes VerifyValueWCM für den GUI&#45;Adapter SeButton. ">
<polygon fill="white" stroke="black" points="569,-326.5 569,-373.5 775,-373.5 775,-326.5 569,-326.5"/>
<text text-anchor="start" x="577" y="-360.5" font-family="Helvetica,sans-Serif" font-size="10.00">okw.SeButton.SeButton</text>
<text text-anchor="start" x="577" y="-347.5" font-family="Helvetica,sans-Serif" font-size="10.00">_Test.tcVerifyValueWCM</text>
<text text-anchor="middle" x="672" y="-334.5" font-family="Helvetica,sans-Serif" font-size="10.00">_OKWFrameObjectMethodNotImplemented</text>
</a>
</g>
<!-- Node3038&#45;&gt;Node3056 -->
<g id="edge40" class="edge"><title>Node3038&#45;&gt;Node3056</title>
<path fill="none" stroke="midnightblue" d="M455.292,-752.294C467.239,-679.598 510.438,-437.475 564,-383 567.436,-379.505 571.232,-376.378 575.283,-373.58"/>
<polygon fill="midnightblue" stroke="midnightblue" points="451.791,-752.021 453.646,-762.452 458.701,-753.141 451.791,-752.021"/>
</g>
<!-- Node3057 -->
<g id="node43" class="node"><title>Node3057</title>
<a xlink:href="classokw_1_1_se_input_field_1_1_se_input_field___test.html#a2255b938a8b8fb3779c49ec9ee68edd5" target="_top" xlink:title="Test des Schlüsselwortes &quot;VerifyValueWCM( FN, ExpValu ) für SeInputText. ">
<polygon fill="white" stroke="black" points="597.5,-274 597.5,-308 746.5,-308 746.5,-274 597.5,-274"/>
<text text-anchor="start" x="605.5" y="-295" font-family="Helvetica,sans-Serif" font-size="10.00">okw.SeInputField.SeInput</text>
<text text-anchor="middle" x="672" y="-282" font-family="Helvetica,sans-Serif" font-size="10.00">Field_Test.tcVerifyValueWCM</text>
</a>
</g>
<!-- Node3038&#45;&gt;Node3057 -->
<g id="edge42" class="edge"><title>Node3038&#45;&gt;Node3057</title>
<path fill="none" stroke="midnightblue" d="M454.289,-751.9C463.513,-670.753 500.535,-380.174 564,-317 573.158,-307.884 584.92,-301.759 597.295,-297.684"/>
<polygon fill="midnightblue" stroke="midnightblue" points="450.76,-751.975 453.13,-762.301 457.716,-752.75 450.76,-751.975"/>
</g>
<!-- Node3058 -->
<g id="node45" class="node"><title>Node3058</title>
<a xlink:href="classokw_1_1_se_input_radio_1_1_se_input_radio___e_n___test.html#a110e82fd5d9309ebf617febe21ef358d" target="_top" xlink:title="Test des Schlüsselwortes VerifyValueWCM für den GUI&#45;Adapter SeInputRadio. ">
<polygon fill="white" stroke="black" points="582.5,-222 582.5,-256 761.5,-256 761.5,-222 582.5,-222"/>
<text text-anchor="start" x="590.5" y="-243" font-family="Helvetica,sans-Serif" font-size="10.00">okw.SeInputRadio.SeInput</text>
<text text-anchor="middle" x="672" y="-230" font-family="Helvetica,sans-Serif" font-size="10.00">Radio_EN_Test.tc_VerifyValueWCM</text>
</a>
</g>
<!-- Node3038&#45;&gt;Node3058 -->
<g id="edge44" class="edge"><title>Node3038&#45;&gt;Node3058</title>
<path fill="none" stroke="midnightblue" d="M453.684,-752.322C461.118,-666.125 493.79,-336.574 564,-265 569.335,-259.562 575.594,-255.183 582.366,-251.666"/>
<polygon fill="midnightblue" stroke="midnightblue" points="450.186,-752.156 452.834,-762.415 457.161,-752.744 450.186,-752.156"/>
</g>
<!-- Node3059 -->
<g id="node47" class="node"><title>Node3059</title>
<a xlink:href="classokw_1_1_se_input_radio_1_1_se_input_radio___e_n___test.html#a764e3f90123eb747d81f597d472711c3" target="_top" xlink:title="Test des Schlüsselwortes VerifyValueREGX für den GUI&#45;Adapter SeInputRadio. ">
<polygon fill="white" stroke="black" points="581,-170 581,-204 763,-204 763,-170 581,-170"/>
<text text-anchor="start" x="589" y="-191" font-family="Helvetica,sans-Serif" font-size="10.00">okw.SeInputRadio.SeInput</text>
<text text-anchor="middle" x="672" y="-178" font-family="Helvetica,sans-Serif" font-size="10.00">Radio_EN_Test.tc_VerifyValueREGX</text>
</a>
</g>
<!-- Node3038&#45;&gt;Node3059 -->
<g id="edge46" class="edge"><title>Node3038&#45;&gt;Node3059</title>
<path fill="none" stroke="midnightblue" d="M453.23,-752.286C459.087,-660.675 487.132,-292.914 564,-213 568.947,-207.857 574.72,-203.658 580.976,-200.237"/>
<polygon fill="midnightblue" stroke="midnightblue" points="449.737,-752.07 452.611,-762.267 456.723,-752.503 449.737,-752.07"/>
</g>
<!-- Node3060 -->
<g id="node49" class="node"><title>Node3060</title>
<a xlink:href="classokw_1_1_se_link_1_1_se_link___e_n___test.html#ade5477cb18a1aaf96deb62f11f8a69c0" target="_top" xlink:title="Tooltip eines Textfeldes Prüfen. ">
<polygon fill="white" stroke="black" points="608.5,-118 608.5,-152 735.5,-152 735.5,-118 608.5,-118"/>
<text text-anchor="start" x="616.5" y="-139" font-family="Helvetica,sans-Serif" font-size="10.00">okw.SeLink.SeLink_EN</text>
<text text-anchor="middle" x="672" y="-126" font-family="Helvetica,sans-Serif" font-size="10.00">_Test.TC_LogToolTip_en</text>
</a>
</g>
<!-- Node3038&#45;&gt;Node3060 -->
<g id="edge48" class="edge"><title>Node3038&#45;&gt;Node3060</title>
<path fill="none" stroke="midnightblue" d="M452.85,-752.247C457.237,-655.449 480.448,-249.3 564,-161 575.598,-148.743 591.885,-141.827 608.301,-138.033"/>
<polygon fill="midnightblue" stroke="midnightblue" points="449.353,-752.109 452.415,-762.251 456.346,-752.413 449.353,-752.109"/>
</g>
<!-- Node3061 -->
<g id="node51" class="node"><title>Node3061</title>
<a xlink:href="classokw_1_1_se_link_1_1_se_link___e_n___test.html#ad88f4d017f1a55ad12f9ffc5ed0ab336" target="_top" xlink:title="Prüft die Methode SeLink.MemorizeToolTip. ">
<polygon fill="white" stroke="black" points="595,-66 595,-100 749,-100 749,-66 595,-66"/>
<text text-anchor="start" x="603" y="-87" font-family="Helvetica,sans-Serif" font-size="10.00">okw.SeLink.SeLink_EN</text>
<text text-anchor="middle" x="672" y="-74" font-family="Helvetica,sans-Serif" font-size="10.00">_Test.TC_MemorizeToolTip_en</text>
</a>
</g>
<!-- Node3038&#45;&gt;Node3061 -->
<g id="edge50" class="edge"><title>Node3038&#45;&gt;Node3061</title>
<path fill="none" stroke="midnightblue" d="M452.529,-752.139C455.543,-650.227 473.762,-205.704 564,-109 572.355,-100.046 583.21,-93.9348 594.811,-89.8064"/>
<polygon fill="midnightblue" stroke="midnightblue" points="449.025,-752.263 452.245,-762.356 456.022,-752.457 449.025,-752.263"/>
</g>
<!-- Node3062 -->
<g id="node53" class="node"><title>Node3062</title>
<a xlink:href="classokw_1_1_se_radio_list_1_1_se_radio_list___test.html#a570eb3cf73952fbe534422dd7abc1449" target="_top" xlink:title="Prüft die Methode SeRadioList.MemorizeLabel. ">
<polygon fill="white" stroke="black" points="590,-0.5 590,-47.5 754,-47.5 754,-0.5 590,-0.5"/>
<text text-anchor="start" x="598" y="-34.5" font-family="Helvetica,sans-Serif" font-size="10.00">okw.SeRadioList.SeRadioList</text>
<text text-anchor="start" x="598" y="-21.5" font-family="Helvetica,sans-Serif" font-size="10.00">_Test.tcMemorizeLabel_Empty</text>
<text text-anchor="middle" x="672" y="-8.5" font-family="Helvetica,sans-Serif" font-size="10.00">_OKWNotAllowedValueException</text>
</a>
</g>
<!-- Node3038&#45;&gt;Node3062 -->
<g id="edge52" class="edge"><title>Node3038&#45;&gt;Node3062</title>
<path fill="none" stroke="midnightblue" d="M452.369,-752.32C454.67,-646.359 470.217,-165.076 564,-57 571.067,-48.8556 580.083,-42.6876 589.883,-38.0226"/>
<polygon fill="midnightblue" stroke="midnightblue" points="448.869,-752.303 452.167,-762.371 455.867,-752.444 448.869,-752.303"/>
</g>
</g>
</svg>
