<?xml version="1.0" encoding="UTF-8" standalone="no"?>
<!DOCTYPE svg PUBLIC "-//W3C//DTD SVG 1.1//EN"
 "http://www.w3.org/Graphics/SVG/1.1/DTD/svg11.dtd">
<!-- Generated by graphviz version 2.36.0 (20140111.2315)
 -->
<!-- Title: okw.core.IOKW_State.VerifyHasFocus Pages: 1 -->
<svg width="774pt" height="1182pt"
 viewBox="0.00 0.00 774.00 1182.00" xmlns="http://www.w3.org/2000/svg" xmlns:xlink="http://www.w3.org/1999/xlink">
<g id="graph0" class="graph" transform="scale(1 1) rotate(0) translate(4 1178)">
<title>okw.core.IOKW_State.VerifyHasFocus</title>
<polygon fill="white" stroke="none" points="-4,4 -4,-1178 770,-1178 770,4 -4,4"/>
<!-- Node3559 -->
<g id="node1" class="node"><title>Node3559</title>
<polygon fill="#bfbfbf" stroke="black" points="0.5,-521 0.5,-551 143.5,-551 143.5,-521 0.5,-521"/>
<text text-anchor="start" x="8.5" y="-539" font-family="Helvetica,sans-Serif" font-size="10.00">okw.core.IOKW_State.Verify</text>
<text text-anchor="middle" x="72" y="-528" font-family="Helvetica,sans-Serif" font-size="10.00">HasFocus</text>
</g>
<!-- Node3560 -->
<g id="node2" class="node"><title>Node3560</title>
<g id="a_node2"><a xlink:href="classokw_1_1core_1_1_core.html#ade5d877223a28ce11b57c8b94ab1a2eb" target="_top" xlink:title="Vergleicht den Fokus&#45;Zustand des gegebenen Objekts mit dem erwarteten Wert. ">
<polygon fill="white" stroke="black" points="180,-526.5 180,-545.5 334,-545.5 334,-526.5 180,-526.5"/>
<text text-anchor="middle" x="257" y="-533.5" font-family="Helvetica,sans-Serif" font-size="10.00">okw.core.Core.VerifyHasFocus</text>
</a>
</g>
</g>
<!-- Node3559&#45;&gt;Node3560 -->
<g id="edge1" class="edge"><title>Node3559&#45;&gt;Node3560</title>
<path fill="none" stroke="midnightblue" d="M153.864,-536C162.544,-536 171.354,-536 179.975,-536"/>
<polygon fill="midnightblue" stroke="midnightblue" points="153.753,-532.5 143.753,-536 153.753,-539.5 153.753,-532.5"/>
</g>
<!-- Node3561 -->
<g id="node3" class="node"><title>Node3561</title>
<g id="a_node3"><a xlink:href="classokw_1_1core_1_1_e_n.html#a4f454838a66107f968f9d50241180804" target="_top" xlink:title="Vergleicht den Fokus&#45;Zustand des gegebenen Objekts mit dem erwarteten Wert. ">
<polygon fill="white" stroke="black" points="370.5,-526.5 370.5,-545.5 517.5,-545.5 517.5,-526.5 370.5,-526.5"/>
<text text-anchor="middle" x="444" y="-533.5" font-family="Helvetica,sans-Serif" font-size="10.00">okw.core.EN.VerifyHasFocus</text>
</a>
</g>
</g>
<!-- Node3560&#45;&gt;Node3561 -->
<g id="edge2" class="edge"><title>Node3560&#45;&gt;Node3561</title>
<path fill="none" stroke="midnightblue" d="M344.209,-536C352.911,-536 361.687,-536 370.227,-536"/>
<polygon fill="midnightblue" stroke="midnightblue" points="344.047,-532.5 334.047,-536 344.047,-539.5 344.047,-532.5"/>
</g>
<!-- Node3562 -->
<g id="node4" class="node"><title>Node3562</title>
<g id="a_node4"><a xlink:href="classokw_1_1core_1_1_e_n___keywords___a_n_t_l_r___test.html#a1e9e874c23e82fb5e08b5be8ac3b277b" target="_top" xlink:title="okw.core.EN_Keywords\l_ANTLR_Test.tc_VerifyHasFocus\l_MemorizedValue">
<polygon fill="white" stroke="black" points="576.5,-1132.5 576.5,-1173.5 743.5,-1173.5 743.5,-1132.5 576.5,-1132.5"/>
<text text-anchor="start" x="584.5" y="-1161.5" font-family="Helvetica,sans-Serif" font-size="10.00">okw.core.EN_Keywords</text>
<text text-anchor="start" x="584.5" y="-1150.5" font-family="Helvetica,sans-Serif" font-size="10.00">_ANTLR_Test.tc_VerifyHasFocus</text>
<text text-anchor="middle" x="660" y="-1139.5" font-family="Helvetica,sans-Serif" font-size="10.00">_MemorizedValue</text>
</a>
</g>
</g>
<!-- Node3561&#45;&gt;Node3562 -->
<g id="edge3" class="edge"><title>Node3561&#45;&gt;Node3562</title>
<path fill="none" stroke="midnightblue" d="M445.986,-556.04C450.944,-648.797 476.077,-1035.59 554,-1122 560.237,-1128.92 567.934,-1134.32 576.302,-1138.54"/>
<polygon fill="midnightblue" stroke="midnightblue" points="449.468,-555.605 445.458,-545.799 442.478,-555.966 449.468,-555.605"/>
</g>
<!-- Node3563 -->
<g id="node5" class="node"><title>Node3563</title>
<g id="a_node5"><a xlink:href="classokw_1_1core_1_1_e_n___keywords___d_e_l_e_t_e___test.html#a0e62a17933f21dc8c45b22def98ac192" target="_top" xlink:title="okw.core.EN_Keywords\l_DELETE_Test.tcSelectMenu\l_Value_MV_DELETE_EmptyString">
<polygon fill="white" stroke="black" points="575,-1072.5 575,-1113.5 745,-1113.5 745,-1072.5 575,-1072.5"/>
<text text-anchor="start" x="583" y="-1101.5" font-family="Helvetica,sans-Serif" font-size="10.00">okw.core.EN_Keywords</text>
<text text-anchor="start" x="583" y="-1090.5" font-family="Helvetica,sans-Serif" font-size="10.00">_DELETE_Test.tcSelectMenu</text>
<text text-anchor="middle" x="660" y="-1079.5" font-family="Helvetica,sans-Serif" font-size="10.00">_Value_MV_DELETE_EmptyString</text>
</a>
</g>
</g>
<!-- Node3561&#45;&gt;Node3563 -->
<g id="edge4" class="edge"><title>Node3561&#45;&gt;Node3563</title>
<path fill="none" stroke="midnightblue" d="M446.414,-555.611C453.007,-641.71 483.429,-985.333 554,-1062 559.921,-1068.43 567.105,-1073.55 574.906,-1077.63"/>
<polygon fill="midnightblue" stroke="midnightblue" points="449.903,-555.331 445.669,-545.619 442.923,-555.852 449.903,-555.331"/>
</g>
<!-- Node3564 -->
<g id="node6" class="node"><title>Node3564</title>
<g id="a_node6"><a xlink:href="classokw_1_1core_1_1_e_n___keywords___i_g_n_o_r_e___test.html#ac84a47f3fe50e5913d0823f8f0ade37b" target="_top" xlink:title="okw.core.EN_Keywords\l_IGNORE_Test.tcVerifyHasFocus\l_IGNORE">
<polygon fill="white" stroke="black" points="576,-1012.5 576,-1053.5 744,-1053.5 744,-1012.5 576,-1012.5"/>
<text text-anchor="start" x="584" y="-1041.5" font-family="Helvetica,sans-Serif" font-size="10.00">okw.core.EN_Keywords</text>
<text text-anchor="start" x="584" y="-1030.5" font-family="Helvetica,sans-Serif" font-size="10.00">_IGNORE_Test.tcVerifyHasFocus</text>
<text text-anchor="middle" x="660" y="-1019.5" font-family="Helvetica,sans-Serif" font-size="10.00">_IGNORE</text>
</a>
</g>
</g>
<!-- Node3561&#45;&gt;Node3564 -->
<g id="edge5" class="edge"><title>Node3561&#45;&gt;Node3564</title>
<path fill="none" stroke="midnightblue" d="M447.006,-555.87C455.492,-636.121 490.931,-935.209 554,-1002 560.198,-1008.56 567.712,-1013.76 575.838,-1017.87"/>
<polygon fill="midnightblue" stroke="midnightblue" points="450.461,-555.258 445.95,-545.671 443.499,-555.979 450.461,-555.258"/>
</g>
<!-- Node3565 -->
<g id="node7" class="node"><title>Node3565</title>
<g id="a_node7"><a xlink:href="classokw_1_1core_1_1_e_n___keywords___i_g_n_o_r_e___test.html#a174ab6d9595b080fb0fc24f39013953d" target="_top" xlink:title="okw.core.EN_Keywords\l_IGNORE_Test.tcVerifyHasFocus\l_IGNORE_EmptyString">
<polygon fill="white" stroke="black" points="576,-952.5 576,-993.5 744,-993.5 744,-952.5 576,-952.5"/>
<text text-anchor="start" x="584" y="-981.5" font-family="Helvetica,sans-Serif" font-size="10.00">okw.core.EN_Keywords</text>
<text text-anchor="start" x="584" y="-970.5" font-family="Helvetica,sans-Serif" font-size="10.00">_IGNORE_Test.tcVerifyHasFocus</text>
<text text-anchor="middle" x="660" y="-959.5" font-family="Helvetica,sans-Serif" font-size="10.00">_IGNORE_EmptyString</text>
</a>
</g>
</g>
<!-- Node3561&#45;&gt;Node3565 -->
<g id="edge6" class="edge"><title>Node3561&#45;&gt;Node3565</title>
<path fill="none" stroke="midnightblue" d="M447.682,-555.675C458.07,-629.12 497.887,-885.946 554,-943 560.248,-949.353 567.741,-954.384 575.812,-958.365"/>
<polygon fill="midnightblue" stroke="midnightblue" points="451.114,-554.944 446.269,-545.521 444.181,-555.908 451.114,-554.944"/>
</g>
<!-- Node3566 -->
<g id="node8" class="node"><title>Node3566</title>
<g id="a_node8"><a xlink:href="classokw_1_1core_1_1_e_n___keywords___test.html#a8a804aa475fe4e5b89887345adfdb312" target="_top" xlink:title="&quot;Normaler&quot; Testfall für das Schlüsselwort VerifyExists. ">
<polygon fill="white" stroke="black" points="599,-904 599,-934 721,-934 721,-904 599,-904"/>
<text text-anchor="start" x="607" y="-922" font-family="Helvetica,sans-Serif" font-size="10.00">okw.core.EN_Keywords</text>
<text text-anchor="middle" x="660" y="-911" font-family="Helvetica,sans-Serif" font-size="10.00">_Test.tc_VerifyExists</text>
</a>
</g>
</g>
<!-- Node3561&#45;&gt;Node3566 -->
<g id="edge7" class="edge"><title>Node3561&#45;&gt;Node3566</title>
<path fill="none" stroke="midnightblue" d="M444.659,-555.862C444.764,-616.324 453.716,-799.73 554,-894 566.152,-905.423 582.545,-911.925 598.762,-915.547"/>
<polygon fill="midnightblue" stroke="midnightblue" points="448.16,-555.784 444.727,-545.761 441.16,-555.737 448.16,-555.784"/>
</g>
<!-- Node3567 -->
<g id="node9" class="node"><title>Node3567</title>
<g id="a_node9"><a xlink:href="classokw_1_1core_1_1_e_n___o_k_w_frame_object_child_not_found_exception___test.html#accde9e37f35a723ff58d1a5aab600067" target="_top" xlink:title="Prüft ob die Ausnahme OKWFrameObjectChildNotFoundException durch die LFC&#45;VerifyHasFocus ausgelöst wir...">
<polygon fill="white" stroke="black" points="554.5,-833 554.5,-885 765.5,-885 765.5,-833 554.5,-833"/>
<text text-anchor="start" x="562.5" y="-873" font-family="Helvetica,sans-Serif" font-size="10.00">okw.core.EN_OKWFrameObject</text>
<text text-anchor="start" x="562.5" y="-862" font-family="Helvetica,sans-Serif" font-size="10.00">ChildNotFoundException</text>
<text text-anchor="start" x="562.5" y="-851" font-family="Helvetica,sans-Serif" font-size="10.00">_Test.TC_VerifyHasFocus</text>
<text text-anchor="middle" x="660" y="-840" font-family="Helvetica,sans-Serif" font-size="10.00">_OKWFrameObjectChildNotFoundException</text>
</a>
</g>
</g>
<!-- Node3561&#45;&gt;Node3567 -->
<g id="edge8" class="edge"><title>Node3561&#45;&gt;Node3567</title>
<path fill="none" stroke="midnightblue" d="M446.827,-555.885C452.618,-607.434 475.133,-746.669 554,-823 557.739,-826.619 561.857,-829.874 566.233,-832.804"/>
<polygon fill="midnightblue" stroke="midnightblue" points="450.29,-555.347 445.783,-545.759 443.327,-556.065 450.29,-555.347"/>
</g>
<!-- Node3568 -->
<g id="node10" class="node"><title>Node3568</title>
<g id="a_node10"><a xlink:href="classokw_1_1core_1_1_e_n___o_k_w_frame_object_method_not_implemented___test.html#a954cf6fe8bb3a8345e98b805e8e0d605" target="_top" xlink:title="Prüft ob die Ausnahme OKWFrameObjectMethodNotImplemented von VerifyHasFocus( FN, ExpVal ) ausgelöst w...">
<polygon fill="white" stroke="black" points="555,-762 555,-814 765,-814 765,-762 555,-762"/>
<text text-anchor="start" x="563" y="-802" font-family="Helvetica,sans-Serif" font-size="10.00">okw.core.EN_OKWFrameObject</text>
<text text-anchor="start" x="563" y="-791" font-family="Helvetica,sans-Serif" font-size="10.00">MethodNotImplemented_Test.TC</text>
<text text-anchor="start" x="563" y="-780" font-family="Helvetica,sans-Serif" font-size="10.00">_VerifyHasFocus_OKWFrameObjectMethod</text>
<text text-anchor="middle" x="660" y="-769" font-family="Helvetica,sans-Serif" font-size="10.00">NotImplemented</text>
</a>
</g>
</g>
<!-- Node3561&#45;&gt;Node3568 -->
<g id="edge9" class="edge"><title>Node3561&#45;&gt;Node3568</title>
<path fill="none" stroke="midnightblue" d="M449.612,-555.514C460.484,-597.342 491.626,-696.273 554,-751 558.649,-755.079 563.777,-758.717 569.19,-761.959"/>
<polygon fill="midnightblue" stroke="midnightblue" points="452.991,-554.596 447.175,-545.74 446.198,-556.29 452.991,-554.596"/>
</g>
<!-- Node3569 -->
<g id="node11" class="node"><title>Node3569</title>
<g id="a_node11"><a xlink:href="classokw_1_1core_1_1_e_n___o_k_w_not_allowed_value_exception___keywords___i_g_n_o_r_e.html#aa0551025a8e4ae75bc8daa6b786c98fe" target="_top" xlink:title="Prüft ob &quot;${IGNORE} &quot; die Ausnahme okw.exceptions.OKWNotAllowedValueException auslöst. ">
<polygon fill="white" stroke="black" points="566,-701.5 566,-742.5 754,-742.5 754,-701.5 566,-701.5"/>
<text text-anchor="start" x="574" y="-730.5" font-family="Helvetica,sans-Serif" font-size="10.00">okw.core.EN_OKWNotAllowed</text>
<text text-anchor="start" x="574" y="-719.5" font-family="Helvetica,sans-Serif" font-size="10.00">ValueException_Keywords</text>
<text text-anchor="middle" x="660" y="-708.5" font-family="Helvetica,sans-Serif" font-size="10.00">_IGNORE.tcVerifyHasFocusIGNORE1</text>
</a>
</g>
</g>
<!-- Node3561&#45;&gt;Node3569 -->
<g id="edge10" class="edge"><title>Node3561&#45;&gt;Node3569</title>
<path fill="none" stroke="midnightblue" d="M453.209,-555.057C468.301,-587.831 503.596,-654.826 554,-691 559.482,-694.934 565.462,-698.373 571.698,-701.379"/>
<polygon fill="midnightblue" stroke="midnightblue" points="456.302,-553.401 449.025,-545.701 449.912,-556.259 456.302,-553.401"/>
</g>
<!-- Node3570 -->
<g id="node12" class="node"><title>Node3570</title>
<g id="a_node12"><a xlink:href="classokw_1_1core_1_1_e_n___o_k_w_not_allowed_value_exception___keywords___i_g_n_o_r_e.html#a4ec48b2ca00929af8a035f5c2cb7f460" target="_top" xlink:title="Prüft ob &quot;&quot;${IGNORE}${TCN}&quot; die Ausnahme okw.exceptions.OKWNotAllowedValueException auslöst...">
<polygon fill="white" stroke="black" points="566,-641.5 566,-682.5 754,-682.5 754,-641.5 566,-641.5"/>
<text text-anchor="start" x="574" y="-670.5" font-family="Helvetica,sans-Serif" font-size="10.00">okw.core.EN_OKWNotAllowed</text>
<text text-anchor="start" x="574" y="-659.5" font-family="Helvetica,sans-Serif" font-size="10.00">ValueException_Keywords</text>
<text text-anchor="middle" x="660" y="-648.5" font-family="Helvetica,sans-Serif" font-size="10.00">_IGNORE.tcVerifyHasFocusIGNORE2</text>
</a>
</g>
</g>
<!-- Node3561&#45;&gt;Node3570 -->
<g id="edge11" class="edge"><title>Node3561&#45;&gt;Node3570</title>
<path fill="none" stroke="midnightblue" d="M460.229,-553.207C479.895,-574.42 516.118,-610.207 554,-631 561.165,-634.933 568.885,-638.419 576.772,-641.497"/>
<polygon fill="midnightblue" stroke="midnightblue" points="462.626,-550.641 453.308,-545.599 457.448,-555.352 462.626,-550.641"/>
</g>
<!-- Node3571 -->
<g id="node13" class="node"><title>Node3571</title>
<g id="a_node13"><a xlink:href="classokw_1_1core_1_1_e_n___o_k_w_not_allowed_value_exception___test.html#a2701b8e5ecc2b4ef3f052d7869b228c0" target="_top" xlink:title="Prüft ob die Ausnahme OKWNotAllowedValueException durch die LFC&#45;VerifyIsActive ausgelöst wird...">
<polygon fill="white" stroke="black" points="555,-570 555,-622 765,-622 765,-570 555,-570"/>
<text text-anchor="start" x="563" y="-610" font-family="Helvetica,sans-Serif" font-size="10.00">okw.core.EN_OKWNotAllowed</text>
<text text-anchor="start" x="563" y="-599" font-family="Helvetica,sans-Serif" font-size="10.00">ValueException_Test.TC</text>
<text text-anchor="start" x="563" y="-588" font-family="Helvetica,sans-Serif" font-size="10.00">_VerifyHasFocus_OKWFrameObjectMethod</text>
<text text-anchor="middle" x="660" y="-577" font-family="Helvetica,sans-Serif" font-size="10.00">NotFoundException</text>
</a>
</g>
</g>
<!-- Node3561&#45;&gt;Node3571 -->
<g id="edge12" class="edge"><title>Node3561&#45;&gt;Node3571</title>
<path fill="none" stroke="midnightblue" d="M488.755,-548.268C511.121,-554.538 539.236,-562.421 566.138,-569.964"/>
<polygon fill="midnightblue" stroke="midnightblue" points="489.483,-544.837 478.909,-545.507 487.593,-551.577 489.483,-544.837"/>
</g>
<!-- Node3572 -->
<g id="node14" class="node"><title>Node3572</title>
<g id="a_node14"><a xlink:href="classokw_1_1_se_b_a_c_k_1_1_se_b_a_c_k___e_n___test.html#a52737f5e3f7608f068acfa38d37f869c" target="_top" xlink:title="Test des Schlüsselwortes &quot;VerifyHasFocus( FN, ExpVal ) für SeBACK. ">
<polygon fill="white" stroke="black" points="590,-521 590,-551 730,-551 730,-521 590,-521"/>
<text text-anchor="start" x="598" y="-539" font-family="Helvetica,sans-Serif" font-size="10.00">okw.SeBACK.SeBACK_EN</text>
<text text-anchor="middle" x="660" y="-528" font-family="Helvetica,sans-Serif" font-size="10.00">_Test.tcVerifyHasFocus</text>
</a>
</g>
</g>
<!-- Node3561&#45;&gt;Node3572 -->
<g id="edge13" class="edge"><title>Node3561&#45;&gt;Node3572</title>
<path fill="none" stroke="midnightblue" d="M527.973,-536C548.381,-536 570.019,-536 589.705,-536"/>
<polygon fill="midnightblue" stroke="midnightblue" points="527.749,-532.5 517.749,-536 527.749,-539.5 527.749,-532.5"/>
</g>
<!-- Node3573 -->
<g id="node15" class="node"><title>Node3573</title>
<g id="a_node15"><a xlink:href="classokw_1_1_se_button_1_1_se_button___e_n___test.html#aae80c3c05016ea5b9f387ee64c1efd1f" target="_top" xlink:title="Test des Schlüsselwortes SetFocus und VerifyHasFocus für den GUI&#45;Adapter SeButton. ">
<polygon fill="white" stroke="black" points="578.5,-461.5 578.5,-502.5 741.5,-502.5 741.5,-461.5 578.5,-461.5"/>
<text text-anchor="start" x="586.5" y="-490.5" font-family="Helvetica,sans-Serif" font-size="10.00">okw.SeButton.SeButton</text>
<text text-anchor="start" x="586.5" y="-479.5" font-family="Helvetica,sans-Serif" font-size="10.00">_EN_Test.tcSetFocus_VerifyHas</text>
<text text-anchor="middle" x="660" y="-468.5" font-family="Helvetica,sans-Serif" font-size="10.00">Focus</text>
</a>
</g>
</g>
<!-- Node3561&#45;&gt;Node3573 -->
<g id="edge14" class="edge"><title>Node3561&#45;&gt;Node3573</title>
<path fill="none" stroke="midnightblue" d="M492.766,-523.947C517.892,-517.607 549.382,-509.661 578.177,-502.395"/>
<polygon fill="midnightblue" stroke="midnightblue" points="491.606,-520.63 482.766,-526.47 493.319,-527.417 491.606,-520.63"/>
</g>
<!-- Node3574 -->
<g id="node16" class="node"><title>Node3574</title>
<g id="a_node16"><a xlink:href="classokw_1_1_se_input_checkbox_1_1_se_input_checkbox___e_n___test.html#ad572d5badb79741c496835cbb5c2d6df" target="_top" xlink:title="Prüft die SetFocusFunktion bei Textfelder mit dem Attribute &quot;ReadOnly&quot;. ">
<polygon fill="white" stroke="black" points="581,-413 581,-443 739,-443 739,-413 581,-413"/>
<text text-anchor="start" x="589" y="-431" font-family="Helvetica,sans-Serif" font-size="10.00">okw.SeInputCheckbox.SeInput</text>
<text text-anchor="middle" x="660" y="-420" font-family="Helvetica,sans-Serif" font-size="10.00">Checkbox_EN_Test.tcSetFocus</text>
</a>
</g>
</g>
<!-- Node3561&#45;&gt;Node3574 -->
<g id="edge15" class="edge"><title>Node3561&#45;&gt;Node3574</title>
<path fill="none" stroke="midnightblue" d="M461.962,-519.071C482.154,-499.898 517.725,-469.106 554,-452 562.457,-448.012 571.615,-444.667 580.879,-441.864"/>
<polygon fill="midnightblue" stroke="midnightblue" points="459.279,-516.797 454.53,-526.268 464.149,-521.826 459.279,-516.797"/>
</g>
<!-- Node3575 -->
<g id="node17" class="node"><title>Node3575</title>
<g id="a_node17"><a xlink:href="classokw_1_1_se_input_field_1_1_se_input_field___e_n___test.html#a5860a514b07b6bf715c17dd674d0f384" target="_top" xlink:title="Testet das Schlüsselwort ClickOn( FN ) eines SeInputField Prüfen. ">
<polygon fill="white" stroke="black" points="595.5,-364 595.5,-394 724.5,-394 724.5,-364 595.5,-364"/>
<text text-anchor="start" x="603.5" y="-382" font-family="Helvetica,sans-Serif" font-size="10.00">okw.SeInputField.SeInput</text>
<text text-anchor="middle" x="660" y="-371" font-family="Helvetica,sans-Serif" font-size="10.00">Field_EN_Test.tcClickOn</text>
</a>
</g>
</g>
<!-- Node3561&#45;&gt;Node3575 -->
<g id="edge16" class="edge"><title>Node3561&#45;&gt;Node3575</title>
<path fill="none" stroke="midnightblue" d="M455.17,-517.117C471.825,-488.082 507.742,-432.818 554,-404 566.406,-396.271 580.999,-390.932 595.296,-387.242"/>
<polygon fill="midnightblue" stroke="midnightblue" points="451.915,-515.769 450.097,-526.207 458.027,-519.18 451.915,-515.769"/>
</g>
<!-- Node3576 -->
<g id="node18" class="node"><title>Node3576</title>
<g id="a_node18"><a xlink:href="classokw_1_1_se_input_field_1_1_se_input_field___e_n___test.html#a49f951b6ec1ce68d0eccdb21dc57786b" target="_top" xlink:title="Teste das Schlüsselwort MemorizeValue( FN, MemKey ) eines SeInputText Prüfen. ">
<polygon fill="white" stroke="black" points="579.5,-315 579.5,-345 740.5,-345 740.5,-315 579.5,-315"/>
<text text-anchor="start" x="587.5" y="-333" font-family="Helvetica,sans-Serif" font-size="10.00">okw.SeInputField.SeInput</text>
<text text-anchor="middle" x="660" y="-322" font-family="Helvetica,sans-Serif" font-size="10.00">Field_EN_Test.tcMemorizeValue</text>
</a>
</g>
</g>
<!-- Node3561&#45;&gt;Node3576 -->
<g id="edge17" class="edge"><title>Node3561&#45;&gt;Node3576</title>
<path fill="none" stroke="midnightblue" d="M451.001,-516.604C463.623,-479.171 496.592,-396.967 554,-355 561.639,-349.415 570.351,-345.061 579.414,-341.669"/>
<polygon fill="midnightblue" stroke="midnightblue" points="447.613,-515.706 447.854,-526.298 454.271,-517.868 447.613,-515.706"/>
</g>
<!-- Node3577 -->
<g id="node19" class="node"><title>Node3577</title>
<g id="a_node19"><a xlink:href="classokw_1_1_se_input_field_1_1_se_input_field___e_n___test.html#a009c63f6089c85d3a4cdeeca992a729d" target="_top" xlink:title="Test des Schlüsselwortes &quot;VerifyValue( FN, ExpVal ) für SeInputText. ">
<polygon fill="white" stroke="black" points="584,-266 584,-296 736,-296 736,-266 584,-266"/>
<text text-anchor="start" x="592" y="-284" font-family="Helvetica,sans-Serif" font-size="10.00">okw.SeInputField.SeInput</text>
<text text-anchor="middle" x="660" y="-273" font-family="Helvetica,sans-Serif" font-size="10.00">Field_EN_Test.tcVerifyCaption</text>
</a>
</g>
</g>
<!-- Node3561&#45;&gt;Node3577 -->
<g id="edge18" class="edge"><title>Node3561&#45;&gt;Node3577</title>
<path fill="none" stroke="midnightblue" d="M448.38,-516.435C457.162,-471.78 485.004,-361.907 554,-306 562.735,-298.922 573.144,-293.788 583.961,-290.076"/>
<polygon fill="midnightblue" stroke="midnightblue" points="444.931,-515.839 446.545,-526.31 451.813,-517.118 444.931,-515.839"/>
</g>
<!-- Node3578 -->
<g id="node20" class="node"><title>Node3578</title>
<g id="a_node20"><a xlink:href="classokw_1_1_se_input_field_1_1_se_input_field___e_n___test.html#a27d58cefa1bfc6754c9183baf8d6a41b" target="_top" xlink:title="okw.SeInputField.SeInput\lField_EN_Test.tcSelect\l_OKWGUIObjectNotFoundException">
<polygon fill="white" stroke="black" points="570.5,-206.5 570.5,-247.5 749.5,-247.5 749.5,-206.5 570.5,-206.5"/>
<text text-anchor="start" x="578.5" y="-235.5" font-family="Helvetica,sans-Serif" font-size="10.00">okw.SeInputField.SeInput</text>
<text text-anchor="start" x="578.5" y="-224.5" font-family="Helvetica,sans-Serif" font-size="10.00">Field_EN_Test.tcSelect</text>
<text text-anchor="middle" x="660" y="-213.5" font-family="Helvetica,sans-Serif" font-size="10.00">_OKWGUIObjectNotFoundException</text>
</a>
</g>
</g>
<!-- Node3561&#45;&gt;Node3578 -->
<g id="edge19" class="edge"><title>Node3561&#45;&gt;Node3578</title>
<path fill="none" stroke="midnightblue" d="M446.789,-516.425C452.487,-465.725 474.799,-329.075 554,-257 558.908,-252.534 564.436,-248.728 570.324,-245.486"/>
<polygon fill="midnightblue" stroke="midnightblue" points="443.306,-516.083 445.764,-526.388 450.269,-516.799 443.306,-516.083"/>
</g>
<!-- Node3579 -->
<g id="node21" class="node"><title>Node3579</title>
<g id="a_node21"><a xlink:href="classokw_1_1_se_input_radio_1_1_se_input_radio___e_n___test.html#a5a2f61f430cbec8b8c1aa6b1cd96d9e0" target="_top" xlink:title="Test des Schlüsselwortes SetFocus und VerifyHasFocus für den GUI&#45;Adapter SeInputRadio. ">
<polygon fill="white" stroke="black" points="573.5,-146.5 573.5,-187.5 746.5,-187.5 746.5,-146.5 573.5,-146.5"/>
<text text-anchor="start" x="581.5" y="-175.5" font-family="Helvetica,sans-Serif" font-size="10.00">okw.SeInputRadio.SeInput</text>
<text text-anchor="start" x="581.5" y="-164.5" font-family="Helvetica,sans-Serif" font-size="10.00">Radio_EN_Test.tc_VerifyHasFocus</text>
<text text-anchor="middle" x="660" y="-153.5" font-family="Helvetica,sans-Serif" font-size="10.00">_UnsupportedOperationException</text>
</a>
</g>
</g>
<!-- Node3561&#45;&gt;Node3579 -->
<g id="edge20" class="edge"><title>Node3561&#45;&gt;Node3579</title>
<path fill="none" stroke="midnightblue" d="M445.244,-516.231C447.065,-458.323 460.498,-287.484 554,-197 559.654,-191.529 566.234,-187.043 573.291,-183.367"/>
<polygon fill="midnightblue" stroke="midnightblue" points="441.745,-516.172 445.015,-526.249 448.743,-516.332 441.745,-516.172"/>
</g>
<!-- Node3580 -->
<g id="node22" class="node"><title>Node3580</title>
<g id="a_node22"><a xlink:href="classokw_1_1_se_link_1_1_se_link___e_n___test.html#ad88f4d017f1a55ad12f9ffc5ed0ab336" target="_top" xlink:title="Prüft die Methode SeLink.MemorizeToolTip. ">
<polygon fill="white" stroke="black" points="583,-98 583,-128 737,-128 737,-98 583,-98"/>
<text text-anchor="start" x="591" y="-116" font-family="Helvetica,sans-Serif" font-size="10.00">okw.SeLink.SeLink_EN</text>
<text text-anchor="middle" x="660" y="-105" font-family="Helvetica,sans-Serif" font-size="10.00">_Test.TC_MemorizeToolTip_en</text>
</a>
</g>
</g>
<!-- Node3561&#45;&gt;Node3580 -->
<g id="edge21" class="edge"><title>Node3561&#45;&gt;Node3580</title>
<path fill="none" stroke="midnightblue" d="M447.712,-516.139C458.07,-443.16 497.421,-191.253 554,-137 562.098,-129.235 572.168,-123.791 582.841,-120.007"/>
<polygon fill="midnightblue" stroke="midnightblue" points="444.216,-515.87 446.3,-526.258 451.148,-516.837 444.216,-515.87"/>
</g>
<!-- Node3581 -->
<g id="node23" class="node"><title>Node3581</title>
<g id="a_node23"><a xlink:href="classokw_1_1_se_m_a_x_i_m_i_z_e_1_1_se_m_a_x_i_m_i_z_e___e_n___test.html#a679c1ff71be98214ad57930417dfb7b7" target="_top" xlink:title="Test des Schlüsselwortes &quot;VerifyHasFocus( FN, ExpVal ) für SeMAXIMIZE. ">
<polygon fill="white" stroke="black" points="579,-49 579,-79 741,-79 741,-49 579,-49"/>
<text text-anchor="start" x="587" y="-67" font-family="Helvetica,sans-Serif" font-size="10.00">okw.SeMAXIMIZE.SeMAXIMIZE</text>
<text text-anchor="middle" x="660" y="-56" font-family="Helvetica,sans-Serif" font-size="10.00">_EN_Test.tcVerifyHasFocus</text>
</a>
</g>
</g>
<!-- Node3561&#45;&gt;Node3581 -->
<g id="edge22" class="edge"><title>Node3561&#45;&gt;Node3581</title>
<path fill="none" stroke="midnightblue" d="M447.087,-516.337C455.769,-438.233 491.517,-151.144 554,-89 561.042,-81.9965 569.668,-76.8213 578.922,-73.0176"/>
<polygon fill="midnightblue" stroke="midnightblue" points="443.606,-515.973 446.003,-526.293 450.565,-516.731 443.606,-515.973"/>
</g>
<!-- Node3582 -->
<g id="node24" class="node"><title>Node3582</title>
<g id="a_node24"><a xlink:href="classokw_1_1_se_textarea_1_1_se_textarea___e_n___test.html#a79462f3249f85eed6274beabda697a1c" target="_top" xlink:title="Testet das Schlüsselwort MemorizeToolTip( FN, MemKey ) eines SeInputText Prüfen. ">
<polygon fill="white" stroke="black" points="586.5,-0 586.5,-30 733.5,-30 733.5,-0 586.5,-0"/>
<text text-anchor="start" x="594.5" y="-18" font-family="Helvetica,sans-Serif" font-size="10.00">okw.SeTextarea.SeTextarea</text>
<text text-anchor="middle" x="660" y="-7" font-family="Helvetica,sans-Serif" font-size="10.00">_EN_Test.tcMemorizeToolTip</text>
</a>
</g>
</g>
<!-- Node3561&#45;&gt;Node3582 -->
<g id="edge23" class="edge"><title>Node3561&#45;&gt;Node3582</title>
<path fill="none" stroke="midnightblue" d="M446.576,-516.373C453.658,-433.087 485.24,-109.968 554,-40 562.866,-30.9785 574.356,-24.9763 586.471,-21.0285"/>
<polygon fill="midnightblue" stroke="midnightblue" points="443.076,-516.227 445.738,-526.482 450.052,-516.806 443.076,-516.227"/>
</g>
</g>
</svg>
