<?xml version="1.0" encoding="UTF-8" standalone="no"?>
<!DOCTYPE svg PUBLIC "-//W3C//DTD SVG 1.1//EN"
 "http://www.w3.org/Graphics/SVG/1.1/DTD/svg11.dtd">
<!-- Generated by graphviz version 2.38.0 (20140413.2041)
 -->
<!-- Title: okw.core.IOKW_State.ClickOn Pages: 1 -->
<svg width="807pt" height="562pt"
 viewBox="0.00 0.00 807.00 562.00" xmlns="http://www.w3.org/2000/svg" xmlns:xlink="http://www.w3.org/1999/xlink">
<g id="graph0" class="graph" transform="scale(1 1) rotate(0) translate(4 558)">
<title>okw.core.IOKW_State.ClickOn</title>
<polygon fill="white" stroke="none" points="-4,4 -4,-558 803,-558 803,4 -4,4"/>
<!-- Node740 -->
<g id="node1" class="node"><title>Node740</title>
<g id="a_node1"><a xlink:title="Klickt auf das gegebene Objekt.">
<polygon fill="#bfbfbf" stroke="black" points="644,-180 644,-199 799,-199 799,-180 644,-180"/>
<text text-anchor="middle" x="721.5" y="-187" font-family="Helvetica,sans-Serif" font-size="10.00">okw.core.IOKW_State.ClickOn</text>
</a>
</g>
</g>
<!-- Node741 -->
<g id="node2" class="node"><title>Node741</title>
<g id="a_node2"><a xlink:href="classokw_1_1core_1_1_core.html#a3e601b16ed5c18b3daa279cf61044504" target="_top" xlink:title="Klickt auf das gegebene Objekt.">
<polygon fill="white" stroke="black" points="486,-180 486,-199 608,-199 608,-180 486,-180"/>
<text text-anchor="middle" x="547" y="-187" font-family="Helvetica,sans-Serif" font-size="10.00">okw.core.Core.ClickOn</text>
</a>
</g>
</g>
<!-- Node740&#45;&gt;Node741 -->
<g id="edge1" class="edge"><title>Node740&#45;&gt;Node741</title>
<path fill="none" stroke="midnightblue" d="M633.699,-189.5C625.049,-189.5 616.408,-189.5 608.121,-189.5"/>
<polygon fill="midnightblue" stroke="midnightblue" points="633.834,-193 643.834,-189.5 633.834,-186 633.834,-193"/>
</g>
<!-- Node742 -->
<g id="node3" class="node"><title>Node742</title>
<g id="a_node3"><a xlink:href="classokw_1_1core_1_1_e_n.html#aa0ea62b29e5e216241a5b757797f83bf" target="_top" xlink:title="Klickt auf das gegebene Objekt.">
<polygon fill="white" stroke="black" points="317.5,-251 317.5,-270 430.5,-270 430.5,-251 317.5,-251"/>
<text text-anchor="middle" x="374" y="-258" font-family="Helvetica,sans-Serif" font-size="10.00">okw.core.EN.ClickOn</text>
</a>
</g>
</g>
<!-- Node741&#45;&gt;Node742 -->
<g id="edge2" class="edge"><title>Node741&#45;&gt;Node742</title>
<path fill="none" stroke="midnightblue" d="M521.963,-204.25C502.973,-215.41 475.51,-230.474 450,-240.5 439.716,-244.542 428.325,-248.046 417.591,-250.943"/>
<polygon fill="midnightblue" stroke="midnightblue" points="523.762,-207.252 530.559,-199.125 520.177,-201.24 523.762,-207.252"/>
</g>
<!-- Node754 -->
<g id="node15" class="node"><title>Node754</title>
<g id="a_node15"><a xlink:href="classokw_1_1core_1_1_current_object___test.html#a2fe4ea5049e633182621aea87f5c2a8f" target="_top" xlink:title="Testziel: Prüft den Aufruf der Methode ClickOn( &quot;FN&quot; ) im ChildObject.">
<polygon fill="white" stroke="black" points="298,-201.5 298,-231.5 450,-231.5 450,-201.5 298,-201.5"/>
<text text-anchor="start" x="306" y="-219.5" font-family="Helvetica,sans-Serif" font-size="10.00">okw.core.CurrentObject</text>
<text text-anchor="middle" x="374" y="-208.5" font-family="Helvetica,sans-Serif" font-size="10.00">_Test.tc_ClickOn_ChildObject</text>
</a>
</g>
</g>
<!-- Node741&#45;&gt;Node754 -->
<g id="edge14" class="edge"><title>Node741&#45;&gt;Node754</title>
<path fill="none" stroke="midnightblue" d="M475.56,-200.622C467.136,-201.952 458.512,-203.314 450.026,-204.654"/>
<polygon fill="midnightblue" stroke="midnightblue" points="476.38,-204.036 485.712,-199.019 475.288,-197.122 476.38,-204.036"/>
</g>
<!-- Node755 -->
<g id="node16" class="node"><title>Node755</title>
<g id="a_node16"><a xlink:href="classokw_1_1core_1_1_current_object___test.html#a6ba92c08d267a77ce11c133769c9b1b9" target="_top" xlink:title="Ts the c_ select_ child object_ with out_ value.">
<polygon fill="white" stroke="black" points="299.5,-142 299.5,-183 448.5,-183 448.5,-142 299.5,-142"/>
<text text-anchor="start" x="307.5" y="-171" font-family="Helvetica,sans-Serif" font-size="10.00">okw.core.CurrentObject</text>
<text text-anchor="start" x="307.5" y="-160" font-family="Helvetica,sans-Serif" font-size="10.00">_Test.TC_Select_ChildObject</text>
<text text-anchor="middle" x="374" y="-149" font-family="Helvetica,sans-Serif" font-size="10.00">_WithOut_Value</text>
</a>
</g>
</g>
<!-- Node741&#45;&gt;Node755 -->
<g id="edge15" class="edge"><title>Node741&#45;&gt;Node755</title>
<path fill="none" stroke="midnightblue" d="M475.71,-178.402C466.746,-176.986 457.55,-175.534 448.536,-174.111"/>
<polygon fill="midnightblue" stroke="midnightblue" points="475.288,-181.878 485.712,-179.981 476.38,-174.964 475.288,-181.878"/>
</g>
<!-- Node756 -->
<g id="node17" class="node"><title>Node756</title>
<g id="a_node17"><a xlink:href="classokw_1_1gui_1_1adapter_1_1selenium_1_1_se_input_radio.html#a7dce83be09a4af05f50b0e74aa9d27f7" target="_top" xlink:title="Ein SeInputButton IstkeinMenüobject! &#45;&gt; OKWFrameObjectMethodNotImplemented Auslösen!">
<polygon fill="white" stroke="black" points="304,-93.5 304,-123.5 444,-123.5 444,-93.5 304,-93.5"/>
<text text-anchor="start" x="312" y="-111.5" font-family="Helvetica,sans-Serif" font-size="10.00">okw.gui.adapter.selenium.</text>
<text text-anchor="middle" x="374" y="-100.5" font-family="Helvetica,sans-Serif" font-size="10.00">SeInputRadio.SetValue</text>
</a>
</g>
</g>
<!-- Node741&#45;&gt;Node756 -->
<g id="edge16" class="edge"><title>Node741&#45;&gt;Node756</title>
<path fill="none" stroke="midnightblue" d="M523.713,-174.294C504.739,-161.838 476.432,-144.391 450,-132.5 442.769,-129.247 434.964,-126.236 427.218,-123.524"/>
<polygon fill="midnightblue" stroke="midnightblue" points="521.964,-177.334 532.228,-179.961 525.842,-171.507 521.964,-177.334"/>
</g>
<!-- Node743 -->
<g id="node4" class="node"><title>Node743</title>
<g id="a_node4"><a xlink:href="classokw_1_1core_1_1_e_n___o_k_w_frame_object_child_not_found_exception___test.html#ab400c3e29f8f6bd9f0e70df363ea5f35" target="_top" xlink:title="Prüft ob die Ausnahme OKWFrameObjectChildNotFoundException durch ClickOn ausgelöst wird,...">
<polygon fill="white" stroke="black" points="39.5,-501.5 39.5,-553.5 222.5,-553.5 222.5,-501.5 39.5,-501.5"/>
<text text-anchor="start" x="47.5" y="-541.5" font-family="Helvetica,sans-Serif" font-size="10.00">okw.core.EN_OKWFrameObject</text>
<text text-anchor="start" x="47.5" y="-530.5" font-family="Helvetica,sans-Serif" font-size="10.00">ChildNotFoundException</text>
<text text-anchor="start" x="47.5" y="-519.5" font-family="Helvetica,sans-Serif" font-size="10.00">_Test.TC_ClickOn_OKWFrameObject</text>
<text text-anchor="middle" x="131" y="-508.5" font-family="Helvetica,sans-Serif" font-size="10.00">ChildNotFoundException</text>
</a>
</g>
</g>
<!-- Node742&#45;&gt;Node743 -->
<g id="edge3" class="edge"><title>Node742&#45;&gt;Node743</title>
<path fill="none" stroke="midnightblue" d="M369.326,-279.982C359.897,-324.476 330.592,-434.134 262,-491.5 250.593,-501.04 236.846,-508.063 222.622,-513.229"/>
<polygon fill="midnightblue" stroke="midnightblue" points="372.764,-280.639 371.307,-270.145 365.902,-279.257 372.764,-280.639"/>
</g>
<!-- Node744 -->
<g id="node5" class="node"><title>Node744</title>
<g id="a_node5"><a xlink:href="classokw_1_1core_1_1_e_n___o_k_w_frame_object_method_not_implemented___test.html#a15c8a86e8cbeaf7d85283b979976bcad" target="_top" xlink:title="Prüft ob die Ausnahme OKWFrameObjectMethodNotImplemented von ClickOn() ausgelöst wird.">
<polygon fill="white" stroke="black" points="0,-441 0,-482 262,-482 262,-441 0,-441"/>
<text text-anchor="start" x="8" y="-470" font-family="Helvetica,sans-Serif" font-size="10.00">okw.core.EN_OKWFrameObject</text>
<text text-anchor="start" x="8" y="-459" font-family="Helvetica,sans-Serif" font-size="10.00">MethodNotImplemented_Test.tc</text>
<text text-anchor="middle" x="131" y="-448" font-family="Helvetica,sans-Serif" font-size="10.00">_ClickOn_OKWFrameObjectMethodNotImplemented</text>
</a>
</g>
</g>
<!-- Node742&#45;&gt;Node744 -->
<g id="edge4" class="edge"><title>Node742&#45;&gt;Node744</title>
<path fill="none" stroke="midnightblue" d="M366.18,-279.99C352.474,-316.144 318.021,-393.463 262,-432.5 257.541,-435.607 252.806,-438.388 247.882,-440.876"/>
<polygon fill="midnightblue" stroke="midnightblue" points="369.62,-280.773 369.768,-270.179 363.046,-278.368 369.62,-280.773"/>
</g>
<!-- Node745 -->
<g id="node6" class="node"><title>Node745</title>
<g id="a_node6"><a xlink:href="classbrowser_1_1_frm_browser_base___test.html#a89cb7ef0c50ef2010d3e5dafa639e54a" target="_top" xlink:title="Testet das Schlüsselwort VerifyValueWCM( FN ) für das Virtuelle&#45;GUI&#45;Adapter URL Prüfen.">
<polygon fill="white" stroke="black" points="62.5,-392.5 62.5,-422.5 199.5,-422.5 199.5,-392.5 62.5,-392.5"/>
<text text-anchor="start" x="70.5" y="-410.5" font-family="Helvetica,sans-Serif" font-size="10.00">browser.FrmBrowserBase</text>
<text text-anchor="middle" x="131" y="-399.5" font-family="Helvetica,sans-Serif" font-size="10.00">_Test.tcMAXIMIZE</text>
</a>
</g>
</g>
<!-- Node742&#45;&gt;Node745 -->
<g id="edge5" class="edge"><title>Node742&#45;&gt;Node745</title>
<path fill="none" stroke="midnightblue" d="M362.071,-278.579C344.576,-305.824 307.573,-356.932 262,-382.5 243.159,-393.071 220.627,-399.249 199.654,-402.836"/>
<polygon fill="midnightblue" stroke="midnightblue" points="365.09,-280.352 367.427,-270.018 359.156,-276.639 365.09,-280.352"/>
</g>
<!-- Node746 -->
<g id="node7" class="node"><title>Node746</title>
<g id="a_node7"><a xlink:href="classokw_1_1_se_b_a_c_k_1_1_se_b_a_c_k___e_n___test.html#a0e32291310df90adbd08934a4dafd595" target="_top" xlink:title="Testet die Implementierung des Schlüsselwortes ClickOn( FN ) für Klasse SeBACK .">
<polygon fill="white" stroke="black" points="62.5,-343.5 62.5,-373.5 199.5,-373.5 199.5,-343.5 62.5,-343.5"/>
<text text-anchor="start" x="70.5" y="-361.5" font-family="Helvetica,sans-Serif" font-size="10.00">okw.SeBACK.SeBACK_EN</text>
<text text-anchor="middle" x="131" y="-350.5" font-family="Helvetica,sans-Serif" font-size="10.00">_Test.tcClickOn</text>
</a>
</g>
</g>
<!-- Node742&#45;&gt;Node746 -->
<g id="edge6" class="edge"><title>Node742&#45;&gt;Node746</title>
<path fill="none" stroke="midnightblue" d="M354.012,-276.382C332.898,-293.196 297.121,-319.233 262,-333.5 242.41,-341.458 220.111,-346.925 199.58,-350.663"/>
<polygon fill="midnightblue" stroke="midnightblue" points="356.303,-279.031 361.864,-270.013 351.893,-273.595 356.303,-279.031"/>
</g>
<!-- Node747 -->
<g id="node8" class="node"><title>Node747</title>
<g id="a_node8"><a xlink:href="classokw_1_1_se_browser_child_1_1_se_browser_child___e_n___test.html#a4703e5b03d257da4cbf1be9964e2d96b" target="_top" xlink:title="Prüft ob bei nicht vorhandenem Browserchild die Exception &quot;&quot; ausgelöst wird.">
<polygon fill="white" stroke="black" points="37,-294.5 37,-324.5 225,-324.5 225,-294.5 37,-294.5"/>
<text text-anchor="start" x="45" y="-312.5" font-family="Helvetica,sans-Serif" font-size="10.00">okw.SeBrowserChild.SeBrowser</text>
<text text-anchor="middle" x="131" y="-301.5" font-family="Helvetica,sans-Serif" font-size="10.00">Child_EN_Test.tcBrowserChild_BACK</text>
</a>
</g>
</g>
<!-- Node742&#45;&gt;Node747 -->
<g id="edge7" class="edge"><title>Node742&#45;&gt;Node747</title>
<path fill="none" stroke="midnightblue" d="M320.146,-272.187C301.76,-276.184 280.988,-280.622 262,-284.5 245.787,-287.811 228.411,-291.237 211.808,-294.452"/>
<polygon fill="midnightblue" stroke="midnightblue" points="321.064,-275.569 330.088,-270.018 319.572,-268.73 321.064,-275.569"/>
</g>
<!-- Node748 -->
<g id="node9" class="node"><title>Node748</title>
<g id="a_node9"><a xlink:href="classokw_1_1_se_button_1_1_se_button___e_n___test.html#a98abeffc57ddad13d3ec78817622ec1b" target="_top" xlink:title="Test des Schlüsselwortes ClickOn für den GUI&#45;Adapter SeButton.">
<polygon fill="white" stroke="black" points="66,-245.5 66,-275.5 196,-275.5 196,-245.5 66,-245.5"/>
<text text-anchor="start" x="74" y="-263.5" font-family="Helvetica,sans-Serif" font-size="10.00">okw.SeButton.SeButton</text>
<text text-anchor="middle" x="131" y="-252.5" font-family="Helvetica,sans-Serif" font-size="10.00">_EN_Test.tcClickOn</text>
</a>
</g>
</g>
<!-- Node742&#45;&gt;Node748 -->
<g id="edge8" class="edge"><title>Node742&#45;&gt;Node748</title>
<path fill="none" stroke="midnightblue" d="M306.966,-260.5C272.489,-260.5 230.478,-260.5 196.265,-260.5"/>
<polygon fill="midnightblue" stroke="midnightblue" points="307.407,-264 317.407,-260.5 307.407,-257 307.407,-264"/>
</g>
<!-- Node749 -->
<g id="node10" class="node"><title>Node749</title>
<g id="a_node10"><a xlink:href="classokw_1_1_se_input_field_1_1_se_input_field___e_n___test.html#a5860a514b07b6bf715c17dd674d0f384" target="_top" xlink:title="Testet das Schlüsselwort ClickOn( FN ) eines SeInputField Prüfen.">
<polygon fill="white" stroke="black" points="64,-196.5 64,-226.5 198,-226.5 198,-196.5 64,-196.5"/>
<text text-anchor="start" x="72" y="-214.5" font-family="Helvetica,sans-Serif" font-size="10.00">okw.SeInputField.SeInput</text>
<text text-anchor="middle" x="131" y="-203.5" font-family="Helvetica,sans-Serif" font-size="10.00">Field_EN_Test.tcClickOn</text>
</a>
</g>
</g>
<!-- Node742&#45;&gt;Node749 -->
<g id="edge9" class="edge"><title>Node742&#45;&gt;Node749</title>
<path fill="none" stroke="midnightblue" d="M322.566,-248.705C303.61,-244.387 281.848,-239.566 262,-235.5 241.315,-231.263 218.707,-226.972 198.231,-223.212"/>
<polygon fill="midnightblue" stroke="midnightblue" points="321.958,-252.156 332.487,-250.977 323.521,-245.333 321.958,-252.156"/>
</g>
<!-- Node750 -->
<g id="node11" class="node"><title>Node750</title>
<g id="a_node11"><a xlink:href="classokw_1_1_se_input_radio_1_1_se_input_radio___e_n___test.html#af95992ddbd303a44c3b1137243ec4463" target="_top" xlink:title="Test des Schlüsselwortes ClickOn() für den GUI&#45;Adapter SeInputRadio.">
<polygon fill="white" stroke="black" points="61,-147.5 61,-177.5 201,-177.5 201,-147.5 61,-147.5"/>
<text text-anchor="start" x="69" y="-165.5" font-family="Helvetica,sans-Serif" font-size="10.00">okw.SeInputRadio.SeInput</text>
<text text-anchor="middle" x="131" y="-154.5" font-family="Helvetica,sans-Serif" font-size="10.00">Radio_EN_Test.tc_ClickOn</text>
</a>
</g>
</g>
<!-- Node742&#45;&gt;Node750 -->
<g id="edge10" class="edge"><title>Node742&#45;&gt;Node750</title>
<path fill="none" stroke="midnightblue" d="M308.561,-246.779C304.851,-244.943 301.295,-242.861 298,-240.5 274.553,-223.701 286.085,-202.372 262,-186.5 244.178,-174.755 222.148,-168.376 201.32,-165.015"/>
<polygon fill="midnightblue" stroke="midnightblue" points="307.471,-250.12 318.041,-250.856 310.237,-243.69 307.471,-250.12"/>
</g>
<!-- Node751 -->
<g id="node12" class="node"><title>Node751</title>
<g id="a_node12"><a xlink:href="classokw_1_1_se_input_radio_1_1_se_input_radio___e_n___test.html#a110e82fd5d9309ebf617febe21ef358d" target="_top" xlink:title="Test des Schlüsselwortes VerifyValueWCM für den GUI&#45;Adapter SeInputRadio.">
<polygon fill="white" stroke="black" points="41.5,-98.5 41.5,-128.5 220.5,-128.5 220.5,-98.5 41.5,-98.5"/>
<text text-anchor="start" x="49.5" y="-116.5" font-family="Helvetica,sans-Serif" font-size="10.00">okw.SeInputRadio.SeInput</text>
<text text-anchor="middle" x="131" y="-105.5" font-family="Helvetica,sans-Serif" font-size="10.00">Radio_EN_Test.tc_VerifyValueWCM</text>
</a>
</g>
</g>
<!-- Node742&#45;&gt;Node751 -->
<g id="edge11" class="edge"><title>Node742&#45;&gt;Node751</title>
<path fill="none" stroke="midnightblue" d="M308.309,-247.992C304.595,-245.865 301.113,-243.386 298,-240.5 262.438,-207.531 298.821,-169.057 262,-137.5 250.237,-127.419 235.639,-120.985 220.519,-116.977"/>
<polygon fill="midnightblue" stroke="midnightblue" points="306.803,-251.151 317.33,-252.347 309.846,-244.847 306.803,-251.151"/>
</g>
<!-- Node752 -->
<g id="node13" class="node"><title>Node752</title>
<g id="a_node13"><a xlink:href="classokw_1_1_se_input_radio_1_1_se_input_radio___e_n___test.html#a764e3f90123eb747d81f597d472711c3" target="_top" xlink:title="Test des Schlüsselwortes VerifyValueREGX für den GUI&#45;Adapter SeInputRadio.">
<polygon fill="white" stroke="black" points="40.5,-49.5 40.5,-79.5 221.5,-79.5 221.5,-49.5 40.5,-49.5"/>
<text text-anchor="start" x="48.5" y="-67.5" font-family="Helvetica,sans-Serif" font-size="10.00">okw.SeInputRadio.SeInput</text>
<text text-anchor="middle" x="131" y="-56.5" font-family="Helvetica,sans-Serif" font-size="10.00">Radio_EN_Test.tc_VerifyValueREGX</text>
</a>
</g>
</g>
<!-- Node742&#45;&gt;Node752 -->
<g id="edge12" class="edge"><title>Node742&#45;&gt;Node752</title>
<path fill="none" stroke="midnightblue" d="M308.149,-248.474C304.446,-246.233 301.012,-243.598 298,-240.5 249.603,-190.726 312.302,-136.348 262,-88.5 250.858,-77.902 236.644,-71.2074 221.729,-67.099"/>
<polygon fill="midnightblue" stroke="midnightblue" points="306.698,-251.661 317.206,-253.016 309.836,-245.404 306.698,-251.661"/>
</g>
<!-- Node753 -->
<g id="node14" class="node"><title>Node753</title>
<g id="a_node14"><a xlink:href="classokw_1_1_se_m_a_x_i_m_i_z_e_1_1_se_m_a_x_i_m_i_z_e___e_n___test.html#ac88123f46efca3d9d52e597e0c3f9876" target="_top" xlink:title="Testet die Implementierung des Schlüsselworte ClickOn( FN ) in der Klasse SeMAXSIZE .">
<polygon fill="white" stroke="black" points="51,-0.5 51,-30.5 211,-30.5 211,-0.5 51,-0.5"/>
<text text-anchor="start" x="59" y="-18.5" font-family="Helvetica,sans-Serif" font-size="10.00">okw.SeMAXIMIZE.SeMAXIMIZE</text>
<text text-anchor="middle" x="131" y="-7.5" font-family="Helvetica,sans-Serif" font-size="10.00">_EN_Test.tcClickOn</text>
</a>
</g>
</g>
<!-- Node742&#45;&gt;Node753 -->
<g id="edge13" class="edge"><title>Node742&#45;&gt;Node753</title>
<path fill="none" stroke="midnightblue" d="M308.142,-248.782C304.412,-246.471 300.977,-243.736 298,-240.5 236.557,-173.708 326.002,-103.844 262,-39.5 248.485,-25.9129 229.956,-18.636 211.122,-14.9983"/>
<polygon fill="midnightblue" stroke="midnightblue" points="306.801,-252.026 317.301,-253.438 309.973,-245.786 306.801,-252.026"/>
</g>
</g>
</svg>
