<?xml version="1.0" encoding="UTF-8" standalone="no"?>
<!DOCTYPE svg PUBLIC "-//W3C//DTD SVG 1.1//EN"
 "http://www.w3.org/Graphics/SVG/1.1/DTD/svg11.dtd">
<!-- Generated by graphviz version 2.26.3 (20100126.1600)
 -->
<!-- Title: okw.core.IOKW_State.MemorizeSelectedValue Pages: 1 -->
<!--zoomable 278 -->
<svg id="main" version="1.1" xmlns="http://www.w3.org/2000/svg" xmlns:xlink="http://www.w3.org/1999/xlink" xml:space="preserve" onload="init(evt)">
<style type="text/css"><![CDATA[
.edge:hover path { stroke: red; }
.edge:hover polygon { stroke: red; fill: red; }
]]></style>
<script type="text/javascript"><![CDATA[
var edges = document.getElementsByTagName('g');
if (edges && edges.length) {
  for (var i=0;i<edges.length;i++) {
    if (edges[i].id.substr(0,4)=='edge') {
      edges[i].setAttribute('class','edge');
    }
  }
}
]]></script>
        <defs>
                <circle id="rim" cx="0" cy="0" r="7"/>
                <circle id="rim2" cx="0" cy="0" r="3.5"/>
                <g id="zoomPlus">
                        <use xlink:href="#rim" fill="#404040">
                                <set attributeName="fill" to="#808080" begin="zoomplus.mouseover" end="zoomplus.mouseout"/>
                        </use>
                        <path d="M-4,0h8M0,-4v8" fill="none" stroke="white" stroke-width="1.5" pointer-events="none"/>
                </g>
                <g id="zoomMin">
                        <use xlink:href="#rim" fill="#404040">
                                <set attributeName="fill" to="#808080" begin="zoomminus.mouseover" end="zoomminus.mouseout"/>
                        </use>
                        <path d="M-4,0h8" fill="none" stroke="white" stroke-width="1.5" pointer-events="none"/>
                </g>
                <g id="dirArrow">
                        <path fill="none" stroke="white" stroke-width="1.5" d="M0,-3.0v7 M-2.5,-0.5L0,-3.0L2.5,-0.5"/>
                </g>
               <g id="resetDef">
                       <use xlink:href="#rim2" fill="#404040">
                               <set attributeName="fill" to="#808080" begin="reset.mouseover" end="reset.mouseout"/>
                       </use>
               </g>
        </defs>

<script type="text/javascript">
var viewWidth = 796;
var viewHeight = 278;
var sectionId = 'dynsection-21';
</script>
<script xlink:href="svgpan.js"/>
<svg id="graph" class="graph">
<g id="viewport">
<title>okw.core.IOKW_State.MemorizeSelectedValue</title>
<polygon fill="white" stroke="white" points="-4,5 -4,-274 793,-274 793,5 -4,5"/>
<!-- Node819 -->
<g id="node1" class="node"><title>Node819</title>
<polygon fill="#bfbfbf" stroke="black" points="0.5,-97 0.5,-131 161.5,-131 161.5,-97 0.5,-97"/>
<text text-anchor="start" x="8.5" y="-118" font-family="Helvetica,sans-Serif" font-size="10.00">okw.core.IOKW_State.Memorize</text>
<text text-anchor="middle" x="81" y="-105" font-family="Helvetica,sans-Serif" font-size="10.00">SelectedValue</text>
</g>
<!-- Node820 -->
<g id="node3" class="node"><title>Node820</title>
<a xlink:href="classokw_1_1core_1_1_core.html#ae13536308d66e68f25d673af7fec2d2b" target="_top" xlink:title="Keine Beschreibung zu &quot;MemorizeSelectedValue&quot; verfügbar. ">
<polygon fill="white" stroke="black" points="198,-97 198,-131 362,-131 362,-97 198,-97"/>
<text text-anchor="start" x="206" y="-118" font-family="Helvetica,sans-Serif" font-size="10.00">okw.core.Core.MemorizeSelected</text>
<text text-anchor="middle" x="280" y="-105" font-family="Helvetica,sans-Serif" font-size="10.00">Value</text>
</a>
</g>
<!-- Node819&#45;&gt;Node820 -->
<g id="edge2" class="edge"><title>Node819&#45;&gt;Node820</title>
<path fill="none" stroke="midnightblue" d="M171.818,-114C180.524,-114 189.321,-114 197.937,-114"/>
<polygon fill="midnightblue" stroke="midnightblue" points="171.654,-110.5 161.654,-114 171.654,-117.5 171.654,-110.5"/>
</g>
<!-- Node821 -->
<g id="node5" class="node"><title>Node821</title>
<a xlink:href="classokw_1_1core_1_1_e_n.html#a1f6ef2b7affb30444c6ecee001778615" target="_top" xlink:title="Keine Beschreibung zu &quot;MemorizeSelectedValue&quot; verfügbar. ">
<polygon fill="white" stroke="black" points="401,-127 401,-161 559,-161 559,-127 401,-127"/>
<text text-anchor="start" x="409" y="-148" font-family="Helvetica,sans-Serif" font-size="10.00">okw.core.EN.MemorizeSelected</text>
<text text-anchor="middle" x="480" y="-135" font-family="Helvetica,sans-Serif" font-size="10.00">Value</text>
</a>
</g>
<!-- Node820&#45;&gt;Node821 -->
<g id="edge4" class="edge"><title>Node820&#45;&gt;Node821</title>
<path fill="none" stroke="midnightblue" d="M372.111,-127.817C381.656,-129.248 391.297,-130.695 400.684,-132.103"/>
<polygon fill="midnightblue" stroke="midnightblue" points="372.622,-124.354 362.213,-126.332 371.584,-131.277 372.622,-124.354"/>
</g>
<!-- Node826 -->
<g id="node15" class="node"><title>Node826</title>
<a xlink:href="classokw_1_1core_1_1_current_object___test.html#a8150cc2adcce05ac8c0b7cfbaa489c12" target="_top" xlink:title="Testziel: Prüft den Aufruf der Methode MemorizeSelectedValue( FN, MemKey ) im ChildObject. ">
<polygon fill="white" stroke="black" points="398,-61.5 398,-108.5 562,-108.5 562,-61.5 398,-61.5"/>
<text text-anchor="start" x="406" y="-95.5" font-family="Helvetica,sans-Serif" font-size="10.00">okw.core.CurrentObject</text>
<text text-anchor="start" x="406" y="-82.5" font-family="Helvetica,sans-Serif" font-size="10.00">_Test.tc_MemorizeSelectedValue</text>
<text text-anchor="middle" x="480" y="-69.5" font-family="Helvetica,sans-Serif" font-size="10.00">_ChildObject</text>
</a>
</g>
<!-- Node820&#45;&gt;Node826 -->
<g id="edge14" class="edge"><title>Node820&#45;&gt;Node826</title>
<path fill="none" stroke="midnightblue" d="M372.187,-100.633C380.726,-99.3947 389.342,-98.1454 397.783,-96.9215"/>
<polygon fill="midnightblue" stroke="midnightblue" points="371.608,-97.1802 362.213,-102.079 372.612,-104.108 371.608,-97.1802"/>
</g>
<!-- Node822 -->
<g id="node7" class="node"><title>Node822</title>
<a xlink:href="classokw_1_1core_1_1_e_n___keywords___i_g_n_o_r_e___test.html#a8809d2f2045601e8e58a73144562cdf8" target="_top" xlink:title="okw.core.EN_Keywords\l_IGNORE_Test.TC_MemorizeSelected\lValue_IGNORE">
<polygon fill="white" stroke="black" points="598.5,-222.5 598.5,-269.5 787.5,-269.5 787.5,-222.5 598.5,-222.5"/>
<text text-anchor="start" x="606.5" y="-256.5" font-family="Helvetica,sans-Serif" font-size="10.00">okw.core.EN_Keywords</text>
<text text-anchor="start" x="606.5" y="-243.5" font-family="Helvetica,sans-Serif" font-size="10.00">_IGNORE_Test.TC_MemorizeSelected</text>
<text text-anchor="middle" x="693" y="-230.5" font-family="Helvetica,sans-Serif" font-size="10.00">Value_IGNORE</text>
</a>
</g>
<!-- Node821&#45;&gt;Node822 -->
<g id="edge6" class="edge"><title>Node821&#45;&gt;Node822</title>
<path fill="none" stroke="midnightblue" d="M514.627,-166.665C537.646,-181.12 568.887,-199.587 598,-213 605.215,-216.324 612.867,-219.509 620.571,-222.499"/>
<polygon fill="midnightblue" stroke="midnightblue" points="516.239,-163.543 505.919,-161.143 512.49,-169.454 516.239,-163.543"/>
</g>
<!-- Node823 -->
<g id="node9" class="node"><title>Node823</title>
<a xlink:href="classokw_1_1core_1_1_e_n___keywords___i_g_n_o_r_e___test.html#a774d6ed26c9f5ca4af17bf8df74a5880" target="_top" xlink:title="okw.core.EN_Keywords\l_IGNORE_Test.TC_MemorizeSelected\lValue_IGNORE_StringEmpty">
<polygon fill="white" stroke="black" points="598.5,-156.5 598.5,-203.5 787.5,-203.5 787.5,-156.5 598.5,-156.5"/>
<text text-anchor="start" x="606.5" y="-190.5" font-family="Helvetica,sans-Serif" font-size="10.00">okw.core.EN_Keywords</text>
<text text-anchor="start" x="606.5" y="-177.5" font-family="Helvetica,sans-Serif" font-size="10.00">_IGNORE_Test.TC_MemorizeSelected</text>
<text text-anchor="middle" x="693" y="-164.5" font-family="Helvetica,sans-Serif" font-size="10.00">Value_IGNORE_StringEmpty</text>
</a>
</g>
<!-- Node821&#45;&gt;Node823 -->
<g id="edge8" class="edge"><title>Node821&#45;&gt;Node823</title>
<path fill="none" stroke="midnightblue" d="M569,-159.042C578.667,-160.676 588.532,-162.343 598.264,-163.988"/>
<polygon fill="midnightblue" stroke="midnightblue" points="569.454,-155.569 559.011,-157.354 568.288,-162.472 569.454,-155.569"/>
</g>
<!-- Node824 -->
<g id="node11" class="node"><title>Node824</title>
<a xlink:href="classokw_1_1core_1_1_e_n___o_k_w_not_allowed_value_exception___keywords___i_g_n_o_r_e.html#ae5de04448f8df22f360181da046dbbba" target="_top" xlink:title="Prüft ob &quot;${IGNORE} &quot; die Ausnahme okw.exceptions.OKWNotAllowedValueException auslöst. ">
<polygon fill="white" stroke="black" points="603.5,-78 603.5,-138 782.5,-138 782.5,-78 603.5,-78"/>
<text text-anchor="start" x="611.5" y="-125" font-family="Helvetica,sans-Serif" font-size="10.00">okw.core.EN_OKWNotAllowed</text>
<text text-anchor="start" x="611.5" y="-112" font-family="Helvetica,sans-Serif" font-size="10.00">ValueException_Keywords</text>
<text text-anchor="start" x="611.5" y="-99" font-family="Helvetica,sans-Serif" font-size="10.00">_IGNORE.tcMemorizeSelectedValue</text>
<text text-anchor="middle" x="693" y="-86" font-family="Helvetica,sans-Serif" font-size="10.00">IGNORE1</text>
</a>
</g>
<!-- Node821&#45;&gt;Node824 -->
<g id="edge10" class="edge"><title>Node821&#45;&gt;Node824</title>
<path fill="none" stroke="midnightblue" d="M568.926,-128.97C580.305,-127.047 591.96,-125.077 603.35,-123.152"/>
<polygon fill="midnightblue" stroke="midnightblue" points="568.288,-125.528 559.011,-130.646 569.454,-132.431 568.288,-125.528"/>
</g>
<!-- Node825 -->
<g id="node13" class="node"><title>Node825</title>
<a xlink:href="classokw_1_1core_1_1_e_n___o_k_w_not_allowed_value_exception___keywords___i_g_n_o_r_e.html#a17027c80a2f52ef3ad7305a91c331e08" target="_top" xlink:title="Prüft ob &quot;&quot;${IGNORE}${TCN}&quot; die Ausnahme okw.exceptions.OKWNotAllowedValueException auslöst...">
<polygon fill="white" stroke="black" points="603.5,-0 603.5,-60 782.5,-60 782.5,-0 603.5,-0"/>
<text text-anchor="start" x="611.5" y="-47" font-family="Helvetica,sans-Serif" font-size="10.00">okw.core.EN_OKWNotAllowed</text>
<text text-anchor="start" x="611.5" y="-34" font-family="Helvetica,sans-Serif" font-size="10.00">ValueException_Keywords</text>
<text text-anchor="start" x="611.5" y="-21" font-family="Helvetica,sans-Serif" font-size="10.00">_IGNORE.tcMemorizeSelectedValue</text>
<text text-anchor="middle" x="693" y="-8" font-family="Helvetica,sans-Serif" font-size="10.00">IGNORE2</text>
</a>
</g>
<!-- Node821&#45;&gt;Node825 -->
<g id="edge12" class="edge"><title>Node821&#45;&gt;Node825</title>
<path fill="none" stroke="midnightblue" d="M555.544,-122.212C557.77,-120.887 559.929,-119.485 562,-118 583.961,-102.252 576.707,-85.6401 598,-69 602.074,-65.8163 606.444,-62.8534 610.991,-60.1022"/>
<polygon fill="midnightblue" stroke="midnightblue" points="553.846,-119.151 546.668,-126.943 557.139,-125.328 553.846,-119.151"/>
</g>
</g>
</svg>
        <g id="navigator" transform="translate(0 0)" fill="#404254">
                <rect fill="#f2f5e9" fill-opacity="0.5" stroke="#606060" stroke-width=".5" x="0" y="0" width="60" height="60"/>
                <use id="zoomplus" xlink:href="#zoomPlus" x="17" y="9" onmousedown="handleZoom(evt,'in')"/>
                <use id="zoomminus" xlink:href="#zoomMin" x="42" y="9" onmousedown="handleZoom(evt,'out')"/>
                <use id="reset" xlink:href="#resetDef" x="30" y="36" onmousedown="handleReset()"/>
                <g id="arrowUp" xlink:href="#dirArrow" transform="translate(30 24)" onmousedown="handlePan(0,-1)">
                  <use xlink:href="#rim" fill="#404040">
                        <set attributeName="fill" to="#808080" begin="arrowUp.mouseover" end="arrowUp.mouseout"/>
                  </use>
                  <path fill="none" stroke="white" stroke-width="1.5" d="M0,-3.0v7 M-2.5,-0.5L0,-3.0L2.5,-0.5"/>
                </g>
                <g id="arrowRight" xlink:href="#dirArrow" transform="rotate(90) translate(36 -43)" onmousedown="handlePan(1,0)">
                  <use xlink:href="#rim" fill="#404040">
                        <set attributeName="fill" to="#808080" begin="arrowRight.mouseover" end="arrowRight.mouseout"/>
                  </use>
                  <path fill="none" stroke="white" stroke-width="1.5" d="M0,-3.0v7 M-2.5,-0.5L0,-3.0L2.5,-0.5"/>
                </g>
                <g id="arrowDown" xlink:href="#dirArrow" transform="rotate(180) translate(-30 -48)" onmousedown="handlePan(0,1)">
                  <use xlink:href="#rim" fill="#404040">
                        <set attributeName="fill" to="#808080" begin="arrowDown.mouseover" end="arrowDown.mouseout"/>
                  </use>
                  <path fill="none" stroke="white" stroke-width="1.5" d="M0,-3.0v7 M-2.5,-0.5L0,-3.0L2.5,-0.5"/>
                </g>
                <g id="arrowLeft" xlink:href="#dirArrow" transform="rotate(270) translate(-36 17)" onmousedown="handlePan(-1,0)">
                  <use xlink:href="#rim" fill="#404040">
                        <set attributeName="fill" to="#808080" begin="arrowLeft.mouseover" end="arrowLeft.mouseout"/>
                  </use>
                  <path fill="none" stroke="white" stroke-width="1.5" d="M0,-3.0v7 M-2.5,-0.5L0,-3.0L2.5,-0.5"/>
                </g>
        </g>
        <svg viewBox="0 0 15 15" width="100%" height="30px" preserveAspectRatio="xMaxYMin meet">
         <g id="arrow_out" transform="scale(0.3 0.3)">
          <a xlink:href="interfaceokw_1_1core_1_1_i_o_k_w___state_a2e9dcf9b0e3ebe2645ed830e5c077e04_icgraph_org.svg" target="_base">
           <rect id="button" ry="5" rx="5" y="6" x="6" height="38" width="38"
                fill="#f2f5e9" fill-opacity="0.5" stroke="#606060" stroke-width="1.0"/>
           <path id="arrow"
             d="M 11.500037,31.436501 C 11.940474,20.09759 22.043105,11.32322 32.158766,21.979434 L 37.068811,17.246167 C 37.068811,17.246167 37.088388,32 37.088388,32 L 22.160133,31.978069 C 22.160133,31.978069 26.997745,27.140456 26.997745,27.140456 C 18.528582,18.264221 13.291696,25.230495 11.500037,31.436501 z"
             style="fill:#404040;"/>
          </a>
         </g>
        </svg>
</svg>
