<?xml version="1.0" encoding="UTF-8" standalone="no"?>
<!DOCTYPE svg PUBLIC "-//W3C//DTD SVG 1.1//EN"
 "http://www.w3.org/Graphics/SVG/1.1/DTD/svg11.dtd">
<!-- Generated by graphviz version 2.36.0 (20140111.2315)
 -->
<!-- Title: okw.core.IOKW_State.VerifyExists Pages: 1 -->
<!--zoomable 2062 -->
<svg id="main" version="1.1" xmlns="http://www.w3.org/2000/svg" xmlns:xlink="http://www.w3.org/1999/xlink" xml:space="preserve" onload="init(evt)">
<style type="text/css"><![CDATA[
.edge:hover path { stroke: red; }
.edge:hover polygon { stroke: red; fill: red; }
]]></style>
<script type="text/javascript"><![CDATA[
var edges = document.getElementsByTagName('g');
if (edges && edges.length) {
  for (var i=0;i<edges.length;i++) {
    if (edges[i].id.substr(0,4)=='edge') {
      edges[i].setAttribute('class','edge');
    }
  }
}
]]></script>
        <defs>
                <circle id="rim" cx="0" cy="0" r="7"/>
                <circle id="rim2" cx="0" cy="0" r="3.5"/>
                <g id="zoomPlus">
                        <use xlink:href="#rim" fill="#404040">
                                <set attributeName="fill" to="#808080" begin="zoomplus.mouseover" end="zoomplus.mouseout"/>
                        </use>
                        <path d="M-4,0h8M0,-4v8" fill="none" stroke="white" stroke-width="1.5" pointer-events="none"/>
                </g>
                <g id="zoomMin">
                        <use xlink:href="#rim" fill="#404040">
                                <set attributeName="fill" to="#808080" begin="zoomminus.mouseover" end="zoomminus.mouseout"/>
                        </use>
                        <path d="M-4,0h8" fill="none" stroke="white" stroke-width="1.5" pointer-events="none"/>
                </g>
                <g id="dirArrow">
                        <path fill="none" stroke="white" stroke-width="1.5" d="M0,-3.0v7 M-2.5,-0.5L0,-3.0L2.5,-0.5"/>
                </g>
               <g id="resetDef">
                       <use xlink:href="#rim2" fill="#404040">
                               <set attributeName="fill" to="#808080" begin="reset.mouseover" end="reset.mouseout"/>
                       </use>
               </g>
        </defs>

<script type="text/javascript">
var viewWidth = 734;
var viewHeight = 2062;
var sectionId = 'dynsection-46';
</script>
<script xlink:href="svgpan.js"/>
<svg id="graph" class="graph">
<g id="viewport">
<title>okw.core.IOKW_State.VerifyExists</title>
<polygon fill="white" stroke="none" points="-4,4 -4,-2058 730,-2058 730,4 -4,4"/>
<!-- Node3435 -->
<g id="node1" class="node"><title>Node3435</title>
<polygon fill="#bfbfbf" stroke="black" points="0.5,-983 0.5,-1013 143.5,-1013 143.5,-983 0.5,-983"/>
<text text-anchor="start" x="8.5" y="-1001" font-family="Helvetica,sans-Serif" font-size="10.00">okw.core.IOKW_State.Verify</text>
<text text-anchor="middle" x="72" y="-990" font-family="Helvetica,sans-Serif" font-size="10.00">Exists</text>
</g>
<!-- Node3436 -->
<g id="node2" class="node"><title>Node3436</title>
<g id="a_node2"><a xlink:href="classokw_1_1core_1_1_core.html#a47af0e08b2bde199fc5d10dee040ac1b" target="_top" xlink:title="Prüft, ob das gegebene Objekt existiert. ">
<polygon fill="white" stroke="black" points="180.5,-988.5 180.5,-1007.5 317.5,-1007.5 317.5,-988.5 180.5,-988.5"/>
<text text-anchor="middle" x="249" y="-995.5" font-family="Helvetica,sans-Serif" font-size="10.00">okw.core.Core.VerifyExists</text>
</a>
</g>
</g>
<!-- Node3435&#45;&gt;Node3436 -->
<g id="edge1" class="edge"><title>Node3435&#45;&gt;Node3436</title>
<path fill="none" stroke="midnightblue" d="M153.716,-998C162.663,-998 171.705,-998 180.466,-998"/>
<polygon fill="midnightblue" stroke="midnightblue" points="153.675,-994.5 143.675,-998 153.675,-1001.5 153.675,-994.5"/>
</g>
<!-- Node3437 -->
<g id="node3" class="node"><title>Node3437</title>
<g id="a_node3"><a xlink:href="classokw_1_1core_1_1_e_n.html#afbdb32a44d83abbf58222e5920004f28" target="_top" xlink:title="Prüft, ob das gegebene Objekt existiert. ">
<polygon fill="white" stroke="black" points="354,-988.5 354,-1007.5 484,-1007.5 484,-988.5 354,-988.5"/>
<text text-anchor="middle" x="419" y="-995.5" font-family="Helvetica,sans-Serif" font-size="10.00">okw.core.EN.VerifyExists</text>
</a>
</g>
</g>
<!-- Node3436&#45;&gt;Node3437 -->
<g id="edge2" class="edge"><title>Node3436&#45;&gt;Node3437</title>
<path fill="none" stroke="midnightblue" d="M327.998,-998C336.698,-998 345.484,-998 353.98,-998"/>
<polygon fill="midnightblue" stroke="midnightblue" points="327.848,-994.5 317.848,-998 327.848,-1001.5 327.848,-994.5"/>
</g>
<!-- Node3438 -->
<g id="node4" class="node"><title>Node3438</title>
<g id="a_node4"><a xlink:href="classokw_1_1core_1_1_e_n___keywords___a_n_t_l_r___test.html#abdee71d00398ea1cae2d3a41e4b424d8" target="_top" xlink:title="okw.core.EN_Keywords\l_ANTLR_Test.tc_VerifyExists\l_MemorizedValue">
<polygon fill="white" stroke="black" points="548.5,-2012.5 548.5,-2053.5 697.5,-2053.5 697.5,-2012.5 548.5,-2012.5"/>
<text text-anchor="start" x="556.5" y="-2041.5" font-family="Helvetica,sans-Serif" font-size="10.00">okw.core.EN_Keywords</text>
<text text-anchor="start" x="556.5" y="-2030.5" font-family="Helvetica,sans-Serif" font-size="10.00">_ANTLR_Test.tc_VerifyExists</text>
<text text-anchor="middle" x="623" y="-2019.5" font-family="Helvetica,sans-Serif" font-size="10.00">_MemorizedValue</text>
</a>
</g>
</g>
<!-- Node3437&#45;&gt;Node3438 -->
<g id="edge3" class="edge"><title>Node3437&#45;&gt;Node3438</title>
<path fill="none" stroke="midnightblue" d="M420.666,-1017.75C425.351,-1151.59 455.055,-1922.91 520,-2002 527.458,-2011.08 537.493,-2017.57 548.366,-2022.18"/>
<polygon fill="midnightblue" stroke="midnightblue" points="424.163,-1017.57 420.32,-1007.7 417.167,-1017.82 424.163,-1017.57"/>
</g>
<!-- Node3439 -->
<g id="node5" class="node"><title>Node3439</title>
<g id="a_node5"><a xlink:href="classokw_1_1core_1_1_e_n___keywords___d_e_l_e_t_e___test.html#a0e62a17933f21dc8c45b22def98ac192" target="_top" xlink:title="okw.core.EN_Keywords\l_DELETE_Test.tcSelectMenu\l_Value_MV_DELETE_EmptyString">
<polygon fill="white" stroke="black" points="538,-1952.5 538,-1993.5 708,-1993.5 708,-1952.5 538,-1952.5"/>
<text text-anchor="start" x="546" y="-1981.5" font-family="Helvetica,sans-Serif" font-size="10.00">okw.core.EN_Keywords</text>
<text text-anchor="start" x="546" y="-1970.5" font-family="Helvetica,sans-Serif" font-size="10.00">_DELETE_Test.tcSelectMenu</text>
<text text-anchor="middle" x="623" y="-1959.5" font-family="Helvetica,sans-Serif" font-size="10.00">_Value_MV_DELETE_EmptyString</text>
</a>
</g>
</g>
<!-- Node3437&#45;&gt;Node3439 -->
<g id="edge4" class="edge"><title>Node3437&#45;&gt;Node3439</title>
<path fill="none" stroke="midnightblue" d="M420.798,-1017.75C426.182,-1146.9 458.853,-1868.01 520,-1942 524.952,-1947.99 531.024,-1952.85 537.717,-1956.79"/>
<polygon fill="midnightblue" stroke="midnightblue" points="424.293,-1017.56 420.385,-1007.71 417.299,-1017.84 424.293,-1017.56"/>
</g>
<!-- Node3440 -->
<g id="node6" class="node"><title>Node3440</title>
<g id="a_node6"><a xlink:href="classokw_1_1core_1_1_e_n___keywords___empty___test.html#a8449e6aa401aca7a8dc5701cfbe6588d" target="_top" xlink:title="Prüft &quot;${EMPTY}&quot; für das Schlüsselwort VerifyValue(string,string) ">
<polygon fill="white" stroke="black" points="545,-1892.5 545,-1933.5 701,-1933.5 701,-1892.5 545,-1892.5"/>
<text text-anchor="start" x="553" y="-1921.5" font-family="Helvetica,sans-Serif" font-size="10.00">okw.core.EN_Keywords</text>
<text text-anchor="start" x="553" y="-1910.5" font-family="Helvetica,sans-Serif" font-size="10.00">_Empty_Test.tc_VerifyTablecell</text>
<text text-anchor="middle" x="623" y="-1899.5" font-family="Helvetica,sans-Serif" font-size="10.00">ValueWCM_Empty</text>
</a>
</g>
</g>
<!-- Node3437&#45;&gt;Node3440 -->
<g id="edge5" class="edge"><title>Node3437&#45;&gt;Node3440</title>
<path fill="none" stroke="midnightblue" d="M420.96,-1018.01C427.12,-1142.98 462.685,-1813.15 520,-1882 526.69,-1890.04 535.396,-1896.04 544.901,-1900.51"/>
<polygon fill="midnightblue" stroke="midnightblue" points="424.438,-1017.48 420.455,-1007.66 417.446,-1017.82 424.438,-1017.48"/>
</g>
<!-- Node3441 -->
<g id="node7" class="node"><title>Node3441</title>
<g id="a_node7"><a xlink:href="classokw_1_1core_1_1_e_n___keywords___i_g_n_o_r_e___test.html#ac4883de015c35ba385e9f4aabbc3ffe0" target="_top" xlink:title="Prüft ob das Schlüsselwort beim Sollwert &quot;${IGNORE}&quot; die Ausführung ignoriert. ">
<polygon fill="white" stroke="black" points="547.5,-1832.5 547.5,-1873.5 698.5,-1873.5 698.5,-1832.5 547.5,-1832.5"/>
<text text-anchor="start" x="555.5" y="-1861.5" font-family="Helvetica,sans-Serif" font-size="10.00">okw.core.EN_Keywords</text>
<text text-anchor="start" x="555.5" y="-1850.5" font-family="Helvetica,sans-Serif" font-size="10.00">_IGNORE_Test.tcVerifyExists</text>
<text text-anchor="middle" x="623" y="-1839.5" font-family="Helvetica,sans-Serif" font-size="10.00">_IGNORE</text>
</a>
</g>
</g>
<!-- Node3437&#45;&gt;Node3441 -->
<g id="edge6" class="edge"><title>Node3437&#45;&gt;Node3441</title>
<path fill="none" stroke="midnightblue" d="M421.117,-1017.75C428.029,-1137.03 466.43,-1758.17 520,-1822 527.258,-1830.65 536.849,-1836.93 547.248,-1841.49"/>
<polygon fill="midnightblue" stroke="midnightblue" points="424.599,-1017.33 420.532,-1007.55 417.61,-1017.73 424.599,-1017.33"/>
</g>
<!-- Node3442 -->
<g id="node8" class="node"><title>Node3442</title>
<g id="a_node8"><a xlink:href="classokw_1_1core_1_1_e_n___keywords___i_g_n_o_r_e___test.html#a29de8a59f4453138c4ccecfb3e608419" target="_top" xlink:title="Prüft ob das Schlüsselwort beim Sollwert &quot;&quot; die Ausführung ignoriert. ">
<polygon fill="white" stroke="black" points="547.5,-1772.5 547.5,-1813.5 698.5,-1813.5 698.5,-1772.5 547.5,-1772.5"/>
<text text-anchor="start" x="555.5" y="-1801.5" font-family="Helvetica,sans-Serif" font-size="10.00">okw.core.EN_Keywords</text>
<text text-anchor="start" x="555.5" y="-1790.5" font-family="Helvetica,sans-Serif" font-size="10.00">_IGNORE_Test.tcVerifyExists</text>
<text text-anchor="middle" x="623" y="-1779.5" font-family="Helvetica,sans-Serif" font-size="10.00">_IGNORE_EmptyString</text>
</a>
</g>
</g>
<!-- Node3437&#45;&gt;Node3442 -->
<g id="edge7" class="edge"><title>Node3437&#45;&gt;Node3442</title>
<path fill="none" stroke="midnightblue" d="M419.778,-1017.63C418.957,-1125.59 420.274,-1646.35 520,-1763 527.317,-1771.56 536.938,-1777.74 547.35,-1782.2"/>
<polygon fill="midnightblue" stroke="midnightblue" points="423.279,-1017.55 419.872,-1007.51 416.279,-1017.48 423.279,-1017.55"/>
</g>
<!-- Node3443 -->
<g id="node9" class="node"><title>Node3443</title>
<g id="a_node9"><a xlink:href="classokw_1_1core_1_1_e_n___keywords___test.html#a8a804aa475fe4e5b89887345adfdb312" target="_top" xlink:title="&quot;Normaler&quot; Testfall für das Schlüsselwort VerifyExists. ">
<polygon fill="white" stroke="black" points="562,-1724 562,-1754 684,-1754 684,-1724 562,-1724"/>
<text text-anchor="start" x="570" y="-1742" font-family="Helvetica,sans-Serif" font-size="10.00">okw.core.EN_Keywords</text>
<text text-anchor="middle" x="623" y="-1731" font-family="Helvetica,sans-Serif" font-size="10.00">_Test.tc_VerifyExists</text>
</a>
</g>
</g>
<!-- Node3437&#45;&gt;Node3443 -->
<g id="edge8" class="edge"><title>Node3437&#45;&gt;Node3443</title>
<path fill="none" stroke="midnightblue" d="M419.885,-1018.07C419.701,-1123.03 424.111,-1607.84 520,-1714 530.755,-1725.91 546.168,-1732.58 561.767,-1736.21"/>
<polygon fill="midnightblue" stroke="midnightblue" points="423.386,-1017.93 419.921,-1007.91 416.386,-1017.9 423.386,-1017.93"/>
</g>
<!-- Node3444 -->
<g id="node10" class="node"><title>Node3444</title>
<g id="a_node10"><a xlink:href="classokw_1_1core_1_1_e_n___o_k_w_frame_object_child_not_found_exception___test.html#ad5171c21b85fa5f3c77af61d15900d48" target="_top" xlink:title="Prüft ob die Ausnahme OKWFrameObjectChildNotFoundException durch die LFC&#45;VerifyExists ausgelöst wird...">
<polygon fill="white" stroke="black" points="522,-1653 522,-1705 724,-1705 724,-1653 522,-1653"/>
<text text-anchor="start" x="530" y="-1693" font-family="Helvetica,sans-Serif" font-size="10.00">okw.core.EN_OKWFrameObject</text>
<text text-anchor="start" x="530" y="-1682" font-family="Helvetica,sans-Serif" font-size="10.00">ChildNotFoundException</text>
<text text-anchor="start" x="530" y="-1671" font-family="Helvetica,sans-Serif" font-size="10.00">_Test.TC_VerifyExists_OKWFrameObject</text>
<text text-anchor="middle" x="623" y="-1660" font-family="Helvetica,sans-Serif" font-size="10.00">ChildNotFoundException</text>
</a>
</g>
</g>
<!-- Node3437&#45;&gt;Node3444 -->
<g id="edge9" class="edge"><title>Node3437&#45;&gt;Node3444</title>
<path fill="none" stroke="midnightblue" d="M420.441,-1018C422.984,-1115.82 438.663,-1543.13 520,-1642 523.351,-1646.07 527.189,-1649.7 531.368,-1652.92"/>
<polygon fill="midnightblue" stroke="midnightblue" points="423.934,-1017.66 420.193,-1007.75 416.936,-1017.83 423.934,-1017.66"/>
</g>
<!-- Node3445 -->
<g id="node11" class="node"><title>Node3445</title>
<g id="a_node11"><a xlink:href="classokw_1_1core_1_1_e_n___o_k_w_not_allowed_value_exception___keywords___i_g_n_o_r_e.html#ae916bd8b565e8a0dc3072aab808afff5" target="_top" xlink:title="Prüft ob &quot;${IGNORE} &quot; die Ausnahme okw.exceptions.OKWNotAllowedValueException auslöst. ">
<polygon fill="white" stroke="black" points="537.5,-1592.5 537.5,-1633.5 708.5,-1633.5 708.5,-1592.5 537.5,-1592.5"/>
<text text-anchor="start" x="545.5" y="-1621.5" font-family="Helvetica,sans-Serif" font-size="10.00">okw.core.EN_OKWNotAllowed</text>
<text text-anchor="start" x="545.5" y="-1610.5" font-family="Helvetica,sans-Serif" font-size="10.00">ValueException_Keywords</text>
<text text-anchor="middle" x="623" y="-1599.5" font-family="Helvetica,sans-Serif" font-size="10.00">_IGNORE.tcVerifyExistsIGNORE1</text>
</a>
</g>
</g>
<!-- Node3437&#45;&gt;Node3445 -->
<g id="edge10" class="edge"><title>Node3437&#45;&gt;Node3445</title>
<path fill="none" stroke="midnightblue" d="M420.683,-1017.94C424.236,-1110.26 443.503,-1495.25 520,-1582 524.896,-1587.55 530.753,-1592.13 537.15,-1595.89"/>
<polygon fill="midnightblue" stroke="midnightblue" points="424.173,-1017.62 420.31,-1007.75 417.178,-1017.87 424.173,-1017.62"/>
</g>
<!-- Node3446 -->
<g id="node12" class="node"><title>Node3446</title>
<g id="a_node12"><a xlink:href="classokw_1_1core_1_1_e_n___o_k_w_not_allowed_value_exception___keywords___i_g_n_o_r_e.html#a28ed22208a9ecf63b3d82cf930b33d3d" target="_top" xlink:title="Prüft ob &quot;&quot;${IGNORE}${TCN}&quot; die Ausnahme okw.exceptions.OKWNotAllowedValueException auslöst...">
<polygon fill="white" stroke="black" points="537.5,-1532.5 537.5,-1573.5 708.5,-1573.5 708.5,-1532.5 537.5,-1532.5"/>
<text text-anchor="start" x="545.5" y="-1561.5" font-family="Helvetica,sans-Serif" font-size="10.00">okw.core.EN_OKWNotAllowed</text>
<text text-anchor="start" x="545.5" y="-1550.5" font-family="Helvetica,sans-Serif" font-size="10.00">ValueException_Keywords</text>
<text text-anchor="middle" x="623" y="-1539.5" font-family="Helvetica,sans-Serif" font-size="10.00">_IGNORE.tcVerifyExistsIGNORE2</text>
</a>
</g>
</g>
<!-- Node3437&#45;&gt;Node3446 -->
<g id="edge11" class="edge"><title>Node3437&#45;&gt;Node3446</title>
<path fill="none" stroke="midnightblue" d="M421.099,-1017.77C426.27,-1103.86 450.896,-1445.12 520,-1522 524.949,-1527.51 530.842,-1532.05 537.262,-1535.79"/>
<polygon fill="midnightblue" stroke="midnightblue" points="424.58,-1017.35 420.507,-1007.57 417.592,-1017.75 424.58,-1017.35"/>
</g>
<!-- Node3447 -->
<g id="node13" class="node"><title>Node3447</title>
<g id="a_node13"><a xlink:href="classokw_1_1core_1_1_e_n___o_k_w_not_allowed_value_exception___test.html#abba150b0023b408609ae535427bf774b" target="_top" xlink:title="Prüft ob die Ausnahme OKWNotAllowedValueException durch die LFC&#45;VerifyExists ausgelöst wird...">
<polygon fill="white" stroke="black" points="526.5,-1461 526.5,-1513 719.5,-1513 719.5,-1461 526.5,-1461"/>
<text text-anchor="start" x="534.5" y="-1501" font-family="Helvetica,sans-Serif" font-size="10.00">okw.core.EN_OKWNotAllowed</text>
<text text-anchor="start" x="534.5" y="-1490" font-family="Helvetica,sans-Serif" font-size="10.00">ValueException_Test.TC</text>
<text text-anchor="start" x="534.5" y="-1479" font-family="Helvetica,sans-Serif" font-size="10.00">_VerifyExists_OKWFrameObjectMethod</text>
<text text-anchor="middle" x="623" y="-1468" font-family="Helvetica,sans-Serif" font-size="10.00">NotFoundException</text>
</a>
</g>
</g>
<!-- Node3437&#45;&gt;Node3447 -->
<g id="edge12" class="edge"><title>Node3437&#45;&gt;Node3447</title>
<path fill="none" stroke="midnightblue" d="M421.826,-1017.72C429.449,-1096.09 461.118,-1384.46 520,-1451 523.236,-1454.66 526.866,-1457.94 530.778,-1460.89"/>
<polygon fill="midnightblue" stroke="midnightblue" points="425.307,-1017.36 420.875,-1007.73 418.338,-1018.02 425.307,-1017.36"/>
</g>
<!-- Node3448 -->
<g id="node14" class="node"><title>Node3448</title>
<g id="a_node14"><a xlink:href="classokw_1_1core_1_1_e_n___verify_exists___o_k_w_verifying_fails_exception___test.html#a2130383dc3dce6634d7a3b4367575e49" target="_top" xlink:title="Prüft, ob die Ausnahme OKWVerifyingFailsException bei einem Soll/Ist&#45;Vergleich ausgelöst wird...">
<polygon fill="white" stroke="black" points="520,-1390 520,-1442 726,-1442 726,-1390 520,-1390"/>
<text text-anchor="start" x="528" y="-1430" font-family="Helvetica,sans-Serif" font-size="10.00">okw.core.EN_VerifyExists</text>
<text text-anchor="start" x="528" y="-1419" font-family="Helvetica,sans-Serif" font-size="10.00">_OKWVerifyingFailsException</text>
<text text-anchor="start" x="528" y="-1408" font-family="Helvetica,sans-Serif" font-size="10.00">_Test.tc_VerifyExists_ExistsYESExpected</text>
<text text-anchor="middle" x="623" y="-1397" font-family="Helvetica,sans-Serif" font-size="10.00">NO_OKWVerifyingFailsException</text>
</a>
</g>
</g>
<!-- Node3437&#45;&gt;Node3448 -->
<g id="edge13" class="edge"><title>Node3437&#45;&gt;Node3448</title>
<path fill="none" stroke="midnightblue" d="M422.694,-1017.7C432.669,-1087.98 469.547,-1325.16 520,-1380 523.306,-1383.59 526.992,-1386.83 530.948,-1389.74"/>
<polygon fill="midnightblue" stroke="midnightblue" points="426.13,-1016.99 421.281,-1007.57 419.197,-1017.96 426.13,-1016.99"/>
</g>
<!-- Node3449 -->
<g id="node15" class="node"><title>Node3449</title>
<g id="a_node15"><a xlink:href="classokw_1_1core_1_1_e_n___verify_exists___o_k_w_verifying_fails_exception___test.html#aa1d3eda12dec57423561de4e08b12d29" target="_top" xlink:title="Prüft, ob die Ausnahme OKWVerifyingFailsException bei einem Soll/Ist&#45;Vergleich ausgelöst wird...">
<polygon fill="white" stroke="black" points="528,-1319 528,-1371 718,-1371 718,-1319 528,-1319"/>
<text text-anchor="start" x="536" y="-1359" font-family="Helvetica,sans-Serif" font-size="10.00">okw.core.EN_VerifyExists</text>
<text text-anchor="start" x="536" y="-1348" font-family="Helvetica,sans-Serif" font-size="10.00">_OKWVerifyingFailsException</text>
<text text-anchor="start" x="536" y="-1337" font-family="Helvetica,sans-Serif" font-size="10.00">_Test.tcVerifyExist_ExistsNOExpexted</text>
<text text-anchor="middle" x="623" y="-1326" font-family="Helvetica,sans-Serif" font-size="10.00">YES_OKWVerifyingFailsException</text>
</a>
</g>
</g>
<!-- Node3437&#45;&gt;Node3449 -->
<g id="edge14" class="edge"><title>Node3437&#45;&gt;Node3449</title>
<path fill="none" stroke="midnightblue" d="M420.565,-1017.97C423.182,-1072.33 437.864,-1224.52 520,-1309 523.534,-1312.64 527.458,-1315.9 531.649,-1318.84"/>
<polygon fill="midnightblue" stroke="midnightblue" points="424.049,-1017.51 420.162,-1007.65 417.055,-1017.78 424.049,-1017.51"/>
</g>
<!-- Node3450 -->
<g id="node16" class="node"><title>Node3450</title>
<g id="a_node16"><a xlink:href="classokw_1_1_se_b_a_c_k_1_1_se_b_a_c_k___e_n___test.html#a536ff38be47c762431a921468ce8f740" target="_top" xlink:title="Test des Schlüsselwortes &quot;VerifyExists( FN, ExpVal ) für SeBACK. ">
<polygon fill="white" stroke="black" points="529,-1248 529,-1300 717,-1300 717,-1248 529,-1248"/>
<text text-anchor="start" x="537" y="-1288" font-family="Helvetica,sans-Serif" font-size="10.00">okw.SeBACK.SeBACK_EN</text>
<text text-anchor="start" x="537" y="-1277" font-family="Helvetica,sans-Serif" font-size="10.00">_Test.tcVerifyExists</text>
<text text-anchor="start" x="537" y="-1266" font-family="Helvetica,sans-Serif" font-size="10.00">_ExistsYesExpectedNo_OKWVerifying</text>
<text text-anchor="middle" x="623" y="-1255" font-family="Helvetica,sans-Serif" font-size="10.00">FailsException</text>
</a>
</g>
</g>
<!-- Node3437&#45;&gt;Node3450 -->
<g id="edge15" class="edge"><title>Node3437&#45;&gt;Node3450</title>
<path fill="none" stroke="midnightblue" d="M422.804,-1017.74C430.236,-1062.9 454.558,-1174.64 520,-1237 524.228,-1241.03 528.927,-1244.62 533.922,-1247.83"/>
<polygon fill="midnightblue" stroke="midnightblue" points="426.249,-1017.11 421.264,-1007.76 419.331,-1018.18 426.249,-1017.11"/>
</g>
<!-- Node3451 -->
<g id="node17" class="node"><title>Node3451</title>
<g id="a_node17"><a xlink:href="classokw_1_1_se_b_a_c_k_1_1_se_b_a_c_k___e_n___test.html#a054bc346b01a039723a8ed82d280c0db" target="_top" xlink:title="Prüft ob das BACK existiert. ">
<polygon fill="white" stroke="black" points="553,-1187.5 553,-1228.5 693,-1228.5 693,-1187.5 553,-1187.5"/>
<text text-anchor="start" x="561" y="-1216.5" font-family="Helvetica,sans-Serif" font-size="10.00">okw.SeBACK.SeBACK_EN</text>
<text text-anchor="start" x="561" y="-1205.5" font-family="Helvetica,sans-Serif" font-size="10.00">_Test.tcVerifyExists</text>
<text text-anchor="middle" x="623" y="-1194.5" font-family="Helvetica,sans-Serif" font-size="10.00">_ExistsYesExpectedYes</text>
</a>
</g>
</g>
<!-- Node3437&#45;&gt;Node3451 -->
<g id="edge16" class="edge"><title>Node3437&#45;&gt;Node3451</title>
<path fill="none" stroke="midnightblue" d="M425.623,-1017.86C437.1,-1054.77 466.743,-1134.09 520,-1177 529.584,-1184.72 541.072,-1190.52 552.828,-1194.88"/>
<polygon fill="midnightblue" stroke="midnightblue" points="428.851,-1016.43 422.639,-1007.85 422.143,-1018.43 428.851,-1016.43"/>
</g>
<!-- Node3452 -->
<g id="node18" class="node"><title>Node3452</title>
<g id="a_node18"><a xlink:href="classokw_1_1_se_button_1_1_se_button___e_n___test.html#ab4b715fb0a574ee598f3aa2bc802d804" target="_top" xlink:title="Test des Schlüsselwortes VerifyExists für den GUI&#45;Adapter SeButton. ">
<polygon fill="white" stroke="black" points="560,-1127.5 560,-1168.5 686,-1168.5 686,-1127.5 560,-1127.5"/>
<text text-anchor="start" x="568" y="-1156.5" font-family="Helvetica,sans-Serif" font-size="10.00">okw.SeButton.SeButton</text>
<text text-anchor="start" x="568" y="-1145.5" font-family="Helvetica,sans-Serif" font-size="10.00">_EN_Test.tcVerifyExists</text>
<text text-anchor="middle" x="623" y="-1134.5" font-family="Helvetica,sans-Serif" font-size="10.00">_ExsistsNOExpectedNO</text>
</a>
</g>
</g>
<!-- Node3437&#45;&gt;Node3452 -->
<g id="edge17" class="edge"><title>Node3437&#45;&gt;Node3452</title>
<path fill="none" stroke="midnightblue" d="M430.726,-1016.55C446.816,-1042.75 479.661,-1090.37 520,-1117 531.97,-1124.9 546.041,-1130.86 559.844,-1135.33"/>
<polygon fill="midnightblue" stroke="midnightblue" points="433.536,-1014.43 425.399,-1007.64 427.529,-1018.02 433.536,-1014.43"/>
</g>
<!-- Node3453 -->
<g id="node19" class="node"><title>Node3453</title>
<g id="a_node19"><a xlink:href="classokw_1_1_se_button_1_1_se_button___e_n___test.html#aff3f951a968907f24ea774a785258c9b" target="_top" xlink:title="Test des Schlüsselwortes VerifyExists für den GUI&#45;Adapter SeButton. ">
<polygon fill="white" stroke="black" points="560,-1067.5 560,-1108.5 686,-1108.5 686,-1067.5 560,-1067.5"/>
<text text-anchor="start" x="568" y="-1096.5" font-family="Helvetica,sans-Serif" font-size="10.00">okw.SeButton.SeButton</text>
<text text-anchor="start" x="568" y="-1085.5" font-family="Helvetica,sans-Serif" font-size="10.00">_EN_Test.tcVerifyExists</text>
<text text-anchor="middle" x="623" y="-1074.5" font-family="Helvetica,sans-Serif" font-size="10.00">_ExistsNOExpectedYES</text>
</a>
</g>
</g>
<!-- Node3437&#45;&gt;Node3453 -->
<g id="edge18" class="edge"><title>Node3437&#45;&gt;Node3453</title>
<path fill="none" stroke="midnightblue" d="M442.238,-1013.21C461.98,-1026.2 491.961,-1044.68 520,-1057 532.623,-1062.55 546.538,-1067.49 559.923,-1071.71"/>
<polygon fill="midnightblue" stroke="midnightblue" points="443.939,-1010.14 433.678,-1007.5 440.054,-1015.96 443.939,-1010.14"/>
</g>
<!-- Node3454 -->
<g id="node20" class="node"><title>Node3454</title>
<g id="a_node20"><a xlink:href="classokw_1_1_se_button_1_1_se_button___e_n___test.html#ada3290f0884d987b3e7fd7d21a7d9f46" target="_top" xlink:title="Test des Schlüsselwortes VerifyExists für den GUI&#45;Adapter SeButton. ">
<polygon fill="white" stroke="black" points="560,-1007.5 560,-1048.5 686,-1048.5 686,-1007.5 560,-1007.5"/>
<text text-anchor="start" x="568" y="-1036.5" font-family="Helvetica,sans-Serif" font-size="10.00">okw.SeButton.SeButton</text>
<text text-anchor="start" x="568" y="-1025.5" font-family="Helvetica,sans-Serif" font-size="10.00">_EN_Test.tcVerifyExists</text>
<text text-anchor="middle" x="623" y="-1014.5" font-family="Helvetica,sans-Serif" font-size="10.00">_ExistsYESExpectedNO</text>
</a>
</g>
</g>
<!-- Node3437&#45;&gt;Node3454 -->
<g id="edge19" class="edge"><title>Node3437&#45;&gt;Node3454</title>
<path fill="none" stroke="midnightblue" d="M494.26,-1009.03C515.763,-1012.22 539.009,-1015.67 559.701,-1018.75"/>
<polygon fill="midnightblue" stroke="midnightblue" points="494.597,-1005.54 484.192,-1007.53 493.569,-1012.46 494.597,-1005.54"/>
</g>
<!-- Node3455 -->
<g id="node21" class="node"><title>Node3455</title>
<g id="a_node21"><a xlink:href="classokw_1_1_se_button_1_1_se_button___e_n___test.html#a813004a00101e845ab8208241891b843" target="_top" xlink:title="Test des Schlüsselwortes VerifyExists für den GUI&#45;Adapter SeButton. ">
<polygon fill="white" stroke="black" points="557.5,-947.5 557.5,-988.5 688.5,-988.5 688.5,-947.5 557.5,-947.5"/>
<text text-anchor="start" x="565.5" y="-976.5" font-family="Helvetica,sans-Serif" font-size="10.00">okw.SeButton.SeButton</text>
<text text-anchor="start" x="565.5" y="-965.5" font-family="Helvetica,sans-Serif" font-size="10.00">_EN_Test.tcVerifyExists</text>
<text text-anchor="middle" x="623" y="-954.5" font-family="Helvetica,sans-Serif" font-size="10.00">_ExistsYESExpectedYES</text>
</a>
</g>
</g>
<!-- Node3437&#45;&gt;Node3455 -->
<g id="edge20" class="edge"><title>Node3437&#45;&gt;Node3455</title>
<path fill="none" stroke="midnightblue" d="M494.2,-986.98C514.886,-983.908 537.189,-980.596 557.282,-977.612"/>
<polygon fill="midnightblue" stroke="midnightblue" points="493.569,-983.535 484.192,-988.467 494.597,-990.46 493.569,-983.535"/>
</g>
<!-- Node3456 -->
<g id="node22" class="node"><title>Node3456</title>
<g id="a_node22"><a xlink:href="classokw_1_1_se_input_checkbox_1_1_se_input_checkbox___e_n___test.html#ad572d5badb79741c496835cbb5c2d6df" target="_top" xlink:title="Prüft die SetFocusFunktion bei Textfelder mit dem Attribute &quot;ReadOnly&quot;. ">
<polygon fill="white" stroke="black" points="544,-899 544,-929 702,-929 702,-899 544,-899"/>
<text text-anchor="start" x="552" y="-917" font-family="Helvetica,sans-Serif" font-size="10.00">okw.SeInputCheckbox.SeInput</text>
<text text-anchor="middle" x="623" y="-906" font-family="Helvetica,sans-Serif" font-size="10.00">Checkbox_EN_Test.tcSetFocus</text>
</a>
</g>
</g>
<!-- Node3437&#45;&gt;Node3456 -->
<g id="edge21" class="edge"><title>Node3437&#45;&gt;Node3456</title>
<path fill="none" stroke="midnightblue" d="M441.08,-982.697C460.65,-969.151 491.044,-949.759 520,-938 528.343,-934.612 537.274,-931.637 546.252,-929.041"/>
<polygon fill="midnightblue" stroke="midnightblue" points="439.056,-979.842 432.894,-988.461 443.086,-985.565 439.056,-979.842"/>
</g>
<!-- Node3457 -->
<g id="node23" class="node"><title>Node3457</title>
<g id="a_node23"><a xlink:href="classokw_1_1_se_input_field_1_1_se_input_field___e_n___test.html#a009c63f6089c85d3a4cdeeca992a729d" target="_top" xlink:title="Test des Schlüsselwortes &quot;VerifyValue( FN, ExpVal ) für SeInputText. ">
<polygon fill="white" stroke="black" points="547,-850 547,-880 699,-880 699,-850 547,-850"/>
<text text-anchor="start" x="555" y="-868" font-family="Helvetica,sans-Serif" font-size="10.00">okw.SeInputField.SeInput</text>
<text text-anchor="middle" x="623" y="-857" font-family="Helvetica,sans-Serif" font-size="10.00">Field_EN_Test.tcVerifyCaption</text>
</a>
</g>
</g>
<!-- Node3437&#45;&gt;Node3457 -->
<g id="edge22" class="edge"><title>Node3437&#45;&gt;Node3457</title>
<path fill="none" stroke="midnightblue" d="M431.68,-979.869C448.303,-955.579 481.12,-912.89 520,-890 528.249,-885.144 537.404,-881.228 546.747,-878.071"/>
<polygon fill="midnightblue" stroke="midnightblue" points="428.574,-978.217 425.94,-988.479 434.399,-982.1 428.574,-978.217"/>
</g>
<!-- Node3458 -->
<g id="node24" class="node"><title>Node3458</title>
<g id="a_node24"><a xlink:href="classokw_1_1_se_input_radio_1_1_se_input_radio___e_n___test.html#a864069c64cc340e4dc2a143d98067c71" target="_top" xlink:title="Test des Schlüsselwortes VerifyExists für den GUI&#45;Adapter SeInputRadio. ">
<polygon fill="white" stroke="black" points="545,-790.5 545,-831.5 701,-831.5 701,-790.5 545,-790.5"/>
<text text-anchor="start" x="553" y="-819.5" font-family="Helvetica,sans-Serif" font-size="10.00">okw.SeInputRadio.SeInput</text>
<text text-anchor="start" x="553" y="-808.5" font-family="Helvetica,sans-Serif" font-size="10.00">Radio_EN_Test.tc_VerifyExists</text>
<text text-anchor="middle" x="623" y="-797.5" font-family="Helvetica,sans-Serif" font-size="10.00">_ExsistsNOExpectedNO</text>
</a>
</g>
</g>
<!-- Node3437&#45;&gt;Node3458 -->
<g id="edge23" class="edge"><title>Node3437&#45;&gt;Node3458</title>
<path fill="none" stroke="midnightblue" d="M427.018,-978.695C440.079,-945.496 471.293,-877.633 520,-841 527.45,-835.397 535.929,-830.837 544.743,-827.127"/>
<polygon fill="midnightblue" stroke="midnightblue" points="423.697,-977.581 423.416,-988.173 430.24,-980.068 423.697,-977.581"/>
</g>
<!-- Node3459 -->
<g id="node25" class="node"><title>Node3459</title>
<g id="a_node25"><a xlink:href="classokw_1_1_se_input_radio_1_1_se_input_radio___e_n___test.html#a691960702300c79158a5be7e06026110" target="_top" xlink:title="Test des Schlüsselwortes VerifyExists für den GUI&#45;Adapter SeInputRadio. ">
<polygon fill="white" stroke="black" points="545,-730.5 545,-771.5 701,-771.5 701,-730.5 545,-730.5"/>
<text text-anchor="start" x="553" y="-759.5" font-family="Helvetica,sans-Serif" font-size="10.00">okw.SeInputRadio.SeInput</text>
<text text-anchor="start" x="553" y="-748.5" font-family="Helvetica,sans-Serif" font-size="10.00">Radio_EN_Test.tc_VerifyExists</text>
<text text-anchor="middle" x="623" y="-737.5" font-family="Helvetica,sans-Serif" font-size="10.00">_ExistsNOExpectedYES</text>
</a>
</g>
</g>
<!-- Node3437&#45;&gt;Node3459 -->
<g id="edge24" class="edge"><title>Node3437&#45;&gt;Node3459</title>
<path fill="none" stroke="midnightblue" d="M423.466,-978.081C431.944,-935.426 457.76,-834.77 520,-781 527.263,-774.725 535.784,-769.762 544.753,-765.836"/>
<polygon fill="midnightblue" stroke="midnightblue" points="420,-977.578 421.595,-988.052 426.88,-978.869 420,-977.578"/>
</g>
<!-- Node3460 -->
<g id="node26" class="node"><title>Node3460</title>
<g id="a_node26"><a xlink:href="classokw_1_1_se_input_radio_1_1_se_input_radio___e_n___test.html#a36dde073e7ea2aaa99cac15f1a72a237" target="_top" xlink:title="Test des Schlüsselwortes VerifyExists für den GUI&#45;Adapter SeInputRadio. ">
<polygon fill="white" stroke="black" points="545,-670.5 545,-711.5 701,-711.5 701,-670.5 545,-670.5"/>
<text text-anchor="start" x="553" y="-699.5" font-family="Helvetica,sans-Serif" font-size="10.00">okw.SeInputRadio.SeInput</text>
<text text-anchor="start" x="553" y="-688.5" font-family="Helvetica,sans-Serif" font-size="10.00">Radio_EN_Test.tc_VerifyExists</text>
<text text-anchor="middle" x="623" y="-677.5" font-family="Helvetica,sans-Serif" font-size="10.00">_ExistsYESExpectedNO</text>
</a>
</g>
</g>
<!-- Node3437&#45;&gt;Node3460 -->
<g id="edge25" class="edge"><title>Node3437&#45;&gt;Node3460</title>
<path fill="none" stroke="midnightblue" d="M421.208,-978.318C425.38,-927.898 443.499,-793.015 520,-721 527.191,-714.231 535.83,-708.981 545,-704.911"/>
<polygon fill="midnightblue" stroke="midnightblue" points="417.703,-978.265 420.466,-988.493 424.684,-978.774 417.703,-978.265"/>
</g>
<!-- Node3461 -->
<g id="node27" class="node"><title>Node3461</title>
<g id="a_node27"><a xlink:href="classokw_1_1_se_input_radio_1_1_se_input_radio___e_n___test.html#a5080b6f0c5fcac13a91b92561ac2bc08" target="_top" xlink:title="Test des Schlüsselwortes VerifyExists für den GUI&#45;Adapter SeInputRadio. ">
<polygon fill="white" stroke="black" points="545,-610.5 545,-651.5 701,-651.5 701,-610.5 545,-610.5"/>
<text text-anchor="start" x="553" y="-639.5" font-family="Helvetica,sans-Serif" font-size="10.00">okw.SeInputRadio.SeInput</text>
<text text-anchor="start" x="553" y="-628.5" font-family="Helvetica,sans-Serif" font-size="10.00">Radio_EN_Test.tc_VerifyExists</text>
<text text-anchor="middle" x="623" y="-617.5" font-family="Helvetica,sans-Serif" font-size="10.00">_ExistsYESExpectedYES</text>
</a>
</g>
</g>
<!-- Node3437&#45;&gt;Node3461 -->
<g id="edge26" class="edge"><title>Node3437&#45;&gt;Node3461</title>
<path fill="none" stroke="midnightblue" d="M419.737,-978.06C420.099,-920.348 429.255,-751.526 520,-661 527.057,-653.96 535.675,-648.556 544.881,-644.41"/>
<polygon fill="midnightblue" stroke="midnightblue" points="416.238,-978.353 419.764,-988.344 423.238,-978.335 416.238,-978.353"/>
</g>
<!-- Node3462 -->
<g id="node28" class="node"><title>Node3462</title>
<g id="a_node28"><a xlink:href="classokw_1_1_se_link_1_1_se_link___e_n___test.html#a1dad73224a73a01e6c896e96430a982f" target="_top" xlink:title="Prüft die Methode SeLink.MemorizeToolTip. ">
<polygon fill="white" stroke="black" points="554.5,-562 554.5,-592 691.5,-592 691.5,-562 554.5,-562"/>
<text text-anchor="start" x="562.5" y="-580" font-family="Helvetica,sans-Serif" font-size="10.00">okw.SeLink.SeLink_EN</text>
<text text-anchor="middle" x="623" y="-569" font-family="Helvetica,sans-Serif" font-size="10.00">_Test.TC_VerifyExists_NO</text>
</a>
</g>
</g>
<!-- Node3437&#45;&gt;Node3462 -->
<g id="edge27" class="edge"><title>Node3437&#45;&gt;Node3462</title>
<path fill="none" stroke="midnightblue" d="M422.268,-978.268C430.995,-905.758 464.71,-655.431 520,-601 529.399,-591.747 541.655,-585.81 554.396,-582.053"/>
<polygon fill="midnightblue" stroke="midnightblue" points="418.778,-977.98 421.082,-988.321 425.73,-978.8 418.778,-977.98"/>
</g>
<!-- Node3463 -->
<g id="node29" class="node"><title>Node3463</title>
<g id="a_node29"><a xlink:href="classokw_1_1_se_link_1_1_se_link___e_n___test.html#a6c80c87a06244c2f38eb3f95504c8622" target="_top" xlink:title="Prüft die Methode SeLink.VerifyExists. ">
<polygon fill="white" stroke="black" points="563,-502.5 563,-543.5 683,-543.5 683,-502.5 563,-502.5"/>
<text text-anchor="start" x="571" y="-531.5" font-family="Helvetica,sans-Serif" font-size="10.00">okw.SeLink.SeLink_EN</text>
<text text-anchor="start" x="571" y="-520.5" font-family="Helvetica,sans-Serif" font-size="10.00">_Test.TC_VerifyExists</text>
<text text-anchor="middle" x="623" y="-509.5" font-family="Helvetica,sans-Serif" font-size="10.00">_NO_YesObject</text>
</a>
</g>
</g>
<!-- Node3437&#45;&gt;Node3463 -->
<g id="edge28" class="edge"><title>Node3437&#45;&gt;Node3463</title>
<path fill="none" stroke="midnightblue" d="M421.823,-978.055C429.342,-900.025 460.39,-616.616 520,-553 531.233,-541.012 546.983,-533.734 562.753,-529.339"/>
<polygon fill="midnightblue" stroke="midnightblue" points="418.303,-978.107 420.85,-988.39 425.272,-978.762 418.303,-978.107"/>
</g>
<!-- Node3464 -->
<g id="node30" class="node"><title>Node3464</title>
<g id="a_node30"><a xlink:href="classokw_1_1_se_link_1_1_se_link___e_n___test.html#ac0895c8bd1e1aca4006c1072f68d6890" target="_top" xlink:title="Prüft die Methode SeLink.VerifyExists. ">
<polygon fill="white" stroke="black" points="552,-454 552,-484 694,-484 694,-454 552,-454"/>
<text text-anchor="start" x="560" y="-472" font-family="Helvetica,sans-Serif" font-size="10.00">okw.SeLink.SeLink_EN</text>
<text text-anchor="middle" x="623" y="-461" font-family="Helvetica,sans-Serif" font-size="10.00">_Test.TC_VerifyExists_YES</text>
</a>
</g>
</g>
<!-- Node3437&#45;&gt;Node3464 -->
<g id="edge29" class="edge"><title>Node3437&#45;&gt;Node3464</title>
<path fill="none" stroke="midnightblue" d="M421.124,-978.293C426.331,-893.976 450.873,-564.632 520,-493 528.653,-484.033 539.979,-478.146 551.927,-474.334"/>
<polygon fill="midnightblue" stroke="midnightblue" points="417.627,-978.127 420.526,-988.318 424.615,-978.544 417.627,-978.127"/>
</g>
<!-- Node3465 -->
<g id="node31" class="node"><title>Node3465</title>
<g id="a_node31"><a xlink:href="classokw_1_1_se_link_1_1_se_link___e_n___test.html#a1fad39475422a862685d82bc548203b8" target="_top" xlink:title="Prüft die Methode SeLink.VerifyExists. ">
<polygon fill="white" stroke="black" points="563,-394.5 563,-435.5 683,-435.5 683,-394.5 563,-394.5"/>
<text text-anchor="start" x="571" y="-423.5" font-family="Helvetica,sans-Serif" font-size="10.00">okw.SeLink.SeLink_EN</text>
<text text-anchor="start" x="571" y="-412.5" font-family="Helvetica,sans-Serif" font-size="10.00">_Test.TC_VerifyExists</text>
<text text-anchor="middle" x="623" y="-401.5" font-family="Helvetica,sans-Serif" font-size="10.00">_YES_NoObject</text>
</a>
</g>
</g>
<!-- Node3437&#45;&gt;Node3465 -->
<g id="edge30" class="edge"><title>Node3437&#45;&gt;Node3465</title>
<path fill="none" stroke="midnightblue" d="M420.864,-978.256C425.149,-889.277 446.925,-526.357 520,-445 531.101,-432.641 547.003,-425.264 562.959,-420.894"/>
<polygon fill="midnightblue" stroke="midnightblue" points="417.364,-978.18 420.399,-988.331 424.357,-978.504 417.364,-978.18"/>
</g>
<!-- Node3466 -->
<g id="node32" class="node"><title>Node3466</title>
<g id="a_node32"><a xlink:href="classokw_1_1_se_m_a_x_i_m_i_z_e_1_1_se_m_a_x_i_m_i_z_e___e_n___test.html#a42aa1e1f400c3e4eb6c5d0e6f2bbb1c7" target="_top" xlink:title="Test des Schlüsselwortes &quot;VerifyExists( FN, ExpVal ) für SeMAXIMIZE. ">
<polygon fill="white" stroke="black" points="529,-323 529,-375 717,-375 717,-323 529,-323"/>
<text text-anchor="start" x="537" y="-363" font-family="Helvetica,sans-Serif" font-size="10.00">okw.SeMAXIMIZE.SeMAXIMIZE</text>
<text text-anchor="start" x="537" y="-352" font-family="Helvetica,sans-Serif" font-size="10.00">_EN_Test.tcVerifyExists</text>
<text text-anchor="start" x="537" y="-341" font-family="Helvetica,sans-Serif" font-size="10.00">_ExistsYesExpectedNo_OKWVerifying</text>
<text text-anchor="middle" x="623" y="-330" font-family="Helvetica,sans-Serif" font-size="10.00">FailsException</text>
</a>
</g>
</g>
<!-- Node3437&#45;&gt;Node3466 -->
<g id="edge31" class="edge"><title>Node3437&#45;&gt;Node3466</title>
<path fill="none" stroke="midnightblue" d="M420.594,-978.055C423.806,-883.181 441.961,-478.291 520,-385 523.012,-381.399 526.409,-378.158 530.086,-375.241"/>
<polygon fill="midnightblue" stroke="midnightblue" points="417.089,-978.157 420.267,-988.264 424.086,-978.381 417.089,-978.157"/>
</g>
<!-- Node3467 -->
<g id="node33" class="node"><title>Node3467</title>
<g id="a_node33"><a xlink:href="classokw_1_1_se_m_a_x_i_m_i_z_e_1_1_se_m_a_x_i_m_i_z_e___e_n___test.html#a307e5f50f0c7dabbd0da823babc79a65" target="_top" xlink:title="Prüft ob das MAXIMIZE existiert. ">
<polygon fill="white" stroke="black" points="542,-262.5 542,-303.5 704,-303.5 704,-262.5 542,-262.5"/>
<text text-anchor="start" x="550" y="-291.5" font-family="Helvetica,sans-Serif" font-size="10.00">okw.SeMAXIMIZE.SeMAXIMIZE</text>
<text text-anchor="start" x="550" y="-280.5" font-family="Helvetica,sans-Serif" font-size="10.00">_EN_Test.tcVerifyExists</text>
<text text-anchor="middle" x="623" y="-269.5" font-family="Helvetica,sans-Serif" font-size="10.00">_ExistsYesExpectedYes</text>
</a>
</g>
</g>
<!-- Node3437&#45;&gt;Node3467 -->
<g id="edge32" class="edge"><title>Node3437&#45;&gt;Node3467</title>
<path fill="none" stroke="midnightblue" d="M420.136,-977.958C421.225,-876.181 431.069,-417.369 520,-314 526.035,-306.985 533.604,-301.527 541.877,-297.287"/>
<polygon fill="midnightblue" stroke="midnightblue" points="416.635,-978.063 420.045,-988.094 423.634,-978.125 416.635,-978.063"/>
</g>
<!-- Node3468 -->
<g id="node34" class="node"><title>Node3468</title>
<g id="a_node34"><a xlink:href="classokw_1_1_se_radio_list_1_1_se_radio_list___e_n___test.html#a5b5815df1ca3e8fb2c653c4d1c31b1cd" target="_top" xlink:title="Prüft die Methode SeRadioList.VerifyExists. ">
<polygon fill="white" stroke="black" points="549.5,-202.5 549.5,-243.5 696.5,-243.5 696.5,-202.5 549.5,-202.5"/>
<text text-anchor="start" x="557.5" y="-231.5" font-family="Helvetica,sans-Serif" font-size="10.00">okw.SeRadioList.SeRadioList</text>
<text text-anchor="start" x="557.5" y="-220.5" font-family="Helvetica,sans-Serif" font-size="10.00">_EN_Test.tcVerifyExists</text>
<text text-anchor="middle" x="623" y="-209.5" font-family="Helvetica,sans-Serif" font-size="10.00">_ExistsYesExpectedYes</text>
</a>
</g>
</g>
<!-- Node3437&#45;&gt;Node3468 -->
<g id="edge33" class="edge"><title>Node3437&#45;&gt;Node3468</title>
<path fill="none" stroke="midnightblue" d="M419.854,-978.209C419.468,-871.592 422.846,-366.241 520,-253 527.812,-243.894 538.233,-237.478 549.434,-232.973"/>
<polygon fill="midnightblue" stroke="midnightblue" points="416.354,-978.256 419.907,-988.237 423.354,-978.219 416.354,-978.256"/>
</g>
<!-- Node3469 -->
<g id="node35" class="node"><title>Node3469</title>
<g id="a_node35"><a xlink:href="classokw_1_1_se_radio_list_1_1_se_radio_list___e_n___test.html#a75ea555d32e9d7f44e3680079c203ad1" target="_top" xlink:title="Prüft die Methode SeRadioList.VerifyExists. ">
<polygon fill="white" stroke="black" points="549.5,-142.5 549.5,-183.5 696.5,-183.5 696.5,-142.5 549.5,-142.5"/>
<text text-anchor="start" x="557.5" y="-171.5" font-family="Helvetica,sans-Serif" font-size="10.00">okw.SeRadioList.SeRadioList</text>
<text text-anchor="start" x="557.5" y="-160.5" font-family="Helvetica,sans-Serif" font-size="10.00">_EN_Test.tcVerifyExists</text>
<text text-anchor="middle" x="623" y="-149.5" font-family="Helvetica,sans-Serif" font-size="10.00">_ExistsNoExpectedNo</text>
</a>
</g>
</g>
<!-- Node3437&#45;&gt;Node3469 -->
<g id="edge34" class="edge"><title>Node3437&#45;&gt;Node3469</title>
<path fill="none" stroke="midnightblue" d="M419.632,-978.049C417.974,-866.058 415.321,-316.233 520,-193 527.767,-183.856 538.166,-177.421 549.359,-172.909"/>
<polygon fill="midnightblue" stroke="midnightblue" points="416.136,-978.314 419.8,-988.255 423.135,-978.199 416.136,-978.314"/>
</g>
<!-- Node3470 -->
<g id="node36" class="node"><title>Node3470</title>
<g id="a_node36"><a xlink:href="classokw_1_1_se_radio_list_1_1_se_radio_list___e_n___test.html#a33e9bd8765498402d4c38f59a0bc1065" target="_top" xlink:title="Prüft die Methode SeRadioList.VerifyExists. ">
<polygon fill="white" stroke="black" points="529,-71 529,-123 717,-123 717,-71 529,-71"/>
<text text-anchor="start" x="537" y="-111" font-family="Helvetica,sans-Serif" font-size="10.00">okw.SeRadioList.SeRadioList</text>
<text text-anchor="start" x="537" y="-100" font-family="Helvetica,sans-Serif" font-size="10.00">_EN_Test.tcVerifyExists</text>
<text text-anchor="start" x="537" y="-89" font-family="Helvetica,sans-Serif" font-size="10.00">_ExistsYesExpectedNo_OKWVerifying</text>
<text text-anchor="middle" x="623" y="-78" font-family="Helvetica,sans-Serif" font-size="10.00">FailsException</text>
</a>
</g>
</g>
<!-- Node3437&#45;&gt;Node3470 -->
<g id="edge35" class="edge"><title>Node3437&#45;&gt;Node3470</title>
<path fill="none" stroke="midnightblue" d="M421.05,-978.066C427.693,-854.989 465.378,-201.479 520,-133 522.927,-129.33 526.256,-126.033 529.879,-123.072"/>
<polygon fill="midnightblue" stroke="midnightblue" points="417.542,-978.111 420.504,-988.283 424.532,-978.484 417.542,-978.111"/>
</g>
<!-- Node3471 -->
<g id="node37" class="node"><title>Node3471</title>
<g id="a_node37"><a xlink:href="classokw_1_1_se_radio_list_1_1_se_radio_list___e_n___test.html#ad99e281a6a6b207d5404f07842d08115" target="_top" xlink:title="Prüft die Methode SeRadioList.VerifyExists. ">
<polygon fill="white" stroke="black" points="529,-0 529,-52 717,-52 717,-0 529,-0"/>
<text text-anchor="start" x="537" y="-40" font-family="Helvetica,sans-Serif" font-size="10.00">okw.SeRadioList.SeRadioList</text>
<text text-anchor="start" x="537" y="-29" font-family="Helvetica,sans-Serif" font-size="10.00">_EN_Test.tcVerifyExists</text>
<text text-anchor="start" x="537" y="-18" font-family="Helvetica,sans-Serif" font-size="10.00">_ExistsNoExpectedYes_OKWVerifying</text>
<text text-anchor="middle" x="623" y="-7" font-family="Helvetica,sans-Serif" font-size="10.00">FailsException</text>
</a>
</g>
</g>
<!-- Node3437&#45;&gt;Node3471 -->
<g id="edge36" class="edge"><title>Node3437&#45;&gt;Node3471</title>
<path fill="none" stroke="midnightblue" d="M420.867,-978.061C426.632,-849.159 461.03,-136.592 520,-62 522.912,-58.3172 526.227,-55.0103 529.84,-52.0411"/>
<polygon fill="midnightblue" stroke="midnightblue" points="417.355,-978.245 420.41,-988.39 424.348,-978.554 417.355,-978.245"/>
</g>
</g>
</svg>
        <g id="navigator" transform="translate(0 0)" fill="#404254">
                <rect fill="#f2f5e9" fill-opacity="0.5" stroke="#606060" stroke-width=".5" x="0" y="0" width="60" height="60"/>
                <use id="zoomplus" xlink:href="#zoomPlus" x="17" y="9" onmousedown="handleZoom(evt,'in')"/>
                <use id="zoomminus" xlink:href="#zoomMin" x="42" y="9" onmousedown="handleZoom(evt,'out')"/>
                <use id="reset" xlink:href="#resetDef" x="30" y="36" onmousedown="handleReset()"/>
                <g id="arrowUp" xlink:href="#dirArrow" transform="translate(30 24)" onmousedown="handlePan(0,-1)">
                  <use xlink:href="#rim" fill="#404040">
                        <set attributeName="fill" to="#808080" begin="arrowUp.mouseover" end="arrowUp.mouseout"/>
                  </use>
                  <path fill="none" stroke="white" stroke-width="1.5" d="M0,-3.0v7 M-2.5,-0.5L0,-3.0L2.5,-0.5"/>
                </g>
                <g id="arrowRight" xlink:href="#dirArrow" transform="rotate(90) translate(36 -43)" onmousedown="handlePan(1,0)">
                  <use xlink:href="#rim" fill="#404040">
                        <set attributeName="fill" to="#808080" begin="arrowRight.mouseover" end="arrowRight.mouseout"/>
                  </use>
                  <path fill="none" stroke="white" stroke-width="1.5" d="M0,-3.0v7 M-2.5,-0.5L0,-3.0L2.5,-0.5"/>
                </g>
                <g id="arrowDown" xlink:href="#dirArrow" transform="rotate(180) translate(-30 -48)" onmousedown="handlePan(0,1)">
                  <use xlink:href="#rim" fill="#404040">
                        <set attributeName="fill" to="#808080" begin="arrowDown.mouseover" end="arrowDown.mouseout"/>
                  </use>
                  <path fill="none" stroke="white" stroke-width="1.5" d="M0,-3.0v7 M-2.5,-0.5L0,-3.0L2.5,-0.5"/>
                </g>
                <g id="arrowLeft" xlink:href="#dirArrow" transform="rotate(270) translate(-36 17)" onmousedown="handlePan(-1,0)">
                  <use xlink:href="#rim" fill="#404040">
                        <set attributeName="fill" to="#808080" begin="arrowLeft.mouseover" end="arrowLeft.mouseout"/>
                  </use>
                  <path fill="none" stroke="white" stroke-width="1.5" d="M0,-3.0v7 M-2.5,-0.5L0,-3.0L2.5,-0.5"/>
                </g>
        </g>
        <svg viewBox="0 0 15 15" width="100%" height="30px" preserveAspectRatio="xMaxYMin meet">
         <g id="arrow_out" transform="scale(0.3 0.3)">
          <a xlink:href="interfaceokw_1_1core_1_1_i_o_k_w___state_aac781d7e7b1f3ea4ca2d138733f7f2f6_icgraph_org.svg" target="_base">
           <rect id="button" ry="5" rx="5" y="6" x="6" height="38" width="38"
                fill="#f2f5e9" fill-opacity="0.5" stroke="#606060" stroke-width="1.0"/>
           <path id="arrow"
             d="M 11.500037,31.436501 C 11.940474,20.09759 22.043105,11.32322 32.158766,21.979434 L 37.068811,17.246167 C 37.068811,17.246167 37.088388,32 37.088388,32 L 22.160133,31.978069 C 22.160133,31.978069 26.997745,27.140456 26.997745,27.140456 C 18.528582,18.264221 13.291696,25.230495 11.500037,31.436501 z"
             style="fill:#404040;"/>
          </a>
         </g>
        </svg>
</svg>
