<?xml version="1.0" encoding="UTF-8" standalone="no"?>
<!DOCTYPE svg PUBLIC "-//W3C//DTD SVG 1.1//EN"
 "http://www.w3.org/Graphics/SVG/1.1/DTD/svg11.dtd">
<!-- Generated by graphviz version 2.26.3 (20100126.1600)
 -->
<!-- Title: okw.core.IOKW_State.ClickOn Pages: 1 -->
<svg width="486pt" height="134pt"
 viewBox="0.00 0.00 486.00 134.00" xmlns="http://www.w3.org/2000/svg" xmlns:xlink="http://www.w3.org/1999/xlink">
<g id="graph1" class="graph" transform="scale(1 1) rotate(0) translate(4 130)">
<title>okw.core.IOKW_State.ClickOn</title>
<polygon fill="white" stroke="white" points="-4,5 -4,-130 483,-130 483,5 -4,5"/>
<!-- Node5 -->
<g id="node1" class="node"><title>Node5</title>
<polygon fill="#bfbfbf" stroke="black" points="0.5,-58.5 0.5,-79.5 153.5,-79.5 153.5,-58.5 0.5,-58.5"/>
<text text-anchor="middle" x="77" y="-66.5" font-family="Helvetica,sans-Serif" font-size="10.00">okw.core.IOKW_State.ClickOn</text>
</g>
<!-- Node6 -->
<g id="node3" class="node"><title>Node6</title>
<a xlink:href="classokw_1_1core_1_1_core.html#a3e601b16ed5c18b3daa279cf61044504" target="_top" xlink:title="Klickt auf das gegebene Objekt. ">
<polygon fill="white" stroke="black" points="190.5,-58.5 190.5,-79.5 309.5,-79.5 309.5,-58.5 190.5,-58.5"/>
<text text-anchor="middle" x="250" y="-66.5" font-family="Helvetica,sans-Serif" font-size="10.00">okw.core.Core.ClickOn</text>
</a>
</g>
<!-- Node5&#45;&gt;Node6 -->
<g id="edge2" class="edge"><title>Node5&#45;&gt;Node6</title>
<path fill="none" stroke="midnightblue" d="M163.759,-69C172.741,-69 181.72,-69 190.308,-69"/>
<polygon fill="midnightblue" stroke="midnightblue" points="163.636,-65.5001 153.636,-69 163.636,-72.5001 163.636,-65.5001"/>
</g>
<!-- Node7 -->
<g id="node5" class="node"><title>Node7</title>
<a xlink:href="classokw_1_1core_1_1_e_n.html#aa0ea62b29e5e216241a5b757797f83bf" target="_top" xlink:title="Klickt auf das gegebene Objekt. ">
<polygon fill="white" stroke="black" points="356,-104.5 356,-125.5 468,-125.5 468,-104.5 356,-104.5"/>
<text text-anchor="middle" x="412" y="-112.5" font-family="Helvetica,sans-Serif" font-size="10.00">okw.core.EN.ClickOn</text>
</a>
</g>
<!-- Node6&#45;&gt;Node7 -->
<g id="edge4" class="edge"><title>Node6&#45;&gt;Node7</title>
<path fill="none" stroke="midnightblue" d="M297.094,-82.3723C321.902,-89.4166 351.888,-97.9312 375.007,-104.496"/>
<polygon fill="midnightblue" stroke="midnightblue" points="297.742,-78.918 287.166,-79.5533 295.83,-85.6518 297.742,-78.918"/>
</g>
<!-- Node8 -->
<g id="node7" class="node"><title>Node8</title>
<a xlink:href="classokw_1_1gui_1_1adapter_1_1selenium_1_1_se_input_radio.html#a7dce83be09a4af05f50b0e74aa9d27f7" target="_top" xlink:title="Ein SeInputButton IstkeinMenüobject! &#45;&gt; OKWFrameObjectMethodNotImplemented Auslösen! ...">
<polygon fill="white" stroke="black" points="346.5,-52 346.5,-86 477.5,-86 477.5,-52 346.5,-52"/>
<text text-anchor="start" x="354.5" y="-73" font-family="Helvetica,sans-Serif" font-size="10.00">okw.gui.adapter.selenium.</text>
<text text-anchor="middle" x="412" y="-60" font-family="Helvetica,sans-Serif" font-size="10.00">SeInputRadio.SetValue</text>
</a>
</g>
<!-- Node6&#45;&gt;Node8 -->
<g id="edge6" class="edge"><title>Node6&#45;&gt;Node8</title>
<path fill="none" stroke="midnightblue" d="M320.031,-69C328.783,-69 337.709,-69 346.389,-69"/>
<polygon fill="midnightblue" stroke="midnightblue" points="319.863,-65.5001 309.863,-69 319.863,-72.5001 319.863,-65.5001"/>
</g>
<!-- Node9 -->
<g id="node9" class="node"><title>Node9</title>
<a xlink:href="classokw_1_1gui_1_1adapter_1_1selenium_1_1_se_radio_list.html#a793c9fd7670b1d77ee48996f7b287807" target="_top" xlink:title="okw.gui.adapter.selenium.\lSeRadioList.SeRadioList">
<polygon fill="white" stroke="black" points="346.5,-0 346.5,-34 477.5,-34 477.5,-0 346.5,-0"/>
<text text-anchor="start" x="354.5" y="-21" font-family="Helvetica,sans-Serif" font-size="10.00">okw.gui.adapter.selenium.</text>
<text text-anchor="middle" x="412" y="-8" font-family="Helvetica,sans-Serif" font-size="10.00">SeRadioList.SeRadioList</text>
</a>
</g>
<!-- Node6&#45;&gt;Node9 -->
<g id="edge8" class="edge"><title>Node6&#45;&gt;Node9</title>
<path fill="none" stroke="midnightblue" d="M292.392,-55.3927C312.723,-48.8667 337.29,-40.981 358.857,-34.0582"/>
<polygon fill="midnightblue" stroke="midnightblue" points="291.235,-52.0881 282.783,-58.477 293.374,-58.7532 291.235,-52.0881"/>
</g>
</g>
</svg>
