<?xml version="1.0" encoding="UTF-8" standalone="no"?>
<!DOCTYPE svg PUBLIC "-//W3C//DTD SVG 1.1//EN"
 "http://www.w3.org/Graphics/SVG/1.1/DTD/svg11.dtd">
<!-- Generated by graphviz version 2.36.0 (20140111.2315)
 -->
<!-- Title: okw.core.IOKW_State.LogPlaceholder Pages: 1 -->
<svg width="808pt" height="239pt"
 viewBox="0.00 0.00 808.00 239.00" xmlns="http://www.w3.org/2000/svg" xmlns:xlink="http://www.w3.org/1999/xlink">
<g id="graph0" class="graph" transform="scale(1 1) rotate(0) translate(4 235)">
<title>okw.core.IOKW_State.LogPlaceholder</title>
<polygon fill="white" stroke="none" points="-4,4 -4,-235 804,-235 804,4 -4,4"/>
<!-- Node947 -->
<g id="node1" class="node"><title>Node947</title>
<polygon fill="#bfbfbf" stroke="black" points="0.5,-69.5 0.5,-88.5 185.5,-88.5 185.5,-69.5 0.5,-69.5"/>
<text text-anchor="middle" x="93" y="-76.5" font-family="Helvetica,sans-Serif" font-size="10.00">okw.core.IOKW_State.LogPlaceholder</text>
</g>
<!-- Node948 -->
<g id="node2" class="node"><title>Node948</title>
<g id="a_node2"><a xlink:href="classokw_1_1core_1_1_core.html#ab6f01d1c8bf15af8c993fe11acc58d59" target="_top" xlink:title="Gibt den Wert des Platzhalters in der Logdatei aus. ">
<polygon fill="white" stroke="black" points="222,-69.5 222,-88.5 372,-88.5 372,-69.5 222,-69.5"/>
<text text-anchor="middle" x="297" y="-76.5" font-family="Helvetica,sans-Serif" font-size="10.00">okw.core.Core.LogPlaceholder</text>
</a>
</g>
</g>
<!-- Node947&#45;&gt;Node948 -->
<g id="edge1" class="edge"><title>Node947&#45;&gt;Node948</title>
<path fill="none" stroke="midnightblue" d="M195.788,-79C204.526,-79 213.255,-79 221.715,-79"/>
<polygon fill="midnightblue" stroke="midnightblue" points="195.544,-75.5001 185.544,-79 195.544,-82.5001 195.544,-75.5001"/>
</g>
<!-- Node949 -->
<g id="node3" class="node"><title>Node949</title>
<g id="a_node3"><a xlink:href="classokw_1_1core_1_1_e_n.html#a844eabbae811d794a7a7af0ef4335340" target="_top" xlink:title="Gibt den Wert des Platzhalters in der Logdatei aus. ">
<polygon fill="white" stroke="black" points="408.5,-94.5 408.5,-113.5 551.5,-113.5 551.5,-94.5 408.5,-94.5"/>
<text text-anchor="middle" x="480" y="-101.5" font-family="Helvetica,sans-Serif" font-size="10.00">okw.core.EN.LogPlaceholder</text>
</a>
</g>
</g>
<!-- Node948&#45;&gt;Node949 -->
<g id="edge2" class="edge"><title>Node948&#45;&gt;Node949</title>
<path fill="none" stroke="midnightblue" d="M376.952,-89.905C387.94,-91.4227 399.16,-92.9723 409.947,-94.4623"/>
<polygon fill="midnightblue" stroke="midnightblue" points="377.33,-86.424 366.945,-88.5227 376.372,-93.3581 377.33,-86.424"/>
</g>
<!-- Node954 -->
<g id="node8" class="node"><title>Node954</title>
<g id="a_node8"><a xlink:href="classokw_1_1core_1_1_current_object___test.html#a7612d5c86296d54b1122346fd1117e8c" target="_top" xlink:title="Testziel: Prüft den Aufruf der Methode LogPlaceholder( &quot;FN&quot; ) im ChildObject. ">
<polygon fill="white" stroke="black" points="417.5,-34.5 417.5,-75.5 542.5,-75.5 542.5,-34.5 417.5,-34.5"/>
<text text-anchor="start" x="425.5" y="-63.5" font-family="Helvetica,sans-Serif" font-size="10.00">okw.core.CurrentObject</text>
<text text-anchor="start" x="425.5" y="-52.5" font-family="Helvetica,sans-Serif" font-size="10.00">_Test.tc_LogPlaceholder</text>
<text text-anchor="middle" x="480" y="-41.5" font-family="Helvetica,sans-Serif" font-size="10.00">_ChildObject</text>
</a>
</g>
</g>
<!-- Node948&#45;&gt;Node954 -->
<g id="edge7" class="edge"><title>Node948&#45;&gt;Node954</title>
<path fill="none" stroke="midnightblue" d="M379.813,-68.1519C392.387,-66.4846 405.186,-64.7875 417.229,-63.1907"/>
<polygon fill="midnightblue" stroke="midnightblue" points="379.249,-64.6959 369.796,-69.4801 380.169,-71.6352 379.249,-64.6959"/>
</g>
<!-- Node950 -->
<g id="node4" class="node"><title>Node950</title>
<g id="a_node4"><a xlink:href="classokw_1_1core_1_1_e_n___o_k_w_frame_object_child_not_found_exception___test.html#acdc4712f5ffcc5aeb5e5e2458ff4546d" target="_top" xlink:title="Prüft ob die Ausnahme OKWFrameObjectChildNotFoundException durch LogPlaceholder ausgelöst wird...">
<polygon fill="white" stroke="black" points="588.5,-179 588.5,-231 799.5,-231 799.5,-179 588.5,-179"/>
<text text-anchor="start" x="596.5" y="-219" font-family="Helvetica,sans-Serif" font-size="10.00">okw.core.EN_OKWFrameObject</text>
<text text-anchor="start" x="596.5" y="-208" font-family="Helvetica,sans-Serif" font-size="10.00">ChildNotFoundException</text>
<text text-anchor="start" x="596.5" y="-197" font-family="Helvetica,sans-Serif" font-size="10.00">_Test.TC_LogPlaceholder</text>
<text text-anchor="middle" x="694" y="-186" font-family="Helvetica,sans-Serif" font-size="10.00">_OKWFrameObjectChildNotFoundException</text>
</a>
</g>
</g>
<!-- Node949&#45;&gt;Node950 -->
<g id="edge3" class="edge"><title>Node949&#45;&gt;Node950</title>
<path fill="none" stroke="midnightblue" d="M503.2,-119.442C524.31,-133.645 557.31,-154.623 588,-169 595.417,-172.474 603.265,-175.787 611.196,-178.897"/>
<polygon fill="midnightblue" stroke="midnightblue" points="504.891,-116.359 494.655,-113.625 500.952,-122.145 504.891,-116.359"/>
</g>
<!-- Node951 -->
<g id="node5" class="node"><title>Node951</title>
<g id="a_node5"><a xlink:href="classokw_1_1core_1_1_e_n___o_k_w_frame_object_method_not_implemented___test.html#a9030c505c8d7af535530c31fb0bffbfe" target="_top" xlink:title="Prüft ob die Ausnahme OKWFrameObjectMethodNotImplemented von LogPlaceholder( FN ) ausgelöst wird...">
<polygon fill="white" stroke="black" points="591,-108 591,-160 797,-160 797,-108 591,-108"/>
<text text-anchor="start" x="599" y="-148" font-family="Helvetica,sans-Serif" font-size="10.00">okw.core.EN_OKWFrameObject</text>
<text text-anchor="start" x="599" y="-137" font-family="Helvetica,sans-Serif" font-size="10.00">MethodNotImplemented_Test.tc</text>
<text text-anchor="start" x="599" y="-126" font-family="Helvetica,sans-Serif" font-size="10.00">_LogPlaceholder_OKWFrameObjectMethod</text>
<text text-anchor="middle" x="694" y="-115" font-family="Helvetica,sans-Serif" font-size="10.00">NotImplemented</text>
</a>
</g>
</g>
<!-- Node949&#45;&gt;Node951 -->
<g id="edge4" class="edge"><title>Node949&#45;&gt;Node951</title>
<path fill="none" stroke="midnightblue" d="M558.393,-114.952C568.995,-116.452 580.01,-118.011 590.968,-119.562"/>
<polygon fill="midnightblue" stroke="midnightblue" points="558.761,-111.469 548.369,-113.533 557.78,-118.4 558.761,-111.469"/>
</g>
<!-- Node952 -->
<g id="node6" class="node"><title>Node952</title>
<g id="a_node6"><a xlink:href="classokw_1_1_se_input_field_1_1_se_input_field___e_n___test.html#a67ca223a87eb755e98f5eabe69bb9005" target="_top" xlink:title="Teste das Schlüsselwort LogPlaceholder( FN ) eines SeInputText Prüfen. ">
<polygon fill="white" stroke="black" points="614,-59 614,-89 774,-89 774,-59 614,-59"/>
<text text-anchor="start" x="622" y="-77" font-family="Helvetica,sans-Serif" font-size="10.00">okw.SeInputField.SeInput</text>
<text text-anchor="middle" x="694" y="-66" font-family="Helvetica,sans-Serif" font-size="10.00">Field_EN_Test.tcLogPlaceholder</text>
</a>
</g>
</g>
<!-- Node949&#45;&gt;Node952 -->
<g id="edge5" class="edge"><title>Node949&#45;&gt;Node952</title>
<path fill="none" stroke="midnightblue" d="M558.299,-93.0615C576.423,-90.4967 595.758,-87.7606 613.958,-85.1852"/>
<polygon fill="midnightblue" stroke="midnightblue" points="557.78,-89.5999 548.369,-94.4666 558.761,-96.5308 557.78,-89.5999"/>
</g>
<!-- Node953 -->
<g id="node7" class="node"><title>Node953</title>
<g id="a_node7"><a xlink:href="classokw_1_1_se_input_field_1_1_se_input_field___e_n___test.html#a27d58cefa1bfc6754c9183baf8d6a41b" target="_top" xlink:title="okw.SeInputField.SeInput\lField_EN_Test.tcSelect\l_OKWGUIObjectNotFoundException">
<polygon fill="white" stroke="black" points="604.5,0.5 604.5,-40.5 783.5,-40.5 783.5,0.5 604.5,0.5"/>
<text text-anchor="start" x="612.5" y="-28.5" font-family="Helvetica,sans-Serif" font-size="10.00">okw.SeInputField.SeInput</text>
<text text-anchor="start" x="612.5" y="-17.5" font-family="Helvetica,sans-Serif" font-size="10.00">Field_EN_Test.tcSelect</text>
<text text-anchor="middle" x="694" y="-6.5" font-family="Helvetica,sans-Serif" font-size="10.00">_OKWGUIObjectNotFoundException</text>
</a>
</g>
</g>
<!-- Node949&#45;&gt;Node953 -->
<g id="edge6" class="edge"><title>Node949&#45;&gt;Node953</title>
<path fill="none" stroke="midnightblue" d="M536.9,-91.0711C542.146,-89.0281 547.265,-86.684 552,-84 571.146,-73.1469 568.875,-60.8888 588,-50 594.178,-46.4825 600.8,-43.3517 607.602,-40.5699"/>
<polygon fill="midnightblue" stroke="midnightblue" points="535.641,-87.8035 527.376,-94.4317 537.971,-94.4046 535.641,-87.8035"/>
</g>
</g>
</svg>
