<?xml version="1.0" encoding="UTF-8" standalone="no"?>
<!DOCTYPE svg PUBLIC "-//W3C//DTD SVG 1.1//EN"
 "http://www.w3.org/Graphics/SVG/1.1/DTD/svg11.dtd">
<!-- Generated by graphviz version 2.36.0 (20140111.2315)
 -->
<!-- Title: okw.core.IOKW_State.LogLabel Pages: 1 -->
<!--zoomable 315 -->
<svg id="main" version="1.1" xmlns="http://www.w3.org/2000/svg" xmlns:xlink="http://www.w3.org/1999/xlink" xml:space="preserve" onload="init(evt)">
<style type="text/css"><![CDATA[
.edge:hover path { stroke: red; }
.edge:hover polygon { stroke: red; fill: red; }
]]></style>
<script type="text/javascript"><![CDATA[
var edges = document.getElementsByTagName('g');
if (edges && edges.length) {
  for (var i=0;i<edges.length;i++) {
    if (edges[i].id.substr(0,4)=='edge') {
      edges[i].setAttribute('class','edge');
    }
  }
}
]]></script>
        <defs>
                <circle id="rim" cx="0" cy="0" r="7"/>
                <circle id="rim2" cx="0" cy="0" r="3.5"/>
                <g id="zoomPlus">
                        <use xlink:href="#rim" fill="#404040">
                                <set attributeName="fill" to="#808080" begin="zoomplus.mouseover" end="zoomplus.mouseout"/>
                        </use>
                        <path d="M-4,0h8M0,-4v8" fill="none" stroke="white" stroke-width="1.5" pointer-events="none"/>
                </g>
                <g id="zoomMin">
                        <use xlink:href="#rim" fill="#404040">
                                <set attributeName="fill" to="#808080" begin="zoomminus.mouseover" end="zoomminus.mouseout"/>
                        </use>
                        <path d="M-4,0h8" fill="none" stroke="white" stroke-width="1.5" pointer-events="none"/>
                </g>
                <g id="dirArrow">
                        <path fill="none" stroke="white" stroke-width="1.5" d="M0,-3.0v7 M-2.5,-0.5L0,-3.0L2.5,-0.5"/>
                </g>
               <g id="resetDef">
                       <use xlink:href="#rim2" fill="#404040">
                               <set attributeName="fill" to="#808080" begin="reset.mouseover" end="reset.mouseout"/>
                       </use>
               </g>
        </defs>

<script type="text/javascript">
var viewWidth = 748;
var viewHeight = 315;
var sectionId = 'dynsection-12';
</script>
<script xlink:href="svgpan.js"/>
<svg id="graph" class="graph">
<g id="viewport">
<title>okw.core.IOKW_State.LogLabel</title>
<polygon fill="white" stroke="none" points="-4,4 -4,-311 744,-311 744,4 -4,4"/>
<!-- Node811 -->
<g id="node1" class="node"><title>Node811</title>
<polygon fill="#bfbfbf" stroke="black" points="0.5,-124.5 0.5,-143.5 157.5,-143.5 157.5,-124.5 0.5,-124.5"/>
<text text-anchor="middle" x="79" y="-131.5" font-family="Helvetica,sans-Serif" font-size="10.00">okw.core.IOKW_State.LogLabel</text>
</g>
<!-- Node812 -->
<g id="node2" class="node"><title>Node812</title>
<g id="a_node2"><a xlink:href="classokw_1_1core_1_1_core.html#a6d1157e91ec02c1f765d015ed03428b6" target="_top" xlink:title="Keine Beschreibung zu &quot;LogLabel&quot; verfügbar. ">
<polygon fill="white" stroke="black" points="194,-124.5 194,-143.5 316,-143.5 316,-124.5 194,-124.5"/>
<text text-anchor="middle" x="255" y="-131.5" font-family="Helvetica,sans-Serif" font-size="10.00">okw.core.Core.LogLabel</text>
</a>
</g>
</g>
<!-- Node811&#45;&gt;Node812 -->
<g id="edge1" class="edge"><title>Node811&#45;&gt;Node812</title>
<path fill="none" stroke="midnightblue" d="M167.869,-134C176.643,-134 185.405,-134 193.798,-134"/>
<polygon fill="midnightblue" stroke="midnightblue" points="167.586,-130.5 157.586,-134 167.586,-137.5 167.586,-130.5"/>
</g>
<!-- Node813 -->
<g id="node3" class="node"><title>Node813</title>
<g id="a_node3"><a xlink:href="classokw_1_1core_1_1_e_n.html#a5fcf39338e18d9d03d75197bc6b4ace2" target="_top" xlink:title="Keine Beschreibung zu &quot;LogLabel&quot; verfügbar. ">
<polygon fill="white" stroke="black" points="371,-146.5 371,-165.5 487,-165.5 487,-146.5 371,-146.5"/>
<text text-anchor="middle" x="429" y="-153.5" font-family="Helvetica,sans-Serif" font-size="10.00">okw.core.EN.LogLabel</text>
</a>
</g>
</g>
<!-- Node812&#45;&gt;Node813 -->
<g id="edge2" class="edge"><title>Node812&#45;&gt;Node813</title>
<path fill="none" stroke="midnightblue" d="M326.277,-142.989C341.076,-144.882 356.517,-146.857 370.768,-148.68"/>
<polygon fill="midnightblue" stroke="midnightblue" points="326.521,-139.492 316.157,-141.695 325.632,-146.435 326.521,-139.492"/>
</g>
<!-- Node820 -->
<g id="node10" class="node"><title>Node820</title>
<g id="a_node10"><a xlink:href="classokw_1_1core_1_1_current_object___test.html#a9da72c22aaec65c3c7fe8478dc8cce23" target="_top" xlink:title="Testziel: Prüft den Aufruf der Methode LogCaption( &quot;FN&quot; ) im ChildObject. ">
<polygon fill="white" stroke="black" points="352.5,-97 352.5,-127 505.5,-127 505.5,-97 352.5,-97"/>
<text text-anchor="start" x="360.5" y="-115" font-family="Helvetica,sans-Serif" font-size="10.00">okw.core.CurrentObject</text>
<text text-anchor="middle" x="429" y="-104" font-family="Helvetica,sans-Serif" font-size="10.00">_Test.tc_LogLabel_ChildObject</text>
</a>
</g>
</g>
<!-- Node812&#45;&gt;Node820 -->
<g id="edge9" class="edge"><title>Node812&#45;&gt;Node820</title>
<path fill="none" stroke="midnightblue" d="M326.193,-125.022C334.847,-123.915 343.723,-122.78 352.453,-121.663"/>
<polygon fill="midnightblue" stroke="midnightblue" points="325.632,-121.565 316.157,-126.305 326.521,-128.508 325.632,-121.565"/>
</g>
<!-- Node814 -->
<g id="node4" class="node"><title>Node814</title>
<g id="a_node4"><a xlink:href="classokw_1_1_se_b_a_c_k_1_1_se_b_a_c_k___e_n___test.html#a9122f4322cd6edce8b00bb21ae93025f" target="_top" xlink:title="Teste das Schlüsselwort LogLabel( FN ) eines SeBACK Prüfen. ">
<polygon fill="white" stroke="black" points="552.5,-265.5 552.5,-306.5 729.5,-306.5 729.5,-265.5 552.5,-265.5"/>
<text text-anchor="start" x="560.5" y="-294.5" font-family="Helvetica,sans-Serif" font-size="10.00">okw.SeBACK.SeBACK_EN</text>
<text text-anchor="start" x="560.5" y="-283.5" font-family="Helvetica,sans-Serif" font-size="10.00">_Test.tcLogLabel_OKWFrameObject</text>
<text text-anchor="middle" x="641" y="-272.5" font-family="Helvetica,sans-Serif" font-size="10.00">MethodNotImplemented</text>
</a>
</g>
</g>
<!-- Node813&#45;&gt;Node814 -->
<g id="edge3" class="edge"><title>Node813&#45;&gt;Node814</title>
<path fill="none" stroke="midnightblue" d="M445.018,-173.434C465.029,-195.632 502.527,-233.767 542,-256 548.201,-259.493 554.857,-262.627 561.674,-265.428"/>
<polygon fill="midnightblue" stroke="midnightblue" points="447.486,-170.941 438.237,-165.773 442.244,-175.58 447.486,-170.941"/>
</g>
<!-- Node815 -->
<g id="node5" class="node"><title>Node815</title>
<g id="a_node5"><a xlink:href="classokw_1_1_se_input_checkbox_1_1_se_input_checkbox___e_n___test.html#ad572d5badb79741c496835cbb5c2d6df" target="_top" xlink:title="Prüft die SetFocusFunktion bei Textfelder mit dem Attribute &quot;ReadOnly&quot;. ">
<polygon fill="white" stroke="black" points="562,-217 562,-247 720,-247 720,-217 562,-217"/>
<text text-anchor="start" x="570" y="-235" font-family="Helvetica,sans-Serif" font-size="10.00">okw.SeInputCheckbox.SeInput</text>
<text text-anchor="middle" x="641" y="-224" font-family="Helvetica,sans-Serif" font-size="10.00">Checkbox_EN_Test.tcSetFocus</text>
</a>
</g>
</g>
<!-- Node813&#45;&gt;Node815 -->
<g id="edge4" class="edge"><title>Node813&#45;&gt;Node815</title>
<path fill="none" stroke="midnightblue" d="M457.413,-170.142C479.748,-181.257 512.332,-196.554 542,-207 552.351,-210.645 563.49,-214 574.413,-216.99"/>
<polygon fill="midnightblue" stroke="midnightblue" points="458.719,-166.882 448.213,-165.512 455.572,-173.134 458.719,-166.882"/>
</g>
<!-- Node816 -->
<g id="node6" class="node"><title>Node816</title>
<g id="a_node6"><a xlink:href="classokw_1_1_se_input_field_1_1_se_input_field___e_n___test.html#a3a35fd036036c4b9999372dfa8a72d58" target="_top" xlink:title="Teste das Schlüsselwort LogLabel( FN ) eines SeInputText Prüfen. ">
<polygon fill="white" stroke="black" points="575,-168 575,-198 707,-198 707,-168 575,-168"/>
<text text-anchor="start" x="583" y="-186" font-family="Helvetica,sans-Serif" font-size="10.00">okw.SeInputField.SeInput</text>
<text text-anchor="middle" x="641" y="-175" font-family="Helvetica,sans-Serif" font-size="10.00">Field_EN_Test.tcLogLabel</text>
</a>
</g>
</g>
<!-- Node813&#45;&gt;Node816 -->
<g id="edge5" class="edge"><title>Node813&#45;&gt;Node816</title>
<path fill="none" stroke="midnightblue" d="M497.166,-164.636C521.995,-167.828 550.083,-171.439 574.741,-174.61"/>
<polygon fill="midnightblue" stroke="midnightblue" points="497.471,-161.146 487.106,-163.342 496.578,-168.089 497.471,-161.146"/>
</g>
<!-- Node817 -->
<g id="node7" class="node"><title>Node817</title>
<g id="a_node7"><a xlink:href="classokw_1_1_se_input_field_1_1_se_input_field___e_n___test.html#a27d58cefa1bfc6754c9183baf8d6a41b" target="_top" xlink:title="okw.SeInputField.SeInput\lField_EN_Test.tcSelect\l_OKWGUIObjectNotFoundException">
<polygon fill="white" stroke="black" points="551.5,-108.5 551.5,-149.5 730.5,-149.5 730.5,-108.5 551.5,-108.5"/>
<text text-anchor="start" x="559.5" y="-137.5" font-family="Helvetica,sans-Serif" font-size="10.00">okw.SeInputField.SeInput</text>
<text text-anchor="start" x="559.5" y="-126.5" font-family="Helvetica,sans-Serif" font-size="10.00">Field_EN_Test.tcSelect</text>
<text text-anchor="middle" x="641" y="-115.5" font-family="Helvetica,sans-Serif" font-size="10.00">_OKWGUIObjectNotFoundException</text>
</a>
</g>
</g>
<!-- Node813&#45;&gt;Node817 -->
<g id="edge6" class="edge"><title>Node813&#45;&gt;Node817</title>
<path fill="none" stroke="midnightblue" d="M497.066,-147.377C514.322,-145.159 533.157,-142.737 551.323,-140.401"/>
<polygon fill="midnightblue" stroke="midnightblue" points="496.578,-143.911 487.106,-148.658 497.471,-150.854 496.578,-143.911"/>
</g>
<!-- Node818 -->
<g id="node8" class="node"><title>Node818</title>
<g id="a_node8"><a xlink:href="classokw_1_1_se_m_a_x_i_m_i_z_e_1_1_se_m_a_x_i_m_i_z_e___e_n___test.html#a161a9f71e29dd3b8d84de7382c4e4527" target="_top" xlink:title="Teste das Schlüsselwort LogLabel( FN ) eines SeMAXIMIZE Prüfen. ">
<polygon fill="white" stroke="black" points="542.5,-48.5 542.5,-89.5 739.5,-89.5 739.5,-48.5 542.5,-48.5"/>
<text text-anchor="start" x="550.5" y="-77.5" font-family="Helvetica,sans-Serif" font-size="10.00">okw.SeMAXIMIZE.SeMAXIMIZE</text>
<text text-anchor="start" x="550.5" y="-66.5" font-family="Helvetica,sans-Serif" font-size="10.00">_EN_Test.tcLogLabel_OKWFrameObject</text>
<text text-anchor="middle" x="641" y="-55.5" font-family="Helvetica,sans-Serif" font-size="10.00">MethodNotImplemented</text>
</a>
</g>
</g>
<!-- Node813&#45;&gt;Node818 -->
<g id="edge7" class="edge"><title>Node813&#45;&gt;Node818</title>
<path fill="none" stroke="midnightblue" d="M491.578,-142.937C496.6,-140.938 501.476,-138.64 506,-136 525.817,-124.437 522.417,-110.955 542,-99 547.771,-95.477 553.988,-92.3388 560.392,-89.5489"/>
<polygon fill="midnightblue" stroke="midnightblue" points="490.042,-139.769 481.798,-146.424 492.393,-146.362 490.042,-139.769"/>
</g>
<!-- Node819 -->
<g id="node9" class="node"><title>Node819</title>
<g id="a_node9"><a xlink:href="classokw_1_1_se_radio_list_1_1_se_radio_list___e_n___test.html#a96bd6a3fdc8d0462be6432b268d24791" target="_top" xlink:title="Prüft die Methode SeRadioList.LogValue. ">
<polygon fill="white" stroke="black" points="567.5,-0 567.5,-30 714.5,-30 714.5,-0 567.5,-0"/>
<text text-anchor="start" x="575.5" y="-18" font-family="Helvetica,sans-Serif" font-size="10.00">okw.SeRadioList.SeRadioList</text>
<text text-anchor="middle" x="641" y="-7" font-family="Helvetica,sans-Serif" font-size="10.00">_EN_Test.tcLogLabel</text>
</a>
</g>
</g>
<!-- Node813&#45;&gt;Node819 -->
<g id="edge8" class="edge"><title>Node813&#45;&gt;Node819</title>
<path fill="none" stroke="midnightblue" d="M496.191,-143.09C499.707,-141.054 503.015,-138.706 506,-136 540.07,-105.117 507.666,-69.59 542,-39 549.324,-32.4746 558.133,-27.6556 567.427,-24.1087"/>
<polygon fill="midnightblue" stroke="midnightblue" points="494.536,-140.003 487.086,-147.537 497.607,-146.293 494.536,-140.003"/>
</g>
</g>
</svg>
        <g id="navigator" transform="translate(0 0)" fill="#404254">
                <rect fill="#f2f5e9" fill-opacity="0.5" stroke="#606060" stroke-width=".5" x="0" y="0" width="60" height="60"/>
                <use id="zoomplus" xlink:href="#zoomPlus" x="17" y="9" onmousedown="handleZoom(evt,'in')"/>
                <use id="zoomminus" xlink:href="#zoomMin" x="42" y="9" onmousedown="handleZoom(evt,'out')"/>
                <use id="reset" xlink:href="#resetDef" x="30" y="36" onmousedown="handleReset()"/>
                <g id="arrowUp" xlink:href="#dirArrow" transform="translate(30 24)" onmousedown="handlePan(0,-1)">
                  <use xlink:href="#rim" fill="#404040">
                        <set attributeName="fill" to="#808080" begin="arrowUp.mouseover" end="arrowUp.mouseout"/>
                  </use>
                  <path fill="none" stroke="white" stroke-width="1.5" d="M0,-3.0v7 M-2.5,-0.5L0,-3.0L2.5,-0.5"/>
                </g>
                <g id="arrowRight" xlink:href="#dirArrow" transform="rotate(90) translate(36 -43)" onmousedown="handlePan(1,0)">
                  <use xlink:href="#rim" fill="#404040">
                        <set attributeName="fill" to="#808080" begin="arrowRight.mouseover" end="arrowRight.mouseout"/>
                  </use>
                  <path fill="none" stroke="white" stroke-width="1.5" d="M0,-3.0v7 M-2.5,-0.5L0,-3.0L2.5,-0.5"/>
                </g>
                <g id="arrowDown" xlink:href="#dirArrow" transform="rotate(180) translate(-30 -48)" onmousedown="handlePan(0,1)">
                  <use xlink:href="#rim" fill="#404040">
                        <set attributeName="fill" to="#808080" begin="arrowDown.mouseover" end="arrowDown.mouseout"/>
                  </use>
                  <path fill="none" stroke="white" stroke-width="1.5" d="M0,-3.0v7 M-2.5,-0.5L0,-3.0L2.5,-0.5"/>
                </g>
                <g id="arrowLeft" xlink:href="#dirArrow" transform="rotate(270) translate(-36 17)" onmousedown="handlePan(-1,0)">
                  <use xlink:href="#rim" fill="#404040">
                        <set attributeName="fill" to="#808080" begin="arrowLeft.mouseover" end="arrowLeft.mouseout"/>
                  </use>
                  <path fill="none" stroke="white" stroke-width="1.5" d="M0,-3.0v7 M-2.5,-0.5L0,-3.0L2.5,-0.5"/>
                </g>
        </g>
        <svg viewBox="0 0 15 15" width="100%" height="30px" preserveAspectRatio="xMaxYMin meet">
         <g id="arrow_out" transform="scale(0.3 0.3)">
          <a xlink:href="interfaceokw_1_1core_1_1_i_o_k_w___state_a7f76b6d18ebd45517d5a9afd0fdcb9d5_icgraph_org.svg" target="_base">
           <rect id="button" ry="5" rx="5" y="6" x="6" height="38" width="38"
                fill="#f2f5e9" fill-opacity="0.5" stroke="#606060" stroke-width="1.0"/>
           <path id="arrow"
             d="M 11.500037,31.436501 C 11.940474,20.09759 22.043105,11.32322 32.158766,21.979434 L 37.068811,17.246167 C 37.068811,17.246167 37.088388,32 37.088388,32 L 22.160133,31.978069 C 22.160133,31.978069 26.997745,27.140456 26.997745,27.140456 C 18.528582,18.264221 13.291696,25.230495 11.500037,31.436501 z"
             style="fill:#404040;"/>
          </a>
         </g>
        </svg>
</svg>
