<?xml version="1.0" encoding="UTF-8" standalone="no"?>
<!DOCTYPE svg PUBLIC "-//W3C//DTD SVG 1.1//EN"
 "http://www.w3.org/Graphics/SVG/1.1/DTD/svg11.dtd">
<!-- Generated by graphviz version 2.26.3 (20100126.1600)
 -->
<!-- Title: okw.core.IOKW_State.SelectMenu Pages: 1 -->
<svg width="514pt" height="30pt"
 viewBox="0.00 0.00 514.00 30.00" xmlns="http://www.w3.org/2000/svg" xmlns:xlink="http://www.w3.org/1999/xlink">
<g id="graph1" class="graph" transform="scale(1 1) rotate(0) translate(4 26)">
<title>okw.core.IOKW_State.SelectMenu</title>
<polygon fill="white" stroke="white" points="-4,5 -4,-26 511,-26 511,5 -4,5"/>
<!-- Node98 -->
<g id="node1" class="node"><title>Node98</title>
<polygon fill="#bfbfbf" stroke="black" points="0,-0.5 0,-21.5 170,-21.5 170,-0.5 0,-0.5"/>
<text text-anchor="middle" x="85" y="-8.5" font-family="Helvetica,sans-Serif" font-size="10.00">okw.core.IOKW_State.SelectMenu</text>
</g>
<!-- Node99 -->
<g id="node3" class="node"><title>Node99</title>
<a xlink:href="classokw_1_1core_1_1_core.html#ad456e1c840aa697b44843afd9fefa8e2" target="_top" xlink:title="W채hlt den gegebenen Men체&#45;Eintrag aus. ">
<polygon fill="white" stroke="black" points="206.5,-0.5 206.5,-21.5 341.5,-21.5 341.5,-0.5 206.5,-0.5"/>
<text text-anchor="middle" x="274" y="-8.5" font-family="Helvetica,sans-Serif" font-size="10.00">okw.core.Core.SelectMenu</text>
</a>
</g>
<!-- Node98&#45;&gt;Node99 -->
<g id="edge2" class="edge"><title>Node98&#45;&gt;Node99</title>
<path fill="none" stroke="midnightblue" d="M180.383,-11C189.154,-11 197.915,-11 206.363,-11"/>
<polygon fill="midnightblue" stroke="midnightblue" points="180.101,-7.5001 170.101,-11 180.101,-14.5001 180.101,-7.5001"/>
</g>
<!-- Node100 -->
<g id="node5" class="node"><title>Node100</title>
<a xlink:href="classokw_1_1core_1_1_e_n.html#a520790674701ae4cfe410c4d02871b4b" target="_top" xlink:title="W채hlt den gegebenen Men체&#45;Eintrag aus. ">
<polygon fill="white" stroke="black" points="378,-0.5 378,-21.5 506,-21.5 506,-0.5 378,-0.5"/>
<text text-anchor="middle" x="442" y="-8.5" font-family="Helvetica,sans-Serif" font-size="10.00">okw.core.EN.SelectMenu</text>
</a>
</g>
<!-- Node99&#45;&gt;Node100 -->
<g id="edge4" class="edge"><title>Node99&#45;&gt;Node100</title>
<path fill="none" stroke="midnightblue" d="M351.998,-11C360.698,-11 369.484,-11 377.98,-11"/>
<polygon fill="midnightblue" stroke="midnightblue" points="351.848,-7.5001 341.848,-11 351.848,-14.5001 351.848,-7.5001"/>
</g>
</g>
</svg>
