<?xml version="1.0" encoding="UTF-8" standalone="no"?>
<!DOCTYPE svg PUBLIC "-//W3C//DTD SVG 1.1//EN"
 "http://www.w3.org/Graphics/SVG/1.1/DTD/svg11.dtd">
<!-- Generated by graphviz version 2.26.3 (20100126.1600)
 -->
<!-- Title: okw.core.IOKW_State.ClickOn Pages: 1 -->
<!--zoomable 506 -->
<svg id="main" version="1.1" xmlns="http://www.w3.org/2000/svg" xmlns:xlink="http://www.w3.org/1999/xlink" xml:space="preserve" onload="init(evt)">
<style type="text/css"><![CDATA[
.edge:hover path { stroke: red; }
.edge:hover polygon { stroke: red; fill: red; }
]]></style>
<script type="text/javascript"><![CDATA[
var edges = document.getElementsByTagName('g');
if (edges && edges.length) {
  for (var i=0;i<edges.length;i++) {
    if (edges[i].id.substr(0,4)=='edge') {
      edges[i].setAttribute('class','edge');
    }
  }
}
]]></script>
        <defs>
                <circle id="rim" cx="0" cy="0" r="7"/>
                <circle id="rim2" cx="0" cy="0" r="3.5"/>
                <g id="zoomPlus">
                        <use xlink:href="#rim" fill="#404040">
                                <set attributeName="fill" to="#808080" begin="zoomplus.mouseover" end="zoomplus.mouseout"/>
                        </use>
                        <path d="M-4,0h8M0,-4v8" fill="none" stroke="white" stroke-width="1.5" pointer-events="none"/>
                </g>
                <g id="zoomMin">
                        <use xlink:href="#rim" fill="#404040">
                                <set attributeName="fill" to="#808080" begin="zoomminus.mouseover" end="zoomminus.mouseout"/>
                        </use>
                        <path d="M-4,0h8" fill="none" stroke="white" stroke-width="1.5" pointer-events="none"/>
                </g>
                <g id="dirArrow">
                        <path fill="none" stroke="white" stroke-width="1.5" d="M0,-3.0v7 M-2.5,-0.5L0,-3.0L2.5,-0.5"/>
                </g>
               <g id="resetDef">
                       <use xlink:href="#rim2" fill="#404040">
                               <set attributeName="fill" to="#808080" begin="reset.mouseover" end="reset.mouseout"/>
                       </use>
               </g>
        </defs>

<script type="text/javascript">
var viewWidth = 788;
var viewHeight = 506;
var sectionId = 'dynsection-3';
</script>
<script xlink:href="svgpan.js"/>
<svg id="graph" class="graph">
<g id="viewport">
<title>okw.core.IOKW_State.ClickOn</title>
<polygon fill="white" stroke="white" points="-4,5 -4,-502 785,-502 785,5 -4,5"/>
<!-- Node511 -->
<g id="node1" class="node"><title>Node511</title>
<polygon fill="#bfbfbf" stroke="black" points="0.5,-117.5 0.5,-138.5 153.5,-138.5 153.5,-117.5 0.5,-117.5"/>
<text text-anchor="middle" x="77" y="-125.5" font-family="Helvetica,sans-Serif" font-size="10.00">okw.core.IOKW_State.ClickOn</text>
</g>
<!-- Node512 -->
<g id="node3" class="node"><title>Node512</title>
<a xlink:href="classokw_1_1core_1_1_core.html#a3e601b16ed5c18b3daa279cf61044504" target="_top" xlink:title="Klickt auf das gegebene Objekt. ">
<polygon fill="white" stroke="black" points="190.5,-117.5 190.5,-138.5 309.5,-138.5 309.5,-117.5 190.5,-117.5"/>
<text text-anchor="middle" x="250" y="-125.5" font-family="Helvetica,sans-Serif" font-size="10.00">okw.core.Core.ClickOn</text>
</a>
</g>
<!-- Node511&#45;&gt;Node512 -->
<g id="edge2" class="edge"><title>Node511&#45;&gt;Node512</title>
<path fill="none" stroke="midnightblue" d="M163.759,-128C172.741,-128 181.72,-128 190.308,-128"/>
<polygon fill="midnightblue" stroke="midnightblue" points="163.636,-124.5 153.636,-128 163.636,-131.5 163.636,-124.5"/>
</g>
<!-- Node513 -->
<g id="node5" class="node"><title>Node513</title>
<a xlink:href="classokw_1_1core_1_1_e_n.html#aa0ea62b29e5e216241a5b757797f83bf" target="_top" xlink:title="Klickt auf das gegebene Objekt. ">
<polygon fill="white" stroke="black" points="365,-222.5 365,-243.5 477,-243.5 477,-222.5 365,-222.5"/>
<text text-anchor="middle" x="421" y="-230.5" font-family="Helvetica,sans-Serif" font-size="10.00">okw.core.EN.ClickOn</text>
</a>
</g>
<!-- Node512&#45;&gt;Node513 -->
<g id="edge4" class="edge"><title>Node512&#45;&gt;Node513</title>
<path fill="none" stroke="midnightblue" d="M265.66,-146.176C283.297,-165.522 313.736,-195.681 346,-213 353.005,-216.76 360.765,-219.85 368.56,-222.378"/>
<polygon fill="midnightblue" stroke="midnightblue" points="268.185,-143.749 258.917,-138.616 262.961,-148.409 268.185,-143.749"/>
</g>
<!-- Node523 -->
<g id="node25" class="node"><title>Node523</title>
<a xlink:href="classokw_1_1core_1_1_current_object___test.html#a2fe4ea5049e633182621aea87f5c2a8f" target="_top" xlink:title="Testziel: Prüft den Aufruf der Methode ClickOn( &quot;FN&quot; ) im ChildObject. ">
<polygon fill="white" stroke="black" points="346.5,-170 346.5,-204 495.5,-204 495.5,-170 346.5,-170"/>
<text text-anchor="start" x="354.5" y="-191" font-family="Helvetica,sans-Serif" font-size="10.00">okw.core.CurrentObject</text>
<text text-anchor="middle" x="421" y="-178" font-family="Helvetica,sans-Serif" font-size="10.00">_Test.tc_ClickOn_ChildObject</text>
</a>
</g>
<!-- Node512&#45;&gt;Node523 -->
<g id="edge24" class="edge"><title>Node512&#45;&gt;Node523</title>
<path fill="none" stroke="midnightblue" d="M290.206,-141.872C314.541,-150.269 345.758,-161.039 371.592,-169.953"/>
<polygon fill="midnightblue" stroke="midnightblue" points="291.166,-138.501 280.571,-138.548 288.883,-145.118 291.166,-138.501"/>
</g>
<!-- Node524 -->
<g id="node27" class="node"><title>Node524</title>
<a xlink:href="classokw_1_1core_1_1_current_object___test.html#a6ba92c08d267a77ce11c133769c9b1b9" target="_top" xlink:title="Ts the c_ select_ child object_ with out_ value. ">
<polygon fill="white" stroke="black" points="347.5,-104.5 347.5,-151.5 494.5,-151.5 494.5,-104.5 347.5,-104.5"/>
<text text-anchor="start" x="355.5" y="-138.5" font-family="Helvetica,sans-Serif" font-size="10.00">okw.core.CurrentObject</text>
<text text-anchor="start" x="355.5" y="-125.5" font-family="Helvetica,sans-Serif" font-size="10.00">_Test.TC_Select_ChildObject</text>
<text text-anchor="middle" x="421" y="-112.5" font-family="Helvetica,sans-Serif" font-size="10.00">_WithOut_Value</text>
</a>
</g>
<!-- Node512&#45;&gt;Node524 -->
<g id="edge26" class="edge"><title>Node512&#45;&gt;Node524</title>
<path fill="none" stroke="midnightblue" d="M319.91,-128C328.969,-128 338.27,-128 347.387,-128"/>
<polygon fill="midnightblue" stroke="midnightblue" points="319.808,-124.5 309.808,-128 319.807,-131.5 319.808,-124.5"/>
</g>
<!-- Node525 -->
<g id="node29" class="node"><title>Node525</title>
<a xlink:href="classokw_1_1gui_1_1adapter_1_1selenium_1_1_se_input_radio.html#a7dce83be09a4af05f50b0e74aa9d27f7" target="_top" xlink:title="Ein SeInputButton IstkeinMenüobject! &#45;&gt; OKWFrameObjectMethodNotImplemented Auslösen! ...">
<polygon fill="white" stroke="black" points="355.5,-52 355.5,-86 486.5,-86 486.5,-52 355.5,-52"/>
<text text-anchor="start" x="363.5" y="-73" font-family="Helvetica,sans-Serif" font-size="10.00">okw.gui.adapter.selenium.</text>
<text text-anchor="middle" x="421" y="-60" font-family="Helvetica,sans-Serif" font-size="10.00">SeInputRadio.SetValue</text>
</a>
</g>
<!-- Node512&#45;&gt;Node525 -->
<g id="edge28" class="edge"><title>Node512&#45;&gt;Node525</title>
<path fill="none" stroke="midnightblue" d="M290.206,-114.128C314.541,-105.731 345.758,-94.9606 371.592,-86.0473"/>
<polygon fill="midnightblue" stroke="midnightblue" points="288.883,-110.882 280.571,-117.452 291.166,-117.499 288.883,-110.882"/>
</g>
<!-- Node526 -->
<g id="node31" class="node"><title>Node526</title>
<a xlink:href="classokw_1_1gui_1_1adapter_1_1selenium_1_1_se_radio_list.html#a793c9fd7670b1d77ee48996f7b287807" target="_top" xlink:title="okw.gui.adapter.selenium.\lSeRadioList.SeRadioList">
<polygon fill="white" stroke="black" points="355.5,-0 355.5,-34 486.5,-34 486.5,-0 355.5,-0"/>
<text text-anchor="start" x="363.5" y="-21" font-family="Helvetica,sans-Serif" font-size="10.00">okw.gui.adapter.selenium.</text>
<text text-anchor="middle" x="421" y="-8" font-family="Helvetica,sans-Serif" font-size="10.00">SeRadioList.SeRadioList</text>
</a>
</g>
<!-- Node512&#45;&gt;Node526 -->
<g id="edge30" class="edge"><title>Node512&#45;&gt;Node526</title>
<path fill="none" stroke="midnightblue" d="M266.197,-109.968C284.091,-90.9953 314.558,-61.3886 346,-43 351.591,-39.7301 357.657,-36.7845 363.835,-34.1543"/>
<polygon fill="midnightblue" stroke="midnightblue" points="263.556,-107.668 259.331,-117.384 268.693,-112.423 263.556,-107.668"/>
</g>
<!-- Node514 -->
<g id="node7" class="node"><title>Node514</title>
<a xlink:href="classokw_1_1core_1_1_e_n___o_k_w_frame_object_child_not_found_exception___test.html#ab400c3e29f8f6bd9f0e70df363ea5f35" target="_top" xlink:title="Prüft ob die Ausnahme OKWFrameObjectChildNotFoundException durch ClickOn ausgelöst wird...">
<polygon fill="white" stroke="black" points="564,-438 564,-498 748,-498 748,-438 564,-438"/>
<text text-anchor="start" x="572" y="-485" font-family="Helvetica,sans-Serif" font-size="10.00">okw.core.EN_OKWFrameObject</text>
<text text-anchor="start" x="572" y="-472" font-family="Helvetica,sans-Serif" font-size="10.00">ChildNotFoundException</text>
<text text-anchor="start" x="572" y="-459" font-family="Helvetica,sans-Serif" font-size="10.00">_Test.TC_ClickOn_OKWFrameObject</text>
<text text-anchor="middle" x="656" y="-446" font-family="Helvetica,sans-Serif" font-size="10.00">ChildNotFoundException</text>
</a>
</g>
<!-- Node513&#45;&gt;Node514 -->
<g id="edge6" class="edge"><title>Node513&#45;&gt;Node514</title>
<path fill="none" stroke="midnightblue" d="M426.961,-253.405C439.617,-293.154 472.955,-381.242 532,-429 541.475,-436.664 552.47,-442.83 563.922,-447.789"/>
<polygon fill="midnightblue" stroke="midnightblue" points="430.28,-252.29 423.998,-243.759 423.589,-254.346 430.28,-252.29"/>
</g>
<!-- Node515 -->
<g id="node9" class="node"><title>Node515</title>
<a xlink:href="classokw_1_1core_1_1_e_n___o_k_w_frame_object_method_not_implemented___test.html#a15c8a86e8cbeaf7d85283b979976bcad" target="_top" xlink:title="Prüft ob die Ausnahme OKWFrameObjectMethodNotImplemented von ClickOn() ausgelöst wird. ">
<polygon fill="white" stroke="black" points="532.5,-372.5 532.5,-419.5 779.5,-419.5 779.5,-372.5 532.5,-372.5"/>
<text text-anchor="start" x="540.5" y="-406.5" font-family="Helvetica,sans-Serif" font-size="10.00">okw.core.EN_OKWFrameObject</text>
<text text-anchor="start" x="540.5" y="-393.5" font-family="Helvetica,sans-Serif" font-size="10.00">MethodNotImplemented_Test.tc</text>
<text text-anchor="middle" x="656" y="-380.5" font-family="Helvetica,sans-Serif" font-size="10.00">_ClickOn_OKWFrameObjectMethodNotImplemented</text>
</a>
</g>
<!-- Node513&#45;&gt;Node515 -->
<g id="edge8" class="edge"><title>Node513&#45;&gt;Node515</title>
<path fill="none" stroke="midnightblue" d="M432.155,-252.335C449.684,-280.955 486.427,-334.295 532,-363 537.561,-366.502 543.486,-369.636 549.619,-372.439"/>
<polygon fill="midnightblue" stroke="midnightblue" points="435.097,-250.435 426.962,-243.648 429.089,-254.027 435.097,-250.435"/>
</g>
<!-- Node516 -->
<g id="node11" class="node"><title>Node516</title>
<a xlink:href="classokw_1_1_se_button_1_1_se_button___test.html#aecbeeb0b28aad04d27eac95bd5b8b605" target="_top" xlink:title="Test des Schlüsselwortes ClickOn für den GUI&#45;Adapter SeButton. ">
<polygon fill="white" stroke="black" points="595,-320 595,-354 717,-354 717,-320 595,-320"/>
<text text-anchor="start" x="603" y="-341" font-family="Helvetica,sans-Serif" font-size="10.00">okw.SeButton.SeButton</text>
<text text-anchor="middle" x="656" y="-328" font-family="Helvetica,sans-Serif" font-size="10.00">_Test.tcClickOn</text>
</a>
</g>
<!-- Node513&#45;&gt;Node516 -->
<g id="edge10" class="edge"><title>Node513&#45;&gt;Node516</title>
<path fill="none" stroke="midnightblue" d="M440.237,-250.244C461.274,-268.161 496.715,-295.681 532,-311 551.672,-319.541 574.346,-325.347 594.882,-329.264"/>
<polygon fill="midnightblue" stroke="midnightblue" points="442.503,-247.575 432.655,-243.667 437.916,-252.863 442.503,-247.575"/>
</g>
<!-- Node517 -->
<g id="node13" class="node"><title>Node517</title>
<a xlink:href="classokw_1_1_se_input_checkbox_1_1_se_input_checkbox___test.html#a702ffb63f0af2c995bd71ca884b0f408" target="_top" xlink:title="Prüft die SetFocusFunktion bei Textfelder mit dem Attribute &quot;ReadOnly&quot;. ">
<polygon fill="white" stroke="black" points="580,-268 580,-302 732,-302 732,-268 580,-268"/>
<text text-anchor="start" x="588" y="-289" font-family="Helvetica,sans-Serif" font-size="10.00">okw.SeInputCheckbox.SeInput</text>
<text text-anchor="middle" x="656" y="-276" font-family="Helvetica,sans-Serif" font-size="10.00">Checkbox_Test.tcSetFocus</text>
</a>
</g>
<!-- Node513&#45;&gt;Node517 -->
<g id="edge12" class="edge"><title>Node513&#45;&gt;Node517</title>
<path fill="none" stroke="midnightblue" d="M474.798,-245.868C492.947,-250.139 513.333,-254.857 532,-259 547.461,-262.431 564.034,-265.989 579.87,-269.331"/>
<polygon fill="midnightblue" stroke="midnightblue" points="475.507,-242.44 464.97,-243.549 473.899,-249.253 475.507,-242.44"/>
</g>
<!-- Node518 -->
<g id="node15" class="node"><title>Node518</title>
<a xlink:href="classokw_1_1_se_input_field_1_1_se_input_field___test.html#a3fa911d8f6711fdbd540984a1257fe65" target="_top" xlink:title="Testet das Schlüsselwort ClickOn( FN ) eines SeInputField Prüfen. ">
<polygon fill="white" stroke="black" points="591.5,-216 591.5,-250 720.5,-250 720.5,-216 591.5,-216"/>
<text text-anchor="start" x="599.5" y="-237" font-family="Helvetica,sans-Serif" font-size="10.00">okw.SeInputField.SeInput</text>
<text text-anchor="middle" x="656" y="-224" font-family="Helvetica,sans-Serif" font-size="10.00">Field_Test.tcClickOn</text>
</a>
</g>
<!-- Node513&#45;&gt;Node518 -->
<g id="edge14" class="edge"><title>Node513&#45;&gt;Node518</title>
<path fill="none" stroke="midnightblue" d="M487.613,-233C520.165,-233 559.174,-233 591.446,-233"/>
<polygon fill="midnightblue" stroke="midnightblue" points="487.288,-229.5 477.288,-233 487.288,-236.5 487.288,-229.5"/>
</g>
<!-- Node519 -->
<g id="node17" class="node"><title>Node519</title>
<a xlink:href="classokw_1_1_se_input_field_1_1_se_input_field___test.html#a2255b938a8b8fb3779c49ec9ee68edd5" target="_top" xlink:title="Test des Schlüsselwortes &quot;VerifyValueWCM( FN, ExpValu ) für SeInputText. ">
<polygon fill="white" stroke="black" points="581.5,-164 581.5,-198 730.5,-198 730.5,-164 581.5,-164"/>
<text text-anchor="start" x="589.5" y="-185" font-family="Helvetica,sans-Serif" font-size="10.00">okw.SeInputField.SeInput</text>
<text text-anchor="middle" x="656" y="-172" font-family="Helvetica,sans-Serif" font-size="10.00">Field_Test.tcVerifyValueWCM</text>
</a>
</g>
<!-- Node513&#45;&gt;Node519 -->
<g id="edge16" class="edge"><title>Node513&#45;&gt;Node519</title>
<path fill="none" stroke="midnightblue" d="M474.798,-220.132C492.947,-215.861 513.333,-211.143 532,-207 547.89,-203.474 564.955,-199.813 581.188,-196.391"/>
<polygon fill="midnightblue" stroke="midnightblue" points="473.899,-216.747 464.97,-222.451 475.507,-223.56 473.899,-216.747"/>
</g>
<!-- Node520 -->
<g id="node19" class="node"><title>Node520</title>
<a xlink:href="classokw_1_1_se_input_radio_1_1_se_input_radio___e_n___test.html#af95992ddbd303a44c3b1137243ec4463" target="_top" xlink:title="Test des Schlüsselwortes ClickOn() für den GUI&#45;Adapter SeInputRadio. ">
<polygon fill="white" stroke="black" points="587,-112 587,-146 725,-146 725,-112 587,-112"/>
<text text-anchor="start" x="595" y="-133" font-family="Helvetica,sans-Serif" font-size="10.00">okw.SeInputRadio.SeInput</text>
<text text-anchor="middle" x="656" y="-120" font-family="Helvetica,sans-Serif" font-size="10.00">Radio_EN_Test.tc_ClickOn</text>
</a>
</g>
<!-- Node513&#45;&gt;Node520 -->
<g id="edge18" class="edge"><title>Node513&#45;&gt;Node520</title>
<path fill="none" stroke="midnightblue" d="M486.429,-218.942C489.791,-217.189 493.009,-215.217 496,-213 520.372,-194.931 507.149,-172.405 532,-155 547.945,-143.833 567.684,-137.279 586.69,-133.484"/>
<polygon fill="midnightblue" stroke="midnightblue" points="484.921,-215.782 477.25,-223.091 487.804,-222.161 484.921,-215.782"/>
</g>
<!-- Node521 -->
<g id="node21" class="node"><title>Node521</title>
<a xlink:href="classokw_1_1_se_input_radio_1_1_se_input_radio___e_n___test.html#a110e82fd5d9309ebf617febe21ef358d" target="_top" xlink:title="Test des Schlüsselwortes VerifyValueWCM für den GUI&#45;Adapter SeInputRadio. ">
<polygon fill="white" stroke="black" points="566.5,-60 566.5,-94 745.5,-94 745.5,-60 566.5,-60"/>
<text text-anchor="start" x="574.5" y="-81" font-family="Helvetica,sans-Serif" font-size="10.00">okw.SeInputRadio.SeInput</text>
<text text-anchor="middle" x="656" y="-68" font-family="Helvetica,sans-Serif" font-size="10.00">Radio_EN_Test.tc_VerifyValueWCM</text>
</a>
</g>
<!-- Node513&#45;&gt;Node521 -->
<g id="edge20" class="edge"><title>Node513&#45;&gt;Node521</title>
<path fill="none" stroke="midnightblue" d="M486.257,-220.271C489.767,-218.192 493.055,-215.785 496,-213 533.372,-177.653 493.688,-137.327 532,-103 541.747,-94.2665 553.662,-88.1882 566.21,-84.0026"/>
<polygon fill="midnightblue" stroke="midnightblue" points="484.546,-217.212 477.143,-224.792 487.657,-223.483 484.546,-217.212"/>
</g>
<!-- Node522 -->
<g id="node23" class="node"><title>Node522</title>
<a xlink:href="classokw_1_1_se_input_radio_1_1_se_input_radio___e_n___test.html#a764e3f90123eb747d81f597d472711c3" target="_top" xlink:title="Test des Schlüsselwortes VerifyValueREGX für den GUI&#45;Adapter SeInputRadio. ">
<polygon fill="white" stroke="black" points="565,-8 565,-42 747,-42 747,-8 565,-8"/>
<text text-anchor="start" x="573" y="-29" font-family="Helvetica,sans-Serif" font-size="10.00">okw.SeInputRadio.SeInput</text>
<text text-anchor="middle" x="656" y="-16" font-family="Helvetica,sans-Serif" font-size="10.00">Radio_EN_Test.tc_VerifyValueREGX</text>
</a>
</g>
<!-- Node513&#45;&gt;Node522 -->
<g id="edge22" class="edge"><title>Node513&#45;&gt;Node522</title>
<path fill="none" stroke="midnightblue" d="M486.395,-220.716C489.897,-218.531 493.144,-215.979 496,-213 547.049,-159.764 479.535,-102.84 532,-51 541.153,-41.9559 552.598,-35.6876 564.81,-31.3986"/>
<polygon fill="midnightblue" stroke="midnightblue" points="484.531,-217.739 477.24,-225.426 487.733,-223.964 484.531,-217.739"/>
</g>
</g>
</svg>
        <g id="navigator" transform="translate(0 0)" fill="#404254">
                <rect fill="#f2f5e9" fill-opacity="0.5" stroke="#606060" stroke-width=".5" x="0" y="0" width="60" height="60"/>
                <use id="zoomplus" xlink:href="#zoomPlus" x="17" y="9" onmousedown="handleZoom(evt,'in')"/>
                <use id="zoomminus" xlink:href="#zoomMin" x="42" y="9" onmousedown="handleZoom(evt,'out')"/>
                <use id="reset" xlink:href="#resetDef" x="30" y="36" onmousedown="handleReset()"/>
                <g id="arrowUp" xlink:href="#dirArrow" transform="translate(30 24)" onmousedown="handlePan(0,-1)">
                  <use xlink:href="#rim" fill="#404040">
                        <set attributeName="fill" to="#808080" begin="arrowUp.mouseover" end="arrowUp.mouseout"/>
                  </use>
                  <path fill="none" stroke="white" stroke-width="1.5" d="M0,-3.0v7 M-2.5,-0.5L0,-3.0L2.5,-0.5"/>
                </g>
                <g id="arrowRight" xlink:href="#dirArrow" transform="rotate(90) translate(36 -43)" onmousedown="handlePan(1,0)">
                  <use xlink:href="#rim" fill="#404040">
                        <set attributeName="fill" to="#808080" begin="arrowRight.mouseover" end="arrowRight.mouseout"/>
                  </use>
                  <path fill="none" stroke="white" stroke-width="1.5" d="M0,-3.0v7 M-2.5,-0.5L0,-3.0L2.5,-0.5"/>
                </g>
                <g id="arrowDown" xlink:href="#dirArrow" transform="rotate(180) translate(-30 -48)" onmousedown="handlePan(0,1)">
                  <use xlink:href="#rim" fill="#404040">
                        <set attributeName="fill" to="#808080" begin="arrowDown.mouseover" end="arrowDown.mouseout"/>
                  </use>
                  <path fill="none" stroke="white" stroke-width="1.5" d="M0,-3.0v7 M-2.5,-0.5L0,-3.0L2.5,-0.5"/>
                </g>
                <g id="arrowLeft" xlink:href="#dirArrow" transform="rotate(270) translate(-36 17)" onmousedown="handlePan(-1,0)">
                  <use xlink:href="#rim" fill="#404040">
                        <set attributeName="fill" to="#808080" begin="arrowLeft.mouseover" end="arrowLeft.mouseout"/>
                  </use>
                  <path fill="none" stroke="white" stroke-width="1.5" d="M0,-3.0v7 M-2.5,-0.5L0,-3.0L2.5,-0.5"/>
                </g>
        </g>
        <svg viewBox="0 0 15 15" width="100%" height="30px" preserveAspectRatio="xMaxYMin meet">
         <g id="arrow_out" transform="scale(0.3 0.3)">
          <a xlink:href="interfaceokw_1_1core_1_1_i_o_k_w___state_afdad3bb294ebbc2e30b17e81a6b1f378_icgraph_org.svg" target="_base">
           <rect id="button" ry="5" rx="5" y="6" x="6" height="38" width="38"
                fill="#f2f5e9" fill-opacity="0.5" stroke="#606060" stroke-width="1.0"/>
           <path id="arrow"
             d="M 11.500037,31.436501 C 11.940474,20.09759 22.043105,11.32322 32.158766,21.979434 L 37.068811,17.246167 C 37.068811,17.246167 37.088388,32 37.088388,32 L 22.160133,31.978069 C 22.160133,31.978069 26.997745,27.140456 26.997745,27.140456 C 18.528582,18.264221 13.291696,25.230495 11.500037,31.436501 z"
             style="fill:#404040;"/>
          </a>
         </g>
        </svg>
</svg>
