<?xml version="1.0" encoding="UTF-8" standalone="no"?>
<!DOCTYPE svg PUBLIC "-//W3C//DTD SVG 1.1//EN"
 "http://www.w3.org/Graphics/SVG/1.1/DTD/svg11.dtd">
<!-- Generated by graphviz version 2.36.0 (20140111.2315)
 -->
<!-- Title: okw.core.IOKW_State.VerifySelectedValue Pages: 1 -->
<svg width="760pt" height="967pt"
 viewBox="0.00 0.00 760.00 967.00" xmlns="http://www.w3.org/2000/svg" xmlns:xlink="http://www.w3.org/1999/xlink">
<g id="graph0" class="graph" transform="scale(1 1) rotate(0) translate(4 963)">
<title>okw.core.IOKW_State.VerifySelectedValue</title>
<polygon fill="white" stroke="none" points="-4,4 -4,-963 756,-963 756,4 -4,4"/>
<!-- Node3165 -->
<g id="node1" class="node"><title>Node3165</title>
<polygon fill="#bfbfbf" stroke="black" points="0.5,-492 0.5,-522 143.5,-522 143.5,-492 0.5,-492"/>
<text text-anchor="start" x="8.5" y="-510" font-family="Helvetica,sans-Serif" font-size="10.00">okw.core.IOKW_State.Verify</text>
<text text-anchor="middle" x="72" y="-499" font-family="Helvetica,sans-Serif" font-size="10.00">SelectedValue</text>
</g>
<!-- Node3166 -->
<g id="node2" class="node"><title>Node3166</title>
<g id="a_node2"><a xlink:href="classokw_1_1core_1_1_core.html#ab243fc4ed28faf2ee9e7cd3123b8f13c" target="_top" xlink:title="Vergleicht den ausgewählten Wert des gegebenen Listenobjekts mit dem erwarteten Wert. ">
<polygon fill="white" stroke="black" points="180.5,-492 180.5,-522 327.5,-522 327.5,-492 180.5,-492"/>
<text text-anchor="start" x="188.5" y="-510" font-family="Helvetica,sans-Serif" font-size="10.00">okw.core.Core.VerifySelected</text>
<text text-anchor="middle" x="254" y="-499" font-family="Helvetica,sans-Serif" font-size="10.00">Value</text>
</a>
</g>
</g>
<!-- Node3165&#45;&gt;Node3166 -->
<g id="edge1" class="edge"><title>Node3165&#45;&gt;Node3166</title>
<path fill="none" stroke="midnightblue" d="M153.857,-507C162.637,-507 171.535,-507 180.211,-507"/>
<polygon fill="midnightblue" stroke="midnightblue" points="153.624,-503.5 143.624,-507 153.624,-510.5 153.624,-503.5"/>
</g>
<!-- Node3167 -->
<g id="node3" class="node"><title>Node3167</title>
<g id="a_node3"><a xlink:href="classokw_1_1core_1_1_e_n.html#a535232918db76d11b92e1c00d24e228b" target="_top" xlink:title="Vergleicht den ausgewählten Wert des gegebenen Listenobjekts mit dem erwarteten Wert. ">
<polygon fill="white" stroke="black" points="364,-492 364,-522 504,-522 504,-492 364,-492"/>
<text text-anchor="start" x="372" y="-510" font-family="Helvetica,sans-Serif" font-size="10.00">okw.core.EN.VerifySelected</text>
<text text-anchor="middle" x="434" y="-499" font-family="Helvetica,sans-Serif" font-size="10.00">Value</text>
</a>
</g>
</g>
<!-- Node3166&#45;&gt;Node3167 -->
<g id="edge2" class="edge"><title>Node3166&#45;&gt;Node3167</title>
<path fill="none" stroke="midnightblue" d="M337.79,-507C346.471,-507 355.23,-507 363.737,-507"/>
<polygon fill="midnightblue" stroke="midnightblue" points="337.656,-503.5 327.656,-507 337.656,-510.5 337.656,-503.5"/>
</g>
<!-- Node3168 -->
<g id="node4" class="node"><title>Node3168</title>
<g id="a_node4"><a xlink:href="classokw_1_1core_1_1_e_n___keywords___a_n_t_l_r___test.html#a4a3c50b3260d3b7e3218e073177ab15e" target="_top" xlink:title="okw.core.EN_Keywords\l_ANTLR_Test.tc__VerifySelected\lValue_EnviromentValue">
<polygon fill="white" stroke="black" points="563.5,-917.5 563.5,-958.5 728.5,-958.5 728.5,-917.5 563.5,-917.5"/>
<text text-anchor="start" x="571.5" y="-946.5" font-family="Helvetica,sans-Serif" font-size="10.00">okw.core.EN_Keywords</text>
<text text-anchor="start" x="571.5" y="-935.5" font-family="Helvetica,sans-Serif" font-size="10.00">_ANTLR_Test.tc__VerifySelected</text>
<text text-anchor="middle" x="646" y="-924.5" font-family="Helvetica,sans-Serif" font-size="10.00">Value_EnviromentValue</text>
</a>
</g>
</g>
<!-- Node3167&#45;&gt;Node3168 -->
<g id="edge3" class="edge"><title>Node3167&#45;&gt;Node3168</title>
<path fill="none" stroke="midnightblue" d="M438.388,-532.439C449.432,-611.692 486.764,-852.121 540,-907 546.617,-913.821 554.655,-919.161 563.306,-923.337"/>
<polygon fill="midnightblue" stroke="midnightblue" points="441.833,-531.794 437.006,-522.362 434.898,-532.745 441.833,-531.794"/>
</g>
<!-- Node3169 -->
<g id="node5" class="node"><title>Node3169</title>
<g id="a_node5"><a xlink:href="classokw_1_1core_1_1_e_n___keywords___a_n_t_l_r___test.html#a2e571d88e1e787c667895a18569f0ca7" target="_top" xlink:title="okw.core.EN_Keywords\l_ANTLR_Test.tc_VerifySelected\lValue_MemorizedValue">
<polygon fill="white" stroke="black" points="566,-857.5 566,-898.5 726,-898.5 726,-857.5 566,-857.5"/>
<text text-anchor="start" x="574" y="-886.5" font-family="Helvetica,sans-Serif" font-size="10.00">okw.core.EN_Keywords</text>
<text text-anchor="start" x="574" y="-875.5" font-family="Helvetica,sans-Serif" font-size="10.00">_ANTLR_Test.tc_VerifySelected</text>
<text text-anchor="middle" x="646" y="-864.5" font-family="Helvetica,sans-Serif" font-size="10.00">Value_MemorizedValue</text>
</a>
</g>
</g>
<!-- Node3167&#45;&gt;Node3169 -->
<g id="edge4" class="edge"><title>Node3167&#45;&gt;Node3169</title>
<path fill="none" stroke="midnightblue" d="M435.132,-532.206C436.865,-594.74 450.227,-758.338 540,-847 547.37,-854.279 556.361,-859.864 565.949,-864.146"/>
<polygon fill="midnightblue" stroke="midnightblue" points="438.628,-532.002 434.931,-522.073 431.63,-532.14 438.628,-532.002"/>
</g>
<!-- Node3170 -->
<g id="node6" class="node"><title>Node3170</title>
<g id="a_node6"><a xlink:href="classokw_1_1core_1_1_e_n___keywords___d_e_l_e_t_e___test.html#a0e62a17933f21dc8c45b22def98ac192" target="_top" xlink:title="okw.core.EN_Keywords\l_DELETE_Test.tcSelectMenu\l_Value_MV_DELETE_EmptyString">
<polygon fill="white" stroke="black" points="561,-797.5 561,-838.5 731,-838.5 731,-797.5 561,-797.5"/>
<text text-anchor="start" x="569" y="-826.5" font-family="Helvetica,sans-Serif" font-size="10.00">okw.core.EN_Keywords</text>
<text text-anchor="start" x="569" y="-815.5" font-family="Helvetica,sans-Serif" font-size="10.00">_DELETE_Test.tcSelectMenu</text>
<text text-anchor="middle" x="646" y="-804.5" font-family="Helvetica,sans-Serif" font-size="10.00">_Value_MV_DELETE_EmptyString</text>
</a>
</g>
</g>
<!-- Node3167&#45;&gt;Node3170 -->
<g id="edge5" class="edge"><title>Node3167&#45;&gt;Node3170</title>
<path fill="none" stroke="midnightblue" d="M437.11,-532.541C443.02,-587.329 464.627,-716.846 540,-787 546.122,-792.698 553.241,-797.353 560.834,-801.155"/>
<polygon fill="midnightblue" stroke="midnightblue" points="440.567,-531.932 436.099,-522.326 433.601,-532.621 440.567,-531.932"/>
</g>
<!-- Node3171 -->
<g id="node7" class="node"><title>Node3171</title>
<g id="a_node7"><a xlink:href="classokw_1_1core_1_1_e_n___keywords___empty___test.html#a762d53bca89c6648f77cb3186c4740c6" target="_top" xlink:title="Prüft &quot;${EMPTY}&quot; für das Schlüsslewort VerifySelectedValue(strng,string) ">
<polygon fill="white" stroke="black" points="568.5,-737.5 568.5,-778.5 723.5,-778.5 723.5,-737.5 568.5,-737.5"/>
<text text-anchor="start" x="576.5" y="-766.5" font-family="Helvetica,sans-Serif" font-size="10.00">okw.core.EN_Keywords</text>
<text text-anchor="start" x="576.5" y="-755.5" font-family="Helvetica,sans-Serif" font-size="10.00">_Empty_Test.tc_VerifySelected</text>
<text text-anchor="middle" x="646" y="-744.5" font-family="Helvetica,sans-Serif" font-size="10.00">Value_Empty</text>
</a>
</g>
</g>
<!-- Node3167&#45;&gt;Node3171 -->
<g id="edge6" class="edge"><title>Node3167&#45;&gt;Node3171</title>
<path fill="none" stroke="midnightblue" d="M439.869,-532.24C450.062,-578.172 478.035,-675.512 540,-728 548.246,-734.985 558.025,-740.346 568.246,-744.461"/>
<polygon fill="midnightblue" stroke="midnightblue" points="443.246,-531.293 437.752,-522.234 436.397,-532.742 443.246,-531.293"/>
</g>
<!-- Node3172 -->
<g id="node8" class="node"><title>Node3172</title>
<g id="a_node8"><a xlink:href="classokw_1_1core_1_1_e_n___keywords___test.html#a3b46cf578ee7fdc21a81fa090865badd" target="_top" xlink:title="okw.core.EN_Keywords\l_Test.tc_VerifySelectedValue">
<polygon fill="white" stroke="black" points="573,-689 573,-719 719,-719 719,-689 573,-689"/>
<text text-anchor="start" x="581" y="-707" font-family="Helvetica,sans-Serif" font-size="10.00">okw.core.EN_Keywords</text>
<text text-anchor="middle" x="646" y="-696" font-family="Helvetica,sans-Serif" font-size="10.00">_Test.tc_VerifySelectedValue</text>
</a>
</g>
</g>
<!-- Node3167&#45;&gt;Node3172 -->
<g id="edge7" class="edge"><title>Node3167&#45;&gt;Node3172</title>
<path fill="none" stroke="midnightblue" d="M443.151,-531.919C456.867,-569.795 488.254,-641.411 540,-679 549.703,-686.048 561.117,-691.135 572.78,-694.8"/>
<polygon fill="midnightblue" stroke="midnightblue" points="446.352,-530.472 439.748,-522.187 439.745,-532.782 446.352,-530.472"/>
</g>
<!-- Node3173 -->
<g id="node9" class="node"><title>Node3173</title>
<g id="a_node9"><a xlink:href="classokw_1_1core_1_1_e_n___o_k_w_frame_object_child_not_found_exception___test.html#afa42441d0abafeb5fb1e91a373434802" target="_top" xlink:title="Prüft ob die Ausnahme OKWFrameObjectChildNotFoundException durch die VerifySelected ausgelöst wird...">
<polygon fill="white" stroke="black" points="540.5,-618 540.5,-670 751.5,-670 751.5,-618 540.5,-618"/>
<text text-anchor="start" x="548.5" y="-658" font-family="Helvetica,sans-Serif" font-size="10.00">okw.core.EN_OKWFrameObject</text>
<text text-anchor="start" x="548.5" y="-647" font-family="Helvetica,sans-Serif" font-size="10.00">ChildNotFoundException</text>
<text text-anchor="start" x="548.5" y="-636" font-family="Helvetica,sans-Serif" font-size="10.00">_Test.TC_VerifySelectedValue</text>
<text text-anchor="middle" x="646" y="-625" font-family="Helvetica,sans-Serif" font-size="10.00">_OKWFrameObjectChildNotFoundException</text>
</a>
</g>
</g>
<!-- Node3167&#45;&gt;Node3173 -->
<g id="edge8" class="edge"><title>Node3167&#45;&gt;Node3173</title>
<path fill="none" stroke="midnightblue" d="M453.537,-529.927C472.952,-552.597 505.392,-586.87 540,-608 545.921,-611.615 552.253,-614.925 558.764,-617.945"/>
<polygon fill="midnightblue" stroke="midnightblue" points="456.108,-527.547 446.993,-522.147 450.751,-532.053 456.108,-527.547"/>
</g>
<!-- Node3174 -->
<g id="node10" class="node"><title>Node3174</title>
<g id="a_node10"><a xlink:href="classokw_1_1core_1_1_e_n___o_k_w_frame_object_method_not_implemented___test.html#af4ff493b3f95375ba46e655d45c15df7" target="_top" xlink:title="Prüft ob die Ausnahme OKWFrameObjectMethodNotImplemented von VerifySelectedValue( FN...">
<polygon fill="white" stroke="black" points="548,-547 548,-599 744,-599 744,-547 548,-547"/>
<text text-anchor="start" x="556" y="-587" font-family="Helvetica,sans-Serif" font-size="10.00">okw.core.EN_OKWFrameObject</text>
<text text-anchor="start" x="556" y="-576" font-family="Helvetica,sans-Serif" font-size="10.00">MethodNotImplemented_Test.TC</text>
<text text-anchor="start" x="556" y="-565" font-family="Helvetica,sans-Serif" font-size="10.00">_VerifySelectedValue_OKWFrameObject</text>
<text text-anchor="middle" x="646" y="-554" font-family="Helvetica,sans-Serif" font-size="10.00">MethodNotImplemented</text>
</a>
</g>
</g>
<!-- Node3167&#45;&gt;Node3174 -->
<g id="edge9" class="edge"><title>Node3167&#45;&gt;Node3174</title>
<path fill="none" stroke="midnightblue" d="M492.544,-525.085C514.055,-531.846 538.932,-539.664 562.27,-546.999"/>
<polygon fill="midnightblue" stroke="midnightblue" points="493.504,-521.718 482.915,-522.059 491.406,-528.396 493.504,-521.718"/>
</g>
<!-- Node3175 -->
<g id="node11" class="node"><title>Node3175</title>
<g id="a_node11"><a xlink:href="classokw_1_1core_1_1_e_n___o_k_w_not_allowed_value_exception___keywords___i_g_n_o_r_e.html#aa1091fdbff7395059c1f764ffcba24fc" target="_top" xlink:title="Prüft ob &quot;${IGNORE} &quot; die Ausnahme okw.exceptions.OKWNotAllowedValueException auslöst. ">
<polygon fill="white" stroke="black" points="543,-486.5 543,-527.5 749,-527.5 749,-486.5 543,-486.5"/>
<text text-anchor="start" x="551" y="-515.5" font-family="Helvetica,sans-Serif" font-size="10.00">okw.core.EN_OKWNotAllowed</text>
<text text-anchor="start" x="551" y="-504.5" font-family="Helvetica,sans-Serif" font-size="10.00">ValueException_Keywords</text>
<text text-anchor="middle" x="646" y="-493.5" font-family="Helvetica,sans-Serif" font-size="10.00">_IGNORE.tcVerifySelectedValueIGNORE1</text>
</a>
</g>
</g>
<!-- Node3167&#45;&gt;Node3175 -->
<g id="edge10" class="edge"><title>Node3167&#45;&gt;Node3175</title>
<path fill="none" stroke="midnightblue" d="M514.106,-507C523.492,-507 533.173,-507 542.821,-507"/>
<polygon fill="midnightblue" stroke="midnightblue" points="514.053,-503.5 504.053,-507 514.053,-510.5 514.053,-503.5"/>
</g>
<!-- Node3176 -->
<g id="node12" class="node"><title>Node3176</title>
<g id="a_node12"><a xlink:href="classokw_1_1core_1_1_e_n___o_k_w_not_allowed_value_exception___keywords___i_g_n_o_r_e.html#a88284aecd0833ca5766d472ffee13a6b" target="_top" xlink:title="Prüft ob &quot;&quot;${IGNORE}${TCN}&quot; die Ausnahme okw.exceptions.OKWNotAllowedValueException auslöst...">
<polygon fill="white" stroke="black" points="543,-426.5 543,-467.5 749,-467.5 749,-426.5 543,-426.5"/>
<text text-anchor="start" x="551" y="-455.5" font-family="Helvetica,sans-Serif" font-size="10.00">okw.core.EN_OKWNotAllowed</text>
<text text-anchor="start" x="551" y="-444.5" font-family="Helvetica,sans-Serif" font-size="10.00">ValueException_Keywords</text>
<text text-anchor="middle" x="646" y="-433.5" font-family="Helvetica,sans-Serif" font-size="10.00">_IGNORE.tcVerifySelectedValueIGNORE2</text>
</a>
</g>
</g>
<!-- Node3167&#45;&gt;Node3176 -->
<g id="edge11" class="edge"><title>Node3167&#45;&gt;Node3176</title>
<path fill="none" stroke="midnightblue" d="M497.356,-489.184C521.193,-482.373 548.562,-474.554 573.21,-467.511"/>
<polygon fill="midnightblue" stroke="midnightblue" points="496.375,-485.824 487.721,-491.937 498.298,-492.555 496.375,-485.824"/>
</g>
<!-- Node3177 -->
<g id="node13" class="node"><title>Node3177</title>
<g id="a_node13"><a xlink:href="classokw_1_1core_1_1_e_n___verify_selected_value___o_k_w_verifying_fails_exception___test.html#aba63ded3310097f2974ddde223902277" target="_top" xlink:title="Prüft, ob die Ausnahme OKWVerifyingFailsException bei einem Soll/Ist&#45;Vergleich ausgelöst wird...">
<polygon fill="white" stroke="black" points="557,-355 557,-407 735,-407 735,-355 557,-355"/>
<text text-anchor="start" x="565" y="-395" font-family="Helvetica,sans-Serif" font-size="10.00">okw.core.EN_VerifySelected</text>
<text text-anchor="start" x="565" y="-384" font-family="Helvetica,sans-Serif" font-size="10.00">Value_OKWVerifyingFailsException</text>
<text text-anchor="start" x="565" y="-373" font-family="Helvetica,sans-Serif" font-size="10.00">_Test.TC_VerifySelectedValue</text>
<text text-anchor="middle" x="646" y="-362" font-family="Helvetica,sans-Serif" font-size="10.00">_OKWVerifyingFailsException_SV01</text>
</a>
</g>
</g>
<!-- Node3167&#45;&gt;Node3177 -->
<g id="edge12" class="edge"><title>Node3167&#45;&gt;Node3177</title>
<path fill="none" stroke="midnightblue" d="M455.982,-484.722C475.945,-464.636 507.658,-435.495 540,-417 546.273,-413.413 552.962,-410.104 559.809,-407.069"/>
<polygon fill="midnightblue" stroke="midnightblue" points="453.417,-482.338 448.929,-491.936 458.423,-487.232 453.417,-482.338"/>
</g>
<!-- Node3178 -->
<g id="node14" class="node"><title>Node3178</title>
<g id="a_node14"><a xlink:href="classokw_1_1core_1_1_e_n___verify_selected_value___o_k_w_verifying_fails_exception___test.html#a0cb77b88d7248a689abc429f6d64fa28" target="_top" xlink:title="Prüft, ob die Ausnahme OKWVerifyingFailsException bei einem Soll/Ist&#45;Vergleich ausgelöst wird...">
<polygon fill="white" stroke="black" points="557,-284 557,-336 735,-336 735,-284 557,-284"/>
<text text-anchor="start" x="565" y="-324" font-family="Helvetica,sans-Serif" font-size="10.00">okw.core.EN_VerifySelected</text>
<text text-anchor="start" x="565" y="-313" font-family="Helvetica,sans-Serif" font-size="10.00">Value_OKWVerifyingFailsException</text>
<text text-anchor="start" x="565" y="-302" font-family="Helvetica,sans-Serif" font-size="10.00">_Test.TC_VerifySelectedValue</text>
<text text-anchor="middle" x="646" y="-291" font-family="Helvetica,sans-Serif" font-size="10.00">_OKWVerifyingFailsException_SV02</text>
</a>
</g>
</g>
<!-- Node3167&#45;&gt;Node3178 -->
<g id="edge13" class="edge"><title>Node3167&#45;&gt;Node3178</title>
<path fill="none" stroke="midnightblue" d="M444.915,-482.203C460.204,-447.006 492.791,-382.76 540,-346 545.246,-341.915 550.985,-338.278 556.988,-335.041"/>
<polygon fill="midnightblue" stroke="midnightblue" points="441.561,-481.149 440.896,-491.723 448.01,-483.872 441.561,-481.149"/>
</g>
<!-- Node3179 -->
<g id="node15" class="node"><title>Node3179</title>
<g id="a_node15"><a xlink:href="classokw_1_1core_1_1_e_n___verify_selected_value___o_k_w_verifying_fails_exception___test.html#a924a5b61977c15ffe9cdb5ead808034c" target="_top" xlink:title="Prüft, ob die Ausnahme OKWVerifyingFailsException bei einem Soll/Ist&#45;Vergleich ausgelöst wird...">
<polygon fill="white" stroke="black" points="557,-213 557,-265 735,-265 735,-213 557,-213"/>
<text text-anchor="start" x="565" y="-253" font-family="Helvetica,sans-Serif" font-size="10.00">okw.core.EN_VerifySelected</text>
<text text-anchor="start" x="565" y="-242" font-family="Helvetica,sans-Serif" font-size="10.00">Value_OKWVerifyingFailsException</text>
<text text-anchor="start" x="565" y="-231" font-family="Helvetica,sans-Serif" font-size="10.00">_Test.TC_VerifySelectedValue</text>
<text text-anchor="middle" x="646" y="-220" font-family="Helvetica,sans-Serif" font-size="10.00">_OKWVerifyingFailsException_SV03</text>
</a>
</g>
</g>
<!-- Node3167&#45;&gt;Node3179 -->
<g id="edge14" class="edge"><title>Node3167&#45;&gt;Node3179</title>
<path fill="none" stroke="midnightblue" d="M439.554,-481.832C449.394,-434.594 477.038,-332.264 540,-275 545.061,-270.397 550.737,-266.378 556.761,-262.87"/>
<polygon fill="midnightblue" stroke="midnightblue" points="436.085,-481.33 437.57,-491.82 442.951,-482.694 436.085,-481.33"/>
</g>
<!-- Node3180 -->
<g id="node16" class="node"><title>Node3180</title>
<g id="a_node16"><a xlink:href="classokw_1_1core_1_1_e_n___verify_selected_value___o_k_w_verifying_fails_exception___test.html#abef57ed3f025bf0dc58224d554057386" target="_top" xlink:title="Prüft, ob die Ausnahme OKWVerifyingFailsException bei einem Soll/Ist&#45;Vergleich ausgelöst wird...">
<polygon fill="white" stroke="black" points="556.5,-142 556.5,-194 735.5,-194 735.5,-142 556.5,-142"/>
<text text-anchor="start" x="564.5" y="-182" font-family="Helvetica,sans-Serif" font-size="10.00">okw.core.EN_VerifySelected</text>
<text text-anchor="start" x="564.5" y="-171" font-family="Helvetica,sans-Serif" font-size="10.00">Value_OKWVerifyingFailsException</text>
<text text-anchor="start" x="564.5" y="-160" font-family="Helvetica,sans-Serif" font-size="10.00">_Test.TC_VerifySelectedValue</text>
<text text-anchor="middle" x="646" y="-149" font-family="Helvetica,sans-Serif" font-size="10.00">_OKWVerifyingFailsException_MV01</text>
</a>
</g>
</g>
<!-- Node3167&#45;&gt;Node3180 -->
<g id="edge15" class="edge"><title>Node3167&#45;&gt;Node3180</title>
<path fill="none" stroke="midnightblue" d="M436.513,-481.625C441.298,-424.133 460.911,-282.83 540,-204 544.777,-199.239 550.211,-195.106 556.032,-191.52"/>
<polygon fill="midnightblue" stroke="midnightblue" points="433.018,-481.424 435.76,-491.658 439.998,-481.947 433.018,-481.424"/>
</g>
<!-- Node3181 -->
<g id="node17" class="node"><title>Node3181</title>
<g id="a_node17"><a xlink:href="classokw_1_1core_1_1_e_n___verify_selected_value___o_k_w_verifying_fails_exception___test.html#a2355a61765ba3c7b913da782d649f99e" target="_top" xlink:title="Prüft, ob die Ausnahme OKWVerifyingFailsException bei einem Soll/Ist&#45;Vergleich ausgelöst wird...">
<polygon fill="white" stroke="black" points="556.5,-71 556.5,-123 735.5,-123 735.5,-71 556.5,-71"/>
<text text-anchor="start" x="564.5" y="-111" font-family="Helvetica,sans-Serif" font-size="10.00">okw.core.EN_VerifySelected</text>
<text text-anchor="start" x="564.5" y="-100" font-family="Helvetica,sans-Serif" font-size="10.00">Value_OKWVerifyingFailsException</text>
<text text-anchor="start" x="564.5" y="-89" font-family="Helvetica,sans-Serif" font-size="10.00">_Test.TC_VerifySelectedValue</text>
<text text-anchor="middle" x="646" y="-78" font-family="Helvetica,sans-Serif" font-size="10.00">_OKWVerifyingFailsException_MV02</text>
</a>
</g>
</g>
<!-- Node3167&#45;&gt;Node3181 -->
<g id="edge16" class="edge"><title>Node3167&#45;&gt;Node3181</title>
<path fill="none" stroke="midnightblue" d="M434.532,-481.404C434.73,-414.755 444.545,-234.016 540,-133 544.765,-127.958 550.266,-123.621 556.202,-119.893"/>
<polygon fill="midnightblue" stroke="midnightblue" points="431.033,-481.804 434.579,-491.788 438.033,-481.772 431.033,-481.804"/>
</g>
<!-- Node3182 -->
<g id="node18" class="node"><title>Node3182</title>
<g id="a_node18"><a xlink:href="classokw_1_1core_1_1_e_n___verify_selected_value___o_k_w_verifying_fails_exception___test.html#ae186ccc49a6722562a5b1c36477837d9" target="_top" xlink:title="Prüft, ob die Ausnahme OKWVerifyingFailsException bei einem Soll/Ist&#45;Vergleich ausgelöst wird...">
<polygon fill="white" stroke="black" points="556.5,-0 556.5,-52 735.5,-52 735.5,-0 556.5,-0"/>
<text text-anchor="start" x="564.5" y="-40" font-family="Helvetica,sans-Serif" font-size="10.00">okw.core.EN_VerifySelected</text>
<text text-anchor="start" x="564.5" y="-29" font-family="Helvetica,sans-Serif" font-size="10.00">Value_OKWVerifyingFailsException</text>
<text text-anchor="start" x="564.5" y="-18" font-family="Helvetica,sans-Serif" font-size="10.00">_Test.TC_VerifySelectedValue</text>
<text text-anchor="middle" x="646" y="-7" font-family="Helvetica,sans-Serif" font-size="10.00">_OKWVerifyingFailsException_MV03</text>
</a>
</g>
</g>
<!-- Node3167&#45;&gt;Node3182 -->
<g id="edge17" class="edge"><title>Node3167&#45;&gt;Node3182</title>
<path fill="none" stroke="midnightblue" d="M437.734,-481.931C447.408,-397.523 482.56,-125.401 540,-62 544.787,-56.7159 550.384,-52.2072 556.456,-48.3602"/>
<polygon fill="midnightblue" stroke="midnightblue" points="434.25,-481.587 436.609,-491.916 441.206,-482.37 434.25,-481.587"/>
</g>
</g>
</svg>
