<?xml version="1.0" encoding="UTF-8" standalone="no"?>
<!DOCTYPE svg PUBLIC "-//W3C//DTD SVG 1.1//EN"
 "http://www.w3.org/Graphics/SVG/1.1/DTD/svg11.dtd">
<!-- Generated by graphviz version 2.36.0 (20140111.2315)
 -->
<!-- Title: okw.core.IOKW_State.LogSelected Pages: 1 -->
<!--zoomable 77 -->
<svg id="main" version="1.1" xmlns="http://www.w3.org/2000/svg" xmlns:xlink="http://www.w3.org/1999/xlink" xml:space="preserve" onload="init(evt)">
<style type="text/css"><![CDATA[
.edge:hover path { stroke: red; }
.edge:hover polygon { stroke: red; fill: red; }
]]></style>
<script type="text/javascript"><![CDATA[
var edges = document.getElementsByTagName('g');
if (edges && edges.length) {
  for (var i=0;i<edges.length;i++) {
    if (edges[i].id.substr(0,4)=='edge') {
      edges[i].setAttribute('class','edge');
    }
  }
}
]]></script>
        <defs>
                <circle id="rim" cx="0" cy="0" r="7"/>
                <circle id="rim2" cx="0" cy="0" r="3.5"/>
                <g id="zoomPlus">
                        <use xlink:href="#rim" fill="#404040">
                                <set attributeName="fill" to="#808080" begin="zoomplus.mouseover" end="zoomplus.mouseout"/>
                        </use>
                        <path d="M-4,0h8M0,-4v8" fill="none" stroke="white" stroke-width="1.5" pointer-events="none"/>
                </g>
                <g id="zoomMin">
                        <use xlink:href="#rim" fill="#404040">
                                <set attributeName="fill" to="#808080" begin="zoomminus.mouseover" end="zoomminus.mouseout"/>
                        </use>
                        <path d="M-4,0h8" fill="none" stroke="white" stroke-width="1.5" pointer-events="none"/>
                </g>
                <g id="dirArrow">
                        <path fill="none" stroke="white" stroke-width="1.5" d="M0,-3.0v7 M-2.5,-0.5L0,-3.0L2.5,-0.5"/>
                </g>
               <g id="resetDef">
                       <use xlink:href="#rim2" fill="#404040">
                               <set attributeName="fill" to="#808080" begin="reset.mouseover" end="reset.mouseout"/>
                       </use>
               </g>
        </defs>

<script type="text/javascript">
var viewWidth = 558;
var viewHeight = 77;
var sectionId = 'dynsection-13';
</script>
<script xlink:href="svgpan.js"/>
<svg id="graph" class="graph">
<g id="viewport">
<title>okw.core.IOKW_State.LogSelected</title>
<polygon fill="white" stroke="none" points="-4,4 -4,-73 554,-73 554,4 -4,4"/>
<!-- Node822 -->
<g id="node1" class="node"><title>Node822</title>
<polygon fill="#bfbfbf" stroke="black" points="0,-27.5 0,-46.5 172,-46.5 172,-27.5 0,-27.5"/>
<text text-anchor="middle" x="86" y="-34.5" font-family="Helvetica,sans-Serif" font-size="10.00">okw.core.IOKW_State.LogSelected</text>
</g>
<!-- Node823 -->
<g id="node2" class="node"><title>Node823</title>
<g id="a_node2"><a xlink:href="classokw_1_1core_1_1_core.html#a7d2e15f017823e0df6c45fe7fe8251c0" target="_top" xlink:title="Dokumentiert den markierten Text des gegebenen Objekts. ">
<polygon fill="white" stroke="black" points="208.5,-27.5 208.5,-46.5 345.5,-46.5 345.5,-27.5 208.5,-27.5"/>
<text text-anchor="middle" x="277" y="-34.5" font-family="Helvetica,sans-Serif" font-size="10.00">okw.core.Core.LogSelected</text>
</a>
</g>
</g>
<!-- Node822&#45;&gt;Node823 -->
<g id="edge1" class="edge"><title>Node822&#45;&gt;Node823</title>
<path fill="none" stroke="midnightblue" d="M182.383,-37C191.154,-37 199.915,-37 208.363,-37"/>
<polygon fill="midnightblue" stroke="midnightblue" points="182.101,-33.5001 172.101,-37 182.101,-40.5001 182.101,-33.5001"/>
</g>
<!-- Node824 -->
<g id="node3" class="node"><title>Node824</title>
<g id="a_node3"><a xlink:href="classokw_1_1core_1_1_e_n.html#a7c5b0f0e1a534035090bdd7c523d1486" target="_top" xlink:title="Dokumentiert den markierten Text des gegebenen Objekts. ">
<polygon fill="white" stroke="black" points="400.5,-49.5 400.5,-68.5 531.5,-68.5 531.5,-49.5 400.5,-49.5"/>
<text text-anchor="middle" x="466" y="-56.5" font-family="Helvetica,sans-Serif" font-size="10.00">okw.core.EN.LogSelected</text>
</a>
</g>
</g>
<!-- Node823&#45;&gt;Node824 -->
<g id="edge2" class="edge"><title>Node823&#45;&gt;Node824</title>
<path fill="none" stroke="midnightblue" d="M355.7,-46.1412C370.572,-47.8909 385.994,-49.7051 400.4,-51.4"/>
<polygon fill="midnightblue" stroke="midnightblue" points="355.852,-42.635 345.511,-44.9425 355.034,-49.587 355.852,-42.635"/>
</g>
<!-- Node825 -->
<g id="node4" class="node"><title>Node825</title>
<g id="a_node4"><a xlink:href="classokw_1_1core_1_1_current_object___test.html#a8a0a39a42dd658626726e6b996fa0d10" target="_top" xlink:title="Testziel: Prüft den Aufruf der Methode LogCaption( &quot;FN&quot; ) im ChildObject. ">
<polygon fill="white" stroke="black" points="382,-0 382,-30 550,-30 550,-0 382,-0"/>
<text text-anchor="start" x="390" y="-18" font-family="Helvetica,sans-Serif" font-size="10.00">okw.core.CurrentObject</text>
<text text-anchor="middle" x="466" y="-7" font-family="Helvetica,sans-Serif" font-size="10.00">_Test.tc_LogSelected_ChildObject</text>
</a>
</g>
</g>
<!-- Node823&#45;&gt;Node825 -->
<g id="edge3" class="edge"><title>Node823&#45;&gt;Node825</title>
<path fill="none" stroke="midnightblue" d="M355.61,-27.8694C364.302,-26.8468 373.184,-25.8019 381.941,-24.7716"/>
<polygon fill="midnightblue" stroke="midnightblue" points="355.034,-24.413 345.511,-29.0575 355.852,-31.365 355.034,-24.413"/>
</g>
</g>
</svg>
        <g id="navigator" transform="translate(0 0)" fill="#404254">
                <rect fill="#f2f5e9" fill-opacity="0.5" stroke="#606060" stroke-width=".5" x="0" y="0" width="60" height="60"/>
                <use id="zoomplus" xlink:href="#zoomPlus" x="17" y="9" onmousedown="handleZoom(evt,'in')"/>
                <use id="zoomminus" xlink:href="#zoomMin" x="42" y="9" onmousedown="handleZoom(evt,'out')"/>
                <use id="reset" xlink:href="#resetDef" x="30" y="36" onmousedown="handleReset()"/>
                <g id="arrowUp" xlink:href="#dirArrow" transform="translate(30 24)" onmousedown="handlePan(0,-1)">
                  <use xlink:href="#rim" fill="#404040">
                        <set attributeName="fill" to="#808080" begin="arrowUp.mouseover" end="arrowUp.mouseout"/>
                  </use>
                  <path fill="none" stroke="white" stroke-width="1.5" d="M0,-3.0v7 M-2.5,-0.5L0,-3.0L2.5,-0.5"/>
                </g>
                <g id="arrowRight" xlink:href="#dirArrow" transform="rotate(90) translate(36 -43)" onmousedown="handlePan(1,0)">
                  <use xlink:href="#rim" fill="#404040">
                        <set attributeName="fill" to="#808080" begin="arrowRight.mouseover" end="arrowRight.mouseout"/>
                  </use>
                  <path fill="none" stroke="white" stroke-width="1.5" d="M0,-3.0v7 M-2.5,-0.5L0,-3.0L2.5,-0.5"/>
                </g>
                <g id="arrowDown" xlink:href="#dirArrow" transform="rotate(180) translate(-30 -48)" onmousedown="handlePan(0,1)">
                  <use xlink:href="#rim" fill="#404040">
                        <set attributeName="fill" to="#808080" begin="arrowDown.mouseover" end="arrowDown.mouseout"/>
                  </use>
                  <path fill="none" stroke="white" stroke-width="1.5" d="M0,-3.0v7 M-2.5,-0.5L0,-3.0L2.5,-0.5"/>
                </g>
                <g id="arrowLeft" xlink:href="#dirArrow" transform="rotate(270) translate(-36 17)" onmousedown="handlePan(-1,0)">
                  <use xlink:href="#rim" fill="#404040">
                        <set attributeName="fill" to="#808080" begin="arrowLeft.mouseover" end="arrowLeft.mouseout"/>
                  </use>
                  <path fill="none" stroke="white" stroke-width="1.5" d="M0,-3.0v7 M-2.5,-0.5L0,-3.0L2.5,-0.5"/>
                </g>
        </g>
        <svg viewBox="0 0 15 15" width="100%" height="30px" preserveAspectRatio="xMaxYMin meet">
         <g id="arrow_out" transform="scale(0.3 0.3)">
          <a xlink:href="interfaceokw_1_1core_1_1_i_o_k_w___state_ab471567ece6e585834e5b4bedda51033_icgraph_org.svg" target="_base">
           <rect id="button" ry="5" rx="5" y="6" x="6" height="38" width="38"
                fill="#f2f5e9" fill-opacity="0.5" stroke="#606060" stroke-width="1.0"/>
           <path id="arrow"
             d="M 11.500037,31.436501 C 11.940474,20.09759 22.043105,11.32322 32.158766,21.979434 L 37.068811,17.246167 C 37.068811,17.246167 37.088388,32 37.088388,32 L 22.160133,31.978069 C 22.160133,31.978069 26.997745,27.140456 26.997745,27.140456 C 18.528582,18.264221 13.291696,25.230495 11.500037,31.436501 z"
             style="fill:#404040;"/>
          </a>
         </g>
        </svg>
</svg>
