<?xml version="1.0" encoding="UTF-8" standalone="no"?>
<!DOCTYPE svg PUBLIC "-//W3C//DTD SVG 1.1//EN"
 "http://www.w3.org/Graphics/SVG/1.1/DTD/svg11.dtd">
<!-- Generated by graphviz version 2.26.3 (20100126.1600)
 -->
<!-- Title: okw.core.IOKW_State.SetFocus Pages: 1 -->
<svg width="812pt" height="630pt"
 viewBox="0.00 0.00 812.00 630.00" xmlns="http://www.w3.org/2000/svg" xmlns:xlink="http://www.w3.org/1999/xlink">
<g id="graph1" class="graph" transform="scale(1 1) rotate(0) translate(4 626)">
<title>okw.core.IOKW_State.SetFocus</title>
<polygon fill="white" stroke="white" points="-4,5 -4,-626 809,-626 809,5 -4,5"/>
<!-- Node1465 -->
<g id="node1" class="node"><title>Node1465</title>
<polygon fill="#bfbfbf" stroke="black" points="0,-267.5 0,-288.5 160,-288.5 160,-267.5 0,-267.5"/>
<text text-anchor="middle" x="80" y="-275.5" font-family="Helvetica,sans-Serif" font-size="10.00">okw.core.IOKW_State.SetFocus</text>
</g>
<!-- Node1466 -->
<g id="node3" class="node"><title>Node1466</title>
<a xlink:href="classokw_1_1core_1_1_core.html#a343aac009274a866520db97ec9cc793a" target="_top" xlink:title="Setzt den Fokus auf das gegebene Fensterobjekt. ">
<polygon fill="white" stroke="black" points="196.5,-267.5 196.5,-288.5 321.5,-288.5 321.5,-267.5 196.5,-267.5"/>
<text text-anchor="middle" x="259" y="-275.5" font-family="Helvetica,sans-Serif" font-size="10.00">okw.core.Core.SetFocus</text>
</a>
</g>
<!-- Node1465&#45;&gt;Node1466 -->
<g id="edge2" class="edge"><title>Node1465&#45;&gt;Node1466</title>
<path fill="none" stroke="midnightblue" d="M170.113,-278C179.017,-278 187.913,-278 196.448,-278"/>
<polygon fill="midnightblue" stroke="midnightblue" points="170.076,-274.5 160.076,-278 170.076,-281.5 170.076,-274.5"/>
</g>
<!-- Node1467 -->
<g id="node5" class="node"><title>Node1467</title>
<a xlink:href="classokw_1_1core_1_1_e_n.html#a0c807adb569b1a479ed716d6ed5010f2" target="_top" xlink:title="Setzt den Fokus auf das gegebene Fensterobjekt. ">
<polygon fill="white" stroke="black" points="376.5,-294.5 376.5,-315.5 495.5,-315.5 495.5,-294.5 376.5,-294.5"/>
<text text-anchor="middle" x="436" y="-302.5" font-family="Helvetica,sans-Serif" font-size="10.00">okw.core.EN.SetFocus</text>
</a>
</g>
<!-- Node1466&#45;&gt;Node1467 -->
<g id="edge4" class="edge"><title>Node1466&#45;&gt;Node1467</title>
<path fill="none" stroke="midnightblue" d="M331.987,-289.134C346.722,-291.381 362.049,-293.719 376.265,-295.888"/>
<polygon fill="midnightblue" stroke="midnightblue" points="332.315,-285.643 321.902,-287.595 331.26,-292.563 332.315,-285.643"/>
</g>
<!-- Node1479 -->
<g id="node29" class="node"><title>Node1479</title>
<a xlink:href="classokw_1_1core_1_1_current_object___test.html#ab84d1f17d30a87057eb8002311d29b4d" target="_top" xlink:title="Testziel: Prüft den Aufruf der Methode SetFocus( &quot;FN&quot; ) im ChildObject. ">
<polygon fill="white" stroke="black" points="358,-228.5 358,-275.5 514,-275.5 514,-228.5 358,-228.5"/>
<text text-anchor="start" x="366" y="-262.5" font-family="Helvetica,sans-Serif" font-size="10.00">okw.core.CurrentObject</text>
<text text-anchor="start" x="366" y="-249.5" font-family="Helvetica,sans-Serif" font-size="10.00">_Test.tc_SetFocus_ChildObject</text>
<text text-anchor="middle" x="436" y="-236.5" font-family="Helvetica,sans-Serif" font-size="10.00">_WithOneValue</text>
</a>
</g>
<!-- Node1466&#45;&gt;Node1479 -->
<g id="edge28" class="edge"><title>Node1466&#45;&gt;Node1479</title>
<path fill="none" stroke="midnightblue" d="M331.844,-267.3C340.41,-266.042 349.177,-264.754 357.812,-263.485"/>
<polygon fill="midnightblue" stroke="midnightblue" points="331.287,-263.844 321.902,-268.76 332.304,-270.77 331.287,-263.844"/>
</g>
<!-- Node1468 -->
<g id="node7" class="node"><title>Node1468</title>
<a xlink:href="classokw_1_1core_1_1_e_n___o_k_w_frame_object_child_not_found_exception___test.html#a4b7ecafa2d100e1be21175716680672c" target="_top" xlink:title="Prüft ob die Ausnahme OKWFrameObjectChildNotFoundException durch SetFocus ausgelöst wird...">
<polygon fill="white" stroke="black" points="581.5,-562 581.5,-622 772.5,-622 772.5,-562 581.5,-562"/>
<text text-anchor="start" x="589.5" y="-609" font-family="Helvetica,sans-Serif" font-size="10.00">okw.core.EN_OKWFrameObject</text>
<text text-anchor="start" x="589.5" y="-596" font-family="Helvetica,sans-Serif" font-size="10.00">ChildNotFoundException</text>
<text text-anchor="start" x="589.5" y="-583" font-family="Helvetica,sans-Serif" font-size="10.00">_Test.TC_SetFocus_OKWFrameObject</text>
<text text-anchor="middle" x="677" y="-570" font-family="Helvetica,sans-Serif" font-size="10.00">ChildNotFoundException</text>
</a>
</g>
<!-- Node1467&#45;&gt;Node1468 -->
<g id="edge6" class="edge"><title>Node1467&#45;&gt;Node1468</title>
<path fill="none" stroke="midnightblue" d="M439.55,-325.484C448.82,-372.745 478.198,-490.16 550,-553 559.199,-561.051 570.032,-567.44 581.429,-572.51"/>
<polygon fill="midnightblue" stroke="midnightblue" points="442.969,-324.725 437.697,-315.535 436.088,-326.006 442.969,-324.725"/>
</g>
<!-- Node1469 -->
<g id="node9" class="node"><title>Node1469</title>
<a xlink:href="classokw_1_1core_1_1_e_n___o_k_w_frame_object_method_not_implemented___test.html#a321092d8c4d819347dbef0ca14aa7581" target="_top" xlink:title="Prüft ob die Ausnahme OKWFrameObjectMethodNotImplemented von SetFocus( FN ) ausgelöst wird...">
<polygon fill="white" stroke="black" points="550,-496.5 550,-543.5 804,-543.5 804,-496.5 550,-496.5"/>
<text text-anchor="start" x="558" y="-530.5" font-family="Helvetica,sans-Serif" font-size="10.00">okw.core.EN_OKWFrameObject</text>
<text text-anchor="start" x="558" y="-517.5" font-family="Helvetica,sans-Serif" font-size="10.00">MethodNotImplemented_Test.tc</text>
<text text-anchor="middle" x="677" y="-504.5" font-family="Helvetica,sans-Serif" font-size="10.00">_SetFocus_OKWFrameObjectMethodNotImplemented</text>
</a>
</g>
<!-- Node1467&#45;&gt;Node1469 -->
<g id="edge8" class="edge"><title>Node1467&#45;&gt;Node1469</title>
<path fill="none" stroke="midnightblue" d="M442.979,-325.475C456.995,-363.423 492.259,-444.66 550,-487 554.776,-490.502 559.893,-493.634 565.23,-496.434"/>
<polygon fill="midnightblue" stroke="midnightblue" points="446.106,-323.823 439.448,-315.582 439.513,-326.176 446.106,-323.823"/>
</g>
<!-- Node1470 -->
<g id="node11" class="node"><title>Node1470</title>
<a xlink:href="classokw_1_1_se_button_1_1_se_button___test.html#a694df7b6bf652412471bc52fe6294e4a" target="_top" xlink:title="Test des Schlüsselwortes SetFocus und VerifyHasFocus für den GUI&#45;Adapter SeButton. ">
<polygon fill="white" stroke="black" points="592,-444 592,-478 762,-478 762,-444 592,-444"/>
<text text-anchor="start" x="600" y="-465" font-family="Helvetica,sans-Serif" font-size="10.00">okw.SeButton.SeButton</text>
<text text-anchor="middle" x="677" y="-452" font-family="Helvetica,sans-Serif" font-size="10.00">_Test.tcSetFocus_VerifyHasFocus</text>
</a>
</g>
<!-- Node1467&#45;&gt;Node1470 -->
<g id="edge10" class="edge"><title>Node1467&#45;&gt;Node1470</title>
<path fill="none" stroke="midnightblue" d="M447.381,-324.674C465.286,-353.731 502.897,-407.629 550,-435 562.746,-442.406 577.283,-447.725 591.861,-451.539"/>
<polygon fill="midnightblue" stroke="midnightblue" points="450.228,-322.617 442.079,-315.846 444.227,-326.221 450.228,-322.617"/>
</g>
<!-- Node1471 -->
<g id="node13" class="node"><title>Node1471</title>
<a xlink:href="classokw_1_1_se_input_checkbox_1_1_se_input_checkbox___test.html#ab2b8a392207fda9435fb0fb0b8311706" target="_top" xlink:title="Logget ob ein vorhandenes objekt existiert. ">
<polygon fill="white" stroke="black" points="593.5,-392 593.5,-426 760.5,-426 760.5,-392 593.5,-392"/>
<text text-anchor="start" x="601.5" y="-413" font-family="Helvetica,sans-Serif" font-size="10.00">okw.SeInputCheckbox.SeInput</text>
<text text-anchor="middle" x="677" y="-400" font-family="Helvetica,sans-Serif" font-size="10.00">Checkbox_Test.tcMemorizeExists</text>
</a>
</g>
<!-- Node1467&#45;&gt;Node1471 -->
<g id="edge12" class="edge"><title>Node1467&#45;&gt;Node1471</title>
<path fill="none" stroke="midnightblue" d="M455.828,-322.256C477.493,-340.184 513.941,-367.712 550,-383 563.572,-388.754 578.513,-393.266 593.234,-396.794"/>
<polygon fill="midnightblue" stroke="midnightblue" points="457.92,-319.442 448.017,-315.675 453.409,-324.795 457.92,-319.442"/>
</g>
<!-- Node1472 -->
<g id="node15" class="node"><title>Node1472</title>
<a xlink:href="classokw_1_1_se_input_checkbox_1_1_se_input_checkbox___test.html#a702ffb63f0af2c995bd71ca884b0f408" target="_top" xlink:title="Prüft die SetFocusFunktion bei Textfelder mit dem Attribute &quot;ReadOnly&quot;. ">
<polygon fill="white" stroke="black" points="601,-340 601,-374 753,-374 753,-340 601,-340"/>
<text text-anchor="start" x="609" y="-361" font-family="Helvetica,sans-Serif" font-size="10.00">okw.SeInputCheckbox.SeInput</text>
<text text-anchor="middle" x="677" y="-348" font-family="Helvetica,sans-Serif" font-size="10.00">Checkbox_Test.tcSetFocus</text>
</a>
</g>
<!-- Node1467&#45;&gt;Node1472 -->
<g id="edge14" class="edge"><title>Node1467&#45;&gt;Node1472</title>
<path fill="none" stroke="midnightblue" d="M490.997,-317.804C509.702,-322.089 530.743,-326.833 550,-331 566.388,-334.546 583.993,-338.23 600.719,-341.671"/>
<polygon fill="midnightblue" stroke="midnightblue" points="491.692,-314.372 481.162,-315.544 490.124,-321.195 491.692,-314.372"/>
</g>
<!-- Node1473 -->
<g id="node17" class="node"><title>Node1473</title>
<a xlink:href="classokw_1_1_se_input_field_1_1_se_input_field___test.html#a21372f7438d3d0b6604bfc77a7ef1b0c" target="_top" xlink:title="Teste das Schlüsselwort MemorizeValue( FN, MemKey ) eines SeInputText Prüfen. ">
<polygon fill="white" stroke="black" points="606.5,-288 606.5,-322 747.5,-322 747.5,-288 606.5,-288"/>
<text text-anchor="start" x="614.5" y="-309" font-family="Helvetica,sans-Serif" font-size="10.00">okw.SeInputField.SeInput</text>
<text text-anchor="middle" x="677" y="-296" font-family="Helvetica,sans-Serif" font-size="10.00">Field_Test.tcMemorizeValue</text>
</a>
</g>
<!-- Node1467&#45;&gt;Node1473 -->
<g id="edge16" class="edge"><title>Node1467&#45;&gt;Node1473</title>
<path fill="none" stroke="midnightblue" d="M505.603,-305C537.156,-305 574.413,-305 606.117,-305"/>
<polygon fill="midnightblue" stroke="midnightblue" points="505.573,-301.5 495.573,-305 505.573,-308.5 505.573,-301.5"/>
</g>
<!-- Node1474 -->
<g id="node19" class="node"><title>Node1474</title>
<a xlink:href="classokw_1_1_se_input_field_1_1_se_input_field___test.html#ab2da25dabf85279d19799e9fbcaea718" target="_top" xlink:title="Test des Schlüsselwortes &quot;VerifyValue( FN, ExpVal ) für SeInputText. ">
<polygon fill="white" stroke="black" points="610.5,-236 610.5,-270 743.5,-270 743.5,-236 610.5,-236"/>
<text text-anchor="start" x="618.5" y="-257" font-family="Helvetica,sans-Serif" font-size="10.00">okw.SeInputField.SeInput</text>
<text text-anchor="middle" x="677" y="-244" font-family="Helvetica,sans-Serif" font-size="10.00">Field_Test.tcVerifyCaption</text>
</a>
</g>
<!-- Node1467&#45;&gt;Node1474 -->
<g id="edge18" class="edge"><title>Node1467&#45;&gt;Node1474</title>
<path fill="none" stroke="midnightblue" d="M490.997,-292.196C509.702,-287.911 530.743,-283.167 550,-279 569.577,-274.764 590.892,-270.331 610.37,-266.35"/>
<polygon fill="midnightblue" stroke="midnightblue" points="490.124,-288.805 481.162,-294.456 491.692,-295.628 490.124,-288.805"/>
</g>
<!-- Node1475 -->
<g id="node21" class="node"><title>Node1475</title>
<a xlink:href="classokw_1_1_se_input_field_1_1_se_input_field___test.html#aa7612889d0a642c440c6a085e205ac8f" target="_top" xlink:title="okw.SeInputField.SeInput\lField_Test.tcSelect_OKWGUIObject\lNotFoundException">
<polygon fill="white" stroke="black" points="588.5,-170.5 588.5,-217.5 765.5,-217.5 765.5,-170.5 588.5,-170.5"/>
<text text-anchor="start" x="596.5" y="-204.5" font-family="Helvetica,sans-Serif" font-size="10.00">okw.SeInputField.SeInput</text>
<text text-anchor="start" x="596.5" y="-191.5" font-family="Helvetica,sans-Serif" font-size="10.00">Field_Test.tcSelect_OKWGUIObject</text>
<text text-anchor="middle" x="677" y="-178.5" font-family="Helvetica,sans-Serif" font-size="10.00">NotFoundException</text>
</a>
</g>
<!-- Node1467&#45;&gt;Node1475 -->
<g id="edge20" class="edge"><title>Node1467&#45;&gt;Node1475</title>
<path fill="none" stroke="midnightblue" d="M504.931,-290.639C508.107,-288.962 511.153,-287.09 514,-285 538.459,-267.048 525.57,-244.991 550,-227 561.373,-218.625 574.686,-212.37 588.333,-207.701"/>
<polygon fill="midnightblue" stroke="midnightblue" points="503.326,-287.524 495.689,-294.868 506.239,-293.89 503.326,-287.524"/>
</g>
<!-- Node1476 -->
<g id="node23" class="node"><title>Node1476</title>
<a xlink:href="classokw_1_1_se_input_radio_1_1_se_input_radio___e_n___test.html#a03e86e4db1ffedbd01c1e73d682b2bb9" target="_top" xlink:title="Test des Schlüsselwortes SetFocus und VerifyHasFocus für den GUI&#45;Adapter SeInputRadio. ">
<polygon fill="white" stroke="black" points="574,-104.5 574,-151.5 780,-151.5 780,-104.5 574,-104.5"/>
<text text-anchor="start" x="582" y="-138.5" font-family="Helvetica,sans-Serif" font-size="10.00">okw.SeInputRadio.SeInput</text>
<text text-anchor="start" x="582" y="-125.5" font-family="Helvetica,sans-Serif" font-size="10.00">Radio_EN_Test.tc_SetFocus</text>
<text text-anchor="middle" x="677" y="-112.5" font-family="Helvetica,sans-Serif" font-size="10.00">_OKWFrameObjectMethodNotImplemented</text>
</a>
</g>
<!-- Node1467&#45;&gt;Node1476 -->
<g id="edge22" class="edge"><title>Node1467&#45;&gt;Node1476</title>
<path fill="none" stroke="midnightblue" d="M504.849,-292.064C508.143,-290.028 511.226,-287.687 514,-285 555.214,-245.067 508.851,-201 550,-161 556.942,-154.252 565.08,-148.834 573.825,-144.492"/>
<polygon fill="midnightblue" stroke="midnightblue" points="502.992,-289.084 495.707,-296.777 506.199,-295.306 502.992,-289.084"/>
</g>
<!-- Node1477 -->
<g id="node25" class="node"><title>Node1477</title>
<a xlink:href="classokw_1_1_se_link_1_1_se_link___e_n___test.html#a62aa2dfe0475b6579877aa5ef89615c3" target="_top" xlink:title="Prüft die Methode SeLink.MemorizeFocus. ">
<polygon fill="white" stroke="black" points="593.5,-52 593.5,-86 760.5,-86 760.5,-52 593.5,-52"/>
<text text-anchor="start" x="601.5" y="-73" font-family="Helvetica,sans-Serif" font-size="10.00">okw.SeLink.SeLink_EN</text>
<text text-anchor="middle" x="677" y="-60" font-family="Helvetica,sans-Serif" font-size="10.00">_Test.TC_MemorizeHasFocus_en</text>
</a>
</g>
<!-- Node1467&#45;&gt;Node1477 -->
<g id="edge24" class="edge"><title>Node1467&#45;&gt;Node1477</title>
<path fill="none" stroke="midnightblue" d="M504.686,-292.682C508.083,-290.497 511.228,-287.955 514,-285 572.806,-222.32 489.674,-156.218 550,-95 561.69,-83.1375 577.233,-75.9605 593.425,-71.7514"/>
<polygon fill="midnightblue" stroke="midnightblue" points="502.979,-289.626 495.791,-297.41 506.264,-295.807 502.979,-289.626"/>
</g>
<!-- Node1478 -->
<g id="node27" class="node"><title>Node1478</title>
<a xlink:href="classokw_1_1_se_link_1_1_se_link___e_n___test.html#ad88f4d017f1a55ad12f9ffc5ed0ab336" target="_top" xlink:title="Prüft die Methode SeLink.MemorizeToolTip. ">
<polygon fill="white" stroke="black" points="600,-0 600,-34 754,-34 754,-0 600,-0"/>
<text text-anchor="start" x="608" y="-21" font-family="Helvetica,sans-Serif" font-size="10.00">okw.SeLink.SeLink_EN</text>
<text text-anchor="middle" x="677" y="-8" font-family="Helvetica,sans-Serif" font-size="10.00">_Test.TC_MemorizeToolTip_en</text>
</a>
</g>
<!-- Node1467&#45;&gt;Node1478 -->
<g id="edge26" class="edge"><title>Node1467&#45;&gt;Node1478</title>
<path fill="none" stroke="midnightblue" d="M504.635,-292.935C508.071,-290.691 511.235,-288.066 514,-285 586.817,-204.242 475.224,-121.948 550,-43 563.078,-29.1928 581.359,-21.6677 599.984,-17.782"/>
<polygon fill="midnightblue" stroke="midnightblue" points="502.775,-289.961 495.61,-297.766 506.078,-296.133 502.775,-289.961"/>
</g>
</g>
</svg>
